M48
; DRILL file {KiCad (5.1.5-0-10_14)} date Saturday, January 18, 2020 at 12:46:23 PM
; FORMAT={-:-/ absolute / metric / decimal}
; #@! TF.CreationDate,2020-01-18T12:46:23-08:00
; #@! TF.GenerationSoftware,Kicad,Pcbnew,(5.1.5-0-10_14)
FMAT,2
METRIC
T1C0.254
T2C0.650
T3C0.700
T4C1.000
T5C1.200
T6C1.780
%
G90
G05
T1
X60.775Y-106.125
X64.175Y-94.05
X64.175Y-94.95
X75.575Y-104.875
X79.925Y-98.85
X80.0Y-99.966
X80.45Y-101.8
X80.65Y-100.083
X80.851Y-99.031
X81.25Y-102.6
X83.493Y-103.626
X84.013Y-104.034
X84.525Y-97.075
X84.55Y-103.65
X85.425Y-103.7
X86.775Y-102.8
X87.852Y-99.198
X87.862Y-99.86
X87.88Y-98.538
X87.904Y-97.878
X88.15Y-102.45
X96.275Y-101.15
X96.575Y-93.725
X99.625Y-101.642
X100.2Y-93.65
X103.0Y-102.125
X103.725Y-93.675
X106.625Y-102.225
X110.925Y-93.55
X111.575Y-106.475
X112.8Y-92.975
X113.05Y-94.725
X117.7Y-104.55
X124.15Y-100.15
X136.475Y-102.85
X136.525Y-97.175
T4
X99.9Y-105.61
X102.44Y-105.61
X104.98Y-105.61
X107.52Y-105.61
X94.81Y-95.45
X97.35Y-95.45
X99.89Y-95.45
X102.43Y-95.45
X104.97Y-95.45
X77.03Y-95.45
X79.57Y-95.45
X82.11Y-95.45
X84.65Y-95.45
X87.19Y-95.45
X77.05Y-105.61
X79.59Y-105.61
X82.13Y-105.61
X84.67Y-105.61
X87.21Y-105.61
X89.75Y-105.61
X92.29Y-105.61
X94.83Y-105.61
T5
X121.53Y-97.375
X121.53Y-102.675
T6
X66.0Y-100.0
X73.62Y-100.0
X110.18Y-100.0
X117.8Y-100.0
T2
G00X62.685Y-97.555
M15
G01X63.085Y-97.555
M16
G05
G00X62.685Y-102.395
M15
G01X63.085Y-102.395
M16
G05
T3
G00X59.635Y-97.245
M15
G01X60.135Y-97.245
M16
G05
G00X59.635Y-102.705
M15
G01X60.135Y-102.705
M16
G05
T0
M30
