G04 #@! TF.GenerationSoftware,KiCad,Pcbnew,(5.1.6-0-10_14)*
G04 #@! TF.CreationDate,2020-07-04T12:52:55-07:00*
G04 #@! TF.ProjectId,18650,31383635-302e-46b6-9963-61645f706362,rev?*
G04 #@! TF.SameCoordinates,Original*
G04 #@! TF.FileFunction,Legend,Top*
G04 #@! TF.FilePolarity,Positive*
%FSLAX46Y46*%
G04 Gerber Fmt 4.6, Leading zero omitted, Abs format (unit mm)*
G04 Created by KiCad (PCBNEW (5.1.6-0-10_14)) date 2020-07-04 12:52:55*
%MOMM*%
%LPD*%
G01*
G04 APERTURE LIST*
%ADD10C,0.100000*%
%ADD11C,0.200000*%
%ADD12C,0.120000*%
%ADD13C,0.150000*%
%ADD14O,1.625600X1.301600*%
%ADD15R,0.601600X1.581600*%
%ADD16R,0.601600X1.101600*%
%ADD17R,0.901600X0.601600*%
%ADD18R,0.901600X0.401600*%
%ADD19R,0.851600X0.401600*%
%ADD20C,2.901600*%
%ADD21R,1.101600X1.101600*%
%ADD22O,1.801600X1.801600*%
%ADD23R,1.801600X1.801600*%
%ADD24R,0.901600X1.001600*%
%ADD25R,1.161600X0.751600*%
%ADD26R,0.801600X0.551600*%
%ADD27R,1.001600X0.901600*%
%ADD28R,2.601600X4.501600*%
%ADD29O,1.801600X1.451600*%
%ADD30O,1.601600X1.201600*%
%ADD31R,1.751600X0.501600*%
%ADD32R,1.601600X2.101600*%
%ADD33R,1.701600X2.281600*%
G04 APERTURE END LIST*
D10*
X150404761Y-93230952D02*
X150404761Y-93880952D01*
X150157142Y-93880952D01*
X150095238Y-93850000D01*
X150064285Y-93819047D01*
X150033333Y-93757142D01*
X150033333Y-93664285D01*
X150064285Y-93602380D01*
X150095238Y-93571428D01*
X150157142Y-93540476D01*
X150404761Y-93540476D01*
X149538095Y-93571428D02*
X149445238Y-93540476D01*
X149414285Y-93509523D01*
X149383333Y-93447619D01*
X149383333Y-93354761D01*
X149414285Y-93292857D01*
X149445238Y-93261904D01*
X149507142Y-93230952D01*
X149754761Y-93230952D01*
X149754761Y-93880952D01*
X149538095Y-93880952D01*
X149476190Y-93850000D01*
X149445238Y-93819047D01*
X149414285Y-93757142D01*
X149414285Y-93695238D01*
X149445238Y-93633333D01*
X149476190Y-93602380D01*
X149538095Y-93571428D01*
X149754761Y-93571428D01*
X148826190Y-93664285D02*
X148826190Y-93230952D01*
X148980952Y-93911904D02*
X149135714Y-93447619D01*
X148733333Y-93447619D01*
X151294047Y-100729761D02*
X150644047Y-100729761D01*
X150644047Y-100482142D01*
X150675000Y-100420238D01*
X150705952Y-100389285D01*
X150767857Y-100358333D01*
X150860714Y-100358333D01*
X150922619Y-100389285D01*
X150953571Y-100420238D01*
X150984523Y-100482142D01*
X150984523Y-100729761D01*
X150953571Y-99863095D02*
X150984523Y-99770238D01*
X151015476Y-99739285D01*
X151077380Y-99708333D01*
X151170238Y-99708333D01*
X151232142Y-99739285D01*
X151263095Y-99770238D01*
X151294047Y-99832142D01*
X151294047Y-100079761D01*
X150644047Y-100079761D01*
X150644047Y-99863095D01*
X150675000Y-99801190D01*
X150705952Y-99770238D01*
X150767857Y-99739285D01*
X150829761Y-99739285D01*
X150891666Y-99770238D01*
X150922619Y-99801190D01*
X150953571Y-99863095D01*
X150953571Y-100079761D01*
X150860714Y-99151190D02*
X151294047Y-99151190D01*
X150613095Y-99305952D02*
X151077380Y-99460714D01*
X151077380Y-99058333D01*
X150829761Y-97851190D02*
X151263095Y-98284523D01*
X150829761Y-98067857D02*
X150829761Y-97851190D01*
X151046428Y-97851190D01*
X119624523Y-107144047D02*
X119841190Y-107794047D01*
X120057857Y-107144047D01*
X120274523Y-107794047D02*
X120274523Y-107360714D01*
X120274523Y-107144047D02*
X120243571Y-107175000D01*
X120274523Y-107205952D01*
X120305476Y-107175000D01*
X120274523Y-107144047D01*
X120274523Y-107205952D01*
X120584047Y-107360714D02*
X120584047Y-107794047D01*
X120584047Y-107422619D02*
X120615000Y-107391666D01*
X120676904Y-107360714D01*
X120769761Y-107360714D01*
X120831666Y-107391666D01*
X120862619Y-107453571D01*
X120862619Y-107794047D01*
X116884285Y-107144047D02*
X117268095Y-107144047D01*
X117061428Y-107391666D01*
X117150000Y-107391666D01*
X117209047Y-107422619D01*
X117238571Y-107453571D01*
X117268095Y-107515476D01*
X117268095Y-107670238D01*
X117238571Y-107732142D01*
X117209047Y-107763095D01*
X117150000Y-107794047D01*
X116972857Y-107794047D01*
X116913809Y-107763095D01*
X116884285Y-107732142D01*
X117533809Y-107732142D02*
X117563333Y-107763095D01*
X117533809Y-107794047D01*
X117504285Y-107763095D01*
X117533809Y-107732142D01*
X117533809Y-107794047D01*
X117770000Y-107144047D02*
X118153809Y-107144047D01*
X117947142Y-107391666D01*
X118035714Y-107391666D01*
X118094761Y-107422619D01*
X118124285Y-107453571D01*
X118153809Y-107515476D01*
X118153809Y-107670238D01*
X118124285Y-107732142D01*
X118094761Y-107763095D01*
X118035714Y-107794047D01*
X117858571Y-107794047D01*
X117799523Y-107763095D01*
X117770000Y-107732142D01*
X118360476Y-107360714D02*
X118508095Y-107794047D01*
X118655714Y-107360714D01*
X114103333Y-107129047D02*
X114310000Y-107779047D01*
X114516666Y-107129047D01*
X114723333Y-107129047D02*
X114723333Y-107655238D01*
X114752857Y-107717142D01*
X114782380Y-107748095D01*
X114841428Y-107779047D01*
X114959523Y-107779047D01*
X115018571Y-107748095D01*
X115048095Y-107717142D01*
X115077619Y-107655238D01*
X115077619Y-107129047D01*
X115343333Y-107748095D02*
X115431904Y-107779047D01*
X115579523Y-107779047D01*
X115638571Y-107748095D01*
X115668095Y-107717142D01*
X115697619Y-107655238D01*
X115697619Y-107593333D01*
X115668095Y-107531428D01*
X115638571Y-107500476D01*
X115579523Y-107469523D01*
X115461428Y-107438571D01*
X115402380Y-107407619D01*
X115372857Y-107376666D01*
X115343333Y-107314761D01*
X115343333Y-107252857D01*
X115372857Y-107190952D01*
X115402380Y-107160000D01*
X115461428Y-107129047D01*
X115609047Y-107129047D01*
X115697619Y-107160000D01*
X116170000Y-107438571D02*
X116258571Y-107469523D01*
X116288095Y-107500476D01*
X116317619Y-107562380D01*
X116317619Y-107655238D01*
X116288095Y-107717142D01*
X116258571Y-107748095D01*
X116199523Y-107779047D01*
X115963333Y-107779047D01*
X115963333Y-107129047D01*
X116170000Y-107129047D01*
X116229047Y-107160000D01*
X116258571Y-107190952D01*
X116288095Y-107252857D01*
X116288095Y-107314761D01*
X116258571Y-107376666D01*
X116229047Y-107407619D01*
X116170000Y-107438571D01*
X115963333Y-107438571D01*
X112272142Y-107175000D02*
X112210238Y-107144047D01*
X112117380Y-107144047D01*
X112024523Y-107175000D01*
X111962619Y-107236904D01*
X111931666Y-107298809D01*
X111900714Y-107422619D01*
X111900714Y-107515476D01*
X111931666Y-107639285D01*
X111962619Y-107701190D01*
X112024523Y-107763095D01*
X112117380Y-107794047D01*
X112179285Y-107794047D01*
X112272142Y-107763095D01*
X112303095Y-107732142D01*
X112303095Y-107515476D01*
X112179285Y-107515476D01*
X112581666Y-107360714D02*
X112581666Y-107794047D01*
X112581666Y-107422619D02*
X112612619Y-107391666D01*
X112674523Y-107360714D01*
X112767380Y-107360714D01*
X112829285Y-107391666D01*
X112860238Y-107453571D01*
X112860238Y-107794047D01*
X113448333Y-107794047D02*
X113448333Y-107144047D01*
X113448333Y-107763095D02*
X113386428Y-107794047D01*
X113262619Y-107794047D01*
X113200714Y-107763095D01*
X113169761Y-107732142D01*
X113138809Y-107670238D01*
X113138809Y-107484523D01*
X113169761Y-107422619D01*
X113200714Y-107391666D01*
X113262619Y-107360714D01*
X113386428Y-107360714D01*
X113448333Y-107391666D01*
D11*
X129688095Y-93071428D02*
X129545238Y-93023809D01*
X129497619Y-92976190D01*
X129450000Y-92880952D01*
X129450000Y-92738095D01*
X129497619Y-92642857D01*
X129545238Y-92595238D01*
X129640476Y-92547619D01*
X130021428Y-92547619D01*
X130021428Y-93547619D01*
X129688095Y-93547619D01*
X129592857Y-93500000D01*
X129545238Y-93452380D01*
X129497619Y-93357142D01*
X129497619Y-93261904D01*
X129545238Y-93166666D01*
X129592857Y-93119047D01*
X129688095Y-93071428D01*
X130021428Y-93071428D01*
X129069047Y-92833333D02*
X128592857Y-92833333D01*
X129164285Y-92547619D02*
X128830952Y-93547619D01*
X128497619Y-92547619D01*
X128307142Y-93547619D02*
X127735714Y-93547619D01*
X128021428Y-92547619D02*
X128021428Y-93547619D01*
X127545238Y-93547619D02*
X126973809Y-93547619D01*
X127259523Y-92547619D02*
X127259523Y-93547619D01*
X126640476Y-92928571D02*
X125878571Y-92928571D01*
X126259523Y-92547619D02*
X126259523Y-93309523D01*
X131886904Y-106928571D02*
X132029761Y-106976190D01*
X132077380Y-107023809D01*
X132125000Y-107119047D01*
X132125000Y-107261904D01*
X132077380Y-107357142D01*
X132029761Y-107404761D01*
X131934523Y-107452380D01*
X131553571Y-107452380D01*
X131553571Y-106452380D01*
X131886904Y-106452380D01*
X131982142Y-106500000D01*
X132029761Y-106547619D01*
X132077380Y-106642857D01*
X132077380Y-106738095D01*
X132029761Y-106833333D01*
X131982142Y-106880952D01*
X131886904Y-106928571D01*
X131553571Y-106928571D01*
X132505952Y-107166666D02*
X132982142Y-107166666D01*
X132410714Y-107452380D02*
X132744047Y-106452380D01*
X133077380Y-107452380D01*
X133267857Y-106452380D02*
X133839285Y-106452380D01*
X133553571Y-107452380D02*
X133553571Y-106452380D01*
X134029761Y-106452380D02*
X134601190Y-106452380D01*
X134315476Y-107452380D02*
X134315476Y-106452380D01*
X134934523Y-107071428D02*
X135696428Y-107071428D01*
X135315476Y-107452380D02*
X135315476Y-106690476D01*
D10*
X97094047Y-107719047D02*
X96877380Y-107409523D01*
X96722619Y-107719047D02*
X96722619Y-107069047D01*
X96970238Y-107069047D01*
X97032142Y-107100000D01*
X97063095Y-107130952D01*
X97094047Y-107192857D01*
X97094047Y-107285714D01*
X97063095Y-107347619D01*
X97032142Y-107378571D01*
X96970238Y-107409523D01*
X96722619Y-107409523D01*
X97341666Y-107688095D02*
X97434523Y-107719047D01*
X97589285Y-107719047D01*
X97651190Y-107688095D01*
X97682142Y-107657142D01*
X97713095Y-107595238D01*
X97713095Y-107533333D01*
X97682142Y-107471428D01*
X97651190Y-107440476D01*
X97589285Y-107409523D01*
X97465476Y-107378571D01*
X97403571Y-107347619D01*
X97372619Y-107316666D01*
X97341666Y-107254761D01*
X97341666Y-107192857D01*
X97372619Y-107130952D01*
X97403571Y-107100000D01*
X97465476Y-107069047D01*
X97620238Y-107069047D01*
X97713095Y-107100000D01*
X97898809Y-107069047D02*
X98270238Y-107069047D01*
X98084523Y-107719047D02*
X98084523Y-107069047D01*
X94095238Y-107719047D02*
X94095238Y-107069047D01*
X94342857Y-107069047D01*
X94404761Y-107100000D01*
X94435714Y-107130952D01*
X94466666Y-107192857D01*
X94466666Y-107285714D01*
X94435714Y-107347619D01*
X94404761Y-107378571D01*
X94342857Y-107409523D01*
X94095238Y-107409523D01*
X94961904Y-107378571D02*
X95054761Y-107409523D01*
X95085714Y-107440476D01*
X95116666Y-107502380D01*
X95116666Y-107595238D01*
X95085714Y-107657142D01*
X95054761Y-107688095D01*
X94992857Y-107719047D01*
X94745238Y-107719047D01*
X94745238Y-107069047D01*
X94961904Y-107069047D01*
X95023809Y-107100000D01*
X95054761Y-107130952D01*
X95085714Y-107192857D01*
X95085714Y-107254761D01*
X95054761Y-107316666D01*
X95023809Y-107347619D01*
X94961904Y-107378571D01*
X94745238Y-107378571D01*
X95333333Y-107069047D02*
X95766666Y-107069047D01*
X95488095Y-107719047D01*
X91545238Y-107719047D02*
X91545238Y-107069047D01*
X91792857Y-107069047D01*
X91854761Y-107100000D01*
X91885714Y-107130952D01*
X91916666Y-107192857D01*
X91916666Y-107285714D01*
X91885714Y-107347619D01*
X91854761Y-107378571D01*
X91792857Y-107409523D01*
X91545238Y-107409523D01*
X92411904Y-107378571D02*
X92504761Y-107409523D01*
X92535714Y-107440476D01*
X92566666Y-107502380D01*
X92566666Y-107595238D01*
X92535714Y-107657142D01*
X92504761Y-107688095D01*
X92442857Y-107719047D01*
X92195238Y-107719047D01*
X92195238Y-107069047D01*
X92411904Y-107069047D01*
X92473809Y-107100000D01*
X92504761Y-107130952D01*
X92535714Y-107192857D01*
X92535714Y-107254761D01*
X92504761Y-107316666D01*
X92473809Y-107347619D01*
X92411904Y-107378571D01*
X92195238Y-107378571D01*
X93123809Y-107069047D02*
X93000000Y-107069047D01*
X92938095Y-107100000D01*
X92907142Y-107130952D01*
X92845238Y-107223809D01*
X92814285Y-107347619D01*
X92814285Y-107595238D01*
X92845238Y-107657142D01*
X92876190Y-107688095D01*
X92938095Y-107719047D01*
X93061904Y-107719047D01*
X93123809Y-107688095D01*
X93154761Y-107657142D01*
X93185714Y-107595238D01*
X93185714Y-107440476D01*
X93154761Y-107378571D01*
X93123809Y-107347619D01*
X93061904Y-107316666D01*
X92938095Y-107316666D01*
X92876190Y-107347619D01*
X92845238Y-107378571D01*
X92814285Y-107440476D01*
X89045238Y-107719047D02*
X89045238Y-107069047D01*
X89292857Y-107069047D01*
X89354761Y-107100000D01*
X89385714Y-107130952D01*
X89416666Y-107192857D01*
X89416666Y-107285714D01*
X89385714Y-107347619D01*
X89354761Y-107378571D01*
X89292857Y-107409523D01*
X89045238Y-107409523D01*
X89911904Y-107378571D02*
X90004761Y-107409523D01*
X90035714Y-107440476D01*
X90066666Y-107502380D01*
X90066666Y-107595238D01*
X90035714Y-107657142D01*
X90004761Y-107688095D01*
X89942857Y-107719047D01*
X89695238Y-107719047D01*
X89695238Y-107069047D01*
X89911904Y-107069047D01*
X89973809Y-107100000D01*
X90004761Y-107130952D01*
X90035714Y-107192857D01*
X90035714Y-107254761D01*
X90004761Y-107316666D01*
X89973809Y-107347619D01*
X89911904Y-107378571D01*
X89695238Y-107378571D01*
X90654761Y-107069047D02*
X90345238Y-107069047D01*
X90314285Y-107378571D01*
X90345238Y-107347619D01*
X90407142Y-107316666D01*
X90561904Y-107316666D01*
X90623809Y-107347619D01*
X90654761Y-107378571D01*
X90685714Y-107440476D01*
X90685714Y-107595238D01*
X90654761Y-107657142D01*
X90623809Y-107688095D01*
X90561904Y-107719047D01*
X90407142Y-107719047D01*
X90345238Y-107688095D01*
X90314285Y-107657142D01*
X86431428Y-107719047D02*
X86431428Y-107069047D01*
X86667619Y-107069047D01*
X86726666Y-107100000D01*
X86756190Y-107130952D01*
X86785714Y-107192857D01*
X86785714Y-107285714D01*
X86756190Y-107347619D01*
X86726666Y-107378571D01*
X86667619Y-107409523D01*
X86431428Y-107409523D01*
X87021904Y-107533333D02*
X87317142Y-107533333D01*
X86962857Y-107719047D02*
X87169523Y-107069047D01*
X87376190Y-107719047D01*
X87907619Y-107719047D02*
X87553333Y-107719047D01*
X87730476Y-107719047D02*
X87730476Y-107069047D01*
X87671428Y-107161904D01*
X87612380Y-107223809D01*
X87553333Y-107254761D01*
X88439047Y-107285714D02*
X88439047Y-107719047D01*
X88291428Y-107038095D02*
X88143809Y-107502380D01*
X88527619Y-107502380D01*
X83681428Y-107719047D02*
X83681428Y-107069047D01*
X83917619Y-107069047D01*
X83976666Y-107100000D01*
X84006190Y-107130952D01*
X84035714Y-107192857D01*
X84035714Y-107285714D01*
X84006190Y-107347619D01*
X83976666Y-107378571D01*
X83917619Y-107409523D01*
X83681428Y-107409523D01*
X84271904Y-107533333D02*
X84567142Y-107533333D01*
X84212857Y-107719047D02*
X84419523Y-107069047D01*
X84626190Y-107719047D01*
X85157619Y-107719047D02*
X84803333Y-107719047D01*
X84980476Y-107719047D02*
X84980476Y-107069047D01*
X84921428Y-107161904D01*
X84862380Y-107223809D01*
X84803333Y-107254761D01*
X85364285Y-107069047D02*
X85748095Y-107069047D01*
X85541428Y-107316666D01*
X85630000Y-107316666D01*
X85689047Y-107347619D01*
X85718571Y-107378571D01*
X85748095Y-107440476D01*
X85748095Y-107595238D01*
X85718571Y-107657142D01*
X85689047Y-107688095D01*
X85630000Y-107719047D01*
X85452857Y-107719047D01*
X85393809Y-107688095D01*
X85364285Y-107657142D01*
X81132142Y-107719047D02*
X81132142Y-107069047D01*
X81379761Y-107069047D01*
X81441666Y-107100000D01*
X81472619Y-107130952D01*
X81503571Y-107192857D01*
X81503571Y-107285714D01*
X81472619Y-107347619D01*
X81441666Y-107378571D01*
X81379761Y-107409523D01*
X81132142Y-107409523D01*
X81751190Y-107533333D02*
X82060714Y-107533333D01*
X81689285Y-107719047D02*
X81905952Y-107069047D01*
X82122619Y-107719047D01*
X82679761Y-107719047D02*
X82308333Y-107719047D01*
X82494047Y-107719047D02*
X82494047Y-107069047D01*
X82432142Y-107161904D01*
X82370238Y-107223809D01*
X82308333Y-107254761D01*
X83082142Y-107069047D02*
X83144047Y-107069047D01*
X83205952Y-107100000D01*
X83236904Y-107130952D01*
X83267857Y-107192857D01*
X83298809Y-107316666D01*
X83298809Y-107471428D01*
X83267857Y-107595238D01*
X83236904Y-107657142D01*
X83205952Y-107688095D01*
X83144047Y-107719047D01*
X83082142Y-107719047D01*
X83020238Y-107688095D01*
X82989285Y-107657142D01*
X82958333Y-107595238D01*
X82927380Y-107471428D01*
X82927380Y-107316666D01*
X82958333Y-107192857D01*
X82989285Y-107130952D01*
X83020238Y-107100000D01*
X83082142Y-107069047D01*
D11*
X72938095Y-93071428D02*
X72795238Y-93023809D01*
X72747619Y-92976190D01*
X72700000Y-92880952D01*
X72700000Y-92738095D01*
X72747619Y-92642857D01*
X72795238Y-92595238D01*
X72890476Y-92547619D01*
X73271428Y-92547619D01*
X73271428Y-93547619D01*
X72938095Y-93547619D01*
X72842857Y-93500000D01*
X72795238Y-93452380D01*
X72747619Y-93357142D01*
X72747619Y-93261904D01*
X72795238Y-93166666D01*
X72842857Y-93119047D01*
X72938095Y-93071428D01*
X73271428Y-93071428D01*
X72319047Y-92833333D02*
X71842857Y-92833333D01*
X72414285Y-92547619D02*
X72080952Y-93547619D01*
X71747619Y-92547619D01*
X71557142Y-93547619D02*
X70985714Y-93547619D01*
X71271428Y-92547619D02*
X71271428Y-93547619D01*
X70795238Y-93547619D02*
X70223809Y-93547619D01*
X70509523Y-92547619D02*
X70509523Y-93547619D01*
X69890476Y-92928571D02*
X69128571Y-92928571D01*
X69511904Y-106928571D02*
X69654761Y-106976190D01*
X69702380Y-107023809D01*
X69750000Y-107119047D01*
X69750000Y-107261904D01*
X69702380Y-107357142D01*
X69654761Y-107404761D01*
X69559523Y-107452380D01*
X69178571Y-107452380D01*
X69178571Y-106452380D01*
X69511904Y-106452380D01*
X69607142Y-106500000D01*
X69654761Y-106547619D01*
X69702380Y-106642857D01*
X69702380Y-106738095D01*
X69654761Y-106833333D01*
X69607142Y-106880952D01*
X69511904Y-106928571D01*
X69178571Y-106928571D01*
X70130952Y-107166666D02*
X70607142Y-107166666D01*
X70035714Y-107452380D02*
X70369047Y-106452380D01*
X70702380Y-107452380D01*
X70892857Y-106452380D02*
X71464285Y-106452380D01*
X71178571Y-107452380D02*
X71178571Y-106452380D01*
X71654761Y-106452380D02*
X72226190Y-106452380D01*
X71940476Y-107452380D02*
X71940476Y-106452380D01*
X72559523Y-107071428D02*
X73321428Y-107071428D01*
D10*
X109732142Y-107175000D02*
X109670238Y-107144047D01*
X109577380Y-107144047D01*
X109484523Y-107175000D01*
X109422619Y-107236904D01*
X109391666Y-107298809D01*
X109360714Y-107422619D01*
X109360714Y-107515476D01*
X109391666Y-107639285D01*
X109422619Y-107701190D01*
X109484523Y-107763095D01*
X109577380Y-107794047D01*
X109639285Y-107794047D01*
X109732142Y-107763095D01*
X109763095Y-107732142D01*
X109763095Y-107515476D01*
X109639285Y-107515476D01*
X110041666Y-107360714D02*
X110041666Y-107794047D01*
X110041666Y-107422619D02*
X110072619Y-107391666D01*
X110134523Y-107360714D01*
X110227380Y-107360714D01*
X110289285Y-107391666D01*
X110320238Y-107453571D01*
X110320238Y-107794047D01*
X110908333Y-107794047D02*
X110908333Y-107144047D01*
X110908333Y-107763095D02*
X110846428Y-107794047D01*
X110722619Y-107794047D01*
X110660714Y-107763095D01*
X110629761Y-107732142D01*
X110598809Y-107670238D01*
X110598809Y-107484523D01*
X110629761Y-107422619D01*
X110660714Y-107391666D01*
X110722619Y-107360714D01*
X110846428Y-107360714D01*
X110908333Y-107391666D01*
X90616666Y-93205952D02*
X90616666Y-93855952D01*
X90350000Y-93855952D01*
X90283333Y-93825000D01*
X90250000Y-93794047D01*
X90216666Y-93732142D01*
X90216666Y-93639285D01*
X90250000Y-93577380D01*
X90283333Y-93546428D01*
X90350000Y-93515476D01*
X90616666Y-93515476D01*
X89950000Y-93391666D02*
X89616666Y-93391666D01*
X90016666Y-93205952D02*
X89783333Y-93855952D01*
X89550000Y-93205952D01*
X89016666Y-93639285D02*
X89016666Y-93205952D01*
X89183333Y-93886904D02*
X89350000Y-93422619D01*
X88916666Y-93422619D01*
X88116666Y-93205952D02*
X88116666Y-93855952D01*
X87850000Y-93855952D01*
X87783333Y-93825000D01*
X87750000Y-93794047D01*
X87716666Y-93732142D01*
X87716666Y-93639285D01*
X87750000Y-93577380D01*
X87783333Y-93546428D01*
X87850000Y-93515476D01*
X88116666Y-93515476D01*
X87450000Y-93391666D02*
X87116666Y-93391666D01*
X87516666Y-93205952D02*
X87283333Y-93855952D01*
X87050000Y-93205952D01*
X86483333Y-93855952D02*
X86816666Y-93855952D01*
X86850000Y-93546428D01*
X86816666Y-93577380D01*
X86750000Y-93608333D01*
X86583333Y-93608333D01*
X86516666Y-93577380D01*
X86483333Y-93546428D01*
X86450000Y-93484523D01*
X86450000Y-93329761D01*
X86483333Y-93267857D01*
X86516666Y-93236904D01*
X86583333Y-93205952D01*
X86750000Y-93205952D01*
X86816666Y-93236904D01*
X86850000Y-93267857D01*
X85616666Y-93205952D02*
X85616666Y-93855952D01*
X85350000Y-93855952D01*
X85283333Y-93825000D01*
X85250000Y-93794047D01*
X85216666Y-93732142D01*
X85216666Y-93639285D01*
X85250000Y-93577380D01*
X85283333Y-93546428D01*
X85350000Y-93515476D01*
X85616666Y-93515476D01*
X84950000Y-93391666D02*
X84616666Y-93391666D01*
X85016666Y-93205952D02*
X84783333Y-93855952D01*
X84550000Y-93205952D01*
X84016666Y-93855952D02*
X84150000Y-93855952D01*
X84216666Y-93825000D01*
X84250000Y-93794047D01*
X84316666Y-93701190D01*
X84350000Y-93577380D01*
X84350000Y-93329761D01*
X84316666Y-93267857D01*
X84283333Y-93236904D01*
X84216666Y-93205952D01*
X84083333Y-93205952D01*
X84016666Y-93236904D01*
X83983333Y-93267857D01*
X83950000Y-93329761D01*
X83950000Y-93484523D01*
X83983333Y-93546428D01*
X84016666Y-93577380D01*
X84083333Y-93608333D01*
X84216666Y-93608333D01*
X84283333Y-93577380D01*
X84316666Y-93546428D01*
X84350000Y-93484523D01*
X83116666Y-93205952D02*
X83116666Y-93855952D01*
X82850000Y-93855952D01*
X82783333Y-93825000D01*
X82750000Y-93794047D01*
X82716666Y-93732142D01*
X82716666Y-93639285D01*
X82750000Y-93577380D01*
X82783333Y-93546428D01*
X82850000Y-93515476D01*
X83116666Y-93515476D01*
X82450000Y-93391666D02*
X82116666Y-93391666D01*
X82516666Y-93205952D02*
X82283333Y-93855952D01*
X82050000Y-93205952D01*
X81883333Y-93855952D02*
X81416666Y-93855952D01*
X81716666Y-93205952D01*
X80616666Y-93205952D02*
X80616666Y-93855952D01*
X80350000Y-93855952D01*
X80283333Y-93825000D01*
X80250000Y-93794047D01*
X80216666Y-93732142D01*
X80216666Y-93639285D01*
X80250000Y-93577380D01*
X80283333Y-93546428D01*
X80350000Y-93515476D01*
X80616666Y-93515476D01*
X79950000Y-93391666D02*
X79616666Y-93391666D01*
X80016666Y-93205952D02*
X79783333Y-93855952D01*
X79550000Y-93205952D01*
X79216666Y-93577380D02*
X79283333Y-93608333D01*
X79316666Y-93639285D01*
X79350000Y-93701190D01*
X79350000Y-93732142D01*
X79316666Y-93794047D01*
X79283333Y-93825000D01*
X79216666Y-93855952D01*
X79083333Y-93855952D01*
X79016666Y-93825000D01*
X78983333Y-93794047D01*
X78950000Y-93732142D01*
X78950000Y-93701190D01*
X78983333Y-93639285D01*
X79016666Y-93608333D01*
X79083333Y-93577380D01*
X79216666Y-93577380D01*
X79283333Y-93546428D01*
X79316666Y-93515476D01*
X79350000Y-93453571D01*
X79350000Y-93329761D01*
X79316666Y-93267857D01*
X79283333Y-93236904D01*
X79216666Y-93205952D01*
X79083333Y-93205952D01*
X79016666Y-93236904D01*
X78983333Y-93267857D01*
X78950000Y-93329761D01*
X78950000Y-93453571D01*
X78983333Y-93515476D01*
X79016666Y-93546428D01*
X79083333Y-93577380D01*
X79041666Y-107719047D02*
X79041666Y-107069047D01*
X79289285Y-107069047D01*
X79351190Y-107100000D01*
X79382142Y-107130952D01*
X79413095Y-107192857D01*
X79413095Y-107285714D01*
X79382142Y-107347619D01*
X79351190Y-107378571D01*
X79289285Y-107409523D01*
X79041666Y-107409523D01*
X79660714Y-107533333D02*
X79970238Y-107533333D01*
X79598809Y-107719047D02*
X79815476Y-107069047D01*
X80032142Y-107719047D01*
X80279761Y-107719047D02*
X80403571Y-107719047D01*
X80465476Y-107688095D01*
X80496428Y-107657142D01*
X80558333Y-107564285D01*
X80589285Y-107440476D01*
X80589285Y-107192857D01*
X80558333Y-107130952D01*
X80527380Y-107100000D01*
X80465476Y-107069047D01*
X80341666Y-107069047D01*
X80279761Y-107100000D01*
X80248809Y-107130952D01*
X80217857Y-107192857D01*
X80217857Y-107347619D01*
X80248809Y-107409523D01*
X80279761Y-107440476D01*
X80341666Y-107471428D01*
X80465476Y-107471428D01*
X80527380Y-107440476D01*
X80558333Y-107409523D01*
X80589285Y-107347619D01*
D12*
X98865000Y-102505000D02*
X99340000Y-102505000D01*
X92120000Y-95285000D02*
X92120000Y-95760000D01*
X92595000Y-95285000D02*
X92120000Y-95285000D01*
X99340000Y-95285000D02*
X99340000Y-95760000D01*
X98865000Y-95285000D02*
X99340000Y-95285000D01*
X92120000Y-102505000D02*
X92120000Y-102030000D01*
X92595000Y-102505000D02*
X92120000Y-102505000D01*
D10*
X147150000Y-95850000D02*
X138850000Y-95850000D01*
X138850000Y-104150000D02*
X138850000Y-95850000D01*
X147150000Y-104150000D02*
X138850000Y-104150000D01*
X147150000Y-104150000D02*
X147150000Y-95850000D01*
D13*
X145200000Y-100000000D02*
G75*
G03*
X145200000Y-100000000I-2200000J0D01*
G01*
D12*
X107500000Y-104075000D02*
X106800000Y-104075000D01*
D13*
X83450000Y-100100000D02*
X86450000Y-100100000D01*
X84950000Y-97850000D02*
X86450000Y-97850000D01*
D12*
X124275000Y-93650000D02*
X122575000Y-93650000D01*
X122575000Y-93650000D02*
X122575000Y-96800000D01*
X124275000Y-93650000D02*
X124275000Y-96800000D01*
X108810000Y-106940000D02*
X108810000Y-105610000D01*
X110140000Y-106940000D02*
X108810000Y-106940000D01*
X111410000Y-106940000D02*
X111410000Y-104280000D01*
X111410000Y-104280000D02*
X121630000Y-104280000D01*
X111410000Y-106940000D02*
X121630000Y-106940000D01*
X121630000Y-106940000D02*
X121630000Y-104280000D01*
X106690000Y-102495000D02*
X106690000Y-99795000D01*
X104390000Y-102495000D02*
X106690000Y-102495000D01*
X79917221Y-103575000D02*
X80242779Y-103575000D01*
X79917221Y-102555000D02*
X80242779Y-102555000D01*
X89342779Y-101625000D02*
X89017221Y-101625000D01*
X89342779Y-102645000D02*
X89017221Y-102645000D01*
X102527221Y-107005000D02*
X102852779Y-107005000D01*
X102527221Y-105985000D02*
X102852779Y-105985000D01*
X95897221Y-92845000D02*
X96222779Y-92845000D01*
X95897221Y-93865000D02*
X96222779Y-93865000D01*
X79605000Y-102135000D02*
X82055000Y-102135000D01*
X81405000Y-98915000D02*
X79605000Y-98915000D01*
X60915000Y-95685000D02*
X63200000Y-95685000D01*
X60915000Y-94215000D02*
X60915000Y-95685000D01*
X63200000Y-94215000D02*
X60915000Y-94215000D01*
X83202779Y-102555000D02*
X82877221Y-102555000D01*
X83202779Y-103575000D02*
X82877221Y-103575000D01*
X62562779Y-92965000D02*
X62237221Y-92965000D01*
X62562779Y-93985000D02*
X62237221Y-93985000D01*
X81082779Y-97485000D02*
X80757221Y-97485000D01*
X81082779Y-98505000D02*
X80757221Y-98505000D01*
X77350000Y-101012779D02*
X77350000Y-100687221D01*
X78370000Y-101012779D02*
X78370000Y-100687221D01*
X88210000Y-99395000D02*
X88210000Y-98735000D01*
X88210000Y-101055000D02*
X88210000Y-100395000D01*
X88210000Y-101055000D02*
X90240000Y-101055000D01*
X89620000Y-98735000D02*
X88210000Y-98735000D01*
X62487779Y-106365000D02*
X62162221Y-106365000D01*
X62487779Y-107385000D02*
X62162221Y-107385000D01*
X101670000Y-94667779D02*
X101670000Y-94342221D01*
X100650000Y-94667779D02*
X100650000Y-94342221D01*
X105650000Y-94342221D02*
X105650000Y-94667779D01*
X106670000Y-94342221D02*
X106670000Y-94667779D01*
X78350000Y-106940000D02*
X78350000Y-105610000D01*
X79680000Y-106940000D02*
X78350000Y-106940000D01*
X80950000Y-106940000D02*
X80950000Y-104280000D01*
X80950000Y-104280000D02*
X98790000Y-104280000D01*
X80950000Y-106940000D02*
X98790000Y-106940000D01*
X98790000Y-106940000D02*
X98790000Y-104280000D01*
X102527221Y-102995000D02*
X102852779Y-102995000D01*
X102527221Y-104015000D02*
X102852779Y-104015000D01*
X102527221Y-105510000D02*
X102852779Y-105510000D01*
X102527221Y-104490000D02*
X102852779Y-104490000D01*
X104430000Y-95815000D02*
X104430000Y-94885000D01*
X104430000Y-92655000D02*
X104430000Y-93585000D01*
X104430000Y-92655000D02*
X102270000Y-92655000D01*
X104430000Y-95815000D02*
X102970000Y-95815000D01*
X63865000Y-98675000D02*
X64315000Y-98275000D01*
X64315000Y-98275000D02*
X64315000Y-99075000D01*
X64315000Y-99075000D02*
X63865000Y-98675000D01*
X58265000Y-103825000D02*
X61065000Y-103825000D01*
X61065000Y-103825000D02*
X61065000Y-104125000D01*
X61065000Y-104125000D02*
X62615000Y-104125000D01*
X58265000Y-96125000D02*
X61065000Y-96125000D01*
X61065000Y-95825000D02*
X61065000Y-96125000D01*
X61065000Y-95825000D02*
X62615000Y-95825000D01*
X147790000Y-103060000D02*
X147790000Y-96940000D01*
X147790000Y-96940000D02*
X151410000Y-96940000D01*
X151410000Y-96940000D02*
X151410000Y-103060000D01*
X151410000Y-103060000D02*
X147790000Y-103060000D01*
X59900000Y-104325000D02*
X63050000Y-104325000D01*
X59900000Y-106025000D02*
X63050000Y-106025000D01*
X59900000Y-104325000D02*
X59900000Y-106025000D01*
X109560000Y-92180000D02*
X107275000Y-92180000D01*
X107275000Y-92180000D02*
X107275000Y-93650000D01*
X107275000Y-93650000D02*
X109560000Y-93650000D01*
X110675000Y-93650000D02*
X112960000Y-93650000D01*
X110675000Y-92180000D02*
X110675000Y-93650000D01*
X112960000Y-92180000D02*
X110675000Y-92180000D01*
X114760000Y-93650000D02*
X117045000Y-93650000D01*
X117045000Y-93650000D02*
X117045000Y-92180000D01*
X117045000Y-92180000D02*
X114760000Y-92180000D01*
X118200000Y-93650000D02*
X120485000Y-93650000D01*
X120485000Y-93650000D02*
X120485000Y-92180000D01*
X120485000Y-92180000D02*
X118200000Y-92180000D01*
X105520000Y-97882221D02*
X105520000Y-98207779D01*
X104500000Y-97882221D02*
X104500000Y-98207779D01*
X136012221Y-93885000D02*
X136337779Y-93885000D01*
X136012221Y-92865000D02*
X136337779Y-92865000D01*
X129612221Y-107165000D02*
X129937779Y-107165000D01*
X129612221Y-106145000D02*
X129937779Y-106145000D01*
X126887779Y-106145000D02*
X126562221Y-106145000D01*
X126887779Y-107165000D02*
X126562221Y-107165000D01*
X120312221Y-103460000D02*
X120637779Y-103460000D01*
X120312221Y-102440000D02*
X120637779Y-102440000D01*
X116787221Y-103460000D02*
X117112779Y-103460000D01*
X116787221Y-102440000D02*
X117112779Y-102440000D01*
X120487779Y-97490000D02*
X120162221Y-97490000D01*
X120487779Y-98510000D02*
X120162221Y-98510000D01*
X116887779Y-97490000D02*
X116562221Y-97490000D01*
X116887779Y-98510000D02*
X116562221Y-98510000D01*
X113137221Y-103460000D02*
X113462779Y-103460000D01*
X113137221Y-102440000D02*
X113462779Y-102440000D01*
X112962221Y-98510000D02*
X113287779Y-98510000D01*
X112962221Y-97490000D02*
X113287779Y-97490000D01*
X109487221Y-98510000D02*
X109812779Y-98510000D01*
X109487221Y-97490000D02*
X109812779Y-97490000D01*
X109587221Y-103460000D02*
X109912779Y-103460000D01*
X109587221Y-102440000D02*
X109912779Y-102440000D01*
X123837779Y-106145000D02*
X123512221Y-106145000D01*
X123837779Y-107165000D02*
X123512221Y-107165000D01*
X102960000Y-97877221D02*
X102960000Y-98202779D01*
X103980000Y-97877221D02*
X103980000Y-98202779D01*
X101435000Y-97877221D02*
X101435000Y-98202779D01*
X102455000Y-97877221D02*
X102455000Y-98202779D01*
X92937221Y-93865000D02*
X93262779Y-93865000D01*
X92937221Y-92845000D02*
X93262779Y-92845000D01*
X102527221Y-102460000D02*
X102852779Y-102460000D01*
X102527221Y-101440000D02*
X102852779Y-101440000D01*
X102527221Y-99840000D02*
X102852779Y-99840000D01*
X102527221Y-100860000D02*
X102852779Y-100860000D01*
X122080000Y-99710000D02*
X122080000Y-101170000D01*
X118920000Y-99710000D02*
X118920000Y-101870000D01*
X118920000Y-99710000D02*
X119850000Y-99710000D01*
X122080000Y-99710000D02*
X121150000Y-99710000D01*
X114980000Y-99715000D02*
X114980000Y-101175000D01*
X111820000Y-99715000D02*
X111820000Y-101875000D01*
X111820000Y-99715000D02*
X112750000Y-99715000D01*
X114980000Y-99715000D02*
X114050000Y-99715000D01*
X111455000Y-99715000D02*
X111455000Y-101175000D01*
X108295000Y-99715000D02*
X108295000Y-101875000D01*
X108295000Y-99715000D02*
X109225000Y-99715000D01*
X111455000Y-99715000D02*
X110525000Y-99715000D01*
X131165000Y-94035000D02*
X133650000Y-94035000D01*
X131165000Y-92665000D02*
X131165000Y-94035000D01*
X133650000Y-92665000D02*
X131165000Y-92665000D01*
X118530000Y-99715000D02*
X117600000Y-99715000D01*
X115370000Y-99715000D02*
X116300000Y-99715000D01*
X115370000Y-99715000D02*
X115370000Y-101875000D01*
X118530000Y-99715000D02*
X118530000Y-101175000D01*
X121630000Y-94120000D02*
X121630000Y-95450000D01*
X120300000Y-94120000D02*
X121630000Y-94120000D01*
X119030000Y-94120000D02*
X119030000Y-96780000D01*
X119030000Y-96780000D02*
X108810000Y-96780000D01*
X119030000Y-94120000D02*
X108810000Y-94120000D01*
X108810000Y-94120000D02*
X108810000Y-96780000D01*
X91150000Y-96770000D02*
X91150000Y-94110000D01*
X80930000Y-96770000D02*
X91150000Y-96770000D01*
X80930000Y-94110000D02*
X91150000Y-94110000D01*
X80930000Y-96770000D02*
X80930000Y-94110000D01*
X79660000Y-96770000D02*
X78330000Y-96770000D01*
X78330000Y-96770000D02*
X78330000Y-95440000D01*
D10*
X98462857Y-103106428D02*
X98462857Y-103592142D01*
X98491428Y-103649285D01*
X98520000Y-103677857D01*
X98577142Y-103706428D01*
X98691428Y-103706428D01*
X98748571Y-103677857D01*
X98777142Y-103649285D01*
X98805714Y-103592142D01*
X98805714Y-103106428D01*
X99405714Y-103706428D02*
X99062857Y-103706428D01*
X99234285Y-103706428D02*
X99234285Y-103106428D01*
X99177142Y-103192142D01*
X99120000Y-103249285D01*
X99062857Y-103277857D01*
D13*
X141806666Y-100369761D02*
X141949523Y-100417380D01*
X142187619Y-100417380D01*
X142282857Y-100369761D01*
X142330476Y-100322142D01*
X142378095Y-100226904D01*
X142378095Y-100131666D01*
X142330476Y-100036428D01*
X142282857Y-99988809D01*
X142187619Y-99941190D01*
X141997142Y-99893571D01*
X141901904Y-99845952D01*
X141854285Y-99798333D01*
X141806666Y-99703095D01*
X141806666Y-99607857D01*
X141854285Y-99512619D01*
X141901904Y-99465000D01*
X141997142Y-99417380D01*
X142235238Y-99417380D01*
X142378095Y-99465000D01*
X142711428Y-99417380D02*
X142949523Y-100417380D01*
X143140000Y-99703095D01*
X143330476Y-100417380D01*
X143568571Y-99417380D01*
X143901904Y-99512619D02*
X143949523Y-99465000D01*
X144044761Y-99417380D01*
X144282857Y-99417380D01*
X144378095Y-99465000D01*
X144425714Y-99512619D01*
X144473333Y-99607857D01*
X144473333Y-99703095D01*
X144425714Y-99845952D01*
X143854285Y-100417380D01*
X144473333Y-100417380D01*
D10*
X106980952Y-107501190D02*
X106980952Y-107001190D01*
X107100000Y-107001190D01*
X107171428Y-107025000D01*
X107219047Y-107072619D01*
X107242857Y-107120238D01*
X107266666Y-107215476D01*
X107266666Y-107286904D01*
X107242857Y-107382142D01*
X107219047Y-107429761D01*
X107171428Y-107477380D01*
X107100000Y-107501190D01*
X106980952Y-107501190D01*
X107504761Y-107501190D02*
X107600000Y-107501190D01*
X107647619Y-107477380D01*
X107671428Y-107453571D01*
X107719047Y-107382142D01*
X107742857Y-107286904D01*
X107742857Y-107096428D01*
X107719047Y-107048809D01*
X107695238Y-107025000D01*
X107647619Y-107001190D01*
X107552380Y-107001190D01*
X107504761Y-107025000D01*
X107480952Y-107048809D01*
X107457142Y-107096428D01*
X107457142Y-107215476D01*
X107480952Y-107263095D01*
X107504761Y-107286904D01*
X107552380Y-107310714D01*
X107647619Y-107310714D01*
X107695238Y-107286904D01*
X107719047Y-107263095D01*
X107742857Y-107215476D01*
X84530952Y-96623809D02*
X84530952Y-97069047D01*
X84557142Y-97121428D01*
X84583333Y-97147619D01*
X84635714Y-97173809D01*
X84740476Y-97173809D01*
X84792857Y-97147619D01*
X84819047Y-97121428D01*
X84845238Y-97069047D01*
X84845238Y-96623809D01*
X85369047Y-96623809D02*
X85107142Y-96623809D01*
X85080952Y-96885714D01*
X85107142Y-96859523D01*
X85159523Y-96833333D01*
X85290476Y-96833333D01*
X85342857Y-96859523D01*
X85369047Y-96885714D01*
X85395238Y-96938095D01*
X85395238Y-97069047D01*
X85369047Y-97121428D01*
X85342857Y-97147619D01*
X85290476Y-97173809D01*
X85159523Y-97173809D01*
X85107142Y-97147619D01*
X85080952Y-97121428D01*
X123676190Y-95869047D02*
X123176190Y-95869047D01*
X123176190Y-95750000D01*
X123200000Y-95678571D01*
X123247619Y-95630952D01*
X123295238Y-95607142D01*
X123390476Y-95583333D01*
X123461904Y-95583333D01*
X123557142Y-95607142D01*
X123604761Y-95630952D01*
X123652380Y-95678571D01*
X123676190Y-95750000D01*
X123676190Y-95869047D01*
X123223809Y-95392857D02*
X123200000Y-95369047D01*
X123176190Y-95321428D01*
X123176190Y-95202380D01*
X123200000Y-95154761D01*
X123223809Y-95130952D01*
X123271428Y-95107142D01*
X123319047Y-95107142D01*
X123390476Y-95130952D01*
X123676190Y-95416666D01*
X123676190Y-95107142D01*
X105411904Y-102953095D02*
X105411904Y-103191190D01*
X105245238Y-102691190D02*
X105411904Y-102953095D01*
X105578571Y-102691190D01*
X106007142Y-103191190D02*
X105721428Y-103191190D01*
X105864285Y-103191190D02*
X105864285Y-102691190D01*
X105816666Y-102762619D01*
X105769047Y-102810238D01*
X105721428Y-102834047D01*
X77968333Y-103043809D02*
X77785000Y-102781904D01*
X77654047Y-103043809D02*
X77654047Y-102493809D01*
X77863571Y-102493809D01*
X77915952Y-102520000D01*
X77942142Y-102546190D01*
X77968333Y-102598571D01*
X77968333Y-102677142D01*
X77942142Y-102729523D01*
X77915952Y-102755714D01*
X77863571Y-102781904D01*
X77654047Y-102781904D01*
X78439761Y-102493809D02*
X78335000Y-102493809D01*
X78282619Y-102520000D01*
X78256428Y-102546190D01*
X78204047Y-102624761D01*
X78177857Y-102729523D01*
X78177857Y-102939047D01*
X78204047Y-102991428D01*
X78230238Y-103017619D01*
X78282619Y-103043809D01*
X78387380Y-103043809D01*
X78439761Y-103017619D01*
X78465952Y-102991428D01*
X78492142Y-102939047D01*
X78492142Y-102808095D01*
X78465952Y-102755714D01*
X78439761Y-102729523D01*
X78387380Y-102703333D01*
X78282619Y-102703333D01*
X78230238Y-102729523D01*
X78204047Y-102755714D01*
X78177857Y-102808095D01*
X88918571Y-103483571D02*
X88894761Y-103507380D01*
X88823333Y-103531190D01*
X88775714Y-103531190D01*
X88704285Y-103507380D01*
X88656666Y-103459761D01*
X88632857Y-103412142D01*
X88609047Y-103316904D01*
X88609047Y-103245476D01*
X88632857Y-103150238D01*
X88656666Y-103102619D01*
X88704285Y-103055000D01*
X88775714Y-103031190D01*
X88823333Y-103031190D01*
X88894761Y-103055000D01*
X88918571Y-103078809D01*
X89394761Y-103531190D02*
X89109047Y-103531190D01*
X89251904Y-103531190D02*
X89251904Y-103031190D01*
X89204285Y-103102619D01*
X89156666Y-103150238D01*
X89109047Y-103174047D01*
X89823333Y-103031190D02*
X89728095Y-103031190D01*
X89680476Y-103055000D01*
X89656666Y-103078809D01*
X89609047Y-103150238D01*
X89585238Y-103245476D01*
X89585238Y-103435952D01*
X89609047Y-103483571D01*
X89632857Y-103507380D01*
X89680476Y-103531190D01*
X89775714Y-103531190D01*
X89823333Y-103507380D01*
X89847142Y-103483571D01*
X89870952Y-103435952D01*
X89870952Y-103316904D01*
X89847142Y-103269285D01*
X89823333Y-103245476D01*
X89775714Y-103221666D01*
X89680476Y-103221666D01*
X89632857Y-103245476D01*
X89609047Y-103269285D01*
X89585238Y-103316904D01*
X100218571Y-106383571D02*
X100194761Y-106407380D01*
X100123333Y-106431190D01*
X100075714Y-106431190D01*
X100004285Y-106407380D01*
X99956666Y-106359761D01*
X99932857Y-106312142D01*
X99909047Y-106216904D01*
X99909047Y-106145476D01*
X99932857Y-106050238D01*
X99956666Y-106002619D01*
X100004285Y-105955000D01*
X100075714Y-105931190D01*
X100123333Y-105931190D01*
X100194761Y-105955000D01*
X100218571Y-105978809D01*
X100694761Y-106431190D02*
X100409047Y-106431190D01*
X100551904Y-106431190D02*
X100551904Y-105931190D01*
X100504285Y-106002619D01*
X100456666Y-106050238D01*
X100409047Y-106074047D01*
X101147142Y-105931190D02*
X100909047Y-105931190D01*
X100885238Y-106169285D01*
X100909047Y-106145476D01*
X100956666Y-106121666D01*
X101075714Y-106121666D01*
X101123333Y-106145476D01*
X101147142Y-106169285D01*
X101170952Y-106216904D01*
X101170952Y-106335952D01*
X101147142Y-106383571D01*
X101123333Y-106407380D01*
X101075714Y-106431190D01*
X100956666Y-106431190D01*
X100909047Y-106407380D01*
X100885238Y-106383571D01*
X95658571Y-92503571D02*
X95634761Y-92527380D01*
X95563333Y-92551190D01*
X95515714Y-92551190D01*
X95444285Y-92527380D01*
X95396666Y-92479761D01*
X95372857Y-92432142D01*
X95349047Y-92336904D01*
X95349047Y-92265476D01*
X95372857Y-92170238D01*
X95396666Y-92122619D01*
X95444285Y-92075000D01*
X95515714Y-92051190D01*
X95563333Y-92051190D01*
X95634761Y-92075000D01*
X95658571Y-92098809D01*
X96134761Y-92551190D02*
X95849047Y-92551190D01*
X95991904Y-92551190D02*
X95991904Y-92051190D01*
X95944285Y-92122619D01*
X95896666Y-92170238D01*
X95849047Y-92194047D01*
X96563333Y-92217857D02*
X96563333Y-92551190D01*
X96444285Y-92027380D02*
X96325238Y-92384523D01*
X96634761Y-92384523D01*
X80278809Y-101169047D02*
X80724047Y-101169047D01*
X80776428Y-101142857D01*
X80802619Y-101116666D01*
X80828809Y-101064285D01*
X80828809Y-100959523D01*
X80802619Y-100907142D01*
X80776428Y-100880952D01*
X80724047Y-100854761D01*
X80278809Y-100854761D01*
X80278809Y-100645238D02*
X80278809Y-100304761D01*
X80488333Y-100488095D01*
X80488333Y-100409523D01*
X80514523Y-100357142D01*
X80540714Y-100330952D01*
X80593095Y-100304761D01*
X80724047Y-100304761D01*
X80776428Y-100330952D01*
X80802619Y-100357142D01*
X80828809Y-100409523D01*
X80828809Y-100566666D01*
X80802619Y-100619047D01*
X80776428Y-100645238D01*
X59507142Y-95296428D02*
X59507142Y-94696428D01*
X59650000Y-94696428D01*
X59735714Y-94725000D01*
X59792857Y-94782142D01*
X59821428Y-94839285D01*
X59850000Y-94953571D01*
X59850000Y-95039285D01*
X59821428Y-95153571D01*
X59792857Y-95210714D01*
X59735714Y-95267857D01*
X59650000Y-95296428D01*
X59507142Y-95296428D01*
X60364285Y-94696428D02*
X60250000Y-94696428D01*
X60192857Y-94725000D01*
X60164285Y-94753571D01*
X60107142Y-94839285D01*
X60078571Y-94953571D01*
X60078571Y-95182142D01*
X60107142Y-95239285D01*
X60135714Y-95267857D01*
X60192857Y-95296428D01*
X60307142Y-95296428D01*
X60364285Y-95267857D01*
X60392857Y-95239285D01*
X60421428Y-95182142D01*
X60421428Y-95039285D01*
X60392857Y-94982142D01*
X60364285Y-94953571D01*
X60307142Y-94925000D01*
X60192857Y-94925000D01*
X60135714Y-94953571D01*
X60107142Y-94982142D01*
X60078571Y-95039285D01*
X85036428Y-103343809D02*
X84853095Y-103081904D01*
X84722142Y-103343809D02*
X84722142Y-102793809D01*
X84931666Y-102793809D01*
X84984047Y-102820000D01*
X85010238Y-102846190D01*
X85036428Y-102898571D01*
X85036428Y-102977142D01*
X85010238Y-103029523D01*
X84984047Y-103055714D01*
X84931666Y-103081904D01*
X84722142Y-103081904D01*
X85560238Y-103343809D02*
X85245952Y-103343809D01*
X85403095Y-103343809D02*
X85403095Y-102793809D01*
X85350714Y-102872380D01*
X85298333Y-102924761D01*
X85245952Y-102950952D01*
X86031666Y-102977142D02*
X86031666Y-103343809D01*
X85900714Y-102767619D02*
X85769761Y-103160476D01*
X86110238Y-103160476D01*
X59614285Y-93671428D02*
X59414285Y-93385714D01*
X59271428Y-93671428D02*
X59271428Y-93071428D01*
X59500000Y-93071428D01*
X59557142Y-93100000D01*
X59585714Y-93128571D01*
X59614285Y-93185714D01*
X59614285Y-93271428D01*
X59585714Y-93328571D01*
X59557142Y-93357142D01*
X59500000Y-93385714D01*
X59271428Y-93385714D01*
X60185714Y-93671428D02*
X59842857Y-93671428D01*
X60014285Y-93671428D02*
X60014285Y-93071428D01*
X59957142Y-93157142D01*
X59900000Y-93214285D01*
X59842857Y-93242857D01*
X60757142Y-93671428D02*
X60414285Y-93671428D01*
X60585714Y-93671428D02*
X60585714Y-93071428D01*
X60528571Y-93157142D01*
X60471428Y-93214285D01*
X60414285Y-93242857D01*
X78109285Y-98134285D02*
X78080714Y-98162857D01*
X77995000Y-98191428D01*
X77937857Y-98191428D01*
X77852142Y-98162857D01*
X77795000Y-98105714D01*
X77766428Y-98048571D01*
X77737857Y-97934285D01*
X77737857Y-97848571D01*
X77766428Y-97734285D01*
X77795000Y-97677142D01*
X77852142Y-97620000D01*
X77937857Y-97591428D01*
X77995000Y-97591428D01*
X78080714Y-97620000D01*
X78109285Y-97648571D01*
X78680714Y-98191428D02*
X78337857Y-98191428D01*
X78509285Y-98191428D02*
X78509285Y-97591428D01*
X78452142Y-97677142D01*
X78395000Y-97734285D01*
X78337857Y-97762857D01*
X79252142Y-98191428D02*
X78909285Y-98191428D01*
X79080714Y-98191428D02*
X79080714Y-97591428D01*
X79023571Y-97677142D01*
X78966428Y-97734285D01*
X78909285Y-97762857D01*
X77760000Y-99139285D02*
X77731428Y-99167857D01*
X77645714Y-99196428D01*
X77588571Y-99196428D01*
X77502857Y-99167857D01*
X77445714Y-99110714D01*
X77417142Y-99053571D01*
X77388571Y-98939285D01*
X77388571Y-98853571D01*
X77417142Y-98739285D01*
X77445714Y-98682142D01*
X77502857Y-98625000D01*
X77588571Y-98596428D01*
X77645714Y-98596428D01*
X77731428Y-98625000D01*
X77760000Y-98653571D01*
X78045714Y-99196428D02*
X78160000Y-99196428D01*
X78217142Y-99167857D01*
X78245714Y-99139285D01*
X78302857Y-99053571D01*
X78331428Y-98939285D01*
X78331428Y-98710714D01*
X78302857Y-98653571D01*
X78274285Y-98625000D01*
X78217142Y-98596428D01*
X78102857Y-98596428D01*
X78045714Y-98625000D01*
X78017142Y-98653571D01*
X77988571Y-98710714D01*
X77988571Y-98853571D01*
X78017142Y-98910714D01*
X78045714Y-98939285D01*
X78102857Y-98967857D01*
X78217142Y-98967857D01*
X78274285Y-98939285D01*
X78302857Y-98910714D01*
X78331428Y-98853571D01*
X88522857Y-99566428D02*
X88522857Y-100052142D01*
X88551428Y-100109285D01*
X88580000Y-100137857D01*
X88637142Y-100166428D01*
X88751428Y-100166428D01*
X88808571Y-100137857D01*
X88837142Y-100109285D01*
X88865714Y-100052142D01*
X88865714Y-99566428D01*
X89408571Y-99766428D02*
X89408571Y-100166428D01*
X89265714Y-99537857D02*
X89122857Y-99966428D01*
X89494285Y-99966428D01*
X59678571Y-107153571D02*
X59654761Y-107177380D01*
X59583333Y-107201190D01*
X59535714Y-107201190D01*
X59464285Y-107177380D01*
X59416666Y-107129761D01*
X59392857Y-107082142D01*
X59369047Y-106986904D01*
X59369047Y-106915476D01*
X59392857Y-106820238D01*
X59416666Y-106772619D01*
X59464285Y-106725000D01*
X59535714Y-106701190D01*
X59583333Y-106701190D01*
X59654761Y-106725000D01*
X59678571Y-106748809D01*
X60154761Y-107201190D02*
X59869047Y-107201190D01*
X60011904Y-107201190D02*
X60011904Y-106701190D01*
X59964285Y-106772619D01*
X59916666Y-106820238D01*
X59869047Y-106844047D01*
X60321428Y-106701190D02*
X60630952Y-106701190D01*
X60464285Y-106891666D01*
X60535714Y-106891666D01*
X60583333Y-106915476D01*
X60607142Y-106939285D01*
X60630952Y-106986904D01*
X60630952Y-107105952D01*
X60607142Y-107153571D01*
X60583333Y-107177380D01*
X60535714Y-107201190D01*
X60392857Y-107201190D01*
X60345238Y-107177380D01*
X60321428Y-107153571D01*
X100798571Y-92853571D02*
X100774761Y-92877380D01*
X100703333Y-92901190D01*
X100655714Y-92901190D01*
X100584285Y-92877380D01*
X100536666Y-92829761D01*
X100512857Y-92782142D01*
X100489047Y-92686904D01*
X100489047Y-92615476D01*
X100512857Y-92520238D01*
X100536666Y-92472619D01*
X100584285Y-92425000D01*
X100655714Y-92401190D01*
X100703333Y-92401190D01*
X100774761Y-92425000D01*
X100798571Y-92448809D01*
X101274761Y-92901190D02*
X100989047Y-92901190D01*
X101131904Y-92901190D02*
X101131904Y-92401190D01*
X101084285Y-92472619D01*
X101036666Y-92520238D01*
X100989047Y-92544047D01*
X101465238Y-92448809D02*
X101489047Y-92425000D01*
X101536666Y-92401190D01*
X101655714Y-92401190D01*
X101703333Y-92425000D01*
X101727142Y-92448809D01*
X101750952Y-92496428D01*
X101750952Y-92544047D01*
X101727142Y-92615476D01*
X101441428Y-92901190D01*
X101750952Y-92901190D01*
X105986666Y-92893571D02*
X105962857Y-92917380D01*
X105891428Y-92941190D01*
X105843809Y-92941190D01*
X105772380Y-92917380D01*
X105724761Y-92869761D01*
X105700952Y-92822142D01*
X105677142Y-92726904D01*
X105677142Y-92655476D01*
X105700952Y-92560238D01*
X105724761Y-92512619D01*
X105772380Y-92465000D01*
X105843809Y-92441190D01*
X105891428Y-92441190D01*
X105962857Y-92465000D01*
X105986666Y-92488809D01*
X106415238Y-92441190D02*
X106320000Y-92441190D01*
X106272380Y-92465000D01*
X106248571Y-92488809D01*
X106200952Y-92560238D01*
X106177142Y-92655476D01*
X106177142Y-92845952D01*
X106200952Y-92893571D01*
X106224761Y-92917380D01*
X106272380Y-92941190D01*
X106367619Y-92941190D01*
X106415238Y-92917380D01*
X106439047Y-92893571D01*
X106462857Y-92845952D01*
X106462857Y-92726904D01*
X106439047Y-92679285D01*
X106415238Y-92655476D01*
X106367619Y-92631666D01*
X106272380Y-92631666D01*
X106224761Y-92655476D01*
X106200952Y-92679285D01*
X106177142Y-92726904D01*
X100516666Y-103683571D02*
X100492857Y-103707380D01*
X100421428Y-103731190D01*
X100373809Y-103731190D01*
X100302380Y-103707380D01*
X100254761Y-103659761D01*
X100230952Y-103612142D01*
X100207142Y-103516904D01*
X100207142Y-103445476D01*
X100230952Y-103350238D01*
X100254761Y-103302619D01*
X100302380Y-103255000D01*
X100373809Y-103231190D01*
X100421428Y-103231190D01*
X100492857Y-103255000D01*
X100516666Y-103278809D01*
X100945238Y-103397857D02*
X100945238Y-103731190D01*
X100826190Y-103207380D02*
X100707142Y-103564523D01*
X101016666Y-103564523D01*
X100486666Y-105153571D02*
X100462857Y-105177380D01*
X100391428Y-105201190D01*
X100343809Y-105201190D01*
X100272380Y-105177380D01*
X100224761Y-105129761D01*
X100200952Y-105082142D01*
X100177142Y-104986904D01*
X100177142Y-104915476D01*
X100200952Y-104820238D01*
X100224761Y-104772619D01*
X100272380Y-104725000D01*
X100343809Y-104701190D01*
X100391428Y-104701190D01*
X100462857Y-104725000D01*
X100486666Y-104748809D01*
X100653333Y-104701190D02*
X100986666Y-104701190D01*
X100772380Y-105201190D01*
X103396190Y-94615952D02*
X103800952Y-94615952D01*
X103848571Y-94592142D01*
X103872380Y-94568333D01*
X103896190Y-94520714D01*
X103896190Y-94425476D01*
X103872380Y-94377857D01*
X103848571Y-94354047D01*
X103800952Y-94330238D01*
X103396190Y-94330238D01*
X103443809Y-94115952D02*
X103420000Y-94092142D01*
X103396190Y-94044523D01*
X103396190Y-93925476D01*
X103420000Y-93877857D01*
X103443809Y-93854047D01*
X103491428Y-93830238D01*
X103539047Y-93830238D01*
X103610476Y-93854047D01*
X103896190Y-94139761D01*
X103896190Y-93830238D01*
D13*
X149904761Y-101333333D02*
X149952380Y-101190476D01*
X149952380Y-100952380D01*
X149904761Y-100857142D01*
X149857142Y-100809523D01*
X149761904Y-100761904D01*
X149666666Y-100761904D01*
X149571428Y-100809523D01*
X149523809Y-100857142D01*
X149476190Y-100952380D01*
X149428571Y-101142857D01*
X149380952Y-101238095D01*
X149333333Y-101285714D01*
X149238095Y-101333333D01*
X149142857Y-101333333D01*
X149047619Y-101285714D01*
X149000000Y-101238095D01*
X148952380Y-101142857D01*
X148952380Y-100904761D01*
X149000000Y-100761904D01*
X148952380Y-100428571D02*
X149952380Y-100190476D01*
X149238095Y-100000000D01*
X149952380Y-99809523D01*
X148952380Y-99571428D01*
X149952380Y-98666666D02*
X149952380Y-99238095D01*
X149952380Y-98952380D02*
X148952380Y-98952380D01*
X149095238Y-99047619D01*
X149190476Y-99142857D01*
X149238095Y-99238095D01*
D10*
X58880952Y-105476190D02*
X58880952Y-104976190D01*
X59000000Y-104976190D01*
X59071428Y-105000000D01*
X59119047Y-105047619D01*
X59142857Y-105095238D01*
X59166666Y-105190476D01*
X59166666Y-105261904D01*
X59142857Y-105357142D01*
X59119047Y-105404761D01*
X59071428Y-105452380D01*
X59000000Y-105476190D01*
X58880952Y-105476190D01*
X59642857Y-105476190D02*
X59357142Y-105476190D01*
X59500000Y-105476190D02*
X59500000Y-104976190D01*
X59452380Y-105047619D01*
X59404761Y-105095238D01*
X59357142Y-105119047D01*
X107680952Y-94301190D02*
X107680952Y-93801190D01*
X107800000Y-93801190D01*
X107871428Y-93825000D01*
X107919047Y-93872619D01*
X107942857Y-93920238D01*
X107966666Y-94015476D01*
X107966666Y-94086904D01*
X107942857Y-94182142D01*
X107919047Y-94229761D01*
X107871428Y-94277380D01*
X107800000Y-94301190D01*
X107680952Y-94301190D01*
X108252380Y-94015476D02*
X108204761Y-93991666D01*
X108180952Y-93967857D01*
X108157142Y-93920238D01*
X108157142Y-93896428D01*
X108180952Y-93848809D01*
X108204761Y-93825000D01*
X108252380Y-93801190D01*
X108347619Y-93801190D01*
X108395238Y-93825000D01*
X108419047Y-93848809D01*
X108442857Y-93896428D01*
X108442857Y-93920238D01*
X108419047Y-93967857D01*
X108395238Y-93991666D01*
X108347619Y-94015476D01*
X108252380Y-94015476D01*
X108204761Y-94039285D01*
X108180952Y-94063095D01*
X108157142Y-94110714D01*
X108157142Y-94205952D01*
X108180952Y-94253571D01*
X108204761Y-94277380D01*
X108252380Y-94301190D01*
X108347619Y-94301190D01*
X108395238Y-94277380D01*
X108419047Y-94253571D01*
X108442857Y-94205952D01*
X108442857Y-94110714D01*
X108419047Y-94063095D01*
X108395238Y-94039285D01*
X108347619Y-94015476D01*
X112426190Y-93294047D02*
X111926190Y-93294047D01*
X111926190Y-93175000D01*
X111950000Y-93103571D01*
X111997619Y-93055952D01*
X112045238Y-93032142D01*
X112140476Y-93008333D01*
X112211904Y-93008333D01*
X112307142Y-93032142D01*
X112354761Y-93055952D01*
X112402380Y-93103571D01*
X112426190Y-93175000D01*
X112426190Y-93294047D01*
X111926190Y-92841666D02*
X111926190Y-92508333D01*
X112426190Y-92722619D01*
X115826190Y-93294047D02*
X115326190Y-93294047D01*
X115326190Y-93175000D01*
X115350000Y-93103571D01*
X115397619Y-93055952D01*
X115445238Y-93032142D01*
X115540476Y-93008333D01*
X115611904Y-93008333D01*
X115707142Y-93032142D01*
X115754761Y-93055952D01*
X115802380Y-93103571D01*
X115826190Y-93175000D01*
X115826190Y-93294047D01*
X115326190Y-92555952D02*
X115326190Y-92794047D01*
X115564285Y-92817857D01*
X115540476Y-92794047D01*
X115516666Y-92746428D01*
X115516666Y-92627380D01*
X115540476Y-92579761D01*
X115564285Y-92555952D01*
X115611904Y-92532142D01*
X115730952Y-92532142D01*
X115778571Y-92555952D01*
X115802380Y-92579761D01*
X115826190Y-92627380D01*
X115826190Y-92746428D01*
X115802380Y-92794047D01*
X115778571Y-92817857D01*
X120655952Y-93176190D02*
X120655952Y-92676190D01*
X120775000Y-92676190D01*
X120846428Y-92700000D01*
X120894047Y-92747619D01*
X120917857Y-92795238D01*
X120941666Y-92890476D01*
X120941666Y-92961904D01*
X120917857Y-93057142D01*
X120894047Y-93104761D01*
X120846428Y-93152380D01*
X120775000Y-93176190D01*
X120655952Y-93176190D01*
X121370238Y-92842857D02*
X121370238Y-93176190D01*
X121251190Y-92652380D02*
X121132142Y-93009523D01*
X121441666Y-93009523D01*
X104926666Y-96591190D02*
X104688571Y-96591190D01*
X104688571Y-96091190D01*
X105355238Y-96591190D02*
X105069523Y-96591190D01*
X105212380Y-96591190D02*
X105212380Y-96091190D01*
X105164761Y-96162619D01*
X105117142Y-96210238D01*
X105069523Y-96234047D01*
X136066666Y-94801190D02*
X135900000Y-94563095D01*
X135780952Y-94801190D02*
X135780952Y-94301190D01*
X135971428Y-94301190D01*
X136019047Y-94325000D01*
X136042857Y-94348809D01*
X136066666Y-94396428D01*
X136066666Y-94467857D01*
X136042857Y-94515476D01*
X136019047Y-94539285D01*
X135971428Y-94563095D01*
X135780952Y-94563095D01*
X136542857Y-94801190D02*
X136257142Y-94801190D01*
X136400000Y-94801190D02*
X136400000Y-94301190D01*
X136352380Y-94372619D01*
X136304761Y-94420238D01*
X136257142Y-94444047D01*
X129741666Y-105781190D02*
X129575000Y-105543095D01*
X129455952Y-105781190D02*
X129455952Y-105281190D01*
X129646428Y-105281190D01*
X129694047Y-105305000D01*
X129717857Y-105328809D01*
X129741666Y-105376428D01*
X129741666Y-105447857D01*
X129717857Y-105495476D01*
X129694047Y-105519285D01*
X129646428Y-105543095D01*
X129455952Y-105543095D01*
X129932142Y-105328809D02*
X129955952Y-105305000D01*
X130003571Y-105281190D01*
X130122619Y-105281190D01*
X130170238Y-105305000D01*
X130194047Y-105328809D01*
X130217857Y-105376428D01*
X130217857Y-105424047D01*
X130194047Y-105495476D01*
X129908333Y-105781190D01*
X130217857Y-105781190D01*
X126741666Y-105831190D02*
X126575000Y-105593095D01*
X126455952Y-105831190D02*
X126455952Y-105331190D01*
X126646428Y-105331190D01*
X126694047Y-105355000D01*
X126717857Y-105378809D01*
X126741666Y-105426428D01*
X126741666Y-105497857D01*
X126717857Y-105545476D01*
X126694047Y-105569285D01*
X126646428Y-105593095D01*
X126455952Y-105593095D01*
X126908333Y-105331190D02*
X127217857Y-105331190D01*
X127051190Y-105521666D01*
X127122619Y-105521666D01*
X127170238Y-105545476D01*
X127194047Y-105569285D01*
X127217857Y-105616904D01*
X127217857Y-105735952D01*
X127194047Y-105783571D01*
X127170238Y-105807380D01*
X127122619Y-105831190D01*
X126979761Y-105831190D01*
X126932142Y-105807380D01*
X126908333Y-105783571D01*
X120416666Y-104096190D02*
X120250000Y-103858095D01*
X120130952Y-104096190D02*
X120130952Y-103596190D01*
X120321428Y-103596190D01*
X120369047Y-103620000D01*
X120392857Y-103643809D01*
X120416666Y-103691428D01*
X120416666Y-103762857D01*
X120392857Y-103810476D01*
X120369047Y-103834285D01*
X120321428Y-103858095D01*
X120130952Y-103858095D01*
X120845238Y-103762857D02*
X120845238Y-104096190D01*
X120726190Y-103572380D02*
X120607142Y-103929523D01*
X120916666Y-103929523D01*
X116866666Y-104121190D02*
X116700000Y-103883095D01*
X116580952Y-104121190D02*
X116580952Y-103621190D01*
X116771428Y-103621190D01*
X116819047Y-103645000D01*
X116842857Y-103668809D01*
X116866666Y-103716428D01*
X116866666Y-103787857D01*
X116842857Y-103835476D01*
X116819047Y-103859285D01*
X116771428Y-103883095D01*
X116580952Y-103883095D01*
X117319047Y-103621190D02*
X117080952Y-103621190D01*
X117057142Y-103859285D01*
X117080952Y-103835476D01*
X117128571Y-103811666D01*
X117247619Y-103811666D01*
X117295238Y-103835476D01*
X117319047Y-103859285D01*
X117342857Y-103906904D01*
X117342857Y-104025952D01*
X117319047Y-104073571D01*
X117295238Y-104097380D01*
X117247619Y-104121190D01*
X117128571Y-104121190D01*
X117080952Y-104097380D01*
X117057142Y-104073571D01*
X120316666Y-97251190D02*
X120150000Y-97013095D01*
X120030952Y-97251190D02*
X120030952Y-96751190D01*
X120221428Y-96751190D01*
X120269047Y-96775000D01*
X120292857Y-96798809D01*
X120316666Y-96846428D01*
X120316666Y-96917857D01*
X120292857Y-96965476D01*
X120269047Y-96989285D01*
X120221428Y-97013095D01*
X120030952Y-97013095D01*
X120483333Y-96751190D02*
X120816666Y-96751190D01*
X120602380Y-97251190D01*
X116666666Y-97401190D02*
X116500000Y-97163095D01*
X116380952Y-97401190D02*
X116380952Y-96901190D01*
X116571428Y-96901190D01*
X116619047Y-96925000D01*
X116642857Y-96948809D01*
X116666666Y-96996428D01*
X116666666Y-97067857D01*
X116642857Y-97115476D01*
X116619047Y-97139285D01*
X116571428Y-97163095D01*
X116380952Y-97163095D01*
X116952380Y-97115476D02*
X116904761Y-97091666D01*
X116880952Y-97067857D01*
X116857142Y-97020238D01*
X116857142Y-96996428D01*
X116880952Y-96948809D01*
X116904761Y-96925000D01*
X116952380Y-96901190D01*
X117047619Y-96901190D01*
X117095238Y-96925000D01*
X117119047Y-96948809D01*
X117142857Y-96996428D01*
X117142857Y-97020238D01*
X117119047Y-97067857D01*
X117095238Y-97091666D01*
X117047619Y-97115476D01*
X116952380Y-97115476D01*
X116904761Y-97139285D01*
X116880952Y-97163095D01*
X116857142Y-97210714D01*
X116857142Y-97305952D01*
X116880952Y-97353571D01*
X116904761Y-97377380D01*
X116952380Y-97401190D01*
X117047619Y-97401190D01*
X117095238Y-97377380D01*
X117119047Y-97353571D01*
X117142857Y-97305952D01*
X117142857Y-97210714D01*
X117119047Y-97163095D01*
X117095238Y-97139285D01*
X117047619Y-97115476D01*
X113266666Y-104121190D02*
X113100000Y-103883095D01*
X112980952Y-104121190D02*
X112980952Y-103621190D01*
X113171428Y-103621190D01*
X113219047Y-103645000D01*
X113242857Y-103668809D01*
X113266666Y-103716428D01*
X113266666Y-103787857D01*
X113242857Y-103835476D01*
X113219047Y-103859285D01*
X113171428Y-103883095D01*
X112980952Y-103883095D01*
X113504761Y-104121190D02*
X113600000Y-104121190D01*
X113647619Y-104097380D01*
X113671428Y-104073571D01*
X113719047Y-104002142D01*
X113742857Y-103906904D01*
X113742857Y-103716428D01*
X113719047Y-103668809D01*
X113695238Y-103645000D01*
X113647619Y-103621190D01*
X113552380Y-103621190D01*
X113504761Y-103645000D01*
X113480952Y-103668809D01*
X113457142Y-103716428D01*
X113457142Y-103835476D01*
X113480952Y-103883095D01*
X113504761Y-103906904D01*
X113552380Y-103930714D01*
X113647619Y-103930714D01*
X113695238Y-103906904D01*
X113719047Y-103883095D01*
X113742857Y-103835476D01*
X112778571Y-97401190D02*
X112611904Y-97163095D01*
X112492857Y-97401190D02*
X112492857Y-96901190D01*
X112683333Y-96901190D01*
X112730952Y-96925000D01*
X112754761Y-96948809D01*
X112778571Y-96996428D01*
X112778571Y-97067857D01*
X112754761Y-97115476D01*
X112730952Y-97139285D01*
X112683333Y-97163095D01*
X112492857Y-97163095D01*
X113254761Y-97401190D02*
X112969047Y-97401190D01*
X113111904Y-97401190D02*
X113111904Y-96901190D01*
X113064285Y-96972619D01*
X113016666Y-97020238D01*
X112969047Y-97044047D01*
X113564285Y-96901190D02*
X113611904Y-96901190D01*
X113659523Y-96925000D01*
X113683333Y-96948809D01*
X113707142Y-96996428D01*
X113730952Y-97091666D01*
X113730952Y-97210714D01*
X113707142Y-97305952D01*
X113683333Y-97353571D01*
X113659523Y-97377380D01*
X113611904Y-97401190D01*
X113564285Y-97401190D01*
X113516666Y-97377380D01*
X113492857Y-97353571D01*
X113469047Y-97305952D01*
X113445238Y-97210714D01*
X113445238Y-97091666D01*
X113469047Y-96996428D01*
X113492857Y-96948809D01*
X113516666Y-96925000D01*
X113564285Y-96901190D01*
X109328571Y-97401190D02*
X109161904Y-97163095D01*
X109042857Y-97401190D02*
X109042857Y-96901190D01*
X109233333Y-96901190D01*
X109280952Y-96925000D01*
X109304761Y-96948809D01*
X109328571Y-96996428D01*
X109328571Y-97067857D01*
X109304761Y-97115476D01*
X109280952Y-97139285D01*
X109233333Y-97163095D01*
X109042857Y-97163095D01*
X109804761Y-97401190D02*
X109519047Y-97401190D01*
X109661904Y-97401190D02*
X109661904Y-96901190D01*
X109614285Y-96972619D01*
X109566666Y-97020238D01*
X109519047Y-97044047D01*
X109995238Y-96948809D02*
X110019047Y-96925000D01*
X110066666Y-96901190D01*
X110185714Y-96901190D01*
X110233333Y-96925000D01*
X110257142Y-96948809D01*
X110280952Y-96996428D01*
X110280952Y-97044047D01*
X110257142Y-97115476D01*
X109971428Y-97401190D01*
X110280952Y-97401190D01*
X109403571Y-104121190D02*
X109236904Y-103883095D01*
X109117857Y-104121190D02*
X109117857Y-103621190D01*
X109308333Y-103621190D01*
X109355952Y-103645000D01*
X109379761Y-103668809D01*
X109403571Y-103716428D01*
X109403571Y-103787857D01*
X109379761Y-103835476D01*
X109355952Y-103859285D01*
X109308333Y-103883095D01*
X109117857Y-103883095D01*
X109879761Y-104121190D02*
X109594047Y-104121190D01*
X109736904Y-104121190D02*
X109736904Y-103621190D01*
X109689285Y-103692619D01*
X109641666Y-103740238D01*
X109594047Y-103764047D01*
X110046428Y-103621190D02*
X110355952Y-103621190D01*
X110189285Y-103811666D01*
X110260714Y-103811666D01*
X110308333Y-103835476D01*
X110332142Y-103859285D01*
X110355952Y-103906904D01*
X110355952Y-104025952D01*
X110332142Y-104073571D01*
X110308333Y-104097380D01*
X110260714Y-104121190D01*
X110117857Y-104121190D01*
X110070238Y-104097380D01*
X110046428Y-104073571D01*
X123691666Y-105733571D02*
X123667857Y-105757380D01*
X123596428Y-105781190D01*
X123548809Y-105781190D01*
X123477380Y-105757380D01*
X123429761Y-105709761D01*
X123405952Y-105662142D01*
X123382142Y-105566904D01*
X123382142Y-105495476D01*
X123405952Y-105400238D01*
X123429761Y-105352619D01*
X123477380Y-105305000D01*
X123548809Y-105281190D01*
X123596428Y-105281190D01*
X123667857Y-105305000D01*
X123691666Y-105328809D01*
X124167857Y-105781190D02*
X123882142Y-105781190D01*
X124025000Y-105781190D02*
X124025000Y-105281190D01*
X123977380Y-105352619D01*
X123929761Y-105400238D01*
X123882142Y-105424047D01*
X103436666Y-96538571D02*
X103412857Y-96562380D01*
X103341428Y-96586190D01*
X103293809Y-96586190D01*
X103222380Y-96562380D01*
X103174761Y-96514761D01*
X103150952Y-96467142D01*
X103127142Y-96371904D01*
X103127142Y-96300476D01*
X103150952Y-96205238D01*
X103174761Y-96157619D01*
X103222380Y-96110000D01*
X103293809Y-96086190D01*
X103341428Y-96086190D01*
X103412857Y-96110000D01*
X103436666Y-96133809D01*
X103627142Y-96133809D02*
X103650952Y-96110000D01*
X103698571Y-96086190D01*
X103817619Y-96086190D01*
X103865238Y-96110000D01*
X103889047Y-96133809D01*
X103912857Y-96181428D01*
X103912857Y-96229047D01*
X103889047Y-96300476D01*
X103603333Y-96586190D01*
X103912857Y-96586190D01*
X101861666Y-96538571D02*
X101837857Y-96562380D01*
X101766428Y-96586190D01*
X101718809Y-96586190D01*
X101647380Y-96562380D01*
X101599761Y-96514761D01*
X101575952Y-96467142D01*
X101552142Y-96371904D01*
X101552142Y-96300476D01*
X101575952Y-96205238D01*
X101599761Y-96157619D01*
X101647380Y-96110000D01*
X101718809Y-96086190D01*
X101766428Y-96086190D01*
X101837857Y-96110000D01*
X101861666Y-96133809D01*
X102028333Y-96086190D02*
X102337857Y-96086190D01*
X102171190Y-96276666D01*
X102242619Y-96276666D01*
X102290238Y-96300476D01*
X102314047Y-96324285D01*
X102337857Y-96371904D01*
X102337857Y-96490952D01*
X102314047Y-96538571D01*
X102290238Y-96562380D01*
X102242619Y-96586190D01*
X102099761Y-96586190D01*
X102052142Y-96562380D01*
X102028333Y-96538571D01*
X93016666Y-92503571D02*
X92992857Y-92527380D01*
X92921428Y-92551190D01*
X92873809Y-92551190D01*
X92802380Y-92527380D01*
X92754761Y-92479761D01*
X92730952Y-92432142D01*
X92707142Y-92336904D01*
X92707142Y-92265476D01*
X92730952Y-92170238D01*
X92754761Y-92122619D01*
X92802380Y-92075000D01*
X92873809Y-92051190D01*
X92921428Y-92051190D01*
X92992857Y-92075000D01*
X93016666Y-92098809D01*
X93469047Y-92051190D02*
X93230952Y-92051190D01*
X93207142Y-92289285D01*
X93230952Y-92265476D01*
X93278571Y-92241666D01*
X93397619Y-92241666D01*
X93445238Y-92265476D01*
X93469047Y-92289285D01*
X93492857Y-92336904D01*
X93492857Y-92455952D01*
X93469047Y-92503571D01*
X93445238Y-92527380D01*
X93397619Y-92551190D01*
X93278571Y-92551190D01*
X93230952Y-92527380D01*
X93207142Y-92503571D01*
X100606666Y-102163571D02*
X100582857Y-102187380D01*
X100511428Y-102211190D01*
X100463809Y-102211190D01*
X100392380Y-102187380D01*
X100344761Y-102139761D01*
X100320952Y-102092142D01*
X100297142Y-101996904D01*
X100297142Y-101925476D01*
X100320952Y-101830238D01*
X100344761Y-101782619D01*
X100392380Y-101735000D01*
X100463809Y-101711190D01*
X100511428Y-101711190D01*
X100582857Y-101735000D01*
X100606666Y-101758809D01*
X100892380Y-101925476D02*
X100844761Y-101901666D01*
X100820952Y-101877857D01*
X100797142Y-101830238D01*
X100797142Y-101806428D01*
X100820952Y-101758809D01*
X100844761Y-101735000D01*
X100892380Y-101711190D01*
X100987619Y-101711190D01*
X101035238Y-101735000D01*
X101059047Y-101758809D01*
X101082857Y-101806428D01*
X101082857Y-101830238D01*
X101059047Y-101877857D01*
X101035238Y-101901666D01*
X100987619Y-101925476D01*
X100892380Y-101925476D01*
X100844761Y-101949285D01*
X100820952Y-101973095D01*
X100797142Y-102020714D01*
X100797142Y-102115952D01*
X100820952Y-102163571D01*
X100844761Y-102187380D01*
X100892380Y-102211190D01*
X100987619Y-102211190D01*
X101035238Y-102187380D01*
X101059047Y-102163571D01*
X101082857Y-102115952D01*
X101082857Y-102020714D01*
X101059047Y-101973095D01*
X101035238Y-101949285D01*
X100987619Y-101925476D01*
X100198571Y-100543571D02*
X100174761Y-100567380D01*
X100103333Y-100591190D01*
X100055714Y-100591190D01*
X99984285Y-100567380D01*
X99936666Y-100519761D01*
X99912857Y-100472142D01*
X99889047Y-100376904D01*
X99889047Y-100305476D01*
X99912857Y-100210238D01*
X99936666Y-100162619D01*
X99984285Y-100115000D01*
X100055714Y-100091190D01*
X100103333Y-100091190D01*
X100174761Y-100115000D01*
X100198571Y-100138809D01*
X100674761Y-100591190D02*
X100389047Y-100591190D01*
X100531904Y-100591190D02*
X100531904Y-100091190D01*
X100484285Y-100162619D01*
X100436666Y-100210238D01*
X100389047Y-100234047D01*
X100984285Y-100091190D02*
X101031904Y-100091190D01*
X101079523Y-100115000D01*
X101103333Y-100138809D01*
X101127142Y-100186428D01*
X101150952Y-100281666D01*
X101150952Y-100400714D01*
X101127142Y-100495952D01*
X101103333Y-100543571D01*
X101079523Y-100567380D01*
X101031904Y-100591190D01*
X100984285Y-100591190D01*
X100936666Y-100567380D01*
X100912857Y-100543571D01*
X100889047Y-100495952D01*
X100865238Y-100400714D01*
X100865238Y-100281666D01*
X100889047Y-100186428D01*
X100912857Y-100138809D01*
X100936666Y-100115000D01*
X100984285Y-100091190D01*
X120433333Y-100953333D02*
X120366666Y-100920000D01*
X120300000Y-100853333D01*
X120200000Y-100753333D01*
X120133333Y-100720000D01*
X120066666Y-100720000D01*
X120100000Y-100886666D02*
X120033333Y-100853333D01*
X119966666Y-100786666D01*
X119933333Y-100653333D01*
X119933333Y-100420000D01*
X119966666Y-100286666D01*
X120033333Y-100220000D01*
X120100000Y-100186666D01*
X120233333Y-100186666D01*
X120300000Y-100220000D01*
X120366666Y-100286666D01*
X120400000Y-100420000D01*
X120400000Y-100653333D01*
X120366666Y-100786666D01*
X120300000Y-100853333D01*
X120233333Y-100886666D01*
X120100000Y-100886666D01*
X121066666Y-100886666D02*
X120666666Y-100886666D01*
X120866666Y-100886666D02*
X120866666Y-100186666D01*
X120800000Y-100286666D01*
X120733333Y-100353333D01*
X120666666Y-100386666D01*
X113283333Y-100983333D02*
X113216666Y-100950000D01*
X113150000Y-100883333D01*
X113050000Y-100783333D01*
X112983333Y-100750000D01*
X112916666Y-100750000D01*
X112950000Y-100916666D02*
X112883333Y-100883333D01*
X112816666Y-100816666D01*
X112783333Y-100683333D01*
X112783333Y-100450000D01*
X112816666Y-100316666D01*
X112883333Y-100250000D01*
X112950000Y-100216666D01*
X113083333Y-100216666D01*
X113150000Y-100250000D01*
X113216666Y-100316666D01*
X113250000Y-100450000D01*
X113250000Y-100683333D01*
X113216666Y-100816666D01*
X113150000Y-100883333D01*
X113083333Y-100916666D01*
X112950000Y-100916666D01*
X113483333Y-100216666D02*
X113916666Y-100216666D01*
X113683333Y-100483333D01*
X113783333Y-100483333D01*
X113850000Y-100516666D01*
X113883333Y-100550000D01*
X113916666Y-100616666D01*
X113916666Y-100783333D01*
X113883333Y-100850000D01*
X113850000Y-100883333D01*
X113783333Y-100916666D01*
X113583333Y-100916666D01*
X113516666Y-100883333D01*
X113483333Y-100850000D01*
X109833333Y-100908333D02*
X109766666Y-100875000D01*
X109700000Y-100808333D01*
X109600000Y-100708333D01*
X109533333Y-100675000D01*
X109466666Y-100675000D01*
X109500000Y-100841666D02*
X109433333Y-100808333D01*
X109366666Y-100741666D01*
X109333333Y-100608333D01*
X109333333Y-100375000D01*
X109366666Y-100241666D01*
X109433333Y-100175000D01*
X109500000Y-100141666D01*
X109633333Y-100141666D01*
X109700000Y-100175000D01*
X109766666Y-100241666D01*
X109800000Y-100375000D01*
X109800000Y-100608333D01*
X109766666Y-100741666D01*
X109700000Y-100808333D01*
X109633333Y-100841666D01*
X109500000Y-100841666D01*
X110400000Y-100375000D02*
X110400000Y-100841666D01*
X110233333Y-100108333D02*
X110066666Y-100608333D01*
X110500000Y-100608333D01*
X132480952Y-94751190D02*
X132480952Y-94251190D01*
X132600000Y-94251190D01*
X132671428Y-94275000D01*
X132719047Y-94322619D01*
X132742857Y-94370238D01*
X132766666Y-94465476D01*
X132766666Y-94536904D01*
X132742857Y-94632142D01*
X132719047Y-94679761D01*
X132671428Y-94727380D01*
X132600000Y-94751190D01*
X132480952Y-94751190D01*
X132933333Y-94251190D02*
X133242857Y-94251190D01*
X133076190Y-94441666D01*
X133147619Y-94441666D01*
X133195238Y-94465476D01*
X133219047Y-94489285D01*
X133242857Y-94536904D01*
X133242857Y-94655952D01*
X133219047Y-94703571D01*
X133195238Y-94727380D01*
X133147619Y-94751190D01*
X133004761Y-94751190D01*
X132957142Y-94727380D01*
X132933333Y-94703571D01*
X116883333Y-100933333D02*
X116816666Y-100900000D01*
X116750000Y-100833333D01*
X116650000Y-100733333D01*
X116583333Y-100700000D01*
X116516666Y-100700000D01*
X116550000Y-100866666D02*
X116483333Y-100833333D01*
X116416666Y-100766666D01*
X116383333Y-100633333D01*
X116383333Y-100400000D01*
X116416666Y-100266666D01*
X116483333Y-100200000D01*
X116550000Y-100166666D01*
X116683333Y-100166666D01*
X116750000Y-100200000D01*
X116816666Y-100266666D01*
X116850000Y-100400000D01*
X116850000Y-100633333D01*
X116816666Y-100766666D01*
X116750000Y-100833333D01*
X116683333Y-100866666D01*
X116550000Y-100866666D01*
X117116666Y-100233333D02*
X117150000Y-100200000D01*
X117216666Y-100166666D01*
X117383333Y-100166666D01*
X117450000Y-100200000D01*
X117483333Y-100233333D01*
X117516666Y-100300000D01*
X117516666Y-100366666D01*
X117483333Y-100466666D01*
X117083333Y-100866666D01*
X117516666Y-100866666D01*
%LPC*%
G36*
G01*
X98655800Y-101932100D02*
X98655800Y-102732900D01*
G75*
G02*
X98567900Y-102820800I-87900J0D01*
G01*
X98392100Y-102820800D01*
G75*
G02*
X98304200Y-102732900I0J87900D01*
G01*
X98304200Y-101932100D01*
G75*
G02*
X98392100Y-101844200I87900J0D01*
G01*
X98567900Y-101844200D01*
G75*
G02*
X98655800Y-101932100I0J-87900D01*
G01*
G37*
G36*
G01*
X98155800Y-101932100D02*
X98155800Y-102732900D01*
G75*
G02*
X98067900Y-102820800I-87900J0D01*
G01*
X97892100Y-102820800D01*
G75*
G02*
X97804200Y-102732900I0J87900D01*
G01*
X97804200Y-101932100D01*
G75*
G02*
X97892100Y-101844200I87900J0D01*
G01*
X98067900Y-101844200D01*
G75*
G02*
X98155800Y-101932100I0J-87900D01*
G01*
G37*
G36*
G01*
X97655800Y-101932100D02*
X97655800Y-102732900D01*
G75*
G02*
X97567900Y-102820800I-87900J0D01*
G01*
X97392100Y-102820800D01*
G75*
G02*
X97304200Y-102732900I0J87900D01*
G01*
X97304200Y-101932100D01*
G75*
G02*
X97392100Y-101844200I87900J0D01*
G01*
X97567900Y-101844200D01*
G75*
G02*
X97655800Y-101932100I0J-87900D01*
G01*
G37*
G36*
G01*
X97155800Y-101932100D02*
X97155800Y-102732900D01*
G75*
G02*
X97067900Y-102820800I-87900J0D01*
G01*
X96892100Y-102820800D01*
G75*
G02*
X96804200Y-102732900I0J87900D01*
G01*
X96804200Y-101932100D01*
G75*
G02*
X96892100Y-101844200I87900J0D01*
G01*
X97067900Y-101844200D01*
G75*
G02*
X97155800Y-101932100I0J-87900D01*
G01*
G37*
G36*
G01*
X96655800Y-101932100D02*
X96655800Y-102732900D01*
G75*
G02*
X96567900Y-102820800I-87900J0D01*
G01*
X96392100Y-102820800D01*
G75*
G02*
X96304200Y-102732900I0J87900D01*
G01*
X96304200Y-101932100D01*
G75*
G02*
X96392100Y-101844200I87900J0D01*
G01*
X96567900Y-101844200D01*
G75*
G02*
X96655800Y-101932100I0J-87900D01*
G01*
G37*
G36*
G01*
X96155800Y-101932100D02*
X96155800Y-102732900D01*
G75*
G02*
X96067900Y-102820800I-87900J0D01*
G01*
X95892100Y-102820800D01*
G75*
G02*
X95804200Y-102732900I0J87900D01*
G01*
X95804200Y-101932100D01*
G75*
G02*
X95892100Y-101844200I87900J0D01*
G01*
X96067900Y-101844200D01*
G75*
G02*
X96155800Y-101932100I0J-87900D01*
G01*
G37*
G36*
G01*
X95655800Y-101932100D02*
X95655800Y-102732900D01*
G75*
G02*
X95567900Y-102820800I-87900J0D01*
G01*
X95392100Y-102820800D01*
G75*
G02*
X95304200Y-102732900I0J87900D01*
G01*
X95304200Y-101932100D01*
G75*
G02*
X95392100Y-101844200I87900J0D01*
G01*
X95567900Y-101844200D01*
G75*
G02*
X95655800Y-101932100I0J-87900D01*
G01*
G37*
G36*
G01*
X95155800Y-101932100D02*
X95155800Y-102732900D01*
G75*
G02*
X95067900Y-102820800I-87900J0D01*
G01*
X94892100Y-102820800D01*
G75*
G02*
X94804200Y-102732900I0J87900D01*
G01*
X94804200Y-101932100D01*
G75*
G02*
X94892100Y-101844200I87900J0D01*
G01*
X95067900Y-101844200D01*
G75*
G02*
X95155800Y-101932100I0J-87900D01*
G01*
G37*
G36*
G01*
X94655800Y-101932100D02*
X94655800Y-102732900D01*
G75*
G02*
X94567900Y-102820800I-87900J0D01*
G01*
X94392100Y-102820800D01*
G75*
G02*
X94304200Y-102732900I0J87900D01*
G01*
X94304200Y-101932100D01*
G75*
G02*
X94392100Y-101844200I87900J0D01*
G01*
X94567900Y-101844200D01*
G75*
G02*
X94655800Y-101932100I0J-87900D01*
G01*
G37*
G36*
G01*
X94155800Y-101932100D02*
X94155800Y-102732900D01*
G75*
G02*
X94067900Y-102820800I-87900J0D01*
G01*
X93892100Y-102820800D01*
G75*
G02*
X93804200Y-102732900I0J87900D01*
G01*
X93804200Y-101932100D01*
G75*
G02*
X93892100Y-101844200I87900J0D01*
G01*
X94067900Y-101844200D01*
G75*
G02*
X94155800Y-101932100I0J-87900D01*
G01*
G37*
G36*
G01*
X93655800Y-101932100D02*
X93655800Y-102732900D01*
G75*
G02*
X93567900Y-102820800I-87900J0D01*
G01*
X93392100Y-102820800D01*
G75*
G02*
X93304200Y-102732900I0J87900D01*
G01*
X93304200Y-101932100D01*
G75*
G02*
X93392100Y-101844200I87900J0D01*
G01*
X93567900Y-101844200D01*
G75*
G02*
X93655800Y-101932100I0J-87900D01*
G01*
G37*
G36*
G01*
X93155800Y-101932100D02*
X93155800Y-102732900D01*
G75*
G02*
X93067900Y-102820800I-87900J0D01*
G01*
X92892100Y-102820800D01*
G75*
G02*
X92804200Y-102732900I0J87900D01*
G01*
X92804200Y-101932100D01*
G75*
G02*
X92892100Y-101844200I87900J0D01*
G01*
X93067900Y-101844200D01*
G75*
G02*
X93155800Y-101932100I0J-87900D01*
G01*
G37*
G36*
G01*
X92780800Y-101557100D02*
X92780800Y-101732900D01*
G75*
G02*
X92692900Y-101820800I-87900J0D01*
G01*
X91892100Y-101820800D01*
G75*
G02*
X91804200Y-101732900I0J87900D01*
G01*
X91804200Y-101557100D01*
G75*
G02*
X91892100Y-101469200I87900J0D01*
G01*
X92692900Y-101469200D01*
G75*
G02*
X92780800Y-101557100I0J-87900D01*
G01*
G37*
G36*
G01*
X92780800Y-101057100D02*
X92780800Y-101232900D01*
G75*
G02*
X92692900Y-101320800I-87900J0D01*
G01*
X91892100Y-101320800D01*
G75*
G02*
X91804200Y-101232900I0J87900D01*
G01*
X91804200Y-101057100D01*
G75*
G02*
X91892100Y-100969200I87900J0D01*
G01*
X92692900Y-100969200D01*
G75*
G02*
X92780800Y-101057100I0J-87900D01*
G01*
G37*
G36*
G01*
X92780800Y-100557100D02*
X92780800Y-100732900D01*
G75*
G02*
X92692900Y-100820800I-87900J0D01*
G01*
X91892100Y-100820800D01*
G75*
G02*
X91804200Y-100732900I0J87900D01*
G01*
X91804200Y-100557100D01*
G75*
G02*
X91892100Y-100469200I87900J0D01*
G01*
X92692900Y-100469200D01*
G75*
G02*
X92780800Y-100557100I0J-87900D01*
G01*
G37*
G36*
G01*
X92780800Y-100057100D02*
X92780800Y-100232900D01*
G75*
G02*
X92692900Y-100320800I-87900J0D01*
G01*
X91892100Y-100320800D01*
G75*
G02*
X91804200Y-100232900I0J87900D01*
G01*
X91804200Y-100057100D01*
G75*
G02*
X91892100Y-99969200I87900J0D01*
G01*
X92692900Y-99969200D01*
G75*
G02*
X92780800Y-100057100I0J-87900D01*
G01*
G37*
G36*
G01*
X92780800Y-99557100D02*
X92780800Y-99732900D01*
G75*
G02*
X92692900Y-99820800I-87900J0D01*
G01*
X91892100Y-99820800D01*
G75*
G02*
X91804200Y-99732900I0J87900D01*
G01*
X91804200Y-99557100D01*
G75*
G02*
X91892100Y-99469200I87900J0D01*
G01*
X92692900Y-99469200D01*
G75*
G02*
X92780800Y-99557100I0J-87900D01*
G01*
G37*
G36*
G01*
X92780800Y-99057100D02*
X92780800Y-99232900D01*
G75*
G02*
X92692900Y-99320800I-87900J0D01*
G01*
X91892100Y-99320800D01*
G75*
G02*
X91804200Y-99232900I0J87900D01*
G01*
X91804200Y-99057100D01*
G75*
G02*
X91892100Y-98969200I87900J0D01*
G01*
X92692900Y-98969200D01*
G75*
G02*
X92780800Y-99057100I0J-87900D01*
G01*
G37*
G36*
G01*
X92780800Y-98557100D02*
X92780800Y-98732900D01*
G75*
G02*
X92692900Y-98820800I-87900J0D01*
G01*
X91892100Y-98820800D01*
G75*
G02*
X91804200Y-98732900I0J87900D01*
G01*
X91804200Y-98557100D01*
G75*
G02*
X91892100Y-98469200I87900J0D01*
G01*
X92692900Y-98469200D01*
G75*
G02*
X92780800Y-98557100I0J-87900D01*
G01*
G37*
G36*
G01*
X92780800Y-98057100D02*
X92780800Y-98232900D01*
G75*
G02*
X92692900Y-98320800I-87900J0D01*
G01*
X91892100Y-98320800D01*
G75*
G02*
X91804200Y-98232900I0J87900D01*
G01*
X91804200Y-98057100D01*
G75*
G02*
X91892100Y-97969200I87900J0D01*
G01*
X92692900Y-97969200D01*
G75*
G02*
X92780800Y-98057100I0J-87900D01*
G01*
G37*
G36*
G01*
X92780800Y-97557100D02*
X92780800Y-97732900D01*
G75*
G02*
X92692900Y-97820800I-87900J0D01*
G01*
X91892100Y-97820800D01*
G75*
G02*
X91804200Y-97732900I0J87900D01*
G01*
X91804200Y-97557100D01*
G75*
G02*
X91892100Y-97469200I87900J0D01*
G01*
X92692900Y-97469200D01*
G75*
G02*
X92780800Y-97557100I0J-87900D01*
G01*
G37*
G36*
G01*
X92780800Y-97057100D02*
X92780800Y-97232900D01*
G75*
G02*
X92692900Y-97320800I-87900J0D01*
G01*
X91892100Y-97320800D01*
G75*
G02*
X91804200Y-97232900I0J87900D01*
G01*
X91804200Y-97057100D01*
G75*
G02*
X91892100Y-96969200I87900J0D01*
G01*
X92692900Y-96969200D01*
G75*
G02*
X92780800Y-97057100I0J-87900D01*
G01*
G37*
G36*
G01*
X92780800Y-96557100D02*
X92780800Y-96732900D01*
G75*
G02*
X92692900Y-96820800I-87900J0D01*
G01*
X91892100Y-96820800D01*
G75*
G02*
X91804200Y-96732900I0J87900D01*
G01*
X91804200Y-96557100D01*
G75*
G02*
X91892100Y-96469200I87900J0D01*
G01*
X92692900Y-96469200D01*
G75*
G02*
X92780800Y-96557100I0J-87900D01*
G01*
G37*
G36*
G01*
X92780800Y-96057100D02*
X92780800Y-96232900D01*
G75*
G02*
X92692900Y-96320800I-87900J0D01*
G01*
X91892100Y-96320800D01*
G75*
G02*
X91804200Y-96232900I0J87900D01*
G01*
X91804200Y-96057100D01*
G75*
G02*
X91892100Y-95969200I87900J0D01*
G01*
X92692900Y-95969200D01*
G75*
G02*
X92780800Y-96057100I0J-87900D01*
G01*
G37*
G36*
G01*
X93155800Y-95057100D02*
X93155800Y-95857900D01*
G75*
G02*
X93067900Y-95945800I-87900J0D01*
G01*
X92892100Y-95945800D01*
G75*
G02*
X92804200Y-95857900I0J87900D01*
G01*
X92804200Y-95057100D01*
G75*
G02*
X92892100Y-94969200I87900J0D01*
G01*
X93067900Y-94969200D01*
G75*
G02*
X93155800Y-95057100I0J-87900D01*
G01*
G37*
G36*
G01*
X93655800Y-95057100D02*
X93655800Y-95857900D01*
G75*
G02*
X93567900Y-95945800I-87900J0D01*
G01*
X93392100Y-95945800D01*
G75*
G02*
X93304200Y-95857900I0J87900D01*
G01*
X93304200Y-95057100D01*
G75*
G02*
X93392100Y-94969200I87900J0D01*
G01*
X93567900Y-94969200D01*
G75*
G02*
X93655800Y-95057100I0J-87900D01*
G01*
G37*
G36*
G01*
X94155800Y-95057100D02*
X94155800Y-95857900D01*
G75*
G02*
X94067900Y-95945800I-87900J0D01*
G01*
X93892100Y-95945800D01*
G75*
G02*
X93804200Y-95857900I0J87900D01*
G01*
X93804200Y-95057100D01*
G75*
G02*
X93892100Y-94969200I87900J0D01*
G01*
X94067900Y-94969200D01*
G75*
G02*
X94155800Y-95057100I0J-87900D01*
G01*
G37*
G36*
G01*
X94655800Y-95057100D02*
X94655800Y-95857900D01*
G75*
G02*
X94567900Y-95945800I-87900J0D01*
G01*
X94392100Y-95945800D01*
G75*
G02*
X94304200Y-95857900I0J87900D01*
G01*
X94304200Y-95057100D01*
G75*
G02*
X94392100Y-94969200I87900J0D01*
G01*
X94567900Y-94969200D01*
G75*
G02*
X94655800Y-95057100I0J-87900D01*
G01*
G37*
G36*
G01*
X95155800Y-95057100D02*
X95155800Y-95857900D01*
G75*
G02*
X95067900Y-95945800I-87900J0D01*
G01*
X94892100Y-95945800D01*
G75*
G02*
X94804200Y-95857900I0J87900D01*
G01*
X94804200Y-95057100D01*
G75*
G02*
X94892100Y-94969200I87900J0D01*
G01*
X95067900Y-94969200D01*
G75*
G02*
X95155800Y-95057100I0J-87900D01*
G01*
G37*
G36*
G01*
X95655800Y-95057100D02*
X95655800Y-95857900D01*
G75*
G02*
X95567900Y-95945800I-87900J0D01*
G01*
X95392100Y-95945800D01*
G75*
G02*
X95304200Y-95857900I0J87900D01*
G01*
X95304200Y-95057100D01*
G75*
G02*
X95392100Y-94969200I87900J0D01*
G01*
X95567900Y-94969200D01*
G75*
G02*
X95655800Y-95057100I0J-87900D01*
G01*
G37*
G36*
G01*
X96155800Y-95057100D02*
X96155800Y-95857900D01*
G75*
G02*
X96067900Y-95945800I-87900J0D01*
G01*
X95892100Y-95945800D01*
G75*
G02*
X95804200Y-95857900I0J87900D01*
G01*
X95804200Y-95057100D01*
G75*
G02*
X95892100Y-94969200I87900J0D01*
G01*
X96067900Y-94969200D01*
G75*
G02*
X96155800Y-95057100I0J-87900D01*
G01*
G37*
G36*
G01*
X96655800Y-95057100D02*
X96655800Y-95857900D01*
G75*
G02*
X96567900Y-95945800I-87900J0D01*
G01*
X96392100Y-95945800D01*
G75*
G02*
X96304200Y-95857900I0J87900D01*
G01*
X96304200Y-95057100D01*
G75*
G02*
X96392100Y-94969200I87900J0D01*
G01*
X96567900Y-94969200D01*
G75*
G02*
X96655800Y-95057100I0J-87900D01*
G01*
G37*
G36*
G01*
X97155800Y-95057100D02*
X97155800Y-95857900D01*
G75*
G02*
X97067900Y-95945800I-87900J0D01*
G01*
X96892100Y-95945800D01*
G75*
G02*
X96804200Y-95857900I0J87900D01*
G01*
X96804200Y-95057100D01*
G75*
G02*
X96892100Y-94969200I87900J0D01*
G01*
X97067900Y-94969200D01*
G75*
G02*
X97155800Y-95057100I0J-87900D01*
G01*
G37*
G36*
G01*
X97655800Y-95057100D02*
X97655800Y-95857900D01*
G75*
G02*
X97567900Y-95945800I-87900J0D01*
G01*
X97392100Y-95945800D01*
G75*
G02*
X97304200Y-95857900I0J87900D01*
G01*
X97304200Y-95057100D01*
G75*
G02*
X97392100Y-94969200I87900J0D01*
G01*
X97567900Y-94969200D01*
G75*
G02*
X97655800Y-95057100I0J-87900D01*
G01*
G37*
G36*
G01*
X98155800Y-95057100D02*
X98155800Y-95857900D01*
G75*
G02*
X98067900Y-95945800I-87900J0D01*
G01*
X97892100Y-95945800D01*
G75*
G02*
X97804200Y-95857900I0J87900D01*
G01*
X97804200Y-95057100D01*
G75*
G02*
X97892100Y-94969200I87900J0D01*
G01*
X98067900Y-94969200D01*
G75*
G02*
X98155800Y-95057100I0J-87900D01*
G01*
G37*
G36*
G01*
X98655800Y-95057100D02*
X98655800Y-95857900D01*
G75*
G02*
X98567900Y-95945800I-87900J0D01*
G01*
X98392100Y-95945800D01*
G75*
G02*
X98304200Y-95857900I0J87900D01*
G01*
X98304200Y-95057100D01*
G75*
G02*
X98392100Y-94969200I87900J0D01*
G01*
X98567900Y-94969200D01*
G75*
G02*
X98655800Y-95057100I0J-87900D01*
G01*
G37*
G36*
G01*
X99655800Y-96057100D02*
X99655800Y-96232900D01*
G75*
G02*
X99567900Y-96320800I-87900J0D01*
G01*
X98767100Y-96320800D01*
G75*
G02*
X98679200Y-96232900I0J87900D01*
G01*
X98679200Y-96057100D01*
G75*
G02*
X98767100Y-95969200I87900J0D01*
G01*
X99567900Y-95969200D01*
G75*
G02*
X99655800Y-96057100I0J-87900D01*
G01*
G37*
G36*
G01*
X99655800Y-96557100D02*
X99655800Y-96732900D01*
G75*
G02*
X99567900Y-96820800I-87900J0D01*
G01*
X98767100Y-96820800D01*
G75*
G02*
X98679200Y-96732900I0J87900D01*
G01*
X98679200Y-96557100D01*
G75*
G02*
X98767100Y-96469200I87900J0D01*
G01*
X99567900Y-96469200D01*
G75*
G02*
X99655800Y-96557100I0J-87900D01*
G01*
G37*
G36*
G01*
X99655800Y-97057100D02*
X99655800Y-97232900D01*
G75*
G02*
X99567900Y-97320800I-87900J0D01*
G01*
X98767100Y-97320800D01*
G75*
G02*
X98679200Y-97232900I0J87900D01*
G01*
X98679200Y-97057100D01*
G75*
G02*
X98767100Y-96969200I87900J0D01*
G01*
X99567900Y-96969200D01*
G75*
G02*
X99655800Y-97057100I0J-87900D01*
G01*
G37*
G36*
G01*
X99655800Y-97557100D02*
X99655800Y-97732900D01*
G75*
G02*
X99567900Y-97820800I-87900J0D01*
G01*
X98767100Y-97820800D01*
G75*
G02*
X98679200Y-97732900I0J87900D01*
G01*
X98679200Y-97557100D01*
G75*
G02*
X98767100Y-97469200I87900J0D01*
G01*
X99567900Y-97469200D01*
G75*
G02*
X99655800Y-97557100I0J-87900D01*
G01*
G37*
G36*
G01*
X99655800Y-98057100D02*
X99655800Y-98232900D01*
G75*
G02*
X99567900Y-98320800I-87900J0D01*
G01*
X98767100Y-98320800D01*
G75*
G02*
X98679200Y-98232900I0J87900D01*
G01*
X98679200Y-98057100D01*
G75*
G02*
X98767100Y-97969200I87900J0D01*
G01*
X99567900Y-97969200D01*
G75*
G02*
X99655800Y-98057100I0J-87900D01*
G01*
G37*
G36*
G01*
X99655800Y-98557100D02*
X99655800Y-98732900D01*
G75*
G02*
X99567900Y-98820800I-87900J0D01*
G01*
X98767100Y-98820800D01*
G75*
G02*
X98679200Y-98732900I0J87900D01*
G01*
X98679200Y-98557100D01*
G75*
G02*
X98767100Y-98469200I87900J0D01*
G01*
X99567900Y-98469200D01*
G75*
G02*
X99655800Y-98557100I0J-87900D01*
G01*
G37*
G36*
G01*
X99655800Y-99057100D02*
X99655800Y-99232900D01*
G75*
G02*
X99567900Y-99320800I-87900J0D01*
G01*
X98767100Y-99320800D01*
G75*
G02*
X98679200Y-99232900I0J87900D01*
G01*
X98679200Y-99057100D01*
G75*
G02*
X98767100Y-98969200I87900J0D01*
G01*
X99567900Y-98969200D01*
G75*
G02*
X99655800Y-99057100I0J-87900D01*
G01*
G37*
G36*
G01*
X99655800Y-99557100D02*
X99655800Y-99732900D01*
G75*
G02*
X99567900Y-99820800I-87900J0D01*
G01*
X98767100Y-99820800D01*
G75*
G02*
X98679200Y-99732900I0J87900D01*
G01*
X98679200Y-99557100D01*
G75*
G02*
X98767100Y-99469200I87900J0D01*
G01*
X99567900Y-99469200D01*
G75*
G02*
X99655800Y-99557100I0J-87900D01*
G01*
G37*
G36*
G01*
X99655800Y-100057100D02*
X99655800Y-100232900D01*
G75*
G02*
X99567900Y-100320800I-87900J0D01*
G01*
X98767100Y-100320800D01*
G75*
G02*
X98679200Y-100232900I0J87900D01*
G01*
X98679200Y-100057100D01*
G75*
G02*
X98767100Y-99969200I87900J0D01*
G01*
X99567900Y-99969200D01*
G75*
G02*
X99655800Y-100057100I0J-87900D01*
G01*
G37*
G36*
G01*
X99655800Y-100557100D02*
X99655800Y-100732900D01*
G75*
G02*
X99567900Y-100820800I-87900J0D01*
G01*
X98767100Y-100820800D01*
G75*
G02*
X98679200Y-100732900I0J87900D01*
G01*
X98679200Y-100557100D01*
G75*
G02*
X98767100Y-100469200I87900J0D01*
G01*
X99567900Y-100469200D01*
G75*
G02*
X99655800Y-100557100I0J-87900D01*
G01*
G37*
G36*
G01*
X99655800Y-101057100D02*
X99655800Y-101232900D01*
G75*
G02*
X99567900Y-101320800I-87900J0D01*
G01*
X98767100Y-101320800D01*
G75*
G02*
X98679200Y-101232900I0J87900D01*
G01*
X98679200Y-101057100D01*
G75*
G02*
X98767100Y-100969200I87900J0D01*
G01*
X99567900Y-100969200D01*
G75*
G02*
X99655800Y-101057100I0J-87900D01*
G01*
G37*
G36*
G01*
X99655800Y-101557100D02*
X99655800Y-101732900D01*
G75*
G02*
X99567900Y-101820800I-87900J0D01*
G01*
X98767100Y-101820800D01*
G75*
G02*
X98679200Y-101732900I0J87900D01*
G01*
X98679200Y-101557100D01*
G75*
G02*
X98767100Y-101469200I87900J0D01*
G01*
X99567900Y-101469200D01*
G75*
G02*
X99655800Y-101557100I0J-87900D01*
G01*
G37*
G36*
G01*
X98580800Y-96298736D02*
X98580800Y-101491264D01*
G75*
G02*
X98326264Y-101745800I-254536J0D01*
G01*
X93133736Y-101745800D01*
G75*
G02*
X92879200Y-101491264I0J254536D01*
G01*
X92879200Y-96298736D01*
G75*
G02*
X93133736Y-96044200I254536J0D01*
G01*
X98326264Y-96044200D01*
G75*
G02*
X98580800Y-96298736I0J-254536D01*
G01*
G37*
D14*
X140800000Y-104900000D03*
X143000000Y-95100000D03*
D15*
X106300000Y-104885000D03*
D16*
X106300000Y-106305000D03*
D17*
X105450000Y-106375000D03*
X105450000Y-104575000D03*
D18*
X105450000Y-105475000D03*
D17*
X107150000Y-104575000D03*
D18*
X107150000Y-105475000D03*
D17*
X107150000Y-106375000D03*
D19*
X86400000Y-98225000D03*
X86400000Y-98725000D03*
X86400000Y-99225000D03*
X86400000Y-99725000D03*
X83500000Y-99725000D03*
X83500000Y-99225000D03*
X83500000Y-98725000D03*
X83500000Y-98225000D03*
D20*
X75200000Y-97460000D03*
X75200000Y-102540000D03*
X126400000Y-97460000D03*
X126400000Y-102540000D03*
X134020000Y-100000000D03*
X67580000Y-100000000D03*
D21*
X123425000Y-94300000D03*
X123425000Y-96800000D03*
D22*
X120300000Y-105610000D03*
X117760000Y-105610000D03*
X115220000Y-105610000D03*
X112680000Y-105610000D03*
D23*
X110140000Y-105610000D03*
D24*
X104990000Y-101845000D03*
X104990000Y-100445000D03*
X106090000Y-100445000D03*
X106090000Y-101845000D03*
G36*
G01*
X80379200Y-103346650D02*
X80379200Y-102783350D01*
G75*
G02*
X80623350Y-102539200I244150J0D01*
G01*
X81111650Y-102539200D01*
G75*
G02*
X81355800Y-102783350I0J-244150D01*
G01*
X81355800Y-103346650D01*
G75*
G02*
X81111650Y-103590800I-244150J0D01*
G01*
X80623350Y-103590800D01*
G75*
G02*
X80379200Y-103346650I0J244150D01*
G01*
G37*
G36*
G01*
X78804200Y-103346650D02*
X78804200Y-102783350D01*
G75*
G02*
X79048350Y-102539200I244150J0D01*
G01*
X79536650Y-102539200D01*
G75*
G02*
X79780800Y-102783350I0J-244150D01*
G01*
X79780800Y-103346650D01*
G75*
G02*
X79536650Y-103590800I-244150J0D01*
G01*
X79048350Y-103590800D01*
G75*
G02*
X78804200Y-103346650I0J244150D01*
G01*
G37*
G36*
G01*
X88880800Y-101853350D02*
X88880800Y-102416650D01*
G75*
G02*
X88636650Y-102660800I-244150J0D01*
G01*
X88148350Y-102660800D01*
G75*
G02*
X87904200Y-102416650I0J244150D01*
G01*
X87904200Y-101853350D01*
G75*
G02*
X88148350Y-101609200I244150J0D01*
G01*
X88636650Y-101609200D01*
G75*
G02*
X88880800Y-101853350I0J-244150D01*
G01*
G37*
G36*
G01*
X90455800Y-101853350D02*
X90455800Y-102416650D01*
G75*
G02*
X90211650Y-102660800I-244150J0D01*
G01*
X89723350Y-102660800D01*
G75*
G02*
X89479200Y-102416650I0J244150D01*
G01*
X89479200Y-101853350D01*
G75*
G02*
X89723350Y-101609200I244150J0D01*
G01*
X90211650Y-101609200D01*
G75*
G02*
X90455800Y-101853350I0J-244150D01*
G01*
G37*
G36*
G01*
X102989200Y-106776650D02*
X102989200Y-106213350D01*
G75*
G02*
X103233350Y-105969200I244150J0D01*
G01*
X103721650Y-105969200D01*
G75*
G02*
X103965800Y-106213350I0J-244150D01*
G01*
X103965800Y-106776650D01*
G75*
G02*
X103721650Y-107020800I-244150J0D01*
G01*
X103233350Y-107020800D01*
G75*
G02*
X102989200Y-106776650I0J244150D01*
G01*
G37*
G36*
G01*
X101414200Y-106776650D02*
X101414200Y-106213350D01*
G75*
G02*
X101658350Y-105969200I244150J0D01*
G01*
X102146650Y-105969200D01*
G75*
G02*
X102390800Y-106213350I0J-244150D01*
G01*
X102390800Y-106776650D01*
G75*
G02*
X102146650Y-107020800I-244150J0D01*
G01*
X101658350Y-107020800D01*
G75*
G02*
X101414200Y-106776650I0J244150D01*
G01*
G37*
G36*
G01*
X94784200Y-93636650D02*
X94784200Y-93073350D01*
G75*
G02*
X95028350Y-92829200I244150J0D01*
G01*
X95516650Y-92829200D01*
G75*
G02*
X95760800Y-93073350I0J-244150D01*
G01*
X95760800Y-93636650D01*
G75*
G02*
X95516650Y-93880800I-244150J0D01*
G01*
X95028350Y-93880800D01*
G75*
G02*
X94784200Y-93636650I0J244150D01*
G01*
G37*
G36*
G01*
X96359200Y-93636650D02*
X96359200Y-93073350D01*
G75*
G02*
X96603350Y-92829200I244150J0D01*
G01*
X97091650Y-92829200D01*
G75*
G02*
X97335800Y-93073350I0J-244150D01*
G01*
X97335800Y-93636650D01*
G75*
G02*
X97091650Y-93880800I-244150J0D01*
G01*
X96603350Y-93880800D01*
G75*
G02*
X96359200Y-93636650I0J244150D01*
G01*
G37*
D25*
X79405000Y-100525000D03*
X79405000Y-101475000D03*
X79405000Y-99575000D03*
X81605000Y-99575000D03*
X81605000Y-100525000D03*
X81605000Y-101475000D03*
G36*
G01*
X62699200Y-95231650D02*
X62699200Y-94668350D01*
G75*
G02*
X62943350Y-94424200I244150J0D01*
G01*
X63431650Y-94424200D01*
G75*
G02*
X63675800Y-94668350I0J-244150D01*
G01*
X63675800Y-95231650D01*
G75*
G02*
X63431650Y-95475800I-244150J0D01*
G01*
X62943350Y-95475800D01*
G75*
G02*
X62699200Y-95231650I0J244150D01*
G01*
G37*
G36*
G01*
X61124200Y-95231650D02*
X61124200Y-94668350D01*
G75*
G02*
X61368350Y-94424200I244150J0D01*
G01*
X61856650Y-94424200D01*
G75*
G02*
X62100800Y-94668350I0J-244150D01*
G01*
X62100800Y-95231650D01*
G75*
G02*
X61856650Y-95475800I-244150J0D01*
G01*
X61368350Y-95475800D01*
G75*
G02*
X61124200Y-95231650I0J244150D01*
G01*
G37*
G36*
G01*
X82740800Y-102783350D02*
X82740800Y-103346650D01*
G75*
G02*
X82496650Y-103590800I-244150J0D01*
G01*
X82008350Y-103590800D01*
G75*
G02*
X81764200Y-103346650I0J244150D01*
G01*
X81764200Y-102783350D01*
G75*
G02*
X82008350Y-102539200I244150J0D01*
G01*
X82496650Y-102539200D01*
G75*
G02*
X82740800Y-102783350I0J-244150D01*
G01*
G37*
G36*
G01*
X84315800Y-102783350D02*
X84315800Y-103346650D01*
G75*
G02*
X84071650Y-103590800I-244150J0D01*
G01*
X83583350Y-103590800D01*
G75*
G02*
X83339200Y-103346650I0J244150D01*
G01*
X83339200Y-102783350D01*
G75*
G02*
X83583350Y-102539200I244150J0D01*
G01*
X84071650Y-102539200D01*
G75*
G02*
X84315800Y-102783350I0J-244150D01*
G01*
G37*
G36*
G01*
X62100800Y-93193350D02*
X62100800Y-93756650D01*
G75*
G02*
X61856650Y-94000800I-244150J0D01*
G01*
X61368350Y-94000800D01*
G75*
G02*
X61124200Y-93756650I0J244150D01*
G01*
X61124200Y-93193350D01*
G75*
G02*
X61368350Y-92949200I244150J0D01*
G01*
X61856650Y-92949200D01*
G75*
G02*
X62100800Y-93193350I0J-244150D01*
G01*
G37*
G36*
G01*
X63675800Y-93193350D02*
X63675800Y-93756650D01*
G75*
G02*
X63431650Y-94000800I-244150J0D01*
G01*
X62943350Y-94000800D01*
G75*
G02*
X62699200Y-93756650I0J244150D01*
G01*
X62699200Y-93193350D01*
G75*
G02*
X62943350Y-92949200I244150J0D01*
G01*
X63431650Y-92949200D01*
G75*
G02*
X63675800Y-93193350I0J-244150D01*
G01*
G37*
G36*
G01*
X80620800Y-97713350D02*
X80620800Y-98276650D01*
G75*
G02*
X80376650Y-98520800I-244150J0D01*
G01*
X79888350Y-98520800D01*
G75*
G02*
X79644200Y-98276650I0J244150D01*
G01*
X79644200Y-97713350D01*
G75*
G02*
X79888350Y-97469200I244150J0D01*
G01*
X80376650Y-97469200D01*
G75*
G02*
X80620800Y-97713350I0J-244150D01*
G01*
G37*
G36*
G01*
X82195800Y-97713350D02*
X82195800Y-98276650D01*
G75*
G02*
X81951650Y-98520800I-244150J0D01*
G01*
X81463350Y-98520800D01*
G75*
G02*
X81219200Y-98276650I0J244150D01*
G01*
X81219200Y-97713350D01*
G75*
G02*
X81463350Y-97469200I244150J0D01*
G01*
X81951650Y-97469200D01*
G75*
G02*
X82195800Y-97713350I0J-244150D01*
G01*
G37*
G36*
G01*
X78141650Y-102125800D02*
X77578350Y-102125800D01*
G75*
G02*
X77334200Y-101881650I0J244150D01*
G01*
X77334200Y-101393350D01*
G75*
G02*
X77578350Y-101149200I244150J0D01*
G01*
X78141650Y-101149200D01*
G75*
G02*
X78385800Y-101393350I0J-244150D01*
G01*
X78385800Y-101881650D01*
G75*
G02*
X78141650Y-102125800I-244150J0D01*
G01*
G37*
G36*
G01*
X78141650Y-100550800D02*
X77578350Y-100550800D01*
G75*
G02*
X77334200Y-100306650I0J244150D01*
G01*
X77334200Y-99818350D01*
G75*
G02*
X77578350Y-99574200I244150J0D01*
G01*
X78141650Y-99574200D01*
G75*
G02*
X78385800Y-99818350I0J-244150D01*
G01*
X78385800Y-100306650D01*
G75*
G02*
X78141650Y-100550800I-244150J0D01*
G01*
G37*
D26*
X89940000Y-100545000D03*
X89940000Y-99245000D03*
X87940000Y-99895000D03*
G36*
G01*
X62025800Y-106593350D02*
X62025800Y-107156650D01*
G75*
G02*
X61781650Y-107400800I-244150J0D01*
G01*
X61293350Y-107400800D01*
G75*
G02*
X61049200Y-107156650I0J244150D01*
G01*
X61049200Y-106593350D01*
G75*
G02*
X61293350Y-106349200I244150J0D01*
G01*
X61781650Y-106349200D01*
G75*
G02*
X62025800Y-106593350I0J-244150D01*
G01*
G37*
G36*
G01*
X63600800Y-106593350D02*
X63600800Y-107156650D01*
G75*
G02*
X63356650Y-107400800I-244150J0D01*
G01*
X62868350Y-107400800D01*
G75*
G02*
X62624200Y-107156650I0J244150D01*
G01*
X62624200Y-106593350D01*
G75*
G02*
X62868350Y-106349200I244150J0D01*
G01*
X63356650Y-106349200D01*
G75*
G02*
X63600800Y-106593350I0J-244150D01*
G01*
G37*
G36*
G01*
X101441650Y-94205800D02*
X100878350Y-94205800D01*
G75*
G02*
X100634200Y-93961650I0J244150D01*
G01*
X100634200Y-93473350D01*
G75*
G02*
X100878350Y-93229200I244150J0D01*
G01*
X101441650Y-93229200D01*
G75*
G02*
X101685800Y-93473350I0J-244150D01*
G01*
X101685800Y-93961650D01*
G75*
G02*
X101441650Y-94205800I-244150J0D01*
G01*
G37*
G36*
G01*
X101441650Y-95780800D02*
X100878350Y-95780800D01*
G75*
G02*
X100634200Y-95536650I0J244150D01*
G01*
X100634200Y-95048350D01*
G75*
G02*
X100878350Y-94804200I244150J0D01*
G01*
X101441650Y-94804200D01*
G75*
G02*
X101685800Y-95048350I0J-244150D01*
G01*
X101685800Y-95536650D01*
G75*
G02*
X101441650Y-95780800I-244150J0D01*
G01*
G37*
G36*
G01*
X105878350Y-94804200D02*
X106441650Y-94804200D01*
G75*
G02*
X106685800Y-95048350I0J-244150D01*
G01*
X106685800Y-95536650D01*
G75*
G02*
X106441650Y-95780800I-244150J0D01*
G01*
X105878350Y-95780800D01*
G75*
G02*
X105634200Y-95536650I0J244150D01*
G01*
X105634200Y-95048350D01*
G75*
G02*
X105878350Y-94804200I244150J0D01*
G01*
G37*
G36*
G01*
X105878350Y-93229200D02*
X106441650Y-93229200D01*
G75*
G02*
X106685800Y-93473350I0J-244150D01*
G01*
X106685800Y-93961650D01*
G75*
G02*
X106441650Y-94205800I-244150J0D01*
G01*
X105878350Y-94205800D01*
G75*
G02*
X105634200Y-93961650I0J244150D01*
G01*
X105634200Y-93473350D01*
G75*
G02*
X105878350Y-93229200I244150J0D01*
G01*
G37*
D22*
X97460000Y-105610000D03*
X94920000Y-105610000D03*
X92380000Y-105610000D03*
X89840000Y-105610000D03*
X87300000Y-105610000D03*
X84760000Y-105610000D03*
X82220000Y-105610000D03*
D23*
X79680000Y-105610000D03*
G36*
G01*
X101414200Y-103786650D02*
X101414200Y-103223350D01*
G75*
G02*
X101658350Y-102979200I244150J0D01*
G01*
X102146650Y-102979200D01*
G75*
G02*
X102390800Y-103223350I0J-244150D01*
G01*
X102390800Y-103786650D01*
G75*
G02*
X102146650Y-104030800I-244150J0D01*
G01*
X101658350Y-104030800D01*
G75*
G02*
X101414200Y-103786650I0J244150D01*
G01*
G37*
G36*
G01*
X102989200Y-103786650D02*
X102989200Y-103223350D01*
G75*
G02*
X103233350Y-102979200I244150J0D01*
G01*
X103721650Y-102979200D01*
G75*
G02*
X103965800Y-103223350I0J-244150D01*
G01*
X103965800Y-103786650D01*
G75*
G02*
X103721650Y-104030800I-244150J0D01*
G01*
X103233350Y-104030800D01*
G75*
G02*
X102989200Y-103786650I0J244150D01*
G01*
G37*
G36*
G01*
X102989200Y-105281650D02*
X102989200Y-104718350D01*
G75*
G02*
X103233350Y-104474200I244150J0D01*
G01*
X103721650Y-104474200D01*
G75*
G02*
X103965800Y-104718350I0J-244150D01*
G01*
X103965800Y-105281650D01*
G75*
G02*
X103721650Y-105525800I-244150J0D01*
G01*
X103233350Y-105525800D01*
G75*
G02*
X102989200Y-105281650I0J244150D01*
G01*
G37*
G36*
G01*
X101414200Y-105281650D02*
X101414200Y-104718350D01*
G75*
G02*
X101658350Y-104474200I244150J0D01*
G01*
X102146650Y-104474200D01*
G75*
G02*
X102390800Y-104718350I0J-244150D01*
G01*
X102390800Y-105281650D01*
G75*
G02*
X102146650Y-105525800I-244150J0D01*
G01*
X101658350Y-105525800D01*
G75*
G02*
X101414200Y-105281650I0J244150D01*
G01*
G37*
D27*
X102670000Y-93285000D03*
X102670000Y-95185000D03*
X104670000Y-94235000D03*
D28*
X59615000Y-100000000D03*
D29*
X59885000Y-102705000D03*
X59885000Y-97245000D03*
D30*
X62885000Y-102395000D03*
X62885000Y-97555000D03*
D31*
X62765000Y-101275000D03*
X62765000Y-100625000D03*
X62765000Y-99975000D03*
X62765000Y-99325000D03*
X62765000Y-98675000D03*
D32*
X62885000Y-102875000D03*
X62865000Y-97125000D03*
D33*
X149600000Y-104590000D03*
X149600000Y-95410000D03*
D21*
X63050000Y-105175000D03*
X60550000Y-105175000D03*
G36*
G01*
X107484200Y-93196650D02*
X107484200Y-92633350D01*
G75*
G02*
X107728350Y-92389200I244150J0D01*
G01*
X108216650Y-92389200D01*
G75*
G02*
X108460800Y-92633350I0J-244150D01*
G01*
X108460800Y-93196650D01*
G75*
G02*
X108216650Y-93440800I-244150J0D01*
G01*
X107728350Y-93440800D01*
G75*
G02*
X107484200Y-93196650I0J244150D01*
G01*
G37*
G36*
G01*
X109059200Y-93196650D02*
X109059200Y-92633350D01*
G75*
G02*
X109303350Y-92389200I244150J0D01*
G01*
X109791650Y-92389200D01*
G75*
G02*
X110035800Y-92633350I0J-244150D01*
G01*
X110035800Y-93196650D01*
G75*
G02*
X109791650Y-93440800I-244150J0D01*
G01*
X109303350Y-93440800D01*
G75*
G02*
X109059200Y-93196650I0J244150D01*
G01*
G37*
G36*
G01*
X112459200Y-93196650D02*
X112459200Y-92633350D01*
G75*
G02*
X112703350Y-92389200I244150J0D01*
G01*
X113191650Y-92389200D01*
G75*
G02*
X113435800Y-92633350I0J-244150D01*
G01*
X113435800Y-93196650D01*
G75*
G02*
X113191650Y-93440800I-244150J0D01*
G01*
X112703350Y-93440800D01*
G75*
G02*
X112459200Y-93196650I0J244150D01*
G01*
G37*
G36*
G01*
X110884200Y-93196650D02*
X110884200Y-92633350D01*
G75*
G02*
X111128350Y-92389200I244150J0D01*
G01*
X111616650Y-92389200D01*
G75*
G02*
X111860800Y-92633350I0J-244150D01*
G01*
X111860800Y-93196650D01*
G75*
G02*
X111616650Y-93440800I-244150J0D01*
G01*
X111128350Y-93440800D01*
G75*
G02*
X110884200Y-93196650I0J244150D01*
G01*
G37*
G36*
G01*
X116835800Y-92633350D02*
X116835800Y-93196650D01*
G75*
G02*
X116591650Y-93440800I-244150J0D01*
G01*
X116103350Y-93440800D01*
G75*
G02*
X115859200Y-93196650I0J244150D01*
G01*
X115859200Y-92633350D01*
G75*
G02*
X116103350Y-92389200I244150J0D01*
G01*
X116591650Y-92389200D01*
G75*
G02*
X116835800Y-92633350I0J-244150D01*
G01*
G37*
G36*
G01*
X115260800Y-92633350D02*
X115260800Y-93196650D01*
G75*
G02*
X115016650Y-93440800I-244150J0D01*
G01*
X114528350Y-93440800D01*
G75*
G02*
X114284200Y-93196650I0J244150D01*
G01*
X114284200Y-92633350D01*
G75*
G02*
X114528350Y-92389200I244150J0D01*
G01*
X115016650Y-92389200D01*
G75*
G02*
X115260800Y-92633350I0J-244150D01*
G01*
G37*
G36*
G01*
X120275800Y-92633350D02*
X120275800Y-93196650D01*
G75*
G02*
X120031650Y-93440800I-244150J0D01*
G01*
X119543350Y-93440800D01*
G75*
G02*
X119299200Y-93196650I0J244150D01*
G01*
X119299200Y-92633350D01*
G75*
G02*
X119543350Y-92389200I244150J0D01*
G01*
X120031650Y-92389200D01*
G75*
G02*
X120275800Y-92633350I0J-244150D01*
G01*
G37*
G36*
G01*
X118700800Y-92633350D02*
X118700800Y-93196650D01*
G75*
G02*
X118456650Y-93440800I-244150J0D01*
G01*
X117968350Y-93440800D01*
G75*
G02*
X117724200Y-93196650I0J244150D01*
G01*
X117724200Y-92633350D01*
G75*
G02*
X117968350Y-92389200I244150J0D01*
G01*
X118456650Y-92389200D01*
G75*
G02*
X118700800Y-92633350I0J-244150D01*
G01*
G37*
G36*
G01*
X104728350Y-96769200D02*
X105291650Y-96769200D01*
G75*
G02*
X105535800Y-97013350I0J-244150D01*
G01*
X105535800Y-97501650D01*
G75*
G02*
X105291650Y-97745800I-244150J0D01*
G01*
X104728350Y-97745800D01*
G75*
G02*
X104484200Y-97501650I0J244150D01*
G01*
X104484200Y-97013350D01*
G75*
G02*
X104728350Y-96769200I244150J0D01*
G01*
G37*
G36*
G01*
X104728350Y-98344200D02*
X105291650Y-98344200D01*
G75*
G02*
X105535800Y-98588350I0J-244150D01*
G01*
X105535800Y-99076650D01*
G75*
G02*
X105291650Y-99320800I-244150J0D01*
G01*
X104728350Y-99320800D01*
G75*
G02*
X104484200Y-99076650I0J244150D01*
G01*
X104484200Y-98588350D01*
G75*
G02*
X104728350Y-98344200I244150J0D01*
G01*
G37*
G36*
G01*
X136474200Y-93656650D02*
X136474200Y-93093350D01*
G75*
G02*
X136718350Y-92849200I244150J0D01*
G01*
X137206650Y-92849200D01*
G75*
G02*
X137450800Y-93093350I0J-244150D01*
G01*
X137450800Y-93656650D01*
G75*
G02*
X137206650Y-93900800I-244150J0D01*
G01*
X136718350Y-93900800D01*
G75*
G02*
X136474200Y-93656650I0J244150D01*
G01*
G37*
G36*
G01*
X134899200Y-93656650D02*
X134899200Y-93093350D01*
G75*
G02*
X135143350Y-92849200I244150J0D01*
G01*
X135631650Y-92849200D01*
G75*
G02*
X135875800Y-93093350I0J-244150D01*
G01*
X135875800Y-93656650D01*
G75*
G02*
X135631650Y-93900800I-244150J0D01*
G01*
X135143350Y-93900800D01*
G75*
G02*
X134899200Y-93656650I0J244150D01*
G01*
G37*
G36*
G01*
X130074200Y-106936650D02*
X130074200Y-106373350D01*
G75*
G02*
X130318350Y-106129200I244150J0D01*
G01*
X130806650Y-106129200D01*
G75*
G02*
X131050800Y-106373350I0J-244150D01*
G01*
X131050800Y-106936650D01*
G75*
G02*
X130806650Y-107180800I-244150J0D01*
G01*
X130318350Y-107180800D01*
G75*
G02*
X130074200Y-106936650I0J244150D01*
G01*
G37*
G36*
G01*
X128499200Y-106936650D02*
X128499200Y-106373350D01*
G75*
G02*
X128743350Y-106129200I244150J0D01*
G01*
X129231650Y-106129200D01*
G75*
G02*
X129475800Y-106373350I0J-244150D01*
G01*
X129475800Y-106936650D01*
G75*
G02*
X129231650Y-107180800I-244150J0D01*
G01*
X128743350Y-107180800D01*
G75*
G02*
X128499200Y-106936650I0J244150D01*
G01*
G37*
G36*
G01*
X126425800Y-106373350D02*
X126425800Y-106936650D01*
G75*
G02*
X126181650Y-107180800I-244150J0D01*
G01*
X125693350Y-107180800D01*
G75*
G02*
X125449200Y-106936650I0J244150D01*
G01*
X125449200Y-106373350D01*
G75*
G02*
X125693350Y-106129200I244150J0D01*
G01*
X126181650Y-106129200D01*
G75*
G02*
X126425800Y-106373350I0J-244150D01*
G01*
G37*
G36*
G01*
X128000800Y-106373350D02*
X128000800Y-106936650D01*
G75*
G02*
X127756650Y-107180800I-244150J0D01*
G01*
X127268350Y-107180800D01*
G75*
G02*
X127024200Y-106936650I0J244150D01*
G01*
X127024200Y-106373350D01*
G75*
G02*
X127268350Y-106129200I244150J0D01*
G01*
X127756650Y-106129200D01*
G75*
G02*
X128000800Y-106373350I0J-244150D01*
G01*
G37*
G36*
G01*
X120774200Y-103231650D02*
X120774200Y-102668350D01*
G75*
G02*
X121018350Y-102424200I244150J0D01*
G01*
X121506650Y-102424200D01*
G75*
G02*
X121750800Y-102668350I0J-244150D01*
G01*
X121750800Y-103231650D01*
G75*
G02*
X121506650Y-103475800I-244150J0D01*
G01*
X121018350Y-103475800D01*
G75*
G02*
X120774200Y-103231650I0J244150D01*
G01*
G37*
G36*
G01*
X119199200Y-103231650D02*
X119199200Y-102668350D01*
G75*
G02*
X119443350Y-102424200I244150J0D01*
G01*
X119931650Y-102424200D01*
G75*
G02*
X120175800Y-102668350I0J-244150D01*
G01*
X120175800Y-103231650D01*
G75*
G02*
X119931650Y-103475800I-244150J0D01*
G01*
X119443350Y-103475800D01*
G75*
G02*
X119199200Y-103231650I0J244150D01*
G01*
G37*
G36*
G01*
X117249200Y-103231650D02*
X117249200Y-102668350D01*
G75*
G02*
X117493350Y-102424200I244150J0D01*
G01*
X117981650Y-102424200D01*
G75*
G02*
X118225800Y-102668350I0J-244150D01*
G01*
X118225800Y-103231650D01*
G75*
G02*
X117981650Y-103475800I-244150J0D01*
G01*
X117493350Y-103475800D01*
G75*
G02*
X117249200Y-103231650I0J244150D01*
G01*
G37*
G36*
G01*
X115674200Y-103231650D02*
X115674200Y-102668350D01*
G75*
G02*
X115918350Y-102424200I244150J0D01*
G01*
X116406650Y-102424200D01*
G75*
G02*
X116650800Y-102668350I0J-244150D01*
G01*
X116650800Y-103231650D01*
G75*
G02*
X116406650Y-103475800I-244150J0D01*
G01*
X115918350Y-103475800D01*
G75*
G02*
X115674200Y-103231650I0J244150D01*
G01*
G37*
G36*
G01*
X120025800Y-97718350D02*
X120025800Y-98281650D01*
G75*
G02*
X119781650Y-98525800I-244150J0D01*
G01*
X119293350Y-98525800D01*
G75*
G02*
X119049200Y-98281650I0J244150D01*
G01*
X119049200Y-97718350D01*
G75*
G02*
X119293350Y-97474200I244150J0D01*
G01*
X119781650Y-97474200D01*
G75*
G02*
X120025800Y-97718350I0J-244150D01*
G01*
G37*
G36*
G01*
X121600800Y-97718350D02*
X121600800Y-98281650D01*
G75*
G02*
X121356650Y-98525800I-244150J0D01*
G01*
X120868350Y-98525800D01*
G75*
G02*
X120624200Y-98281650I0J244150D01*
G01*
X120624200Y-97718350D01*
G75*
G02*
X120868350Y-97474200I244150J0D01*
G01*
X121356650Y-97474200D01*
G75*
G02*
X121600800Y-97718350I0J-244150D01*
G01*
G37*
G36*
G01*
X116425800Y-97718350D02*
X116425800Y-98281650D01*
G75*
G02*
X116181650Y-98525800I-244150J0D01*
G01*
X115693350Y-98525800D01*
G75*
G02*
X115449200Y-98281650I0J244150D01*
G01*
X115449200Y-97718350D01*
G75*
G02*
X115693350Y-97474200I244150J0D01*
G01*
X116181650Y-97474200D01*
G75*
G02*
X116425800Y-97718350I0J-244150D01*
G01*
G37*
G36*
G01*
X118000800Y-97718350D02*
X118000800Y-98281650D01*
G75*
G02*
X117756650Y-98525800I-244150J0D01*
G01*
X117268350Y-98525800D01*
G75*
G02*
X117024200Y-98281650I0J244150D01*
G01*
X117024200Y-97718350D01*
G75*
G02*
X117268350Y-97474200I244150J0D01*
G01*
X117756650Y-97474200D01*
G75*
G02*
X118000800Y-97718350I0J-244150D01*
G01*
G37*
G36*
G01*
X113599200Y-103231650D02*
X113599200Y-102668350D01*
G75*
G02*
X113843350Y-102424200I244150J0D01*
G01*
X114331650Y-102424200D01*
G75*
G02*
X114575800Y-102668350I0J-244150D01*
G01*
X114575800Y-103231650D01*
G75*
G02*
X114331650Y-103475800I-244150J0D01*
G01*
X113843350Y-103475800D01*
G75*
G02*
X113599200Y-103231650I0J244150D01*
G01*
G37*
G36*
G01*
X112024200Y-103231650D02*
X112024200Y-102668350D01*
G75*
G02*
X112268350Y-102424200I244150J0D01*
G01*
X112756650Y-102424200D01*
G75*
G02*
X113000800Y-102668350I0J-244150D01*
G01*
X113000800Y-103231650D01*
G75*
G02*
X112756650Y-103475800I-244150J0D01*
G01*
X112268350Y-103475800D01*
G75*
G02*
X112024200Y-103231650I0J244150D01*
G01*
G37*
G36*
G01*
X113424200Y-98281650D02*
X113424200Y-97718350D01*
G75*
G02*
X113668350Y-97474200I244150J0D01*
G01*
X114156650Y-97474200D01*
G75*
G02*
X114400800Y-97718350I0J-244150D01*
G01*
X114400800Y-98281650D01*
G75*
G02*
X114156650Y-98525800I-244150J0D01*
G01*
X113668350Y-98525800D01*
G75*
G02*
X113424200Y-98281650I0J244150D01*
G01*
G37*
G36*
G01*
X111849200Y-98281650D02*
X111849200Y-97718350D01*
G75*
G02*
X112093350Y-97474200I244150J0D01*
G01*
X112581650Y-97474200D01*
G75*
G02*
X112825800Y-97718350I0J-244150D01*
G01*
X112825800Y-98281650D01*
G75*
G02*
X112581650Y-98525800I-244150J0D01*
G01*
X112093350Y-98525800D01*
G75*
G02*
X111849200Y-98281650I0J244150D01*
G01*
G37*
G36*
G01*
X109949200Y-98281650D02*
X109949200Y-97718350D01*
G75*
G02*
X110193350Y-97474200I244150J0D01*
G01*
X110681650Y-97474200D01*
G75*
G02*
X110925800Y-97718350I0J-244150D01*
G01*
X110925800Y-98281650D01*
G75*
G02*
X110681650Y-98525800I-244150J0D01*
G01*
X110193350Y-98525800D01*
G75*
G02*
X109949200Y-98281650I0J244150D01*
G01*
G37*
G36*
G01*
X108374200Y-98281650D02*
X108374200Y-97718350D01*
G75*
G02*
X108618350Y-97474200I244150J0D01*
G01*
X109106650Y-97474200D01*
G75*
G02*
X109350800Y-97718350I0J-244150D01*
G01*
X109350800Y-98281650D01*
G75*
G02*
X109106650Y-98525800I-244150J0D01*
G01*
X108618350Y-98525800D01*
G75*
G02*
X108374200Y-98281650I0J244150D01*
G01*
G37*
G36*
G01*
X110049200Y-103231650D02*
X110049200Y-102668350D01*
G75*
G02*
X110293350Y-102424200I244150J0D01*
G01*
X110781650Y-102424200D01*
G75*
G02*
X111025800Y-102668350I0J-244150D01*
G01*
X111025800Y-103231650D01*
G75*
G02*
X110781650Y-103475800I-244150J0D01*
G01*
X110293350Y-103475800D01*
G75*
G02*
X110049200Y-103231650I0J244150D01*
G01*
G37*
G36*
G01*
X108474200Y-103231650D02*
X108474200Y-102668350D01*
G75*
G02*
X108718350Y-102424200I244150J0D01*
G01*
X109206650Y-102424200D01*
G75*
G02*
X109450800Y-102668350I0J-244150D01*
G01*
X109450800Y-103231650D01*
G75*
G02*
X109206650Y-103475800I-244150J0D01*
G01*
X108718350Y-103475800D01*
G75*
G02*
X108474200Y-103231650I0J244150D01*
G01*
G37*
G36*
G01*
X123375800Y-106373350D02*
X123375800Y-106936650D01*
G75*
G02*
X123131650Y-107180800I-244150J0D01*
G01*
X122643350Y-107180800D01*
G75*
G02*
X122399200Y-106936650I0J244150D01*
G01*
X122399200Y-106373350D01*
G75*
G02*
X122643350Y-106129200I244150J0D01*
G01*
X123131650Y-106129200D01*
G75*
G02*
X123375800Y-106373350I0J-244150D01*
G01*
G37*
G36*
G01*
X124950800Y-106373350D02*
X124950800Y-106936650D01*
G75*
G02*
X124706650Y-107180800I-244150J0D01*
G01*
X124218350Y-107180800D01*
G75*
G02*
X123974200Y-106936650I0J244150D01*
G01*
X123974200Y-106373350D01*
G75*
G02*
X124218350Y-106129200I244150J0D01*
G01*
X124706650Y-106129200D01*
G75*
G02*
X124950800Y-106373350I0J-244150D01*
G01*
G37*
G36*
G01*
X103188350Y-98339200D02*
X103751650Y-98339200D01*
G75*
G02*
X103995800Y-98583350I0J-244150D01*
G01*
X103995800Y-99071650D01*
G75*
G02*
X103751650Y-99315800I-244150J0D01*
G01*
X103188350Y-99315800D01*
G75*
G02*
X102944200Y-99071650I0J244150D01*
G01*
X102944200Y-98583350D01*
G75*
G02*
X103188350Y-98339200I244150J0D01*
G01*
G37*
G36*
G01*
X103188350Y-96764200D02*
X103751650Y-96764200D01*
G75*
G02*
X103995800Y-97008350I0J-244150D01*
G01*
X103995800Y-97496650D01*
G75*
G02*
X103751650Y-97740800I-244150J0D01*
G01*
X103188350Y-97740800D01*
G75*
G02*
X102944200Y-97496650I0J244150D01*
G01*
X102944200Y-97008350D01*
G75*
G02*
X103188350Y-96764200I244150J0D01*
G01*
G37*
G36*
G01*
X101663350Y-98339200D02*
X102226650Y-98339200D01*
G75*
G02*
X102470800Y-98583350I0J-244150D01*
G01*
X102470800Y-99071650D01*
G75*
G02*
X102226650Y-99315800I-244150J0D01*
G01*
X101663350Y-99315800D01*
G75*
G02*
X101419200Y-99071650I0J244150D01*
G01*
X101419200Y-98583350D01*
G75*
G02*
X101663350Y-98339200I244150J0D01*
G01*
G37*
G36*
G01*
X101663350Y-96764200D02*
X102226650Y-96764200D01*
G75*
G02*
X102470800Y-97008350I0J-244150D01*
G01*
X102470800Y-97496650D01*
G75*
G02*
X102226650Y-97740800I-244150J0D01*
G01*
X101663350Y-97740800D01*
G75*
G02*
X101419200Y-97496650I0J244150D01*
G01*
X101419200Y-97008350D01*
G75*
G02*
X101663350Y-96764200I244150J0D01*
G01*
G37*
G36*
G01*
X93399200Y-93636650D02*
X93399200Y-93073350D01*
G75*
G02*
X93643350Y-92829200I244150J0D01*
G01*
X94131650Y-92829200D01*
G75*
G02*
X94375800Y-93073350I0J-244150D01*
G01*
X94375800Y-93636650D01*
G75*
G02*
X94131650Y-93880800I-244150J0D01*
G01*
X93643350Y-93880800D01*
G75*
G02*
X93399200Y-93636650I0J244150D01*
G01*
G37*
G36*
G01*
X91824200Y-93636650D02*
X91824200Y-93073350D01*
G75*
G02*
X92068350Y-92829200I244150J0D01*
G01*
X92556650Y-92829200D01*
G75*
G02*
X92800800Y-93073350I0J-244150D01*
G01*
X92800800Y-93636650D01*
G75*
G02*
X92556650Y-93880800I-244150J0D01*
G01*
X92068350Y-93880800D01*
G75*
G02*
X91824200Y-93636650I0J244150D01*
G01*
G37*
G36*
G01*
X102989200Y-102231650D02*
X102989200Y-101668350D01*
G75*
G02*
X103233350Y-101424200I244150J0D01*
G01*
X103721650Y-101424200D01*
G75*
G02*
X103965800Y-101668350I0J-244150D01*
G01*
X103965800Y-102231650D01*
G75*
G02*
X103721650Y-102475800I-244150J0D01*
G01*
X103233350Y-102475800D01*
G75*
G02*
X102989200Y-102231650I0J244150D01*
G01*
G37*
G36*
G01*
X101414200Y-102231650D02*
X101414200Y-101668350D01*
G75*
G02*
X101658350Y-101424200I244150J0D01*
G01*
X102146650Y-101424200D01*
G75*
G02*
X102390800Y-101668350I0J-244150D01*
G01*
X102390800Y-102231650D01*
G75*
G02*
X102146650Y-102475800I-244150J0D01*
G01*
X101658350Y-102475800D01*
G75*
G02*
X101414200Y-102231650I0J244150D01*
G01*
G37*
G36*
G01*
X101414200Y-100631650D02*
X101414200Y-100068350D01*
G75*
G02*
X101658350Y-99824200I244150J0D01*
G01*
X102146650Y-99824200D01*
G75*
G02*
X102390800Y-100068350I0J-244150D01*
G01*
X102390800Y-100631650D01*
G75*
G02*
X102146650Y-100875800I-244150J0D01*
G01*
X101658350Y-100875800D01*
G75*
G02*
X101414200Y-100631650I0J244150D01*
G01*
G37*
G36*
G01*
X102989200Y-100631650D02*
X102989200Y-100068350D01*
G75*
G02*
X103233350Y-99824200I244150J0D01*
G01*
X103721650Y-99824200D01*
G75*
G02*
X103965800Y-100068350I0J-244150D01*
G01*
X103965800Y-100631650D01*
G75*
G02*
X103721650Y-100875800I-244150J0D01*
G01*
X103233350Y-100875800D01*
G75*
G02*
X102989200Y-100631650I0J244150D01*
G01*
G37*
D24*
X120500000Y-99470000D03*
X121450000Y-101470000D03*
X119550000Y-101470000D03*
X113400000Y-99475000D03*
X114350000Y-101475000D03*
X112450000Y-101475000D03*
X109875000Y-99475000D03*
X110825000Y-101475000D03*
X108925000Y-101475000D03*
G36*
G01*
X132999200Y-93587900D02*
X132999200Y-93112100D01*
G75*
G02*
X133237100Y-92874200I237900J0D01*
G01*
X134087900Y-92874200D01*
G75*
G02*
X134325800Y-93112100I0J-237900D01*
G01*
X134325800Y-93587900D01*
G75*
G02*
X134087900Y-93825800I-237900J0D01*
G01*
X133237100Y-93825800D01*
G75*
G02*
X132999200Y-93587900I0J237900D01*
G01*
G37*
G36*
G01*
X131374200Y-93587900D02*
X131374200Y-93112100D01*
G75*
G02*
X131612100Y-92874200I237900J0D01*
G01*
X132462900Y-92874200D01*
G75*
G02*
X132700800Y-93112100I0J-237900D01*
G01*
X132700800Y-93587900D01*
G75*
G02*
X132462900Y-93825800I-237900J0D01*
G01*
X131612100Y-93825800D01*
G75*
G02*
X131374200Y-93587900I0J237900D01*
G01*
G37*
X116000000Y-101475000D03*
X117900000Y-101475000D03*
X116950000Y-99475000D03*
D22*
X110140000Y-95450000D03*
X112680000Y-95450000D03*
X115220000Y-95450000D03*
X117760000Y-95450000D03*
D23*
X120300000Y-95450000D03*
X79660000Y-95440000D03*
D22*
X82200000Y-95440000D03*
X84740000Y-95440000D03*
X87280000Y-95440000D03*
X89820000Y-95440000D03*
M02*
