G04 #@! TF.GenerationSoftware,KiCad,Pcbnew,(5.1.6-0-10_14)*
G04 #@! TF.CreationDate,2020-07-04T12:52:55-07:00*
G04 #@! TF.ProjectId,18650,31383635-302e-46b6-9963-61645f706362,rev?*
G04 #@! TF.SameCoordinates,Original*
G04 #@! TF.FileFunction,Copper,L2,Bot*
G04 #@! TF.FilePolarity,Positive*
%FSLAX46Y46*%
G04 Gerber Fmt 4.6, Leading zero omitted, Abs format (unit mm)*
G04 Created by KiCad (PCBNEW (5.1.6-0-10_14)) date 2020-07-04 12:52:55*
%MOMM*%
%LPD*%
G01*
G04 APERTURE LIST*
G04 #@! TA.AperFunction,EtchedComponent*
%ADD10C,0.010000*%
G04 #@! TD*
G04 #@! TA.AperFunction,ComponentPad*
%ADD11O,1.524000X1.200000*%
G04 #@! TD*
G04 #@! TA.AperFunction,ComponentPad*
%ADD12C,2.800000*%
G04 #@! TD*
G04 #@! TA.AperFunction,ComponentPad*
%ADD13O,1.700000X1.700000*%
G04 #@! TD*
G04 #@! TA.AperFunction,ComponentPad*
%ADD14R,1.700000X1.700000*%
G04 #@! TD*
G04 #@! TA.AperFunction,ComponentPad*
%ADD15O,1.700000X1.350000*%
G04 #@! TD*
G04 #@! TA.AperFunction,ComponentPad*
%ADD16O,1.500000X1.100000*%
G04 #@! TD*
G04 #@! TA.AperFunction,ViaPad*
%ADD17C,0.508000*%
G04 #@! TD*
G04 #@! TA.AperFunction,Conductor*
%ADD18C,0.152400*%
G04 #@! TD*
G04 #@! TA.AperFunction,Conductor*
%ADD19C,0.310000*%
G04 #@! TD*
G04 #@! TA.AperFunction,Conductor*
%ADD20C,0.254000*%
G04 #@! TD*
G04 #@! TA.AperFunction,Conductor*
%ADD21C,0.762000*%
G04 #@! TD*
G04 #@! TA.AperFunction,Conductor*
%ADD22C,0.309880*%
G04 #@! TD*
G04 APERTURE END LIST*
D10*
G36*
X142494186Y-97943931D02*
G01*
X142410365Y-98388555D01*
X142101080Y-98516053D01*
X141791794Y-98643551D01*
X141420754Y-98391246D01*
X141316843Y-98320996D01*
X141222913Y-98258272D01*
X141143348Y-98205938D01*
X141082530Y-98166857D01*
X141044843Y-98143893D01*
X141034579Y-98138942D01*
X141016090Y-98151676D01*
X140976580Y-98186882D01*
X140920478Y-98240062D01*
X140852213Y-98306718D01*
X140776214Y-98382354D01*
X140696908Y-98462472D01*
X140618725Y-98542574D01*
X140546093Y-98618164D01*
X140483441Y-98684745D01*
X140435197Y-98737818D01*
X140405790Y-98772887D01*
X140398759Y-98784623D01*
X140408877Y-98806260D01*
X140437241Y-98853662D01*
X140480871Y-98922193D01*
X140536782Y-99007215D01*
X140601994Y-99104093D01*
X140639781Y-99159350D01*
X140708657Y-99260248D01*
X140769860Y-99351299D01*
X140820422Y-99427970D01*
X140857372Y-99485728D01*
X140877742Y-99520043D01*
X140880803Y-99527254D01*
X140873864Y-99547748D01*
X140854949Y-99595513D01*
X140826913Y-99663832D01*
X140792609Y-99745989D01*
X140754891Y-99835270D01*
X140716613Y-99924958D01*
X140680630Y-100008338D01*
X140649794Y-100078694D01*
X140626961Y-100129310D01*
X140614983Y-100153471D01*
X140614276Y-100154422D01*
X140595469Y-100159036D01*
X140545382Y-100169328D01*
X140469207Y-100184287D01*
X140372135Y-100202901D01*
X140259357Y-100224159D01*
X140193558Y-100236418D01*
X140073050Y-100259362D01*
X139964203Y-100281195D01*
X139872524Y-100300722D01*
X139803519Y-100316748D01*
X139762696Y-100328079D01*
X139754489Y-100331674D01*
X139746452Y-100356006D01*
X139739967Y-100410959D01*
X139735030Y-100490108D01*
X139731636Y-100587026D01*
X139729782Y-100695287D01*
X139729462Y-100808465D01*
X139730673Y-100920135D01*
X139733410Y-101023868D01*
X139737669Y-101113241D01*
X139743445Y-101181826D01*
X139750733Y-101223197D01*
X139755105Y-101231810D01*
X139781236Y-101242133D01*
X139836607Y-101256892D01*
X139913893Y-101274352D01*
X140005770Y-101292780D01*
X140037842Y-101298741D01*
X140192476Y-101327066D01*
X140314625Y-101349876D01*
X140408327Y-101368080D01*
X140477616Y-101382583D01*
X140526529Y-101394292D01*
X140559103Y-101404115D01*
X140579372Y-101412956D01*
X140591374Y-101421724D01*
X140593053Y-101423457D01*
X140609816Y-101451371D01*
X140635386Y-101505695D01*
X140667212Y-101579777D01*
X140702740Y-101666965D01*
X140739417Y-101760608D01*
X140774689Y-101854052D01*
X140806004Y-101940647D01*
X140830807Y-102013740D01*
X140846546Y-102066678D01*
X140850668Y-102092811D01*
X140850324Y-102093726D01*
X140836359Y-102115086D01*
X140804678Y-102162084D01*
X140758609Y-102229827D01*
X140701482Y-102313423D01*
X140636627Y-102407982D01*
X140618157Y-102434854D01*
X140552301Y-102532275D01*
X140494350Y-102621163D01*
X140447462Y-102696412D01*
X140414793Y-102752920D01*
X140399500Y-102785581D01*
X140398759Y-102789593D01*
X140411608Y-102810684D01*
X140447112Y-102852464D01*
X140500707Y-102910445D01*
X140567829Y-102980135D01*
X140643913Y-103057045D01*
X140724396Y-103136683D01*
X140804713Y-103214561D01*
X140880301Y-103286186D01*
X140946595Y-103347070D01*
X140999031Y-103392721D01*
X141033045Y-103418650D01*
X141042455Y-103422883D01*
X141064357Y-103412912D01*
X141109200Y-103386020D01*
X141169679Y-103346736D01*
X141216211Y-103315117D01*
X141300525Y-103257098D01*
X141400374Y-103188784D01*
X141500527Y-103120579D01*
X141554373Y-103084075D01*
X141736629Y-102960800D01*
X141889619Y-103043520D01*
X141959318Y-103079759D01*
X142018586Y-103107926D01*
X142058689Y-103123991D01*
X142068897Y-103126226D01*
X142081171Y-103109722D01*
X142105387Y-103063082D01*
X142139737Y-102990609D01*
X142182412Y-102896606D01*
X142231606Y-102785374D01*
X142285510Y-102661215D01*
X142342316Y-102528432D01*
X142400218Y-102391327D01*
X142457407Y-102254202D01*
X142512076Y-102121358D01*
X142562416Y-101997098D01*
X142606620Y-101885725D01*
X142642881Y-101791539D01*
X142669391Y-101718844D01*
X142684342Y-101671941D01*
X142686746Y-101655833D01*
X142667689Y-101635286D01*
X142625964Y-101601933D01*
X142570294Y-101562702D01*
X142565622Y-101559599D01*
X142421736Y-101444423D01*
X142305717Y-101310053D01*
X142218570Y-101160784D01*
X142161301Y-101000913D01*
X142134914Y-100834737D01*
X142140415Y-100666552D01*
X142178810Y-100500655D01*
X142251105Y-100341342D01*
X142272374Y-100306487D01*
X142383004Y-100165737D01*
X142513698Y-100052714D01*
X142659936Y-99968003D01*
X142817192Y-99912194D01*
X142980943Y-99885874D01*
X143146667Y-99889630D01*
X143309838Y-99924050D01*
X143465935Y-99989723D01*
X143610433Y-100087235D01*
X143655131Y-100126813D01*
X143768888Y-100250703D01*
X143851782Y-100381124D01*
X143908644Y-100527315D01*
X143940313Y-100672088D01*
X143948131Y-100834860D01*
X143922062Y-100998440D01*
X143864755Y-101157298D01*
X143778856Y-101305906D01*
X143667014Y-101438735D01*
X143531877Y-101550256D01*
X143514117Y-101562011D01*
X143457850Y-101600508D01*
X143415077Y-101633863D01*
X143394628Y-101655160D01*
X143394331Y-101655833D01*
X143398721Y-101678871D01*
X143416124Y-101731157D01*
X143444732Y-101808390D01*
X143482735Y-101906268D01*
X143528326Y-102020491D01*
X143579697Y-102146758D01*
X143635038Y-102280767D01*
X143692542Y-102418218D01*
X143750399Y-102554808D01*
X143806802Y-102686237D01*
X143859942Y-102808205D01*
X143908010Y-102916409D01*
X143949199Y-103006549D01*
X143981699Y-103074323D01*
X144003703Y-103115430D01*
X144012564Y-103126226D01*
X144039640Y-103117819D01*
X144090303Y-103095272D01*
X144155817Y-103062613D01*
X144191841Y-103043520D01*
X144344832Y-102960800D01*
X144527088Y-103084075D01*
X144620125Y-103147228D01*
X144721985Y-103216727D01*
X144817438Y-103282165D01*
X144865250Y-103315117D01*
X144932495Y-103360273D01*
X144989436Y-103396057D01*
X145028646Y-103417938D01*
X145041381Y-103422563D01*
X145059917Y-103410085D01*
X145100941Y-103375252D01*
X145160475Y-103321678D01*
X145234542Y-103252983D01*
X145319165Y-103172781D01*
X145372685Y-103121286D01*
X145466319Y-103029286D01*
X145547241Y-102946999D01*
X145612177Y-102877945D01*
X145657858Y-102825644D01*
X145681011Y-102793616D01*
X145683232Y-102787116D01*
X145672924Y-102762394D01*
X145644439Y-102712405D01*
X145600937Y-102642212D01*
X145545577Y-102556875D01*
X145481520Y-102461456D01*
X145463303Y-102434854D01*
X145396927Y-102338167D01*
X145337378Y-102251117D01*
X145287984Y-102178595D01*
X145252075Y-102125493D01*
X145232981Y-102096703D01*
X145231136Y-102093726D01*
X145233895Y-102070782D01*
X145248538Y-102020336D01*
X145272513Y-101949041D01*
X145303266Y-101863547D01*
X145338244Y-101770507D01*
X145374893Y-101676574D01*
X145410661Y-101588399D01*
X145442994Y-101512634D01*
X145469338Y-101455931D01*
X145487142Y-101424943D01*
X145488407Y-101423457D01*
X145499294Y-101414601D01*
X145517682Y-101405843D01*
X145547606Y-101396277D01*
X145593103Y-101384996D01*
X145658209Y-101371093D01*
X145746961Y-101353663D01*
X145863393Y-101331798D01*
X146011542Y-101304591D01*
X146043618Y-101298741D01*
X146138686Y-101280374D01*
X146221565Y-101262405D01*
X146284930Y-101246569D01*
X146321458Y-101234600D01*
X146326356Y-101231810D01*
X146334427Y-101207072D01*
X146340987Y-101151790D01*
X146346033Y-101072389D01*
X146349559Y-100975296D01*
X146351561Y-100866938D01*
X146352036Y-100753740D01*
X146350977Y-100642128D01*
X146348382Y-100538529D01*
X146344246Y-100449368D01*
X146338563Y-100381072D01*
X146331331Y-100340066D01*
X146326971Y-100331674D01*
X146302698Y-100323208D01*
X146247426Y-100309435D01*
X146166662Y-100291550D01*
X146065912Y-100270748D01*
X145950683Y-100248223D01*
X145887902Y-100236418D01*
X145768787Y-100214151D01*
X145662565Y-100193979D01*
X145574427Y-100176915D01*
X145509566Y-100163969D01*
X145473174Y-100156155D01*
X145467184Y-100154422D01*
X145457061Y-100134890D01*
X145435662Y-100087843D01*
X145405839Y-100020003D01*
X145370445Y-99938091D01*
X145332332Y-99848828D01*
X145294353Y-99758935D01*
X145259360Y-99675135D01*
X145230206Y-99604147D01*
X145209743Y-99552694D01*
X145200823Y-99527497D01*
X145200657Y-99526396D01*
X145210769Y-99506519D01*
X145239117Y-99460777D01*
X145282723Y-99393717D01*
X145338606Y-99309884D01*
X145403787Y-99213826D01*
X145441679Y-99158650D01*
X145510725Y-99057481D01*
X145572050Y-98965630D01*
X145622663Y-98887744D01*
X145659571Y-98828469D01*
X145679782Y-98792451D01*
X145682701Y-98784377D01*
X145670153Y-98765584D01*
X145635463Y-98725457D01*
X145583063Y-98668493D01*
X145517384Y-98599185D01*
X145442856Y-98522031D01*
X145363913Y-98441525D01*
X145284983Y-98362163D01*
X145210500Y-98288440D01*
X145144894Y-98224852D01*
X145092596Y-98175894D01*
X145058039Y-98146061D01*
X145046478Y-98138942D01*
X145027654Y-98148953D01*
X144982631Y-98177078D01*
X144915787Y-98220454D01*
X144831499Y-98276218D01*
X144734144Y-98341506D01*
X144660707Y-98391246D01*
X144289667Y-98643551D01*
X143671095Y-98388555D01*
X143587275Y-97943931D01*
X143503454Y-97499307D01*
X142578006Y-97499307D01*
X142494186Y-97943931D01*
G37*
X142494186Y-97943931D02*
X142410365Y-98388555D01*
X142101080Y-98516053D01*
X141791794Y-98643551D01*
X141420754Y-98391246D01*
X141316843Y-98320996D01*
X141222913Y-98258272D01*
X141143348Y-98205938D01*
X141082530Y-98166857D01*
X141044843Y-98143893D01*
X141034579Y-98138942D01*
X141016090Y-98151676D01*
X140976580Y-98186882D01*
X140920478Y-98240062D01*
X140852213Y-98306718D01*
X140776214Y-98382354D01*
X140696908Y-98462472D01*
X140618725Y-98542574D01*
X140546093Y-98618164D01*
X140483441Y-98684745D01*
X140435197Y-98737818D01*
X140405790Y-98772887D01*
X140398759Y-98784623D01*
X140408877Y-98806260D01*
X140437241Y-98853662D01*
X140480871Y-98922193D01*
X140536782Y-99007215D01*
X140601994Y-99104093D01*
X140639781Y-99159350D01*
X140708657Y-99260248D01*
X140769860Y-99351299D01*
X140820422Y-99427970D01*
X140857372Y-99485728D01*
X140877742Y-99520043D01*
X140880803Y-99527254D01*
X140873864Y-99547748D01*
X140854949Y-99595513D01*
X140826913Y-99663832D01*
X140792609Y-99745989D01*
X140754891Y-99835270D01*
X140716613Y-99924958D01*
X140680630Y-100008338D01*
X140649794Y-100078694D01*
X140626961Y-100129310D01*
X140614983Y-100153471D01*
X140614276Y-100154422D01*
X140595469Y-100159036D01*
X140545382Y-100169328D01*
X140469207Y-100184287D01*
X140372135Y-100202901D01*
X140259357Y-100224159D01*
X140193558Y-100236418D01*
X140073050Y-100259362D01*
X139964203Y-100281195D01*
X139872524Y-100300722D01*
X139803519Y-100316748D01*
X139762696Y-100328079D01*
X139754489Y-100331674D01*
X139746452Y-100356006D01*
X139739967Y-100410959D01*
X139735030Y-100490108D01*
X139731636Y-100587026D01*
X139729782Y-100695287D01*
X139729462Y-100808465D01*
X139730673Y-100920135D01*
X139733410Y-101023868D01*
X139737669Y-101113241D01*
X139743445Y-101181826D01*
X139750733Y-101223197D01*
X139755105Y-101231810D01*
X139781236Y-101242133D01*
X139836607Y-101256892D01*
X139913893Y-101274352D01*
X140005770Y-101292780D01*
X140037842Y-101298741D01*
X140192476Y-101327066D01*
X140314625Y-101349876D01*
X140408327Y-101368080D01*
X140477616Y-101382583D01*
X140526529Y-101394292D01*
X140559103Y-101404115D01*
X140579372Y-101412956D01*
X140591374Y-101421724D01*
X140593053Y-101423457D01*
X140609816Y-101451371D01*
X140635386Y-101505695D01*
X140667212Y-101579777D01*
X140702740Y-101666965D01*
X140739417Y-101760608D01*
X140774689Y-101854052D01*
X140806004Y-101940647D01*
X140830807Y-102013740D01*
X140846546Y-102066678D01*
X140850668Y-102092811D01*
X140850324Y-102093726D01*
X140836359Y-102115086D01*
X140804678Y-102162084D01*
X140758609Y-102229827D01*
X140701482Y-102313423D01*
X140636627Y-102407982D01*
X140618157Y-102434854D01*
X140552301Y-102532275D01*
X140494350Y-102621163D01*
X140447462Y-102696412D01*
X140414793Y-102752920D01*
X140399500Y-102785581D01*
X140398759Y-102789593D01*
X140411608Y-102810684D01*
X140447112Y-102852464D01*
X140500707Y-102910445D01*
X140567829Y-102980135D01*
X140643913Y-103057045D01*
X140724396Y-103136683D01*
X140804713Y-103214561D01*
X140880301Y-103286186D01*
X140946595Y-103347070D01*
X140999031Y-103392721D01*
X141033045Y-103418650D01*
X141042455Y-103422883D01*
X141064357Y-103412912D01*
X141109200Y-103386020D01*
X141169679Y-103346736D01*
X141216211Y-103315117D01*
X141300525Y-103257098D01*
X141400374Y-103188784D01*
X141500527Y-103120579D01*
X141554373Y-103084075D01*
X141736629Y-102960800D01*
X141889619Y-103043520D01*
X141959318Y-103079759D01*
X142018586Y-103107926D01*
X142058689Y-103123991D01*
X142068897Y-103126226D01*
X142081171Y-103109722D01*
X142105387Y-103063082D01*
X142139737Y-102990609D01*
X142182412Y-102896606D01*
X142231606Y-102785374D01*
X142285510Y-102661215D01*
X142342316Y-102528432D01*
X142400218Y-102391327D01*
X142457407Y-102254202D01*
X142512076Y-102121358D01*
X142562416Y-101997098D01*
X142606620Y-101885725D01*
X142642881Y-101791539D01*
X142669391Y-101718844D01*
X142684342Y-101671941D01*
X142686746Y-101655833D01*
X142667689Y-101635286D01*
X142625964Y-101601933D01*
X142570294Y-101562702D01*
X142565622Y-101559599D01*
X142421736Y-101444423D01*
X142305717Y-101310053D01*
X142218570Y-101160784D01*
X142161301Y-101000913D01*
X142134914Y-100834737D01*
X142140415Y-100666552D01*
X142178810Y-100500655D01*
X142251105Y-100341342D01*
X142272374Y-100306487D01*
X142383004Y-100165737D01*
X142513698Y-100052714D01*
X142659936Y-99968003D01*
X142817192Y-99912194D01*
X142980943Y-99885874D01*
X143146667Y-99889630D01*
X143309838Y-99924050D01*
X143465935Y-99989723D01*
X143610433Y-100087235D01*
X143655131Y-100126813D01*
X143768888Y-100250703D01*
X143851782Y-100381124D01*
X143908644Y-100527315D01*
X143940313Y-100672088D01*
X143948131Y-100834860D01*
X143922062Y-100998440D01*
X143864755Y-101157298D01*
X143778856Y-101305906D01*
X143667014Y-101438735D01*
X143531877Y-101550256D01*
X143514117Y-101562011D01*
X143457850Y-101600508D01*
X143415077Y-101633863D01*
X143394628Y-101655160D01*
X143394331Y-101655833D01*
X143398721Y-101678871D01*
X143416124Y-101731157D01*
X143444732Y-101808390D01*
X143482735Y-101906268D01*
X143528326Y-102020491D01*
X143579697Y-102146758D01*
X143635038Y-102280767D01*
X143692542Y-102418218D01*
X143750399Y-102554808D01*
X143806802Y-102686237D01*
X143859942Y-102808205D01*
X143908010Y-102916409D01*
X143949199Y-103006549D01*
X143981699Y-103074323D01*
X144003703Y-103115430D01*
X144012564Y-103126226D01*
X144039640Y-103117819D01*
X144090303Y-103095272D01*
X144155817Y-103062613D01*
X144191841Y-103043520D01*
X144344832Y-102960800D01*
X144527088Y-103084075D01*
X144620125Y-103147228D01*
X144721985Y-103216727D01*
X144817438Y-103282165D01*
X144865250Y-103315117D01*
X144932495Y-103360273D01*
X144989436Y-103396057D01*
X145028646Y-103417938D01*
X145041381Y-103422563D01*
X145059917Y-103410085D01*
X145100941Y-103375252D01*
X145160475Y-103321678D01*
X145234542Y-103252983D01*
X145319165Y-103172781D01*
X145372685Y-103121286D01*
X145466319Y-103029286D01*
X145547241Y-102946999D01*
X145612177Y-102877945D01*
X145657858Y-102825644D01*
X145681011Y-102793616D01*
X145683232Y-102787116D01*
X145672924Y-102762394D01*
X145644439Y-102712405D01*
X145600937Y-102642212D01*
X145545577Y-102556875D01*
X145481520Y-102461456D01*
X145463303Y-102434854D01*
X145396927Y-102338167D01*
X145337378Y-102251117D01*
X145287984Y-102178595D01*
X145252075Y-102125493D01*
X145232981Y-102096703D01*
X145231136Y-102093726D01*
X145233895Y-102070782D01*
X145248538Y-102020336D01*
X145272513Y-101949041D01*
X145303266Y-101863547D01*
X145338244Y-101770507D01*
X145374893Y-101676574D01*
X145410661Y-101588399D01*
X145442994Y-101512634D01*
X145469338Y-101455931D01*
X145487142Y-101424943D01*
X145488407Y-101423457D01*
X145499294Y-101414601D01*
X145517682Y-101405843D01*
X145547606Y-101396277D01*
X145593103Y-101384996D01*
X145658209Y-101371093D01*
X145746961Y-101353663D01*
X145863393Y-101331798D01*
X146011542Y-101304591D01*
X146043618Y-101298741D01*
X146138686Y-101280374D01*
X146221565Y-101262405D01*
X146284930Y-101246569D01*
X146321458Y-101234600D01*
X146326356Y-101231810D01*
X146334427Y-101207072D01*
X146340987Y-101151790D01*
X146346033Y-101072389D01*
X146349559Y-100975296D01*
X146351561Y-100866938D01*
X146352036Y-100753740D01*
X146350977Y-100642128D01*
X146348382Y-100538529D01*
X146344246Y-100449368D01*
X146338563Y-100381072D01*
X146331331Y-100340066D01*
X146326971Y-100331674D01*
X146302698Y-100323208D01*
X146247426Y-100309435D01*
X146166662Y-100291550D01*
X146065912Y-100270748D01*
X145950683Y-100248223D01*
X145887902Y-100236418D01*
X145768787Y-100214151D01*
X145662565Y-100193979D01*
X145574427Y-100176915D01*
X145509566Y-100163969D01*
X145473174Y-100156155D01*
X145467184Y-100154422D01*
X145457061Y-100134890D01*
X145435662Y-100087843D01*
X145405839Y-100020003D01*
X145370445Y-99938091D01*
X145332332Y-99848828D01*
X145294353Y-99758935D01*
X145259360Y-99675135D01*
X145230206Y-99604147D01*
X145209743Y-99552694D01*
X145200823Y-99527497D01*
X145200657Y-99526396D01*
X145210769Y-99506519D01*
X145239117Y-99460777D01*
X145282723Y-99393717D01*
X145338606Y-99309884D01*
X145403787Y-99213826D01*
X145441679Y-99158650D01*
X145510725Y-99057481D01*
X145572050Y-98965630D01*
X145622663Y-98887744D01*
X145659571Y-98828469D01*
X145679782Y-98792451D01*
X145682701Y-98784377D01*
X145670153Y-98765584D01*
X145635463Y-98725457D01*
X145583063Y-98668493D01*
X145517384Y-98599185D01*
X145442856Y-98522031D01*
X145363913Y-98441525D01*
X145284983Y-98362163D01*
X145210500Y-98288440D01*
X145144894Y-98224852D01*
X145092596Y-98175894D01*
X145058039Y-98146061D01*
X145046478Y-98138942D01*
X145027654Y-98148953D01*
X144982631Y-98177078D01*
X144915787Y-98220454D01*
X144831499Y-98276218D01*
X144734144Y-98341506D01*
X144660707Y-98391246D01*
X144289667Y-98643551D01*
X143671095Y-98388555D01*
X143587275Y-97943931D01*
X143503454Y-97499307D01*
X142578006Y-97499307D01*
X142494186Y-97943931D01*
D11*
X140800000Y-104900000D03*
X143000000Y-95100000D03*
D12*
X75200000Y-97460000D03*
X75200000Y-102540000D03*
X126400000Y-97460000D03*
X126400000Y-102540000D03*
X134020000Y-100000000D03*
X67580000Y-100000000D03*
D13*
X120300000Y-105610000D03*
X117760000Y-105610000D03*
X115220000Y-105610000D03*
X112680000Y-105610000D03*
D14*
X110140000Y-105610000D03*
D13*
X97460000Y-105610000D03*
X94920000Y-105610000D03*
X92380000Y-105610000D03*
X89840000Y-105610000D03*
X87300000Y-105610000D03*
X84760000Y-105610000D03*
X82220000Y-105610000D03*
D14*
X79680000Y-105610000D03*
D15*
X59885000Y-102705000D03*
X59885000Y-97245000D03*
D16*
X62885000Y-102395000D03*
X62885000Y-97555000D03*
D13*
X110140000Y-95450000D03*
X112680000Y-95450000D03*
X115220000Y-95450000D03*
X117760000Y-95450000D03*
D14*
X120300000Y-95450000D03*
X79660000Y-95440000D03*
D13*
X82200000Y-95440000D03*
X84740000Y-95440000D03*
X87280000Y-95440000D03*
X89820000Y-95440000D03*
D17*
X96360000Y-103215000D03*
X93720000Y-103305000D03*
X100230000Y-106695000D03*
X113850000Y-93850000D03*
X117425000Y-93875000D03*
X109800000Y-93825000D03*
X101180000Y-104245000D03*
X102650000Y-94365000D03*
X91420000Y-94105000D03*
X90820000Y-102125000D03*
X99160000Y-102385000D03*
X100190000Y-94605000D03*
X85540000Y-98067610D03*
X149350000Y-103025000D03*
X108050000Y-106375000D03*
X106075000Y-98850000D03*
X80980000Y-97485000D03*
X64050000Y-94950000D03*
X107810000Y-96215000D03*
X137000000Y-95800000D03*
X136300000Y-106000000D03*
X64000000Y-106075000D03*
X77860000Y-103335000D03*
X99998743Y-98856257D03*
X91500000Y-99045000D03*
X91002751Y-98610388D03*
X91400000Y-98075000D03*
X83110000Y-97125000D03*
X96302797Y-94688426D03*
X96960384Y-94627410D03*
X97638743Y-94643743D03*
X98360000Y-94605000D03*
X64616513Y-99341513D03*
X89130000Y-99585000D03*
X65083487Y-99808487D03*
X89150000Y-100265000D03*
X100376835Y-97575417D03*
X118775000Y-103225000D03*
X115350000Y-103235000D03*
X100113023Y-96875508D03*
X111550000Y-103235000D03*
X100006070Y-96085444D03*
X100000000Y-95425000D03*
X108010000Y-103015000D03*
X91190000Y-100735000D03*
X84410000Y-98725000D03*
X88860000Y-98085000D03*
X99900000Y-103975000D03*
X104550000Y-104575000D03*
X104550000Y-105475000D03*
X99150000Y-94425000D03*
D18*
X96270000Y-103305000D02*
X96360000Y-103215000D01*
X100230000Y-106695000D02*
X96930000Y-106695000D01*
X94408670Y-106695000D02*
X96930000Y-106695000D01*
X93720000Y-106006330D02*
X94408670Y-106695000D01*
X93720000Y-103305000D02*
X93720000Y-106006330D01*
X96360000Y-106125000D02*
X96930000Y-106695000D01*
X96360000Y-103215000D02*
X96360000Y-106125000D01*
D19*
X62575000Y-102705000D02*
X62885000Y-102395000D01*
X59885000Y-102705000D02*
X62575000Y-102705000D01*
X62575000Y-97245000D02*
X62885000Y-97555000D01*
X59885000Y-97245000D02*
X62575000Y-97245000D01*
D18*
X109107119Y-104531399D02*
X116681399Y-104531399D01*
X108050000Y-105588518D02*
X109107119Y-104531399D01*
X116681399Y-104531399D02*
X117760000Y-105610000D01*
X108050000Y-106375000D02*
X108050000Y-105588518D01*
D19*
X120300000Y-95450000D02*
X120300000Y-94290000D01*
X120300000Y-94290000D02*
X118410000Y-92400000D01*
X118410000Y-92400000D02*
X81875000Y-92400000D01*
X81042599Y-93232401D02*
X81875000Y-92400000D01*
D20*
X128940000Y-100000000D02*
X126400000Y-97460000D01*
X134020000Y-100000000D02*
X128940000Y-100000000D01*
D19*
X80980000Y-93295000D02*
X81042599Y-93232401D01*
X80980000Y-97485000D02*
X80980000Y-93295000D01*
D18*
X67725000Y-92400000D02*
X81875000Y-92400000D01*
X65175000Y-94950000D02*
X67725000Y-92400000D01*
X64050000Y-94950000D02*
X65175000Y-94950000D01*
D21*
X121512081Y-105610000D02*
X120310000Y-105610000D01*
X125935000Y-105610000D02*
X121512081Y-105610000D01*
D19*
X119625000Y-99300000D02*
X125935000Y-105610000D01*
X110140790Y-99300000D02*
X119625000Y-99300000D01*
X107810000Y-96215000D02*
X110140790Y-99300000D01*
D18*
X137000000Y-95800000D02*
X137000000Y-102200000D01*
D21*
X134887500Y-104337500D02*
X139137500Y-104337500D01*
X133615000Y-105610000D02*
X134887500Y-104337500D01*
X125935000Y-105610000D02*
X133615000Y-105610000D01*
D18*
X137000000Y-102200000D02*
X139137500Y-104337500D01*
D21*
X140137500Y-104337500D02*
X140800000Y-105000000D01*
X139137500Y-104337500D02*
X140137500Y-104337500D01*
D19*
X113230000Y-107610000D02*
X115230000Y-105610000D01*
X77365000Y-107610000D02*
X113230000Y-107610000D01*
X75135000Y-107610000D02*
X77365000Y-107610000D01*
X74565000Y-107610000D02*
X75135000Y-107610000D01*
X67785000Y-107610000D02*
X73410000Y-107610000D01*
X64440000Y-106330000D02*
X66505000Y-106330000D01*
X66505000Y-106330000D02*
X67785000Y-107610000D01*
X73410000Y-107610000D02*
X74565000Y-107610000D01*
X134690000Y-107610000D02*
X113230000Y-107610000D01*
X136300000Y-106000000D02*
X134690000Y-107610000D01*
X64438999Y-106328999D02*
X64440000Y-106330000D01*
X64253999Y-106328999D02*
X64438999Y-106328999D01*
X64000000Y-106075000D02*
X64253999Y-106328999D01*
X74708604Y-107610000D02*
X74565000Y-107610000D01*
D20*
X77860000Y-104315000D02*
X74565000Y-107610000D01*
X77860000Y-103335000D02*
X77860000Y-104315000D01*
D18*
X99998743Y-103071257D02*
X97460000Y-105610000D01*
X99998743Y-98856257D02*
X99998743Y-103071257D01*
X83485000Y-104345000D02*
X82220000Y-105610000D01*
X86540000Y-104345000D02*
X83485000Y-104345000D01*
X90610000Y-100275000D02*
X86540000Y-104345000D01*
X90629210Y-100275000D02*
X90610000Y-100275000D01*
X91500000Y-99404210D02*
X90629210Y-100275000D01*
X91500000Y-99045000D02*
X91500000Y-99404210D01*
X91002751Y-99442249D02*
X91002751Y-98610388D01*
X79680000Y-104607600D02*
X80262600Y-104025000D01*
X86420000Y-104025000D02*
X91002751Y-99442249D01*
X80262600Y-104025000D02*
X86420000Y-104025000D01*
X79680000Y-105610000D02*
X79680000Y-104607600D01*
X89565469Y-98075000D02*
X88945469Y-97455000D01*
X91400000Y-98075000D02*
X89565469Y-98075000D01*
X83440000Y-97455000D02*
X83110000Y-97125000D01*
X88945469Y-97455000D02*
X83440000Y-97455000D01*
X96048798Y-94942425D02*
X96302797Y-94688426D01*
X82200000Y-95440000D02*
X83888223Y-97128223D01*
X93863000Y-97128223D02*
X96048798Y-94942425D01*
X83888223Y-97128223D02*
X93863000Y-97128223D01*
X84740000Y-95440000D02*
X86123412Y-96823412D01*
X86123412Y-96823412D02*
X93430522Y-96823412D01*
X93430522Y-96823412D02*
X93430522Y-96814478D01*
X96706385Y-94373411D02*
X96960384Y-94627410D01*
X96048934Y-94205000D02*
X96537974Y-94205000D01*
X96537974Y-94205000D02*
X96706385Y-94373411D01*
X93430522Y-96823412D02*
X96048934Y-94205000D01*
X95913744Y-93900189D02*
X97254399Y-93900189D01*
X87280000Y-95440000D02*
X88358601Y-96518601D01*
X97638743Y-94284533D02*
X97638743Y-94643743D01*
X88358601Y-96518601D02*
X93295332Y-96518601D01*
X93295332Y-96518601D02*
X95913744Y-93900189D01*
X97254399Y-93900189D02*
X97638743Y-94284533D01*
X93895000Y-95440000D02*
X89820000Y-95440000D01*
X95860000Y-93475000D02*
X93895000Y-95440000D01*
X97589210Y-93475000D02*
X95860000Y-93475000D01*
X98360000Y-94245790D02*
X97589210Y-93475000D01*
X98360000Y-94605000D02*
X98360000Y-94245790D01*
D22*
X70320742Y-99168860D02*
X68895742Y-97743860D01*
X64756605Y-99341513D02*
X64616513Y-99341513D01*
X66354258Y-97743860D02*
X64756605Y-99341513D01*
X68895742Y-97743860D02*
X66354258Y-97743860D01*
D19*
X89130000Y-99585000D02*
X70740000Y-99585000D01*
X70740000Y-99585000D02*
X70650000Y-99495000D01*
X70320790Y-99168812D02*
X70650000Y-99495000D01*
D22*
X70129258Y-99631140D02*
X68704258Y-98206140D01*
X65083487Y-99668395D02*
X65083487Y-99808487D01*
X66545742Y-98206140D02*
X65083487Y-99668395D01*
X68704258Y-98206140D02*
X66545742Y-98206140D01*
D19*
X89150000Y-100265000D02*
X70763118Y-100265000D01*
X70763118Y-100265000D02*
X70129258Y-99631140D01*
X89150000Y-100265000D02*
X89160000Y-100265000D01*
D18*
X106910417Y-104108999D02*
X100630834Y-97829416D01*
X100630834Y-97829416D02*
X100376835Y-97575417D01*
X117891001Y-104108999D02*
X117591001Y-104108999D01*
X117591001Y-104108999D02*
X106910417Y-104108999D01*
X118775000Y-103225000D02*
X117891001Y-104108999D01*
X100472233Y-96875508D02*
X100113023Y-96875508D01*
X107399138Y-103802413D02*
X100472233Y-96875508D01*
X115350000Y-103235000D02*
X114782587Y-103802413D01*
X114782587Y-103802413D02*
X107399138Y-103802413D01*
X100365280Y-96085444D02*
X100006070Y-96085444D01*
X111287398Y-103497602D02*
X107777438Y-103497602D01*
X107777438Y-103497602D02*
X100365280Y-96085444D01*
X111550000Y-103235000D02*
X111287398Y-103497602D01*
X100000000Y-95425000D02*
X100385748Y-95425000D01*
X100385748Y-95425000D02*
X107975748Y-103015000D01*
X107975748Y-103015000D02*
X108010000Y-103015000D01*
X85609999Y-104760001D02*
X84760000Y-105610000D01*
X91190000Y-100735000D02*
X90581066Y-100735000D01*
X90581066Y-100735000D02*
X86556065Y-104760001D01*
X86556065Y-104760001D02*
X85609999Y-104760001D01*
X88220000Y-98725000D02*
X84410000Y-98725000D01*
X88860000Y-98085000D02*
X88220000Y-98725000D01*
X99900000Y-103975000D02*
X100200000Y-103675000D01*
X103650000Y-103675000D02*
X104550000Y-104575000D01*
X100200000Y-103675000D02*
X103650000Y-103675000D01*
X105107601Y-104917399D02*
X104550000Y-105475000D01*
X105107601Y-103168351D02*
X105107601Y-104917399D01*
X99150000Y-97210750D02*
X105107601Y-103168351D01*
X99150000Y-94425000D02*
X99150000Y-97210750D01*
G36*
X64239807Y-92575812D02*
G01*
X64256634Y-92615071D01*
X64272906Y-92654551D01*
X64276035Y-92660338D01*
X64379459Y-92848466D01*
X64403579Y-92883692D01*
X64427221Y-92919276D01*
X64431415Y-92924346D01*
X64569410Y-93088801D01*
X64599915Y-93118674D01*
X64630015Y-93148985D01*
X64635114Y-93153144D01*
X64802424Y-93287664D01*
X64838121Y-93311024D01*
X64873567Y-93334932D01*
X64879376Y-93338021D01*
X65069630Y-93437482D01*
X65109232Y-93453482D01*
X65148595Y-93470029D01*
X65154893Y-93471931D01*
X65360842Y-93532545D01*
X65402805Y-93540550D01*
X65444627Y-93549135D01*
X65451175Y-93549777D01*
X65664974Y-93569234D01*
X65707712Y-93568936D01*
X65750384Y-93569234D01*
X65756932Y-93568592D01*
X65756934Y-93568592D01*
X65903766Y-93553159D01*
X64979326Y-94477600D01*
X64497121Y-94477600D01*
X64464478Y-94444957D01*
X64357985Y-94373800D01*
X64239656Y-94324787D01*
X64114039Y-94299800D01*
X63985961Y-94299800D01*
X63860344Y-94324787D01*
X63742015Y-94373800D01*
X63635522Y-94444957D01*
X63544957Y-94535522D01*
X63473800Y-94642015D01*
X63424787Y-94760344D01*
X63399800Y-94885961D01*
X63399800Y-95014039D01*
X63424787Y-95139656D01*
X63473800Y-95257985D01*
X63544957Y-95364478D01*
X63635522Y-95455043D01*
X63742015Y-95526200D01*
X63860344Y-95575213D01*
X63985961Y-95600200D01*
X64114039Y-95600200D01*
X64239656Y-95575213D01*
X64357985Y-95526200D01*
X64464478Y-95455043D01*
X64497121Y-95422400D01*
X65151800Y-95422400D01*
X65175000Y-95424685D01*
X65267606Y-95415564D01*
X65356654Y-95388552D01*
X65438721Y-95344686D01*
X65510653Y-95285653D01*
X65525444Y-95267630D01*
X67920675Y-92872400D01*
X80623087Y-92872400D01*
X80609390Y-92886096D01*
X80588358Y-92903357D01*
X80571099Y-92924387D01*
X80571095Y-92924391D01*
X80519477Y-92987288D01*
X80468294Y-93083045D01*
X80436776Y-93186946D01*
X80426134Y-93295000D01*
X80428801Y-93322079D01*
X80428801Y-94191883D01*
X78810000Y-94191883D01*
X78732331Y-94199533D01*
X78657647Y-94222188D01*
X78588818Y-94258978D01*
X78528489Y-94308489D01*
X78478978Y-94368818D01*
X78442188Y-94437647D01*
X78419533Y-94512331D01*
X78411883Y-94590000D01*
X78411883Y-96290000D01*
X78419533Y-96367669D01*
X78442188Y-96442353D01*
X78478978Y-96511182D01*
X78528489Y-96571511D01*
X78588818Y-96621022D01*
X78657647Y-96657812D01*
X78732331Y-96680467D01*
X78810000Y-96688117D01*
X80428800Y-96688117D01*
X80428800Y-97139600D01*
X80403800Y-97177015D01*
X80354787Y-97295344D01*
X80329800Y-97420961D01*
X80329800Y-97549039D01*
X80354787Y-97674656D01*
X80403800Y-97792985D01*
X80474957Y-97899478D01*
X80565522Y-97990043D01*
X80672015Y-98061200D01*
X80790344Y-98110213D01*
X80915961Y-98135200D01*
X81044039Y-98135200D01*
X81169656Y-98110213D01*
X81287985Y-98061200D01*
X81394478Y-97990043D01*
X81485043Y-97899478D01*
X81556200Y-97792985D01*
X81605213Y-97674656D01*
X81630200Y-97549039D01*
X81630200Y-97420961D01*
X81605213Y-97295344D01*
X81556200Y-97177015D01*
X81531200Y-97139600D01*
X81531200Y-96491914D01*
X81609703Y-96544368D01*
X81836497Y-96638309D01*
X82077260Y-96686200D01*
X82322740Y-96686200D01*
X82563503Y-96638309D01*
X82681400Y-96589475D01*
X82705329Y-96613404D01*
X82695522Y-96619957D01*
X82604957Y-96710522D01*
X82533800Y-96817015D01*
X82484787Y-96935344D01*
X82459800Y-97060961D01*
X82459800Y-97189039D01*
X82484787Y-97314656D01*
X82533800Y-97432985D01*
X82604957Y-97539478D01*
X82695522Y-97630043D01*
X82802015Y-97701200D01*
X82920344Y-97750213D01*
X83045961Y-97775200D01*
X83091665Y-97775200D01*
X83104347Y-97790653D01*
X83176279Y-97849686D01*
X83258346Y-97893552D01*
X83347394Y-97920564D01*
X83416800Y-97927400D01*
X83416809Y-97927400D01*
X83439999Y-97929684D01*
X83463189Y-97927400D01*
X88228411Y-97927400D01*
X88209800Y-98020961D01*
X88209800Y-98067125D01*
X88024326Y-98252600D01*
X84857121Y-98252600D01*
X84824478Y-98219957D01*
X84717985Y-98148800D01*
X84599656Y-98099787D01*
X84474039Y-98074800D01*
X84345961Y-98074800D01*
X84220344Y-98099787D01*
X84102015Y-98148800D01*
X83995522Y-98219957D01*
X83904957Y-98310522D01*
X83833800Y-98417015D01*
X83784787Y-98535344D01*
X83759800Y-98660961D01*
X83759800Y-98789039D01*
X83784787Y-98914656D01*
X83833800Y-99032985D01*
X83834345Y-99033800D01*
X76077717Y-99033800D01*
X76345011Y-98855200D01*
X76595200Y-98605011D01*
X76791772Y-98310820D01*
X76927173Y-97983932D01*
X76996200Y-97636910D01*
X76996200Y-97283090D01*
X76927173Y-96936068D01*
X76791772Y-96609180D01*
X76595200Y-96314989D01*
X76345011Y-96064800D01*
X76050820Y-95868228D01*
X75723932Y-95732827D01*
X75376910Y-95663800D01*
X75023090Y-95663800D01*
X74676068Y-95732827D01*
X74349180Y-95868228D01*
X74054989Y-96064800D01*
X73804800Y-96314989D01*
X73608228Y-96609180D01*
X73472827Y-96936068D01*
X73403800Y-97283090D01*
X73403800Y-97636910D01*
X73472827Y-97983932D01*
X73608228Y-98310820D01*
X73804800Y-98605011D01*
X74054989Y-98855200D01*
X74322283Y-99033800D01*
X70967660Y-99033800D01*
X70690052Y-98758740D01*
X69304600Y-97373289D01*
X69287342Y-97352260D01*
X69203420Y-97283387D01*
X69107674Y-97232210D01*
X69003784Y-97200695D01*
X68922811Y-97192720D01*
X68922808Y-97192720D01*
X68895742Y-97190054D01*
X68868676Y-97192720D01*
X66381327Y-97192720D01*
X66354258Y-97190054D01*
X66246215Y-97200695D01*
X66142325Y-97232210D01*
X66046579Y-97283387D01*
X66018229Y-97306654D01*
X65962658Y-97352260D01*
X65945400Y-97373289D01*
X64627376Y-98691313D01*
X64552474Y-98691313D01*
X64426857Y-98716300D01*
X64308528Y-98765313D01*
X64202035Y-98836470D01*
X64111470Y-98927035D01*
X64040313Y-99033528D01*
X63991300Y-99151857D01*
X63966313Y-99277474D01*
X63966313Y-99405552D01*
X63991300Y-99531169D01*
X64040313Y-99649498D01*
X64111470Y-99755991D01*
X64202035Y-99846556D01*
X64308528Y-99917713D01*
X64426857Y-99966726D01*
X64453062Y-99971938D01*
X64458274Y-99998143D01*
X64507287Y-100116472D01*
X64578444Y-100222965D01*
X64669009Y-100313530D01*
X64775502Y-100384687D01*
X64893831Y-100433700D01*
X65019448Y-100458687D01*
X65147526Y-100458687D01*
X65273143Y-100433700D01*
X65391472Y-100384687D01*
X65497965Y-100313530D01*
X65588530Y-100222965D01*
X65659687Y-100116472D01*
X65708700Y-99998143D01*
X65733687Y-99872526D01*
X65733687Y-99797624D01*
X65802566Y-99728745D01*
X65783800Y-99823090D01*
X65783800Y-100176910D01*
X65852827Y-100523932D01*
X65988228Y-100850820D01*
X66184800Y-101145011D01*
X66434989Y-101395200D01*
X66729180Y-101591772D01*
X67056068Y-101727173D01*
X67403090Y-101796200D01*
X67756910Y-101796200D01*
X68103932Y-101727173D01*
X68430820Y-101591772D01*
X68725011Y-101395200D01*
X68975200Y-101145011D01*
X69171772Y-100850820D01*
X69307173Y-100523932D01*
X69376200Y-100176910D01*
X69376200Y-99823090D01*
X69335086Y-99616398D01*
X69719968Y-100001280D01*
X69720353Y-100001749D01*
X70354211Y-100635607D01*
X70371475Y-100656643D01*
X70455406Y-100725524D01*
X70551162Y-100776706D01*
X70655064Y-100808225D01*
X70736039Y-100816200D01*
X70736048Y-100816200D01*
X70763117Y-100818866D01*
X70790187Y-100816200D01*
X74667925Y-100816200D01*
X74349180Y-100948228D01*
X74054989Y-101144800D01*
X73804800Y-101394989D01*
X73608228Y-101689180D01*
X73472827Y-102016068D01*
X73403800Y-102363090D01*
X73403800Y-102716910D01*
X73472827Y-103063932D01*
X73608228Y-103390820D01*
X73804800Y-103685011D01*
X74054989Y-103935200D01*
X74349180Y-104131772D01*
X74676068Y-104267173D01*
X75023090Y-104336200D01*
X75376910Y-104336200D01*
X75723932Y-104267173D01*
X76050820Y-104131772D01*
X76345011Y-103935200D01*
X76595200Y-103685011D01*
X76791772Y-103390820D01*
X76927173Y-103063932D01*
X76996200Y-102716910D01*
X76996200Y-102363090D01*
X76927173Y-102016068D01*
X76791772Y-101689180D01*
X76595200Y-101394989D01*
X76345011Y-101144800D01*
X76050820Y-100948228D01*
X75732075Y-100816200D01*
X88804600Y-100816200D01*
X88842015Y-100841200D01*
X88908278Y-100868647D01*
X86224326Y-103552600D01*
X80285800Y-103552600D01*
X80262600Y-103550315D01*
X80169993Y-103559436D01*
X80142981Y-103567630D01*
X80080946Y-103586448D01*
X79998879Y-103630314D01*
X79993983Y-103634332D01*
X79946286Y-103673476D01*
X79926947Y-103689347D01*
X79912160Y-103707365D01*
X79362366Y-104257160D01*
X79344348Y-104271947D01*
X79329561Y-104289965D01*
X79329558Y-104289968D01*
X79285315Y-104343879D01*
X79275692Y-104361883D01*
X78830000Y-104361883D01*
X78752331Y-104369533D01*
X78677647Y-104392188D01*
X78608818Y-104428978D01*
X78548489Y-104478489D01*
X78498978Y-104538818D01*
X78462188Y-104607647D01*
X78439533Y-104682331D01*
X78431883Y-104760000D01*
X78431883Y-106460000D01*
X78439533Y-106537669D01*
X78462188Y-106612353D01*
X78498978Y-106681182D01*
X78548489Y-106741511D01*
X78608818Y-106791022D01*
X78677647Y-106827812D01*
X78752331Y-106850467D01*
X78830000Y-106858117D01*
X80530000Y-106858117D01*
X80607669Y-106850467D01*
X80682353Y-106827812D01*
X80751182Y-106791022D01*
X80811511Y-106741511D01*
X80861022Y-106681182D01*
X80897812Y-106612353D01*
X80920467Y-106537669D01*
X80928117Y-106460000D01*
X80928117Y-104760000D01*
X80920467Y-104682331D01*
X80897812Y-104607647D01*
X80861022Y-104538818D01*
X80827031Y-104497400D01*
X81649577Y-104497400D01*
X81629703Y-104505632D01*
X81425594Y-104642013D01*
X81252013Y-104815594D01*
X81115632Y-105019703D01*
X81021691Y-105246497D01*
X80973800Y-105487260D01*
X80973800Y-105732740D01*
X81021691Y-105973503D01*
X81115632Y-106200297D01*
X81252013Y-106404406D01*
X81425594Y-106577987D01*
X81629703Y-106714368D01*
X81856497Y-106808309D01*
X82097260Y-106856200D01*
X82342740Y-106856200D01*
X82583503Y-106808309D01*
X82810297Y-106714368D01*
X83014406Y-106577987D01*
X83187987Y-106404406D01*
X83324368Y-106200297D01*
X83418309Y-105973503D01*
X83466200Y-105732740D01*
X83466200Y-105487260D01*
X83418309Y-105246497D01*
X83369475Y-105128600D01*
X83680675Y-104817400D01*
X83790806Y-104817400D01*
X83655632Y-105019703D01*
X83561691Y-105246497D01*
X83513800Y-105487260D01*
X83513800Y-105732740D01*
X83561691Y-105973503D01*
X83655632Y-106200297D01*
X83792013Y-106404406D01*
X83965594Y-106577987D01*
X84169703Y-106714368D01*
X84396497Y-106808309D01*
X84637260Y-106856200D01*
X84882740Y-106856200D01*
X85123503Y-106808309D01*
X85350297Y-106714368D01*
X85554406Y-106577987D01*
X85727987Y-106404406D01*
X85864368Y-106200297D01*
X85958309Y-105973503D01*
X86006200Y-105732740D01*
X86006200Y-105487260D01*
X85958309Y-105246497D01*
X85952470Y-105232401D01*
X86107530Y-105232401D01*
X86101691Y-105246497D01*
X86053800Y-105487260D01*
X86053800Y-105732740D01*
X86101691Y-105973503D01*
X86195632Y-106200297D01*
X86332013Y-106404406D01*
X86505594Y-106577987D01*
X86709703Y-106714368D01*
X86936497Y-106808309D01*
X87177260Y-106856200D01*
X87422740Y-106856200D01*
X87663503Y-106808309D01*
X87890297Y-106714368D01*
X88094406Y-106577987D01*
X88267987Y-106404406D01*
X88404368Y-106200297D01*
X88498309Y-105973503D01*
X88546200Y-105732740D01*
X88546200Y-105487260D01*
X88593800Y-105487260D01*
X88593800Y-105732740D01*
X88641691Y-105973503D01*
X88735632Y-106200297D01*
X88872013Y-106404406D01*
X89045594Y-106577987D01*
X89249703Y-106714368D01*
X89476497Y-106808309D01*
X89717260Y-106856200D01*
X89962740Y-106856200D01*
X90203503Y-106808309D01*
X90430297Y-106714368D01*
X90634406Y-106577987D01*
X90807987Y-106404406D01*
X90944368Y-106200297D01*
X91038309Y-105973503D01*
X91086200Y-105732740D01*
X91086200Y-105487260D01*
X91038309Y-105246497D01*
X90944368Y-105019703D01*
X90807987Y-104815594D01*
X90634406Y-104642013D01*
X90430297Y-104505632D01*
X90203503Y-104411691D01*
X89962740Y-104363800D01*
X89717260Y-104363800D01*
X89476497Y-104411691D01*
X89249703Y-104505632D01*
X89045594Y-104642013D01*
X88872013Y-104815594D01*
X88735632Y-105019703D01*
X88641691Y-105246497D01*
X88593800Y-105487260D01*
X88546200Y-105487260D01*
X88498309Y-105246497D01*
X88404368Y-105019703D01*
X88267987Y-104815594D01*
X88094406Y-104642013D01*
X87890297Y-104505632D01*
X87663503Y-104411691D01*
X87587556Y-104396584D01*
X90759810Y-101224331D01*
X90775522Y-101240043D01*
X90882015Y-101311200D01*
X91000344Y-101360213D01*
X91125961Y-101385200D01*
X91254039Y-101385200D01*
X91379656Y-101360213D01*
X91497985Y-101311200D01*
X91604478Y-101240043D01*
X91695043Y-101149478D01*
X91766200Y-101042985D01*
X91815213Y-100924656D01*
X91840200Y-100799039D01*
X91840200Y-100670961D01*
X91815213Y-100545344D01*
X91766200Y-100427015D01*
X91695043Y-100320522D01*
X91604478Y-100229957D01*
X91497985Y-100158800D01*
X91438234Y-100134051D01*
X91817635Y-99754650D01*
X91835653Y-99739863D01*
X91850498Y-99721775D01*
X91882916Y-99682273D01*
X91894686Y-99667931D01*
X91938552Y-99585864D01*
X91958518Y-99520043D01*
X91964632Y-99499889D01*
X92005043Y-99459478D01*
X92076200Y-99352985D01*
X92125213Y-99234656D01*
X92150200Y-99109039D01*
X92150200Y-98980961D01*
X92125213Y-98855344D01*
X92076200Y-98737015D01*
X92005043Y-98630522D01*
X91914478Y-98539957D01*
X91878562Y-98515959D01*
X91905043Y-98489478D01*
X91976200Y-98382985D01*
X92025213Y-98264656D01*
X92050200Y-98139039D01*
X92050200Y-98010961D01*
X92025213Y-97885344D01*
X91976200Y-97767015D01*
X91905043Y-97660522D01*
X91845144Y-97600623D01*
X93839800Y-97600623D01*
X93863000Y-97602908D01*
X93955606Y-97593787D01*
X93958026Y-97593053D01*
X94044654Y-97566775D01*
X94126721Y-97522909D01*
X94198653Y-97463876D01*
X94213444Y-97445853D01*
X96320671Y-95338626D01*
X96366836Y-95338626D01*
X96492453Y-95313639D01*
X96610782Y-95264626D01*
X96683079Y-95216318D01*
X96770728Y-95252623D01*
X96896345Y-95277610D01*
X97024423Y-95277610D01*
X97150040Y-95252623D01*
X97268369Y-95203610D01*
X97287342Y-95190933D01*
X97330758Y-95219943D01*
X97449087Y-95268956D01*
X97574704Y-95293943D01*
X97702782Y-95293943D01*
X97828399Y-95268956D01*
X97946728Y-95219943D01*
X98028363Y-95165396D01*
X98052015Y-95181200D01*
X98170344Y-95230213D01*
X98295961Y-95255200D01*
X98424039Y-95255200D01*
X98549656Y-95230213D01*
X98667985Y-95181200D01*
X98677600Y-95174775D01*
X98677601Y-97187540D01*
X98675315Y-97210750D01*
X98684436Y-97303356D01*
X98711449Y-97392404D01*
X98755315Y-97474471D01*
X98799558Y-97528382D01*
X98799561Y-97528385D01*
X98814348Y-97546403D01*
X98832366Y-97561190D01*
X99607119Y-98335943D01*
X99584265Y-98351214D01*
X99493700Y-98441779D01*
X99422543Y-98548272D01*
X99373530Y-98666601D01*
X99348543Y-98792218D01*
X99348543Y-98920296D01*
X99373530Y-99045913D01*
X99422543Y-99164242D01*
X99493700Y-99270735D01*
X99526343Y-99303378D01*
X99526344Y-102875581D01*
X97941400Y-104460526D01*
X97823503Y-104411691D01*
X97582740Y-104363800D01*
X97337260Y-104363800D01*
X97096497Y-104411691D01*
X96869703Y-104505632D01*
X96832400Y-104530557D01*
X96832400Y-103662121D01*
X96865043Y-103629478D01*
X96936200Y-103522985D01*
X96985213Y-103404656D01*
X97010200Y-103279039D01*
X97010200Y-103150961D01*
X96985213Y-103025344D01*
X96936200Y-102907015D01*
X96865043Y-102800522D01*
X96774478Y-102709957D01*
X96667985Y-102638800D01*
X96549656Y-102589787D01*
X96424039Y-102564800D01*
X96295961Y-102564800D01*
X96170344Y-102589787D01*
X96052015Y-102638800D01*
X95945522Y-102709957D01*
X95854957Y-102800522D01*
X95783800Y-102907015D01*
X95734787Y-103025344D01*
X95709800Y-103150961D01*
X95709800Y-103279039D01*
X95734787Y-103404656D01*
X95783800Y-103522985D01*
X95854957Y-103629478D01*
X95887600Y-103662121D01*
X95887601Y-104815208D01*
X95714406Y-104642013D01*
X95510297Y-104505632D01*
X95283503Y-104411691D01*
X95042740Y-104363800D01*
X94797260Y-104363800D01*
X94556497Y-104411691D01*
X94329703Y-104505632D01*
X94192400Y-104597375D01*
X94192400Y-103752121D01*
X94225043Y-103719478D01*
X94296200Y-103612985D01*
X94345213Y-103494656D01*
X94370200Y-103369039D01*
X94370200Y-103240961D01*
X94345213Y-103115344D01*
X94296200Y-102997015D01*
X94225043Y-102890522D01*
X94134478Y-102799957D01*
X94027985Y-102728800D01*
X93909656Y-102679787D01*
X93784039Y-102654800D01*
X93655961Y-102654800D01*
X93530344Y-102679787D01*
X93412015Y-102728800D01*
X93305522Y-102799957D01*
X93214957Y-102890522D01*
X93143800Y-102997015D01*
X93094787Y-103115344D01*
X93069800Y-103240961D01*
X93069800Y-103369039D01*
X93094787Y-103494656D01*
X93143800Y-103612985D01*
X93214957Y-103719478D01*
X93247600Y-103752121D01*
X93247601Y-104715208D01*
X93174406Y-104642013D01*
X92970297Y-104505632D01*
X92743503Y-104411691D01*
X92502740Y-104363800D01*
X92257260Y-104363800D01*
X92016497Y-104411691D01*
X91789703Y-104505632D01*
X91585594Y-104642013D01*
X91412013Y-104815594D01*
X91275632Y-105019703D01*
X91181691Y-105246497D01*
X91133800Y-105487260D01*
X91133800Y-105732740D01*
X91181691Y-105973503D01*
X91275632Y-106200297D01*
X91412013Y-106404406D01*
X91585594Y-106577987D01*
X91789703Y-106714368D01*
X92016497Y-106808309D01*
X92257260Y-106856200D01*
X92502740Y-106856200D01*
X92743503Y-106808309D01*
X92970297Y-106714368D01*
X93174406Y-106577987D01*
X93347987Y-106404406D01*
X93387802Y-106344818D01*
X93402366Y-106356770D01*
X94058226Y-107012630D01*
X94073017Y-107030653D01*
X94107314Y-107058800D01*
X75856116Y-107058800D01*
X78211790Y-104703127D01*
X78231748Y-104686748D01*
X78248129Y-104666788D01*
X78297129Y-104607081D01*
X78333616Y-104538818D01*
X78345712Y-104516189D01*
X78375629Y-104417565D01*
X78383200Y-104340697D01*
X78383200Y-104340695D01*
X78385731Y-104315000D01*
X78383200Y-104289305D01*
X78383200Y-103722304D01*
X78436200Y-103642985D01*
X78485213Y-103524656D01*
X78510200Y-103399039D01*
X78510200Y-103270961D01*
X78485213Y-103145344D01*
X78436200Y-103027015D01*
X78365043Y-102920522D01*
X78274478Y-102829957D01*
X78167985Y-102758800D01*
X78049656Y-102709787D01*
X77924039Y-102684800D01*
X77795961Y-102684800D01*
X77670344Y-102709787D01*
X77552015Y-102758800D01*
X77445522Y-102829957D01*
X77354957Y-102920522D01*
X77283800Y-103027015D01*
X77234787Y-103145344D01*
X77209800Y-103270961D01*
X77209800Y-103399039D01*
X77234787Y-103524656D01*
X77283800Y-103642985D01*
X77336800Y-103722305D01*
X77336801Y-104098282D01*
X74376285Y-107058800D01*
X68013314Y-107058800D01*
X66913905Y-105959391D01*
X66896643Y-105938357D01*
X66812712Y-105869476D01*
X66716956Y-105818294D01*
X66613054Y-105786775D01*
X66532079Y-105778800D01*
X66532069Y-105778800D01*
X66505000Y-105776134D01*
X66477931Y-105778800D01*
X64581081Y-105778800D01*
X64576200Y-105767015D01*
X64505043Y-105660522D01*
X64414478Y-105569957D01*
X64307985Y-105498800D01*
X64189656Y-105449787D01*
X64064039Y-105424800D01*
X63935961Y-105424800D01*
X63810344Y-105449787D01*
X63692015Y-105498800D01*
X63585522Y-105569957D01*
X63494957Y-105660522D01*
X63423800Y-105767015D01*
X63374787Y-105885344D01*
X63349800Y-106010961D01*
X63349800Y-106139039D01*
X63374787Y-106264656D01*
X63423800Y-106382985D01*
X63494957Y-106489478D01*
X63585522Y-106580043D01*
X63692015Y-106651200D01*
X63810344Y-106700213D01*
X63852467Y-106708592D01*
X63862356Y-106720642D01*
X63946287Y-106789523D01*
X64032118Y-106835400D01*
X64042043Y-106840705D01*
X64145944Y-106872224D01*
X64155337Y-106873149D01*
X64226920Y-106880199D01*
X64226927Y-106880199D01*
X64253999Y-106882865D01*
X64281071Y-106880199D01*
X64402757Y-106880199D01*
X64440000Y-106883867D01*
X64467079Y-106881200D01*
X64599888Y-106881200D01*
X64589003Y-106892162D01*
X64558511Y-106922021D01*
X64554322Y-106927085D01*
X64554319Y-106927088D01*
X64554317Y-106927091D01*
X64418632Y-107093458D01*
X64395000Y-107129027D01*
X64370872Y-107164266D01*
X64367742Y-107170054D01*
X64266954Y-107359607D01*
X64250657Y-107399147D01*
X64233856Y-107438346D01*
X64231910Y-107444631D01*
X64206498Y-107528800D01*
X60123044Y-107528800D01*
X59803493Y-107497468D01*
X59518281Y-107411357D01*
X59255224Y-107271486D01*
X59024347Y-107083187D01*
X58834443Y-106853633D01*
X58692738Y-106591556D01*
X58604640Y-106306955D01*
X58571200Y-105988799D01*
X58571200Y-102705000D01*
X58633617Y-102705000D01*
X58654299Y-102914992D01*
X58715552Y-103116914D01*
X58815020Y-103303006D01*
X58948882Y-103466118D01*
X59111994Y-103599980D01*
X59298086Y-103699448D01*
X59500008Y-103760701D01*
X59657375Y-103776200D01*
X60112625Y-103776200D01*
X60269992Y-103760701D01*
X60471914Y-103699448D01*
X60658006Y-103599980D01*
X60821118Y-103466118D01*
X60954980Y-103303006D01*
X60979998Y-103256200D01*
X62288966Y-103256200D01*
X62321153Y-103273404D01*
X62499512Y-103327509D01*
X62638519Y-103341200D01*
X63131481Y-103341200D01*
X63270488Y-103327509D01*
X63448847Y-103273404D01*
X63613224Y-103185543D01*
X63757302Y-103067302D01*
X63875543Y-102923224D01*
X63963404Y-102758847D01*
X64017509Y-102580488D01*
X64035778Y-102395000D01*
X64017509Y-102209512D01*
X63963404Y-102031153D01*
X63875543Y-101866776D01*
X63757302Y-101722698D01*
X63613224Y-101604457D01*
X63448847Y-101516596D01*
X63270488Y-101462491D01*
X63131481Y-101448800D01*
X62638519Y-101448800D01*
X62499512Y-101462491D01*
X62321153Y-101516596D01*
X62156776Y-101604457D01*
X62012698Y-101722698D01*
X61894457Y-101866776D01*
X61806596Y-102031153D01*
X61769391Y-102153800D01*
X60979998Y-102153800D01*
X60954980Y-102106994D01*
X60821118Y-101943882D01*
X60658006Y-101810020D01*
X60471914Y-101710552D01*
X60269992Y-101649299D01*
X60112625Y-101633800D01*
X59657375Y-101633800D01*
X59500008Y-101649299D01*
X59298086Y-101710552D01*
X59111994Y-101810020D01*
X58948882Y-101943882D01*
X58815020Y-102106994D01*
X58715552Y-102293086D01*
X58654299Y-102495008D01*
X58633617Y-102705000D01*
X58571200Y-102705000D01*
X58571200Y-97245000D01*
X58633617Y-97245000D01*
X58654299Y-97454992D01*
X58715552Y-97656914D01*
X58815020Y-97843006D01*
X58948882Y-98006118D01*
X59111994Y-98139980D01*
X59298086Y-98239448D01*
X59500008Y-98300701D01*
X59657375Y-98316200D01*
X60112625Y-98316200D01*
X60269992Y-98300701D01*
X60471914Y-98239448D01*
X60658006Y-98139980D01*
X60821118Y-98006118D01*
X60954980Y-97843006D01*
X60979998Y-97796200D01*
X61769391Y-97796200D01*
X61806596Y-97918847D01*
X61894457Y-98083224D01*
X62012698Y-98227302D01*
X62156776Y-98345543D01*
X62321153Y-98433404D01*
X62499512Y-98487509D01*
X62638519Y-98501200D01*
X63131481Y-98501200D01*
X63270488Y-98487509D01*
X63448847Y-98433404D01*
X63613224Y-98345543D01*
X63757302Y-98227302D01*
X63875543Y-98083224D01*
X63963404Y-97918847D01*
X64017509Y-97740488D01*
X64035778Y-97555000D01*
X64017509Y-97369512D01*
X63963404Y-97191153D01*
X63875543Y-97026776D01*
X63757302Y-96882698D01*
X63613224Y-96764457D01*
X63448847Y-96676596D01*
X63270488Y-96622491D01*
X63131481Y-96608800D01*
X62638519Y-96608800D01*
X62499512Y-96622491D01*
X62321153Y-96676596D01*
X62288966Y-96693800D01*
X60979998Y-96693800D01*
X60954980Y-96646994D01*
X60821118Y-96483882D01*
X60658006Y-96350020D01*
X60471914Y-96250552D01*
X60269992Y-96189299D01*
X60112625Y-96173800D01*
X59657375Y-96173800D01*
X59500008Y-96189299D01*
X59298086Y-96250552D01*
X59111994Y-96350020D01*
X58948882Y-96483882D01*
X58815020Y-96646994D01*
X58715552Y-96833086D01*
X58654299Y-97035008D01*
X58633617Y-97245000D01*
X58571200Y-97245000D01*
X58571200Y-94023044D01*
X58602532Y-93703495D01*
X58688643Y-93418282D01*
X58828512Y-93155227D01*
X59016812Y-92924348D01*
X59246370Y-92734441D01*
X59508444Y-92592738D01*
X59793043Y-92504640D01*
X60111201Y-92471200D01*
X64206622Y-92471200D01*
X64239807Y-92575812D01*
G37*
X64239807Y-92575812D02*
X64256634Y-92615071D01*
X64272906Y-92654551D01*
X64276035Y-92660338D01*
X64379459Y-92848466D01*
X64403579Y-92883692D01*
X64427221Y-92919276D01*
X64431415Y-92924346D01*
X64569410Y-93088801D01*
X64599915Y-93118674D01*
X64630015Y-93148985D01*
X64635114Y-93153144D01*
X64802424Y-93287664D01*
X64838121Y-93311024D01*
X64873567Y-93334932D01*
X64879376Y-93338021D01*
X65069630Y-93437482D01*
X65109232Y-93453482D01*
X65148595Y-93470029D01*
X65154893Y-93471931D01*
X65360842Y-93532545D01*
X65402805Y-93540550D01*
X65444627Y-93549135D01*
X65451175Y-93549777D01*
X65664974Y-93569234D01*
X65707712Y-93568936D01*
X65750384Y-93569234D01*
X65756932Y-93568592D01*
X65756934Y-93568592D01*
X65903766Y-93553159D01*
X64979326Y-94477600D01*
X64497121Y-94477600D01*
X64464478Y-94444957D01*
X64357985Y-94373800D01*
X64239656Y-94324787D01*
X64114039Y-94299800D01*
X63985961Y-94299800D01*
X63860344Y-94324787D01*
X63742015Y-94373800D01*
X63635522Y-94444957D01*
X63544957Y-94535522D01*
X63473800Y-94642015D01*
X63424787Y-94760344D01*
X63399800Y-94885961D01*
X63399800Y-95014039D01*
X63424787Y-95139656D01*
X63473800Y-95257985D01*
X63544957Y-95364478D01*
X63635522Y-95455043D01*
X63742015Y-95526200D01*
X63860344Y-95575213D01*
X63985961Y-95600200D01*
X64114039Y-95600200D01*
X64239656Y-95575213D01*
X64357985Y-95526200D01*
X64464478Y-95455043D01*
X64497121Y-95422400D01*
X65151800Y-95422400D01*
X65175000Y-95424685D01*
X65267606Y-95415564D01*
X65356654Y-95388552D01*
X65438721Y-95344686D01*
X65510653Y-95285653D01*
X65525444Y-95267630D01*
X67920675Y-92872400D01*
X80623087Y-92872400D01*
X80609390Y-92886096D01*
X80588358Y-92903357D01*
X80571099Y-92924387D01*
X80571095Y-92924391D01*
X80519477Y-92987288D01*
X80468294Y-93083045D01*
X80436776Y-93186946D01*
X80426134Y-93295000D01*
X80428801Y-93322079D01*
X80428801Y-94191883D01*
X78810000Y-94191883D01*
X78732331Y-94199533D01*
X78657647Y-94222188D01*
X78588818Y-94258978D01*
X78528489Y-94308489D01*
X78478978Y-94368818D01*
X78442188Y-94437647D01*
X78419533Y-94512331D01*
X78411883Y-94590000D01*
X78411883Y-96290000D01*
X78419533Y-96367669D01*
X78442188Y-96442353D01*
X78478978Y-96511182D01*
X78528489Y-96571511D01*
X78588818Y-96621022D01*
X78657647Y-96657812D01*
X78732331Y-96680467D01*
X78810000Y-96688117D01*
X80428800Y-96688117D01*
X80428800Y-97139600D01*
X80403800Y-97177015D01*
X80354787Y-97295344D01*
X80329800Y-97420961D01*
X80329800Y-97549039D01*
X80354787Y-97674656D01*
X80403800Y-97792985D01*
X80474957Y-97899478D01*
X80565522Y-97990043D01*
X80672015Y-98061200D01*
X80790344Y-98110213D01*
X80915961Y-98135200D01*
X81044039Y-98135200D01*
X81169656Y-98110213D01*
X81287985Y-98061200D01*
X81394478Y-97990043D01*
X81485043Y-97899478D01*
X81556200Y-97792985D01*
X81605213Y-97674656D01*
X81630200Y-97549039D01*
X81630200Y-97420961D01*
X81605213Y-97295344D01*
X81556200Y-97177015D01*
X81531200Y-97139600D01*
X81531200Y-96491914D01*
X81609703Y-96544368D01*
X81836497Y-96638309D01*
X82077260Y-96686200D01*
X82322740Y-96686200D01*
X82563503Y-96638309D01*
X82681400Y-96589475D01*
X82705329Y-96613404D01*
X82695522Y-96619957D01*
X82604957Y-96710522D01*
X82533800Y-96817015D01*
X82484787Y-96935344D01*
X82459800Y-97060961D01*
X82459800Y-97189039D01*
X82484787Y-97314656D01*
X82533800Y-97432985D01*
X82604957Y-97539478D01*
X82695522Y-97630043D01*
X82802015Y-97701200D01*
X82920344Y-97750213D01*
X83045961Y-97775200D01*
X83091665Y-97775200D01*
X83104347Y-97790653D01*
X83176279Y-97849686D01*
X83258346Y-97893552D01*
X83347394Y-97920564D01*
X83416800Y-97927400D01*
X83416809Y-97927400D01*
X83439999Y-97929684D01*
X83463189Y-97927400D01*
X88228411Y-97927400D01*
X88209800Y-98020961D01*
X88209800Y-98067125D01*
X88024326Y-98252600D01*
X84857121Y-98252600D01*
X84824478Y-98219957D01*
X84717985Y-98148800D01*
X84599656Y-98099787D01*
X84474039Y-98074800D01*
X84345961Y-98074800D01*
X84220344Y-98099787D01*
X84102015Y-98148800D01*
X83995522Y-98219957D01*
X83904957Y-98310522D01*
X83833800Y-98417015D01*
X83784787Y-98535344D01*
X83759800Y-98660961D01*
X83759800Y-98789039D01*
X83784787Y-98914656D01*
X83833800Y-99032985D01*
X83834345Y-99033800D01*
X76077717Y-99033800D01*
X76345011Y-98855200D01*
X76595200Y-98605011D01*
X76791772Y-98310820D01*
X76927173Y-97983932D01*
X76996200Y-97636910D01*
X76996200Y-97283090D01*
X76927173Y-96936068D01*
X76791772Y-96609180D01*
X76595200Y-96314989D01*
X76345011Y-96064800D01*
X76050820Y-95868228D01*
X75723932Y-95732827D01*
X75376910Y-95663800D01*
X75023090Y-95663800D01*
X74676068Y-95732827D01*
X74349180Y-95868228D01*
X74054989Y-96064800D01*
X73804800Y-96314989D01*
X73608228Y-96609180D01*
X73472827Y-96936068D01*
X73403800Y-97283090D01*
X73403800Y-97636910D01*
X73472827Y-97983932D01*
X73608228Y-98310820D01*
X73804800Y-98605011D01*
X74054989Y-98855200D01*
X74322283Y-99033800D01*
X70967660Y-99033800D01*
X70690052Y-98758740D01*
X69304600Y-97373289D01*
X69287342Y-97352260D01*
X69203420Y-97283387D01*
X69107674Y-97232210D01*
X69003784Y-97200695D01*
X68922811Y-97192720D01*
X68922808Y-97192720D01*
X68895742Y-97190054D01*
X68868676Y-97192720D01*
X66381327Y-97192720D01*
X66354258Y-97190054D01*
X66246215Y-97200695D01*
X66142325Y-97232210D01*
X66046579Y-97283387D01*
X66018229Y-97306654D01*
X65962658Y-97352260D01*
X65945400Y-97373289D01*
X64627376Y-98691313D01*
X64552474Y-98691313D01*
X64426857Y-98716300D01*
X64308528Y-98765313D01*
X64202035Y-98836470D01*
X64111470Y-98927035D01*
X64040313Y-99033528D01*
X63991300Y-99151857D01*
X63966313Y-99277474D01*
X63966313Y-99405552D01*
X63991300Y-99531169D01*
X64040313Y-99649498D01*
X64111470Y-99755991D01*
X64202035Y-99846556D01*
X64308528Y-99917713D01*
X64426857Y-99966726D01*
X64453062Y-99971938D01*
X64458274Y-99998143D01*
X64507287Y-100116472D01*
X64578444Y-100222965D01*
X64669009Y-100313530D01*
X64775502Y-100384687D01*
X64893831Y-100433700D01*
X65019448Y-100458687D01*
X65147526Y-100458687D01*
X65273143Y-100433700D01*
X65391472Y-100384687D01*
X65497965Y-100313530D01*
X65588530Y-100222965D01*
X65659687Y-100116472D01*
X65708700Y-99998143D01*
X65733687Y-99872526D01*
X65733687Y-99797624D01*
X65802566Y-99728745D01*
X65783800Y-99823090D01*
X65783800Y-100176910D01*
X65852827Y-100523932D01*
X65988228Y-100850820D01*
X66184800Y-101145011D01*
X66434989Y-101395200D01*
X66729180Y-101591772D01*
X67056068Y-101727173D01*
X67403090Y-101796200D01*
X67756910Y-101796200D01*
X68103932Y-101727173D01*
X68430820Y-101591772D01*
X68725011Y-101395200D01*
X68975200Y-101145011D01*
X69171772Y-100850820D01*
X69307173Y-100523932D01*
X69376200Y-100176910D01*
X69376200Y-99823090D01*
X69335086Y-99616398D01*
X69719968Y-100001280D01*
X69720353Y-100001749D01*
X70354211Y-100635607D01*
X70371475Y-100656643D01*
X70455406Y-100725524D01*
X70551162Y-100776706D01*
X70655064Y-100808225D01*
X70736039Y-100816200D01*
X70736048Y-100816200D01*
X70763117Y-100818866D01*
X70790187Y-100816200D01*
X74667925Y-100816200D01*
X74349180Y-100948228D01*
X74054989Y-101144800D01*
X73804800Y-101394989D01*
X73608228Y-101689180D01*
X73472827Y-102016068D01*
X73403800Y-102363090D01*
X73403800Y-102716910D01*
X73472827Y-103063932D01*
X73608228Y-103390820D01*
X73804800Y-103685011D01*
X74054989Y-103935200D01*
X74349180Y-104131772D01*
X74676068Y-104267173D01*
X75023090Y-104336200D01*
X75376910Y-104336200D01*
X75723932Y-104267173D01*
X76050820Y-104131772D01*
X76345011Y-103935200D01*
X76595200Y-103685011D01*
X76791772Y-103390820D01*
X76927173Y-103063932D01*
X76996200Y-102716910D01*
X76996200Y-102363090D01*
X76927173Y-102016068D01*
X76791772Y-101689180D01*
X76595200Y-101394989D01*
X76345011Y-101144800D01*
X76050820Y-100948228D01*
X75732075Y-100816200D01*
X88804600Y-100816200D01*
X88842015Y-100841200D01*
X88908278Y-100868647D01*
X86224326Y-103552600D01*
X80285800Y-103552600D01*
X80262600Y-103550315D01*
X80169993Y-103559436D01*
X80142981Y-103567630D01*
X80080946Y-103586448D01*
X79998879Y-103630314D01*
X79993983Y-103634332D01*
X79946286Y-103673476D01*
X79926947Y-103689347D01*
X79912160Y-103707365D01*
X79362366Y-104257160D01*
X79344348Y-104271947D01*
X79329561Y-104289965D01*
X79329558Y-104289968D01*
X79285315Y-104343879D01*
X79275692Y-104361883D01*
X78830000Y-104361883D01*
X78752331Y-104369533D01*
X78677647Y-104392188D01*
X78608818Y-104428978D01*
X78548489Y-104478489D01*
X78498978Y-104538818D01*
X78462188Y-104607647D01*
X78439533Y-104682331D01*
X78431883Y-104760000D01*
X78431883Y-106460000D01*
X78439533Y-106537669D01*
X78462188Y-106612353D01*
X78498978Y-106681182D01*
X78548489Y-106741511D01*
X78608818Y-106791022D01*
X78677647Y-106827812D01*
X78752331Y-106850467D01*
X78830000Y-106858117D01*
X80530000Y-106858117D01*
X80607669Y-106850467D01*
X80682353Y-106827812D01*
X80751182Y-106791022D01*
X80811511Y-106741511D01*
X80861022Y-106681182D01*
X80897812Y-106612353D01*
X80920467Y-106537669D01*
X80928117Y-106460000D01*
X80928117Y-104760000D01*
X80920467Y-104682331D01*
X80897812Y-104607647D01*
X80861022Y-104538818D01*
X80827031Y-104497400D01*
X81649577Y-104497400D01*
X81629703Y-104505632D01*
X81425594Y-104642013D01*
X81252013Y-104815594D01*
X81115632Y-105019703D01*
X81021691Y-105246497D01*
X80973800Y-105487260D01*
X80973800Y-105732740D01*
X81021691Y-105973503D01*
X81115632Y-106200297D01*
X81252013Y-106404406D01*
X81425594Y-106577987D01*
X81629703Y-106714368D01*
X81856497Y-106808309D01*
X82097260Y-106856200D01*
X82342740Y-106856200D01*
X82583503Y-106808309D01*
X82810297Y-106714368D01*
X83014406Y-106577987D01*
X83187987Y-106404406D01*
X83324368Y-106200297D01*
X83418309Y-105973503D01*
X83466200Y-105732740D01*
X83466200Y-105487260D01*
X83418309Y-105246497D01*
X83369475Y-105128600D01*
X83680675Y-104817400D01*
X83790806Y-104817400D01*
X83655632Y-105019703D01*
X83561691Y-105246497D01*
X83513800Y-105487260D01*
X83513800Y-105732740D01*
X83561691Y-105973503D01*
X83655632Y-106200297D01*
X83792013Y-106404406D01*
X83965594Y-106577987D01*
X84169703Y-106714368D01*
X84396497Y-106808309D01*
X84637260Y-106856200D01*
X84882740Y-106856200D01*
X85123503Y-106808309D01*
X85350297Y-106714368D01*
X85554406Y-106577987D01*
X85727987Y-106404406D01*
X85864368Y-106200297D01*
X85958309Y-105973503D01*
X86006200Y-105732740D01*
X86006200Y-105487260D01*
X85958309Y-105246497D01*
X85952470Y-105232401D01*
X86107530Y-105232401D01*
X86101691Y-105246497D01*
X86053800Y-105487260D01*
X86053800Y-105732740D01*
X86101691Y-105973503D01*
X86195632Y-106200297D01*
X86332013Y-106404406D01*
X86505594Y-106577987D01*
X86709703Y-106714368D01*
X86936497Y-106808309D01*
X87177260Y-106856200D01*
X87422740Y-106856200D01*
X87663503Y-106808309D01*
X87890297Y-106714368D01*
X88094406Y-106577987D01*
X88267987Y-106404406D01*
X88404368Y-106200297D01*
X88498309Y-105973503D01*
X88546200Y-105732740D01*
X88546200Y-105487260D01*
X88593800Y-105487260D01*
X88593800Y-105732740D01*
X88641691Y-105973503D01*
X88735632Y-106200297D01*
X88872013Y-106404406D01*
X89045594Y-106577987D01*
X89249703Y-106714368D01*
X89476497Y-106808309D01*
X89717260Y-106856200D01*
X89962740Y-106856200D01*
X90203503Y-106808309D01*
X90430297Y-106714368D01*
X90634406Y-106577987D01*
X90807987Y-106404406D01*
X90944368Y-106200297D01*
X91038309Y-105973503D01*
X91086200Y-105732740D01*
X91086200Y-105487260D01*
X91038309Y-105246497D01*
X90944368Y-105019703D01*
X90807987Y-104815594D01*
X90634406Y-104642013D01*
X90430297Y-104505632D01*
X90203503Y-104411691D01*
X89962740Y-104363800D01*
X89717260Y-104363800D01*
X89476497Y-104411691D01*
X89249703Y-104505632D01*
X89045594Y-104642013D01*
X88872013Y-104815594D01*
X88735632Y-105019703D01*
X88641691Y-105246497D01*
X88593800Y-105487260D01*
X88546200Y-105487260D01*
X88498309Y-105246497D01*
X88404368Y-105019703D01*
X88267987Y-104815594D01*
X88094406Y-104642013D01*
X87890297Y-104505632D01*
X87663503Y-104411691D01*
X87587556Y-104396584D01*
X90759810Y-101224331D01*
X90775522Y-101240043D01*
X90882015Y-101311200D01*
X91000344Y-101360213D01*
X91125961Y-101385200D01*
X91254039Y-101385200D01*
X91379656Y-101360213D01*
X91497985Y-101311200D01*
X91604478Y-101240043D01*
X91695043Y-101149478D01*
X91766200Y-101042985D01*
X91815213Y-100924656D01*
X91840200Y-100799039D01*
X91840200Y-100670961D01*
X91815213Y-100545344D01*
X91766200Y-100427015D01*
X91695043Y-100320522D01*
X91604478Y-100229957D01*
X91497985Y-100158800D01*
X91438234Y-100134051D01*
X91817635Y-99754650D01*
X91835653Y-99739863D01*
X91850498Y-99721775D01*
X91882916Y-99682273D01*
X91894686Y-99667931D01*
X91938552Y-99585864D01*
X91958518Y-99520043D01*
X91964632Y-99499889D01*
X92005043Y-99459478D01*
X92076200Y-99352985D01*
X92125213Y-99234656D01*
X92150200Y-99109039D01*
X92150200Y-98980961D01*
X92125213Y-98855344D01*
X92076200Y-98737015D01*
X92005043Y-98630522D01*
X91914478Y-98539957D01*
X91878562Y-98515959D01*
X91905043Y-98489478D01*
X91976200Y-98382985D01*
X92025213Y-98264656D01*
X92050200Y-98139039D01*
X92050200Y-98010961D01*
X92025213Y-97885344D01*
X91976200Y-97767015D01*
X91905043Y-97660522D01*
X91845144Y-97600623D01*
X93839800Y-97600623D01*
X93863000Y-97602908D01*
X93955606Y-97593787D01*
X93958026Y-97593053D01*
X94044654Y-97566775D01*
X94126721Y-97522909D01*
X94198653Y-97463876D01*
X94213444Y-97445853D01*
X96320671Y-95338626D01*
X96366836Y-95338626D01*
X96492453Y-95313639D01*
X96610782Y-95264626D01*
X96683079Y-95216318D01*
X96770728Y-95252623D01*
X96896345Y-95277610D01*
X97024423Y-95277610D01*
X97150040Y-95252623D01*
X97268369Y-95203610D01*
X97287342Y-95190933D01*
X97330758Y-95219943D01*
X97449087Y-95268956D01*
X97574704Y-95293943D01*
X97702782Y-95293943D01*
X97828399Y-95268956D01*
X97946728Y-95219943D01*
X98028363Y-95165396D01*
X98052015Y-95181200D01*
X98170344Y-95230213D01*
X98295961Y-95255200D01*
X98424039Y-95255200D01*
X98549656Y-95230213D01*
X98667985Y-95181200D01*
X98677600Y-95174775D01*
X98677601Y-97187540D01*
X98675315Y-97210750D01*
X98684436Y-97303356D01*
X98711449Y-97392404D01*
X98755315Y-97474471D01*
X98799558Y-97528382D01*
X98799561Y-97528385D01*
X98814348Y-97546403D01*
X98832366Y-97561190D01*
X99607119Y-98335943D01*
X99584265Y-98351214D01*
X99493700Y-98441779D01*
X99422543Y-98548272D01*
X99373530Y-98666601D01*
X99348543Y-98792218D01*
X99348543Y-98920296D01*
X99373530Y-99045913D01*
X99422543Y-99164242D01*
X99493700Y-99270735D01*
X99526343Y-99303378D01*
X99526344Y-102875581D01*
X97941400Y-104460526D01*
X97823503Y-104411691D01*
X97582740Y-104363800D01*
X97337260Y-104363800D01*
X97096497Y-104411691D01*
X96869703Y-104505632D01*
X96832400Y-104530557D01*
X96832400Y-103662121D01*
X96865043Y-103629478D01*
X96936200Y-103522985D01*
X96985213Y-103404656D01*
X97010200Y-103279039D01*
X97010200Y-103150961D01*
X96985213Y-103025344D01*
X96936200Y-102907015D01*
X96865043Y-102800522D01*
X96774478Y-102709957D01*
X96667985Y-102638800D01*
X96549656Y-102589787D01*
X96424039Y-102564800D01*
X96295961Y-102564800D01*
X96170344Y-102589787D01*
X96052015Y-102638800D01*
X95945522Y-102709957D01*
X95854957Y-102800522D01*
X95783800Y-102907015D01*
X95734787Y-103025344D01*
X95709800Y-103150961D01*
X95709800Y-103279039D01*
X95734787Y-103404656D01*
X95783800Y-103522985D01*
X95854957Y-103629478D01*
X95887600Y-103662121D01*
X95887601Y-104815208D01*
X95714406Y-104642013D01*
X95510297Y-104505632D01*
X95283503Y-104411691D01*
X95042740Y-104363800D01*
X94797260Y-104363800D01*
X94556497Y-104411691D01*
X94329703Y-104505632D01*
X94192400Y-104597375D01*
X94192400Y-103752121D01*
X94225043Y-103719478D01*
X94296200Y-103612985D01*
X94345213Y-103494656D01*
X94370200Y-103369039D01*
X94370200Y-103240961D01*
X94345213Y-103115344D01*
X94296200Y-102997015D01*
X94225043Y-102890522D01*
X94134478Y-102799957D01*
X94027985Y-102728800D01*
X93909656Y-102679787D01*
X93784039Y-102654800D01*
X93655961Y-102654800D01*
X93530344Y-102679787D01*
X93412015Y-102728800D01*
X93305522Y-102799957D01*
X93214957Y-102890522D01*
X93143800Y-102997015D01*
X93094787Y-103115344D01*
X93069800Y-103240961D01*
X93069800Y-103369039D01*
X93094787Y-103494656D01*
X93143800Y-103612985D01*
X93214957Y-103719478D01*
X93247600Y-103752121D01*
X93247601Y-104715208D01*
X93174406Y-104642013D01*
X92970297Y-104505632D01*
X92743503Y-104411691D01*
X92502740Y-104363800D01*
X92257260Y-104363800D01*
X92016497Y-104411691D01*
X91789703Y-104505632D01*
X91585594Y-104642013D01*
X91412013Y-104815594D01*
X91275632Y-105019703D01*
X91181691Y-105246497D01*
X91133800Y-105487260D01*
X91133800Y-105732740D01*
X91181691Y-105973503D01*
X91275632Y-106200297D01*
X91412013Y-106404406D01*
X91585594Y-106577987D01*
X91789703Y-106714368D01*
X92016497Y-106808309D01*
X92257260Y-106856200D01*
X92502740Y-106856200D01*
X92743503Y-106808309D01*
X92970297Y-106714368D01*
X93174406Y-106577987D01*
X93347987Y-106404406D01*
X93387802Y-106344818D01*
X93402366Y-106356770D01*
X94058226Y-107012630D01*
X94073017Y-107030653D01*
X94107314Y-107058800D01*
X75856116Y-107058800D01*
X78211790Y-104703127D01*
X78231748Y-104686748D01*
X78248129Y-104666788D01*
X78297129Y-104607081D01*
X78333616Y-104538818D01*
X78345712Y-104516189D01*
X78375629Y-104417565D01*
X78383200Y-104340697D01*
X78383200Y-104340695D01*
X78385731Y-104315000D01*
X78383200Y-104289305D01*
X78383200Y-103722304D01*
X78436200Y-103642985D01*
X78485213Y-103524656D01*
X78510200Y-103399039D01*
X78510200Y-103270961D01*
X78485213Y-103145344D01*
X78436200Y-103027015D01*
X78365043Y-102920522D01*
X78274478Y-102829957D01*
X78167985Y-102758800D01*
X78049656Y-102709787D01*
X77924039Y-102684800D01*
X77795961Y-102684800D01*
X77670344Y-102709787D01*
X77552015Y-102758800D01*
X77445522Y-102829957D01*
X77354957Y-102920522D01*
X77283800Y-103027015D01*
X77234787Y-103145344D01*
X77209800Y-103270961D01*
X77209800Y-103399039D01*
X77234787Y-103524656D01*
X77283800Y-103642985D01*
X77336800Y-103722305D01*
X77336801Y-104098282D01*
X74376285Y-107058800D01*
X68013314Y-107058800D01*
X66913905Y-105959391D01*
X66896643Y-105938357D01*
X66812712Y-105869476D01*
X66716956Y-105818294D01*
X66613054Y-105786775D01*
X66532079Y-105778800D01*
X66532069Y-105778800D01*
X66505000Y-105776134D01*
X66477931Y-105778800D01*
X64581081Y-105778800D01*
X64576200Y-105767015D01*
X64505043Y-105660522D01*
X64414478Y-105569957D01*
X64307985Y-105498800D01*
X64189656Y-105449787D01*
X64064039Y-105424800D01*
X63935961Y-105424800D01*
X63810344Y-105449787D01*
X63692015Y-105498800D01*
X63585522Y-105569957D01*
X63494957Y-105660522D01*
X63423800Y-105767015D01*
X63374787Y-105885344D01*
X63349800Y-106010961D01*
X63349800Y-106139039D01*
X63374787Y-106264656D01*
X63423800Y-106382985D01*
X63494957Y-106489478D01*
X63585522Y-106580043D01*
X63692015Y-106651200D01*
X63810344Y-106700213D01*
X63852467Y-106708592D01*
X63862356Y-106720642D01*
X63946287Y-106789523D01*
X64032118Y-106835400D01*
X64042043Y-106840705D01*
X64145944Y-106872224D01*
X64155337Y-106873149D01*
X64226920Y-106880199D01*
X64226927Y-106880199D01*
X64253999Y-106882865D01*
X64281071Y-106880199D01*
X64402757Y-106880199D01*
X64440000Y-106883867D01*
X64467079Y-106881200D01*
X64599888Y-106881200D01*
X64589003Y-106892162D01*
X64558511Y-106922021D01*
X64554322Y-106927085D01*
X64554319Y-106927088D01*
X64554317Y-106927091D01*
X64418632Y-107093458D01*
X64395000Y-107129027D01*
X64370872Y-107164266D01*
X64367742Y-107170054D01*
X64266954Y-107359607D01*
X64250657Y-107399147D01*
X64233856Y-107438346D01*
X64231910Y-107444631D01*
X64206498Y-107528800D01*
X60123044Y-107528800D01*
X59803493Y-107497468D01*
X59518281Y-107411357D01*
X59255224Y-107271486D01*
X59024347Y-107083187D01*
X58834443Y-106853633D01*
X58692738Y-106591556D01*
X58604640Y-106306955D01*
X58571200Y-105988799D01*
X58571200Y-102705000D01*
X58633617Y-102705000D01*
X58654299Y-102914992D01*
X58715552Y-103116914D01*
X58815020Y-103303006D01*
X58948882Y-103466118D01*
X59111994Y-103599980D01*
X59298086Y-103699448D01*
X59500008Y-103760701D01*
X59657375Y-103776200D01*
X60112625Y-103776200D01*
X60269992Y-103760701D01*
X60471914Y-103699448D01*
X60658006Y-103599980D01*
X60821118Y-103466118D01*
X60954980Y-103303006D01*
X60979998Y-103256200D01*
X62288966Y-103256200D01*
X62321153Y-103273404D01*
X62499512Y-103327509D01*
X62638519Y-103341200D01*
X63131481Y-103341200D01*
X63270488Y-103327509D01*
X63448847Y-103273404D01*
X63613224Y-103185543D01*
X63757302Y-103067302D01*
X63875543Y-102923224D01*
X63963404Y-102758847D01*
X64017509Y-102580488D01*
X64035778Y-102395000D01*
X64017509Y-102209512D01*
X63963404Y-102031153D01*
X63875543Y-101866776D01*
X63757302Y-101722698D01*
X63613224Y-101604457D01*
X63448847Y-101516596D01*
X63270488Y-101462491D01*
X63131481Y-101448800D01*
X62638519Y-101448800D01*
X62499512Y-101462491D01*
X62321153Y-101516596D01*
X62156776Y-101604457D01*
X62012698Y-101722698D01*
X61894457Y-101866776D01*
X61806596Y-102031153D01*
X61769391Y-102153800D01*
X60979998Y-102153800D01*
X60954980Y-102106994D01*
X60821118Y-101943882D01*
X60658006Y-101810020D01*
X60471914Y-101710552D01*
X60269992Y-101649299D01*
X60112625Y-101633800D01*
X59657375Y-101633800D01*
X59500008Y-101649299D01*
X59298086Y-101710552D01*
X59111994Y-101810020D01*
X58948882Y-101943882D01*
X58815020Y-102106994D01*
X58715552Y-102293086D01*
X58654299Y-102495008D01*
X58633617Y-102705000D01*
X58571200Y-102705000D01*
X58571200Y-97245000D01*
X58633617Y-97245000D01*
X58654299Y-97454992D01*
X58715552Y-97656914D01*
X58815020Y-97843006D01*
X58948882Y-98006118D01*
X59111994Y-98139980D01*
X59298086Y-98239448D01*
X59500008Y-98300701D01*
X59657375Y-98316200D01*
X60112625Y-98316200D01*
X60269992Y-98300701D01*
X60471914Y-98239448D01*
X60658006Y-98139980D01*
X60821118Y-98006118D01*
X60954980Y-97843006D01*
X60979998Y-97796200D01*
X61769391Y-97796200D01*
X61806596Y-97918847D01*
X61894457Y-98083224D01*
X62012698Y-98227302D01*
X62156776Y-98345543D01*
X62321153Y-98433404D01*
X62499512Y-98487509D01*
X62638519Y-98501200D01*
X63131481Y-98501200D01*
X63270488Y-98487509D01*
X63448847Y-98433404D01*
X63613224Y-98345543D01*
X63757302Y-98227302D01*
X63875543Y-98083224D01*
X63963404Y-97918847D01*
X64017509Y-97740488D01*
X64035778Y-97555000D01*
X64017509Y-97369512D01*
X63963404Y-97191153D01*
X63875543Y-97026776D01*
X63757302Y-96882698D01*
X63613224Y-96764457D01*
X63448847Y-96676596D01*
X63270488Y-96622491D01*
X63131481Y-96608800D01*
X62638519Y-96608800D01*
X62499512Y-96622491D01*
X62321153Y-96676596D01*
X62288966Y-96693800D01*
X60979998Y-96693800D01*
X60954980Y-96646994D01*
X60821118Y-96483882D01*
X60658006Y-96350020D01*
X60471914Y-96250552D01*
X60269992Y-96189299D01*
X60112625Y-96173800D01*
X59657375Y-96173800D01*
X59500008Y-96189299D01*
X59298086Y-96250552D01*
X59111994Y-96350020D01*
X58948882Y-96483882D01*
X58815020Y-96646994D01*
X58715552Y-96833086D01*
X58654299Y-97035008D01*
X58633617Y-97245000D01*
X58571200Y-97245000D01*
X58571200Y-94023044D01*
X58602532Y-93703495D01*
X58688643Y-93418282D01*
X58828512Y-93155227D01*
X59016812Y-92924348D01*
X59246370Y-92734441D01*
X59508444Y-92592738D01*
X59793043Y-92504640D01*
X60111201Y-92471200D01*
X64206622Y-92471200D01*
X64239807Y-92575812D01*
G36*
X137539807Y-92575812D02*
G01*
X137556634Y-92615071D01*
X137572906Y-92654551D01*
X137576035Y-92660338D01*
X137679459Y-92848466D01*
X137703579Y-92883692D01*
X137727221Y-92919276D01*
X137731415Y-92924346D01*
X137869410Y-93088801D01*
X137899915Y-93118674D01*
X137930015Y-93148985D01*
X137935114Y-93153144D01*
X138102424Y-93287664D01*
X138138121Y-93311024D01*
X138173567Y-93334932D01*
X138179376Y-93338021D01*
X138369630Y-93437482D01*
X138409232Y-93453482D01*
X138448595Y-93470029D01*
X138454893Y-93471931D01*
X138660842Y-93532545D01*
X138702805Y-93540550D01*
X138744627Y-93549135D01*
X138751175Y-93549777D01*
X138964974Y-93569234D01*
X139007712Y-93568936D01*
X139050384Y-93569234D01*
X139056932Y-93568592D01*
X139056934Y-93568592D01*
X139270439Y-93546152D01*
X139312290Y-93537561D01*
X139354227Y-93529561D01*
X139360525Y-93527660D01*
X139565606Y-93464176D01*
X139604989Y-93447621D01*
X139644572Y-93431628D01*
X139650381Y-93428540D01*
X139839226Y-93326432D01*
X139874662Y-93302530D01*
X139910366Y-93279166D01*
X139915465Y-93275008D01*
X140080881Y-93138165D01*
X140110980Y-93107855D01*
X140141489Y-93077979D01*
X140145683Y-93072909D01*
X140281367Y-92906542D01*
X140304982Y-92870999D01*
X140329128Y-92835734D01*
X140332258Y-92829947D01*
X140433045Y-92640393D01*
X140449317Y-92600914D01*
X140466144Y-92561654D01*
X140468090Y-92555369D01*
X140493502Y-92471200D01*
X150746622Y-92471200D01*
X150779807Y-92575812D01*
X150796634Y-92615071D01*
X150812906Y-92654551D01*
X150816035Y-92660338D01*
X150919459Y-92848466D01*
X150943579Y-92883692D01*
X150967221Y-92919276D01*
X150971415Y-92924346D01*
X151109410Y-93088801D01*
X151139915Y-93118674D01*
X151170015Y-93148985D01*
X151175114Y-93153144D01*
X151342424Y-93287664D01*
X151378121Y-93311024D01*
X151413567Y-93334932D01*
X151419376Y-93338021D01*
X151573800Y-93418751D01*
X151573800Y-95271181D01*
X151473792Y-95371189D01*
X151365840Y-95532752D01*
X151291481Y-95712270D01*
X151253573Y-95902845D01*
X151253573Y-96097155D01*
X151291481Y-96287730D01*
X151365840Y-96467248D01*
X151473792Y-96628811D01*
X151573800Y-96728819D01*
X151573800Y-103271181D01*
X151473792Y-103371189D01*
X151365840Y-103532752D01*
X151291481Y-103712270D01*
X151253573Y-103902845D01*
X151253573Y-104097155D01*
X151291481Y-104287730D01*
X151365840Y-104467248D01*
X151473792Y-104628811D01*
X151573800Y-104728819D01*
X151573800Y-106580014D01*
X151400774Y-106673568D01*
X151365353Y-106697460D01*
X151329634Y-106720834D01*
X151324535Y-106724992D01*
X151159119Y-106861835D01*
X151129003Y-106892162D01*
X151098511Y-106922021D01*
X151094322Y-106927085D01*
X151094319Y-106927088D01*
X151094317Y-106927091D01*
X150958632Y-107093458D01*
X150935000Y-107129027D01*
X150910872Y-107164266D01*
X150907742Y-107170054D01*
X150806954Y-107359607D01*
X150790657Y-107399147D01*
X150773856Y-107438346D01*
X150771910Y-107444631D01*
X150746498Y-107528800D01*
X140388967Y-107528800D01*
X140368278Y-107463580D01*
X140351456Y-107424331D01*
X140335180Y-107384843D01*
X140332051Y-107379055D01*
X140238028Y-107208030D01*
X140213882Y-107172765D01*
X140190267Y-107137222D01*
X140186074Y-107132152D01*
X140060624Y-106982646D01*
X140030115Y-106952770D01*
X140000016Y-106922460D01*
X139994918Y-106918302D01*
X139842818Y-106796011D01*
X139807088Y-106772630D01*
X139771678Y-106748746D01*
X139765869Y-106745657D01*
X139592914Y-106655238D01*
X139553324Y-106639243D01*
X139513943Y-106622688D01*
X139507645Y-106620787D01*
X139320419Y-106565684D01*
X139278490Y-106557686D01*
X139236636Y-106549094D01*
X139230088Y-106548452D01*
X139035727Y-106530763D01*
X138993019Y-106531061D01*
X138950311Y-106530763D01*
X138943764Y-106531405D01*
X138749667Y-106551806D01*
X138707826Y-106560395D01*
X138665883Y-106568396D01*
X138659589Y-106570297D01*
X138659583Y-106570298D01*
X138659577Y-106570300D01*
X138473147Y-106628010D01*
X138433772Y-106644561D01*
X138394180Y-106660558D01*
X138388370Y-106663646D01*
X138216694Y-106756471D01*
X138181288Y-106780353D01*
X138145550Y-106803739D01*
X138140452Y-106807897D01*
X137990074Y-106932301D01*
X137959993Y-106962592D01*
X137929469Y-106992484D01*
X137925275Y-106997554D01*
X137801925Y-107148796D01*
X137778283Y-107184380D01*
X137754163Y-107219606D01*
X137751034Y-107225393D01*
X137659409Y-107397715D01*
X137643134Y-107437201D01*
X137626311Y-107476453D01*
X137624365Y-107482738D01*
X137610458Y-107528800D01*
X135550714Y-107528800D01*
X136445523Y-106633992D01*
X136489656Y-106625213D01*
X136607985Y-106576200D01*
X136714478Y-106505043D01*
X136805043Y-106414478D01*
X136876200Y-106307985D01*
X136925213Y-106189656D01*
X136950200Y-106064039D01*
X136950200Y-105935961D01*
X136925213Y-105810344D01*
X136876200Y-105692015D01*
X136805043Y-105585522D01*
X136714478Y-105494957D01*
X136607985Y-105423800D01*
X136489656Y-105374787D01*
X136364039Y-105349800D01*
X136235961Y-105349800D01*
X136110344Y-105374787D01*
X135992015Y-105423800D01*
X135885522Y-105494957D01*
X135794957Y-105585522D01*
X135723800Y-105692015D01*
X135674787Y-105810344D01*
X135666008Y-105854477D01*
X134461686Y-107058800D01*
X114560714Y-107058800D01*
X114824471Y-106795043D01*
X114856497Y-106808309D01*
X115097260Y-106856200D01*
X115342740Y-106856200D01*
X115583503Y-106808309D01*
X115810297Y-106714368D01*
X116014406Y-106577987D01*
X116187987Y-106404406D01*
X116324368Y-106200297D01*
X116418309Y-105973503D01*
X116466200Y-105732740D01*
X116466200Y-105487260D01*
X116418309Y-105246497D01*
X116324368Y-105019703D01*
X116187987Y-104815594D01*
X116014406Y-104642013D01*
X115923691Y-104581399D01*
X117867801Y-104581399D01*
X117891001Y-104583684D01*
X117983607Y-104574563D01*
X117983610Y-104574562D01*
X118072655Y-104547551D01*
X118154722Y-104503685D01*
X118226654Y-104444652D01*
X118241445Y-104426629D01*
X118792874Y-103875200D01*
X118839039Y-103875200D01*
X118964656Y-103850213D01*
X119082985Y-103801200D01*
X119189478Y-103730043D01*
X119280043Y-103639478D01*
X119351200Y-103532985D01*
X119400213Y-103414656D01*
X119425200Y-103289039D01*
X119425200Y-103160961D01*
X119400213Y-103035344D01*
X119351200Y-102917015D01*
X119280043Y-102810522D01*
X119189478Y-102719957D01*
X119082985Y-102648800D01*
X118964656Y-102599787D01*
X118839039Y-102574800D01*
X118710961Y-102574800D01*
X118585344Y-102599787D01*
X118467015Y-102648800D01*
X118360522Y-102719957D01*
X118269957Y-102810522D01*
X118198800Y-102917015D01*
X118149787Y-103035344D01*
X118124800Y-103160961D01*
X118124800Y-103207126D01*
X117695327Y-103636599D01*
X115863649Y-103636599D01*
X115926200Y-103542985D01*
X115975213Y-103424656D01*
X116000200Y-103299039D01*
X116000200Y-103170961D01*
X115975213Y-103045344D01*
X115926200Y-102927015D01*
X115855043Y-102820522D01*
X115764478Y-102729957D01*
X115657985Y-102658800D01*
X115539656Y-102609787D01*
X115414039Y-102584800D01*
X115285961Y-102584800D01*
X115160344Y-102609787D01*
X115042015Y-102658800D01*
X114935522Y-102729957D01*
X114844957Y-102820522D01*
X114773800Y-102927015D01*
X114724787Y-103045344D01*
X114699800Y-103170961D01*
X114699800Y-103217126D01*
X114586913Y-103330013D01*
X112194039Y-103330013D01*
X112200200Y-103299039D01*
X112200200Y-103170961D01*
X112175213Y-103045344D01*
X112126200Y-102927015D01*
X112055043Y-102820522D01*
X111964478Y-102729957D01*
X111857985Y-102658800D01*
X111739656Y-102609787D01*
X111614039Y-102584800D01*
X111485961Y-102584800D01*
X111360344Y-102609787D01*
X111242015Y-102658800D01*
X111135522Y-102729957D01*
X111044957Y-102820522D01*
X110973800Y-102927015D01*
X110933130Y-103025202D01*
X108660200Y-103025202D01*
X108660200Y-102950961D01*
X108635213Y-102825344D01*
X108586200Y-102707015D01*
X108515043Y-102600522D01*
X108424478Y-102509957D01*
X108317985Y-102438800D01*
X108199656Y-102389787D01*
X108074039Y-102364800D01*
X107993623Y-102364800D01*
X101779784Y-96150961D01*
X107159800Y-96150961D01*
X107159800Y-96279039D01*
X107184787Y-96404656D01*
X107233800Y-96522985D01*
X107304957Y-96629478D01*
X107395522Y-96720043D01*
X107502015Y-96791200D01*
X107578411Y-96822844D01*
X109675002Y-99597864D01*
X109680266Y-99607712D01*
X109707678Y-99641113D01*
X109717322Y-99653878D01*
X109724848Y-99662035D01*
X109749147Y-99691643D01*
X109761583Y-99701849D01*
X109772498Y-99713679D01*
X109803470Y-99736225D01*
X109833078Y-99760524D01*
X109847272Y-99768111D01*
X109860280Y-99777580D01*
X109895049Y-99793648D01*
X109928834Y-99811706D01*
X109944234Y-99816378D01*
X109958841Y-99823128D01*
X109996069Y-99832102D01*
X110032736Y-99843225D01*
X110048759Y-99844803D01*
X110064394Y-99848572D01*
X110102654Y-99850111D01*
X110113711Y-99851200D01*
X110129727Y-99851200D01*
X110172884Y-99852936D01*
X110183911Y-99851200D01*
X119396686Y-99851200D01*
X124378285Y-104832800D01*
X121279484Y-104832800D01*
X121267987Y-104815594D01*
X121094406Y-104642013D01*
X120890297Y-104505632D01*
X120663503Y-104411691D01*
X120422740Y-104363800D01*
X120177260Y-104363800D01*
X119936497Y-104411691D01*
X119709703Y-104505632D01*
X119505594Y-104642013D01*
X119332013Y-104815594D01*
X119195632Y-105019703D01*
X119101691Y-105246497D01*
X119053800Y-105487260D01*
X119053800Y-105732740D01*
X119101691Y-105973503D01*
X119195632Y-106200297D01*
X119332013Y-106404406D01*
X119505594Y-106577987D01*
X119709703Y-106714368D01*
X119936497Y-106808309D01*
X120177260Y-106856200D01*
X120422740Y-106856200D01*
X120663503Y-106808309D01*
X120890297Y-106714368D01*
X121094406Y-106577987D01*
X121267987Y-106404406D01*
X121279484Y-106387200D01*
X133576832Y-106387200D01*
X133615000Y-106390959D01*
X133653168Y-106387200D01*
X133653176Y-106387200D01*
X133767358Y-106375954D01*
X133913860Y-106331513D01*
X134048878Y-106259345D01*
X134167222Y-106162222D01*
X134191565Y-106132560D01*
X135209427Y-105114700D01*
X139662102Y-105114700D01*
X139713178Y-105283074D01*
X139805682Y-105456137D01*
X139930172Y-105607828D01*
X140081863Y-105732318D01*
X140254926Y-105824822D01*
X140442711Y-105881786D01*
X140589061Y-105896200D01*
X141010939Y-105896200D01*
X141157289Y-105881786D01*
X141345074Y-105824822D01*
X141518137Y-105732318D01*
X141669828Y-105607828D01*
X141794318Y-105456137D01*
X141886822Y-105283074D01*
X141943786Y-105095289D01*
X141963020Y-104900000D01*
X141943786Y-104704711D01*
X141886822Y-104516926D01*
X141794318Y-104343863D01*
X141669828Y-104192172D01*
X141518137Y-104067682D01*
X141345074Y-103975178D01*
X141157289Y-103918214D01*
X141010939Y-103903800D01*
X140802925Y-103903800D01*
X140714065Y-103814940D01*
X140689722Y-103785278D01*
X140571378Y-103688155D01*
X140436360Y-103615987D01*
X140289858Y-103571546D01*
X140175676Y-103560300D01*
X140175668Y-103560300D01*
X140137500Y-103556541D01*
X140099332Y-103560300D01*
X139028374Y-103560300D01*
X137472400Y-102004326D01*
X137472400Y-100807210D01*
X139328264Y-100807210D01*
X139328264Y-100807213D01*
X139328286Y-100812816D01*
X139329497Y-100924486D01*
X139329531Y-100924799D01*
X139329504Y-100925116D01*
X139329613Y-100930717D01*
X139332350Y-101034450D01*
X139332531Y-101035902D01*
X139332437Y-101037368D01*
X139332665Y-101042965D01*
X139336924Y-101132338D01*
X139337578Y-101136806D01*
X139337453Y-101141324D01*
X139337884Y-101146910D01*
X139343660Y-101215495D01*
X139346435Y-101230592D01*
X139347396Y-101245907D01*
X139348329Y-101251430D01*
X139355617Y-101292801D01*
X139360252Y-101309413D01*
X139363045Y-101326444D01*
X139370754Y-101347048D01*
X139376662Y-101368221D01*
X139383687Y-101382133D01*
X139385372Y-101387563D01*
X139387119Y-101390789D01*
X139390483Y-101399779D01*
X139392984Y-101404792D01*
X139397356Y-101413405D01*
X139407562Y-101429417D01*
X139411954Y-101438116D01*
X139414569Y-101441465D01*
X139422666Y-101456412D01*
X139431773Y-101467403D01*
X139439441Y-101479434D01*
X139456694Y-101497480D01*
X139472623Y-101516705D01*
X139483687Y-101525715D01*
X139493549Y-101536030D01*
X139513979Y-101550382D01*
X139533339Y-101566147D01*
X139545944Y-101572837D01*
X139557621Y-101581040D01*
X139580448Y-101591150D01*
X139602501Y-101602854D01*
X139607697Y-101604949D01*
X139633828Y-101615272D01*
X139653477Y-101620890D01*
X139672502Y-101628317D01*
X139677905Y-101629798D01*
X139733276Y-101644557D01*
X139738114Y-101645351D01*
X139742743Y-101646957D01*
X139748198Y-101648230D01*
X139825485Y-101665690D01*
X139827537Y-101665947D01*
X139829510Y-101666578D01*
X139834995Y-101667718D01*
X139926872Y-101686146D01*
X139926916Y-101686150D01*
X139926957Y-101686163D01*
X139932457Y-101687225D01*
X139964529Y-101693186D01*
X139964590Y-101693191D01*
X139965555Y-101693375D01*
X140119357Y-101721548D01*
X140239521Y-101743987D01*
X140306171Y-101756935D01*
X140330183Y-101815861D01*
X140364959Y-101904654D01*
X140398356Y-101993129D01*
X140410839Y-102027650D01*
X140370278Y-102087003D01*
X140305995Y-102180729D01*
X140287526Y-102207600D01*
X140287479Y-102207685D01*
X140285776Y-102210167D01*
X140219920Y-102307588D01*
X140219659Y-102308070D01*
X140219310Y-102308493D01*
X140216218Y-102313164D01*
X140158267Y-102402052D01*
X140157658Y-102403222D01*
X140156839Y-102404258D01*
X140153843Y-102408991D01*
X140106955Y-102484241D01*
X140105250Y-102487686D01*
X140102968Y-102490778D01*
X140100130Y-102495609D01*
X140067461Y-102552117D01*
X140061451Y-102565345D01*
X140053862Y-102577734D01*
X140051451Y-102582791D01*
X140036158Y-102615452D01*
X140033082Y-102624142D01*
X140028744Y-102632279D01*
X140020040Y-102660992D01*
X140010033Y-102689266D01*
X140008704Y-102698389D01*
X140006029Y-102707212D01*
X140004973Y-102712713D01*
X140004232Y-102716725D01*
X140002031Y-102742588D01*
X139998127Y-102768250D01*
X139998718Y-102781514D01*
X139997592Y-102794744D01*
X140000457Y-102820545D01*
X140001612Y-102846473D01*
X140004768Y-102859369D01*
X140006233Y-102872566D01*
X140014052Y-102897312D01*
X140020223Y-102922529D01*
X140025826Y-102934571D01*
X140029825Y-102947228D01*
X140042301Y-102969982D01*
X140053253Y-102993522D01*
X140056134Y-102998326D01*
X140068983Y-103019417D01*
X140086246Y-103042367D01*
X140102288Y-103066188D01*
X140105885Y-103070482D01*
X140141389Y-103112262D01*
X140145409Y-103116150D01*
X140148723Y-103120653D01*
X140152497Y-103124793D01*
X140206091Y-103182774D01*
X140207081Y-103183655D01*
X140207884Y-103184700D01*
X140211742Y-103188762D01*
X140278692Y-103258274D01*
X140278698Y-103258281D01*
X140278800Y-103258386D01*
X140278864Y-103258452D01*
X140278869Y-103258456D01*
X140282610Y-103262291D01*
X140358695Y-103339201D01*
X140358753Y-103339249D01*
X140361723Y-103342229D01*
X140442206Y-103421867D01*
X140442266Y-103421916D01*
X140445112Y-103424714D01*
X140525429Y-103502592D01*
X140525476Y-103502629D01*
X140528759Y-103505784D01*
X140604347Y-103577409D01*
X140604605Y-103577610D01*
X140604823Y-103577860D01*
X140608923Y-103581678D01*
X140675217Y-103642562D01*
X140677245Y-103644088D01*
X140678958Y-103645954D01*
X140683157Y-103649662D01*
X140735593Y-103695313D01*
X140743952Y-103701263D01*
X140751374Y-103708360D01*
X140755806Y-103711787D01*
X140789820Y-103737716D01*
X140793104Y-103739746D01*
X140795980Y-103742319D01*
X140824295Y-103759078D01*
X140827940Y-103761918D01*
X140833539Y-103764737D01*
X140856426Y-103778882D01*
X140860039Y-103780234D01*
X140863362Y-103782201D01*
X140868455Y-103784535D01*
X140877865Y-103788768D01*
X140888174Y-103792241D01*
X140897879Y-103797127D01*
X140925192Y-103804713D01*
X140927741Y-103805572D01*
X140929758Y-103806327D01*
X140930194Y-103806399D01*
X140952067Y-103813768D01*
X140962845Y-103815172D01*
X140973323Y-103818082D01*
X141001603Y-103820219D01*
X141029711Y-103823880D01*
X141040558Y-103823163D01*
X141051401Y-103823983D01*
X141079551Y-103820588D01*
X141107842Y-103818719D01*
X141118344Y-103815909D01*
X141129138Y-103814607D01*
X141156094Y-103805808D01*
X141183481Y-103798480D01*
X141193236Y-103793684D01*
X141203573Y-103790310D01*
X141208688Y-103788024D01*
X141230590Y-103778053D01*
X141247788Y-103768093D01*
X141265870Y-103759833D01*
X141270695Y-103756985D01*
X141315538Y-103730093D01*
X141319081Y-103727467D01*
X141323023Y-103725492D01*
X141327742Y-103722473D01*
X141388222Y-103683189D01*
X141389296Y-103682332D01*
X141390511Y-103681691D01*
X141395167Y-103678574D01*
X141441699Y-103646955D01*
X141441772Y-103646895D01*
X141443644Y-103645625D01*
X141527431Y-103587969D01*
X141626790Y-103519990D01*
X141725988Y-103452436D01*
X141760887Y-103428777D01*
X141774241Y-103435720D01*
X141778327Y-103437360D01*
X141782064Y-103439679D01*
X141787107Y-103442119D01*
X141846375Y-103470286D01*
X141855584Y-103473605D01*
X141864208Y-103478235D01*
X141869394Y-103480355D01*
X141909496Y-103496420D01*
X141938661Y-103504910D01*
X141967417Y-103514671D01*
X141972881Y-103515907D01*
X141983089Y-103518142D01*
X142014042Y-103521805D01*
X142044836Y-103526704D01*
X142052869Y-103526401D01*
X142060847Y-103527345D01*
X142091931Y-103524926D01*
X142123082Y-103523750D01*
X142130897Y-103521894D01*
X142138911Y-103521270D01*
X142168934Y-103512859D01*
X142199263Y-103505655D01*
X142206572Y-103502315D01*
X142214309Y-103500147D01*
X142242125Y-103486066D01*
X142270478Y-103473107D01*
X142276998Y-103468411D01*
X142284167Y-103464782D01*
X142308716Y-103445567D01*
X142334015Y-103427347D01*
X142339500Y-103421473D01*
X142345827Y-103416521D01*
X142366170Y-103392912D01*
X142387454Y-103370118D01*
X142390828Y-103365646D01*
X142403102Y-103349142D01*
X142418258Y-103323957D01*
X142434621Y-103299549D01*
X142437237Y-103294596D01*
X142461453Y-103247955D01*
X142463124Y-103243785D01*
X142465492Y-103239960D01*
X142467927Y-103234915D01*
X142502276Y-103162442D01*
X142502445Y-103161971D01*
X142502703Y-103161539D01*
X142505055Y-103156454D01*
X142547729Y-103062451D01*
X142547755Y-103062374D01*
X142549329Y-103058881D01*
X142598523Y-102947649D01*
X142598554Y-102947554D01*
X142599619Y-102945148D01*
X142653523Y-102820989D01*
X142653553Y-102820897D01*
X142654372Y-102819018D01*
X142711179Y-102686235D01*
X142711205Y-102686152D01*
X142711909Y-102684518D01*
X142769810Y-102547413D01*
X142769834Y-102547336D01*
X142770505Y-102545758D01*
X142827694Y-102408633D01*
X142827719Y-102408552D01*
X142828419Y-102406884D01*
X142883088Y-102274040D01*
X142883116Y-102273946D01*
X142883921Y-102271999D01*
X142934261Y-102147739D01*
X142934289Y-102147643D01*
X142935318Y-102145103D01*
X142979522Y-102033730D01*
X142979543Y-102033659D01*
X142981031Y-102029871D01*
X143017292Y-101935685D01*
X143017500Y-101934933D01*
X143017844Y-101934241D01*
X143019800Y-101928992D01*
X143040520Y-101872175D01*
X143068512Y-101947746D01*
X143068657Y-101948044D01*
X143068742Y-101948366D01*
X143070733Y-101953602D01*
X143108737Y-102051480D01*
X143108775Y-102051554D01*
X143110120Y-102054994D01*
X143155711Y-102169216D01*
X143155756Y-102169303D01*
X143156705Y-102171683D01*
X143208076Y-102297950D01*
X143208118Y-102298029D01*
X143208873Y-102299895D01*
X143264214Y-102433904D01*
X143264252Y-102433975D01*
X143264922Y-102435609D01*
X143322426Y-102573060D01*
X143322469Y-102573140D01*
X143323117Y-102574700D01*
X143380974Y-102711289D01*
X143381015Y-102711365D01*
X143381716Y-102713029D01*
X143438119Y-102844459D01*
X143438163Y-102844539D01*
X143438995Y-102846486D01*
X143492136Y-102968454D01*
X143492182Y-102968536D01*
X143493292Y-102971084D01*
X143541360Y-103079287D01*
X143541398Y-103079355D01*
X143543102Y-103083152D01*
X143584291Y-103173292D01*
X143584751Y-103174083D01*
X143585055Y-103174956D01*
X143587442Y-103180024D01*
X143619943Y-103247798D01*
X143623110Y-103253023D01*
X143625377Y-103258703D01*
X143627986Y-103263661D01*
X143649990Y-103304768D01*
X143670239Y-103335061D01*
X143690061Y-103365610D01*
X143693498Y-103369857D01*
X143693503Y-103369865D01*
X143693509Y-103369871D01*
X143693585Y-103369965D01*
X143702446Y-103380761D01*
X143729711Y-103408047D01*
X143757096Y-103435576D01*
X143757473Y-103435830D01*
X143757792Y-103436149D01*
X143789936Y-103457686D01*
X143822048Y-103479305D01*
X143822464Y-103479480D01*
X143822841Y-103479732D01*
X143858594Y-103494631D01*
X143894256Y-103509586D01*
X143894700Y-103509677D01*
X143895118Y-103509851D01*
X143933263Y-103517558D01*
X143970972Y-103525264D01*
X143971420Y-103525267D01*
X143971867Y-103525357D01*
X144010803Y-103525508D01*
X144049270Y-103525743D01*
X144049712Y-103525658D01*
X144050167Y-103525660D01*
X144088278Y-103518267D01*
X144126171Y-103511005D01*
X144126982Y-103510759D01*
X144127035Y-103510749D01*
X144127090Y-103510727D01*
X144131532Y-103509381D01*
X144158608Y-103500974D01*
X144177786Y-103492893D01*
X144197631Y-103486601D01*
X144202765Y-103484359D01*
X144253428Y-103461812D01*
X144258638Y-103458854D01*
X144264264Y-103456795D01*
X144269295Y-103454331D01*
X144320553Y-103428779D01*
X144394393Y-103478901D01*
X144495499Y-103547885D01*
X144590185Y-103612797D01*
X144637577Y-103645460D01*
X144637622Y-103645485D01*
X144641588Y-103648188D01*
X144708833Y-103693345D01*
X144711726Y-103694902D01*
X144714297Y-103696950D01*
X144719020Y-103699964D01*
X144775961Y-103735748D01*
X144782820Y-103739175D01*
X144789057Y-103743634D01*
X144793930Y-103746398D01*
X144833139Y-103768279D01*
X144860099Y-103780037D01*
X144886441Y-103793090D01*
X144891693Y-103795039D01*
X144904428Y-103799664D01*
X144932589Y-103806873D01*
X144960349Y-103815494D01*
X144970446Y-103816565D01*
X144980283Y-103819083D01*
X145009299Y-103820685D01*
X145038213Y-103823751D01*
X145048330Y-103822840D01*
X145058464Y-103823399D01*
X145087243Y-103819334D01*
X145116198Y-103816725D01*
X145125941Y-103813867D01*
X145135995Y-103812447D01*
X145163436Y-103802869D01*
X145191333Y-103794687D01*
X145200336Y-103789991D01*
X145209922Y-103786645D01*
X145234985Y-103771917D01*
X145260755Y-103758474D01*
X145265424Y-103755378D01*
X145283961Y-103742900D01*
X145299053Y-103730438D01*
X145315296Y-103719509D01*
X145319592Y-103715913D01*
X145360615Y-103681080D01*
X145362693Y-103678934D01*
X145365121Y-103677196D01*
X145369311Y-103673478D01*
X145428845Y-103619904D01*
X145428989Y-103619746D01*
X145429164Y-103619617D01*
X145433298Y-103615836D01*
X145507365Y-103547141D01*
X145507411Y-103547089D01*
X145510525Y-103544179D01*
X145595148Y-103463977D01*
X145595216Y-103463899D01*
X145597334Y-103461889D01*
X145650854Y-103410394D01*
X145650903Y-103410336D01*
X145653868Y-103407463D01*
X145747502Y-103315463D01*
X145747914Y-103314971D01*
X145748417Y-103314562D01*
X145752373Y-103310595D01*
X145833295Y-103228308D01*
X145834358Y-103226991D01*
X145835647Y-103225896D01*
X145839513Y-103221842D01*
X145904449Y-103152788D01*
X145907251Y-103149155D01*
X145910632Y-103146061D01*
X145914347Y-103141867D01*
X145960028Y-103089566D01*
X145969140Y-103076807D01*
X145979685Y-103065204D01*
X145982998Y-103060687D01*
X146006151Y-103028660D01*
X146014981Y-103013526D01*
X146025393Y-102999438D01*
X146034666Y-102979789D01*
X146045612Y-102961030D01*
X146049850Y-102948766D01*
X146052631Y-102943658D01*
X146054423Y-102937927D01*
X146058812Y-102928628D01*
X146060660Y-102923339D01*
X146062881Y-102916839D01*
X146067170Y-102898647D01*
X146071186Y-102887024D01*
X146071852Y-102882198D01*
X146076003Y-102868927D01*
X146077548Y-102854619D01*
X146080847Y-102840627D01*
X146081743Y-102815790D01*
X146084412Y-102791079D01*
X146083150Y-102776756D01*
X146083669Y-102762378D01*
X146079723Y-102737837D01*
X146077542Y-102713080D01*
X146073520Y-102699267D01*
X146071237Y-102685070D01*
X146062602Y-102661769D01*
X146055652Y-102637902D01*
X146053532Y-102632717D01*
X146043224Y-102607995D01*
X146032884Y-102588739D01*
X146024243Y-102568651D01*
X146021504Y-102563764D01*
X145993019Y-102513775D01*
X145990353Y-102510006D01*
X145988376Y-102505841D01*
X145985458Y-102501059D01*
X145941956Y-102430866D01*
X145941138Y-102429796D01*
X145940533Y-102428586D01*
X145937517Y-102423865D01*
X145882157Y-102338528D01*
X145881934Y-102338249D01*
X145881768Y-102337929D01*
X145878678Y-102333256D01*
X145814621Y-102237838D01*
X145814564Y-102237769D01*
X145812543Y-102234773D01*
X145794326Y-102208170D01*
X145794304Y-102208144D01*
X145794062Y-102207786D01*
X145728061Y-102111645D01*
X145670602Y-102027652D01*
X145679822Y-102002021D01*
X145712911Y-101914005D01*
X145747685Y-101824878D01*
X145775231Y-101756975D01*
X145822685Y-101747655D01*
X145936559Y-101726271D01*
X146083512Y-101699283D01*
X146083525Y-101699281D01*
X146115601Y-101693431D01*
X146115680Y-101693408D01*
X146119722Y-101692657D01*
X146214790Y-101674290D01*
X146216471Y-101673791D01*
X146218212Y-101673613D01*
X146223695Y-101672464D01*
X146306575Y-101654495D01*
X146309915Y-101653420D01*
X146313396Y-101652954D01*
X146318840Y-101651634D01*
X146382205Y-101635798D01*
X146393148Y-101631895D01*
X146404519Y-101629531D01*
X146409854Y-101627824D01*
X146446383Y-101615855D01*
X146480672Y-101600773D01*
X146489250Y-101597084D01*
X146504308Y-101591385D01*
X146508322Y-101588884D01*
X146515147Y-101585949D01*
X146517970Y-101584367D01*
X146518056Y-101584329D01*
X146518131Y-101584276D01*
X146520034Y-101583210D01*
X146524932Y-101580420D01*
X146547405Y-101564528D01*
X146570761Y-101549973D01*
X146579304Y-101541970D01*
X146588862Y-101535211D01*
X146607820Y-101515257D01*
X146627905Y-101496441D01*
X146634731Y-101486930D01*
X146642793Y-101478445D01*
X146657512Y-101455192D01*
X146673562Y-101432831D01*
X146678411Y-101422177D01*
X146684672Y-101412285D01*
X146694595Y-101386614D01*
X146705995Y-101361563D01*
X146707769Y-101356250D01*
X146715840Y-101331512D01*
X146723759Y-101295704D01*
X146732133Y-101259907D01*
X146732737Y-101255103D01*
X146732747Y-101255058D01*
X146732748Y-101255017D01*
X146732832Y-101254348D01*
X146739392Y-101199066D01*
X146739559Y-101190883D01*
X146740985Y-101182824D01*
X146741379Y-101177235D01*
X146746425Y-101097834D01*
X146746334Y-101095176D01*
X146746726Y-101092546D01*
X146746969Y-101086949D01*
X146750495Y-100989856D01*
X146750447Y-100989078D01*
X146750548Y-100988308D01*
X146750691Y-100982707D01*
X146752693Y-100874350D01*
X146752688Y-100874285D01*
X146752695Y-100874223D01*
X146752757Y-100868621D01*
X146753232Y-100755423D01*
X146753232Y-100755420D01*
X146753218Y-100749933D01*
X146752159Y-100638321D01*
X146752124Y-100638000D01*
X146752152Y-100637682D01*
X146752051Y-100632081D01*
X146749456Y-100528483D01*
X146749275Y-100527017D01*
X146749372Y-100525536D01*
X146749151Y-100519938D01*
X146745015Y-100430777D01*
X146744359Y-100426255D01*
X146744490Y-100421685D01*
X146744064Y-100416099D01*
X146738381Y-100347803D01*
X146735579Y-100332474D01*
X146734600Y-100316914D01*
X146733665Y-100311390D01*
X146726433Y-100270384D01*
X146721295Y-100251985D01*
X146718026Y-100233162D01*
X146710791Y-100214367D01*
X146705374Y-100194968D01*
X146696758Y-100177914D01*
X146689897Y-100160089D01*
X146687349Y-100155100D01*
X146682989Y-100146708D01*
X146674070Y-100133002D01*
X146670068Y-100125080D01*
X146664173Y-100117535D01*
X146650011Y-100093751D01*
X146644650Y-100087791D01*
X146640282Y-100081079D01*
X146618514Y-100058736D01*
X146597645Y-100035537D01*
X146591232Y-100030735D01*
X146585641Y-100024996D01*
X146559940Y-100007302D01*
X146534970Y-99988603D01*
X146527747Y-99985138D01*
X146521147Y-99980594D01*
X146492502Y-99968230D01*
X146464373Y-99954736D01*
X146459097Y-99952854D01*
X146434824Y-99944388D01*
X146419705Y-99940723D01*
X146405131Y-99935305D01*
X146399705Y-99933912D01*
X146344433Y-99920139D01*
X146341978Y-99919777D01*
X146339631Y-99918974D01*
X146334170Y-99917725D01*
X146253405Y-99899840D01*
X146253334Y-99899831D01*
X146253265Y-99899809D01*
X146247787Y-99898638D01*
X146147037Y-99877836D01*
X146146961Y-99877828D01*
X146142882Y-99877001D01*
X146027653Y-99854476D01*
X146027560Y-99854467D01*
X146024823Y-99853933D01*
X145962042Y-99842128D01*
X145962021Y-99842126D01*
X145961624Y-99842049D01*
X145843316Y-99819934D01*
X145748675Y-99801961D01*
X145739105Y-99779813D01*
X145701655Y-99692103D01*
X145664253Y-99603577D01*
X145649134Y-99567369D01*
X145671547Y-99533746D01*
X145735094Y-99440096D01*
X145772401Y-99385773D01*
X145772434Y-99385713D01*
X145773059Y-99384811D01*
X145842105Y-99283642D01*
X145842143Y-99283572D01*
X145844391Y-99280256D01*
X145905716Y-99188404D01*
X145905734Y-99188370D01*
X145908459Y-99184240D01*
X145959072Y-99106354D01*
X145959571Y-99105392D01*
X145960244Y-99104540D01*
X145963238Y-99099805D01*
X146000146Y-99040531D01*
X146002965Y-99034829D01*
X146006675Y-99029666D01*
X146009451Y-99024799D01*
X146029662Y-98988781D01*
X146041783Y-98961165D01*
X146048033Y-98948506D01*
X146051818Y-98941584D01*
X146052464Y-98939531D01*
X146055140Y-98934111D01*
X146057082Y-98928856D01*
X146060000Y-98920783D01*
X146060679Y-98918116D01*
X146061132Y-98917083D01*
X146062420Y-98911273D01*
X146066910Y-98893628D01*
X146075323Y-98866894D01*
X146076547Y-98855756D01*
X146079309Y-98844900D01*
X146080813Y-98816925D01*
X146083874Y-98789062D01*
X146082911Y-98777898D01*
X146083512Y-98766713D01*
X146079552Y-98738973D01*
X146077143Y-98711051D01*
X146074030Y-98700287D01*
X146072447Y-98689198D01*
X146063176Y-98662758D01*
X146055389Y-98635834D01*
X146050244Y-98625878D01*
X146046538Y-98615309D01*
X146032308Y-98591174D01*
X146019439Y-98566274D01*
X146016361Y-98561594D01*
X146003813Y-98542801D01*
X145989801Y-98525701D01*
X145977294Y-98507464D01*
X145973660Y-98503201D01*
X145938970Y-98463074D01*
X145936509Y-98460734D01*
X145934500Y-98457990D01*
X145930736Y-98453841D01*
X145878336Y-98396877D01*
X145878205Y-98396760D01*
X145878101Y-98396622D01*
X145874276Y-98392528D01*
X145808597Y-98323220D01*
X145808526Y-98323159D01*
X145805943Y-98320447D01*
X145731415Y-98243293D01*
X145731343Y-98243232D01*
X145729314Y-98241134D01*
X145650371Y-98160628D01*
X145650296Y-98160565D01*
X145648378Y-98158609D01*
X145569447Y-98079247D01*
X145569374Y-98079187D01*
X145567216Y-98077021D01*
X145492733Y-98003298D01*
X145492674Y-98003250D01*
X145489726Y-98000353D01*
X145424120Y-97936765D01*
X145423589Y-97936342D01*
X145423142Y-97935819D01*
X145419079Y-97931962D01*
X145366780Y-97883004D01*
X145362580Y-97879780D01*
X145358984Y-97875896D01*
X145354770Y-97872206D01*
X145320212Y-97842373D01*
X145296262Y-97825475D01*
X145273154Y-97807406D01*
X145268404Y-97804436D01*
X145256843Y-97797317D01*
X145247922Y-97792961D01*
X145239727Y-97787351D01*
X145212800Y-97775813D01*
X145186481Y-97762963D01*
X145176881Y-97760422D01*
X145167755Y-97756512D01*
X145139103Y-97750424D01*
X145110787Y-97742930D01*
X145100880Y-97742302D01*
X145091164Y-97740238D01*
X145061883Y-97739832D01*
X145032643Y-97737980D01*
X145022791Y-97739290D01*
X145012871Y-97739153D01*
X144984082Y-97744439D01*
X144955026Y-97748304D01*
X144945621Y-97751501D01*
X144935858Y-97753294D01*
X144908627Y-97764078D01*
X144880892Y-97773507D01*
X144872292Y-97778468D01*
X144863059Y-97782124D01*
X144858095Y-97784720D01*
X144839271Y-97794731D01*
X144829958Y-97800920D01*
X144819869Y-97805752D01*
X144815097Y-97808687D01*
X144770074Y-97836812D01*
X144769550Y-97837215D01*
X144768959Y-97837511D01*
X144764238Y-97840528D01*
X144697395Y-97883903D01*
X144697318Y-97883964D01*
X144694419Y-97885853D01*
X144610131Y-97941617D01*
X144610052Y-97941681D01*
X144608043Y-97943008D01*
X144510688Y-98008296D01*
X144510622Y-98008350D01*
X144509155Y-98009329D01*
X144435718Y-98059069D01*
X144435686Y-98059096D01*
X144435109Y-98059482D01*
X144242776Y-98190268D01*
X144025061Y-98100519D01*
X143981530Y-97869606D01*
X143897709Y-97424982D01*
X143897588Y-97424567D01*
X143897548Y-97424130D01*
X143886588Y-97386892D01*
X143875764Y-97349819D01*
X143875563Y-97349432D01*
X143875440Y-97349015D01*
X143857478Y-97314656D01*
X143839638Y-97280351D01*
X143839366Y-97280011D01*
X143839164Y-97279625D01*
X143814922Y-97249475D01*
X143790706Y-97219222D01*
X143790373Y-97218941D01*
X143790100Y-97218602D01*
X143760427Y-97193703D01*
X143730834Y-97168762D01*
X143730454Y-97168552D01*
X143730119Y-97168271D01*
X143696251Y-97149652D01*
X143662300Y-97130892D01*
X143661882Y-97130758D01*
X143661503Y-97130550D01*
X143624549Y-97118827D01*
X143587716Y-97107056D01*
X143587287Y-97107007D01*
X143586868Y-97106874D01*
X143548195Y-97102536D01*
X143509922Y-97098159D01*
X143509488Y-97098194D01*
X143509056Y-97098146D01*
X143503454Y-97098107D01*
X142578006Y-97098107D01*
X142577572Y-97098150D01*
X142577138Y-97098108D01*
X142538515Y-97101979D01*
X142500079Y-97105748D01*
X142499664Y-97105873D01*
X142499228Y-97105917D01*
X142462181Y-97117190D01*
X142425121Y-97128379D01*
X142424734Y-97128585D01*
X142424319Y-97128711D01*
X142390274Y-97146907D01*
X142355985Y-97165139D01*
X142355647Y-97165415D01*
X142355263Y-97165620D01*
X142325221Y-97190230D01*
X142295307Y-97214627D01*
X142295031Y-97214960D01*
X142294691Y-97215239D01*
X142270180Y-97245000D01*
X142245396Y-97274959D01*
X142245188Y-97275344D01*
X142244912Y-97275679D01*
X142226545Y-97309825D01*
X142208155Y-97343836D01*
X142208027Y-97344249D01*
X142207819Y-97344636D01*
X142196418Y-97381751D01*
X142185000Y-97418635D01*
X142184954Y-97419069D01*
X142184827Y-97419484D01*
X142183751Y-97424982D01*
X142099931Y-97869606D01*
X142056399Y-98100520D01*
X141948247Y-98145104D01*
X141948175Y-98145133D01*
X141838685Y-98190268D01*
X141646351Y-98059482D01*
X141646300Y-98059454D01*
X141645456Y-98058875D01*
X141541545Y-97988625D01*
X141541462Y-97988580D01*
X141539645Y-97987348D01*
X141445714Y-97924624D01*
X141445628Y-97924578D01*
X141443386Y-97923081D01*
X141363821Y-97870747D01*
X141363759Y-97870715D01*
X141360236Y-97868416D01*
X141299418Y-97829335D01*
X141297638Y-97828423D01*
X141296056Y-97827198D01*
X141291292Y-97824250D01*
X141253605Y-97801286D01*
X141238442Y-97793970D01*
X141224178Y-97785005D01*
X141219149Y-97782536D01*
X141208885Y-97777585D01*
X141197332Y-97773346D01*
X141186451Y-97767598D01*
X141160655Y-97759887D01*
X141135377Y-97750611D01*
X141123218Y-97748696D01*
X141111430Y-97745172D01*
X141084631Y-97742618D01*
X141058031Y-97738428D01*
X141045735Y-97738911D01*
X141033483Y-97737743D01*
X141006695Y-97740444D01*
X140979790Y-97741500D01*
X140967819Y-97744363D01*
X140955577Y-97745597D01*
X140929821Y-97753450D01*
X140903637Y-97759712D01*
X140892455Y-97764843D01*
X140880681Y-97768433D01*
X140856935Y-97781142D01*
X140832471Y-97792368D01*
X140822500Y-97799572D01*
X140811647Y-97805381D01*
X140807011Y-97808527D01*
X140788522Y-97821261D01*
X140771537Y-97835593D01*
X140753392Y-97848441D01*
X140749183Y-97852139D01*
X140709673Y-97887345D01*
X140707369Y-97889842D01*
X140704666Y-97891884D01*
X140700573Y-97895709D01*
X140644471Y-97948889D01*
X140644360Y-97949017D01*
X140644225Y-97949122D01*
X140640190Y-97953008D01*
X140571925Y-98019664D01*
X140571867Y-98019733D01*
X140569201Y-98022349D01*
X140493203Y-98097984D01*
X140493138Y-98098063D01*
X140491081Y-98100112D01*
X140411776Y-98180229D01*
X140411713Y-98180307D01*
X140409799Y-98182240D01*
X140331615Y-98262343D01*
X140331552Y-98262422D01*
X140329430Y-98264599D01*
X140256798Y-98340190D01*
X140256755Y-98340244D01*
X140253912Y-98343225D01*
X140191260Y-98409806D01*
X140190858Y-98410327D01*
X140190362Y-98410763D01*
X140186565Y-98414882D01*
X140138321Y-98467954D01*
X140135192Y-98472156D01*
X140131406Y-98475764D01*
X140127776Y-98480031D01*
X140098369Y-98515100D01*
X140082058Y-98538938D01*
X140064539Y-98561914D01*
X140061627Y-98566700D01*
X140054596Y-98578436D01*
X140039052Y-98611282D01*
X140023060Y-98643871D01*
X140022324Y-98646628D01*
X140021102Y-98649211D01*
X140012245Y-98684407D01*
X140002875Y-98719525D01*
X140002688Y-98722380D01*
X140001993Y-98725144D01*
X140000141Y-98761381D01*
X139997771Y-98797659D01*
X139998142Y-98800490D01*
X139997996Y-98803343D01*
X140003222Y-98839281D01*
X140007939Y-98875296D01*
X140008853Y-98878003D01*
X140009264Y-98880828D01*
X140021365Y-98915048D01*
X140032994Y-98949479D01*
X140035332Y-98954571D01*
X140045450Y-98976208D01*
X140054447Y-98991384D01*
X140061761Y-99007436D01*
X140064604Y-99012263D01*
X140092968Y-99059665D01*
X140094614Y-99061890D01*
X140095832Y-99064378D01*
X140098807Y-99069125D01*
X140142437Y-99137656D01*
X140142539Y-99137786D01*
X140142612Y-99137930D01*
X140145657Y-99142632D01*
X140201568Y-99227653D01*
X140201614Y-99227710D01*
X140203960Y-99231249D01*
X140269173Y-99328127D01*
X140269234Y-99328201D01*
X140270824Y-99330561D01*
X140308424Y-99385544D01*
X140376480Y-99485241D01*
X140432140Y-99568045D01*
X140422687Y-99590683D01*
X140385607Y-99678454D01*
X140347973Y-99766634D01*
X140332733Y-99801947D01*
X140297275Y-99808747D01*
X140185495Y-99829817D01*
X140120075Y-99842005D01*
X140120000Y-99842027D01*
X140118520Y-99842298D01*
X139998012Y-99865242D01*
X139997933Y-99865265D01*
X139994147Y-99865997D01*
X139885300Y-99887830D01*
X139885249Y-99887846D01*
X139880624Y-99888797D01*
X139788946Y-99908324D01*
X139788108Y-99908590D01*
X139787229Y-99908693D01*
X139781764Y-99909923D01*
X139712758Y-99925949D01*
X139707306Y-99927792D01*
X139701625Y-99928703D01*
X139696217Y-99930163D01*
X139655394Y-99941494D01*
X139631413Y-99950754D01*
X139606868Y-99958378D01*
X139601721Y-99960590D01*
X139593514Y-99964185D01*
X139586602Y-99968057D01*
X139582349Y-99969699D01*
X139582084Y-99969866D01*
X139577851Y-99971451D01*
X139551843Y-99987527D01*
X139525200Y-100002451D01*
X139518617Y-100008064D01*
X139511247Y-100012620D01*
X139488861Y-100033439D01*
X139465621Y-100053256D01*
X139460250Y-100060046D01*
X139453909Y-100065943D01*
X139435995Y-100090709D01*
X139417044Y-100114667D01*
X139413096Y-100122367D01*
X139408019Y-100129386D01*
X139395258Y-100157159D01*
X139381320Y-100184343D01*
X139378941Y-100192669D01*
X139375327Y-100200535D01*
X139373533Y-100205842D01*
X139365496Y-100230174D01*
X139357260Y-100266783D01*
X139348712Y-100303428D01*
X139348332Y-100306467D01*
X139348310Y-100306565D01*
X139348307Y-100306664D01*
X139348017Y-100308987D01*
X139341532Y-100363940D01*
X139341368Y-100372226D01*
X139339933Y-100380393D01*
X139339545Y-100385982D01*
X139334608Y-100465131D01*
X139334703Y-100467816D01*
X139334311Y-100470470D01*
X139334076Y-100476067D01*
X139330682Y-100572985D01*
X139330731Y-100573773D01*
X139330630Y-100574556D01*
X139330495Y-100580156D01*
X139328641Y-100688417D01*
X139328646Y-100688480D01*
X139328638Y-100688551D01*
X139328584Y-100694153D01*
X139328264Y-100807210D01*
X137472400Y-100807210D01*
X137472400Y-96247121D01*
X137505043Y-96214478D01*
X137576200Y-96107985D01*
X137625213Y-95989656D01*
X137650200Y-95864039D01*
X137650200Y-95735961D01*
X137625213Y-95610344D01*
X137576200Y-95492015D01*
X137505043Y-95385522D01*
X137414478Y-95294957D01*
X137307985Y-95223800D01*
X137189656Y-95174787D01*
X137064039Y-95149800D01*
X136935961Y-95149800D01*
X136810344Y-95174787D01*
X136692015Y-95223800D01*
X136585522Y-95294957D01*
X136494957Y-95385522D01*
X136423800Y-95492015D01*
X136374787Y-95610344D01*
X136349800Y-95735961D01*
X136349800Y-95864039D01*
X136374787Y-95989656D01*
X136423800Y-96107985D01*
X136494957Y-96214478D01*
X136527600Y-96247121D01*
X136527601Y-102176790D01*
X136525315Y-102200000D01*
X136534436Y-102292606D01*
X136561449Y-102381654D01*
X136605315Y-102463721D01*
X136649558Y-102517632D01*
X136649561Y-102517635D01*
X136664348Y-102535653D01*
X136682366Y-102550440D01*
X137692226Y-103560300D01*
X134925676Y-103560300D01*
X134887500Y-103556540D01*
X134735141Y-103571546D01*
X134701741Y-103581678D01*
X134588640Y-103615987D01*
X134453622Y-103688155D01*
X134395630Y-103735748D01*
X134366283Y-103759833D01*
X134335278Y-103785278D01*
X134310943Y-103814930D01*
X133293075Y-104832800D01*
X125937315Y-104832800D01*
X123467605Y-102363090D01*
X124603800Y-102363090D01*
X124603800Y-102716910D01*
X124672827Y-103063932D01*
X124808228Y-103390820D01*
X125004800Y-103685011D01*
X125254989Y-103935200D01*
X125549180Y-104131772D01*
X125876068Y-104267173D01*
X126223090Y-104336200D01*
X126576910Y-104336200D01*
X126923932Y-104267173D01*
X127250820Y-104131772D01*
X127545011Y-103935200D01*
X127795200Y-103685011D01*
X127991772Y-103390820D01*
X128127173Y-103063932D01*
X128196200Y-102716910D01*
X128196200Y-102363090D01*
X128127173Y-102016068D01*
X127991772Y-101689180D01*
X127795200Y-101394989D01*
X127545011Y-101144800D01*
X127250820Y-100948228D01*
X126923932Y-100812827D01*
X126576910Y-100743800D01*
X126223090Y-100743800D01*
X125876068Y-100812827D01*
X125549180Y-100948228D01*
X125254989Y-101144800D01*
X125004800Y-101394989D01*
X124808228Y-101689180D01*
X124672827Y-102016068D01*
X124603800Y-102363090D01*
X123467605Y-102363090D01*
X120033907Y-98929393D01*
X120016643Y-98908357D01*
X119932712Y-98839476D01*
X119836956Y-98788294D01*
X119733054Y-98756775D01*
X119652079Y-98748800D01*
X119652069Y-98748800D01*
X119625000Y-98746134D01*
X119597931Y-98748800D01*
X110415176Y-98748800D01*
X109307798Y-97283090D01*
X124603800Y-97283090D01*
X124603800Y-97636910D01*
X124672827Y-97983932D01*
X124808228Y-98310820D01*
X125004800Y-98605011D01*
X125254989Y-98855200D01*
X125549180Y-99051772D01*
X125876068Y-99187173D01*
X126223090Y-99256200D01*
X126576910Y-99256200D01*
X126923932Y-99187173D01*
X127250820Y-99051772D01*
X127251441Y-99051357D01*
X128551873Y-100351790D01*
X128568252Y-100371748D01*
X128588209Y-100388126D01*
X128588211Y-100388128D01*
X128621210Y-100415209D01*
X128647920Y-100437129D01*
X128738811Y-100485712D01*
X128837435Y-100515629D01*
X128914303Y-100523200D01*
X128914312Y-100523200D01*
X128939999Y-100525730D01*
X128965686Y-100523200D01*
X132292681Y-100523200D01*
X132292827Y-100523932D01*
X132428228Y-100850820D01*
X132624800Y-101145011D01*
X132874989Y-101395200D01*
X133169180Y-101591772D01*
X133496068Y-101727173D01*
X133843090Y-101796200D01*
X134196910Y-101796200D01*
X134543932Y-101727173D01*
X134870820Y-101591772D01*
X135165011Y-101395200D01*
X135415200Y-101145011D01*
X135611772Y-100850820D01*
X135747173Y-100523932D01*
X135816200Y-100176910D01*
X135816200Y-99823090D01*
X135747173Y-99476068D01*
X135611772Y-99149180D01*
X135415200Y-98854989D01*
X135165011Y-98604800D01*
X134870820Y-98408228D01*
X134543932Y-98272827D01*
X134196910Y-98203800D01*
X133843090Y-98203800D01*
X133496068Y-98272827D01*
X133169180Y-98408228D01*
X132874989Y-98604800D01*
X132624800Y-98854989D01*
X132428228Y-99149180D01*
X132292827Y-99476068D01*
X132292681Y-99476800D01*
X129156717Y-99476800D01*
X127991357Y-98311441D01*
X127991772Y-98310820D01*
X128127173Y-97983932D01*
X128196200Y-97636910D01*
X128196200Y-97283090D01*
X128127173Y-96936068D01*
X127991772Y-96609180D01*
X127795200Y-96314989D01*
X127545011Y-96064800D01*
X127250820Y-95868228D01*
X126923932Y-95732827D01*
X126576910Y-95663800D01*
X126223090Y-95663800D01*
X125876068Y-95732827D01*
X125549180Y-95868228D01*
X125254989Y-96064800D01*
X125004800Y-96314989D01*
X124808228Y-96609180D01*
X124672827Y-96936068D01*
X124603800Y-97283090D01*
X109307798Y-97283090D01*
X108460200Y-96161223D01*
X108460200Y-96150961D01*
X108435213Y-96025344D01*
X108386200Y-95907015D01*
X108315043Y-95800522D01*
X108224478Y-95709957D01*
X108117985Y-95638800D01*
X107999656Y-95589787D01*
X107874039Y-95564800D01*
X107745961Y-95564800D01*
X107620344Y-95589787D01*
X107502015Y-95638800D01*
X107395522Y-95709957D01*
X107304957Y-95800522D01*
X107233800Y-95907015D01*
X107184787Y-96025344D01*
X107159800Y-96150961D01*
X101779784Y-96150961D01*
X100956083Y-95327260D01*
X108893800Y-95327260D01*
X108893800Y-95572740D01*
X108941691Y-95813503D01*
X109035632Y-96040297D01*
X109172013Y-96244406D01*
X109345594Y-96417987D01*
X109549703Y-96554368D01*
X109776497Y-96648309D01*
X110017260Y-96696200D01*
X110262740Y-96696200D01*
X110503503Y-96648309D01*
X110730297Y-96554368D01*
X110934406Y-96417987D01*
X111107987Y-96244406D01*
X111244368Y-96040297D01*
X111338309Y-95813503D01*
X111386200Y-95572740D01*
X111386200Y-95327260D01*
X111433800Y-95327260D01*
X111433800Y-95572740D01*
X111481691Y-95813503D01*
X111575632Y-96040297D01*
X111712013Y-96244406D01*
X111885594Y-96417987D01*
X112089703Y-96554368D01*
X112316497Y-96648309D01*
X112557260Y-96696200D01*
X112802740Y-96696200D01*
X113043503Y-96648309D01*
X113270297Y-96554368D01*
X113474406Y-96417987D01*
X113647987Y-96244406D01*
X113784368Y-96040297D01*
X113878309Y-95813503D01*
X113926200Y-95572740D01*
X113926200Y-95327260D01*
X113973800Y-95327260D01*
X113973800Y-95572740D01*
X114021691Y-95813503D01*
X114115632Y-96040297D01*
X114252013Y-96244406D01*
X114425594Y-96417987D01*
X114629703Y-96554368D01*
X114856497Y-96648309D01*
X115097260Y-96696200D01*
X115342740Y-96696200D01*
X115583503Y-96648309D01*
X115810297Y-96554368D01*
X116014406Y-96417987D01*
X116187987Y-96244406D01*
X116324368Y-96040297D01*
X116418309Y-95813503D01*
X116466200Y-95572740D01*
X116466200Y-95327260D01*
X116513800Y-95327260D01*
X116513800Y-95572740D01*
X116561691Y-95813503D01*
X116655632Y-96040297D01*
X116792013Y-96244406D01*
X116965594Y-96417987D01*
X117169703Y-96554368D01*
X117396497Y-96648309D01*
X117637260Y-96696200D01*
X117882740Y-96696200D01*
X118123503Y-96648309D01*
X118350297Y-96554368D01*
X118554406Y-96417987D01*
X118727987Y-96244406D01*
X118864368Y-96040297D01*
X118958309Y-95813503D01*
X119006200Y-95572740D01*
X119006200Y-95327260D01*
X118958309Y-95086497D01*
X118864368Y-94859703D01*
X118727987Y-94655594D01*
X118554406Y-94482013D01*
X118350297Y-94345632D01*
X118123503Y-94251691D01*
X117882740Y-94203800D01*
X117637260Y-94203800D01*
X117396497Y-94251691D01*
X117169703Y-94345632D01*
X116965594Y-94482013D01*
X116792013Y-94655594D01*
X116655632Y-94859703D01*
X116561691Y-95086497D01*
X116513800Y-95327260D01*
X116466200Y-95327260D01*
X116418309Y-95086497D01*
X116324368Y-94859703D01*
X116187987Y-94655594D01*
X116014406Y-94482013D01*
X115810297Y-94345632D01*
X115583503Y-94251691D01*
X115342740Y-94203800D01*
X115097260Y-94203800D01*
X114856497Y-94251691D01*
X114629703Y-94345632D01*
X114425594Y-94482013D01*
X114252013Y-94655594D01*
X114115632Y-94859703D01*
X114021691Y-95086497D01*
X113973800Y-95327260D01*
X113926200Y-95327260D01*
X113878309Y-95086497D01*
X113784368Y-94859703D01*
X113647987Y-94655594D01*
X113474406Y-94482013D01*
X113270297Y-94345632D01*
X113043503Y-94251691D01*
X112802740Y-94203800D01*
X112557260Y-94203800D01*
X112316497Y-94251691D01*
X112089703Y-94345632D01*
X111885594Y-94482013D01*
X111712013Y-94655594D01*
X111575632Y-94859703D01*
X111481691Y-95086497D01*
X111433800Y-95327260D01*
X111386200Y-95327260D01*
X111338309Y-95086497D01*
X111244368Y-94859703D01*
X111107987Y-94655594D01*
X110934406Y-94482013D01*
X110730297Y-94345632D01*
X110503503Y-94251691D01*
X110262740Y-94203800D01*
X110017260Y-94203800D01*
X109776497Y-94251691D01*
X109549703Y-94345632D01*
X109345594Y-94482013D01*
X109172013Y-94655594D01*
X109035632Y-94859703D01*
X108941691Y-95086497D01*
X108893800Y-95327260D01*
X100956083Y-95327260D01*
X100736192Y-95107370D01*
X100721401Y-95089347D01*
X100649469Y-95030314D01*
X100567402Y-94986448D01*
X100478354Y-94959436D01*
X100451292Y-94956771D01*
X100414478Y-94919957D01*
X100307985Y-94848800D01*
X100189656Y-94799787D01*
X100064039Y-94774800D01*
X99935961Y-94774800D01*
X99810344Y-94799787D01*
X99692015Y-94848800D01*
X99622400Y-94895316D01*
X99622400Y-94872121D01*
X99655043Y-94839478D01*
X99726200Y-94732985D01*
X99775213Y-94614656D01*
X99800200Y-94489039D01*
X99800200Y-94360961D01*
X99775213Y-94235344D01*
X99726200Y-94117015D01*
X99655043Y-94010522D01*
X99564478Y-93919957D01*
X99457985Y-93848800D01*
X99339656Y-93799787D01*
X99214039Y-93774800D01*
X99085961Y-93774800D01*
X98960344Y-93799787D01*
X98842015Y-93848800D01*
X98735522Y-93919957D01*
X98718051Y-93937428D01*
X98710442Y-93928157D01*
X98710440Y-93928155D01*
X98695653Y-93910137D01*
X98677635Y-93895350D01*
X97939654Y-93157370D01*
X97924863Y-93139347D01*
X97852931Y-93080314D01*
X97770864Y-93036448D01*
X97681816Y-93009436D01*
X97612410Y-93002600D01*
X97589210Y-93000315D01*
X97566010Y-93002600D01*
X95883200Y-93002600D01*
X95860000Y-93000315D01*
X95767394Y-93009436D01*
X95678345Y-93036448D01*
X95596279Y-93080314D01*
X95542625Y-93124347D01*
X95524347Y-93139347D01*
X95509560Y-93157365D01*
X93699326Y-94967600D01*
X90973202Y-94967600D01*
X90924368Y-94849703D01*
X90787987Y-94645594D01*
X90614406Y-94472013D01*
X90410297Y-94335632D01*
X90183503Y-94241691D01*
X89942740Y-94193800D01*
X89697260Y-94193800D01*
X89456497Y-94241691D01*
X89229703Y-94335632D01*
X89025594Y-94472013D01*
X88852013Y-94645594D01*
X88715632Y-94849703D01*
X88621691Y-95076497D01*
X88573800Y-95317260D01*
X88573800Y-95562740D01*
X88621691Y-95803503D01*
X88715632Y-96030297D01*
X88726259Y-96046201D01*
X88554276Y-96046201D01*
X88429475Y-95921400D01*
X88478309Y-95803503D01*
X88526200Y-95562740D01*
X88526200Y-95317260D01*
X88478309Y-95076497D01*
X88384368Y-94849703D01*
X88247987Y-94645594D01*
X88074406Y-94472013D01*
X87870297Y-94335632D01*
X87643503Y-94241691D01*
X87402740Y-94193800D01*
X87157260Y-94193800D01*
X86916497Y-94241691D01*
X86689703Y-94335632D01*
X86485594Y-94472013D01*
X86312013Y-94645594D01*
X86175632Y-94849703D01*
X86081691Y-95076497D01*
X86033800Y-95317260D01*
X86033800Y-95562740D01*
X86081691Y-95803503D01*
X86175632Y-96030297D01*
X86312013Y-96234406D01*
X86428619Y-96351012D01*
X86319087Y-96351012D01*
X85889475Y-95921400D01*
X85938309Y-95803503D01*
X85986200Y-95562740D01*
X85986200Y-95317260D01*
X85938309Y-95076497D01*
X85844368Y-94849703D01*
X85707987Y-94645594D01*
X85534406Y-94472013D01*
X85330297Y-94335632D01*
X85103503Y-94241691D01*
X84862740Y-94193800D01*
X84617260Y-94193800D01*
X84376497Y-94241691D01*
X84149703Y-94335632D01*
X83945594Y-94472013D01*
X83772013Y-94645594D01*
X83635632Y-94849703D01*
X83541691Y-95076497D01*
X83493800Y-95317260D01*
X83493800Y-95562740D01*
X83541691Y-95803503D01*
X83635632Y-96030297D01*
X83772013Y-96234406D01*
X83945594Y-96407987D01*
X84149703Y-96544368D01*
X84376497Y-96638309D01*
X84464545Y-96655823D01*
X84083898Y-96655823D01*
X83349475Y-95921400D01*
X83398309Y-95803503D01*
X83446200Y-95562740D01*
X83446200Y-95317260D01*
X83398309Y-95076497D01*
X83304368Y-94849703D01*
X83167987Y-94645594D01*
X82994406Y-94472013D01*
X82790297Y-94335632D01*
X82563503Y-94241691D01*
X82322740Y-94193800D01*
X82077260Y-94193800D01*
X81836497Y-94241691D01*
X81609703Y-94335632D01*
X81531200Y-94388086D01*
X81531200Y-93523314D01*
X82103315Y-92951200D01*
X118181686Y-92951200D01*
X119433949Y-94203464D01*
X119372331Y-94209533D01*
X119297647Y-94232188D01*
X119228818Y-94268978D01*
X119168489Y-94318489D01*
X119118978Y-94378818D01*
X119082188Y-94447647D01*
X119059533Y-94522331D01*
X119051883Y-94600000D01*
X119051883Y-96300000D01*
X119059533Y-96377669D01*
X119082188Y-96452353D01*
X119118978Y-96521182D01*
X119168489Y-96581511D01*
X119228818Y-96631022D01*
X119297647Y-96667812D01*
X119372331Y-96690467D01*
X119450000Y-96698117D01*
X121150000Y-96698117D01*
X121227669Y-96690467D01*
X121302353Y-96667812D01*
X121371182Y-96631022D01*
X121431511Y-96581511D01*
X121481022Y-96521182D01*
X121517812Y-96452353D01*
X121540467Y-96377669D01*
X121548117Y-96300000D01*
X121548117Y-95100000D01*
X141836980Y-95100000D01*
X141856214Y-95295289D01*
X141913178Y-95483074D01*
X142005682Y-95656137D01*
X142130172Y-95807828D01*
X142281863Y-95932318D01*
X142454926Y-96024822D01*
X142642711Y-96081786D01*
X142789061Y-96096200D01*
X143210939Y-96096200D01*
X143357289Y-96081786D01*
X143545074Y-96024822D01*
X143718137Y-95932318D01*
X143869828Y-95807828D01*
X143994318Y-95656137D01*
X144086822Y-95483074D01*
X144143786Y-95295289D01*
X144163020Y-95100000D01*
X144143786Y-94904711D01*
X144086822Y-94716926D01*
X143994318Y-94543863D01*
X143869828Y-94392172D01*
X143718137Y-94267682D01*
X143545074Y-94175178D01*
X143357289Y-94118214D01*
X143210939Y-94103800D01*
X142789061Y-94103800D01*
X142642711Y-94118214D01*
X142454926Y-94175178D01*
X142281863Y-94267682D01*
X142130172Y-94392172D01*
X142005682Y-94543863D01*
X141913178Y-94716926D01*
X141856214Y-94904711D01*
X141836980Y-95100000D01*
X121548117Y-95100000D01*
X121548117Y-94600000D01*
X121540467Y-94522331D01*
X121517812Y-94447647D01*
X121481022Y-94378818D01*
X121431511Y-94318489D01*
X121371182Y-94268978D01*
X121302353Y-94232188D01*
X121227669Y-94209533D01*
X121150000Y-94201883D01*
X120845189Y-94201883D01*
X120843225Y-94181945D01*
X120827465Y-94129995D01*
X120811706Y-94078044D01*
X120775615Y-94010522D01*
X120760524Y-93982287D01*
X120708905Y-93919390D01*
X120708902Y-93919387D01*
X120691643Y-93898357D01*
X120670613Y-93881098D01*
X119260714Y-92471200D01*
X137506622Y-92471200D01*
X137539807Y-92575812D01*
G37*
X137539807Y-92575812D02*
X137556634Y-92615071D01*
X137572906Y-92654551D01*
X137576035Y-92660338D01*
X137679459Y-92848466D01*
X137703579Y-92883692D01*
X137727221Y-92919276D01*
X137731415Y-92924346D01*
X137869410Y-93088801D01*
X137899915Y-93118674D01*
X137930015Y-93148985D01*
X137935114Y-93153144D01*
X138102424Y-93287664D01*
X138138121Y-93311024D01*
X138173567Y-93334932D01*
X138179376Y-93338021D01*
X138369630Y-93437482D01*
X138409232Y-93453482D01*
X138448595Y-93470029D01*
X138454893Y-93471931D01*
X138660842Y-93532545D01*
X138702805Y-93540550D01*
X138744627Y-93549135D01*
X138751175Y-93549777D01*
X138964974Y-93569234D01*
X139007712Y-93568936D01*
X139050384Y-93569234D01*
X139056932Y-93568592D01*
X139056934Y-93568592D01*
X139270439Y-93546152D01*
X139312290Y-93537561D01*
X139354227Y-93529561D01*
X139360525Y-93527660D01*
X139565606Y-93464176D01*
X139604989Y-93447621D01*
X139644572Y-93431628D01*
X139650381Y-93428540D01*
X139839226Y-93326432D01*
X139874662Y-93302530D01*
X139910366Y-93279166D01*
X139915465Y-93275008D01*
X140080881Y-93138165D01*
X140110980Y-93107855D01*
X140141489Y-93077979D01*
X140145683Y-93072909D01*
X140281367Y-92906542D01*
X140304982Y-92870999D01*
X140329128Y-92835734D01*
X140332258Y-92829947D01*
X140433045Y-92640393D01*
X140449317Y-92600914D01*
X140466144Y-92561654D01*
X140468090Y-92555369D01*
X140493502Y-92471200D01*
X150746622Y-92471200D01*
X150779807Y-92575812D01*
X150796634Y-92615071D01*
X150812906Y-92654551D01*
X150816035Y-92660338D01*
X150919459Y-92848466D01*
X150943579Y-92883692D01*
X150967221Y-92919276D01*
X150971415Y-92924346D01*
X151109410Y-93088801D01*
X151139915Y-93118674D01*
X151170015Y-93148985D01*
X151175114Y-93153144D01*
X151342424Y-93287664D01*
X151378121Y-93311024D01*
X151413567Y-93334932D01*
X151419376Y-93338021D01*
X151573800Y-93418751D01*
X151573800Y-95271181D01*
X151473792Y-95371189D01*
X151365840Y-95532752D01*
X151291481Y-95712270D01*
X151253573Y-95902845D01*
X151253573Y-96097155D01*
X151291481Y-96287730D01*
X151365840Y-96467248D01*
X151473792Y-96628811D01*
X151573800Y-96728819D01*
X151573800Y-103271181D01*
X151473792Y-103371189D01*
X151365840Y-103532752D01*
X151291481Y-103712270D01*
X151253573Y-103902845D01*
X151253573Y-104097155D01*
X151291481Y-104287730D01*
X151365840Y-104467248D01*
X151473792Y-104628811D01*
X151573800Y-104728819D01*
X151573800Y-106580014D01*
X151400774Y-106673568D01*
X151365353Y-106697460D01*
X151329634Y-106720834D01*
X151324535Y-106724992D01*
X151159119Y-106861835D01*
X151129003Y-106892162D01*
X151098511Y-106922021D01*
X151094322Y-106927085D01*
X151094319Y-106927088D01*
X151094317Y-106927091D01*
X150958632Y-107093458D01*
X150935000Y-107129027D01*
X150910872Y-107164266D01*
X150907742Y-107170054D01*
X150806954Y-107359607D01*
X150790657Y-107399147D01*
X150773856Y-107438346D01*
X150771910Y-107444631D01*
X150746498Y-107528800D01*
X140388967Y-107528800D01*
X140368278Y-107463580D01*
X140351456Y-107424331D01*
X140335180Y-107384843D01*
X140332051Y-107379055D01*
X140238028Y-107208030D01*
X140213882Y-107172765D01*
X140190267Y-107137222D01*
X140186074Y-107132152D01*
X140060624Y-106982646D01*
X140030115Y-106952770D01*
X140000016Y-106922460D01*
X139994918Y-106918302D01*
X139842818Y-106796011D01*
X139807088Y-106772630D01*
X139771678Y-106748746D01*
X139765869Y-106745657D01*
X139592914Y-106655238D01*
X139553324Y-106639243D01*
X139513943Y-106622688D01*
X139507645Y-106620787D01*
X139320419Y-106565684D01*
X139278490Y-106557686D01*
X139236636Y-106549094D01*
X139230088Y-106548452D01*
X139035727Y-106530763D01*
X138993019Y-106531061D01*
X138950311Y-106530763D01*
X138943764Y-106531405D01*
X138749667Y-106551806D01*
X138707826Y-106560395D01*
X138665883Y-106568396D01*
X138659589Y-106570297D01*
X138659583Y-106570298D01*
X138659577Y-106570300D01*
X138473147Y-106628010D01*
X138433772Y-106644561D01*
X138394180Y-106660558D01*
X138388370Y-106663646D01*
X138216694Y-106756471D01*
X138181288Y-106780353D01*
X138145550Y-106803739D01*
X138140452Y-106807897D01*
X137990074Y-106932301D01*
X137959993Y-106962592D01*
X137929469Y-106992484D01*
X137925275Y-106997554D01*
X137801925Y-107148796D01*
X137778283Y-107184380D01*
X137754163Y-107219606D01*
X137751034Y-107225393D01*
X137659409Y-107397715D01*
X137643134Y-107437201D01*
X137626311Y-107476453D01*
X137624365Y-107482738D01*
X137610458Y-107528800D01*
X135550714Y-107528800D01*
X136445523Y-106633992D01*
X136489656Y-106625213D01*
X136607985Y-106576200D01*
X136714478Y-106505043D01*
X136805043Y-106414478D01*
X136876200Y-106307985D01*
X136925213Y-106189656D01*
X136950200Y-106064039D01*
X136950200Y-105935961D01*
X136925213Y-105810344D01*
X136876200Y-105692015D01*
X136805043Y-105585522D01*
X136714478Y-105494957D01*
X136607985Y-105423800D01*
X136489656Y-105374787D01*
X136364039Y-105349800D01*
X136235961Y-105349800D01*
X136110344Y-105374787D01*
X135992015Y-105423800D01*
X135885522Y-105494957D01*
X135794957Y-105585522D01*
X135723800Y-105692015D01*
X135674787Y-105810344D01*
X135666008Y-105854477D01*
X134461686Y-107058800D01*
X114560714Y-107058800D01*
X114824471Y-106795043D01*
X114856497Y-106808309D01*
X115097260Y-106856200D01*
X115342740Y-106856200D01*
X115583503Y-106808309D01*
X115810297Y-106714368D01*
X116014406Y-106577987D01*
X116187987Y-106404406D01*
X116324368Y-106200297D01*
X116418309Y-105973503D01*
X116466200Y-105732740D01*
X116466200Y-105487260D01*
X116418309Y-105246497D01*
X116324368Y-105019703D01*
X116187987Y-104815594D01*
X116014406Y-104642013D01*
X115923691Y-104581399D01*
X117867801Y-104581399D01*
X117891001Y-104583684D01*
X117983607Y-104574563D01*
X117983610Y-104574562D01*
X118072655Y-104547551D01*
X118154722Y-104503685D01*
X118226654Y-104444652D01*
X118241445Y-104426629D01*
X118792874Y-103875200D01*
X118839039Y-103875200D01*
X118964656Y-103850213D01*
X119082985Y-103801200D01*
X119189478Y-103730043D01*
X119280043Y-103639478D01*
X119351200Y-103532985D01*
X119400213Y-103414656D01*
X119425200Y-103289039D01*
X119425200Y-103160961D01*
X119400213Y-103035344D01*
X119351200Y-102917015D01*
X119280043Y-102810522D01*
X119189478Y-102719957D01*
X119082985Y-102648800D01*
X118964656Y-102599787D01*
X118839039Y-102574800D01*
X118710961Y-102574800D01*
X118585344Y-102599787D01*
X118467015Y-102648800D01*
X118360522Y-102719957D01*
X118269957Y-102810522D01*
X118198800Y-102917015D01*
X118149787Y-103035344D01*
X118124800Y-103160961D01*
X118124800Y-103207126D01*
X117695327Y-103636599D01*
X115863649Y-103636599D01*
X115926200Y-103542985D01*
X115975213Y-103424656D01*
X116000200Y-103299039D01*
X116000200Y-103170961D01*
X115975213Y-103045344D01*
X115926200Y-102927015D01*
X115855043Y-102820522D01*
X115764478Y-102729957D01*
X115657985Y-102658800D01*
X115539656Y-102609787D01*
X115414039Y-102584800D01*
X115285961Y-102584800D01*
X115160344Y-102609787D01*
X115042015Y-102658800D01*
X114935522Y-102729957D01*
X114844957Y-102820522D01*
X114773800Y-102927015D01*
X114724787Y-103045344D01*
X114699800Y-103170961D01*
X114699800Y-103217126D01*
X114586913Y-103330013D01*
X112194039Y-103330013D01*
X112200200Y-103299039D01*
X112200200Y-103170961D01*
X112175213Y-103045344D01*
X112126200Y-102927015D01*
X112055043Y-102820522D01*
X111964478Y-102729957D01*
X111857985Y-102658800D01*
X111739656Y-102609787D01*
X111614039Y-102584800D01*
X111485961Y-102584800D01*
X111360344Y-102609787D01*
X111242015Y-102658800D01*
X111135522Y-102729957D01*
X111044957Y-102820522D01*
X110973800Y-102927015D01*
X110933130Y-103025202D01*
X108660200Y-103025202D01*
X108660200Y-102950961D01*
X108635213Y-102825344D01*
X108586200Y-102707015D01*
X108515043Y-102600522D01*
X108424478Y-102509957D01*
X108317985Y-102438800D01*
X108199656Y-102389787D01*
X108074039Y-102364800D01*
X107993623Y-102364800D01*
X101779784Y-96150961D01*
X107159800Y-96150961D01*
X107159800Y-96279039D01*
X107184787Y-96404656D01*
X107233800Y-96522985D01*
X107304957Y-96629478D01*
X107395522Y-96720043D01*
X107502015Y-96791200D01*
X107578411Y-96822844D01*
X109675002Y-99597864D01*
X109680266Y-99607712D01*
X109707678Y-99641113D01*
X109717322Y-99653878D01*
X109724848Y-99662035D01*
X109749147Y-99691643D01*
X109761583Y-99701849D01*
X109772498Y-99713679D01*
X109803470Y-99736225D01*
X109833078Y-99760524D01*
X109847272Y-99768111D01*
X109860280Y-99777580D01*
X109895049Y-99793648D01*
X109928834Y-99811706D01*
X109944234Y-99816378D01*
X109958841Y-99823128D01*
X109996069Y-99832102D01*
X110032736Y-99843225D01*
X110048759Y-99844803D01*
X110064394Y-99848572D01*
X110102654Y-99850111D01*
X110113711Y-99851200D01*
X110129727Y-99851200D01*
X110172884Y-99852936D01*
X110183911Y-99851200D01*
X119396686Y-99851200D01*
X124378285Y-104832800D01*
X121279484Y-104832800D01*
X121267987Y-104815594D01*
X121094406Y-104642013D01*
X120890297Y-104505632D01*
X120663503Y-104411691D01*
X120422740Y-104363800D01*
X120177260Y-104363800D01*
X119936497Y-104411691D01*
X119709703Y-104505632D01*
X119505594Y-104642013D01*
X119332013Y-104815594D01*
X119195632Y-105019703D01*
X119101691Y-105246497D01*
X119053800Y-105487260D01*
X119053800Y-105732740D01*
X119101691Y-105973503D01*
X119195632Y-106200297D01*
X119332013Y-106404406D01*
X119505594Y-106577987D01*
X119709703Y-106714368D01*
X119936497Y-106808309D01*
X120177260Y-106856200D01*
X120422740Y-106856200D01*
X120663503Y-106808309D01*
X120890297Y-106714368D01*
X121094406Y-106577987D01*
X121267987Y-106404406D01*
X121279484Y-106387200D01*
X133576832Y-106387200D01*
X133615000Y-106390959D01*
X133653168Y-106387200D01*
X133653176Y-106387200D01*
X133767358Y-106375954D01*
X133913860Y-106331513D01*
X134048878Y-106259345D01*
X134167222Y-106162222D01*
X134191565Y-106132560D01*
X135209427Y-105114700D01*
X139662102Y-105114700D01*
X139713178Y-105283074D01*
X139805682Y-105456137D01*
X139930172Y-105607828D01*
X140081863Y-105732318D01*
X140254926Y-105824822D01*
X140442711Y-105881786D01*
X140589061Y-105896200D01*
X141010939Y-105896200D01*
X141157289Y-105881786D01*
X141345074Y-105824822D01*
X141518137Y-105732318D01*
X141669828Y-105607828D01*
X141794318Y-105456137D01*
X141886822Y-105283074D01*
X141943786Y-105095289D01*
X141963020Y-104900000D01*
X141943786Y-104704711D01*
X141886822Y-104516926D01*
X141794318Y-104343863D01*
X141669828Y-104192172D01*
X141518137Y-104067682D01*
X141345074Y-103975178D01*
X141157289Y-103918214D01*
X141010939Y-103903800D01*
X140802925Y-103903800D01*
X140714065Y-103814940D01*
X140689722Y-103785278D01*
X140571378Y-103688155D01*
X140436360Y-103615987D01*
X140289858Y-103571546D01*
X140175676Y-103560300D01*
X140175668Y-103560300D01*
X140137500Y-103556541D01*
X140099332Y-103560300D01*
X139028374Y-103560300D01*
X137472400Y-102004326D01*
X137472400Y-100807210D01*
X139328264Y-100807210D01*
X139328264Y-100807213D01*
X139328286Y-100812816D01*
X139329497Y-100924486D01*
X139329531Y-100924799D01*
X139329504Y-100925116D01*
X139329613Y-100930717D01*
X139332350Y-101034450D01*
X139332531Y-101035902D01*
X139332437Y-101037368D01*
X139332665Y-101042965D01*
X139336924Y-101132338D01*
X139337578Y-101136806D01*
X139337453Y-101141324D01*
X139337884Y-101146910D01*
X139343660Y-101215495D01*
X139346435Y-101230592D01*
X139347396Y-101245907D01*
X139348329Y-101251430D01*
X139355617Y-101292801D01*
X139360252Y-101309413D01*
X139363045Y-101326444D01*
X139370754Y-101347048D01*
X139376662Y-101368221D01*
X139383687Y-101382133D01*
X139385372Y-101387563D01*
X139387119Y-101390789D01*
X139390483Y-101399779D01*
X139392984Y-101404792D01*
X139397356Y-101413405D01*
X139407562Y-101429417D01*
X139411954Y-101438116D01*
X139414569Y-101441465D01*
X139422666Y-101456412D01*
X139431773Y-101467403D01*
X139439441Y-101479434D01*
X139456694Y-101497480D01*
X139472623Y-101516705D01*
X139483687Y-101525715D01*
X139493549Y-101536030D01*
X139513979Y-101550382D01*
X139533339Y-101566147D01*
X139545944Y-101572837D01*
X139557621Y-101581040D01*
X139580448Y-101591150D01*
X139602501Y-101602854D01*
X139607697Y-101604949D01*
X139633828Y-101615272D01*
X139653477Y-101620890D01*
X139672502Y-101628317D01*
X139677905Y-101629798D01*
X139733276Y-101644557D01*
X139738114Y-101645351D01*
X139742743Y-101646957D01*
X139748198Y-101648230D01*
X139825485Y-101665690D01*
X139827537Y-101665947D01*
X139829510Y-101666578D01*
X139834995Y-101667718D01*
X139926872Y-101686146D01*
X139926916Y-101686150D01*
X139926957Y-101686163D01*
X139932457Y-101687225D01*
X139964529Y-101693186D01*
X139964590Y-101693191D01*
X139965555Y-101693375D01*
X140119357Y-101721548D01*
X140239521Y-101743987D01*
X140306171Y-101756935D01*
X140330183Y-101815861D01*
X140364959Y-101904654D01*
X140398356Y-101993129D01*
X140410839Y-102027650D01*
X140370278Y-102087003D01*
X140305995Y-102180729D01*
X140287526Y-102207600D01*
X140287479Y-102207685D01*
X140285776Y-102210167D01*
X140219920Y-102307588D01*
X140219659Y-102308070D01*
X140219310Y-102308493D01*
X140216218Y-102313164D01*
X140158267Y-102402052D01*
X140157658Y-102403222D01*
X140156839Y-102404258D01*
X140153843Y-102408991D01*
X140106955Y-102484241D01*
X140105250Y-102487686D01*
X140102968Y-102490778D01*
X140100130Y-102495609D01*
X140067461Y-102552117D01*
X140061451Y-102565345D01*
X140053862Y-102577734D01*
X140051451Y-102582791D01*
X140036158Y-102615452D01*
X140033082Y-102624142D01*
X140028744Y-102632279D01*
X140020040Y-102660992D01*
X140010033Y-102689266D01*
X140008704Y-102698389D01*
X140006029Y-102707212D01*
X140004973Y-102712713D01*
X140004232Y-102716725D01*
X140002031Y-102742588D01*
X139998127Y-102768250D01*
X139998718Y-102781514D01*
X139997592Y-102794744D01*
X140000457Y-102820545D01*
X140001612Y-102846473D01*
X140004768Y-102859369D01*
X140006233Y-102872566D01*
X140014052Y-102897312D01*
X140020223Y-102922529D01*
X140025826Y-102934571D01*
X140029825Y-102947228D01*
X140042301Y-102969982D01*
X140053253Y-102993522D01*
X140056134Y-102998326D01*
X140068983Y-103019417D01*
X140086246Y-103042367D01*
X140102288Y-103066188D01*
X140105885Y-103070482D01*
X140141389Y-103112262D01*
X140145409Y-103116150D01*
X140148723Y-103120653D01*
X140152497Y-103124793D01*
X140206091Y-103182774D01*
X140207081Y-103183655D01*
X140207884Y-103184700D01*
X140211742Y-103188762D01*
X140278692Y-103258274D01*
X140278698Y-103258281D01*
X140278800Y-103258386D01*
X140278864Y-103258452D01*
X140278869Y-103258456D01*
X140282610Y-103262291D01*
X140358695Y-103339201D01*
X140358753Y-103339249D01*
X140361723Y-103342229D01*
X140442206Y-103421867D01*
X140442266Y-103421916D01*
X140445112Y-103424714D01*
X140525429Y-103502592D01*
X140525476Y-103502629D01*
X140528759Y-103505784D01*
X140604347Y-103577409D01*
X140604605Y-103577610D01*
X140604823Y-103577860D01*
X140608923Y-103581678D01*
X140675217Y-103642562D01*
X140677245Y-103644088D01*
X140678958Y-103645954D01*
X140683157Y-103649662D01*
X140735593Y-103695313D01*
X140743952Y-103701263D01*
X140751374Y-103708360D01*
X140755806Y-103711787D01*
X140789820Y-103737716D01*
X140793104Y-103739746D01*
X140795980Y-103742319D01*
X140824295Y-103759078D01*
X140827940Y-103761918D01*
X140833539Y-103764737D01*
X140856426Y-103778882D01*
X140860039Y-103780234D01*
X140863362Y-103782201D01*
X140868455Y-103784535D01*
X140877865Y-103788768D01*
X140888174Y-103792241D01*
X140897879Y-103797127D01*
X140925192Y-103804713D01*
X140927741Y-103805572D01*
X140929758Y-103806327D01*
X140930194Y-103806399D01*
X140952067Y-103813768D01*
X140962845Y-103815172D01*
X140973323Y-103818082D01*
X141001603Y-103820219D01*
X141029711Y-103823880D01*
X141040558Y-103823163D01*
X141051401Y-103823983D01*
X141079551Y-103820588D01*
X141107842Y-103818719D01*
X141118344Y-103815909D01*
X141129138Y-103814607D01*
X141156094Y-103805808D01*
X141183481Y-103798480D01*
X141193236Y-103793684D01*
X141203573Y-103790310D01*
X141208688Y-103788024D01*
X141230590Y-103778053D01*
X141247788Y-103768093D01*
X141265870Y-103759833D01*
X141270695Y-103756985D01*
X141315538Y-103730093D01*
X141319081Y-103727467D01*
X141323023Y-103725492D01*
X141327742Y-103722473D01*
X141388222Y-103683189D01*
X141389296Y-103682332D01*
X141390511Y-103681691D01*
X141395167Y-103678574D01*
X141441699Y-103646955D01*
X141441772Y-103646895D01*
X141443644Y-103645625D01*
X141527431Y-103587969D01*
X141626790Y-103519990D01*
X141725988Y-103452436D01*
X141760887Y-103428777D01*
X141774241Y-103435720D01*
X141778327Y-103437360D01*
X141782064Y-103439679D01*
X141787107Y-103442119D01*
X141846375Y-103470286D01*
X141855584Y-103473605D01*
X141864208Y-103478235D01*
X141869394Y-103480355D01*
X141909496Y-103496420D01*
X141938661Y-103504910D01*
X141967417Y-103514671D01*
X141972881Y-103515907D01*
X141983089Y-103518142D01*
X142014042Y-103521805D01*
X142044836Y-103526704D01*
X142052869Y-103526401D01*
X142060847Y-103527345D01*
X142091931Y-103524926D01*
X142123082Y-103523750D01*
X142130897Y-103521894D01*
X142138911Y-103521270D01*
X142168934Y-103512859D01*
X142199263Y-103505655D01*
X142206572Y-103502315D01*
X142214309Y-103500147D01*
X142242125Y-103486066D01*
X142270478Y-103473107D01*
X142276998Y-103468411D01*
X142284167Y-103464782D01*
X142308716Y-103445567D01*
X142334015Y-103427347D01*
X142339500Y-103421473D01*
X142345827Y-103416521D01*
X142366170Y-103392912D01*
X142387454Y-103370118D01*
X142390828Y-103365646D01*
X142403102Y-103349142D01*
X142418258Y-103323957D01*
X142434621Y-103299549D01*
X142437237Y-103294596D01*
X142461453Y-103247955D01*
X142463124Y-103243785D01*
X142465492Y-103239960D01*
X142467927Y-103234915D01*
X142502276Y-103162442D01*
X142502445Y-103161971D01*
X142502703Y-103161539D01*
X142505055Y-103156454D01*
X142547729Y-103062451D01*
X142547755Y-103062374D01*
X142549329Y-103058881D01*
X142598523Y-102947649D01*
X142598554Y-102947554D01*
X142599619Y-102945148D01*
X142653523Y-102820989D01*
X142653553Y-102820897D01*
X142654372Y-102819018D01*
X142711179Y-102686235D01*
X142711205Y-102686152D01*
X142711909Y-102684518D01*
X142769810Y-102547413D01*
X142769834Y-102547336D01*
X142770505Y-102545758D01*
X142827694Y-102408633D01*
X142827719Y-102408552D01*
X142828419Y-102406884D01*
X142883088Y-102274040D01*
X142883116Y-102273946D01*
X142883921Y-102271999D01*
X142934261Y-102147739D01*
X142934289Y-102147643D01*
X142935318Y-102145103D01*
X142979522Y-102033730D01*
X142979543Y-102033659D01*
X142981031Y-102029871D01*
X143017292Y-101935685D01*
X143017500Y-101934933D01*
X143017844Y-101934241D01*
X143019800Y-101928992D01*
X143040520Y-101872175D01*
X143068512Y-101947746D01*
X143068657Y-101948044D01*
X143068742Y-101948366D01*
X143070733Y-101953602D01*
X143108737Y-102051480D01*
X143108775Y-102051554D01*
X143110120Y-102054994D01*
X143155711Y-102169216D01*
X143155756Y-102169303D01*
X143156705Y-102171683D01*
X143208076Y-102297950D01*
X143208118Y-102298029D01*
X143208873Y-102299895D01*
X143264214Y-102433904D01*
X143264252Y-102433975D01*
X143264922Y-102435609D01*
X143322426Y-102573060D01*
X143322469Y-102573140D01*
X143323117Y-102574700D01*
X143380974Y-102711289D01*
X143381015Y-102711365D01*
X143381716Y-102713029D01*
X143438119Y-102844459D01*
X143438163Y-102844539D01*
X143438995Y-102846486D01*
X143492136Y-102968454D01*
X143492182Y-102968536D01*
X143493292Y-102971084D01*
X143541360Y-103079287D01*
X143541398Y-103079355D01*
X143543102Y-103083152D01*
X143584291Y-103173292D01*
X143584751Y-103174083D01*
X143585055Y-103174956D01*
X143587442Y-103180024D01*
X143619943Y-103247798D01*
X143623110Y-103253023D01*
X143625377Y-103258703D01*
X143627986Y-103263661D01*
X143649990Y-103304768D01*
X143670239Y-103335061D01*
X143690061Y-103365610D01*
X143693498Y-103369857D01*
X143693503Y-103369865D01*
X143693509Y-103369871D01*
X143693585Y-103369965D01*
X143702446Y-103380761D01*
X143729711Y-103408047D01*
X143757096Y-103435576D01*
X143757473Y-103435830D01*
X143757792Y-103436149D01*
X143789936Y-103457686D01*
X143822048Y-103479305D01*
X143822464Y-103479480D01*
X143822841Y-103479732D01*
X143858594Y-103494631D01*
X143894256Y-103509586D01*
X143894700Y-103509677D01*
X143895118Y-103509851D01*
X143933263Y-103517558D01*
X143970972Y-103525264D01*
X143971420Y-103525267D01*
X143971867Y-103525357D01*
X144010803Y-103525508D01*
X144049270Y-103525743D01*
X144049712Y-103525658D01*
X144050167Y-103525660D01*
X144088278Y-103518267D01*
X144126171Y-103511005D01*
X144126982Y-103510759D01*
X144127035Y-103510749D01*
X144127090Y-103510727D01*
X144131532Y-103509381D01*
X144158608Y-103500974D01*
X144177786Y-103492893D01*
X144197631Y-103486601D01*
X144202765Y-103484359D01*
X144253428Y-103461812D01*
X144258638Y-103458854D01*
X144264264Y-103456795D01*
X144269295Y-103454331D01*
X144320553Y-103428779D01*
X144394393Y-103478901D01*
X144495499Y-103547885D01*
X144590185Y-103612797D01*
X144637577Y-103645460D01*
X144637622Y-103645485D01*
X144641588Y-103648188D01*
X144708833Y-103693345D01*
X144711726Y-103694902D01*
X144714297Y-103696950D01*
X144719020Y-103699964D01*
X144775961Y-103735748D01*
X144782820Y-103739175D01*
X144789057Y-103743634D01*
X144793930Y-103746398D01*
X144833139Y-103768279D01*
X144860099Y-103780037D01*
X144886441Y-103793090D01*
X144891693Y-103795039D01*
X144904428Y-103799664D01*
X144932589Y-103806873D01*
X144960349Y-103815494D01*
X144970446Y-103816565D01*
X144980283Y-103819083D01*
X145009299Y-103820685D01*
X145038213Y-103823751D01*
X145048330Y-103822840D01*
X145058464Y-103823399D01*
X145087243Y-103819334D01*
X145116198Y-103816725D01*
X145125941Y-103813867D01*
X145135995Y-103812447D01*
X145163436Y-103802869D01*
X145191333Y-103794687D01*
X145200336Y-103789991D01*
X145209922Y-103786645D01*
X145234985Y-103771917D01*
X145260755Y-103758474D01*
X145265424Y-103755378D01*
X145283961Y-103742900D01*
X145299053Y-103730438D01*
X145315296Y-103719509D01*
X145319592Y-103715913D01*
X145360615Y-103681080D01*
X145362693Y-103678934D01*
X145365121Y-103677196D01*
X145369311Y-103673478D01*
X145428845Y-103619904D01*
X145428989Y-103619746D01*
X145429164Y-103619617D01*
X145433298Y-103615836D01*
X145507365Y-103547141D01*
X145507411Y-103547089D01*
X145510525Y-103544179D01*
X145595148Y-103463977D01*
X145595216Y-103463899D01*
X145597334Y-103461889D01*
X145650854Y-103410394D01*
X145650903Y-103410336D01*
X145653868Y-103407463D01*
X145747502Y-103315463D01*
X145747914Y-103314971D01*
X145748417Y-103314562D01*
X145752373Y-103310595D01*
X145833295Y-103228308D01*
X145834358Y-103226991D01*
X145835647Y-103225896D01*
X145839513Y-103221842D01*
X145904449Y-103152788D01*
X145907251Y-103149155D01*
X145910632Y-103146061D01*
X145914347Y-103141867D01*
X145960028Y-103089566D01*
X145969140Y-103076807D01*
X145979685Y-103065204D01*
X145982998Y-103060687D01*
X146006151Y-103028660D01*
X146014981Y-103013526D01*
X146025393Y-102999438D01*
X146034666Y-102979789D01*
X146045612Y-102961030D01*
X146049850Y-102948766D01*
X146052631Y-102943658D01*
X146054423Y-102937927D01*
X146058812Y-102928628D01*
X146060660Y-102923339D01*
X146062881Y-102916839D01*
X146067170Y-102898647D01*
X146071186Y-102887024D01*
X146071852Y-102882198D01*
X146076003Y-102868927D01*
X146077548Y-102854619D01*
X146080847Y-102840627D01*
X146081743Y-102815790D01*
X146084412Y-102791079D01*
X146083150Y-102776756D01*
X146083669Y-102762378D01*
X146079723Y-102737837D01*
X146077542Y-102713080D01*
X146073520Y-102699267D01*
X146071237Y-102685070D01*
X146062602Y-102661769D01*
X146055652Y-102637902D01*
X146053532Y-102632717D01*
X146043224Y-102607995D01*
X146032884Y-102588739D01*
X146024243Y-102568651D01*
X146021504Y-102563764D01*
X145993019Y-102513775D01*
X145990353Y-102510006D01*
X145988376Y-102505841D01*
X145985458Y-102501059D01*
X145941956Y-102430866D01*
X145941138Y-102429796D01*
X145940533Y-102428586D01*
X145937517Y-102423865D01*
X145882157Y-102338528D01*
X145881934Y-102338249D01*
X145881768Y-102337929D01*
X145878678Y-102333256D01*
X145814621Y-102237838D01*
X145814564Y-102237769D01*
X145812543Y-102234773D01*
X145794326Y-102208170D01*
X145794304Y-102208144D01*
X145794062Y-102207786D01*
X145728061Y-102111645D01*
X145670602Y-102027652D01*
X145679822Y-102002021D01*
X145712911Y-101914005D01*
X145747685Y-101824878D01*
X145775231Y-101756975D01*
X145822685Y-101747655D01*
X145936559Y-101726271D01*
X146083512Y-101699283D01*
X146083525Y-101699281D01*
X146115601Y-101693431D01*
X146115680Y-101693408D01*
X146119722Y-101692657D01*
X146214790Y-101674290D01*
X146216471Y-101673791D01*
X146218212Y-101673613D01*
X146223695Y-101672464D01*
X146306575Y-101654495D01*
X146309915Y-101653420D01*
X146313396Y-101652954D01*
X146318840Y-101651634D01*
X146382205Y-101635798D01*
X146393148Y-101631895D01*
X146404519Y-101629531D01*
X146409854Y-101627824D01*
X146446383Y-101615855D01*
X146480672Y-101600773D01*
X146489250Y-101597084D01*
X146504308Y-101591385D01*
X146508322Y-101588884D01*
X146515147Y-101585949D01*
X146517970Y-101584367D01*
X146518056Y-101584329D01*
X146518131Y-101584276D01*
X146520034Y-101583210D01*
X146524932Y-101580420D01*
X146547405Y-101564528D01*
X146570761Y-101549973D01*
X146579304Y-101541970D01*
X146588862Y-101535211D01*
X146607820Y-101515257D01*
X146627905Y-101496441D01*
X146634731Y-101486930D01*
X146642793Y-101478445D01*
X146657512Y-101455192D01*
X146673562Y-101432831D01*
X146678411Y-101422177D01*
X146684672Y-101412285D01*
X146694595Y-101386614D01*
X146705995Y-101361563D01*
X146707769Y-101356250D01*
X146715840Y-101331512D01*
X146723759Y-101295704D01*
X146732133Y-101259907D01*
X146732737Y-101255103D01*
X146732747Y-101255058D01*
X146732748Y-101255017D01*
X146732832Y-101254348D01*
X146739392Y-101199066D01*
X146739559Y-101190883D01*
X146740985Y-101182824D01*
X146741379Y-101177235D01*
X146746425Y-101097834D01*
X146746334Y-101095176D01*
X146746726Y-101092546D01*
X146746969Y-101086949D01*
X146750495Y-100989856D01*
X146750447Y-100989078D01*
X146750548Y-100988308D01*
X146750691Y-100982707D01*
X146752693Y-100874350D01*
X146752688Y-100874285D01*
X146752695Y-100874223D01*
X146752757Y-100868621D01*
X146753232Y-100755423D01*
X146753232Y-100755420D01*
X146753218Y-100749933D01*
X146752159Y-100638321D01*
X146752124Y-100638000D01*
X146752152Y-100637682D01*
X146752051Y-100632081D01*
X146749456Y-100528483D01*
X146749275Y-100527017D01*
X146749372Y-100525536D01*
X146749151Y-100519938D01*
X146745015Y-100430777D01*
X146744359Y-100426255D01*
X146744490Y-100421685D01*
X146744064Y-100416099D01*
X146738381Y-100347803D01*
X146735579Y-100332474D01*
X146734600Y-100316914D01*
X146733665Y-100311390D01*
X146726433Y-100270384D01*
X146721295Y-100251985D01*
X146718026Y-100233162D01*
X146710791Y-100214367D01*
X146705374Y-100194968D01*
X146696758Y-100177914D01*
X146689897Y-100160089D01*
X146687349Y-100155100D01*
X146682989Y-100146708D01*
X146674070Y-100133002D01*
X146670068Y-100125080D01*
X146664173Y-100117535D01*
X146650011Y-100093751D01*
X146644650Y-100087791D01*
X146640282Y-100081079D01*
X146618514Y-100058736D01*
X146597645Y-100035537D01*
X146591232Y-100030735D01*
X146585641Y-100024996D01*
X146559940Y-100007302D01*
X146534970Y-99988603D01*
X146527747Y-99985138D01*
X146521147Y-99980594D01*
X146492502Y-99968230D01*
X146464373Y-99954736D01*
X146459097Y-99952854D01*
X146434824Y-99944388D01*
X146419705Y-99940723D01*
X146405131Y-99935305D01*
X146399705Y-99933912D01*
X146344433Y-99920139D01*
X146341978Y-99919777D01*
X146339631Y-99918974D01*
X146334170Y-99917725D01*
X146253405Y-99899840D01*
X146253334Y-99899831D01*
X146253265Y-99899809D01*
X146247787Y-99898638D01*
X146147037Y-99877836D01*
X146146961Y-99877828D01*
X146142882Y-99877001D01*
X146027653Y-99854476D01*
X146027560Y-99854467D01*
X146024823Y-99853933D01*
X145962042Y-99842128D01*
X145962021Y-99842126D01*
X145961624Y-99842049D01*
X145843316Y-99819934D01*
X145748675Y-99801961D01*
X145739105Y-99779813D01*
X145701655Y-99692103D01*
X145664253Y-99603577D01*
X145649134Y-99567369D01*
X145671547Y-99533746D01*
X145735094Y-99440096D01*
X145772401Y-99385773D01*
X145772434Y-99385713D01*
X145773059Y-99384811D01*
X145842105Y-99283642D01*
X145842143Y-99283572D01*
X145844391Y-99280256D01*
X145905716Y-99188404D01*
X145905734Y-99188370D01*
X145908459Y-99184240D01*
X145959072Y-99106354D01*
X145959571Y-99105392D01*
X145960244Y-99104540D01*
X145963238Y-99099805D01*
X146000146Y-99040531D01*
X146002965Y-99034829D01*
X146006675Y-99029666D01*
X146009451Y-99024799D01*
X146029662Y-98988781D01*
X146041783Y-98961165D01*
X146048033Y-98948506D01*
X146051818Y-98941584D01*
X146052464Y-98939531D01*
X146055140Y-98934111D01*
X146057082Y-98928856D01*
X146060000Y-98920783D01*
X146060679Y-98918116D01*
X146061132Y-98917083D01*
X146062420Y-98911273D01*
X146066910Y-98893628D01*
X146075323Y-98866894D01*
X146076547Y-98855756D01*
X146079309Y-98844900D01*
X146080813Y-98816925D01*
X146083874Y-98789062D01*
X146082911Y-98777898D01*
X146083512Y-98766713D01*
X146079552Y-98738973D01*
X146077143Y-98711051D01*
X146074030Y-98700287D01*
X146072447Y-98689198D01*
X146063176Y-98662758D01*
X146055389Y-98635834D01*
X146050244Y-98625878D01*
X146046538Y-98615309D01*
X146032308Y-98591174D01*
X146019439Y-98566274D01*
X146016361Y-98561594D01*
X146003813Y-98542801D01*
X145989801Y-98525701D01*
X145977294Y-98507464D01*
X145973660Y-98503201D01*
X145938970Y-98463074D01*
X145936509Y-98460734D01*
X145934500Y-98457990D01*
X145930736Y-98453841D01*
X145878336Y-98396877D01*
X145878205Y-98396760D01*
X145878101Y-98396622D01*
X145874276Y-98392528D01*
X145808597Y-98323220D01*
X145808526Y-98323159D01*
X145805943Y-98320447D01*
X145731415Y-98243293D01*
X145731343Y-98243232D01*
X145729314Y-98241134D01*
X145650371Y-98160628D01*
X145650296Y-98160565D01*
X145648378Y-98158609D01*
X145569447Y-98079247D01*
X145569374Y-98079187D01*
X145567216Y-98077021D01*
X145492733Y-98003298D01*
X145492674Y-98003250D01*
X145489726Y-98000353D01*
X145424120Y-97936765D01*
X145423589Y-97936342D01*
X145423142Y-97935819D01*
X145419079Y-97931962D01*
X145366780Y-97883004D01*
X145362580Y-97879780D01*
X145358984Y-97875896D01*
X145354770Y-97872206D01*
X145320212Y-97842373D01*
X145296262Y-97825475D01*
X145273154Y-97807406D01*
X145268404Y-97804436D01*
X145256843Y-97797317D01*
X145247922Y-97792961D01*
X145239727Y-97787351D01*
X145212800Y-97775813D01*
X145186481Y-97762963D01*
X145176881Y-97760422D01*
X145167755Y-97756512D01*
X145139103Y-97750424D01*
X145110787Y-97742930D01*
X145100880Y-97742302D01*
X145091164Y-97740238D01*
X145061883Y-97739832D01*
X145032643Y-97737980D01*
X145022791Y-97739290D01*
X145012871Y-97739153D01*
X144984082Y-97744439D01*
X144955026Y-97748304D01*
X144945621Y-97751501D01*
X144935858Y-97753294D01*
X144908627Y-97764078D01*
X144880892Y-97773507D01*
X144872292Y-97778468D01*
X144863059Y-97782124D01*
X144858095Y-97784720D01*
X144839271Y-97794731D01*
X144829958Y-97800920D01*
X144819869Y-97805752D01*
X144815097Y-97808687D01*
X144770074Y-97836812D01*
X144769550Y-97837215D01*
X144768959Y-97837511D01*
X144764238Y-97840528D01*
X144697395Y-97883903D01*
X144697318Y-97883964D01*
X144694419Y-97885853D01*
X144610131Y-97941617D01*
X144610052Y-97941681D01*
X144608043Y-97943008D01*
X144510688Y-98008296D01*
X144510622Y-98008350D01*
X144509155Y-98009329D01*
X144435718Y-98059069D01*
X144435686Y-98059096D01*
X144435109Y-98059482D01*
X144242776Y-98190268D01*
X144025061Y-98100519D01*
X143981530Y-97869606D01*
X143897709Y-97424982D01*
X143897588Y-97424567D01*
X143897548Y-97424130D01*
X143886588Y-97386892D01*
X143875764Y-97349819D01*
X143875563Y-97349432D01*
X143875440Y-97349015D01*
X143857478Y-97314656D01*
X143839638Y-97280351D01*
X143839366Y-97280011D01*
X143839164Y-97279625D01*
X143814922Y-97249475D01*
X143790706Y-97219222D01*
X143790373Y-97218941D01*
X143790100Y-97218602D01*
X143760427Y-97193703D01*
X143730834Y-97168762D01*
X143730454Y-97168552D01*
X143730119Y-97168271D01*
X143696251Y-97149652D01*
X143662300Y-97130892D01*
X143661882Y-97130758D01*
X143661503Y-97130550D01*
X143624549Y-97118827D01*
X143587716Y-97107056D01*
X143587287Y-97107007D01*
X143586868Y-97106874D01*
X143548195Y-97102536D01*
X143509922Y-97098159D01*
X143509488Y-97098194D01*
X143509056Y-97098146D01*
X143503454Y-97098107D01*
X142578006Y-97098107D01*
X142577572Y-97098150D01*
X142577138Y-97098108D01*
X142538515Y-97101979D01*
X142500079Y-97105748D01*
X142499664Y-97105873D01*
X142499228Y-97105917D01*
X142462181Y-97117190D01*
X142425121Y-97128379D01*
X142424734Y-97128585D01*
X142424319Y-97128711D01*
X142390274Y-97146907D01*
X142355985Y-97165139D01*
X142355647Y-97165415D01*
X142355263Y-97165620D01*
X142325221Y-97190230D01*
X142295307Y-97214627D01*
X142295031Y-97214960D01*
X142294691Y-97215239D01*
X142270180Y-97245000D01*
X142245396Y-97274959D01*
X142245188Y-97275344D01*
X142244912Y-97275679D01*
X142226545Y-97309825D01*
X142208155Y-97343836D01*
X142208027Y-97344249D01*
X142207819Y-97344636D01*
X142196418Y-97381751D01*
X142185000Y-97418635D01*
X142184954Y-97419069D01*
X142184827Y-97419484D01*
X142183751Y-97424982D01*
X142099931Y-97869606D01*
X142056399Y-98100520D01*
X141948247Y-98145104D01*
X141948175Y-98145133D01*
X141838685Y-98190268D01*
X141646351Y-98059482D01*
X141646300Y-98059454D01*
X141645456Y-98058875D01*
X141541545Y-97988625D01*
X141541462Y-97988580D01*
X141539645Y-97987348D01*
X141445714Y-97924624D01*
X141445628Y-97924578D01*
X141443386Y-97923081D01*
X141363821Y-97870747D01*
X141363759Y-97870715D01*
X141360236Y-97868416D01*
X141299418Y-97829335D01*
X141297638Y-97828423D01*
X141296056Y-97827198D01*
X141291292Y-97824250D01*
X141253605Y-97801286D01*
X141238442Y-97793970D01*
X141224178Y-97785005D01*
X141219149Y-97782536D01*
X141208885Y-97777585D01*
X141197332Y-97773346D01*
X141186451Y-97767598D01*
X141160655Y-97759887D01*
X141135377Y-97750611D01*
X141123218Y-97748696D01*
X141111430Y-97745172D01*
X141084631Y-97742618D01*
X141058031Y-97738428D01*
X141045735Y-97738911D01*
X141033483Y-97737743D01*
X141006695Y-97740444D01*
X140979790Y-97741500D01*
X140967819Y-97744363D01*
X140955577Y-97745597D01*
X140929821Y-97753450D01*
X140903637Y-97759712D01*
X140892455Y-97764843D01*
X140880681Y-97768433D01*
X140856935Y-97781142D01*
X140832471Y-97792368D01*
X140822500Y-97799572D01*
X140811647Y-97805381D01*
X140807011Y-97808527D01*
X140788522Y-97821261D01*
X140771537Y-97835593D01*
X140753392Y-97848441D01*
X140749183Y-97852139D01*
X140709673Y-97887345D01*
X140707369Y-97889842D01*
X140704666Y-97891884D01*
X140700573Y-97895709D01*
X140644471Y-97948889D01*
X140644360Y-97949017D01*
X140644225Y-97949122D01*
X140640190Y-97953008D01*
X140571925Y-98019664D01*
X140571867Y-98019733D01*
X140569201Y-98022349D01*
X140493203Y-98097984D01*
X140493138Y-98098063D01*
X140491081Y-98100112D01*
X140411776Y-98180229D01*
X140411713Y-98180307D01*
X140409799Y-98182240D01*
X140331615Y-98262343D01*
X140331552Y-98262422D01*
X140329430Y-98264599D01*
X140256798Y-98340190D01*
X140256755Y-98340244D01*
X140253912Y-98343225D01*
X140191260Y-98409806D01*
X140190858Y-98410327D01*
X140190362Y-98410763D01*
X140186565Y-98414882D01*
X140138321Y-98467954D01*
X140135192Y-98472156D01*
X140131406Y-98475764D01*
X140127776Y-98480031D01*
X140098369Y-98515100D01*
X140082058Y-98538938D01*
X140064539Y-98561914D01*
X140061627Y-98566700D01*
X140054596Y-98578436D01*
X140039052Y-98611282D01*
X140023060Y-98643871D01*
X140022324Y-98646628D01*
X140021102Y-98649211D01*
X140012245Y-98684407D01*
X140002875Y-98719525D01*
X140002688Y-98722380D01*
X140001993Y-98725144D01*
X140000141Y-98761381D01*
X139997771Y-98797659D01*
X139998142Y-98800490D01*
X139997996Y-98803343D01*
X140003222Y-98839281D01*
X140007939Y-98875296D01*
X140008853Y-98878003D01*
X140009264Y-98880828D01*
X140021365Y-98915048D01*
X140032994Y-98949479D01*
X140035332Y-98954571D01*
X140045450Y-98976208D01*
X140054447Y-98991384D01*
X140061761Y-99007436D01*
X140064604Y-99012263D01*
X140092968Y-99059665D01*
X140094614Y-99061890D01*
X140095832Y-99064378D01*
X140098807Y-99069125D01*
X140142437Y-99137656D01*
X140142539Y-99137786D01*
X140142612Y-99137930D01*
X140145657Y-99142632D01*
X140201568Y-99227653D01*
X140201614Y-99227710D01*
X140203960Y-99231249D01*
X140269173Y-99328127D01*
X140269234Y-99328201D01*
X140270824Y-99330561D01*
X140308424Y-99385544D01*
X140376480Y-99485241D01*
X140432140Y-99568045D01*
X140422687Y-99590683D01*
X140385607Y-99678454D01*
X140347973Y-99766634D01*
X140332733Y-99801947D01*
X140297275Y-99808747D01*
X140185495Y-99829817D01*
X140120075Y-99842005D01*
X140120000Y-99842027D01*
X140118520Y-99842298D01*
X139998012Y-99865242D01*
X139997933Y-99865265D01*
X139994147Y-99865997D01*
X139885300Y-99887830D01*
X139885249Y-99887846D01*
X139880624Y-99888797D01*
X139788946Y-99908324D01*
X139788108Y-99908590D01*
X139787229Y-99908693D01*
X139781764Y-99909923D01*
X139712758Y-99925949D01*
X139707306Y-99927792D01*
X139701625Y-99928703D01*
X139696217Y-99930163D01*
X139655394Y-99941494D01*
X139631413Y-99950754D01*
X139606868Y-99958378D01*
X139601721Y-99960590D01*
X139593514Y-99964185D01*
X139586602Y-99968057D01*
X139582349Y-99969699D01*
X139582084Y-99969866D01*
X139577851Y-99971451D01*
X139551843Y-99987527D01*
X139525200Y-100002451D01*
X139518617Y-100008064D01*
X139511247Y-100012620D01*
X139488861Y-100033439D01*
X139465621Y-100053256D01*
X139460250Y-100060046D01*
X139453909Y-100065943D01*
X139435995Y-100090709D01*
X139417044Y-100114667D01*
X139413096Y-100122367D01*
X139408019Y-100129386D01*
X139395258Y-100157159D01*
X139381320Y-100184343D01*
X139378941Y-100192669D01*
X139375327Y-100200535D01*
X139373533Y-100205842D01*
X139365496Y-100230174D01*
X139357260Y-100266783D01*
X139348712Y-100303428D01*
X139348332Y-100306467D01*
X139348310Y-100306565D01*
X139348307Y-100306664D01*
X139348017Y-100308987D01*
X139341532Y-100363940D01*
X139341368Y-100372226D01*
X139339933Y-100380393D01*
X139339545Y-100385982D01*
X139334608Y-100465131D01*
X139334703Y-100467816D01*
X139334311Y-100470470D01*
X139334076Y-100476067D01*
X139330682Y-100572985D01*
X139330731Y-100573773D01*
X139330630Y-100574556D01*
X139330495Y-100580156D01*
X139328641Y-100688417D01*
X139328646Y-100688480D01*
X139328638Y-100688551D01*
X139328584Y-100694153D01*
X139328264Y-100807210D01*
X137472400Y-100807210D01*
X137472400Y-96247121D01*
X137505043Y-96214478D01*
X137576200Y-96107985D01*
X137625213Y-95989656D01*
X137650200Y-95864039D01*
X137650200Y-95735961D01*
X137625213Y-95610344D01*
X137576200Y-95492015D01*
X137505043Y-95385522D01*
X137414478Y-95294957D01*
X137307985Y-95223800D01*
X137189656Y-95174787D01*
X137064039Y-95149800D01*
X136935961Y-95149800D01*
X136810344Y-95174787D01*
X136692015Y-95223800D01*
X136585522Y-95294957D01*
X136494957Y-95385522D01*
X136423800Y-95492015D01*
X136374787Y-95610344D01*
X136349800Y-95735961D01*
X136349800Y-95864039D01*
X136374787Y-95989656D01*
X136423800Y-96107985D01*
X136494957Y-96214478D01*
X136527600Y-96247121D01*
X136527601Y-102176790D01*
X136525315Y-102200000D01*
X136534436Y-102292606D01*
X136561449Y-102381654D01*
X136605315Y-102463721D01*
X136649558Y-102517632D01*
X136649561Y-102517635D01*
X136664348Y-102535653D01*
X136682366Y-102550440D01*
X137692226Y-103560300D01*
X134925676Y-103560300D01*
X134887500Y-103556540D01*
X134735141Y-103571546D01*
X134701741Y-103581678D01*
X134588640Y-103615987D01*
X134453622Y-103688155D01*
X134395630Y-103735748D01*
X134366283Y-103759833D01*
X134335278Y-103785278D01*
X134310943Y-103814930D01*
X133293075Y-104832800D01*
X125937315Y-104832800D01*
X123467605Y-102363090D01*
X124603800Y-102363090D01*
X124603800Y-102716910D01*
X124672827Y-103063932D01*
X124808228Y-103390820D01*
X125004800Y-103685011D01*
X125254989Y-103935200D01*
X125549180Y-104131772D01*
X125876068Y-104267173D01*
X126223090Y-104336200D01*
X126576910Y-104336200D01*
X126923932Y-104267173D01*
X127250820Y-104131772D01*
X127545011Y-103935200D01*
X127795200Y-103685011D01*
X127991772Y-103390820D01*
X128127173Y-103063932D01*
X128196200Y-102716910D01*
X128196200Y-102363090D01*
X128127173Y-102016068D01*
X127991772Y-101689180D01*
X127795200Y-101394989D01*
X127545011Y-101144800D01*
X127250820Y-100948228D01*
X126923932Y-100812827D01*
X126576910Y-100743800D01*
X126223090Y-100743800D01*
X125876068Y-100812827D01*
X125549180Y-100948228D01*
X125254989Y-101144800D01*
X125004800Y-101394989D01*
X124808228Y-101689180D01*
X124672827Y-102016068D01*
X124603800Y-102363090D01*
X123467605Y-102363090D01*
X120033907Y-98929393D01*
X120016643Y-98908357D01*
X119932712Y-98839476D01*
X119836956Y-98788294D01*
X119733054Y-98756775D01*
X119652079Y-98748800D01*
X119652069Y-98748800D01*
X119625000Y-98746134D01*
X119597931Y-98748800D01*
X110415176Y-98748800D01*
X109307798Y-97283090D01*
X124603800Y-97283090D01*
X124603800Y-97636910D01*
X124672827Y-97983932D01*
X124808228Y-98310820D01*
X125004800Y-98605011D01*
X125254989Y-98855200D01*
X125549180Y-99051772D01*
X125876068Y-99187173D01*
X126223090Y-99256200D01*
X126576910Y-99256200D01*
X126923932Y-99187173D01*
X127250820Y-99051772D01*
X127251441Y-99051357D01*
X128551873Y-100351790D01*
X128568252Y-100371748D01*
X128588209Y-100388126D01*
X128588211Y-100388128D01*
X128621210Y-100415209D01*
X128647920Y-100437129D01*
X128738811Y-100485712D01*
X128837435Y-100515629D01*
X128914303Y-100523200D01*
X128914312Y-100523200D01*
X128939999Y-100525730D01*
X128965686Y-100523200D01*
X132292681Y-100523200D01*
X132292827Y-100523932D01*
X132428228Y-100850820D01*
X132624800Y-101145011D01*
X132874989Y-101395200D01*
X133169180Y-101591772D01*
X133496068Y-101727173D01*
X133843090Y-101796200D01*
X134196910Y-101796200D01*
X134543932Y-101727173D01*
X134870820Y-101591772D01*
X135165011Y-101395200D01*
X135415200Y-101145011D01*
X135611772Y-100850820D01*
X135747173Y-100523932D01*
X135816200Y-100176910D01*
X135816200Y-99823090D01*
X135747173Y-99476068D01*
X135611772Y-99149180D01*
X135415200Y-98854989D01*
X135165011Y-98604800D01*
X134870820Y-98408228D01*
X134543932Y-98272827D01*
X134196910Y-98203800D01*
X133843090Y-98203800D01*
X133496068Y-98272827D01*
X133169180Y-98408228D01*
X132874989Y-98604800D01*
X132624800Y-98854989D01*
X132428228Y-99149180D01*
X132292827Y-99476068D01*
X132292681Y-99476800D01*
X129156717Y-99476800D01*
X127991357Y-98311441D01*
X127991772Y-98310820D01*
X128127173Y-97983932D01*
X128196200Y-97636910D01*
X128196200Y-97283090D01*
X128127173Y-96936068D01*
X127991772Y-96609180D01*
X127795200Y-96314989D01*
X127545011Y-96064800D01*
X127250820Y-95868228D01*
X126923932Y-95732827D01*
X126576910Y-95663800D01*
X126223090Y-95663800D01*
X125876068Y-95732827D01*
X125549180Y-95868228D01*
X125254989Y-96064800D01*
X125004800Y-96314989D01*
X124808228Y-96609180D01*
X124672827Y-96936068D01*
X124603800Y-97283090D01*
X109307798Y-97283090D01*
X108460200Y-96161223D01*
X108460200Y-96150961D01*
X108435213Y-96025344D01*
X108386200Y-95907015D01*
X108315043Y-95800522D01*
X108224478Y-95709957D01*
X108117985Y-95638800D01*
X107999656Y-95589787D01*
X107874039Y-95564800D01*
X107745961Y-95564800D01*
X107620344Y-95589787D01*
X107502015Y-95638800D01*
X107395522Y-95709957D01*
X107304957Y-95800522D01*
X107233800Y-95907015D01*
X107184787Y-96025344D01*
X107159800Y-96150961D01*
X101779784Y-96150961D01*
X100956083Y-95327260D01*
X108893800Y-95327260D01*
X108893800Y-95572740D01*
X108941691Y-95813503D01*
X109035632Y-96040297D01*
X109172013Y-96244406D01*
X109345594Y-96417987D01*
X109549703Y-96554368D01*
X109776497Y-96648309D01*
X110017260Y-96696200D01*
X110262740Y-96696200D01*
X110503503Y-96648309D01*
X110730297Y-96554368D01*
X110934406Y-96417987D01*
X111107987Y-96244406D01*
X111244368Y-96040297D01*
X111338309Y-95813503D01*
X111386200Y-95572740D01*
X111386200Y-95327260D01*
X111433800Y-95327260D01*
X111433800Y-95572740D01*
X111481691Y-95813503D01*
X111575632Y-96040297D01*
X111712013Y-96244406D01*
X111885594Y-96417987D01*
X112089703Y-96554368D01*
X112316497Y-96648309D01*
X112557260Y-96696200D01*
X112802740Y-96696200D01*
X113043503Y-96648309D01*
X113270297Y-96554368D01*
X113474406Y-96417987D01*
X113647987Y-96244406D01*
X113784368Y-96040297D01*
X113878309Y-95813503D01*
X113926200Y-95572740D01*
X113926200Y-95327260D01*
X113973800Y-95327260D01*
X113973800Y-95572740D01*
X114021691Y-95813503D01*
X114115632Y-96040297D01*
X114252013Y-96244406D01*
X114425594Y-96417987D01*
X114629703Y-96554368D01*
X114856497Y-96648309D01*
X115097260Y-96696200D01*
X115342740Y-96696200D01*
X115583503Y-96648309D01*
X115810297Y-96554368D01*
X116014406Y-96417987D01*
X116187987Y-96244406D01*
X116324368Y-96040297D01*
X116418309Y-95813503D01*
X116466200Y-95572740D01*
X116466200Y-95327260D01*
X116513800Y-95327260D01*
X116513800Y-95572740D01*
X116561691Y-95813503D01*
X116655632Y-96040297D01*
X116792013Y-96244406D01*
X116965594Y-96417987D01*
X117169703Y-96554368D01*
X117396497Y-96648309D01*
X117637260Y-96696200D01*
X117882740Y-96696200D01*
X118123503Y-96648309D01*
X118350297Y-96554368D01*
X118554406Y-96417987D01*
X118727987Y-96244406D01*
X118864368Y-96040297D01*
X118958309Y-95813503D01*
X119006200Y-95572740D01*
X119006200Y-95327260D01*
X118958309Y-95086497D01*
X118864368Y-94859703D01*
X118727987Y-94655594D01*
X118554406Y-94482013D01*
X118350297Y-94345632D01*
X118123503Y-94251691D01*
X117882740Y-94203800D01*
X117637260Y-94203800D01*
X117396497Y-94251691D01*
X117169703Y-94345632D01*
X116965594Y-94482013D01*
X116792013Y-94655594D01*
X116655632Y-94859703D01*
X116561691Y-95086497D01*
X116513800Y-95327260D01*
X116466200Y-95327260D01*
X116418309Y-95086497D01*
X116324368Y-94859703D01*
X116187987Y-94655594D01*
X116014406Y-94482013D01*
X115810297Y-94345632D01*
X115583503Y-94251691D01*
X115342740Y-94203800D01*
X115097260Y-94203800D01*
X114856497Y-94251691D01*
X114629703Y-94345632D01*
X114425594Y-94482013D01*
X114252013Y-94655594D01*
X114115632Y-94859703D01*
X114021691Y-95086497D01*
X113973800Y-95327260D01*
X113926200Y-95327260D01*
X113878309Y-95086497D01*
X113784368Y-94859703D01*
X113647987Y-94655594D01*
X113474406Y-94482013D01*
X113270297Y-94345632D01*
X113043503Y-94251691D01*
X112802740Y-94203800D01*
X112557260Y-94203800D01*
X112316497Y-94251691D01*
X112089703Y-94345632D01*
X111885594Y-94482013D01*
X111712013Y-94655594D01*
X111575632Y-94859703D01*
X111481691Y-95086497D01*
X111433800Y-95327260D01*
X111386200Y-95327260D01*
X111338309Y-95086497D01*
X111244368Y-94859703D01*
X111107987Y-94655594D01*
X110934406Y-94482013D01*
X110730297Y-94345632D01*
X110503503Y-94251691D01*
X110262740Y-94203800D01*
X110017260Y-94203800D01*
X109776497Y-94251691D01*
X109549703Y-94345632D01*
X109345594Y-94482013D01*
X109172013Y-94655594D01*
X109035632Y-94859703D01*
X108941691Y-95086497D01*
X108893800Y-95327260D01*
X100956083Y-95327260D01*
X100736192Y-95107370D01*
X100721401Y-95089347D01*
X100649469Y-95030314D01*
X100567402Y-94986448D01*
X100478354Y-94959436D01*
X100451292Y-94956771D01*
X100414478Y-94919957D01*
X100307985Y-94848800D01*
X100189656Y-94799787D01*
X100064039Y-94774800D01*
X99935961Y-94774800D01*
X99810344Y-94799787D01*
X99692015Y-94848800D01*
X99622400Y-94895316D01*
X99622400Y-94872121D01*
X99655043Y-94839478D01*
X99726200Y-94732985D01*
X99775213Y-94614656D01*
X99800200Y-94489039D01*
X99800200Y-94360961D01*
X99775213Y-94235344D01*
X99726200Y-94117015D01*
X99655043Y-94010522D01*
X99564478Y-93919957D01*
X99457985Y-93848800D01*
X99339656Y-93799787D01*
X99214039Y-93774800D01*
X99085961Y-93774800D01*
X98960344Y-93799787D01*
X98842015Y-93848800D01*
X98735522Y-93919957D01*
X98718051Y-93937428D01*
X98710442Y-93928157D01*
X98710440Y-93928155D01*
X98695653Y-93910137D01*
X98677635Y-93895350D01*
X97939654Y-93157370D01*
X97924863Y-93139347D01*
X97852931Y-93080314D01*
X97770864Y-93036448D01*
X97681816Y-93009436D01*
X97612410Y-93002600D01*
X97589210Y-93000315D01*
X97566010Y-93002600D01*
X95883200Y-93002600D01*
X95860000Y-93000315D01*
X95767394Y-93009436D01*
X95678345Y-93036448D01*
X95596279Y-93080314D01*
X95542625Y-93124347D01*
X95524347Y-93139347D01*
X95509560Y-93157365D01*
X93699326Y-94967600D01*
X90973202Y-94967600D01*
X90924368Y-94849703D01*
X90787987Y-94645594D01*
X90614406Y-94472013D01*
X90410297Y-94335632D01*
X90183503Y-94241691D01*
X89942740Y-94193800D01*
X89697260Y-94193800D01*
X89456497Y-94241691D01*
X89229703Y-94335632D01*
X89025594Y-94472013D01*
X88852013Y-94645594D01*
X88715632Y-94849703D01*
X88621691Y-95076497D01*
X88573800Y-95317260D01*
X88573800Y-95562740D01*
X88621691Y-95803503D01*
X88715632Y-96030297D01*
X88726259Y-96046201D01*
X88554276Y-96046201D01*
X88429475Y-95921400D01*
X88478309Y-95803503D01*
X88526200Y-95562740D01*
X88526200Y-95317260D01*
X88478309Y-95076497D01*
X88384368Y-94849703D01*
X88247987Y-94645594D01*
X88074406Y-94472013D01*
X87870297Y-94335632D01*
X87643503Y-94241691D01*
X87402740Y-94193800D01*
X87157260Y-94193800D01*
X86916497Y-94241691D01*
X86689703Y-94335632D01*
X86485594Y-94472013D01*
X86312013Y-94645594D01*
X86175632Y-94849703D01*
X86081691Y-95076497D01*
X86033800Y-95317260D01*
X86033800Y-95562740D01*
X86081691Y-95803503D01*
X86175632Y-96030297D01*
X86312013Y-96234406D01*
X86428619Y-96351012D01*
X86319087Y-96351012D01*
X85889475Y-95921400D01*
X85938309Y-95803503D01*
X85986200Y-95562740D01*
X85986200Y-95317260D01*
X85938309Y-95076497D01*
X85844368Y-94849703D01*
X85707987Y-94645594D01*
X85534406Y-94472013D01*
X85330297Y-94335632D01*
X85103503Y-94241691D01*
X84862740Y-94193800D01*
X84617260Y-94193800D01*
X84376497Y-94241691D01*
X84149703Y-94335632D01*
X83945594Y-94472013D01*
X83772013Y-94645594D01*
X83635632Y-94849703D01*
X83541691Y-95076497D01*
X83493800Y-95317260D01*
X83493800Y-95562740D01*
X83541691Y-95803503D01*
X83635632Y-96030297D01*
X83772013Y-96234406D01*
X83945594Y-96407987D01*
X84149703Y-96544368D01*
X84376497Y-96638309D01*
X84464545Y-96655823D01*
X84083898Y-96655823D01*
X83349475Y-95921400D01*
X83398309Y-95803503D01*
X83446200Y-95562740D01*
X83446200Y-95317260D01*
X83398309Y-95076497D01*
X83304368Y-94849703D01*
X83167987Y-94645594D01*
X82994406Y-94472013D01*
X82790297Y-94335632D01*
X82563503Y-94241691D01*
X82322740Y-94193800D01*
X82077260Y-94193800D01*
X81836497Y-94241691D01*
X81609703Y-94335632D01*
X81531200Y-94388086D01*
X81531200Y-93523314D01*
X82103315Y-92951200D01*
X118181686Y-92951200D01*
X119433949Y-94203464D01*
X119372331Y-94209533D01*
X119297647Y-94232188D01*
X119228818Y-94268978D01*
X119168489Y-94318489D01*
X119118978Y-94378818D01*
X119082188Y-94447647D01*
X119059533Y-94522331D01*
X119051883Y-94600000D01*
X119051883Y-96300000D01*
X119059533Y-96377669D01*
X119082188Y-96452353D01*
X119118978Y-96521182D01*
X119168489Y-96581511D01*
X119228818Y-96631022D01*
X119297647Y-96667812D01*
X119372331Y-96690467D01*
X119450000Y-96698117D01*
X121150000Y-96698117D01*
X121227669Y-96690467D01*
X121302353Y-96667812D01*
X121371182Y-96631022D01*
X121431511Y-96581511D01*
X121481022Y-96521182D01*
X121517812Y-96452353D01*
X121540467Y-96377669D01*
X121548117Y-96300000D01*
X121548117Y-95100000D01*
X141836980Y-95100000D01*
X141856214Y-95295289D01*
X141913178Y-95483074D01*
X142005682Y-95656137D01*
X142130172Y-95807828D01*
X142281863Y-95932318D01*
X142454926Y-96024822D01*
X142642711Y-96081786D01*
X142789061Y-96096200D01*
X143210939Y-96096200D01*
X143357289Y-96081786D01*
X143545074Y-96024822D01*
X143718137Y-95932318D01*
X143869828Y-95807828D01*
X143994318Y-95656137D01*
X144086822Y-95483074D01*
X144143786Y-95295289D01*
X144163020Y-95100000D01*
X144143786Y-94904711D01*
X144086822Y-94716926D01*
X143994318Y-94543863D01*
X143869828Y-94392172D01*
X143718137Y-94267682D01*
X143545074Y-94175178D01*
X143357289Y-94118214D01*
X143210939Y-94103800D01*
X142789061Y-94103800D01*
X142642711Y-94118214D01*
X142454926Y-94175178D01*
X142281863Y-94267682D01*
X142130172Y-94392172D01*
X142005682Y-94543863D01*
X141913178Y-94716926D01*
X141856214Y-94904711D01*
X141836980Y-95100000D01*
X121548117Y-95100000D01*
X121548117Y-94600000D01*
X121540467Y-94522331D01*
X121517812Y-94447647D01*
X121481022Y-94378818D01*
X121431511Y-94318489D01*
X121371182Y-94268978D01*
X121302353Y-94232188D01*
X121227669Y-94209533D01*
X121150000Y-94201883D01*
X120845189Y-94201883D01*
X120843225Y-94181945D01*
X120827465Y-94129995D01*
X120811706Y-94078044D01*
X120775615Y-94010522D01*
X120760524Y-93982287D01*
X120708905Y-93919390D01*
X120708902Y-93919387D01*
X120691643Y-93898357D01*
X120670613Y-93881098D01*
X119260714Y-92471200D01*
X137506622Y-92471200D01*
X137539807Y-92575812D01*
G36*
X106559973Y-104426629D02*
G01*
X106574764Y-104444652D01*
X106646696Y-104503685D01*
X106728763Y-104547551D01*
X106817811Y-104574563D01*
X106887217Y-104581399D01*
X106887226Y-104581399D01*
X106910416Y-104583683D01*
X106933606Y-104581399D01*
X108936218Y-104581399D01*
X108922188Y-104607647D01*
X108899533Y-104682331D01*
X108891883Y-104760000D01*
X108891883Y-106460000D01*
X108899533Y-106537669D01*
X108922188Y-106612353D01*
X108958978Y-106681182D01*
X109008489Y-106741511D01*
X109068818Y-106791022D01*
X109137647Y-106827812D01*
X109212331Y-106850467D01*
X109290000Y-106858117D01*
X110990000Y-106858117D01*
X111067669Y-106850467D01*
X111142353Y-106827812D01*
X111211182Y-106791022D01*
X111271511Y-106741511D01*
X111321022Y-106681182D01*
X111357812Y-106612353D01*
X111380467Y-106537669D01*
X111388117Y-106460000D01*
X111388117Y-104760000D01*
X111380467Y-104682331D01*
X111357812Y-104607647D01*
X111343782Y-104581399D01*
X111976309Y-104581399D01*
X111885594Y-104642013D01*
X111712013Y-104815594D01*
X111575632Y-105019703D01*
X111481691Y-105246497D01*
X111433800Y-105487260D01*
X111433800Y-105732740D01*
X111481691Y-105973503D01*
X111575632Y-106200297D01*
X111712013Y-106404406D01*
X111885594Y-106577987D01*
X112089703Y-106714368D01*
X112316497Y-106808309D01*
X112557260Y-106856200D01*
X112802740Y-106856200D01*
X113043503Y-106808309D01*
X113270297Y-106714368D01*
X113474406Y-106577987D01*
X113647987Y-106404406D01*
X113784368Y-106200297D01*
X113878309Y-105973503D01*
X113926200Y-105732740D01*
X113926200Y-105487260D01*
X113878309Y-105246497D01*
X113784368Y-105019703D01*
X113647987Y-104815594D01*
X113474406Y-104642013D01*
X113383691Y-104581399D01*
X114516309Y-104581399D01*
X114425594Y-104642013D01*
X114252013Y-104815594D01*
X114115632Y-105019703D01*
X114021691Y-105246497D01*
X113973800Y-105487260D01*
X113973800Y-105732740D01*
X114021691Y-105973503D01*
X114040815Y-106019671D01*
X113001686Y-107058800D01*
X100768905Y-107058800D01*
X100806200Y-107002985D01*
X100855213Y-106884656D01*
X100880200Y-106759039D01*
X100880200Y-106630961D01*
X100855213Y-106505344D01*
X100806200Y-106387015D01*
X100735043Y-106280522D01*
X100644478Y-106189957D01*
X100537985Y-106118800D01*
X100419656Y-106069787D01*
X100294039Y-106044800D01*
X100165961Y-106044800D01*
X100040344Y-106069787D01*
X99922015Y-106118800D01*
X99815522Y-106189957D01*
X99782879Y-106222600D01*
X98549466Y-106222600D01*
X98564368Y-106200297D01*
X98658309Y-105973503D01*
X98706200Y-105732740D01*
X98706200Y-105487260D01*
X98658309Y-105246497D01*
X98609474Y-105128600D01*
X99376388Y-104361687D01*
X99394957Y-104389478D01*
X99485522Y-104480043D01*
X99592015Y-104551200D01*
X99710344Y-104600213D01*
X99835961Y-104625200D01*
X99964039Y-104625200D01*
X100089656Y-104600213D01*
X100207985Y-104551200D01*
X100314478Y-104480043D01*
X100405043Y-104389478D01*
X100476200Y-104282985D01*
X100525213Y-104164656D01*
X100528645Y-104147400D01*
X103454326Y-104147400D01*
X103899800Y-104592874D01*
X103899800Y-104639039D01*
X103924787Y-104764656D01*
X103973800Y-104882985D01*
X104044957Y-104989478D01*
X104080479Y-105025000D01*
X104044957Y-105060522D01*
X103973800Y-105167015D01*
X103924787Y-105285344D01*
X103899800Y-105410961D01*
X103899800Y-105539039D01*
X103924787Y-105664656D01*
X103973800Y-105782985D01*
X104044957Y-105889478D01*
X104135522Y-105980043D01*
X104242015Y-106051200D01*
X104360344Y-106100213D01*
X104485961Y-106125200D01*
X104614039Y-106125200D01*
X104739656Y-106100213D01*
X104857985Y-106051200D01*
X104964478Y-105980043D01*
X105055043Y-105889478D01*
X105126200Y-105782985D01*
X105175213Y-105664656D01*
X105200200Y-105539039D01*
X105200200Y-105492875D01*
X105425236Y-105267839D01*
X105443254Y-105253052D01*
X105471728Y-105218357D01*
X105502286Y-105181121D01*
X105504958Y-105176123D01*
X105546153Y-105099053D01*
X105570223Y-105019703D01*
X105573165Y-105010006D01*
X105582286Y-104917399D01*
X105580001Y-104894199D01*
X105580001Y-103446657D01*
X106559973Y-104426629D01*
G37*
X106559973Y-104426629D02*
X106574764Y-104444652D01*
X106646696Y-104503685D01*
X106728763Y-104547551D01*
X106817811Y-104574563D01*
X106887217Y-104581399D01*
X106887226Y-104581399D01*
X106910416Y-104583683D01*
X106933606Y-104581399D01*
X108936218Y-104581399D01*
X108922188Y-104607647D01*
X108899533Y-104682331D01*
X108891883Y-104760000D01*
X108891883Y-106460000D01*
X108899533Y-106537669D01*
X108922188Y-106612353D01*
X108958978Y-106681182D01*
X109008489Y-106741511D01*
X109068818Y-106791022D01*
X109137647Y-106827812D01*
X109212331Y-106850467D01*
X109290000Y-106858117D01*
X110990000Y-106858117D01*
X111067669Y-106850467D01*
X111142353Y-106827812D01*
X111211182Y-106791022D01*
X111271511Y-106741511D01*
X111321022Y-106681182D01*
X111357812Y-106612353D01*
X111380467Y-106537669D01*
X111388117Y-106460000D01*
X111388117Y-104760000D01*
X111380467Y-104682331D01*
X111357812Y-104607647D01*
X111343782Y-104581399D01*
X111976309Y-104581399D01*
X111885594Y-104642013D01*
X111712013Y-104815594D01*
X111575632Y-105019703D01*
X111481691Y-105246497D01*
X111433800Y-105487260D01*
X111433800Y-105732740D01*
X111481691Y-105973503D01*
X111575632Y-106200297D01*
X111712013Y-106404406D01*
X111885594Y-106577987D01*
X112089703Y-106714368D01*
X112316497Y-106808309D01*
X112557260Y-106856200D01*
X112802740Y-106856200D01*
X113043503Y-106808309D01*
X113270297Y-106714368D01*
X113474406Y-106577987D01*
X113647987Y-106404406D01*
X113784368Y-106200297D01*
X113878309Y-105973503D01*
X113926200Y-105732740D01*
X113926200Y-105487260D01*
X113878309Y-105246497D01*
X113784368Y-105019703D01*
X113647987Y-104815594D01*
X113474406Y-104642013D01*
X113383691Y-104581399D01*
X114516309Y-104581399D01*
X114425594Y-104642013D01*
X114252013Y-104815594D01*
X114115632Y-105019703D01*
X114021691Y-105246497D01*
X113973800Y-105487260D01*
X113973800Y-105732740D01*
X114021691Y-105973503D01*
X114040815Y-106019671D01*
X113001686Y-107058800D01*
X100768905Y-107058800D01*
X100806200Y-107002985D01*
X100855213Y-106884656D01*
X100880200Y-106759039D01*
X100880200Y-106630961D01*
X100855213Y-106505344D01*
X100806200Y-106387015D01*
X100735043Y-106280522D01*
X100644478Y-106189957D01*
X100537985Y-106118800D01*
X100419656Y-106069787D01*
X100294039Y-106044800D01*
X100165961Y-106044800D01*
X100040344Y-106069787D01*
X99922015Y-106118800D01*
X99815522Y-106189957D01*
X99782879Y-106222600D01*
X98549466Y-106222600D01*
X98564368Y-106200297D01*
X98658309Y-105973503D01*
X98706200Y-105732740D01*
X98706200Y-105487260D01*
X98658309Y-105246497D01*
X98609474Y-105128600D01*
X99376388Y-104361687D01*
X99394957Y-104389478D01*
X99485522Y-104480043D01*
X99592015Y-104551200D01*
X99710344Y-104600213D01*
X99835961Y-104625200D01*
X99964039Y-104625200D01*
X100089656Y-104600213D01*
X100207985Y-104551200D01*
X100314478Y-104480043D01*
X100405043Y-104389478D01*
X100476200Y-104282985D01*
X100525213Y-104164656D01*
X100528645Y-104147400D01*
X103454326Y-104147400D01*
X103899800Y-104592874D01*
X103899800Y-104639039D01*
X103924787Y-104764656D01*
X103973800Y-104882985D01*
X104044957Y-104989478D01*
X104080479Y-105025000D01*
X104044957Y-105060522D01*
X103973800Y-105167015D01*
X103924787Y-105285344D01*
X103899800Y-105410961D01*
X103899800Y-105539039D01*
X103924787Y-105664656D01*
X103973800Y-105782985D01*
X104044957Y-105889478D01*
X104135522Y-105980043D01*
X104242015Y-106051200D01*
X104360344Y-106100213D01*
X104485961Y-106125200D01*
X104614039Y-106125200D01*
X104739656Y-106100213D01*
X104857985Y-106051200D01*
X104964478Y-105980043D01*
X105055043Y-105889478D01*
X105126200Y-105782985D01*
X105175213Y-105664656D01*
X105200200Y-105539039D01*
X105200200Y-105492875D01*
X105425236Y-105267839D01*
X105443254Y-105253052D01*
X105471728Y-105218357D01*
X105502286Y-105181121D01*
X105504958Y-105176123D01*
X105546153Y-105099053D01*
X105570223Y-105019703D01*
X105573165Y-105010006D01*
X105582286Y-104917399D01*
X105580001Y-104894199D01*
X105580001Y-103446657D01*
X106559973Y-104426629D01*
M02*
