M48
METRIC,TZ
T1C0.254
T2C0.600
T3C0.650
T4C0.700
T5C1.000
T6C1.500
%
G90
G05
T1
X64000Y-106075
X64050Y-94950
X64617Y-99342
X65083Y-99808
X77860Y-103335
X80980Y-97485
X83110Y-97125
X84410Y-98725
X85540Y-98068
X88860Y-98085
X89130Y-99585
X89150Y-100265
X90820Y-102125
X91003Y-98610
X91190Y-100735
X91400Y-98075
X91420Y-94105
X91500Y-99045
X93720Y-103305
X96303Y-94688
X96360Y-103215
X96960Y-94627
X97639Y-94644
X98360Y-94605
X99150Y-94425
X99160Y-102385
X99900Y-103975
X99999Y-98856
X100000Y-95425
X100006Y-96085
X100113Y-96876
X100190Y-94605
X100230Y-106695
X100377Y-97575
X101180Y-104245
X102650Y-94365
X104550Y-104575
X104550Y-105475
X106075Y-98850
X107810Y-96215
X108010Y-103015
X108050Y-106375
X109800Y-93825
X111550Y-103235
X113850Y-93850
X115350Y-103235
X117425Y-93875
X118775Y-103225
X136300Y-106000
X137000Y-95800
X149350Y-103025
T5
X110140Y-105610
X112680Y-105610
X115220Y-105610
X117760Y-105610
X120300Y-105610
X110140Y-95450
X112680Y-95450
X115220Y-95450
X117760Y-95450
X120300Y-95450
X79660Y-95440
X82200Y-95440
X84740Y-95440
X87280Y-95440
X89820Y-95440
X79680Y-105610
X82220Y-105610
X84760Y-105610
X87300Y-105610
X89840Y-105610
X92380Y-105610
X94920Y-105610
X97460Y-105610
T2
G00X140975Y-104900
M15
G01X140625Y-104900
M16
G05
G00X143175Y-95100
M15
G01X142825Y-95100
M16
G05
T3
G00X62685Y-97555
M15
G01X63085Y-97555
M16
G05
G00X62685Y-102395
M15
G01X63085Y-102395
M16
G05
T4
G00X59635Y-97245
M15
G01X60135Y-97245
M16
G05
G00X59635Y-102705
M15
G01X60135Y-102705
M16
G05
T6
G00X67580Y-99835
M15
G01X67580Y-100165
M16
G05
G00X75200Y-97295
M15
G01X75200Y-97625
M16
G05
G00X75200Y-102375
M15
G01X75200Y-102705
M16
G05
G00X126400Y-97295
M15
G01X126400Y-97625
M16
G05
G00X126400Y-102375
M15
G01X126400Y-102705
M16
G05
G00X134020Y-99835
M15
G01X134020Y-100165
M16
G05
T0
M30
