G04 #@! TF.GenerationSoftware,KiCad,Pcbnew,(5.1.6-0-10_14)*
G04 #@! TF.CreationDate,2020-07-04T12:52:55-07:00*
G04 #@! TF.ProjectId,18650,31383635-302e-46b6-9963-61645f706362,rev?*
G04 #@! TF.SameCoordinates,Original*
G04 #@! TF.FileFunction,Soldermask,Top*
G04 #@! TF.FilePolarity,Negative*
%FSLAX46Y46*%
G04 Gerber Fmt 4.6, Leading zero omitted, Abs format (unit mm)*
G04 Created by KiCad (PCBNEW (5.1.6-0-10_14)) date 2020-07-04 12:52:55*
%MOMM*%
%LPD*%
G01*
G04 APERTURE LIST*
%ADD10O,1.625600X1.301600*%
%ADD11R,0.601600X1.581600*%
%ADD12R,0.601600X1.101600*%
%ADD13R,0.901600X0.601600*%
%ADD14R,0.901600X0.401600*%
%ADD15R,0.851600X0.401600*%
%ADD16C,2.901600*%
%ADD17R,1.101600X1.101600*%
%ADD18O,1.801600X1.801600*%
%ADD19R,1.801600X1.801600*%
%ADD20R,0.901600X1.001600*%
%ADD21R,1.161600X0.751600*%
%ADD22R,0.801600X0.551600*%
%ADD23R,1.001600X0.901600*%
%ADD24R,2.601600X4.501600*%
%ADD25O,1.801600X1.451600*%
%ADD26O,1.601600X1.201600*%
%ADD27R,1.751600X0.501600*%
%ADD28R,1.601600X2.101600*%
%ADD29R,1.701600X2.281600*%
G04 APERTURE END LIST*
G36*
G01*
X98655800Y-101932100D02*
X98655800Y-102732900D01*
G75*
G02*
X98567900Y-102820800I-87900J0D01*
G01*
X98392100Y-102820800D01*
G75*
G02*
X98304200Y-102732900I0J87900D01*
G01*
X98304200Y-101932100D01*
G75*
G02*
X98392100Y-101844200I87900J0D01*
G01*
X98567900Y-101844200D01*
G75*
G02*
X98655800Y-101932100I0J-87900D01*
G01*
G37*
G36*
G01*
X98155800Y-101932100D02*
X98155800Y-102732900D01*
G75*
G02*
X98067900Y-102820800I-87900J0D01*
G01*
X97892100Y-102820800D01*
G75*
G02*
X97804200Y-102732900I0J87900D01*
G01*
X97804200Y-101932100D01*
G75*
G02*
X97892100Y-101844200I87900J0D01*
G01*
X98067900Y-101844200D01*
G75*
G02*
X98155800Y-101932100I0J-87900D01*
G01*
G37*
G36*
G01*
X97655800Y-101932100D02*
X97655800Y-102732900D01*
G75*
G02*
X97567900Y-102820800I-87900J0D01*
G01*
X97392100Y-102820800D01*
G75*
G02*
X97304200Y-102732900I0J87900D01*
G01*
X97304200Y-101932100D01*
G75*
G02*
X97392100Y-101844200I87900J0D01*
G01*
X97567900Y-101844200D01*
G75*
G02*
X97655800Y-101932100I0J-87900D01*
G01*
G37*
G36*
G01*
X97155800Y-101932100D02*
X97155800Y-102732900D01*
G75*
G02*
X97067900Y-102820800I-87900J0D01*
G01*
X96892100Y-102820800D01*
G75*
G02*
X96804200Y-102732900I0J87900D01*
G01*
X96804200Y-101932100D01*
G75*
G02*
X96892100Y-101844200I87900J0D01*
G01*
X97067900Y-101844200D01*
G75*
G02*
X97155800Y-101932100I0J-87900D01*
G01*
G37*
G36*
G01*
X96655800Y-101932100D02*
X96655800Y-102732900D01*
G75*
G02*
X96567900Y-102820800I-87900J0D01*
G01*
X96392100Y-102820800D01*
G75*
G02*
X96304200Y-102732900I0J87900D01*
G01*
X96304200Y-101932100D01*
G75*
G02*
X96392100Y-101844200I87900J0D01*
G01*
X96567900Y-101844200D01*
G75*
G02*
X96655800Y-101932100I0J-87900D01*
G01*
G37*
G36*
G01*
X96155800Y-101932100D02*
X96155800Y-102732900D01*
G75*
G02*
X96067900Y-102820800I-87900J0D01*
G01*
X95892100Y-102820800D01*
G75*
G02*
X95804200Y-102732900I0J87900D01*
G01*
X95804200Y-101932100D01*
G75*
G02*
X95892100Y-101844200I87900J0D01*
G01*
X96067900Y-101844200D01*
G75*
G02*
X96155800Y-101932100I0J-87900D01*
G01*
G37*
G36*
G01*
X95655800Y-101932100D02*
X95655800Y-102732900D01*
G75*
G02*
X95567900Y-102820800I-87900J0D01*
G01*
X95392100Y-102820800D01*
G75*
G02*
X95304200Y-102732900I0J87900D01*
G01*
X95304200Y-101932100D01*
G75*
G02*
X95392100Y-101844200I87900J0D01*
G01*
X95567900Y-101844200D01*
G75*
G02*
X95655800Y-101932100I0J-87900D01*
G01*
G37*
G36*
G01*
X95155800Y-101932100D02*
X95155800Y-102732900D01*
G75*
G02*
X95067900Y-102820800I-87900J0D01*
G01*
X94892100Y-102820800D01*
G75*
G02*
X94804200Y-102732900I0J87900D01*
G01*
X94804200Y-101932100D01*
G75*
G02*
X94892100Y-101844200I87900J0D01*
G01*
X95067900Y-101844200D01*
G75*
G02*
X95155800Y-101932100I0J-87900D01*
G01*
G37*
G36*
G01*
X94655800Y-101932100D02*
X94655800Y-102732900D01*
G75*
G02*
X94567900Y-102820800I-87900J0D01*
G01*
X94392100Y-102820800D01*
G75*
G02*
X94304200Y-102732900I0J87900D01*
G01*
X94304200Y-101932100D01*
G75*
G02*
X94392100Y-101844200I87900J0D01*
G01*
X94567900Y-101844200D01*
G75*
G02*
X94655800Y-101932100I0J-87900D01*
G01*
G37*
G36*
G01*
X94155800Y-101932100D02*
X94155800Y-102732900D01*
G75*
G02*
X94067900Y-102820800I-87900J0D01*
G01*
X93892100Y-102820800D01*
G75*
G02*
X93804200Y-102732900I0J87900D01*
G01*
X93804200Y-101932100D01*
G75*
G02*
X93892100Y-101844200I87900J0D01*
G01*
X94067900Y-101844200D01*
G75*
G02*
X94155800Y-101932100I0J-87900D01*
G01*
G37*
G36*
G01*
X93655800Y-101932100D02*
X93655800Y-102732900D01*
G75*
G02*
X93567900Y-102820800I-87900J0D01*
G01*
X93392100Y-102820800D01*
G75*
G02*
X93304200Y-102732900I0J87900D01*
G01*
X93304200Y-101932100D01*
G75*
G02*
X93392100Y-101844200I87900J0D01*
G01*
X93567900Y-101844200D01*
G75*
G02*
X93655800Y-101932100I0J-87900D01*
G01*
G37*
G36*
G01*
X93155800Y-101932100D02*
X93155800Y-102732900D01*
G75*
G02*
X93067900Y-102820800I-87900J0D01*
G01*
X92892100Y-102820800D01*
G75*
G02*
X92804200Y-102732900I0J87900D01*
G01*
X92804200Y-101932100D01*
G75*
G02*
X92892100Y-101844200I87900J0D01*
G01*
X93067900Y-101844200D01*
G75*
G02*
X93155800Y-101932100I0J-87900D01*
G01*
G37*
G36*
G01*
X92780800Y-101557100D02*
X92780800Y-101732900D01*
G75*
G02*
X92692900Y-101820800I-87900J0D01*
G01*
X91892100Y-101820800D01*
G75*
G02*
X91804200Y-101732900I0J87900D01*
G01*
X91804200Y-101557100D01*
G75*
G02*
X91892100Y-101469200I87900J0D01*
G01*
X92692900Y-101469200D01*
G75*
G02*
X92780800Y-101557100I0J-87900D01*
G01*
G37*
G36*
G01*
X92780800Y-101057100D02*
X92780800Y-101232900D01*
G75*
G02*
X92692900Y-101320800I-87900J0D01*
G01*
X91892100Y-101320800D01*
G75*
G02*
X91804200Y-101232900I0J87900D01*
G01*
X91804200Y-101057100D01*
G75*
G02*
X91892100Y-100969200I87900J0D01*
G01*
X92692900Y-100969200D01*
G75*
G02*
X92780800Y-101057100I0J-87900D01*
G01*
G37*
G36*
G01*
X92780800Y-100557100D02*
X92780800Y-100732900D01*
G75*
G02*
X92692900Y-100820800I-87900J0D01*
G01*
X91892100Y-100820800D01*
G75*
G02*
X91804200Y-100732900I0J87900D01*
G01*
X91804200Y-100557100D01*
G75*
G02*
X91892100Y-100469200I87900J0D01*
G01*
X92692900Y-100469200D01*
G75*
G02*
X92780800Y-100557100I0J-87900D01*
G01*
G37*
G36*
G01*
X92780800Y-100057100D02*
X92780800Y-100232900D01*
G75*
G02*
X92692900Y-100320800I-87900J0D01*
G01*
X91892100Y-100320800D01*
G75*
G02*
X91804200Y-100232900I0J87900D01*
G01*
X91804200Y-100057100D01*
G75*
G02*
X91892100Y-99969200I87900J0D01*
G01*
X92692900Y-99969200D01*
G75*
G02*
X92780800Y-100057100I0J-87900D01*
G01*
G37*
G36*
G01*
X92780800Y-99557100D02*
X92780800Y-99732900D01*
G75*
G02*
X92692900Y-99820800I-87900J0D01*
G01*
X91892100Y-99820800D01*
G75*
G02*
X91804200Y-99732900I0J87900D01*
G01*
X91804200Y-99557100D01*
G75*
G02*
X91892100Y-99469200I87900J0D01*
G01*
X92692900Y-99469200D01*
G75*
G02*
X92780800Y-99557100I0J-87900D01*
G01*
G37*
G36*
G01*
X92780800Y-99057100D02*
X92780800Y-99232900D01*
G75*
G02*
X92692900Y-99320800I-87900J0D01*
G01*
X91892100Y-99320800D01*
G75*
G02*
X91804200Y-99232900I0J87900D01*
G01*
X91804200Y-99057100D01*
G75*
G02*
X91892100Y-98969200I87900J0D01*
G01*
X92692900Y-98969200D01*
G75*
G02*
X92780800Y-99057100I0J-87900D01*
G01*
G37*
G36*
G01*
X92780800Y-98557100D02*
X92780800Y-98732900D01*
G75*
G02*
X92692900Y-98820800I-87900J0D01*
G01*
X91892100Y-98820800D01*
G75*
G02*
X91804200Y-98732900I0J87900D01*
G01*
X91804200Y-98557100D01*
G75*
G02*
X91892100Y-98469200I87900J0D01*
G01*
X92692900Y-98469200D01*
G75*
G02*
X92780800Y-98557100I0J-87900D01*
G01*
G37*
G36*
G01*
X92780800Y-98057100D02*
X92780800Y-98232900D01*
G75*
G02*
X92692900Y-98320800I-87900J0D01*
G01*
X91892100Y-98320800D01*
G75*
G02*
X91804200Y-98232900I0J87900D01*
G01*
X91804200Y-98057100D01*
G75*
G02*
X91892100Y-97969200I87900J0D01*
G01*
X92692900Y-97969200D01*
G75*
G02*
X92780800Y-98057100I0J-87900D01*
G01*
G37*
G36*
G01*
X92780800Y-97557100D02*
X92780800Y-97732900D01*
G75*
G02*
X92692900Y-97820800I-87900J0D01*
G01*
X91892100Y-97820800D01*
G75*
G02*
X91804200Y-97732900I0J87900D01*
G01*
X91804200Y-97557100D01*
G75*
G02*
X91892100Y-97469200I87900J0D01*
G01*
X92692900Y-97469200D01*
G75*
G02*
X92780800Y-97557100I0J-87900D01*
G01*
G37*
G36*
G01*
X92780800Y-97057100D02*
X92780800Y-97232900D01*
G75*
G02*
X92692900Y-97320800I-87900J0D01*
G01*
X91892100Y-97320800D01*
G75*
G02*
X91804200Y-97232900I0J87900D01*
G01*
X91804200Y-97057100D01*
G75*
G02*
X91892100Y-96969200I87900J0D01*
G01*
X92692900Y-96969200D01*
G75*
G02*
X92780800Y-97057100I0J-87900D01*
G01*
G37*
G36*
G01*
X92780800Y-96557100D02*
X92780800Y-96732900D01*
G75*
G02*
X92692900Y-96820800I-87900J0D01*
G01*
X91892100Y-96820800D01*
G75*
G02*
X91804200Y-96732900I0J87900D01*
G01*
X91804200Y-96557100D01*
G75*
G02*
X91892100Y-96469200I87900J0D01*
G01*
X92692900Y-96469200D01*
G75*
G02*
X92780800Y-96557100I0J-87900D01*
G01*
G37*
G36*
G01*
X92780800Y-96057100D02*
X92780800Y-96232900D01*
G75*
G02*
X92692900Y-96320800I-87900J0D01*
G01*
X91892100Y-96320800D01*
G75*
G02*
X91804200Y-96232900I0J87900D01*
G01*
X91804200Y-96057100D01*
G75*
G02*
X91892100Y-95969200I87900J0D01*
G01*
X92692900Y-95969200D01*
G75*
G02*
X92780800Y-96057100I0J-87900D01*
G01*
G37*
G36*
G01*
X93155800Y-95057100D02*
X93155800Y-95857900D01*
G75*
G02*
X93067900Y-95945800I-87900J0D01*
G01*
X92892100Y-95945800D01*
G75*
G02*
X92804200Y-95857900I0J87900D01*
G01*
X92804200Y-95057100D01*
G75*
G02*
X92892100Y-94969200I87900J0D01*
G01*
X93067900Y-94969200D01*
G75*
G02*
X93155800Y-95057100I0J-87900D01*
G01*
G37*
G36*
G01*
X93655800Y-95057100D02*
X93655800Y-95857900D01*
G75*
G02*
X93567900Y-95945800I-87900J0D01*
G01*
X93392100Y-95945800D01*
G75*
G02*
X93304200Y-95857900I0J87900D01*
G01*
X93304200Y-95057100D01*
G75*
G02*
X93392100Y-94969200I87900J0D01*
G01*
X93567900Y-94969200D01*
G75*
G02*
X93655800Y-95057100I0J-87900D01*
G01*
G37*
G36*
G01*
X94155800Y-95057100D02*
X94155800Y-95857900D01*
G75*
G02*
X94067900Y-95945800I-87900J0D01*
G01*
X93892100Y-95945800D01*
G75*
G02*
X93804200Y-95857900I0J87900D01*
G01*
X93804200Y-95057100D01*
G75*
G02*
X93892100Y-94969200I87900J0D01*
G01*
X94067900Y-94969200D01*
G75*
G02*
X94155800Y-95057100I0J-87900D01*
G01*
G37*
G36*
G01*
X94655800Y-95057100D02*
X94655800Y-95857900D01*
G75*
G02*
X94567900Y-95945800I-87900J0D01*
G01*
X94392100Y-95945800D01*
G75*
G02*
X94304200Y-95857900I0J87900D01*
G01*
X94304200Y-95057100D01*
G75*
G02*
X94392100Y-94969200I87900J0D01*
G01*
X94567900Y-94969200D01*
G75*
G02*
X94655800Y-95057100I0J-87900D01*
G01*
G37*
G36*
G01*
X95155800Y-95057100D02*
X95155800Y-95857900D01*
G75*
G02*
X95067900Y-95945800I-87900J0D01*
G01*
X94892100Y-95945800D01*
G75*
G02*
X94804200Y-95857900I0J87900D01*
G01*
X94804200Y-95057100D01*
G75*
G02*
X94892100Y-94969200I87900J0D01*
G01*
X95067900Y-94969200D01*
G75*
G02*
X95155800Y-95057100I0J-87900D01*
G01*
G37*
G36*
G01*
X95655800Y-95057100D02*
X95655800Y-95857900D01*
G75*
G02*
X95567900Y-95945800I-87900J0D01*
G01*
X95392100Y-95945800D01*
G75*
G02*
X95304200Y-95857900I0J87900D01*
G01*
X95304200Y-95057100D01*
G75*
G02*
X95392100Y-94969200I87900J0D01*
G01*
X95567900Y-94969200D01*
G75*
G02*
X95655800Y-95057100I0J-87900D01*
G01*
G37*
G36*
G01*
X96155800Y-95057100D02*
X96155800Y-95857900D01*
G75*
G02*
X96067900Y-95945800I-87900J0D01*
G01*
X95892100Y-95945800D01*
G75*
G02*
X95804200Y-95857900I0J87900D01*
G01*
X95804200Y-95057100D01*
G75*
G02*
X95892100Y-94969200I87900J0D01*
G01*
X96067900Y-94969200D01*
G75*
G02*
X96155800Y-95057100I0J-87900D01*
G01*
G37*
G36*
G01*
X96655800Y-95057100D02*
X96655800Y-95857900D01*
G75*
G02*
X96567900Y-95945800I-87900J0D01*
G01*
X96392100Y-95945800D01*
G75*
G02*
X96304200Y-95857900I0J87900D01*
G01*
X96304200Y-95057100D01*
G75*
G02*
X96392100Y-94969200I87900J0D01*
G01*
X96567900Y-94969200D01*
G75*
G02*
X96655800Y-95057100I0J-87900D01*
G01*
G37*
G36*
G01*
X97155800Y-95057100D02*
X97155800Y-95857900D01*
G75*
G02*
X97067900Y-95945800I-87900J0D01*
G01*
X96892100Y-95945800D01*
G75*
G02*
X96804200Y-95857900I0J87900D01*
G01*
X96804200Y-95057100D01*
G75*
G02*
X96892100Y-94969200I87900J0D01*
G01*
X97067900Y-94969200D01*
G75*
G02*
X97155800Y-95057100I0J-87900D01*
G01*
G37*
G36*
G01*
X97655800Y-95057100D02*
X97655800Y-95857900D01*
G75*
G02*
X97567900Y-95945800I-87900J0D01*
G01*
X97392100Y-95945800D01*
G75*
G02*
X97304200Y-95857900I0J87900D01*
G01*
X97304200Y-95057100D01*
G75*
G02*
X97392100Y-94969200I87900J0D01*
G01*
X97567900Y-94969200D01*
G75*
G02*
X97655800Y-95057100I0J-87900D01*
G01*
G37*
G36*
G01*
X98155800Y-95057100D02*
X98155800Y-95857900D01*
G75*
G02*
X98067900Y-95945800I-87900J0D01*
G01*
X97892100Y-95945800D01*
G75*
G02*
X97804200Y-95857900I0J87900D01*
G01*
X97804200Y-95057100D01*
G75*
G02*
X97892100Y-94969200I87900J0D01*
G01*
X98067900Y-94969200D01*
G75*
G02*
X98155800Y-95057100I0J-87900D01*
G01*
G37*
G36*
G01*
X98655800Y-95057100D02*
X98655800Y-95857900D01*
G75*
G02*
X98567900Y-95945800I-87900J0D01*
G01*
X98392100Y-95945800D01*
G75*
G02*
X98304200Y-95857900I0J87900D01*
G01*
X98304200Y-95057100D01*
G75*
G02*
X98392100Y-94969200I87900J0D01*
G01*
X98567900Y-94969200D01*
G75*
G02*
X98655800Y-95057100I0J-87900D01*
G01*
G37*
G36*
G01*
X99655800Y-96057100D02*
X99655800Y-96232900D01*
G75*
G02*
X99567900Y-96320800I-87900J0D01*
G01*
X98767100Y-96320800D01*
G75*
G02*
X98679200Y-96232900I0J87900D01*
G01*
X98679200Y-96057100D01*
G75*
G02*
X98767100Y-95969200I87900J0D01*
G01*
X99567900Y-95969200D01*
G75*
G02*
X99655800Y-96057100I0J-87900D01*
G01*
G37*
G36*
G01*
X99655800Y-96557100D02*
X99655800Y-96732900D01*
G75*
G02*
X99567900Y-96820800I-87900J0D01*
G01*
X98767100Y-96820800D01*
G75*
G02*
X98679200Y-96732900I0J87900D01*
G01*
X98679200Y-96557100D01*
G75*
G02*
X98767100Y-96469200I87900J0D01*
G01*
X99567900Y-96469200D01*
G75*
G02*
X99655800Y-96557100I0J-87900D01*
G01*
G37*
G36*
G01*
X99655800Y-97057100D02*
X99655800Y-97232900D01*
G75*
G02*
X99567900Y-97320800I-87900J0D01*
G01*
X98767100Y-97320800D01*
G75*
G02*
X98679200Y-97232900I0J87900D01*
G01*
X98679200Y-97057100D01*
G75*
G02*
X98767100Y-96969200I87900J0D01*
G01*
X99567900Y-96969200D01*
G75*
G02*
X99655800Y-97057100I0J-87900D01*
G01*
G37*
G36*
G01*
X99655800Y-97557100D02*
X99655800Y-97732900D01*
G75*
G02*
X99567900Y-97820800I-87900J0D01*
G01*
X98767100Y-97820800D01*
G75*
G02*
X98679200Y-97732900I0J87900D01*
G01*
X98679200Y-97557100D01*
G75*
G02*
X98767100Y-97469200I87900J0D01*
G01*
X99567900Y-97469200D01*
G75*
G02*
X99655800Y-97557100I0J-87900D01*
G01*
G37*
G36*
G01*
X99655800Y-98057100D02*
X99655800Y-98232900D01*
G75*
G02*
X99567900Y-98320800I-87900J0D01*
G01*
X98767100Y-98320800D01*
G75*
G02*
X98679200Y-98232900I0J87900D01*
G01*
X98679200Y-98057100D01*
G75*
G02*
X98767100Y-97969200I87900J0D01*
G01*
X99567900Y-97969200D01*
G75*
G02*
X99655800Y-98057100I0J-87900D01*
G01*
G37*
G36*
G01*
X99655800Y-98557100D02*
X99655800Y-98732900D01*
G75*
G02*
X99567900Y-98820800I-87900J0D01*
G01*
X98767100Y-98820800D01*
G75*
G02*
X98679200Y-98732900I0J87900D01*
G01*
X98679200Y-98557100D01*
G75*
G02*
X98767100Y-98469200I87900J0D01*
G01*
X99567900Y-98469200D01*
G75*
G02*
X99655800Y-98557100I0J-87900D01*
G01*
G37*
G36*
G01*
X99655800Y-99057100D02*
X99655800Y-99232900D01*
G75*
G02*
X99567900Y-99320800I-87900J0D01*
G01*
X98767100Y-99320800D01*
G75*
G02*
X98679200Y-99232900I0J87900D01*
G01*
X98679200Y-99057100D01*
G75*
G02*
X98767100Y-98969200I87900J0D01*
G01*
X99567900Y-98969200D01*
G75*
G02*
X99655800Y-99057100I0J-87900D01*
G01*
G37*
G36*
G01*
X99655800Y-99557100D02*
X99655800Y-99732900D01*
G75*
G02*
X99567900Y-99820800I-87900J0D01*
G01*
X98767100Y-99820800D01*
G75*
G02*
X98679200Y-99732900I0J87900D01*
G01*
X98679200Y-99557100D01*
G75*
G02*
X98767100Y-99469200I87900J0D01*
G01*
X99567900Y-99469200D01*
G75*
G02*
X99655800Y-99557100I0J-87900D01*
G01*
G37*
G36*
G01*
X99655800Y-100057100D02*
X99655800Y-100232900D01*
G75*
G02*
X99567900Y-100320800I-87900J0D01*
G01*
X98767100Y-100320800D01*
G75*
G02*
X98679200Y-100232900I0J87900D01*
G01*
X98679200Y-100057100D01*
G75*
G02*
X98767100Y-99969200I87900J0D01*
G01*
X99567900Y-99969200D01*
G75*
G02*
X99655800Y-100057100I0J-87900D01*
G01*
G37*
G36*
G01*
X99655800Y-100557100D02*
X99655800Y-100732900D01*
G75*
G02*
X99567900Y-100820800I-87900J0D01*
G01*
X98767100Y-100820800D01*
G75*
G02*
X98679200Y-100732900I0J87900D01*
G01*
X98679200Y-100557100D01*
G75*
G02*
X98767100Y-100469200I87900J0D01*
G01*
X99567900Y-100469200D01*
G75*
G02*
X99655800Y-100557100I0J-87900D01*
G01*
G37*
G36*
G01*
X99655800Y-101057100D02*
X99655800Y-101232900D01*
G75*
G02*
X99567900Y-101320800I-87900J0D01*
G01*
X98767100Y-101320800D01*
G75*
G02*
X98679200Y-101232900I0J87900D01*
G01*
X98679200Y-101057100D01*
G75*
G02*
X98767100Y-100969200I87900J0D01*
G01*
X99567900Y-100969200D01*
G75*
G02*
X99655800Y-101057100I0J-87900D01*
G01*
G37*
G36*
G01*
X99655800Y-101557100D02*
X99655800Y-101732900D01*
G75*
G02*
X99567900Y-101820800I-87900J0D01*
G01*
X98767100Y-101820800D01*
G75*
G02*
X98679200Y-101732900I0J87900D01*
G01*
X98679200Y-101557100D01*
G75*
G02*
X98767100Y-101469200I87900J0D01*
G01*
X99567900Y-101469200D01*
G75*
G02*
X99655800Y-101557100I0J-87900D01*
G01*
G37*
G36*
G01*
X98580800Y-96298736D02*
X98580800Y-101491264D01*
G75*
G02*
X98326264Y-101745800I-254536J0D01*
G01*
X93133736Y-101745800D01*
G75*
G02*
X92879200Y-101491264I0J254536D01*
G01*
X92879200Y-96298736D01*
G75*
G02*
X93133736Y-96044200I254536J0D01*
G01*
X98326264Y-96044200D01*
G75*
G02*
X98580800Y-96298736I0J-254536D01*
G01*
G37*
D10*
X140800000Y-104900000D03*
X143000000Y-95100000D03*
D11*
X106300000Y-104885000D03*
D12*
X106300000Y-106305000D03*
D13*
X105450000Y-106375000D03*
X105450000Y-104575000D03*
D14*
X105450000Y-105475000D03*
D13*
X107150000Y-104575000D03*
D14*
X107150000Y-105475000D03*
D13*
X107150000Y-106375000D03*
D15*
X86400000Y-98225000D03*
X86400000Y-98725000D03*
X86400000Y-99225000D03*
X86400000Y-99725000D03*
X83500000Y-99725000D03*
X83500000Y-99225000D03*
X83500000Y-98725000D03*
X83500000Y-98225000D03*
D16*
X75200000Y-97460000D03*
X75200000Y-102540000D03*
X126400000Y-97460000D03*
X126400000Y-102540000D03*
X134020000Y-100000000D03*
X67580000Y-100000000D03*
D17*
X123425000Y-94300000D03*
X123425000Y-96800000D03*
D18*
X120300000Y-105610000D03*
X117760000Y-105610000D03*
X115220000Y-105610000D03*
X112680000Y-105610000D03*
D19*
X110140000Y-105610000D03*
D20*
X104990000Y-101845000D03*
X104990000Y-100445000D03*
X106090000Y-100445000D03*
X106090000Y-101845000D03*
G36*
G01*
X80379200Y-103346650D02*
X80379200Y-102783350D01*
G75*
G02*
X80623350Y-102539200I244150J0D01*
G01*
X81111650Y-102539200D01*
G75*
G02*
X81355800Y-102783350I0J-244150D01*
G01*
X81355800Y-103346650D01*
G75*
G02*
X81111650Y-103590800I-244150J0D01*
G01*
X80623350Y-103590800D01*
G75*
G02*
X80379200Y-103346650I0J244150D01*
G01*
G37*
G36*
G01*
X78804200Y-103346650D02*
X78804200Y-102783350D01*
G75*
G02*
X79048350Y-102539200I244150J0D01*
G01*
X79536650Y-102539200D01*
G75*
G02*
X79780800Y-102783350I0J-244150D01*
G01*
X79780800Y-103346650D01*
G75*
G02*
X79536650Y-103590800I-244150J0D01*
G01*
X79048350Y-103590800D01*
G75*
G02*
X78804200Y-103346650I0J244150D01*
G01*
G37*
G36*
G01*
X88880800Y-101853350D02*
X88880800Y-102416650D01*
G75*
G02*
X88636650Y-102660800I-244150J0D01*
G01*
X88148350Y-102660800D01*
G75*
G02*
X87904200Y-102416650I0J244150D01*
G01*
X87904200Y-101853350D01*
G75*
G02*
X88148350Y-101609200I244150J0D01*
G01*
X88636650Y-101609200D01*
G75*
G02*
X88880800Y-101853350I0J-244150D01*
G01*
G37*
G36*
G01*
X90455800Y-101853350D02*
X90455800Y-102416650D01*
G75*
G02*
X90211650Y-102660800I-244150J0D01*
G01*
X89723350Y-102660800D01*
G75*
G02*
X89479200Y-102416650I0J244150D01*
G01*
X89479200Y-101853350D01*
G75*
G02*
X89723350Y-101609200I244150J0D01*
G01*
X90211650Y-101609200D01*
G75*
G02*
X90455800Y-101853350I0J-244150D01*
G01*
G37*
G36*
G01*
X102989200Y-106776650D02*
X102989200Y-106213350D01*
G75*
G02*
X103233350Y-105969200I244150J0D01*
G01*
X103721650Y-105969200D01*
G75*
G02*
X103965800Y-106213350I0J-244150D01*
G01*
X103965800Y-106776650D01*
G75*
G02*
X103721650Y-107020800I-244150J0D01*
G01*
X103233350Y-107020800D01*
G75*
G02*
X102989200Y-106776650I0J244150D01*
G01*
G37*
G36*
G01*
X101414200Y-106776650D02*
X101414200Y-106213350D01*
G75*
G02*
X101658350Y-105969200I244150J0D01*
G01*
X102146650Y-105969200D01*
G75*
G02*
X102390800Y-106213350I0J-244150D01*
G01*
X102390800Y-106776650D01*
G75*
G02*
X102146650Y-107020800I-244150J0D01*
G01*
X101658350Y-107020800D01*
G75*
G02*
X101414200Y-106776650I0J244150D01*
G01*
G37*
G36*
G01*
X94784200Y-93636650D02*
X94784200Y-93073350D01*
G75*
G02*
X95028350Y-92829200I244150J0D01*
G01*
X95516650Y-92829200D01*
G75*
G02*
X95760800Y-93073350I0J-244150D01*
G01*
X95760800Y-93636650D01*
G75*
G02*
X95516650Y-93880800I-244150J0D01*
G01*
X95028350Y-93880800D01*
G75*
G02*
X94784200Y-93636650I0J244150D01*
G01*
G37*
G36*
G01*
X96359200Y-93636650D02*
X96359200Y-93073350D01*
G75*
G02*
X96603350Y-92829200I244150J0D01*
G01*
X97091650Y-92829200D01*
G75*
G02*
X97335800Y-93073350I0J-244150D01*
G01*
X97335800Y-93636650D01*
G75*
G02*
X97091650Y-93880800I-244150J0D01*
G01*
X96603350Y-93880800D01*
G75*
G02*
X96359200Y-93636650I0J244150D01*
G01*
G37*
D21*
X79405000Y-100525000D03*
X79405000Y-101475000D03*
X79405000Y-99575000D03*
X81605000Y-99575000D03*
X81605000Y-100525000D03*
X81605000Y-101475000D03*
G36*
G01*
X62699200Y-95231650D02*
X62699200Y-94668350D01*
G75*
G02*
X62943350Y-94424200I244150J0D01*
G01*
X63431650Y-94424200D01*
G75*
G02*
X63675800Y-94668350I0J-244150D01*
G01*
X63675800Y-95231650D01*
G75*
G02*
X63431650Y-95475800I-244150J0D01*
G01*
X62943350Y-95475800D01*
G75*
G02*
X62699200Y-95231650I0J244150D01*
G01*
G37*
G36*
G01*
X61124200Y-95231650D02*
X61124200Y-94668350D01*
G75*
G02*
X61368350Y-94424200I244150J0D01*
G01*
X61856650Y-94424200D01*
G75*
G02*
X62100800Y-94668350I0J-244150D01*
G01*
X62100800Y-95231650D01*
G75*
G02*
X61856650Y-95475800I-244150J0D01*
G01*
X61368350Y-95475800D01*
G75*
G02*
X61124200Y-95231650I0J244150D01*
G01*
G37*
G36*
G01*
X82740800Y-102783350D02*
X82740800Y-103346650D01*
G75*
G02*
X82496650Y-103590800I-244150J0D01*
G01*
X82008350Y-103590800D01*
G75*
G02*
X81764200Y-103346650I0J244150D01*
G01*
X81764200Y-102783350D01*
G75*
G02*
X82008350Y-102539200I244150J0D01*
G01*
X82496650Y-102539200D01*
G75*
G02*
X82740800Y-102783350I0J-244150D01*
G01*
G37*
G36*
G01*
X84315800Y-102783350D02*
X84315800Y-103346650D01*
G75*
G02*
X84071650Y-103590800I-244150J0D01*
G01*
X83583350Y-103590800D01*
G75*
G02*
X83339200Y-103346650I0J244150D01*
G01*
X83339200Y-102783350D01*
G75*
G02*
X83583350Y-102539200I244150J0D01*
G01*
X84071650Y-102539200D01*
G75*
G02*
X84315800Y-102783350I0J-244150D01*
G01*
G37*
G36*
G01*
X62100800Y-93193350D02*
X62100800Y-93756650D01*
G75*
G02*
X61856650Y-94000800I-244150J0D01*
G01*
X61368350Y-94000800D01*
G75*
G02*
X61124200Y-93756650I0J244150D01*
G01*
X61124200Y-93193350D01*
G75*
G02*
X61368350Y-92949200I244150J0D01*
G01*
X61856650Y-92949200D01*
G75*
G02*
X62100800Y-93193350I0J-244150D01*
G01*
G37*
G36*
G01*
X63675800Y-93193350D02*
X63675800Y-93756650D01*
G75*
G02*
X63431650Y-94000800I-244150J0D01*
G01*
X62943350Y-94000800D01*
G75*
G02*
X62699200Y-93756650I0J244150D01*
G01*
X62699200Y-93193350D01*
G75*
G02*
X62943350Y-92949200I244150J0D01*
G01*
X63431650Y-92949200D01*
G75*
G02*
X63675800Y-93193350I0J-244150D01*
G01*
G37*
G36*
G01*
X80620800Y-97713350D02*
X80620800Y-98276650D01*
G75*
G02*
X80376650Y-98520800I-244150J0D01*
G01*
X79888350Y-98520800D01*
G75*
G02*
X79644200Y-98276650I0J244150D01*
G01*
X79644200Y-97713350D01*
G75*
G02*
X79888350Y-97469200I244150J0D01*
G01*
X80376650Y-97469200D01*
G75*
G02*
X80620800Y-97713350I0J-244150D01*
G01*
G37*
G36*
G01*
X82195800Y-97713350D02*
X82195800Y-98276650D01*
G75*
G02*
X81951650Y-98520800I-244150J0D01*
G01*
X81463350Y-98520800D01*
G75*
G02*
X81219200Y-98276650I0J244150D01*
G01*
X81219200Y-97713350D01*
G75*
G02*
X81463350Y-97469200I244150J0D01*
G01*
X81951650Y-97469200D01*
G75*
G02*
X82195800Y-97713350I0J-244150D01*
G01*
G37*
G36*
G01*
X78141650Y-102125800D02*
X77578350Y-102125800D01*
G75*
G02*
X77334200Y-101881650I0J244150D01*
G01*
X77334200Y-101393350D01*
G75*
G02*
X77578350Y-101149200I244150J0D01*
G01*
X78141650Y-101149200D01*
G75*
G02*
X78385800Y-101393350I0J-244150D01*
G01*
X78385800Y-101881650D01*
G75*
G02*
X78141650Y-102125800I-244150J0D01*
G01*
G37*
G36*
G01*
X78141650Y-100550800D02*
X77578350Y-100550800D01*
G75*
G02*
X77334200Y-100306650I0J244150D01*
G01*
X77334200Y-99818350D01*
G75*
G02*
X77578350Y-99574200I244150J0D01*
G01*
X78141650Y-99574200D01*
G75*
G02*
X78385800Y-99818350I0J-244150D01*
G01*
X78385800Y-100306650D01*
G75*
G02*
X78141650Y-100550800I-244150J0D01*
G01*
G37*
D22*
X89940000Y-100545000D03*
X89940000Y-99245000D03*
X87940000Y-99895000D03*
G36*
G01*
X62025800Y-106593350D02*
X62025800Y-107156650D01*
G75*
G02*
X61781650Y-107400800I-244150J0D01*
G01*
X61293350Y-107400800D01*
G75*
G02*
X61049200Y-107156650I0J244150D01*
G01*
X61049200Y-106593350D01*
G75*
G02*
X61293350Y-106349200I244150J0D01*
G01*
X61781650Y-106349200D01*
G75*
G02*
X62025800Y-106593350I0J-244150D01*
G01*
G37*
G36*
G01*
X63600800Y-106593350D02*
X63600800Y-107156650D01*
G75*
G02*
X63356650Y-107400800I-244150J0D01*
G01*
X62868350Y-107400800D01*
G75*
G02*
X62624200Y-107156650I0J244150D01*
G01*
X62624200Y-106593350D01*
G75*
G02*
X62868350Y-106349200I244150J0D01*
G01*
X63356650Y-106349200D01*
G75*
G02*
X63600800Y-106593350I0J-244150D01*
G01*
G37*
G36*
G01*
X101441650Y-94205800D02*
X100878350Y-94205800D01*
G75*
G02*
X100634200Y-93961650I0J244150D01*
G01*
X100634200Y-93473350D01*
G75*
G02*
X100878350Y-93229200I244150J0D01*
G01*
X101441650Y-93229200D01*
G75*
G02*
X101685800Y-93473350I0J-244150D01*
G01*
X101685800Y-93961650D01*
G75*
G02*
X101441650Y-94205800I-244150J0D01*
G01*
G37*
G36*
G01*
X101441650Y-95780800D02*
X100878350Y-95780800D01*
G75*
G02*
X100634200Y-95536650I0J244150D01*
G01*
X100634200Y-95048350D01*
G75*
G02*
X100878350Y-94804200I244150J0D01*
G01*
X101441650Y-94804200D01*
G75*
G02*
X101685800Y-95048350I0J-244150D01*
G01*
X101685800Y-95536650D01*
G75*
G02*
X101441650Y-95780800I-244150J0D01*
G01*
G37*
G36*
G01*
X105878350Y-94804200D02*
X106441650Y-94804200D01*
G75*
G02*
X106685800Y-95048350I0J-244150D01*
G01*
X106685800Y-95536650D01*
G75*
G02*
X106441650Y-95780800I-244150J0D01*
G01*
X105878350Y-95780800D01*
G75*
G02*
X105634200Y-95536650I0J244150D01*
G01*
X105634200Y-95048350D01*
G75*
G02*
X105878350Y-94804200I244150J0D01*
G01*
G37*
G36*
G01*
X105878350Y-93229200D02*
X106441650Y-93229200D01*
G75*
G02*
X106685800Y-93473350I0J-244150D01*
G01*
X106685800Y-93961650D01*
G75*
G02*
X106441650Y-94205800I-244150J0D01*
G01*
X105878350Y-94205800D01*
G75*
G02*
X105634200Y-93961650I0J244150D01*
G01*
X105634200Y-93473350D01*
G75*
G02*
X105878350Y-93229200I244150J0D01*
G01*
G37*
D18*
X97460000Y-105610000D03*
X94920000Y-105610000D03*
X92380000Y-105610000D03*
X89840000Y-105610000D03*
X87300000Y-105610000D03*
X84760000Y-105610000D03*
X82220000Y-105610000D03*
D19*
X79680000Y-105610000D03*
G36*
G01*
X101414200Y-103786650D02*
X101414200Y-103223350D01*
G75*
G02*
X101658350Y-102979200I244150J0D01*
G01*
X102146650Y-102979200D01*
G75*
G02*
X102390800Y-103223350I0J-244150D01*
G01*
X102390800Y-103786650D01*
G75*
G02*
X102146650Y-104030800I-244150J0D01*
G01*
X101658350Y-104030800D01*
G75*
G02*
X101414200Y-103786650I0J244150D01*
G01*
G37*
G36*
G01*
X102989200Y-103786650D02*
X102989200Y-103223350D01*
G75*
G02*
X103233350Y-102979200I244150J0D01*
G01*
X103721650Y-102979200D01*
G75*
G02*
X103965800Y-103223350I0J-244150D01*
G01*
X103965800Y-103786650D01*
G75*
G02*
X103721650Y-104030800I-244150J0D01*
G01*
X103233350Y-104030800D01*
G75*
G02*
X102989200Y-103786650I0J244150D01*
G01*
G37*
G36*
G01*
X102989200Y-105281650D02*
X102989200Y-104718350D01*
G75*
G02*
X103233350Y-104474200I244150J0D01*
G01*
X103721650Y-104474200D01*
G75*
G02*
X103965800Y-104718350I0J-244150D01*
G01*
X103965800Y-105281650D01*
G75*
G02*
X103721650Y-105525800I-244150J0D01*
G01*
X103233350Y-105525800D01*
G75*
G02*
X102989200Y-105281650I0J244150D01*
G01*
G37*
G36*
G01*
X101414200Y-105281650D02*
X101414200Y-104718350D01*
G75*
G02*
X101658350Y-104474200I244150J0D01*
G01*
X102146650Y-104474200D01*
G75*
G02*
X102390800Y-104718350I0J-244150D01*
G01*
X102390800Y-105281650D01*
G75*
G02*
X102146650Y-105525800I-244150J0D01*
G01*
X101658350Y-105525800D01*
G75*
G02*
X101414200Y-105281650I0J244150D01*
G01*
G37*
D23*
X102670000Y-93285000D03*
X102670000Y-95185000D03*
X104670000Y-94235000D03*
D24*
X59615000Y-100000000D03*
D25*
X59885000Y-102705000D03*
X59885000Y-97245000D03*
D26*
X62885000Y-102395000D03*
X62885000Y-97555000D03*
D27*
X62765000Y-101275000D03*
X62765000Y-100625000D03*
X62765000Y-99975000D03*
X62765000Y-99325000D03*
X62765000Y-98675000D03*
D28*
X62885000Y-102875000D03*
X62865000Y-97125000D03*
D29*
X149600000Y-104590000D03*
X149600000Y-95410000D03*
D17*
X63050000Y-105175000D03*
X60550000Y-105175000D03*
G36*
G01*
X107484200Y-93196650D02*
X107484200Y-92633350D01*
G75*
G02*
X107728350Y-92389200I244150J0D01*
G01*
X108216650Y-92389200D01*
G75*
G02*
X108460800Y-92633350I0J-244150D01*
G01*
X108460800Y-93196650D01*
G75*
G02*
X108216650Y-93440800I-244150J0D01*
G01*
X107728350Y-93440800D01*
G75*
G02*
X107484200Y-93196650I0J244150D01*
G01*
G37*
G36*
G01*
X109059200Y-93196650D02*
X109059200Y-92633350D01*
G75*
G02*
X109303350Y-92389200I244150J0D01*
G01*
X109791650Y-92389200D01*
G75*
G02*
X110035800Y-92633350I0J-244150D01*
G01*
X110035800Y-93196650D01*
G75*
G02*
X109791650Y-93440800I-244150J0D01*
G01*
X109303350Y-93440800D01*
G75*
G02*
X109059200Y-93196650I0J244150D01*
G01*
G37*
G36*
G01*
X112459200Y-93196650D02*
X112459200Y-92633350D01*
G75*
G02*
X112703350Y-92389200I244150J0D01*
G01*
X113191650Y-92389200D01*
G75*
G02*
X113435800Y-92633350I0J-244150D01*
G01*
X113435800Y-93196650D01*
G75*
G02*
X113191650Y-93440800I-244150J0D01*
G01*
X112703350Y-93440800D01*
G75*
G02*
X112459200Y-93196650I0J244150D01*
G01*
G37*
G36*
G01*
X110884200Y-93196650D02*
X110884200Y-92633350D01*
G75*
G02*
X111128350Y-92389200I244150J0D01*
G01*
X111616650Y-92389200D01*
G75*
G02*
X111860800Y-92633350I0J-244150D01*
G01*
X111860800Y-93196650D01*
G75*
G02*
X111616650Y-93440800I-244150J0D01*
G01*
X111128350Y-93440800D01*
G75*
G02*
X110884200Y-93196650I0J244150D01*
G01*
G37*
G36*
G01*
X116835800Y-92633350D02*
X116835800Y-93196650D01*
G75*
G02*
X116591650Y-93440800I-244150J0D01*
G01*
X116103350Y-93440800D01*
G75*
G02*
X115859200Y-93196650I0J244150D01*
G01*
X115859200Y-92633350D01*
G75*
G02*
X116103350Y-92389200I244150J0D01*
G01*
X116591650Y-92389200D01*
G75*
G02*
X116835800Y-92633350I0J-244150D01*
G01*
G37*
G36*
G01*
X115260800Y-92633350D02*
X115260800Y-93196650D01*
G75*
G02*
X115016650Y-93440800I-244150J0D01*
G01*
X114528350Y-93440800D01*
G75*
G02*
X114284200Y-93196650I0J244150D01*
G01*
X114284200Y-92633350D01*
G75*
G02*
X114528350Y-92389200I244150J0D01*
G01*
X115016650Y-92389200D01*
G75*
G02*
X115260800Y-92633350I0J-244150D01*
G01*
G37*
G36*
G01*
X120275800Y-92633350D02*
X120275800Y-93196650D01*
G75*
G02*
X120031650Y-93440800I-244150J0D01*
G01*
X119543350Y-93440800D01*
G75*
G02*
X119299200Y-93196650I0J244150D01*
G01*
X119299200Y-92633350D01*
G75*
G02*
X119543350Y-92389200I244150J0D01*
G01*
X120031650Y-92389200D01*
G75*
G02*
X120275800Y-92633350I0J-244150D01*
G01*
G37*
G36*
G01*
X118700800Y-92633350D02*
X118700800Y-93196650D01*
G75*
G02*
X118456650Y-93440800I-244150J0D01*
G01*
X117968350Y-93440800D01*
G75*
G02*
X117724200Y-93196650I0J244150D01*
G01*
X117724200Y-92633350D01*
G75*
G02*
X117968350Y-92389200I244150J0D01*
G01*
X118456650Y-92389200D01*
G75*
G02*
X118700800Y-92633350I0J-244150D01*
G01*
G37*
G36*
G01*
X104728350Y-96769200D02*
X105291650Y-96769200D01*
G75*
G02*
X105535800Y-97013350I0J-244150D01*
G01*
X105535800Y-97501650D01*
G75*
G02*
X105291650Y-97745800I-244150J0D01*
G01*
X104728350Y-97745800D01*
G75*
G02*
X104484200Y-97501650I0J244150D01*
G01*
X104484200Y-97013350D01*
G75*
G02*
X104728350Y-96769200I244150J0D01*
G01*
G37*
G36*
G01*
X104728350Y-98344200D02*
X105291650Y-98344200D01*
G75*
G02*
X105535800Y-98588350I0J-244150D01*
G01*
X105535800Y-99076650D01*
G75*
G02*
X105291650Y-99320800I-244150J0D01*
G01*
X104728350Y-99320800D01*
G75*
G02*
X104484200Y-99076650I0J244150D01*
G01*
X104484200Y-98588350D01*
G75*
G02*
X104728350Y-98344200I244150J0D01*
G01*
G37*
G36*
G01*
X136474200Y-93656650D02*
X136474200Y-93093350D01*
G75*
G02*
X136718350Y-92849200I244150J0D01*
G01*
X137206650Y-92849200D01*
G75*
G02*
X137450800Y-93093350I0J-244150D01*
G01*
X137450800Y-93656650D01*
G75*
G02*
X137206650Y-93900800I-244150J0D01*
G01*
X136718350Y-93900800D01*
G75*
G02*
X136474200Y-93656650I0J244150D01*
G01*
G37*
G36*
G01*
X134899200Y-93656650D02*
X134899200Y-93093350D01*
G75*
G02*
X135143350Y-92849200I244150J0D01*
G01*
X135631650Y-92849200D01*
G75*
G02*
X135875800Y-93093350I0J-244150D01*
G01*
X135875800Y-93656650D01*
G75*
G02*
X135631650Y-93900800I-244150J0D01*
G01*
X135143350Y-93900800D01*
G75*
G02*
X134899200Y-93656650I0J244150D01*
G01*
G37*
G36*
G01*
X130074200Y-106936650D02*
X130074200Y-106373350D01*
G75*
G02*
X130318350Y-106129200I244150J0D01*
G01*
X130806650Y-106129200D01*
G75*
G02*
X131050800Y-106373350I0J-244150D01*
G01*
X131050800Y-106936650D01*
G75*
G02*
X130806650Y-107180800I-244150J0D01*
G01*
X130318350Y-107180800D01*
G75*
G02*
X130074200Y-106936650I0J244150D01*
G01*
G37*
G36*
G01*
X128499200Y-106936650D02*
X128499200Y-106373350D01*
G75*
G02*
X128743350Y-106129200I244150J0D01*
G01*
X129231650Y-106129200D01*
G75*
G02*
X129475800Y-106373350I0J-244150D01*
G01*
X129475800Y-106936650D01*
G75*
G02*
X129231650Y-107180800I-244150J0D01*
G01*
X128743350Y-107180800D01*
G75*
G02*
X128499200Y-106936650I0J244150D01*
G01*
G37*
G36*
G01*
X126425800Y-106373350D02*
X126425800Y-106936650D01*
G75*
G02*
X126181650Y-107180800I-244150J0D01*
G01*
X125693350Y-107180800D01*
G75*
G02*
X125449200Y-106936650I0J244150D01*
G01*
X125449200Y-106373350D01*
G75*
G02*
X125693350Y-106129200I244150J0D01*
G01*
X126181650Y-106129200D01*
G75*
G02*
X126425800Y-106373350I0J-244150D01*
G01*
G37*
G36*
G01*
X128000800Y-106373350D02*
X128000800Y-106936650D01*
G75*
G02*
X127756650Y-107180800I-244150J0D01*
G01*
X127268350Y-107180800D01*
G75*
G02*
X127024200Y-106936650I0J244150D01*
G01*
X127024200Y-106373350D01*
G75*
G02*
X127268350Y-106129200I244150J0D01*
G01*
X127756650Y-106129200D01*
G75*
G02*
X128000800Y-106373350I0J-244150D01*
G01*
G37*
G36*
G01*
X120774200Y-103231650D02*
X120774200Y-102668350D01*
G75*
G02*
X121018350Y-102424200I244150J0D01*
G01*
X121506650Y-102424200D01*
G75*
G02*
X121750800Y-102668350I0J-244150D01*
G01*
X121750800Y-103231650D01*
G75*
G02*
X121506650Y-103475800I-244150J0D01*
G01*
X121018350Y-103475800D01*
G75*
G02*
X120774200Y-103231650I0J244150D01*
G01*
G37*
G36*
G01*
X119199200Y-103231650D02*
X119199200Y-102668350D01*
G75*
G02*
X119443350Y-102424200I244150J0D01*
G01*
X119931650Y-102424200D01*
G75*
G02*
X120175800Y-102668350I0J-244150D01*
G01*
X120175800Y-103231650D01*
G75*
G02*
X119931650Y-103475800I-244150J0D01*
G01*
X119443350Y-103475800D01*
G75*
G02*
X119199200Y-103231650I0J244150D01*
G01*
G37*
G36*
G01*
X117249200Y-103231650D02*
X117249200Y-102668350D01*
G75*
G02*
X117493350Y-102424200I244150J0D01*
G01*
X117981650Y-102424200D01*
G75*
G02*
X118225800Y-102668350I0J-244150D01*
G01*
X118225800Y-103231650D01*
G75*
G02*
X117981650Y-103475800I-244150J0D01*
G01*
X117493350Y-103475800D01*
G75*
G02*
X117249200Y-103231650I0J244150D01*
G01*
G37*
G36*
G01*
X115674200Y-103231650D02*
X115674200Y-102668350D01*
G75*
G02*
X115918350Y-102424200I244150J0D01*
G01*
X116406650Y-102424200D01*
G75*
G02*
X116650800Y-102668350I0J-244150D01*
G01*
X116650800Y-103231650D01*
G75*
G02*
X116406650Y-103475800I-244150J0D01*
G01*
X115918350Y-103475800D01*
G75*
G02*
X115674200Y-103231650I0J244150D01*
G01*
G37*
G36*
G01*
X120025800Y-97718350D02*
X120025800Y-98281650D01*
G75*
G02*
X119781650Y-98525800I-244150J0D01*
G01*
X119293350Y-98525800D01*
G75*
G02*
X119049200Y-98281650I0J244150D01*
G01*
X119049200Y-97718350D01*
G75*
G02*
X119293350Y-97474200I244150J0D01*
G01*
X119781650Y-97474200D01*
G75*
G02*
X120025800Y-97718350I0J-244150D01*
G01*
G37*
G36*
G01*
X121600800Y-97718350D02*
X121600800Y-98281650D01*
G75*
G02*
X121356650Y-98525800I-244150J0D01*
G01*
X120868350Y-98525800D01*
G75*
G02*
X120624200Y-98281650I0J244150D01*
G01*
X120624200Y-97718350D01*
G75*
G02*
X120868350Y-97474200I244150J0D01*
G01*
X121356650Y-97474200D01*
G75*
G02*
X121600800Y-97718350I0J-244150D01*
G01*
G37*
G36*
G01*
X116425800Y-97718350D02*
X116425800Y-98281650D01*
G75*
G02*
X116181650Y-98525800I-244150J0D01*
G01*
X115693350Y-98525800D01*
G75*
G02*
X115449200Y-98281650I0J244150D01*
G01*
X115449200Y-97718350D01*
G75*
G02*
X115693350Y-97474200I244150J0D01*
G01*
X116181650Y-97474200D01*
G75*
G02*
X116425800Y-97718350I0J-244150D01*
G01*
G37*
G36*
G01*
X118000800Y-97718350D02*
X118000800Y-98281650D01*
G75*
G02*
X117756650Y-98525800I-244150J0D01*
G01*
X117268350Y-98525800D01*
G75*
G02*
X117024200Y-98281650I0J244150D01*
G01*
X117024200Y-97718350D01*
G75*
G02*
X117268350Y-97474200I244150J0D01*
G01*
X117756650Y-97474200D01*
G75*
G02*
X118000800Y-97718350I0J-244150D01*
G01*
G37*
G36*
G01*
X113599200Y-103231650D02*
X113599200Y-102668350D01*
G75*
G02*
X113843350Y-102424200I244150J0D01*
G01*
X114331650Y-102424200D01*
G75*
G02*
X114575800Y-102668350I0J-244150D01*
G01*
X114575800Y-103231650D01*
G75*
G02*
X114331650Y-103475800I-244150J0D01*
G01*
X113843350Y-103475800D01*
G75*
G02*
X113599200Y-103231650I0J244150D01*
G01*
G37*
G36*
G01*
X112024200Y-103231650D02*
X112024200Y-102668350D01*
G75*
G02*
X112268350Y-102424200I244150J0D01*
G01*
X112756650Y-102424200D01*
G75*
G02*
X113000800Y-102668350I0J-244150D01*
G01*
X113000800Y-103231650D01*
G75*
G02*
X112756650Y-103475800I-244150J0D01*
G01*
X112268350Y-103475800D01*
G75*
G02*
X112024200Y-103231650I0J244150D01*
G01*
G37*
G36*
G01*
X113424200Y-98281650D02*
X113424200Y-97718350D01*
G75*
G02*
X113668350Y-97474200I244150J0D01*
G01*
X114156650Y-97474200D01*
G75*
G02*
X114400800Y-97718350I0J-244150D01*
G01*
X114400800Y-98281650D01*
G75*
G02*
X114156650Y-98525800I-244150J0D01*
G01*
X113668350Y-98525800D01*
G75*
G02*
X113424200Y-98281650I0J244150D01*
G01*
G37*
G36*
G01*
X111849200Y-98281650D02*
X111849200Y-97718350D01*
G75*
G02*
X112093350Y-97474200I244150J0D01*
G01*
X112581650Y-97474200D01*
G75*
G02*
X112825800Y-97718350I0J-244150D01*
G01*
X112825800Y-98281650D01*
G75*
G02*
X112581650Y-98525800I-244150J0D01*
G01*
X112093350Y-98525800D01*
G75*
G02*
X111849200Y-98281650I0J244150D01*
G01*
G37*
G36*
G01*
X109949200Y-98281650D02*
X109949200Y-97718350D01*
G75*
G02*
X110193350Y-97474200I244150J0D01*
G01*
X110681650Y-97474200D01*
G75*
G02*
X110925800Y-97718350I0J-244150D01*
G01*
X110925800Y-98281650D01*
G75*
G02*
X110681650Y-98525800I-244150J0D01*
G01*
X110193350Y-98525800D01*
G75*
G02*
X109949200Y-98281650I0J244150D01*
G01*
G37*
G36*
G01*
X108374200Y-98281650D02*
X108374200Y-97718350D01*
G75*
G02*
X108618350Y-97474200I244150J0D01*
G01*
X109106650Y-97474200D01*
G75*
G02*
X109350800Y-97718350I0J-244150D01*
G01*
X109350800Y-98281650D01*
G75*
G02*
X109106650Y-98525800I-244150J0D01*
G01*
X108618350Y-98525800D01*
G75*
G02*
X108374200Y-98281650I0J244150D01*
G01*
G37*
G36*
G01*
X110049200Y-103231650D02*
X110049200Y-102668350D01*
G75*
G02*
X110293350Y-102424200I244150J0D01*
G01*
X110781650Y-102424200D01*
G75*
G02*
X111025800Y-102668350I0J-244150D01*
G01*
X111025800Y-103231650D01*
G75*
G02*
X110781650Y-103475800I-244150J0D01*
G01*
X110293350Y-103475800D01*
G75*
G02*
X110049200Y-103231650I0J244150D01*
G01*
G37*
G36*
G01*
X108474200Y-103231650D02*
X108474200Y-102668350D01*
G75*
G02*
X108718350Y-102424200I244150J0D01*
G01*
X109206650Y-102424200D01*
G75*
G02*
X109450800Y-102668350I0J-244150D01*
G01*
X109450800Y-103231650D01*
G75*
G02*
X109206650Y-103475800I-244150J0D01*
G01*
X108718350Y-103475800D01*
G75*
G02*
X108474200Y-103231650I0J244150D01*
G01*
G37*
G36*
G01*
X123375800Y-106373350D02*
X123375800Y-106936650D01*
G75*
G02*
X123131650Y-107180800I-244150J0D01*
G01*
X122643350Y-107180800D01*
G75*
G02*
X122399200Y-106936650I0J244150D01*
G01*
X122399200Y-106373350D01*
G75*
G02*
X122643350Y-106129200I244150J0D01*
G01*
X123131650Y-106129200D01*
G75*
G02*
X123375800Y-106373350I0J-244150D01*
G01*
G37*
G36*
G01*
X124950800Y-106373350D02*
X124950800Y-106936650D01*
G75*
G02*
X124706650Y-107180800I-244150J0D01*
G01*
X124218350Y-107180800D01*
G75*
G02*
X123974200Y-106936650I0J244150D01*
G01*
X123974200Y-106373350D01*
G75*
G02*
X124218350Y-106129200I244150J0D01*
G01*
X124706650Y-106129200D01*
G75*
G02*
X124950800Y-106373350I0J-244150D01*
G01*
G37*
G36*
G01*
X103188350Y-98339200D02*
X103751650Y-98339200D01*
G75*
G02*
X103995800Y-98583350I0J-244150D01*
G01*
X103995800Y-99071650D01*
G75*
G02*
X103751650Y-99315800I-244150J0D01*
G01*
X103188350Y-99315800D01*
G75*
G02*
X102944200Y-99071650I0J244150D01*
G01*
X102944200Y-98583350D01*
G75*
G02*
X103188350Y-98339200I244150J0D01*
G01*
G37*
G36*
G01*
X103188350Y-96764200D02*
X103751650Y-96764200D01*
G75*
G02*
X103995800Y-97008350I0J-244150D01*
G01*
X103995800Y-97496650D01*
G75*
G02*
X103751650Y-97740800I-244150J0D01*
G01*
X103188350Y-97740800D01*
G75*
G02*
X102944200Y-97496650I0J244150D01*
G01*
X102944200Y-97008350D01*
G75*
G02*
X103188350Y-96764200I244150J0D01*
G01*
G37*
G36*
G01*
X101663350Y-98339200D02*
X102226650Y-98339200D01*
G75*
G02*
X102470800Y-98583350I0J-244150D01*
G01*
X102470800Y-99071650D01*
G75*
G02*
X102226650Y-99315800I-244150J0D01*
G01*
X101663350Y-99315800D01*
G75*
G02*
X101419200Y-99071650I0J244150D01*
G01*
X101419200Y-98583350D01*
G75*
G02*
X101663350Y-98339200I244150J0D01*
G01*
G37*
G36*
G01*
X101663350Y-96764200D02*
X102226650Y-96764200D01*
G75*
G02*
X102470800Y-97008350I0J-244150D01*
G01*
X102470800Y-97496650D01*
G75*
G02*
X102226650Y-97740800I-244150J0D01*
G01*
X101663350Y-97740800D01*
G75*
G02*
X101419200Y-97496650I0J244150D01*
G01*
X101419200Y-97008350D01*
G75*
G02*
X101663350Y-96764200I244150J0D01*
G01*
G37*
G36*
G01*
X93399200Y-93636650D02*
X93399200Y-93073350D01*
G75*
G02*
X93643350Y-92829200I244150J0D01*
G01*
X94131650Y-92829200D01*
G75*
G02*
X94375800Y-93073350I0J-244150D01*
G01*
X94375800Y-93636650D01*
G75*
G02*
X94131650Y-93880800I-244150J0D01*
G01*
X93643350Y-93880800D01*
G75*
G02*
X93399200Y-93636650I0J244150D01*
G01*
G37*
G36*
G01*
X91824200Y-93636650D02*
X91824200Y-93073350D01*
G75*
G02*
X92068350Y-92829200I244150J0D01*
G01*
X92556650Y-92829200D01*
G75*
G02*
X92800800Y-93073350I0J-244150D01*
G01*
X92800800Y-93636650D01*
G75*
G02*
X92556650Y-93880800I-244150J0D01*
G01*
X92068350Y-93880800D01*
G75*
G02*
X91824200Y-93636650I0J244150D01*
G01*
G37*
G36*
G01*
X102989200Y-102231650D02*
X102989200Y-101668350D01*
G75*
G02*
X103233350Y-101424200I244150J0D01*
G01*
X103721650Y-101424200D01*
G75*
G02*
X103965800Y-101668350I0J-244150D01*
G01*
X103965800Y-102231650D01*
G75*
G02*
X103721650Y-102475800I-244150J0D01*
G01*
X103233350Y-102475800D01*
G75*
G02*
X102989200Y-102231650I0J244150D01*
G01*
G37*
G36*
G01*
X101414200Y-102231650D02*
X101414200Y-101668350D01*
G75*
G02*
X101658350Y-101424200I244150J0D01*
G01*
X102146650Y-101424200D01*
G75*
G02*
X102390800Y-101668350I0J-244150D01*
G01*
X102390800Y-102231650D01*
G75*
G02*
X102146650Y-102475800I-244150J0D01*
G01*
X101658350Y-102475800D01*
G75*
G02*
X101414200Y-102231650I0J244150D01*
G01*
G37*
G36*
G01*
X101414200Y-100631650D02*
X101414200Y-100068350D01*
G75*
G02*
X101658350Y-99824200I244150J0D01*
G01*
X102146650Y-99824200D01*
G75*
G02*
X102390800Y-100068350I0J-244150D01*
G01*
X102390800Y-100631650D01*
G75*
G02*
X102146650Y-100875800I-244150J0D01*
G01*
X101658350Y-100875800D01*
G75*
G02*
X101414200Y-100631650I0J244150D01*
G01*
G37*
G36*
G01*
X102989200Y-100631650D02*
X102989200Y-100068350D01*
G75*
G02*
X103233350Y-99824200I244150J0D01*
G01*
X103721650Y-99824200D01*
G75*
G02*
X103965800Y-100068350I0J-244150D01*
G01*
X103965800Y-100631650D01*
G75*
G02*
X103721650Y-100875800I-244150J0D01*
G01*
X103233350Y-100875800D01*
G75*
G02*
X102989200Y-100631650I0J244150D01*
G01*
G37*
D20*
X120500000Y-99470000D03*
X121450000Y-101470000D03*
X119550000Y-101470000D03*
X113400000Y-99475000D03*
X114350000Y-101475000D03*
X112450000Y-101475000D03*
X109875000Y-99475000D03*
X110825000Y-101475000D03*
X108925000Y-101475000D03*
G36*
G01*
X132999200Y-93587900D02*
X132999200Y-93112100D01*
G75*
G02*
X133237100Y-92874200I237900J0D01*
G01*
X134087900Y-92874200D01*
G75*
G02*
X134325800Y-93112100I0J-237900D01*
G01*
X134325800Y-93587900D01*
G75*
G02*
X134087900Y-93825800I-237900J0D01*
G01*
X133237100Y-93825800D01*
G75*
G02*
X132999200Y-93587900I0J237900D01*
G01*
G37*
G36*
G01*
X131374200Y-93587900D02*
X131374200Y-93112100D01*
G75*
G02*
X131612100Y-92874200I237900J0D01*
G01*
X132462900Y-92874200D01*
G75*
G02*
X132700800Y-93112100I0J-237900D01*
G01*
X132700800Y-93587900D01*
G75*
G02*
X132462900Y-93825800I-237900J0D01*
G01*
X131612100Y-93825800D01*
G75*
G02*
X131374200Y-93587900I0J237900D01*
G01*
G37*
X116000000Y-101475000D03*
X117900000Y-101475000D03*
X116950000Y-99475000D03*
D18*
X110140000Y-95450000D03*
X112680000Y-95450000D03*
X115220000Y-95450000D03*
X117760000Y-95450000D03*
D19*
X120300000Y-95450000D03*
X79660000Y-95440000D03*
D18*
X82200000Y-95440000D03*
X84740000Y-95440000D03*
X87280000Y-95440000D03*
X89820000Y-95440000D03*
M02*
