G04 #@! TF.GenerationSoftware,KiCad,Pcbnew,(5.1.4-0-10_14)*
G04 #@! TF.CreationDate,2019-09-20T09:10:15-07:00*
G04 #@! TF.ProjectId,STM32L0xx_18650,53544d33-324c-4307-9878-5f3138363530,rev?*
G04 #@! TF.SameCoordinates,Original*
G04 #@! TF.FileFunction,Soldermask,Bot*
G04 #@! TF.FilePolarity,Negative*
%FSLAX46Y46*%
G04 Gerber Fmt 4.6, Leading zero omitted, Abs format (unit mm)*
G04 Created by KiCad (PCBNEW (5.1.4-0-10_14)) date 2019-09-20 09:10:15*
%MOMM*%
%LPD*%
G04 APERTURE LIST*
%ADD10C,2.901600*%
%ADD11O,1.801600X1.451600*%
%ADD12O,1.601600X1.201600*%
%ADD13C,2.501600*%
%ADD14R,1.101600X1.101600*%
%ADD15O,1.101600X1.101600*%
%ADD16O,1.801600X1.801600*%
%ADD17R,1.801600X1.801600*%
G04 APERTURE END LIST*
D10*
X74900000Y-97460000D03*
X74900000Y-102540000D03*
X125100000Y-97460000D03*
X125100000Y-102540000D03*
X132720000Y-100000000D03*
X67280000Y-100000000D03*
D11*
X59885000Y-102705000D03*
X59885000Y-97245000D03*
D12*
X62885000Y-102395000D03*
X62885000Y-97555000D03*
D13*
X138100000Y-102650000D03*
X138100000Y-97350000D03*
D14*
X147425000Y-99350000D03*
D15*
X147425000Y-100620000D03*
X146155000Y-99350000D03*
X146155000Y-100620000D03*
X144885000Y-99350000D03*
X144885000Y-100620000D03*
X143615000Y-99350000D03*
X143615000Y-100620000D03*
X142345000Y-99350000D03*
X142345000Y-100620000D03*
D16*
X89840000Y-105610000D03*
X87300000Y-105610000D03*
X84760000Y-105610000D03*
X82220000Y-105610000D03*
D17*
X79680000Y-105610000D03*
X112690000Y-105610000D03*
D16*
X115230000Y-105610000D03*
X117770000Y-105610000D03*
X120310000Y-105610000D03*
D17*
X120300000Y-95450000D03*
D16*
X117760000Y-95450000D03*
X115220000Y-95450000D03*
X112680000Y-95450000D03*
X110140000Y-95450000D03*
D17*
X79660000Y-95440000D03*
D16*
X82200000Y-95440000D03*
X84740000Y-95440000D03*
X87280000Y-95440000D03*
X89820000Y-95440000D03*
M02*
