G04 #@! TF.GenerationSoftware,KiCad,Pcbnew,(5.1.4-0-10_14)*
G04 #@! TF.CreationDate,2019-09-17T09:12:07-07:00*
G04 #@! TF.ProjectId,STM32L0xx_18650,53544d33-324c-4307-9878-5f3138363530,rev?*
G04 #@! TF.SameCoordinates,Original*
G04 #@! TF.FileFunction,Copper,L1,Top*
G04 #@! TF.FilePolarity,Positive*
%FSLAX46Y46*%
G04 Gerber Fmt 4.6, Leading zero omitted, Abs format (unit mm)*
G04 Created by KiCad (PCBNEW (5.1.4-0-10_14)) date 2019-09-17 09:12:07*
%MOMM*%
%LPD*%
G04 APERTURE LIST*
%ADD10R,1.100000X0.250000*%
%ADD11C,0.100000*%
%ADD12C,0.875000*%
%ADD13C,2.800000*%
%ADD14R,2.500000X4.400000*%
%ADD15O,1.700000X1.350000*%
%ADD16O,1.500000X1.100000*%
%ADD17R,1.650000X0.400000*%
%ADD18R,1.500000X2.000000*%
%ADD19C,2.400000*%
%ADD20R,1.600000X2.180000*%
%ADD21C,0.500000*%
%ADD22R,1.000000X1.000000*%
%ADD23C,0.950000*%
%ADD24O,1.000000X1.000000*%
%ADD25R,1.000000X1.800000*%
%ADD26R,1.700000X1.700000*%
%ADD27O,1.700000X1.700000*%
%ADD28C,0.850000*%
%ADD29R,0.800000X0.900000*%
%ADD30R,0.900000X0.800000*%
%ADD31C,0.457200*%
%ADD32C,0.685800*%
%ADD33C,0.152400*%
%ADD34C,0.127000*%
%ADD35C,0.254000*%
%ADD36C,0.781000*%
%ADD37C,0.762000*%
%ADD38C,0.310000*%
G04 APERTURE END LIST*
D10*
X84850000Y-99000000D03*
X84850000Y-99500000D03*
X84850000Y-100000000D03*
X84850000Y-100500000D03*
X84850000Y-101000000D03*
X80550000Y-101000000D03*
X80550000Y-100500000D03*
X80550000Y-100000000D03*
X80550000Y-99500000D03*
X80550000Y-99000000D03*
D11*
G36*
X86727691Y-98776053D02*
G01*
X86748926Y-98779203D01*
X86769750Y-98784419D01*
X86789962Y-98791651D01*
X86809368Y-98800830D01*
X86827781Y-98811866D01*
X86845024Y-98824654D01*
X86860930Y-98839070D01*
X86875346Y-98854976D01*
X86888134Y-98872219D01*
X86899170Y-98890632D01*
X86908349Y-98910038D01*
X86915581Y-98930250D01*
X86920797Y-98951074D01*
X86923947Y-98972309D01*
X86925000Y-98993750D01*
X86925000Y-99431250D01*
X86923947Y-99452691D01*
X86920797Y-99473926D01*
X86915581Y-99494750D01*
X86908349Y-99514962D01*
X86899170Y-99534368D01*
X86888134Y-99552781D01*
X86875346Y-99570024D01*
X86860930Y-99585930D01*
X86845024Y-99600346D01*
X86827781Y-99613134D01*
X86809368Y-99624170D01*
X86789962Y-99633349D01*
X86769750Y-99640581D01*
X86748926Y-99645797D01*
X86727691Y-99648947D01*
X86706250Y-99650000D01*
X86193750Y-99650000D01*
X86172309Y-99648947D01*
X86151074Y-99645797D01*
X86130250Y-99640581D01*
X86110038Y-99633349D01*
X86090632Y-99624170D01*
X86072219Y-99613134D01*
X86054976Y-99600346D01*
X86039070Y-99585930D01*
X86024654Y-99570024D01*
X86011866Y-99552781D01*
X86000830Y-99534368D01*
X85991651Y-99514962D01*
X85984419Y-99494750D01*
X85979203Y-99473926D01*
X85976053Y-99452691D01*
X85975000Y-99431250D01*
X85975000Y-98993750D01*
X85976053Y-98972309D01*
X85979203Y-98951074D01*
X85984419Y-98930250D01*
X85991651Y-98910038D01*
X86000830Y-98890632D01*
X86011866Y-98872219D01*
X86024654Y-98854976D01*
X86039070Y-98839070D01*
X86054976Y-98824654D01*
X86072219Y-98811866D01*
X86090632Y-98800830D01*
X86110038Y-98791651D01*
X86130250Y-98784419D01*
X86151074Y-98779203D01*
X86172309Y-98776053D01*
X86193750Y-98775000D01*
X86706250Y-98775000D01*
X86727691Y-98776053D01*
X86727691Y-98776053D01*
G37*
D12*
X86450000Y-99212500D03*
D11*
G36*
X86727691Y-100351053D02*
G01*
X86748926Y-100354203D01*
X86769750Y-100359419D01*
X86789962Y-100366651D01*
X86809368Y-100375830D01*
X86827781Y-100386866D01*
X86845024Y-100399654D01*
X86860930Y-100414070D01*
X86875346Y-100429976D01*
X86888134Y-100447219D01*
X86899170Y-100465632D01*
X86908349Y-100485038D01*
X86915581Y-100505250D01*
X86920797Y-100526074D01*
X86923947Y-100547309D01*
X86925000Y-100568750D01*
X86925000Y-101006250D01*
X86923947Y-101027691D01*
X86920797Y-101048926D01*
X86915581Y-101069750D01*
X86908349Y-101089962D01*
X86899170Y-101109368D01*
X86888134Y-101127781D01*
X86875346Y-101145024D01*
X86860930Y-101160930D01*
X86845024Y-101175346D01*
X86827781Y-101188134D01*
X86809368Y-101199170D01*
X86789962Y-101208349D01*
X86769750Y-101215581D01*
X86748926Y-101220797D01*
X86727691Y-101223947D01*
X86706250Y-101225000D01*
X86193750Y-101225000D01*
X86172309Y-101223947D01*
X86151074Y-101220797D01*
X86130250Y-101215581D01*
X86110038Y-101208349D01*
X86090632Y-101199170D01*
X86072219Y-101188134D01*
X86054976Y-101175346D01*
X86039070Y-101160930D01*
X86024654Y-101145024D01*
X86011866Y-101127781D01*
X86000830Y-101109368D01*
X85991651Y-101089962D01*
X85984419Y-101069750D01*
X85979203Y-101048926D01*
X85976053Y-101027691D01*
X85975000Y-101006250D01*
X85975000Y-100568750D01*
X85976053Y-100547309D01*
X85979203Y-100526074D01*
X85984419Y-100505250D01*
X85991651Y-100485038D01*
X86000830Y-100465632D01*
X86011866Y-100447219D01*
X86024654Y-100429976D01*
X86039070Y-100414070D01*
X86054976Y-100399654D01*
X86072219Y-100386866D01*
X86090632Y-100375830D01*
X86110038Y-100366651D01*
X86130250Y-100359419D01*
X86151074Y-100354203D01*
X86172309Y-100351053D01*
X86193750Y-100350000D01*
X86706250Y-100350000D01*
X86727691Y-100351053D01*
X86727691Y-100351053D01*
G37*
D12*
X86450000Y-100787500D03*
D13*
X74900000Y-97460000D03*
X74900000Y-102540000D03*
X125100000Y-97460000D03*
X125100000Y-102540000D03*
X132720000Y-100000000D03*
X67280000Y-100000000D03*
D11*
G36*
X80602691Y-102126053D02*
G01*
X80623926Y-102129203D01*
X80644750Y-102134419D01*
X80664962Y-102141651D01*
X80684368Y-102150830D01*
X80702781Y-102161866D01*
X80720024Y-102174654D01*
X80735930Y-102189070D01*
X80750346Y-102204976D01*
X80763134Y-102222219D01*
X80774170Y-102240632D01*
X80783349Y-102260038D01*
X80790581Y-102280250D01*
X80795797Y-102301074D01*
X80798947Y-102322309D01*
X80800000Y-102343750D01*
X80800000Y-102856250D01*
X80798947Y-102877691D01*
X80795797Y-102898926D01*
X80790581Y-102919750D01*
X80783349Y-102939962D01*
X80774170Y-102959368D01*
X80763134Y-102977781D01*
X80750346Y-102995024D01*
X80735930Y-103010930D01*
X80720024Y-103025346D01*
X80702781Y-103038134D01*
X80684368Y-103049170D01*
X80664962Y-103058349D01*
X80644750Y-103065581D01*
X80623926Y-103070797D01*
X80602691Y-103073947D01*
X80581250Y-103075000D01*
X80143750Y-103075000D01*
X80122309Y-103073947D01*
X80101074Y-103070797D01*
X80080250Y-103065581D01*
X80060038Y-103058349D01*
X80040632Y-103049170D01*
X80022219Y-103038134D01*
X80004976Y-103025346D01*
X79989070Y-103010930D01*
X79974654Y-102995024D01*
X79961866Y-102977781D01*
X79950830Y-102959368D01*
X79941651Y-102939962D01*
X79934419Y-102919750D01*
X79929203Y-102898926D01*
X79926053Y-102877691D01*
X79925000Y-102856250D01*
X79925000Y-102343750D01*
X79926053Y-102322309D01*
X79929203Y-102301074D01*
X79934419Y-102280250D01*
X79941651Y-102260038D01*
X79950830Y-102240632D01*
X79961866Y-102222219D01*
X79974654Y-102204976D01*
X79989070Y-102189070D01*
X80004976Y-102174654D01*
X80022219Y-102161866D01*
X80040632Y-102150830D01*
X80060038Y-102141651D01*
X80080250Y-102134419D01*
X80101074Y-102129203D01*
X80122309Y-102126053D01*
X80143750Y-102125000D01*
X80581250Y-102125000D01*
X80602691Y-102126053D01*
X80602691Y-102126053D01*
G37*
D12*
X80362500Y-102600000D03*
D11*
G36*
X82177691Y-102126053D02*
G01*
X82198926Y-102129203D01*
X82219750Y-102134419D01*
X82239962Y-102141651D01*
X82259368Y-102150830D01*
X82277781Y-102161866D01*
X82295024Y-102174654D01*
X82310930Y-102189070D01*
X82325346Y-102204976D01*
X82338134Y-102222219D01*
X82349170Y-102240632D01*
X82358349Y-102260038D01*
X82365581Y-102280250D01*
X82370797Y-102301074D01*
X82373947Y-102322309D01*
X82375000Y-102343750D01*
X82375000Y-102856250D01*
X82373947Y-102877691D01*
X82370797Y-102898926D01*
X82365581Y-102919750D01*
X82358349Y-102939962D01*
X82349170Y-102959368D01*
X82338134Y-102977781D01*
X82325346Y-102995024D01*
X82310930Y-103010930D01*
X82295024Y-103025346D01*
X82277781Y-103038134D01*
X82259368Y-103049170D01*
X82239962Y-103058349D01*
X82219750Y-103065581D01*
X82198926Y-103070797D01*
X82177691Y-103073947D01*
X82156250Y-103075000D01*
X81718750Y-103075000D01*
X81697309Y-103073947D01*
X81676074Y-103070797D01*
X81655250Y-103065581D01*
X81635038Y-103058349D01*
X81615632Y-103049170D01*
X81597219Y-103038134D01*
X81579976Y-103025346D01*
X81564070Y-103010930D01*
X81549654Y-102995024D01*
X81536866Y-102977781D01*
X81525830Y-102959368D01*
X81516651Y-102939962D01*
X81509419Y-102919750D01*
X81504203Y-102898926D01*
X81501053Y-102877691D01*
X81500000Y-102856250D01*
X81500000Y-102343750D01*
X81501053Y-102322309D01*
X81504203Y-102301074D01*
X81509419Y-102280250D01*
X81516651Y-102260038D01*
X81525830Y-102240632D01*
X81536866Y-102222219D01*
X81549654Y-102204976D01*
X81564070Y-102189070D01*
X81579976Y-102174654D01*
X81597219Y-102161866D01*
X81615632Y-102150830D01*
X81635038Y-102141651D01*
X81655250Y-102134419D01*
X81676074Y-102129203D01*
X81697309Y-102126053D01*
X81718750Y-102125000D01*
X82156250Y-102125000D01*
X82177691Y-102126053D01*
X82177691Y-102126053D01*
G37*
D12*
X81937500Y-102600000D03*
D14*
X59615000Y-100000000D03*
D15*
X59885000Y-102705000D03*
X59885000Y-97245000D03*
D16*
X62885000Y-102395000D03*
X62885000Y-97555000D03*
D17*
X62765000Y-101275000D03*
X62765000Y-100625000D03*
X62765000Y-99975000D03*
X62765000Y-99325000D03*
X62765000Y-98675000D03*
D18*
X62885000Y-102875000D03*
X62865000Y-97125000D03*
D19*
X138100000Y-102650000D03*
X138100000Y-97350000D03*
D20*
X153050000Y-104590000D03*
X153050000Y-95410000D03*
D11*
G36*
X100587252Y-102000602D02*
G01*
X100599386Y-102002402D01*
X100611286Y-102005382D01*
X100622835Y-102009515D01*
X100633925Y-102014760D01*
X100644446Y-102021066D01*
X100654299Y-102028374D01*
X100663388Y-102036612D01*
X100671626Y-102045701D01*
X100678934Y-102055554D01*
X100685240Y-102066075D01*
X100690485Y-102077165D01*
X100694618Y-102088714D01*
X100697598Y-102100614D01*
X100699398Y-102112748D01*
X100700000Y-102125000D01*
X100700000Y-103375000D01*
X100699398Y-103387252D01*
X100697598Y-103399386D01*
X100694618Y-103411286D01*
X100690485Y-103422835D01*
X100685240Y-103433925D01*
X100678934Y-103444446D01*
X100671626Y-103454299D01*
X100663388Y-103463388D01*
X100654299Y-103471626D01*
X100644446Y-103478934D01*
X100633925Y-103485240D01*
X100622835Y-103490485D01*
X100611286Y-103494618D01*
X100599386Y-103497598D01*
X100587252Y-103499398D01*
X100575000Y-103500000D01*
X100325000Y-103500000D01*
X100312748Y-103499398D01*
X100300614Y-103497598D01*
X100288714Y-103494618D01*
X100277165Y-103490485D01*
X100266075Y-103485240D01*
X100255554Y-103478934D01*
X100245701Y-103471626D01*
X100236612Y-103463388D01*
X100228374Y-103454299D01*
X100221066Y-103444446D01*
X100214760Y-103433925D01*
X100209515Y-103422835D01*
X100205382Y-103411286D01*
X100202402Y-103399386D01*
X100200602Y-103387252D01*
X100200000Y-103375000D01*
X100200000Y-102125000D01*
X100200602Y-102112748D01*
X100202402Y-102100614D01*
X100205382Y-102088714D01*
X100209515Y-102077165D01*
X100214760Y-102066075D01*
X100221066Y-102055554D01*
X100228374Y-102045701D01*
X100236612Y-102036612D01*
X100245701Y-102028374D01*
X100255554Y-102021066D01*
X100266075Y-102014760D01*
X100277165Y-102009515D01*
X100288714Y-102005382D01*
X100300614Y-102002402D01*
X100312748Y-102000602D01*
X100325000Y-102000000D01*
X100575000Y-102000000D01*
X100587252Y-102000602D01*
X100587252Y-102000602D01*
G37*
D21*
X100450000Y-102750000D03*
D11*
G36*
X99787252Y-102000602D02*
G01*
X99799386Y-102002402D01*
X99811286Y-102005382D01*
X99822835Y-102009515D01*
X99833925Y-102014760D01*
X99844446Y-102021066D01*
X99854299Y-102028374D01*
X99863388Y-102036612D01*
X99871626Y-102045701D01*
X99878934Y-102055554D01*
X99885240Y-102066075D01*
X99890485Y-102077165D01*
X99894618Y-102088714D01*
X99897598Y-102100614D01*
X99899398Y-102112748D01*
X99900000Y-102125000D01*
X99900000Y-103375000D01*
X99899398Y-103387252D01*
X99897598Y-103399386D01*
X99894618Y-103411286D01*
X99890485Y-103422835D01*
X99885240Y-103433925D01*
X99878934Y-103444446D01*
X99871626Y-103454299D01*
X99863388Y-103463388D01*
X99854299Y-103471626D01*
X99844446Y-103478934D01*
X99833925Y-103485240D01*
X99822835Y-103490485D01*
X99811286Y-103494618D01*
X99799386Y-103497598D01*
X99787252Y-103499398D01*
X99775000Y-103500000D01*
X99525000Y-103500000D01*
X99512748Y-103499398D01*
X99500614Y-103497598D01*
X99488714Y-103494618D01*
X99477165Y-103490485D01*
X99466075Y-103485240D01*
X99455554Y-103478934D01*
X99445701Y-103471626D01*
X99436612Y-103463388D01*
X99428374Y-103454299D01*
X99421066Y-103444446D01*
X99414760Y-103433925D01*
X99409515Y-103422835D01*
X99405382Y-103411286D01*
X99402402Y-103399386D01*
X99400602Y-103387252D01*
X99400000Y-103375000D01*
X99400000Y-102125000D01*
X99400602Y-102112748D01*
X99402402Y-102100614D01*
X99405382Y-102088714D01*
X99409515Y-102077165D01*
X99414760Y-102066075D01*
X99421066Y-102055554D01*
X99428374Y-102045701D01*
X99436612Y-102036612D01*
X99445701Y-102028374D01*
X99455554Y-102021066D01*
X99466075Y-102014760D01*
X99477165Y-102009515D01*
X99488714Y-102005382D01*
X99500614Y-102002402D01*
X99512748Y-102000602D01*
X99525000Y-102000000D01*
X99775000Y-102000000D01*
X99787252Y-102000602D01*
X99787252Y-102000602D01*
G37*
D21*
X99650000Y-102750000D03*
D11*
G36*
X98987252Y-102000602D02*
G01*
X98999386Y-102002402D01*
X99011286Y-102005382D01*
X99022835Y-102009515D01*
X99033925Y-102014760D01*
X99044446Y-102021066D01*
X99054299Y-102028374D01*
X99063388Y-102036612D01*
X99071626Y-102045701D01*
X99078934Y-102055554D01*
X99085240Y-102066075D01*
X99090485Y-102077165D01*
X99094618Y-102088714D01*
X99097598Y-102100614D01*
X99099398Y-102112748D01*
X99100000Y-102125000D01*
X99100000Y-103375000D01*
X99099398Y-103387252D01*
X99097598Y-103399386D01*
X99094618Y-103411286D01*
X99090485Y-103422835D01*
X99085240Y-103433925D01*
X99078934Y-103444446D01*
X99071626Y-103454299D01*
X99063388Y-103463388D01*
X99054299Y-103471626D01*
X99044446Y-103478934D01*
X99033925Y-103485240D01*
X99022835Y-103490485D01*
X99011286Y-103494618D01*
X98999386Y-103497598D01*
X98987252Y-103499398D01*
X98975000Y-103500000D01*
X98725000Y-103500000D01*
X98712748Y-103499398D01*
X98700614Y-103497598D01*
X98688714Y-103494618D01*
X98677165Y-103490485D01*
X98666075Y-103485240D01*
X98655554Y-103478934D01*
X98645701Y-103471626D01*
X98636612Y-103463388D01*
X98628374Y-103454299D01*
X98621066Y-103444446D01*
X98614760Y-103433925D01*
X98609515Y-103422835D01*
X98605382Y-103411286D01*
X98602402Y-103399386D01*
X98600602Y-103387252D01*
X98600000Y-103375000D01*
X98600000Y-102125000D01*
X98600602Y-102112748D01*
X98602402Y-102100614D01*
X98605382Y-102088714D01*
X98609515Y-102077165D01*
X98614760Y-102066075D01*
X98621066Y-102055554D01*
X98628374Y-102045701D01*
X98636612Y-102036612D01*
X98645701Y-102028374D01*
X98655554Y-102021066D01*
X98666075Y-102014760D01*
X98677165Y-102009515D01*
X98688714Y-102005382D01*
X98700614Y-102002402D01*
X98712748Y-102000602D01*
X98725000Y-102000000D01*
X98975000Y-102000000D01*
X98987252Y-102000602D01*
X98987252Y-102000602D01*
G37*
D21*
X98850000Y-102750000D03*
D11*
G36*
X98187252Y-102000602D02*
G01*
X98199386Y-102002402D01*
X98211286Y-102005382D01*
X98222835Y-102009515D01*
X98233925Y-102014760D01*
X98244446Y-102021066D01*
X98254299Y-102028374D01*
X98263388Y-102036612D01*
X98271626Y-102045701D01*
X98278934Y-102055554D01*
X98285240Y-102066075D01*
X98290485Y-102077165D01*
X98294618Y-102088714D01*
X98297598Y-102100614D01*
X98299398Y-102112748D01*
X98300000Y-102125000D01*
X98300000Y-103375000D01*
X98299398Y-103387252D01*
X98297598Y-103399386D01*
X98294618Y-103411286D01*
X98290485Y-103422835D01*
X98285240Y-103433925D01*
X98278934Y-103444446D01*
X98271626Y-103454299D01*
X98263388Y-103463388D01*
X98254299Y-103471626D01*
X98244446Y-103478934D01*
X98233925Y-103485240D01*
X98222835Y-103490485D01*
X98211286Y-103494618D01*
X98199386Y-103497598D01*
X98187252Y-103499398D01*
X98175000Y-103500000D01*
X97925000Y-103500000D01*
X97912748Y-103499398D01*
X97900614Y-103497598D01*
X97888714Y-103494618D01*
X97877165Y-103490485D01*
X97866075Y-103485240D01*
X97855554Y-103478934D01*
X97845701Y-103471626D01*
X97836612Y-103463388D01*
X97828374Y-103454299D01*
X97821066Y-103444446D01*
X97814760Y-103433925D01*
X97809515Y-103422835D01*
X97805382Y-103411286D01*
X97802402Y-103399386D01*
X97800602Y-103387252D01*
X97800000Y-103375000D01*
X97800000Y-102125000D01*
X97800602Y-102112748D01*
X97802402Y-102100614D01*
X97805382Y-102088714D01*
X97809515Y-102077165D01*
X97814760Y-102066075D01*
X97821066Y-102055554D01*
X97828374Y-102045701D01*
X97836612Y-102036612D01*
X97845701Y-102028374D01*
X97855554Y-102021066D01*
X97866075Y-102014760D01*
X97877165Y-102009515D01*
X97888714Y-102005382D01*
X97900614Y-102002402D01*
X97912748Y-102000602D01*
X97925000Y-102000000D01*
X98175000Y-102000000D01*
X98187252Y-102000602D01*
X98187252Y-102000602D01*
G37*
D21*
X98050000Y-102750000D03*
D11*
G36*
X97387252Y-102000602D02*
G01*
X97399386Y-102002402D01*
X97411286Y-102005382D01*
X97422835Y-102009515D01*
X97433925Y-102014760D01*
X97444446Y-102021066D01*
X97454299Y-102028374D01*
X97463388Y-102036612D01*
X97471626Y-102045701D01*
X97478934Y-102055554D01*
X97485240Y-102066075D01*
X97490485Y-102077165D01*
X97494618Y-102088714D01*
X97497598Y-102100614D01*
X97499398Y-102112748D01*
X97500000Y-102125000D01*
X97500000Y-103375000D01*
X97499398Y-103387252D01*
X97497598Y-103399386D01*
X97494618Y-103411286D01*
X97490485Y-103422835D01*
X97485240Y-103433925D01*
X97478934Y-103444446D01*
X97471626Y-103454299D01*
X97463388Y-103463388D01*
X97454299Y-103471626D01*
X97444446Y-103478934D01*
X97433925Y-103485240D01*
X97422835Y-103490485D01*
X97411286Y-103494618D01*
X97399386Y-103497598D01*
X97387252Y-103499398D01*
X97375000Y-103500000D01*
X97125000Y-103500000D01*
X97112748Y-103499398D01*
X97100614Y-103497598D01*
X97088714Y-103494618D01*
X97077165Y-103490485D01*
X97066075Y-103485240D01*
X97055554Y-103478934D01*
X97045701Y-103471626D01*
X97036612Y-103463388D01*
X97028374Y-103454299D01*
X97021066Y-103444446D01*
X97014760Y-103433925D01*
X97009515Y-103422835D01*
X97005382Y-103411286D01*
X97002402Y-103399386D01*
X97000602Y-103387252D01*
X97000000Y-103375000D01*
X97000000Y-102125000D01*
X97000602Y-102112748D01*
X97002402Y-102100614D01*
X97005382Y-102088714D01*
X97009515Y-102077165D01*
X97014760Y-102066075D01*
X97021066Y-102055554D01*
X97028374Y-102045701D01*
X97036612Y-102036612D01*
X97045701Y-102028374D01*
X97055554Y-102021066D01*
X97066075Y-102014760D01*
X97077165Y-102009515D01*
X97088714Y-102005382D01*
X97100614Y-102002402D01*
X97112748Y-102000602D01*
X97125000Y-102000000D01*
X97375000Y-102000000D01*
X97387252Y-102000602D01*
X97387252Y-102000602D01*
G37*
D21*
X97250000Y-102750000D03*
D11*
G36*
X96587252Y-102000602D02*
G01*
X96599386Y-102002402D01*
X96611286Y-102005382D01*
X96622835Y-102009515D01*
X96633925Y-102014760D01*
X96644446Y-102021066D01*
X96654299Y-102028374D01*
X96663388Y-102036612D01*
X96671626Y-102045701D01*
X96678934Y-102055554D01*
X96685240Y-102066075D01*
X96690485Y-102077165D01*
X96694618Y-102088714D01*
X96697598Y-102100614D01*
X96699398Y-102112748D01*
X96700000Y-102125000D01*
X96700000Y-103375000D01*
X96699398Y-103387252D01*
X96697598Y-103399386D01*
X96694618Y-103411286D01*
X96690485Y-103422835D01*
X96685240Y-103433925D01*
X96678934Y-103444446D01*
X96671626Y-103454299D01*
X96663388Y-103463388D01*
X96654299Y-103471626D01*
X96644446Y-103478934D01*
X96633925Y-103485240D01*
X96622835Y-103490485D01*
X96611286Y-103494618D01*
X96599386Y-103497598D01*
X96587252Y-103499398D01*
X96575000Y-103500000D01*
X96325000Y-103500000D01*
X96312748Y-103499398D01*
X96300614Y-103497598D01*
X96288714Y-103494618D01*
X96277165Y-103490485D01*
X96266075Y-103485240D01*
X96255554Y-103478934D01*
X96245701Y-103471626D01*
X96236612Y-103463388D01*
X96228374Y-103454299D01*
X96221066Y-103444446D01*
X96214760Y-103433925D01*
X96209515Y-103422835D01*
X96205382Y-103411286D01*
X96202402Y-103399386D01*
X96200602Y-103387252D01*
X96200000Y-103375000D01*
X96200000Y-102125000D01*
X96200602Y-102112748D01*
X96202402Y-102100614D01*
X96205382Y-102088714D01*
X96209515Y-102077165D01*
X96214760Y-102066075D01*
X96221066Y-102055554D01*
X96228374Y-102045701D01*
X96236612Y-102036612D01*
X96245701Y-102028374D01*
X96255554Y-102021066D01*
X96266075Y-102014760D01*
X96277165Y-102009515D01*
X96288714Y-102005382D01*
X96300614Y-102002402D01*
X96312748Y-102000602D01*
X96325000Y-102000000D01*
X96575000Y-102000000D01*
X96587252Y-102000602D01*
X96587252Y-102000602D01*
G37*
D21*
X96450000Y-102750000D03*
D11*
G36*
X95787252Y-102000602D02*
G01*
X95799386Y-102002402D01*
X95811286Y-102005382D01*
X95822835Y-102009515D01*
X95833925Y-102014760D01*
X95844446Y-102021066D01*
X95854299Y-102028374D01*
X95863388Y-102036612D01*
X95871626Y-102045701D01*
X95878934Y-102055554D01*
X95885240Y-102066075D01*
X95890485Y-102077165D01*
X95894618Y-102088714D01*
X95897598Y-102100614D01*
X95899398Y-102112748D01*
X95900000Y-102125000D01*
X95900000Y-103375000D01*
X95899398Y-103387252D01*
X95897598Y-103399386D01*
X95894618Y-103411286D01*
X95890485Y-103422835D01*
X95885240Y-103433925D01*
X95878934Y-103444446D01*
X95871626Y-103454299D01*
X95863388Y-103463388D01*
X95854299Y-103471626D01*
X95844446Y-103478934D01*
X95833925Y-103485240D01*
X95822835Y-103490485D01*
X95811286Y-103494618D01*
X95799386Y-103497598D01*
X95787252Y-103499398D01*
X95775000Y-103500000D01*
X95525000Y-103500000D01*
X95512748Y-103499398D01*
X95500614Y-103497598D01*
X95488714Y-103494618D01*
X95477165Y-103490485D01*
X95466075Y-103485240D01*
X95455554Y-103478934D01*
X95445701Y-103471626D01*
X95436612Y-103463388D01*
X95428374Y-103454299D01*
X95421066Y-103444446D01*
X95414760Y-103433925D01*
X95409515Y-103422835D01*
X95405382Y-103411286D01*
X95402402Y-103399386D01*
X95400602Y-103387252D01*
X95400000Y-103375000D01*
X95400000Y-102125000D01*
X95400602Y-102112748D01*
X95402402Y-102100614D01*
X95405382Y-102088714D01*
X95409515Y-102077165D01*
X95414760Y-102066075D01*
X95421066Y-102055554D01*
X95428374Y-102045701D01*
X95436612Y-102036612D01*
X95445701Y-102028374D01*
X95455554Y-102021066D01*
X95466075Y-102014760D01*
X95477165Y-102009515D01*
X95488714Y-102005382D01*
X95500614Y-102002402D01*
X95512748Y-102000602D01*
X95525000Y-102000000D01*
X95775000Y-102000000D01*
X95787252Y-102000602D01*
X95787252Y-102000602D01*
G37*
D21*
X95650000Y-102750000D03*
D11*
G36*
X94987252Y-102000602D02*
G01*
X94999386Y-102002402D01*
X95011286Y-102005382D01*
X95022835Y-102009515D01*
X95033925Y-102014760D01*
X95044446Y-102021066D01*
X95054299Y-102028374D01*
X95063388Y-102036612D01*
X95071626Y-102045701D01*
X95078934Y-102055554D01*
X95085240Y-102066075D01*
X95090485Y-102077165D01*
X95094618Y-102088714D01*
X95097598Y-102100614D01*
X95099398Y-102112748D01*
X95100000Y-102125000D01*
X95100000Y-103375000D01*
X95099398Y-103387252D01*
X95097598Y-103399386D01*
X95094618Y-103411286D01*
X95090485Y-103422835D01*
X95085240Y-103433925D01*
X95078934Y-103444446D01*
X95071626Y-103454299D01*
X95063388Y-103463388D01*
X95054299Y-103471626D01*
X95044446Y-103478934D01*
X95033925Y-103485240D01*
X95022835Y-103490485D01*
X95011286Y-103494618D01*
X94999386Y-103497598D01*
X94987252Y-103499398D01*
X94975000Y-103500000D01*
X94725000Y-103500000D01*
X94712748Y-103499398D01*
X94700614Y-103497598D01*
X94688714Y-103494618D01*
X94677165Y-103490485D01*
X94666075Y-103485240D01*
X94655554Y-103478934D01*
X94645701Y-103471626D01*
X94636612Y-103463388D01*
X94628374Y-103454299D01*
X94621066Y-103444446D01*
X94614760Y-103433925D01*
X94609515Y-103422835D01*
X94605382Y-103411286D01*
X94602402Y-103399386D01*
X94600602Y-103387252D01*
X94600000Y-103375000D01*
X94600000Y-102125000D01*
X94600602Y-102112748D01*
X94602402Y-102100614D01*
X94605382Y-102088714D01*
X94609515Y-102077165D01*
X94614760Y-102066075D01*
X94621066Y-102055554D01*
X94628374Y-102045701D01*
X94636612Y-102036612D01*
X94645701Y-102028374D01*
X94655554Y-102021066D01*
X94666075Y-102014760D01*
X94677165Y-102009515D01*
X94688714Y-102005382D01*
X94700614Y-102002402D01*
X94712748Y-102000602D01*
X94725000Y-102000000D01*
X94975000Y-102000000D01*
X94987252Y-102000602D01*
X94987252Y-102000602D01*
G37*
D21*
X94850000Y-102750000D03*
D11*
G36*
X94112252Y-101125602D02*
G01*
X94124386Y-101127402D01*
X94136286Y-101130382D01*
X94147835Y-101134515D01*
X94158925Y-101139760D01*
X94169446Y-101146066D01*
X94179299Y-101153374D01*
X94188388Y-101161612D01*
X94196626Y-101170701D01*
X94203934Y-101180554D01*
X94210240Y-101191075D01*
X94215485Y-101202165D01*
X94219618Y-101213714D01*
X94222598Y-101225614D01*
X94224398Y-101237748D01*
X94225000Y-101250000D01*
X94225000Y-101500000D01*
X94224398Y-101512252D01*
X94222598Y-101524386D01*
X94219618Y-101536286D01*
X94215485Y-101547835D01*
X94210240Y-101558925D01*
X94203934Y-101569446D01*
X94196626Y-101579299D01*
X94188388Y-101588388D01*
X94179299Y-101596626D01*
X94169446Y-101603934D01*
X94158925Y-101610240D01*
X94147835Y-101615485D01*
X94136286Y-101619618D01*
X94124386Y-101622598D01*
X94112252Y-101624398D01*
X94100000Y-101625000D01*
X92850000Y-101625000D01*
X92837748Y-101624398D01*
X92825614Y-101622598D01*
X92813714Y-101619618D01*
X92802165Y-101615485D01*
X92791075Y-101610240D01*
X92780554Y-101603934D01*
X92770701Y-101596626D01*
X92761612Y-101588388D01*
X92753374Y-101579299D01*
X92746066Y-101569446D01*
X92739760Y-101558925D01*
X92734515Y-101547835D01*
X92730382Y-101536286D01*
X92727402Y-101524386D01*
X92725602Y-101512252D01*
X92725000Y-101500000D01*
X92725000Y-101250000D01*
X92725602Y-101237748D01*
X92727402Y-101225614D01*
X92730382Y-101213714D01*
X92734515Y-101202165D01*
X92739760Y-101191075D01*
X92746066Y-101180554D01*
X92753374Y-101170701D01*
X92761612Y-101161612D01*
X92770701Y-101153374D01*
X92780554Y-101146066D01*
X92791075Y-101139760D01*
X92802165Y-101134515D01*
X92813714Y-101130382D01*
X92825614Y-101127402D01*
X92837748Y-101125602D01*
X92850000Y-101125000D01*
X94100000Y-101125000D01*
X94112252Y-101125602D01*
X94112252Y-101125602D01*
G37*
D21*
X93475000Y-101375000D03*
D11*
G36*
X94112252Y-100325602D02*
G01*
X94124386Y-100327402D01*
X94136286Y-100330382D01*
X94147835Y-100334515D01*
X94158925Y-100339760D01*
X94169446Y-100346066D01*
X94179299Y-100353374D01*
X94188388Y-100361612D01*
X94196626Y-100370701D01*
X94203934Y-100380554D01*
X94210240Y-100391075D01*
X94215485Y-100402165D01*
X94219618Y-100413714D01*
X94222598Y-100425614D01*
X94224398Y-100437748D01*
X94225000Y-100450000D01*
X94225000Y-100700000D01*
X94224398Y-100712252D01*
X94222598Y-100724386D01*
X94219618Y-100736286D01*
X94215485Y-100747835D01*
X94210240Y-100758925D01*
X94203934Y-100769446D01*
X94196626Y-100779299D01*
X94188388Y-100788388D01*
X94179299Y-100796626D01*
X94169446Y-100803934D01*
X94158925Y-100810240D01*
X94147835Y-100815485D01*
X94136286Y-100819618D01*
X94124386Y-100822598D01*
X94112252Y-100824398D01*
X94100000Y-100825000D01*
X92850000Y-100825000D01*
X92837748Y-100824398D01*
X92825614Y-100822598D01*
X92813714Y-100819618D01*
X92802165Y-100815485D01*
X92791075Y-100810240D01*
X92780554Y-100803934D01*
X92770701Y-100796626D01*
X92761612Y-100788388D01*
X92753374Y-100779299D01*
X92746066Y-100769446D01*
X92739760Y-100758925D01*
X92734515Y-100747835D01*
X92730382Y-100736286D01*
X92727402Y-100724386D01*
X92725602Y-100712252D01*
X92725000Y-100700000D01*
X92725000Y-100450000D01*
X92725602Y-100437748D01*
X92727402Y-100425614D01*
X92730382Y-100413714D01*
X92734515Y-100402165D01*
X92739760Y-100391075D01*
X92746066Y-100380554D01*
X92753374Y-100370701D01*
X92761612Y-100361612D01*
X92770701Y-100353374D01*
X92780554Y-100346066D01*
X92791075Y-100339760D01*
X92802165Y-100334515D01*
X92813714Y-100330382D01*
X92825614Y-100327402D01*
X92837748Y-100325602D01*
X92850000Y-100325000D01*
X94100000Y-100325000D01*
X94112252Y-100325602D01*
X94112252Y-100325602D01*
G37*
D21*
X93475000Y-100575000D03*
D11*
G36*
X94112252Y-99525602D02*
G01*
X94124386Y-99527402D01*
X94136286Y-99530382D01*
X94147835Y-99534515D01*
X94158925Y-99539760D01*
X94169446Y-99546066D01*
X94179299Y-99553374D01*
X94188388Y-99561612D01*
X94196626Y-99570701D01*
X94203934Y-99580554D01*
X94210240Y-99591075D01*
X94215485Y-99602165D01*
X94219618Y-99613714D01*
X94222598Y-99625614D01*
X94224398Y-99637748D01*
X94225000Y-99650000D01*
X94225000Y-99900000D01*
X94224398Y-99912252D01*
X94222598Y-99924386D01*
X94219618Y-99936286D01*
X94215485Y-99947835D01*
X94210240Y-99958925D01*
X94203934Y-99969446D01*
X94196626Y-99979299D01*
X94188388Y-99988388D01*
X94179299Y-99996626D01*
X94169446Y-100003934D01*
X94158925Y-100010240D01*
X94147835Y-100015485D01*
X94136286Y-100019618D01*
X94124386Y-100022598D01*
X94112252Y-100024398D01*
X94100000Y-100025000D01*
X92850000Y-100025000D01*
X92837748Y-100024398D01*
X92825614Y-100022598D01*
X92813714Y-100019618D01*
X92802165Y-100015485D01*
X92791075Y-100010240D01*
X92780554Y-100003934D01*
X92770701Y-99996626D01*
X92761612Y-99988388D01*
X92753374Y-99979299D01*
X92746066Y-99969446D01*
X92739760Y-99958925D01*
X92734515Y-99947835D01*
X92730382Y-99936286D01*
X92727402Y-99924386D01*
X92725602Y-99912252D01*
X92725000Y-99900000D01*
X92725000Y-99650000D01*
X92725602Y-99637748D01*
X92727402Y-99625614D01*
X92730382Y-99613714D01*
X92734515Y-99602165D01*
X92739760Y-99591075D01*
X92746066Y-99580554D01*
X92753374Y-99570701D01*
X92761612Y-99561612D01*
X92770701Y-99553374D01*
X92780554Y-99546066D01*
X92791075Y-99539760D01*
X92802165Y-99534515D01*
X92813714Y-99530382D01*
X92825614Y-99527402D01*
X92837748Y-99525602D01*
X92850000Y-99525000D01*
X94100000Y-99525000D01*
X94112252Y-99525602D01*
X94112252Y-99525602D01*
G37*
D21*
X93475000Y-99775000D03*
D11*
G36*
X94112252Y-98725602D02*
G01*
X94124386Y-98727402D01*
X94136286Y-98730382D01*
X94147835Y-98734515D01*
X94158925Y-98739760D01*
X94169446Y-98746066D01*
X94179299Y-98753374D01*
X94188388Y-98761612D01*
X94196626Y-98770701D01*
X94203934Y-98780554D01*
X94210240Y-98791075D01*
X94215485Y-98802165D01*
X94219618Y-98813714D01*
X94222598Y-98825614D01*
X94224398Y-98837748D01*
X94225000Y-98850000D01*
X94225000Y-99100000D01*
X94224398Y-99112252D01*
X94222598Y-99124386D01*
X94219618Y-99136286D01*
X94215485Y-99147835D01*
X94210240Y-99158925D01*
X94203934Y-99169446D01*
X94196626Y-99179299D01*
X94188388Y-99188388D01*
X94179299Y-99196626D01*
X94169446Y-99203934D01*
X94158925Y-99210240D01*
X94147835Y-99215485D01*
X94136286Y-99219618D01*
X94124386Y-99222598D01*
X94112252Y-99224398D01*
X94100000Y-99225000D01*
X92850000Y-99225000D01*
X92837748Y-99224398D01*
X92825614Y-99222598D01*
X92813714Y-99219618D01*
X92802165Y-99215485D01*
X92791075Y-99210240D01*
X92780554Y-99203934D01*
X92770701Y-99196626D01*
X92761612Y-99188388D01*
X92753374Y-99179299D01*
X92746066Y-99169446D01*
X92739760Y-99158925D01*
X92734515Y-99147835D01*
X92730382Y-99136286D01*
X92727402Y-99124386D01*
X92725602Y-99112252D01*
X92725000Y-99100000D01*
X92725000Y-98850000D01*
X92725602Y-98837748D01*
X92727402Y-98825614D01*
X92730382Y-98813714D01*
X92734515Y-98802165D01*
X92739760Y-98791075D01*
X92746066Y-98780554D01*
X92753374Y-98770701D01*
X92761612Y-98761612D01*
X92770701Y-98753374D01*
X92780554Y-98746066D01*
X92791075Y-98739760D01*
X92802165Y-98734515D01*
X92813714Y-98730382D01*
X92825614Y-98727402D01*
X92837748Y-98725602D01*
X92850000Y-98725000D01*
X94100000Y-98725000D01*
X94112252Y-98725602D01*
X94112252Y-98725602D01*
G37*
D21*
X93475000Y-98975000D03*
D11*
G36*
X94112252Y-97925602D02*
G01*
X94124386Y-97927402D01*
X94136286Y-97930382D01*
X94147835Y-97934515D01*
X94158925Y-97939760D01*
X94169446Y-97946066D01*
X94179299Y-97953374D01*
X94188388Y-97961612D01*
X94196626Y-97970701D01*
X94203934Y-97980554D01*
X94210240Y-97991075D01*
X94215485Y-98002165D01*
X94219618Y-98013714D01*
X94222598Y-98025614D01*
X94224398Y-98037748D01*
X94225000Y-98050000D01*
X94225000Y-98300000D01*
X94224398Y-98312252D01*
X94222598Y-98324386D01*
X94219618Y-98336286D01*
X94215485Y-98347835D01*
X94210240Y-98358925D01*
X94203934Y-98369446D01*
X94196626Y-98379299D01*
X94188388Y-98388388D01*
X94179299Y-98396626D01*
X94169446Y-98403934D01*
X94158925Y-98410240D01*
X94147835Y-98415485D01*
X94136286Y-98419618D01*
X94124386Y-98422598D01*
X94112252Y-98424398D01*
X94100000Y-98425000D01*
X92850000Y-98425000D01*
X92837748Y-98424398D01*
X92825614Y-98422598D01*
X92813714Y-98419618D01*
X92802165Y-98415485D01*
X92791075Y-98410240D01*
X92780554Y-98403934D01*
X92770701Y-98396626D01*
X92761612Y-98388388D01*
X92753374Y-98379299D01*
X92746066Y-98369446D01*
X92739760Y-98358925D01*
X92734515Y-98347835D01*
X92730382Y-98336286D01*
X92727402Y-98324386D01*
X92725602Y-98312252D01*
X92725000Y-98300000D01*
X92725000Y-98050000D01*
X92725602Y-98037748D01*
X92727402Y-98025614D01*
X92730382Y-98013714D01*
X92734515Y-98002165D01*
X92739760Y-97991075D01*
X92746066Y-97980554D01*
X92753374Y-97970701D01*
X92761612Y-97961612D01*
X92770701Y-97953374D01*
X92780554Y-97946066D01*
X92791075Y-97939760D01*
X92802165Y-97934515D01*
X92813714Y-97930382D01*
X92825614Y-97927402D01*
X92837748Y-97925602D01*
X92850000Y-97925000D01*
X94100000Y-97925000D01*
X94112252Y-97925602D01*
X94112252Y-97925602D01*
G37*
D21*
X93475000Y-98175000D03*
D11*
G36*
X94112252Y-97125602D02*
G01*
X94124386Y-97127402D01*
X94136286Y-97130382D01*
X94147835Y-97134515D01*
X94158925Y-97139760D01*
X94169446Y-97146066D01*
X94179299Y-97153374D01*
X94188388Y-97161612D01*
X94196626Y-97170701D01*
X94203934Y-97180554D01*
X94210240Y-97191075D01*
X94215485Y-97202165D01*
X94219618Y-97213714D01*
X94222598Y-97225614D01*
X94224398Y-97237748D01*
X94225000Y-97250000D01*
X94225000Y-97500000D01*
X94224398Y-97512252D01*
X94222598Y-97524386D01*
X94219618Y-97536286D01*
X94215485Y-97547835D01*
X94210240Y-97558925D01*
X94203934Y-97569446D01*
X94196626Y-97579299D01*
X94188388Y-97588388D01*
X94179299Y-97596626D01*
X94169446Y-97603934D01*
X94158925Y-97610240D01*
X94147835Y-97615485D01*
X94136286Y-97619618D01*
X94124386Y-97622598D01*
X94112252Y-97624398D01*
X94100000Y-97625000D01*
X92850000Y-97625000D01*
X92837748Y-97624398D01*
X92825614Y-97622598D01*
X92813714Y-97619618D01*
X92802165Y-97615485D01*
X92791075Y-97610240D01*
X92780554Y-97603934D01*
X92770701Y-97596626D01*
X92761612Y-97588388D01*
X92753374Y-97579299D01*
X92746066Y-97569446D01*
X92739760Y-97558925D01*
X92734515Y-97547835D01*
X92730382Y-97536286D01*
X92727402Y-97524386D01*
X92725602Y-97512252D01*
X92725000Y-97500000D01*
X92725000Y-97250000D01*
X92725602Y-97237748D01*
X92727402Y-97225614D01*
X92730382Y-97213714D01*
X92734515Y-97202165D01*
X92739760Y-97191075D01*
X92746066Y-97180554D01*
X92753374Y-97170701D01*
X92761612Y-97161612D01*
X92770701Y-97153374D01*
X92780554Y-97146066D01*
X92791075Y-97139760D01*
X92802165Y-97134515D01*
X92813714Y-97130382D01*
X92825614Y-97127402D01*
X92837748Y-97125602D01*
X92850000Y-97125000D01*
X94100000Y-97125000D01*
X94112252Y-97125602D01*
X94112252Y-97125602D01*
G37*
D21*
X93475000Y-97375000D03*
D11*
G36*
X94112252Y-96325602D02*
G01*
X94124386Y-96327402D01*
X94136286Y-96330382D01*
X94147835Y-96334515D01*
X94158925Y-96339760D01*
X94169446Y-96346066D01*
X94179299Y-96353374D01*
X94188388Y-96361612D01*
X94196626Y-96370701D01*
X94203934Y-96380554D01*
X94210240Y-96391075D01*
X94215485Y-96402165D01*
X94219618Y-96413714D01*
X94222598Y-96425614D01*
X94224398Y-96437748D01*
X94225000Y-96450000D01*
X94225000Y-96700000D01*
X94224398Y-96712252D01*
X94222598Y-96724386D01*
X94219618Y-96736286D01*
X94215485Y-96747835D01*
X94210240Y-96758925D01*
X94203934Y-96769446D01*
X94196626Y-96779299D01*
X94188388Y-96788388D01*
X94179299Y-96796626D01*
X94169446Y-96803934D01*
X94158925Y-96810240D01*
X94147835Y-96815485D01*
X94136286Y-96819618D01*
X94124386Y-96822598D01*
X94112252Y-96824398D01*
X94100000Y-96825000D01*
X92850000Y-96825000D01*
X92837748Y-96824398D01*
X92825614Y-96822598D01*
X92813714Y-96819618D01*
X92802165Y-96815485D01*
X92791075Y-96810240D01*
X92780554Y-96803934D01*
X92770701Y-96796626D01*
X92761612Y-96788388D01*
X92753374Y-96779299D01*
X92746066Y-96769446D01*
X92739760Y-96758925D01*
X92734515Y-96747835D01*
X92730382Y-96736286D01*
X92727402Y-96724386D01*
X92725602Y-96712252D01*
X92725000Y-96700000D01*
X92725000Y-96450000D01*
X92725602Y-96437748D01*
X92727402Y-96425614D01*
X92730382Y-96413714D01*
X92734515Y-96402165D01*
X92739760Y-96391075D01*
X92746066Y-96380554D01*
X92753374Y-96370701D01*
X92761612Y-96361612D01*
X92770701Y-96353374D01*
X92780554Y-96346066D01*
X92791075Y-96339760D01*
X92802165Y-96334515D01*
X92813714Y-96330382D01*
X92825614Y-96327402D01*
X92837748Y-96325602D01*
X92850000Y-96325000D01*
X94100000Y-96325000D01*
X94112252Y-96325602D01*
X94112252Y-96325602D01*
G37*
D21*
X93475000Y-96575000D03*
D11*
G36*
X94112252Y-95525602D02*
G01*
X94124386Y-95527402D01*
X94136286Y-95530382D01*
X94147835Y-95534515D01*
X94158925Y-95539760D01*
X94169446Y-95546066D01*
X94179299Y-95553374D01*
X94188388Y-95561612D01*
X94196626Y-95570701D01*
X94203934Y-95580554D01*
X94210240Y-95591075D01*
X94215485Y-95602165D01*
X94219618Y-95613714D01*
X94222598Y-95625614D01*
X94224398Y-95637748D01*
X94225000Y-95650000D01*
X94225000Y-95900000D01*
X94224398Y-95912252D01*
X94222598Y-95924386D01*
X94219618Y-95936286D01*
X94215485Y-95947835D01*
X94210240Y-95958925D01*
X94203934Y-95969446D01*
X94196626Y-95979299D01*
X94188388Y-95988388D01*
X94179299Y-95996626D01*
X94169446Y-96003934D01*
X94158925Y-96010240D01*
X94147835Y-96015485D01*
X94136286Y-96019618D01*
X94124386Y-96022598D01*
X94112252Y-96024398D01*
X94100000Y-96025000D01*
X92850000Y-96025000D01*
X92837748Y-96024398D01*
X92825614Y-96022598D01*
X92813714Y-96019618D01*
X92802165Y-96015485D01*
X92791075Y-96010240D01*
X92780554Y-96003934D01*
X92770701Y-95996626D01*
X92761612Y-95988388D01*
X92753374Y-95979299D01*
X92746066Y-95969446D01*
X92739760Y-95958925D01*
X92734515Y-95947835D01*
X92730382Y-95936286D01*
X92727402Y-95924386D01*
X92725602Y-95912252D01*
X92725000Y-95900000D01*
X92725000Y-95650000D01*
X92725602Y-95637748D01*
X92727402Y-95625614D01*
X92730382Y-95613714D01*
X92734515Y-95602165D01*
X92739760Y-95591075D01*
X92746066Y-95580554D01*
X92753374Y-95570701D01*
X92761612Y-95561612D01*
X92770701Y-95553374D01*
X92780554Y-95546066D01*
X92791075Y-95539760D01*
X92802165Y-95534515D01*
X92813714Y-95530382D01*
X92825614Y-95527402D01*
X92837748Y-95525602D01*
X92850000Y-95525000D01*
X94100000Y-95525000D01*
X94112252Y-95525602D01*
X94112252Y-95525602D01*
G37*
D21*
X93475000Y-95775000D03*
D11*
G36*
X94987252Y-93650602D02*
G01*
X94999386Y-93652402D01*
X95011286Y-93655382D01*
X95022835Y-93659515D01*
X95033925Y-93664760D01*
X95044446Y-93671066D01*
X95054299Y-93678374D01*
X95063388Y-93686612D01*
X95071626Y-93695701D01*
X95078934Y-93705554D01*
X95085240Y-93716075D01*
X95090485Y-93727165D01*
X95094618Y-93738714D01*
X95097598Y-93750614D01*
X95099398Y-93762748D01*
X95100000Y-93775000D01*
X95100000Y-95025000D01*
X95099398Y-95037252D01*
X95097598Y-95049386D01*
X95094618Y-95061286D01*
X95090485Y-95072835D01*
X95085240Y-95083925D01*
X95078934Y-95094446D01*
X95071626Y-95104299D01*
X95063388Y-95113388D01*
X95054299Y-95121626D01*
X95044446Y-95128934D01*
X95033925Y-95135240D01*
X95022835Y-95140485D01*
X95011286Y-95144618D01*
X94999386Y-95147598D01*
X94987252Y-95149398D01*
X94975000Y-95150000D01*
X94725000Y-95150000D01*
X94712748Y-95149398D01*
X94700614Y-95147598D01*
X94688714Y-95144618D01*
X94677165Y-95140485D01*
X94666075Y-95135240D01*
X94655554Y-95128934D01*
X94645701Y-95121626D01*
X94636612Y-95113388D01*
X94628374Y-95104299D01*
X94621066Y-95094446D01*
X94614760Y-95083925D01*
X94609515Y-95072835D01*
X94605382Y-95061286D01*
X94602402Y-95049386D01*
X94600602Y-95037252D01*
X94600000Y-95025000D01*
X94600000Y-93775000D01*
X94600602Y-93762748D01*
X94602402Y-93750614D01*
X94605382Y-93738714D01*
X94609515Y-93727165D01*
X94614760Y-93716075D01*
X94621066Y-93705554D01*
X94628374Y-93695701D01*
X94636612Y-93686612D01*
X94645701Y-93678374D01*
X94655554Y-93671066D01*
X94666075Y-93664760D01*
X94677165Y-93659515D01*
X94688714Y-93655382D01*
X94700614Y-93652402D01*
X94712748Y-93650602D01*
X94725000Y-93650000D01*
X94975000Y-93650000D01*
X94987252Y-93650602D01*
X94987252Y-93650602D01*
G37*
D21*
X94850000Y-94400000D03*
D11*
G36*
X95787252Y-93650602D02*
G01*
X95799386Y-93652402D01*
X95811286Y-93655382D01*
X95822835Y-93659515D01*
X95833925Y-93664760D01*
X95844446Y-93671066D01*
X95854299Y-93678374D01*
X95863388Y-93686612D01*
X95871626Y-93695701D01*
X95878934Y-93705554D01*
X95885240Y-93716075D01*
X95890485Y-93727165D01*
X95894618Y-93738714D01*
X95897598Y-93750614D01*
X95899398Y-93762748D01*
X95900000Y-93775000D01*
X95900000Y-95025000D01*
X95899398Y-95037252D01*
X95897598Y-95049386D01*
X95894618Y-95061286D01*
X95890485Y-95072835D01*
X95885240Y-95083925D01*
X95878934Y-95094446D01*
X95871626Y-95104299D01*
X95863388Y-95113388D01*
X95854299Y-95121626D01*
X95844446Y-95128934D01*
X95833925Y-95135240D01*
X95822835Y-95140485D01*
X95811286Y-95144618D01*
X95799386Y-95147598D01*
X95787252Y-95149398D01*
X95775000Y-95150000D01*
X95525000Y-95150000D01*
X95512748Y-95149398D01*
X95500614Y-95147598D01*
X95488714Y-95144618D01*
X95477165Y-95140485D01*
X95466075Y-95135240D01*
X95455554Y-95128934D01*
X95445701Y-95121626D01*
X95436612Y-95113388D01*
X95428374Y-95104299D01*
X95421066Y-95094446D01*
X95414760Y-95083925D01*
X95409515Y-95072835D01*
X95405382Y-95061286D01*
X95402402Y-95049386D01*
X95400602Y-95037252D01*
X95400000Y-95025000D01*
X95400000Y-93775000D01*
X95400602Y-93762748D01*
X95402402Y-93750614D01*
X95405382Y-93738714D01*
X95409515Y-93727165D01*
X95414760Y-93716075D01*
X95421066Y-93705554D01*
X95428374Y-93695701D01*
X95436612Y-93686612D01*
X95445701Y-93678374D01*
X95455554Y-93671066D01*
X95466075Y-93664760D01*
X95477165Y-93659515D01*
X95488714Y-93655382D01*
X95500614Y-93652402D01*
X95512748Y-93650602D01*
X95525000Y-93650000D01*
X95775000Y-93650000D01*
X95787252Y-93650602D01*
X95787252Y-93650602D01*
G37*
D21*
X95650000Y-94400000D03*
D11*
G36*
X96587252Y-93650602D02*
G01*
X96599386Y-93652402D01*
X96611286Y-93655382D01*
X96622835Y-93659515D01*
X96633925Y-93664760D01*
X96644446Y-93671066D01*
X96654299Y-93678374D01*
X96663388Y-93686612D01*
X96671626Y-93695701D01*
X96678934Y-93705554D01*
X96685240Y-93716075D01*
X96690485Y-93727165D01*
X96694618Y-93738714D01*
X96697598Y-93750614D01*
X96699398Y-93762748D01*
X96700000Y-93775000D01*
X96700000Y-95025000D01*
X96699398Y-95037252D01*
X96697598Y-95049386D01*
X96694618Y-95061286D01*
X96690485Y-95072835D01*
X96685240Y-95083925D01*
X96678934Y-95094446D01*
X96671626Y-95104299D01*
X96663388Y-95113388D01*
X96654299Y-95121626D01*
X96644446Y-95128934D01*
X96633925Y-95135240D01*
X96622835Y-95140485D01*
X96611286Y-95144618D01*
X96599386Y-95147598D01*
X96587252Y-95149398D01*
X96575000Y-95150000D01*
X96325000Y-95150000D01*
X96312748Y-95149398D01*
X96300614Y-95147598D01*
X96288714Y-95144618D01*
X96277165Y-95140485D01*
X96266075Y-95135240D01*
X96255554Y-95128934D01*
X96245701Y-95121626D01*
X96236612Y-95113388D01*
X96228374Y-95104299D01*
X96221066Y-95094446D01*
X96214760Y-95083925D01*
X96209515Y-95072835D01*
X96205382Y-95061286D01*
X96202402Y-95049386D01*
X96200602Y-95037252D01*
X96200000Y-95025000D01*
X96200000Y-93775000D01*
X96200602Y-93762748D01*
X96202402Y-93750614D01*
X96205382Y-93738714D01*
X96209515Y-93727165D01*
X96214760Y-93716075D01*
X96221066Y-93705554D01*
X96228374Y-93695701D01*
X96236612Y-93686612D01*
X96245701Y-93678374D01*
X96255554Y-93671066D01*
X96266075Y-93664760D01*
X96277165Y-93659515D01*
X96288714Y-93655382D01*
X96300614Y-93652402D01*
X96312748Y-93650602D01*
X96325000Y-93650000D01*
X96575000Y-93650000D01*
X96587252Y-93650602D01*
X96587252Y-93650602D01*
G37*
D21*
X96450000Y-94400000D03*
D11*
G36*
X97387252Y-93650602D02*
G01*
X97399386Y-93652402D01*
X97411286Y-93655382D01*
X97422835Y-93659515D01*
X97433925Y-93664760D01*
X97444446Y-93671066D01*
X97454299Y-93678374D01*
X97463388Y-93686612D01*
X97471626Y-93695701D01*
X97478934Y-93705554D01*
X97485240Y-93716075D01*
X97490485Y-93727165D01*
X97494618Y-93738714D01*
X97497598Y-93750614D01*
X97499398Y-93762748D01*
X97500000Y-93775000D01*
X97500000Y-95025000D01*
X97499398Y-95037252D01*
X97497598Y-95049386D01*
X97494618Y-95061286D01*
X97490485Y-95072835D01*
X97485240Y-95083925D01*
X97478934Y-95094446D01*
X97471626Y-95104299D01*
X97463388Y-95113388D01*
X97454299Y-95121626D01*
X97444446Y-95128934D01*
X97433925Y-95135240D01*
X97422835Y-95140485D01*
X97411286Y-95144618D01*
X97399386Y-95147598D01*
X97387252Y-95149398D01*
X97375000Y-95150000D01*
X97125000Y-95150000D01*
X97112748Y-95149398D01*
X97100614Y-95147598D01*
X97088714Y-95144618D01*
X97077165Y-95140485D01*
X97066075Y-95135240D01*
X97055554Y-95128934D01*
X97045701Y-95121626D01*
X97036612Y-95113388D01*
X97028374Y-95104299D01*
X97021066Y-95094446D01*
X97014760Y-95083925D01*
X97009515Y-95072835D01*
X97005382Y-95061286D01*
X97002402Y-95049386D01*
X97000602Y-95037252D01*
X97000000Y-95025000D01*
X97000000Y-93775000D01*
X97000602Y-93762748D01*
X97002402Y-93750614D01*
X97005382Y-93738714D01*
X97009515Y-93727165D01*
X97014760Y-93716075D01*
X97021066Y-93705554D01*
X97028374Y-93695701D01*
X97036612Y-93686612D01*
X97045701Y-93678374D01*
X97055554Y-93671066D01*
X97066075Y-93664760D01*
X97077165Y-93659515D01*
X97088714Y-93655382D01*
X97100614Y-93652402D01*
X97112748Y-93650602D01*
X97125000Y-93650000D01*
X97375000Y-93650000D01*
X97387252Y-93650602D01*
X97387252Y-93650602D01*
G37*
D21*
X97250000Y-94400000D03*
D11*
G36*
X98187252Y-93650602D02*
G01*
X98199386Y-93652402D01*
X98211286Y-93655382D01*
X98222835Y-93659515D01*
X98233925Y-93664760D01*
X98244446Y-93671066D01*
X98254299Y-93678374D01*
X98263388Y-93686612D01*
X98271626Y-93695701D01*
X98278934Y-93705554D01*
X98285240Y-93716075D01*
X98290485Y-93727165D01*
X98294618Y-93738714D01*
X98297598Y-93750614D01*
X98299398Y-93762748D01*
X98300000Y-93775000D01*
X98300000Y-95025000D01*
X98299398Y-95037252D01*
X98297598Y-95049386D01*
X98294618Y-95061286D01*
X98290485Y-95072835D01*
X98285240Y-95083925D01*
X98278934Y-95094446D01*
X98271626Y-95104299D01*
X98263388Y-95113388D01*
X98254299Y-95121626D01*
X98244446Y-95128934D01*
X98233925Y-95135240D01*
X98222835Y-95140485D01*
X98211286Y-95144618D01*
X98199386Y-95147598D01*
X98187252Y-95149398D01*
X98175000Y-95150000D01*
X97925000Y-95150000D01*
X97912748Y-95149398D01*
X97900614Y-95147598D01*
X97888714Y-95144618D01*
X97877165Y-95140485D01*
X97866075Y-95135240D01*
X97855554Y-95128934D01*
X97845701Y-95121626D01*
X97836612Y-95113388D01*
X97828374Y-95104299D01*
X97821066Y-95094446D01*
X97814760Y-95083925D01*
X97809515Y-95072835D01*
X97805382Y-95061286D01*
X97802402Y-95049386D01*
X97800602Y-95037252D01*
X97800000Y-95025000D01*
X97800000Y-93775000D01*
X97800602Y-93762748D01*
X97802402Y-93750614D01*
X97805382Y-93738714D01*
X97809515Y-93727165D01*
X97814760Y-93716075D01*
X97821066Y-93705554D01*
X97828374Y-93695701D01*
X97836612Y-93686612D01*
X97845701Y-93678374D01*
X97855554Y-93671066D01*
X97866075Y-93664760D01*
X97877165Y-93659515D01*
X97888714Y-93655382D01*
X97900614Y-93652402D01*
X97912748Y-93650602D01*
X97925000Y-93650000D01*
X98175000Y-93650000D01*
X98187252Y-93650602D01*
X98187252Y-93650602D01*
G37*
D21*
X98050000Y-94400000D03*
D11*
G36*
X98987252Y-93650602D02*
G01*
X98999386Y-93652402D01*
X99011286Y-93655382D01*
X99022835Y-93659515D01*
X99033925Y-93664760D01*
X99044446Y-93671066D01*
X99054299Y-93678374D01*
X99063388Y-93686612D01*
X99071626Y-93695701D01*
X99078934Y-93705554D01*
X99085240Y-93716075D01*
X99090485Y-93727165D01*
X99094618Y-93738714D01*
X99097598Y-93750614D01*
X99099398Y-93762748D01*
X99100000Y-93775000D01*
X99100000Y-95025000D01*
X99099398Y-95037252D01*
X99097598Y-95049386D01*
X99094618Y-95061286D01*
X99090485Y-95072835D01*
X99085240Y-95083925D01*
X99078934Y-95094446D01*
X99071626Y-95104299D01*
X99063388Y-95113388D01*
X99054299Y-95121626D01*
X99044446Y-95128934D01*
X99033925Y-95135240D01*
X99022835Y-95140485D01*
X99011286Y-95144618D01*
X98999386Y-95147598D01*
X98987252Y-95149398D01*
X98975000Y-95150000D01*
X98725000Y-95150000D01*
X98712748Y-95149398D01*
X98700614Y-95147598D01*
X98688714Y-95144618D01*
X98677165Y-95140485D01*
X98666075Y-95135240D01*
X98655554Y-95128934D01*
X98645701Y-95121626D01*
X98636612Y-95113388D01*
X98628374Y-95104299D01*
X98621066Y-95094446D01*
X98614760Y-95083925D01*
X98609515Y-95072835D01*
X98605382Y-95061286D01*
X98602402Y-95049386D01*
X98600602Y-95037252D01*
X98600000Y-95025000D01*
X98600000Y-93775000D01*
X98600602Y-93762748D01*
X98602402Y-93750614D01*
X98605382Y-93738714D01*
X98609515Y-93727165D01*
X98614760Y-93716075D01*
X98621066Y-93705554D01*
X98628374Y-93695701D01*
X98636612Y-93686612D01*
X98645701Y-93678374D01*
X98655554Y-93671066D01*
X98666075Y-93664760D01*
X98677165Y-93659515D01*
X98688714Y-93655382D01*
X98700614Y-93652402D01*
X98712748Y-93650602D01*
X98725000Y-93650000D01*
X98975000Y-93650000D01*
X98987252Y-93650602D01*
X98987252Y-93650602D01*
G37*
D21*
X98850000Y-94400000D03*
D11*
G36*
X99787252Y-93650602D02*
G01*
X99799386Y-93652402D01*
X99811286Y-93655382D01*
X99822835Y-93659515D01*
X99833925Y-93664760D01*
X99844446Y-93671066D01*
X99854299Y-93678374D01*
X99863388Y-93686612D01*
X99871626Y-93695701D01*
X99878934Y-93705554D01*
X99885240Y-93716075D01*
X99890485Y-93727165D01*
X99894618Y-93738714D01*
X99897598Y-93750614D01*
X99899398Y-93762748D01*
X99900000Y-93775000D01*
X99900000Y-95025000D01*
X99899398Y-95037252D01*
X99897598Y-95049386D01*
X99894618Y-95061286D01*
X99890485Y-95072835D01*
X99885240Y-95083925D01*
X99878934Y-95094446D01*
X99871626Y-95104299D01*
X99863388Y-95113388D01*
X99854299Y-95121626D01*
X99844446Y-95128934D01*
X99833925Y-95135240D01*
X99822835Y-95140485D01*
X99811286Y-95144618D01*
X99799386Y-95147598D01*
X99787252Y-95149398D01*
X99775000Y-95150000D01*
X99525000Y-95150000D01*
X99512748Y-95149398D01*
X99500614Y-95147598D01*
X99488714Y-95144618D01*
X99477165Y-95140485D01*
X99466075Y-95135240D01*
X99455554Y-95128934D01*
X99445701Y-95121626D01*
X99436612Y-95113388D01*
X99428374Y-95104299D01*
X99421066Y-95094446D01*
X99414760Y-95083925D01*
X99409515Y-95072835D01*
X99405382Y-95061286D01*
X99402402Y-95049386D01*
X99400602Y-95037252D01*
X99400000Y-95025000D01*
X99400000Y-93775000D01*
X99400602Y-93762748D01*
X99402402Y-93750614D01*
X99405382Y-93738714D01*
X99409515Y-93727165D01*
X99414760Y-93716075D01*
X99421066Y-93705554D01*
X99428374Y-93695701D01*
X99436612Y-93686612D01*
X99445701Y-93678374D01*
X99455554Y-93671066D01*
X99466075Y-93664760D01*
X99477165Y-93659515D01*
X99488714Y-93655382D01*
X99500614Y-93652402D01*
X99512748Y-93650602D01*
X99525000Y-93650000D01*
X99775000Y-93650000D01*
X99787252Y-93650602D01*
X99787252Y-93650602D01*
G37*
D21*
X99650000Y-94400000D03*
D11*
G36*
X100587252Y-93650602D02*
G01*
X100599386Y-93652402D01*
X100611286Y-93655382D01*
X100622835Y-93659515D01*
X100633925Y-93664760D01*
X100644446Y-93671066D01*
X100654299Y-93678374D01*
X100663388Y-93686612D01*
X100671626Y-93695701D01*
X100678934Y-93705554D01*
X100685240Y-93716075D01*
X100690485Y-93727165D01*
X100694618Y-93738714D01*
X100697598Y-93750614D01*
X100699398Y-93762748D01*
X100700000Y-93775000D01*
X100700000Y-95025000D01*
X100699398Y-95037252D01*
X100697598Y-95049386D01*
X100694618Y-95061286D01*
X100690485Y-95072835D01*
X100685240Y-95083925D01*
X100678934Y-95094446D01*
X100671626Y-95104299D01*
X100663388Y-95113388D01*
X100654299Y-95121626D01*
X100644446Y-95128934D01*
X100633925Y-95135240D01*
X100622835Y-95140485D01*
X100611286Y-95144618D01*
X100599386Y-95147598D01*
X100587252Y-95149398D01*
X100575000Y-95150000D01*
X100325000Y-95150000D01*
X100312748Y-95149398D01*
X100300614Y-95147598D01*
X100288714Y-95144618D01*
X100277165Y-95140485D01*
X100266075Y-95135240D01*
X100255554Y-95128934D01*
X100245701Y-95121626D01*
X100236612Y-95113388D01*
X100228374Y-95104299D01*
X100221066Y-95094446D01*
X100214760Y-95083925D01*
X100209515Y-95072835D01*
X100205382Y-95061286D01*
X100202402Y-95049386D01*
X100200602Y-95037252D01*
X100200000Y-95025000D01*
X100200000Y-93775000D01*
X100200602Y-93762748D01*
X100202402Y-93750614D01*
X100205382Y-93738714D01*
X100209515Y-93727165D01*
X100214760Y-93716075D01*
X100221066Y-93705554D01*
X100228374Y-93695701D01*
X100236612Y-93686612D01*
X100245701Y-93678374D01*
X100255554Y-93671066D01*
X100266075Y-93664760D01*
X100277165Y-93659515D01*
X100288714Y-93655382D01*
X100300614Y-93652402D01*
X100312748Y-93650602D01*
X100325000Y-93650000D01*
X100575000Y-93650000D01*
X100587252Y-93650602D01*
X100587252Y-93650602D01*
G37*
D21*
X100450000Y-94400000D03*
D11*
G36*
X102462252Y-95525602D02*
G01*
X102474386Y-95527402D01*
X102486286Y-95530382D01*
X102497835Y-95534515D01*
X102508925Y-95539760D01*
X102519446Y-95546066D01*
X102529299Y-95553374D01*
X102538388Y-95561612D01*
X102546626Y-95570701D01*
X102553934Y-95580554D01*
X102560240Y-95591075D01*
X102565485Y-95602165D01*
X102569618Y-95613714D01*
X102572598Y-95625614D01*
X102574398Y-95637748D01*
X102575000Y-95650000D01*
X102575000Y-95900000D01*
X102574398Y-95912252D01*
X102572598Y-95924386D01*
X102569618Y-95936286D01*
X102565485Y-95947835D01*
X102560240Y-95958925D01*
X102553934Y-95969446D01*
X102546626Y-95979299D01*
X102538388Y-95988388D01*
X102529299Y-95996626D01*
X102519446Y-96003934D01*
X102508925Y-96010240D01*
X102497835Y-96015485D01*
X102486286Y-96019618D01*
X102474386Y-96022598D01*
X102462252Y-96024398D01*
X102450000Y-96025000D01*
X101200000Y-96025000D01*
X101187748Y-96024398D01*
X101175614Y-96022598D01*
X101163714Y-96019618D01*
X101152165Y-96015485D01*
X101141075Y-96010240D01*
X101130554Y-96003934D01*
X101120701Y-95996626D01*
X101111612Y-95988388D01*
X101103374Y-95979299D01*
X101096066Y-95969446D01*
X101089760Y-95958925D01*
X101084515Y-95947835D01*
X101080382Y-95936286D01*
X101077402Y-95924386D01*
X101075602Y-95912252D01*
X101075000Y-95900000D01*
X101075000Y-95650000D01*
X101075602Y-95637748D01*
X101077402Y-95625614D01*
X101080382Y-95613714D01*
X101084515Y-95602165D01*
X101089760Y-95591075D01*
X101096066Y-95580554D01*
X101103374Y-95570701D01*
X101111612Y-95561612D01*
X101120701Y-95553374D01*
X101130554Y-95546066D01*
X101141075Y-95539760D01*
X101152165Y-95534515D01*
X101163714Y-95530382D01*
X101175614Y-95527402D01*
X101187748Y-95525602D01*
X101200000Y-95525000D01*
X102450000Y-95525000D01*
X102462252Y-95525602D01*
X102462252Y-95525602D01*
G37*
D21*
X101825000Y-95775000D03*
D11*
G36*
X102462252Y-96325602D02*
G01*
X102474386Y-96327402D01*
X102486286Y-96330382D01*
X102497835Y-96334515D01*
X102508925Y-96339760D01*
X102519446Y-96346066D01*
X102529299Y-96353374D01*
X102538388Y-96361612D01*
X102546626Y-96370701D01*
X102553934Y-96380554D01*
X102560240Y-96391075D01*
X102565485Y-96402165D01*
X102569618Y-96413714D01*
X102572598Y-96425614D01*
X102574398Y-96437748D01*
X102575000Y-96450000D01*
X102575000Y-96700000D01*
X102574398Y-96712252D01*
X102572598Y-96724386D01*
X102569618Y-96736286D01*
X102565485Y-96747835D01*
X102560240Y-96758925D01*
X102553934Y-96769446D01*
X102546626Y-96779299D01*
X102538388Y-96788388D01*
X102529299Y-96796626D01*
X102519446Y-96803934D01*
X102508925Y-96810240D01*
X102497835Y-96815485D01*
X102486286Y-96819618D01*
X102474386Y-96822598D01*
X102462252Y-96824398D01*
X102450000Y-96825000D01*
X101200000Y-96825000D01*
X101187748Y-96824398D01*
X101175614Y-96822598D01*
X101163714Y-96819618D01*
X101152165Y-96815485D01*
X101141075Y-96810240D01*
X101130554Y-96803934D01*
X101120701Y-96796626D01*
X101111612Y-96788388D01*
X101103374Y-96779299D01*
X101096066Y-96769446D01*
X101089760Y-96758925D01*
X101084515Y-96747835D01*
X101080382Y-96736286D01*
X101077402Y-96724386D01*
X101075602Y-96712252D01*
X101075000Y-96700000D01*
X101075000Y-96450000D01*
X101075602Y-96437748D01*
X101077402Y-96425614D01*
X101080382Y-96413714D01*
X101084515Y-96402165D01*
X101089760Y-96391075D01*
X101096066Y-96380554D01*
X101103374Y-96370701D01*
X101111612Y-96361612D01*
X101120701Y-96353374D01*
X101130554Y-96346066D01*
X101141075Y-96339760D01*
X101152165Y-96334515D01*
X101163714Y-96330382D01*
X101175614Y-96327402D01*
X101187748Y-96325602D01*
X101200000Y-96325000D01*
X102450000Y-96325000D01*
X102462252Y-96325602D01*
X102462252Y-96325602D01*
G37*
D21*
X101825000Y-96575000D03*
D11*
G36*
X102462252Y-97125602D02*
G01*
X102474386Y-97127402D01*
X102486286Y-97130382D01*
X102497835Y-97134515D01*
X102508925Y-97139760D01*
X102519446Y-97146066D01*
X102529299Y-97153374D01*
X102538388Y-97161612D01*
X102546626Y-97170701D01*
X102553934Y-97180554D01*
X102560240Y-97191075D01*
X102565485Y-97202165D01*
X102569618Y-97213714D01*
X102572598Y-97225614D01*
X102574398Y-97237748D01*
X102575000Y-97250000D01*
X102575000Y-97500000D01*
X102574398Y-97512252D01*
X102572598Y-97524386D01*
X102569618Y-97536286D01*
X102565485Y-97547835D01*
X102560240Y-97558925D01*
X102553934Y-97569446D01*
X102546626Y-97579299D01*
X102538388Y-97588388D01*
X102529299Y-97596626D01*
X102519446Y-97603934D01*
X102508925Y-97610240D01*
X102497835Y-97615485D01*
X102486286Y-97619618D01*
X102474386Y-97622598D01*
X102462252Y-97624398D01*
X102450000Y-97625000D01*
X101200000Y-97625000D01*
X101187748Y-97624398D01*
X101175614Y-97622598D01*
X101163714Y-97619618D01*
X101152165Y-97615485D01*
X101141075Y-97610240D01*
X101130554Y-97603934D01*
X101120701Y-97596626D01*
X101111612Y-97588388D01*
X101103374Y-97579299D01*
X101096066Y-97569446D01*
X101089760Y-97558925D01*
X101084515Y-97547835D01*
X101080382Y-97536286D01*
X101077402Y-97524386D01*
X101075602Y-97512252D01*
X101075000Y-97500000D01*
X101075000Y-97250000D01*
X101075602Y-97237748D01*
X101077402Y-97225614D01*
X101080382Y-97213714D01*
X101084515Y-97202165D01*
X101089760Y-97191075D01*
X101096066Y-97180554D01*
X101103374Y-97170701D01*
X101111612Y-97161612D01*
X101120701Y-97153374D01*
X101130554Y-97146066D01*
X101141075Y-97139760D01*
X101152165Y-97134515D01*
X101163714Y-97130382D01*
X101175614Y-97127402D01*
X101187748Y-97125602D01*
X101200000Y-97125000D01*
X102450000Y-97125000D01*
X102462252Y-97125602D01*
X102462252Y-97125602D01*
G37*
D21*
X101825000Y-97375000D03*
D11*
G36*
X102462252Y-97925602D02*
G01*
X102474386Y-97927402D01*
X102486286Y-97930382D01*
X102497835Y-97934515D01*
X102508925Y-97939760D01*
X102519446Y-97946066D01*
X102529299Y-97953374D01*
X102538388Y-97961612D01*
X102546626Y-97970701D01*
X102553934Y-97980554D01*
X102560240Y-97991075D01*
X102565485Y-98002165D01*
X102569618Y-98013714D01*
X102572598Y-98025614D01*
X102574398Y-98037748D01*
X102575000Y-98050000D01*
X102575000Y-98300000D01*
X102574398Y-98312252D01*
X102572598Y-98324386D01*
X102569618Y-98336286D01*
X102565485Y-98347835D01*
X102560240Y-98358925D01*
X102553934Y-98369446D01*
X102546626Y-98379299D01*
X102538388Y-98388388D01*
X102529299Y-98396626D01*
X102519446Y-98403934D01*
X102508925Y-98410240D01*
X102497835Y-98415485D01*
X102486286Y-98419618D01*
X102474386Y-98422598D01*
X102462252Y-98424398D01*
X102450000Y-98425000D01*
X101200000Y-98425000D01*
X101187748Y-98424398D01*
X101175614Y-98422598D01*
X101163714Y-98419618D01*
X101152165Y-98415485D01*
X101141075Y-98410240D01*
X101130554Y-98403934D01*
X101120701Y-98396626D01*
X101111612Y-98388388D01*
X101103374Y-98379299D01*
X101096066Y-98369446D01*
X101089760Y-98358925D01*
X101084515Y-98347835D01*
X101080382Y-98336286D01*
X101077402Y-98324386D01*
X101075602Y-98312252D01*
X101075000Y-98300000D01*
X101075000Y-98050000D01*
X101075602Y-98037748D01*
X101077402Y-98025614D01*
X101080382Y-98013714D01*
X101084515Y-98002165D01*
X101089760Y-97991075D01*
X101096066Y-97980554D01*
X101103374Y-97970701D01*
X101111612Y-97961612D01*
X101120701Y-97953374D01*
X101130554Y-97946066D01*
X101141075Y-97939760D01*
X101152165Y-97934515D01*
X101163714Y-97930382D01*
X101175614Y-97927402D01*
X101187748Y-97925602D01*
X101200000Y-97925000D01*
X102450000Y-97925000D01*
X102462252Y-97925602D01*
X102462252Y-97925602D01*
G37*
D21*
X101825000Y-98175000D03*
D11*
G36*
X102462252Y-98725602D02*
G01*
X102474386Y-98727402D01*
X102486286Y-98730382D01*
X102497835Y-98734515D01*
X102508925Y-98739760D01*
X102519446Y-98746066D01*
X102529299Y-98753374D01*
X102538388Y-98761612D01*
X102546626Y-98770701D01*
X102553934Y-98780554D01*
X102560240Y-98791075D01*
X102565485Y-98802165D01*
X102569618Y-98813714D01*
X102572598Y-98825614D01*
X102574398Y-98837748D01*
X102575000Y-98850000D01*
X102575000Y-99100000D01*
X102574398Y-99112252D01*
X102572598Y-99124386D01*
X102569618Y-99136286D01*
X102565485Y-99147835D01*
X102560240Y-99158925D01*
X102553934Y-99169446D01*
X102546626Y-99179299D01*
X102538388Y-99188388D01*
X102529299Y-99196626D01*
X102519446Y-99203934D01*
X102508925Y-99210240D01*
X102497835Y-99215485D01*
X102486286Y-99219618D01*
X102474386Y-99222598D01*
X102462252Y-99224398D01*
X102450000Y-99225000D01*
X101200000Y-99225000D01*
X101187748Y-99224398D01*
X101175614Y-99222598D01*
X101163714Y-99219618D01*
X101152165Y-99215485D01*
X101141075Y-99210240D01*
X101130554Y-99203934D01*
X101120701Y-99196626D01*
X101111612Y-99188388D01*
X101103374Y-99179299D01*
X101096066Y-99169446D01*
X101089760Y-99158925D01*
X101084515Y-99147835D01*
X101080382Y-99136286D01*
X101077402Y-99124386D01*
X101075602Y-99112252D01*
X101075000Y-99100000D01*
X101075000Y-98850000D01*
X101075602Y-98837748D01*
X101077402Y-98825614D01*
X101080382Y-98813714D01*
X101084515Y-98802165D01*
X101089760Y-98791075D01*
X101096066Y-98780554D01*
X101103374Y-98770701D01*
X101111612Y-98761612D01*
X101120701Y-98753374D01*
X101130554Y-98746066D01*
X101141075Y-98739760D01*
X101152165Y-98734515D01*
X101163714Y-98730382D01*
X101175614Y-98727402D01*
X101187748Y-98725602D01*
X101200000Y-98725000D01*
X102450000Y-98725000D01*
X102462252Y-98725602D01*
X102462252Y-98725602D01*
G37*
D21*
X101825000Y-98975000D03*
D11*
G36*
X102462252Y-99525602D02*
G01*
X102474386Y-99527402D01*
X102486286Y-99530382D01*
X102497835Y-99534515D01*
X102508925Y-99539760D01*
X102519446Y-99546066D01*
X102529299Y-99553374D01*
X102538388Y-99561612D01*
X102546626Y-99570701D01*
X102553934Y-99580554D01*
X102560240Y-99591075D01*
X102565485Y-99602165D01*
X102569618Y-99613714D01*
X102572598Y-99625614D01*
X102574398Y-99637748D01*
X102575000Y-99650000D01*
X102575000Y-99900000D01*
X102574398Y-99912252D01*
X102572598Y-99924386D01*
X102569618Y-99936286D01*
X102565485Y-99947835D01*
X102560240Y-99958925D01*
X102553934Y-99969446D01*
X102546626Y-99979299D01*
X102538388Y-99988388D01*
X102529299Y-99996626D01*
X102519446Y-100003934D01*
X102508925Y-100010240D01*
X102497835Y-100015485D01*
X102486286Y-100019618D01*
X102474386Y-100022598D01*
X102462252Y-100024398D01*
X102450000Y-100025000D01*
X101200000Y-100025000D01*
X101187748Y-100024398D01*
X101175614Y-100022598D01*
X101163714Y-100019618D01*
X101152165Y-100015485D01*
X101141075Y-100010240D01*
X101130554Y-100003934D01*
X101120701Y-99996626D01*
X101111612Y-99988388D01*
X101103374Y-99979299D01*
X101096066Y-99969446D01*
X101089760Y-99958925D01*
X101084515Y-99947835D01*
X101080382Y-99936286D01*
X101077402Y-99924386D01*
X101075602Y-99912252D01*
X101075000Y-99900000D01*
X101075000Y-99650000D01*
X101075602Y-99637748D01*
X101077402Y-99625614D01*
X101080382Y-99613714D01*
X101084515Y-99602165D01*
X101089760Y-99591075D01*
X101096066Y-99580554D01*
X101103374Y-99570701D01*
X101111612Y-99561612D01*
X101120701Y-99553374D01*
X101130554Y-99546066D01*
X101141075Y-99539760D01*
X101152165Y-99534515D01*
X101163714Y-99530382D01*
X101175614Y-99527402D01*
X101187748Y-99525602D01*
X101200000Y-99525000D01*
X102450000Y-99525000D01*
X102462252Y-99525602D01*
X102462252Y-99525602D01*
G37*
D21*
X101825000Y-99775000D03*
D11*
G36*
X102462252Y-100325602D02*
G01*
X102474386Y-100327402D01*
X102486286Y-100330382D01*
X102497835Y-100334515D01*
X102508925Y-100339760D01*
X102519446Y-100346066D01*
X102529299Y-100353374D01*
X102538388Y-100361612D01*
X102546626Y-100370701D01*
X102553934Y-100380554D01*
X102560240Y-100391075D01*
X102565485Y-100402165D01*
X102569618Y-100413714D01*
X102572598Y-100425614D01*
X102574398Y-100437748D01*
X102575000Y-100450000D01*
X102575000Y-100700000D01*
X102574398Y-100712252D01*
X102572598Y-100724386D01*
X102569618Y-100736286D01*
X102565485Y-100747835D01*
X102560240Y-100758925D01*
X102553934Y-100769446D01*
X102546626Y-100779299D01*
X102538388Y-100788388D01*
X102529299Y-100796626D01*
X102519446Y-100803934D01*
X102508925Y-100810240D01*
X102497835Y-100815485D01*
X102486286Y-100819618D01*
X102474386Y-100822598D01*
X102462252Y-100824398D01*
X102450000Y-100825000D01*
X101200000Y-100825000D01*
X101187748Y-100824398D01*
X101175614Y-100822598D01*
X101163714Y-100819618D01*
X101152165Y-100815485D01*
X101141075Y-100810240D01*
X101130554Y-100803934D01*
X101120701Y-100796626D01*
X101111612Y-100788388D01*
X101103374Y-100779299D01*
X101096066Y-100769446D01*
X101089760Y-100758925D01*
X101084515Y-100747835D01*
X101080382Y-100736286D01*
X101077402Y-100724386D01*
X101075602Y-100712252D01*
X101075000Y-100700000D01*
X101075000Y-100450000D01*
X101075602Y-100437748D01*
X101077402Y-100425614D01*
X101080382Y-100413714D01*
X101084515Y-100402165D01*
X101089760Y-100391075D01*
X101096066Y-100380554D01*
X101103374Y-100370701D01*
X101111612Y-100361612D01*
X101120701Y-100353374D01*
X101130554Y-100346066D01*
X101141075Y-100339760D01*
X101152165Y-100334515D01*
X101163714Y-100330382D01*
X101175614Y-100327402D01*
X101187748Y-100325602D01*
X101200000Y-100325000D01*
X102450000Y-100325000D01*
X102462252Y-100325602D01*
X102462252Y-100325602D01*
G37*
D21*
X101825000Y-100575000D03*
D11*
G36*
X102462252Y-101125602D02*
G01*
X102474386Y-101127402D01*
X102486286Y-101130382D01*
X102497835Y-101134515D01*
X102508925Y-101139760D01*
X102519446Y-101146066D01*
X102529299Y-101153374D01*
X102538388Y-101161612D01*
X102546626Y-101170701D01*
X102553934Y-101180554D01*
X102560240Y-101191075D01*
X102565485Y-101202165D01*
X102569618Y-101213714D01*
X102572598Y-101225614D01*
X102574398Y-101237748D01*
X102575000Y-101250000D01*
X102575000Y-101500000D01*
X102574398Y-101512252D01*
X102572598Y-101524386D01*
X102569618Y-101536286D01*
X102565485Y-101547835D01*
X102560240Y-101558925D01*
X102553934Y-101569446D01*
X102546626Y-101579299D01*
X102538388Y-101588388D01*
X102529299Y-101596626D01*
X102519446Y-101603934D01*
X102508925Y-101610240D01*
X102497835Y-101615485D01*
X102486286Y-101619618D01*
X102474386Y-101622598D01*
X102462252Y-101624398D01*
X102450000Y-101625000D01*
X101200000Y-101625000D01*
X101187748Y-101624398D01*
X101175614Y-101622598D01*
X101163714Y-101619618D01*
X101152165Y-101615485D01*
X101141075Y-101610240D01*
X101130554Y-101603934D01*
X101120701Y-101596626D01*
X101111612Y-101588388D01*
X101103374Y-101579299D01*
X101096066Y-101569446D01*
X101089760Y-101558925D01*
X101084515Y-101547835D01*
X101080382Y-101536286D01*
X101077402Y-101524386D01*
X101075602Y-101512252D01*
X101075000Y-101500000D01*
X101075000Y-101250000D01*
X101075602Y-101237748D01*
X101077402Y-101225614D01*
X101080382Y-101213714D01*
X101084515Y-101202165D01*
X101089760Y-101191075D01*
X101096066Y-101180554D01*
X101103374Y-101170701D01*
X101111612Y-101161612D01*
X101120701Y-101153374D01*
X101130554Y-101146066D01*
X101141075Y-101139760D01*
X101152165Y-101134515D01*
X101163714Y-101130382D01*
X101175614Y-101127402D01*
X101187748Y-101125602D01*
X101200000Y-101125000D01*
X102450000Y-101125000D01*
X102462252Y-101125602D01*
X102462252Y-101125602D01*
G37*
D21*
X101825000Y-101375000D03*
D22*
X63250000Y-105250000D03*
X60750000Y-105250000D03*
X127350000Y-93350000D03*
X124850000Y-93350000D03*
D11*
G36*
X108212691Y-92566053D02*
G01*
X108233926Y-92569203D01*
X108254750Y-92574419D01*
X108274962Y-92581651D01*
X108294368Y-92590830D01*
X108312781Y-92601866D01*
X108330024Y-92614654D01*
X108345930Y-92629070D01*
X108360346Y-92644976D01*
X108373134Y-92662219D01*
X108384170Y-92680632D01*
X108393349Y-92700038D01*
X108400581Y-92720250D01*
X108405797Y-92741074D01*
X108408947Y-92762309D01*
X108410000Y-92783750D01*
X108410000Y-93296250D01*
X108408947Y-93317691D01*
X108405797Y-93338926D01*
X108400581Y-93359750D01*
X108393349Y-93379962D01*
X108384170Y-93399368D01*
X108373134Y-93417781D01*
X108360346Y-93435024D01*
X108345930Y-93450930D01*
X108330024Y-93465346D01*
X108312781Y-93478134D01*
X108294368Y-93489170D01*
X108274962Y-93498349D01*
X108254750Y-93505581D01*
X108233926Y-93510797D01*
X108212691Y-93513947D01*
X108191250Y-93515000D01*
X107753750Y-93515000D01*
X107732309Y-93513947D01*
X107711074Y-93510797D01*
X107690250Y-93505581D01*
X107670038Y-93498349D01*
X107650632Y-93489170D01*
X107632219Y-93478134D01*
X107614976Y-93465346D01*
X107599070Y-93450930D01*
X107584654Y-93435024D01*
X107571866Y-93417781D01*
X107560830Y-93399368D01*
X107551651Y-93379962D01*
X107544419Y-93359750D01*
X107539203Y-93338926D01*
X107536053Y-93317691D01*
X107535000Y-93296250D01*
X107535000Y-92783750D01*
X107536053Y-92762309D01*
X107539203Y-92741074D01*
X107544419Y-92720250D01*
X107551651Y-92700038D01*
X107560830Y-92680632D01*
X107571866Y-92662219D01*
X107584654Y-92644976D01*
X107599070Y-92629070D01*
X107614976Y-92614654D01*
X107632219Y-92601866D01*
X107650632Y-92590830D01*
X107670038Y-92581651D01*
X107690250Y-92574419D01*
X107711074Y-92569203D01*
X107732309Y-92566053D01*
X107753750Y-92565000D01*
X108191250Y-92565000D01*
X108212691Y-92566053D01*
X108212691Y-92566053D01*
G37*
D12*
X107972500Y-93040000D03*
D11*
G36*
X109787691Y-92566053D02*
G01*
X109808926Y-92569203D01*
X109829750Y-92574419D01*
X109849962Y-92581651D01*
X109869368Y-92590830D01*
X109887781Y-92601866D01*
X109905024Y-92614654D01*
X109920930Y-92629070D01*
X109935346Y-92644976D01*
X109948134Y-92662219D01*
X109959170Y-92680632D01*
X109968349Y-92700038D01*
X109975581Y-92720250D01*
X109980797Y-92741074D01*
X109983947Y-92762309D01*
X109985000Y-92783750D01*
X109985000Y-93296250D01*
X109983947Y-93317691D01*
X109980797Y-93338926D01*
X109975581Y-93359750D01*
X109968349Y-93379962D01*
X109959170Y-93399368D01*
X109948134Y-93417781D01*
X109935346Y-93435024D01*
X109920930Y-93450930D01*
X109905024Y-93465346D01*
X109887781Y-93478134D01*
X109869368Y-93489170D01*
X109849962Y-93498349D01*
X109829750Y-93505581D01*
X109808926Y-93510797D01*
X109787691Y-93513947D01*
X109766250Y-93515000D01*
X109328750Y-93515000D01*
X109307309Y-93513947D01*
X109286074Y-93510797D01*
X109265250Y-93505581D01*
X109245038Y-93498349D01*
X109225632Y-93489170D01*
X109207219Y-93478134D01*
X109189976Y-93465346D01*
X109174070Y-93450930D01*
X109159654Y-93435024D01*
X109146866Y-93417781D01*
X109135830Y-93399368D01*
X109126651Y-93379962D01*
X109119419Y-93359750D01*
X109114203Y-93338926D01*
X109111053Y-93317691D01*
X109110000Y-93296250D01*
X109110000Y-92783750D01*
X109111053Y-92762309D01*
X109114203Y-92741074D01*
X109119419Y-92720250D01*
X109126651Y-92700038D01*
X109135830Y-92680632D01*
X109146866Y-92662219D01*
X109159654Y-92644976D01*
X109174070Y-92629070D01*
X109189976Y-92614654D01*
X109207219Y-92601866D01*
X109225632Y-92590830D01*
X109245038Y-92581651D01*
X109265250Y-92574419D01*
X109286074Y-92569203D01*
X109307309Y-92566053D01*
X109328750Y-92565000D01*
X109766250Y-92565000D01*
X109787691Y-92566053D01*
X109787691Y-92566053D01*
G37*
D12*
X109547500Y-93040000D03*
D11*
G36*
X113187691Y-92566053D02*
G01*
X113208926Y-92569203D01*
X113229750Y-92574419D01*
X113249962Y-92581651D01*
X113269368Y-92590830D01*
X113287781Y-92601866D01*
X113305024Y-92614654D01*
X113320930Y-92629070D01*
X113335346Y-92644976D01*
X113348134Y-92662219D01*
X113359170Y-92680632D01*
X113368349Y-92700038D01*
X113375581Y-92720250D01*
X113380797Y-92741074D01*
X113383947Y-92762309D01*
X113385000Y-92783750D01*
X113385000Y-93296250D01*
X113383947Y-93317691D01*
X113380797Y-93338926D01*
X113375581Y-93359750D01*
X113368349Y-93379962D01*
X113359170Y-93399368D01*
X113348134Y-93417781D01*
X113335346Y-93435024D01*
X113320930Y-93450930D01*
X113305024Y-93465346D01*
X113287781Y-93478134D01*
X113269368Y-93489170D01*
X113249962Y-93498349D01*
X113229750Y-93505581D01*
X113208926Y-93510797D01*
X113187691Y-93513947D01*
X113166250Y-93515000D01*
X112728750Y-93515000D01*
X112707309Y-93513947D01*
X112686074Y-93510797D01*
X112665250Y-93505581D01*
X112645038Y-93498349D01*
X112625632Y-93489170D01*
X112607219Y-93478134D01*
X112589976Y-93465346D01*
X112574070Y-93450930D01*
X112559654Y-93435024D01*
X112546866Y-93417781D01*
X112535830Y-93399368D01*
X112526651Y-93379962D01*
X112519419Y-93359750D01*
X112514203Y-93338926D01*
X112511053Y-93317691D01*
X112510000Y-93296250D01*
X112510000Y-92783750D01*
X112511053Y-92762309D01*
X112514203Y-92741074D01*
X112519419Y-92720250D01*
X112526651Y-92700038D01*
X112535830Y-92680632D01*
X112546866Y-92662219D01*
X112559654Y-92644976D01*
X112574070Y-92629070D01*
X112589976Y-92614654D01*
X112607219Y-92601866D01*
X112625632Y-92590830D01*
X112645038Y-92581651D01*
X112665250Y-92574419D01*
X112686074Y-92569203D01*
X112707309Y-92566053D01*
X112728750Y-92565000D01*
X113166250Y-92565000D01*
X113187691Y-92566053D01*
X113187691Y-92566053D01*
G37*
D12*
X112947500Y-93040000D03*
D11*
G36*
X111612691Y-92566053D02*
G01*
X111633926Y-92569203D01*
X111654750Y-92574419D01*
X111674962Y-92581651D01*
X111694368Y-92590830D01*
X111712781Y-92601866D01*
X111730024Y-92614654D01*
X111745930Y-92629070D01*
X111760346Y-92644976D01*
X111773134Y-92662219D01*
X111784170Y-92680632D01*
X111793349Y-92700038D01*
X111800581Y-92720250D01*
X111805797Y-92741074D01*
X111808947Y-92762309D01*
X111810000Y-92783750D01*
X111810000Y-93296250D01*
X111808947Y-93317691D01*
X111805797Y-93338926D01*
X111800581Y-93359750D01*
X111793349Y-93379962D01*
X111784170Y-93399368D01*
X111773134Y-93417781D01*
X111760346Y-93435024D01*
X111745930Y-93450930D01*
X111730024Y-93465346D01*
X111712781Y-93478134D01*
X111694368Y-93489170D01*
X111674962Y-93498349D01*
X111654750Y-93505581D01*
X111633926Y-93510797D01*
X111612691Y-93513947D01*
X111591250Y-93515000D01*
X111153750Y-93515000D01*
X111132309Y-93513947D01*
X111111074Y-93510797D01*
X111090250Y-93505581D01*
X111070038Y-93498349D01*
X111050632Y-93489170D01*
X111032219Y-93478134D01*
X111014976Y-93465346D01*
X110999070Y-93450930D01*
X110984654Y-93435024D01*
X110971866Y-93417781D01*
X110960830Y-93399368D01*
X110951651Y-93379962D01*
X110944419Y-93359750D01*
X110939203Y-93338926D01*
X110936053Y-93317691D01*
X110935000Y-93296250D01*
X110935000Y-92783750D01*
X110936053Y-92762309D01*
X110939203Y-92741074D01*
X110944419Y-92720250D01*
X110951651Y-92700038D01*
X110960830Y-92680632D01*
X110971866Y-92662219D01*
X110984654Y-92644976D01*
X110999070Y-92629070D01*
X111014976Y-92614654D01*
X111032219Y-92601866D01*
X111050632Y-92590830D01*
X111070038Y-92581651D01*
X111090250Y-92574419D01*
X111111074Y-92569203D01*
X111132309Y-92566053D01*
X111153750Y-92565000D01*
X111591250Y-92565000D01*
X111612691Y-92566053D01*
X111612691Y-92566053D01*
G37*
D12*
X111372500Y-93040000D03*
D11*
G36*
X116587691Y-92566053D02*
G01*
X116608926Y-92569203D01*
X116629750Y-92574419D01*
X116649962Y-92581651D01*
X116669368Y-92590830D01*
X116687781Y-92601866D01*
X116705024Y-92614654D01*
X116720930Y-92629070D01*
X116735346Y-92644976D01*
X116748134Y-92662219D01*
X116759170Y-92680632D01*
X116768349Y-92700038D01*
X116775581Y-92720250D01*
X116780797Y-92741074D01*
X116783947Y-92762309D01*
X116785000Y-92783750D01*
X116785000Y-93296250D01*
X116783947Y-93317691D01*
X116780797Y-93338926D01*
X116775581Y-93359750D01*
X116768349Y-93379962D01*
X116759170Y-93399368D01*
X116748134Y-93417781D01*
X116735346Y-93435024D01*
X116720930Y-93450930D01*
X116705024Y-93465346D01*
X116687781Y-93478134D01*
X116669368Y-93489170D01*
X116649962Y-93498349D01*
X116629750Y-93505581D01*
X116608926Y-93510797D01*
X116587691Y-93513947D01*
X116566250Y-93515000D01*
X116128750Y-93515000D01*
X116107309Y-93513947D01*
X116086074Y-93510797D01*
X116065250Y-93505581D01*
X116045038Y-93498349D01*
X116025632Y-93489170D01*
X116007219Y-93478134D01*
X115989976Y-93465346D01*
X115974070Y-93450930D01*
X115959654Y-93435024D01*
X115946866Y-93417781D01*
X115935830Y-93399368D01*
X115926651Y-93379962D01*
X115919419Y-93359750D01*
X115914203Y-93338926D01*
X115911053Y-93317691D01*
X115910000Y-93296250D01*
X115910000Y-92783750D01*
X115911053Y-92762309D01*
X115914203Y-92741074D01*
X115919419Y-92720250D01*
X115926651Y-92700038D01*
X115935830Y-92680632D01*
X115946866Y-92662219D01*
X115959654Y-92644976D01*
X115974070Y-92629070D01*
X115989976Y-92614654D01*
X116007219Y-92601866D01*
X116025632Y-92590830D01*
X116045038Y-92581651D01*
X116065250Y-92574419D01*
X116086074Y-92569203D01*
X116107309Y-92566053D01*
X116128750Y-92565000D01*
X116566250Y-92565000D01*
X116587691Y-92566053D01*
X116587691Y-92566053D01*
G37*
D12*
X116347500Y-93040000D03*
D11*
G36*
X115012691Y-92566053D02*
G01*
X115033926Y-92569203D01*
X115054750Y-92574419D01*
X115074962Y-92581651D01*
X115094368Y-92590830D01*
X115112781Y-92601866D01*
X115130024Y-92614654D01*
X115145930Y-92629070D01*
X115160346Y-92644976D01*
X115173134Y-92662219D01*
X115184170Y-92680632D01*
X115193349Y-92700038D01*
X115200581Y-92720250D01*
X115205797Y-92741074D01*
X115208947Y-92762309D01*
X115210000Y-92783750D01*
X115210000Y-93296250D01*
X115208947Y-93317691D01*
X115205797Y-93338926D01*
X115200581Y-93359750D01*
X115193349Y-93379962D01*
X115184170Y-93399368D01*
X115173134Y-93417781D01*
X115160346Y-93435024D01*
X115145930Y-93450930D01*
X115130024Y-93465346D01*
X115112781Y-93478134D01*
X115094368Y-93489170D01*
X115074962Y-93498349D01*
X115054750Y-93505581D01*
X115033926Y-93510797D01*
X115012691Y-93513947D01*
X114991250Y-93515000D01*
X114553750Y-93515000D01*
X114532309Y-93513947D01*
X114511074Y-93510797D01*
X114490250Y-93505581D01*
X114470038Y-93498349D01*
X114450632Y-93489170D01*
X114432219Y-93478134D01*
X114414976Y-93465346D01*
X114399070Y-93450930D01*
X114384654Y-93435024D01*
X114371866Y-93417781D01*
X114360830Y-93399368D01*
X114351651Y-93379962D01*
X114344419Y-93359750D01*
X114339203Y-93338926D01*
X114336053Y-93317691D01*
X114335000Y-93296250D01*
X114335000Y-92783750D01*
X114336053Y-92762309D01*
X114339203Y-92741074D01*
X114344419Y-92720250D01*
X114351651Y-92700038D01*
X114360830Y-92680632D01*
X114371866Y-92662219D01*
X114384654Y-92644976D01*
X114399070Y-92629070D01*
X114414976Y-92614654D01*
X114432219Y-92601866D01*
X114450632Y-92590830D01*
X114470038Y-92581651D01*
X114490250Y-92574419D01*
X114511074Y-92569203D01*
X114532309Y-92566053D01*
X114553750Y-92565000D01*
X114991250Y-92565000D01*
X115012691Y-92566053D01*
X115012691Y-92566053D01*
G37*
D12*
X114772500Y-93040000D03*
D11*
G36*
X120027691Y-92566053D02*
G01*
X120048926Y-92569203D01*
X120069750Y-92574419D01*
X120089962Y-92581651D01*
X120109368Y-92590830D01*
X120127781Y-92601866D01*
X120145024Y-92614654D01*
X120160930Y-92629070D01*
X120175346Y-92644976D01*
X120188134Y-92662219D01*
X120199170Y-92680632D01*
X120208349Y-92700038D01*
X120215581Y-92720250D01*
X120220797Y-92741074D01*
X120223947Y-92762309D01*
X120225000Y-92783750D01*
X120225000Y-93296250D01*
X120223947Y-93317691D01*
X120220797Y-93338926D01*
X120215581Y-93359750D01*
X120208349Y-93379962D01*
X120199170Y-93399368D01*
X120188134Y-93417781D01*
X120175346Y-93435024D01*
X120160930Y-93450930D01*
X120145024Y-93465346D01*
X120127781Y-93478134D01*
X120109368Y-93489170D01*
X120089962Y-93498349D01*
X120069750Y-93505581D01*
X120048926Y-93510797D01*
X120027691Y-93513947D01*
X120006250Y-93515000D01*
X119568750Y-93515000D01*
X119547309Y-93513947D01*
X119526074Y-93510797D01*
X119505250Y-93505581D01*
X119485038Y-93498349D01*
X119465632Y-93489170D01*
X119447219Y-93478134D01*
X119429976Y-93465346D01*
X119414070Y-93450930D01*
X119399654Y-93435024D01*
X119386866Y-93417781D01*
X119375830Y-93399368D01*
X119366651Y-93379962D01*
X119359419Y-93359750D01*
X119354203Y-93338926D01*
X119351053Y-93317691D01*
X119350000Y-93296250D01*
X119350000Y-92783750D01*
X119351053Y-92762309D01*
X119354203Y-92741074D01*
X119359419Y-92720250D01*
X119366651Y-92700038D01*
X119375830Y-92680632D01*
X119386866Y-92662219D01*
X119399654Y-92644976D01*
X119414070Y-92629070D01*
X119429976Y-92614654D01*
X119447219Y-92601866D01*
X119465632Y-92590830D01*
X119485038Y-92581651D01*
X119505250Y-92574419D01*
X119526074Y-92569203D01*
X119547309Y-92566053D01*
X119568750Y-92565000D01*
X120006250Y-92565000D01*
X120027691Y-92566053D01*
X120027691Y-92566053D01*
G37*
D12*
X119787500Y-93040000D03*
D11*
G36*
X118452691Y-92566053D02*
G01*
X118473926Y-92569203D01*
X118494750Y-92574419D01*
X118514962Y-92581651D01*
X118534368Y-92590830D01*
X118552781Y-92601866D01*
X118570024Y-92614654D01*
X118585930Y-92629070D01*
X118600346Y-92644976D01*
X118613134Y-92662219D01*
X118624170Y-92680632D01*
X118633349Y-92700038D01*
X118640581Y-92720250D01*
X118645797Y-92741074D01*
X118648947Y-92762309D01*
X118650000Y-92783750D01*
X118650000Y-93296250D01*
X118648947Y-93317691D01*
X118645797Y-93338926D01*
X118640581Y-93359750D01*
X118633349Y-93379962D01*
X118624170Y-93399368D01*
X118613134Y-93417781D01*
X118600346Y-93435024D01*
X118585930Y-93450930D01*
X118570024Y-93465346D01*
X118552781Y-93478134D01*
X118534368Y-93489170D01*
X118514962Y-93498349D01*
X118494750Y-93505581D01*
X118473926Y-93510797D01*
X118452691Y-93513947D01*
X118431250Y-93515000D01*
X117993750Y-93515000D01*
X117972309Y-93513947D01*
X117951074Y-93510797D01*
X117930250Y-93505581D01*
X117910038Y-93498349D01*
X117890632Y-93489170D01*
X117872219Y-93478134D01*
X117854976Y-93465346D01*
X117839070Y-93450930D01*
X117824654Y-93435024D01*
X117811866Y-93417781D01*
X117800830Y-93399368D01*
X117791651Y-93379962D01*
X117784419Y-93359750D01*
X117779203Y-93338926D01*
X117776053Y-93317691D01*
X117775000Y-93296250D01*
X117775000Y-92783750D01*
X117776053Y-92762309D01*
X117779203Y-92741074D01*
X117784419Y-92720250D01*
X117791651Y-92700038D01*
X117800830Y-92680632D01*
X117811866Y-92662219D01*
X117824654Y-92644976D01*
X117839070Y-92629070D01*
X117854976Y-92614654D01*
X117872219Y-92601866D01*
X117890632Y-92590830D01*
X117910038Y-92581651D01*
X117930250Y-92574419D01*
X117951074Y-92569203D01*
X117972309Y-92566053D01*
X117993750Y-92565000D01*
X118431250Y-92565000D01*
X118452691Y-92566053D01*
X118452691Y-92566053D01*
G37*
D12*
X118212500Y-93040000D03*
D11*
G36*
X79210779Y-98601144D02*
G01*
X79233834Y-98604563D01*
X79256443Y-98610227D01*
X79278387Y-98618079D01*
X79299457Y-98628044D01*
X79319448Y-98640026D01*
X79338168Y-98653910D01*
X79355438Y-98669562D01*
X79371090Y-98686832D01*
X79384974Y-98705552D01*
X79396956Y-98725543D01*
X79406921Y-98746613D01*
X79414773Y-98768557D01*
X79420437Y-98791166D01*
X79423856Y-98814221D01*
X79425000Y-98837500D01*
X79425000Y-99412500D01*
X79423856Y-99435779D01*
X79420437Y-99458834D01*
X79414773Y-99481443D01*
X79406921Y-99503387D01*
X79396956Y-99524457D01*
X79384974Y-99544448D01*
X79371090Y-99563168D01*
X79355438Y-99580438D01*
X79338168Y-99596090D01*
X79319448Y-99609974D01*
X79299457Y-99621956D01*
X79278387Y-99631921D01*
X79256443Y-99639773D01*
X79233834Y-99645437D01*
X79210779Y-99648856D01*
X79187500Y-99650000D01*
X78712500Y-99650000D01*
X78689221Y-99648856D01*
X78666166Y-99645437D01*
X78643557Y-99639773D01*
X78621613Y-99631921D01*
X78600543Y-99621956D01*
X78580552Y-99609974D01*
X78561832Y-99596090D01*
X78544562Y-99580438D01*
X78528910Y-99563168D01*
X78515026Y-99544448D01*
X78503044Y-99524457D01*
X78493079Y-99503387D01*
X78485227Y-99481443D01*
X78479563Y-99458834D01*
X78476144Y-99435779D01*
X78475000Y-99412500D01*
X78475000Y-98837500D01*
X78476144Y-98814221D01*
X78479563Y-98791166D01*
X78485227Y-98768557D01*
X78493079Y-98746613D01*
X78503044Y-98725543D01*
X78515026Y-98705552D01*
X78528910Y-98686832D01*
X78544562Y-98669562D01*
X78561832Y-98653910D01*
X78580552Y-98640026D01*
X78600543Y-98628044D01*
X78621613Y-98618079D01*
X78643557Y-98610227D01*
X78666166Y-98604563D01*
X78689221Y-98601144D01*
X78712500Y-98600000D01*
X79187500Y-98600000D01*
X79210779Y-98601144D01*
X79210779Y-98601144D01*
G37*
D23*
X78950000Y-99125000D03*
D11*
G36*
X79210779Y-100351144D02*
G01*
X79233834Y-100354563D01*
X79256443Y-100360227D01*
X79278387Y-100368079D01*
X79299457Y-100378044D01*
X79319448Y-100390026D01*
X79338168Y-100403910D01*
X79355438Y-100419562D01*
X79371090Y-100436832D01*
X79384974Y-100455552D01*
X79396956Y-100475543D01*
X79406921Y-100496613D01*
X79414773Y-100518557D01*
X79420437Y-100541166D01*
X79423856Y-100564221D01*
X79425000Y-100587500D01*
X79425000Y-101162500D01*
X79423856Y-101185779D01*
X79420437Y-101208834D01*
X79414773Y-101231443D01*
X79406921Y-101253387D01*
X79396956Y-101274457D01*
X79384974Y-101294448D01*
X79371090Y-101313168D01*
X79355438Y-101330438D01*
X79338168Y-101346090D01*
X79319448Y-101359974D01*
X79299457Y-101371956D01*
X79278387Y-101381921D01*
X79256443Y-101389773D01*
X79233834Y-101395437D01*
X79210779Y-101398856D01*
X79187500Y-101400000D01*
X78712500Y-101400000D01*
X78689221Y-101398856D01*
X78666166Y-101395437D01*
X78643557Y-101389773D01*
X78621613Y-101381921D01*
X78600543Y-101371956D01*
X78580552Y-101359974D01*
X78561832Y-101346090D01*
X78544562Y-101330438D01*
X78528910Y-101313168D01*
X78515026Y-101294448D01*
X78503044Y-101274457D01*
X78493079Y-101253387D01*
X78485227Y-101231443D01*
X78479563Y-101208834D01*
X78476144Y-101185779D01*
X78475000Y-101162500D01*
X78475000Y-100587500D01*
X78476144Y-100564221D01*
X78479563Y-100541166D01*
X78485227Y-100518557D01*
X78493079Y-100496613D01*
X78503044Y-100475543D01*
X78515026Y-100455552D01*
X78528910Y-100436832D01*
X78544562Y-100419562D01*
X78561832Y-100403910D01*
X78580552Y-100390026D01*
X78600543Y-100378044D01*
X78621613Y-100368079D01*
X78643557Y-100360227D01*
X78666166Y-100354563D01*
X78689221Y-100351144D01*
X78712500Y-100350000D01*
X79187500Y-100350000D01*
X79210779Y-100351144D01*
X79210779Y-100351144D01*
G37*
D23*
X78950000Y-100875000D03*
D22*
X94925000Y-106200000D03*
D24*
X94925000Y-104930000D03*
X96195000Y-106200000D03*
X96195000Y-104930000D03*
X97465000Y-106200000D03*
X97465000Y-104930000D03*
X98735000Y-106200000D03*
X98735000Y-104930000D03*
X100005000Y-106200000D03*
X100005000Y-104930000D03*
D11*
G36*
X106327691Y-92476053D02*
G01*
X106348926Y-92479203D01*
X106369750Y-92484419D01*
X106389962Y-92491651D01*
X106409368Y-92500830D01*
X106427781Y-92511866D01*
X106445024Y-92524654D01*
X106460930Y-92539070D01*
X106475346Y-92554976D01*
X106488134Y-92572219D01*
X106499170Y-92590632D01*
X106508349Y-92610038D01*
X106515581Y-92630250D01*
X106520797Y-92651074D01*
X106523947Y-92672309D01*
X106525000Y-92693750D01*
X106525000Y-93131250D01*
X106523947Y-93152691D01*
X106520797Y-93173926D01*
X106515581Y-93194750D01*
X106508349Y-93214962D01*
X106499170Y-93234368D01*
X106488134Y-93252781D01*
X106475346Y-93270024D01*
X106460930Y-93285930D01*
X106445024Y-93300346D01*
X106427781Y-93313134D01*
X106409368Y-93324170D01*
X106389962Y-93333349D01*
X106369750Y-93340581D01*
X106348926Y-93345797D01*
X106327691Y-93348947D01*
X106306250Y-93350000D01*
X105793750Y-93350000D01*
X105772309Y-93348947D01*
X105751074Y-93345797D01*
X105730250Y-93340581D01*
X105710038Y-93333349D01*
X105690632Y-93324170D01*
X105672219Y-93313134D01*
X105654976Y-93300346D01*
X105639070Y-93285930D01*
X105624654Y-93270024D01*
X105611866Y-93252781D01*
X105600830Y-93234368D01*
X105591651Y-93214962D01*
X105584419Y-93194750D01*
X105579203Y-93173926D01*
X105576053Y-93152691D01*
X105575000Y-93131250D01*
X105575000Y-92693750D01*
X105576053Y-92672309D01*
X105579203Y-92651074D01*
X105584419Y-92630250D01*
X105591651Y-92610038D01*
X105600830Y-92590632D01*
X105611866Y-92572219D01*
X105624654Y-92554976D01*
X105639070Y-92539070D01*
X105654976Y-92524654D01*
X105672219Y-92511866D01*
X105690632Y-92500830D01*
X105710038Y-92491651D01*
X105730250Y-92484419D01*
X105751074Y-92479203D01*
X105772309Y-92476053D01*
X105793750Y-92475000D01*
X106306250Y-92475000D01*
X106327691Y-92476053D01*
X106327691Y-92476053D01*
G37*
D12*
X106050000Y-92912500D03*
D11*
G36*
X106327691Y-94051053D02*
G01*
X106348926Y-94054203D01*
X106369750Y-94059419D01*
X106389962Y-94066651D01*
X106409368Y-94075830D01*
X106427781Y-94086866D01*
X106445024Y-94099654D01*
X106460930Y-94114070D01*
X106475346Y-94129976D01*
X106488134Y-94147219D01*
X106499170Y-94165632D01*
X106508349Y-94185038D01*
X106515581Y-94205250D01*
X106520797Y-94226074D01*
X106523947Y-94247309D01*
X106525000Y-94268750D01*
X106525000Y-94706250D01*
X106523947Y-94727691D01*
X106520797Y-94748926D01*
X106515581Y-94769750D01*
X106508349Y-94789962D01*
X106499170Y-94809368D01*
X106488134Y-94827781D01*
X106475346Y-94845024D01*
X106460930Y-94860930D01*
X106445024Y-94875346D01*
X106427781Y-94888134D01*
X106409368Y-94899170D01*
X106389962Y-94908349D01*
X106369750Y-94915581D01*
X106348926Y-94920797D01*
X106327691Y-94923947D01*
X106306250Y-94925000D01*
X105793750Y-94925000D01*
X105772309Y-94923947D01*
X105751074Y-94920797D01*
X105730250Y-94915581D01*
X105710038Y-94908349D01*
X105690632Y-94899170D01*
X105672219Y-94888134D01*
X105654976Y-94875346D01*
X105639070Y-94860930D01*
X105624654Y-94845024D01*
X105611866Y-94827781D01*
X105600830Y-94809368D01*
X105591651Y-94789962D01*
X105584419Y-94769750D01*
X105579203Y-94748926D01*
X105576053Y-94727691D01*
X105575000Y-94706250D01*
X105575000Y-94268750D01*
X105576053Y-94247309D01*
X105579203Y-94226074D01*
X105584419Y-94205250D01*
X105591651Y-94185038D01*
X105600830Y-94165632D01*
X105611866Y-94147219D01*
X105624654Y-94129976D01*
X105639070Y-94114070D01*
X105654976Y-94099654D01*
X105672219Y-94086866D01*
X105690632Y-94075830D01*
X105710038Y-94066651D01*
X105730250Y-94059419D01*
X105751074Y-94054203D01*
X105772309Y-94051053D01*
X105793750Y-94050000D01*
X106306250Y-94050000D01*
X106327691Y-94051053D01*
X106327691Y-94051053D01*
G37*
D12*
X106050000Y-94487500D03*
D11*
G36*
X129427691Y-92901053D02*
G01*
X129448926Y-92904203D01*
X129469750Y-92909419D01*
X129489962Y-92916651D01*
X129509368Y-92925830D01*
X129527781Y-92936866D01*
X129545024Y-92949654D01*
X129560930Y-92964070D01*
X129575346Y-92979976D01*
X129588134Y-92997219D01*
X129599170Y-93015632D01*
X129608349Y-93035038D01*
X129615581Y-93055250D01*
X129620797Y-93076074D01*
X129623947Y-93097309D01*
X129625000Y-93118750D01*
X129625000Y-93631250D01*
X129623947Y-93652691D01*
X129620797Y-93673926D01*
X129615581Y-93694750D01*
X129608349Y-93714962D01*
X129599170Y-93734368D01*
X129588134Y-93752781D01*
X129575346Y-93770024D01*
X129560930Y-93785930D01*
X129545024Y-93800346D01*
X129527781Y-93813134D01*
X129509368Y-93824170D01*
X129489962Y-93833349D01*
X129469750Y-93840581D01*
X129448926Y-93845797D01*
X129427691Y-93848947D01*
X129406250Y-93850000D01*
X128968750Y-93850000D01*
X128947309Y-93848947D01*
X128926074Y-93845797D01*
X128905250Y-93840581D01*
X128885038Y-93833349D01*
X128865632Y-93824170D01*
X128847219Y-93813134D01*
X128829976Y-93800346D01*
X128814070Y-93785930D01*
X128799654Y-93770024D01*
X128786866Y-93752781D01*
X128775830Y-93734368D01*
X128766651Y-93714962D01*
X128759419Y-93694750D01*
X128754203Y-93673926D01*
X128751053Y-93652691D01*
X128750000Y-93631250D01*
X128750000Y-93118750D01*
X128751053Y-93097309D01*
X128754203Y-93076074D01*
X128759419Y-93055250D01*
X128766651Y-93035038D01*
X128775830Y-93015632D01*
X128786866Y-92997219D01*
X128799654Y-92979976D01*
X128814070Y-92964070D01*
X128829976Y-92949654D01*
X128847219Y-92936866D01*
X128865632Y-92925830D01*
X128885038Y-92916651D01*
X128905250Y-92909419D01*
X128926074Y-92904203D01*
X128947309Y-92901053D01*
X128968750Y-92900000D01*
X129406250Y-92900000D01*
X129427691Y-92901053D01*
X129427691Y-92901053D01*
G37*
D12*
X129187500Y-93375000D03*
D11*
G36*
X131002691Y-92901053D02*
G01*
X131023926Y-92904203D01*
X131044750Y-92909419D01*
X131064962Y-92916651D01*
X131084368Y-92925830D01*
X131102781Y-92936866D01*
X131120024Y-92949654D01*
X131135930Y-92964070D01*
X131150346Y-92979976D01*
X131163134Y-92997219D01*
X131174170Y-93015632D01*
X131183349Y-93035038D01*
X131190581Y-93055250D01*
X131195797Y-93076074D01*
X131198947Y-93097309D01*
X131200000Y-93118750D01*
X131200000Y-93631250D01*
X131198947Y-93652691D01*
X131195797Y-93673926D01*
X131190581Y-93694750D01*
X131183349Y-93714962D01*
X131174170Y-93734368D01*
X131163134Y-93752781D01*
X131150346Y-93770024D01*
X131135930Y-93785930D01*
X131120024Y-93800346D01*
X131102781Y-93813134D01*
X131084368Y-93824170D01*
X131064962Y-93833349D01*
X131044750Y-93840581D01*
X131023926Y-93845797D01*
X131002691Y-93848947D01*
X130981250Y-93850000D01*
X130543750Y-93850000D01*
X130522309Y-93848947D01*
X130501074Y-93845797D01*
X130480250Y-93840581D01*
X130460038Y-93833349D01*
X130440632Y-93824170D01*
X130422219Y-93813134D01*
X130404976Y-93800346D01*
X130389070Y-93785930D01*
X130374654Y-93770024D01*
X130361866Y-93752781D01*
X130350830Y-93734368D01*
X130341651Y-93714962D01*
X130334419Y-93694750D01*
X130329203Y-93673926D01*
X130326053Y-93652691D01*
X130325000Y-93631250D01*
X130325000Y-93118750D01*
X130326053Y-93097309D01*
X130329203Y-93076074D01*
X130334419Y-93055250D01*
X130341651Y-93035038D01*
X130350830Y-93015632D01*
X130361866Y-92997219D01*
X130374654Y-92979976D01*
X130389070Y-92964070D01*
X130404976Y-92949654D01*
X130422219Y-92936866D01*
X130440632Y-92925830D01*
X130460038Y-92916651D01*
X130480250Y-92909419D01*
X130501074Y-92904203D01*
X130522309Y-92901053D01*
X130543750Y-92900000D01*
X130981250Y-92900000D01*
X131002691Y-92901053D01*
X131002691Y-92901053D01*
G37*
D12*
X130762500Y-93375000D03*
D11*
G36*
X134527691Y-106051053D02*
G01*
X134548926Y-106054203D01*
X134569750Y-106059419D01*
X134589962Y-106066651D01*
X134609368Y-106075830D01*
X134627781Y-106086866D01*
X134645024Y-106099654D01*
X134660930Y-106114070D01*
X134675346Y-106129976D01*
X134688134Y-106147219D01*
X134699170Y-106165632D01*
X134708349Y-106185038D01*
X134715581Y-106205250D01*
X134720797Y-106226074D01*
X134723947Y-106247309D01*
X134725000Y-106268750D01*
X134725000Y-106781250D01*
X134723947Y-106802691D01*
X134720797Y-106823926D01*
X134715581Y-106844750D01*
X134708349Y-106864962D01*
X134699170Y-106884368D01*
X134688134Y-106902781D01*
X134675346Y-106920024D01*
X134660930Y-106935930D01*
X134645024Y-106950346D01*
X134627781Y-106963134D01*
X134609368Y-106974170D01*
X134589962Y-106983349D01*
X134569750Y-106990581D01*
X134548926Y-106995797D01*
X134527691Y-106998947D01*
X134506250Y-107000000D01*
X134068750Y-107000000D01*
X134047309Y-106998947D01*
X134026074Y-106995797D01*
X134005250Y-106990581D01*
X133985038Y-106983349D01*
X133965632Y-106974170D01*
X133947219Y-106963134D01*
X133929976Y-106950346D01*
X133914070Y-106935930D01*
X133899654Y-106920024D01*
X133886866Y-106902781D01*
X133875830Y-106884368D01*
X133866651Y-106864962D01*
X133859419Y-106844750D01*
X133854203Y-106823926D01*
X133851053Y-106802691D01*
X133850000Y-106781250D01*
X133850000Y-106268750D01*
X133851053Y-106247309D01*
X133854203Y-106226074D01*
X133859419Y-106205250D01*
X133866651Y-106185038D01*
X133875830Y-106165632D01*
X133886866Y-106147219D01*
X133899654Y-106129976D01*
X133914070Y-106114070D01*
X133929976Y-106099654D01*
X133947219Y-106086866D01*
X133965632Y-106075830D01*
X133985038Y-106066651D01*
X134005250Y-106059419D01*
X134026074Y-106054203D01*
X134047309Y-106051053D01*
X134068750Y-106050000D01*
X134506250Y-106050000D01*
X134527691Y-106051053D01*
X134527691Y-106051053D01*
G37*
D12*
X134287500Y-106525000D03*
D11*
G36*
X132952691Y-106051053D02*
G01*
X132973926Y-106054203D01*
X132994750Y-106059419D01*
X133014962Y-106066651D01*
X133034368Y-106075830D01*
X133052781Y-106086866D01*
X133070024Y-106099654D01*
X133085930Y-106114070D01*
X133100346Y-106129976D01*
X133113134Y-106147219D01*
X133124170Y-106165632D01*
X133133349Y-106185038D01*
X133140581Y-106205250D01*
X133145797Y-106226074D01*
X133148947Y-106247309D01*
X133150000Y-106268750D01*
X133150000Y-106781250D01*
X133148947Y-106802691D01*
X133145797Y-106823926D01*
X133140581Y-106844750D01*
X133133349Y-106864962D01*
X133124170Y-106884368D01*
X133113134Y-106902781D01*
X133100346Y-106920024D01*
X133085930Y-106935930D01*
X133070024Y-106950346D01*
X133052781Y-106963134D01*
X133034368Y-106974170D01*
X133014962Y-106983349D01*
X132994750Y-106990581D01*
X132973926Y-106995797D01*
X132952691Y-106998947D01*
X132931250Y-107000000D01*
X132493750Y-107000000D01*
X132472309Y-106998947D01*
X132451074Y-106995797D01*
X132430250Y-106990581D01*
X132410038Y-106983349D01*
X132390632Y-106974170D01*
X132372219Y-106963134D01*
X132354976Y-106950346D01*
X132339070Y-106935930D01*
X132324654Y-106920024D01*
X132311866Y-106902781D01*
X132300830Y-106884368D01*
X132291651Y-106864962D01*
X132284419Y-106844750D01*
X132279203Y-106823926D01*
X132276053Y-106802691D01*
X132275000Y-106781250D01*
X132275000Y-106268750D01*
X132276053Y-106247309D01*
X132279203Y-106226074D01*
X132284419Y-106205250D01*
X132291651Y-106185038D01*
X132300830Y-106165632D01*
X132311866Y-106147219D01*
X132324654Y-106129976D01*
X132339070Y-106114070D01*
X132354976Y-106099654D01*
X132372219Y-106086866D01*
X132390632Y-106075830D01*
X132410038Y-106066651D01*
X132430250Y-106059419D01*
X132451074Y-106054203D01*
X132472309Y-106051053D01*
X132493750Y-106050000D01*
X132931250Y-106050000D01*
X132952691Y-106051053D01*
X132952691Y-106051053D01*
G37*
D12*
X132712500Y-106525000D03*
D11*
G36*
X129577691Y-106051053D02*
G01*
X129598926Y-106054203D01*
X129619750Y-106059419D01*
X129639962Y-106066651D01*
X129659368Y-106075830D01*
X129677781Y-106086866D01*
X129695024Y-106099654D01*
X129710930Y-106114070D01*
X129725346Y-106129976D01*
X129738134Y-106147219D01*
X129749170Y-106165632D01*
X129758349Y-106185038D01*
X129765581Y-106205250D01*
X129770797Y-106226074D01*
X129773947Y-106247309D01*
X129775000Y-106268750D01*
X129775000Y-106781250D01*
X129773947Y-106802691D01*
X129770797Y-106823926D01*
X129765581Y-106844750D01*
X129758349Y-106864962D01*
X129749170Y-106884368D01*
X129738134Y-106902781D01*
X129725346Y-106920024D01*
X129710930Y-106935930D01*
X129695024Y-106950346D01*
X129677781Y-106963134D01*
X129659368Y-106974170D01*
X129639962Y-106983349D01*
X129619750Y-106990581D01*
X129598926Y-106995797D01*
X129577691Y-106998947D01*
X129556250Y-107000000D01*
X129118750Y-107000000D01*
X129097309Y-106998947D01*
X129076074Y-106995797D01*
X129055250Y-106990581D01*
X129035038Y-106983349D01*
X129015632Y-106974170D01*
X128997219Y-106963134D01*
X128979976Y-106950346D01*
X128964070Y-106935930D01*
X128949654Y-106920024D01*
X128936866Y-106902781D01*
X128925830Y-106884368D01*
X128916651Y-106864962D01*
X128909419Y-106844750D01*
X128904203Y-106823926D01*
X128901053Y-106802691D01*
X128900000Y-106781250D01*
X128900000Y-106268750D01*
X128901053Y-106247309D01*
X128904203Y-106226074D01*
X128909419Y-106205250D01*
X128916651Y-106185038D01*
X128925830Y-106165632D01*
X128936866Y-106147219D01*
X128949654Y-106129976D01*
X128964070Y-106114070D01*
X128979976Y-106099654D01*
X128997219Y-106086866D01*
X129015632Y-106075830D01*
X129035038Y-106066651D01*
X129055250Y-106059419D01*
X129076074Y-106054203D01*
X129097309Y-106051053D01*
X129118750Y-106050000D01*
X129556250Y-106050000D01*
X129577691Y-106051053D01*
X129577691Y-106051053D01*
G37*
D12*
X129337500Y-106525000D03*
D11*
G36*
X131152691Y-106051053D02*
G01*
X131173926Y-106054203D01*
X131194750Y-106059419D01*
X131214962Y-106066651D01*
X131234368Y-106075830D01*
X131252781Y-106086866D01*
X131270024Y-106099654D01*
X131285930Y-106114070D01*
X131300346Y-106129976D01*
X131313134Y-106147219D01*
X131324170Y-106165632D01*
X131333349Y-106185038D01*
X131340581Y-106205250D01*
X131345797Y-106226074D01*
X131348947Y-106247309D01*
X131350000Y-106268750D01*
X131350000Y-106781250D01*
X131348947Y-106802691D01*
X131345797Y-106823926D01*
X131340581Y-106844750D01*
X131333349Y-106864962D01*
X131324170Y-106884368D01*
X131313134Y-106902781D01*
X131300346Y-106920024D01*
X131285930Y-106935930D01*
X131270024Y-106950346D01*
X131252781Y-106963134D01*
X131234368Y-106974170D01*
X131214962Y-106983349D01*
X131194750Y-106990581D01*
X131173926Y-106995797D01*
X131152691Y-106998947D01*
X131131250Y-107000000D01*
X130693750Y-107000000D01*
X130672309Y-106998947D01*
X130651074Y-106995797D01*
X130630250Y-106990581D01*
X130610038Y-106983349D01*
X130590632Y-106974170D01*
X130572219Y-106963134D01*
X130554976Y-106950346D01*
X130539070Y-106935930D01*
X130524654Y-106920024D01*
X130511866Y-106902781D01*
X130500830Y-106884368D01*
X130491651Y-106864962D01*
X130484419Y-106844750D01*
X130479203Y-106823926D01*
X130476053Y-106802691D01*
X130475000Y-106781250D01*
X130475000Y-106268750D01*
X130476053Y-106247309D01*
X130479203Y-106226074D01*
X130484419Y-106205250D01*
X130491651Y-106185038D01*
X130500830Y-106165632D01*
X130511866Y-106147219D01*
X130524654Y-106129976D01*
X130539070Y-106114070D01*
X130554976Y-106099654D01*
X130572219Y-106086866D01*
X130590632Y-106075830D01*
X130610038Y-106066651D01*
X130630250Y-106059419D01*
X130651074Y-106054203D01*
X130672309Y-106051053D01*
X130693750Y-106050000D01*
X131131250Y-106050000D01*
X131152691Y-106051053D01*
X131152691Y-106051053D01*
G37*
D12*
X130912500Y-106525000D03*
D11*
G36*
X121502691Y-102426053D02*
G01*
X121523926Y-102429203D01*
X121544750Y-102434419D01*
X121564962Y-102441651D01*
X121584368Y-102450830D01*
X121602781Y-102461866D01*
X121620024Y-102474654D01*
X121635930Y-102489070D01*
X121650346Y-102504976D01*
X121663134Y-102522219D01*
X121674170Y-102540632D01*
X121683349Y-102560038D01*
X121690581Y-102580250D01*
X121695797Y-102601074D01*
X121698947Y-102622309D01*
X121700000Y-102643750D01*
X121700000Y-103156250D01*
X121698947Y-103177691D01*
X121695797Y-103198926D01*
X121690581Y-103219750D01*
X121683349Y-103239962D01*
X121674170Y-103259368D01*
X121663134Y-103277781D01*
X121650346Y-103295024D01*
X121635930Y-103310930D01*
X121620024Y-103325346D01*
X121602781Y-103338134D01*
X121584368Y-103349170D01*
X121564962Y-103358349D01*
X121544750Y-103365581D01*
X121523926Y-103370797D01*
X121502691Y-103373947D01*
X121481250Y-103375000D01*
X121043750Y-103375000D01*
X121022309Y-103373947D01*
X121001074Y-103370797D01*
X120980250Y-103365581D01*
X120960038Y-103358349D01*
X120940632Y-103349170D01*
X120922219Y-103338134D01*
X120904976Y-103325346D01*
X120889070Y-103310930D01*
X120874654Y-103295024D01*
X120861866Y-103277781D01*
X120850830Y-103259368D01*
X120841651Y-103239962D01*
X120834419Y-103219750D01*
X120829203Y-103198926D01*
X120826053Y-103177691D01*
X120825000Y-103156250D01*
X120825000Y-102643750D01*
X120826053Y-102622309D01*
X120829203Y-102601074D01*
X120834419Y-102580250D01*
X120841651Y-102560038D01*
X120850830Y-102540632D01*
X120861866Y-102522219D01*
X120874654Y-102504976D01*
X120889070Y-102489070D01*
X120904976Y-102474654D01*
X120922219Y-102461866D01*
X120940632Y-102450830D01*
X120960038Y-102441651D01*
X120980250Y-102434419D01*
X121001074Y-102429203D01*
X121022309Y-102426053D01*
X121043750Y-102425000D01*
X121481250Y-102425000D01*
X121502691Y-102426053D01*
X121502691Y-102426053D01*
G37*
D12*
X121262500Y-102900000D03*
D11*
G36*
X119927691Y-102426053D02*
G01*
X119948926Y-102429203D01*
X119969750Y-102434419D01*
X119989962Y-102441651D01*
X120009368Y-102450830D01*
X120027781Y-102461866D01*
X120045024Y-102474654D01*
X120060930Y-102489070D01*
X120075346Y-102504976D01*
X120088134Y-102522219D01*
X120099170Y-102540632D01*
X120108349Y-102560038D01*
X120115581Y-102580250D01*
X120120797Y-102601074D01*
X120123947Y-102622309D01*
X120125000Y-102643750D01*
X120125000Y-103156250D01*
X120123947Y-103177691D01*
X120120797Y-103198926D01*
X120115581Y-103219750D01*
X120108349Y-103239962D01*
X120099170Y-103259368D01*
X120088134Y-103277781D01*
X120075346Y-103295024D01*
X120060930Y-103310930D01*
X120045024Y-103325346D01*
X120027781Y-103338134D01*
X120009368Y-103349170D01*
X119989962Y-103358349D01*
X119969750Y-103365581D01*
X119948926Y-103370797D01*
X119927691Y-103373947D01*
X119906250Y-103375000D01*
X119468750Y-103375000D01*
X119447309Y-103373947D01*
X119426074Y-103370797D01*
X119405250Y-103365581D01*
X119385038Y-103358349D01*
X119365632Y-103349170D01*
X119347219Y-103338134D01*
X119329976Y-103325346D01*
X119314070Y-103310930D01*
X119299654Y-103295024D01*
X119286866Y-103277781D01*
X119275830Y-103259368D01*
X119266651Y-103239962D01*
X119259419Y-103219750D01*
X119254203Y-103198926D01*
X119251053Y-103177691D01*
X119250000Y-103156250D01*
X119250000Y-102643750D01*
X119251053Y-102622309D01*
X119254203Y-102601074D01*
X119259419Y-102580250D01*
X119266651Y-102560038D01*
X119275830Y-102540632D01*
X119286866Y-102522219D01*
X119299654Y-102504976D01*
X119314070Y-102489070D01*
X119329976Y-102474654D01*
X119347219Y-102461866D01*
X119365632Y-102450830D01*
X119385038Y-102441651D01*
X119405250Y-102434419D01*
X119426074Y-102429203D01*
X119447309Y-102426053D01*
X119468750Y-102425000D01*
X119906250Y-102425000D01*
X119927691Y-102426053D01*
X119927691Y-102426053D01*
G37*
D12*
X119687500Y-102900000D03*
D11*
G36*
X117877691Y-102401053D02*
G01*
X117898926Y-102404203D01*
X117919750Y-102409419D01*
X117939962Y-102416651D01*
X117959368Y-102425830D01*
X117977781Y-102436866D01*
X117995024Y-102449654D01*
X118010930Y-102464070D01*
X118025346Y-102479976D01*
X118038134Y-102497219D01*
X118049170Y-102515632D01*
X118058349Y-102535038D01*
X118065581Y-102555250D01*
X118070797Y-102576074D01*
X118073947Y-102597309D01*
X118075000Y-102618750D01*
X118075000Y-103131250D01*
X118073947Y-103152691D01*
X118070797Y-103173926D01*
X118065581Y-103194750D01*
X118058349Y-103214962D01*
X118049170Y-103234368D01*
X118038134Y-103252781D01*
X118025346Y-103270024D01*
X118010930Y-103285930D01*
X117995024Y-103300346D01*
X117977781Y-103313134D01*
X117959368Y-103324170D01*
X117939962Y-103333349D01*
X117919750Y-103340581D01*
X117898926Y-103345797D01*
X117877691Y-103348947D01*
X117856250Y-103350000D01*
X117418750Y-103350000D01*
X117397309Y-103348947D01*
X117376074Y-103345797D01*
X117355250Y-103340581D01*
X117335038Y-103333349D01*
X117315632Y-103324170D01*
X117297219Y-103313134D01*
X117279976Y-103300346D01*
X117264070Y-103285930D01*
X117249654Y-103270024D01*
X117236866Y-103252781D01*
X117225830Y-103234368D01*
X117216651Y-103214962D01*
X117209419Y-103194750D01*
X117204203Y-103173926D01*
X117201053Y-103152691D01*
X117200000Y-103131250D01*
X117200000Y-102618750D01*
X117201053Y-102597309D01*
X117204203Y-102576074D01*
X117209419Y-102555250D01*
X117216651Y-102535038D01*
X117225830Y-102515632D01*
X117236866Y-102497219D01*
X117249654Y-102479976D01*
X117264070Y-102464070D01*
X117279976Y-102449654D01*
X117297219Y-102436866D01*
X117315632Y-102425830D01*
X117335038Y-102416651D01*
X117355250Y-102409419D01*
X117376074Y-102404203D01*
X117397309Y-102401053D01*
X117418750Y-102400000D01*
X117856250Y-102400000D01*
X117877691Y-102401053D01*
X117877691Y-102401053D01*
G37*
D12*
X117637500Y-102875000D03*
D11*
G36*
X116302691Y-102401053D02*
G01*
X116323926Y-102404203D01*
X116344750Y-102409419D01*
X116364962Y-102416651D01*
X116384368Y-102425830D01*
X116402781Y-102436866D01*
X116420024Y-102449654D01*
X116435930Y-102464070D01*
X116450346Y-102479976D01*
X116463134Y-102497219D01*
X116474170Y-102515632D01*
X116483349Y-102535038D01*
X116490581Y-102555250D01*
X116495797Y-102576074D01*
X116498947Y-102597309D01*
X116500000Y-102618750D01*
X116500000Y-103131250D01*
X116498947Y-103152691D01*
X116495797Y-103173926D01*
X116490581Y-103194750D01*
X116483349Y-103214962D01*
X116474170Y-103234368D01*
X116463134Y-103252781D01*
X116450346Y-103270024D01*
X116435930Y-103285930D01*
X116420024Y-103300346D01*
X116402781Y-103313134D01*
X116384368Y-103324170D01*
X116364962Y-103333349D01*
X116344750Y-103340581D01*
X116323926Y-103345797D01*
X116302691Y-103348947D01*
X116281250Y-103350000D01*
X115843750Y-103350000D01*
X115822309Y-103348947D01*
X115801074Y-103345797D01*
X115780250Y-103340581D01*
X115760038Y-103333349D01*
X115740632Y-103324170D01*
X115722219Y-103313134D01*
X115704976Y-103300346D01*
X115689070Y-103285930D01*
X115674654Y-103270024D01*
X115661866Y-103252781D01*
X115650830Y-103234368D01*
X115641651Y-103214962D01*
X115634419Y-103194750D01*
X115629203Y-103173926D01*
X115626053Y-103152691D01*
X115625000Y-103131250D01*
X115625000Y-102618750D01*
X115626053Y-102597309D01*
X115629203Y-102576074D01*
X115634419Y-102555250D01*
X115641651Y-102535038D01*
X115650830Y-102515632D01*
X115661866Y-102497219D01*
X115674654Y-102479976D01*
X115689070Y-102464070D01*
X115704976Y-102449654D01*
X115722219Y-102436866D01*
X115740632Y-102425830D01*
X115760038Y-102416651D01*
X115780250Y-102409419D01*
X115801074Y-102404203D01*
X115822309Y-102401053D01*
X115843750Y-102400000D01*
X116281250Y-102400000D01*
X116302691Y-102401053D01*
X116302691Y-102401053D01*
G37*
D12*
X116062500Y-102875000D03*
D11*
G36*
X85227691Y-102126053D02*
G01*
X85248926Y-102129203D01*
X85269750Y-102134419D01*
X85289962Y-102141651D01*
X85309368Y-102150830D01*
X85327781Y-102161866D01*
X85345024Y-102174654D01*
X85360930Y-102189070D01*
X85375346Y-102204976D01*
X85388134Y-102222219D01*
X85399170Y-102240632D01*
X85408349Y-102260038D01*
X85415581Y-102280250D01*
X85420797Y-102301074D01*
X85423947Y-102322309D01*
X85425000Y-102343750D01*
X85425000Y-102856250D01*
X85423947Y-102877691D01*
X85420797Y-102898926D01*
X85415581Y-102919750D01*
X85408349Y-102939962D01*
X85399170Y-102959368D01*
X85388134Y-102977781D01*
X85375346Y-102995024D01*
X85360930Y-103010930D01*
X85345024Y-103025346D01*
X85327781Y-103038134D01*
X85309368Y-103049170D01*
X85289962Y-103058349D01*
X85269750Y-103065581D01*
X85248926Y-103070797D01*
X85227691Y-103073947D01*
X85206250Y-103075000D01*
X84768750Y-103075000D01*
X84747309Y-103073947D01*
X84726074Y-103070797D01*
X84705250Y-103065581D01*
X84685038Y-103058349D01*
X84665632Y-103049170D01*
X84647219Y-103038134D01*
X84629976Y-103025346D01*
X84614070Y-103010930D01*
X84599654Y-102995024D01*
X84586866Y-102977781D01*
X84575830Y-102959368D01*
X84566651Y-102939962D01*
X84559419Y-102919750D01*
X84554203Y-102898926D01*
X84551053Y-102877691D01*
X84550000Y-102856250D01*
X84550000Y-102343750D01*
X84551053Y-102322309D01*
X84554203Y-102301074D01*
X84559419Y-102280250D01*
X84566651Y-102260038D01*
X84575830Y-102240632D01*
X84586866Y-102222219D01*
X84599654Y-102204976D01*
X84614070Y-102189070D01*
X84629976Y-102174654D01*
X84647219Y-102161866D01*
X84665632Y-102150830D01*
X84685038Y-102141651D01*
X84705250Y-102134419D01*
X84726074Y-102129203D01*
X84747309Y-102126053D01*
X84768750Y-102125000D01*
X85206250Y-102125000D01*
X85227691Y-102126053D01*
X85227691Y-102126053D01*
G37*
D12*
X84987500Y-102600000D03*
D11*
G36*
X83652691Y-102126053D02*
G01*
X83673926Y-102129203D01*
X83694750Y-102134419D01*
X83714962Y-102141651D01*
X83734368Y-102150830D01*
X83752781Y-102161866D01*
X83770024Y-102174654D01*
X83785930Y-102189070D01*
X83800346Y-102204976D01*
X83813134Y-102222219D01*
X83824170Y-102240632D01*
X83833349Y-102260038D01*
X83840581Y-102280250D01*
X83845797Y-102301074D01*
X83848947Y-102322309D01*
X83850000Y-102343750D01*
X83850000Y-102856250D01*
X83848947Y-102877691D01*
X83845797Y-102898926D01*
X83840581Y-102919750D01*
X83833349Y-102939962D01*
X83824170Y-102959368D01*
X83813134Y-102977781D01*
X83800346Y-102995024D01*
X83785930Y-103010930D01*
X83770024Y-103025346D01*
X83752781Y-103038134D01*
X83734368Y-103049170D01*
X83714962Y-103058349D01*
X83694750Y-103065581D01*
X83673926Y-103070797D01*
X83652691Y-103073947D01*
X83631250Y-103075000D01*
X83193750Y-103075000D01*
X83172309Y-103073947D01*
X83151074Y-103070797D01*
X83130250Y-103065581D01*
X83110038Y-103058349D01*
X83090632Y-103049170D01*
X83072219Y-103038134D01*
X83054976Y-103025346D01*
X83039070Y-103010930D01*
X83024654Y-102995024D01*
X83011866Y-102977781D01*
X83000830Y-102959368D01*
X82991651Y-102939962D01*
X82984419Y-102919750D01*
X82979203Y-102898926D01*
X82976053Y-102877691D01*
X82975000Y-102856250D01*
X82975000Y-102343750D01*
X82976053Y-102322309D01*
X82979203Y-102301074D01*
X82984419Y-102280250D01*
X82991651Y-102260038D01*
X83000830Y-102240632D01*
X83011866Y-102222219D01*
X83024654Y-102204976D01*
X83039070Y-102189070D01*
X83054976Y-102174654D01*
X83072219Y-102161866D01*
X83090632Y-102150830D01*
X83110038Y-102141651D01*
X83130250Y-102134419D01*
X83151074Y-102129203D01*
X83172309Y-102126053D01*
X83193750Y-102125000D01*
X83631250Y-102125000D01*
X83652691Y-102126053D01*
X83652691Y-102126053D01*
G37*
D12*
X83412500Y-102600000D03*
D11*
G36*
X119777691Y-97401053D02*
G01*
X119798926Y-97404203D01*
X119819750Y-97409419D01*
X119839962Y-97416651D01*
X119859368Y-97425830D01*
X119877781Y-97436866D01*
X119895024Y-97449654D01*
X119910930Y-97464070D01*
X119925346Y-97479976D01*
X119938134Y-97497219D01*
X119949170Y-97515632D01*
X119958349Y-97535038D01*
X119965581Y-97555250D01*
X119970797Y-97576074D01*
X119973947Y-97597309D01*
X119975000Y-97618750D01*
X119975000Y-98131250D01*
X119973947Y-98152691D01*
X119970797Y-98173926D01*
X119965581Y-98194750D01*
X119958349Y-98214962D01*
X119949170Y-98234368D01*
X119938134Y-98252781D01*
X119925346Y-98270024D01*
X119910930Y-98285930D01*
X119895024Y-98300346D01*
X119877781Y-98313134D01*
X119859368Y-98324170D01*
X119839962Y-98333349D01*
X119819750Y-98340581D01*
X119798926Y-98345797D01*
X119777691Y-98348947D01*
X119756250Y-98350000D01*
X119318750Y-98350000D01*
X119297309Y-98348947D01*
X119276074Y-98345797D01*
X119255250Y-98340581D01*
X119235038Y-98333349D01*
X119215632Y-98324170D01*
X119197219Y-98313134D01*
X119179976Y-98300346D01*
X119164070Y-98285930D01*
X119149654Y-98270024D01*
X119136866Y-98252781D01*
X119125830Y-98234368D01*
X119116651Y-98214962D01*
X119109419Y-98194750D01*
X119104203Y-98173926D01*
X119101053Y-98152691D01*
X119100000Y-98131250D01*
X119100000Y-97618750D01*
X119101053Y-97597309D01*
X119104203Y-97576074D01*
X119109419Y-97555250D01*
X119116651Y-97535038D01*
X119125830Y-97515632D01*
X119136866Y-97497219D01*
X119149654Y-97479976D01*
X119164070Y-97464070D01*
X119179976Y-97449654D01*
X119197219Y-97436866D01*
X119215632Y-97425830D01*
X119235038Y-97416651D01*
X119255250Y-97409419D01*
X119276074Y-97404203D01*
X119297309Y-97401053D01*
X119318750Y-97400000D01*
X119756250Y-97400000D01*
X119777691Y-97401053D01*
X119777691Y-97401053D01*
G37*
D12*
X119537500Y-97875000D03*
D11*
G36*
X121352691Y-97401053D02*
G01*
X121373926Y-97404203D01*
X121394750Y-97409419D01*
X121414962Y-97416651D01*
X121434368Y-97425830D01*
X121452781Y-97436866D01*
X121470024Y-97449654D01*
X121485930Y-97464070D01*
X121500346Y-97479976D01*
X121513134Y-97497219D01*
X121524170Y-97515632D01*
X121533349Y-97535038D01*
X121540581Y-97555250D01*
X121545797Y-97576074D01*
X121548947Y-97597309D01*
X121550000Y-97618750D01*
X121550000Y-98131250D01*
X121548947Y-98152691D01*
X121545797Y-98173926D01*
X121540581Y-98194750D01*
X121533349Y-98214962D01*
X121524170Y-98234368D01*
X121513134Y-98252781D01*
X121500346Y-98270024D01*
X121485930Y-98285930D01*
X121470024Y-98300346D01*
X121452781Y-98313134D01*
X121434368Y-98324170D01*
X121414962Y-98333349D01*
X121394750Y-98340581D01*
X121373926Y-98345797D01*
X121352691Y-98348947D01*
X121331250Y-98350000D01*
X120893750Y-98350000D01*
X120872309Y-98348947D01*
X120851074Y-98345797D01*
X120830250Y-98340581D01*
X120810038Y-98333349D01*
X120790632Y-98324170D01*
X120772219Y-98313134D01*
X120754976Y-98300346D01*
X120739070Y-98285930D01*
X120724654Y-98270024D01*
X120711866Y-98252781D01*
X120700830Y-98234368D01*
X120691651Y-98214962D01*
X120684419Y-98194750D01*
X120679203Y-98173926D01*
X120676053Y-98152691D01*
X120675000Y-98131250D01*
X120675000Y-97618750D01*
X120676053Y-97597309D01*
X120679203Y-97576074D01*
X120684419Y-97555250D01*
X120691651Y-97535038D01*
X120700830Y-97515632D01*
X120711866Y-97497219D01*
X120724654Y-97479976D01*
X120739070Y-97464070D01*
X120754976Y-97449654D01*
X120772219Y-97436866D01*
X120790632Y-97425830D01*
X120810038Y-97416651D01*
X120830250Y-97409419D01*
X120851074Y-97404203D01*
X120872309Y-97401053D01*
X120893750Y-97400000D01*
X121331250Y-97400000D01*
X121352691Y-97401053D01*
X121352691Y-97401053D01*
G37*
D12*
X121112500Y-97875000D03*
D11*
G36*
X116177691Y-97401053D02*
G01*
X116198926Y-97404203D01*
X116219750Y-97409419D01*
X116239962Y-97416651D01*
X116259368Y-97425830D01*
X116277781Y-97436866D01*
X116295024Y-97449654D01*
X116310930Y-97464070D01*
X116325346Y-97479976D01*
X116338134Y-97497219D01*
X116349170Y-97515632D01*
X116358349Y-97535038D01*
X116365581Y-97555250D01*
X116370797Y-97576074D01*
X116373947Y-97597309D01*
X116375000Y-97618750D01*
X116375000Y-98131250D01*
X116373947Y-98152691D01*
X116370797Y-98173926D01*
X116365581Y-98194750D01*
X116358349Y-98214962D01*
X116349170Y-98234368D01*
X116338134Y-98252781D01*
X116325346Y-98270024D01*
X116310930Y-98285930D01*
X116295024Y-98300346D01*
X116277781Y-98313134D01*
X116259368Y-98324170D01*
X116239962Y-98333349D01*
X116219750Y-98340581D01*
X116198926Y-98345797D01*
X116177691Y-98348947D01*
X116156250Y-98350000D01*
X115718750Y-98350000D01*
X115697309Y-98348947D01*
X115676074Y-98345797D01*
X115655250Y-98340581D01*
X115635038Y-98333349D01*
X115615632Y-98324170D01*
X115597219Y-98313134D01*
X115579976Y-98300346D01*
X115564070Y-98285930D01*
X115549654Y-98270024D01*
X115536866Y-98252781D01*
X115525830Y-98234368D01*
X115516651Y-98214962D01*
X115509419Y-98194750D01*
X115504203Y-98173926D01*
X115501053Y-98152691D01*
X115500000Y-98131250D01*
X115500000Y-97618750D01*
X115501053Y-97597309D01*
X115504203Y-97576074D01*
X115509419Y-97555250D01*
X115516651Y-97535038D01*
X115525830Y-97515632D01*
X115536866Y-97497219D01*
X115549654Y-97479976D01*
X115564070Y-97464070D01*
X115579976Y-97449654D01*
X115597219Y-97436866D01*
X115615632Y-97425830D01*
X115635038Y-97416651D01*
X115655250Y-97409419D01*
X115676074Y-97404203D01*
X115697309Y-97401053D01*
X115718750Y-97400000D01*
X116156250Y-97400000D01*
X116177691Y-97401053D01*
X116177691Y-97401053D01*
G37*
D12*
X115937500Y-97875000D03*
D11*
G36*
X117752691Y-97401053D02*
G01*
X117773926Y-97404203D01*
X117794750Y-97409419D01*
X117814962Y-97416651D01*
X117834368Y-97425830D01*
X117852781Y-97436866D01*
X117870024Y-97449654D01*
X117885930Y-97464070D01*
X117900346Y-97479976D01*
X117913134Y-97497219D01*
X117924170Y-97515632D01*
X117933349Y-97535038D01*
X117940581Y-97555250D01*
X117945797Y-97576074D01*
X117948947Y-97597309D01*
X117950000Y-97618750D01*
X117950000Y-98131250D01*
X117948947Y-98152691D01*
X117945797Y-98173926D01*
X117940581Y-98194750D01*
X117933349Y-98214962D01*
X117924170Y-98234368D01*
X117913134Y-98252781D01*
X117900346Y-98270024D01*
X117885930Y-98285930D01*
X117870024Y-98300346D01*
X117852781Y-98313134D01*
X117834368Y-98324170D01*
X117814962Y-98333349D01*
X117794750Y-98340581D01*
X117773926Y-98345797D01*
X117752691Y-98348947D01*
X117731250Y-98350000D01*
X117293750Y-98350000D01*
X117272309Y-98348947D01*
X117251074Y-98345797D01*
X117230250Y-98340581D01*
X117210038Y-98333349D01*
X117190632Y-98324170D01*
X117172219Y-98313134D01*
X117154976Y-98300346D01*
X117139070Y-98285930D01*
X117124654Y-98270024D01*
X117111866Y-98252781D01*
X117100830Y-98234368D01*
X117091651Y-98214962D01*
X117084419Y-98194750D01*
X117079203Y-98173926D01*
X117076053Y-98152691D01*
X117075000Y-98131250D01*
X117075000Y-97618750D01*
X117076053Y-97597309D01*
X117079203Y-97576074D01*
X117084419Y-97555250D01*
X117091651Y-97535038D01*
X117100830Y-97515632D01*
X117111866Y-97497219D01*
X117124654Y-97479976D01*
X117139070Y-97464070D01*
X117154976Y-97449654D01*
X117172219Y-97436866D01*
X117190632Y-97425830D01*
X117210038Y-97416651D01*
X117230250Y-97409419D01*
X117251074Y-97404203D01*
X117272309Y-97401053D01*
X117293750Y-97400000D01*
X117731250Y-97400000D01*
X117752691Y-97401053D01*
X117752691Y-97401053D01*
G37*
D12*
X117512500Y-97875000D03*
D11*
G36*
X114252691Y-102401053D02*
G01*
X114273926Y-102404203D01*
X114294750Y-102409419D01*
X114314962Y-102416651D01*
X114334368Y-102425830D01*
X114352781Y-102436866D01*
X114370024Y-102449654D01*
X114385930Y-102464070D01*
X114400346Y-102479976D01*
X114413134Y-102497219D01*
X114424170Y-102515632D01*
X114433349Y-102535038D01*
X114440581Y-102555250D01*
X114445797Y-102576074D01*
X114448947Y-102597309D01*
X114450000Y-102618750D01*
X114450000Y-103131250D01*
X114448947Y-103152691D01*
X114445797Y-103173926D01*
X114440581Y-103194750D01*
X114433349Y-103214962D01*
X114424170Y-103234368D01*
X114413134Y-103252781D01*
X114400346Y-103270024D01*
X114385930Y-103285930D01*
X114370024Y-103300346D01*
X114352781Y-103313134D01*
X114334368Y-103324170D01*
X114314962Y-103333349D01*
X114294750Y-103340581D01*
X114273926Y-103345797D01*
X114252691Y-103348947D01*
X114231250Y-103350000D01*
X113793750Y-103350000D01*
X113772309Y-103348947D01*
X113751074Y-103345797D01*
X113730250Y-103340581D01*
X113710038Y-103333349D01*
X113690632Y-103324170D01*
X113672219Y-103313134D01*
X113654976Y-103300346D01*
X113639070Y-103285930D01*
X113624654Y-103270024D01*
X113611866Y-103252781D01*
X113600830Y-103234368D01*
X113591651Y-103214962D01*
X113584419Y-103194750D01*
X113579203Y-103173926D01*
X113576053Y-103152691D01*
X113575000Y-103131250D01*
X113575000Y-102618750D01*
X113576053Y-102597309D01*
X113579203Y-102576074D01*
X113584419Y-102555250D01*
X113591651Y-102535038D01*
X113600830Y-102515632D01*
X113611866Y-102497219D01*
X113624654Y-102479976D01*
X113639070Y-102464070D01*
X113654976Y-102449654D01*
X113672219Y-102436866D01*
X113690632Y-102425830D01*
X113710038Y-102416651D01*
X113730250Y-102409419D01*
X113751074Y-102404203D01*
X113772309Y-102401053D01*
X113793750Y-102400000D01*
X114231250Y-102400000D01*
X114252691Y-102401053D01*
X114252691Y-102401053D01*
G37*
D12*
X114012500Y-102875000D03*
D11*
G36*
X112677691Y-102401053D02*
G01*
X112698926Y-102404203D01*
X112719750Y-102409419D01*
X112739962Y-102416651D01*
X112759368Y-102425830D01*
X112777781Y-102436866D01*
X112795024Y-102449654D01*
X112810930Y-102464070D01*
X112825346Y-102479976D01*
X112838134Y-102497219D01*
X112849170Y-102515632D01*
X112858349Y-102535038D01*
X112865581Y-102555250D01*
X112870797Y-102576074D01*
X112873947Y-102597309D01*
X112875000Y-102618750D01*
X112875000Y-103131250D01*
X112873947Y-103152691D01*
X112870797Y-103173926D01*
X112865581Y-103194750D01*
X112858349Y-103214962D01*
X112849170Y-103234368D01*
X112838134Y-103252781D01*
X112825346Y-103270024D01*
X112810930Y-103285930D01*
X112795024Y-103300346D01*
X112777781Y-103313134D01*
X112759368Y-103324170D01*
X112739962Y-103333349D01*
X112719750Y-103340581D01*
X112698926Y-103345797D01*
X112677691Y-103348947D01*
X112656250Y-103350000D01*
X112218750Y-103350000D01*
X112197309Y-103348947D01*
X112176074Y-103345797D01*
X112155250Y-103340581D01*
X112135038Y-103333349D01*
X112115632Y-103324170D01*
X112097219Y-103313134D01*
X112079976Y-103300346D01*
X112064070Y-103285930D01*
X112049654Y-103270024D01*
X112036866Y-103252781D01*
X112025830Y-103234368D01*
X112016651Y-103214962D01*
X112009419Y-103194750D01*
X112004203Y-103173926D01*
X112001053Y-103152691D01*
X112000000Y-103131250D01*
X112000000Y-102618750D01*
X112001053Y-102597309D01*
X112004203Y-102576074D01*
X112009419Y-102555250D01*
X112016651Y-102535038D01*
X112025830Y-102515632D01*
X112036866Y-102497219D01*
X112049654Y-102479976D01*
X112064070Y-102464070D01*
X112079976Y-102449654D01*
X112097219Y-102436866D01*
X112115632Y-102425830D01*
X112135038Y-102416651D01*
X112155250Y-102409419D01*
X112176074Y-102404203D01*
X112197309Y-102401053D01*
X112218750Y-102400000D01*
X112656250Y-102400000D01*
X112677691Y-102401053D01*
X112677691Y-102401053D01*
G37*
D12*
X112437500Y-102875000D03*
D11*
G36*
X114152691Y-97401053D02*
G01*
X114173926Y-97404203D01*
X114194750Y-97409419D01*
X114214962Y-97416651D01*
X114234368Y-97425830D01*
X114252781Y-97436866D01*
X114270024Y-97449654D01*
X114285930Y-97464070D01*
X114300346Y-97479976D01*
X114313134Y-97497219D01*
X114324170Y-97515632D01*
X114333349Y-97535038D01*
X114340581Y-97555250D01*
X114345797Y-97576074D01*
X114348947Y-97597309D01*
X114350000Y-97618750D01*
X114350000Y-98131250D01*
X114348947Y-98152691D01*
X114345797Y-98173926D01*
X114340581Y-98194750D01*
X114333349Y-98214962D01*
X114324170Y-98234368D01*
X114313134Y-98252781D01*
X114300346Y-98270024D01*
X114285930Y-98285930D01*
X114270024Y-98300346D01*
X114252781Y-98313134D01*
X114234368Y-98324170D01*
X114214962Y-98333349D01*
X114194750Y-98340581D01*
X114173926Y-98345797D01*
X114152691Y-98348947D01*
X114131250Y-98350000D01*
X113693750Y-98350000D01*
X113672309Y-98348947D01*
X113651074Y-98345797D01*
X113630250Y-98340581D01*
X113610038Y-98333349D01*
X113590632Y-98324170D01*
X113572219Y-98313134D01*
X113554976Y-98300346D01*
X113539070Y-98285930D01*
X113524654Y-98270024D01*
X113511866Y-98252781D01*
X113500830Y-98234368D01*
X113491651Y-98214962D01*
X113484419Y-98194750D01*
X113479203Y-98173926D01*
X113476053Y-98152691D01*
X113475000Y-98131250D01*
X113475000Y-97618750D01*
X113476053Y-97597309D01*
X113479203Y-97576074D01*
X113484419Y-97555250D01*
X113491651Y-97535038D01*
X113500830Y-97515632D01*
X113511866Y-97497219D01*
X113524654Y-97479976D01*
X113539070Y-97464070D01*
X113554976Y-97449654D01*
X113572219Y-97436866D01*
X113590632Y-97425830D01*
X113610038Y-97416651D01*
X113630250Y-97409419D01*
X113651074Y-97404203D01*
X113672309Y-97401053D01*
X113693750Y-97400000D01*
X114131250Y-97400000D01*
X114152691Y-97401053D01*
X114152691Y-97401053D01*
G37*
D12*
X113912500Y-97875000D03*
D11*
G36*
X112577691Y-97401053D02*
G01*
X112598926Y-97404203D01*
X112619750Y-97409419D01*
X112639962Y-97416651D01*
X112659368Y-97425830D01*
X112677781Y-97436866D01*
X112695024Y-97449654D01*
X112710930Y-97464070D01*
X112725346Y-97479976D01*
X112738134Y-97497219D01*
X112749170Y-97515632D01*
X112758349Y-97535038D01*
X112765581Y-97555250D01*
X112770797Y-97576074D01*
X112773947Y-97597309D01*
X112775000Y-97618750D01*
X112775000Y-98131250D01*
X112773947Y-98152691D01*
X112770797Y-98173926D01*
X112765581Y-98194750D01*
X112758349Y-98214962D01*
X112749170Y-98234368D01*
X112738134Y-98252781D01*
X112725346Y-98270024D01*
X112710930Y-98285930D01*
X112695024Y-98300346D01*
X112677781Y-98313134D01*
X112659368Y-98324170D01*
X112639962Y-98333349D01*
X112619750Y-98340581D01*
X112598926Y-98345797D01*
X112577691Y-98348947D01*
X112556250Y-98350000D01*
X112118750Y-98350000D01*
X112097309Y-98348947D01*
X112076074Y-98345797D01*
X112055250Y-98340581D01*
X112035038Y-98333349D01*
X112015632Y-98324170D01*
X111997219Y-98313134D01*
X111979976Y-98300346D01*
X111964070Y-98285930D01*
X111949654Y-98270024D01*
X111936866Y-98252781D01*
X111925830Y-98234368D01*
X111916651Y-98214962D01*
X111909419Y-98194750D01*
X111904203Y-98173926D01*
X111901053Y-98152691D01*
X111900000Y-98131250D01*
X111900000Y-97618750D01*
X111901053Y-97597309D01*
X111904203Y-97576074D01*
X111909419Y-97555250D01*
X111916651Y-97535038D01*
X111925830Y-97515632D01*
X111936866Y-97497219D01*
X111949654Y-97479976D01*
X111964070Y-97464070D01*
X111979976Y-97449654D01*
X111997219Y-97436866D01*
X112015632Y-97425830D01*
X112035038Y-97416651D01*
X112055250Y-97409419D01*
X112076074Y-97404203D01*
X112097309Y-97401053D01*
X112118750Y-97400000D01*
X112556250Y-97400000D01*
X112577691Y-97401053D01*
X112577691Y-97401053D01*
G37*
D12*
X112337500Y-97875000D03*
D11*
G36*
X110577691Y-97401053D02*
G01*
X110598926Y-97404203D01*
X110619750Y-97409419D01*
X110639962Y-97416651D01*
X110659368Y-97425830D01*
X110677781Y-97436866D01*
X110695024Y-97449654D01*
X110710930Y-97464070D01*
X110725346Y-97479976D01*
X110738134Y-97497219D01*
X110749170Y-97515632D01*
X110758349Y-97535038D01*
X110765581Y-97555250D01*
X110770797Y-97576074D01*
X110773947Y-97597309D01*
X110775000Y-97618750D01*
X110775000Y-98131250D01*
X110773947Y-98152691D01*
X110770797Y-98173926D01*
X110765581Y-98194750D01*
X110758349Y-98214962D01*
X110749170Y-98234368D01*
X110738134Y-98252781D01*
X110725346Y-98270024D01*
X110710930Y-98285930D01*
X110695024Y-98300346D01*
X110677781Y-98313134D01*
X110659368Y-98324170D01*
X110639962Y-98333349D01*
X110619750Y-98340581D01*
X110598926Y-98345797D01*
X110577691Y-98348947D01*
X110556250Y-98350000D01*
X110118750Y-98350000D01*
X110097309Y-98348947D01*
X110076074Y-98345797D01*
X110055250Y-98340581D01*
X110035038Y-98333349D01*
X110015632Y-98324170D01*
X109997219Y-98313134D01*
X109979976Y-98300346D01*
X109964070Y-98285930D01*
X109949654Y-98270024D01*
X109936866Y-98252781D01*
X109925830Y-98234368D01*
X109916651Y-98214962D01*
X109909419Y-98194750D01*
X109904203Y-98173926D01*
X109901053Y-98152691D01*
X109900000Y-98131250D01*
X109900000Y-97618750D01*
X109901053Y-97597309D01*
X109904203Y-97576074D01*
X109909419Y-97555250D01*
X109916651Y-97535038D01*
X109925830Y-97515632D01*
X109936866Y-97497219D01*
X109949654Y-97479976D01*
X109964070Y-97464070D01*
X109979976Y-97449654D01*
X109997219Y-97436866D01*
X110015632Y-97425830D01*
X110035038Y-97416651D01*
X110055250Y-97409419D01*
X110076074Y-97404203D01*
X110097309Y-97401053D01*
X110118750Y-97400000D01*
X110556250Y-97400000D01*
X110577691Y-97401053D01*
X110577691Y-97401053D01*
G37*
D12*
X110337500Y-97875000D03*
D11*
G36*
X109002691Y-97401053D02*
G01*
X109023926Y-97404203D01*
X109044750Y-97409419D01*
X109064962Y-97416651D01*
X109084368Y-97425830D01*
X109102781Y-97436866D01*
X109120024Y-97449654D01*
X109135930Y-97464070D01*
X109150346Y-97479976D01*
X109163134Y-97497219D01*
X109174170Y-97515632D01*
X109183349Y-97535038D01*
X109190581Y-97555250D01*
X109195797Y-97576074D01*
X109198947Y-97597309D01*
X109200000Y-97618750D01*
X109200000Y-98131250D01*
X109198947Y-98152691D01*
X109195797Y-98173926D01*
X109190581Y-98194750D01*
X109183349Y-98214962D01*
X109174170Y-98234368D01*
X109163134Y-98252781D01*
X109150346Y-98270024D01*
X109135930Y-98285930D01*
X109120024Y-98300346D01*
X109102781Y-98313134D01*
X109084368Y-98324170D01*
X109064962Y-98333349D01*
X109044750Y-98340581D01*
X109023926Y-98345797D01*
X109002691Y-98348947D01*
X108981250Y-98350000D01*
X108543750Y-98350000D01*
X108522309Y-98348947D01*
X108501074Y-98345797D01*
X108480250Y-98340581D01*
X108460038Y-98333349D01*
X108440632Y-98324170D01*
X108422219Y-98313134D01*
X108404976Y-98300346D01*
X108389070Y-98285930D01*
X108374654Y-98270024D01*
X108361866Y-98252781D01*
X108350830Y-98234368D01*
X108341651Y-98214962D01*
X108334419Y-98194750D01*
X108329203Y-98173926D01*
X108326053Y-98152691D01*
X108325000Y-98131250D01*
X108325000Y-97618750D01*
X108326053Y-97597309D01*
X108329203Y-97576074D01*
X108334419Y-97555250D01*
X108341651Y-97535038D01*
X108350830Y-97515632D01*
X108361866Y-97497219D01*
X108374654Y-97479976D01*
X108389070Y-97464070D01*
X108404976Y-97449654D01*
X108422219Y-97436866D01*
X108440632Y-97425830D01*
X108460038Y-97416651D01*
X108480250Y-97409419D01*
X108501074Y-97404203D01*
X108522309Y-97401053D01*
X108543750Y-97400000D01*
X108981250Y-97400000D01*
X109002691Y-97401053D01*
X109002691Y-97401053D01*
G37*
D12*
X108762500Y-97875000D03*
D11*
G36*
X110552691Y-102401053D02*
G01*
X110573926Y-102404203D01*
X110594750Y-102409419D01*
X110614962Y-102416651D01*
X110634368Y-102425830D01*
X110652781Y-102436866D01*
X110670024Y-102449654D01*
X110685930Y-102464070D01*
X110700346Y-102479976D01*
X110713134Y-102497219D01*
X110724170Y-102515632D01*
X110733349Y-102535038D01*
X110740581Y-102555250D01*
X110745797Y-102576074D01*
X110748947Y-102597309D01*
X110750000Y-102618750D01*
X110750000Y-103131250D01*
X110748947Y-103152691D01*
X110745797Y-103173926D01*
X110740581Y-103194750D01*
X110733349Y-103214962D01*
X110724170Y-103234368D01*
X110713134Y-103252781D01*
X110700346Y-103270024D01*
X110685930Y-103285930D01*
X110670024Y-103300346D01*
X110652781Y-103313134D01*
X110634368Y-103324170D01*
X110614962Y-103333349D01*
X110594750Y-103340581D01*
X110573926Y-103345797D01*
X110552691Y-103348947D01*
X110531250Y-103350000D01*
X110093750Y-103350000D01*
X110072309Y-103348947D01*
X110051074Y-103345797D01*
X110030250Y-103340581D01*
X110010038Y-103333349D01*
X109990632Y-103324170D01*
X109972219Y-103313134D01*
X109954976Y-103300346D01*
X109939070Y-103285930D01*
X109924654Y-103270024D01*
X109911866Y-103252781D01*
X109900830Y-103234368D01*
X109891651Y-103214962D01*
X109884419Y-103194750D01*
X109879203Y-103173926D01*
X109876053Y-103152691D01*
X109875000Y-103131250D01*
X109875000Y-102618750D01*
X109876053Y-102597309D01*
X109879203Y-102576074D01*
X109884419Y-102555250D01*
X109891651Y-102535038D01*
X109900830Y-102515632D01*
X109911866Y-102497219D01*
X109924654Y-102479976D01*
X109939070Y-102464070D01*
X109954976Y-102449654D01*
X109972219Y-102436866D01*
X109990632Y-102425830D01*
X110010038Y-102416651D01*
X110030250Y-102409419D01*
X110051074Y-102404203D01*
X110072309Y-102401053D01*
X110093750Y-102400000D01*
X110531250Y-102400000D01*
X110552691Y-102401053D01*
X110552691Y-102401053D01*
G37*
D12*
X110312500Y-102875000D03*
D11*
G36*
X108977691Y-102401053D02*
G01*
X108998926Y-102404203D01*
X109019750Y-102409419D01*
X109039962Y-102416651D01*
X109059368Y-102425830D01*
X109077781Y-102436866D01*
X109095024Y-102449654D01*
X109110930Y-102464070D01*
X109125346Y-102479976D01*
X109138134Y-102497219D01*
X109149170Y-102515632D01*
X109158349Y-102535038D01*
X109165581Y-102555250D01*
X109170797Y-102576074D01*
X109173947Y-102597309D01*
X109175000Y-102618750D01*
X109175000Y-103131250D01*
X109173947Y-103152691D01*
X109170797Y-103173926D01*
X109165581Y-103194750D01*
X109158349Y-103214962D01*
X109149170Y-103234368D01*
X109138134Y-103252781D01*
X109125346Y-103270024D01*
X109110930Y-103285930D01*
X109095024Y-103300346D01*
X109077781Y-103313134D01*
X109059368Y-103324170D01*
X109039962Y-103333349D01*
X109019750Y-103340581D01*
X108998926Y-103345797D01*
X108977691Y-103348947D01*
X108956250Y-103350000D01*
X108518750Y-103350000D01*
X108497309Y-103348947D01*
X108476074Y-103345797D01*
X108455250Y-103340581D01*
X108435038Y-103333349D01*
X108415632Y-103324170D01*
X108397219Y-103313134D01*
X108379976Y-103300346D01*
X108364070Y-103285930D01*
X108349654Y-103270024D01*
X108336866Y-103252781D01*
X108325830Y-103234368D01*
X108316651Y-103214962D01*
X108309419Y-103194750D01*
X108304203Y-103173926D01*
X108301053Y-103152691D01*
X108300000Y-103131250D01*
X108300000Y-102618750D01*
X108301053Y-102597309D01*
X108304203Y-102576074D01*
X108309419Y-102555250D01*
X108316651Y-102535038D01*
X108325830Y-102515632D01*
X108336866Y-102497219D01*
X108349654Y-102479976D01*
X108364070Y-102464070D01*
X108379976Y-102449654D01*
X108397219Y-102436866D01*
X108415632Y-102425830D01*
X108435038Y-102416651D01*
X108455250Y-102409419D01*
X108476074Y-102404203D01*
X108497309Y-102401053D01*
X108518750Y-102400000D01*
X108956250Y-102400000D01*
X108977691Y-102401053D01*
X108977691Y-102401053D01*
G37*
D12*
X108737500Y-102875000D03*
D11*
G36*
X126202691Y-106051053D02*
G01*
X126223926Y-106054203D01*
X126244750Y-106059419D01*
X126264962Y-106066651D01*
X126284368Y-106075830D01*
X126302781Y-106086866D01*
X126320024Y-106099654D01*
X126335930Y-106114070D01*
X126350346Y-106129976D01*
X126363134Y-106147219D01*
X126374170Y-106165632D01*
X126383349Y-106185038D01*
X126390581Y-106205250D01*
X126395797Y-106226074D01*
X126398947Y-106247309D01*
X126400000Y-106268750D01*
X126400000Y-106781250D01*
X126398947Y-106802691D01*
X126395797Y-106823926D01*
X126390581Y-106844750D01*
X126383349Y-106864962D01*
X126374170Y-106884368D01*
X126363134Y-106902781D01*
X126350346Y-106920024D01*
X126335930Y-106935930D01*
X126320024Y-106950346D01*
X126302781Y-106963134D01*
X126284368Y-106974170D01*
X126264962Y-106983349D01*
X126244750Y-106990581D01*
X126223926Y-106995797D01*
X126202691Y-106998947D01*
X126181250Y-107000000D01*
X125743750Y-107000000D01*
X125722309Y-106998947D01*
X125701074Y-106995797D01*
X125680250Y-106990581D01*
X125660038Y-106983349D01*
X125640632Y-106974170D01*
X125622219Y-106963134D01*
X125604976Y-106950346D01*
X125589070Y-106935930D01*
X125574654Y-106920024D01*
X125561866Y-106902781D01*
X125550830Y-106884368D01*
X125541651Y-106864962D01*
X125534419Y-106844750D01*
X125529203Y-106823926D01*
X125526053Y-106802691D01*
X125525000Y-106781250D01*
X125525000Y-106268750D01*
X125526053Y-106247309D01*
X125529203Y-106226074D01*
X125534419Y-106205250D01*
X125541651Y-106185038D01*
X125550830Y-106165632D01*
X125561866Y-106147219D01*
X125574654Y-106129976D01*
X125589070Y-106114070D01*
X125604976Y-106099654D01*
X125622219Y-106086866D01*
X125640632Y-106075830D01*
X125660038Y-106066651D01*
X125680250Y-106059419D01*
X125701074Y-106054203D01*
X125722309Y-106051053D01*
X125743750Y-106050000D01*
X126181250Y-106050000D01*
X126202691Y-106051053D01*
X126202691Y-106051053D01*
G37*
D12*
X125962500Y-106525000D03*
D11*
G36*
X127777691Y-106051053D02*
G01*
X127798926Y-106054203D01*
X127819750Y-106059419D01*
X127839962Y-106066651D01*
X127859368Y-106075830D01*
X127877781Y-106086866D01*
X127895024Y-106099654D01*
X127910930Y-106114070D01*
X127925346Y-106129976D01*
X127938134Y-106147219D01*
X127949170Y-106165632D01*
X127958349Y-106185038D01*
X127965581Y-106205250D01*
X127970797Y-106226074D01*
X127973947Y-106247309D01*
X127975000Y-106268750D01*
X127975000Y-106781250D01*
X127973947Y-106802691D01*
X127970797Y-106823926D01*
X127965581Y-106844750D01*
X127958349Y-106864962D01*
X127949170Y-106884368D01*
X127938134Y-106902781D01*
X127925346Y-106920024D01*
X127910930Y-106935930D01*
X127895024Y-106950346D01*
X127877781Y-106963134D01*
X127859368Y-106974170D01*
X127839962Y-106983349D01*
X127819750Y-106990581D01*
X127798926Y-106995797D01*
X127777691Y-106998947D01*
X127756250Y-107000000D01*
X127318750Y-107000000D01*
X127297309Y-106998947D01*
X127276074Y-106995797D01*
X127255250Y-106990581D01*
X127235038Y-106983349D01*
X127215632Y-106974170D01*
X127197219Y-106963134D01*
X127179976Y-106950346D01*
X127164070Y-106935930D01*
X127149654Y-106920024D01*
X127136866Y-106902781D01*
X127125830Y-106884368D01*
X127116651Y-106864962D01*
X127109419Y-106844750D01*
X127104203Y-106823926D01*
X127101053Y-106802691D01*
X127100000Y-106781250D01*
X127100000Y-106268750D01*
X127101053Y-106247309D01*
X127104203Y-106226074D01*
X127109419Y-106205250D01*
X127116651Y-106185038D01*
X127125830Y-106165632D01*
X127136866Y-106147219D01*
X127149654Y-106129976D01*
X127164070Y-106114070D01*
X127179976Y-106099654D01*
X127197219Y-106086866D01*
X127215632Y-106075830D01*
X127235038Y-106066651D01*
X127255250Y-106059419D01*
X127276074Y-106054203D01*
X127297309Y-106051053D01*
X127318750Y-106050000D01*
X127756250Y-106050000D01*
X127777691Y-106051053D01*
X127777691Y-106051053D01*
G37*
D12*
X127537500Y-106525000D03*
D11*
G36*
X103227691Y-92476053D02*
G01*
X103248926Y-92479203D01*
X103269750Y-92484419D01*
X103289962Y-92491651D01*
X103309368Y-92500830D01*
X103327781Y-92511866D01*
X103345024Y-92524654D01*
X103360930Y-92539070D01*
X103375346Y-92554976D01*
X103388134Y-92572219D01*
X103399170Y-92590632D01*
X103408349Y-92610038D01*
X103415581Y-92630250D01*
X103420797Y-92651074D01*
X103423947Y-92672309D01*
X103425000Y-92693750D01*
X103425000Y-93131250D01*
X103423947Y-93152691D01*
X103420797Y-93173926D01*
X103415581Y-93194750D01*
X103408349Y-93214962D01*
X103399170Y-93234368D01*
X103388134Y-93252781D01*
X103375346Y-93270024D01*
X103360930Y-93285930D01*
X103345024Y-93300346D01*
X103327781Y-93313134D01*
X103309368Y-93324170D01*
X103289962Y-93333349D01*
X103269750Y-93340581D01*
X103248926Y-93345797D01*
X103227691Y-93348947D01*
X103206250Y-93350000D01*
X102693750Y-93350000D01*
X102672309Y-93348947D01*
X102651074Y-93345797D01*
X102630250Y-93340581D01*
X102610038Y-93333349D01*
X102590632Y-93324170D01*
X102572219Y-93313134D01*
X102554976Y-93300346D01*
X102539070Y-93285930D01*
X102524654Y-93270024D01*
X102511866Y-93252781D01*
X102500830Y-93234368D01*
X102491651Y-93214962D01*
X102484419Y-93194750D01*
X102479203Y-93173926D01*
X102476053Y-93152691D01*
X102475000Y-93131250D01*
X102475000Y-92693750D01*
X102476053Y-92672309D01*
X102479203Y-92651074D01*
X102484419Y-92630250D01*
X102491651Y-92610038D01*
X102500830Y-92590632D01*
X102511866Y-92572219D01*
X102524654Y-92554976D01*
X102539070Y-92539070D01*
X102554976Y-92524654D01*
X102572219Y-92511866D01*
X102590632Y-92500830D01*
X102610038Y-92491651D01*
X102630250Y-92484419D01*
X102651074Y-92479203D01*
X102672309Y-92476053D01*
X102693750Y-92475000D01*
X103206250Y-92475000D01*
X103227691Y-92476053D01*
X103227691Y-92476053D01*
G37*
D12*
X102950000Y-92912500D03*
D11*
G36*
X103227691Y-94051053D02*
G01*
X103248926Y-94054203D01*
X103269750Y-94059419D01*
X103289962Y-94066651D01*
X103309368Y-94075830D01*
X103327781Y-94086866D01*
X103345024Y-94099654D01*
X103360930Y-94114070D01*
X103375346Y-94129976D01*
X103388134Y-94147219D01*
X103399170Y-94165632D01*
X103408349Y-94185038D01*
X103415581Y-94205250D01*
X103420797Y-94226074D01*
X103423947Y-94247309D01*
X103425000Y-94268750D01*
X103425000Y-94706250D01*
X103423947Y-94727691D01*
X103420797Y-94748926D01*
X103415581Y-94769750D01*
X103408349Y-94789962D01*
X103399170Y-94809368D01*
X103388134Y-94827781D01*
X103375346Y-94845024D01*
X103360930Y-94860930D01*
X103345024Y-94875346D01*
X103327781Y-94888134D01*
X103309368Y-94899170D01*
X103289962Y-94908349D01*
X103269750Y-94915581D01*
X103248926Y-94920797D01*
X103227691Y-94923947D01*
X103206250Y-94925000D01*
X102693750Y-94925000D01*
X102672309Y-94923947D01*
X102651074Y-94920797D01*
X102630250Y-94915581D01*
X102610038Y-94908349D01*
X102590632Y-94899170D01*
X102572219Y-94888134D01*
X102554976Y-94875346D01*
X102539070Y-94860930D01*
X102524654Y-94845024D01*
X102511866Y-94827781D01*
X102500830Y-94809368D01*
X102491651Y-94789962D01*
X102484419Y-94769750D01*
X102479203Y-94748926D01*
X102476053Y-94727691D01*
X102475000Y-94706250D01*
X102475000Y-94268750D01*
X102476053Y-94247309D01*
X102479203Y-94226074D01*
X102484419Y-94205250D01*
X102491651Y-94185038D01*
X102500830Y-94165632D01*
X102511866Y-94147219D01*
X102524654Y-94129976D01*
X102539070Y-94114070D01*
X102554976Y-94099654D01*
X102572219Y-94086866D01*
X102590632Y-94075830D01*
X102610038Y-94066651D01*
X102630250Y-94059419D01*
X102651074Y-94054203D01*
X102672309Y-94051053D01*
X102693750Y-94050000D01*
X103206250Y-94050000D01*
X103227691Y-94051053D01*
X103227691Y-94051053D01*
G37*
D12*
X102950000Y-94487500D03*
D11*
G36*
X104777691Y-92476053D02*
G01*
X104798926Y-92479203D01*
X104819750Y-92484419D01*
X104839962Y-92491651D01*
X104859368Y-92500830D01*
X104877781Y-92511866D01*
X104895024Y-92524654D01*
X104910930Y-92539070D01*
X104925346Y-92554976D01*
X104938134Y-92572219D01*
X104949170Y-92590632D01*
X104958349Y-92610038D01*
X104965581Y-92630250D01*
X104970797Y-92651074D01*
X104973947Y-92672309D01*
X104975000Y-92693750D01*
X104975000Y-93131250D01*
X104973947Y-93152691D01*
X104970797Y-93173926D01*
X104965581Y-93194750D01*
X104958349Y-93214962D01*
X104949170Y-93234368D01*
X104938134Y-93252781D01*
X104925346Y-93270024D01*
X104910930Y-93285930D01*
X104895024Y-93300346D01*
X104877781Y-93313134D01*
X104859368Y-93324170D01*
X104839962Y-93333349D01*
X104819750Y-93340581D01*
X104798926Y-93345797D01*
X104777691Y-93348947D01*
X104756250Y-93350000D01*
X104243750Y-93350000D01*
X104222309Y-93348947D01*
X104201074Y-93345797D01*
X104180250Y-93340581D01*
X104160038Y-93333349D01*
X104140632Y-93324170D01*
X104122219Y-93313134D01*
X104104976Y-93300346D01*
X104089070Y-93285930D01*
X104074654Y-93270024D01*
X104061866Y-93252781D01*
X104050830Y-93234368D01*
X104041651Y-93214962D01*
X104034419Y-93194750D01*
X104029203Y-93173926D01*
X104026053Y-93152691D01*
X104025000Y-93131250D01*
X104025000Y-92693750D01*
X104026053Y-92672309D01*
X104029203Y-92651074D01*
X104034419Y-92630250D01*
X104041651Y-92610038D01*
X104050830Y-92590632D01*
X104061866Y-92572219D01*
X104074654Y-92554976D01*
X104089070Y-92539070D01*
X104104976Y-92524654D01*
X104122219Y-92511866D01*
X104140632Y-92500830D01*
X104160038Y-92491651D01*
X104180250Y-92484419D01*
X104201074Y-92479203D01*
X104222309Y-92476053D01*
X104243750Y-92475000D01*
X104756250Y-92475000D01*
X104777691Y-92476053D01*
X104777691Y-92476053D01*
G37*
D12*
X104500000Y-92912500D03*
D11*
G36*
X104777691Y-94051053D02*
G01*
X104798926Y-94054203D01*
X104819750Y-94059419D01*
X104839962Y-94066651D01*
X104859368Y-94075830D01*
X104877781Y-94086866D01*
X104895024Y-94099654D01*
X104910930Y-94114070D01*
X104925346Y-94129976D01*
X104938134Y-94147219D01*
X104949170Y-94165632D01*
X104958349Y-94185038D01*
X104965581Y-94205250D01*
X104970797Y-94226074D01*
X104973947Y-94247309D01*
X104975000Y-94268750D01*
X104975000Y-94706250D01*
X104973947Y-94727691D01*
X104970797Y-94748926D01*
X104965581Y-94769750D01*
X104958349Y-94789962D01*
X104949170Y-94809368D01*
X104938134Y-94827781D01*
X104925346Y-94845024D01*
X104910930Y-94860930D01*
X104895024Y-94875346D01*
X104877781Y-94888134D01*
X104859368Y-94899170D01*
X104839962Y-94908349D01*
X104819750Y-94915581D01*
X104798926Y-94920797D01*
X104777691Y-94923947D01*
X104756250Y-94925000D01*
X104243750Y-94925000D01*
X104222309Y-94923947D01*
X104201074Y-94920797D01*
X104180250Y-94915581D01*
X104160038Y-94908349D01*
X104140632Y-94899170D01*
X104122219Y-94888134D01*
X104104976Y-94875346D01*
X104089070Y-94860930D01*
X104074654Y-94845024D01*
X104061866Y-94827781D01*
X104050830Y-94809368D01*
X104041651Y-94789962D01*
X104034419Y-94769750D01*
X104029203Y-94748926D01*
X104026053Y-94727691D01*
X104025000Y-94706250D01*
X104025000Y-94268750D01*
X104026053Y-94247309D01*
X104029203Y-94226074D01*
X104034419Y-94205250D01*
X104041651Y-94185038D01*
X104050830Y-94165632D01*
X104061866Y-94147219D01*
X104074654Y-94129976D01*
X104089070Y-94114070D01*
X104104976Y-94099654D01*
X104122219Y-94086866D01*
X104140632Y-94075830D01*
X104160038Y-94066651D01*
X104180250Y-94059419D01*
X104201074Y-94054203D01*
X104222309Y-94051053D01*
X104243750Y-94050000D01*
X104756250Y-94050000D01*
X104777691Y-94051053D01*
X104777691Y-94051053D01*
G37*
D12*
X104500000Y-94487500D03*
D11*
G36*
X105577691Y-104201053D02*
G01*
X105598926Y-104204203D01*
X105619750Y-104209419D01*
X105639962Y-104216651D01*
X105659368Y-104225830D01*
X105677781Y-104236866D01*
X105695024Y-104249654D01*
X105710930Y-104264070D01*
X105725346Y-104279976D01*
X105738134Y-104297219D01*
X105749170Y-104315632D01*
X105758349Y-104335038D01*
X105765581Y-104355250D01*
X105770797Y-104376074D01*
X105773947Y-104397309D01*
X105775000Y-104418750D01*
X105775000Y-104931250D01*
X105773947Y-104952691D01*
X105770797Y-104973926D01*
X105765581Y-104994750D01*
X105758349Y-105014962D01*
X105749170Y-105034368D01*
X105738134Y-105052781D01*
X105725346Y-105070024D01*
X105710930Y-105085930D01*
X105695024Y-105100346D01*
X105677781Y-105113134D01*
X105659368Y-105124170D01*
X105639962Y-105133349D01*
X105619750Y-105140581D01*
X105598926Y-105145797D01*
X105577691Y-105148947D01*
X105556250Y-105150000D01*
X105118750Y-105150000D01*
X105097309Y-105148947D01*
X105076074Y-105145797D01*
X105055250Y-105140581D01*
X105035038Y-105133349D01*
X105015632Y-105124170D01*
X104997219Y-105113134D01*
X104979976Y-105100346D01*
X104964070Y-105085930D01*
X104949654Y-105070024D01*
X104936866Y-105052781D01*
X104925830Y-105034368D01*
X104916651Y-105014962D01*
X104909419Y-104994750D01*
X104904203Y-104973926D01*
X104901053Y-104952691D01*
X104900000Y-104931250D01*
X104900000Y-104418750D01*
X104901053Y-104397309D01*
X104904203Y-104376074D01*
X104909419Y-104355250D01*
X104916651Y-104335038D01*
X104925830Y-104315632D01*
X104936866Y-104297219D01*
X104949654Y-104279976D01*
X104964070Y-104264070D01*
X104979976Y-104249654D01*
X104997219Y-104236866D01*
X105015632Y-104225830D01*
X105035038Y-104216651D01*
X105055250Y-104209419D01*
X105076074Y-104204203D01*
X105097309Y-104201053D01*
X105118750Y-104200000D01*
X105556250Y-104200000D01*
X105577691Y-104201053D01*
X105577691Y-104201053D01*
G37*
D12*
X105337500Y-104675000D03*
D11*
G36*
X104002691Y-104201053D02*
G01*
X104023926Y-104204203D01*
X104044750Y-104209419D01*
X104064962Y-104216651D01*
X104084368Y-104225830D01*
X104102781Y-104236866D01*
X104120024Y-104249654D01*
X104135930Y-104264070D01*
X104150346Y-104279976D01*
X104163134Y-104297219D01*
X104174170Y-104315632D01*
X104183349Y-104335038D01*
X104190581Y-104355250D01*
X104195797Y-104376074D01*
X104198947Y-104397309D01*
X104200000Y-104418750D01*
X104200000Y-104931250D01*
X104198947Y-104952691D01*
X104195797Y-104973926D01*
X104190581Y-104994750D01*
X104183349Y-105014962D01*
X104174170Y-105034368D01*
X104163134Y-105052781D01*
X104150346Y-105070024D01*
X104135930Y-105085930D01*
X104120024Y-105100346D01*
X104102781Y-105113134D01*
X104084368Y-105124170D01*
X104064962Y-105133349D01*
X104044750Y-105140581D01*
X104023926Y-105145797D01*
X104002691Y-105148947D01*
X103981250Y-105150000D01*
X103543750Y-105150000D01*
X103522309Y-105148947D01*
X103501074Y-105145797D01*
X103480250Y-105140581D01*
X103460038Y-105133349D01*
X103440632Y-105124170D01*
X103422219Y-105113134D01*
X103404976Y-105100346D01*
X103389070Y-105085930D01*
X103374654Y-105070024D01*
X103361866Y-105052781D01*
X103350830Y-105034368D01*
X103341651Y-105014962D01*
X103334419Y-104994750D01*
X103329203Y-104973926D01*
X103326053Y-104952691D01*
X103325000Y-104931250D01*
X103325000Y-104418750D01*
X103326053Y-104397309D01*
X103329203Y-104376074D01*
X103334419Y-104355250D01*
X103341651Y-104335038D01*
X103350830Y-104315632D01*
X103361866Y-104297219D01*
X103374654Y-104279976D01*
X103389070Y-104264070D01*
X103404976Y-104249654D01*
X103422219Y-104236866D01*
X103440632Y-104225830D01*
X103460038Y-104216651D01*
X103480250Y-104209419D01*
X103501074Y-104204203D01*
X103522309Y-104201053D01*
X103543750Y-104200000D01*
X103981250Y-104200000D01*
X104002691Y-104201053D01*
X104002691Y-104201053D01*
G37*
D12*
X103762500Y-104675000D03*
D11*
G36*
X92302691Y-93376053D02*
G01*
X92323926Y-93379203D01*
X92344750Y-93384419D01*
X92364962Y-93391651D01*
X92384368Y-93400830D01*
X92402781Y-93411866D01*
X92420024Y-93424654D01*
X92435930Y-93439070D01*
X92450346Y-93454976D01*
X92463134Y-93472219D01*
X92474170Y-93490632D01*
X92483349Y-93510038D01*
X92490581Y-93530250D01*
X92495797Y-93551074D01*
X92498947Y-93572309D01*
X92500000Y-93593750D01*
X92500000Y-94106250D01*
X92498947Y-94127691D01*
X92495797Y-94148926D01*
X92490581Y-94169750D01*
X92483349Y-94189962D01*
X92474170Y-94209368D01*
X92463134Y-94227781D01*
X92450346Y-94245024D01*
X92435930Y-94260930D01*
X92420024Y-94275346D01*
X92402781Y-94288134D01*
X92384368Y-94299170D01*
X92364962Y-94308349D01*
X92344750Y-94315581D01*
X92323926Y-94320797D01*
X92302691Y-94323947D01*
X92281250Y-94325000D01*
X91843750Y-94325000D01*
X91822309Y-94323947D01*
X91801074Y-94320797D01*
X91780250Y-94315581D01*
X91760038Y-94308349D01*
X91740632Y-94299170D01*
X91722219Y-94288134D01*
X91704976Y-94275346D01*
X91689070Y-94260930D01*
X91674654Y-94245024D01*
X91661866Y-94227781D01*
X91650830Y-94209368D01*
X91641651Y-94189962D01*
X91634419Y-94169750D01*
X91629203Y-94148926D01*
X91626053Y-94127691D01*
X91625000Y-94106250D01*
X91625000Y-93593750D01*
X91626053Y-93572309D01*
X91629203Y-93551074D01*
X91634419Y-93530250D01*
X91641651Y-93510038D01*
X91650830Y-93490632D01*
X91661866Y-93472219D01*
X91674654Y-93454976D01*
X91689070Y-93439070D01*
X91704976Y-93424654D01*
X91722219Y-93411866D01*
X91740632Y-93400830D01*
X91760038Y-93391651D01*
X91780250Y-93384419D01*
X91801074Y-93379203D01*
X91822309Y-93376053D01*
X91843750Y-93375000D01*
X92281250Y-93375000D01*
X92302691Y-93376053D01*
X92302691Y-93376053D01*
G37*
D12*
X92062500Y-93850000D03*
D11*
G36*
X93877691Y-93376053D02*
G01*
X93898926Y-93379203D01*
X93919750Y-93384419D01*
X93939962Y-93391651D01*
X93959368Y-93400830D01*
X93977781Y-93411866D01*
X93995024Y-93424654D01*
X94010930Y-93439070D01*
X94025346Y-93454976D01*
X94038134Y-93472219D01*
X94049170Y-93490632D01*
X94058349Y-93510038D01*
X94065581Y-93530250D01*
X94070797Y-93551074D01*
X94073947Y-93572309D01*
X94075000Y-93593750D01*
X94075000Y-94106250D01*
X94073947Y-94127691D01*
X94070797Y-94148926D01*
X94065581Y-94169750D01*
X94058349Y-94189962D01*
X94049170Y-94209368D01*
X94038134Y-94227781D01*
X94025346Y-94245024D01*
X94010930Y-94260930D01*
X93995024Y-94275346D01*
X93977781Y-94288134D01*
X93959368Y-94299170D01*
X93939962Y-94308349D01*
X93919750Y-94315581D01*
X93898926Y-94320797D01*
X93877691Y-94323947D01*
X93856250Y-94325000D01*
X93418750Y-94325000D01*
X93397309Y-94323947D01*
X93376074Y-94320797D01*
X93355250Y-94315581D01*
X93335038Y-94308349D01*
X93315632Y-94299170D01*
X93297219Y-94288134D01*
X93279976Y-94275346D01*
X93264070Y-94260930D01*
X93249654Y-94245024D01*
X93236866Y-94227781D01*
X93225830Y-94209368D01*
X93216651Y-94189962D01*
X93209419Y-94169750D01*
X93204203Y-94148926D01*
X93201053Y-94127691D01*
X93200000Y-94106250D01*
X93200000Y-93593750D01*
X93201053Y-93572309D01*
X93204203Y-93551074D01*
X93209419Y-93530250D01*
X93216651Y-93510038D01*
X93225830Y-93490632D01*
X93236866Y-93472219D01*
X93249654Y-93454976D01*
X93264070Y-93439070D01*
X93279976Y-93424654D01*
X93297219Y-93411866D01*
X93315632Y-93400830D01*
X93335038Y-93391651D01*
X93355250Y-93384419D01*
X93376074Y-93379203D01*
X93397309Y-93376053D01*
X93418750Y-93375000D01*
X93856250Y-93375000D01*
X93877691Y-93376053D01*
X93877691Y-93376053D01*
G37*
D12*
X93637500Y-93850000D03*
D11*
G36*
X104002691Y-105701053D02*
G01*
X104023926Y-105704203D01*
X104044750Y-105709419D01*
X104064962Y-105716651D01*
X104084368Y-105725830D01*
X104102781Y-105736866D01*
X104120024Y-105749654D01*
X104135930Y-105764070D01*
X104150346Y-105779976D01*
X104163134Y-105797219D01*
X104174170Y-105815632D01*
X104183349Y-105835038D01*
X104190581Y-105855250D01*
X104195797Y-105876074D01*
X104198947Y-105897309D01*
X104200000Y-105918750D01*
X104200000Y-106431250D01*
X104198947Y-106452691D01*
X104195797Y-106473926D01*
X104190581Y-106494750D01*
X104183349Y-106514962D01*
X104174170Y-106534368D01*
X104163134Y-106552781D01*
X104150346Y-106570024D01*
X104135930Y-106585930D01*
X104120024Y-106600346D01*
X104102781Y-106613134D01*
X104084368Y-106624170D01*
X104064962Y-106633349D01*
X104044750Y-106640581D01*
X104023926Y-106645797D01*
X104002691Y-106648947D01*
X103981250Y-106650000D01*
X103543750Y-106650000D01*
X103522309Y-106648947D01*
X103501074Y-106645797D01*
X103480250Y-106640581D01*
X103460038Y-106633349D01*
X103440632Y-106624170D01*
X103422219Y-106613134D01*
X103404976Y-106600346D01*
X103389070Y-106585930D01*
X103374654Y-106570024D01*
X103361866Y-106552781D01*
X103350830Y-106534368D01*
X103341651Y-106514962D01*
X103334419Y-106494750D01*
X103329203Y-106473926D01*
X103326053Y-106452691D01*
X103325000Y-106431250D01*
X103325000Y-105918750D01*
X103326053Y-105897309D01*
X103329203Y-105876074D01*
X103334419Y-105855250D01*
X103341651Y-105835038D01*
X103350830Y-105815632D01*
X103361866Y-105797219D01*
X103374654Y-105779976D01*
X103389070Y-105764070D01*
X103404976Y-105749654D01*
X103422219Y-105736866D01*
X103440632Y-105725830D01*
X103460038Y-105716651D01*
X103480250Y-105709419D01*
X103501074Y-105704203D01*
X103522309Y-105701053D01*
X103543750Y-105700000D01*
X103981250Y-105700000D01*
X104002691Y-105701053D01*
X104002691Y-105701053D01*
G37*
D12*
X103762500Y-106175000D03*
D11*
G36*
X105577691Y-105701053D02*
G01*
X105598926Y-105704203D01*
X105619750Y-105709419D01*
X105639962Y-105716651D01*
X105659368Y-105725830D01*
X105677781Y-105736866D01*
X105695024Y-105749654D01*
X105710930Y-105764070D01*
X105725346Y-105779976D01*
X105738134Y-105797219D01*
X105749170Y-105815632D01*
X105758349Y-105835038D01*
X105765581Y-105855250D01*
X105770797Y-105876074D01*
X105773947Y-105897309D01*
X105775000Y-105918750D01*
X105775000Y-106431250D01*
X105773947Y-106452691D01*
X105770797Y-106473926D01*
X105765581Y-106494750D01*
X105758349Y-106514962D01*
X105749170Y-106534368D01*
X105738134Y-106552781D01*
X105725346Y-106570024D01*
X105710930Y-106585930D01*
X105695024Y-106600346D01*
X105677781Y-106613134D01*
X105659368Y-106624170D01*
X105639962Y-106633349D01*
X105619750Y-106640581D01*
X105598926Y-106645797D01*
X105577691Y-106648947D01*
X105556250Y-106650000D01*
X105118750Y-106650000D01*
X105097309Y-106648947D01*
X105076074Y-106645797D01*
X105055250Y-106640581D01*
X105035038Y-106633349D01*
X105015632Y-106624170D01*
X104997219Y-106613134D01*
X104979976Y-106600346D01*
X104964070Y-106585930D01*
X104949654Y-106570024D01*
X104936866Y-106552781D01*
X104925830Y-106534368D01*
X104916651Y-106514962D01*
X104909419Y-106494750D01*
X104904203Y-106473926D01*
X104901053Y-106452691D01*
X104900000Y-106431250D01*
X104900000Y-105918750D01*
X104901053Y-105897309D01*
X104904203Y-105876074D01*
X104909419Y-105855250D01*
X104916651Y-105835038D01*
X104925830Y-105815632D01*
X104936866Y-105797219D01*
X104949654Y-105779976D01*
X104964070Y-105764070D01*
X104979976Y-105749654D01*
X104997219Y-105736866D01*
X105015632Y-105725830D01*
X105035038Y-105716651D01*
X105055250Y-105709419D01*
X105076074Y-105704203D01*
X105097309Y-105701053D01*
X105118750Y-105700000D01*
X105556250Y-105700000D01*
X105577691Y-105701053D01*
X105577691Y-105701053D01*
G37*
D12*
X105337500Y-106175000D03*
D11*
G36*
X105577691Y-102701053D02*
G01*
X105598926Y-102704203D01*
X105619750Y-102709419D01*
X105639962Y-102716651D01*
X105659368Y-102725830D01*
X105677781Y-102736866D01*
X105695024Y-102749654D01*
X105710930Y-102764070D01*
X105725346Y-102779976D01*
X105738134Y-102797219D01*
X105749170Y-102815632D01*
X105758349Y-102835038D01*
X105765581Y-102855250D01*
X105770797Y-102876074D01*
X105773947Y-102897309D01*
X105775000Y-102918750D01*
X105775000Y-103431250D01*
X105773947Y-103452691D01*
X105770797Y-103473926D01*
X105765581Y-103494750D01*
X105758349Y-103514962D01*
X105749170Y-103534368D01*
X105738134Y-103552781D01*
X105725346Y-103570024D01*
X105710930Y-103585930D01*
X105695024Y-103600346D01*
X105677781Y-103613134D01*
X105659368Y-103624170D01*
X105639962Y-103633349D01*
X105619750Y-103640581D01*
X105598926Y-103645797D01*
X105577691Y-103648947D01*
X105556250Y-103650000D01*
X105118750Y-103650000D01*
X105097309Y-103648947D01*
X105076074Y-103645797D01*
X105055250Y-103640581D01*
X105035038Y-103633349D01*
X105015632Y-103624170D01*
X104997219Y-103613134D01*
X104979976Y-103600346D01*
X104964070Y-103585930D01*
X104949654Y-103570024D01*
X104936866Y-103552781D01*
X104925830Y-103534368D01*
X104916651Y-103514962D01*
X104909419Y-103494750D01*
X104904203Y-103473926D01*
X104901053Y-103452691D01*
X104900000Y-103431250D01*
X104900000Y-102918750D01*
X104901053Y-102897309D01*
X104904203Y-102876074D01*
X104909419Y-102855250D01*
X104916651Y-102835038D01*
X104925830Y-102815632D01*
X104936866Y-102797219D01*
X104949654Y-102779976D01*
X104964070Y-102764070D01*
X104979976Y-102749654D01*
X104997219Y-102736866D01*
X105015632Y-102725830D01*
X105035038Y-102716651D01*
X105055250Y-102709419D01*
X105076074Y-102704203D01*
X105097309Y-102701053D01*
X105118750Y-102700000D01*
X105556250Y-102700000D01*
X105577691Y-102701053D01*
X105577691Y-102701053D01*
G37*
D12*
X105337500Y-103175000D03*
D11*
G36*
X104002691Y-102701053D02*
G01*
X104023926Y-102704203D01*
X104044750Y-102709419D01*
X104064962Y-102716651D01*
X104084368Y-102725830D01*
X104102781Y-102736866D01*
X104120024Y-102749654D01*
X104135930Y-102764070D01*
X104150346Y-102779976D01*
X104163134Y-102797219D01*
X104174170Y-102815632D01*
X104183349Y-102835038D01*
X104190581Y-102855250D01*
X104195797Y-102876074D01*
X104198947Y-102897309D01*
X104200000Y-102918750D01*
X104200000Y-103431250D01*
X104198947Y-103452691D01*
X104195797Y-103473926D01*
X104190581Y-103494750D01*
X104183349Y-103514962D01*
X104174170Y-103534368D01*
X104163134Y-103552781D01*
X104150346Y-103570024D01*
X104135930Y-103585930D01*
X104120024Y-103600346D01*
X104102781Y-103613134D01*
X104084368Y-103624170D01*
X104064962Y-103633349D01*
X104044750Y-103640581D01*
X104023926Y-103645797D01*
X104002691Y-103648947D01*
X103981250Y-103650000D01*
X103543750Y-103650000D01*
X103522309Y-103648947D01*
X103501074Y-103645797D01*
X103480250Y-103640581D01*
X103460038Y-103633349D01*
X103440632Y-103624170D01*
X103422219Y-103613134D01*
X103404976Y-103600346D01*
X103389070Y-103585930D01*
X103374654Y-103570024D01*
X103361866Y-103552781D01*
X103350830Y-103534368D01*
X103341651Y-103514962D01*
X103334419Y-103494750D01*
X103329203Y-103473926D01*
X103326053Y-103452691D01*
X103325000Y-103431250D01*
X103325000Y-102918750D01*
X103326053Y-102897309D01*
X103329203Y-102876074D01*
X103334419Y-102855250D01*
X103341651Y-102835038D01*
X103350830Y-102815632D01*
X103361866Y-102797219D01*
X103374654Y-102779976D01*
X103389070Y-102764070D01*
X103404976Y-102749654D01*
X103422219Y-102736866D01*
X103440632Y-102725830D01*
X103460038Y-102716651D01*
X103480250Y-102709419D01*
X103501074Y-102704203D01*
X103522309Y-102701053D01*
X103543750Y-102700000D01*
X103981250Y-102700000D01*
X104002691Y-102701053D01*
X104002691Y-102701053D01*
G37*
D12*
X103762500Y-103175000D03*
D11*
G36*
X105577691Y-98851053D02*
G01*
X105598926Y-98854203D01*
X105619750Y-98859419D01*
X105639962Y-98866651D01*
X105659368Y-98875830D01*
X105677781Y-98886866D01*
X105695024Y-98899654D01*
X105710930Y-98914070D01*
X105725346Y-98929976D01*
X105738134Y-98947219D01*
X105749170Y-98965632D01*
X105758349Y-98985038D01*
X105765581Y-99005250D01*
X105770797Y-99026074D01*
X105773947Y-99047309D01*
X105775000Y-99068750D01*
X105775000Y-99581250D01*
X105773947Y-99602691D01*
X105770797Y-99623926D01*
X105765581Y-99644750D01*
X105758349Y-99664962D01*
X105749170Y-99684368D01*
X105738134Y-99702781D01*
X105725346Y-99720024D01*
X105710930Y-99735930D01*
X105695024Y-99750346D01*
X105677781Y-99763134D01*
X105659368Y-99774170D01*
X105639962Y-99783349D01*
X105619750Y-99790581D01*
X105598926Y-99795797D01*
X105577691Y-99798947D01*
X105556250Y-99800000D01*
X105118750Y-99800000D01*
X105097309Y-99798947D01*
X105076074Y-99795797D01*
X105055250Y-99790581D01*
X105035038Y-99783349D01*
X105015632Y-99774170D01*
X104997219Y-99763134D01*
X104979976Y-99750346D01*
X104964070Y-99735930D01*
X104949654Y-99720024D01*
X104936866Y-99702781D01*
X104925830Y-99684368D01*
X104916651Y-99664962D01*
X104909419Y-99644750D01*
X104904203Y-99623926D01*
X104901053Y-99602691D01*
X104900000Y-99581250D01*
X104900000Y-99068750D01*
X104901053Y-99047309D01*
X104904203Y-99026074D01*
X104909419Y-99005250D01*
X104916651Y-98985038D01*
X104925830Y-98965632D01*
X104936866Y-98947219D01*
X104949654Y-98929976D01*
X104964070Y-98914070D01*
X104979976Y-98899654D01*
X104997219Y-98886866D01*
X105015632Y-98875830D01*
X105035038Y-98866651D01*
X105055250Y-98859419D01*
X105076074Y-98854203D01*
X105097309Y-98851053D01*
X105118750Y-98850000D01*
X105556250Y-98850000D01*
X105577691Y-98851053D01*
X105577691Y-98851053D01*
G37*
D12*
X105337500Y-99325000D03*
D11*
G36*
X104002691Y-98851053D02*
G01*
X104023926Y-98854203D01*
X104044750Y-98859419D01*
X104064962Y-98866651D01*
X104084368Y-98875830D01*
X104102781Y-98886866D01*
X104120024Y-98899654D01*
X104135930Y-98914070D01*
X104150346Y-98929976D01*
X104163134Y-98947219D01*
X104174170Y-98965632D01*
X104183349Y-98985038D01*
X104190581Y-99005250D01*
X104195797Y-99026074D01*
X104198947Y-99047309D01*
X104200000Y-99068750D01*
X104200000Y-99581250D01*
X104198947Y-99602691D01*
X104195797Y-99623926D01*
X104190581Y-99644750D01*
X104183349Y-99664962D01*
X104174170Y-99684368D01*
X104163134Y-99702781D01*
X104150346Y-99720024D01*
X104135930Y-99735930D01*
X104120024Y-99750346D01*
X104102781Y-99763134D01*
X104084368Y-99774170D01*
X104064962Y-99783349D01*
X104044750Y-99790581D01*
X104023926Y-99795797D01*
X104002691Y-99798947D01*
X103981250Y-99800000D01*
X103543750Y-99800000D01*
X103522309Y-99798947D01*
X103501074Y-99795797D01*
X103480250Y-99790581D01*
X103460038Y-99783349D01*
X103440632Y-99774170D01*
X103422219Y-99763134D01*
X103404976Y-99750346D01*
X103389070Y-99735930D01*
X103374654Y-99720024D01*
X103361866Y-99702781D01*
X103350830Y-99684368D01*
X103341651Y-99664962D01*
X103334419Y-99644750D01*
X103329203Y-99623926D01*
X103326053Y-99602691D01*
X103325000Y-99581250D01*
X103325000Y-99068750D01*
X103326053Y-99047309D01*
X103329203Y-99026074D01*
X103334419Y-99005250D01*
X103341651Y-98985038D01*
X103350830Y-98965632D01*
X103361866Y-98947219D01*
X103374654Y-98929976D01*
X103389070Y-98914070D01*
X103404976Y-98899654D01*
X103422219Y-98886866D01*
X103440632Y-98875830D01*
X103460038Y-98866651D01*
X103480250Y-98859419D01*
X103501074Y-98854203D01*
X103522309Y-98851053D01*
X103543750Y-98850000D01*
X103981250Y-98850000D01*
X104002691Y-98851053D01*
X104002691Y-98851053D01*
G37*
D12*
X103762500Y-99325000D03*
D11*
G36*
X63027691Y-92936053D02*
G01*
X63048926Y-92939203D01*
X63069750Y-92944419D01*
X63089962Y-92951651D01*
X63109368Y-92960830D01*
X63127781Y-92971866D01*
X63145024Y-92984654D01*
X63160930Y-92999070D01*
X63175346Y-93014976D01*
X63188134Y-93032219D01*
X63199170Y-93050632D01*
X63208349Y-93070038D01*
X63215581Y-93090250D01*
X63220797Y-93111074D01*
X63223947Y-93132309D01*
X63225000Y-93153750D01*
X63225000Y-93666250D01*
X63223947Y-93687691D01*
X63220797Y-93708926D01*
X63215581Y-93729750D01*
X63208349Y-93749962D01*
X63199170Y-93769368D01*
X63188134Y-93787781D01*
X63175346Y-93805024D01*
X63160930Y-93820930D01*
X63145024Y-93835346D01*
X63127781Y-93848134D01*
X63109368Y-93859170D01*
X63089962Y-93868349D01*
X63069750Y-93875581D01*
X63048926Y-93880797D01*
X63027691Y-93883947D01*
X63006250Y-93885000D01*
X62568750Y-93885000D01*
X62547309Y-93883947D01*
X62526074Y-93880797D01*
X62505250Y-93875581D01*
X62485038Y-93868349D01*
X62465632Y-93859170D01*
X62447219Y-93848134D01*
X62429976Y-93835346D01*
X62414070Y-93820930D01*
X62399654Y-93805024D01*
X62386866Y-93787781D01*
X62375830Y-93769368D01*
X62366651Y-93749962D01*
X62359419Y-93729750D01*
X62354203Y-93708926D01*
X62351053Y-93687691D01*
X62350000Y-93666250D01*
X62350000Y-93153750D01*
X62351053Y-93132309D01*
X62354203Y-93111074D01*
X62359419Y-93090250D01*
X62366651Y-93070038D01*
X62375830Y-93050632D01*
X62386866Y-93032219D01*
X62399654Y-93014976D01*
X62414070Y-92999070D01*
X62429976Y-92984654D01*
X62447219Y-92971866D01*
X62465632Y-92960830D01*
X62485038Y-92951651D01*
X62505250Y-92944419D01*
X62526074Y-92939203D01*
X62547309Y-92936053D01*
X62568750Y-92935000D01*
X63006250Y-92935000D01*
X63027691Y-92936053D01*
X63027691Y-92936053D01*
G37*
D12*
X62787500Y-93410000D03*
D11*
G36*
X61452691Y-92936053D02*
G01*
X61473926Y-92939203D01*
X61494750Y-92944419D01*
X61514962Y-92951651D01*
X61534368Y-92960830D01*
X61552781Y-92971866D01*
X61570024Y-92984654D01*
X61585930Y-92999070D01*
X61600346Y-93014976D01*
X61613134Y-93032219D01*
X61624170Y-93050632D01*
X61633349Y-93070038D01*
X61640581Y-93090250D01*
X61645797Y-93111074D01*
X61648947Y-93132309D01*
X61650000Y-93153750D01*
X61650000Y-93666250D01*
X61648947Y-93687691D01*
X61645797Y-93708926D01*
X61640581Y-93729750D01*
X61633349Y-93749962D01*
X61624170Y-93769368D01*
X61613134Y-93787781D01*
X61600346Y-93805024D01*
X61585930Y-93820930D01*
X61570024Y-93835346D01*
X61552781Y-93848134D01*
X61534368Y-93859170D01*
X61514962Y-93868349D01*
X61494750Y-93875581D01*
X61473926Y-93880797D01*
X61452691Y-93883947D01*
X61431250Y-93885000D01*
X60993750Y-93885000D01*
X60972309Y-93883947D01*
X60951074Y-93880797D01*
X60930250Y-93875581D01*
X60910038Y-93868349D01*
X60890632Y-93859170D01*
X60872219Y-93848134D01*
X60854976Y-93835346D01*
X60839070Y-93820930D01*
X60824654Y-93805024D01*
X60811866Y-93787781D01*
X60800830Y-93769368D01*
X60791651Y-93749962D01*
X60784419Y-93729750D01*
X60779203Y-93708926D01*
X60776053Y-93687691D01*
X60775000Y-93666250D01*
X60775000Y-93153750D01*
X60776053Y-93132309D01*
X60779203Y-93111074D01*
X60784419Y-93090250D01*
X60791651Y-93070038D01*
X60800830Y-93050632D01*
X60811866Y-93032219D01*
X60824654Y-93014976D01*
X60839070Y-92999070D01*
X60854976Y-92984654D01*
X60872219Y-92971866D01*
X60890632Y-92960830D01*
X60910038Y-92951651D01*
X60930250Y-92944419D01*
X60951074Y-92939203D01*
X60972309Y-92936053D01*
X60993750Y-92935000D01*
X61431250Y-92935000D01*
X61452691Y-92936053D01*
X61452691Y-92936053D01*
G37*
D12*
X61212500Y-93410000D03*
D25*
X103650000Y-101250000D03*
X106150000Y-101250000D03*
D26*
X79700000Y-105600000D03*
D27*
X82240000Y-105600000D03*
X84780000Y-105600000D03*
X87320000Y-105600000D03*
X89860000Y-105600000D03*
D11*
G36*
X63458329Y-94501023D02*
G01*
X63478957Y-94504083D01*
X63499185Y-94509150D01*
X63518820Y-94516176D01*
X63537672Y-94525092D01*
X63555559Y-94535813D01*
X63572309Y-94548235D01*
X63587760Y-94562240D01*
X63601765Y-94577691D01*
X63614187Y-94594441D01*
X63624908Y-94612328D01*
X63633824Y-94631180D01*
X63640850Y-94650815D01*
X63645917Y-94671043D01*
X63648977Y-94691671D01*
X63650000Y-94712500D01*
X63650000Y-95137500D01*
X63648977Y-95158329D01*
X63645917Y-95178957D01*
X63640850Y-95199185D01*
X63633824Y-95218820D01*
X63624908Y-95237672D01*
X63614187Y-95255559D01*
X63601765Y-95272309D01*
X63587760Y-95287760D01*
X63572309Y-95301765D01*
X63555559Y-95314187D01*
X63537672Y-95324908D01*
X63518820Y-95333824D01*
X63499185Y-95340850D01*
X63478957Y-95345917D01*
X63458329Y-95348977D01*
X63437500Y-95350000D01*
X62637500Y-95350000D01*
X62616671Y-95348977D01*
X62596043Y-95345917D01*
X62575815Y-95340850D01*
X62556180Y-95333824D01*
X62537328Y-95324908D01*
X62519441Y-95314187D01*
X62502691Y-95301765D01*
X62487240Y-95287760D01*
X62473235Y-95272309D01*
X62460813Y-95255559D01*
X62450092Y-95237672D01*
X62441176Y-95218820D01*
X62434150Y-95199185D01*
X62429083Y-95178957D01*
X62426023Y-95158329D01*
X62425000Y-95137500D01*
X62425000Y-94712500D01*
X62426023Y-94691671D01*
X62429083Y-94671043D01*
X62434150Y-94650815D01*
X62441176Y-94631180D01*
X62450092Y-94612328D01*
X62460813Y-94594441D01*
X62473235Y-94577691D01*
X62487240Y-94562240D01*
X62502691Y-94548235D01*
X62519441Y-94535813D01*
X62537328Y-94525092D01*
X62556180Y-94516176D01*
X62575815Y-94509150D01*
X62596043Y-94504083D01*
X62616671Y-94501023D01*
X62637500Y-94500000D01*
X63437500Y-94500000D01*
X63458329Y-94501023D01*
X63458329Y-94501023D01*
G37*
D28*
X63037500Y-94925000D03*
D11*
G36*
X61833329Y-94501023D02*
G01*
X61853957Y-94504083D01*
X61874185Y-94509150D01*
X61893820Y-94516176D01*
X61912672Y-94525092D01*
X61930559Y-94535813D01*
X61947309Y-94548235D01*
X61962760Y-94562240D01*
X61976765Y-94577691D01*
X61989187Y-94594441D01*
X61999908Y-94612328D01*
X62008824Y-94631180D01*
X62015850Y-94650815D01*
X62020917Y-94671043D01*
X62023977Y-94691671D01*
X62025000Y-94712500D01*
X62025000Y-95137500D01*
X62023977Y-95158329D01*
X62020917Y-95178957D01*
X62015850Y-95199185D01*
X62008824Y-95218820D01*
X61999908Y-95237672D01*
X61989187Y-95255559D01*
X61976765Y-95272309D01*
X61962760Y-95287760D01*
X61947309Y-95301765D01*
X61930559Y-95314187D01*
X61912672Y-95324908D01*
X61893820Y-95333824D01*
X61874185Y-95340850D01*
X61853957Y-95345917D01*
X61833329Y-95348977D01*
X61812500Y-95350000D01*
X61012500Y-95350000D01*
X60991671Y-95348977D01*
X60971043Y-95345917D01*
X60950815Y-95340850D01*
X60931180Y-95333824D01*
X60912328Y-95324908D01*
X60894441Y-95314187D01*
X60877691Y-95301765D01*
X60862240Y-95287760D01*
X60848235Y-95272309D01*
X60835813Y-95255559D01*
X60825092Y-95237672D01*
X60816176Y-95218820D01*
X60809150Y-95199185D01*
X60804083Y-95178957D01*
X60801023Y-95158329D01*
X60800000Y-95137500D01*
X60800000Y-94712500D01*
X60801023Y-94691671D01*
X60804083Y-94671043D01*
X60809150Y-94650815D01*
X60816176Y-94631180D01*
X60825092Y-94612328D01*
X60835813Y-94594441D01*
X60848235Y-94577691D01*
X60862240Y-94562240D01*
X60877691Y-94548235D01*
X60894441Y-94535813D01*
X60912328Y-94525092D01*
X60931180Y-94516176D01*
X60950815Y-94509150D01*
X60971043Y-94504083D01*
X60991671Y-94501023D01*
X61012500Y-94500000D01*
X61812500Y-94500000D01*
X61833329Y-94501023D01*
X61833329Y-94501023D01*
G37*
D28*
X61412500Y-94925000D03*
D29*
X120400000Y-99400000D03*
X121350000Y-101400000D03*
X119450000Y-101400000D03*
X112175000Y-101375000D03*
X114075000Y-101375000D03*
X113125000Y-99375000D03*
D26*
X112700000Y-105600000D03*
D27*
X115240000Y-105600000D03*
X117780000Y-105600000D03*
X120320000Y-105600000D03*
D29*
X109500000Y-99375000D03*
X110450000Y-101375000D03*
X108550000Y-101375000D03*
D11*
G36*
X133083329Y-92951023D02*
G01*
X133103957Y-92954083D01*
X133124185Y-92959150D01*
X133143820Y-92966176D01*
X133162672Y-92975092D01*
X133180559Y-92985813D01*
X133197309Y-92998235D01*
X133212760Y-93012240D01*
X133226765Y-93027691D01*
X133239187Y-93044441D01*
X133249908Y-93062328D01*
X133258824Y-93081180D01*
X133265850Y-93100815D01*
X133270917Y-93121043D01*
X133273977Y-93141671D01*
X133275000Y-93162500D01*
X133275000Y-93587500D01*
X133273977Y-93608329D01*
X133270917Y-93628957D01*
X133265850Y-93649185D01*
X133258824Y-93668820D01*
X133249908Y-93687672D01*
X133239187Y-93705559D01*
X133226765Y-93722309D01*
X133212760Y-93737760D01*
X133197309Y-93751765D01*
X133180559Y-93764187D01*
X133162672Y-93774908D01*
X133143820Y-93783824D01*
X133124185Y-93790850D01*
X133103957Y-93795917D01*
X133083329Y-93798977D01*
X133062500Y-93800000D01*
X132262500Y-93800000D01*
X132241671Y-93798977D01*
X132221043Y-93795917D01*
X132200815Y-93790850D01*
X132181180Y-93783824D01*
X132162328Y-93774908D01*
X132144441Y-93764187D01*
X132127691Y-93751765D01*
X132112240Y-93737760D01*
X132098235Y-93722309D01*
X132085813Y-93705559D01*
X132075092Y-93687672D01*
X132066176Y-93668820D01*
X132059150Y-93649185D01*
X132054083Y-93628957D01*
X132051023Y-93608329D01*
X132050000Y-93587500D01*
X132050000Y-93162500D01*
X132051023Y-93141671D01*
X132054083Y-93121043D01*
X132059150Y-93100815D01*
X132066176Y-93081180D01*
X132075092Y-93062328D01*
X132085813Y-93044441D01*
X132098235Y-93027691D01*
X132112240Y-93012240D01*
X132127691Y-92998235D01*
X132144441Y-92985813D01*
X132162328Y-92975092D01*
X132181180Y-92966176D01*
X132200815Y-92959150D01*
X132221043Y-92954083D01*
X132241671Y-92951023D01*
X132262500Y-92950000D01*
X133062500Y-92950000D01*
X133083329Y-92951023D01*
X133083329Y-92951023D01*
G37*
D28*
X132662500Y-93375000D03*
D11*
G36*
X134708329Y-92951023D02*
G01*
X134728957Y-92954083D01*
X134749185Y-92959150D01*
X134768820Y-92966176D01*
X134787672Y-92975092D01*
X134805559Y-92985813D01*
X134822309Y-92998235D01*
X134837760Y-93012240D01*
X134851765Y-93027691D01*
X134864187Y-93044441D01*
X134874908Y-93062328D01*
X134883824Y-93081180D01*
X134890850Y-93100815D01*
X134895917Y-93121043D01*
X134898977Y-93141671D01*
X134900000Y-93162500D01*
X134900000Y-93587500D01*
X134898977Y-93608329D01*
X134895917Y-93628957D01*
X134890850Y-93649185D01*
X134883824Y-93668820D01*
X134874908Y-93687672D01*
X134864187Y-93705559D01*
X134851765Y-93722309D01*
X134837760Y-93737760D01*
X134822309Y-93751765D01*
X134805559Y-93764187D01*
X134787672Y-93774908D01*
X134768820Y-93783824D01*
X134749185Y-93790850D01*
X134728957Y-93795917D01*
X134708329Y-93798977D01*
X134687500Y-93800000D01*
X133887500Y-93800000D01*
X133866671Y-93798977D01*
X133846043Y-93795917D01*
X133825815Y-93790850D01*
X133806180Y-93783824D01*
X133787328Y-93774908D01*
X133769441Y-93764187D01*
X133752691Y-93751765D01*
X133737240Y-93737760D01*
X133723235Y-93722309D01*
X133710813Y-93705559D01*
X133700092Y-93687672D01*
X133691176Y-93668820D01*
X133684150Y-93649185D01*
X133679083Y-93628957D01*
X133676023Y-93608329D01*
X133675000Y-93587500D01*
X133675000Y-93162500D01*
X133676023Y-93141671D01*
X133679083Y-93121043D01*
X133684150Y-93100815D01*
X133691176Y-93081180D01*
X133700092Y-93062328D01*
X133710813Y-93044441D01*
X133723235Y-93027691D01*
X133737240Y-93012240D01*
X133752691Y-92998235D01*
X133769441Y-92985813D01*
X133787328Y-92975092D01*
X133806180Y-92966176D01*
X133825815Y-92959150D01*
X133846043Y-92954083D01*
X133866671Y-92951023D01*
X133887500Y-92950000D01*
X134687500Y-92950000D01*
X134708329Y-92951023D01*
X134708329Y-92951023D01*
G37*
D28*
X134287500Y-93375000D03*
D30*
X90650000Y-100000000D03*
X88650000Y-100950000D03*
X88650000Y-99050000D03*
D29*
X115800000Y-101375000D03*
X117700000Y-101375000D03*
X116750000Y-99375000D03*
D26*
X120300000Y-95450000D03*
D27*
X117760000Y-95450000D03*
X115220000Y-95450000D03*
X112680000Y-95450000D03*
X110140000Y-95450000D03*
D26*
X79700000Y-95450000D03*
D27*
X82240000Y-95450000D03*
X84780000Y-95450000D03*
X87320000Y-95450000D03*
X89860000Y-95450000D03*
D31*
X121350000Y-100550000D03*
X111050000Y-102050000D03*
X126050000Y-105750000D03*
X134150000Y-105800000D03*
D32*
X135275000Y-93053090D03*
D31*
X110200000Y-93600000D03*
X113800000Y-93600000D03*
X119000000Y-93650000D03*
X150900000Y-94650000D03*
X106625000Y-93575000D03*
D32*
X127350000Y-94750000D03*
D31*
X127550000Y-105625000D03*
X99275000Y-101525000D03*
X94200000Y-94575000D03*
X100450000Y-101625000D03*
X105325000Y-103925000D03*
X106275000Y-99775000D03*
X80362500Y-101612500D03*
X89500000Y-99050000D03*
X85750000Y-101850000D03*
X103800001Y-93050001D03*
X93050000Y-94975000D03*
X128900000Y-92500000D03*
X60850000Y-106375000D03*
X92375000Y-100600000D03*
X94650000Y-101350000D03*
X100725000Y-98975000D03*
X101093577Y-103574632D03*
X64050000Y-99575000D03*
X64050000Y-100225000D03*
X100325000Y-95550000D03*
X109250000Y-101600000D03*
X101825000Y-103287500D03*
X88650000Y-100200000D03*
X85150000Y-98500000D03*
X90800000Y-98950000D03*
X92325000Y-99204011D03*
X92323362Y-99798362D03*
D33*
X96350000Y-103262500D02*
X96350000Y-102425000D01*
D34*
X127625000Y-106525000D02*
X129250000Y-106525000D01*
D33*
X60485000Y-100270000D02*
X60215000Y-100000000D01*
X60485000Y-102705000D02*
X60485000Y-100270000D01*
D35*
X63365000Y-102275000D02*
X63485000Y-102395000D01*
X63365000Y-101275000D02*
X63365000Y-102275000D01*
D36*
X110450000Y-102825000D02*
X110400000Y-102875000D01*
X110450000Y-101375000D02*
X110450000Y-102825000D01*
X114100000Y-101400000D02*
X114075000Y-101375000D01*
X114100000Y-102875000D02*
X114100000Y-101400000D01*
X117725000Y-101400000D02*
X117700000Y-101375000D01*
X117725000Y-102875000D02*
X117725000Y-101400000D01*
X121350000Y-102900000D02*
X121350000Y-101400000D01*
D35*
X114075000Y-101325000D02*
X114075000Y-101375000D01*
X114729000Y-100671000D02*
X114075000Y-101325000D01*
X120696000Y-101400000D02*
X119966999Y-100670999D01*
X119966999Y-100670999D02*
X114729000Y-100671000D01*
X121350000Y-101400000D02*
X120696000Y-101400000D01*
X117700000Y-101325000D02*
X118354001Y-100670999D01*
X118354001Y-100670999D02*
X119966999Y-100670999D01*
X117700000Y-101375000D02*
X117700000Y-101325000D01*
X121350000Y-101400000D02*
X121350000Y-100550000D01*
X110450000Y-101450000D02*
X111050000Y-102050000D01*
X110450000Y-101375000D02*
X110450000Y-101450000D01*
D34*
X125875000Y-105925000D02*
X126050000Y-105750000D01*
X125875000Y-106525000D02*
X125875000Y-105925000D01*
X134375000Y-106025000D02*
X134150000Y-105800000D01*
X134375000Y-106525000D02*
X134375000Y-106025000D01*
D35*
X134287500Y-93375000D02*
X135000000Y-93375000D01*
X135000000Y-93375000D02*
X135275000Y-93100000D01*
X135275000Y-93100000D02*
X135275000Y-93053090D01*
D34*
X109640000Y-93040000D02*
X110200000Y-93600000D01*
X109635000Y-93040000D02*
X109640000Y-93040000D01*
X113240000Y-93040000D02*
X113800000Y-93600000D01*
X113035000Y-93040000D02*
X113240000Y-93040000D01*
X114360000Y-93040000D02*
X113800000Y-93600000D01*
X114685000Y-93040000D02*
X114360000Y-93040000D01*
X118390000Y-93040000D02*
X119000000Y-93650000D01*
X118125000Y-93040000D02*
X118390000Y-93040000D01*
D35*
X151650000Y-95400000D02*
X150900000Y-94650000D01*
D34*
X106050000Y-93075001D02*
X106075001Y-93075001D01*
D35*
X151650000Y-95400000D02*
X153150000Y-95400000D01*
D36*
X125100000Y-97460000D02*
X125100000Y-93600000D01*
X122040000Y-105600000D02*
X125100000Y-102540000D01*
X120320000Y-105600000D02*
X122040000Y-105600000D01*
D35*
X137500000Y-101775000D02*
X137500000Y-102650000D01*
X129100000Y-93375000D02*
X137500000Y-101775000D01*
X60750000Y-105250000D02*
X60750000Y-105450000D01*
X130850000Y-93375000D02*
X132662500Y-93375000D01*
D33*
X121699072Y-94239072D02*
X120500000Y-93040000D01*
X120500000Y-93040000D02*
X119875000Y-93040000D01*
X121699072Y-97375928D02*
X121699072Y-94239072D01*
X121200000Y-97875000D02*
X121699072Y-97375928D01*
X116435000Y-93615000D02*
X116435000Y-93040000D01*
X116681399Y-93861399D02*
X116435000Y-93615000D01*
X116681399Y-96956399D02*
X116681399Y-93861399D01*
X117600000Y-97875000D02*
X116681399Y-96956399D01*
D35*
X61412500Y-93610000D02*
X61212500Y-93410000D01*
X61412500Y-94925000D02*
X61412500Y-93610000D01*
D33*
X111285000Y-96910000D02*
X112250000Y-97875000D01*
X111285000Y-93040000D02*
X111285000Y-96910000D01*
X108675000Y-93830000D02*
X107885000Y-93040000D01*
X108675000Y-97875000D02*
X108675000Y-93830000D01*
D34*
X127537500Y-106525000D02*
X127537500Y-105637500D01*
X127537500Y-105637500D02*
X127550000Y-105625000D01*
X96450000Y-102750000D02*
X96450000Y-101850000D01*
X96450000Y-101850000D02*
X96775000Y-101525000D01*
X99650000Y-101900000D02*
X99650000Y-102750000D01*
X99275000Y-101525000D02*
X99650000Y-101900000D01*
X96775000Y-101525000D02*
X99275000Y-101525000D01*
X93637500Y-94012500D02*
X94200000Y-94575000D01*
X93637500Y-93850000D02*
X93637500Y-94012500D01*
X94675000Y-94575000D02*
X94850000Y-94400000D01*
X94200000Y-94575000D02*
X94675000Y-94575000D01*
X100450000Y-102750000D02*
X100450000Y-101625000D01*
X105337500Y-106300000D02*
X105337500Y-104800000D01*
X105337500Y-104537500D02*
X105337500Y-105225000D01*
X105337500Y-103250000D02*
X105337500Y-104825000D01*
X105825000Y-99325000D02*
X106275000Y-99775000D01*
X105337500Y-99325000D02*
X105825000Y-99325000D01*
D35*
X78825000Y-101000000D02*
X80500000Y-101000000D01*
X78700000Y-100875000D02*
X78825000Y-101000000D01*
X80362500Y-101137500D02*
X80500000Y-101000000D01*
X80362500Y-102600000D02*
X80362500Y-101612500D01*
X80362500Y-101612500D02*
X80362500Y-101137500D01*
X86700000Y-101037500D02*
X86562500Y-101037500D01*
X88650000Y-99050000D02*
X89500000Y-99050000D01*
X85000000Y-102600000D02*
X85750000Y-101850000D01*
X84987500Y-102600000D02*
X85000000Y-102600000D01*
X86400000Y-101200000D02*
X85750000Y-101850000D01*
X86400000Y-100787500D02*
X86400000Y-101200000D01*
X104500000Y-93050001D02*
X103800001Y-93050001D01*
X103800001Y-93050001D02*
X102975000Y-93050001D01*
X102975000Y-93050001D02*
X102950000Y-93075001D01*
D34*
X106625000Y-93487500D02*
X106050000Y-92912500D01*
X106625000Y-93575000D02*
X106625000Y-93487500D01*
X93050000Y-94837500D02*
X93050000Y-94975000D01*
X92062500Y-93850000D02*
X93050000Y-94837500D01*
X93050000Y-95350000D02*
X93475000Y-95775000D01*
X93050000Y-94975000D02*
X93050000Y-95350000D01*
D35*
X128900000Y-92500000D02*
X128900000Y-93175000D01*
X128900000Y-93175000D02*
X129100000Y-93375000D01*
D37*
X60850000Y-105350000D02*
X60750000Y-105250000D01*
X60850000Y-106375000D02*
X60850000Y-105350000D01*
X127350000Y-93550000D02*
X127150000Y-93350000D01*
X127350000Y-94750000D02*
X127350000Y-93550000D01*
D34*
X93450000Y-100600000D02*
X93475000Y-100575000D01*
X92375000Y-100600000D02*
X93450000Y-100600000D01*
X93500000Y-101350000D02*
X93475000Y-101375000D01*
X94650000Y-101350000D02*
X93500000Y-101350000D01*
X100725000Y-98975000D02*
X101825000Y-98975000D01*
X101093577Y-103841423D02*
X101093577Y-103574632D01*
X100005000Y-104930000D02*
X101093577Y-103841423D01*
D33*
X84780000Y-105600000D02*
X85473615Y-105600000D01*
D34*
X98850000Y-94100000D02*
X98850000Y-94937500D01*
X99800000Y-94887500D02*
X99850000Y-94937500D01*
X63800000Y-99325000D02*
X62765000Y-99325000D01*
X64050000Y-99575000D02*
X63800000Y-99325000D01*
X63800000Y-99975000D02*
X62765000Y-99975000D01*
X64050000Y-100225000D02*
X63800000Y-99975000D01*
D36*
X119450000Y-98450000D02*
X120400000Y-99400000D01*
X119450000Y-97875000D02*
X119450000Y-98450000D01*
X119450000Y-97140000D02*
X117760000Y-95450000D01*
X119450000Y-97875000D02*
X119450000Y-97140000D01*
X115850000Y-98475000D02*
X116750000Y-99375000D01*
X115850000Y-97875000D02*
X115850000Y-98475000D01*
X115850000Y-96080000D02*
X115220000Y-95450000D01*
X115850000Y-97875000D02*
X115850000Y-96080000D01*
X113125000Y-98750000D02*
X114000000Y-97875000D01*
X113125000Y-99375000D02*
X113125000Y-98750000D01*
X114000000Y-96770000D02*
X112680000Y-95450000D01*
X114000000Y-97875000D02*
X114000000Y-96770000D01*
X109500000Y-98800000D02*
X110425000Y-97875000D01*
X109500000Y-99375000D02*
X109500000Y-98800000D01*
X110425000Y-95735000D02*
X110140000Y-95450000D01*
X110425000Y-97875000D02*
X110425000Y-95735000D01*
X119450000Y-102750000D02*
X119600000Y-102900000D01*
X119450000Y-101400000D02*
X119450000Y-102750000D01*
X115800000Y-102700000D02*
X115975000Y-102875000D01*
X115800000Y-101375000D02*
X115800000Y-102700000D01*
X112175000Y-102700000D02*
X112350000Y-102875000D01*
X112175000Y-101375000D02*
X112175000Y-102700000D01*
X108650000Y-101475000D02*
X108550000Y-101375000D01*
X108650000Y-102875000D02*
X108650000Y-101475000D01*
D34*
X108775000Y-101600000D02*
X108550000Y-101375000D01*
X109250000Y-101600000D02*
X108775000Y-101600000D01*
X131000000Y-106525000D02*
X132625000Y-106525000D01*
D35*
X148491990Y-107254010D02*
X151146000Y-104600000D01*
X133354010Y-107254010D02*
X148491990Y-107254010D01*
X132625000Y-106525000D02*
X133354010Y-107254010D01*
X151146000Y-104600000D02*
X153150000Y-104600000D01*
D34*
X106025000Y-94799999D02*
X106050000Y-94824999D01*
X106050000Y-94487500D02*
X104500000Y-94487500D01*
X104500000Y-94487500D02*
X102950000Y-94487500D01*
X90985000Y-96575000D02*
X93475000Y-96575000D01*
X89860000Y-95450000D02*
X90985000Y-96575000D01*
X96884490Y-93184490D02*
X97250000Y-93550000D01*
X89585510Y-93184490D02*
X96884490Y-93184490D01*
X97250000Y-93550000D02*
X97250000Y-94400000D01*
X87320000Y-95450000D02*
X89585510Y-93184490D01*
X98050000Y-93550000D02*
X98050000Y-94400000D01*
X97430479Y-92930479D02*
X98050000Y-93550000D01*
X87299521Y-92930479D02*
X97430479Y-92930479D01*
X84780000Y-95450000D02*
X87299521Y-92930479D01*
X98850000Y-93550000D02*
X98850000Y-94400000D01*
X82240000Y-95450000D02*
X85013544Y-92676456D01*
X85013544Y-92676456D02*
X97976456Y-92676456D01*
X97976456Y-92676456D02*
X98850000Y-93550000D01*
X99650000Y-93550000D02*
X99650000Y-94400000D01*
X82727556Y-92422445D02*
X98522445Y-92422445D01*
X79700000Y-95450000D02*
X82727556Y-92422445D01*
X98522445Y-92422445D02*
X99650000Y-93550000D01*
X93475000Y-99775000D02*
X92725000Y-99775000D01*
X100450000Y-95425000D02*
X100325000Y-95550000D01*
X100450000Y-94400000D02*
X100450000Y-95425000D01*
X103762500Y-104800000D02*
X103762500Y-106300000D01*
X101825000Y-103287500D02*
X103762500Y-105225000D01*
X101825000Y-101375000D02*
X101825000Y-103287500D01*
D35*
X88650000Y-100950000D02*
X88650000Y-100200000D01*
D34*
X84937500Y-99462500D02*
X84900000Y-99500000D01*
X86700000Y-99462500D02*
X84937500Y-99462500D01*
D38*
X84850000Y-99500000D02*
X84850000Y-99000000D01*
X85150000Y-98700000D02*
X84850000Y-99000000D01*
X85150000Y-98500000D02*
X85150000Y-98700000D01*
D35*
X90650000Y-99100000D02*
X90800000Y-98950000D01*
X90650000Y-99800000D02*
X90650000Y-99100000D01*
D38*
X63975000Y-106375000D02*
X65500000Y-104850000D01*
X60850000Y-106375000D02*
X63975000Y-106375000D01*
X77217001Y-100857999D02*
X78450928Y-99624072D01*
X69492001Y-100857999D02*
X77217001Y-100857999D01*
X78450928Y-99624072D02*
X78950000Y-99125000D01*
X80425000Y-99125000D02*
X80550000Y-99000000D01*
X78950000Y-99125000D02*
X80425000Y-99125000D01*
X80175000Y-99125000D02*
X80550000Y-99500000D01*
X78950000Y-99125000D02*
X80175000Y-99125000D01*
D35*
X63037500Y-94925000D02*
X65550000Y-97437500D01*
X65550000Y-104750000D02*
X65575000Y-104775000D01*
D38*
X65575000Y-104775000D02*
X69492001Y-100857999D01*
D35*
X65550000Y-97437500D02*
X65550000Y-104750000D01*
D38*
X63975000Y-106375000D02*
X65575000Y-104775000D01*
D34*
X90709999Y-104750001D02*
X90724999Y-104750001D01*
X89860000Y-105600000D02*
X90709999Y-104750001D01*
X98210501Y-104239499D02*
X98850000Y-103600000D01*
X98850000Y-103600000D02*
X98850000Y-102750000D01*
X91235501Y-104239499D02*
X98210501Y-104239499D01*
X90724999Y-104750001D02*
X91235501Y-104239499D01*
X91677672Y-103950000D02*
X97700000Y-103950000D01*
X91665643Y-103962029D02*
X91677672Y-103950000D01*
X87320000Y-105600000D02*
X88957971Y-103962029D01*
X97700000Y-103950000D02*
X98050000Y-103600000D01*
X88957971Y-103962029D02*
X91665643Y-103962029D01*
X98050000Y-103600000D02*
X98050000Y-102750000D01*
X87355213Y-103454011D02*
X86249725Y-104559499D01*
X93475000Y-98175000D02*
X93154290Y-98495710D01*
X83089999Y-104750001D02*
X82240000Y-105600000D01*
X91904011Y-103005214D02*
X91455214Y-103454011D01*
X91455214Y-103454011D02*
X87355213Y-103454011D01*
X92354290Y-98495710D02*
X91904011Y-98945989D01*
X91904011Y-98945989D02*
X91904011Y-103005214D01*
X93154290Y-98495710D02*
X92354290Y-98495710D01*
X86249725Y-104559499D02*
X83280501Y-104559499D01*
X83280501Y-104559499D02*
X83089999Y-104750001D01*
X92758092Y-97695710D02*
X91650000Y-98803802D01*
X93154290Y-97695710D02*
X92758092Y-97695710D01*
X93475000Y-97375000D02*
X93154290Y-97695710D01*
X91650000Y-98803802D02*
X91650000Y-102900000D01*
X91650000Y-102900000D02*
X91350000Y-103200000D01*
X91350000Y-103200000D02*
X87250000Y-103200000D01*
X87250000Y-103200000D02*
X86150000Y-104300000D01*
X80677000Y-105600000D02*
X79700000Y-105600000D01*
X81977000Y-104300000D02*
X80677000Y-105600000D01*
X86150000Y-104300000D02*
X81977000Y-104300000D01*
X92554011Y-98975000D02*
X92553599Y-98975412D01*
X92553599Y-98975412D02*
X92325000Y-99204011D01*
X93475000Y-98975000D02*
X92554011Y-98975000D01*
X93475000Y-99775000D02*
X92346724Y-99775000D01*
X92346724Y-99775000D02*
X92323362Y-99798362D01*
X119046990Y-103540510D02*
X119687500Y-102900000D01*
X104666284Y-97375000D02*
X107451477Y-100160193D01*
X111982418Y-104048532D02*
X112236429Y-103794521D01*
X115756214Y-103540510D02*
X119046990Y-103540510D01*
X101825000Y-97375000D02*
X104666284Y-97375000D01*
X115502204Y-103794521D02*
X115756214Y-103540510D01*
X112236429Y-103794521D02*
X115502204Y-103794521D01*
X107880082Y-104048532D02*
X111982418Y-104048532D01*
X107451477Y-103619927D02*
X107880082Y-104048532D01*
X107451477Y-100160193D02*
X107451477Y-103619927D01*
X104250000Y-96575000D02*
X107705488Y-100030488D01*
X115396990Y-103540510D02*
X116062500Y-102875000D01*
X107705488Y-103264712D02*
X108235297Y-103794521D01*
X101825000Y-96575000D02*
X104250000Y-96575000D01*
X107705488Y-100030488D02*
X107705488Y-103264712D01*
X108235297Y-103794521D02*
X111877204Y-103794521D01*
X112131214Y-103540510D02*
X115396990Y-103540510D01*
X111877204Y-103794521D02*
X112131214Y-103540510D01*
X103825000Y-95775000D02*
X107959499Y-99909499D01*
X108349226Y-103540510D02*
X111771990Y-103540510D01*
X107959499Y-99909499D02*
X107959499Y-103150783D01*
X107959499Y-103150783D02*
X108349226Y-103540510D01*
X111771990Y-103540510D02*
X112437500Y-102875000D01*
X101825000Y-95775000D02*
X103825000Y-95775000D01*
X84900000Y-101112500D02*
X84900000Y-101000000D01*
X83412500Y-102600000D02*
X84900000Y-101112500D01*
X76284443Y-96490501D02*
X73203942Y-93410000D01*
X63325000Y-93410000D02*
X62787500Y-93410000D01*
X73203942Y-93410000D02*
X63325000Y-93410000D01*
X79208403Y-96490501D02*
X76284443Y-96490501D01*
X81415501Y-98697599D02*
X79208403Y-96490501D01*
X81415501Y-99936499D02*
X81415501Y-98697599D01*
X81352000Y-100000000D02*
X81415501Y-99936499D01*
X80500000Y-100000000D02*
X81352000Y-100000000D01*
X100975000Y-98175000D02*
X101825000Y-98175000D01*
X100884490Y-98084490D02*
X100975000Y-98175000D01*
X101558698Y-94487500D02*
X100884490Y-95161708D01*
X100884490Y-95161708D02*
X100884490Y-98084490D01*
X102950000Y-94487500D02*
X101558698Y-94487500D01*
X102975000Y-100575000D02*
X103650000Y-101250000D01*
X101825000Y-100575000D02*
X102975000Y-100575000D01*
X103650000Y-103137500D02*
X103762500Y-103250000D01*
X103650000Y-101250000D02*
X103650000Y-103137500D01*
X105812500Y-101250000D02*
X106150000Y-101250000D01*
X103762500Y-99200000D02*
X105812500Y-101250000D01*
X103187500Y-99775000D02*
X101825000Y-99775000D01*
X103762500Y-99200000D02*
X103187500Y-99775000D01*
D35*
X62286000Y-98675000D02*
X63365000Y-98675000D01*
X62260599Y-98700401D02*
X62286000Y-98675000D01*
X62946000Y-105250000D02*
X63700000Y-105250000D01*
D38*
X63900000Y-98675000D02*
X64800000Y-99575000D01*
X62765000Y-98675000D02*
X63900000Y-98675000D01*
X64060000Y-105250000D02*
X63250000Y-105250000D01*
X64800000Y-104510000D02*
X64060000Y-105250000D01*
X64800000Y-99575000D02*
X64800000Y-104510000D01*
D34*
X84780000Y-105600000D02*
X85609225Y-105600000D01*
X85609225Y-105600000D02*
X87501206Y-103708019D01*
X91577940Y-103690510D02*
X97159490Y-103690510D01*
X87501206Y-103708019D02*
X91560430Y-103708019D01*
X91560430Y-103708019D02*
X91577940Y-103690510D01*
X97159490Y-103690510D02*
X97250000Y-103600000D01*
X97250000Y-103600000D02*
X97250000Y-102750000D01*
X82399112Y-101648888D02*
X82399112Y-102138388D01*
X82399112Y-102138388D02*
X81937500Y-102600000D01*
X84048000Y-100000000D02*
X82399112Y-101648888D01*
X84900000Y-100000000D02*
X84048000Y-100000000D01*
M02*
