M48
; DRILL file {KiCad (5.1.4-0-10_14)} date Sunday, October 20, 2019 at 07:00:45 PM
; FORMAT={-:-/ absolute / metric / decimal}
; #@! TF.CreationDate,2019-10-20T19:00:45-07:00
; #@! TF.GenerationSoftware,Kicad,Pcbnew,(5.1.4-0-10_14)
FMAT,2
METRIC
T1C0.254
T2C0.650
T3C0.700
T4C1.000
T5C1.200
T6C1.830
%
G90
G05
T1
X64.0Y-106.075
X64.275Y-94.25
X65.499Y-98.174
X66.001Y-98.676
X79.659Y-102.659
X82.5Y-94.1
X83.71Y-98.663
X90.437Y-99.069
X90.437Y-99.781
X91.45Y-95.125
X91.45Y-96.625
X94.0Y-97.4
X94.172Y-100.297
X94.45Y-98.625
X94.675Y-100.725
X96.0Y-95.7
X97.15Y-95.8
X97.525Y-99.425
X98.0Y-95.65
X98.8Y-93.325
X98.925Y-104.15
X99.625Y-97.475
X99.75Y-96.675
X99.875Y-95.975
X100.3Y-94.4
X101.75Y-106.975
X102.05Y-104.225
X102.35Y-96.35
X102.575Y-93.025
X104.25Y-94.725
X104.25Y-95.3
X107.15Y-96.309
X109.775Y-100.675
X109.8Y-93.825
X113.225Y-101.175
X113.85Y-93.85
X116.9Y-101.7
X117.425Y-93.875
X118.825Y-102.35
X134.35Y-97.125
X136.3Y-106.0
X153.5Y-102.65
T4
X110.14Y-95.45
X112.68Y-95.45
X115.22Y-95.45
X117.76Y-95.45
X120.3Y-95.45
X79.68Y-105.61
X82.22Y-105.61
X84.76Y-105.61
X87.3Y-105.61
X89.84Y-105.61
X92.38Y-105.61
X94.92Y-105.61
X97.46Y-105.61
X79.66Y-95.44
X82.2Y-95.44
X84.74Y-95.44
X87.28Y-95.44
X89.82Y-95.44
X112.69Y-105.61
X115.23Y-105.61
X117.77Y-105.61
X120.31Y-105.61
T5
X139.15Y-97.375
X139.15Y-102.675
T6
X67.58Y-100.0
X75.2Y-97.46
X75.2Y-102.54
X126.4Y-97.46
X126.4Y-102.54
X134.02Y-100.0
T2
G00X62.685Y-97.555
M15
G01X63.085Y-97.555
M16
G05
G00X62.685Y-102.395
M15
G01X63.085Y-102.395
M16
G05
T3
G00X59.635Y-97.245
M15
G01X60.135Y-97.245
M16
G05
G00X59.635Y-102.705
M15
G01X60.135Y-102.705
M16
G05
T0
M30
