G04 #@! TF.GenerationSoftware,KiCad,Pcbnew,(5.1.4-0-10_14)*
G04 #@! TF.CreationDate,2019-09-20T09:10:15-07:00*
G04 #@! TF.ProjectId,STM32L0xx_18650,53544d33-324c-4307-9878-5f3138363530,rev?*
G04 #@! TF.SameCoordinates,Original*
G04 #@! TF.FileFunction,Copper,L2,Bot*
G04 #@! TF.FilePolarity,Positive*
%FSLAX46Y46*%
G04 Gerber Fmt 4.6, Leading zero omitted, Abs format (unit mm)*
G04 Created by KiCad (PCBNEW (5.1.4-0-10_14)) date 2019-09-20 09:10:15*
%MOMM*%
%LPD*%
G04 APERTURE LIST*
%ADD10C,2.800000*%
%ADD11O,1.700000X1.350000*%
%ADD12O,1.500000X1.100000*%
%ADD13C,2.400000*%
%ADD14R,1.000000X1.000000*%
%ADD15O,1.000000X1.000000*%
%ADD16O,1.700000X1.700000*%
%ADD17R,1.700000X1.700000*%
%ADD18C,0.508000*%
%ADD19C,0.310000*%
%ADD20C,0.152400*%
%ADD21C,0.254000*%
G04 APERTURE END LIST*
D10*
X74900000Y-97460000D03*
X74900000Y-102540000D03*
X125100000Y-97460000D03*
X125100000Y-102540000D03*
X132720000Y-100000000D03*
X67280000Y-100000000D03*
D11*
X59885000Y-102705000D03*
X59885000Y-97245000D03*
D12*
X62885000Y-102395000D03*
X62885000Y-97555000D03*
D13*
X138100000Y-102650000D03*
X138100000Y-97350000D03*
D14*
X147425000Y-99350000D03*
D15*
X147425000Y-100620000D03*
X146155000Y-99350000D03*
X146155000Y-100620000D03*
X144885000Y-99350000D03*
X144885000Y-100620000D03*
X143615000Y-99350000D03*
X143615000Y-100620000D03*
X142345000Y-99350000D03*
X142345000Y-100620000D03*
D16*
X89840000Y-105610000D03*
X87300000Y-105610000D03*
X84760000Y-105610000D03*
X82220000Y-105610000D03*
D17*
X79680000Y-105610000D03*
X112690000Y-105610000D03*
D16*
X115230000Y-105610000D03*
X117770000Y-105610000D03*
X120310000Y-105610000D03*
D17*
X120300000Y-95450000D03*
D16*
X117760000Y-95450000D03*
X115220000Y-95450000D03*
X112680000Y-95450000D03*
X110140000Y-95450000D03*
D17*
X79660000Y-95440000D03*
D16*
X82200000Y-95440000D03*
X84740000Y-95440000D03*
X87280000Y-95440000D03*
X89820000Y-95440000D03*
D18*
X88500000Y-98500000D03*
X102800000Y-95650000D03*
X109800000Y-93825000D03*
X113850000Y-93850000D03*
X117425000Y-93875000D03*
X102400000Y-98650000D03*
X100830000Y-104505000D03*
X104483023Y-95716977D03*
X84625000Y-98775000D03*
X129200000Y-98450000D03*
X128675000Y-101925000D03*
X106525000Y-95825000D03*
X134475000Y-98100000D03*
X64440000Y-106330000D03*
X80495204Y-102182610D03*
X133850000Y-105723244D03*
X131150000Y-95200000D03*
X141700000Y-104025000D03*
X95150000Y-103000000D03*
X94000000Y-103325000D03*
X98450000Y-100925000D03*
X89950000Y-103600000D03*
X89450000Y-103025000D03*
X92450000Y-98700000D03*
X95050000Y-95100000D03*
X95850000Y-95025000D03*
X96625000Y-95000000D03*
X82100000Y-94000000D03*
X97425000Y-95000000D03*
X92475000Y-100900000D03*
X72500000Y-100225000D03*
X92500000Y-101650000D03*
X72475000Y-100975000D03*
X97950000Y-99650000D03*
X120400000Y-101650000D03*
X98300000Y-98525000D03*
X116700000Y-101750000D03*
X99725000Y-97050000D03*
X113375000Y-101300000D03*
X97525000Y-97875000D03*
X108105357Y-102137579D03*
D19*
X62575000Y-102705000D02*
X62885000Y-102395000D01*
X59885000Y-102705000D02*
X62575000Y-102705000D01*
X62575000Y-97245000D02*
X62885000Y-97555000D01*
X59885000Y-97245000D02*
X62575000Y-97245000D01*
X81875000Y-92400000D02*
X118410000Y-92400000D01*
X83568047Y-98521001D02*
X81042599Y-95995553D01*
X81042599Y-95995553D02*
X81042599Y-93232401D01*
X120300000Y-94290000D02*
X120300000Y-95450000D01*
X84371001Y-98521001D02*
X83568047Y-98521001D01*
X118410000Y-92400000D02*
X120300000Y-94290000D01*
X81042599Y-93232401D02*
X81875000Y-92400000D01*
X84625000Y-98775000D02*
X84371001Y-98521001D01*
X130750000Y-100000000D02*
X132720000Y-100000000D01*
X129200000Y-98450000D02*
X130750000Y-100000000D01*
X128060000Y-102540000D02*
X128675000Y-101925000D01*
X125100000Y-102540000D02*
X128060000Y-102540000D01*
X134805543Y-104247401D02*
X124372401Y-104247401D01*
X136402944Y-102650000D02*
X134805543Y-104247401D01*
X138100000Y-102650000D02*
X136402944Y-102650000D01*
X124372401Y-104247401D02*
X120725000Y-100600000D01*
X120725000Y-100600000D02*
X111300000Y-100600000D01*
X111300000Y-100600000D02*
X106525000Y-95825000D01*
X134475000Y-99025000D02*
X134475000Y-98100000D01*
X138100000Y-102650000D02*
X134475000Y-99025000D01*
X64440000Y-106689210D02*
X65360790Y-107610000D01*
X64440000Y-106330000D02*
X64440000Y-106689210D01*
X113230000Y-107610000D02*
X115230000Y-105610000D01*
X76135000Y-107610000D02*
X76780000Y-107610000D01*
X73165000Y-107610000D02*
X76135000Y-107610000D01*
X65360790Y-107610000D02*
X73165000Y-107610000D01*
X77365000Y-107610000D02*
X113230000Y-107610000D01*
X76780000Y-107610000D02*
X77365000Y-107610000D01*
X77365000Y-105312814D02*
X80241205Y-102436609D01*
X80241205Y-102436609D02*
X80495204Y-102182610D01*
X77365000Y-107610000D02*
X77365000Y-105312814D01*
X116387401Y-104452599D02*
X120865553Y-104452599D01*
X115230000Y-105610000D02*
X116387401Y-104452599D01*
X120865553Y-104452599D02*
X122136198Y-105723244D01*
X122136198Y-105723244D02*
X133490790Y-105723244D01*
X133490790Y-105723244D02*
X133850000Y-105723244D01*
X135950000Y-95200000D02*
X138100000Y-97350000D01*
X131150000Y-95200000D02*
X135950000Y-95200000D01*
D20*
X141700000Y-104025000D02*
X141262412Y-104462588D01*
X141262412Y-104462588D02*
X135992095Y-104462588D01*
X135518860Y-104935823D02*
X124087249Y-104935823D01*
X124087249Y-104935823D02*
X122401426Y-103250000D01*
X135992095Y-104462588D02*
X135518860Y-104935823D01*
X95403999Y-103253999D02*
X122397427Y-103253999D01*
X122397427Y-103253999D02*
X122401426Y-103250000D01*
X95150000Y-103000000D02*
X95403999Y-103253999D01*
X142007601Y-104767399D02*
X145655001Y-101119999D01*
X145655001Y-101119999D02*
X146155000Y-100620000D01*
X122320359Y-103600000D02*
X123960993Y-105240634D01*
X123960993Y-105240634D02*
X135645116Y-105240634D01*
X135645116Y-105240634D02*
X136118351Y-104767399D01*
X136118351Y-104767399D02*
X142007601Y-104767399D01*
X94634210Y-103600000D02*
X122320359Y-103600000D01*
X94359210Y-103325000D02*
X94634210Y-103600000D01*
X94000000Y-103325000D02*
X94359210Y-103325000D01*
X138807223Y-104157777D02*
X141845001Y-101119999D01*
X141845001Y-101119999D02*
X142345000Y-100620000D01*
X98450000Y-100925000D02*
X100470189Y-102945189D01*
X100470189Y-102945189D02*
X122527682Y-102945189D01*
X122527682Y-102945189D02*
X124213505Y-104631012D01*
X124213505Y-104631012D02*
X135392604Y-104631012D01*
X135865839Y-104157777D02*
X138807223Y-104157777D01*
X135392604Y-104631012D02*
X135865839Y-104157777D01*
X89950000Y-103600000D02*
X84230000Y-103600000D01*
X84230000Y-103600000D02*
X82220000Y-105610000D01*
X80682400Y-105610000D02*
X83267400Y-103025000D01*
X83267400Y-103025000D02*
X89450000Y-103025000D01*
X79680000Y-105610000D02*
X80682400Y-105610000D01*
X89820000Y-96070000D02*
X89820000Y-95440000D01*
X92450000Y-98700000D02*
X89820000Y-96070000D01*
X88129999Y-94590001D02*
X87280000Y-95440000D01*
X88358601Y-94361399D02*
X88129999Y-94590001D01*
X94311399Y-94361399D02*
X88358601Y-94361399D01*
X95050000Y-95100000D02*
X94311399Y-94361399D01*
X84740000Y-95440000D02*
X86130000Y-94050000D01*
X94875000Y-94050000D02*
X95850000Y-95025000D01*
X86130000Y-94050000D02*
X94875000Y-94050000D01*
X82200000Y-95440000D02*
X83915000Y-93725000D01*
X95350000Y-93725000D02*
X96625000Y-95000000D01*
X83915000Y-93725000D02*
X95350000Y-93725000D01*
X83788744Y-93420190D02*
X95845192Y-93420192D01*
X95845192Y-93420192D02*
X97425000Y-95000000D01*
X83208934Y-94000000D02*
X83788744Y-93420190D01*
X82100000Y-94000000D02*
X83208934Y-94000000D01*
X92475000Y-100900000D02*
X76550000Y-100900000D01*
X75875000Y-100225000D02*
X72500000Y-100225000D01*
X76550000Y-100900000D02*
X75875000Y-100225000D01*
X76400000Y-101650000D02*
X75625000Y-100875000D01*
X72575000Y-100875000D02*
X72475000Y-100975000D01*
X75625000Y-100875000D02*
X72575000Y-100875000D01*
X92500000Y-101650000D02*
X76400000Y-101650000D01*
X119429811Y-102620189D02*
X120146001Y-101903999D01*
X120146001Y-101903999D02*
X120400000Y-101650000D01*
X100920189Y-102620189D02*
X119429811Y-102620189D01*
X97950000Y-99650000D02*
X100920189Y-102620189D01*
X108686029Y-102003999D02*
X116446001Y-102003999D01*
X98300000Y-98525000D02*
X101429977Y-101654977D01*
X116446001Y-102003999D02*
X116700000Y-101750000D01*
X108337007Y-101654977D02*
X108686029Y-102003999D01*
X101429977Y-101654977D02*
X108337007Y-101654977D01*
X99725000Y-97050000D02*
X99725000Y-99400000D01*
X99725000Y-99400000D02*
X101625000Y-101300000D01*
X101625000Y-101300000D02*
X113375000Y-101300000D01*
X101198329Y-102137579D02*
X107746147Y-102137579D01*
X107746147Y-102137579D02*
X108105357Y-102137579D01*
X97525000Y-97875000D02*
X97525000Y-98464250D01*
X97525000Y-98464250D02*
X101198329Y-102137579D01*
D21*
G36*
X80447841Y-92711833D02*
G01*
X80382561Y-92791377D01*
X80357968Y-92837387D01*
X80309203Y-92928619D01*
X80264030Y-93077535D01*
X80248777Y-93232401D01*
X80252600Y-93271216D01*
X80252600Y-93951928D01*
X78810000Y-93951928D01*
X78685518Y-93964188D01*
X78565820Y-94000498D01*
X78455506Y-94059463D01*
X78358815Y-94138815D01*
X78279463Y-94235506D01*
X78220498Y-94345820D01*
X78184188Y-94465518D01*
X78171928Y-94590000D01*
X78171928Y-96290000D01*
X78184188Y-96414482D01*
X78220498Y-96534180D01*
X78279463Y-96644494D01*
X78358815Y-96741185D01*
X78455506Y-96820537D01*
X78565820Y-96879502D01*
X78685518Y-96915812D01*
X78810000Y-96928072D01*
X80510000Y-96928072D01*
X80634482Y-96915812D01*
X80754180Y-96879502D01*
X80790113Y-96860295D01*
X82981992Y-99052175D01*
X83006730Y-99082318D01*
X83036872Y-99107055D01*
X83127023Y-99181040D01*
X83264264Y-99254397D01*
X83413180Y-99299570D01*
X83568047Y-99314823D01*
X83606853Y-99311001D01*
X83913954Y-99311001D01*
X83934469Y-99341704D01*
X84058296Y-99465531D01*
X84203901Y-99562821D01*
X84365688Y-99629836D01*
X84537441Y-99664000D01*
X84712559Y-99664000D01*
X84884312Y-99629836D01*
X85046099Y-99562821D01*
X85191704Y-99465531D01*
X85315531Y-99341704D01*
X85412821Y-99196099D01*
X85479836Y-99034312D01*
X85514000Y-98862559D01*
X85514000Y-98687441D01*
X85479836Y-98515688D01*
X85412821Y-98353901D01*
X85315531Y-98208296D01*
X85191704Y-98084469D01*
X85046099Y-97987179D01*
X84884312Y-97920164D01*
X84884115Y-97920125D01*
X84812025Y-97860962D01*
X84674784Y-97787605D01*
X84525868Y-97742432D01*
X84409807Y-97731001D01*
X84409806Y-97731001D01*
X84371001Y-97727179D01*
X84332196Y-97731001D01*
X83895276Y-97731001D01*
X82909084Y-96744810D01*
X83029014Y-96680706D01*
X83255134Y-96495134D01*
X83440706Y-96269014D01*
X83470000Y-96214209D01*
X83499294Y-96269014D01*
X83684866Y-96495134D01*
X83910986Y-96680706D01*
X84168966Y-96818599D01*
X84448889Y-96903513D01*
X84667050Y-96925000D01*
X84812950Y-96925000D01*
X85031111Y-96903513D01*
X85311034Y-96818599D01*
X85569014Y-96680706D01*
X85795134Y-96495134D01*
X85980706Y-96269014D01*
X86010000Y-96214209D01*
X86039294Y-96269014D01*
X86224866Y-96495134D01*
X86450986Y-96680706D01*
X86708966Y-96818599D01*
X86988889Y-96903513D01*
X87207050Y-96925000D01*
X87352950Y-96925000D01*
X87571111Y-96903513D01*
X87851034Y-96818599D01*
X88109014Y-96680706D01*
X88335134Y-96495134D01*
X88520706Y-96269014D01*
X88550000Y-96214209D01*
X88579294Y-96269014D01*
X88764866Y-96495134D01*
X88990986Y-96680706D01*
X89248966Y-96818599D01*
X89528889Y-96903513D01*
X89660709Y-96916496D01*
X91568258Y-98824047D01*
X91595164Y-98959312D01*
X91662179Y-99121099D01*
X91759469Y-99266704D01*
X91883296Y-99390531D01*
X92028901Y-99487821D01*
X92190688Y-99554836D01*
X92362441Y-99589000D01*
X92537559Y-99589000D01*
X92709312Y-99554836D01*
X92871099Y-99487821D01*
X93016704Y-99390531D01*
X93140531Y-99266704D01*
X93237821Y-99121099D01*
X93304836Y-98959312D01*
X93339000Y-98787559D01*
X93339000Y-98612441D01*
X93304836Y-98440688D01*
X93237821Y-98278901D01*
X93140531Y-98133296D01*
X93016704Y-98009469D01*
X92871099Y-97912179D01*
X92709312Y-97845164D01*
X92574047Y-97818258D01*
X91044522Y-96288734D01*
X91060706Y-96269014D01*
X91198599Y-96011034D01*
X91283513Y-95731111D01*
X91312185Y-95440000D01*
X91283513Y-95148889D01*
X91260371Y-95072599D01*
X94016811Y-95072599D01*
X94168258Y-95224046D01*
X94195164Y-95359312D01*
X94262179Y-95521099D01*
X94359469Y-95666704D01*
X94483296Y-95790531D01*
X94628901Y-95887821D01*
X94790688Y-95954836D01*
X94962441Y-95989000D01*
X95137559Y-95989000D01*
X95309312Y-95954836D01*
X95471099Y-95887821D01*
X95524241Y-95852313D01*
X95590688Y-95879836D01*
X95762441Y-95914000D01*
X95937559Y-95914000D01*
X96109312Y-95879836D01*
X96267677Y-95814238D01*
X96365688Y-95854836D01*
X96537441Y-95889000D01*
X96712559Y-95889000D01*
X96884312Y-95854836D01*
X97025000Y-95796561D01*
X97165688Y-95854836D01*
X97337441Y-95889000D01*
X97512559Y-95889000D01*
X97684312Y-95854836D01*
X97846099Y-95787821D01*
X97991704Y-95690531D01*
X98115531Y-95566704D01*
X98212821Y-95421099D01*
X98279836Y-95259312D01*
X98314000Y-95087559D01*
X98314000Y-94912441D01*
X98279836Y-94740688D01*
X98212821Y-94578901D01*
X98115531Y-94433296D01*
X97991704Y-94309469D01*
X97846099Y-94212179D01*
X97684312Y-94145164D01*
X97549045Y-94118258D01*
X96620787Y-93190000D01*
X118082772Y-93190000D01*
X119022307Y-94129536D01*
X118998815Y-94148815D01*
X118919463Y-94245506D01*
X118860498Y-94355820D01*
X118839607Y-94424687D01*
X118815134Y-94394866D01*
X118589014Y-94209294D01*
X118331034Y-94071401D01*
X118051111Y-93986487D01*
X117832950Y-93965000D01*
X117687050Y-93965000D01*
X117468889Y-93986487D01*
X117188966Y-94071401D01*
X116930986Y-94209294D01*
X116704866Y-94394866D01*
X116519294Y-94620986D01*
X116490000Y-94675791D01*
X116460706Y-94620986D01*
X116275134Y-94394866D01*
X116049014Y-94209294D01*
X115791034Y-94071401D01*
X115511111Y-93986487D01*
X115292950Y-93965000D01*
X115147050Y-93965000D01*
X114928889Y-93986487D01*
X114648966Y-94071401D01*
X114390986Y-94209294D01*
X114164866Y-94394866D01*
X113979294Y-94620986D01*
X113950000Y-94675791D01*
X113920706Y-94620986D01*
X113735134Y-94394866D01*
X113509014Y-94209294D01*
X113251034Y-94071401D01*
X112971111Y-93986487D01*
X112752950Y-93965000D01*
X112607050Y-93965000D01*
X112388889Y-93986487D01*
X112108966Y-94071401D01*
X111850986Y-94209294D01*
X111624866Y-94394866D01*
X111439294Y-94620986D01*
X111410000Y-94675791D01*
X111380706Y-94620986D01*
X111195134Y-94394866D01*
X110969014Y-94209294D01*
X110711034Y-94071401D01*
X110431111Y-93986487D01*
X110212950Y-93965000D01*
X110067050Y-93965000D01*
X109848889Y-93986487D01*
X109568966Y-94071401D01*
X109310986Y-94209294D01*
X109084866Y-94394866D01*
X108899294Y-94620986D01*
X108761401Y-94878966D01*
X108676487Y-95158889D01*
X108647815Y-95450000D01*
X108676487Y-95741111D01*
X108761401Y-96021034D01*
X108899294Y-96279014D01*
X109084866Y-96505134D01*
X109310986Y-96690706D01*
X109568966Y-96828599D01*
X109848889Y-96913513D01*
X110067050Y-96935000D01*
X110212950Y-96935000D01*
X110431111Y-96913513D01*
X110711034Y-96828599D01*
X110969014Y-96690706D01*
X111195134Y-96505134D01*
X111380706Y-96279014D01*
X111410000Y-96224209D01*
X111439294Y-96279014D01*
X111624866Y-96505134D01*
X111850986Y-96690706D01*
X112108966Y-96828599D01*
X112388889Y-96913513D01*
X112607050Y-96935000D01*
X112752950Y-96935000D01*
X112971111Y-96913513D01*
X113251034Y-96828599D01*
X113509014Y-96690706D01*
X113735134Y-96505134D01*
X113920706Y-96279014D01*
X113950000Y-96224209D01*
X113979294Y-96279014D01*
X114164866Y-96505134D01*
X114390986Y-96690706D01*
X114648966Y-96828599D01*
X114928889Y-96913513D01*
X115147050Y-96935000D01*
X115292950Y-96935000D01*
X115511111Y-96913513D01*
X115791034Y-96828599D01*
X116049014Y-96690706D01*
X116275134Y-96505134D01*
X116460706Y-96279014D01*
X116490000Y-96224209D01*
X116519294Y-96279014D01*
X116704866Y-96505134D01*
X116930986Y-96690706D01*
X117188966Y-96828599D01*
X117468889Y-96913513D01*
X117687050Y-96935000D01*
X117832950Y-96935000D01*
X118051111Y-96913513D01*
X118331034Y-96828599D01*
X118589014Y-96690706D01*
X118815134Y-96505134D01*
X118839607Y-96475313D01*
X118860498Y-96544180D01*
X118919463Y-96654494D01*
X118998815Y-96751185D01*
X119095506Y-96830537D01*
X119205820Y-96889502D01*
X119325518Y-96925812D01*
X119450000Y-96938072D01*
X121150000Y-96938072D01*
X121274482Y-96925812D01*
X121394180Y-96889502D01*
X121504494Y-96830537D01*
X121601185Y-96751185D01*
X121680537Y-96654494D01*
X121739502Y-96544180D01*
X121775812Y-96424482D01*
X121788072Y-96300000D01*
X121788072Y-95112441D01*
X130261000Y-95112441D01*
X130261000Y-95287559D01*
X130295164Y-95459312D01*
X130362179Y-95621099D01*
X130459469Y-95766704D01*
X130583296Y-95890531D01*
X130728901Y-95987821D01*
X130890688Y-96054836D01*
X131062441Y-96089000D01*
X131237559Y-96089000D01*
X131409312Y-96054836D01*
X131565838Y-95990000D01*
X135622772Y-95990000D01*
X136368323Y-96735551D01*
X136335518Y-96814750D01*
X136265000Y-97169268D01*
X136265000Y-97530732D01*
X136335518Y-97885250D01*
X136473844Y-98219199D01*
X136674662Y-98519744D01*
X136930256Y-98775338D01*
X137230801Y-98976156D01*
X137564750Y-99114482D01*
X137919268Y-99185000D01*
X138280732Y-99185000D01*
X138635250Y-99114482D01*
X138969199Y-98976156D01*
X139269744Y-98775338D01*
X139525338Y-98519744D01*
X139726156Y-98219199D01*
X139864482Y-97885250D01*
X139935000Y-97530732D01*
X139935000Y-97169268D01*
X139864482Y-96814750D01*
X139726156Y-96480801D01*
X139525338Y-96180256D01*
X139269744Y-95924662D01*
X138969199Y-95723844D01*
X138635250Y-95585518D01*
X138280732Y-95515000D01*
X137919268Y-95515000D01*
X137564750Y-95585518D01*
X137485551Y-95618323D01*
X136536058Y-94668830D01*
X136511317Y-94638683D01*
X136391024Y-94539961D01*
X136253783Y-94466604D01*
X136104867Y-94421431D01*
X135988806Y-94410000D01*
X135988805Y-94410000D01*
X135950000Y-94406178D01*
X135911195Y-94410000D01*
X131565838Y-94410000D01*
X131409312Y-94345164D01*
X131237559Y-94311000D01*
X131062441Y-94311000D01*
X130890688Y-94345164D01*
X130728901Y-94412179D01*
X130583296Y-94509469D01*
X130459469Y-94633296D01*
X130362179Y-94778901D01*
X130295164Y-94940688D01*
X130261000Y-95112441D01*
X121788072Y-95112441D01*
X121788072Y-94600000D01*
X121775812Y-94475518D01*
X121739502Y-94355820D01*
X121680537Y-94245506D01*
X121601185Y-94148815D01*
X121504494Y-94069463D01*
X121394180Y-94010498D01*
X121274482Y-93974188D01*
X121150000Y-93961928D01*
X121020413Y-93961928D01*
X120960039Y-93848976D01*
X120909664Y-93787594D01*
X120886054Y-93758825D01*
X120861317Y-93728683D01*
X120831176Y-93703947D01*
X119837228Y-92710000D01*
X153838704Y-92710000D01*
X153862058Y-92766660D01*
X153866773Y-92775380D01*
X153970197Y-92963509D01*
X154006536Y-93016580D01*
X154042164Y-93070205D01*
X154048483Y-93077843D01*
X154186478Y-93242299D01*
X154232444Y-93287312D01*
X154277798Y-93332984D01*
X154285475Y-93339244D01*
X154285481Y-93339250D01*
X154285488Y-93339254D01*
X154452790Y-93473770D01*
X154506628Y-93509001D01*
X154559989Y-93544993D01*
X154568742Y-93549647D01*
X154758995Y-93649108D01*
X154818639Y-93673205D01*
X154873000Y-93696057D01*
X154873000Y-106304849D01*
X154863778Y-106307704D01*
X154804489Y-106332627D01*
X154744793Y-106356746D01*
X154736040Y-106361400D01*
X154547195Y-106463508D01*
X154493836Y-106499499D01*
X154440001Y-106534728D01*
X154432319Y-106540993D01*
X154266903Y-106677836D01*
X154221565Y-106723491D01*
X154175579Y-106768524D01*
X154169260Y-106776162D01*
X154033575Y-106942529D01*
X153997970Y-106996120D01*
X153961609Y-107049223D01*
X153956895Y-107057944D01*
X153856107Y-107247497D01*
X153838589Y-107290000D01*
X114667228Y-107290000D01*
X114896557Y-107060672D01*
X114938889Y-107073513D01*
X115157050Y-107095000D01*
X115302950Y-107095000D01*
X115521111Y-107073513D01*
X115801034Y-106988599D01*
X116059014Y-106850706D01*
X116285134Y-106665134D01*
X116470706Y-106439014D01*
X116608599Y-106181034D01*
X116693513Y-105901111D01*
X116722185Y-105610000D01*
X116693513Y-105318889D01*
X116680672Y-105276557D01*
X116714630Y-105242599D01*
X118869629Y-105242599D01*
X118846487Y-105318889D01*
X118817815Y-105610000D01*
X118846487Y-105901111D01*
X118931401Y-106181034D01*
X119069294Y-106439014D01*
X119254866Y-106665134D01*
X119480986Y-106850706D01*
X119738966Y-106988599D01*
X120018889Y-107073513D01*
X120237050Y-107095000D01*
X120382950Y-107095000D01*
X120601111Y-107073513D01*
X120881034Y-106988599D01*
X121139014Y-106850706D01*
X121365134Y-106665134D01*
X121550706Y-106439014D01*
X121615462Y-106317865D01*
X121695174Y-106383283D01*
X121832415Y-106456640D01*
X121981331Y-106501813D01*
X122097392Y-106513244D01*
X122097402Y-106513244D01*
X122136197Y-106517065D01*
X122174992Y-106513244D01*
X133434162Y-106513244D01*
X133590688Y-106578080D01*
X133762441Y-106612244D01*
X133937559Y-106612244D01*
X134109312Y-106578080D01*
X134271099Y-106511065D01*
X134416704Y-106413775D01*
X134540531Y-106289948D01*
X134637821Y-106144343D01*
X134704836Y-105982556D01*
X134710947Y-105951834D01*
X135610190Y-105951834D01*
X135645116Y-105955274D01*
X135680042Y-105951834D01*
X135680052Y-105951834D01*
X135784536Y-105941543D01*
X135918597Y-105900876D01*
X136042149Y-105834836D01*
X136150443Y-105745961D01*
X136172717Y-105718820D01*
X136412939Y-105478599D01*
X141972675Y-105478599D01*
X142007601Y-105482039D01*
X142042527Y-105478599D01*
X142042537Y-105478599D01*
X142147021Y-105468308D01*
X142281082Y-105427641D01*
X142404634Y-105361601D01*
X142512928Y-105272726D01*
X142535203Y-105245584D01*
X146032375Y-101748414D01*
X146099248Y-101755000D01*
X146210752Y-101755000D01*
X146377499Y-101738577D01*
X146591447Y-101673676D01*
X146788623Y-101568284D01*
X146790000Y-101567154D01*
X146791377Y-101568284D01*
X146988553Y-101673676D01*
X147202501Y-101738577D01*
X147369248Y-101755000D01*
X147480752Y-101755000D01*
X147647499Y-101738577D01*
X147861447Y-101673676D01*
X148058623Y-101568284D01*
X148231449Y-101426449D01*
X148373284Y-101253623D01*
X148478676Y-101056447D01*
X148543577Y-100842499D01*
X148565491Y-100620000D01*
X148543577Y-100397501D01*
X148478676Y-100183553D01*
X148373284Y-99986377D01*
X148231449Y-99813551D01*
X148058623Y-99671716D01*
X147861447Y-99566324D01*
X147647499Y-99501423D01*
X147480752Y-99485000D01*
X147369248Y-99485000D01*
X147281342Y-99493658D01*
X147295491Y-99350000D01*
X147273577Y-99127501D01*
X147208676Y-98913553D01*
X147103284Y-98716377D01*
X146961449Y-98543551D01*
X146788623Y-98401716D01*
X146591447Y-98296324D01*
X146377499Y-98231423D01*
X146210752Y-98215000D01*
X146099248Y-98215000D01*
X145932501Y-98231423D01*
X145718553Y-98296324D01*
X145521377Y-98401716D01*
X145520000Y-98402846D01*
X145518623Y-98401716D01*
X145321447Y-98296324D01*
X145107499Y-98231423D01*
X144940752Y-98215000D01*
X144829248Y-98215000D01*
X144662501Y-98231423D01*
X144448553Y-98296324D01*
X144251377Y-98401716D01*
X144250000Y-98402846D01*
X144248623Y-98401716D01*
X144051447Y-98296324D01*
X143837499Y-98231423D01*
X143670752Y-98215000D01*
X143559248Y-98215000D01*
X143392501Y-98231423D01*
X143178553Y-98296324D01*
X142981377Y-98401716D01*
X142980000Y-98402846D01*
X142978623Y-98401716D01*
X142781447Y-98296324D01*
X142567499Y-98231423D01*
X142400752Y-98215000D01*
X142289248Y-98215000D01*
X142122501Y-98231423D01*
X141908553Y-98296324D01*
X141711377Y-98401716D01*
X141538551Y-98543551D01*
X141396716Y-98716377D01*
X141291324Y-98913553D01*
X141226423Y-99127501D01*
X141204509Y-99350000D01*
X141226423Y-99572499D01*
X141291324Y-99786447D01*
X141396716Y-99983623D01*
X141397846Y-99985000D01*
X141396716Y-99986377D01*
X141291324Y-100183553D01*
X141226423Y-100397501D01*
X141204509Y-100620000D01*
X141216586Y-100742626D01*
X139858618Y-102100594D01*
X139726156Y-101780801D01*
X139525338Y-101480256D01*
X139269744Y-101224662D01*
X138969199Y-101023844D01*
X138635250Y-100885518D01*
X138280732Y-100815000D01*
X137919268Y-100815000D01*
X137564750Y-100885518D01*
X137485552Y-100918323D01*
X135265000Y-98697772D01*
X135265000Y-98515838D01*
X135329836Y-98359312D01*
X135364000Y-98187559D01*
X135364000Y-98012441D01*
X135329836Y-97840688D01*
X135262821Y-97678901D01*
X135165531Y-97533296D01*
X135041704Y-97409469D01*
X134896099Y-97312179D01*
X134734312Y-97245164D01*
X134562559Y-97211000D01*
X134387441Y-97211000D01*
X134215688Y-97245164D01*
X134053901Y-97312179D01*
X133908296Y-97409469D01*
X133784469Y-97533296D01*
X133687179Y-97678901D01*
X133620164Y-97840688D01*
X133586000Y-98012441D01*
X133586000Y-98156041D01*
X133313587Y-98043204D01*
X132920430Y-97965000D01*
X132519570Y-97965000D01*
X132126413Y-98043204D01*
X131756066Y-98196607D01*
X131422763Y-98419313D01*
X131139313Y-98702763D01*
X130916607Y-99036066D01*
X130912708Y-99045479D01*
X130052658Y-98185430D01*
X129987821Y-98028901D01*
X129890531Y-97883296D01*
X129766704Y-97759469D01*
X129621099Y-97662179D01*
X129459312Y-97595164D01*
X129287559Y-97561000D01*
X129112441Y-97561000D01*
X128940688Y-97595164D01*
X128778901Y-97662179D01*
X128633296Y-97759469D01*
X128509469Y-97883296D01*
X128412179Y-98028901D01*
X128345164Y-98190688D01*
X128311000Y-98362441D01*
X128311000Y-98537559D01*
X128345164Y-98709312D01*
X128412179Y-98871099D01*
X128509469Y-99016704D01*
X128633296Y-99140531D01*
X128778901Y-99237821D01*
X128935430Y-99302658D01*
X130163946Y-100531175D01*
X130188683Y-100561317D01*
X130308976Y-100660039D01*
X130413088Y-100715688D01*
X130446217Y-100733396D01*
X130595132Y-100778569D01*
X130749999Y-100793822D01*
X130788805Y-100790000D01*
X130844561Y-100790000D01*
X130916607Y-100963934D01*
X131139313Y-101297237D01*
X131422763Y-101580687D01*
X131756066Y-101803393D01*
X132126413Y-101956796D01*
X132519570Y-102035000D01*
X132920430Y-102035000D01*
X133313587Y-101956796D01*
X133683934Y-101803393D01*
X134017237Y-101580687D01*
X134300687Y-101297237D01*
X134523393Y-100963934D01*
X134676796Y-100593587D01*
X134718201Y-100385429D01*
X136214414Y-101881642D01*
X136104449Y-101915000D01*
X136099161Y-101916604D01*
X135961920Y-101989961D01*
X135841627Y-102088683D01*
X135816890Y-102118825D01*
X134478315Y-103457401D01*
X126922668Y-103457401D01*
X126975439Y-103330000D01*
X128021195Y-103330000D01*
X128060000Y-103333822D01*
X128098805Y-103330000D01*
X128098806Y-103330000D01*
X128214867Y-103318569D01*
X128363783Y-103273396D01*
X128501024Y-103200039D01*
X128621317Y-103101317D01*
X128646058Y-103071170D01*
X128939571Y-102777658D01*
X129096099Y-102712821D01*
X129241704Y-102615531D01*
X129365531Y-102491704D01*
X129462821Y-102346099D01*
X129529836Y-102184312D01*
X129564000Y-102012559D01*
X129564000Y-101837441D01*
X129529836Y-101665688D01*
X129462821Y-101503901D01*
X129365531Y-101358296D01*
X129241704Y-101234469D01*
X129096099Y-101137179D01*
X128934312Y-101070164D01*
X128762559Y-101036000D01*
X128587441Y-101036000D01*
X128415688Y-101070164D01*
X128253901Y-101137179D01*
X128108296Y-101234469D01*
X127984469Y-101358296D01*
X127887179Y-101503901D01*
X127822342Y-101660429D01*
X127732772Y-101750000D01*
X126975439Y-101750000D01*
X126903393Y-101576066D01*
X126680687Y-101242763D01*
X126397237Y-100959313D01*
X126063934Y-100736607D01*
X125693587Y-100583204D01*
X125300430Y-100505000D01*
X124899570Y-100505000D01*
X124506413Y-100583204D01*
X124136066Y-100736607D01*
X123802763Y-100959313D01*
X123519313Y-101242763D01*
X123296607Y-101576066D01*
X123156512Y-101914284D01*
X121311058Y-100068830D01*
X121286317Y-100038683D01*
X121166024Y-99939961D01*
X121028783Y-99866604D01*
X120879867Y-99821431D01*
X120763806Y-99810000D01*
X120763805Y-99810000D01*
X120725000Y-99806178D01*
X120686195Y-99810000D01*
X111627229Y-99810000D01*
X109076799Y-97259570D01*
X123065000Y-97259570D01*
X123065000Y-97660430D01*
X123143204Y-98053587D01*
X123296607Y-98423934D01*
X123519313Y-98757237D01*
X123802763Y-99040687D01*
X124136066Y-99263393D01*
X124506413Y-99416796D01*
X124899570Y-99495000D01*
X125300430Y-99495000D01*
X125693587Y-99416796D01*
X126063934Y-99263393D01*
X126397237Y-99040687D01*
X126680687Y-98757237D01*
X126903393Y-98423934D01*
X127056796Y-98053587D01*
X127135000Y-97660430D01*
X127135000Y-97259570D01*
X127056796Y-96866413D01*
X126903393Y-96496066D01*
X126680687Y-96162763D01*
X126397237Y-95879313D01*
X126063934Y-95656607D01*
X125693587Y-95503204D01*
X125300430Y-95425000D01*
X124899570Y-95425000D01*
X124506413Y-95503204D01*
X124136066Y-95656607D01*
X123802763Y-95879313D01*
X123519313Y-96162763D01*
X123296607Y-96496066D01*
X123143204Y-96866413D01*
X123065000Y-97259570D01*
X109076799Y-97259570D01*
X107377658Y-95560430D01*
X107312821Y-95403901D01*
X107215531Y-95258296D01*
X107091704Y-95134469D01*
X106946099Y-95037179D01*
X106784312Y-94970164D01*
X106612559Y-94936000D01*
X106437441Y-94936000D01*
X106265688Y-94970164D01*
X106103901Y-95037179D01*
X105958296Y-95134469D01*
X105834469Y-95258296D01*
X105737179Y-95403901D01*
X105670164Y-95565688D01*
X105636000Y-95737441D01*
X105636000Y-95912559D01*
X105670164Y-96084312D01*
X105737179Y-96246099D01*
X105834469Y-96391704D01*
X105958296Y-96515531D01*
X106103901Y-96612821D01*
X106260430Y-96677658D01*
X110171571Y-100588800D01*
X101919588Y-100588800D01*
X100436200Y-99105413D01*
X100436200Y-97585771D01*
X100512821Y-97471099D01*
X100579836Y-97309312D01*
X100614000Y-97137559D01*
X100614000Y-96962441D01*
X100579836Y-96790688D01*
X100512821Y-96628901D01*
X100415531Y-96483296D01*
X100291704Y-96359469D01*
X100146099Y-96262179D01*
X99984312Y-96195164D01*
X99812559Y-96161000D01*
X99637441Y-96161000D01*
X99465688Y-96195164D01*
X99303901Y-96262179D01*
X99158296Y-96359469D01*
X99034469Y-96483296D01*
X98937179Y-96628901D01*
X98870164Y-96790688D01*
X98836000Y-96962441D01*
X98836000Y-97137559D01*
X98870164Y-97309312D01*
X98937179Y-97471099D01*
X99013800Y-97585771D01*
X99013800Y-97993121D01*
X98990531Y-97958296D01*
X98866704Y-97834469D01*
X98721099Y-97737179D01*
X98559312Y-97670164D01*
X98387559Y-97636000D01*
X98383876Y-97636000D01*
X98379836Y-97615688D01*
X98312821Y-97453901D01*
X98215531Y-97308296D01*
X98091704Y-97184469D01*
X97946099Y-97087179D01*
X97784312Y-97020164D01*
X97612559Y-96986000D01*
X97437441Y-96986000D01*
X97265688Y-97020164D01*
X97103901Y-97087179D01*
X96958296Y-97184469D01*
X96834469Y-97308296D01*
X96737179Y-97453901D01*
X96670164Y-97615688D01*
X96636000Y-97787441D01*
X96636000Y-97962559D01*
X96670164Y-98134312D01*
X96737179Y-98296099D01*
X96813800Y-98410771D01*
X96813800Y-98429324D01*
X96810360Y-98464250D01*
X96813800Y-98499176D01*
X96813800Y-98499186D01*
X96824091Y-98603670D01*
X96864758Y-98737731D01*
X96891392Y-98787559D01*
X96930798Y-98861282D01*
X96987085Y-98929867D01*
X97019674Y-98969577D01*
X97046810Y-98991847D01*
X97210919Y-99155956D01*
X97162179Y-99228901D01*
X97095164Y-99390688D01*
X97061000Y-99562441D01*
X97061000Y-99737559D01*
X97095164Y-99909312D01*
X97162179Y-100071099D01*
X97259469Y-100216704D01*
X97383296Y-100340531D01*
X97528901Y-100437821D01*
X97667870Y-100495384D01*
X97662179Y-100503901D01*
X97595164Y-100665688D01*
X97561000Y-100837441D01*
X97561000Y-101012559D01*
X97595164Y-101184312D01*
X97662179Y-101346099D01*
X97759469Y-101491704D01*
X97883296Y-101615531D01*
X98028901Y-101712821D01*
X98190688Y-101779836D01*
X98325955Y-101806742D01*
X99062011Y-102542799D01*
X95913698Y-102542799D01*
X95840531Y-102433296D01*
X95716704Y-102309469D01*
X95571099Y-102212179D01*
X95409312Y-102145164D01*
X95237559Y-102111000D01*
X95062441Y-102111000D01*
X94890688Y-102145164D01*
X94728901Y-102212179D01*
X94583296Y-102309469D01*
X94459469Y-102433296D01*
X94396786Y-102527108D01*
X94259312Y-102470164D01*
X94087559Y-102436000D01*
X93912441Y-102436000D01*
X93740688Y-102470164D01*
X93578901Y-102537179D01*
X93433296Y-102634469D01*
X93309469Y-102758296D01*
X93212179Y-102903901D01*
X93145164Y-103065688D01*
X93111000Y-103237441D01*
X93111000Y-103412559D01*
X93145164Y-103584312D01*
X93212179Y-103746099D01*
X93309469Y-103891704D01*
X93433296Y-104015531D01*
X93578901Y-104112821D01*
X93740688Y-104179836D01*
X93912441Y-104214000D01*
X94087559Y-104214000D01*
X94227405Y-104186183D01*
X94237177Y-104194202D01*
X94294091Y-104224623D01*
X94360728Y-104260242D01*
X94413190Y-104276156D01*
X94494790Y-104300909D01*
X94599274Y-104311200D01*
X94599281Y-104311200D01*
X94634210Y-104314640D01*
X94669138Y-104311200D01*
X111386858Y-104311200D01*
X111309463Y-104405506D01*
X111250498Y-104515820D01*
X111214188Y-104635518D01*
X111201928Y-104760000D01*
X111201928Y-106460000D01*
X111214188Y-106584482D01*
X111250498Y-106704180D01*
X111309463Y-106814494D01*
X111313982Y-106820000D01*
X90706429Y-106820000D01*
X90895134Y-106665134D01*
X91080706Y-106439014D01*
X91218599Y-106181034D01*
X91303513Y-105901111D01*
X91332185Y-105610000D01*
X91303513Y-105318889D01*
X91218599Y-105038966D01*
X91080706Y-104780986D01*
X90895134Y-104554866D01*
X90669014Y-104369294D01*
X90518430Y-104288805D01*
X90640531Y-104166704D01*
X90737821Y-104021099D01*
X90804836Y-103859312D01*
X90839000Y-103687559D01*
X90839000Y-103512441D01*
X90804836Y-103340688D01*
X90737821Y-103178901D01*
X90640531Y-103033296D01*
X90516704Y-102909469D01*
X90371099Y-102812179D01*
X90308964Y-102786442D01*
X90304836Y-102765688D01*
X90237821Y-102603901D01*
X90140531Y-102458296D01*
X90043435Y-102361200D01*
X91964229Y-102361200D01*
X92078901Y-102437821D01*
X92240688Y-102504836D01*
X92412441Y-102539000D01*
X92587559Y-102539000D01*
X92759312Y-102504836D01*
X92921099Y-102437821D01*
X93066704Y-102340531D01*
X93190531Y-102216704D01*
X93287821Y-102071099D01*
X93354836Y-101909312D01*
X93389000Y-101737559D01*
X93389000Y-101562441D01*
X93354836Y-101390688D01*
X93294416Y-101244823D01*
X93329836Y-101159312D01*
X93364000Y-100987559D01*
X93364000Y-100812441D01*
X93329836Y-100640688D01*
X93262821Y-100478901D01*
X93165531Y-100333296D01*
X93041704Y-100209469D01*
X92896099Y-100112179D01*
X92734312Y-100045164D01*
X92562559Y-100011000D01*
X92387441Y-100011000D01*
X92215688Y-100045164D01*
X92053901Y-100112179D01*
X91939229Y-100188800D01*
X76844588Y-100188800D01*
X76402602Y-99746814D01*
X76380327Y-99719673D01*
X76272033Y-99630798D01*
X76148481Y-99564758D01*
X76014420Y-99524091D01*
X75909936Y-99513800D01*
X75909926Y-99513800D01*
X75875000Y-99510360D01*
X75840074Y-99513800D01*
X73035771Y-99513800D01*
X72921099Y-99437179D01*
X72759312Y-99370164D01*
X72587559Y-99336000D01*
X72412441Y-99336000D01*
X72240688Y-99370164D01*
X72078901Y-99437179D01*
X71933296Y-99534469D01*
X71809469Y-99658296D01*
X71712179Y-99803901D01*
X71645164Y-99965688D01*
X71611000Y-100137441D01*
X71611000Y-100312559D01*
X71645164Y-100484312D01*
X71680584Y-100569823D01*
X71620164Y-100715688D01*
X71586000Y-100887441D01*
X71586000Y-101062559D01*
X71620164Y-101234312D01*
X71687179Y-101396099D01*
X71784469Y-101541704D01*
X71908296Y-101665531D01*
X72053901Y-101762821D01*
X72215688Y-101829836D01*
X72387441Y-101864000D01*
X72562559Y-101864000D01*
X72734312Y-101829836D01*
X72896099Y-101762821D01*
X73041704Y-101665531D01*
X73072168Y-101635067D01*
X72943204Y-101946413D01*
X72865000Y-102339570D01*
X72865000Y-102740430D01*
X72943204Y-103133587D01*
X73096607Y-103503934D01*
X73319313Y-103837237D01*
X73602763Y-104120687D01*
X73936066Y-104343393D01*
X74306413Y-104496796D01*
X74699570Y-104575000D01*
X75100430Y-104575000D01*
X75493587Y-104496796D01*
X75863934Y-104343393D01*
X76197237Y-104120687D01*
X76480687Y-103837237D01*
X76703393Y-103503934D01*
X76856796Y-103133587D01*
X76935000Y-102740430D01*
X76935000Y-102361200D01*
X79199385Y-102361200D01*
X76833825Y-104726761D01*
X76803684Y-104751497D01*
X76778947Y-104781639D01*
X76778946Y-104781640D01*
X76766830Y-104796404D01*
X76704962Y-104871790D01*
X76690525Y-104898800D01*
X76631604Y-105009032D01*
X76586431Y-105157948D01*
X76571178Y-105312814D01*
X76575001Y-105351629D01*
X76575000Y-106820000D01*
X65688019Y-106820000D01*
X65321796Y-106453777D01*
X65329000Y-106417559D01*
X65329000Y-106242441D01*
X65294836Y-106070688D01*
X65227821Y-105908901D01*
X65130531Y-105763296D01*
X65006704Y-105639469D01*
X64861099Y-105542179D01*
X64699312Y-105475164D01*
X64527559Y-105441000D01*
X64352441Y-105441000D01*
X64180688Y-105475164D01*
X64018901Y-105542179D01*
X63873296Y-105639469D01*
X63749469Y-105763296D01*
X63652179Y-105908901D01*
X63585164Y-106070688D01*
X63551000Y-106242441D01*
X63551000Y-106417559D01*
X63585164Y-106589312D01*
X63652179Y-106751099D01*
X63652290Y-106751265D01*
X63661431Y-106844077D01*
X63706604Y-106992993D01*
X63779961Y-107130234D01*
X63878683Y-107250527D01*
X63908829Y-107275267D01*
X63923562Y-107290000D01*
X60134721Y-107290000D01*
X59850101Y-107262093D01*
X59609718Y-107189517D01*
X59388011Y-107071633D01*
X59193420Y-106912929D01*
X59033365Y-106719455D01*
X58913936Y-106498576D01*
X58839683Y-106258701D01*
X58810000Y-105976291D01*
X58810000Y-103661062D01*
X58978682Y-103799495D01*
X59206259Y-103921138D01*
X59453195Y-103996045D01*
X59645649Y-104015000D01*
X60124351Y-104015000D01*
X60316805Y-103996045D01*
X60563741Y-103921138D01*
X60791318Y-103799495D01*
X60990792Y-103635792D01*
X61106336Y-103495000D01*
X62229150Y-103495000D01*
X62229326Y-103495094D01*
X62452700Y-103562853D01*
X62626793Y-103580000D01*
X63143207Y-103580000D01*
X63317300Y-103562853D01*
X63540674Y-103495094D01*
X63746536Y-103385058D01*
X63926975Y-103236975D01*
X64075058Y-103056536D01*
X64185094Y-102850674D01*
X64252853Y-102627300D01*
X64275733Y-102395000D01*
X64252853Y-102162700D01*
X64185094Y-101939326D01*
X64075058Y-101733464D01*
X63926975Y-101553025D01*
X63746536Y-101404942D01*
X63540674Y-101294906D01*
X63317300Y-101227147D01*
X63143207Y-101210000D01*
X62626793Y-101210000D01*
X62452700Y-101227147D01*
X62229326Y-101294906D01*
X62023464Y-101404942D01*
X61843025Y-101553025D01*
X61694942Y-101733464D01*
X61597909Y-101915000D01*
X61106336Y-101915000D01*
X60990792Y-101774208D01*
X60791318Y-101610505D01*
X60563741Y-101488862D01*
X60316805Y-101413955D01*
X60124351Y-101395000D01*
X59645649Y-101395000D01*
X59453195Y-101413955D01*
X59206259Y-101488862D01*
X58978682Y-101610505D01*
X58810000Y-101748938D01*
X58810000Y-99799570D01*
X65245000Y-99799570D01*
X65245000Y-100200430D01*
X65323204Y-100593587D01*
X65476607Y-100963934D01*
X65699313Y-101297237D01*
X65982763Y-101580687D01*
X66316066Y-101803393D01*
X66686413Y-101956796D01*
X67079570Y-102035000D01*
X67480430Y-102035000D01*
X67873587Y-101956796D01*
X68243934Y-101803393D01*
X68577237Y-101580687D01*
X68860687Y-101297237D01*
X69083393Y-100963934D01*
X69236796Y-100593587D01*
X69315000Y-100200430D01*
X69315000Y-99799570D01*
X69236796Y-99406413D01*
X69083393Y-99036066D01*
X68860687Y-98702763D01*
X68577237Y-98419313D01*
X68243934Y-98196607D01*
X67873587Y-98043204D01*
X67480430Y-97965000D01*
X67079570Y-97965000D01*
X66686413Y-98043204D01*
X66316066Y-98196607D01*
X65982763Y-98419313D01*
X65699313Y-98702763D01*
X65476607Y-99036066D01*
X65323204Y-99406413D01*
X65245000Y-99799570D01*
X58810000Y-99799570D01*
X58810000Y-98201062D01*
X58978682Y-98339495D01*
X59206259Y-98461138D01*
X59453195Y-98536045D01*
X59645649Y-98555000D01*
X60124351Y-98555000D01*
X60316805Y-98536045D01*
X60563741Y-98461138D01*
X60791318Y-98339495D01*
X60990792Y-98175792D01*
X61106336Y-98035000D01*
X61597909Y-98035000D01*
X61694942Y-98216536D01*
X61843025Y-98396975D01*
X62023464Y-98545058D01*
X62229326Y-98655094D01*
X62452700Y-98722853D01*
X62626793Y-98740000D01*
X63143207Y-98740000D01*
X63317300Y-98722853D01*
X63540674Y-98655094D01*
X63746536Y-98545058D01*
X63926975Y-98396975D01*
X64075058Y-98216536D01*
X64185094Y-98010674D01*
X64252853Y-97787300D01*
X64275733Y-97555000D01*
X64252853Y-97322700D01*
X64233703Y-97259570D01*
X72865000Y-97259570D01*
X72865000Y-97660430D01*
X72943204Y-98053587D01*
X73096607Y-98423934D01*
X73319313Y-98757237D01*
X73602763Y-99040687D01*
X73936066Y-99263393D01*
X74306413Y-99416796D01*
X74699570Y-99495000D01*
X75100430Y-99495000D01*
X75493587Y-99416796D01*
X75863934Y-99263393D01*
X76197237Y-99040687D01*
X76480687Y-98757237D01*
X76703393Y-98423934D01*
X76856796Y-98053587D01*
X76935000Y-97660430D01*
X76935000Y-97259570D01*
X76856796Y-96866413D01*
X76703393Y-96496066D01*
X76480687Y-96162763D01*
X76197237Y-95879313D01*
X75863934Y-95656607D01*
X75493587Y-95503204D01*
X75100430Y-95425000D01*
X74699570Y-95425000D01*
X74306413Y-95503204D01*
X73936066Y-95656607D01*
X73602763Y-95879313D01*
X73319313Y-96162763D01*
X73096607Y-96496066D01*
X72943204Y-96866413D01*
X72865000Y-97259570D01*
X64233703Y-97259570D01*
X64185094Y-97099326D01*
X64075058Y-96893464D01*
X63926975Y-96713025D01*
X63746536Y-96564942D01*
X63540674Y-96454906D01*
X63317300Y-96387147D01*
X63143207Y-96370000D01*
X62626793Y-96370000D01*
X62452700Y-96387147D01*
X62229326Y-96454906D01*
X62229150Y-96455000D01*
X61106336Y-96455000D01*
X60990792Y-96314208D01*
X60791318Y-96150505D01*
X60563741Y-96028862D01*
X60316805Y-95953955D01*
X60124351Y-95935000D01*
X59645649Y-95935000D01*
X59453195Y-95953955D01*
X59206259Y-96028862D01*
X58978682Y-96150505D01*
X58810000Y-96288938D01*
X58810000Y-94034721D01*
X58837907Y-93750101D01*
X58910484Y-93509715D01*
X59028368Y-93288009D01*
X59187068Y-93093423D01*
X59380545Y-92933365D01*
X59601424Y-92813936D01*
X59841297Y-92739683D01*
X60123716Y-92710000D01*
X80449345Y-92710000D01*
X80447841Y-92711833D01*
X80447841Y-92711833D01*
G37*
X80447841Y-92711833D02*
X80382561Y-92791377D01*
X80357968Y-92837387D01*
X80309203Y-92928619D01*
X80264030Y-93077535D01*
X80248777Y-93232401D01*
X80252600Y-93271216D01*
X80252600Y-93951928D01*
X78810000Y-93951928D01*
X78685518Y-93964188D01*
X78565820Y-94000498D01*
X78455506Y-94059463D01*
X78358815Y-94138815D01*
X78279463Y-94235506D01*
X78220498Y-94345820D01*
X78184188Y-94465518D01*
X78171928Y-94590000D01*
X78171928Y-96290000D01*
X78184188Y-96414482D01*
X78220498Y-96534180D01*
X78279463Y-96644494D01*
X78358815Y-96741185D01*
X78455506Y-96820537D01*
X78565820Y-96879502D01*
X78685518Y-96915812D01*
X78810000Y-96928072D01*
X80510000Y-96928072D01*
X80634482Y-96915812D01*
X80754180Y-96879502D01*
X80790113Y-96860295D01*
X82981992Y-99052175D01*
X83006730Y-99082318D01*
X83036872Y-99107055D01*
X83127023Y-99181040D01*
X83264264Y-99254397D01*
X83413180Y-99299570D01*
X83568047Y-99314823D01*
X83606853Y-99311001D01*
X83913954Y-99311001D01*
X83934469Y-99341704D01*
X84058296Y-99465531D01*
X84203901Y-99562821D01*
X84365688Y-99629836D01*
X84537441Y-99664000D01*
X84712559Y-99664000D01*
X84884312Y-99629836D01*
X85046099Y-99562821D01*
X85191704Y-99465531D01*
X85315531Y-99341704D01*
X85412821Y-99196099D01*
X85479836Y-99034312D01*
X85514000Y-98862559D01*
X85514000Y-98687441D01*
X85479836Y-98515688D01*
X85412821Y-98353901D01*
X85315531Y-98208296D01*
X85191704Y-98084469D01*
X85046099Y-97987179D01*
X84884312Y-97920164D01*
X84884115Y-97920125D01*
X84812025Y-97860962D01*
X84674784Y-97787605D01*
X84525868Y-97742432D01*
X84409807Y-97731001D01*
X84409806Y-97731001D01*
X84371001Y-97727179D01*
X84332196Y-97731001D01*
X83895276Y-97731001D01*
X82909084Y-96744810D01*
X83029014Y-96680706D01*
X83255134Y-96495134D01*
X83440706Y-96269014D01*
X83470000Y-96214209D01*
X83499294Y-96269014D01*
X83684866Y-96495134D01*
X83910986Y-96680706D01*
X84168966Y-96818599D01*
X84448889Y-96903513D01*
X84667050Y-96925000D01*
X84812950Y-96925000D01*
X85031111Y-96903513D01*
X85311034Y-96818599D01*
X85569014Y-96680706D01*
X85795134Y-96495134D01*
X85980706Y-96269014D01*
X86010000Y-96214209D01*
X86039294Y-96269014D01*
X86224866Y-96495134D01*
X86450986Y-96680706D01*
X86708966Y-96818599D01*
X86988889Y-96903513D01*
X87207050Y-96925000D01*
X87352950Y-96925000D01*
X87571111Y-96903513D01*
X87851034Y-96818599D01*
X88109014Y-96680706D01*
X88335134Y-96495134D01*
X88520706Y-96269014D01*
X88550000Y-96214209D01*
X88579294Y-96269014D01*
X88764866Y-96495134D01*
X88990986Y-96680706D01*
X89248966Y-96818599D01*
X89528889Y-96903513D01*
X89660709Y-96916496D01*
X91568258Y-98824047D01*
X91595164Y-98959312D01*
X91662179Y-99121099D01*
X91759469Y-99266704D01*
X91883296Y-99390531D01*
X92028901Y-99487821D01*
X92190688Y-99554836D01*
X92362441Y-99589000D01*
X92537559Y-99589000D01*
X92709312Y-99554836D01*
X92871099Y-99487821D01*
X93016704Y-99390531D01*
X93140531Y-99266704D01*
X93237821Y-99121099D01*
X93304836Y-98959312D01*
X93339000Y-98787559D01*
X93339000Y-98612441D01*
X93304836Y-98440688D01*
X93237821Y-98278901D01*
X93140531Y-98133296D01*
X93016704Y-98009469D01*
X92871099Y-97912179D01*
X92709312Y-97845164D01*
X92574047Y-97818258D01*
X91044522Y-96288734D01*
X91060706Y-96269014D01*
X91198599Y-96011034D01*
X91283513Y-95731111D01*
X91312185Y-95440000D01*
X91283513Y-95148889D01*
X91260371Y-95072599D01*
X94016811Y-95072599D01*
X94168258Y-95224046D01*
X94195164Y-95359312D01*
X94262179Y-95521099D01*
X94359469Y-95666704D01*
X94483296Y-95790531D01*
X94628901Y-95887821D01*
X94790688Y-95954836D01*
X94962441Y-95989000D01*
X95137559Y-95989000D01*
X95309312Y-95954836D01*
X95471099Y-95887821D01*
X95524241Y-95852313D01*
X95590688Y-95879836D01*
X95762441Y-95914000D01*
X95937559Y-95914000D01*
X96109312Y-95879836D01*
X96267677Y-95814238D01*
X96365688Y-95854836D01*
X96537441Y-95889000D01*
X96712559Y-95889000D01*
X96884312Y-95854836D01*
X97025000Y-95796561D01*
X97165688Y-95854836D01*
X97337441Y-95889000D01*
X97512559Y-95889000D01*
X97684312Y-95854836D01*
X97846099Y-95787821D01*
X97991704Y-95690531D01*
X98115531Y-95566704D01*
X98212821Y-95421099D01*
X98279836Y-95259312D01*
X98314000Y-95087559D01*
X98314000Y-94912441D01*
X98279836Y-94740688D01*
X98212821Y-94578901D01*
X98115531Y-94433296D01*
X97991704Y-94309469D01*
X97846099Y-94212179D01*
X97684312Y-94145164D01*
X97549045Y-94118258D01*
X96620787Y-93190000D01*
X118082772Y-93190000D01*
X119022307Y-94129536D01*
X118998815Y-94148815D01*
X118919463Y-94245506D01*
X118860498Y-94355820D01*
X118839607Y-94424687D01*
X118815134Y-94394866D01*
X118589014Y-94209294D01*
X118331034Y-94071401D01*
X118051111Y-93986487D01*
X117832950Y-93965000D01*
X117687050Y-93965000D01*
X117468889Y-93986487D01*
X117188966Y-94071401D01*
X116930986Y-94209294D01*
X116704866Y-94394866D01*
X116519294Y-94620986D01*
X116490000Y-94675791D01*
X116460706Y-94620986D01*
X116275134Y-94394866D01*
X116049014Y-94209294D01*
X115791034Y-94071401D01*
X115511111Y-93986487D01*
X115292950Y-93965000D01*
X115147050Y-93965000D01*
X114928889Y-93986487D01*
X114648966Y-94071401D01*
X114390986Y-94209294D01*
X114164866Y-94394866D01*
X113979294Y-94620986D01*
X113950000Y-94675791D01*
X113920706Y-94620986D01*
X113735134Y-94394866D01*
X113509014Y-94209294D01*
X113251034Y-94071401D01*
X112971111Y-93986487D01*
X112752950Y-93965000D01*
X112607050Y-93965000D01*
X112388889Y-93986487D01*
X112108966Y-94071401D01*
X111850986Y-94209294D01*
X111624866Y-94394866D01*
X111439294Y-94620986D01*
X111410000Y-94675791D01*
X111380706Y-94620986D01*
X111195134Y-94394866D01*
X110969014Y-94209294D01*
X110711034Y-94071401D01*
X110431111Y-93986487D01*
X110212950Y-93965000D01*
X110067050Y-93965000D01*
X109848889Y-93986487D01*
X109568966Y-94071401D01*
X109310986Y-94209294D01*
X109084866Y-94394866D01*
X108899294Y-94620986D01*
X108761401Y-94878966D01*
X108676487Y-95158889D01*
X108647815Y-95450000D01*
X108676487Y-95741111D01*
X108761401Y-96021034D01*
X108899294Y-96279014D01*
X109084866Y-96505134D01*
X109310986Y-96690706D01*
X109568966Y-96828599D01*
X109848889Y-96913513D01*
X110067050Y-96935000D01*
X110212950Y-96935000D01*
X110431111Y-96913513D01*
X110711034Y-96828599D01*
X110969014Y-96690706D01*
X111195134Y-96505134D01*
X111380706Y-96279014D01*
X111410000Y-96224209D01*
X111439294Y-96279014D01*
X111624866Y-96505134D01*
X111850986Y-96690706D01*
X112108966Y-96828599D01*
X112388889Y-96913513D01*
X112607050Y-96935000D01*
X112752950Y-96935000D01*
X112971111Y-96913513D01*
X113251034Y-96828599D01*
X113509014Y-96690706D01*
X113735134Y-96505134D01*
X113920706Y-96279014D01*
X113950000Y-96224209D01*
X113979294Y-96279014D01*
X114164866Y-96505134D01*
X114390986Y-96690706D01*
X114648966Y-96828599D01*
X114928889Y-96913513D01*
X115147050Y-96935000D01*
X115292950Y-96935000D01*
X115511111Y-96913513D01*
X115791034Y-96828599D01*
X116049014Y-96690706D01*
X116275134Y-96505134D01*
X116460706Y-96279014D01*
X116490000Y-96224209D01*
X116519294Y-96279014D01*
X116704866Y-96505134D01*
X116930986Y-96690706D01*
X117188966Y-96828599D01*
X117468889Y-96913513D01*
X117687050Y-96935000D01*
X117832950Y-96935000D01*
X118051111Y-96913513D01*
X118331034Y-96828599D01*
X118589014Y-96690706D01*
X118815134Y-96505134D01*
X118839607Y-96475313D01*
X118860498Y-96544180D01*
X118919463Y-96654494D01*
X118998815Y-96751185D01*
X119095506Y-96830537D01*
X119205820Y-96889502D01*
X119325518Y-96925812D01*
X119450000Y-96938072D01*
X121150000Y-96938072D01*
X121274482Y-96925812D01*
X121394180Y-96889502D01*
X121504494Y-96830537D01*
X121601185Y-96751185D01*
X121680537Y-96654494D01*
X121739502Y-96544180D01*
X121775812Y-96424482D01*
X121788072Y-96300000D01*
X121788072Y-95112441D01*
X130261000Y-95112441D01*
X130261000Y-95287559D01*
X130295164Y-95459312D01*
X130362179Y-95621099D01*
X130459469Y-95766704D01*
X130583296Y-95890531D01*
X130728901Y-95987821D01*
X130890688Y-96054836D01*
X131062441Y-96089000D01*
X131237559Y-96089000D01*
X131409312Y-96054836D01*
X131565838Y-95990000D01*
X135622772Y-95990000D01*
X136368323Y-96735551D01*
X136335518Y-96814750D01*
X136265000Y-97169268D01*
X136265000Y-97530732D01*
X136335518Y-97885250D01*
X136473844Y-98219199D01*
X136674662Y-98519744D01*
X136930256Y-98775338D01*
X137230801Y-98976156D01*
X137564750Y-99114482D01*
X137919268Y-99185000D01*
X138280732Y-99185000D01*
X138635250Y-99114482D01*
X138969199Y-98976156D01*
X139269744Y-98775338D01*
X139525338Y-98519744D01*
X139726156Y-98219199D01*
X139864482Y-97885250D01*
X139935000Y-97530732D01*
X139935000Y-97169268D01*
X139864482Y-96814750D01*
X139726156Y-96480801D01*
X139525338Y-96180256D01*
X139269744Y-95924662D01*
X138969199Y-95723844D01*
X138635250Y-95585518D01*
X138280732Y-95515000D01*
X137919268Y-95515000D01*
X137564750Y-95585518D01*
X137485551Y-95618323D01*
X136536058Y-94668830D01*
X136511317Y-94638683D01*
X136391024Y-94539961D01*
X136253783Y-94466604D01*
X136104867Y-94421431D01*
X135988806Y-94410000D01*
X135988805Y-94410000D01*
X135950000Y-94406178D01*
X135911195Y-94410000D01*
X131565838Y-94410000D01*
X131409312Y-94345164D01*
X131237559Y-94311000D01*
X131062441Y-94311000D01*
X130890688Y-94345164D01*
X130728901Y-94412179D01*
X130583296Y-94509469D01*
X130459469Y-94633296D01*
X130362179Y-94778901D01*
X130295164Y-94940688D01*
X130261000Y-95112441D01*
X121788072Y-95112441D01*
X121788072Y-94600000D01*
X121775812Y-94475518D01*
X121739502Y-94355820D01*
X121680537Y-94245506D01*
X121601185Y-94148815D01*
X121504494Y-94069463D01*
X121394180Y-94010498D01*
X121274482Y-93974188D01*
X121150000Y-93961928D01*
X121020413Y-93961928D01*
X120960039Y-93848976D01*
X120909664Y-93787594D01*
X120886054Y-93758825D01*
X120861317Y-93728683D01*
X120831176Y-93703947D01*
X119837228Y-92710000D01*
X153838704Y-92710000D01*
X153862058Y-92766660D01*
X153866773Y-92775380D01*
X153970197Y-92963509D01*
X154006536Y-93016580D01*
X154042164Y-93070205D01*
X154048483Y-93077843D01*
X154186478Y-93242299D01*
X154232444Y-93287312D01*
X154277798Y-93332984D01*
X154285475Y-93339244D01*
X154285481Y-93339250D01*
X154285488Y-93339254D01*
X154452790Y-93473770D01*
X154506628Y-93509001D01*
X154559989Y-93544993D01*
X154568742Y-93549647D01*
X154758995Y-93649108D01*
X154818639Y-93673205D01*
X154873000Y-93696057D01*
X154873000Y-106304849D01*
X154863778Y-106307704D01*
X154804489Y-106332627D01*
X154744793Y-106356746D01*
X154736040Y-106361400D01*
X154547195Y-106463508D01*
X154493836Y-106499499D01*
X154440001Y-106534728D01*
X154432319Y-106540993D01*
X154266903Y-106677836D01*
X154221565Y-106723491D01*
X154175579Y-106768524D01*
X154169260Y-106776162D01*
X154033575Y-106942529D01*
X153997970Y-106996120D01*
X153961609Y-107049223D01*
X153956895Y-107057944D01*
X153856107Y-107247497D01*
X153838589Y-107290000D01*
X114667228Y-107290000D01*
X114896557Y-107060672D01*
X114938889Y-107073513D01*
X115157050Y-107095000D01*
X115302950Y-107095000D01*
X115521111Y-107073513D01*
X115801034Y-106988599D01*
X116059014Y-106850706D01*
X116285134Y-106665134D01*
X116470706Y-106439014D01*
X116608599Y-106181034D01*
X116693513Y-105901111D01*
X116722185Y-105610000D01*
X116693513Y-105318889D01*
X116680672Y-105276557D01*
X116714630Y-105242599D01*
X118869629Y-105242599D01*
X118846487Y-105318889D01*
X118817815Y-105610000D01*
X118846487Y-105901111D01*
X118931401Y-106181034D01*
X119069294Y-106439014D01*
X119254866Y-106665134D01*
X119480986Y-106850706D01*
X119738966Y-106988599D01*
X120018889Y-107073513D01*
X120237050Y-107095000D01*
X120382950Y-107095000D01*
X120601111Y-107073513D01*
X120881034Y-106988599D01*
X121139014Y-106850706D01*
X121365134Y-106665134D01*
X121550706Y-106439014D01*
X121615462Y-106317865D01*
X121695174Y-106383283D01*
X121832415Y-106456640D01*
X121981331Y-106501813D01*
X122097392Y-106513244D01*
X122097402Y-106513244D01*
X122136197Y-106517065D01*
X122174992Y-106513244D01*
X133434162Y-106513244D01*
X133590688Y-106578080D01*
X133762441Y-106612244D01*
X133937559Y-106612244D01*
X134109312Y-106578080D01*
X134271099Y-106511065D01*
X134416704Y-106413775D01*
X134540531Y-106289948D01*
X134637821Y-106144343D01*
X134704836Y-105982556D01*
X134710947Y-105951834D01*
X135610190Y-105951834D01*
X135645116Y-105955274D01*
X135680042Y-105951834D01*
X135680052Y-105951834D01*
X135784536Y-105941543D01*
X135918597Y-105900876D01*
X136042149Y-105834836D01*
X136150443Y-105745961D01*
X136172717Y-105718820D01*
X136412939Y-105478599D01*
X141972675Y-105478599D01*
X142007601Y-105482039D01*
X142042527Y-105478599D01*
X142042537Y-105478599D01*
X142147021Y-105468308D01*
X142281082Y-105427641D01*
X142404634Y-105361601D01*
X142512928Y-105272726D01*
X142535203Y-105245584D01*
X146032375Y-101748414D01*
X146099248Y-101755000D01*
X146210752Y-101755000D01*
X146377499Y-101738577D01*
X146591447Y-101673676D01*
X146788623Y-101568284D01*
X146790000Y-101567154D01*
X146791377Y-101568284D01*
X146988553Y-101673676D01*
X147202501Y-101738577D01*
X147369248Y-101755000D01*
X147480752Y-101755000D01*
X147647499Y-101738577D01*
X147861447Y-101673676D01*
X148058623Y-101568284D01*
X148231449Y-101426449D01*
X148373284Y-101253623D01*
X148478676Y-101056447D01*
X148543577Y-100842499D01*
X148565491Y-100620000D01*
X148543577Y-100397501D01*
X148478676Y-100183553D01*
X148373284Y-99986377D01*
X148231449Y-99813551D01*
X148058623Y-99671716D01*
X147861447Y-99566324D01*
X147647499Y-99501423D01*
X147480752Y-99485000D01*
X147369248Y-99485000D01*
X147281342Y-99493658D01*
X147295491Y-99350000D01*
X147273577Y-99127501D01*
X147208676Y-98913553D01*
X147103284Y-98716377D01*
X146961449Y-98543551D01*
X146788623Y-98401716D01*
X146591447Y-98296324D01*
X146377499Y-98231423D01*
X146210752Y-98215000D01*
X146099248Y-98215000D01*
X145932501Y-98231423D01*
X145718553Y-98296324D01*
X145521377Y-98401716D01*
X145520000Y-98402846D01*
X145518623Y-98401716D01*
X145321447Y-98296324D01*
X145107499Y-98231423D01*
X144940752Y-98215000D01*
X144829248Y-98215000D01*
X144662501Y-98231423D01*
X144448553Y-98296324D01*
X144251377Y-98401716D01*
X144250000Y-98402846D01*
X144248623Y-98401716D01*
X144051447Y-98296324D01*
X143837499Y-98231423D01*
X143670752Y-98215000D01*
X143559248Y-98215000D01*
X143392501Y-98231423D01*
X143178553Y-98296324D01*
X142981377Y-98401716D01*
X142980000Y-98402846D01*
X142978623Y-98401716D01*
X142781447Y-98296324D01*
X142567499Y-98231423D01*
X142400752Y-98215000D01*
X142289248Y-98215000D01*
X142122501Y-98231423D01*
X141908553Y-98296324D01*
X141711377Y-98401716D01*
X141538551Y-98543551D01*
X141396716Y-98716377D01*
X141291324Y-98913553D01*
X141226423Y-99127501D01*
X141204509Y-99350000D01*
X141226423Y-99572499D01*
X141291324Y-99786447D01*
X141396716Y-99983623D01*
X141397846Y-99985000D01*
X141396716Y-99986377D01*
X141291324Y-100183553D01*
X141226423Y-100397501D01*
X141204509Y-100620000D01*
X141216586Y-100742626D01*
X139858618Y-102100594D01*
X139726156Y-101780801D01*
X139525338Y-101480256D01*
X139269744Y-101224662D01*
X138969199Y-101023844D01*
X138635250Y-100885518D01*
X138280732Y-100815000D01*
X137919268Y-100815000D01*
X137564750Y-100885518D01*
X137485552Y-100918323D01*
X135265000Y-98697772D01*
X135265000Y-98515838D01*
X135329836Y-98359312D01*
X135364000Y-98187559D01*
X135364000Y-98012441D01*
X135329836Y-97840688D01*
X135262821Y-97678901D01*
X135165531Y-97533296D01*
X135041704Y-97409469D01*
X134896099Y-97312179D01*
X134734312Y-97245164D01*
X134562559Y-97211000D01*
X134387441Y-97211000D01*
X134215688Y-97245164D01*
X134053901Y-97312179D01*
X133908296Y-97409469D01*
X133784469Y-97533296D01*
X133687179Y-97678901D01*
X133620164Y-97840688D01*
X133586000Y-98012441D01*
X133586000Y-98156041D01*
X133313587Y-98043204D01*
X132920430Y-97965000D01*
X132519570Y-97965000D01*
X132126413Y-98043204D01*
X131756066Y-98196607D01*
X131422763Y-98419313D01*
X131139313Y-98702763D01*
X130916607Y-99036066D01*
X130912708Y-99045479D01*
X130052658Y-98185430D01*
X129987821Y-98028901D01*
X129890531Y-97883296D01*
X129766704Y-97759469D01*
X129621099Y-97662179D01*
X129459312Y-97595164D01*
X129287559Y-97561000D01*
X129112441Y-97561000D01*
X128940688Y-97595164D01*
X128778901Y-97662179D01*
X128633296Y-97759469D01*
X128509469Y-97883296D01*
X128412179Y-98028901D01*
X128345164Y-98190688D01*
X128311000Y-98362441D01*
X128311000Y-98537559D01*
X128345164Y-98709312D01*
X128412179Y-98871099D01*
X128509469Y-99016704D01*
X128633296Y-99140531D01*
X128778901Y-99237821D01*
X128935430Y-99302658D01*
X130163946Y-100531175D01*
X130188683Y-100561317D01*
X130308976Y-100660039D01*
X130413088Y-100715688D01*
X130446217Y-100733396D01*
X130595132Y-100778569D01*
X130749999Y-100793822D01*
X130788805Y-100790000D01*
X130844561Y-100790000D01*
X130916607Y-100963934D01*
X131139313Y-101297237D01*
X131422763Y-101580687D01*
X131756066Y-101803393D01*
X132126413Y-101956796D01*
X132519570Y-102035000D01*
X132920430Y-102035000D01*
X133313587Y-101956796D01*
X133683934Y-101803393D01*
X134017237Y-101580687D01*
X134300687Y-101297237D01*
X134523393Y-100963934D01*
X134676796Y-100593587D01*
X134718201Y-100385429D01*
X136214414Y-101881642D01*
X136104449Y-101915000D01*
X136099161Y-101916604D01*
X135961920Y-101989961D01*
X135841627Y-102088683D01*
X135816890Y-102118825D01*
X134478315Y-103457401D01*
X126922668Y-103457401D01*
X126975439Y-103330000D01*
X128021195Y-103330000D01*
X128060000Y-103333822D01*
X128098805Y-103330000D01*
X128098806Y-103330000D01*
X128214867Y-103318569D01*
X128363783Y-103273396D01*
X128501024Y-103200039D01*
X128621317Y-103101317D01*
X128646058Y-103071170D01*
X128939571Y-102777658D01*
X129096099Y-102712821D01*
X129241704Y-102615531D01*
X129365531Y-102491704D01*
X129462821Y-102346099D01*
X129529836Y-102184312D01*
X129564000Y-102012559D01*
X129564000Y-101837441D01*
X129529836Y-101665688D01*
X129462821Y-101503901D01*
X129365531Y-101358296D01*
X129241704Y-101234469D01*
X129096099Y-101137179D01*
X128934312Y-101070164D01*
X128762559Y-101036000D01*
X128587441Y-101036000D01*
X128415688Y-101070164D01*
X128253901Y-101137179D01*
X128108296Y-101234469D01*
X127984469Y-101358296D01*
X127887179Y-101503901D01*
X127822342Y-101660429D01*
X127732772Y-101750000D01*
X126975439Y-101750000D01*
X126903393Y-101576066D01*
X126680687Y-101242763D01*
X126397237Y-100959313D01*
X126063934Y-100736607D01*
X125693587Y-100583204D01*
X125300430Y-100505000D01*
X124899570Y-100505000D01*
X124506413Y-100583204D01*
X124136066Y-100736607D01*
X123802763Y-100959313D01*
X123519313Y-101242763D01*
X123296607Y-101576066D01*
X123156512Y-101914284D01*
X121311058Y-100068830D01*
X121286317Y-100038683D01*
X121166024Y-99939961D01*
X121028783Y-99866604D01*
X120879867Y-99821431D01*
X120763806Y-99810000D01*
X120763805Y-99810000D01*
X120725000Y-99806178D01*
X120686195Y-99810000D01*
X111627229Y-99810000D01*
X109076799Y-97259570D01*
X123065000Y-97259570D01*
X123065000Y-97660430D01*
X123143204Y-98053587D01*
X123296607Y-98423934D01*
X123519313Y-98757237D01*
X123802763Y-99040687D01*
X124136066Y-99263393D01*
X124506413Y-99416796D01*
X124899570Y-99495000D01*
X125300430Y-99495000D01*
X125693587Y-99416796D01*
X126063934Y-99263393D01*
X126397237Y-99040687D01*
X126680687Y-98757237D01*
X126903393Y-98423934D01*
X127056796Y-98053587D01*
X127135000Y-97660430D01*
X127135000Y-97259570D01*
X127056796Y-96866413D01*
X126903393Y-96496066D01*
X126680687Y-96162763D01*
X126397237Y-95879313D01*
X126063934Y-95656607D01*
X125693587Y-95503204D01*
X125300430Y-95425000D01*
X124899570Y-95425000D01*
X124506413Y-95503204D01*
X124136066Y-95656607D01*
X123802763Y-95879313D01*
X123519313Y-96162763D01*
X123296607Y-96496066D01*
X123143204Y-96866413D01*
X123065000Y-97259570D01*
X109076799Y-97259570D01*
X107377658Y-95560430D01*
X107312821Y-95403901D01*
X107215531Y-95258296D01*
X107091704Y-95134469D01*
X106946099Y-95037179D01*
X106784312Y-94970164D01*
X106612559Y-94936000D01*
X106437441Y-94936000D01*
X106265688Y-94970164D01*
X106103901Y-95037179D01*
X105958296Y-95134469D01*
X105834469Y-95258296D01*
X105737179Y-95403901D01*
X105670164Y-95565688D01*
X105636000Y-95737441D01*
X105636000Y-95912559D01*
X105670164Y-96084312D01*
X105737179Y-96246099D01*
X105834469Y-96391704D01*
X105958296Y-96515531D01*
X106103901Y-96612821D01*
X106260430Y-96677658D01*
X110171571Y-100588800D01*
X101919588Y-100588800D01*
X100436200Y-99105413D01*
X100436200Y-97585771D01*
X100512821Y-97471099D01*
X100579836Y-97309312D01*
X100614000Y-97137559D01*
X100614000Y-96962441D01*
X100579836Y-96790688D01*
X100512821Y-96628901D01*
X100415531Y-96483296D01*
X100291704Y-96359469D01*
X100146099Y-96262179D01*
X99984312Y-96195164D01*
X99812559Y-96161000D01*
X99637441Y-96161000D01*
X99465688Y-96195164D01*
X99303901Y-96262179D01*
X99158296Y-96359469D01*
X99034469Y-96483296D01*
X98937179Y-96628901D01*
X98870164Y-96790688D01*
X98836000Y-96962441D01*
X98836000Y-97137559D01*
X98870164Y-97309312D01*
X98937179Y-97471099D01*
X99013800Y-97585771D01*
X99013800Y-97993121D01*
X98990531Y-97958296D01*
X98866704Y-97834469D01*
X98721099Y-97737179D01*
X98559312Y-97670164D01*
X98387559Y-97636000D01*
X98383876Y-97636000D01*
X98379836Y-97615688D01*
X98312821Y-97453901D01*
X98215531Y-97308296D01*
X98091704Y-97184469D01*
X97946099Y-97087179D01*
X97784312Y-97020164D01*
X97612559Y-96986000D01*
X97437441Y-96986000D01*
X97265688Y-97020164D01*
X97103901Y-97087179D01*
X96958296Y-97184469D01*
X96834469Y-97308296D01*
X96737179Y-97453901D01*
X96670164Y-97615688D01*
X96636000Y-97787441D01*
X96636000Y-97962559D01*
X96670164Y-98134312D01*
X96737179Y-98296099D01*
X96813800Y-98410771D01*
X96813800Y-98429324D01*
X96810360Y-98464250D01*
X96813800Y-98499176D01*
X96813800Y-98499186D01*
X96824091Y-98603670D01*
X96864758Y-98737731D01*
X96891392Y-98787559D01*
X96930798Y-98861282D01*
X96987085Y-98929867D01*
X97019674Y-98969577D01*
X97046810Y-98991847D01*
X97210919Y-99155956D01*
X97162179Y-99228901D01*
X97095164Y-99390688D01*
X97061000Y-99562441D01*
X97061000Y-99737559D01*
X97095164Y-99909312D01*
X97162179Y-100071099D01*
X97259469Y-100216704D01*
X97383296Y-100340531D01*
X97528901Y-100437821D01*
X97667870Y-100495384D01*
X97662179Y-100503901D01*
X97595164Y-100665688D01*
X97561000Y-100837441D01*
X97561000Y-101012559D01*
X97595164Y-101184312D01*
X97662179Y-101346099D01*
X97759469Y-101491704D01*
X97883296Y-101615531D01*
X98028901Y-101712821D01*
X98190688Y-101779836D01*
X98325955Y-101806742D01*
X99062011Y-102542799D01*
X95913698Y-102542799D01*
X95840531Y-102433296D01*
X95716704Y-102309469D01*
X95571099Y-102212179D01*
X95409312Y-102145164D01*
X95237559Y-102111000D01*
X95062441Y-102111000D01*
X94890688Y-102145164D01*
X94728901Y-102212179D01*
X94583296Y-102309469D01*
X94459469Y-102433296D01*
X94396786Y-102527108D01*
X94259312Y-102470164D01*
X94087559Y-102436000D01*
X93912441Y-102436000D01*
X93740688Y-102470164D01*
X93578901Y-102537179D01*
X93433296Y-102634469D01*
X93309469Y-102758296D01*
X93212179Y-102903901D01*
X93145164Y-103065688D01*
X93111000Y-103237441D01*
X93111000Y-103412559D01*
X93145164Y-103584312D01*
X93212179Y-103746099D01*
X93309469Y-103891704D01*
X93433296Y-104015531D01*
X93578901Y-104112821D01*
X93740688Y-104179836D01*
X93912441Y-104214000D01*
X94087559Y-104214000D01*
X94227405Y-104186183D01*
X94237177Y-104194202D01*
X94294091Y-104224623D01*
X94360728Y-104260242D01*
X94413190Y-104276156D01*
X94494790Y-104300909D01*
X94599274Y-104311200D01*
X94599281Y-104311200D01*
X94634210Y-104314640D01*
X94669138Y-104311200D01*
X111386858Y-104311200D01*
X111309463Y-104405506D01*
X111250498Y-104515820D01*
X111214188Y-104635518D01*
X111201928Y-104760000D01*
X111201928Y-106460000D01*
X111214188Y-106584482D01*
X111250498Y-106704180D01*
X111309463Y-106814494D01*
X111313982Y-106820000D01*
X90706429Y-106820000D01*
X90895134Y-106665134D01*
X91080706Y-106439014D01*
X91218599Y-106181034D01*
X91303513Y-105901111D01*
X91332185Y-105610000D01*
X91303513Y-105318889D01*
X91218599Y-105038966D01*
X91080706Y-104780986D01*
X90895134Y-104554866D01*
X90669014Y-104369294D01*
X90518430Y-104288805D01*
X90640531Y-104166704D01*
X90737821Y-104021099D01*
X90804836Y-103859312D01*
X90839000Y-103687559D01*
X90839000Y-103512441D01*
X90804836Y-103340688D01*
X90737821Y-103178901D01*
X90640531Y-103033296D01*
X90516704Y-102909469D01*
X90371099Y-102812179D01*
X90308964Y-102786442D01*
X90304836Y-102765688D01*
X90237821Y-102603901D01*
X90140531Y-102458296D01*
X90043435Y-102361200D01*
X91964229Y-102361200D01*
X92078901Y-102437821D01*
X92240688Y-102504836D01*
X92412441Y-102539000D01*
X92587559Y-102539000D01*
X92759312Y-102504836D01*
X92921099Y-102437821D01*
X93066704Y-102340531D01*
X93190531Y-102216704D01*
X93287821Y-102071099D01*
X93354836Y-101909312D01*
X93389000Y-101737559D01*
X93389000Y-101562441D01*
X93354836Y-101390688D01*
X93294416Y-101244823D01*
X93329836Y-101159312D01*
X93364000Y-100987559D01*
X93364000Y-100812441D01*
X93329836Y-100640688D01*
X93262821Y-100478901D01*
X93165531Y-100333296D01*
X93041704Y-100209469D01*
X92896099Y-100112179D01*
X92734312Y-100045164D01*
X92562559Y-100011000D01*
X92387441Y-100011000D01*
X92215688Y-100045164D01*
X92053901Y-100112179D01*
X91939229Y-100188800D01*
X76844588Y-100188800D01*
X76402602Y-99746814D01*
X76380327Y-99719673D01*
X76272033Y-99630798D01*
X76148481Y-99564758D01*
X76014420Y-99524091D01*
X75909936Y-99513800D01*
X75909926Y-99513800D01*
X75875000Y-99510360D01*
X75840074Y-99513800D01*
X73035771Y-99513800D01*
X72921099Y-99437179D01*
X72759312Y-99370164D01*
X72587559Y-99336000D01*
X72412441Y-99336000D01*
X72240688Y-99370164D01*
X72078901Y-99437179D01*
X71933296Y-99534469D01*
X71809469Y-99658296D01*
X71712179Y-99803901D01*
X71645164Y-99965688D01*
X71611000Y-100137441D01*
X71611000Y-100312559D01*
X71645164Y-100484312D01*
X71680584Y-100569823D01*
X71620164Y-100715688D01*
X71586000Y-100887441D01*
X71586000Y-101062559D01*
X71620164Y-101234312D01*
X71687179Y-101396099D01*
X71784469Y-101541704D01*
X71908296Y-101665531D01*
X72053901Y-101762821D01*
X72215688Y-101829836D01*
X72387441Y-101864000D01*
X72562559Y-101864000D01*
X72734312Y-101829836D01*
X72896099Y-101762821D01*
X73041704Y-101665531D01*
X73072168Y-101635067D01*
X72943204Y-101946413D01*
X72865000Y-102339570D01*
X72865000Y-102740430D01*
X72943204Y-103133587D01*
X73096607Y-103503934D01*
X73319313Y-103837237D01*
X73602763Y-104120687D01*
X73936066Y-104343393D01*
X74306413Y-104496796D01*
X74699570Y-104575000D01*
X75100430Y-104575000D01*
X75493587Y-104496796D01*
X75863934Y-104343393D01*
X76197237Y-104120687D01*
X76480687Y-103837237D01*
X76703393Y-103503934D01*
X76856796Y-103133587D01*
X76935000Y-102740430D01*
X76935000Y-102361200D01*
X79199385Y-102361200D01*
X76833825Y-104726761D01*
X76803684Y-104751497D01*
X76778947Y-104781639D01*
X76778946Y-104781640D01*
X76766830Y-104796404D01*
X76704962Y-104871790D01*
X76690525Y-104898800D01*
X76631604Y-105009032D01*
X76586431Y-105157948D01*
X76571178Y-105312814D01*
X76575001Y-105351629D01*
X76575000Y-106820000D01*
X65688019Y-106820000D01*
X65321796Y-106453777D01*
X65329000Y-106417559D01*
X65329000Y-106242441D01*
X65294836Y-106070688D01*
X65227821Y-105908901D01*
X65130531Y-105763296D01*
X65006704Y-105639469D01*
X64861099Y-105542179D01*
X64699312Y-105475164D01*
X64527559Y-105441000D01*
X64352441Y-105441000D01*
X64180688Y-105475164D01*
X64018901Y-105542179D01*
X63873296Y-105639469D01*
X63749469Y-105763296D01*
X63652179Y-105908901D01*
X63585164Y-106070688D01*
X63551000Y-106242441D01*
X63551000Y-106417559D01*
X63585164Y-106589312D01*
X63652179Y-106751099D01*
X63652290Y-106751265D01*
X63661431Y-106844077D01*
X63706604Y-106992993D01*
X63779961Y-107130234D01*
X63878683Y-107250527D01*
X63908829Y-107275267D01*
X63923562Y-107290000D01*
X60134721Y-107290000D01*
X59850101Y-107262093D01*
X59609718Y-107189517D01*
X59388011Y-107071633D01*
X59193420Y-106912929D01*
X59033365Y-106719455D01*
X58913936Y-106498576D01*
X58839683Y-106258701D01*
X58810000Y-105976291D01*
X58810000Y-103661062D01*
X58978682Y-103799495D01*
X59206259Y-103921138D01*
X59453195Y-103996045D01*
X59645649Y-104015000D01*
X60124351Y-104015000D01*
X60316805Y-103996045D01*
X60563741Y-103921138D01*
X60791318Y-103799495D01*
X60990792Y-103635792D01*
X61106336Y-103495000D01*
X62229150Y-103495000D01*
X62229326Y-103495094D01*
X62452700Y-103562853D01*
X62626793Y-103580000D01*
X63143207Y-103580000D01*
X63317300Y-103562853D01*
X63540674Y-103495094D01*
X63746536Y-103385058D01*
X63926975Y-103236975D01*
X64075058Y-103056536D01*
X64185094Y-102850674D01*
X64252853Y-102627300D01*
X64275733Y-102395000D01*
X64252853Y-102162700D01*
X64185094Y-101939326D01*
X64075058Y-101733464D01*
X63926975Y-101553025D01*
X63746536Y-101404942D01*
X63540674Y-101294906D01*
X63317300Y-101227147D01*
X63143207Y-101210000D01*
X62626793Y-101210000D01*
X62452700Y-101227147D01*
X62229326Y-101294906D01*
X62023464Y-101404942D01*
X61843025Y-101553025D01*
X61694942Y-101733464D01*
X61597909Y-101915000D01*
X61106336Y-101915000D01*
X60990792Y-101774208D01*
X60791318Y-101610505D01*
X60563741Y-101488862D01*
X60316805Y-101413955D01*
X60124351Y-101395000D01*
X59645649Y-101395000D01*
X59453195Y-101413955D01*
X59206259Y-101488862D01*
X58978682Y-101610505D01*
X58810000Y-101748938D01*
X58810000Y-99799570D01*
X65245000Y-99799570D01*
X65245000Y-100200430D01*
X65323204Y-100593587D01*
X65476607Y-100963934D01*
X65699313Y-101297237D01*
X65982763Y-101580687D01*
X66316066Y-101803393D01*
X66686413Y-101956796D01*
X67079570Y-102035000D01*
X67480430Y-102035000D01*
X67873587Y-101956796D01*
X68243934Y-101803393D01*
X68577237Y-101580687D01*
X68860687Y-101297237D01*
X69083393Y-100963934D01*
X69236796Y-100593587D01*
X69315000Y-100200430D01*
X69315000Y-99799570D01*
X69236796Y-99406413D01*
X69083393Y-99036066D01*
X68860687Y-98702763D01*
X68577237Y-98419313D01*
X68243934Y-98196607D01*
X67873587Y-98043204D01*
X67480430Y-97965000D01*
X67079570Y-97965000D01*
X66686413Y-98043204D01*
X66316066Y-98196607D01*
X65982763Y-98419313D01*
X65699313Y-98702763D01*
X65476607Y-99036066D01*
X65323204Y-99406413D01*
X65245000Y-99799570D01*
X58810000Y-99799570D01*
X58810000Y-98201062D01*
X58978682Y-98339495D01*
X59206259Y-98461138D01*
X59453195Y-98536045D01*
X59645649Y-98555000D01*
X60124351Y-98555000D01*
X60316805Y-98536045D01*
X60563741Y-98461138D01*
X60791318Y-98339495D01*
X60990792Y-98175792D01*
X61106336Y-98035000D01*
X61597909Y-98035000D01*
X61694942Y-98216536D01*
X61843025Y-98396975D01*
X62023464Y-98545058D01*
X62229326Y-98655094D01*
X62452700Y-98722853D01*
X62626793Y-98740000D01*
X63143207Y-98740000D01*
X63317300Y-98722853D01*
X63540674Y-98655094D01*
X63746536Y-98545058D01*
X63926975Y-98396975D01*
X64075058Y-98216536D01*
X64185094Y-98010674D01*
X64252853Y-97787300D01*
X64275733Y-97555000D01*
X64252853Y-97322700D01*
X64233703Y-97259570D01*
X72865000Y-97259570D01*
X72865000Y-97660430D01*
X72943204Y-98053587D01*
X73096607Y-98423934D01*
X73319313Y-98757237D01*
X73602763Y-99040687D01*
X73936066Y-99263393D01*
X74306413Y-99416796D01*
X74699570Y-99495000D01*
X75100430Y-99495000D01*
X75493587Y-99416796D01*
X75863934Y-99263393D01*
X76197237Y-99040687D01*
X76480687Y-98757237D01*
X76703393Y-98423934D01*
X76856796Y-98053587D01*
X76935000Y-97660430D01*
X76935000Y-97259570D01*
X76856796Y-96866413D01*
X76703393Y-96496066D01*
X76480687Y-96162763D01*
X76197237Y-95879313D01*
X75863934Y-95656607D01*
X75493587Y-95503204D01*
X75100430Y-95425000D01*
X74699570Y-95425000D01*
X74306413Y-95503204D01*
X73936066Y-95656607D01*
X73602763Y-95879313D01*
X73319313Y-96162763D01*
X73096607Y-96496066D01*
X72943204Y-96866413D01*
X72865000Y-97259570D01*
X64233703Y-97259570D01*
X64185094Y-97099326D01*
X64075058Y-96893464D01*
X63926975Y-96713025D01*
X63746536Y-96564942D01*
X63540674Y-96454906D01*
X63317300Y-96387147D01*
X63143207Y-96370000D01*
X62626793Y-96370000D01*
X62452700Y-96387147D01*
X62229326Y-96454906D01*
X62229150Y-96455000D01*
X61106336Y-96455000D01*
X60990792Y-96314208D01*
X60791318Y-96150505D01*
X60563741Y-96028862D01*
X60316805Y-95953955D01*
X60124351Y-95935000D01*
X59645649Y-95935000D01*
X59453195Y-95953955D01*
X59206259Y-96028862D01*
X58978682Y-96150505D01*
X58810000Y-96288938D01*
X58810000Y-94034721D01*
X58837907Y-93750101D01*
X58910484Y-93509715D01*
X59028368Y-93288009D01*
X59187068Y-93093423D01*
X59380545Y-92933365D01*
X59601424Y-92813936D01*
X59841297Y-92739683D01*
X60123716Y-92710000D01*
X80449345Y-92710000D01*
X80447841Y-92711833D01*
M02*
