G04 #@! TF.GenerationSoftware,KiCad,Pcbnew,(5.1.4-0-10_14)*
G04 #@! TF.CreationDate,2019-10-03T22:44:09-07:00*
G04 #@! TF.ProjectId,STM32L0xx_18650,53544d33-324c-4307-9878-5f3138363530,rev?*
G04 #@! TF.SameCoordinates,Original*
G04 #@! TF.FileFunction,Legend,Bot*
G04 #@! TF.FilePolarity,Positive*
%FSLAX46Y46*%
G04 Gerber Fmt 4.6, Leading zero omitted, Abs format (unit mm)*
G04 Created by KiCad (PCBNEW (5.1.4-0-10_14)) date 2019-10-03 22:44:09*
%MOMM*%
%LPD*%
G04 APERTURE LIST*
%ADD10C,0.100000*%
%ADD11C,0.080000*%
%ADD12C,0.200000*%
%ADD13C,0.300000*%
G04 APERTURE END LIST*
D10*
X108450000Y-95725000D02*
X108483333Y-95758333D01*
X108583333Y-95791666D01*
X108650000Y-95791666D01*
X108750000Y-95758333D01*
X108816666Y-95691666D01*
X108850000Y-95625000D01*
X108883333Y-95491666D01*
X108883333Y-95391666D01*
X108850000Y-95258333D01*
X108816666Y-95191666D01*
X108750000Y-95125000D01*
X108650000Y-95091666D01*
X108583333Y-95091666D01*
X108483333Y-95125000D01*
X108450000Y-95158333D01*
X107850000Y-95791666D02*
X107850000Y-95425000D01*
X107883333Y-95358333D01*
X107950000Y-95325000D01*
X108083333Y-95325000D01*
X108150000Y-95358333D01*
X107850000Y-95758333D02*
X107916666Y-95791666D01*
X108083333Y-95791666D01*
X108150000Y-95758333D01*
X108183333Y-95691666D01*
X108183333Y-95625000D01*
X108150000Y-95558333D01*
X108083333Y-95525000D01*
X107916666Y-95525000D01*
X107850000Y-95491666D01*
X107616666Y-95325000D02*
X107350000Y-95325000D01*
X107516666Y-95091666D02*
X107516666Y-95691666D01*
X107483333Y-95758333D01*
X107416666Y-95791666D01*
X107350000Y-95791666D01*
X107116666Y-95791666D02*
X107116666Y-95091666D01*
X106816666Y-95791666D02*
X106816666Y-95425000D01*
X106850000Y-95358333D01*
X106916666Y-95325000D01*
X107016666Y-95325000D01*
X107083333Y-95358333D01*
X107116666Y-95391666D01*
X106383333Y-95791666D02*
X106450000Y-95758333D01*
X106483333Y-95725000D01*
X106516666Y-95658333D01*
X106516666Y-95458333D01*
X106483333Y-95391666D01*
X106450000Y-95358333D01*
X106383333Y-95325000D01*
X106283333Y-95325000D01*
X106216666Y-95358333D01*
X106183333Y-95391666D01*
X106150000Y-95458333D01*
X106150000Y-95658333D01*
X106183333Y-95725000D01*
X106216666Y-95758333D01*
X106283333Y-95791666D01*
X106383333Y-95791666D01*
X105550000Y-95791666D02*
X105550000Y-95091666D01*
X105550000Y-95758333D02*
X105616666Y-95791666D01*
X105750000Y-95791666D01*
X105816666Y-95758333D01*
X105850000Y-95725000D01*
X105883333Y-95658333D01*
X105883333Y-95458333D01*
X105850000Y-95391666D01*
X105816666Y-95358333D01*
X105750000Y-95325000D01*
X105616666Y-95325000D01*
X105550000Y-95358333D01*
X104950000Y-95758333D02*
X105016666Y-95791666D01*
X105150000Y-95791666D01*
X105216666Y-95758333D01*
X105250000Y-95691666D01*
X105250000Y-95425000D01*
X105216666Y-95358333D01*
X105150000Y-95325000D01*
X105016666Y-95325000D01*
X104950000Y-95358333D01*
X104916666Y-95425000D01*
X104916666Y-95491666D01*
X105250000Y-95558333D01*
X104600000Y-94275000D02*
X118950000Y-94275000D01*
X104600000Y-96625000D02*
X104600000Y-94275000D01*
X118950000Y-96625000D02*
X104600000Y-96625000D01*
X118950000Y-94275000D02*
X118950000Y-96625000D01*
X97805952Y-104119047D02*
X98022619Y-103809523D01*
X98177380Y-104119047D02*
X98177380Y-103469047D01*
X97929761Y-103469047D01*
X97867857Y-103500000D01*
X97836904Y-103530952D01*
X97805952Y-103592857D01*
X97805952Y-103685714D01*
X97836904Y-103747619D01*
X97867857Y-103778571D01*
X97929761Y-103809523D01*
X98177380Y-103809523D01*
X97558333Y-104088095D02*
X97465476Y-104119047D01*
X97310714Y-104119047D01*
X97248809Y-104088095D01*
X97217857Y-104057142D01*
X97186904Y-103995238D01*
X97186904Y-103933333D01*
X97217857Y-103871428D01*
X97248809Y-103840476D01*
X97310714Y-103809523D01*
X97434523Y-103778571D01*
X97496428Y-103747619D01*
X97527380Y-103716666D01*
X97558333Y-103654761D01*
X97558333Y-103592857D01*
X97527380Y-103530952D01*
X97496428Y-103500000D01*
X97434523Y-103469047D01*
X97279761Y-103469047D01*
X97186904Y-103500000D01*
X97001190Y-103469047D02*
X96629761Y-103469047D01*
X96815476Y-104119047D02*
X96815476Y-103469047D01*
X95754761Y-104119047D02*
X95754761Y-103469047D01*
X95507142Y-103469047D01*
X95445238Y-103500000D01*
X95414285Y-103530952D01*
X95383333Y-103592857D01*
X95383333Y-103685714D01*
X95414285Y-103747619D01*
X95445238Y-103778571D01*
X95507142Y-103809523D01*
X95754761Y-103809523D01*
X94888095Y-103778571D02*
X94795238Y-103809523D01*
X94764285Y-103840476D01*
X94733333Y-103902380D01*
X94733333Y-103995238D01*
X94764285Y-104057142D01*
X94795238Y-104088095D01*
X94857142Y-104119047D01*
X95104761Y-104119047D01*
X95104761Y-103469047D01*
X94888095Y-103469047D01*
X94826190Y-103500000D01*
X94795238Y-103530952D01*
X94764285Y-103592857D01*
X94764285Y-103654761D01*
X94795238Y-103716666D01*
X94826190Y-103747619D01*
X94888095Y-103778571D01*
X95104761Y-103778571D01*
X94516666Y-103469047D02*
X94083333Y-103469047D01*
X94361904Y-104119047D01*
X93204761Y-104119047D02*
X93204761Y-103469047D01*
X92957142Y-103469047D01*
X92895238Y-103500000D01*
X92864285Y-103530952D01*
X92833333Y-103592857D01*
X92833333Y-103685714D01*
X92864285Y-103747619D01*
X92895238Y-103778571D01*
X92957142Y-103809523D01*
X93204761Y-103809523D01*
X92338095Y-103778571D02*
X92245238Y-103809523D01*
X92214285Y-103840476D01*
X92183333Y-103902380D01*
X92183333Y-103995238D01*
X92214285Y-104057142D01*
X92245238Y-104088095D01*
X92307142Y-104119047D01*
X92554761Y-104119047D01*
X92554761Y-103469047D01*
X92338095Y-103469047D01*
X92276190Y-103500000D01*
X92245238Y-103530952D01*
X92214285Y-103592857D01*
X92214285Y-103654761D01*
X92245238Y-103716666D01*
X92276190Y-103747619D01*
X92338095Y-103778571D01*
X92554761Y-103778571D01*
X91626190Y-103469047D02*
X91750000Y-103469047D01*
X91811904Y-103500000D01*
X91842857Y-103530952D01*
X91904761Y-103623809D01*
X91935714Y-103747619D01*
X91935714Y-103995238D01*
X91904761Y-104057142D01*
X91873809Y-104088095D01*
X91811904Y-104119047D01*
X91688095Y-104119047D01*
X91626190Y-104088095D01*
X91595238Y-104057142D01*
X91564285Y-103995238D01*
X91564285Y-103840476D01*
X91595238Y-103778571D01*
X91626190Y-103747619D01*
X91688095Y-103716666D01*
X91811904Y-103716666D01*
X91873809Y-103747619D01*
X91904761Y-103778571D01*
X91935714Y-103840476D01*
X152256428Y-96864285D02*
X152256428Y-96364285D01*
X152256428Y-96507142D02*
X152220714Y-96435714D01*
X152185000Y-96400000D01*
X152113571Y-96364285D01*
X152042142Y-96364285D01*
X151506428Y-96828571D02*
X151577857Y-96864285D01*
X151720714Y-96864285D01*
X151792142Y-96828571D01*
X151827857Y-96757142D01*
X151827857Y-96471428D01*
X151792142Y-96400000D01*
X151720714Y-96364285D01*
X151577857Y-96364285D01*
X151506428Y-96400000D01*
X151470714Y-96471428D01*
X151470714Y-96542857D01*
X151827857Y-96614285D01*
X151220714Y-96364285D02*
X151042142Y-96864285D01*
X150863571Y-96364285D01*
X149613571Y-96864285D02*
X150042142Y-96864285D01*
X149827857Y-96864285D02*
X149827857Y-96114285D01*
X149899285Y-96221428D01*
X149970714Y-96292857D01*
X150042142Y-96328571D01*
X148970714Y-96864285D02*
X148970714Y-96471428D01*
X149006428Y-96400000D01*
X149077857Y-96364285D01*
X149220714Y-96364285D01*
X149292142Y-96400000D01*
X148970714Y-96828571D02*
X149042142Y-96864285D01*
X149220714Y-96864285D01*
X149292142Y-96828571D01*
X149327857Y-96757142D01*
X149327857Y-96685714D01*
X149292142Y-96614285D01*
X149220714Y-96578571D01*
X149042142Y-96578571D01*
X148970714Y-96542857D01*
X148685000Y-96114285D02*
X148220714Y-96114285D01*
X148470714Y-96400000D01*
X148363571Y-96400000D01*
X148292142Y-96435714D01*
X148256428Y-96471428D01*
X148220714Y-96542857D01*
X148220714Y-96721428D01*
X148256428Y-96792857D01*
X148292142Y-96828571D01*
X148363571Y-96864285D01*
X148577857Y-96864285D01*
X148649285Y-96828571D01*
X148685000Y-96792857D01*
X152539285Y-105642857D02*
X152575000Y-105678571D01*
X152682142Y-105714285D01*
X152753571Y-105714285D01*
X152860714Y-105678571D01*
X152932142Y-105607142D01*
X152967857Y-105535714D01*
X153003571Y-105392857D01*
X153003571Y-105285714D01*
X152967857Y-105142857D01*
X152932142Y-105071428D01*
X152860714Y-105000000D01*
X152753571Y-104964285D01*
X152682142Y-104964285D01*
X152575000Y-105000000D01*
X152539285Y-105035714D01*
X152217857Y-105714285D02*
X152217857Y-105214285D01*
X152217857Y-105357142D02*
X152182142Y-105285714D01*
X152146428Y-105250000D01*
X152075000Y-105214285D01*
X152003571Y-105214285D01*
X151467857Y-105678571D02*
X151539285Y-105714285D01*
X151682142Y-105714285D01*
X151753571Y-105678571D01*
X151789285Y-105607142D01*
X151789285Y-105321428D01*
X151753571Y-105250000D01*
X151682142Y-105214285D01*
X151539285Y-105214285D01*
X151467857Y-105250000D01*
X151432142Y-105321428D01*
X151432142Y-105392857D01*
X151789285Y-105464285D01*
X150789285Y-105714285D02*
X150789285Y-105321428D01*
X150825000Y-105250000D01*
X150896428Y-105214285D01*
X151039285Y-105214285D01*
X151110714Y-105250000D01*
X150789285Y-105678571D02*
X150860714Y-105714285D01*
X151039285Y-105714285D01*
X151110714Y-105678571D01*
X151146428Y-105607142D01*
X151146428Y-105535714D01*
X151110714Y-105464285D01*
X151039285Y-105428571D01*
X150860714Y-105428571D01*
X150789285Y-105392857D01*
X150539285Y-105214285D02*
X150253571Y-105214285D01*
X150432142Y-104964285D02*
X150432142Y-105607142D01*
X150396428Y-105678571D01*
X150325000Y-105714285D01*
X150253571Y-105714285D01*
X149717857Y-105678571D02*
X149789285Y-105714285D01*
X149932142Y-105714285D01*
X150003571Y-105678571D01*
X150039285Y-105607142D01*
X150039285Y-105321428D01*
X150003571Y-105250000D01*
X149932142Y-105214285D01*
X149789285Y-105214285D01*
X149717857Y-105250000D01*
X149682142Y-105321428D01*
X149682142Y-105392857D01*
X150039285Y-105464285D01*
X149039285Y-105714285D02*
X149039285Y-104964285D01*
X149039285Y-105678571D02*
X149110714Y-105714285D01*
X149253571Y-105714285D01*
X149325000Y-105678571D01*
X149360714Y-105642857D01*
X149396428Y-105571428D01*
X149396428Y-105357142D01*
X149360714Y-105285714D01*
X149325000Y-105250000D01*
X149253571Y-105214285D01*
X149110714Y-105214285D01*
X149039285Y-105250000D01*
X148110714Y-105714285D02*
X148110714Y-104964285D01*
X148110714Y-105250000D02*
X148039285Y-105214285D01*
X147896428Y-105214285D01*
X147825000Y-105250000D01*
X147789285Y-105285714D01*
X147753571Y-105357142D01*
X147753571Y-105571428D01*
X147789285Y-105642857D01*
X147825000Y-105678571D01*
X147896428Y-105714285D01*
X148039285Y-105714285D01*
X148110714Y-105678571D01*
X147503571Y-105214285D02*
X147325000Y-105714285D01*
X147146428Y-105214285D02*
X147325000Y-105714285D01*
X147396428Y-105892857D01*
X147432142Y-105928571D01*
X147503571Y-105964285D01*
X146075000Y-104964285D02*
X146075000Y-105500000D01*
X146110714Y-105607142D01*
X146182142Y-105678571D01*
X146289285Y-105714285D01*
X146360714Y-105714285D01*
X145432142Y-105678571D02*
X145503571Y-105714285D01*
X145646428Y-105714285D01*
X145717857Y-105678571D01*
X145753571Y-105607142D01*
X145753571Y-105321428D01*
X145717857Y-105250000D01*
X145646428Y-105214285D01*
X145503571Y-105214285D01*
X145432142Y-105250000D01*
X145396428Y-105321428D01*
X145396428Y-105392857D01*
X145753571Y-105464285D01*
X145075000Y-105714285D02*
X145075000Y-105214285D01*
X145075000Y-105357142D02*
X145039285Y-105285714D01*
X145003571Y-105250000D01*
X144932142Y-105214285D01*
X144860714Y-105214285D01*
X144325000Y-105678571D02*
X144396428Y-105714285D01*
X144539285Y-105714285D01*
X144610714Y-105678571D01*
X144646428Y-105607142D01*
X144646428Y-105321428D01*
X144610714Y-105250000D01*
X144539285Y-105214285D01*
X144396428Y-105214285D01*
X144325000Y-105250000D01*
X144289285Y-105321428D01*
X144289285Y-105392857D01*
X144646428Y-105464285D01*
X143967857Y-105714285D02*
X143967857Y-105214285D01*
X143967857Y-105285714D02*
X143932142Y-105250000D01*
X143860714Y-105214285D01*
X143753571Y-105214285D01*
X143682142Y-105250000D01*
X143646428Y-105321428D01*
X143646428Y-105714285D01*
X143646428Y-105321428D02*
X143610714Y-105250000D01*
X143539285Y-105214285D01*
X143432142Y-105214285D01*
X143360714Y-105250000D01*
X143325000Y-105321428D01*
X143325000Y-105714285D01*
X143039285Y-105214285D02*
X142860714Y-105714285D01*
X142682142Y-105214285D02*
X142860714Y-105714285D01*
X142932142Y-105892857D01*
X142967857Y-105928571D01*
X143039285Y-105964285D01*
X141432142Y-105000000D02*
X141503571Y-104964285D01*
X141610714Y-104964285D01*
X141717857Y-105000000D01*
X141789285Y-105071428D01*
X141825000Y-105142857D01*
X141860714Y-105285714D01*
X141860714Y-105392857D01*
X141825000Y-105535714D01*
X141789285Y-105607142D01*
X141717857Y-105678571D01*
X141610714Y-105714285D01*
X141539285Y-105714285D01*
X141432142Y-105678571D01*
X141396428Y-105642857D01*
X141396428Y-105392857D01*
X141539285Y-105392857D01*
X141075000Y-105714285D02*
X141075000Y-105214285D01*
X141075000Y-104964285D02*
X141110714Y-105000000D01*
X141075000Y-105035714D01*
X141039285Y-105000000D01*
X141075000Y-104964285D01*
X141075000Y-105035714D01*
X140610714Y-105714285D02*
X140682142Y-105678571D01*
X140717857Y-105607142D01*
X140717857Y-104964285D01*
X140217857Y-105714285D02*
X140289285Y-105678571D01*
X140325000Y-105607142D01*
X140325000Y-104964285D01*
X139932142Y-105714285D02*
X139932142Y-105214285D01*
X139932142Y-104964285D02*
X139967857Y-105000000D01*
X139932142Y-105035714D01*
X139896428Y-105000000D01*
X139932142Y-104964285D01*
X139932142Y-105035714D01*
X139253571Y-105678571D02*
X139325000Y-105714285D01*
X139467857Y-105714285D01*
X139539285Y-105678571D01*
X139575000Y-105642857D01*
X139610714Y-105571428D01*
X139610714Y-105357142D01*
X139575000Y-105285714D01*
X139539285Y-105250000D01*
X139467857Y-105214285D01*
X139325000Y-105214285D01*
X139253571Y-105250000D01*
X138932142Y-105714285D02*
X138932142Y-104964285D01*
X138860714Y-105428571D02*
X138646428Y-105714285D01*
X138646428Y-105214285D02*
X138932142Y-105500000D01*
D11*
X117509523Y-99066666D02*
X117540476Y-99035714D01*
X117602380Y-98942857D01*
X117633333Y-98880952D01*
X117664285Y-98788095D01*
X117695238Y-98633333D01*
X117695238Y-98509523D01*
X117664285Y-98354761D01*
X117633333Y-98261904D01*
X117602380Y-98200000D01*
X117540476Y-98107142D01*
X117509523Y-98076190D01*
X117261904Y-98819047D02*
X117261904Y-98385714D01*
X117261904Y-98447619D02*
X117230952Y-98416666D01*
X117169047Y-98385714D01*
X117076190Y-98385714D01*
X117014285Y-98416666D01*
X116983333Y-98478571D01*
X116983333Y-98819047D01*
X116983333Y-98478571D02*
X116952380Y-98416666D01*
X116890476Y-98385714D01*
X116797619Y-98385714D01*
X116735714Y-98416666D01*
X116704761Y-98478571D01*
X116704761Y-98819047D01*
X116116666Y-98819047D02*
X116116666Y-98478571D01*
X116147619Y-98416666D01*
X116209523Y-98385714D01*
X116333333Y-98385714D01*
X116395238Y-98416666D01*
X116116666Y-98788095D02*
X116178571Y-98819047D01*
X116333333Y-98819047D01*
X116395238Y-98788095D01*
X116426190Y-98726190D01*
X116426190Y-98664285D01*
X116395238Y-98602380D01*
X116333333Y-98571428D01*
X116178571Y-98571428D01*
X116116666Y-98540476D01*
X115869047Y-98819047D02*
X115528571Y-98385714D01*
X115869047Y-98385714D02*
X115528571Y-98819047D01*
X114816666Y-98230952D02*
X114785714Y-98200000D01*
X114723809Y-98169047D01*
X114569047Y-98169047D01*
X114507142Y-98200000D01*
X114476190Y-98230952D01*
X114445238Y-98292857D01*
X114445238Y-98354761D01*
X114476190Y-98447619D01*
X114847619Y-98819047D01*
X114445238Y-98819047D01*
X114166666Y-98757142D02*
X114135714Y-98788095D01*
X114166666Y-98819047D01*
X114197619Y-98788095D01*
X114166666Y-98757142D01*
X114166666Y-98819047D01*
X113919047Y-98169047D02*
X113516666Y-98169047D01*
X113733333Y-98416666D01*
X113640476Y-98416666D01*
X113578571Y-98447619D01*
X113547619Y-98478571D01*
X113516666Y-98540476D01*
X113516666Y-98695238D01*
X113547619Y-98757142D01*
X113578571Y-98788095D01*
X113640476Y-98819047D01*
X113826190Y-98819047D01*
X113888095Y-98788095D01*
X113919047Y-98757142D01*
X113269047Y-98633333D02*
X112959523Y-98633333D01*
X113330952Y-98819047D02*
X113114285Y-98169047D01*
X112897619Y-98819047D01*
X112185714Y-98385714D02*
X112185714Y-99035714D01*
X112185714Y-98416666D02*
X112123809Y-98385714D01*
X112000000Y-98385714D01*
X111938095Y-98416666D01*
X111907142Y-98447619D01*
X111876190Y-98509523D01*
X111876190Y-98695238D01*
X111907142Y-98757142D01*
X111938095Y-98788095D01*
X112000000Y-98819047D01*
X112123809Y-98819047D01*
X112185714Y-98788095D01*
X111350000Y-98788095D02*
X111411904Y-98819047D01*
X111535714Y-98819047D01*
X111597619Y-98788095D01*
X111628571Y-98726190D01*
X111628571Y-98478571D01*
X111597619Y-98416666D01*
X111535714Y-98385714D01*
X111411904Y-98385714D01*
X111350000Y-98416666D01*
X111319047Y-98478571D01*
X111319047Y-98540476D01*
X111628571Y-98602380D01*
X111040476Y-98819047D02*
X111040476Y-98385714D01*
X111040476Y-98509523D02*
X111009523Y-98447619D01*
X110978571Y-98416666D01*
X110916666Y-98385714D01*
X110854761Y-98385714D01*
X110638095Y-98757142D02*
X110607142Y-98788095D01*
X110638095Y-98819047D01*
X110669047Y-98788095D01*
X110638095Y-98757142D01*
X110638095Y-98819047D01*
X110638095Y-98571428D02*
X110669047Y-98200000D01*
X110638095Y-98169047D01*
X110607142Y-98200000D01*
X110638095Y-98571428D01*
X110638095Y-98169047D01*
X110390476Y-99066666D02*
X110359523Y-99035714D01*
X110297619Y-98942857D01*
X110266666Y-98880952D01*
X110235714Y-98788095D01*
X110204761Y-98633333D01*
X110204761Y-98509523D01*
X110235714Y-98354761D01*
X110266666Y-98261904D01*
X110297619Y-98200000D01*
X110359523Y-98107142D01*
X110390476Y-98076190D01*
D10*
X90608333Y-97594047D02*
X90608333Y-96944047D01*
X90360714Y-96944047D01*
X90298809Y-96975000D01*
X90267857Y-97005952D01*
X90236904Y-97067857D01*
X90236904Y-97160714D01*
X90267857Y-97222619D01*
X90298809Y-97253571D01*
X90360714Y-97284523D01*
X90608333Y-97284523D01*
X89989285Y-97408333D02*
X89679761Y-97408333D01*
X90051190Y-97594047D02*
X89834523Y-96944047D01*
X89617857Y-97594047D01*
X89308333Y-97222619D02*
X89370238Y-97191666D01*
X89401190Y-97160714D01*
X89432142Y-97098809D01*
X89432142Y-97067857D01*
X89401190Y-97005952D01*
X89370238Y-96975000D01*
X89308333Y-96944047D01*
X89184523Y-96944047D01*
X89122619Y-96975000D01*
X89091666Y-97005952D01*
X89060714Y-97067857D01*
X89060714Y-97098809D01*
X89091666Y-97160714D01*
X89122619Y-97191666D01*
X89184523Y-97222619D01*
X89308333Y-97222619D01*
X89370238Y-97253571D01*
X89401190Y-97284523D01*
X89432142Y-97346428D01*
X89432142Y-97470238D01*
X89401190Y-97532142D01*
X89370238Y-97563095D01*
X89308333Y-97594047D01*
X89184523Y-97594047D01*
X89122619Y-97563095D01*
X89091666Y-97532142D01*
X89060714Y-97470238D01*
X89060714Y-97346428D01*
X89091666Y-97284523D01*
X89122619Y-97253571D01*
X89184523Y-97222619D01*
X88133333Y-97594047D02*
X88133333Y-96944047D01*
X87885714Y-96944047D01*
X87823809Y-96975000D01*
X87792857Y-97005952D01*
X87761904Y-97067857D01*
X87761904Y-97160714D01*
X87792857Y-97222619D01*
X87823809Y-97253571D01*
X87885714Y-97284523D01*
X88133333Y-97284523D01*
X87514285Y-97408333D02*
X87204761Y-97408333D01*
X87576190Y-97594047D02*
X87359523Y-96944047D01*
X87142857Y-97594047D01*
X86988095Y-96944047D02*
X86554761Y-96944047D01*
X86833333Y-97594047D01*
X85558333Y-97594047D02*
X85558333Y-96944047D01*
X85310714Y-96944047D01*
X85248809Y-96975000D01*
X85217857Y-97005952D01*
X85186904Y-97067857D01*
X85186904Y-97160714D01*
X85217857Y-97222619D01*
X85248809Y-97253571D01*
X85310714Y-97284523D01*
X85558333Y-97284523D01*
X84939285Y-97408333D02*
X84629761Y-97408333D01*
X85001190Y-97594047D02*
X84784523Y-96944047D01*
X84567857Y-97594047D01*
X84072619Y-96944047D02*
X84196428Y-96944047D01*
X84258333Y-96975000D01*
X84289285Y-97005952D01*
X84351190Y-97098809D01*
X84382142Y-97222619D01*
X84382142Y-97470238D01*
X84351190Y-97532142D01*
X84320238Y-97563095D01*
X84258333Y-97594047D01*
X84134523Y-97594047D01*
X84072619Y-97563095D01*
X84041666Y-97532142D01*
X84010714Y-97470238D01*
X84010714Y-97315476D01*
X84041666Y-97253571D01*
X84072619Y-97222619D01*
X84134523Y-97191666D01*
X84258333Y-97191666D01*
X84320238Y-97222619D01*
X84351190Y-97253571D01*
X84382142Y-97315476D01*
X82958333Y-97594047D02*
X82958333Y-96944047D01*
X82710714Y-96944047D01*
X82648809Y-96975000D01*
X82617857Y-97005952D01*
X82586904Y-97067857D01*
X82586904Y-97160714D01*
X82617857Y-97222619D01*
X82648809Y-97253571D01*
X82710714Y-97284523D01*
X82958333Y-97284523D01*
X82339285Y-97408333D02*
X82029761Y-97408333D01*
X82401190Y-97594047D02*
X82184523Y-96944047D01*
X81967857Y-97594047D01*
X81441666Y-96944047D02*
X81751190Y-96944047D01*
X81782142Y-97253571D01*
X81751190Y-97222619D01*
X81689285Y-97191666D01*
X81534523Y-97191666D01*
X81472619Y-97222619D01*
X81441666Y-97253571D01*
X81410714Y-97315476D01*
X81410714Y-97470238D01*
X81441666Y-97532142D01*
X81472619Y-97563095D01*
X81534523Y-97594047D01*
X81689285Y-97594047D01*
X81751190Y-97563095D01*
X81782142Y-97532142D01*
X80408333Y-97694047D02*
X80408333Y-97044047D01*
X80160714Y-97044047D01*
X80098809Y-97075000D01*
X80067857Y-97105952D01*
X80036904Y-97167857D01*
X80036904Y-97260714D01*
X80067857Y-97322619D01*
X80098809Y-97353571D01*
X80160714Y-97384523D01*
X80408333Y-97384523D01*
X79789285Y-97508333D02*
X79479761Y-97508333D01*
X79851190Y-97694047D02*
X79634523Y-97044047D01*
X79417857Y-97694047D01*
X78922619Y-97260714D02*
X78922619Y-97694047D01*
X79077380Y-97013095D02*
X79232142Y-97477380D01*
X78829761Y-97477380D01*
X90654761Y-104144047D02*
X90654761Y-103494047D01*
X90407142Y-103494047D01*
X90345238Y-103525000D01*
X90314285Y-103555952D01*
X90283333Y-103617857D01*
X90283333Y-103710714D01*
X90314285Y-103772619D01*
X90345238Y-103803571D01*
X90407142Y-103834523D01*
X90654761Y-103834523D01*
X89788095Y-103803571D02*
X89695238Y-103834523D01*
X89664285Y-103865476D01*
X89633333Y-103927380D01*
X89633333Y-104020238D01*
X89664285Y-104082142D01*
X89695238Y-104113095D01*
X89757142Y-104144047D01*
X90004761Y-104144047D01*
X90004761Y-103494047D01*
X89788095Y-103494047D01*
X89726190Y-103525000D01*
X89695238Y-103555952D01*
X89664285Y-103617857D01*
X89664285Y-103679761D01*
X89695238Y-103741666D01*
X89726190Y-103772619D01*
X89788095Y-103803571D01*
X90004761Y-103803571D01*
X89045238Y-103494047D02*
X89354761Y-103494047D01*
X89385714Y-103803571D01*
X89354761Y-103772619D01*
X89292857Y-103741666D01*
X89138095Y-103741666D01*
X89076190Y-103772619D01*
X89045238Y-103803571D01*
X89014285Y-103865476D01*
X89014285Y-104020238D01*
X89045238Y-104082142D01*
X89076190Y-104113095D01*
X89138095Y-104144047D01*
X89292857Y-104144047D01*
X89354761Y-104113095D01*
X89385714Y-104082142D01*
X88310714Y-104144047D02*
X88310714Y-103494047D01*
X88082142Y-103494047D01*
X88025000Y-103525000D01*
X87996428Y-103555952D01*
X87967857Y-103617857D01*
X87967857Y-103710714D01*
X87996428Y-103772619D01*
X88025000Y-103803571D01*
X88082142Y-103834523D01*
X88310714Y-103834523D01*
X87739285Y-103958333D02*
X87453571Y-103958333D01*
X87796428Y-104144047D02*
X87596428Y-103494047D01*
X87396428Y-104144047D01*
X86882142Y-104144047D02*
X87225000Y-104144047D01*
X87053571Y-104144047D02*
X87053571Y-103494047D01*
X87110714Y-103586904D01*
X87167857Y-103648809D01*
X87225000Y-103679761D01*
X86367857Y-103710714D02*
X86367857Y-104144047D01*
X86510714Y-103463095D02*
X86653571Y-103927380D01*
X86282142Y-103927380D01*
X85735714Y-104144047D02*
X85735714Y-103494047D01*
X85507142Y-103494047D01*
X85450000Y-103525000D01*
X85421428Y-103555952D01*
X85392857Y-103617857D01*
X85392857Y-103710714D01*
X85421428Y-103772619D01*
X85450000Y-103803571D01*
X85507142Y-103834523D01*
X85735714Y-103834523D01*
X85164285Y-103958333D02*
X84878571Y-103958333D01*
X85221428Y-104144047D02*
X85021428Y-103494047D01*
X84821428Y-104144047D01*
X84307142Y-104144047D02*
X84650000Y-104144047D01*
X84478571Y-104144047D02*
X84478571Y-103494047D01*
X84535714Y-103586904D01*
X84592857Y-103648809D01*
X84650000Y-103679761D01*
X84107142Y-103494047D02*
X83735714Y-103494047D01*
X83935714Y-103741666D01*
X83850000Y-103741666D01*
X83792857Y-103772619D01*
X83764285Y-103803571D01*
X83735714Y-103865476D01*
X83735714Y-104020238D01*
X83764285Y-104082142D01*
X83792857Y-104113095D01*
X83850000Y-104144047D01*
X84021428Y-104144047D01*
X84078571Y-104113095D01*
X84107142Y-104082142D01*
X83235714Y-104119047D02*
X83235714Y-103469047D01*
X83007142Y-103469047D01*
X82950000Y-103500000D01*
X82921428Y-103530952D01*
X82892857Y-103592857D01*
X82892857Y-103685714D01*
X82921428Y-103747619D01*
X82950000Y-103778571D01*
X83007142Y-103809523D01*
X83235714Y-103809523D01*
X82664285Y-103933333D02*
X82378571Y-103933333D01*
X82721428Y-104119047D02*
X82521428Y-103469047D01*
X82321428Y-104119047D01*
X81807142Y-104119047D02*
X82150000Y-104119047D01*
X81978571Y-104119047D02*
X81978571Y-103469047D01*
X82035714Y-103561904D01*
X82092857Y-103623809D01*
X82150000Y-103654761D01*
X81435714Y-103469047D02*
X81378571Y-103469047D01*
X81321428Y-103500000D01*
X81292857Y-103530952D01*
X81264285Y-103592857D01*
X81235714Y-103716666D01*
X81235714Y-103871428D01*
X81264285Y-103995238D01*
X81292857Y-104057142D01*
X81321428Y-104088095D01*
X81378571Y-104119047D01*
X81435714Y-104119047D01*
X81492857Y-104088095D01*
X81521428Y-104057142D01*
X81550000Y-103995238D01*
X81578571Y-103871428D01*
X81578571Y-103716666D01*
X81550000Y-103592857D01*
X81521428Y-103530952D01*
X81492857Y-103500000D01*
X81435714Y-103469047D01*
X80483333Y-104144047D02*
X80483333Y-103494047D01*
X80235714Y-103494047D01*
X80173809Y-103525000D01*
X80142857Y-103555952D01*
X80111904Y-103617857D01*
X80111904Y-103710714D01*
X80142857Y-103772619D01*
X80173809Y-103803571D01*
X80235714Y-103834523D01*
X80483333Y-103834523D01*
X79864285Y-103958333D02*
X79554761Y-103958333D01*
X79926190Y-104144047D02*
X79709523Y-103494047D01*
X79492857Y-104144047D01*
X79245238Y-104144047D02*
X79121428Y-104144047D01*
X79059523Y-104113095D01*
X79028571Y-104082142D01*
X78966666Y-103989285D01*
X78935714Y-103865476D01*
X78935714Y-103617857D01*
X78966666Y-103555952D01*
X78997619Y-103525000D01*
X79059523Y-103494047D01*
X79183333Y-103494047D01*
X79245238Y-103525000D01*
X79276190Y-103555952D01*
X79307142Y-103617857D01*
X79307142Y-103772619D01*
X79276190Y-103834523D01*
X79245238Y-103865476D01*
X79183333Y-103896428D01*
X79059523Y-103896428D01*
X78997619Y-103865476D01*
X78966666Y-103834523D01*
X78935714Y-103772619D01*
X110858333Y-97619047D02*
X110858333Y-96969047D01*
X110610714Y-96969047D01*
X110548809Y-97000000D01*
X110517857Y-97030952D01*
X110486904Y-97092857D01*
X110486904Y-97185714D01*
X110517857Y-97247619D01*
X110548809Y-97278571D01*
X110610714Y-97309523D01*
X110858333Y-97309523D01*
X110239285Y-97433333D02*
X109929761Y-97433333D01*
X110301190Y-97619047D02*
X110084523Y-96969047D01*
X109867857Y-97619047D01*
X109713095Y-96969047D02*
X109310714Y-96969047D01*
X109527380Y-97216666D01*
X109434523Y-97216666D01*
X109372619Y-97247619D01*
X109341666Y-97278571D01*
X109310714Y-97340476D01*
X109310714Y-97495238D01*
X109341666Y-97557142D01*
X109372619Y-97588095D01*
X109434523Y-97619047D01*
X109620238Y-97619047D01*
X109682142Y-97588095D01*
X109713095Y-97557142D01*
X113408333Y-97619047D02*
X113408333Y-96969047D01*
X113160714Y-96969047D01*
X113098809Y-97000000D01*
X113067857Y-97030952D01*
X113036904Y-97092857D01*
X113036904Y-97185714D01*
X113067857Y-97247619D01*
X113098809Y-97278571D01*
X113160714Y-97309523D01*
X113408333Y-97309523D01*
X112789285Y-97433333D02*
X112479761Y-97433333D01*
X112851190Y-97619047D02*
X112634523Y-96969047D01*
X112417857Y-97619047D01*
X112232142Y-97030952D02*
X112201190Y-97000000D01*
X112139285Y-96969047D01*
X111984523Y-96969047D01*
X111922619Y-97000000D01*
X111891666Y-97030952D01*
X111860714Y-97092857D01*
X111860714Y-97154761D01*
X111891666Y-97247619D01*
X112263095Y-97619047D01*
X111860714Y-97619047D01*
X115958333Y-97619047D02*
X115958333Y-96969047D01*
X115710714Y-96969047D01*
X115648809Y-97000000D01*
X115617857Y-97030952D01*
X115586904Y-97092857D01*
X115586904Y-97185714D01*
X115617857Y-97247619D01*
X115648809Y-97278571D01*
X115710714Y-97309523D01*
X115958333Y-97309523D01*
X115339285Y-97433333D02*
X115029761Y-97433333D01*
X115401190Y-97619047D02*
X115184523Y-96969047D01*
X114967857Y-97619047D01*
X114410714Y-97619047D02*
X114782142Y-97619047D01*
X114596428Y-97619047D02*
X114596428Y-96969047D01*
X114658333Y-97061904D01*
X114720238Y-97123809D01*
X114782142Y-97154761D01*
X118508333Y-97644047D02*
X118508333Y-96994047D01*
X118260714Y-96994047D01*
X118198809Y-97025000D01*
X118167857Y-97055952D01*
X118136904Y-97117857D01*
X118136904Y-97210714D01*
X118167857Y-97272619D01*
X118198809Y-97303571D01*
X118260714Y-97334523D01*
X118508333Y-97334523D01*
X117889285Y-97458333D02*
X117579761Y-97458333D01*
X117951190Y-97644047D02*
X117734523Y-96994047D01*
X117517857Y-97644047D01*
X117177380Y-96994047D02*
X117115476Y-96994047D01*
X117053571Y-97025000D01*
X117022619Y-97055952D01*
X116991666Y-97117857D01*
X116960714Y-97241666D01*
X116960714Y-97396428D01*
X116991666Y-97520238D01*
X117022619Y-97582142D01*
X117053571Y-97613095D01*
X117115476Y-97644047D01*
X117177380Y-97644047D01*
X117239285Y-97613095D01*
X117270238Y-97582142D01*
X117301190Y-97520238D01*
X117332142Y-97396428D01*
X117332142Y-97241666D01*
X117301190Y-97117857D01*
X117270238Y-97055952D01*
X117239285Y-97025000D01*
X117177380Y-96994047D01*
X121521428Y-97228571D02*
X121428571Y-97259523D01*
X121397619Y-97290476D01*
X121366666Y-97352380D01*
X121366666Y-97445238D01*
X121397619Y-97507142D01*
X121428571Y-97538095D01*
X121490476Y-97569047D01*
X121738095Y-97569047D01*
X121738095Y-96919047D01*
X121521428Y-96919047D01*
X121459523Y-96950000D01*
X121428571Y-96980952D01*
X121397619Y-97042857D01*
X121397619Y-97104761D01*
X121428571Y-97166666D01*
X121459523Y-97197619D01*
X121521428Y-97228571D01*
X121738095Y-97228571D01*
X120809523Y-97569047D02*
X120809523Y-97228571D01*
X120840476Y-97166666D01*
X120902380Y-97135714D01*
X121026190Y-97135714D01*
X121088095Y-97166666D01*
X120809523Y-97538095D02*
X120871428Y-97569047D01*
X121026190Y-97569047D01*
X121088095Y-97538095D01*
X121119047Y-97476190D01*
X121119047Y-97414285D01*
X121088095Y-97352380D01*
X121026190Y-97321428D01*
X120871428Y-97321428D01*
X120809523Y-97290476D01*
X120592857Y-97135714D02*
X120345238Y-97135714D01*
X120500000Y-96919047D02*
X120500000Y-97476190D01*
X120469047Y-97538095D01*
X120407142Y-97569047D01*
X120345238Y-97569047D01*
X120221428Y-97135714D02*
X119973809Y-97135714D01*
X120128571Y-96919047D02*
X120128571Y-97476190D01*
X120097619Y-97538095D01*
X120035714Y-97569047D01*
X119973809Y-97569047D01*
X119757142Y-97321428D02*
X119261904Y-97321428D01*
X119509523Y-97569047D02*
X119509523Y-97073809D01*
D12*
X115354761Y-93927380D02*
X115354761Y-92927380D01*
X114973809Y-92927380D01*
X114878571Y-92975000D01*
X114830952Y-93022619D01*
X114783333Y-93117857D01*
X114783333Y-93260714D01*
X114830952Y-93355952D01*
X114878571Y-93403571D01*
X114973809Y-93451190D01*
X115354761Y-93451190D01*
X114450000Y-92927380D02*
X114211904Y-93927380D01*
X114021428Y-93213095D01*
X113830952Y-93927380D01*
X113592857Y-92927380D01*
X113211904Y-93927380D02*
X113211904Y-92927380D01*
X112878571Y-93641666D01*
X112545238Y-92927380D01*
X112545238Y-93927380D01*
D10*
X121571428Y-103853571D02*
X121478571Y-103884523D01*
X121447619Y-103915476D01*
X121416666Y-103977380D01*
X121416666Y-104070238D01*
X121447619Y-104132142D01*
X121478571Y-104163095D01*
X121540476Y-104194047D01*
X121788095Y-104194047D01*
X121788095Y-103544047D01*
X121571428Y-103544047D01*
X121509523Y-103575000D01*
X121478571Y-103605952D01*
X121447619Y-103667857D01*
X121447619Y-103729761D01*
X121478571Y-103791666D01*
X121509523Y-103822619D01*
X121571428Y-103853571D01*
X121788095Y-103853571D01*
X120859523Y-104194047D02*
X120859523Y-103853571D01*
X120890476Y-103791666D01*
X120952380Y-103760714D01*
X121076190Y-103760714D01*
X121138095Y-103791666D01*
X120859523Y-104163095D02*
X120921428Y-104194047D01*
X121076190Y-104194047D01*
X121138095Y-104163095D01*
X121169047Y-104101190D01*
X121169047Y-104039285D01*
X121138095Y-103977380D01*
X121076190Y-103946428D01*
X120921428Y-103946428D01*
X120859523Y-103915476D01*
X120642857Y-103760714D02*
X120395238Y-103760714D01*
X120550000Y-103544047D02*
X120550000Y-104101190D01*
X120519047Y-104163095D01*
X120457142Y-104194047D01*
X120395238Y-104194047D01*
X120271428Y-103760714D02*
X120023809Y-103760714D01*
X120178571Y-103544047D02*
X120178571Y-104101190D01*
X120147619Y-104163095D01*
X120085714Y-104194047D01*
X120023809Y-104194047D01*
X119807142Y-103946428D02*
X119311904Y-103946428D01*
X119559523Y-104194047D02*
X119559523Y-103698809D01*
X118703571Y-103569047D02*
X118301190Y-103569047D01*
X118517857Y-103816666D01*
X118425000Y-103816666D01*
X118363095Y-103847619D01*
X118332142Y-103878571D01*
X118301190Y-103940476D01*
X118301190Y-104095238D01*
X118332142Y-104157142D01*
X118363095Y-104188095D01*
X118425000Y-104219047D01*
X118610714Y-104219047D01*
X118672619Y-104188095D01*
X118703571Y-104157142D01*
X118022619Y-104157142D02*
X117991666Y-104188095D01*
X118022619Y-104219047D01*
X118053571Y-104188095D01*
X118022619Y-104157142D01*
X118022619Y-104219047D01*
X117775000Y-103569047D02*
X117372619Y-103569047D01*
X117589285Y-103816666D01*
X117496428Y-103816666D01*
X117434523Y-103847619D01*
X117403571Y-103878571D01*
X117372619Y-103940476D01*
X117372619Y-104095238D01*
X117403571Y-104157142D01*
X117434523Y-104188095D01*
X117496428Y-104219047D01*
X117682142Y-104219047D01*
X117744047Y-104188095D01*
X117775000Y-104157142D01*
X117155952Y-103785714D02*
X117001190Y-104219047D01*
X116846428Y-103785714D01*
X116272619Y-103569047D02*
X116272619Y-104095238D01*
X116241666Y-104157142D01*
X116210714Y-104188095D01*
X116148809Y-104219047D01*
X116025000Y-104219047D01*
X115963095Y-104188095D01*
X115932142Y-104157142D01*
X115901190Y-104095238D01*
X115901190Y-103569047D01*
X115622619Y-104188095D02*
X115529761Y-104219047D01*
X115375000Y-104219047D01*
X115313095Y-104188095D01*
X115282142Y-104157142D01*
X115251190Y-104095238D01*
X115251190Y-104033333D01*
X115282142Y-103971428D01*
X115313095Y-103940476D01*
X115375000Y-103909523D01*
X115498809Y-103878571D01*
X115560714Y-103847619D01*
X115591666Y-103816666D01*
X115622619Y-103754761D01*
X115622619Y-103692857D01*
X115591666Y-103630952D01*
X115560714Y-103600000D01*
X115498809Y-103569047D01*
X115344047Y-103569047D01*
X115251190Y-103600000D01*
X114755952Y-103878571D02*
X114663095Y-103909523D01*
X114632142Y-103940476D01*
X114601190Y-104002380D01*
X114601190Y-104095238D01*
X114632142Y-104157142D01*
X114663095Y-104188095D01*
X114725000Y-104219047D01*
X114972619Y-104219047D01*
X114972619Y-103569047D01*
X114755952Y-103569047D01*
X114694047Y-103600000D01*
X114663095Y-103630952D01*
X114632142Y-103692857D01*
X114632142Y-103754761D01*
X114663095Y-103816666D01*
X114694047Y-103847619D01*
X114755952Y-103878571D01*
X114972619Y-103878571D01*
X114322619Y-103971428D02*
X113827380Y-103971428D01*
X114075000Y-104219047D02*
X114075000Y-103723809D01*
X113117857Y-103600000D02*
X113179761Y-103569047D01*
X113272619Y-103569047D01*
X113365476Y-103600000D01*
X113427380Y-103661904D01*
X113458333Y-103723809D01*
X113489285Y-103847619D01*
X113489285Y-103940476D01*
X113458333Y-104064285D01*
X113427380Y-104126190D01*
X113365476Y-104188095D01*
X113272619Y-104219047D01*
X113210714Y-104219047D01*
X113117857Y-104188095D01*
X113086904Y-104157142D01*
X113086904Y-103940476D01*
X113210714Y-103940476D01*
X112808333Y-103785714D02*
X112808333Y-104219047D01*
X112808333Y-103847619D02*
X112777380Y-103816666D01*
X112715476Y-103785714D01*
X112622619Y-103785714D01*
X112560714Y-103816666D01*
X112529761Y-103878571D01*
X112529761Y-104219047D01*
X111941666Y-104219047D02*
X111941666Y-103569047D01*
X111941666Y-104188095D02*
X112003571Y-104219047D01*
X112127380Y-104219047D01*
X112189285Y-104188095D01*
X112220238Y-104157142D01*
X112251190Y-104095238D01*
X112251190Y-103909523D01*
X112220238Y-103847619D01*
X112189285Y-103816666D01*
X112127380Y-103785714D01*
X112003571Y-103785714D01*
X111941666Y-103816666D01*
D12*
X118476190Y-102852380D02*
X118476190Y-101852380D01*
X118095238Y-101852380D01*
X118000000Y-101900000D01*
X117952380Y-101947619D01*
X117904761Y-102042857D01*
X117904761Y-102185714D01*
X117952380Y-102280952D01*
X118000000Y-102328571D01*
X118095238Y-102376190D01*
X118476190Y-102376190D01*
X117333333Y-102852380D02*
X117428571Y-102804761D01*
X117476190Y-102757142D01*
X117523809Y-102661904D01*
X117523809Y-102376190D01*
X117476190Y-102280952D01*
X117428571Y-102233333D01*
X117333333Y-102185714D01*
X117190476Y-102185714D01*
X117095238Y-102233333D01*
X117047619Y-102280952D01*
X117000000Y-102376190D01*
X117000000Y-102661904D01*
X117047619Y-102757142D01*
X117095238Y-102804761D01*
X117190476Y-102852380D01*
X117333333Y-102852380D01*
X116666666Y-102185714D02*
X116476190Y-102852380D01*
X116285714Y-102376190D01*
X116095238Y-102852380D01*
X115904761Y-102185714D01*
X115142857Y-102804761D02*
X115238095Y-102852380D01*
X115428571Y-102852380D01*
X115523809Y-102804761D01*
X115571428Y-102709523D01*
X115571428Y-102328571D01*
X115523809Y-102233333D01*
X115428571Y-102185714D01*
X115238095Y-102185714D01*
X115142857Y-102233333D01*
X115095238Y-102328571D01*
X115095238Y-102423809D01*
X115571428Y-102519047D01*
X114666666Y-102852380D02*
X114666666Y-102185714D01*
X114666666Y-102376190D02*
X114619047Y-102280952D01*
X114571428Y-102233333D01*
X114476190Y-102185714D01*
X114380952Y-102185714D01*
D13*
X152708571Y-93339285D02*
X151680000Y-93339285D01*
X152194285Y-95139285D02*
X152194285Y-93339285D01*
X151080000Y-95139285D02*
X151080000Y-93339285D01*
X150308571Y-95139285D02*
X150308571Y-94196428D01*
X150394285Y-94025000D01*
X150565714Y-93939285D01*
X150822857Y-93939285D01*
X150994285Y-94025000D01*
X151080000Y-94110714D01*
X148680000Y-93939285D02*
X148680000Y-95139285D01*
X149451428Y-93939285D02*
X149451428Y-94882142D01*
X149365714Y-95053571D01*
X149194285Y-95139285D01*
X148937142Y-95139285D01*
X148765714Y-95053571D01*
X148680000Y-94967857D01*
X147822857Y-93939285D02*
X147822857Y-95139285D01*
X147822857Y-94110714D02*
X147737142Y-94025000D01*
X147565714Y-93939285D01*
X147308571Y-93939285D01*
X147137142Y-94025000D01*
X147051428Y-94196428D01*
X147051428Y-95139285D01*
X145422857Y-95139285D02*
X145422857Y-93339285D01*
X145422857Y-95053571D02*
X145594285Y-95139285D01*
X145937142Y-95139285D01*
X146108571Y-95053571D01*
X146194285Y-94967857D01*
X146280000Y-94796428D01*
X146280000Y-94282142D01*
X146194285Y-94110714D01*
X146108571Y-94025000D01*
X145937142Y-93939285D01*
X145594285Y-93939285D01*
X145422857Y-94025000D01*
X143880000Y-95053571D02*
X144051428Y-95139285D01*
X144394285Y-95139285D01*
X144565714Y-95053571D01*
X144651428Y-94882142D01*
X144651428Y-94196428D01*
X144565714Y-94025000D01*
X144394285Y-93939285D01*
X144051428Y-93939285D01*
X143880000Y-94025000D01*
X143794285Y-94196428D01*
X143794285Y-94367857D01*
X144651428Y-94539285D01*
X143022857Y-95139285D02*
X143022857Y-93939285D01*
X143022857Y-94282142D02*
X142937142Y-94110714D01*
X142851428Y-94025000D01*
X142680000Y-93939285D01*
X142508571Y-93939285D01*
X140537142Y-95139285D02*
X140537142Y-93339285D01*
X139851428Y-93339285D01*
X139680000Y-93425000D01*
X139594285Y-93510714D01*
X139508571Y-93682142D01*
X139508571Y-93939285D01*
X139594285Y-94110714D01*
X139680000Y-94196428D01*
X139851428Y-94282142D01*
X140537142Y-94282142D01*
X137965714Y-95139285D02*
X137965714Y-94196428D01*
X138051428Y-94025000D01*
X138222857Y-93939285D01*
X138565714Y-93939285D01*
X138737142Y-94025000D01*
X137965714Y-95053571D02*
X138137142Y-95139285D01*
X138565714Y-95139285D01*
X138737142Y-95053571D01*
X138822857Y-94882142D01*
X138822857Y-94710714D01*
X138737142Y-94539285D01*
X138565714Y-94453571D01*
X138137142Y-94453571D01*
X137965714Y-94367857D01*
X136337142Y-95053571D02*
X136508571Y-95139285D01*
X136851428Y-95139285D01*
X137022857Y-95053571D01*
X137108571Y-94967857D01*
X137194285Y-94796428D01*
X137194285Y-94282142D01*
X137108571Y-94110714D01*
X137022857Y-94025000D01*
X136851428Y-93939285D01*
X136508571Y-93939285D01*
X136337142Y-94025000D01*
X135565714Y-95139285D02*
X135565714Y-93339285D01*
X135394285Y-94453571D02*
X134880000Y-95139285D01*
X134880000Y-93939285D02*
X135565714Y-94625000D01*
X92000000Y-98050800D02*
X92000000Y-102050800D01*
X108000000Y-98050800D02*
X92000000Y-98050800D01*
X108000000Y-99050800D02*
X108000000Y-98050800D01*
X109000000Y-99050800D02*
X108000000Y-99050800D01*
X109000000Y-100950800D02*
X109000000Y-99050800D01*
X108100000Y-100950800D02*
X109000000Y-100950800D01*
X108100000Y-102050800D02*
X108100000Y-100950800D01*
X92000000Y-102050800D02*
X108100000Y-102050800D01*
D11*
X107769047Y-100969047D02*
X107614285Y-101619047D01*
X107490476Y-101154761D01*
X107366666Y-101619047D01*
X107211904Y-100969047D01*
X106964285Y-101619047D02*
X106964285Y-101185714D01*
X106964285Y-100969047D02*
X106995238Y-101000000D01*
X106964285Y-101030952D01*
X106933333Y-101000000D01*
X106964285Y-100969047D01*
X106964285Y-101030952D01*
X106747619Y-101185714D02*
X106500000Y-101185714D01*
X106654761Y-100969047D02*
X106654761Y-101526190D01*
X106623809Y-101588095D01*
X106561904Y-101619047D01*
X106500000Y-101619047D01*
X106283333Y-101619047D02*
X106283333Y-100969047D01*
X106004761Y-101619047D02*
X106004761Y-101278571D01*
X106035714Y-101216666D01*
X106097619Y-101185714D01*
X106190476Y-101185714D01*
X106252380Y-101216666D01*
X106283333Y-101247619D01*
X105200000Y-101619047D02*
X105200000Y-100969047D01*
X105200000Y-101216666D02*
X105138095Y-101185714D01*
X105014285Y-101185714D01*
X104952380Y-101216666D01*
X104921428Y-101247619D01*
X104890476Y-101309523D01*
X104890476Y-101495238D01*
X104921428Y-101557142D01*
X104952380Y-101588095D01*
X105014285Y-101619047D01*
X105138095Y-101619047D01*
X105200000Y-101588095D01*
X104333333Y-101185714D02*
X104333333Y-101619047D01*
X104611904Y-101185714D02*
X104611904Y-101526190D01*
X104580952Y-101588095D01*
X104519047Y-101619047D01*
X104426190Y-101619047D01*
X104364285Y-101588095D01*
X104333333Y-101557142D01*
X104023809Y-101619047D02*
X104023809Y-101185714D01*
X104023809Y-100969047D02*
X104054761Y-101000000D01*
X104023809Y-101030952D01*
X103992857Y-101000000D01*
X104023809Y-100969047D01*
X104023809Y-101030952D01*
X103621428Y-101619047D02*
X103683333Y-101588095D01*
X103714285Y-101526190D01*
X103714285Y-100969047D01*
X103466666Y-101185714D02*
X103219047Y-101185714D01*
X103373809Y-100969047D02*
X103373809Y-101526190D01*
X103342857Y-101588095D01*
X103280952Y-101619047D01*
X103219047Y-101619047D01*
X103002380Y-101371428D02*
X102507142Y-101371428D01*
X102197619Y-101619047D02*
X102197619Y-101185714D01*
X102197619Y-100969047D02*
X102228571Y-101000000D01*
X102197619Y-101030952D01*
X102166666Y-101000000D01*
X102197619Y-100969047D01*
X102197619Y-101030952D01*
X101888095Y-101185714D02*
X101888095Y-101619047D01*
X101888095Y-101247619D02*
X101857142Y-101216666D01*
X101795238Y-101185714D01*
X101702380Y-101185714D01*
X101640476Y-101216666D01*
X101609523Y-101278571D01*
X101609523Y-101619047D01*
X100804761Y-101185714D02*
X100804761Y-101835714D01*
X100804761Y-101216666D02*
X100742857Y-101185714D01*
X100619047Y-101185714D01*
X100557142Y-101216666D01*
X100526190Y-101247619D01*
X100495238Y-101309523D01*
X100495238Y-101495238D01*
X100526190Y-101557142D01*
X100557142Y-101588095D01*
X100619047Y-101619047D01*
X100742857Y-101619047D01*
X100804761Y-101588095D01*
X100216666Y-101619047D02*
X100216666Y-101185714D01*
X100216666Y-101309523D02*
X100185714Y-101247619D01*
X100154761Y-101216666D01*
X100092857Y-101185714D01*
X100030952Y-101185714D01*
X99721428Y-101619047D02*
X99783333Y-101588095D01*
X99814285Y-101557142D01*
X99845238Y-101495238D01*
X99845238Y-101309523D01*
X99814285Y-101247619D01*
X99783333Y-101216666D01*
X99721428Y-101185714D01*
X99628571Y-101185714D01*
X99566666Y-101216666D01*
X99535714Y-101247619D01*
X99504761Y-101309523D01*
X99504761Y-101495238D01*
X99535714Y-101557142D01*
X99566666Y-101588095D01*
X99628571Y-101619047D01*
X99721428Y-101619047D01*
X99319047Y-101185714D02*
X99071428Y-101185714D01*
X99226190Y-100969047D02*
X99226190Y-101526190D01*
X99195238Y-101588095D01*
X99133333Y-101619047D01*
X99071428Y-101619047D01*
X98607142Y-101588095D02*
X98669047Y-101619047D01*
X98792857Y-101619047D01*
X98854761Y-101588095D01*
X98885714Y-101526190D01*
X98885714Y-101278571D01*
X98854761Y-101216666D01*
X98792857Y-101185714D01*
X98669047Y-101185714D01*
X98607142Y-101216666D01*
X98576190Y-101278571D01*
X98576190Y-101340476D01*
X98885714Y-101402380D01*
X98019047Y-101588095D02*
X98080952Y-101619047D01*
X98204761Y-101619047D01*
X98266666Y-101588095D01*
X98297619Y-101557142D01*
X98328571Y-101495238D01*
X98328571Y-101309523D01*
X98297619Y-101247619D01*
X98266666Y-101216666D01*
X98204761Y-101185714D01*
X98080952Y-101185714D01*
X98019047Y-101216666D01*
X97833333Y-101185714D02*
X97585714Y-101185714D01*
X97740476Y-100969047D02*
X97740476Y-101526190D01*
X97709523Y-101588095D01*
X97647619Y-101619047D01*
X97585714Y-101619047D01*
X97369047Y-101619047D02*
X97369047Y-101185714D01*
X97369047Y-100969047D02*
X97400000Y-101000000D01*
X97369047Y-101030952D01*
X97338095Y-101000000D01*
X97369047Y-100969047D01*
X97369047Y-101030952D01*
X96966666Y-101619047D02*
X97028571Y-101588095D01*
X97059523Y-101557142D01*
X97090476Y-101495238D01*
X97090476Y-101309523D01*
X97059523Y-101247619D01*
X97028571Y-101216666D01*
X96966666Y-101185714D01*
X96873809Y-101185714D01*
X96811904Y-101216666D01*
X96780952Y-101247619D01*
X96750000Y-101309523D01*
X96750000Y-101495238D01*
X96780952Y-101557142D01*
X96811904Y-101588095D01*
X96873809Y-101619047D01*
X96966666Y-101619047D01*
X96471428Y-101185714D02*
X96471428Y-101619047D01*
X96471428Y-101247619D02*
X96440476Y-101216666D01*
X96378571Y-101185714D01*
X96285714Y-101185714D01*
X96223809Y-101216666D01*
X96192857Y-101278571D01*
X96192857Y-101619047D01*
X95109523Y-101588095D02*
X95171428Y-101619047D01*
X95295238Y-101619047D01*
X95357142Y-101588095D01*
X95388095Y-101557142D01*
X95419047Y-101495238D01*
X95419047Y-101309523D01*
X95388095Y-101247619D01*
X95357142Y-101216666D01*
X95295238Y-101185714D01*
X95171428Y-101185714D01*
X95109523Y-101216666D01*
X94830952Y-101619047D02*
X94830952Y-101185714D01*
X94830952Y-100969047D02*
X94861904Y-101000000D01*
X94830952Y-101030952D01*
X94800000Y-101000000D01*
X94830952Y-100969047D01*
X94830952Y-101030952D01*
X94521428Y-101619047D02*
X94521428Y-101185714D01*
X94521428Y-101309523D02*
X94490476Y-101247619D01*
X94459523Y-101216666D01*
X94397619Y-101185714D01*
X94335714Y-101185714D01*
X93840476Y-101588095D02*
X93902380Y-101619047D01*
X94026190Y-101619047D01*
X94088095Y-101588095D01*
X94119047Y-101557142D01*
X94150000Y-101495238D01*
X94150000Y-101309523D01*
X94119047Y-101247619D01*
X94088095Y-101216666D01*
X94026190Y-101185714D01*
X93902380Y-101185714D01*
X93840476Y-101216666D01*
X93283333Y-101185714D02*
X93283333Y-101619047D01*
X93561904Y-101185714D02*
X93561904Y-101526190D01*
X93530952Y-101588095D01*
X93469047Y-101619047D01*
X93376190Y-101619047D01*
X93314285Y-101588095D01*
X93283333Y-101557142D01*
X92973809Y-101619047D02*
X92973809Y-101185714D01*
X92973809Y-100969047D02*
X93004761Y-101000000D01*
X92973809Y-101030952D01*
X92942857Y-101000000D01*
X92973809Y-100969047D01*
X92973809Y-101030952D01*
X92757142Y-101185714D02*
X92509523Y-101185714D01*
X92664285Y-100969047D02*
X92664285Y-101526190D01*
X92633333Y-101588095D01*
X92571428Y-101619047D01*
X92509523Y-101619047D01*
X92292857Y-101557142D02*
X92261904Y-101588095D01*
X92292857Y-101619047D01*
X92323809Y-101588095D01*
X92292857Y-101557142D01*
X92292857Y-101619047D01*
X92292857Y-101371428D02*
X92323809Y-101000000D01*
X92292857Y-100969047D01*
X92261904Y-101000000D01*
X92292857Y-101371428D01*
X92292857Y-100969047D01*
D10*
X90266666Y-99948400D02*
X89733333Y-99948400D01*
X111266666Y-99948400D02*
X110733333Y-99948400D01*
X111000000Y-100215066D02*
X111000000Y-99681733D01*
X101295238Y-100361904D02*
X101752380Y-100361904D01*
X101523809Y-100361904D02*
X101523809Y-99561904D01*
X101600000Y-99676190D01*
X101676190Y-99752380D01*
X101752380Y-99790476D01*
X100838095Y-99904761D02*
X100914285Y-99866666D01*
X100952380Y-99828571D01*
X100990476Y-99752380D01*
X100990476Y-99714285D01*
X100952380Y-99638095D01*
X100914285Y-99600000D01*
X100838095Y-99561904D01*
X100685714Y-99561904D01*
X100609523Y-99600000D01*
X100571428Y-99638095D01*
X100533333Y-99714285D01*
X100533333Y-99752380D01*
X100571428Y-99828571D01*
X100609523Y-99866666D01*
X100685714Y-99904761D01*
X100838095Y-99904761D01*
X100914285Y-99942857D01*
X100952380Y-99980952D01*
X100990476Y-100057142D01*
X100990476Y-100209523D01*
X100952380Y-100285714D01*
X100914285Y-100323809D01*
X100838095Y-100361904D01*
X100685714Y-100361904D01*
X100609523Y-100323809D01*
X100571428Y-100285714D01*
X100533333Y-100209523D01*
X100533333Y-100057142D01*
X100571428Y-99980952D01*
X100609523Y-99942857D01*
X100685714Y-99904761D01*
X99847619Y-99561904D02*
X100000000Y-99561904D01*
X100076190Y-99600000D01*
X100114285Y-99638095D01*
X100190476Y-99752380D01*
X100228571Y-99904761D01*
X100228571Y-100209523D01*
X100190476Y-100285714D01*
X100152380Y-100323809D01*
X100076190Y-100361904D01*
X99923809Y-100361904D01*
X99847619Y-100323809D01*
X99809523Y-100285714D01*
X99771428Y-100209523D01*
X99771428Y-100019047D01*
X99809523Y-99942857D01*
X99847619Y-99904761D01*
X99923809Y-99866666D01*
X100076190Y-99866666D01*
X100152380Y-99904761D01*
X100190476Y-99942857D01*
X100228571Y-100019047D01*
X99047619Y-99561904D02*
X99428571Y-99561904D01*
X99466666Y-99942857D01*
X99428571Y-99904761D01*
X99352380Y-99866666D01*
X99161904Y-99866666D01*
X99085714Y-99904761D01*
X99047619Y-99942857D01*
X99009523Y-100019047D01*
X99009523Y-100209523D01*
X99047619Y-100285714D01*
X99085714Y-100323809D01*
X99161904Y-100361904D01*
X99352380Y-100361904D01*
X99428571Y-100323809D01*
X99466666Y-100285714D01*
X98514285Y-99561904D02*
X98438095Y-99561904D01*
X98361904Y-99600000D01*
X98323809Y-99638095D01*
X98285714Y-99714285D01*
X98247619Y-99866666D01*
X98247619Y-100057142D01*
X98285714Y-100209523D01*
X98323809Y-100285714D01*
X98361904Y-100323809D01*
X98438095Y-100361904D01*
X98514285Y-100361904D01*
X98590476Y-100323809D01*
X98628571Y-100285714D01*
X98666666Y-100209523D01*
X98704761Y-100057142D01*
X98704761Y-99866666D01*
X98666666Y-99714285D01*
X98628571Y-99638095D01*
X98590476Y-99600000D01*
X98514285Y-99561904D01*
M02*
