G04 #@! TF.GenerationSoftware,KiCad,Pcbnew,(5.1.4-0-10_14)*
G04 #@! TF.CreationDate,2019-11-14T22:48:03-08:00*
G04 #@! TF.ProjectId,STM32L0xx_18650,53544d33-324c-4307-9878-5f3138363530,rev?*
G04 #@! TF.SameCoordinates,Original*
G04 #@! TF.FileFunction,Legend,Bot*
G04 #@! TF.FilePolarity,Positive*
%FSLAX46Y46*%
G04 Gerber Fmt 4.6, Leading zero omitted, Abs format (unit mm)*
G04 Created by KiCad (PCBNEW (5.1.4-0-10_14)) date 2019-11-14 22:48:03*
%MOMM*%
%LPD*%
G04 APERTURE LIST*
%ADD10C,0.100000*%
%ADD11C,0.150000*%
%ADD12C,0.200000*%
%ADD13C,0.300000*%
%ADD14C,0.080000*%
%ADD15C,0.254000*%
%ADD16C,2.901600*%
%ADD17O,1.801600X1.801600*%
%ADD18R,1.801600X1.801600*%
%ADD19O,1.801600X1.451600*%
%ADD20O,1.601600X1.201600*%
%ADD21C,2.501600*%
G04 APERTURE END LIST*
D10*
X80498809Y-107713095D02*
X80405952Y-107744047D01*
X80251190Y-107744047D01*
X80189285Y-107713095D01*
X80158333Y-107682142D01*
X80127380Y-107620238D01*
X80127380Y-107558333D01*
X80158333Y-107496428D01*
X80189285Y-107465476D01*
X80251190Y-107434523D01*
X80375000Y-107403571D01*
X80436904Y-107372619D01*
X80467857Y-107341666D01*
X80498809Y-107279761D01*
X80498809Y-107217857D01*
X80467857Y-107155952D01*
X80436904Y-107125000D01*
X80375000Y-107094047D01*
X80220238Y-107094047D01*
X80127380Y-107125000D01*
X79477380Y-107682142D02*
X79508333Y-107713095D01*
X79601190Y-107744047D01*
X79663095Y-107744047D01*
X79755952Y-107713095D01*
X79817857Y-107651190D01*
X79848809Y-107589285D01*
X79879761Y-107465476D01*
X79879761Y-107372619D01*
X79848809Y-107248809D01*
X79817857Y-107186904D01*
X79755952Y-107125000D01*
X79663095Y-107094047D01*
X79601190Y-107094047D01*
X79508333Y-107125000D01*
X79477380Y-107155952D01*
X78889285Y-107744047D02*
X79198809Y-107744047D01*
X79198809Y-107094047D01*
X82978571Y-107688095D02*
X82892857Y-107719047D01*
X82750000Y-107719047D01*
X82692857Y-107688095D01*
X82664285Y-107657142D01*
X82635714Y-107595238D01*
X82635714Y-107533333D01*
X82664285Y-107471428D01*
X82692857Y-107440476D01*
X82750000Y-107409523D01*
X82864285Y-107378571D01*
X82921428Y-107347619D01*
X82950000Y-107316666D01*
X82978571Y-107254761D01*
X82978571Y-107192857D01*
X82950000Y-107130952D01*
X82921428Y-107100000D01*
X82864285Y-107069047D01*
X82721428Y-107069047D01*
X82635714Y-107100000D01*
X82378571Y-107719047D02*
X82378571Y-107069047D01*
X82235714Y-107069047D01*
X82150000Y-107100000D01*
X82092857Y-107161904D01*
X82064285Y-107223809D01*
X82035714Y-107347619D01*
X82035714Y-107440476D01*
X82064285Y-107564285D01*
X82092857Y-107626190D01*
X82150000Y-107688095D01*
X82235714Y-107719047D01*
X82378571Y-107719047D01*
X81807142Y-107533333D02*
X81521428Y-107533333D01*
X81864285Y-107719047D02*
X81664285Y-107069047D01*
X81464285Y-107719047D01*
X83214285Y-93863095D02*
X83128571Y-93894047D01*
X82985714Y-93894047D01*
X82928571Y-93863095D01*
X82900000Y-93832142D01*
X82871428Y-93770238D01*
X82871428Y-93708333D01*
X82900000Y-93646428D01*
X82928571Y-93615476D01*
X82985714Y-93584523D01*
X83100000Y-93553571D01*
X83157142Y-93522619D01*
X83185714Y-93491666D01*
X83214285Y-93429761D01*
X83214285Y-93367857D01*
X83185714Y-93305952D01*
X83157142Y-93275000D01*
X83100000Y-93244047D01*
X82957142Y-93244047D01*
X82871428Y-93275000D01*
X82271428Y-93832142D02*
X82300000Y-93863095D01*
X82385714Y-93894047D01*
X82442857Y-93894047D01*
X82528571Y-93863095D01*
X82585714Y-93801190D01*
X82614285Y-93739285D01*
X82642857Y-93615476D01*
X82642857Y-93522619D01*
X82614285Y-93398809D01*
X82585714Y-93336904D01*
X82528571Y-93275000D01*
X82442857Y-93244047D01*
X82385714Y-93244047D01*
X82300000Y-93275000D01*
X82271428Y-93305952D01*
X81728571Y-93894047D02*
X82014285Y-93894047D01*
X82014285Y-93244047D01*
X81528571Y-93894047D02*
X81528571Y-93244047D01*
X81185714Y-93894047D02*
X81442857Y-93522619D01*
X81185714Y-93244047D02*
X81528571Y-93615476D01*
X85742857Y-93894047D02*
X85742857Y-93244047D01*
X85542857Y-93708333D01*
X85342857Y-93244047D01*
X85342857Y-93894047D01*
X85057142Y-93894047D02*
X85057142Y-93244047D01*
X84800000Y-93863095D02*
X84714285Y-93894047D01*
X84571428Y-93894047D01*
X84514285Y-93863095D01*
X84485714Y-93832142D01*
X84457142Y-93770238D01*
X84457142Y-93708333D01*
X84485714Y-93646428D01*
X84514285Y-93615476D01*
X84571428Y-93584523D01*
X84685714Y-93553571D01*
X84742857Y-93522619D01*
X84771428Y-93491666D01*
X84800000Y-93429761D01*
X84800000Y-93367857D01*
X84771428Y-93305952D01*
X84742857Y-93275000D01*
X84685714Y-93244047D01*
X84542857Y-93244047D01*
X84457142Y-93275000D01*
X84085714Y-93244047D02*
X83971428Y-93244047D01*
X83914285Y-93275000D01*
X83857142Y-93336904D01*
X83828571Y-93460714D01*
X83828571Y-93677380D01*
X83857142Y-93801190D01*
X83914285Y-93863095D01*
X83971428Y-93894047D01*
X84085714Y-93894047D01*
X84142857Y-93863095D01*
X84200000Y-93801190D01*
X84228571Y-93677380D01*
X84228571Y-93460714D01*
X84200000Y-93336904D01*
X84142857Y-93275000D01*
X84085714Y-93244047D01*
X88317857Y-93894047D02*
X88317857Y-93244047D01*
X88117857Y-93708333D01*
X87917857Y-93244047D01*
X87917857Y-93894047D01*
X87517857Y-93244047D02*
X87403571Y-93244047D01*
X87346428Y-93275000D01*
X87289285Y-93336904D01*
X87260714Y-93460714D01*
X87260714Y-93677380D01*
X87289285Y-93801190D01*
X87346428Y-93863095D01*
X87403571Y-93894047D01*
X87517857Y-93894047D01*
X87575000Y-93863095D01*
X87632142Y-93801190D01*
X87660714Y-93677380D01*
X87660714Y-93460714D01*
X87632142Y-93336904D01*
X87575000Y-93275000D01*
X87517857Y-93244047D01*
X87032142Y-93863095D02*
X86946428Y-93894047D01*
X86803571Y-93894047D01*
X86746428Y-93863095D01*
X86717857Y-93832142D01*
X86689285Y-93770238D01*
X86689285Y-93708333D01*
X86717857Y-93646428D01*
X86746428Y-93615476D01*
X86803571Y-93584523D01*
X86917857Y-93553571D01*
X86975000Y-93522619D01*
X87003571Y-93491666D01*
X87032142Y-93429761D01*
X87032142Y-93367857D01*
X87003571Y-93305952D01*
X86975000Y-93275000D01*
X86917857Y-93244047D01*
X86775000Y-93244047D01*
X86689285Y-93275000D01*
X86432142Y-93894047D02*
X86432142Y-93244047D01*
X92895238Y-107069047D02*
X92523809Y-107069047D01*
X92709523Y-107719047D02*
X92709523Y-107069047D01*
X92369047Y-107069047D02*
X91935714Y-107719047D01*
X91935714Y-107069047D02*
X92369047Y-107719047D01*
X95058333Y-107719047D02*
X95275000Y-107409523D01*
X95429761Y-107719047D02*
X95429761Y-107069047D01*
X95182142Y-107069047D01*
X95120238Y-107100000D01*
X95089285Y-107130952D01*
X95058333Y-107192857D01*
X95058333Y-107285714D01*
X95089285Y-107347619D01*
X95120238Y-107378571D01*
X95182142Y-107409523D01*
X95429761Y-107409523D01*
X94841666Y-107069047D02*
X94408333Y-107719047D01*
X94408333Y-107069047D02*
X94841666Y-107719047D01*
D11*
X108450000Y-95742857D02*
X108483333Y-95778571D01*
X108583333Y-95814285D01*
X108650000Y-95814285D01*
X108750000Y-95778571D01*
X108816666Y-95707142D01*
X108850000Y-95635714D01*
X108883333Y-95492857D01*
X108883333Y-95385714D01*
X108850000Y-95242857D01*
X108816666Y-95171428D01*
X108750000Y-95100000D01*
X108650000Y-95064285D01*
X108583333Y-95064285D01*
X108483333Y-95100000D01*
X108450000Y-95135714D01*
X107850000Y-95814285D02*
X107850000Y-95421428D01*
X107883333Y-95350000D01*
X107950000Y-95314285D01*
X108083333Y-95314285D01*
X108150000Y-95350000D01*
X107850000Y-95778571D02*
X107916666Y-95814285D01*
X108083333Y-95814285D01*
X108150000Y-95778571D01*
X108183333Y-95707142D01*
X108183333Y-95635714D01*
X108150000Y-95564285D01*
X108083333Y-95528571D01*
X107916666Y-95528571D01*
X107850000Y-95492857D01*
X107616666Y-95314285D02*
X107350000Y-95314285D01*
X107516666Y-95064285D02*
X107516666Y-95707142D01*
X107483333Y-95778571D01*
X107416666Y-95814285D01*
X107350000Y-95814285D01*
X107116666Y-95814285D02*
X107116666Y-95064285D01*
X106816666Y-95814285D02*
X106816666Y-95421428D01*
X106850000Y-95350000D01*
X106916666Y-95314285D01*
X107016666Y-95314285D01*
X107083333Y-95350000D01*
X107116666Y-95385714D01*
X106383333Y-95814285D02*
X106450000Y-95778571D01*
X106483333Y-95742857D01*
X106516666Y-95671428D01*
X106516666Y-95457142D01*
X106483333Y-95385714D01*
X106450000Y-95350000D01*
X106383333Y-95314285D01*
X106283333Y-95314285D01*
X106216666Y-95350000D01*
X106183333Y-95385714D01*
X106150000Y-95457142D01*
X106150000Y-95671428D01*
X106183333Y-95742857D01*
X106216666Y-95778571D01*
X106283333Y-95814285D01*
X106383333Y-95814285D01*
X105550000Y-95814285D02*
X105550000Y-95064285D01*
X105550000Y-95778571D02*
X105616666Y-95814285D01*
X105750000Y-95814285D01*
X105816666Y-95778571D01*
X105850000Y-95742857D01*
X105883333Y-95671428D01*
X105883333Y-95457142D01*
X105850000Y-95385714D01*
X105816666Y-95350000D01*
X105750000Y-95314285D01*
X105616666Y-95314285D01*
X105550000Y-95350000D01*
X104950000Y-95778571D02*
X105016666Y-95814285D01*
X105150000Y-95814285D01*
X105216666Y-95778571D01*
X105250000Y-95707142D01*
X105250000Y-95421428D01*
X105216666Y-95350000D01*
X105150000Y-95314285D01*
X105016666Y-95314285D01*
X104950000Y-95350000D01*
X104916666Y-95421428D01*
X104916666Y-95492857D01*
X105250000Y-95564285D01*
D10*
X104550000Y-94275000D02*
X118950000Y-94275000D01*
X104550000Y-96625000D02*
X104550000Y-94275000D01*
X118950000Y-96625000D02*
X104550000Y-96625000D01*
X118950000Y-94275000D02*
X118950000Y-96625000D01*
X97805952Y-104119047D02*
X98022619Y-103809523D01*
X98177380Y-104119047D02*
X98177380Y-103469047D01*
X97929761Y-103469047D01*
X97867857Y-103500000D01*
X97836904Y-103530952D01*
X97805952Y-103592857D01*
X97805952Y-103685714D01*
X97836904Y-103747619D01*
X97867857Y-103778571D01*
X97929761Y-103809523D01*
X98177380Y-103809523D01*
X97558333Y-104088095D02*
X97465476Y-104119047D01*
X97310714Y-104119047D01*
X97248809Y-104088095D01*
X97217857Y-104057142D01*
X97186904Y-103995238D01*
X97186904Y-103933333D01*
X97217857Y-103871428D01*
X97248809Y-103840476D01*
X97310714Y-103809523D01*
X97434523Y-103778571D01*
X97496428Y-103747619D01*
X97527380Y-103716666D01*
X97558333Y-103654761D01*
X97558333Y-103592857D01*
X97527380Y-103530952D01*
X97496428Y-103500000D01*
X97434523Y-103469047D01*
X97279761Y-103469047D01*
X97186904Y-103500000D01*
X97001190Y-103469047D02*
X96629761Y-103469047D01*
X96815476Y-104119047D02*
X96815476Y-103469047D01*
X95754761Y-104119047D02*
X95754761Y-103469047D01*
X95507142Y-103469047D01*
X95445238Y-103500000D01*
X95414285Y-103530952D01*
X95383333Y-103592857D01*
X95383333Y-103685714D01*
X95414285Y-103747619D01*
X95445238Y-103778571D01*
X95507142Y-103809523D01*
X95754761Y-103809523D01*
X94888095Y-103778571D02*
X94795238Y-103809523D01*
X94764285Y-103840476D01*
X94733333Y-103902380D01*
X94733333Y-103995238D01*
X94764285Y-104057142D01*
X94795238Y-104088095D01*
X94857142Y-104119047D01*
X95104761Y-104119047D01*
X95104761Y-103469047D01*
X94888095Y-103469047D01*
X94826190Y-103500000D01*
X94795238Y-103530952D01*
X94764285Y-103592857D01*
X94764285Y-103654761D01*
X94795238Y-103716666D01*
X94826190Y-103747619D01*
X94888095Y-103778571D01*
X95104761Y-103778571D01*
X94516666Y-103469047D02*
X94083333Y-103469047D01*
X94361904Y-104119047D01*
X93204761Y-104119047D02*
X93204761Y-103469047D01*
X92957142Y-103469047D01*
X92895238Y-103500000D01*
X92864285Y-103530952D01*
X92833333Y-103592857D01*
X92833333Y-103685714D01*
X92864285Y-103747619D01*
X92895238Y-103778571D01*
X92957142Y-103809523D01*
X93204761Y-103809523D01*
X92338095Y-103778571D02*
X92245238Y-103809523D01*
X92214285Y-103840476D01*
X92183333Y-103902380D01*
X92183333Y-103995238D01*
X92214285Y-104057142D01*
X92245238Y-104088095D01*
X92307142Y-104119047D01*
X92554761Y-104119047D01*
X92554761Y-103469047D01*
X92338095Y-103469047D01*
X92276190Y-103500000D01*
X92245238Y-103530952D01*
X92214285Y-103592857D01*
X92214285Y-103654761D01*
X92245238Y-103716666D01*
X92276190Y-103747619D01*
X92338095Y-103778571D01*
X92554761Y-103778571D01*
X91626190Y-103469047D02*
X91750000Y-103469047D01*
X91811904Y-103500000D01*
X91842857Y-103530952D01*
X91904761Y-103623809D01*
X91935714Y-103747619D01*
X91935714Y-103995238D01*
X91904761Y-104057142D01*
X91873809Y-104088095D01*
X91811904Y-104119047D01*
X91688095Y-104119047D01*
X91626190Y-104088095D01*
X91595238Y-104057142D01*
X91564285Y-103995238D01*
X91564285Y-103840476D01*
X91595238Y-103778571D01*
X91626190Y-103747619D01*
X91688095Y-103716666D01*
X91811904Y-103716666D01*
X91873809Y-103747619D01*
X91904761Y-103778571D01*
X91935714Y-103840476D01*
X153244523Y-96886904D02*
X153244523Y-96353571D01*
X153244523Y-96505952D02*
X153206428Y-96429761D01*
X153168333Y-96391666D01*
X153092142Y-96353571D01*
X153015952Y-96353571D01*
X152444523Y-96848809D02*
X152520714Y-96886904D01*
X152673095Y-96886904D01*
X152749285Y-96848809D01*
X152787380Y-96772619D01*
X152787380Y-96467857D01*
X152749285Y-96391666D01*
X152673095Y-96353571D01*
X152520714Y-96353571D01*
X152444523Y-96391666D01*
X152406428Y-96467857D01*
X152406428Y-96544047D01*
X152787380Y-96620238D01*
X152139761Y-96353571D02*
X151949285Y-96886904D01*
X151758809Y-96353571D01*
X150425476Y-96886904D02*
X150882619Y-96886904D01*
X150654047Y-96886904D02*
X150654047Y-96086904D01*
X150730238Y-96201190D01*
X150806428Y-96277380D01*
X150882619Y-96315476D01*
X149739761Y-96886904D02*
X149739761Y-96467857D01*
X149777857Y-96391666D01*
X149854047Y-96353571D01*
X150006428Y-96353571D01*
X150082619Y-96391666D01*
X149739761Y-96848809D02*
X149815952Y-96886904D01*
X150006428Y-96886904D01*
X150082619Y-96848809D01*
X150120714Y-96772619D01*
X150120714Y-96696428D01*
X150082619Y-96620238D01*
X150006428Y-96582142D01*
X149815952Y-96582142D01*
X149739761Y-96544047D01*
X148977857Y-96086904D02*
X149358809Y-96086904D01*
X149396904Y-96467857D01*
X149358809Y-96429761D01*
X149282619Y-96391666D01*
X149092142Y-96391666D01*
X149015952Y-96429761D01*
X148977857Y-96467857D01*
X148939761Y-96544047D01*
X148939761Y-96734523D01*
X148977857Y-96810714D01*
X149015952Y-96848809D01*
X149092142Y-96886904D01*
X149282619Y-96886904D01*
X149358809Y-96848809D01*
X149396904Y-96810714D01*
X153187380Y-105660714D02*
X153225476Y-105698809D01*
X153339761Y-105736904D01*
X153415952Y-105736904D01*
X153530238Y-105698809D01*
X153606428Y-105622619D01*
X153644523Y-105546428D01*
X153682619Y-105394047D01*
X153682619Y-105279761D01*
X153644523Y-105127380D01*
X153606428Y-105051190D01*
X153530238Y-104975000D01*
X153415952Y-104936904D01*
X153339761Y-104936904D01*
X153225476Y-104975000D01*
X153187380Y-105013095D01*
X152844523Y-105736904D02*
X152844523Y-105203571D01*
X152844523Y-105355952D02*
X152806428Y-105279761D01*
X152768333Y-105241666D01*
X152692142Y-105203571D01*
X152615952Y-105203571D01*
X152044523Y-105698809D02*
X152120714Y-105736904D01*
X152273095Y-105736904D01*
X152349285Y-105698809D01*
X152387380Y-105622619D01*
X152387380Y-105317857D01*
X152349285Y-105241666D01*
X152273095Y-105203571D01*
X152120714Y-105203571D01*
X152044523Y-105241666D01*
X152006428Y-105317857D01*
X152006428Y-105394047D01*
X152387380Y-105470238D01*
X151320714Y-105736904D02*
X151320714Y-105317857D01*
X151358809Y-105241666D01*
X151435000Y-105203571D01*
X151587380Y-105203571D01*
X151663571Y-105241666D01*
X151320714Y-105698809D02*
X151396904Y-105736904D01*
X151587380Y-105736904D01*
X151663571Y-105698809D01*
X151701666Y-105622619D01*
X151701666Y-105546428D01*
X151663571Y-105470238D01*
X151587380Y-105432142D01*
X151396904Y-105432142D01*
X151320714Y-105394047D01*
X151054047Y-105203571D02*
X150749285Y-105203571D01*
X150939761Y-104936904D02*
X150939761Y-105622619D01*
X150901666Y-105698809D01*
X150825476Y-105736904D01*
X150749285Y-105736904D01*
X150177857Y-105698809D02*
X150254047Y-105736904D01*
X150406428Y-105736904D01*
X150482619Y-105698809D01*
X150520714Y-105622619D01*
X150520714Y-105317857D01*
X150482619Y-105241666D01*
X150406428Y-105203571D01*
X150254047Y-105203571D01*
X150177857Y-105241666D01*
X150139761Y-105317857D01*
X150139761Y-105394047D01*
X150520714Y-105470238D01*
X149454047Y-105736904D02*
X149454047Y-104936904D01*
X149454047Y-105698809D02*
X149530238Y-105736904D01*
X149682619Y-105736904D01*
X149758809Y-105698809D01*
X149796904Y-105660714D01*
X149835000Y-105584523D01*
X149835000Y-105355952D01*
X149796904Y-105279761D01*
X149758809Y-105241666D01*
X149682619Y-105203571D01*
X149530238Y-105203571D01*
X149454047Y-105241666D01*
X148463571Y-105736904D02*
X148463571Y-104936904D01*
X148463571Y-105241666D02*
X148387380Y-105203571D01*
X148235000Y-105203571D01*
X148158809Y-105241666D01*
X148120714Y-105279761D01*
X148082619Y-105355952D01*
X148082619Y-105584523D01*
X148120714Y-105660714D01*
X148158809Y-105698809D01*
X148235000Y-105736904D01*
X148387380Y-105736904D01*
X148463571Y-105698809D01*
X147815952Y-105203571D02*
X147625476Y-105736904D01*
X147435000Y-105203571D02*
X147625476Y-105736904D01*
X147701666Y-105927380D01*
X147739761Y-105965476D01*
X147815952Y-106003571D01*
X146292142Y-104936904D02*
X146292142Y-105508333D01*
X146330238Y-105622619D01*
X146406428Y-105698809D01*
X146520714Y-105736904D01*
X146596904Y-105736904D01*
X145606428Y-105698809D02*
X145682619Y-105736904D01*
X145835000Y-105736904D01*
X145911190Y-105698809D01*
X145949285Y-105622619D01*
X145949285Y-105317857D01*
X145911190Y-105241666D01*
X145835000Y-105203571D01*
X145682619Y-105203571D01*
X145606428Y-105241666D01*
X145568333Y-105317857D01*
X145568333Y-105394047D01*
X145949285Y-105470238D01*
X145225476Y-105736904D02*
X145225476Y-105203571D01*
X145225476Y-105355952D02*
X145187380Y-105279761D01*
X145149285Y-105241666D01*
X145073095Y-105203571D01*
X144996904Y-105203571D01*
X144425476Y-105698809D02*
X144501666Y-105736904D01*
X144654047Y-105736904D01*
X144730238Y-105698809D01*
X144768333Y-105622619D01*
X144768333Y-105317857D01*
X144730238Y-105241666D01*
X144654047Y-105203571D01*
X144501666Y-105203571D01*
X144425476Y-105241666D01*
X144387380Y-105317857D01*
X144387380Y-105394047D01*
X144768333Y-105470238D01*
X144044523Y-105736904D02*
X144044523Y-105203571D01*
X144044523Y-105279761D02*
X144006428Y-105241666D01*
X143930238Y-105203571D01*
X143815952Y-105203571D01*
X143739761Y-105241666D01*
X143701666Y-105317857D01*
X143701666Y-105736904D01*
X143701666Y-105317857D02*
X143663571Y-105241666D01*
X143587380Y-105203571D01*
X143473095Y-105203571D01*
X143396904Y-105241666D01*
X143358809Y-105317857D01*
X143358809Y-105736904D01*
X143054047Y-105203571D02*
X142863571Y-105736904D01*
X142673095Y-105203571D02*
X142863571Y-105736904D01*
X142939761Y-105927380D01*
X142977857Y-105965476D01*
X143054047Y-106003571D01*
X141339761Y-104975000D02*
X141415952Y-104936904D01*
X141530238Y-104936904D01*
X141644523Y-104975000D01*
X141720714Y-105051190D01*
X141758809Y-105127380D01*
X141796904Y-105279761D01*
X141796904Y-105394047D01*
X141758809Y-105546428D01*
X141720714Y-105622619D01*
X141644523Y-105698809D01*
X141530238Y-105736904D01*
X141454047Y-105736904D01*
X141339761Y-105698809D01*
X141301666Y-105660714D01*
X141301666Y-105394047D01*
X141454047Y-105394047D01*
X140958809Y-105736904D02*
X140958809Y-105203571D01*
X140958809Y-104936904D02*
X140996904Y-104975000D01*
X140958809Y-105013095D01*
X140920714Y-104975000D01*
X140958809Y-104936904D01*
X140958809Y-105013095D01*
X140463571Y-105736904D02*
X140539761Y-105698809D01*
X140577857Y-105622619D01*
X140577857Y-104936904D01*
X140044523Y-105736904D02*
X140120714Y-105698809D01*
X140158809Y-105622619D01*
X140158809Y-104936904D01*
X139739761Y-105736904D02*
X139739761Y-105203571D01*
X139739761Y-104936904D02*
X139777857Y-104975000D01*
X139739761Y-105013095D01*
X139701666Y-104975000D01*
X139739761Y-104936904D01*
X139739761Y-105013095D01*
X139015952Y-105698809D02*
X139092142Y-105736904D01*
X139244523Y-105736904D01*
X139320714Y-105698809D01*
X139358809Y-105660714D01*
X139396904Y-105584523D01*
X139396904Y-105355952D01*
X139358809Y-105279761D01*
X139320714Y-105241666D01*
X139244523Y-105203571D01*
X139092142Y-105203571D01*
X139015952Y-105241666D01*
X138673095Y-105736904D02*
X138673095Y-104936904D01*
X138596904Y-105432142D02*
X138368333Y-105736904D01*
X138368333Y-105203571D02*
X138673095Y-105508333D01*
X113216666Y-94058333D02*
X113250000Y-94025000D01*
X113316666Y-93925000D01*
X113350000Y-93858333D01*
X113383333Y-93758333D01*
X113416666Y-93591666D01*
X113416666Y-93458333D01*
X113383333Y-93291666D01*
X113350000Y-93191666D01*
X113316666Y-93125000D01*
X113250000Y-93025000D01*
X113216666Y-92991666D01*
X112950000Y-93791666D02*
X112950000Y-93325000D01*
X112950000Y-93391666D02*
X112916666Y-93358333D01*
X112850000Y-93325000D01*
X112750000Y-93325000D01*
X112683333Y-93358333D01*
X112650000Y-93425000D01*
X112650000Y-93791666D01*
X112650000Y-93425000D02*
X112616666Y-93358333D01*
X112550000Y-93325000D01*
X112450000Y-93325000D01*
X112383333Y-93358333D01*
X112350000Y-93425000D01*
X112350000Y-93791666D01*
X111716666Y-93791666D02*
X111716666Y-93425000D01*
X111750000Y-93358333D01*
X111816666Y-93325000D01*
X111950000Y-93325000D01*
X112016666Y-93358333D01*
X111716666Y-93758333D02*
X111783333Y-93791666D01*
X111950000Y-93791666D01*
X112016666Y-93758333D01*
X112050000Y-93691666D01*
X112050000Y-93625000D01*
X112016666Y-93558333D01*
X111950000Y-93525000D01*
X111783333Y-93525000D01*
X111716666Y-93491666D01*
X111450000Y-93791666D02*
X111083333Y-93325000D01*
X111450000Y-93325000D02*
X111083333Y-93791666D01*
X110316666Y-93158333D02*
X110283333Y-93125000D01*
X110216666Y-93091666D01*
X110050000Y-93091666D01*
X109983333Y-93125000D01*
X109950000Y-93158333D01*
X109916666Y-93225000D01*
X109916666Y-93291666D01*
X109950000Y-93391666D01*
X110350000Y-93791666D01*
X109916666Y-93791666D01*
X109616666Y-93725000D02*
X109583333Y-93758333D01*
X109616666Y-93791666D01*
X109650000Y-93758333D01*
X109616666Y-93725000D01*
X109616666Y-93791666D01*
X109350000Y-93091666D02*
X108916666Y-93091666D01*
X109150000Y-93358333D01*
X109050000Y-93358333D01*
X108983333Y-93391666D01*
X108950000Y-93425000D01*
X108916666Y-93491666D01*
X108916666Y-93658333D01*
X108950000Y-93725000D01*
X108983333Y-93758333D01*
X109050000Y-93791666D01*
X109250000Y-93791666D01*
X109316666Y-93758333D01*
X109350000Y-93725000D01*
X108650000Y-93591666D02*
X108316666Y-93591666D01*
X108716666Y-93791666D02*
X108483333Y-93091666D01*
X108250000Y-93791666D01*
X107483333Y-93325000D02*
X107483333Y-94025000D01*
X107483333Y-93358333D02*
X107416666Y-93325000D01*
X107283333Y-93325000D01*
X107216666Y-93358333D01*
X107183333Y-93391666D01*
X107150000Y-93458333D01*
X107150000Y-93658333D01*
X107183333Y-93725000D01*
X107216666Y-93758333D01*
X107283333Y-93791666D01*
X107416666Y-93791666D01*
X107483333Y-93758333D01*
X106583333Y-93758333D02*
X106650000Y-93791666D01*
X106783333Y-93791666D01*
X106850000Y-93758333D01*
X106883333Y-93691666D01*
X106883333Y-93425000D01*
X106850000Y-93358333D01*
X106783333Y-93325000D01*
X106650000Y-93325000D01*
X106583333Y-93358333D01*
X106550000Y-93425000D01*
X106550000Y-93491666D01*
X106883333Y-93558333D01*
X106250000Y-93791666D02*
X106250000Y-93325000D01*
X106250000Y-93458333D02*
X106216666Y-93391666D01*
X106183333Y-93358333D01*
X106116666Y-93325000D01*
X106050000Y-93325000D01*
X105883333Y-94058333D02*
X105850000Y-94025000D01*
X105783333Y-93925000D01*
X105750000Y-93858333D01*
X105716666Y-93758333D01*
X105683333Y-93591666D01*
X105683333Y-93458333D01*
X105716666Y-93291666D01*
X105750000Y-93191666D01*
X105783333Y-93125000D01*
X105850000Y-93025000D01*
X105883333Y-92991666D01*
X90608333Y-97594047D02*
X90608333Y-96944047D01*
X90360714Y-96944047D01*
X90298809Y-96975000D01*
X90267857Y-97005952D01*
X90236904Y-97067857D01*
X90236904Y-97160714D01*
X90267857Y-97222619D01*
X90298809Y-97253571D01*
X90360714Y-97284523D01*
X90608333Y-97284523D01*
X89989285Y-97408333D02*
X89679761Y-97408333D01*
X90051190Y-97594047D02*
X89834523Y-96944047D01*
X89617857Y-97594047D01*
X89308333Y-97222619D02*
X89370238Y-97191666D01*
X89401190Y-97160714D01*
X89432142Y-97098809D01*
X89432142Y-97067857D01*
X89401190Y-97005952D01*
X89370238Y-96975000D01*
X89308333Y-96944047D01*
X89184523Y-96944047D01*
X89122619Y-96975000D01*
X89091666Y-97005952D01*
X89060714Y-97067857D01*
X89060714Y-97098809D01*
X89091666Y-97160714D01*
X89122619Y-97191666D01*
X89184523Y-97222619D01*
X89308333Y-97222619D01*
X89370238Y-97253571D01*
X89401190Y-97284523D01*
X89432142Y-97346428D01*
X89432142Y-97470238D01*
X89401190Y-97532142D01*
X89370238Y-97563095D01*
X89308333Y-97594047D01*
X89184523Y-97594047D01*
X89122619Y-97563095D01*
X89091666Y-97532142D01*
X89060714Y-97470238D01*
X89060714Y-97346428D01*
X89091666Y-97284523D01*
X89122619Y-97253571D01*
X89184523Y-97222619D01*
X88133333Y-97594047D02*
X88133333Y-96944047D01*
X87885714Y-96944047D01*
X87823809Y-96975000D01*
X87792857Y-97005952D01*
X87761904Y-97067857D01*
X87761904Y-97160714D01*
X87792857Y-97222619D01*
X87823809Y-97253571D01*
X87885714Y-97284523D01*
X88133333Y-97284523D01*
X87514285Y-97408333D02*
X87204761Y-97408333D01*
X87576190Y-97594047D02*
X87359523Y-96944047D01*
X87142857Y-97594047D01*
X86988095Y-96944047D02*
X86554761Y-96944047D01*
X86833333Y-97594047D01*
X85558333Y-97594047D02*
X85558333Y-96944047D01*
X85310714Y-96944047D01*
X85248809Y-96975000D01*
X85217857Y-97005952D01*
X85186904Y-97067857D01*
X85186904Y-97160714D01*
X85217857Y-97222619D01*
X85248809Y-97253571D01*
X85310714Y-97284523D01*
X85558333Y-97284523D01*
X84939285Y-97408333D02*
X84629761Y-97408333D01*
X85001190Y-97594047D02*
X84784523Y-96944047D01*
X84567857Y-97594047D01*
X84072619Y-96944047D02*
X84196428Y-96944047D01*
X84258333Y-96975000D01*
X84289285Y-97005952D01*
X84351190Y-97098809D01*
X84382142Y-97222619D01*
X84382142Y-97470238D01*
X84351190Y-97532142D01*
X84320238Y-97563095D01*
X84258333Y-97594047D01*
X84134523Y-97594047D01*
X84072619Y-97563095D01*
X84041666Y-97532142D01*
X84010714Y-97470238D01*
X84010714Y-97315476D01*
X84041666Y-97253571D01*
X84072619Y-97222619D01*
X84134523Y-97191666D01*
X84258333Y-97191666D01*
X84320238Y-97222619D01*
X84351190Y-97253571D01*
X84382142Y-97315476D01*
X82958333Y-97594047D02*
X82958333Y-96944047D01*
X82710714Y-96944047D01*
X82648809Y-96975000D01*
X82617857Y-97005952D01*
X82586904Y-97067857D01*
X82586904Y-97160714D01*
X82617857Y-97222619D01*
X82648809Y-97253571D01*
X82710714Y-97284523D01*
X82958333Y-97284523D01*
X82339285Y-97408333D02*
X82029761Y-97408333D01*
X82401190Y-97594047D02*
X82184523Y-96944047D01*
X81967857Y-97594047D01*
X81441666Y-96944047D02*
X81751190Y-96944047D01*
X81782142Y-97253571D01*
X81751190Y-97222619D01*
X81689285Y-97191666D01*
X81534523Y-97191666D01*
X81472619Y-97222619D01*
X81441666Y-97253571D01*
X81410714Y-97315476D01*
X81410714Y-97470238D01*
X81441666Y-97532142D01*
X81472619Y-97563095D01*
X81534523Y-97594047D01*
X81689285Y-97594047D01*
X81751190Y-97563095D01*
X81782142Y-97532142D01*
X80408333Y-97594047D02*
X80408333Y-96944047D01*
X80160714Y-96944047D01*
X80098809Y-96975000D01*
X80067857Y-97005952D01*
X80036904Y-97067857D01*
X80036904Y-97160714D01*
X80067857Y-97222619D01*
X80098809Y-97253571D01*
X80160714Y-97284523D01*
X80408333Y-97284523D01*
X79789285Y-97408333D02*
X79479761Y-97408333D01*
X79851190Y-97594047D02*
X79634523Y-96944047D01*
X79417857Y-97594047D01*
X78922619Y-97160714D02*
X78922619Y-97594047D01*
X79077380Y-96913095D02*
X79232142Y-97377380D01*
X78829761Y-97377380D01*
X90654761Y-104144047D02*
X90654761Y-103494047D01*
X90407142Y-103494047D01*
X90345238Y-103525000D01*
X90314285Y-103555952D01*
X90283333Y-103617857D01*
X90283333Y-103710714D01*
X90314285Y-103772619D01*
X90345238Y-103803571D01*
X90407142Y-103834523D01*
X90654761Y-103834523D01*
X89788095Y-103803571D02*
X89695238Y-103834523D01*
X89664285Y-103865476D01*
X89633333Y-103927380D01*
X89633333Y-104020238D01*
X89664285Y-104082142D01*
X89695238Y-104113095D01*
X89757142Y-104144047D01*
X90004761Y-104144047D01*
X90004761Y-103494047D01*
X89788095Y-103494047D01*
X89726190Y-103525000D01*
X89695238Y-103555952D01*
X89664285Y-103617857D01*
X89664285Y-103679761D01*
X89695238Y-103741666D01*
X89726190Y-103772619D01*
X89788095Y-103803571D01*
X90004761Y-103803571D01*
X89045238Y-103494047D02*
X89354761Y-103494047D01*
X89385714Y-103803571D01*
X89354761Y-103772619D01*
X89292857Y-103741666D01*
X89138095Y-103741666D01*
X89076190Y-103772619D01*
X89045238Y-103803571D01*
X89014285Y-103865476D01*
X89014285Y-104020238D01*
X89045238Y-104082142D01*
X89076190Y-104113095D01*
X89138095Y-104144047D01*
X89292857Y-104144047D01*
X89354761Y-104113095D01*
X89385714Y-104082142D01*
X88310714Y-104144047D02*
X88310714Y-103494047D01*
X88082142Y-103494047D01*
X88025000Y-103525000D01*
X87996428Y-103555952D01*
X87967857Y-103617857D01*
X87967857Y-103710714D01*
X87996428Y-103772619D01*
X88025000Y-103803571D01*
X88082142Y-103834523D01*
X88310714Y-103834523D01*
X87739285Y-103958333D02*
X87453571Y-103958333D01*
X87796428Y-104144047D02*
X87596428Y-103494047D01*
X87396428Y-104144047D01*
X86882142Y-104144047D02*
X87225000Y-104144047D01*
X87053571Y-104144047D02*
X87053571Y-103494047D01*
X87110714Y-103586904D01*
X87167857Y-103648809D01*
X87225000Y-103679761D01*
X86367857Y-103710714D02*
X86367857Y-104144047D01*
X86510714Y-103463095D02*
X86653571Y-103927380D01*
X86282142Y-103927380D01*
X85735714Y-104144047D02*
X85735714Y-103494047D01*
X85507142Y-103494047D01*
X85450000Y-103525000D01*
X85421428Y-103555952D01*
X85392857Y-103617857D01*
X85392857Y-103710714D01*
X85421428Y-103772619D01*
X85450000Y-103803571D01*
X85507142Y-103834523D01*
X85735714Y-103834523D01*
X85164285Y-103958333D02*
X84878571Y-103958333D01*
X85221428Y-104144047D02*
X85021428Y-103494047D01*
X84821428Y-104144047D01*
X84307142Y-104144047D02*
X84650000Y-104144047D01*
X84478571Y-104144047D02*
X84478571Y-103494047D01*
X84535714Y-103586904D01*
X84592857Y-103648809D01*
X84650000Y-103679761D01*
X84107142Y-103494047D02*
X83735714Y-103494047D01*
X83935714Y-103741666D01*
X83850000Y-103741666D01*
X83792857Y-103772619D01*
X83764285Y-103803571D01*
X83735714Y-103865476D01*
X83735714Y-104020238D01*
X83764285Y-104082142D01*
X83792857Y-104113095D01*
X83850000Y-104144047D01*
X84021428Y-104144047D01*
X84078571Y-104113095D01*
X84107142Y-104082142D01*
X83235714Y-104119047D02*
X83235714Y-103469047D01*
X83007142Y-103469047D01*
X82950000Y-103500000D01*
X82921428Y-103530952D01*
X82892857Y-103592857D01*
X82892857Y-103685714D01*
X82921428Y-103747619D01*
X82950000Y-103778571D01*
X83007142Y-103809523D01*
X83235714Y-103809523D01*
X82664285Y-103933333D02*
X82378571Y-103933333D01*
X82721428Y-104119047D02*
X82521428Y-103469047D01*
X82321428Y-104119047D01*
X81807142Y-104119047D02*
X82150000Y-104119047D01*
X81978571Y-104119047D02*
X81978571Y-103469047D01*
X82035714Y-103561904D01*
X82092857Y-103623809D01*
X82150000Y-103654761D01*
X81435714Y-103469047D02*
X81378571Y-103469047D01*
X81321428Y-103500000D01*
X81292857Y-103530952D01*
X81264285Y-103592857D01*
X81235714Y-103716666D01*
X81235714Y-103871428D01*
X81264285Y-103995238D01*
X81292857Y-104057142D01*
X81321428Y-104088095D01*
X81378571Y-104119047D01*
X81435714Y-104119047D01*
X81492857Y-104088095D01*
X81521428Y-104057142D01*
X81550000Y-103995238D01*
X81578571Y-103871428D01*
X81578571Y-103716666D01*
X81550000Y-103592857D01*
X81521428Y-103530952D01*
X81492857Y-103500000D01*
X81435714Y-103469047D01*
X80483333Y-104144047D02*
X80483333Y-103494047D01*
X80235714Y-103494047D01*
X80173809Y-103525000D01*
X80142857Y-103555952D01*
X80111904Y-103617857D01*
X80111904Y-103710714D01*
X80142857Y-103772619D01*
X80173809Y-103803571D01*
X80235714Y-103834523D01*
X80483333Y-103834523D01*
X79864285Y-103958333D02*
X79554761Y-103958333D01*
X79926190Y-104144047D02*
X79709523Y-103494047D01*
X79492857Y-104144047D01*
X79245238Y-104144047D02*
X79121428Y-104144047D01*
X79059523Y-104113095D01*
X79028571Y-104082142D01*
X78966666Y-103989285D01*
X78935714Y-103865476D01*
X78935714Y-103617857D01*
X78966666Y-103555952D01*
X78997619Y-103525000D01*
X79059523Y-103494047D01*
X79183333Y-103494047D01*
X79245238Y-103525000D01*
X79276190Y-103555952D01*
X79307142Y-103617857D01*
X79307142Y-103772619D01*
X79276190Y-103834523D01*
X79245238Y-103865476D01*
X79183333Y-103896428D01*
X79059523Y-103896428D01*
X78997619Y-103865476D01*
X78966666Y-103834523D01*
X78935714Y-103772619D01*
X110858333Y-97619047D02*
X110858333Y-96969047D01*
X110610714Y-96969047D01*
X110548809Y-97000000D01*
X110517857Y-97030952D01*
X110486904Y-97092857D01*
X110486904Y-97185714D01*
X110517857Y-97247619D01*
X110548809Y-97278571D01*
X110610714Y-97309523D01*
X110858333Y-97309523D01*
X110239285Y-97433333D02*
X109929761Y-97433333D01*
X110301190Y-97619047D02*
X110084523Y-96969047D01*
X109867857Y-97619047D01*
X109713095Y-96969047D02*
X109310714Y-96969047D01*
X109527380Y-97216666D01*
X109434523Y-97216666D01*
X109372619Y-97247619D01*
X109341666Y-97278571D01*
X109310714Y-97340476D01*
X109310714Y-97495238D01*
X109341666Y-97557142D01*
X109372619Y-97588095D01*
X109434523Y-97619047D01*
X109620238Y-97619047D01*
X109682142Y-97588095D01*
X109713095Y-97557142D01*
X113408333Y-97619047D02*
X113408333Y-96969047D01*
X113160714Y-96969047D01*
X113098809Y-97000000D01*
X113067857Y-97030952D01*
X113036904Y-97092857D01*
X113036904Y-97185714D01*
X113067857Y-97247619D01*
X113098809Y-97278571D01*
X113160714Y-97309523D01*
X113408333Y-97309523D01*
X112789285Y-97433333D02*
X112479761Y-97433333D01*
X112851190Y-97619047D02*
X112634523Y-96969047D01*
X112417857Y-97619047D01*
X112232142Y-97030952D02*
X112201190Y-97000000D01*
X112139285Y-96969047D01*
X111984523Y-96969047D01*
X111922619Y-97000000D01*
X111891666Y-97030952D01*
X111860714Y-97092857D01*
X111860714Y-97154761D01*
X111891666Y-97247619D01*
X112263095Y-97619047D01*
X111860714Y-97619047D01*
X115958333Y-97619047D02*
X115958333Y-96969047D01*
X115710714Y-96969047D01*
X115648809Y-97000000D01*
X115617857Y-97030952D01*
X115586904Y-97092857D01*
X115586904Y-97185714D01*
X115617857Y-97247619D01*
X115648809Y-97278571D01*
X115710714Y-97309523D01*
X115958333Y-97309523D01*
X115339285Y-97433333D02*
X115029761Y-97433333D01*
X115401190Y-97619047D02*
X115184523Y-96969047D01*
X114967857Y-97619047D01*
X114410714Y-97619047D02*
X114782142Y-97619047D01*
X114596428Y-97619047D02*
X114596428Y-96969047D01*
X114658333Y-97061904D01*
X114720238Y-97123809D01*
X114782142Y-97154761D01*
X118508333Y-97644047D02*
X118508333Y-96994047D01*
X118260714Y-96994047D01*
X118198809Y-97025000D01*
X118167857Y-97055952D01*
X118136904Y-97117857D01*
X118136904Y-97210714D01*
X118167857Y-97272619D01*
X118198809Y-97303571D01*
X118260714Y-97334523D01*
X118508333Y-97334523D01*
X117889285Y-97458333D02*
X117579761Y-97458333D01*
X117951190Y-97644047D02*
X117734523Y-96994047D01*
X117517857Y-97644047D01*
X117177380Y-96994047D02*
X117115476Y-96994047D01*
X117053571Y-97025000D01*
X117022619Y-97055952D01*
X116991666Y-97117857D01*
X116960714Y-97241666D01*
X116960714Y-97396428D01*
X116991666Y-97520238D01*
X117022619Y-97582142D01*
X117053571Y-97613095D01*
X117115476Y-97644047D01*
X117177380Y-97644047D01*
X117239285Y-97613095D01*
X117270238Y-97582142D01*
X117301190Y-97520238D01*
X117332142Y-97396428D01*
X117332142Y-97241666D01*
X117301190Y-97117857D01*
X117270238Y-97055952D01*
X117239285Y-97025000D01*
X117177380Y-96994047D01*
X121521428Y-97228571D02*
X121428571Y-97259523D01*
X121397619Y-97290476D01*
X121366666Y-97352380D01*
X121366666Y-97445238D01*
X121397619Y-97507142D01*
X121428571Y-97538095D01*
X121490476Y-97569047D01*
X121738095Y-97569047D01*
X121738095Y-96919047D01*
X121521428Y-96919047D01*
X121459523Y-96950000D01*
X121428571Y-96980952D01*
X121397619Y-97042857D01*
X121397619Y-97104761D01*
X121428571Y-97166666D01*
X121459523Y-97197619D01*
X121521428Y-97228571D01*
X121738095Y-97228571D01*
X120809523Y-97569047D02*
X120809523Y-97228571D01*
X120840476Y-97166666D01*
X120902380Y-97135714D01*
X121026190Y-97135714D01*
X121088095Y-97166666D01*
X120809523Y-97538095D02*
X120871428Y-97569047D01*
X121026190Y-97569047D01*
X121088095Y-97538095D01*
X121119047Y-97476190D01*
X121119047Y-97414285D01*
X121088095Y-97352380D01*
X121026190Y-97321428D01*
X120871428Y-97321428D01*
X120809523Y-97290476D01*
X120592857Y-97135714D02*
X120345238Y-97135714D01*
X120500000Y-96919047D02*
X120500000Y-97476190D01*
X120469047Y-97538095D01*
X120407142Y-97569047D01*
X120345238Y-97569047D01*
X120221428Y-97135714D02*
X119973809Y-97135714D01*
X120128571Y-96919047D02*
X120128571Y-97476190D01*
X120097619Y-97538095D01*
X120035714Y-97569047D01*
X119973809Y-97569047D01*
X119757142Y-97321428D02*
X119261904Y-97321428D01*
X119509523Y-97569047D02*
X119509523Y-97073809D01*
D12*
X116697619Y-93977380D02*
X117173809Y-93977380D01*
X117173809Y-92977380D01*
X116364285Y-93453571D02*
X116030952Y-93453571D01*
X115888095Y-93977380D02*
X116364285Y-93977380D01*
X116364285Y-92977380D01*
X115888095Y-92977380D01*
X115459523Y-93977380D02*
X115459523Y-92977380D01*
X115221428Y-92977380D01*
X115078571Y-93025000D01*
X114983333Y-93120238D01*
X114935714Y-93215476D01*
X114888095Y-93405952D01*
X114888095Y-93548809D01*
X114935714Y-93739285D01*
X114983333Y-93834523D01*
X115078571Y-93929761D01*
X115221428Y-93977380D01*
X115459523Y-93977380D01*
X114507142Y-93929761D02*
X114411904Y-93977380D01*
X114221428Y-93977380D01*
X114126190Y-93929761D01*
X114078571Y-93834523D01*
X114078571Y-93786904D01*
X114126190Y-93691666D01*
X114221428Y-93644047D01*
X114364285Y-93644047D01*
X114459523Y-93596428D01*
X114507142Y-93501190D01*
X114507142Y-93453571D01*
X114459523Y-93358333D01*
X114364285Y-93310714D01*
X114221428Y-93310714D01*
X114126190Y-93358333D01*
D10*
X121571428Y-103853571D02*
X121478571Y-103884523D01*
X121447619Y-103915476D01*
X121416666Y-103977380D01*
X121416666Y-104070238D01*
X121447619Y-104132142D01*
X121478571Y-104163095D01*
X121540476Y-104194047D01*
X121788095Y-104194047D01*
X121788095Y-103544047D01*
X121571428Y-103544047D01*
X121509523Y-103575000D01*
X121478571Y-103605952D01*
X121447619Y-103667857D01*
X121447619Y-103729761D01*
X121478571Y-103791666D01*
X121509523Y-103822619D01*
X121571428Y-103853571D01*
X121788095Y-103853571D01*
X120859523Y-104194047D02*
X120859523Y-103853571D01*
X120890476Y-103791666D01*
X120952380Y-103760714D01*
X121076190Y-103760714D01*
X121138095Y-103791666D01*
X120859523Y-104163095D02*
X120921428Y-104194047D01*
X121076190Y-104194047D01*
X121138095Y-104163095D01*
X121169047Y-104101190D01*
X121169047Y-104039285D01*
X121138095Y-103977380D01*
X121076190Y-103946428D01*
X120921428Y-103946428D01*
X120859523Y-103915476D01*
X120642857Y-103760714D02*
X120395238Y-103760714D01*
X120550000Y-103544047D02*
X120550000Y-104101190D01*
X120519047Y-104163095D01*
X120457142Y-104194047D01*
X120395238Y-104194047D01*
X120271428Y-103760714D02*
X120023809Y-103760714D01*
X120178571Y-103544047D02*
X120178571Y-104101190D01*
X120147619Y-104163095D01*
X120085714Y-104194047D01*
X120023809Y-104194047D01*
X119807142Y-103946428D02*
X119311904Y-103946428D01*
X119559523Y-104194047D02*
X119559523Y-103698809D01*
X118703571Y-103569047D02*
X118301190Y-103569047D01*
X118517857Y-103816666D01*
X118425000Y-103816666D01*
X118363095Y-103847619D01*
X118332142Y-103878571D01*
X118301190Y-103940476D01*
X118301190Y-104095238D01*
X118332142Y-104157142D01*
X118363095Y-104188095D01*
X118425000Y-104219047D01*
X118610714Y-104219047D01*
X118672619Y-104188095D01*
X118703571Y-104157142D01*
X118022619Y-104157142D02*
X117991666Y-104188095D01*
X118022619Y-104219047D01*
X118053571Y-104188095D01*
X118022619Y-104157142D01*
X118022619Y-104219047D01*
X117775000Y-103569047D02*
X117372619Y-103569047D01*
X117589285Y-103816666D01*
X117496428Y-103816666D01*
X117434523Y-103847619D01*
X117403571Y-103878571D01*
X117372619Y-103940476D01*
X117372619Y-104095238D01*
X117403571Y-104157142D01*
X117434523Y-104188095D01*
X117496428Y-104219047D01*
X117682142Y-104219047D01*
X117744047Y-104188095D01*
X117775000Y-104157142D01*
X117155952Y-103785714D02*
X117001190Y-104219047D01*
X116846428Y-103785714D01*
X116272619Y-103569047D02*
X116272619Y-104095238D01*
X116241666Y-104157142D01*
X116210714Y-104188095D01*
X116148809Y-104219047D01*
X116025000Y-104219047D01*
X115963095Y-104188095D01*
X115932142Y-104157142D01*
X115901190Y-104095238D01*
X115901190Y-103569047D01*
X115622619Y-104188095D02*
X115529761Y-104219047D01*
X115375000Y-104219047D01*
X115313095Y-104188095D01*
X115282142Y-104157142D01*
X115251190Y-104095238D01*
X115251190Y-104033333D01*
X115282142Y-103971428D01*
X115313095Y-103940476D01*
X115375000Y-103909523D01*
X115498809Y-103878571D01*
X115560714Y-103847619D01*
X115591666Y-103816666D01*
X115622619Y-103754761D01*
X115622619Y-103692857D01*
X115591666Y-103630952D01*
X115560714Y-103600000D01*
X115498809Y-103569047D01*
X115344047Y-103569047D01*
X115251190Y-103600000D01*
X114755952Y-103878571D02*
X114663095Y-103909523D01*
X114632142Y-103940476D01*
X114601190Y-104002380D01*
X114601190Y-104095238D01*
X114632142Y-104157142D01*
X114663095Y-104188095D01*
X114725000Y-104219047D01*
X114972619Y-104219047D01*
X114972619Y-103569047D01*
X114755952Y-103569047D01*
X114694047Y-103600000D01*
X114663095Y-103630952D01*
X114632142Y-103692857D01*
X114632142Y-103754761D01*
X114663095Y-103816666D01*
X114694047Y-103847619D01*
X114755952Y-103878571D01*
X114972619Y-103878571D01*
X114322619Y-103971428D02*
X113827380Y-103971428D01*
X114075000Y-104219047D02*
X114075000Y-103723809D01*
X113117857Y-103600000D02*
X113179761Y-103569047D01*
X113272619Y-103569047D01*
X113365476Y-103600000D01*
X113427380Y-103661904D01*
X113458333Y-103723809D01*
X113489285Y-103847619D01*
X113489285Y-103940476D01*
X113458333Y-104064285D01*
X113427380Y-104126190D01*
X113365476Y-104188095D01*
X113272619Y-104219047D01*
X113210714Y-104219047D01*
X113117857Y-104188095D01*
X113086904Y-104157142D01*
X113086904Y-103940476D01*
X113210714Y-103940476D01*
X112808333Y-103785714D02*
X112808333Y-104219047D01*
X112808333Y-103847619D02*
X112777380Y-103816666D01*
X112715476Y-103785714D01*
X112622619Y-103785714D01*
X112560714Y-103816666D01*
X112529761Y-103878571D01*
X112529761Y-104219047D01*
X111941666Y-104219047D02*
X111941666Y-103569047D01*
X111941666Y-104188095D02*
X112003571Y-104219047D01*
X112127380Y-104219047D01*
X112189285Y-104188095D01*
X112220238Y-104157142D01*
X112251190Y-104095238D01*
X112251190Y-103909523D01*
X112220238Y-103847619D01*
X112189285Y-103816666D01*
X112127380Y-103785714D01*
X112003571Y-103785714D01*
X111941666Y-103816666D01*
D12*
X118476190Y-102852380D02*
X118476190Y-101852380D01*
X118095238Y-101852380D01*
X118000000Y-101900000D01*
X117952380Y-101947619D01*
X117904761Y-102042857D01*
X117904761Y-102185714D01*
X117952380Y-102280952D01*
X118000000Y-102328571D01*
X118095238Y-102376190D01*
X118476190Y-102376190D01*
X117333333Y-102852380D02*
X117428571Y-102804761D01*
X117476190Y-102757142D01*
X117523809Y-102661904D01*
X117523809Y-102376190D01*
X117476190Y-102280952D01*
X117428571Y-102233333D01*
X117333333Y-102185714D01*
X117190476Y-102185714D01*
X117095238Y-102233333D01*
X117047619Y-102280952D01*
X117000000Y-102376190D01*
X117000000Y-102661904D01*
X117047619Y-102757142D01*
X117095238Y-102804761D01*
X117190476Y-102852380D01*
X117333333Y-102852380D01*
X116666666Y-102185714D02*
X116476190Y-102852380D01*
X116285714Y-102376190D01*
X116095238Y-102852380D01*
X115904761Y-102185714D01*
X115142857Y-102804761D02*
X115238095Y-102852380D01*
X115428571Y-102852380D01*
X115523809Y-102804761D01*
X115571428Y-102709523D01*
X115571428Y-102328571D01*
X115523809Y-102233333D01*
X115428571Y-102185714D01*
X115238095Y-102185714D01*
X115142857Y-102233333D01*
X115095238Y-102328571D01*
X115095238Y-102423809D01*
X115571428Y-102519047D01*
X114666666Y-102852380D02*
X114666666Y-102185714D01*
X114666666Y-102376190D02*
X114619047Y-102280952D01*
X114571428Y-102233333D01*
X114476190Y-102185714D01*
X114380952Y-102185714D01*
D13*
X153708571Y-93339285D02*
X152680000Y-93339285D01*
X153194285Y-95139285D02*
X153194285Y-93339285D01*
X152080000Y-95139285D02*
X152080000Y-93339285D01*
X151308571Y-95139285D02*
X151308571Y-94196428D01*
X151394285Y-94025000D01*
X151565714Y-93939285D01*
X151822857Y-93939285D01*
X151994285Y-94025000D01*
X152080000Y-94110714D01*
X149680000Y-93939285D02*
X149680000Y-95139285D01*
X150451428Y-93939285D02*
X150451428Y-94882142D01*
X150365714Y-95053571D01*
X150194285Y-95139285D01*
X149937142Y-95139285D01*
X149765714Y-95053571D01*
X149680000Y-94967857D01*
X148822857Y-93939285D02*
X148822857Y-95139285D01*
X148822857Y-94110714D02*
X148737142Y-94025000D01*
X148565714Y-93939285D01*
X148308571Y-93939285D01*
X148137142Y-94025000D01*
X148051428Y-94196428D01*
X148051428Y-95139285D01*
X146422857Y-95139285D02*
X146422857Y-93339285D01*
X146422857Y-95053571D02*
X146594285Y-95139285D01*
X146937142Y-95139285D01*
X147108571Y-95053571D01*
X147194285Y-94967857D01*
X147280000Y-94796428D01*
X147280000Y-94282142D01*
X147194285Y-94110714D01*
X147108571Y-94025000D01*
X146937142Y-93939285D01*
X146594285Y-93939285D01*
X146422857Y-94025000D01*
X144880000Y-95053571D02*
X145051428Y-95139285D01*
X145394285Y-95139285D01*
X145565714Y-95053571D01*
X145651428Y-94882142D01*
X145651428Y-94196428D01*
X145565714Y-94025000D01*
X145394285Y-93939285D01*
X145051428Y-93939285D01*
X144880000Y-94025000D01*
X144794285Y-94196428D01*
X144794285Y-94367857D01*
X145651428Y-94539285D01*
X144022857Y-95139285D02*
X144022857Y-93939285D01*
X144022857Y-94282142D02*
X143937142Y-94110714D01*
X143851428Y-94025000D01*
X143680000Y-93939285D01*
X143508571Y-93939285D01*
X141537142Y-95139285D02*
X141537142Y-93339285D01*
X140851428Y-93339285D01*
X140680000Y-93425000D01*
X140594285Y-93510714D01*
X140508571Y-93682142D01*
X140508571Y-93939285D01*
X140594285Y-94110714D01*
X140680000Y-94196428D01*
X140851428Y-94282142D01*
X141537142Y-94282142D01*
X138965714Y-95139285D02*
X138965714Y-94196428D01*
X139051428Y-94025000D01*
X139222857Y-93939285D01*
X139565714Y-93939285D01*
X139737142Y-94025000D01*
X138965714Y-95053571D02*
X139137142Y-95139285D01*
X139565714Y-95139285D01*
X139737142Y-95053571D01*
X139822857Y-94882142D01*
X139822857Y-94710714D01*
X139737142Y-94539285D01*
X139565714Y-94453571D01*
X139137142Y-94453571D01*
X138965714Y-94367857D01*
X137337142Y-95053571D02*
X137508571Y-95139285D01*
X137851428Y-95139285D01*
X138022857Y-95053571D01*
X138108571Y-94967857D01*
X138194285Y-94796428D01*
X138194285Y-94282142D01*
X138108571Y-94110714D01*
X138022857Y-94025000D01*
X137851428Y-93939285D01*
X137508571Y-93939285D01*
X137337142Y-94025000D01*
X136565714Y-95139285D02*
X136565714Y-93339285D01*
X136394285Y-94453571D02*
X135880000Y-95139285D01*
X135880000Y-93939285D02*
X136565714Y-94625000D01*
X92800000Y-98050800D02*
X92800000Y-102050800D01*
X108800000Y-98050800D02*
X92800000Y-98050800D01*
X108800000Y-99050800D02*
X108800000Y-98050800D01*
X109800000Y-99050800D02*
X108800000Y-99050800D01*
X109800000Y-100950800D02*
X109800000Y-99050800D01*
X108900000Y-100950800D02*
X109800000Y-100950800D01*
X108900000Y-102050800D02*
X108900000Y-100950800D01*
X92800000Y-102050800D02*
X108900000Y-102050800D01*
D14*
X108464285Y-100841666D02*
X108309523Y-101541666D01*
X108185714Y-101041666D01*
X108061904Y-101541666D01*
X107907142Y-100841666D01*
X107659523Y-101541666D02*
X107659523Y-101075000D01*
X107659523Y-100841666D02*
X107690476Y-100875000D01*
X107659523Y-100908333D01*
X107628571Y-100875000D01*
X107659523Y-100841666D01*
X107659523Y-100908333D01*
X107442857Y-101075000D02*
X107195238Y-101075000D01*
X107350000Y-100841666D02*
X107350000Y-101441666D01*
X107319047Y-101508333D01*
X107257142Y-101541666D01*
X107195238Y-101541666D01*
X106978571Y-101541666D02*
X106978571Y-100841666D01*
X106700000Y-101541666D02*
X106700000Y-101175000D01*
X106730952Y-101108333D01*
X106792857Y-101075000D01*
X106885714Y-101075000D01*
X106947619Y-101108333D01*
X106978571Y-101141666D01*
X105895238Y-101541666D02*
X105895238Y-100841666D01*
X105895238Y-101108333D02*
X105833333Y-101075000D01*
X105709523Y-101075000D01*
X105647619Y-101108333D01*
X105616666Y-101141666D01*
X105585714Y-101208333D01*
X105585714Y-101408333D01*
X105616666Y-101475000D01*
X105647619Y-101508333D01*
X105709523Y-101541666D01*
X105833333Y-101541666D01*
X105895238Y-101508333D01*
X105028571Y-101075000D02*
X105028571Y-101541666D01*
X105307142Y-101075000D02*
X105307142Y-101441666D01*
X105276190Y-101508333D01*
X105214285Y-101541666D01*
X105121428Y-101541666D01*
X105059523Y-101508333D01*
X105028571Y-101475000D01*
X104719047Y-101541666D02*
X104719047Y-101075000D01*
X104719047Y-100841666D02*
X104750000Y-100875000D01*
X104719047Y-100908333D01*
X104688095Y-100875000D01*
X104719047Y-100841666D01*
X104719047Y-100908333D01*
X104316666Y-101541666D02*
X104378571Y-101508333D01*
X104409523Y-101441666D01*
X104409523Y-100841666D01*
X104161904Y-101075000D02*
X103914285Y-101075000D01*
X104069047Y-100841666D02*
X104069047Y-101441666D01*
X104038095Y-101508333D01*
X103976190Y-101541666D01*
X103914285Y-101541666D01*
X103697619Y-101275000D02*
X103202380Y-101275000D01*
X102892857Y-101541666D02*
X102892857Y-101075000D01*
X102892857Y-100841666D02*
X102923809Y-100875000D01*
X102892857Y-100908333D01*
X102861904Y-100875000D01*
X102892857Y-100841666D01*
X102892857Y-100908333D01*
X102583333Y-101075000D02*
X102583333Y-101541666D01*
X102583333Y-101141666D02*
X102552380Y-101108333D01*
X102490476Y-101075000D01*
X102397619Y-101075000D01*
X102335714Y-101108333D01*
X102304761Y-101175000D01*
X102304761Y-101541666D01*
X101500000Y-101075000D02*
X101500000Y-101775000D01*
X101500000Y-101108333D02*
X101438095Y-101075000D01*
X101314285Y-101075000D01*
X101252380Y-101108333D01*
X101221428Y-101141666D01*
X101190476Y-101208333D01*
X101190476Y-101408333D01*
X101221428Y-101475000D01*
X101252380Y-101508333D01*
X101314285Y-101541666D01*
X101438095Y-101541666D01*
X101500000Y-101508333D01*
X100911904Y-101541666D02*
X100911904Y-101075000D01*
X100911904Y-101208333D02*
X100880952Y-101141666D01*
X100850000Y-101108333D01*
X100788095Y-101075000D01*
X100726190Y-101075000D01*
X100416666Y-101541666D02*
X100478571Y-101508333D01*
X100509523Y-101475000D01*
X100540476Y-101408333D01*
X100540476Y-101208333D01*
X100509523Y-101141666D01*
X100478571Y-101108333D01*
X100416666Y-101075000D01*
X100323809Y-101075000D01*
X100261904Y-101108333D01*
X100230952Y-101141666D01*
X100200000Y-101208333D01*
X100200000Y-101408333D01*
X100230952Y-101475000D01*
X100261904Y-101508333D01*
X100323809Y-101541666D01*
X100416666Y-101541666D01*
X100014285Y-101075000D02*
X99766666Y-101075000D01*
X99921428Y-100841666D02*
X99921428Y-101441666D01*
X99890476Y-101508333D01*
X99828571Y-101541666D01*
X99766666Y-101541666D01*
X99302380Y-101508333D02*
X99364285Y-101541666D01*
X99488095Y-101541666D01*
X99550000Y-101508333D01*
X99580952Y-101441666D01*
X99580952Y-101175000D01*
X99550000Y-101108333D01*
X99488095Y-101075000D01*
X99364285Y-101075000D01*
X99302380Y-101108333D01*
X99271428Y-101175000D01*
X99271428Y-101241666D01*
X99580952Y-101308333D01*
X98714285Y-101508333D02*
X98776190Y-101541666D01*
X98900000Y-101541666D01*
X98961904Y-101508333D01*
X98992857Y-101475000D01*
X99023809Y-101408333D01*
X99023809Y-101208333D01*
X98992857Y-101141666D01*
X98961904Y-101108333D01*
X98900000Y-101075000D01*
X98776190Y-101075000D01*
X98714285Y-101108333D01*
X98528571Y-101075000D02*
X98280952Y-101075000D01*
X98435714Y-100841666D02*
X98435714Y-101441666D01*
X98404761Y-101508333D01*
X98342857Y-101541666D01*
X98280952Y-101541666D01*
X98064285Y-101541666D02*
X98064285Y-101075000D01*
X98064285Y-100841666D02*
X98095238Y-100875000D01*
X98064285Y-100908333D01*
X98033333Y-100875000D01*
X98064285Y-100841666D01*
X98064285Y-100908333D01*
X97661904Y-101541666D02*
X97723809Y-101508333D01*
X97754761Y-101475000D01*
X97785714Y-101408333D01*
X97785714Y-101208333D01*
X97754761Y-101141666D01*
X97723809Y-101108333D01*
X97661904Y-101075000D01*
X97569047Y-101075000D01*
X97507142Y-101108333D01*
X97476190Y-101141666D01*
X97445238Y-101208333D01*
X97445238Y-101408333D01*
X97476190Y-101475000D01*
X97507142Y-101508333D01*
X97569047Y-101541666D01*
X97661904Y-101541666D01*
X97166666Y-101075000D02*
X97166666Y-101541666D01*
X97166666Y-101141666D02*
X97135714Y-101108333D01*
X97073809Y-101075000D01*
X96980952Y-101075000D01*
X96919047Y-101108333D01*
X96888095Y-101175000D01*
X96888095Y-101541666D01*
X95804761Y-101508333D02*
X95866666Y-101541666D01*
X95990476Y-101541666D01*
X96052380Y-101508333D01*
X96083333Y-101475000D01*
X96114285Y-101408333D01*
X96114285Y-101208333D01*
X96083333Y-101141666D01*
X96052380Y-101108333D01*
X95990476Y-101075000D01*
X95866666Y-101075000D01*
X95804761Y-101108333D01*
X95526190Y-101541666D02*
X95526190Y-101075000D01*
X95526190Y-100841666D02*
X95557142Y-100875000D01*
X95526190Y-100908333D01*
X95495238Y-100875000D01*
X95526190Y-100841666D01*
X95526190Y-100908333D01*
X95216666Y-101541666D02*
X95216666Y-101075000D01*
X95216666Y-101208333D02*
X95185714Y-101141666D01*
X95154761Y-101108333D01*
X95092857Y-101075000D01*
X95030952Y-101075000D01*
X94535714Y-101508333D02*
X94597619Y-101541666D01*
X94721428Y-101541666D01*
X94783333Y-101508333D01*
X94814285Y-101475000D01*
X94845238Y-101408333D01*
X94845238Y-101208333D01*
X94814285Y-101141666D01*
X94783333Y-101108333D01*
X94721428Y-101075000D01*
X94597619Y-101075000D01*
X94535714Y-101108333D01*
X93978571Y-101075000D02*
X93978571Y-101541666D01*
X94257142Y-101075000D02*
X94257142Y-101441666D01*
X94226190Y-101508333D01*
X94164285Y-101541666D01*
X94071428Y-101541666D01*
X94009523Y-101508333D01*
X93978571Y-101475000D01*
X93669047Y-101541666D02*
X93669047Y-101075000D01*
X93669047Y-100841666D02*
X93700000Y-100875000D01*
X93669047Y-100908333D01*
X93638095Y-100875000D01*
X93669047Y-100841666D01*
X93669047Y-100908333D01*
X93452380Y-101075000D02*
X93204761Y-101075000D01*
X93359523Y-100841666D02*
X93359523Y-101441666D01*
X93328571Y-101508333D01*
X93266666Y-101541666D01*
X93204761Y-101541666D01*
D10*
X91066666Y-99948400D02*
X90533333Y-99948400D01*
X112066666Y-99948400D02*
X111533333Y-99948400D01*
X111800000Y-100215066D02*
X111800000Y-99681733D01*
X104978571Y-100407142D02*
X105492857Y-100407142D01*
X105235714Y-100407142D02*
X105235714Y-99507142D01*
X105321428Y-99635714D01*
X105407142Y-99721428D01*
X105492857Y-99764285D01*
X104464285Y-99892857D02*
X104550000Y-99850000D01*
X104592857Y-99807142D01*
X104635714Y-99721428D01*
X104635714Y-99678571D01*
X104592857Y-99592857D01*
X104550000Y-99550000D01*
X104464285Y-99507142D01*
X104292857Y-99507142D01*
X104207142Y-99550000D01*
X104164285Y-99592857D01*
X104121428Y-99678571D01*
X104121428Y-99721428D01*
X104164285Y-99807142D01*
X104207142Y-99850000D01*
X104292857Y-99892857D01*
X104464285Y-99892857D01*
X104550000Y-99935714D01*
X104592857Y-99978571D01*
X104635714Y-100064285D01*
X104635714Y-100235714D01*
X104592857Y-100321428D01*
X104550000Y-100364285D01*
X104464285Y-100407142D01*
X104292857Y-100407142D01*
X104207142Y-100364285D01*
X104164285Y-100321428D01*
X104121428Y-100235714D01*
X104121428Y-100064285D01*
X104164285Y-99978571D01*
X104207142Y-99935714D01*
X104292857Y-99892857D01*
X103350000Y-99507142D02*
X103521428Y-99507142D01*
X103607142Y-99550000D01*
X103650000Y-99592857D01*
X103735714Y-99721428D01*
X103778571Y-99892857D01*
X103778571Y-100235714D01*
X103735714Y-100321428D01*
X103692857Y-100364285D01*
X103607142Y-100407142D01*
X103435714Y-100407142D01*
X103350000Y-100364285D01*
X103307142Y-100321428D01*
X103264285Y-100235714D01*
X103264285Y-100021428D01*
X103307142Y-99935714D01*
X103350000Y-99892857D01*
X103435714Y-99850000D01*
X103607142Y-99850000D01*
X103692857Y-99892857D01*
X103735714Y-99935714D01*
X103778571Y-100021428D01*
X102450000Y-99507142D02*
X102878571Y-99507142D01*
X102921428Y-99935714D01*
X102878571Y-99892857D01*
X102792857Y-99850000D01*
X102578571Y-99850000D01*
X102492857Y-99892857D01*
X102450000Y-99935714D01*
X102407142Y-100021428D01*
X102407142Y-100235714D01*
X102450000Y-100321428D01*
X102492857Y-100364285D01*
X102578571Y-100407142D01*
X102792857Y-100407142D01*
X102878571Y-100364285D01*
X102921428Y-100321428D01*
X101850000Y-99507142D02*
X101764285Y-99507142D01*
X101678571Y-99550000D01*
X101635714Y-99592857D01*
X101592857Y-99678571D01*
X101550000Y-99850000D01*
X101550000Y-100064285D01*
X101592857Y-100235714D01*
X101635714Y-100321428D01*
X101678571Y-100364285D01*
X101764285Y-100407142D01*
X101850000Y-100407142D01*
X101935714Y-100364285D01*
X101978571Y-100321428D01*
X102021428Y-100235714D01*
X102064285Y-100064285D01*
X102064285Y-99850000D01*
X102021428Y-99678571D01*
X101978571Y-99592857D01*
X101935714Y-99550000D01*
X101850000Y-99507142D01*
X100178571Y-99935714D02*
X100050000Y-99978571D01*
X100007142Y-100021428D01*
X99964285Y-100107142D01*
X99964285Y-100235714D01*
X100007142Y-100321428D01*
X100050000Y-100364285D01*
X100135714Y-100407142D01*
X100478571Y-100407142D01*
X100478571Y-99507142D01*
X100178571Y-99507142D01*
X100092857Y-99550000D01*
X100050000Y-99592857D01*
X100007142Y-99678571D01*
X100007142Y-99764285D01*
X100050000Y-99850000D01*
X100092857Y-99892857D01*
X100178571Y-99935714D01*
X100478571Y-99935714D01*
X99192857Y-100407142D02*
X99192857Y-99935714D01*
X99235714Y-99850000D01*
X99321428Y-99807142D01*
X99492857Y-99807142D01*
X99578571Y-99850000D01*
X99192857Y-100364285D02*
X99278571Y-100407142D01*
X99492857Y-100407142D01*
X99578571Y-100364285D01*
X99621428Y-100278571D01*
X99621428Y-100192857D01*
X99578571Y-100107142D01*
X99492857Y-100064285D01*
X99278571Y-100064285D01*
X99192857Y-100021428D01*
X98892857Y-99807142D02*
X98550000Y-99807142D01*
X98764285Y-99507142D02*
X98764285Y-100278571D01*
X98721428Y-100364285D01*
X98635714Y-100407142D01*
X98550000Y-100407142D01*
X98378571Y-99807142D02*
X98035714Y-99807142D01*
X98250000Y-99507142D02*
X98250000Y-100278571D01*
X98207142Y-100364285D01*
X98121428Y-100407142D01*
X98035714Y-100407142D01*
X97392857Y-100364285D02*
X97478571Y-100407142D01*
X97650000Y-100407142D01*
X97735714Y-100364285D01*
X97778571Y-100278571D01*
X97778571Y-99935714D01*
X97735714Y-99850000D01*
X97650000Y-99807142D01*
X97478571Y-99807142D01*
X97392857Y-99850000D01*
X97350000Y-99935714D01*
X97350000Y-100021428D01*
X97778571Y-100107142D01*
X96964285Y-100407142D02*
X96964285Y-99807142D01*
X96964285Y-99978571D02*
X96921428Y-99892857D01*
X96878571Y-99850000D01*
X96792857Y-99807142D01*
X96707142Y-99807142D01*
X96492857Y-99807142D02*
X96278571Y-100407142D01*
X96064285Y-99807142D02*
X96278571Y-100407142D01*
X96364285Y-100621428D01*
X96407142Y-100664285D01*
X96492857Y-100707142D01*
D15*
G36*
X88263470Y-106982487D02*
G01*
X88282421Y-107778444D01*
X86511530Y-107767513D01*
X86492579Y-106971556D01*
X88263470Y-106982487D01*
X88263470Y-106982487D01*
G37*
X88263470Y-106982487D02*
X88282421Y-107778444D01*
X86511530Y-107767513D01*
X86492579Y-106971556D01*
X88263470Y-106982487D01*
G36*
X85398000Y-107773000D02*
G01*
X83902000Y-107773000D01*
X83902000Y-106977000D01*
X85398000Y-106977000D01*
X85398000Y-107773000D01*
X85398000Y-107773000D01*
G37*
X85398000Y-107773000D02*
X83902000Y-107773000D01*
X83902000Y-106977000D01*
X85398000Y-106977000D01*
X85398000Y-107773000D01*
%LPC*%
D10*
X87707142Y-107639285D02*
X87735714Y-107667857D01*
X87821428Y-107696428D01*
X87878571Y-107696428D01*
X87964285Y-107667857D01*
X88021428Y-107610714D01*
X88050000Y-107553571D01*
X88078571Y-107439285D01*
X88078571Y-107353571D01*
X88050000Y-107239285D01*
X88021428Y-107182142D01*
X87964285Y-107125000D01*
X87878571Y-107096428D01*
X87821428Y-107096428D01*
X87735714Y-107125000D01*
X87707142Y-107153571D01*
X87164285Y-107696428D02*
X87450000Y-107696428D01*
X87450000Y-107096428D01*
X86964285Y-107696428D02*
X86964285Y-107096428D01*
X86621428Y-107696428D02*
X86878571Y-107353571D01*
X86621428Y-107096428D02*
X86964285Y-107439285D01*
X85264285Y-107696428D02*
X85264285Y-107096428D01*
X85121428Y-107096428D01*
X85035714Y-107125000D01*
X84978571Y-107182142D01*
X84950000Y-107239285D01*
X84921428Y-107353571D01*
X84921428Y-107439285D01*
X84950000Y-107553571D01*
X84978571Y-107610714D01*
X85035714Y-107667857D01*
X85121428Y-107696428D01*
X85264285Y-107696428D01*
X84664285Y-107696428D02*
X84664285Y-107096428D01*
X84264285Y-107096428D02*
X84150000Y-107096428D01*
X84092857Y-107125000D01*
X84035714Y-107182142D01*
X84007142Y-107296428D01*
X84007142Y-107496428D01*
X84035714Y-107610714D01*
X84092857Y-107667857D01*
X84150000Y-107696428D01*
X84264285Y-107696428D01*
X84321428Y-107667857D01*
X84378571Y-107610714D01*
X84407142Y-107496428D01*
X84407142Y-107296428D01*
X84378571Y-107182142D01*
X84321428Y-107125000D01*
X84264285Y-107096428D01*
D16*
X75200000Y-97460000D03*
X75200000Y-102540000D03*
X126400000Y-97460000D03*
X126400000Y-102540000D03*
X134020000Y-100000000D03*
X67580000Y-100000000D03*
D17*
X97460000Y-105610000D03*
X94920000Y-105610000D03*
X92380000Y-105610000D03*
X89840000Y-105610000D03*
X87300000Y-105610000D03*
X84760000Y-105610000D03*
X82220000Y-105610000D03*
D18*
X79680000Y-105610000D03*
X112690000Y-105610000D03*
D17*
X115230000Y-105610000D03*
X117770000Y-105610000D03*
X120310000Y-105610000D03*
D19*
X59885000Y-102705000D03*
X59885000Y-97245000D03*
D20*
X62885000Y-102395000D03*
X62885000Y-97555000D03*
D21*
X139150000Y-102675000D03*
X139150000Y-97375000D03*
D18*
X120300000Y-95450000D03*
D17*
X117760000Y-95450000D03*
X115220000Y-95450000D03*
X112680000Y-95450000D03*
X110140000Y-95450000D03*
D18*
X79660000Y-95440000D03*
D17*
X82200000Y-95440000D03*
X84740000Y-95440000D03*
X87280000Y-95440000D03*
X89820000Y-95440000D03*
M02*
