M48
; DRILL file {KiCad (5.1.4-0-10_14)} date Friday, October 04, 2019 at 05:46:19 PM
; FORMAT={-:-/ absolute / metric / decimal}
; #@! TF.CreationDate,2019-10-04T17:46:19-07:00
; #@! TF.GenerationSoftware,Kicad,Pcbnew,(5.1.4-0-10_14)
FMAT,2
METRIC
T1C0.254
T2C0.650
T3C0.700
T4C1.000
T5C1.200
T6C1.830
%
G90
G05
T1
X64.44Y-106.33
X64.775Y-99.094
X64.775Y-99.806
X80.495Y-101.823
X82.5Y-94.1
X84.625Y-98.775
X88.95Y-99.094
X88.95Y-99.806
X91.45Y-95.125
X91.45Y-96.625
X93.738Y-101.414
X93.85Y-100.6
X94.2Y-97.45
X94.35Y-98.25
X96.0Y-95.7
X97.15Y-95.8
X97.475Y-99.55
X98.0Y-95.65
X98.8Y-93.325
X98.925Y-104.15
X99.625Y-97.475
X99.75Y-96.675
X99.875Y-95.975
X100.3Y-94.4
X101.75Y-106.975
X102.05Y-104.225
X102.35Y-96.35
X104.25Y-95.3
X106.025Y-95.625
X107.15Y-95.95
X109.775Y-100.675
X109.8Y-93.825
X113.225Y-101.175
X113.85Y-93.85
X116.9Y-101.7
X117.425Y-93.875
X118.825Y-102.35
X131.15Y-95.2
X134.475Y-98.1
X136.125Y-106.175
X153.05Y-102.85
T4
X110.14Y-95.45
X112.68Y-95.45
X115.22Y-95.45
X117.76Y-95.45
X120.3Y-95.45
X112.69Y-105.61
X115.23Y-105.61
X117.77Y-105.61
X120.31Y-105.61
X79.68Y-105.61
X82.22Y-105.61
X84.76Y-105.61
X87.3Y-105.61
X89.84Y-105.61
X92.38Y-105.61
X94.92Y-105.61
X97.46Y-105.61
X79.66Y-95.44
X82.2Y-95.44
X84.74Y-95.44
X87.28Y-95.44
X89.82Y-95.44
T5
X138.1Y-97.35
X138.1Y-102.65
T6
X67.28Y-100.0
X74.9Y-97.46
X74.9Y-102.54
X125.1Y-97.46
X125.1Y-102.54
X132.72Y-100.0
T2
G00X62.685Y-97.555
M15
G01X63.085Y-97.555
M16
G05
G00X62.685Y-102.395
M15
G01X63.085Y-102.395
M16
G05
T3
G00X59.635Y-97.245
M15
G01X60.135Y-97.245
M16
G05
G00X59.635Y-102.705
M15
G01X60.135Y-102.705
M16
G05
T0
M30
