G04 #@! TF.GenerationSoftware,KiCad,Pcbnew,(5.1.4-0-10_14)*
G04 #@! TF.CreationDate,2019-09-20T09:10:15-07:00*
G04 #@! TF.ProjectId,STM32L0xx_18650,53544d33-324c-4307-9878-5f3138363530,rev?*
G04 #@! TF.SameCoordinates,Original*
G04 #@! TF.FileFunction,Soldermask,Top*
G04 #@! TF.FilePolarity,Negative*
%FSLAX46Y46*%
G04 Gerber Fmt 4.6, Leading zero omitted, Abs format (unit mm)*
G04 Created by KiCad (PCBNEW (5.1.4-0-10_14)) date 2019-09-20 09:10:15*
%MOMM*%
%LPD*%
G04 APERTURE LIST*
%ADD10C,2.901600*%
%ADD11C,0.100000*%
%ADD12C,0.976600*%
%ADD13R,1.201600X0.351600*%
%ADD14C,0.601600*%
%ADD15R,2.601600X4.501600*%
%ADD16O,1.801600X1.451600*%
%ADD17O,1.601600X1.201600*%
%ADD18R,1.751600X0.501600*%
%ADD19R,1.601600X2.101600*%
%ADD20C,2.501600*%
%ADD21R,1.701600X2.281600*%
%ADD22R,1.101600X1.101600*%
%ADD23O,1.101600X1.101600*%
%ADD24R,1.901600X1.101600*%
%ADD25O,1.801600X1.801600*%
%ADD26R,1.801600X1.801600*%
%ADD27C,0.951600*%
%ADD28R,0.901600X1.001600*%
G04 APERTURE END LIST*
D10*
X74900000Y-97460000D03*
X74900000Y-102540000D03*
X125100000Y-97460000D03*
X125100000Y-102540000D03*
X132720000Y-100000000D03*
X67280000Y-100000000D03*
D11*
G36*
X81180581Y-97725376D02*
G01*
X81204281Y-97728891D01*
X81227523Y-97734713D01*
X81250082Y-97742785D01*
X81271742Y-97753029D01*
X81292292Y-97765347D01*
X81311537Y-97779619D01*
X81329290Y-97795710D01*
X81345381Y-97813463D01*
X81359653Y-97832708D01*
X81371971Y-97853258D01*
X81382215Y-97874918D01*
X81390287Y-97897477D01*
X81396109Y-97920719D01*
X81399624Y-97944419D01*
X81400800Y-97968350D01*
X81400800Y-98531650D01*
X81399624Y-98555581D01*
X81396109Y-98579281D01*
X81390287Y-98602523D01*
X81382215Y-98625082D01*
X81371971Y-98646742D01*
X81359653Y-98667292D01*
X81345381Y-98686537D01*
X81329290Y-98704290D01*
X81311537Y-98720381D01*
X81292292Y-98734653D01*
X81271742Y-98746971D01*
X81250082Y-98757215D01*
X81227523Y-98765287D01*
X81204281Y-98771109D01*
X81180581Y-98774624D01*
X81156650Y-98775800D01*
X80668350Y-98775800D01*
X80644419Y-98774624D01*
X80620719Y-98771109D01*
X80597477Y-98765287D01*
X80574918Y-98757215D01*
X80553258Y-98746971D01*
X80532708Y-98734653D01*
X80513463Y-98720381D01*
X80495710Y-98704290D01*
X80479619Y-98686537D01*
X80465347Y-98667292D01*
X80453029Y-98646742D01*
X80442785Y-98625082D01*
X80434713Y-98602523D01*
X80428891Y-98579281D01*
X80425376Y-98555581D01*
X80424200Y-98531650D01*
X80424200Y-97968350D01*
X80425376Y-97944419D01*
X80428891Y-97920719D01*
X80434713Y-97897477D01*
X80442785Y-97874918D01*
X80453029Y-97853258D01*
X80465347Y-97832708D01*
X80479619Y-97813463D01*
X80495710Y-97795710D01*
X80513463Y-97779619D01*
X80532708Y-97765347D01*
X80553258Y-97753029D01*
X80574918Y-97742785D01*
X80597477Y-97734713D01*
X80620719Y-97728891D01*
X80644419Y-97725376D01*
X80668350Y-97724200D01*
X81156650Y-97724200D01*
X81180581Y-97725376D01*
X81180581Y-97725376D01*
G37*
D12*
X80912500Y-98250000D03*
D11*
G36*
X79605581Y-97725376D02*
G01*
X79629281Y-97728891D01*
X79652523Y-97734713D01*
X79675082Y-97742785D01*
X79696742Y-97753029D01*
X79717292Y-97765347D01*
X79736537Y-97779619D01*
X79754290Y-97795710D01*
X79770381Y-97813463D01*
X79784653Y-97832708D01*
X79796971Y-97853258D01*
X79807215Y-97874918D01*
X79815287Y-97897477D01*
X79821109Y-97920719D01*
X79824624Y-97944419D01*
X79825800Y-97968350D01*
X79825800Y-98531650D01*
X79824624Y-98555581D01*
X79821109Y-98579281D01*
X79815287Y-98602523D01*
X79807215Y-98625082D01*
X79796971Y-98646742D01*
X79784653Y-98667292D01*
X79770381Y-98686537D01*
X79754290Y-98704290D01*
X79736537Y-98720381D01*
X79717292Y-98734653D01*
X79696742Y-98746971D01*
X79675082Y-98757215D01*
X79652523Y-98765287D01*
X79629281Y-98771109D01*
X79605581Y-98774624D01*
X79581650Y-98775800D01*
X79093350Y-98775800D01*
X79069419Y-98774624D01*
X79045719Y-98771109D01*
X79022477Y-98765287D01*
X78999918Y-98757215D01*
X78978258Y-98746971D01*
X78957708Y-98734653D01*
X78938463Y-98720381D01*
X78920710Y-98704290D01*
X78904619Y-98686537D01*
X78890347Y-98667292D01*
X78878029Y-98646742D01*
X78867785Y-98625082D01*
X78859713Y-98602523D01*
X78853891Y-98579281D01*
X78850376Y-98555581D01*
X78849200Y-98531650D01*
X78849200Y-97968350D01*
X78850376Y-97944419D01*
X78853891Y-97920719D01*
X78859713Y-97897477D01*
X78867785Y-97874918D01*
X78878029Y-97853258D01*
X78890347Y-97832708D01*
X78904619Y-97813463D01*
X78920710Y-97795710D01*
X78938463Y-97779619D01*
X78957708Y-97765347D01*
X78978258Y-97753029D01*
X78999918Y-97742785D01*
X79022477Y-97734713D01*
X79045719Y-97728891D01*
X79069419Y-97725376D01*
X79093350Y-97724200D01*
X79581650Y-97724200D01*
X79605581Y-97725376D01*
X79605581Y-97725376D01*
G37*
D12*
X79337500Y-98250000D03*
D13*
X83745000Y-99825000D03*
X83745000Y-100325000D03*
X83745000Y-100825000D03*
X83745000Y-101325000D03*
X83745000Y-101825000D03*
X79445000Y-101825000D03*
X79445000Y-101325000D03*
X79445000Y-100825000D03*
X79445000Y-100325000D03*
X79445000Y-99825000D03*
D11*
G36*
X98415142Y-103924924D02*
G01*
X98429742Y-103927090D01*
X98444059Y-103930676D01*
X98457956Y-103935649D01*
X98471298Y-103941959D01*
X98483958Y-103949547D01*
X98495813Y-103958339D01*
X98506749Y-103968251D01*
X98516661Y-103979187D01*
X98525453Y-103991042D01*
X98533041Y-104003702D01*
X98539351Y-104017044D01*
X98544324Y-104030941D01*
X98547910Y-104045258D01*
X98550076Y-104059858D01*
X98550800Y-104074600D01*
X98550800Y-105375400D01*
X98550076Y-105390142D01*
X98547910Y-105404742D01*
X98544324Y-105419059D01*
X98539351Y-105432956D01*
X98533041Y-105446298D01*
X98525453Y-105458958D01*
X98516661Y-105470813D01*
X98506749Y-105481749D01*
X98495813Y-105491661D01*
X98483958Y-105500453D01*
X98471298Y-105508041D01*
X98457956Y-105514351D01*
X98444059Y-105519324D01*
X98429742Y-105522910D01*
X98415142Y-105525076D01*
X98400400Y-105525800D01*
X98099600Y-105525800D01*
X98084858Y-105525076D01*
X98070258Y-105522910D01*
X98055941Y-105519324D01*
X98042044Y-105514351D01*
X98028702Y-105508041D01*
X98016042Y-105500453D01*
X98004187Y-105491661D01*
X97993251Y-105481749D01*
X97983339Y-105470813D01*
X97974547Y-105458958D01*
X97966959Y-105446298D01*
X97960649Y-105432956D01*
X97955676Y-105419059D01*
X97952090Y-105404742D01*
X97949924Y-105390142D01*
X97949200Y-105375400D01*
X97949200Y-104074600D01*
X97949924Y-104059858D01*
X97952090Y-104045258D01*
X97955676Y-104030941D01*
X97960649Y-104017044D01*
X97966959Y-104003702D01*
X97974547Y-103991042D01*
X97983339Y-103979187D01*
X97993251Y-103968251D01*
X98004187Y-103958339D01*
X98016042Y-103949547D01*
X98028702Y-103941959D01*
X98042044Y-103935649D01*
X98055941Y-103930676D01*
X98070258Y-103927090D01*
X98084858Y-103924924D01*
X98099600Y-103924200D01*
X98400400Y-103924200D01*
X98415142Y-103924924D01*
X98415142Y-103924924D01*
G37*
D14*
X98250000Y-104725000D03*
D11*
G36*
X97615142Y-103924924D02*
G01*
X97629742Y-103927090D01*
X97644059Y-103930676D01*
X97657956Y-103935649D01*
X97671298Y-103941959D01*
X97683958Y-103949547D01*
X97695813Y-103958339D01*
X97706749Y-103968251D01*
X97716661Y-103979187D01*
X97725453Y-103991042D01*
X97733041Y-104003702D01*
X97739351Y-104017044D01*
X97744324Y-104030941D01*
X97747910Y-104045258D01*
X97750076Y-104059858D01*
X97750800Y-104074600D01*
X97750800Y-105375400D01*
X97750076Y-105390142D01*
X97747910Y-105404742D01*
X97744324Y-105419059D01*
X97739351Y-105432956D01*
X97733041Y-105446298D01*
X97725453Y-105458958D01*
X97716661Y-105470813D01*
X97706749Y-105481749D01*
X97695813Y-105491661D01*
X97683958Y-105500453D01*
X97671298Y-105508041D01*
X97657956Y-105514351D01*
X97644059Y-105519324D01*
X97629742Y-105522910D01*
X97615142Y-105525076D01*
X97600400Y-105525800D01*
X97299600Y-105525800D01*
X97284858Y-105525076D01*
X97270258Y-105522910D01*
X97255941Y-105519324D01*
X97242044Y-105514351D01*
X97228702Y-105508041D01*
X97216042Y-105500453D01*
X97204187Y-105491661D01*
X97193251Y-105481749D01*
X97183339Y-105470813D01*
X97174547Y-105458958D01*
X97166959Y-105446298D01*
X97160649Y-105432956D01*
X97155676Y-105419059D01*
X97152090Y-105404742D01*
X97149924Y-105390142D01*
X97149200Y-105375400D01*
X97149200Y-104074600D01*
X97149924Y-104059858D01*
X97152090Y-104045258D01*
X97155676Y-104030941D01*
X97160649Y-104017044D01*
X97166959Y-104003702D01*
X97174547Y-103991042D01*
X97183339Y-103979187D01*
X97193251Y-103968251D01*
X97204187Y-103958339D01*
X97216042Y-103949547D01*
X97228702Y-103941959D01*
X97242044Y-103935649D01*
X97255941Y-103930676D01*
X97270258Y-103927090D01*
X97284858Y-103924924D01*
X97299600Y-103924200D01*
X97600400Y-103924200D01*
X97615142Y-103924924D01*
X97615142Y-103924924D01*
G37*
D14*
X97450000Y-104725000D03*
D11*
G36*
X96815142Y-103924924D02*
G01*
X96829742Y-103927090D01*
X96844059Y-103930676D01*
X96857956Y-103935649D01*
X96871298Y-103941959D01*
X96883958Y-103949547D01*
X96895813Y-103958339D01*
X96906749Y-103968251D01*
X96916661Y-103979187D01*
X96925453Y-103991042D01*
X96933041Y-104003702D01*
X96939351Y-104017044D01*
X96944324Y-104030941D01*
X96947910Y-104045258D01*
X96950076Y-104059858D01*
X96950800Y-104074600D01*
X96950800Y-105375400D01*
X96950076Y-105390142D01*
X96947910Y-105404742D01*
X96944324Y-105419059D01*
X96939351Y-105432956D01*
X96933041Y-105446298D01*
X96925453Y-105458958D01*
X96916661Y-105470813D01*
X96906749Y-105481749D01*
X96895813Y-105491661D01*
X96883958Y-105500453D01*
X96871298Y-105508041D01*
X96857956Y-105514351D01*
X96844059Y-105519324D01*
X96829742Y-105522910D01*
X96815142Y-105525076D01*
X96800400Y-105525800D01*
X96499600Y-105525800D01*
X96484858Y-105525076D01*
X96470258Y-105522910D01*
X96455941Y-105519324D01*
X96442044Y-105514351D01*
X96428702Y-105508041D01*
X96416042Y-105500453D01*
X96404187Y-105491661D01*
X96393251Y-105481749D01*
X96383339Y-105470813D01*
X96374547Y-105458958D01*
X96366959Y-105446298D01*
X96360649Y-105432956D01*
X96355676Y-105419059D01*
X96352090Y-105404742D01*
X96349924Y-105390142D01*
X96349200Y-105375400D01*
X96349200Y-104074600D01*
X96349924Y-104059858D01*
X96352090Y-104045258D01*
X96355676Y-104030941D01*
X96360649Y-104017044D01*
X96366959Y-104003702D01*
X96374547Y-103991042D01*
X96383339Y-103979187D01*
X96393251Y-103968251D01*
X96404187Y-103958339D01*
X96416042Y-103949547D01*
X96428702Y-103941959D01*
X96442044Y-103935649D01*
X96455941Y-103930676D01*
X96470258Y-103927090D01*
X96484858Y-103924924D01*
X96499600Y-103924200D01*
X96800400Y-103924200D01*
X96815142Y-103924924D01*
X96815142Y-103924924D01*
G37*
D14*
X96650000Y-104725000D03*
D11*
G36*
X96015142Y-103924924D02*
G01*
X96029742Y-103927090D01*
X96044059Y-103930676D01*
X96057956Y-103935649D01*
X96071298Y-103941959D01*
X96083958Y-103949547D01*
X96095813Y-103958339D01*
X96106749Y-103968251D01*
X96116661Y-103979187D01*
X96125453Y-103991042D01*
X96133041Y-104003702D01*
X96139351Y-104017044D01*
X96144324Y-104030941D01*
X96147910Y-104045258D01*
X96150076Y-104059858D01*
X96150800Y-104074600D01*
X96150800Y-105375400D01*
X96150076Y-105390142D01*
X96147910Y-105404742D01*
X96144324Y-105419059D01*
X96139351Y-105432956D01*
X96133041Y-105446298D01*
X96125453Y-105458958D01*
X96116661Y-105470813D01*
X96106749Y-105481749D01*
X96095813Y-105491661D01*
X96083958Y-105500453D01*
X96071298Y-105508041D01*
X96057956Y-105514351D01*
X96044059Y-105519324D01*
X96029742Y-105522910D01*
X96015142Y-105525076D01*
X96000400Y-105525800D01*
X95699600Y-105525800D01*
X95684858Y-105525076D01*
X95670258Y-105522910D01*
X95655941Y-105519324D01*
X95642044Y-105514351D01*
X95628702Y-105508041D01*
X95616042Y-105500453D01*
X95604187Y-105491661D01*
X95593251Y-105481749D01*
X95583339Y-105470813D01*
X95574547Y-105458958D01*
X95566959Y-105446298D01*
X95560649Y-105432956D01*
X95555676Y-105419059D01*
X95552090Y-105404742D01*
X95549924Y-105390142D01*
X95549200Y-105375400D01*
X95549200Y-104074600D01*
X95549924Y-104059858D01*
X95552090Y-104045258D01*
X95555676Y-104030941D01*
X95560649Y-104017044D01*
X95566959Y-104003702D01*
X95574547Y-103991042D01*
X95583339Y-103979187D01*
X95593251Y-103968251D01*
X95604187Y-103958339D01*
X95616042Y-103949547D01*
X95628702Y-103941959D01*
X95642044Y-103935649D01*
X95655941Y-103930676D01*
X95670258Y-103927090D01*
X95684858Y-103924924D01*
X95699600Y-103924200D01*
X96000400Y-103924200D01*
X96015142Y-103924924D01*
X96015142Y-103924924D01*
G37*
D14*
X95850000Y-104725000D03*
D11*
G36*
X95215142Y-103924924D02*
G01*
X95229742Y-103927090D01*
X95244059Y-103930676D01*
X95257956Y-103935649D01*
X95271298Y-103941959D01*
X95283958Y-103949547D01*
X95295813Y-103958339D01*
X95306749Y-103968251D01*
X95316661Y-103979187D01*
X95325453Y-103991042D01*
X95333041Y-104003702D01*
X95339351Y-104017044D01*
X95344324Y-104030941D01*
X95347910Y-104045258D01*
X95350076Y-104059858D01*
X95350800Y-104074600D01*
X95350800Y-105375400D01*
X95350076Y-105390142D01*
X95347910Y-105404742D01*
X95344324Y-105419059D01*
X95339351Y-105432956D01*
X95333041Y-105446298D01*
X95325453Y-105458958D01*
X95316661Y-105470813D01*
X95306749Y-105481749D01*
X95295813Y-105491661D01*
X95283958Y-105500453D01*
X95271298Y-105508041D01*
X95257956Y-105514351D01*
X95244059Y-105519324D01*
X95229742Y-105522910D01*
X95215142Y-105525076D01*
X95200400Y-105525800D01*
X94899600Y-105525800D01*
X94884858Y-105525076D01*
X94870258Y-105522910D01*
X94855941Y-105519324D01*
X94842044Y-105514351D01*
X94828702Y-105508041D01*
X94816042Y-105500453D01*
X94804187Y-105491661D01*
X94793251Y-105481749D01*
X94783339Y-105470813D01*
X94774547Y-105458958D01*
X94766959Y-105446298D01*
X94760649Y-105432956D01*
X94755676Y-105419059D01*
X94752090Y-105404742D01*
X94749924Y-105390142D01*
X94749200Y-105375400D01*
X94749200Y-104074600D01*
X94749924Y-104059858D01*
X94752090Y-104045258D01*
X94755676Y-104030941D01*
X94760649Y-104017044D01*
X94766959Y-104003702D01*
X94774547Y-103991042D01*
X94783339Y-103979187D01*
X94793251Y-103968251D01*
X94804187Y-103958339D01*
X94816042Y-103949547D01*
X94828702Y-103941959D01*
X94842044Y-103935649D01*
X94855941Y-103930676D01*
X94870258Y-103927090D01*
X94884858Y-103924924D01*
X94899600Y-103924200D01*
X95200400Y-103924200D01*
X95215142Y-103924924D01*
X95215142Y-103924924D01*
G37*
D14*
X95050000Y-104725000D03*
D11*
G36*
X94415142Y-103924924D02*
G01*
X94429742Y-103927090D01*
X94444059Y-103930676D01*
X94457956Y-103935649D01*
X94471298Y-103941959D01*
X94483958Y-103949547D01*
X94495813Y-103958339D01*
X94506749Y-103968251D01*
X94516661Y-103979187D01*
X94525453Y-103991042D01*
X94533041Y-104003702D01*
X94539351Y-104017044D01*
X94544324Y-104030941D01*
X94547910Y-104045258D01*
X94550076Y-104059858D01*
X94550800Y-104074600D01*
X94550800Y-105375400D01*
X94550076Y-105390142D01*
X94547910Y-105404742D01*
X94544324Y-105419059D01*
X94539351Y-105432956D01*
X94533041Y-105446298D01*
X94525453Y-105458958D01*
X94516661Y-105470813D01*
X94506749Y-105481749D01*
X94495813Y-105491661D01*
X94483958Y-105500453D01*
X94471298Y-105508041D01*
X94457956Y-105514351D01*
X94444059Y-105519324D01*
X94429742Y-105522910D01*
X94415142Y-105525076D01*
X94400400Y-105525800D01*
X94099600Y-105525800D01*
X94084858Y-105525076D01*
X94070258Y-105522910D01*
X94055941Y-105519324D01*
X94042044Y-105514351D01*
X94028702Y-105508041D01*
X94016042Y-105500453D01*
X94004187Y-105491661D01*
X93993251Y-105481749D01*
X93983339Y-105470813D01*
X93974547Y-105458958D01*
X93966959Y-105446298D01*
X93960649Y-105432956D01*
X93955676Y-105419059D01*
X93952090Y-105404742D01*
X93949924Y-105390142D01*
X93949200Y-105375400D01*
X93949200Y-104074600D01*
X93949924Y-104059858D01*
X93952090Y-104045258D01*
X93955676Y-104030941D01*
X93960649Y-104017044D01*
X93966959Y-104003702D01*
X93974547Y-103991042D01*
X93983339Y-103979187D01*
X93993251Y-103968251D01*
X94004187Y-103958339D01*
X94016042Y-103949547D01*
X94028702Y-103941959D01*
X94042044Y-103935649D01*
X94055941Y-103930676D01*
X94070258Y-103927090D01*
X94084858Y-103924924D01*
X94099600Y-103924200D01*
X94400400Y-103924200D01*
X94415142Y-103924924D01*
X94415142Y-103924924D01*
G37*
D14*
X94250000Y-104725000D03*
D11*
G36*
X93615142Y-103924924D02*
G01*
X93629742Y-103927090D01*
X93644059Y-103930676D01*
X93657956Y-103935649D01*
X93671298Y-103941959D01*
X93683958Y-103949547D01*
X93695813Y-103958339D01*
X93706749Y-103968251D01*
X93716661Y-103979187D01*
X93725453Y-103991042D01*
X93733041Y-104003702D01*
X93739351Y-104017044D01*
X93744324Y-104030941D01*
X93747910Y-104045258D01*
X93750076Y-104059858D01*
X93750800Y-104074600D01*
X93750800Y-105375400D01*
X93750076Y-105390142D01*
X93747910Y-105404742D01*
X93744324Y-105419059D01*
X93739351Y-105432956D01*
X93733041Y-105446298D01*
X93725453Y-105458958D01*
X93716661Y-105470813D01*
X93706749Y-105481749D01*
X93695813Y-105491661D01*
X93683958Y-105500453D01*
X93671298Y-105508041D01*
X93657956Y-105514351D01*
X93644059Y-105519324D01*
X93629742Y-105522910D01*
X93615142Y-105525076D01*
X93600400Y-105525800D01*
X93299600Y-105525800D01*
X93284858Y-105525076D01*
X93270258Y-105522910D01*
X93255941Y-105519324D01*
X93242044Y-105514351D01*
X93228702Y-105508041D01*
X93216042Y-105500453D01*
X93204187Y-105491661D01*
X93193251Y-105481749D01*
X93183339Y-105470813D01*
X93174547Y-105458958D01*
X93166959Y-105446298D01*
X93160649Y-105432956D01*
X93155676Y-105419059D01*
X93152090Y-105404742D01*
X93149924Y-105390142D01*
X93149200Y-105375400D01*
X93149200Y-104074600D01*
X93149924Y-104059858D01*
X93152090Y-104045258D01*
X93155676Y-104030941D01*
X93160649Y-104017044D01*
X93166959Y-104003702D01*
X93174547Y-103991042D01*
X93183339Y-103979187D01*
X93193251Y-103968251D01*
X93204187Y-103958339D01*
X93216042Y-103949547D01*
X93228702Y-103941959D01*
X93242044Y-103935649D01*
X93255941Y-103930676D01*
X93270258Y-103927090D01*
X93284858Y-103924924D01*
X93299600Y-103924200D01*
X93600400Y-103924200D01*
X93615142Y-103924924D01*
X93615142Y-103924924D01*
G37*
D14*
X93450000Y-104725000D03*
D11*
G36*
X92815142Y-103924924D02*
G01*
X92829742Y-103927090D01*
X92844059Y-103930676D01*
X92857956Y-103935649D01*
X92871298Y-103941959D01*
X92883958Y-103949547D01*
X92895813Y-103958339D01*
X92906749Y-103968251D01*
X92916661Y-103979187D01*
X92925453Y-103991042D01*
X92933041Y-104003702D01*
X92939351Y-104017044D01*
X92944324Y-104030941D01*
X92947910Y-104045258D01*
X92950076Y-104059858D01*
X92950800Y-104074600D01*
X92950800Y-105375400D01*
X92950076Y-105390142D01*
X92947910Y-105404742D01*
X92944324Y-105419059D01*
X92939351Y-105432956D01*
X92933041Y-105446298D01*
X92925453Y-105458958D01*
X92916661Y-105470813D01*
X92906749Y-105481749D01*
X92895813Y-105491661D01*
X92883958Y-105500453D01*
X92871298Y-105508041D01*
X92857956Y-105514351D01*
X92844059Y-105519324D01*
X92829742Y-105522910D01*
X92815142Y-105525076D01*
X92800400Y-105525800D01*
X92499600Y-105525800D01*
X92484858Y-105525076D01*
X92470258Y-105522910D01*
X92455941Y-105519324D01*
X92442044Y-105514351D01*
X92428702Y-105508041D01*
X92416042Y-105500453D01*
X92404187Y-105491661D01*
X92393251Y-105481749D01*
X92383339Y-105470813D01*
X92374547Y-105458958D01*
X92366959Y-105446298D01*
X92360649Y-105432956D01*
X92355676Y-105419059D01*
X92352090Y-105404742D01*
X92349924Y-105390142D01*
X92349200Y-105375400D01*
X92349200Y-104074600D01*
X92349924Y-104059858D01*
X92352090Y-104045258D01*
X92355676Y-104030941D01*
X92360649Y-104017044D01*
X92366959Y-104003702D01*
X92374547Y-103991042D01*
X92383339Y-103979187D01*
X92393251Y-103968251D01*
X92404187Y-103958339D01*
X92416042Y-103949547D01*
X92428702Y-103941959D01*
X92442044Y-103935649D01*
X92455941Y-103930676D01*
X92470258Y-103927090D01*
X92484858Y-103924924D01*
X92499600Y-103924200D01*
X92800400Y-103924200D01*
X92815142Y-103924924D01*
X92815142Y-103924924D01*
G37*
D14*
X92650000Y-104725000D03*
D11*
G36*
X91940142Y-103049924D02*
G01*
X91954742Y-103052090D01*
X91969059Y-103055676D01*
X91982956Y-103060649D01*
X91996298Y-103066959D01*
X92008958Y-103074547D01*
X92020813Y-103083339D01*
X92031749Y-103093251D01*
X92041661Y-103104187D01*
X92050453Y-103116042D01*
X92058041Y-103128702D01*
X92064351Y-103142044D01*
X92069324Y-103155941D01*
X92072910Y-103170258D01*
X92075076Y-103184858D01*
X92075800Y-103199600D01*
X92075800Y-103500400D01*
X92075076Y-103515142D01*
X92072910Y-103529742D01*
X92069324Y-103544059D01*
X92064351Y-103557956D01*
X92058041Y-103571298D01*
X92050453Y-103583958D01*
X92041661Y-103595813D01*
X92031749Y-103606749D01*
X92020813Y-103616661D01*
X92008958Y-103625453D01*
X91996298Y-103633041D01*
X91982956Y-103639351D01*
X91969059Y-103644324D01*
X91954742Y-103647910D01*
X91940142Y-103650076D01*
X91925400Y-103650800D01*
X90624600Y-103650800D01*
X90609858Y-103650076D01*
X90595258Y-103647910D01*
X90580941Y-103644324D01*
X90567044Y-103639351D01*
X90553702Y-103633041D01*
X90541042Y-103625453D01*
X90529187Y-103616661D01*
X90518251Y-103606749D01*
X90508339Y-103595813D01*
X90499547Y-103583958D01*
X90491959Y-103571298D01*
X90485649Y-103557956D01*
X90480676Y-103544059D01*
X90477090Y-103529742D01*
X90474924Y-103515142D01*
X90474200Y-103500400D01*
X90474200Y-103199600D01*
X90474924Y-103184858D01*
X90477090Y-103170258D01*
X90480676Y-103155941D01*
X90485649Y-103142044D01*
X90491959Y-103128702D01*
X90499547Y-103116042D01*
X90508339Y-103104187D01*
X90518251Y-103093251D01*
X90529187Y-103083339D01*
X90541042Y-103074547D01*
X90553702Y-103066959D01*
X90567044Y-103060649D01*
X90580941Y-103055676D01*
X90595258Y-103052090D01*
X90609858Y-103049924D01*
X90624600Y-103049200D01*
X91925400Y-103049200D01*
X91940142Y-103049924D01*
X91940142Y-103049924D01*
G37*
D14*
X91275000Y-103350000D03*
D11*
G36*
X91940142Y-102249924D02*
G01*
X91954742Y-102252090D01*
X91969059Y-102255676D01*
X91982956Y-102260649D01*
X91996298Y-102266959D01*
X92008958Y-102274547D01*
X92020813Y-102283339D01*
X92031749Y-102293251D01*
X92041661Y-102304187D01*
X92050453Y-102316042D01*
X92058041Y-102328702D01*
X92064351Y-102342044D01*
X92069324Y-102355941D01*
X92072910Y-102370258D01*
X92075076Y-102384858D01*
X92075800Y-102399600D01*
X92075800Y-102700400D01*
X92075076Y-102715142D01*
X92072910Y-102729742D01*
X92069324Y-102744059D01*
X92064351Y-102757956D01*
X92058041Y-102771298D01*
X92050453Y-102783958D01*
X92041661Y-102795813D01*
X92031749Y-102806749D01*
X92020813Y-102816661D01*
X92008958Y-102825453D01*
X91996298Y-102833041D01*
X91982956Y-102839351D01*
X91969059Y-102844324D01*
X91954742Y-102847910D01*
X91940142Y-102850076D01*
X91925400Y-102850800D01*
X90624600Y-102850800D01*
X90609858Y-102850076D01*
X90595258Y-102847910D01*
X90580941Y-102844324D01*
X90567044Y-102839351D01*
X90553702Y-102833041D01*
X90541042Y-102825453D01*
X90529187Y-102816661D01*
X90518251Y-102806749D01*
X90508339Y-102795813D01*
X90499547Y-102783958D01*
X90491959Y-102771298D01*
X90485649Y-102757956D01*
X90480676Y-102744059D01*
X90477090Y-102729742D01*
X90474924Y-102715142D01*
X90474200Y-102700400D01*
X90474200Y-102399600D01*
X90474924Y-102384858D01*
X90477090Y-102370258D01*
X90480676Y-102355941D01*
X90485649Y-102342044D01*
X90491959Y-102328702D01*
X90499547Y-102316042D01*
X90508339Y-102304187D01*
X90518251Y-102293251D01*
X90529187Y-102283339D01*
X90541042Y-102274547D01*
X90553702Y-102266959D01*
X90567044Y-102260649D01*
X90580941Y-102255676D01*
X90595258Y-102252090D01*
X90609858Y-102249924D01*
X90624600Y-102249200D01*
X91925400Y-102249200D01*
X91940142Y-102249924D01*
X91940142Y-102249924D01*
G37*
D14*
X91275000Y-102550000D03*
D11*
G36*
X91940142Y-101449924D02*
G01*
X91954742Y-101452090D01*
X91969059Y-101455676D01*
X91982956Y-101460649D01*
X91996298Y-101466959D01*
X92008958Y-101474547D01*
X92020813Y-101483339D01*
X92031749Y-101493251D01*
X92041661Y-101504187D01*
X92050453Y-101516042D01*
X92058041Y-101528702D01*
X92064351Y-101542044D01*
X92069324Y-101555941D01*
X92072910Y-101570258D01*
X92075076Y-101584858D01*
X92075800Y-101599600D01*
X92075800Y-101900400D01*
X92075076Y-101915142D01*
X92072910Y-101929742D01*
X92069324Y-101944059D01*
X92064351Y-101957956D01*
X92058041Y-101971298D01*
X92050453Y-101983958D01*
X92041661Y-101995813D01*
X92031749Y-102006749D01*
X92020813Y-102016661D01*
X92008958Y-102025453D01*
X91996298Y-102033041D01*
X91982956Y-102039351D01*
X91969059Y-102044324D01*
X91954742Y-102047910D01*
X91940142Y-102050076D01*
X91925400Y-102050800D01*
X90624600Y-102050800D01*
X90609858Y-102050076D01*
X90595258Y-102047910D01*
X90580941Y-102044324D01*
X90567044Y-102039351D01*
X90553702Y-102033041D01*
X90541042Y-102025453D01*
X90529187Y-102016661D01*
X90518251Y-102006749D01*
X90508339Y-101995813D01*
X90499547Y-101983958D01*
X90491959Y-101971298D01*
X90485649Y-101957956D01*
X90480676Y-101944059D01*
X90477090Y-101929742D01*
X90474924Y-101915142D01*
X90474200Y-101900400D01*
X90474200Y-101599600D01*
X90474924Y-101584858D01*
X90477090Y-101570258D01*
X90480676Y-101555941D01*
X90485649Y-101542044D01*
X90491959Y-101528702D01*
X90499547Y-101516042D01*
X90508339Y-101504187D01*
X90518251Y-101493251D01*
X90529187Y-101483339D01*
X90541042Y-101474547D01*
X90553702Y-101466959D01*
X90567044Y-101460649D01*
X90580941Y-101455676D01*
X90595258Y-101452090D01*
X90609858Y-101449924D01*
X90624600Y-101449200D01*
X91925400Y-101449200D01*
X91940142Y-101449924D01*
X91940142Y-101449924D01*
G37*
D14*
X91275000Y-101750000D03*
D11*
G36*
X91940142Y-100649924D02*
G01*
X91954742Y-100652090D01*
X91969059Y-100655676D01*
X91982956Y-100660649D01*
X91996298Y-100666959D01*
X92008958Y-100674547D01*
X92020813Y-100683339D01*
X92031749Y-100693251D01*
X92041661Y-100704187D01*
X92050453Y-100716042D01*
X92058041Y-100728702D01*
X92064351Y-100742044D01*
X92069324Y-100755941D01*
X92072910Y-100770258D01*
X92075076Y-100784858D01*
X92075800Y-100799600D01*
X92075800Y-101100400D01*
X92075076Y-101115142D01*
X92072910Y-101129742D01*
X92069324Y-101144059D01*
X92064351Y-101157956D01*
X92058041Y-101171298D01*
X92050453Y-101183958D01*
X92041661Y-101195813D01*
X92031749Y-101206749D01*
X92020813Y-101216661D01*
X92008958Y-101225453D01*
X91996298Y-101233041D01*
X91982956Y-101239351D01*
X91969059Y-101244324D01*
X91954742Y-101247910D01*
X91940142Y-101250076D01*
X91925400Y-101250800D01*
X90624600Y-101250800D01*
X90609858Y-101250076D01*
X90595258Y-101247910D01*
X90580941Y-101244324D01*
X90567044Y-101239351D01*
X90553702Y-101233041D01*
X90541042Y-101225453D01*
X90529187Y-101216661D01*
X90518251Y-101206749D01*
X90508339Y-101195813D01*
X90499547Y-101183958D01*
X90491959Y-101171298D01*
X90485649Y-101157956D01*
X90480676Y-101144059D01*
X90477090Y-101129742D01*
X90474924Y-101115142D01*
X90474200Y-101100400D01*
X90474200Y-100799600D01*
X90474924Y-100784858D01*
X90477090Y-100770258D01*
X90480676Y-100755941D01*
X90485649Y-100742044D01*
X90491959Y-100728702D01*
X90499547Y-100716042D01*
X90508339Y-100704187D01*
X90518251Y-100693251D01*
X90529187Y-100683339D01*
X90541042Y-100674547D01*
X90553702Y-100666959D01*
X90567044Y-100660649D01*
X90580941Y-100655676D01*
X90595258Y-100652090D01*
X90609858Y-100649924D01*
X90624600Y-100649200D01*
X91925400Y-100649200D01*
X91940142Y-100649924D01*
X91940142Y-100649924D01*
G37*
D14*
X91275000Y-100950000D03*
D11*
G36*
X91940142Y-99849924D02*
G01*
X91954742Y-99852090D01*
X91969059Y-99855676D01*
X91982956Y-99860649D01*
X91996298Y-99866959D01*
X92008958Y-99874547D01*
X92020813Y-99883339D01*
X92031749Y-99893251D01*
X92041661Y-99904187D01*
X92050453Y-99916042D01*
X92058041Y-99928702D01*
X92064351Y-99942044D01*
X92069324Y-99955941D01*
X92072910Y-99970258D01*
X92075076Y-99984858D01*
X92075800Y-99999600D01*
X92075800Y-100300400D01*
X92075076Y-100315142D01*
X92072910Y-100329742D01*
X92069324Y-100344059D01*
X92064351Y-100357956D01*
X92058041Y-100371298D01*
X92050453Y-100383958D01*
X92041661Y-100395813D01*
X92031749Y-100406749D01*
X92020813Y-100416661D01*
X92008958Y-100425453D01*
X91996298Y-100433041D01*
X91982956Y-100439351D01*
X91969059Y-100444324D01*
X91954742Y-100447910D01*
X91940142Y-100450076D01*
X91925400Y-100450800D01*
X90624600Y-100450800D01*
X90609858Y-100450076D01*
X90595258Y-100447910D01*
X90580941Y-100444324D01*
X90567044Y-100439351D01*
X90553702Y-100433041D01*
X90541042Y-100425453D01*
X90529187Y-100416661D01*
X90518251Y-100406749D01*
X90508339Y-100395813D01*
X90499547Y-100383958D01*
X90491959Y-100371298D01*
X90485649Y-100357956D01*
X90480676Y-100344059D01*
X90477090Y-100329742D01*
X90474924Y-100315142D01*
X90474200Y-100300400D01*
X90474200Y-99999600D01*
X90474924Y-99984858D01*
X90477090Y-99970258D01*
X90480676Y-99955941D01*
X90485649Y-99942044D01*
X90491959Y-99928702D01*
X90499547Y-99916042D01*
X90508339Y-99904187D01*
X90518251Y-99893251D01*
X90529187Y-99883339D01*
X90541042Y-99874547D01*
X90553702Y-99866959D01*
X90567044Y-99860649D01*
X90580941Y-99855676D01*
X90595258Y-99852090D01*
X90609858Y-99849924D01*
X90624600Y-99849200D01*
X91925400Y-99849200D01*
X91940142Y-99849924D01*
X91940142Y-99849924D01*
G37*
D14*
X91275000Y-100150000D03*
D11*
G36*
X91940142Y-99049924D02*
G01*
X91954742Y-99052090D01*
X91969059Y-99055676D01*
X91982956Y-99060649D01*
X91996298Y-99066959D01*
X92008958Y-99074547D01*
X92020813Y-99083339D01*
X92031749Y-99093251D01*
X92041661Y-99104187D01*
X92050453Y-99116042D01*
X92058041Y-99128702D01*
X92064351Y-99142044D01*
X92069324Y-99155941D01*
X92072910Y-99170258D01*
X92075076Y-99184858D01*
X92075800Y-99199600D01*
X92075800Y-99500400D01*
X92075076Y-99515142D01*
X92072910Y-99529742D01*
X92069324Y-99544059D01*
X92064351Y-99557956D01*
X92058041Y-99571298D01*
X92050453Y-99583958D01*
X92041661Y-99595813D01*
X92031749Y-99606749D01*
X92020813Y-99616661D01*
X92008958Y-99625453D01*
X91996298Y-99633041D01*
X91982956Y-99639351D01*
X91969059Y-99644324D01*
X91954742Y-99647910D01*
X91940142Y-99650076D01*
X91925400Y-99650800D01*
X90624600Y-99650800D01*
X90609858Y-99650076D01*
X90595258Y-99647910D01*
X90580941Y-99644324D01*
X90567044Y-99639351D01*
X90553702Y-99633041D01*
X90541042Y-99625453D01*
X90529187Y-99616661D01*
X90518251Y-99606749D01*
X90508339Y-99595813D01*
X90499547Y-99583958D01*
X90491959Y-99571298D01*
X90485649Y-99557956D01*
X90480676Y-99544059D01*
X90477090Y-99529742D01*
X90474924Y-99515142D01*
X90474200Y-99500400D01*
X90474200Y-99199600D01*
X90474924Y-99184858D01*
X90477090Y-99170258D01*
X90480676Y-99155941D01*
X90485649Y-99142044D01*
X90491959Y-99128702D01*
X90499547Y-99116042D01*
X90508339Y-99104187D01*
X90518251Y-99093251D01*
X90529187Y-99083339D01*
X90541042Y-99074547D01*
X90553702Y-99066959D01*
X90567044Y-99060649D01*
X90580941Y-99055676D01*
X90595258Y-99052090D01*
X90609858Y-99049924D01*
X90624600Y-99049200D01*
X91925400Y-99049200D01*
X91940142Y-99049924D01*
X91940142Y-99049924D01*
G37*
D14*
X91275000Y-99350000D03*
D11*
G36*
X91940142Y-98249924D02*
G01*
X91954742Y-98252090D01*
X91969059Y-98255676D01*
X91982956Y-98260649D01*
X91996298Y-98266959D01*
X92008958Y-98274547D01*
X92020813Y-98283339D01*
X92031749Y-98293251D01*
X92041661Y-98304187D01*
X92050453Y-98316042D01*
X92058041Y-98328702D01*
X92064351Y-98342044D01*
X92069324Y-98355941D01*
X92072910Y-98370258D01*
X92075076Y-98384858D01*
X92075800Y-98399600D01*
X92075800Y-98700400D01*
X92075076Y-98715142D01*
X92072910Y-98729742D01*
X92069324Y-98744059D01*
X92064351Y-98757956D01*
X92058041Y-98771298D01*
X92050453Y-98783958D01*
X92041661Y-98795813D01*
X92031749Y-98806749D01*
X92020813Y-98816661D01*
X92008958Y-98825453D01*
X91996298Y-98833041D01*
X91982956Y-98839351D01*
X91969059Y-98844324D01*
X91954742Y-98847910D01*
X91940142Y-98850076D01*
X91925400Y-98850800D01*
X90624600Y-98850800D01*
X90609858Y-98850076D01*
X90595258Y-98847910D01*
X90580941Y-98844324D01*
X90567044Y-98839351D01*
X90553702Y-98833041D01*
X90541042Y-98825453D01*
X90529187Y-98816661D01*
X90518251Y-98806749D01*
X90508339Y-98795813D01*
X90499547Y-98783958D01*
X90491959Y-98771298D01*
X90485649Y-98757956D01*
X90480676Y-98744059D01*
X90477090Y-98729742D01*
X90474924Y-98715142D01*
X90474200Y-98700400D01*
X90474200Y-98399600D01*
X90474924Y-98384858D01*
X90477090Y-98370258D01*
X90480676Y-98355941D01*
X90485649Y-98342044D01*
X90491959Y-98328702D01*
X90499547Y-98316042D01*
X90508339Y-98304187D01*
X90518251Y-98293251D01*
X90529187Y-98283339D01*
X90541042Y-98274547D01*
X90553702Y-98266959D01*
X90567044Y-98260649D01*
X90580941Y-98255676D01*
X90595258Y-98252090D01*
X90609858Y-98249924D01*
X90624600Y-98249200D01*
X91925400Y-98249200D01*
X91940142Y-98249924D01*
X91940142Y-98249924D01*
G37*
D14*
X91275000Y-98550000D03*
D11*
G36*
X91940142Y-97449924D02*
G01*
X91954742Y-97452090D01*
X91969059Y-97455676D01*
X91982956Y-97460649D01*
X91996298Y-97466959D01*
X92008958Y-97474547D01*
X92020813Y-97483339D01*
X92031749Y-97493251D01*
X92041661Y-97504187D01*
X92050453Y-97516042D01*
X92058041Y-97528702D01*
X92064351Y-97542044D01*
X92069324Y-97555941D01*
X92072910Y-97570258D01*
X92075076Y-97584858D01*
X92075800Y-97599600D01*
X92075800Y-97900400D01*
X92075076Y-97915142D01*
X92072910Y-97929742D01*
X92069324Y-97944059D01*
X92064351Y-97957956D01*
X92058041Y-97971298D01*
X92050453Y-97983958D01*
X92041661Y-97995813D01*
X92031749Y-98006749D01*
X92020813Y-98016661D01*
X92008958Y-98025453D01*
X91996298Y-98033041D01*
X91982956Y-98039351D01*
X91969059Y-98044324D01*
X91954742Y-98047910D01*
X91940142Y-98050076D01*
X91925400Y-98050800D01*
X90624600Y-98050800D01*
X90609858Y-98050076D01*
X90595258Y-98047910D01*
X90580941Y-98044324D01*
X90567044Y-98039351D01*
X90553702Y-98033041D01*
X90541042Y-98025453D01*
X90529187Y-98016661D01*
X90518251Y-98006749D01*
X90508339Y-97995813D01*
X90499547Y-97983958D01*
X90491959Y-97971298D01*
X90485649Y-97957956D01*
X90480676Y-97944059D01*
X90477090Y-97929742D01*
X90474924Y-97915142D01*
X90474200Y-97900400D01*
X90474200Y-97599600D01*
X90474924Y-97584858D01*
X90477090Y-97570258D01*
X90480676Y-97555941D01*
X90485649Y-97542044D01*
X90491959Y-97528702D01*
X90499547Y-97516042D01*
X90508339Y-97504187D01*
X90518251Y-97493251D01*
X90529187Y-97483339D01*
X90541042Y-97474547D01*
X90553702Y-97466959D01*
X90567044Y-97460649D01*
X90580941Y-97455676D01*
X90595258Y-97452090D01*
X90609858Y-97449924D01*
X90624600Y-97449200D01*
X91925400Y-97449200D01*
X91940142Y-97449924D01*
X91940142Y-97449924D01*
G37*
D14*
X91275000Y-97750000D03*
D11*
G36*
X92815142Y-95574924D02*
G01*
X92829742Y-95577090D01*
X92844059Y-95580676D01*
X92857956Y-95585649D01*
X92871298Y-95591959D01*
X92883958Y-95599547D01*
X92895813Y-95608339D01*
X92906749Y-95618251D01*
X92916661Y-95629187D01*
X92925453Y-95641042D01*
X92933041Y-95653702D01*
X92939351Y-95667044D01*
X92944324Y-95680941D01*
X92947910Y-95695258D01*
X92950076Y-95709858D01*
X92950800Y-95724600D01*
X92950800Y-97025400D01*
X92950076Y-97040142D01*
X92947910Y-97054742D01*
X92944324Y-97069059D01*
X92939351Y-97082956D01*
X92933041Y-97096298D01*
X92925453Y-97108958D01*
X92916661Y-97120813D01*
X92906749Y-97131749D01*
X92895813Y-97141661D01*
X92883958Y-97150453D01*
X92871298Y-97158041D01*
X92857956Y-97164351D01*
X92844059Y-97169324D01*
X92829742Y-97172910D01*
X92815142Y-97175076D01*
X92800400Y-97175800D01*
X92499600Y-97175800D01*
X92484858Y-97175076D01*
X92470258Y-97172910D01*
X92455941Y-97169324D01*
X92442044Y-97164351D01*
X92428702Y-97158041D01*
X92416042Y-97150453D01*
X92404187Y-97141661D01*
X92393251Y-97131749D01*
X92383339Y-97120813D01*
X92374547Y-97108958D01*
X92366959Y-97096298D01*
X92360649Y-97082956D01*
X92355676Y-97069059D01*
X92352090Y-97054742D01*
X92349924Y-97040142D01*
X92349200Y-97025400D01*
X92349200Y-95724600D01*
X92349924Y-95709858D01*
X92352090Y-95695258D01*
X92355676Y-95680941D01*
X92360649Y-95667044D01*
X92366959Y-95653702D01*
X92374547Y-95641042D01*
X92383339Y-95629187D01*
X92393251Y-95618251D01*
X92404187Y-95608339D01*
X92416042Y-95599547D01*
X92428702Y-95591959D01*
X92442044Y-95585649D01*
X92455941Y-95580676D01*
X92470258Y-95577090D01*
X92484858Y-95574924D01*
X92499600Y-95574200D01*
X92800400Y-95574200D01*
X92815142Y-95574924D01*
X92815142Y-95574924D01*
G37*
D14*
X92650000Y-96375000D03*
D11*
G36*
X93615142Y-95574924D02*
G01*
X93629742Y-95577090D01*
X93644059Y-95580676D01*
X93657956Y-95585649D01*
X93671298Y-95591959D01*
X93683958Y-95599547D01*
X93695813Y-95608339D01*
X93706749Y-95618251D01*
X93716661Y-95629187D01*
X93725453Y-95641042D01*
X93733041Y-95653702D01*
X93739351Y-95667044D01*
X93744324Y-95680941D01*
X93747910Y-95695258D01*
X93750076Y-95709858D01*
X93750800Y-95724600D01*
X93750800Y-97025400D01*
X93750076Y-97040142D01*
X93747910Y-97054742D01*
X93744324Y-97069059D01*
X93739351Y-97082956D01*
X93733041Y-97096298D01*
X93725453Y-97108958D01*
X93716661Y-97120813D01*
X93706749Y-97131749D01*
X93695813Y-97141661D01*
X93683958Y-97150453D01*
X93671298Y-97158041D01*
X93657956Y-97164351D01*
X93644059Y-97169324D01*
X93629742Y-97172910D01*
X93615142Y-97175076D01*
X93600400Y-97175800D01*
X93299600Y-97175800D01*
X93284858Y-97175076D01*
X93270258Y-97172910D01*
X93255941Y-97169324D01*
X93242044Y-97164351D01*
X93228702Y-97158041D01*
X93216042Y-97150453D01*
X93204187Y-97141661D01*
X93193251Y-97131749D01*
X93183339Y-97120813D01*
X93174547Y-97108958D01*
X93166959Y-97096298D01*
X93160649Y-97082956D01*
X93155676Y-97069059D01*
X93152090Y-97054742D01*
X93149924Y-97040142D01*
X93149200Y-97025400D01*
X93149200Y-95724600D01*
X93149924Y-95709858D01*
X93152090Y-95695258D01*
X93155676Y-95680941D01*
X93160649Y-95667044D01*
X93166959Y-95653702D01*
X93174547Y-95641042D01*
X93183339Y-95629187D01*
X93193251Y-95618251D01*
X93204187Y-95608339D01*
X93216042Y-95599547D01*
X93228702Y-95591959D01*
X93242044Y-95585649D01*
X93255941Y-95580676D01*
X93270258Y-95577090D01*
X93284858Y-95574924D01*
X93299600Y-95574200D01*
X93600400Y-95574200D01*
X93615142Y-95574924D01*
X93615142Y-95574924D01*
G37*
D14*
X93450000Y-96375000D03*
D11*
G36*
X94415142Y-95574924D02*
G01*
X94429742Y-95577090D01*
X94444059Y-95580676D01*
X94457956Y-95585649D01*
X94471298Y-95591959D01*
X94483958Y-95599547D01*
X94495813Y-95608339D01*
X94506749Y-95618251D01*
X94516661Y-95629187D01*
X94525453Y-95641042D01*
X94533041Y-95653702D01*
X94539351Y-95667044D01*
X94544324Y-95680941D01*
X94547910Y-95695258D01*
X94550076Y-95709858D01*
X94550800Y-95724600D01*
X94550800Y-97025400D01*
X94550076Y-97040142D01*
X94547910Y-97054742D01*
X94544324Y-97069059D01*
X94539351Y-97082956D01*
X94533041Y-97096298D01*
X94525453Y-97108958D01*
X94516661Y-97120813D01*
X94506749Y-97131749D01*
X94495813Y-97141661D01*
X94483958Y-97150453D01*
X94471298Y-97158041D01*
X94457956Y-97164351D01*
X94444059Y-97169324D01*
X94429742Y-97172910D01*
X94415142Y-97175076D01*
X94400400Y-97175800D01*
X94099600Y-97175800D01*
X94084858Y-97175076D01*
X94070258Y-97172910D01*
X94055941Y-97169324D01*
X94042044Y-97164351D01*
X94028702Y-97158041D01*
X94016042Y-97150453D01*
X94004187Y-97141661D01*
X93993251Y-97131749D01*
X93983339Y-97120813D01*
X93974547Y-97108958D01*
X93966959Y-97096298D01*
X93960649Y-97082956D01*
X93955676Y-97069059D01*
X93952090Y-97054742D01*
X93949924Y-97040142D01*
X93949200Y-97025400D01*
X93949200Y-95724600D01*
X93949924Y-95709858D01*
X93952090Y-95695258D01*
X93955676Y-95680941D01*
X93960649Y-95667044D01*
X93966959Y-95653702D01*
X93974547Y-95641042D01*
X93983339Y-95629187D01*
X93993251Y-95618251D01*
X94004187Y-95608339D01*
X94016042Y-95599547D01*
X94028702Y-95591959D01*
X94042044Y-95585649D01*
X94055941Y-95580676D01*
X94070258Y-95577090D01*
X94084858Y-95574924D01*
X94099600Y-95574200D01*
X94400400Y-95574200D01*
X94415142Y-95574924D01*
X94415142Y-95574924D01*
G37*
D14*
X94250000Y-96375000D03*
D11*
G36*
X95215142Y-95574924D02*
G01*
X95229742Y-95577090D01*
X95244059Y-95580676D01*
X95257956Y-95585649D01*
X95271298Y-95591959D01*
X95283958Y-95599547D01*
X95295813Y-95608339D01*
X95306749Y-95618251D01*
X95316661Y-95629187D01*
X95325453Y-95641042D01*
X95333041Y-95653702D01*
X95339351Y-95667044D01*
X95344324Y-95680941D01*
X95347910Y-95695258D01*
X95350076Y-95709858D01*
X95350800Y-95724600D01*
X95350800Y-97025400D01*
X95350076Y-97040142D01*
X95347910Y-97054742D01*
X95344324Y-97069059D01*
X95339351Y-97082956D01*
X95333041Y-97096298D01*
X95325453Y-97108958D01*
X95316661Y-97120813D01*
X95306749Y-97131749D01*
X95295813Y-97141661D01*
X95283958Y-97150453D01*
X95271298Y-97158041D01*
X95257956Y-97164351D01*
X95244059Y-97169324D01*
X95229742Y-97172910D01*
X95215142Y-97175076D01*
X95200400Y-97175800D01*
X94899600Y-97175800D01*
X94884858Y-97175076D01*
X94870258Y-97172910D01*
X94855941Y-97169324D01*
X94842044Y-97164351D01*
X94828702Y-97158041D01*
X94816042Y-97150453D01*
X94804187Y-97141661D01*
X94793251Y-97131749D01*
X94783339Y-97120813D01*
X94774547Y-97108958D01*
X94766959Y-97096298D01*
X94760649Y-97082956D01*
X94755676Y-97069059D01*
X94752090Y-97054742D01*
X94749924Y-97040142D01*
X94749200Y-97025400D01*
X94749200Y-95724600D01*
X94749924Y-95709858D01*
X94752090Y-95695258D01*
X94755676Y-95680941D01*
X94760649Y-95667044D01*
X94766959Y-95653702D01*
X94774547Y-95641042D01*
X94783339Y-95629187D01*
X94793251Y-95618251D01*
X94804187Y-95608339D01*
X94816042Y-95599547D01*
X94828702Y-95591959D01*
X94842044Y-95585649D01*
X94855941Y-95580676D01*
X94870258Y-95577090D01*
X94884858Y-95574924D01*
X94899600Y-95574200D01*
X95200400Y-95574200D01*
X95215142Y-95574924D01*
X95215142Y-95574924D01*
G37*
D14*
X95050000Y-96375000D03*
D11*
G36*
X96015142Y-95574924D02*
G01*
X96029742Y-95577090D01*
X96044059Y-95580676D01*
X96057956Y-95585649D01*
X96071298Y-95591959D01*
X96083958Y-95599547D01*
X96095813Y-95608339D01*
X96106749Y-95618251D01*
X96116661Y-95629187D01*
X96125453Y-95641042D01*
X96133041Y-95653702D01*
X96139351Y-95667044D01*
X96144324Y-95680941D01*
X96147910Y-95695258D01*
X96150076Y-95709858D01*
X96150800Y-95724600D01*
X96150800Y-97025400D01*
X96150076Y-97040142D01*
X96147910Y-97054742D01*
X96144324Y-97069059D01*
X96139351Y-97082956D01*
X96133041Y-97096298D01*
X96125453Y-97108958D01*
X96116661Y-97120813D01*
X96106749Y-97131749D01*
X96095813Y-97141661D01*
X96083958Y-97150453D01*
X96071298Y-97158041D01*
X96057956Y-97164351D01*
X96044059Y-97169324D01*
X96029742Y-97172910D01*
X96015142Y-97175076D01*
X96000400Y-97175800D01*
X95699600Y-97175800D01*
X95684858Y-97175076D01*
X95670258Y-97172910D01*
X95655941Y-97169324D01*
X95642044Y-97164351D01*
X95628702Y-97158041D01*
X95616042Y-97150453D01*
X95604187Y-97141661D01*
X95593251Y-97131749D01*
X95583339Y-97120813D01*
X95574547Y-97108958D01*
X95566959Y-97096298D01*
X95560649Y-97082956D01*
X95555676Y-97069059D01*
X95552090Y-97054742D01*
X95549924Y-97040142D01*
X95549200Y-97025400D01*
X95549200Y-95724600D01*
X95549924Y-95709858D01*
X95552090Y-95695258D01*
X95555676Y-95680941D01*
X95560649Y-95667044D01*
X95566959Y-95653702D01*
X95574547Y-95641042D01*
X95583339Y-95629187D01*
X95593251Y-95618251D01*
X95604187Y-95608339D01*
X95616042Y-95599547D01*
X95628702Y-95591959D01*
X95642044Y-95585649D01*
X95655941Y-95580676D01*
X95670258Y-95577090D01*
X95684858Y-95574924D01*
X95699600Y-95574200D01*
X96000400Y-95574200D01*
X96015142Y-95574924D01*
X96015142Y-95574924D01*
G37*
D14*
X95850000Y-96375000D03*
D11*
G36*
X96815142Y-95574924D02*
G01*
X96829742Y-95577090D01*
X96844059Y-95580676D01*
X96857956Y-95585649D01*
X96871298Y-95591959D01*
X96883958Y-95599547D01*
X96895813Y-95608339D01*
X96906749Y-95618251D01*
X96916661Y-95629187D01*
X96925453Y-95641042D01*
X96933041Y-95653702D01*
X96939351Y-95667044D01*
X96944324Y-95680941D01*
X96947910Y-95695258D01*
X96950076Y-95709858D01*
X96950800Y-95724600D01*
X96950800Y-97025400D01*
X96950076Y-97040142D01*
X96947910Y-97054742D01*
X96944324Y-97069059D01*
X96939351Y-97082956D01*
X96933041Y-97096298D01*
X96925453Y-97108958D01*
X96916661Y-97120813D01*
X96906749Y-97131749D01*
X96895813Y-97141661D01*
X96883958Y-97150453D01*
X96871298Y-97158041D01*
X96857956Y-97164351D01*
X96844059Y-97169324D01*
X96829742Y-97172910D01*
X96815142Y-97175076D01*
X96800400Y-97175800D01*
X96499600Y-97175800D01*
X96484858Y-97175076D01*
X96470258Y-97172910D01*
X96455941Y-97169324D01*
X96442044Y-97164351D01*
X96428702Y-97158041D01*
X96416042Y-97150453D01*
X96404187Y-97141661D01*
X96393251Y-97131749D01*
X96383339Y-97120813D01*
X96374547Y-97108958D01*
X96366959Y-97096298D01*
X96360649Y-97082956D01*
X96355676Y-97069059D01*
X96352090Y-97054742D01*
X96349924Y-97040142D01*
X96349200Y-97025400D01*
X96349200Y-95724600D01*
X96349924Y-95709858D01*
X96352090Y-95695258D01*
X96355676Y-95680941D01*
X96360649Y-95667044D01*
X96366959Y-95653702D01*
X96374547Y-95641042D01*
X96383339Y-95629187D01*
X96393251Y-95618251D01*
X96404187Y-95608339D01*
X96416042Y-95599547D01*
X96428702Y-95591959D01*
X96442044Y-95585649D01*
X96455941Y-95580676D01*
X96470258Y-95577090D01*
X96484858Y-95574924D01*
X96499600Y-95574200D01*
X96800400Y-95574200D01*
X96815142Y-95574924D01*
X96815142Y-95574924D01*
G37*
D14*
X96650000Y-96375000D03*
D11*
G36*
X97615142Y-95574924D02*
G01*
X97629742Y-95577090D01*
X97644059Y-95580676D01*
X97657956Y-95585649D01*
X97671298Y-95591959D01*
X97683958Y-95599547D01*
X97695813Y-95608339D01*
X97706749Y-95618251D01*
X97716661Y-95629187D01*
X97725453Y-95641042D01*
X97733041Y-95653702D01*
X97739351Y-95667044D01*
X97744324Y-95680941D01*
X97747910Y-95695258D01*
X97750076Y-95709858D01*
X97750800Y-95724600D01*
X97750800Y-97025400D01*
X97750076Y-97040142D01*
X97747910Y-97054742D01*
X97744324Y-97069059D01*
X97739351Y-97082956D01*
X97733041Y-97096298D01*
X97725453Y-97108958D01*
X97716661Y-97120813D01*
X97706749Y-97131749D01*
X97695813Y-97141661D01*
X97683958Y-97150453D01*
X97671298Y-97158041D01*
X97657956Y-97164351D01*
X97644059Y-97169324D01*
X97629742Y-97172910D01*
X97615142Y-97175076D01*
X97600400Y-97175800D01*
X97299600Y-97175800D01*
X97284858Y-97175076D01*
X97270258Y-97172910D01*
X97255941Y-97169324D01*
X97242044Y-97164351D01*
X97228702Y-97158041D01*
X97216042Y-97150453D01*
X97204187Y-97141661D01*
X97193251Y-97131749D01*
X97183339Y-97120813D01*
X97174547Y-97108958D01*
X97166959Y-97096298D01*
X97160649Y-97082956D01*
X97155676Y-97069059D01*
X97152090Y-97054742D01*
X97149924Y-97040142D01*
X97149200Y-97025400D01*
X97149200Y-95724600D01*
X97149924Y-95709858D01*
X97152090Y-95695258D01*
X97155676Y-95680941D01*
X97160649Y-95667044D01*
X97166959Y-95653702D01*
X97174547Y-95641042D01*
X97183339Y-95629187D01*
X97193251Y-95618251D01*
X97204187Y-95608339D01*
X97216042Y-95599547D01*
X97228702Y-95591959D01*
X97242044Y-95585649D01*
X97255941Y-95580676D01*
X97270258Y-95577090D01*
X97284858Y-95574924D01*
X97299600Y-95574200D01*
X97600400Y-95574200D01*
X97615142Y-95574924D01*
X97615142Y-95574924D01*
G37*
D14*
X97450000Y-96375000D03*
D11*
G36*
X98415142Y-95574924D02*
G01*
X98429742Y-95577090D01*
X98444059Y-95580676D01*
X98457956Y-95585649D01*
X98471298Y-95591959D01*
X98483958Y-95599547D01*
X98495813Y-95608339D01*
X98506749Y-95618251D01*
X98516661Y-95629187D01*
X98525453Y-95641042D01*
X98533041Y-95653702D01*
X98539351Y-95667044D01*
X98544324Y-95680941D01*
X98547910Y-95695258D01*
X98550076Y-95709858D01*
X98550800Y-95724600D01*
X98550800Y-97025400D01*
X98550076Y-97040142D01*
X98547910Y-97054742D01*
X98544324Y-97069059D01*
X98539351Y-97082956D01*
X98533041Y-97096298D01*
X98525453Y-97108958D01*
X98516661Y-97120813D01*
X98506749Y-97131749D01*
X98495813Y-97141661D01*
X98483958Y-97150453D01*
X98471298Y-97158041D01*
X98457956Y-97164351D01*
X98444059Y-97169324D01*
X98429742Y-97172910D01*
X98415142Y-97175076D01*
X98400400Y-97175800D01*
X98099600Y-97175800D01*
X98084858Y-97175076D01*
X98070258Y-97172910D01*
X98055941Y-97169324D01*
X98042044Y-97164351D01*
X98028702Y-97158041D01*
X98016042Y-97150453D01*
X98004187Y-97141661D01*
X97993251Y-97131749D01*
X97983339Y-97120813D01*
X97974547Y-97108958D01*
X97966959Y-97096298D01*
X97960649Y-97082956D01*
X97955676Y-97069059D01*
X97952090Y-97054742D01*
X97949924Y-97040142D01*
X97949200Y-97025400D01*
X97949200Y-95724600D01*
X97949924Y-95709858D01*
X97952090Y-95695258D01*
X97955676Y-95680941D01*
X97960649Y-95667044D01*
X97966959Y-95653702D01*
X97974547Y-95641042D01*
X97983339Y-95629187D01*
X97993251Y-95618251D01*
X98004187Y-95608339D01*
X98016042Y-95599547D01*
X98028702Y-95591959D01*
X98042044Y-95585649D01*
X98055941Y-95580676D01*
X98070258Y-95577090D01*
X98084858Y-95574924D01*
X98099600Y-95574200D01*
X98400400Y-95574200D01*
X98415142Y-95574924D01*
X98415142Y-95574924D01*
G37*
D14*
X98250000Y-96375000D03*
D11*
G36*
X100290142Y-97449924D02*
G01*
X100304742Y-97452090D01*
X100319059Y-97455676D01*
X100332956Y-97460649D01*
X100346298Y-97466959D01*
X100358958Y-97474547D01*
X100370813Y-97483339D01*
X100381749Y-97493251D01*
X100391661Y-97504187D01*
X100400453Y-97516042D01*
X100408041Y-97528702D01*
X100414351Y-97542044D01*
X100419324Y-97555941D01*
X100422910Y-97570258D01*
X100425076Y-97584858D01*
X100425800Y-97599600D01*
X100425800Y-97900400D01*
X100425076Y-97915142D01*
X100422910Y-97929742D01*
X100419324Y-97944059D01*
X100414351Y-97957956D01*
X100408041Y-97971298D01*
X100400453Y-97983958D01*
X100391661Y-97995813D01*
X100381749Y-98006749D01*
X100370813Y-98016661D01*
X100358958Y-98025453D01*
X100346298Y-98033041D01*
X100332956Y-98039351D01*
X100319059Y-98044324D01*
X100304742Y-98047910D01*
X100290142Y-98050076D01*
X100275400Y-98050800D01*
X98974600Y-98050800D01*
X98959858Y-98050076D01*
X98945258Y-98047910D01*
X98930941Y-98044324D01*
X98917044Y-98039351D01*
X98903702Y-98033041D01*
X98891042Y-98025453D01*
X98879187Y-98016661D01*
X98868251Y-98006749D01*
X98858339Y-97995813D01*
X98849547Y-97983958D01*
X98841959Y-97971298D01*
X98835649Y-97957956D01*
X98830676Y-97944059D01*
X98827090Y-97929742D01*
X98824924Y-97915142D01*
X98824200Y-97900400D01*
X98824200Y-97599600D01*
X98824924Y-97584858D01*
X98827090Y-97570258D01*
X98830676Y-97555941D01*
X98835649Y-97542044D01*
X98841959Y-97528702D01*
X98849547Y-97516042D01*
X98858339Y-97504187D01*
X98868251Y-97493251D01*
X98879187Y-97483339D01*
X98891042Y-97474547D01*
X98903702Y-97466959D01*
X98917044Y-97460649D01*
X98930941Y-97455676D01*
X98945258Y-97452090D01*
X98959858Y-97449924D01*
X98974600Y-97449200D01*
X100275400Y-97449200D01*
X100290142Y-97449924D01*
X100290142Y-97449924D01*
G37*
D14*
X99625000Y-97750000D03*
D11*
G36*
X100290142Y-98249924D02*
G01*
X100304742Y-98252090D01*
X100319059Y-98255676D01*
X100332956Y-98260649D01*
X100346298Y-98266959D01*
X100358958Y-98274547D01*
X100370813Y-98283339D01*
X100381749Y-98293251D01*
X100391661Y-98304187D01*
X100400453Y-98316042D01*
X100408041Y-98328702D01*
X100414351Y-98342044D01*
X100419324Y-98355941D01*
X100422910Y-98370258D01*
X100425076Y-98384858D01*
X100425800Y-98399600D01*
X100425800Y-98700400D01*
X100425076Y-98715142D01*
X100422910Y-98729742D01*
X100419324Y-98744059D01*
X100414351Y-98757956D01*
X100408041Y-98771298D01*
X100400453Y-98783958D01*
X100391661Y-98795813D01*
X100381749Y-98806749D01*
X100370813Y-98816661D01*
X100358958Y-98825453D01*
X100346298Y-98833041D01*
X100332956Y-98839351D01*
X100319059Y-98844324D01*
X100304742Y-98847910D01*
X100290142Y-98850076D01*
X100275400Y-98850800D01*
X98974600Y-98850800D01*
X98959858Y-98850076D01*
X98945258Y-98847910D01*
X98930941Y-98844324D01*
X98917044Y-98839351D01*
X98903702Y-98833041D01*
X98891042Y-98825453D01*
X98879187Y-98816661D01*
X98868251Y-98806749D01*
X98858339Y-98795813D01*
X98849547Y-98783958D01*
X98841959Y-98771298D01*
X98835649Y-98757956D01*
X98830676Y-98744059D01*
X98827090Y-98729742D01*
X98824924Y-98715142D01*
X98824200Y-98700400D01*
X98824200Y-98399600D01*
X98824924Y-98384858D01*
X98827090Y-98370258D01*
X98830676Y-98355941D01*
X98835649Y-98342044D01*
X98841959Y-98328702D01*
X98849547Y-98316042D01*
X98858339Y-98304187D01*
X98868251Y-98293251D01*
X98879187Y-98283339D01*
X98891042Y-98274547D01*
X98903702Y-98266959D01*
X98917044Y-98260649D01*
X98930941Y-98255676D01*
X98945258Y-98252090D01*
X98959858Y-98249924D01*
X98974600Y-98249200D01*
X100275400Y-98249200D01*
X100290142Y-98249924D01*
X100290142Y-98249924D01*
G37*
D14*
X99625000Y-98550000D03*
D11*
G36*
X100290142Y-99049924D02*
G01*
X100304742Y-99052090D01*
X100319059Y-99055676D01*
X100332956Y-99060649D01*
X100346298Y-99066959D01*
X100358958Y-99074547D01*
X100370813Y-99083339D01*
X100381749Y-99093251D01*
X100391661Y-99104187D01*
X100400453Y-99116042D01*
X100408041Y-99128702D01*
X100414351Y-99142044D01*
X100419324Y-99155941D01*
X100422910Y-99170258D01*
X100425076Y-99184858D01*
X100425800Y-99199600D01*
X100425800Y-99500400D01*
X100425076Y-99515142D01*
X100422910Y-99529742D01*
X100419324Y-99544059D01*
X100414351Y-99557956D01*
X100408041Y-99571298D01*
X100400453Y-99583958D01*
X100391661Y-99595813D01*
X100381749Y-99606749D01*
X100370813Y-99616661D01*
X100358958Y-99625453D01*
X100346298Y-99633041D01*
X100332956Y-99639351D01*
X100319059Y-99644324D01*
X100304742Y-99647910D01*
X100290142Y-99650076D01*
X100275400Y-99650800D01*
X98974600Y-99650800D01*
X98959858Y-99650076D01*
X98945258Y-99647910D01*
X98930941Y-99644324D01*
X98917044Y-99639351D01*
X98903702Y-99633041D01*
X98891042Y-99625453D01*
X98879187Y-99616661D01*
X98868251Y-99606749D01*
X98858339Y-99595813D01*
X98849547Y-99583958D01*
X98841959Y-99571298D01*
X98835649Y-99557956D01*
X98830676Y-99544059D01*
X98827090Y-99529742D01*
X98824924Y-99515142D01*
X98824200Y-99500400D01*
X98824200Y-99199600D01*
X98824924Y-99184858D01*
X98827090Y-99170258D01*
X98830676Y-99155941D01*
X98835649Y-99142044D01*
X98841959Y-99128702D01*
X98849547Y-99116042D01*
X98858339Y-99104187D01*
X98868251Y-99093251D01*
X98879187Y-99083339D01*
X98891042Y-99074547D01*
X98903702Y-99066959D01*
X98917044Y-99060649D01*
X98930941Y-99055676D01*
X98945258Y-99052090D01*
X98959858Y-99049924D01*
X98974600Y-99049200D01*
X100275400Y-99049200D01*
X100290142Y-99049924D01*
X100290142Y-99049924D01*
G37*
D14*
X99625000Y-99350000D03*
D11*
G36*
X100290142Y-99849924D02*
G01*
X100304742Y-99852090D01*
X100319059Y-99855676D01*
X100332956Y-99860649D01*
X100346298Y-99866959D01*
X100358958Y-99874547D01*
X100370813Y-99883339D01*
X100381749Y-99893251D01*
X100391661Y-99904187D01*
X100400453Y-99916042D01*
X100408041Y-99928702D01*
X100414351Y-99942044D01*
X100419324Y-99955941D01*
X100422910Y-99970258D01*
X100425076Y-99984858D01*
X100425800Y-99999600D01*
X100425800Y-100300400D01*
X100425076Y-100315142D01*
X100422910Y-100329742D01*
X100419324Y-100344059D01*
X100414351Y-100357956D01*
X100408041Y-100371298D01*
X100400453Y-100383958D01*
X100391661Y-100395813D01*
X100381749Y-100406749D01*
X100370813Y-100416661D01*
X100358958Y-100425453D01*
X100346298Y-100433041D01*
X100332956Y-100439351D01*
X100319059Y-100444324D01*
X100304742Y-100447910D01*
X100290142Y-100450076D01*
X100275400Y-100450800D01*
X98974600Y-100450800D01*
X98959858Y-100450076D01*
X98945258Y-100447910D01*
X98930941Y-100444324D01*
X98917044Y-100439351D01*
X98903702Y-100433041D01*
X98891042Y-100425453D01*
X98879187Y-100416661D01*
X98868251Y-100406749D01*
X98858339Y-100395813D01*
X98849547Y-100383958D01*
X98841959Y-100371298D01*
X98835649Y-100357956D01*
X98830676Y-100344059D01*
X98827090Y-100329742D01*
X98824924Y-100315142D01*
X98824200Y-100300400D01*
X98824200Y-99999600D01*
X98824924Y-99984858D01*
X98827090Y-99970258D01*
X98830676Y-99955941D01*
X98835649Y-99942044D01*
X98841959Y-99928702D01*
X98849547Y-99916042D01*
X98858339Y-99904187D01*
X98868251Y-99893251D01*
X98879187Y-99883339D01*
X98891042Y-99874547D01*
X98903702Y-99866959D01*
X98917044Y-99860649D01*
X98930941Y-99855676D01*
X98945258Y-99852090D01*
X98959858Y-99849924D01*
X98974600Y-99849200D01*
X100275400Y-99849200D01*
X100290142Y-99849924D01*
X100290142Y-99849924D01*
G37*
D14*
X99625000Y-100150000D03*
D11*
G36*
X100290142Y-100649924D02*
G01*
X100304742Y-100652090D01*
X100319059Y-100655676D01*
X100332956Y-100660649D01*
X100346298Y-100666959D01*
X100358958Y-100674547D01*
X100370813Y-100683339D01*
X100381749Y-100693251D01*
X100391661Y-100704187D01*
X100400453Y-100716042D01*
X100408041Y-100728702D01*
X100414351Y-100742044D01*
X100419324Y-100755941D01*
X100422910Y-100770258D01*
X100425076Y-100784858D01*
X100425800Y-100799600D01*
X100425800Y-101100400D01*
X100425076Y-101115142D01*
X100422910Y-101129742D01*
X100419324Y-101144059D01*
X100414351Y-101157956D01*
X100408041Y-101171298D01*
X100400453Y-101183958D01*
X100391661Y-101195813D01*
X100381749Y-101206749D01*
X100370813Y-101216661D01*
X100358958Y-101225453D01*
X100346298Y-101233041D01*
X100332956Y-101239351D01*
X100319059Y-101244324D01*
X100304742Y-101247910D01*
X100290142Y-101250076D01*
X100275400Y-101250800D01*
X98974600Y-101250800D01*
X98959858Y-101250076D01*
X98945258Y-101247910D01*
X98930941Y-101244324D01*
X98917044Y-101239351D01*
X98903702Y-101233041D01*
X98891042Y-101225453D01*
X98879187Y-101216661D01*
X98868251Y-101206749D01*
X98858339Y-101195813D01*
X98849547Y-101183958D01*
X98841959Y-101171298D01*
X98835649Y-101157956D01*
X98830676Y-101144059D01*
X98827090Y-101129742D01*
X98824924Y-101115142D01*
X98824200Y-101100400D01*
X98824200Y-100799600D01*
X98824924Y-100784858D01*
X98827090Y-100770258D01*
X98830676Y-100755941D01*
X98835649Y-100742044D01*
X98841959Y-100728702D01*
X98849547Y-100716042D01*
X98858339Y-100704187D01*
X98868251Y-100693251D01*
X98879187Y-100683339D01*
X98891042Y-100674547D01*
X98903702Y-100666959D01*
X98917044Y-100660649D01*
X98930941Y-100655676D01*
X98945258Y-100652090D01*
X98959858Y-100649924D01*
X98974600Y-100649200D01*
X100275400Y-100649200D01*
X100290142Y-100649924D01*
X100290142Y-100649924D01*
G37*
D14*
X99625000Y-100950000D03*
D11*
G36*
X100290142Y-101449924D02*
G01*
X100304742Y-101452090D01*
X100319059Y-101455676D01*
X100332956Y-101460649D01*
X100346298Y-101466959D01*
X100358958Y-101474547D01*
X100370813Y-101483339D01*
X100381749Y-101493251D01*
X100391661Y-101504187D01*
X100400453Y-101516042D01*
X100408041Y-101528702D01*
X100414351Y-101542044D01*
X100419324Y-101555941D01*
X100422910Y-101570258D01*
X100425076Y-101584858D01*
X100425800Y-101599600D01*
X100425800Y-101900400D01*
X100425076Y-101915142D01*
X100422910Y-101929742D01*
X100419324Y-101944059D01*
X100414351Y-101957956D01*
X100408041Y-101971298D01*
X100400453Y-101983958D01*
X100391661Y-101995813D01*
X100381749Y-102006749D01*
X100370813Y-102016661D01*
X100358958Y-102025453D01*
X100346298Y-102033041D01*
X100332956Y-102039351D01*
X100319059Y-102044324D01*
X100304742Y-102047910D01*
X100290142Y-102050076D01*
X100275400Y-102050800D01*
X98974600Y-102050800D01*
X98959858Y-102050076D01*
X98945258Y-102047910D01*
X98930941Y-102044324D01*
X98917044Y-102039351D01*
X98903702Y-102033041D01*
X98891042Y-102025453D01*
X98879187Y-102016661D01*
X98868251Y-102006749D01*
X98858339Y-101995813D01*
X98849547Y-101983958D01*
X98841959Y-101971298D01*
X98835649Y-101957956D01*
X98830676Y-101944059D01*
X98827090Y-101929742D01*
X98824924Y-101915142D01*
X98824200Y-101900400D01*
X98824200Y-101599600D01*
X98824924Y-101584858D01*
X98827090Y-101570258D01*
X98830676Y-101555941D01*
X98835649Y-101542044D01*
X98841959Y-101528702D01*
X98849547Y-101516042D01*
X98858339Y-101504187D01*
X98868251Y-101493251D01*
X98879187Y-101483339D01*
X98891042Y-101474547D01*
X98903702Y-101466959D01*
X98917044Y-101460649D01*
X98930941Y-101455676D01*
X98945258Y-101452090D01*
X98959858Y-101449924D01*
X98974600Y-101449200D01*
X100275400Y-101449200D01*
X100290142Y-101449924D01*
X100290142Y-101449924D01*
G37*
D14*
X99625000Y-101750000D03*
D11*
G36*
X100290142Y-102249924D02*
G01*
X100304742Y-102252090D01*
X100319059Y-102255676D01*
X100332956Y-102260649D01*
X100346298Y-102266959D01*
X100358958Y-102274547D01*
X100370813Y-102283339D01*
X100381749Y-102293251D01*
X100391661Y-102304187D01*
X100400453Y-102316042D01*
X100408041Y-102328702D01*
X100414351Y-102342044D01*
X100419324Y-102355941D01*
X100422910Y-102370258D01*
X100425076Y-102384858D01*
X100425800Y-102399600D01*
X100425800Y-102700400D01*
X100425076Y-102715142D01*
X100422910Y-102729742D01*
X100419324Y-102744059D01*
X100414351Y-102757956D01*
X100408041Y-102771298D01*
X100400453Y-102783958D01*
X100391661Y-102795813D01*
X100381749Y-102806749D01*
X100370813Y-102816661D01*
X100358958Y-102825453D01*
X100346298Y-102833041D01*
X100332956Y-102839351D01*
X100319059Y-102844324D01*
X100304742Y-102847910D01*
X100290142Y-102850076D01*
X100275400Y-102850800D01*
X98974600Y-102850800D01*
X98959858Y-102850076D01*
X98945258Y-102847910D01*
X98930941Y-102844324D01*
X98917044Y-102839351D01*
X98903702Y-102833041D01*
X98891042Y-102825453D01*
X98879187Y-102816661D01*
X98868251Y-102806749D01*
X98858339Y-102795813D01*
X98849547Y-102783958D01*
X98841959Y-102771298D01*
X98835649Y-102757956D01*
X98830676Y-102744059D01*
X98827090Y-102729742D01*
X98824924Y-102715142D01*
X98824200Y-102700400D01*
X98824200Y-102399600D01*
X98824924Y-102384858D01*
X98827090Y-102370258D01*
X98830676Y-102355941D01*
X98835649Y-102342044D01*
X98841959Y-102328702D01*
X98849547Y-102316042D01*
X98858339Y-102304187D01*
X98868251Y-102293251D01*
X98879187Y-102283339D01*
X98891042Y-102274547D01*
X98903702Y-102266959D01*
X98917044Y-102260649D01*
X98930941Y-102255676D01*
X98945258Y-102252090D01*
X98959858Y-102249924D01*
X98974600Y-102249200D01*
X100275400Y-102249200D01*
X100290142Y-102249924D01*
X100290142Y-102249924D01*
G37*
D14*
X99625000Y-102550000D03*
D11*
G36*
X100290142Y-103049924D02*
G01*
X100304742Y-103052090D01*
X100319059Y-103055676D01*
X100332956Y-103060649D01*
X100346298Y-103066959D01*
X100358958Y-103074547D01*
X100370813Y-103083339D01*
X100381749Y-103093251D01*
X100391661Y-103104187D01*
X100400453Y-103116042D01*
X100408041Y-103128702D01*
X100414351Y-103142044D01*
X100419324Y-103155941D01*
X100422910Y-103170258D01*
X100425076Y-103184858D01*
X100425800Y-103199600D01*
X100425800Y-103500400D01*
X100425076Y-103515142D01*
X100422910Y-103529742D01*
X100419324Y-103544059D01*
X100414351Y-103557956D01*
X100408041Y-103571298D01*
X100400453Y-103583958D01*
X100391661Y-103595813D01*
X100381749Y-103606749D01*
X100370813Y-103616661D01*
X100358958Y-103625453D01*
X100346298Y-103633041D01*
X100332956Y-103639351D01*
X100319059Y-103644324D01*
X100304742Y-103647910D01*
X100290142Y-103650076D01*
X100275400Y-103650800D01*
X98974600Y-103650800D01*
X98959858Y-103650076D01*
X98945258Y-103647910D01*
X98930941Y-103644324D01*
X98917044Y-103639351D01*
X98903702Y-103633041D01*
X98891042Y-103625453D01*
X98879187Y-103616661D01*
X98868251Y-103606749D01*
X98858339Y-103595813D01*
X98849547Y-103583958D01*
X98841959Y-103571298D01*
X98835649Y-103557956D01*
X98830676Y-103544059D01*
X98827090Y-103529742D01*
X98824924Y-103515142D01*
X98824200Y-103500400D01*
X98824200Y-103199600D01*
X98824924Y-103184858D01*
X98827090Y-103170258D01*
X98830676Y-103155941D01*
X98835649Y-103142044D01*
X98841959Y-103128702D01*
X98849547Y-103116042D01*
X98858339Y-103104187D01*
X98868251Y-103093251D01*
X98879187Y-103083339D01*
X98891042Y-103074547D01*
X98903702Y-103066959D01*
X98917044Y-103060649D01*
X98930941Y-103055676D01*
X98945258Y-103052090D01*
X98959858Y-103049924D01*
X98974600Y-103049200D01*
X100275400Y-103049200D01*
X100290142Y-103049924D01*
X100290142Y-103049924D01*
G37*
D14*
X99625000Y-103350000D03*
D11*
G36*
X87180581Y-98790376D02*
G01*
X87204281Y-98793891D01*
X87227523Y-98799713D01*
X87250082Y-98807785D01*
X87271742Y-98818029D01*
X87292292Y-98830347D01*
X87311537Y-98844619D01*
X87329290Y-98860710D01*
X87345381Y-98878463D01*
X87359653Y-98897708D01*
X87371971Y-98918258D01*
X87382215Y-98939918D01*
X87390287Y-98962477D01*
X87396109Y-98985719D01*
X87399624Y-99009419D01*
X87400800Y-99033350D01*
X87400800Y-99596650D01*
X87399624Y-99620581D01*
X87396109Y-99644281D01*
X87390287Y-99667523D01*
X87382215Y-99690082D01*
X87371971Y-99711742D01*
X87359653Y-99732292D01*
X87345381Y-99751537D01*
X87329290Y-99769290D01*
X87311537Y-99785381D01*
X87292292Y-99799653D01*
X87271742Y-99811971D01*
X87250082Y-99822215D01*
X87227523Y-99830287D01*
X87204281Y-99836109D01*
X87180581Y-99839624D01*
X87156650Y-99840800D01*
X86668350Y-99840800D01*
X86644419Y-99839624D01*
X86620719Y-99836109D01*
X86597477Y-99830287D01*
X86574918Y-99822215D01*
X86553258Y-99811971D01*
X86532708Y-99799653D01*
X86513463Y-99785381D01*
X86495710Y-99769290D01*
X86479619Y-99751537D01*
X86465347Y-99732292D01*
X86453029Y-99711742D01*
X86442785Y-99690082D01*
X86434713Y-99667523D01*
X86428891Y-99644281D01*
X86425376Y-99620581D01*
X86424200Y-99596650D01*
X86424200Y-99033350D01*
X86425376Y-99009419D01*
X86428891Y-98985719D01*
X86434713Y-98962477D01*
X86442785Y-98939918D01*
X86453029Y-98918258D01*
X86465347Y-98897708D01*
X86479619Y-98878463D01*
X86495710Y-98860710D01*
X86513463Y-98844619D01*
X86532708Y-98830347D01*
X86553258Y-98818029D01*
X86574918Y-98807785D01*
X86597477Y-98799713D01*
X86620719Y-98793891D01*
X86644419Y-98790376D01*
X86668350Y-98789200D01*
X87156650Y-98789200D01*
X87180581Y-98790376D01*
X87180581Y-98790376D01*
G37*
D12*
X86912500Y-99315000D03*
D11*
G36*
X85605581Y-98790376D02*
G01*
X85629281Y-98793891D01*
X85652523Y-98799713D01*
X85675082Y-98807785D01*
X85696742Y-98818029D01*
X85717292Y-98830347D01*
X85736537Y-98844619D01*
X85754290Y-98860710D01*
X85770381Y-98878463D01*
X85784653Y-98897708D01*
X85796971Y-98918258D01*
X85807215Y-98939918D01*
X85815287Y-98962477D01*
X85821109Y-98985719D01*
X85824624Y-99009419D01*
X85825800Y-99033350D01*
X85825800Y-99596650D01*
X85824624Y-99620581D01*
X85821109Y-99644281D01*
X85815287Y-99667523D01*
X85807215Y-99690082D01*
X85796971Y-99711742D01*
X85784653Y-99732292D01*
X85770381Y-99751537D01*
X85754290Y-99769290D01*
X85736537Y-99785381D01*
X85717292Y-99799653D01*
X85696742Y-99811971D01*
X85675082Y-99822215D01*
X85652523Y-99830287D01*
X85629281Y-99836109D01*
X85605581Y-99839624D01*
X85581650Y-99840800D01*
X85093350Y-99840800D01*
X85069419Y-99839624D01*
X85045719Y-99836109D01*
X85022477Y-99830287D01*
X84999918Y-99822215D01*
X84978258Y-99811971D01*
X84957708Y-99799653D01*
X84938463Y-99785381D01*
X84920710Y-99769290D01*
X84904619Y-99751537D01*
X84890347Y-99732292D01*
X84878029Y-99711742D01*
X84867785Y-99690082D01*
X84859713Y-99667523D01*
X84853891Y-99644281D01*
X84850376Y-99620581D01*
X84849200Y-99596650D01*
X84849200Y-99033350D01*
X84850376Y-99009419D01*
X84853891Y-98985719D01*
X84859713Y-98962477D01*
X84867785Y-98939918D01*
X84878029Y-98918258D01*
X84890347Y-98897708D01*
X84904619Y-98878463D01*
X84920710Y-98860710D01*
X84938463Y-98844619D01*
X84957708Y-98830347D01*
X84978258Y-98818029D01*
X84999918Y-98807785D01*
X85022477Y-98799713D01*
X85045719Y-98793891D01*
X85069419Y-98790376D01*
X85093350Y-98789200D01*
X85581650Y-98789200D01*
X85605581Y-98790376D01*
X85605581Y-98790376D01*
G37*
D12*
X85337500Y-99315000D03*
D11*
G36*
X87170581Y-100340376D02*
G01*
X87194281Y-100343891D01*
X87217523Y-100349713D01*
X87240082Y-100357785D01*
X87261742Y-100368029D01*
X87282292Y-100380347D01*
X87301537Y-100394619D01*
X87319290Y-100410710D01*
X87335381Y-100428463D01*
X87349653Y-100447708D01*
X87361971Y-100468258D01*
X87372215Y-100489918D01*
X87380287Y-100512477D01*
X87386109Y-100535719D01*
X87389624Y-100559419D01*
X87390800Y-100583350D01*
X87390800Y-101146650D01*
X87389624Y-101170581D01*
X87386109Y-101194281D01*
X87380287Y-101217523D01*
X87372215Y-101240082D01*
X87361971Y-101261742D01*
X87349653Y-101282292D01*
X87335381Y-101301537D01*
X87319290Y-101319290D01*
X87301537Y-101335381D01*
X87282292Y-101349653D01*
X87261742Y-101361971D01*
X87240082Y-101372215D01*
X87217523Y-101380287D01*
X87194281Y-101386109D01*
X87170581Y-101389624D01*
X87146650Y-101390800D01*
X86658350Y-101390800D01*
X86634419Y-101389624D01*
X86610719Y-101386109D01*
X86587477Y-101380287D01*
X86564918Y-101372215D01*
X86543258Y-101361971D01*
X86522708Y-101349653D01*
X86503463Y-101335381D01*
X86485710Y-101319290D01*
X86469619Y-101301537D01*
X86455347Y-101282292D01*
X86443029Y-101261742D01*
X86432785Y-101240082D01*
X86424713Y-101217523D01*
X86418891Y-101194281D01*
X86415376Y-101170581D01*
X86414200Y-101146650D01*
X86414200Y-100583350D01*
X86415376Y-100559419D01*
X86418891Y-100535719D01*
X86424713Y-100512477D01*
X86432785Y-100489918D01*
X86443029Y-100468258D01*
X86455347Y-100447708D01*
X86469619Y-100428463D01*
X86485710Y-100410710D01*
X86503463Y-100394619D01*
X86522708Y-100380347D01*
X86543258Y-100368029D01*
X86564918Y-100357785D01*
X86587477Y-100349713D01*
X86610719Y-100343891D01*
X86634419Y-100340376D01*
X86658350Y-100339200D01*
X87146650Y-100339200D01*
X87170581Y-100340376D01*
X87170581Y-100340376D01*
G37*
D12*
X86902500Y-100865000D03*
D11*
G36*
X85595581Y-100340376D02*
G01*
X85619281Y-100343891D01*
X85642523Y-100349713D01*
X85665082Y-100357785D01*
X85686742Y-100368029D01*
X85707292Y-100380347D01*
X85726537Y-100394619D01*
X85744290Y-100410710D01*
X85760381Y-100428463D01*
X85774653Y-100447708D01*
X85786971Y-100468258D01*
X85797215Y-100489918D01*
X85805287Y-100512477D01*
X85811109Y-100535719D01*
X85814624Y-100559419D01*
X85815800Y-100583350D01*
X85815800Y-101146650D01*
X85814624Y-101170581D01*
X85811109Y-101194281D01*
X85805287Y-101217523D01*
X85797215Y-101240082D01*
X85786971Y-101261742D01*
X85774653Y-101282292D01*
X85760381Y-101301537D01*
X85744290Y-101319290D01*
X85726537Y-101335381D01*
X85707292Y-101349653D01*
X85686742Y-101361971D01*
X85665082Y-101372215D01*
X85642523Y-101380287D01*
X85619281Y-101386109D01*
X85595581Y-101389624D01*
X85571650Y-101390800D01*
X85083350Y-101390800D01*
X85059419Y-101389624D01*
X85035719Y-101386109D01*
X85012477Y-101380287D01*
X84989918Y-101372215D01*
X84968258Y-101361971D01*
X84947708Y-101349653D01*
X84928463Y-101335381D01*
X84910710Y-101319290D01*
X84894619Y-101301537D01*
X84880347Y-101282292D01*
X84868029Y-101261742D01*
X84857785Y-101240082D01*
X84849713Y-101217523D01*
X84843891Y-101194281D01*
X84840376Y-101170581D01*
X84839200Y-101146650D01*
X84839200Y-100583350D01*
X84840376Y-100559419D01*
X84843891Y-100535719D01*
X84849713Y-100512477D01*
X84857785Y-100489918D01*
X84868029Y-100468258D01*
X84880347Y-100447708D01*
X84894619Y-100428463D01*
X84910710Y-100410710D01*
X84928463Y-100394619D01*
X84947708Y-100380347D01*
X84968258Y-100368029D01*
X84989918Y-100357785D01*
X85012477Y-100349713D01*
X85035719Y-100343891D01*
X85059419Y-100340376D01*
X85083350Y-100339200D01*
X85571650Y-100339200D01*
X85595581Y-100340376D01*
X85595581Y-100340376D01*
G37*
D12*
X85327500Y-100865000D03*
D15*
X59615000Y-100000000D03*
D16*
X59885000Y-102705000D03*
X59885000Y-97245000D03*
D17*
X62885000Y-102395000D03*
X62885000Y-97555000D03*
D18*
X62765000Y-101275000D03*
X62765000Y-100625000D03*
X62765000Y-99975000D03*
X62765000Y-99325000D03*
X62765000Y-98675000D03*
D19*
X62885000Y-102875000D03*
X62865000Y-97125000D03*
D20*
X138100000Y-102650000D03*
X138100000Y-97350000D03*
D21*
X153050000Y-95410000D03*
X153050000Y-104590000D03*
D22*
X63250000Y-105250000D03*
X60750000Y-105250000D03*
X126750000Y-93250000D03*
X124250000Y-93250000D03*
D11*
G36*
X108240581Y-92415376D02*
G01*
X108264281Y-92418891D01*
X108287523Y-92424713D01*
X108310082Y-92432785D01*
X108331742Y-92443029D01*
X108352292Y-92455347D01*
X108371537Y-92469619D01*
X108389290Y-92485710D01*
X108405381Y-92503463D01*
X108419653Y-92522708D01*
X108431971Y-92543258D01*
X108442215Y-92564918D01*
X108450287Y-92587477D01*
X108456109Y-92610719D01*
X108459624Y-92634419D01*
X108460800Y-92658350D01*
X108460800Y-93221650D01*
X108459624Y-93245581D01*
X108456109Y-93269281D01*
X108450287Y-93292523D01*
X108442215Y-93315082D01*
X108431971Y-93336742D01*
X108419653Y-93357292D01*
X108405381Y-93376537D01*
X108389290Y-93394290D01*
X108371537Y-93410381D01*
X108352292Y-93424653D01*
X108331742Y-93436971D01*
X108310082Y-93447215D01*
X108287523Y-93455287D01*
X108264281Y-93461109D01*
X108240581Y-93464624D01*
X108216650Y-93465800D01*
X107728350Y-93465800D01*
X107704419Y-93464624D01*
X107680719Y-93461109D01*
X107657477Y-93455287D01*
X107634918Y-93447215D01*
X107613258Y-93436971D01*
X107592708Y-93424653D01*
X107573463Y-93410381D01*
X107555710Y-93394290D01*
X107539619Y-93376537D01*
X107525347Y-93357292D01*
X107513029Y-93336742D01*
X107502785Y-93315082D01*
X107494713Y-93292523D01*
X107488891Y-93269281D01*
X107485376Y-93245581D01*
X107484200Y-93221650D01*
X107484200Y-92658350D01*
X107485376Y-92634419D01*
X107488891Y-92610719D01*
X107494713Y-92587477D01*
X107502785Y-92564918D01*
X107513029Y-92543258D01*
X107525347Y-92522708D01*
X107539619Y-92503463D01*
X107555710Y-92485710D01*
X107573463Y-92469619D01*
X107592708Y-92455347D01*
X107613258Y-92443029D01*
X107634918Y-92432785D01*
X107657477Y-92424713D01*
X107680719Y-92418891D01*
X107704419Y-92415376D01*
X107728350Y-92414200D01*
X108216650Y-92414200D01*
X108240581Y-92415376D01*
X108240581Y-92415376D01*
G37*
D12*
X107972500Y-92940000D03*
D11*
G36*
X109815581Y-92415376D02*
G01*
X109839281Y-92418891D01*
X109862523Y-92424713D01*
X109885082Y-92432785D01*
X109906742Y-92443029D01*
X109927292Y-92455347D01*
X109946537Y-92469619D01*
X109964290Y-92485710D01*
X109980381Y-92503463D01*
X109994653Y-92522708D01*
X110006971Y-92543258D01*
X110017215Y-92564918D01*
X110025287Y-92587477D01*
X110031109Y-92610719D01*
X110034624Y-92634419D01*
X110035800Y-92658350D01*
X110035800Y-93221650D01*
X110034624Y-93245581D01*
X110031109Y-93269281D01*
X110025287Y-93292523D01*
X110017215Y-93315082D01*
X110006971Y-93336742D01*
X109994653Y-93357292D01*
X109980381Y-93376537D01*
X109964290Y-93394290D01*
X109946537Y-93410381D01*
X109927292Y-93424653D01*
X109906742Y-93436971D01*
X109885082Y-93447215D01*
X109862523Y-93455287D01*
X109839281Y-93461109D01*
X109815581Y-93464624D01*
X109791650Y-93465800D01*
X109303350Y-93465800D01*
X109279419Y-93464624D01*
X109255719Y-93461109D01*
X109232477Y-93455287D01*
X109209918Y-93447215D01*
X109188258Y-93436971D01*
X109167708Y-93424653D01*
X109148463Y-93410381D01*
X109130710Y-93394290D01*
X109114619Y-93376537D01*
X109100347Y-93357292D01*
X109088029Y-93336742D01*
X109077785Y-93315082D01*
X109069713Y-93292523D01*
X109063891Y-93269281D01*
X109060376Y-93245581D01*
X109059200Y-93221650D01*
X109059200Y-92658350D01*
X109060376Y-92634419D01*
X109063891Y-92610719D01*
X109069713Y-92587477D01*
X109077785Y-92564918D01*
X109088029Y-92543258D01*
X109100347Y-92522708D01*
X109114619Y-92503463D01*
X109130710Y-92485710D01*
X109148463Y-92469619D01*
X109167708Y-92455347D01*
X109188258Y-92443029D01*
X109209918Y-92432785D01*
X109232477Y-92424713D01*
X109255719Y-92418891D01*
X109279419Y-92415376D01*
X109303350Y-92414200D01*
X109791650Y-92414200D01*
X109815581Y-92415376D01*
X109815581Y-92415376D01*
G37*
D12*
X109547500Y-92940000D03*
D11*
G36*
X113215581Y-92415376D02*
G01*
X113239281Y-92418891D01*
X113262523Y-92424713D01*
X113285082Y-92432785D01*
X113306742Y-92443029D01*
X113327292Y-92455347D01*
X113346537Y-92469619D01*
X113364290Y-92485710D01*
X113380381Y-92503463D01*
X113394653Y-92522708D01*
X113406971Y-92543258D01*
X113417215Y-92564918D01*
X113425287Y-92587477D01*
X113431109Y-92610719D01*
X113434624Y-92634419D01*
X113435800Y-92658350D01*
X113435800Y-93221650D01*
X113434624Y-93245581D01*
X113431109Y-93269281D01*
X113425287Y-93292523D01*
X113417215Y-93315082D01*
X113406971Y-93336742D01*
X113394653Y-93357292D01*
X113380381Y-93376537D01*
X113364290Y-93394290D01*
X113346537Y-93410381D01*
X113327292Y-93424653D01*
X113306742Y-93436971D01*
X113285082Y-93447215D01*
X113262523Y-93455287D01*
X113239281Y-93461109D01*
X113215581Y-93464624D01*
X113191650Y-93465800D01*
X112703350Y-93465800D01*
X112679419Y-93464624D01*
X112655719Y-93461109D01*
X112632477Y-93455287D01*
X112609918Y-93447215D01*
X112588258Y-93436971D01*
X112567708Y-93424653D01*
X112548463Y-93410381D01*
X112530710Y-93394290D01*
X112514619Y-93376537D01*
X112500347Y-93357292D01*
X112488029Y-93336742D01*
X112477785Y-93315082D01*
X112469713Y-93292523D01*
X112463891Y-93269281D01*
X112460376Y-93245581D01*
X112459200Y-93221650D01*
X112459200Y-92658350D01*
X112460376Y-92634419D01*
X112463891Y-92610719D01*
X112469713Y-92587477D01*
X112477785Y-92564918D01*
X112488029Y-92543258D01*
X112500347Y-92522708D01*
X112514619Y-92503463D01*
X112530710Y-92485710D01*
X112548463Y-92469619D01*
X112567708Y-92455347D01*
X112588258Y-92443029D01*
X112609918Y-92432785D01*
X112632477Y-92424713D01*
X112655719Y-92418891D01*
X112679419Y-92415376D01*
X112703350Y-92414200D01*
X113191650Y-92414200D01*
X113215581Y-92415376D01*
X113215581Y-92415376D01*
G37*
D12*
X112947500Y-92940000D03*
D11*
G36*
X111640581Y-92415376D02*
G01*
X111664281Y-92418891D01*
X111687523Y-92424713D01*
X111710082Y-92432785D01*
X111731742Y-92443029D01*
X111752292Y-92455347D01*
X111771537Y-92469619D01*
X111789290Y-92485710D01*
X111805381Y-92503463D01*
X111819653Y-92522708D01*
X111831971Y-92543258D01*
X111842215Y-92564918D01*
X111850287Y-92587477D01*
X111856109Y-92610719D01*
X111859624Y-92634419D01*
X111860800Y-92658350D01*
X111860800Y-93221650D01*
X111859624Y-93245581D01*
X111856109Y-93269281D01*
X111850287Y-93292523D01*
X111842215Y-93315082D01*
X111831971Y-93336742D01*
X111819653Y-93357292D01*
X111805381Y-93376537D01*
X111789290Y-93394290D01*
X111771537Y-93410381D01*
X111752292Y-93424653D01*
X111731742Y-93436971D01*
X111710082Y-93447215D01*
X111687523Y-93455287D01*
X111664281Y-93461109D01*
X111640581Y-93464624D01*
X111616650Y-93465800D01*
X111128350Y-93465800D01*
X111104419Y-93464624D01*
X111080719Y-93461109D01*
X111057477Y-93455287D01*
X111034918Y-93447215D01*
X111013258Y-93436971D01*
X110992708Y-93424653D01*
X110973463Y-93410381D01*
X110955710Y-93394290D01*
X110939619Y-93376537D01*
X110925347Y-93357292D01*
X110913029Y-93336742D01*
X110902785Y-93315082D01*
X110894713Y-93292523D01*
X110888891Y-93269281D01*
X110885376Y-93245581D01*
X110884200Y-93221650D01*
X110884200Y-92658350D01*
X110885376Y-92634419D01*
X110888891Y-92610719D01*
X110894713Y-92587477D01*
X110902785Y-92564918D01*
X110913029Y-92543258D01*
X110925347Y-92522708D01*
X110939619Y-92503463D01*
X110955710Y-92485710D01*
X110973463Y-92469619D01*
X110992708Y-92455347D01*
X111013258Y-92443029D01*
X111034918Y-92432785D01*
X111057477Y-92424713D01*
X111080719Y-92418891D01*
X111104419Y-92415376D01*
X111128350Y-92414200D01*
X111616650Y-92414200D01*
X111640581Y-92415376D01*
X111640581Y-92415376D01*
G37*
D12*
X111372500Y-92940000D03*
D11*
G36*
X116615581Y-92415376D02*
G01*
X116639281Y-92418891D01*
X116662523Y-92424713D01*
X116685082Y-92432785D01*
X116706742Y-92443029D01*
X116727292Y-92455347D01*
X116746537Y-92469619D01*
X116764290Y-92485710D01*
X116780381Y-92503463D01*
X116794653Y-92522708D01*
X116806971Y-92543258D01*
X116817215Y-92564918D01*
X116825287Y-92587477D01*
X116831109Y-92610719D01*
X116834624Y-92634419D01*
X116835800Y-92658350D01*
X116835800Y-93221650D01*
X116834624Y-93245581D01*
X116831109Y-93269281D01*
X116825287Y-93292523D01*
X116817215Y-93315082D01*
X116806971Y-93336742D01*
X116794653Y-93357292D01*
X116780381Y-93376537D01*
X116764290Y-93394290D01*
X116746537Y-93410381D01*
X116727292Y-93424653D01*
X116706742Y-93436971D01*
X116685082Y-93447215D01*
X116662523Y-93455287D01*
X116639281Y-93461109D01*
X116615581Y-93464624D01*
X116591650Y-93465800D01*
X116103350Y-93465800D01*
X116079419Y-93464624D01*
X116055719Y-93461109D01*
X116032477Y-93455287D01*
X116009918Y-93447215D01*
X115988258Y-93436971D01*
X115967708Y-93424653D01*
X115948463Y-93410381D01*
X115930710Y-93394290D01*
X115914619Y-93376537D01*
X115900347Y-93357292D01*
X115888029Y-93336742D01*
X115877785Y-93315082D01*
X115869713Y-93292523D01*
X115863891Y-93269281D01*
X115860376Y-93245581D01*
X115859200Y-93221650D01*
X115859200Y-92658350D01*
X115860376Y-92634419D01*
X115863891Y-92610719D01*
X115869713Y-92587477D01*
X115877785Y-92564918D01*
X115888029Y-92543258D01*
X115900347Y-92522708D01*
X115914619Y-92503463D01*
X115930710Y-92485710D01*
X115948463Y-92469619D01*
X115967708Y-92455347D01*
X115988258Y-92443029D01*
X116009918Y-92432785D01*
X116032477Y-92424713D01*
X116055719Y-92418891D01*
X116079419Y-92415376D01*
X116103350Y-92414200D01*
X116591650Y-92414200D01*
X116615581Y-92415376D01*
X116615581Y-92415376D01*
G37*
D12*
X116347500Y-92940000D03*
D11*
G36*
X115040581Y-92415376D02*
G01*
X115064281Y-92418891D01*
X115087523Y-92424713D01*
X115110082Y-92432785D01*
X115131742Y-92443029D01*
X115152292Y-92455347D01*
X115171537Y-92469619D01*
X115189290Y-92485710D01*
X115205381Y-92503463D01*
X115219653Y-92522708D01*
X115231971Y-92543258D01*
X115242215Y-92564918D01*
X115250287Y-92587477D01*
X115256109Y-92610719D01*
X115259624Y-92634419D01*
X115260800Y-92658350D01*
X115260800Y-93221650D01*
X115259624Y-93245581D01*
X115256109Y-93269281D01*
X115250287Y-93292523D01*
X115242215Y-93315082D01*
X115231971Y-93336742D01*
X115219653Y-93357292D01*
X115205381Y-93376537D01*
X115189290Y-93394290D01*
X115171537Y-93410381D01*
X115152292Y-93424653D01*
X115131742Y-93436971D01*
X115110082Y-93447215D01*
X115087523Y-93455287D01*
X115064281Y-93461109D01*
X115040581Y-93464624D01*
X115016650Y-93465800D01*
X114528350Y-93465800D01*
X114504419Y-93464624D01*
X114480719Y-93461109D01*
X114457477Y-93455287D01*
X114434918Y-93447215D01*
X114413258Y-93436971D01*
X114392708Y-93424653D01*
X114373463Y-93410381D01*
X114355710Y-93394290D01*
X114339619Y-93376537D01*
X114325347Y-93357292D01*
X114313029Y-93336742D01*
X114302785Y-93315082D01*
X114294713Y-93292523D01*
X114288891Y-93269281D01*
X114285376Y-93245581D01*
X114284200Y-93221650D01*
X114284200Y-92658350D01*
X114285376Y-92634419D01*
X114288891Y-92610719D01*
X114294713Y-92587477D01*
X114302785Y-92564918D01*
X114313029Y-92543258D01*
X114325347Y-92522708D01*
X114339619Y-92503463D01*
X114355710Y-92485710D01*
X114373463Y-92469619D01*
X114392708Y-92455347D01*
X114413258Y-92443029D01*
X114434918Y-92432785D01*
X114457477Y-92424713D01*
X114480719Y-92418891D01*
X114504419Y-92415376D01*
X114528350Y-92414200D01*
X115016650Y-92414200D01*
X115040581Y-92415376D01*
X115040581Y-92415376D01*
G37*
D12*
X114772500Y-92940000D03*
D11*
G36*
X120055581Y-92415376D02*
G01*
X120079281Y-92418891D01*
X120102523Y-92424713D01*
X120125082Y-92432785D01*
X120146742Y-92443029D01*
X120167292Y-92455347D01*
X120186537Y-92469619D01*
X120204290Y-92485710D01*
X120220381Y-92503463D01*
X120234653Y-92522708D01*
X120246971Y-92543258D01*
X120257215Y-92564918D01*
X120265287Y-92587477D01*
X120271109Y-92610719D01*
X120274624Y-92634419D01*
X120275800Y-92658350D01*
X120275800Y-93221650D01*
X120274624Y-93245581D01*
X120271109Y-93269281D01*
X120265287Y-93292523D01*
X120257215Y-93315082D01*
X120246971Y-93336742D01*
X120234653Y-93357292D01*
X120220381Y-93376537D01*
X120204290Y-93394290D01*
X120186537Y-93410381D01*
X120167292Y-93424653D01*
X120146742Y-93436971D01*
X120125082Y-93447215D01*
X120102523Y-93455287D01*
X120079281Y-93461109D01*
X120055581Y-93464624D01*
X120031650Y-93465800D01*
X119543350Y-93465800D01*
X119519419Y-93464624D01*
X119495719Y-93461109D01*
X119472477Y-93455287D01*
X119449918Y-93447215D01*
X119428258Y-93436971D01*
X119407708Y-93424653D01*
X119388463Y-93410381D01*
X119370710Y-93394290D01*
X119354619Y-93376537D01*
X119340347Y-93357292D01*
X119328029Y-93336742D01*
X119317785Y-93315082D01*
X119309713Y-93292523D01*
X119303891Y-93269281D01*
X119300376Y-93245581D01*
X119299200Y-93221650D01*
X119299200Y-92658350D01*
X119300376Y-92634419D01*
X119303891Y-92610719D01*
X119309713Y-92587477D01*
X119317785Y-92564918D01*
X119328029Y-92543258D01*
X119340347Y-92522708D01*
X119354619Y-92503463D01*
X119370710Y-92485710D01*
X119388463Y-92469619D01*
X119407708Y-92455347D01*
X119428258Y-92443029D01*
X119449918Y-92432785D01*
X119472477Y-92424713D01*
X119495719Y-92418891D01*
X119519419Y-92415376D01*
X119543350Y-92414200D01*
X120031650Y-92414200D01*
X120055581Y-92415376D01*
X120055581Y-92415376D01*
G37*
D12*
X119787500Y-92940000D03*
D11*
G36*
X118480581Y-92415376D02*
G01*
X118504281Y-92418891D01*
X118527523Y-92424713D01*
X118550082Y-92432785D01*
X118571742Y-92443029D01*
X118592292Y-92455347D01*
X118611537Y-92469619D01*
X118629290Y-92485710D01*
X118645381Y-92503463D01*
X118659653Y-92522708D01*
X118671971Y-92543258D01*
X118682215Y-92564918D01*
X118690287Y-92587477D01*
X118696109Y-92610719D01*
X118699624Y-92634419D01*
X118700800Y-92658350D01*
X118700800Y-93221650D01*
X118699624Y-93245581D01*
X118696109Y-93269281D01*
X118690287Y-93292523D01*
X118682215Y-93315082D01*
X118671971Y-93336742D01*
X118659653Y-93357292D01*
X118645381Y-93376537D01*
X118629290Y-93394290D01*
X118611537Y-93410381D01*
X118592292Y-93424653D01*
X118571742Y-93436971D01*
X118550082Y-93447215D01*
X118527523Y-93455287D01*
X118504281Y-93461109D01*
X118480581Y-93464624D01*
X118456650Y-93465800D01*
X117968350Y-93465800D01*
X117944419Y-93464624D01*
X117920719Y-93461109D01*
X117897477Y-93455287D01*
X117874918Y-93447215D01*
X117853258Y-93436971D01*
X117832708Y-93424653D01*
X117813463Y-93410381D01*
X117795710Y-93394290D01*
X117779619Y-93376537D01*
X117765347Y-93357292D01*
X117753029Y-93336742D01*
X117742785Y-93315082D01*
X117734713Y-93292523D01*
X117728891Y-93269281D01*
X117725376Y-93245581D01*
X117724200Y-93221650D01*
X117724200Y-92658350D01*
X117725376Y-92634419D01*
X117728891Y-92610719D01*
X117734713Y-92587477D01*
X117742785Y-92564918D01*
X117753029Y-92543258D01*
X117765347Y-92522708D01*
X117779619Y-92503463D01*
X117795710Y-92485710D01*
X117813463Y-92469619D01*
X117832708Y-92455347D01*
X117853258Y-92443029D01*
X117874918Y-92432785D01*
X117897477Y-92424713D01*
X117920719Y-92418891D01*
X117944419Y-92415376D01*
X117968350Y-92414200D01*
X118456650Y-92414200D01*
X118480581Y-92415376D01*
X118480581Y-92415376D01*
G37*
D12*
X118212500Y-92940000D03*
D22*
X147425000Y-99350000D03*
D23*
X147425000Y-100620000D03*
X146155000Y-99350000D03*
X146155000Y-100620000D03*
X144885000Y-99350000D03*
X144885000Y-100620000D03*
X143615000Y-99350000D03*
X143615000Y-100620000D03*
X142345000Y-99350000D03*
X142345000Y-100620000D03*
D11*
G36*
X102005581Y-97275376D02*
G01*
X102029281Y-97278891D01*
X102052523Y-97284713D01*
X102075082Y-97292785D01*
X102096742Y-97303029D01*
X102117292Y-97315347D01*
X102136537Y-97329619D01*
X102154290Y-97345710D01*
X102170381Y-97363463D01*
X102184653Y-97382708D01*
X102196971Y-97403258D01*
X102207215Y-97424918D01*
X102215287Y-97447477D01*
X102221109Y-97470719D01*
X102224624Y-97494419D01*
X102225800Y-97518350D01*
X102225800Y-98006650D01*
X102224624Y-98030581D01*
X102221109Y-98054281D01*
X102215287Y-98077523D01*
X102207215Y-98100082D01*
X102196971Y-98121742D01*
X102184653Y-98142292D01*
X102170381Y-98161537D01*
X102154290Y-98179290D01*
X102136537Y-98195381D01*
X102117292Y-98209653D01*
X102096742Y-98221971D01*
X102075082Y-98232215D01*
X102052523Y-98240287D01*
X102029281Y-98246109D01*
X102005581Y-98249624D01*
X101981650Y-98250800D01*
X101418350Y-98250800D01*
X101394419Y-98249624D01*
X101370719Y-98246109D01*
X101347477Y-98240287D01*
X101324918Y-98232215D01*
X101303258Y-98221971D01*
X101282708Y-98209653D01*
X101263463Y-98195381D01*
X101245710Y-98179290D01*
X101229619Y-98161537D01*
X101215347Y-98142292D01*
X101203029Y-98121742D01*
X101192785Y-98100082D01*
X101184713Y-98077523D01*
X101178891Y-98054281D01*
X101175376Y-98030581D01*
X101174200Y-98006650D01*
X101174200Y-97518350D01*
X101175376Y-97494419D01*
X101178891Y-97470719D01*
X101184713Y-97447477D01*
X101192785Y-97424918D01*
X101203029Y-97403258D01*
X101215347Y-97382708D01*
X101229619Y-97363463D01*
X101245710Y-97345710D01*
X101263463Y-97329619D01*
X101282708Y-97315347D01*
X101303258Y-97303029D01*
X101324918Y-97292785D01*
X101347477Y-97284713D01*
X101370719Y-97278891D01*
X101394419Y-97275376D01*
X101418350Y-97274200D01*
X101981650Y-97274200D01*
X102005581Y-97275376D01*
X102005581Y-97275376D01*
G37*
D12*
X101700000Y-97762500D03*
D11*
G36*
X102005581Y-98850376D02*
G01*
X102029281Y-98853891D01*
X102052523Y-98859713D01*
X102075082Y-98867785D01*
X102096742Y-98878029D01*
X102117292Y-98890347D01*
X102136537Y-98904619D01*
X102154290Y-98920710D01*
X102170381Y-98938463D01*
X102184653Y-98957708D01*
X102196971Y-98978258D01*
X102207215Y-98999918D01*
X102215287Y-99022477D01*
X102221109Y-99045719D01*
X102224624Y-99069419D01*
X102225800Y-99093350D01*
X102225800Y-99581650D01*
X102224624Y-99605581D01*
X102221109Y-99629281D01*
X102215287Y-99652523D01*
X102207215Y-99675082D01*
X102196971Y-99696742D01*
X102184653Y-99717292D01*
X102170381Y-99736537D01*
X102154290Y-99754290D01*
X102136537Y-99770381D01*
X102117292Y-99784653D01*
X102096742Y-99796971D01*
X102075082Y-99807215D01*
X102052523Y-99815287D01*
X102029281Y-99821109D01*
X102005581Y-99824624D01*
X101981650Y-99825800D01*
X101418350Y-99825800D01*
X101394419Y-99824624D01*
X101370719Y-99821109D01*
X101347477Y-99815287D01*
X101324918Y-99807215D01*
X101303258Y-99796971D01*
X101282708Y-99784653D01*
X101263463Y-99770381D01*
X101245710Y-99754290D01*
X101229619Y-99736537D01*
X101215347Y-99717292D01*
X101203029Y-99696742D01*
X101192785Y-99675082D01*
X101184713Y-99652523D01*
X101178891Y-99629281D01*
X101175376Y-99605581D01*
X101174200Y-99581650D01*
X101174200Y-99093350D01*
X101175376Y-99069419D01*
X101178891Y-99045719D01*
X101184713Y-99022477D01*
X101192785Y-98999918D01*
X101203029Y-98978258D01*
X101215347Y-98957708D01*
X101229619Y-98938463D01*
X101245710Y-98920710D01*
X101263463Y-98904619D01*
X101282708Y-98890347D01*
X101303258Y-98878029D01*
X101324918Y-98867785D01*
X101347477Y-98859713D01*
X101370719Y-98853891D01*
X101394419Y-98850376D01*
X101418350Y-98849200D01*
X101981650Y-98849200D01*
X102005581Y-98850376D01*
X102005581Y-98850376D01*
G37*
D12*
X101700000Y-99337500D03*
D11*
G36*
X133805581Y-92850376D02*
G01*
X133829281Y-92853891D01*
X133852523Y-92859713D01*
X133875082Y-92867785D01*
X133896742Y-92878029D01*
X133917292Y-92890347D01*
X133936537Y-92904619D01*
X133954290Y-92920710D01*
X133970381Y-92938463D01*
X133984653Y-92957708D01*
X133996971Y-92978258D01*
X134007215Y-92999918D01*
X134015287Y-93022477D01*
X134021109Y-93045719D01*
X134024624Y-93069419D01*
X134025800Y-93093350D01*
X134025800Y-93656650D01*
X134024624Y-93680581D01*
X134021109Y-93704281D01*
X134015287Y-93727523D01*
X134007215Y-93750082D01*
X133996971Y-93771742D01*
X133984653Y-93792292D01*
X133970381Y-93811537D01*
X133954290Y-93829290D01*
X133936537Y-93845381D01*
X133917292Y-93859653D01*
X133896742Y-93871971D01*
X133875082Y-93882215D01*
X133852523Y-93890287D01*
X133829281Y-93896109D01*
X133805581Y-93899624D01*
X133781650Y-93900800D01*
X133293350Y-93900800D01*
X133269419Y-93899624D01*
X133245719Y-93896109D01*
X133222477Y-93890287D01*
X133199918Y-93882215D01*
X133178258Y-93871971D01*
X133157708Y-93859653D01*
X133138463Y-93845381D01*
X133120710Y-93829290D01*
X133104619Y-93811537D01*
X133090347Y-93792292D01*
X133078029Y-93771742D01*
X133067785Y-93750082D01*
X133059713Y-93727523D01*
X133053891Y-93704281D01*
X133050376Y-93680581D01*
X133049200Y-93656650D01*
X133049200Y-93093350D01*
X133050376Y-93069419D01*
X133053891Y-93045719D01*
X133059713Y-93022477D01*
X133067785Y-92999918D01*
X133078029Y-92978258D01*
X133090347Y-92957708D01*
X133104619Y-92938463D01*
X133120710Y-92920710D01*
X133138463Y-92904619D01*
X133157708Y-92890347D01*
X133178258Y-92878029D01*
X133199918Y-92867785D01*
X133222477Y-92859713D01*
X133245719Y-92853891D01*
X133269419Y-92850376D01*
X133293350Y-92849200D01*
X133781650Y-92849200D01*
X133805581Y-92850376D01*
X133805581Y-92850376D01*
G37*
D12*
X133537500Y-93375000D03*
D11*
G36*
X132230581Y-92850376D02*
G01*
X132254281Y-92853891D01*
X132277523Y-92859713D01*
X132300082Y-92867785D01*
X132321742Y-92878029D01*
X132342292Y-92890347D01*
X132361537Y-92904619D01*
X132379290Y-92920710D01*
X132395381Y-92938463D01*
X132409653Y-92957708D01*
X132421971Y-92978258D01*
X132432215Y-92999918D01*
X132440287Y-93022477D01*
X132446109Y-93045719D01*
X132449624Y-93069419D01*
X132450800Y-93093350D01*
X132450800Y-93656650D01*
X132449624Y-93680581D01*
X132446109Y-93704281D01*
X132440287Y-93727523D01*
X132432215Y-93750082D01*
X132421971Y-93771742D01*
X132409653Y-93792292D01*
X132395381Y-93811537D01*
X132379290Y-93829290D01*
X132361537Y-93845381D01*
X132342292Y-93859653D01*
X132321742Y-93871971D01*
X132300082Y-93882215D01*
X132277523Y-93890287D01*
X132254281Y-93896109D01*
X132230581Y-93899624D01*
X132206650Y-93900800D01*
X131718350Y-93900800D01*
X131694419Y-93899624D01*
X131670719Y-93896109D01*
X131647477Y-93890287D01*
X131624918Y-93882215D01*
X131603258Y-93871971D01*
X131582708Y-93859653D01*
X131563463Y-93845381D01*
X131545710Y-93829290D01*
X131529619Y-93811537D01*
X131515347Y-93792292D01*
X131503029Y-93771742D01*
X131492785Y-93750082D01*
X131484713Y-93727523D01*
X131478891Y-93704281D01*
X131475376Y-93680581D01*
X131474200Y-93656650D01*
X131474200Y-93093350D01*
X131475376Y-93069419D01*
X131478891Y-93045719D01*
X131484713Y-93022477D01*
X131492785Y-92999918D01*
X131503029Y-92978258D01*
X131515347Y-92957708D01*
X131529619Y-92938463D01*
X131545710Y-92920710D01*
X131563463Y-92904619D01*
X131582708Y-92890347D01*
X131603258Y-92878029D01*
X131624918Y-92867785D01*
X131647477Y-92859713D01*
X131670719Y-92853891D01*
X131694419Y-92850376D01*
X131718350Y-92849200D01*
X132206650Y-92849200D01*
X132230581Y-92850376D01*
X132230581Y-92850376D01*
G37*
D12*
X131962500Y-93375000D03*
D11*
G36*
X133130581Y-106150376D02*
G01*
X133154281Y-106153891D01*
X133177523Y-106159713D01*
X133200082Y-106167785D01*
X133221742Y-106178029D01*
X133242292Y-106190347D01*
X133261537Y-106204619D01*
X133279290Y-106220710D01*
X133295381Y-106238463D01*
X133309653Y-106257708D01*
X133321971Y-106278258D01*
X133332215Y-106299918D01*
X133340287Y-106322477D01*
X133346109Y-106345719D01*
X133349624Y-106369419D01*
X133350800Y-106393350D01*
X133350800Y-106956650D01*
X133349624Y-106980581D01*
X133346109Y-107004281D01*
X133340287Y-107027523D01*
X133332215Y-107050082D01*
X133321971Y-107071742D01*
X133309653Y-107092292D01*
X133295381Y-107111537D01*
X133279290Y-107129290D01*
X133261537Y-107145381D01*
X133242292Y-107159653D01*
X133221742Y-107171971D01*
X133200082Y-107182215D01*
X133177523Y-107190287D01*
X133154281Y-107196109D01*
X133130581Y-107199624D01*
X133106650Y-107200800D01*
X132618350Y-107200800D01*
X132594419Y-107199624D01*
X132570719Y-107196109D01*
X132547477Y-107190287D01*
X132524918Y-107182215D01*
X132503258Y-107171971D01*
X132482708Y-107159653D01*
X132463463Y-107145381D01*
X132445710Y-107129290D01*
X132429619Y-107111537D01*
X132415347Y-107092292D01*
X132403029Y-107071742D01*
X132392785Y-107050082D01*
X132384713Y-107027523D01*
X132378891Y-107004281D01*
X132375376Y-106980581D01*
X132374200Y-106956650D01*
X132374200Y-106393350D01*
X132375376Y-106369419D01*
X132378891Y-106345719D01*
X132384713Y-106322477D01*
X132392785Y-106299918D01*
X132403029Y-106278258D01*
X132415347Y-106257708D01*
X132429619Y-106238463D01*
X132445710Y-106220710D01*
X132463463Y-106204619D01*
X132482708Y-106190347D01*
X132503258Y-106178029D01*
X132524918Y-106167785D01*
X132547477Y-106159713D01*
X132570719Y-106153891D01*
X132594419Y-106150376D01*
X132618350Y-106149200D01*
X133106650Y-106149200D01*
X133130581Y-106150376D01*
X133130581Y-106150376D01*
G37*
D12*
X132862500Y-106675000D03*
D11*
G36*
X131555581Y-106150376D02*
G01*
X131579281Y-106153891D01*
X131602523Y-106159713D01*
X131625082Y-106167785D01*
X131646742Y-106178029D01*
X131667292Y-106190347D01*
X131686537Y-106204619D01*
X131704290Y-106220710D01*
X131720381Y-106238463D01*
X131734653Y-106257708D01*
X131746971Y-106278258D01*
X131757215Y-106299918D01*
X131765287Y-106322477D01*
X131771109Y-106345719D01*
X131774624Y-106369419D01*
X131775800Y-106393350D01*
X131775800Y-106956650D01*
X131774624Y-106980581D01*
X131771109Y-107004281D01*
X131765287Y-107027523D01*
X131757215Y-107050082D01*
X131746971Y-107071742D01*
X131734653Y-107092292D01*
X131720381Y-107111537D01*
X131704290Y-107129290D01*
X131686537Y-107145381D01*
X131667292Y-107159653D01*
X131646742Y-107171971D01*
X131625082Y-107182215D01*
X131602523Y-107190287D01*
X131579281Y-107196109D01*
X131555581Y-107199624D01*
X131531650Y-107200800D01*
X131043350Y-107200800D01*
X131019419Y-107199624D01*
X130995719Y-107196109D01*
X130972477Y-107190287D01*
X130949918Y-107182215D01*
X130928258Y-107171971D01*
X130907708Y-107159653D01*
X130888463Y-107145381D01*
X130870710Y-107129290D01*
X130854619Y-107111537D01*
X130840347Y-107092292D01*
X130828029Y-107071742D01*
X130817785Y-107050082D01*
X130809713Y-107027523D01*
X130803891Y-107004281D01*
X130800376Y-106980581D01*
X130799200Y-106956650D01*
X130799200Y-106393350D01*
X130800376Y-106369419D01*
X130803891Y-106345719D01*
X130809713Y-106322477D01*
X130817785Y-106299918D01*
X130828029Y-106278258D01*
X130840347Y-106257708D01*
X130854619Y-106238463D01*
X130870710Y-106220710D01*
X130888463Y-106204619D01*
X130907708Y-106190347D01*
X130928258Y-106178029D01*
X130949918Y-106167785D01*
X130972477Y-106159713D01*
X130995719Y-106153891D01*
X131019419Y-106150376D01*
X131043350Y-106149200D01*
X131531650Y-106149200D01*
X131555581Y-106150376D01*
X131555581Y-106150376D01*
G37*
D12*
X131287500Y-106675000D03*
D11*
G36*
X128505581Y-106150376D02*
G01*
X128529281Y-106153891D01*
X128552523Y-106159713D01*
X128575082Y-106167785D01*
X128596742Y-106178029D01*
X128617292Y-106190347D01*
X128636537Y-106204619D01*
X128654290Y-106220710D01*
X128670381Y-106238463D01*
X128684653Y-106257708D01*
X128696971Y-106278258D01*
X128707215Y-106299918D01*
X128715287Y-106322477D01*
X128721109Y-106345719D01*
X128724624Y-106369419D01*
X128725800Y-106393350D01*
X128725800Y-106956650D01*
X128724624Y-106980581D01*
X128721109Y-107004281D01*
X128715287Y-107027523D01*
X128707215Y-107050082D01*
X128696971Y-107071742D01*
X128684653Y-107092292D01*
X128670381Y-107111537D01*
X128654290Y-107129290D01*
X128636537Y-107145381D01*
X128617292Y-107159653D01*
X128596742Y-107171971D01*
X128575082Y-107182215D01*
X128552523Y-107190287D01*
X128529281Y-107196109D01*
X128505581Y-107199624D01*
X128481650Y-107200800D01*
X127993350Y-107200800D01*
X127969419Y-107199624D01*
X127945719Y-107196109D01*
X127922477Y-107190287D01*
X127899918Y-107182215D01*
X127878258Y-107171971D01*
X127857708Y-107159653D01*
X127838463Y-107145381D01*
X127820710Y-107129290D01*
X127804619Y-107111537D01*
X127790347Y-107092292D01*
X127778029Y-107071742D01*
X127767785Y-107050082D01*
X127759713Y-107027523D01*
X127753891Y-107004281D01*
X127750376Y-106980581D01*
X127749200Y-106956650D01*
X127749200Y-106393350D01*
X127750376Y-106369419D01*
X127753891Y-106345719D01*
X127759713Y-106322477D01*
X127767785Y-106299918D01*
X127778029Y-106278258D01*
X127790347Y-106257708D01*
X127804619Y-106238463D01*
X127820710Y-106220710D01*
X127838463Y-106204619D01*
X127857708Y-106190347D01*
X127878258Y-106178029D01*
X127899918Y-106167785D01*
X127922477Y-106159713D01*
X127945719Y-106153891D01*
X127969419Y-106150376D01*
X127993350Y-106149200D01*
X128481650Y-106149200D01*
X128505581Y-106150376D01*
X128505581Y-106150376D01*
G37*
D12*
X128237500Y-106675000D03*
D11*
G36*
X130080581Y-106150376D02*
G01*
X130104281Y-106153891D01*
X130127523Y-106159713D01*
X130150082Y-106167785D01*
X130171742Y-106178029D01*
X130192292Y-106190347D01*
X130211537Y-106204619D01*
X130229290Y-106220710D01*
X130245381Y-106238463D01*
X130259653Y-106257708D01*
X130271971Y-106278258D01*
X130282215Y-106299918D01*
X130290287Y-106322477D01*
X130296109Y-106345719D01*
X130299624Y-106369419D01*
X130300800Y-106393350D01*
X130300800Y-106956650D01*
X130299624Y-106980581D01*
X130296109Y-107004281D01*
X130290287Y-107027523D01*
X130282215Y-107050082D01*
X130271971Y-107071742D01*
X130259653Y-107092292D01*
X130245381Y-107111537D01*
X130229290Y-107129290D01*
X130211537Y-107145381D01*
X130192292Y-107159653D01*
X130171742Y-107171971D01*
X130150082Y-107182215D01*
X130127523Y-107190287D01*
X130104281Y-107196109D01*
X130080581Y-107199624D01*
X130056650Y-107200800D01*
X129568350Y-107200800D01*
X129544419Y-107199624D01*
X129520719Y-107196109D01*
X129497477Y-107190287D01*
X129474918Y-107182215D01*
X129453258Y-107171971D01*
X129432708Y-107159653D01*
X129413463Y-107145381D01*
X129395710Y-107129290D01*
X129379619Y-107111537D01*
X129365347Y-107092292D01*
X129353029Y-107071742D01*
X129342785Y-107050082D01*
X129334713Y-107027523D01*
X129328891Y-107004281D01*
X129325376Y-106980581D01*
X129324200Y-106956650D01*
X129324200Y-106393350D01*
X129325376Y-106369419D01*
X129328891Y-106345719D01*
X129334713Y-106322477D01*
X129342785Y-106299918D01*
X129353029Y-106278258D01*
X129365347Y-106257708D01*
X129379619Y-106238463D01*
X129395710Y-106220710D01*
X129413463Y-106204619D01*
X129432708Y-106190347D01*
X129453258Y-106178029D01*
X129474918Y-106167785D01*
X129497477Y-106159713D01*
X129520719Y-106153891D01*
X129544419Y-106150376D01*
X129568350Y-106149200D01*
X130056650Y-106149200D01*
X130080581Y-106150376D01*
X130080581Y-106150376D01*
G37*
D12*
X129812500Y-106675000D03*
D11*
G36*
X121530581Y-102425376D02*
G01*
X121554281Y-102428891D01*
X121577523Y-102434713D01*
X121600082Y-102442785D01*
X121621742Y-102453029D01*
X121642292Y-102465347D01*
X121661537Y-102479619D01*
X121679290Y-102495710D01*
X121695381Y-102513463D01*
X121709653Y-102532708D01*
X121721971Y-102553258D01*
X121732215Y-102574918D01*
X121740287Y-102597477D01*
X121746109Y-102620719D01*
X121749624Y-102644419D01*
X121750800Y-102668350D01*
X121750800Y-103231650D01*
X121749624Y-103255581D01*
X121746109Y-103279281D01*
X121740287Y-103302523D01*
X121732215Y-103325082D01*
X121721971Y-103346742D01*
X121709653Y-103367292D01*
X121695381Y-103386537D01*
X121679290Y-103404290D01*
X121661537Y-103420381D01*
X121642292Y-103434653D01*
X121621742Y-103446971D01*
X121600082Y-103457215D01*
X121577523Y-103465287D01*
X121554281Y-103471109D01*
X121530581Y-103474624D01*
X121506650Y-103475800D01*
X121018350Y-103475800D01*
X120994419Y-103474624D01*
X120970719Y-103471109D01*
X120947477Y-103465287D01*
X120924918Y-103457215D01*
X120903258Y-103446971D01*
X120882708Y-103434653D01*
X120863463Y-103420381D01*
X120845710Y-103404290D01*
X120829619Y-103386537D01*
X120815347Y-103367292D01*
X120803029Y-103346742D01*
X120792785Y-103325082D01*
X120784713Y-103302523D01*
X120778891Y-103279281D01*
X120775376Y-103255581D01*
X120774200Y-103231650D01*
X120774200Y-102668350D01*
X120775376Y-102644419D01*
X120778891Y-102620719D01*
X120784713Y-102597477D01*
X120792785Y-102574918D01*
X120803029Y-102553258D01*
X120815347Y-102532708D01*
X120829619Y-102513463D01*
X120845710Y-102495710D01*
X120863463Y-102479619D01*
X120882708Y-102465347D01*
X120903258Y-102453029D01*
X120924918Y-102442785D01*
X120947477Y-102434713D01*
X120970719Y-102428891D01*
X120994419Y-102425376D01*
X121018350Y-102424200D01*
X121506650Y-102424200D01*
X121530581Y-102425376D01*
X121530581Y-102425376D01*
G37*
D12*
X121262500Y-102950000D03*
D11*
G36*
X119955581Y-102425376D02*
G01*
X119979281Y-102428891D01*
X120002523Y-102434713D01*
X120025082Y-102442785D01*
X120046742Y-102453029D01*
X120067292Y-102465347D01*
X120086537Y-102479619D01*
X120104290Y-102495710D01*
X120120381Y-102513463D01*
X120134653Y-102532708D01*
X120146971Y-102553258D01*
X120157215Y-102574918D01*
X120165287Y-102597477D01*
X120171109Y-102620719D01*
X120174624Y-102644419D01*
X120175800Y-102668350D01*
X120175800Y-103231650D01*
X120174624Y-103255581D01*
X120171109Y-103279281D01*
X120165287Y-103302523D01*
X120157215Y-103325082D01*
X120146971Y-103346742D01*
X120134653Y-103367292D01*
X120120381Y-103386537D01*
X120104290Y-103404290D01*
X120086537Y-103420381D01*
X120067292Y-103434653D01*
X120046742Y-103446971D01*
X120025082Y-103457215D01*
X120002523Y-103465287D01*
X119979281Y-103471109D01*
X119955581Y-103474624D01*
X119931650Y-103475800D01*
X119443350Y-103475800D01*
X119419419Y-103474624D01*
X119395719Y-103471109D01*
X119372477Y-103465287D01*
X119349918Y-103457215D01*
X119328258Y-103446971D01*
X119307708Y-103434653D01*
X119288463Y-103420381D01*
X119270710Y-103404290D01*
X119254619Y-103386537D01*
X119240347Y-103367292D01*
X119228029Y-103346742D01*
X119217785Y-103325082D01*
X119209713Y-103302523D01*
X119203891Y-103279281D01*
X119200376Y-103255581D01*
X119199200Y-103231650D01*
X119199200Y-102668350D01*
X119200376Y-102644419D01*
X119203891Y-102620719D01*
X119209713Y-102597477D01*
X119217785Y-102574918D01*
X119228029Y-102553258D01*
X119240347Y-102532708D01*
X119254619Y-102513463D01*
X119270710Y-102495710D01*
X119288463Y-102479619D01*
X119307708Y-102465347D01*
X119328258Y-102453029D01*
X119349918Y-102442785D01*
X119372477Y-102434713D01*
X119395719Y-102428891D01*
X119419419Y-102425376D01*
X119443350Y-102424200D01*
X119931650Y-102424200D01*
X119955581Y-102425376D01*
X119955581Y-102425376D01*
G37*
D12*
X119687500Y-102950000D03*
D11*
G36*
X118005581Y-102425376D02*
G01*
X118029281Y-102428891D01*
X118052523Y-102434713D01*
X118075082Y-102442785D01*
X118096742Y-102453029D01*
X118117292Y-102465347D01*
X118136537Y-102479619D01*
X118154290Y-102495710D01*
X118170381Y-102513463D01*
X118184653Y-102532708D01*
X118196971Y-102553258D01*
X118207215Y-102574918D01*
X118215287Y-102597477D01*
X118221109Y-102620719D01*
X118224624Y-102644419D01*
X118225800Y-102668350D01*
X118225800Y-103231650D01*
X118224624Y-103255581D01*
X118221109Y-103279281D01*
X118215287Y-103302523D01*
X118207215Y-103325082D01*
X118196971Y-103346742D01*
X118184653Y-103367292D01*
X118170381Y-103386537D01*
X118154290Y-103404290D01*
X118136537Y-103420381D01*
X118117292Y-103434653D01*
X118096742Y-103446971D01*
X118075082Y-103457215D01*
X118052523Y-103465287D01*
X118029281Y-103471109D01*
X118005581Y-103474624D01*
X117981650Y-103475800D01*
X117493350Y-103475800D01*
X117469419Y-103474624D01*
X117445719Y-103471109D01*
X117422477Y-103465287D01*
X117399918Y-103457215D01*
X117378258Y-103446971D01*
X117357708Y-103434653D01*
X117338463Y-103420381D01*
X117320710Y-103404290D01*
X117304619Y-103386537D01*
X117290347Y-103367292D01*
X117278029Y-103346742D01*
X117267785Y-103325082D01*
X117259713Y-103302523D01*
X117253891Y-103279281D01*
X117250376Y-103255581D01*
X117249200Y-103231650D01*
X117249200Y-102668350D01*
X117250376Y-102644419D01*
X117253891Y-102620719D01*
X117259713Y-102597477D01*
X117267785Y-102574918D01*
X117278029Y-102553258D01*
X117290347Y-102532708D01*
X117304619Y-102513463D01*
X117320710Y-102495710D01*
X117338463Y-102479619D01*
X117357708Y-102465347D01*
X117378258Y-102453029D01*
X117399918Y-102442785D01*
X117422477Y-102434713D01*
X117445719Y-102428891D01*
X117469419Y-102425376D01*
X117493350Y-102424200D01*
X117981650Y-102424200D01*
X118005581Y-102425376D01*
X118005581Y-102425376D01*
G37*
D12*
X117737500Y-102950000D03*
D11*
G36*
X116430581Y-102425376D02*
G01*
X116454281Y-102428891D01*
X116477523Y-102434713D01*
X116500082Y-102442785D01*
X116521742Y-102453029D01*
X116542292Y-102465347D01*
X116561537Y-102479619D01*
X116579290Y-102495710D01*
X116595381Y-102513463D01*
X116609653Y-102532708D01*
X116621971Y-102553258D01*
X116632215Y-102574918D01*
X116640287Y-102597477D01*
X116646109Y-102620719D01*
X116649624Y-102644419D01*
X116650800Y-102668350D01*
X116650800Y-103231650D01*
X116649624Y-103255581D01*
X116646109Y-103279281D01*
X116640287Y-103302523D01*
X116632215Y-103325082D01*
X116621971Y-103346742D01*
X116609653Y-103367292D01*
X116595381Y-103386537D01*
X116579290Y-103404290D01*
X116561537Y-103420381D01*
X116542292Y-103434653D01*
X116521742Y-103446971D01*
X116500082Y-103457215D01*
X116477523Y-103465287D01*
X116454281Y-103471109D01*
X116430581Y-103474624D01*
X116406650Y-103475800D01*
X115918350Y-103475800D01*
X115894419Y-103474624D01*
X115870719Y-103471109D01*
X115847477Y-103465287D01*
X115824918Y-103457215D01*
X115803258Y-103446971D01*
X115782708Y-103434653D01*
X115763463Y-103420381D01*
X115745710Y-103404290D01*
X115729619Y-103386537D01*
X115715347Y-103367292D01*
X115703029Y-103346742D01*
X115692785Y-103325082D01*
X115684713Y-103302523D01*
X115678891Y-103279281D01*
X115675376Y-103255581D01*
X115674200Y-103231650D01*
X115674200Y-102668350D01*
X115675376Y-102644419D01*
X115678891Y-102620719D01*
X115684713Y-102597477D01*
X115692785Y-102574918D01*
X115703029Y-102553258D01*
X115715347Y-102532708D01*
X115729619Y-102513463D01*
X115745710Y-102495710D01*
X115763463Y-102479619D01*
X115782708Y-102465347D01*
X115803258Y-102453029D01*
X115824918Y-102442785D01*
X115847477Y-102434713D01*
X115870719Y-102428891D01*
X115894419Y-102425376D01*
X115918350Y-102424200D01*
X116406650Y-102424200D01*
X116430581Y-102425376D01*
X116430581Y-102425376D01*
G37*
D12*
X116162500Y-102950000D03*
D11*
G36*
X85605581Y-101870376D02*
G01*
X85629281Y-101873891D01*
X85652523Y-101879713D01*
X85675082Y-101887785D01*
X85696742Y-101898029D01*
X85717292Y-101910347D01*
X85736537Y-101924619D01*
X85754290Y-101940710D01*
X85770381Y-101958463D01*
X85784653Y-101977708D01*
X85796971Y-101998258D01*
X85807215Y-102019918D01*
X85815287Y-102042477D01*
X85821109Y-102065719D01*
X85824624Y-102089419D01*
X85825800Y-102113350D01*
X85825800Y-102676650D01*
X85824624Y-102700581D01*
X85821109Y-102724281D01*
X85815287Y-102747523D01*
X85807215Y-102770082D01*
X85796971Y-102791742D01*
X85784653Y-102812292D01*
X85770381Y-102831537D01*
X85754290Y-102849290D01*
X85736537Y-102865381D01*
X85717292Y-102879653D01*
X85696742Y-102891971D01*
X85675082Y-102902215D01*
X85652523Y-102910287D01*
X85629281Y-102916109D01*
X85605581Y-102919624D01*
X85581650Y-102920800D01*
X85093350Y-102920800D01*
X85069419Y-102919624D01*
X85045719Y-102916109D01*
X85022477Y-102910287D01*
X84999918Y-102902215D01*
X84978258Y-102891971D01*
X84957708Y-102879653D01*
X84938463Y-102865381D01*
X84920710Y-102849290D01*
X84904619Y-102831537D01*
X84890347Y-102812292D01*
X84878029Y-102791742D01*
X84867785Y-102770082D01*
X84859713Y-102747523D01*
X84853891Y-102724281D01*
X84850376Y-102700581D01*
X84849200Y-102676650D01*
X84849200Y-102113350D01*
X84850376Y-102089419D01*
X84853891Y-102065719D01*
X84859713Y-102042477D01*
X84867785Y-102019918D01*
X84878029Y-101998258D01*
X84890347Y-101977708D01*
X84904619Y-101958463D01*
X84920710Y-101940710D01*
X84938463Y-101924619D01*
X84957708Y-101910347D01*
X84978258Y-101898029D01*
X84999918Y-101887785D01*
X85022477Y-101879713D01*
X85045719Y-101873891D01*
X85069419Y-101870376D01*
X85093350Y-101869200D01*
X85581650Y-101869200D01*
X85605581Y-101870376D01*
X85605581Y-101870376D01*
G37*
D12*
X85337500Y-102395000D03*
D11*
G36*
X87180581Y-101870376D02*
G01*
X87204281Y-101873891D01*
X87227523Y-101879713D01*
X87250082Y-101887785D01*
X87271742Y-101898029D01*
X87292292Y-101910347D01*
X87311537Y-101924619D01*
X87329290Y-101940710D01*
X87345381Y-101958463D01*
X87359653Y-101977708D01*
X87371971Y-101998258D01*
X87382215Y-102019918D01*
X87390287Y-102042477D01*
X87396109Y-102065719D01*
X87399624Y-102089419D01*
X87400800Y-102113350D01*
X87400800Y-102676650D01*
X87399624Y-102700581D01*
X87396109Y-102724281D01*
X87390287Y-102747523D01*
X87382215Y-102770082D01*
X87371971Y-102791742D01*
X87359653Y-102812292D01*
X87345381Y-102831537D01*
X87329290Y-102849290D01*
X87311537Y-102865381D01*
X87292292Y-102879653D01*
X87271742Y-102891971D01*
X87250082Y-102902215D01*
X87227523Y-102910287D01*
X87204281Y-102916109D01*
X87180581Y-102919624D01*
X87156650Y-102920800D01*
X86668350Y-102920800D01*
X86644419Y-102919624D01*
X86620719Y-102916109D01*
X86597477Y-102910287D01*
X86574918Y-102902215D01*
X86553258Y-102891971D01*
X86532708Y-102879653D01*
X86513463Y-102865381D01*
X86495710Y-102849290D01*
X86479619Y-102831537D01*
X86465347Y-102812292D01*
X86453029Y-102791742D01*
X86442785Y-102770082D01*
X86434713Y-102747523D01*
X86428891Y-102724281D01*
X86425376Y-102700581D01*
X86424200Y-102676650D01*
X86424200Y-102113350D01*
X86425376Y-102089419D01*
X86428891Y-102065719D01*
X86434713Y-102042477D01*
X86442785Y-102019918D01*
X86453029Y-101998258D01*
X86465347Y-101977708D01*
X86479619Y-101958463D01*
X86495710Y-101940710D01*
X86513463Y-101924619D01*
X86532708Y-101910347D01*
X86553258Y-101898029D01*
X86574918Y-101887785D01*
X86597477Y-101879713D01*
X86620719Y-101873891D01*
X86644419Y-101870376D01*
X86668350Y-101869200D01*
X87156650Y-101869200D01*
X87180581Y-101870376D01*
X87180581Y-101870376D01*
G37*
D12*
X86912500Y-102395000D03*
D11*
G36*
X119805581Y-97475376D02*
G01*
X119829281Y-97478891D01*
X119852523Y-97484713D01*
X119875082Y-97492785D01*
X119896742Y-97503029D01*
X119917292Y-97515347D01*
X119936537Y-97529619D01*
X119954290Y-97545710D01*
X119970381Y-97563463D01*
X119984653Y-97582708D01*
X119996971Y-97603258D01*
X120007215Y-97624918D01*
X120015287Y-97647477D01*
X120021109Y-97670719D01*
X120024624Y-97694419D01*
X120025800Y-97718350D01*
X120025800Y-98281650D01*
X120024624Y-98305581D01*
X120021109Y-98329281D01*
X120015287Y-98352523D01*
X120007215Y-98375082D01*
X119996971Y-98396742D01*
X119984653Y-98417292D01*
X119970381Y-98436537D01*
X119954290Y-98454290D01*
X119936537Y-98470381D01*
X119917292Y-98484653D01*
X119896742Y-98496971D01*
X119875082Y-98507215D01*
X119852523Y-98515287D01*
X119829281Y-98521109D01*
X119805581Y-98524624D01*
X119781650Y-98525800D01*
X119293350Y-98525800D01*
X119269419Y-98524624D01*
X119245719Y-98521109D01*
X119222477Y-98515287D01*
X119199918Y-98507215D01*
X119178258Y-98496971D01*
X119157708Y-98484653D01*
X119138463Y-98470381D01*
X119120710Y-98454290D01*
X119104619Y-98436537D01*
X119090347Y-98417292D01*
X119078029Y-98396742D01*
X119067785Y-98375082D01*
X119059713Y-98352523D01*
X119053891Y-98329281D01*
X119050376Y-98305581D01*
X119049200Y-98281650D01*
X119049200Y-97718350D01*
X119050376Y-97694419D01*
X119053891Y-97670719D01*
X119059713Y-97647477D01*
X119067785Y-97624918D01*
X119078029Y-97603258D01*
X119090347Y-97582708D01*
X119104619Y-97563463D01*
X119120710Y-97545710D01*
X119138463Y-97529619D01*
X119157708Y-97515347D01*
X119178258Y-97503029D01*
X119199918Y-97492785D01*
X119222477Y-97484713D01*
X119245719Y-97478891D01*
X119269419Y-97475376D01*
X119293350Y-97474200D01*
X119781650Y-97474200D01*
X119805581Y-97475376D01*
X119805581Y-97475376D01*
G37*
D12*
X119537500Y-98000000D03*
D11*
G36*
X121380581Y-97475376D02*
G01*
X121404281Y-97478891D01*
X121427523Y-97484713D01*
X121450082Y-97492785D01*
X121471742Y-97503029D01*
X121492292Y-97515347D01*
X121511537Y-97529619D01*
X121529290Y-97545710D01*
X121545381Y-97563463D01*
X121559653Y-97582708D01*
X121571971Y-97603258D01*
X121582215Y-97624918D01*
X121590287Y-97647477D01*
X121596109Y-97670719D01*
X121599624Y-97694419D01*
X121600800Y-97718350D01*
X121600800Y-98281650D01*
X121599624Y-98305581D01*
X121596109Y-98329281D01*
X121590287Y-98352523D01*
X121582215Y-98375082D01*
X121571971Y-98396742D01*
X121559653Y-98417292D01*
X121545381Y-98436537D01*
X121529290Y-98454290D01*
X121511537Y-98470381D01*
X121492292Y-98484653D01*
X121471742Y-98496971D01*
X121450082Y-98507215D01*
X121427523Y-98515287D01*
X121404281Y-98521109D01*
X121380581Y-98524624D01*
X121356650Y-98525800D01*
X120868350Y-98525800D01*
X120844419Y-98524624D01*
X120820719Y-98521109D01*
X120797477Y-98515287D01*
X120774918Y-98507215D01*
X120753258Y-98496971D01*
X120732708Y-98484653D01*
X120713463Y-98470381D01*
X120695710Y-98454290D01*
X120679619Y-98436537D01*
X120665347Y-98417292D01*
X120653029Y-98396742D01*
X120642785Y-98375082D01*
X120634713Y-98352523D01*
X120628891Y-98329281D01*
X120625376Y-98305581D01*
X120624200Y-98281650D01*
X120624200Y-97718350D01*
X120625376Y-97694419D01*
X120628891Y-97670719D01*
X120634713Y-97647477D01*
X120642785Y-97624918D01*
X120653029Y-97603258D01*
X120665347Y-97582708D01*
X120679619Y-97563463D01*
X120695710Y-97545710D01*
X120713463Y-97529619D01*
X120732708Y-97515347D01*
X120753258Y-97503029D01*
X120774918Y-97492785D01*
X120797477Y-97484713D01*
X120820719Y-97478891D01*
X120844419Y-97475376D01*
X120868350Y-97474200D01*
X121356650Y-97474200D01*
X121380581Y-97475376D01*
X121380581Y-97475376D01*
G37*
D12*
X121112500Y-98000000D03*
D11*
G36*
X116205581Y-97475376D02*
G01*
X116229281Y-97478891D01*
X116252523Y-97484713D01*
X116275082Y-97492785D01*
X116296742Y-97503029D01*
X116317292Y-97515347D01*
X116336537Y-97529619D01*
X116354290Y-97545710D01*
X116370381Y-97563463D01*
X116384653Y-97582708D01*
X116396971Y-97603258D01*
X116407215Y-97624918D01*
X116415287Y-97647477D01*
X116421109Y-97670719D01*
X116424624Y-97694419D01*
X116425800Y-97718350D01*
X116425800Y-98281650D01*
X116424624Y-98305581D01*
X116421109Y-98329281D01*
X116415287Y-98352523D01*
X116407215Y-98375082D01*
X116396971Y-98396742D01*
X116384653Y-98417292D01*
X116370381Y-98436537D01*
X116354290Y-98454290D01*
X116336537Y-98470381D01*
X116317292Y-98484653D01*
X116296742Y-98496971D01*
X116275082Y-98507215D01*
X116252523Y-98515287D01*
X116229281Y-98521109D01*
X116205581Y-98524624D01*
X116181650Y-98525800D01*
X115693350Y-98525800D01*
X115669419Y-98524624D01*
X115645719Y-98521109D01*
X115622477Y-98515287D01*
X115599918Y-98507215D01*
X115578258Y-98496971D01*
X115557708Y-98484653D01*
X115538463Y-98470381D01*
X115520710Y-98454290D01*
X115504619Y-98436537D01*
X115490347Y-98417292D01*
X115478029Y-98396742D01*
X115467785Y-98375082D01*
X115459713Y-98352523D01*
X115453891Y-98329281D01*
X115450376Y-98305581D01*
X115449200Y-98281650D01*
X115449200Y-97718350D01*
X115450376Y-97694419D01*
X115453891Y-97670719D01*
X115459713Y-97647477D01*
X115467785Y-97624918D01*
X115478029Y-97603258D01*
X115490347Y-97582708D01*
X115504619Y-97563463D01*
X115520710Y-97545710D01*
X115538463Y-97529619D01*
X115557708Y-97515347D01*
X115578258Y-97503029D01*
X115599918Y-97492785D01*
X115622477Y-97484713D01*
X115645719Y-97478891D01*
X115669419Y-97475376D01*
X115693350Y-97474200D01*
X116181650Y-97474200D01*
X116205581Y-97475376D01*
X116205581Y-97475376D01*
G37*
D12*
X115937500Y-98000000D03*
D11*
G36*
X117780581Y-97475376D02*
G01*
X117804281Y-97478891D01*
X117827523Y-97484713D01*
X117850082Y-97492785D01*
X117871742Y-97503029D01*
X117892292Y-97515347D01*
X117911537Y-97529619D01*
X117929290Y-97545710D01*
X117945381Y-97563463D01*
X117959653Y-97582708D01*
X117971971Y-97603258D01*
X117982215Y-97624918D01*
X117990287Y-97647477D01*
X117996109Y-97670719D01*
X117999624Y-97694419D01*
X118000800Y-97718350D01*
X118000800Y-98281650D01*
X117999624Y-98305581D01*
X117996109Y-98329281D01*
X117990287Y-98352523D01*
X117982215Y-98375082D01*
X117971971Y-98396742D01*
X117959653Y-98417292D01*
X117945381Y-98436537D01*
X117929290Y-98454290D01*
X117911537Y-98470381D01*
X117892292Y-98484653D01*
X117871742Y-98496971D01*
X117850082Y-98507215D01*
X117827523Y-98515287D01*
X117804281Y-98521109D01*
X117780581Y-98524624D01*
X117756650Y-98525800D01*
X117268350Y-98525800D01*
X117244419Y-98524624D01*
X117220719Y-98521109D01*
X117197477Y-98515287D01*
X117174918Y-98507215D01*
X117153258Y-98496971D01*
X117132708Y-98484653D01*
X117113463Y-98470381D01*
X117095710Y-98454290D01*
X117079619Y-98436537D01*
X117065347Y-98417292D01*
X117053029Y-98396742D01*
X117042785Y-98375082D01*
X117034713Y-98352523D01*
X117028891Y-98329281D01*
X117025376Y-98305581D01*
X117024200Y-98281650D01*
X117024200Y-97718350D01*
X117025376Y-97694419D01*
X117028891Y-97670719D01*
X117034713Y-97647477D01*
X117042785Y-97624918D01*
X117053029Y-97603258D01*
X117065347Y-97582708D01*
X117079619Y-97563463D01*
X117095710Y-97545710D01*
X117113463Y-97529619D01*
X117132708Y-97515347D01*
X117153258Y-97503029D01*
X117174918Y-97492785D01*
X117197477Y-97484713D01*
X117220719Y-97478891D01*
X117244419Y-97475376D01*
X117268350Y-97474200D01*
X117756650Y-97474200D01*
X117780581Y-97475376D01*
X117780581Y-97475376D01*
G37*
D12*
X117512500Y-98000000D03*
D11*
G36*
X114355581Y-102425376D02*
G01*
X114379281Y-102428891D01*
X114402523Y-102434713D01*
X114425082Y-102442785D01*
X114446742Y-102453029D01*
X114467292Y-102465347D01*
X114486537Y-102479619D01*
X114504290Y-102495710D01*
X114520381Y-102513463D01*
X114534653Y-102532708D01*
X114546971Y-102553258D01*
X114557215Y-102574918D01*
X114565287Y-102597477D01*
X114571109Y-102620719D01*
X114574624Y-102644419D01*
X114575800Y-102668350D01*
X114575800Y-103231650D01*
X114574624Y-103255581D01*
X114571109Y-103279281D01*
X114565287Y-103302523D01*
X114557215Y-103325082D01*
X114546971Y-103346742D01*
X114534653Y-103367292D01*
X114520381Y-103386537D01*
X114504290Y-103404290D01*
X114486537Y-103420381D01*
X114467292Y-103434653D01*
X114446742Y-103446971D01*
X114425082Y-103457215D01*
X114402523Y-103465287D01*
X114379281Y-103471109D01*
X114355581Y-103474624D01*
X114331650Y-103475800D01*
X113843350Y-103475800D01*
X113819419Y-103474624D01*
X113795719Y-103471109D01*
X113772477Y-103465287D01*
X113749918Y-103457215D01*
X113728258Y-103446971D01*
X113707708Y-103434653D01*
X113688463Y-103420381D01*
X113670710Y-103404290D01*
X113654619Y-103386537D01*
X113640347Y-103367292D01*
X113628029Y-103346742D01*
X113617785Y-103325082D01*
X113609713Y-103302523D01*
X113603891Y-103279281D01*
X113600376Y-103255581D01*
X113599200Y-103231650D01*
X113599200Y-102668350D01*
X113600376Y-102644419D01*
X113603891Y-102620719D01*
X113609713Y-102597477D01*
X113617785Y-102574918D01*
X113628029Y-102553258D01*
X113640347Y-102532708D01*
X113654619Y-102513463D01*
X113670710Y-102495710D01*
X113688463Y-102479619D01*
X113707708Y-102465347D01*
X113728258Y-102453029D01*
X113749918Y-102442785D01*
X113772477Y-102434713D01*
X113795719Y-102428891D01*
X113819419Y-102425376D01*
X113843350Y-102424200D01*
X114331650Y-102424200D01*
X114355581Y-102425376D01*
X114355581Y-102425376D01*
G37*
D12*
X114087500Y-102950000D03*
D11*
G36*
X112780581Y-102425376D02*
G01*
X112804281Y-102428891D01*
X112827523Y-102434713D01*
X112850082Y-102442785D01*
X112871742Y-102453029D01*
X112892292Y-102465347D01*
X112911537Y-102479619D01*
X112929290Y-102495710D01*
X112945381Y-102513463D01*
X112959653Y-102532708D01*
X112971971Y-102553258D01*
X112982215Y-102574918D01*
X112990287Y-102597477D01*
X112996109Y-102620719D01*
X112999624Y-102644419D01*
X113000800Y-102668350D01*
X113000800Y-103231650D01*
X112999624Y-103255581D01*
X112996109Y-103279281D01*
X112990287Y-103302523D01*
X112982215Y-103325082D01*
X112971971Y-103346742D01*
X112959653Y-103367292D01*
X112945381Y-103386537D01*
X112929290Y-103404290D01*
X112911537Y-103420381D01*
X112892292Y-103434653D01*
X112871742Y-103446971D01*
X112850082Y-103457215D01*
X112827523Y-103465287D01*
X112804281Y-103471109D01*
X112780581Y-103474624D01*
X112756650Y-103475800D01*
X112268350Y-103475800D01*
X112244419Y-103474624D01*
X112220719Y-103471109D01*
X112197477Y-103465287D01*
X112174918Y-103457215D01*
X112153258Y-103446971D01*
X112132708Y-103434653D01*
X112113463Y-103420381D01*
X112095710Y-103404290D01*
X112079619Y-103386537D01*
X112065347Y-103367292D01*
X112053029Y-103346742D01*
X112042785Y-103325082D01*
X112034713Y-103302523D01*
X112028891Y-103279281D01*
X112025376Y-103255581D01*
X112024200Y-103231650D01*
X112024200Y-102668350D01*
X112025376Y-102644419D01*
X112028891Y-102620719D01*
X112034713Y-102597477D01*
X112042785Y-102574918D01*
X112053029Y-102553258D01*
X112065347Y-102532708D01*
X112079619Y-102513463D01*
X112095710Y-102495710D01*
X112113463Y-102479619D01*
X112132708Y-102465347D01*
X112153258Y-102453029D01*
X112174918Y-102442785D01*
X112197477Y-102434713D01*
X112220719Y-102428891D01*
X112244419Y-102425376D01*
X112268350Y-102424200D01*
X112756650Y-102424200D01*
X112780581Y-102425376D01*
X112780581Y-102425376D01*
G37*
D12*
X112512500Y-102950000D03*
D11*
G36*
X114180581Y-97475376D02*
G01*
X114204281Y-97478891D01*
X114227523Y-97484713D01*
X114250082Y-97492785D01*
X114271742Y-97503029D01*
X114292292Y-97515347D01*
X114311537Y-97529619D01*
X114329290Y-97545710D01*
X114345381Y-97563463D01*
X114359653Y-97582708D01*
X114371971Y-97603258D01*
X114382215Y-97624918D01*
X114390287Y-97647477D01*
X114396109Y-97670719D01*
X114399624Y-97694419D01*
X114400800Y-97718350D01*
X114400800Y-98281650D01*
X114399624Y-98305581D01*
X114396109Y-98329281D01*
X114390287Y-98352523D01*
X114382215Y-98375082D01*
X114371971Y-98396742D01*
X114359653Y-98417292D01*
X114345381Y-98436537D01*
X114329290Y-98454290D01*
X114311537Y-98470381D01*
X114292292Y-98484653D01*
X114271742Y-98496971D01*
X114250082Y-98507215D01*
X114227523Y-98515287D01*
X114204281Y-98521109D01*
X114180581Y-98524624D01*
X114156650Y-98525800D01*
X113668350Y-98525800D01*
X113644419Y-98524624D01*
X113620719Y-98521109D01*
X113597477Y-98515287D01*
X113574918Y-98507215D01*
X113553258Y-98496971D01*
X113532708Y-98484653D01*
X113513463Y-98470381D01*
X113495710Y-98454290D01*
X113479619Y-98436537D01*
X113465347Y-98417292D01*
X113453029Y-98396742D01*
X113442785Y-98375082D01*
X113434713Y-98352523D01*
X113428891Y-98329281D01*
X113425376Y-98305581D01*
X113424200Y-98281650D01*
X113424200Y-97718350D01*
X113425376Y-97694419D01*
X113428891Y-97670719D01*
X113434713Y-97647477D01*
X113442785Y-97624918D01*
X113453029Y-97603258D01*
X113465347Y-97582708D01*
X113479619Y-97563463D01*
X113495710Y-97545710D01*
X113513463Y-97529619D01*
X113532708Y-97515347D01*
X113553258Y-97503029D01*
X113574918Y-97492785D01*
X113597477Y-97484713D01*
X113620719Y-97478891D01*
X113644419Y-97475376D01*
X113668350Y-97474200D01*
X114156650Y-97474200D01*
X114180581Y-97475376D01*
X114180581Y-97475376D01*
G37*
D12*
X113912500Y-98000000D03*
D11*
G36*
X112605581Y-97475376D02*
G01*
X112629281Y-97478891D01*
X112652523Y-97484713D01*
X112675082Y-97492785D01*
X112696742Y-97503029D01*
X112717292Y-97515347D01*
X112736537Y-97529619D01*
X112754290Y-97545710D01*
X112770381Y-97563463D01*
X112784653Y-97582708D01*
X112796971Y-97603258D01*
X112807215Y-97624918D01*
X112815287Y-97647477D01*
X112821109Y-97670719D01*
X112824624Y-97694419D01*
X112825800Y-97718350D01*
X112825800Y-98281650D01*
X112824624Y-98305581D01*
X112821109Y-98329281D01*
X112815287Y-98352523D01*
X112807215Y-98375082D01*
X112796971Y-98396742D01*
X112784653Y-98417292D01*
X112770381Y-98436537D01*
X112754290Y-98454290D01*
X112736537Y-98470381D01*
X112717292Y-98484653D01*
X112696742Y-98496971D01*
X112675082Y-98507215D01*
X112652523Y-98515287D01*
X112629281Y-98521109D01*
X112605581Y-98524624D01*
X112581650Y-98525800D01*
X112093350Y-98525800D01*
X112069419Y-98524624D01*
X112045719Y-98521109D01*
X112022477Y-98515287D01*
X111999918Y-98507215D01*
X111978258Y-98496971D01*
X111957708Y-98484653D01*
X111938463Y-98470381D01*
X111920710Y-98454290D01*
X111904619Y-98436537D01*
X111890347Y-98417292D01*
X111878029Y-98396742D01*
X111867785Y-98375082D01*
X111859713Y-98352523D01*
X111853891Y-98329281D01*
X111850376Y-98305581D01*
X111849200Y-98281650D01*
X111849200Y-97718350D01*
X111850376Y-97694419D01*
X111853891Y-97670719D01*
X111859713Y-97647477D01*
X111867785Y-97624918D01*
X111878029Y-97603258D01*
X111890347Y-97582708D01*
X111904619Y-97563463D01*
X111920710Y-97545710D01*
X111938463Y-97529619D01*
X111957708Y-97515347D01*
X111978258Y-97503029D01*
X111999918Y-97492785D01*
X112022477Y-97484713D01*
X112045719Y-97478891D01*
X112069419Y-97475376D01*
X112093350Y-97474200D01*
X112581650Y-97474200D01*
X112605581Y-97475376D01*
X112605581Y-97475376D01*
G37*
D12*
X112337500Y-98000000D03*
D11*
G36*
X110605581Y-97475376D02*
G01*
X110629281Y-97478891D01*
X110652523Y-97484713D01*
X110675082Y-97492785D01*
X110696742Y-97503029D01*
X110717292Y-97515347D01*
X110736537Y-97529619D01*
X110754290Y-97545710D01*
X110770381Y-97563463D01*
X110784653Y-97582708D01*
X110796971Y-97603258D01*
X110807215Y-97624918D01*
X110815287Y-97647477D01*
X110821109Y-97670719D01*
X110824624Y-97694419D01*
X110825800Y-97718350D01*
X110825800Y-98281650D01*
X110824624Y-98305581D01*
X110821109Y-98329281D01*
X110815287Y-98352523D01*
X110807215Y-98375082D01*
X110796971Y-98396742D01*
X110784653Y-98417292D01*
X110770381Y-98436537D01*
X110754290Y-98454290D01*
X110736537Y-98470381D01*
X110717292Y-98484653D01*
X110696742Y-98496971D01*
X110675082Y-98507215D01*
X110652523Y-98515287D01*
X110629281Y-98521109D01*
X110605581Y-98524624D01*
X110581650Y-98525800D01*
X110093350Y-98525800D01*
X110069419Y-98524624D01*
X110045719Y-98521109D01*
X110022477Y-98515287D01*
X109999918Y-98507215D01*
X109978258Y-98496971D01*
X109957708Y-98484653D01*
X109938463Y-98470381D01*
X109920710Y-98454290D01*
X109904619Y-98436537D01*
X109890347Y-98417292D01*
X109878029Y-98396742D01*
X109867785Y-98375082D01*
X109859713Y-98352523D01*
X109853891Y-98329281D01*
X109850376Y-98305581D01*
X109849200Y-98281650D01*
X109849200Y-97718350D01*
X109850376Y-97694419D01*
X109853891Y-97670719D01*
X109859713Y-97647477D01*
X109867785Y-97624918D01*
X109878029Y-97603258D01*
X109890347Y-97582708D01*
X109904619Y-97563463D01*
X109920710Y-97545710D01*
X109938463Y-97529619D01*
X109957708Y-97515347D01*
X109978258Y-97503029D01*
X109999918Y-97492785D01*
X110022477Y-97484713D01*
X110045719Y-97478891D01*
X110069419Y-97475376D01*
X110093350Y-97474200D01*
X110581650Y-97474200D01*
X110605581Y-97475376D01*
X110605581Y-97475376D01*
G37*
D12*
X110337500Y-98000000D03*
D11*
G36*
X109030581Y-97475376D02*
G01*
X109054281Y-97478891D01*
X109077523Y-97484713D01*
X109100082Y-97492785D01*
X109121742Y-97503029D01*
X109142292Y-97515347D01*
X109161537Y-97529619D01*
X109179290Y-97545710D01*
X109195381Y-97563463D01*
X109209653Y-97582708D01*
X109221971Y-97603258D01*
X109232215Y-97624918D01*
X109240287Y-97647477D01*
X109246109Y-97670719D01*
X109249624Y-97694419D01*
X109250800Y-97718350D01*
X109250800Y-98281650D01*
X109249624Y-98305581D01*
X109246109Y-98329281D01*
X109240287Y-98352523D01*
X109232215Y-98375082D01*
X109221971Y-98396742D01*
X109209653Y-98417292D01*
X109195381Y-98436537D01*
X109179290Y-98454290D01*
X109161537Y-98470381D01*
X109142292Y-98484653D01*
X109121742Y-98496971D01*
X109100082Y-98507215D01*
X109077523Y-98515287D01*
X109054281Y-98521109D01*
X109030581Y-98524624D01*
X109006650Y-98525800D01*
X108518350Y-98525800D01*
X108494419Y-98524624D01*
X108470719Y-98521109D01*
X108447477Y-98515287D01*
X108424918Y-98507215D01*
X108403258Y-98496971D01*
X108382708Y-98484653D01*
X108363463Y-98470381D01*
X108345710Y-98454290D01*
X108329619Y-98436537D01*
X108315347Y-98417292D01*
X108303029Y-98396742D01*
X108292785Y-98375082D01*
X108284713Y-98352523D01*
X108278891Y-98329281D01*
X108275376Y-98305581D01*
X108274200Y-98281650D01*
X108274200Y-97718350D01*
X108275376Y-97694419D01*
X108278891Y-97670719D01*
X108284713Y-97647477D01*
X108292785Y-97624918D01*
X108303029Y-97603258D01*
X108315347Y-97582708D01*
X108329619Y-97563463D01*
X108345710Y-97545710D01*
X108363463Y-97529619D01*
X108382708Y-97515347D01*
X108403258Y-97503029D01*
X108424918Y-97492785D01*
X108447477Y-97484713D01*
X108470719Y-97478891D01*
X108494419Y-97475376D01*
X108518350Y-97474200D01*
X109006650Y-97474200D01*
X109030581Y-97475376D01*
X109030581Y-97475376D01*
G37*
D12*
X108762500Y-98000000D03*
D11*
G36*
X110805581Y-102425376D02*
G01*
X110829281Y-102428891D01*
X110852523Y-102434713D01*
X110875082Y-102442785D01*
X110896742Y-102453029D01*
X110917292Y-102465347D01*
X110936537Y-102479619D01*
X110954290Y-102495710D01*
X110970381Y-102513463D01*
X110984653Y-102532708D01*
X110996971Y-102553258D01*
X111007215Y-102574918D01*
X111015287Y-102597477D01*
X111021109Y-102620719D01*
X111024624Y-102644419D01*
X111025800Y-102668350D01*
X111025800Y-103231650D01*
X111024624Y-103255581D01*
X111021109Y-103279281D01*
X111015287Y-103302523D01*
X111007215Y-103325082D01*
X110996971Y-103346742D01*
X110984653Y-103367292D01*
X110970381Y-103386537D01*
X110954290Y-103404290D01*
X110936537Y-103420381D01*
X110917292Y-103434653D01*
X110896742Y-103446971D01*
X110875082Y-103457215D01*
X110852523Y-103465287D01*
X110829281Y-103471109D01*
X110805581Y-103474624D01*
X110781650Y-103475800D01*
X110293350Y-103475800D01*
X110269419Y-103474624D01*
X110245719Y-103471109D01*
X110222477Y-103465287D01*
X110199918Y-103457215D01*
X110178258Y-103446971D01*
X110157708Y-103434653D01*
X110138463Y-103420381D01*
X110120710Y-103404290D01*
X110104619Y-103386537D01*
X110090347Y-103367292D01*
X110078029Y-103346742D01*
X110067785Y-103325082D01*
X110059713Y-103302523D01*
X110053891Y-103279281D01*
X110050376Y-103255581D01*
X110049200Y-103231650D01*
X110049200Y-102668350D01*
X110050376Y-102644419D01*
X110053891Y-102620719D01*
X110059713Y-102597477D01*
X110067785Y-102574918D01*
X110078029Y-102553258D01*
X110090347Y-102532708D01*
X110104619Y-102513463D01*
X110120710Y-102495710D01*
X110138463Y-102479619D01*
X110157708Y-102465347D01*
X110178258Y-102453029D01*
X110199918Y-102442785D01*
X110222477Y-102434713D01*
X110245719Y-102428891D01*
X110269419Y-102425376D01*
X110293350Y-102424200D01*
X110781650Y-102424200D01*
X110805581Y-102425376D01*
X110805581Y-102425376D01*
G37*
D12*
X110537500Y-102950000D03*
D11*
G36*
X109230581Y-102425376D02*
G01*
X109254281Y-102428891D01*
X109277523Y-102434713D01*
X109300082Y-102442785D01*
X109321742Y-102453029D01*
X109342292Y-102465347D01*
X109361537Y-102479619D01*
X109379290Y-102495710D01*
X109395381Y-102513463D01*
X109409653Y-102532708D01*
X109421971Y-102553258D01*
X109432215Y-102574918D01*
X109440287Y-102597477D01*
X109446109Y-102620719D01*
X109449624Y-102644419D01*
X109450800Y-102668350D01*
X109450800Y-103231650D01*
X109449624Y-103255581D01*
X109446109Y-103279281D01*
X109440287Y-103302523D01*
X109432215Y-103325082D01*
X109421971Y-103346742D01*
X109409653Y-103367292D01*
X109395381Y-103386537D01*
X109379290Y-103404290D01*
X109361537Y-103420381D01*
X109342292Y-103434653D01*
X109321742Y-103446971D01*
X109300082Y-103457215D01*
X109277523Y-103465287D01*
X109254281Y-103471109D01*
X109230581Y-103474624D01*
X109206650Y-103475800D01*
X108718350Y-103475800D01*
X108694419Y-103474624D01*
X108670719Y-103471109D01*
X108647477Y-103465287D01*
X108624918Y-103457215D01*
X108603258Y-103446971D01*
X108582708Y-103434653D01*
X108563463Y-103420381D01*
X108545710Y-103404290D01*
X108529619Y-103386537D01*
X108515347Y-103367292D01*
X108503029Y-103346742D01*
X108492785Y-103325082D01*
X108484713Y-103302523D01*
X108478891Y-103279281D01*
X108475376Y-103255581D01*
X108474200Y-103231650D01*
X108474200Y-102668350D01*
X108475376Y-102644419D01*
X108478891Y-102620719D01*
X108484713Y-102597477D01*
X108492785Y-102574918D01*
X108503029Y-102553258D01*
X108515347Y-102532708D01*
X108529619Y-102513463D01*
X108545710Y-102495710D01*
X108563463Y-102479619D01*
X108582708Y-102465347D01*
X108603258Y-102453029D01*
X108624918Y-102442785D01*
X108647477Y-102434713D01*
X108670719Y-102428891D01*
X108694419Y-102425376D01*
X108718350Y-102424200D01*
X109206650Y-102424200D01*
X109230581Y-102425376D01*
X109230581Y-102425376D01*
G37*
D12*
X108962500Y-102950000D03*
D11*
G36*
X125455581Y-106150376D02*
G01*
X125479281Y-106153891D01*
X125502523Y-106159713D01*
X125525082Y-106167785D01*
X125546742Y-106178029D01*
X125567292Y-106190347D01*
X125586537Y-106204619D01*
X125604290Y-106220710D01*
X125620381Y-106238463D01*
X125634653Y-106257708D01*
X125646971Y-106278258D01*
X125657215Y-106299918D01*
X125665287Y-106322477D01*
X125671109Y-106345719D01*
X125674624Y-106369419D01*
X125675800Y-106393350D01*
X125675800Y-106956650D01*
X125674624Y-106980581D01*
X125671109Y-107004281D01*
X125665287Y-107027523D01*
X125657215Y-107050082D01*
X125646971Y-107071742D01*
X125634653Y-107092292D01*
X125620381Y-107111537D01*
X125604290Y-107129290D01*
X125586537Y-107145381D01*
X125567292Y-107159653D01*
X125546742Y-107171971D01*
X125525082Y-107182215D01*
X125502523Y-107190287D01*
X125479281Y-107196109D01*
X125455581Y-107199624D01*
X125431650Y-107200800D01*
X124943350Y-107200800D01*
X124919419Y-107199624D01*
X124895719Y-107196109D01*
X124872477Y-107190287D01*
X124849918Y-107182215D01*
X124828258Y-107171971D01*
X124807708Y-107159653D01*
X124788463Y-107145381D01*
X124770710Y-107129290D01*
X124754619Y-107111537D01*
X124740347Y-107092292D01*
X124728029Y-107071742D01*
X124717785Y-107050082D01*
X124709713Y-107027523D01*
X124703891Y-107004281D01*
X124700376Y-106980581D01*
X124699200Y-106956650D01*
X124699200Y-106393350D01*
X124700376Y-106369419D01*
X124703891Y-106345719D01*
X124709713Y-106322477D01*
X124717785Y-106299918D01*
X124728029Y-106278258D01*
X124740347Y-106257708D01*
X124754619Y-106238463D01*
X124770710Y-106220710D01*
X124788463Y-106204619D01*
X124807708Y-106190347D01*
X124828258Y-106178029D01*
X124849918Y-106167785D01*
X124872477Y-106159713D01*
X124895719Y-106153891D01*
X124919419Y-106150376D01*
X124943350Y-106149200D01*
X125431650Y-106149200D01*
X125455581Y-106150376D01*
X125455581Y-106150376D01*
G37*
D12*
X125187500Y-106675000D03*
D11*
G36*
X127030581Y-106150376D02*
G01*
X127054281Y-106153891D01*
X127077523Y-106159713D01*
X127100082Y-106167785D01*
X127121742Y-106178029D01*
X127142292Y-106190347D01*
X127161537Y-106204619D01*
X127179290Y-106220710D01*
X127195381Y-106238463D01*
X127209653Y-106257708D01*
X127221971Y-106278258D01*
X127232215Y-106299918D01*
X127240287Y-106322477D01*
X127246109Y-106345719D01*
X127249624Y-106369419D01*
X127250800Y-106393350D01*
X127250800Y-106956650D01*
X127249624Y-106980581D01*
X127246109Y-107004281D01*
X127240287Y-107027523D01*
X127232215Y-107050082D01*
X127221971Y-107071742D01*
X127209653Y-107092292D01*
X127195381Y-107111537D01*
X127179290Y-107129290D01*
X127161537Y-107145381D01*
X127142292Y-107159653D01*
X127121742Y-107171971D01*
X127100082Y-107182215D01*
X127077523Y-107190287D01*
X127054281Y-107196109D01*
X127030581Y-107199624D01*
X127006650Y-107200800D01*
X126518350Y-107200800D01*
X126494419Y-107199624D01*
X126470719Y-107196109D01*
X126447477Y-107190287D01*
X126424918Y-107182215D01*
X126403258Y-107171971D01*
X126382708Y-107159653D01*
X126363463Y-107145381D01*
X126345710Y-107129290D01*
X126329619Y-107111537D01*
X126315347Y-107092292D01*
X126303029Y-107071742D01*
X126292785Y-107050082D01*
X126284713Y-107027523D01*
X126278891Y-107004281D01*
X126275376Y-106980581D01*
X126274200Y-106956650D01*
X126274200Y-106393350D01*
X126275376Y-106369419D01*
X126278891Y-106345719D01*
X126284713Y-106322477D01*
X126292785Y-106299918D01*
X126303029Y-106278258D01*
X126315347Y-106257708D01*
X126329619Y-106238463D01*
X126345710Y-106220710D01*
X126363463Y-106204619D01*
X126382708Y-106190347D01*
X126403258Y-106178029D01*
X126424918Y-106167785D01*
X126447477Y-106159713D01*
X126470719Y-106153891D01*
X126494419Y-106150376D01*
X126518350Y-106149200D01*
X127006650Y-106149200D01*
X127030581Y-106150376D01*
X127030581Y-106150376D01*
G37*
D12*
X126762500Y-106675000D03*
D11*
G36*
X105005581Y-97275376D02*
G01*
X105029281Y-97278891D01*
X105052523Y-97284713D01*
X105075082Y-97292785D01*
X105096742Y-97303029D01*
X105117292Y-97315347D01*
X105136537Y-97329619D01*
X105154290Y-97345710D01*
X105170381Y-97363463D01*
X105184653Y-97382708D01*
X105196971Y-97403258D01*
X105207215Y-97424918D01*
X105215287Y-97447477D01*
X105221109Y-97470719D01*
X105224624Y-97494419D01*
X105225800Y-97518350D01*
X105225800Y-98006650D01*
X105224624Y-98030581D01*
X105221109Y-98054281D01*
X105215287Y-98077523D01*
X105207215Y-98100082D01*
X105196971Y-98121742D01*
X105184653Y-98142292D01*
X105170381Y-98161537D01*
X105154290Y-98179290D01*
X105136537Y-98195381D01*
X105117292Y-98209653D01*
X105096742Y-98221971D01*
X105075082Y-98232215D01*
X105052523Y-98240287D01*
X105029281Y-98246109D01*
X105005581Y-98249624D01*
X104981650Y-98250800D01*
X104418350Y-98250800D01*
X104394419Y-98249624D01*
X104370719Y-98246109D01*
X104347477Y-98240287D01*
X104324918Y-98232215D01*
X104303258Y-98221971D01*
X104282708Y-98209653D01*
X104263463Y-98195381D01*
X104245710Y-98179290D01*
X104229619Y-98161537D01*
X104215347Y-98142292D01*
X104203029Y-98121742D01*
X104192785Y-98100082D01*
X104184713Y-98077523D01*
X104178891Y-98054281D01*
X104175376Y-98030581D01*
X104174200Y-98006650D01*
X104174200Y-97518350D01*
X104175376Y-97494419D01*
X104178891Y-97470719D01*
X104184713Y-97447477D01*
X104192785Y-97424918D01*
X104203029Y-97403258D01*
X104215347Y-97382708D01*
X104229619Y-97363463D01*
X104245710Y-97345710D01*
X104263463Y-97329619D01*
X104282708Y-97315347D01*
X104303258Y-97303029D01*
X104324918Y-97292785D01*
X104347477Y-97284713D01*
X104370719Y-97278891D01*
X104394419Y-97275376D01*
X104418350Y-97274200D01*
X104981650Y-97274200D01*
X105005581Y-97275376D01*
X105005581Y-97275376D01*
G37*
D12*
X104700000Y-97762500D03*
D11*
G36*
X105005581Y-98850376D02*
G01*
X105029281Y-98853891D01*
X105052523Y-98859713D01*
X105075082Y-98867785D01*
X105096742Y-98878029D01*
X105117292Y-98890347D01*
X105136537Y-98904619D01*
X105154290Y-98920710D01*
X105170381Y-98938463D01*
X105184653Y-98957708D01*
X105196971Y-98978258D01*
X105207215Y-98999918D01*
X105215287Y-99022477D01*
X105221109Y-99045719D01*
X105224624Y-99069419D01*
X105225800Y-99093350D01*
X105225800Y-99581650D01*
X105224624Y-99605581D01*
X105221109Y-99629281D01*
X105215287Y-99652523D01*
X105207215Y-99675082D01*
X105196971Y-99696742D01*
X105184653Y-99717292D01*
X105170381Y-99736537D01*
X105154290Y-99754290D01*
X105136537Y-99770381D01*
X105117292Y-99784653D01*
X105096742Y-99796971D01*
X105075082Y-99807215D01*
X105052523Y-99815287D01*
X105029281Y-99821109D01*
X105005581Y-99824624D01*
X104981650Y-99825800D01*
X104418350Y-99825800D01*
X104394419Y-99824624D01*
X104370719Y-99821109D01*
X104347477Y-99815287D01*
X104324918Y-99807215D01*
X104303258Y-99796971D01*
X104282708Y-99784653D01*
X104263463Y-99770381D01*
X104245710Y-99754290D01*
X104229619Y-99736537D01*
X104215347Y-99717292D01*
X104203029Y-99696742D01*
X104192785Y-99675082D01*
X104184713Y-99652523D01*
X104178891Y-99629281D01*
X104175376Y-99605581D01*
X104174200Y-99581650D01*
X104174200Y-99093350D01*
X104175376Y-99069419D01*
X104178891Y-99045719D01*
X104184713Y-99022477D01*
X104192785Y-98999918D01*
X104203029Y-98978258D01*
X104215347Y-98957708D01*
X104229619Y-98938463D01*
X104245710Y-98920710D01*
X104263463Y-98904619D01*
X104282708Y-98890347D01*
X104303258Y-98878029D01*
X104324918Y-98867785D01*
X104347477Y-98859713D01*
X104370719Y-98853891D01*
X104394419Y-98850376D01*
X104418350Y-98849200D01*
X104981650Y-98849200D01*
X105005581Y-98850376D01*
X105005581Y-98850376D01*
G37*
D12*
X104700000Y-99337500D03*
D11*
G36*
X103505581Y-97275376D02*
G01*
X103529281Y-97278891D01*
X103552523Y-97284713D01*
X103575082Y-97292785D01*
X103596742Y-97303029D01*
X103617292Y-97315347D01*
X103636537Y-97329619D01*
X103654290Y-97345710D01*
X103670381Y-97363463D01*
X103684653Y-97382708D01*
X103696971Y-97403258D01*
X103707215Y-97424918D01*
X103715287Y-97447477D01*
X103721109Y-97470719D01*
X103724624Y-97494419D01*
X103725800Y-97518350D01*
X103725800Y-98006650D01*
X103724624Y-98030581D01*
X103721109Y-98054281D01*
X103715287Y-98077523D01*
X103707215Y-98100082D01*
X103696971Y-98121742D01*
X103684653Y-98142292D01*
X103670381Y-98161537D01*
X103654290Y-98179290D01*
X103636537Y-98195381D01*
X103617292Y-98209653D01*
X103596742Y-98221971D01*
X103575082Y-98232215D01*
X103552523Y-98240287D01*
X103529281Y-98246109D01*
X103505581Y-98249624D01*
X103481650Y-98250800D01*
X102918350Y-98250800D01*
X102894419Y-98249624D01*
X102870719Y-98246109D01*
X102847477Y-98240287D01*
X102824918Y-98232215D01*
X102803258Y-98221971D01*
X102782708Y-98209653D01*
X102763463Y-98195381D01*
X102745710Y-98179290D01*
X102729619Y-98161537D01*
X102715347Y-98142292D01*
X102703029Y-98121742D01*
X102692785Y-98100082D01*
X102684713Y-98077523D01*
X102678891Y-98054281D01*
X102675376Y-98030581D01*
X102674200Y-98006650D01*
X102674200Y-97518350D01*
X102675376Y-97494419D01*
X102678891Y-97470719D01*
X102684713Y-97447477D01*
X102692785Y-97424918D01*
X102703029Y-97403258D01*
X102715347Y-97382708D01*
X102729619Y-97363463D01*
X102745710Y-97345710D01*
X102763463Y-97329619D01*
X102782708Y-97315347D01*
X102803258Y-97303029D01*
X102824918Y-97292785D01*
X102847477Y-97284713D01*
X102870719Y-97278891D01*
X102894419Y-97275376D01*
X102918350Y-97274200D01*
X103481650Y-97274200D01*
X103505581Y-97275376D01*
X103505581Y-97275376D01*
G37*
D12*
X103200000Y-97762500D03*
D11*
G36*
X103505581Y-98850376D02*
G01*
X103529281Y-98853891D01*
X103552523Y-98859713D01*
X103575082Y-98867785D01*
X103596742Y-98878029D01*
X103617292Y-98890347D01*
X103636537Y-98904619D01*
X103654290Y-98920710D01*
X103670381Y-98938463D01*
X103684653Y-98957708D01*
X103696971Y-98978258D01*
X103707215Y-98999918D01*
X103715287Y-99022477D01*
X103721109Y-99045719D01*
X103724624Y-99069419D01*
X103725800Y-99093350D01*
X103725800Y-99581650D01*
X103724624Y-99605581D01*
X103721109Y-99629281D01*
X103715287Y-99652523D01*
X103707215Y-99675082D01*
X103696971Y-99696742D01*
X103684653Y-99717292D01*
X103670381Y-99736537D01*
X103654290Y-99754290D01*
X103636537Y-99770381D01*
X103617292Y-99784653D01*
X103596742Y-99796971D01*
X103575082Y-99807215D01*
X103552523Y-99815287D01*
X103529281Y-99821109D01*
X103505581Y-99824624D01*
X103481650Y-99825800D01*
X102918350Y-99825800D01*
X102894419Y-99824624D01*
X102870719Y-99821109D01*
X102847477Y-99815287D01*
X102824918Y-99807215D01*
X102803258Y-99796971D01*
X102782708Y-99784653D01*
X102763463Y-99770381D01*
X102745710Y-99754290D01*
X102729619Y-99736537D01*
X102715347Y-99717292D01*
X102703029Y-99696742D01*
X102692785Y-99675082D01*
X102684713Y-99652523D01*
X102678891Y-99629281D01*
X102675376Y-99605581D01*
X102674200Y-99581650D01*
X102674200Y-99093350D01*
X102675376Y-99069419D01*
X102678891Y-99045719D01*
X102684713Y-99022477D01*
X102692785Y-98999918D01*
X102703029Y-98978258D01*
X102715347Y-98957708D01*
X102729619Y-98938463D01*
X102745710Y-98920710D01*
X102763463Y-98904619D01*
X102782708Y-98890347D01*
X102803258Y-98878029D01*
X102824918Y-98867785D01*
X102847477Y-98859713D01*
X102870719Y-98853891D01*
X102894419Y-98850376D01*
X102918350Y-98849200D01*
X103481650Y-98849200D01*
X103505581Y-98850376D01*
X103505581Y-98850376D01*
G37*
D12*
X103200000Y-99337500D03*
D11*
G36*
X101930581Y-103830376D02*
G01*
X101954281Y-103833891D01*
X101977523Y-103839713D01*
X102000082Y-103847785D01*
X102021742Y-103858029D01*
X102042292Y-103870347D01*
X102061537Y-103884619D01*
X102079290Y-103900710D01*
X102095381Y-103918463D01*
X102109653Y-103937708D01*
X102121971Y-103958258D01*
X102132215Y-103979918D01*
X102140287Y-104002477D01*
X102146109Y-104025719D01*
X102149624Y-104049419D01*
X102150800Y-104073350D01*
X102150800Y-104636650D01*
X102149624Y-104660581D01*
X102146109Y-104684281D01*
X102140287Y-104707523D01*
X102132215Y-104730082D01*
X102121971Y-104751742D01*
X102109653Y-104772292D01*
X102095381Y-104791537D01*
X102079290Y-104809290D01*
X102061537Y-104825381D01*
X102042292Y-104839653D01*
X102021742Y-104851971D01*
X102000082Y-104862215D01*
X101977523Y-104870287D01*
X101954281Y-104876109D01*
X101930581Y-104879624D01*
X101906650Y-104880800D01*
X101418350Y-104880800D01*
X101394419Y-104879624D01*
X101370719Y-104876109D01*
X101347477Y-104870287D01*
X101324918Y-104862215D01*
X101303258Y-104851971D01*
X101282708Y-104839653D01*
X101263463Y-104825381D01*
X101245710Y-104809290D01*
X101229619Y-104791537D01*
X101215347Y-104772292D01*
X101203029Y-104751742D01*
X101192785Y-104730082D01*
X101184713Y-104707523D01*
X101178891Y-104684281D01*
X101175376Y-104660581D01*
X101174200Y-104636650D01*
X101174200Y-104073350D01*
X101175376Y-104049419D01*
X101178891Y-104025719D01*
X101184713Y-104002477D01*
X101192785Y-103979918D01*
X101203029Y-103958258D01*
X101215347Y-103937708D01*
X101229619Y-103918463D01*
X101245710Y-103900710D01*
X101263463Y-103884619D01*
X101282708Y-103870347D01*
X101303258Y-103858029D01*
X101324918Y-103847785D01*
X101347477Y-103839713D01*
X101370719Y-103833891D01*
X101394419Y-103830376D01*
X101418350Y-103829200D01*
X101906650Y-103829200D01*
X101930581Y-103830376D01*
X101930581Y-103830376D01*
G37*
D12*
X101662500Y-104355000D03*
D11*
G36*
X103505581Y-103830376D02*
G01*
X103529281Y-103833891D01*
X103552523Y-103839713D01*
X103575082Y-103847785D01*
X103596742Y-103858029D01*
X103617292Y-103870347D01*
X103636537Y-103884619D01*
X103654290Y-103900710D01*
X103670381Y-103918463D01*
X103684653Y-103937708D01*
X103696971Y-103958258D01*
X103707215Y-103979918D01*
X103715287Y-104002477D01*
X103721109Y-104025719D01*
X103724624Y-104049419D01*
X103725800Y-104073350D01*
X103725800Y-104636650D01*
X103724624Y-104660581D01*
X103721109Y-104684281D01*
X103715287Y-104707523D01*
X103707215Y-104730082D01*
X103696971Y-104751742D01*
X103684653Y-104772292D01*
X103670381Y-104791537D01*
X103654290Y-104809290D01*
X103636537Y-104825381D01*
X103617292Y-104839653D01*
X103596742Y-104851971D01*
X103575082Y-104862215D01*
X103552523Y-104870287D01*
X103529281Y-104876109D01*
X103505581Y-104879624D01*
X103481650Y-104880800D01*
X102993350Y-104880800D01*
X102969419Y-104879624D01*
X102945719Y-104876109D01*
X102922477Y-104870287D01*
X102899918Y-104862215D01*
X102878258Y-104851971D01*
X102857708Y-104839653D01*
X102838463Y-104825381D01*
X102820710Y-104809290D01*
X102804619Y-104791537D01*
X102790347Y-104772292D01*
X102778029Y-104751742D01*
X102767785Y-104730082D01*
X102759713Y-104707523D01*
X102753891Y-104684281D01*
X102750376Y-104660581D01*
X102749200Y-104636650D01*
X102749200Y-104073350D01*
X102750376Y-104049419D01*
X102753891Y-104025719D01*
X102759713Y-104002477D01*
X102767785Y-103979918D01*
X102778029Y-103958258D01*
X102790347Y-103937708D01*
X102804619Y-103918463D01*
X102820710Y-103900710D01*
X102838463Y-103884619D01*
X102857708Y-103870347D01*
X102878258Y-103858029D01*
X102899918Y-103847785D01*
X102922477Y-103839713D01*
X102945719Y-103833891D01*
X102969419Y-103830376D01*
X102993350Y-103829200D01*
X103481650Y-103829200D01*
X103505581Y-103830376D01*
X103505581Y-103830376D01*
G37*
D12*
X103237500Y-104355000D03*
D11*
G36*
X89705581Y-99025376D02*
G01*
X89729281Y-99028891D01*
X89752523Y-99034713D01*
X89775082Y-99042785D01*
X89796742Y-99053029D01*
X89817292Y-99065347D01*
X89836537Y-99079619D01*
X89854290Y-99095710D01*
X89870381Y-99113463D01*
X89884653Y-99132708D01*
X89896971Y-99153258D01*
X89907215Y-99174918D01*
X89915287Y-99197477D01*
X89921109Y-99220719D01*
X89924624Y-99244419D01*
X89925800Y-99268350D01*
X89925800Y-99756650D01*
X89924624Y-99780581D01*
X89921109Y-99804281D01*
X89915287Y-99827523D01*
X89907215Y-99850082D01*
X89896971Y-99871742D01*
X89884653Y-99892292D01*
X89870381Y-99911537D01*
X89854290Y-99929290D01*
X89836537Y-99945381D01*
X89817292Y-99959653D01*
X89796742Y-99971971D01*
X89775082Y-99982215D01*
X89752523Y-99990287D01*
X89729281Y-99996109D01*
X89705581Y-99999624D01*
X89681650Y-100000800D01*
X89118350Y-100000800D01*
X89094419Y-99999624D01*
X89070719Y-99996109D01*
X89047477Y-99990287D01*
X89024918Y-99982215D01*
X89003258Y-99971971D01*
X88982708Y-99959653D01*
X88963463Y-99945381D01*
X88945710Y-99929290D01*
X88929619Y-99911537D01*
X88915347Y-99892292D01*
X88903029Y-99871742D01*
X88892785Y-99850082D01*
X88884713Y-99827523D01*
X88878891Y-99804281D01*
X88875376Y-99780581D01*
X88874200Y-99756650D01*
X88874200Y-99268350D01*
X88875376Y-99244419D01*
X88878891Y-99220719D01*
X88884713Y-99197477D01*
X88892785Y-99174918D01*
X88903029Y-99153258D01*
X88915347Y-99132708D01*
X88929619Y-99113463D01*
X88945710Y-99095710D01*
X88963463Y-99079619D01*
X88982708Y-99065347D01*
X89003258Y-99053029D01*
X89024918Y-99042785D01*
X89047477Y-99034713D01*
X89070719Y-99028891D01*
X89094419Y-99025376D01*
X89118350Y-99024200D01*
X89681650Y-99024200D01*
X89705581Y-99025376D01*
X89705581Y-99025376D01*
G37*
D12*
X89400000Y-99512500D03*
D11*
G36*
X89705581Y-97450376D02*
G01*
X89729281Y-97453891D01*
X89752523Y-97459713D01*
X89775082Y-97467785D01*
X89796742Y-97478029D01*
X89817292Y-97490347D01*
X89836537Y-97504619D01*
X89854290Y-97520710D01*
X89870381Y-97538463D01*
X89884653Y-97557708D01*
X89896971Y-97578258D01*
X89907215Y-97599918D01*
X89915287Y-97622477D01*
X89921109Y-97645719D01*
X89924624Y-97669419D01*
X89925800Y-97693350D01*
X89925800Y-98181650D01*
X89924624Y-98205581D01*
X89921109Y-98229281D01*
X89915287Y-98252523D01*
X89907215Y-98275082D01*
X89896971Y-98296742D01*
X89884653Y-98317292D01*
X89870381Y-98336537D01*
X89854290Y-98354290D01*
X89836537Y-98370381D01*
X89817292Y-98384653D01*
X89796742Y-98396971D01*
X89775082Y-98407215D01*
X89752523Y-98415287D01*
X89729281Y-98421109D01*
X89705581Y-98424624D01*
X89681650Y-98425800D01*
X89118350Y-98425800D01*
X89094419Y-98424624D01*
X89070719Y-98421109D01*
X89047477Y-98415287D01*
X89024918Y-98407215D01*
X89003258Y-98396971D01*
X88982708Y-98384653D01*
X88963463Y-98370381D01*
X88945710Y-98354290D01*
X88929619Y-98336537D01*
X88915347Y-98317292D01*
X88903029Y-98296742D01*
X88892785Y-98275082D01*
X88884713Y-98252523D01*
X88878891Y-98229281D01*
X88875376Y-98205581D01*
X88874200Y-98181650D01*
X88874200Y-97693350D01*
X88875376Y-97669419D01*
X88878891Y-97645719D01*
X88884713Y-97622477D01*
X88892785Y-97599918D01*
X88903029Y-97578258D01*
X88915347Y-97557708D01*
X88929619Y-97538463D01*
X88945710Y-97520710D01*
X88963463Y-97504619D01*
X88982708Y-97490347D01*
X89003258Y-97478029D01*
X89024918Y-97467785D01*
X89047477Y-97459713D01*
X89070719Y-97453891D01*
X89094419Y-97450376D01*
X89118350Y-97449200D01*
X89681650Y-97449200D01*
X89705581Y-97450376D01*
X89705581Y-97450376D01*
G37*
D12*
X89400000Y-97937500D03*
D11*
G36*
X103505581Y-105375376D02*
G01*
X103529281Y-105378891D01*
X103552523Y-105384713D01*
X103575082Y-105392785D01*
X103596742Y-105403029D01*
X103617292Y-105415347D01*
X103636537Y-105429619D01*
X103654290Y-105445710D01*
X103670381Y-105463463D01*
X103684653Y-105482708D01*
X103696971Y-105503258D01*
X103707215Y-105524918D01*
X103715287Y-105547477D01*
X103721109Y-105570719D01*
X103724624Y-105594419D01*
X103725800Y-105618350D01*
X103725800Y-106181650D01*
X103724624Y-106205581D01*
X103721109Y-106229281D01*
X103715287Y-106252523D01*
X103707215Y-106275082D01*
X103696971Y-106296742D01*
X103684653Y-106317292D01*
X103670381Y-106336537D01*
X103654290Y-106354290D01*
X103636537Y-106370381D01*
X103617292Y-106384653D01*
X103596742Y-106396971D01*
X103575082Y-106407215D01*
X103552523Y-106415287D01*
X103529281Y-106421109D01*
X103505581Y-106424624D01*
X103481650Y-106425800D01*
X102993350Y-106425800D01*
X102969419Y-106424624D01*
X102945719Y-106421109D01*
X102922477Y-106415287D01*
X102899918Y-106407215D01*
X102878258Y-106396971D01*
X102857708Y-106384653D01*
X102838463Y-106370381D01*
X102820710Y-106354290D01*
X102804619Y-106336537D01*
X102790347Y-106317292D01*
X102778029Y-106296742D01*
X102767785Y-106275082D01*
X102759713Y-106252523D01*
X102753891Y-106229281D01*
X102750376Y-106205581D01*
X102749200Y-106181650D01*
X102749200Y-105618350D01*
X102750376Y-105594419D01*
X102753891Y-105570719D01*
X102759713Y-105547477D01*
X102767785Y-105524918D01*
X102778029Y-105503258D01*
X102790347Y-105482708D01*
X102804619Y-105463463D01*
X102820710Y-105445710D01*
X102838463Y-105429619D01*
X102857708Y-105415347D01*
X102878258Y-105403029D01*
X102899918Y-105392785D01*
X102922477Y-105384713D01*
X102945719Y-105378891D01*
X102969419Y-105375376D01*
X102993350Y-105374200D01*
X103481650Y-105374200D01*
X103505581Y-105375376D01*
X103505581Y-105375376D01*
G37*
D12*
X103237500Y-105900000D03*
D11*
G36*
X101930581Y-105375376D02*
G01*
X101954281Y-105378891D01*
X101977523Y-105384713D01*
X102000082Y-105392785D01*
X102021742Y-105403029D01*
X102042292Y-105415347D01*
X102061537Y-105429619D01*
X102079290Y-105445710D01*
X102095381Y-105463463D01*
X102109653Y-105482708D01*
X102121971Y-105503258D01*
X102132215Y-105524918D01*
X102140287Y-105547477D01*
X102146109Y-105570719D01*
X102149624Y-105594419D01*
X102150800Y-105618350D01*
X102150800Y-106181650D01*
X102149624Y-106205581D01*
X102146109Y-106229281D01*
X102140287Y-106252523D01*
X102132215Y-106275082D01*
X102121971Y-106296742D01*
X102109653Y-106317292D01*
X102095381Y-106336537D01*
X102079290Y-106354290D01*
X102061537Y-106370381D01*
X102042292Y-106384653D01*
X102021742Y-106396971D01*
X102000082Y-106407215D01*
X101977523Y-106415287D01*
X101954281Y-106421109D01*
X101930581Y-106424624D01*
X101906650Y-106425800D01*
X101418350Y-106425800D01*
X101394419Y-106424624D01*
X101370719Y-106421109D01*
X101347477Y-106415287D01*
X101324918Y-106407215D01*
X101303258Y-106396971D01*
X101282708Y-106384653D01*
X101263463Y-106370381D01*
X101245710Y-106354290D01*
X101229619Y-106336537D01*
X101215347Y-106317292D01*
X101203029Y-106296742D01*
X101192785Y-106275082D01*
X101184713Y-106252523D01*
X101178891Y-106229281D01*
X101175376Y-106205581D01*
X101174200Y-106181650D01*
X101174200Y-105618350D01*
X101175376Y-105594419D01*
X101178891Y-105570719D01*
X101184713Y-105547477D01*
X101192785Y-105524918D01*
X101203029Y-105503258D01*
X101215347Y-105482708D01*
X101229619Y-105463463D01*
X101245710Y-105445710D01*
X101263463Y-105429619D01*
X101282708Y-105415347D01*
X101303258Y-105403029D01*
X101324918Y-105392785D01*
X101347477Y-105384713D01*
X101370719Y-105378891D01*
X101394419Y-105375376D01*
X101418350Y-105374200D01*
X101906650Y-105374200D01*
X101930581Y-105375376D01*
X101930581Y-105375376D01*
G37*
D12*
X101662500Y-105900000D03*
D11*
G36*
X103505581Y-102350376D02*
G01*
X103529281Y-102353891D01*
X103552523Y-102359713D01*
X103575082Y-102367785D01*
X103596742Y-102378029D01*
X103617292Y-102390347D01*
X103636537Y-102404619D01*
X103654290Y-102420710D01*
X103670381Y-102438463D01*
X103684653Y-102457708D01*
X103696971Y-102478258D01*
X103707215Y-102499918D01*
X103715287Y-102522477D01*
X103721109Y-102545719D01*
X103724624Y-102569419D01*
X103725800Y-102593350D01*
X103725800Y-103081650D01*
X103724624Y-103105581D01*
X103721109Y-103129281D01*
X103715287Y-103152523D01*
X103707215Y-103175082D01*
X103696971Y-103196742D01*
X103684653Y-103217292D01*
X103670381Y-103236537D01*
X103654290Y-103254290D01*
X103636537Y-103270381D01*
X103617292Y-103284653D01*
X103596742Y-103296971D01*
X103575082Y-103307215D01*
X103552523Y-103315287D01*
X103529281Y-103321109D01*
X103505581Y-103324624D01*
X103481650Y-103325800D01*
X102918350Y-103325800D01*
X102894419Y-103324624D01*
X102870719Y-103321109D01*
X102847477Y-103315287D01*
X102824918Y-103307215D01*
X102803258Y-103296971D01*
X102782708Y-103284653D01*
X102763463Y-103270381D01*
X102745710Y-103254290D01*
X102729619Y-103236537D01*
X102715347Y-103217292D01*
X102703029Y-103196742D01*
X102692785Y-103175082D01*
X102684713Y-103152523D01*
X102678891Y-103129281D01*
X102675376Y-103105581D01*
X102674200Y-103081650D01*
X102674200Y-102593350D01*
X102675376Y-102569419D01*
X102678891Y-102545719D01*
X102684713Y-102522477D01*
X102692785Y-102499918D01*
X102703029Y-102478258D01*
X102715347Y-102457708D01*
X102729619Y-102438463D01*
X102745710Y-102420710D01*
X102763463Y-102404619D01*
X102782708Y-102390347D01*
X102803258Y-102378029D01*
X102824918Y-102367785D01*
X102847477Y-102359713D01*
X102870719Y-102353891D01*
X102894419Y-102350376D01*
X102918350Y-102349200D01*
X103481650Y-102349200D01*
X103505581Y-102350376D01*
X103505581Y-102350376D01*
G37*
D12*
X103200000Y-102837500D03*
D11*
G36*
X103505581Y-100775376D02*
G01*
X103529281Y-100778891D01*
X103552523Y-100784713D01*
X103575082Y-100792785D01*
X103596742Y-100803029D01*
X103617292Y-100815347D01*
X103636537Y-100829619D01*
X103654290Y-100845710D01*
X103670381Y-100863463D01*
X103684653Y-100882708D01*
X103696971Y-100903258D01*
X103707215Y-100924918D01*
X103715287Y-100947477D01*
X103721109Y-100970719D01*
X103724624Y-100994419D01*
X103725800Y-101018350D01*
X103725800Y-101506650D01*
X103724624Y-101530581D01*
X103721109Y-101554281D01*
X103715287Y-101577523D01*
X103707215Y-101600082D01*
X103696971Y-101621742D01*
X103684653Y-101642292D01*
X103670381Y-101661537D01*
X103654290Y-101679290D01*
X103636537Y-101695381D01*
X103617292Y-101709653D01*
X103596742Y-101721971D01*
X103575082Y-101732215D01*
X103552523Y-101740287D01*
X103529281Y-101746109D01*
X103505581Y-101749624D01*
X103481650Y-101750800D01*
X102918350Y-101750800D01*
X102894419Y-101749624D01*
X102870719Y-101746109D01*
X102847477Y-101740287D01*
X102824918Y-101732215D01*
X102803258Y-101721971D01*
X102782708Y-101709653D01*
X102763463Y-101695381D01*
X102745710Y-101679290D01*
X102729619Y-101661537D01*
X102715347Y-101642292D01*
X102703029Y-101621742D01*
X102692785Y-101600082D01*
X102684713Y-101577523D01*
X102678891Y-101554281D01*
X102675376Y-101530581D01*
X102674200Y-101506650D01*
X102674200Y-101018350D01*
X102675376Y-100994419D01*
X102678891Y-100970719D01*
X102684713Y-100947477D01*
X102692785Y-100924918D01*
X102703029Y-100903258D01*
X102715347Y-100882708D01*
X102729619Y-100863463D01*
X102745710Y-100845710D01*
X102763463Y-100829619D01*
X102782708Y-100815347D01*
X102803258Y-100803029D01*
X102824918Y-100792785D01*
X102847477Y-100784713D01*
X102870719Y-100778891D01*
X102894419Y-100775376D01*
X102918350Y-100774200D01*
X103481650Y-100774200D01*
X103505581Y-100775376D01*
X103505581Y-100775376D01*
G37*
D12*
X103200000Y-101262500D03*
D11*
G36*
X101955581Y-100775376D02*
G01*
X101979281Y-100778891D01*
X102002523Y-100784713D01*
X102025082Y-100792785D01*
X102046742Y-100803029D01*
X102067292Y-100815347D01*
X102086537Y-100829619D01*
X102104290Y-100845710D01*
X102120381Y-100863463D01*
X102134653Y-100882708D01*
X102146971Y-100903258D01*
X102157215Y-100924918D01*
X102165287Y-100947477D01*
X102171109Y-100970719D01*
X102174624Y-100994419D01*
X102175800Y-101018350D01*
X102175800Y-101506650D01*
X102174624Y-101530581D01*
X102171109Y-101554281D01*
X102165287Y-101577523D01*
X102157215Y-101600082D01*
X102146971Y-101621742D01*
X102134653Y-101642292D01*
X102120381Y-101661537D01*
X102104290Y-101679290D01*
X102086537Y-101695381D01*
X102067292Y-101709653D01*
X102046742Y-101721971D01*
X102025082Y-101732215D01*
X102002523Y-101740287D01*
X101979281Y-101746109D01*
X101955581Y-101749624D01*
X101931650Y-101750800D01*
X101368350Y-101750800D01*
X101344419Y-101749624D01*
X101320719Y-101746109D01*
X101297477Y-101740287D01*
X101274918Y-101732215D01*
X101253258Y-101721971D01*
X101232708Y-101709653D01*
X101213463Y-101695381D01*
X101195710Y-101679290D01*
X101179619Y-101661537D01*
X101165347Y-101642292D01*
X101153029Y-101621742D01*
X101142785Y-101600082D01*
X101134713Y-101577523D01*
X101128891Y-101554281D01*
X101125376Y-101530581D01*
X101124200Y-101506650D01*
X101124200Y-101018350D01*
X101125376Y-100994419D01*
X101128891Y-100970719D01*
X101134713Y-100947477D01*
X101142785Y-100924918D01*
X101153029Y-100903258D01*
X101165347Y-100882708D01*
X101179619Y-100863463D01*
X101195710Y-100845710D01*
X101213463Y-100829619D01*
X101232708Y-100815347D01*
X101253258Y-100803029D01*
X101274918Y-100792785D01*
X101297477Y-100784713D01*
X101320719Y-100778891D01*
X101344419Y-100775376D01*
X101368350Y-100774200D01*
X101931650Y-100774200D01*
X101955581Y-100775376D01*
X101955581Y-100775376D01*
G37*
D12*
X101650000Y-101262500D03*
D11*
G36*
X101955581Y-102350376D02*
G01*
X101979281Y-102353891D01*
X102002523Y-102359713D01*
X102025082Y-102367785D01*
X102046742Y-102378029D01*
X102067292Y-102390347D01*
X102086537Y-102404619D01*
X102104290Y-102420710D01*
X102120381Y-102438463D01*
X102134653Y-102457708D01*
X102146971Y-102478258D01*
X102157215Y-102499918D01*
X102165287Y-102522477D01*
X102171109Y-102545719D01*
X102174624Y-102569419D01*
X102175800Y-102593350D01*
X102175800Y-103081650D01*
X102174624Y-103105581D01*
X102171109Y-103129281D01*
X102165287Y-103152523D01*
X102157215Y-103175082D01*
X102146971Y-103196742D01*
X102134653Y-103217292D01*
X102120381Y-103236537D01*
X102104290Y-103254290D01*
X102086537Y-103270381D01*
X102067292Y-103284653D01*
X102046742Y-103296971D01*
X102025082Y-103307215D01*
X102002523Y-103315287D01*
X101979281Y-103321109D01*
X101955581Y-103324624D01*
X101931650Y-103325800D01*
X101368350Y-103325800D01*
X101344419Y-103324624D01*
X101320719Y-103321109D01*
X101297477Y-103315287D01*
X101274918Y-103307215D01*
X101253258Y-103296971D01*
X101232708Y-103284653D01*
X101213463Y-103270381D01*
X101195710Y-103254290D01*
X101179619Y-103236537D01*
X101165347Y-103217292D01*
X101153029Y-103196742D01*
X101142785Y-103175082D01*
X101134713Y-103152523D01*
X101128891Y-103129281D01*
X101125376Y-103105581D01*
X101124200Y-103081650D01*
X101124200Y-102593350D01*
X101125376Y-102569419D01*
X101128891Y-102545719D01*
X101134713Y-102522477D01*
X101142785Y-102499918D01*
X101153029Y-102478258D01*
X101165347Y-102457708D01*
X101179619Y-102438463D01*
X101195710Y-102420710D01*
X101213463Y-102404619D01*
X101232708Y-102390347D01*
X101253258Y-102378029D01*
X101274918Y-102367785D01*
X101297477Y-102359713D01*
X101320719Y-102353891D01*
X101344419Y-102350376D01*
X101368350Y-102349200D01*
X101931650Y-102349200D01*
X101955581Y-102350376D01*
X101955581Y-102350376D01*
G37*
D12*
X101650000Y-102837500D03*
D11*
G36*
X63055581Y-92885376D02*
G01*
X63079281Y-92888891D01*
X63102523Y-92894713D01*
X63125082Y-92902785D01*
X63146742Y-92913029D01*
X63167292Y-92925347D01*
X63186537Y-92939619D01*
X63204290Y-92955710D01*
X63220381Y-92973463D01*
X63234653Y-92992708D01*
X63246971Y-93013258D01*
X63257215Y-93034918D01*
X63265287Y-93057477D01*
X63271109Y-93080719D01*
X63274624Y-93104419D01*
X63275800Y-93128350D01*
X63275800Y-93691650D01*
X63274624Y-93715581D01*
X63271109Y-93739281D01*
X63265287Y-93762523D01*
X63257215Y-93785082D01*
X63246971Y-93806742D01*
X63234653Y-93827292D01*
X63220381Y-93846537D01*
X63204290Y-93864290D01*
X63186537Y-93880381D01*
X63167292Y-93894653D01*
X63146742Y-93906971D01*
X63125082Y-93917215D01*
X63102523Y-93925287D01*
X63079281Y-93931109D01*
X63055581Y-93934624D01*
X63031650Y-93935800D01*
X62543350Y-93935800D01*
X62519419Y-93934624D01*
X62495719Y-93931109D01*
X62472477Y-93925287D01*
X62449918Y-93917215D01*
X62428258Y-93906971D01*
X62407708Y-93894653D01*
X62388463Y-93880381D01*
X62370710Y-93864290D01*
X62354619Y-93846537D01*
X62340347Y-93827292D01*
X62328029Y-93806742D01*
X62317785Y-93785082D01*
X62309713Y-93762523D01*
X62303891Y-93739281D01*
X62300376Y-93715581D01*
X62299200Y-93691650D01*
X62299200Y-93128350D01*
X62300376Y-93104419D01*
X62303891Y-93080719D01*
X62309713Y-93057477D01*
X62317785Y-93034918D01*
X62328029Y-93013258D01*
X62340347Y-92992708D01*
X62354619Y-92973463D01*
X62370710Y-92955710D01*
X62388463Y-92939619D01*
X62407708Y-92925347D01*
X62428258Y-92913029D01*
X62449918Y-92902785D01*
X62472477Y-92894713D01*
X62495719Y-92888891D01*
X62519419Y-92885376D01*
X62543350Y-92884200D01*
X63031650Y-92884200D01*
X63055581Y-92885376D01*
X63055581Y-92885376D01*
G37*
D12*
X62787500Y-93410000D03*
D11*
G36*
X61480581Y-92885376D02*
G01*
X61504281Y-92888891D01*
X61527523Y-92894713D01*
X61550082Y-92902785D01*
X61571742Y-92913029D01*
X61592292Y-92925347D01*
X61611537Y-92939619D01*
X61629290Y-92955710D01*
X61645381Y-92973463D01*
X61659653Y-92992708D01*
X61671971Y-93013258D01*
X61682215Y-93034918D01*
X61690287Y-93057477D01*
X61696109Y-93080719D01*
X61699624Y-93104419D01*
X61700800Y-93128350D01*
X61700800Y-93691650D01*
X61699624Y-93715581D01*
X61696109Y-93739281D01*
X61690287Y-93762523D01*
X61682215Y-93785082D01*
X61671971Y-93806742D01*
X61659653Y-93827292D01*
X61645381Y-93846537D01*
X61629290Y-93864290D01*
X61611537Y-93880381D01*
X61592292Y-93894653D01*
X61571742Y-93906971D01*
X61550082Y-93917215D01*
X61527523Y-93925287D01*
X61504281Y-93931109D01*
X61480581Y-93934624D01*
X61456650Y-93935800D01*
X60968350Y-93935800D01*
X60944419Y-93934624D01*
X60920719Y-93931109D01*
X60897477Y-93925287D01*
X60874918Y-93917215D01*
X60853258Y-93906971D01*
X60832708Y-93894653D01*
X60813463Y-93880381D01*
X60795710Y-93864290D01*
X60779619Y-93846537D01*
X60765347Y-93827292D01*
X60753029Y-93806742D01*
X60742785Y-93785082D01*
X60734713Y-93762523D01*
X60728891Y-93739281D01*
X60725376Y-93715581D01*
X60724200Y-93691650D01*
X60724200Y-93128350D01*
X60725376Y-93104419D01*
X60728891Y-93080719D01*
X60734713Y-93057477D01*
X60742785Y-93034918D01*
X60753029Y-93013258D01*
X60765347Y-92992708D01*
X60779619Y-92973463D01*
X60795710Y-92955710D01*
X60813463Y-92939619D01*
X60832708Y-92925347D01*
X60853258Y-92913029D01*
X60874918Y-92902785D01*
X60897477Y-92894713D01*
X60920719Y-92888891D01*
X60944419Y-92885376D01*
X60968350Y-92884200D01*
X61456650Y-92884200D01*
X61480581Y-92885376D01*
X61480581Y-92885376D01*
G37*
D12*
X61212500Y-93410000D03*
D24*
X105350000Y-100800000D03*
X105350000Y-103300000D03*
D25*
X89840000Y-105610000D03*
X87300000Y-105610000D03*
X84760000Y-105610000D03*
X82220000Y-105610000D03*
D26*
X79680000Y-105610000D03*
D11*
G36*
X63486218Y-94450346D02*
G01*
X63509312Y-94453771D01*
X63531959Y-94459444D01*
X63553940Y-94467309D01*
X63575045Y-94477291D01*
X63595070Y-94489293D01*
X63613822Y-94503201D01*
X63631121Y-94518879D01*
X63646799Y-94536178D01*
X63660707Y-94554930D01*
X63672709Y-94574955D01*
X63682691Y-94596060D01*
X63690556Y-94618041D01*
X63696229Y-94640688D01*
X63699654Y-94663782D01*
X63700800Y-94687100D01*
X63700800Y-95162900D01*
X63699654Y-95186218D01*
X63696229Y-95209312D01*
X63690556Y-95231959D01*
X63682691Y-95253940D01*
X63672709Y-95275045D01*
X63660707Y-95295070D01*
X63646799Y-95313822D01*
X63631121Y-95331121D01*
X63613822Y-95346799D01*
X63595070Y-95360707D01*
X63575045Y-95372709D01*
X63553940Y-95382691D01*
X63531959Y-95390556D01*
X63509312Y-95396229D01*
X63486218Y-95399654D01*
X63462900Y-95400800D01*
X62612100Y-95400800D01*
X62588782Y-95399654D01*
X62565688Y-95396229D01*
X62543041Y-95390556D01*
X62521060Y-95382691D01*
X62499955Y-95372709D01*
X62479930Y-95360707D01*
X62461178Y-95346799D01*
X62443879Y-95331121D01*
X62428201Y-95313822D01*
X62414293Y-95295070D01*
X62402291Y-95275045D01*
X62392309Y-95253940D01*
X62384444Y-95231959D01*
X62378771Y-95209312D01*
X62375346Y-95186218D01*
X62374200Y-95162900D01*
X62374200Y-94687100D01*
X62375346Y-94663782D01*
X62378771Y-94640688D01*
X62384444Y-94618041D01*
X62392309Y-94596060D01*
X62402291Y-94574955D01*
X62414293Y-94554930D01*
X62428201Y-94536178D01*
X62443879Y-94518879D01*
X62461178Y-94503201D01*
X62479930Y-94489293D01*
X62499955Y-94477291D01*
X62521060Y-94467309D01*
X62543041Y-94459444D01*
X62565688Y-94453771D01*
X62588782Y-94450346D01*
X62612100Y-94449200D01*
X63462900Y-94449200D01*
X63486218Y-94450346D01*
X63486218Y-94450346D01*
G37*
D27*
X63037500Y-94925000D03*
D11*
G36*
X61861218Y-94450346D02*
G01*
X61884312Y-94453771D01*
X61906959Y-94459444D01*
X61928940Y-94467309D01*
X61950045Y-94477291D01*
X61970070Y-94489293D01*
X61988822Y-94503201D01*
X62006121Y-94518879D01*
X62021799Y-94536178D01*
X62035707Y-94554930D01*
X62047709Y-94574955D01*
X62057691Y-94596060D01*
X62065556Y-94618041D01*
X62071229Y-94640688D01*
X62074654Y-94663782D01*
X62075800Y-94687100D01*
X62075800Y-95162900D01*
X62074654Y-95186218D01*
X62071229Y-95209312D01*
X62065556Y-95231959D01*
X62057691Y-95253940D01*
X62047709Y-95275045D01*
X62035707Y-95295070D01*
X62021799Y-95313822D01*
X62006121Y-95331121D01*
X61988822Y-95346799D01*
X61970070Y-95360707D01*
X61950045Y-95372709D01*
X61928940Y-95382691D01*
X61906959Y-95390556D01*
X61884312Y-95396229D01*
X61861218Y-95399654D01*
X61837900Y-95400800D01*
X60987100Y-95400800D01*
X60963782Y-95399654D01*
X60940688Y-95396229D01*
X60918041Y-95390556D01*
X60896060Y-95382691D01*
X60874955Y-95372709D01*
X60854930Y-95360707D01*
X60836178Y-95346799D01*
X60818879Y-95331121D01*
X60803201Y-95313822D01*
X60789293Y-95295070D01*
X60777291Y-95275045D01*
X60767309Y-95253940D01*
X60759444Y-95231959D01*
X60753771Y-95209312D01*
X60750346Y-95186218D01*
X60749200Y-95162900D01*
X60749200Y-94687100D01*
X60750346Y-94663782D01*
X60753771Y-94640688D01*
X60759444Y-94618041D01*
X60767309Y-94596060D01*
X60777291Y-94574955D01*
X60789293Y-94554930D01*
X60803201Y-94536178D01*
X60818879Y-94518879D01*
X60836178Y-94503201D01*
X60854930Y-94489293D01*
X60874955Y-94477291D01*
X60896060Y-94467309D01*
X60918041Y-94459444D01*
X60940688Y-94453771D01*
X60963782Y-94450346D01*
X60987100Y-94449200D01*
X61837900Y-94449200D01*
X61861218Y-94450346D01*
X61861218Y-94450346D01*
G37*
D27*
X61412500Y-94925000D03*
D28*
X120400000Y-99470000D03*
X121350000Y-101470000D03*
X119450000Y-101470000D03*
X113300000Y-99475000D03*
X114250000Y-101475000D03*
X112350000Y-101475000D03*
D26*
X112690000Y-105610000D03*
D25*
X115230000Y-105610000D03*
X117770000Y-105610000D03*
X120310000Y-105610000D03*
D28*
X109750000Y-99475000D03*
X110700000Y-101475000D03*
X108800000Y-101475000D03*
D11*
G36*
X130686218Y-92875346D02*
G01*
X130709312Y-92878771D01*
X130731959Y-92884444D01*
X130753940Y-92892309D01*
X130775045Y-92902291D01*
X130795070Y-92914293D01*
X130813822Y-92928201D01*
X130831121Y-92943879D01*
X130846799Y-92961178D01*
X130860707Y-92979930D01*
X130872709Y-92999955D01*
X130882691Y-93021060D01*
X130890556Y-93043041D01*
X130896229Y-93065688D01*
X130899654Y-93088782D01*
X130900800Y-93112100D01*
X130900800Y-93587900D01*
X130899654Y-93611218D01*
X130896229Y-93634312D01*
X130890556Y-93656959D01*
X130882691Y-93678940D01*
X130872709Y-93700045D01*
X130860707Y-93720070D01*
X130846799Y-93738822D01*
X130831121Y-93756121D01*
X130813822Y-93771799D01*
X130795070Y-93785707D01*
X130775045Y-93797709D01*
X130753940Y-93807691D01*
X130731959Y-93815556D01*
X130709312Y-93821229D01*
X130686218Y-93824654D01*
X130662900Y-93825800D01*
X129812100Y-93825800D01*
X129788782Y-93824654D01*
X129765688Y-93821229D01*
X129743041Y-93815556D01*
X129721060Y-93807691D01*
X129699955Y-93797709D01*
X129679930Y-93785707D01*
X129661178Y-93771799D01*
X129643879Y-93756121D01*
X129628201Y-93738822D01*
X129614293Y-93720070D01*
X129602291Y-93700045D01*
X129592309Y-93678940D01*
X129584444Y-93656959D01*
X129578771Y-93634312D01*
X129575346Y-93611218D01*
X129574200Y-93587900D01*
X129574200Y-93112100D01*
X129575346Y-93088782D01*
X129578771Y-93065688D01*
X129584444Y-93043041D01*
X129592309Y-93021060D01*
X129602291Y-92999955D01*
X129614293Y-92979930D01*
X129628201Y-92961178D01*
X129643879Y-92943879D01*
X129661178Y-92928201D01*
X129679930Y-92914293D01*
X129699955Y-92902291D01*
X129721060Y-92892309D01*
X129743041Y-92884444D01*
X129765688Y-92878771D01*
X129788782Y-92875346D01*
X129812100Y-92874200D01*
X130662900Y-92874200D01*
X130686218Y-92875346D01*
X130686218Y-92875346D01*
G37*
D27*
X130237500Y-93350000D03*
D11*
G36*
X129061218Y-92875346D02*
G01*
X129084312Y-92878771D01*
X129106959Y-92884444D01*
X129128940Y-92892309D01*
X129150045Y-92902291D01*
X129170070Y-92914293D01*
X129188822Y-92928201D01*
X129206121Y-92943879D01*
X129221799Y-92961178D01*
X129235707Y-92979930D01*
X129247709Y-92999955D01*
X129257691Y-93021060D01*
X129265556Y-93043041D01*
X129271229Y-93065688D01*
X129274654Y-93088782D01*
X129275800Y-93112100D01*
X129275800Y-93587900D01*
X129274654Y-93611218D01*
X129271229Y-93634312D01*
X129265556Y-93656959D01*
X129257691Y-93678940D01*
X129247709Y-93700045D01*
X129235707Y-93720070D01*
X129221799Y-93738822D01*
X129206121Y-93756121D01*
X129188822Y-93771799D01*
X129170070Y-93785707D01*
X129150045Y-93797709D01*
X129128940Y-93807691D01*
X129106959Y-93815556D01*
X129084312Y-93821229D01*
X129061218Y-93824654D01*
X129037900Y-93825800D01*
X128187100Y-93825800D01*
X128163782Y-93824654D01*
X128140688Y-93821229D01*
X128118041Y-93815556D01*
X128096060Y-93807691D01*
X128074955Y-93797709D01*
X128054930Y-93785707D01*
X128036178Y-93771799D01*
X128018879Y-93756121D01*
X128003201Y-93738822D01*
X127989293Y-93720070D01*
X127977291Y-93700045D01*
X127967309Y-93678940D01*
X127959444Y-93656959D01*
X127953771Y-93634312D01*
X127950346Y-93611218D01*
X127949200Y-93587900D01*
X127949200Y-93112100D01*
X127950346Y-93088782D01*
X127953771Y-93065688D01*
X127959444Y-93043041D01*
X127967309Y-93021060D01*
X127977291Y-92999955D01*
X127989293Y-92979930D01*
X128003201Y-92961178D01*
X128018879Y-92943879D01*
X128036178Y-92928201D01*
X128054930Y-92914293D01*
X128074955Y-92902291D01*
X128096060Y-92892309D01*
X128118041Y-92884444D01*
X128140688Y-92878771D01*
X128163782Y-92875346D01*
X128187100Y-92874200D01*
X129037900Y-92874200D01*
X129061218Y-92875346D01*
X129061218Y-92875346D01*
G37*
D27*
X128612500Y-93350000D03*
D28*
X102700000Y-93850000D03*
X103650000Y-95850000D03*
X101750000Y-95850000D03*
X115900000Y-101475000D03*
X117800000Y-101475000D03*
X116850000Y-99475000D03*
D26*
X120300000Y-95450000D03*
D25*
X117760000Y-95450000D03*
X115220000Y-95450000D03*
X112680000Y-95450000D03*
X110140000Y-95450000D03*
D26*
X79660000Y-95440000D03*
D25*
X82200000Y-95440000D03*
X84740000Y-95440000D03*
X87280000Y-95440000D03*
X89820000Y-95440000D03*
M02*
