G04 #@! TF.GenerationSoftware,KiCad,Pcbnew,(5.1.4-0-10_14)*
G04 #@! TF.CreationDate,2019-10-03T22:44:09-07:00*
G04 #@! TF.ProjectId,STM32L0xx_18650,53544d33-324c-4307-9878-5f3138363530,rev?*
G04 #@! TF.SameCoordinates,Original*
G04 #@! TF.FileFunction,Paste,Top*
G04 #@! TF.FilePolarity,Positive*
%FSLAX46Y46*%
G04 Gerber Fmt 4.6, Leading zero omitted, Abs format (unit mm)*
G04 Created by KiCad (PCBNEW (5.1.4-0-10_14)) date 2019-10-03 22:44:09*
%MOMM*%
%LPD*%
G04 APERTURE LIST*
%ADD10C,0.100000*%
%ADD11C,0.500000*%
%ADD12C,0.875000*%
%ADD13R,0.800000X0.900000*%
%ADD14R,1.100000X0.250000*%
%ADD15R,2.500000X4.400000*%
%ADD16R,1.650000X0.400000*%
%ADD17R,1.500000X2.000000*%
%ADD18R,1.600000X2.180000*%
%ADD19R,1.000000X1.000000*%
%ADD20R,1.800000X1.000000*%
%ADD21C,0.850000*%
G04 APERTURE END LIST*
D10*
G36*
X101662252Y-101175602D02*
G01*
X101674386Y-101177402D01*
X101686286Y-101180382D01*
X101697835Y-101184515D01*
X101708925Y-101189760D01*
X101719446Y-101196066D01*
X101729299Y-101203374D01*
X101738388Y-101211612D01*
X101746626Y-101220701D01*
X101753934Y-101230554D01*
X101760240Y-101241075D01*
X101765485Y-101252165D01*
X101769618Y-101263714D01*
X101772598Y-101275614D01*
X101774398Y-101287748D01*
X101775000Y-101300000D01*
X101775000Y-101550000D01*
X101774398Y-101562252D01*
X101772598Y-101574386D01*
X101769618Y-101586286D01*
X101765485Y-101597835D01*
X101760240Y-101608925D01*
X101753934Y-101619446D01*
X101746626Y-101629299D01*
X101738388Y-101638388D01*
X101729299Y-101646626D01*
X101719446Y-101653934D01*
X101708925Y-101660240D01*
X101697835Y-101665485D01*
X101686286Y-101669618D01*
X101674386Y-101672598D01*
X101662252Y-101674398D01*
X101650000Y-101675000D01*
X100400000Y-101675000D01*
X100387748Y-101674398D01*
X100375614Y-101672598D01*
X100363714Y-101669618D01*
X100352165Y-101665485D01*
X100341075Y-101660240D01*
X100330554Y-101653934D01*
X100320701Y-101646626D01*
X100311612Y-101638388D01*
X100303374Y-101629299D01*
X100296066Y-101619446D01*
X100289760Y-101608925D01*
X100284515Y-101597835D01*
X100280382Y-101586286D01*
X100277402Y-101574386D01*
X100275602Y-101562252D01*
X100275000Y-101550000D01*
X100275000Y-101300000D01*
X100275602Y-101287748D01*
X100277402Y-101275614D01*
X100280382Y-101263714D01*
X100284515Y-101252165D01*
X100289760Y-101241075D01*
X100296066Y-101230554D01*
X100303374Y-101220701D01*
X100311612Y-101211612D01*
X100320701Y-101203374D01*
X100330554Y-101196066D01*
X100341075Y-101189760D01*
X100352165Y-101184515D01*
X100363714Y-101180382D01*
X100375614Y-101177402D01*
X100387748Y-101175602D01*
X100400000Y-101175000D01*
X101650000Y-101175000D01*
X101662252Y-101175602D01*
X101662252Y-101175602D01*
G37*
D11*
X101025000Y-101425000D03*
D10*
G36*
X101662252Y-100375602D02*
G01*
X101674386Y-100377402D01*
X101686286Y-100380382D01*
X101697835Y-100384515D01*
X101708925Y-100389760D01*
X101719446Y-100396066D01*
X101729299Y-100403374D01*
X101738388Y-100411612D01*
X101746626Y-100420701D01*
X101753934Y-100430554D01*
X101760240Y-100441075D01*
X101765485Y-100452165D01*
X101769618Y-100463714D01*
X101772598Y-100475614D01*
X101774398Y-100487748D01*
X101775000Y-100500000D01*
X101775000Y-100750000D01*
X101774398Y-100762252D01*
X101772598Y-100774386D01*
X101769618Y-100786286D01*
X101765485Y-100797835D01*
X101760240Y-100808925D01*
X101753934Y-100819446D01*
X101746626Y-100829299D01*
X101738388Y-100838388D01*
X101729299Y-100846626D01*
X101719446Y-100853934D01*
X101708925Y-100860240D01*
X101697835Y-100865485D01*
X101686286Y-100869618D01*
X101674386Y-100872598D01*
X101662252Y-100874398D01*
X101650000Y-100875000D01*
X100400000Y-100875000D01*
X100387748Y-100874398D01*
X100375614Y-100872598D01*
X100363714Y-100869618D01*
X100352165Y-100865485D01*
X100341075Y-100860240D01*
X100330554Y-100853934D01*
X100320701Y-100846626D01*
X100311612Y-100838388D01*
X100303374Y-100829299D01*
X100296066Y-100819446D01*
X100289760Y-100808925D01*
X100284515Y-100797835D01*
X100280382Y-100786286D01*
X100277402Y-100774386D01*
X100275602Y-100762252D01*
X100275000Y-100750000D01*
X100275000Y-100500000D01*
X100275602Y-100487748D01*
X100277402Y-100475614D01*
X100280382Y-100463714D01*
X100284515Y-100452165D01*
X100289760Y-100441075D01*
X100296066Y-100430554D01*
X100303374Y-100420701D01*
X100311612Y-100411612D01*
X100320701Y-100403374D01*
X100330554Y-100396066D01*
X100341075Y-100389760D01*
X100352165Y-100384515D01*
X100363714Y-100380382D01*
X100375614Y-100377402D01*
X100387748Y-100375602D01*
X100400000Y-100375000D01*
X101650000Y-100375000D01*
X101662252Y-100375602D01*
X101662252Y-100375602D01*
G37*
D11*
X101025000Y-100625000D03*
D10*
G36*
X101662252Y-99575602D02*
G01*
X101674386Y-99577402D01*
X101686286Y-99580382D01*
X101697835Y-99584515D01*
X101708925Y-99589760D01*
X101719446Y-99596066D01*
X101729299Y-99603374D01*
X101738388Y-99611612D01*
X101746626Y-99620701D01*
X101753934Y-99630554D01*
X101760240Y-99641075D01*
X101765485Y-99652165D01*
X101769618Y-99663714D01*
X101772598Y-99675614D01*
X101774398Y-99687748D01*
X101775000Y-99700000D01*
X101775000Y-99950000D01*
X101774398Y-99962252D01*
X101772598Y-99974386D01*
X101769618Y-99986286D01*
X101765485Y-99997835D01*
X101760240Y-100008925D01*
X101753934Y-100019446D01*
X101746626Y-100029299D01*
X101738388Y-100038388D01*
X101729299Y-100046626D01*
X101719446Y-100053934D01*
X101708925Y-100060240D01*
X101697835Y-100065485D01*
X101686286Y-100069618D01*
X101674386Y-100072598D01*
X101662252Y-100074398D01*
X101650000Y-100075000D01*
X100400000Y-100075000D01*
X100387748Y-100074398D01*
X100375614Y-100072598D01*
X100363714Y-100069618D01*
X100352165Y-100065485D01*
X100341075Y-100060240D01*
X100330554Y-100053934D01*
X100320701Y-100046626D01*
X100311612Y-100038388D01*
X100303374Y-100029299D01*
X100296066Y-100019446D01*
X100289760Y-100008925D01*
X100284515Y-99997835D01*
X100280382Y-99986286D01*
X100277402Y-99974386D01*
X100275602Y-99962252D01*
X100275000Y-99950000D01*
X100275000Y-99700000D01*
X100275602Y-99687748D01*
X100277402Y-99675614D01*
X100280382Y-99663714D01*
X100284515Y-99652165D01*
X100289760Y-99641075D01*
X100296066Y-99630554D01*
X100303374Y-99620701D01*
X100311612Y-99611612D01*
X100320701Y-99603374D01*
X100330554Y-99596066D01*
X100341075Y-99589760D01*
X100352165Y-99584515D01*
X100363714Y-99580382D01*
X100375614Y-99577402D01*
X100387748Y-99575602D01*
X100400000Y-99575000D01*
X101650000Y-99575000D01*
X101662252Y-99575602D01*
X101662252Y-99575602D01*
G37*
D11*
X101025000Y-99825000D03*
D10*
G36*
X101662252Y-98775602D02*
G01*
X101674386Y-98777402D01*
X101686286Y-98780382D01*
X101697835Y-98784515D01*
X101708925Y-98789760D01*
X101719446Y-98796066D01*
X101729299Y-98803374D01*
X101738388Y-98811612D01*
X101746626Y-98820701D01*
X101753934Y-98830554D01*
X101760240Y-98841075D01*
X101765485Y-98852165D01*
X101769618Y-98863714D01*
X101772598Y-98875614D01*
X101774398Y-98887748D01*
X101775000Y-98900000D01*
X101775000Y-99150000D01*
X101774398Y-99162252D01*
X101772598Y-99174386D01*
X101769618Y-99186286D01*
X101765485Y-99197835D01*
X101760240Y-99208925D01*
X101753934Y-99219446D01*
X101746626Y-99229299D01*
X101738388Y-99238388D01*
X101729299Y-99246626D01*
X101719446Y-99253934D01*
X101708925Y-99260240D01*
X101697835Y-99265485D01*
X101686286Y-99269618D01*
X101674386Y-99272598D01*
X101662252Y-99274398D01*
X101650000Y-99275000D01*
X100400000Y-99275000D01*
X100387748Y-99274398D01*
X100375614Y-99272598D01*
X100363714Y-99269618D01*
X100352165Y-99265485D01*
X100341075Y-99260240D01*
X100330554Y-99253934D01*
X100320701Y-99246626D01*
X100311612Y-99238388D01*
X100303374Y-99229299D01*
X100296066Y-99219446D01*
X100289760Y-99208925D01*
X100284515Y-99197835D01*
X100280382Y-99186286D01*
X100277402Y-99174386D01*
X100275602Y-99162252D01*
X100275000Y-99150000D01*
X100275000Y-98900000D01*
X100275602Y-98887748D01*
X100277402Y-98875614D01*
X100280382Y-98863714D01*
X100284515Y-98852165D01*
X100289760Y-98841075D01*
X100296066Y-98830554D01*
X100303374Y-98820701D01*
X100311612Y-98811612D01*
X100320701Y-98803374D01*
X100330554Y-98796066D01*
X100341075Y-98789760D01*
X100352165Y-98784515D01*
X100363714Y-98780382D01*
X100375614Y-98777402D01*
X100387748Y-98775602D01*
X100400000Y-98775000D01*
X101650000Y-98775000D01*
X101662252Y-98775602D01*
X101662252Y-98775602D01*
G37*
D11*
X101025000Y-99025000D03*
D10*
G36*
X101662252Y-97975602D02*
G01*
X101674386Y-97977402D01*
X101686286Y-97980382D01*
X101697835Y-97984515D01*
X101708925Y-97989760D01*
X101719446Y-97996066D01*
X101729299Y-98003374D01*
X101738388Y-98011612D01*
X101746626Y-98020701D01*
X101753934Y-98030554D01*
X101760240Y-98041075D01*
X101765485Y-98052165D01*
X101769618Y-98063714D01*
X101772598Y-98075614D01*
X101774398Y-98087748D01*
X101775000Y-98100000D01*
X101775000Y-98350000D01*
X101774398Y-98362252D01*
X101772598Y-98374386D01*
X101769618Y-98386286D01*
X101765485Y-98397835D01*
X101760240Y-98408925D01*
X101753934Y-98419446D01*
X101746626Y-98429299D01*
X101738388Y-98438388D01*
X101729299Y-98446626D01*
X101719446Y-98453934D01*
X101708925Y-98460240D01*
X101697835Y-98465485D01*
X101686286Y-98469618D01*
X101674386Y-98472598D01*
X101662252Y-98474398D01*
X101650000Y-98475000D01*
X100400000Y-98475000D01*
X100387748Y-98474398D01*
X100375614Y-98472598D01*
X100363714Y-98469618D01*
X100352165Y-98465485D01*
X100341075Y-98460240D01*
X100330554Y-98453934D01*
X100320701Y-98446626D01*
X100311612Y-98438388D01*
X100303374Y-98429299D01*
X100296066Y-98419446D01*
X100289760Y-98408925D01*
X100284515Y-98397835D01*
X100280382Y-98386286D01*
X100277402Y-98374386D01*
X100275602Y-98362252D01*
X100275000Y-98350000D01*
X100275000Y-98100000D01*
X100275602Y-98087748D01*
X100277402Y-98075614D01*
X100280382Y-98063714D01*
X100284515Y-98052165D01*
X100289760Y-98041075D01*
X100296066Y-98030554D01*
X100303374Y-98020701D01*
X100311612Y-98011612D01*
X100320701Y-98003374D01*
X100330554Y-97996066D01*
X100341075Y-97989760D01*
X100352165Y-97984515D01*
X100363714Y-97980382D01*
X100375614Y-97977402D01*
X100387748Y-97975602D01*
X100400000Y-97975000D01*
X101650000Y-97975000D01*
X101662252Y-97975602D01*
X101662252Y-97975602D01*
G37*
D11*
X101025000Y-98225000D03*
D10*
G36*
X101662252Y-97175602D02*
G01*
X101674386Y-97177402D01*
X101686286Y-97180382D01*
X101697835Y-97184515D01*
X101708925Y-97189760D01*
X101719446Y-97196066D01*
X101729299Y-97203374D01*
X101738388Y-97211612D01*
X101746626Y-97220701D01*
X101753934Y-97230554D01*
X101760240Y-97241075D01*
X101765485Y-97252165D01*
X101769618Y-97263714D01*
X101772598Y-97275614D01*
X101774398Y-97287748D01*
X101775000Y-97300000D01*
X101775000Y-97550000D01*
X101774398Y-97562252D01*
X101772598Y-97574386D01*
X101769618Y-97586286D01*
X101765485Y-97597835D01*
X101760240Y-97608925D01*
X101753934Y-97619446D01*
X101746626Y-97629299D01*
X101738388Y-97638388D01*
X101729299Y-97646626D01*
X101719446Y-97653934D01*
X101708925Y-97660240D01*
X101697835Y-97665485D01*
X101686286Y-97669618D01*
X101674386Y-97672598D01*
X101662252Y-97674398D01*
X101650000Y-97675000D01*
X100400000Y-97675000D01*
X100387748Y-97674398D01*
X100375614Y-97672598D01*
X100363714Y-97669618D01*
X100352165Y-97665485D01*
X100341075Y-97660240D01*
X100330554Y-97653934D01*
X100320701Y-97646626D01*
X100311612Y-97638388D01*
X100303374Y-97629299D01*
X100296066Y-97619446D01*
X100289760Y-97608925D01*
X100284515Y-97597835D01*
X100280382Y-97586286D01*
X100277402Y-97574386D01*
X100275602Y-97562252D01*
X100275000Y-97550000D01*
X100275000Y-97300000D01*
X100275602Y-97287748D01*
X100277402Y-97275614D01*
X100280382Y-97263714D01*
X100284515Y-97252165D01*
X100289760Y-97241075D01*
X100296066Y-97230554D01*
X100303374Y-97220701D01*
X100311612Y-97211612D01*
X100320701Y-97203374D01*
X100330554Y-97196066D01*
X100341075Y-97189760D01*
X100352165Y-97184515D01*
X100363714Y-97180382D01*
X100375614Y-97177402D01*
X100387748Y-97175602D01*
X100400000Y-97175000D01*
X101650000Y-97175000D01*
X101662252Y-97175602D01*
X101662252Y-97175602D01*
G37*
D11*
X101025000Y-97425000D03*
D10*
G36*
X101662252Y-96375602D02*
G01*
X101674386Y-96377402D01*
X101686286Y-96380382D01*
X101697835Y-96384515D01*
X101708925Y-96389760D01*
X101719446Y-96396066D01*
X101729299Y-96403374D01*
X101738388Y-96411612D01*
X101746626Y-96420701D01*
X101753934Y-96430554D01*
X101760240Y-96441075D01*
X101765485Y-96452165D01*
X101769618Y-96463714D01*
X101772598Y-96475614D01*
X101774398Y-96487748D01*
X101775000Y-96500000D01*
X101775000Y-96750000D01*
X101774398Y-96762252D01*
X101772598Y-96774386D01*
X101769618Y-96786286D01*
X101765485Y-96797835D01*
X101760240Y-96808925D01*
X101753934Y-96819446D01*
X101746626Y-96829299D01*
X101738388Y-96838388D01*
X101729299Y-96846626D01*
X101719446Y-96853934D01*
X101708925Y-96860240D01*
X101697835Y-96865485D01*
X101686286Y-96869618D01*
X101674386Y-96872598D01*
X101662252Y-96874398D01*
X101650000Y-96875000D01*
X100400000Y-96875000D01*
X100387748Y-96874398D01*
X100375614Y-96872598D01*
X100363714Y-96869618D01*
X100352165Y-96865485D01*
X100341075Y-96860240D01*
X100330554Y-96853934D01*
X100320701Y-96846626D01*
X100311612Y-96838388D01*
X100303374Y-96829299D01*
X100296066Y-96819446D01*
X100289760Y-96808925D01*
X100284515Y-96797835D01*
X100280382Y-96786286D01*
X100277402Y-96774386D01*
X100275602Y-96762252D01*
X100275000Y-96750000D01*
X100275000Y-96500000D01*
X100275602Y-96487748D01*
X100277402Y-96475614D01*
X100280382Y-96463714D01*
X100284515Y-96452165D01*
X100289760Y-96441075D01*
X100296066Y-96430554D01*
X100303374Y-96420701D01*
X100311612Y-96411612D01*
X100320701Y-96403374D01*
X100330554Y-96396066D01*
X100341075Y-96389760D01*
X100352165Y-96384515D01*
X100363714Y-96380382D01*
X100375614Y-96377402D01*
X100387748Y-96375602D01*
X100400000Y-96375000D01*
X101650000Y-96375000D01*
X101662252Y-96375602D01*
X101662252Y-96375602D01*
G37*
D11*
X101025000Y-96625000D03*
D10*
G36*
X101662252Y-95575602D02*
G01*
X101674386Y-95577402D01*
X101686286Y-95580382D01*
X101697835Y-95584515D01*
X101708925Y-95589760D01*
X101719446Y-95596066D01*
X101729299Y-95603374D01*
X101738388Y-95611612D01*
X101746626Y-95620701D01*
X101753934Y-95630554D01*
X101760240Y-95641075D01*
X101765485Y-95652165D01*
X101769618Y-95663714D01*
X101772598Y-95675614D01*
X101774398Y-95687748D01*
X101775000Y-95700000D01*
X101775000Y-95950000D01*
X101774398Y-95962252D01*
X101772598Y-95974386D01*
X101769618Y-95986286D01*
X101765485Y-95997835D01*
X101760240Y-96008925D01*
X101753934Y-96019446D01*
X101746626Y-96029299D01*
X101738388Y-96038388D01*
X101729299Y-96046626D01*
X101719446Y-96053934D01*
X101708925Y-96060240D01*
X101697835Y-96065485D01*
X101686286Y-96069618D01*
X101674386Y-96072598D01*
X101662252Y-96074398D01*
X101650000Y-96075000D01*
X100400000Y-96075000D01*
X100387748Y-96074398D01*
X100375614Y-96072598D01*
X100363714Y-96069618D01*
X100352165Y-96065485D01*
X100341075Y-96060240D01*
X100330554Y-96053934D01*
X100320701Y-96046626D01*
X100311612Y-96038388D01*
X100303374Y-96029299D01*
X100296066Y-96019446D01*
X100289760Y-96008925D01*
X100284515Y-95997835D01*
X100280382Y-95986286D01*
X100277402Y-95974386D01*
X100275602Y-95962252D01*
X100275000Y-95950000D01*
X100275000Y-95700000D01*
X100275602Y-95687748D01*
X100277402Y-95675614D01*
X100280382Y-95663714D01*
X100284515Y-95652165D01*
X100289760Y-95641075D01*
X100296066Y-95630554D01*
X100303374Y-95620701D01*
X100311612Y-95611612D01*
X100320701Y-95603374D01*
X100330554Y-95596066D01*
X100341075Y-95589760D01*
X100352165Y-95584515D01*
X100363714Y-95580382D01*
X100375614Y-95577402D01*
X100387748Y-95575602D01*
X100400000Y-95575000D01*
X101650000Y-95575000D01*
X101662252Y-95575602D01*
X101662252Y-95575602D01*
G37*
D11*
X101025000Y-95825000D03*
D10*
G36*
X99787252Y-93700602D02*
G01*
X99799386Y-93702402D01*
X99811286Y-93705382D01*
X99822835Y-93709515D01*
X99833925Y-93714760D01*
X99844446Y-93721066D01*
X99854299Y-93728374D01*
X99863388Y-93736612D01*
X99871626Y-93745701D01*
X99878934Y-93755554D01*
X99885240Y-93766075D01*
X99890485Y-93777165D01*
X99894618Y-93788714D01*
X99897598Y-93800614D01*
X99899398Y-93812748D01*
X99900000Y-93825000D01*
X99900000Y-95075000D01*
X99899398Y-95087252D01*
X99897598Y-95099386D01*
X99894618Y-95111286D01*
X99890485Y-95122835D01*
X99885240Y-95133925D01*
X99878934Y-95144446D01*
X99871626Y-95154299D01*
X99863388Y-95163388D01*
X99854299Y-95171626D01*
X99844446Y-95178934D01*
X99833925Y-95185240D01*
X99822835Y-95190485D01*
X99811286Y-95194618D01*
X99799386Y-95197598D01*
X99787252Y-95199398D01*
X99775000Y-95200000D01*
X99525000Y-95200000D01*
X99512748Y-95199398D01*
X99500614Y-95197598D01*
X99488714Y-95194618D01*
X99477165Y-95190485D01*
X99466075Y-95185240D01*
X99455554Y-95178934D01*
X99445701Y-95171626D01*
X99436612Y-95163388D01*
X99428374Y-95154299D01*
X99421066Y-95144446D01*
X99414760Y-95133925D01*
X99409515Y-95122835D01*
X99405382Y-95111286D01*
X99402402Y-95099386D01*
X99400602Y-95087252D01*
X99400000Y-95075000D01*
X99400000Y-93825000D01*
X99400602Y-93812748D01*
X99402402Y-93800614D01*
X99405382Y-93788714D01*
X99409515Y-93777165D01*
X99414760Y-93766075D01*
X99421066Y-93755554D01*
X99428374Y-93745701D01*
X99436612Y-93736612D01*
X99445701Y-93728374D01*
X99455554Y-93721066D01*
X99466075Y-93714760D01*
X99477165Y-93709515D01*
X99488714Y-93705382D01*
X99500614Y-93702402D01*
X99512748Y-93700602D01*
X99525000Y-93700000D01*
X99775000Y-93700000D01*
X99787252Y-93700602D01*
X99787252Y-93700602D01*
G37*
D11*
X99650000Y-94450000D03*
D10*
G36*
X98987252Y-93700602D02*
G01*
X98999386Y-93702402D01*
X99011286Y-93705382D01*
X99022835Y-93709515D01*
X99033925Y-93714760D01*
X99044446Y-93721066D01*
X99054299Y-93728374D01*
X99063388Y-93736612D01*
X99071626Y-93745701D01*
X99078934Y-93755554D01*
X99085240Y-93766075D01*
X99090485Y-93777165D01*
X99094618Y-93788714D01*
X99097598Y-93800614D01*
X99099398Y-93812748D01*
X99100000Y-93825000D01*
X99100000Y-95075000D01*
X99099398Y-95087252D01*
X99097598Y-95099386D01*
X99094618Y-95111286D01*
X99090485Y-95122835D01*
X99085240Y-95133925D01*
X99078934Y-95144446D01*
X99071626Y-95154299D01*
X99063388Y-95163388D01*
X99054299Y-95171626D01*
X99044446Y-95178934D01*
X99033925Y-95185240D01*
X99022835Y-95190485D01*
X99011286Y-95194618D01*
X98999386Y-95197598D01*
X98987252Y-95199398D01*
X98975000Y-95200000D01*
X98725000Y-95200000D01*
X98712748Y-95199398D01*
X98700614Y-95197598D01*
X98688714Y-95194618D01*
X98677165Y-95190485D01*
X98666075Y-95185240D01*
X98655554Y-95178934D01*
X98645701Y-95171626D01*
X98636612Y-95163388D01*
X98628374Y-95154299D01*
X98621066Y-95144446D01*
X98614760Y-95133925D01*
X98609515Y-95122835D01*
X98605382Y-95111286D01*
X98602402Y-95099386D01*
X98600602Y-95087252D01*
X98600000Y-95075000D01*
X98600000Y-93825000D01*
X98600602Y-93812748D01*
X98602402Y-93800614D01*
X98605382Y-93788714D01*
X98609515Y-93777165D01*
X98614760Y-93766075D01*
X98621066Y-93755554D01*
X98628374Y-93745701D01*
X98636612Y-93736612D01*
X98645701Y-93728374D01*
X98655554Y-93721066D01*
X98666075Y-93714760D01*
X98677165Y-93709515D01*
X98688714Y-93705382D01*
X98700614Y-93702402D01*
X98712748Y-93700602D01*
X98725000Y-93700000D01*
X98975000Y-93700000D01*
X98987252Y-93700602D01*
X98987252Y-93700602D01*
G37*
D11*
X98850000Y-94450000D03*
D10*
G36*
X98187252Y-93700602D02*
G01*
X98199386Y-93702402D01*
X98211286Y-93705382D01*
X98222835Y-93709515D01*
X98233925Y-93714760D01*
X98244446Y-93721066D01*
X98254299Y-93728374D01*
X98263388Y-93736612D01*
X98271626Y-93745701D01*
X98278934Y-93755554D01*
X98285240Y-93766075D01*
X98290485Y-93777165D01*
X98294618Y-93788714D01*
X98297598Y-93800614D01*
X98299398Y-93812748D01*
X98300000Y-93825000D01*
X98300000Y-95075000D01*
X98299398Y-95087252D01*
X98297598Y-95099386D01*
X98294618Y-95111286D01*
X98290485Y-95122835D01*
X98285240Y-95133925D01*
X98278934Y-95144446D01*
X98271626Y-95154299D01*
X98263388Y-95163388D01*
X98254299Y-95171626D01*
X98244446Y-95178934D01*
X98233925Y-95185240D01*
X98222835Y-95190485D01*
X98211286Y-95194618D01*
X98199386Y-95197598D01*
X98187252Y-95199398D01*
X98175000Y-95200000D01*
X97925000Y-95200000D01*
X97912748Y-95199398D01*
X97900614Y-95197598D01*
X97888714Y-95194618D01*
X97877165Y-95190485D01*
X97866075Y-95185240D01*
X97855554Y-95178934D01*
X97845701Y-95171626D01*
X97836612Y-95163388D01*
X97828374Y-95154299D01*
X97821066Y-95144446D01*
X97814760Y-95133925D01*
X97809515Y-95122835D01*
X97805382Y-95111286D01*
X97802402Y-95099386D01*
X97800602Y-95087252D01*
X97800000Y-95075000D01*
X97800000Y-93825000D01*
X97800602Y-93812748D01*
X97802402Y-93800614D01*
X97805382Y-93788714D01*
X97809515Y-93777165D01*
X97814760Y-93766075D01*
X97821066Y-93755554D01*
X97828374Y-93745701D01*
X97836612Y-93736612D01*
X97845701Y-93728374D01*
X97855554Y-93721066D01*
X97866075Y-93714760D01*
X97877165Y-93709515D01*
X97888714Y-93705382D01*
X97900614Y-93702402D01*
X97912748Y-93700602D01*
X97925000Y-93700000D01*
X98175000Y-93700000D01*
X98187252Y-93700602D01*
X98187252Y-93700602D01*
G37*
D11*
X98050000Y-94450000D03*
D10*
G36*
X97387252Y-93700602D02*
G01*
X97399386Y-93702402D01*
X97411286Y-93705382D01*
X97422835Y-93709515D01*
X97433925Y-93714760D01*
X97444446Y-93721066D01*
X97454299Y-93728374D01*
X97463388Y-93736612D01*
X97471626Y-93745701D01*
X97478934Y-93755554D01*
X97485240Y-93766075D01*
X97490485Y-93777165D01*
X97494618Y-93788714D01*
X97497598Y-93800614D01*
X97499398Y-93812748D01*
X97500000Y-93825000D01*
X97500000Y-95075000D01*
X97499398Y-95087252D01*
X97497598Y-95099386D01*
X97494618Y-95111286D01*
X97490485Y-95122835D01*
X97485240Y-95133925D01*
X97478934Y-95144446D01*
X97471626Y-95154299D01*
X97463388Y-95163388D01*
X97454299Y-95171626D01*
X97444446Y-95178934D01*
X97433925Y-95185240D01*
X97422835Y-95190485D01*
X97411286Y-95194618D01*
X97399386Y-95197598D01*
X97387252Y-95199398D01*
X97375000Y-95200000D01*
X97125000Y-95200000D01*
X97112748Y-95199398D01*
X97100614Y-95197598D01*
X97088714Y-95194618D01*
X97077165Y-95190485D01*
X97066075Y-95185240D01*
X97055554Y-95178934D01*
X97045701Y-95171626D01*
X97036612Y-95163388D01*
X97028374Y-95154299D01*
X97021066Y-95144446D01*
X97014760Y-95133925D01*
X97009515Y-95122835D01*
X97005382Y-95111286D01*
X97002402Y-95099386D01*
X97000602Y-95087252D01*
X97000000Y-95075000D01*
X97000000Y-93825000D01*
X97000602Y-93812748D01*
X97002402Y-93800614D01*
X97005382Y-93788714D01*
X97009515Y-93777165D01*
X97014760Y-93766075D01*
X97021066Y-93755554D01*
X97028374Y-93745701D01*
X97036612Y-93736612D01*
X97045701Y-93728374D01*
X97055554Y-93721066D01*
X97066075Y-93714760D01*
X97077165Y-93709515D01*
X97088714Y-93705382D01*
X97100614Y-93702402D01*
X97112748Y-93700602D01*
X97125000Y-93700000D01*
X97375000Y-93700000D01*
X97387252Y-93700602D01*
X97387252Y-93700602D01*
G37*
D11*
X97250000Y-94450000D03*
D10*
G36*
X96587252Y-93700602D02*
G01*
X96599386Y-93702402D01*
X96611286Y-93705382D01*
X96622835Y-93709515D01*
X96633925Y-93714760D01*
X96644446Y-93721066D01*
X96654299Y-93728374D01*
X96663388Y-93736612D01*
X96671626Y-93745701D01*
X96678934Y-93755554D01*
X96685240Y-93766075D01*
X96690485Y-93777165D01*
X96694618Y-93788714D01*
X96697598Y-93800614D01*
X96699398Y-93812748D01*
X96700000Y-93825000D01*
X96700000Y-95075000D01*
X96699398Y-95087252D01*
X96697598Y-95099386D01*
X96694618Y-95111286D01*
X96690485Y-95122835D01*
X96685240Y-95133925D01*
X96678934Y-95144446D01*
X96671626Y-95154299D01*
X96663388Y-95163388D01*
X96654299Y-95171626D01*
X96644446Y-95178934D01*
X96633925Y-95185240D01*
X96622835Y-95190485D01*
X96611286Y-95194618D01*
X96599386Y-95197598D01*
X96587252Y-95199398D01*
X96575000Y-95200000D01*
X96325000Y-95200000D01*
X96312748Y-95199398D01*
X96300614Y-95197598D01*
X96288714Y-95194618D01*
X96277165Y-95190485D01*
X96266075Y-95185240D01*
X96255554Y-95178934D01*
X96245701Y-95171626D01*
X96236612Y-95163388D01*
X96228374Y-95154299D01*
X96221066Y-95144446D01*
X96214760Y-95133925D01*
X96209515Y-95122835D01*
X96205382Y-95111286D01*
X96202402Y-95099386D01*
X96200602Y-95087252D01*
X96200000Y-95075000D01*
X96200000Y-93825000D01*
X96200602Y-93812748D01*
X96202402Y-93800614D01*
X96205382Y-93788714D01*
X96209515Y-93777165D01*
X96214760Y-93766075D01*
X96221066Y-93755554D01*
X96228374Y-93745701D01*
X96236612Y-93736612D01*
X96245701Y-93728374D01*
X96255554Y-93721066D01*
X96266075Y-93714760D01*
X96277165Y-93709515D01*
X96288714Y-93705382D01*
X96300614Y-93702402D01*
X96312748Y-93700602D01*
X96325000Y-93700000D01*
X96575000Y-93700000D01*
X96587252Y-93700602D01*
X96587252Y-93700602D01*
G37*
D11*
X96450000Y-94450000D03*
D10*
G36*
X95787252Y-93700602D02*
G01*
X95799386Y-93702402D01*
X95811286Y-93705382D01*
X95822835Y-93709515D01*
X95833925Y-93714760D01*
X95844446Y-93721066D01*
X95854299Y-93728374D01*
X95863388Y-93736612D01*
X95871626Y-93745701D01*
X95878934Y-93755554D01*
X95885240Y-93766075D01*
X95890485Y-93777165D01*
X95894618Y-93788714D01*
X95897598Y-93800614D01*
X95899398Y-93812748D01*
X95900000Y-93825000D01*
X95900000Y-95075000D01*
X95899398Y-95087252D01*
X95897598Y-95099386D01*
X95894618Y-95111286D01*
X95890485Y-95122835D01*
X95885240Y-95133925D01*
X95878934Y-95144446D01*
X95871626Y-95154299D01*
X95863388Y-95163388D01*
X95854299Y-95171626D01*
X95844446Y-95178934D01*
X95833925Y-95185240D01*
X95822835Y-95190485D01*
X95811286Y-95194618D01*
X95799386Y-95197598D01*
X95787252Y-95199398D01*
X95775000Y-95200000D01*
X95525000Y-95200000D01*
X95512748Y-95199398D01*
X95500614Y-95197598D01*
X95488714Y-95194618D01*
X95477165Y-95190485D01*
X95466075Y-95185240D01*
X95455554Y-95178934D01*
X95445701Y-95171626D01*
X95436612Y-95163388D01*
X95428374Y-95154299D01*
X95421066Y-95144446D01*
X95414760Y-95133925D01*
X95409515Y-95122835D01*
X95405382Y-95111286D01*
X95402402Y-95099386D01*
X95400602Y-95087252D01*
X95400000Y-95075000D01*
X95400000Y-93825000D01*
X95400602Y-93812748D01*
X95402402Y-93800614D01*
X95405382Y-93788714D01*
X95409515Y-93777165D01*
X95414760Y-93766075D01*
X95421066Y-93755554D01*
X95428374Y-93745701D01*
X95436612Y-93736612D01*
X95445701Y-93728374D01*
X95455554Y-93721066D01*
X95466075Y-93714760D01*
X95477165Y-93709515D01*
X95488714Y-93705382D01*
X95500614Y-93702402D01*
X95512748Y-93700602D01*
X95525000Y-93700000D01*
X95775000Y-93700000D01*
X95787252Y-93700602D01*
X95787252Y-93700602D01*
G37*
D11*
X95650000Y-94450000D03*
D10*
G36*
X94987252Y-93700602D02*
G01*
X94999386Y-93702402D01*
X95011286Y-93705382D01*
X95022835Y-93709515D01*
X95033925Y-93714760D01*
X95044446Y-93721066D01*
X95054299Y-93728374D01*
X95063388Y-93736612D01*
X95071626Y-93745701D01*
X95078934Y-93755554D01*
X95085240Y-93766075D01*
X95090485Y-93777165D01*
X95094618Y-93788714D01*
X95097598Y-93800614D01*
X95099398Y-93812748D01*
X95100000Y-93825000D01*
X95100000Y-95075000D01*
X95099398Y-95087252D01*
X95097598Y-95099386D01*
X95094618Y-95111286D01*
X95090485Y-95122835D01*
X95085240Y-95133925D01*
X95078934Y-95144446D01*
X95071626Y-95154299D01*
X95063388Y-95163388D01*
X95054299Y-95171626D01*
X95044446Y-95178934D01*
X95033925Y-95185240D01*
X95022835Y-95190485D01*
X95011286Y-95194618D01*
X94999386Y-95197598D01*
X94987252Y-95199398D01*
X94975000Y-95200000D01*
X94725000Y-95200000D01*
X94712748Y-95199398D01*
X94700614Y-95197598D01*
X94688714Y-95194618D01*
X94677165Y-95190485D01*
X94666075Y-95185240D01*
X94655554Y-95178934D01*
X94645701Y-95171626D01*
X94636612Y-95163388D01*
X94628374Y-95154299D01*
X94621066Y-95144446D01*
X94614760Y-95133925D01*
X94609515Y-95122835D01*
X94605382Y-95111286D01*
X94602402Y-95099386D01*
X94600602Y-95087252D01*
X94600000Y-95075000D01*
X94600000Y-93825000D01*
X94600602Y-93812748D01*
X94602402Y-93800614D01*
X94605382Y-93788714D01*
X94609515Y-93777165D01*
X94614760Y-93766075D01*
X94621066Y-93755554D01*
X94628374Y-93745701D01*
X94636612Y-93736612D01*
X94645701Y-93728374D01*
X94655554Y-93721066D01*
X94666075Y-93714760D01*
X94677165Y-93709515D01*
X94688714Y-93705382D01*
X94700614Y-93702402D01*
X94712748Y-93700602D01*
X94725000Y-93700000D01*
X94975000Y-93700000D01*
X94987252Y-93700602D01*
X94987252Y-93700602D01*
G37*
D11*
X94850000Y-94450000D03*
D10*
G36*
X94187252Y-93700602D02*
G01*
X94199386Y-93702402D01*
X94211286Y-93705382D01*
X94222835Y-93709515D01*
X94233925Y-93714760D01*
X94244446Y-93721066D01*
X94254299Y-93728374D01*
X94263388Y-93736612D01*
X94271626Y-93745701D01*
X94278934Y-93755554D01*
X94285240Y-93766075D01*
X94290485Y-93777165D01*
X94294618Y-93788714D01*
X94297598Y-93800614D01*
X94299398Y-93812748D01*
X94300000Y-93825000D01*
X94300000Y-95075000D01*
X94299398Y-95087252D01*
X94297598Y-95099386D01*
X94294618Y-95111286D01*
X94290485Y-95122835D01*
X94285240Y-95133925D01*
X94278934Y-95144446D01*
X94271626Y-95154299D01*
X94263388Y-95163388D01*
X94254299Y-95171626D01*
X94244446Y-95178934D01*
X94233925Y-95185240D01*
X94222835Y-95190485D01*
X94211286Y-95194618D01*
X94199386Y-95197598D01*
X94187252Y-95199398D01*
X94175000Y-95200000D01*
X93925000Y-95200000D01*
X93912748Y-95199398D01*
X93900614Y-95197598D01*
X93888714Y-95194618D01*
X93877165Y-95190485D01*
X93866075Y-95185240D01*
X93855554Y-95178934D01*
X93845701Y-95171626D01*
X93836612Y-95163388D01*
X93828374Y-95154299D01*
X93821066Y-95144446D01*
X93814760Y-95133925D01*
X93809515Y-95122835D01*
X93805382Y-95111286D01*
X93802402Y-95099386D01*
X93800602Y-95087252D01*
X93800000Y-95075000D01*
X93800000Y-93825000D01*
X93800602Y-93812748D01*
X93802402Y-93800614D01*
X93805382Y-93788714D01*
X93809515Y-93777165D01*
X93814760Y-93766075D01*
X93821066Y-93755554D01*
X93828374Y-93745701D01*
X93836612Y-93736612D01*
X93845701Y-93728374D01*
X93855554Y-93721066D01*
X93866075Y-93714760D01*
X93877165Y-93709515D01*
X93888714Y-93705382D01*
X93900614Y-93702402D01*
X93912748Y-93700602D01*
X93925000Y-93700000D01*
X94175000Y-93700000D01*
X94187252Y-93700602D01*
X94187252Y-93700602D01*
G37*
D11*
X94050000Y-94450000D03*
D10*
G36*
X93312252Y-95575602D02*
G01*
X93324386Y-95577402D01*
X93336286Y-95580382D01*
X93347835Y-95584515D01*
X93358925Y-95589760D01*
X93369446Y-95596066D01*
X93379299Y-95603374D01*
X93388388Y-95611612D01*
X93396626Y-95620701D01*
X93403934Y-95630554D01*
X93410240Y-95641075D01*
X93415485Y-95652165D01*
X93419618Y-95663714D01*
X93422598Y-95675614D01*
X93424398Y-95687748D01*
X93425000Y-95700000D01*
X93425000Y-95950000D01*
X93424398Y-95962252D01*
X93422598Y-95974386D01*
X93419618Y-95986286D01*
X93415485Y-95997835D01*
X93410240Y-96008925D01*
X93403934Y-96019446D01*
X93396626Y-96029299D01*
X93388388Y-96038388D01*
X93379299Y-96046626D01*
X93369446Y-96053934D01*
X93358925Y-96060240D01*
X93347835Y-96065485D01*
X93336286Y-96069618D01*
X93324386Y-96072598D01*
X93312252Y-96074398D01*
X93300000Y-96075000D01*
X92050000Y-96075000D01*
X92037748Y-96074398D01*
X92025614Y-96072598D01*
X92013714Y-96069618D01*
X92002165Y-96065485D01*
X91991075Y-96060240D01*
X91980554Y-96053934D01*
X91970701Y-96046626D01*
X91961612Y-96038388D01*
X91953374Y-96029299D01*
X91946066Y-96019446D01*
X91939760Y-96008925D01*
X91934515Y-95997835D01*
X91930382Y-95986286D01*
X91927402Y-95974386D01*
X91925602Y-95962252D01*
X91925000Y-95950000D01*
X91925000Y-95700000D01*
X91925602Y-95687748D01*
X91927402Y-95675614D01*
X91930382Y-95663714D01*
X91934515Y-95652165D01*
X91939760Y-95641075D01*
X91946066Y-95630554D01*
X91953374Y-95620701D01*
X91961612Y-95611612D01*
X91970701Y-95603374D01*
X91980554Y-95596066D01*
X91991075Y-95589760D01*
X92002165Y-95584515D01*
X92013714Y-95580382D01*
X92025614Y-95577402D01*
X92037748Y-95575602D01*
X92050000Y-95575000D01*
X93300000Y-95575000D01*
X93312252Y-95575602D01*
X93312252Y-95575602D01*
G37*
D11*
X92675000Y-95825000D03*
D10*
G36*
X93312252Y-96375602D02*
G01*
X93324386Y-96377402D01*
X93336286Y-96380382D01*
X93347835Y-96384515D01*
X93358925Y-96389760D01*
X93369446Y-96396066D01*
X93379299Y-96403374D01*
X93388388Y-96411612D01*
X93396626Y-96420701D01*
X93403934Y-96430554D01*
X93410240Y-96441075D01*
X93415485Y-96452165D01*
X93419618Y-96463714D01*
X93422598Y-96475614D01*
X93424398Y-96487748D01*
X93425000Y-96500000D01*
X93425000Y-96750000D01*
X93424398Y-96762252D01*
X93422598Y-96774386D01*
X93419618Y-96786286D01*
X93415485Y-96797835D01*
X93410240Y-96808925D01*
X93403934Y-96819446D01*
X93396626Y-96829299D01*
X93388388Y-96838388D01*
X93379299Y-96846626D01*
X93369446Y-96853934D01*
X93358925Y-96860240D01*
X93347835Y-96865485D01*
X93336286Y-96869618D01*
X93324386Y-96872598D01*
X93312252Y-96874398D01*
X93300000Y-96875000D01*
X92050000Y-96875000D01*
X92037748Y-96874398D01*
X92025614Y-96872598D01*
X92013714Y-96869618D01*
X92002165Y-96865485D01*
X91991075Y-96860240D01*
X91980554Y-96853934D01*
X91970701Y-96846626D01*
X91961612Y-96838388D01*
X91953374Y-96829299D01*
X91946066Y-96819446D01*
X91939760Y-96808925D01*
X91934515Y-96797835D01*
X91930382Y-96786286D01*
X91927402Y-96774386D01*
X91925602Y-96762252D01*
X91925000Y-96750000D01*
X91925000Y-96500000D01*
X91925602Y-96487748D01*
X91927402Y-96475614D01*
X91930382Y-96463714D01*
X91934515Y-96452165D01*
X91939760Y-96441075D01*
X91946066Y-96430554D01*
X91953374Y-96420701D01*
X91961612Y-96411612D01*
X91970701Y-96403374D01*
X91980554Y-96396066D01*
X91991075Y-96389760D01*
X92002165Y-96384515D01*
X92013714Y-96380382D01*
X92025614Y-96377402D01*
X92037748Y-96375602D01*
X92050000Y-96375000D01*
X93300000Y-96375000D01*
X93312252Y-96375602D01*
X93312252Y-96375602D01*
G37*
D11*
X92675000Y-96625000D03*
D10*
G36*
X93312252Y-97175602D02*
G01*
X93324386Y-97177402D01*
X93336286Y-97180382D01*
X93347835Y-97184515D01*
X93358925Y-97189760D01*
X93369446Y-97196066D01*
X93379299Y-97203374D01*
X93388388Y-97211612D01*
X93396626Y-97220701D01*
X93403934Y-97230554D01*
X93410240Y-97241075D01*
X93415485Y-97252165D01*
X93419618Y-97263714D01*
X93422598Y-97275614D01*
X93424398Y-97287748D01*
X93425000Y-97300000D01*
X93425000Y-97550000D01*
X93424398Y-97562252D01*
X93422598Y-97574386D01*
X93419618Y-97586286D01*
X93415485Y-97597835D01*
X93410240Y-97608925D01*
X93403934Y-97619446D01*
X93396626Y-97629299D01*
X93388388Y-97638388D01*
X93379299Y-97646626D01*
X93369446Y-97653934D01*
X93358925Y-97660240D01*
X93347835Y-97665485D01*
X93336286Y-97669618D01*
X93324386Y-97672598D01*
X93312252Y-97674398D01*
X93300000Y-97675000D01*
X92050000Y-97675000D01*
X92037748Y-97674398D01*
X92025614Y-97672598D01*
X92013714Y-97669618D01*
X92002165Y-97665485D01*
X91991075Y-97660240D01*
X91980554Y-97653934D01*
X91970701Y-97646626D01*
X91961612Y-97638388D01*
X91953374Y-97629299D01*
X91946066Y-97619446D01*
X91939760Y-97608925D01*
X91934515Y-97597835D01*
X91930382Y-97586286D01*
X91927402Y-97574386D01*
X91925602Y-97562252D01*
X91925000Y-97550000D01*
X91925000Y-97300000D01*
X91925602Y-97287748D01*
X91927402Y-97275614D01*
X91930382Y-97263714D01*
X91934515Y-97252165D01*
X91939760Y-97241075D01*
X91946066Y-97230554D01*
X91953374Y-97220701D01*
X91961612Y-97211612D01*
X91970701Y-97203374D01*
X91980554Y-97196066D01*
X91991075Y-97189760D01*
X92002165Y-97184515D01*
X92013714Y-97180382D01*
X92025614Y-97177402D01*
X92037748Y-97175602D01*
X92050000Y-97175000D01*
X93300000Y-97175000D01*
X93312252Y-97175602D01*
X93312252Y-97175602D01*
G37*
D11*
X92675000Y-97425000D03*
D10*
G36*
X93312252Y-97975602D02*
G01*
X93324386Y-97977402D01*
X93336286Y-97980382D01*
X93347835Y-97984515D01*
X93358925Y-97989760D01*
X93369446Y-97996066D01*
X93379299Y-98003374D01*
X93388388Y-98011612D01*
X93396626Y-98020701D01*
X93403934Y-98030554D01*
X93410240Y-98041075D01*
X93415485Y-98052165D01*
X93419618Y-98063714D01*
X93422598Y-98075614D01*
X93424398Y-98087748D01*
X93425000Y-98100000D01*
X93425000Y-98350000D01*
X93424398Y-98362252D01*
X93422598Y-98374386D01*
X93419618Y-98386286D01*
X93415485Y-98397835D01*
X93410240Y-98408925D01*
X93403934Y-98419446D01*
X93396626Y-98429299D01*
X93388388Y-98438388D01*
X93379299Y-98446626D01*
X93369446Y-98453934D01*
X93358925Y-98460240D01*
X93347835Y-98465485D01*
X93336286Y-98469618D01*
X93324386Y-98472598D01*
X93312252Y-98474398D01*
X93300000Y-98475000D01*
X92050000Y-98475000D01*
X92037748Y-98474398D01*
X92025614Y-98472598D01*
X92013714Y-98469618D01*
X92002165Y-98465485D01*
X91991075Y-98460240D01*
X91980554Y-98453934D01*
X91970701Y-98446626D01*
X91961612Y-98438388D01*
X91953374Y-98429299D01*
X91946066Y-98419446D01*
X91939760Y-98408925D01*
X91934515Y-98397835D01*
X91930382Y-98386286D01*
X91927402Y-98374386D01*
X91925602Y-98362252D01*
X91925000Y-98350000D01*
X91925000Y-98100000D01*
X91925602Y-98087748D01*
X91927402Y-98075614D01*
X91930382Y-98063714D01*
X91934515Y-98052165D01*
X91939760Y-98041075D01*
X91946066Y-98030554D01*
X91953374Y-98020701D01*
X91961612Y-98011612D01*
X91970701Y-98003374D01*
X91980554Y-97996066D01*
X91991075Y-97989760D01*
X92002165Y-97984515D01*
X92013714Y-97980382D01*
X92025614Y-97977402D01*
X92037748Y-97975602D01*
X92050000Y-97975000D01*
X93300000Y-97975000D01*
X93312252Y-97975602D01*
X93312252Y-97975602D01*
G37*
D11*
X92675000Y-98225000D03*
D10*
G36*
X93312252Y-98775602D02*
G01*
X93324386Y-98777402D01*
X93336286Y-98780382D01*
X93347835Y-98784515D01*
X93358925Y-98789760D01*
X93369446Y-98796066D01*
X93379299Y-98803374D01*
X93388388Y-98811612D01*
X93396626Y-98820701D01*
X93403934Y-98830554D01*
X93410240Y-98841075D01*
X93415485Y-98852165D01*
X93419618Y-98863714D01*
X93422598Y-98875614D01*
X93424398Y-98887748D01*
X93425000Y-98900000D01*
X93425000Y-99150000D01*
X93424398Y-99162252D01*
X93422598Y-99174386D01*
X93419618Y-99186286D01*
X93415485Y-99197835D01*
X93410240Y-99208925D01*
X93403934Y-99219446D01*
X93396626Y-99229299D01*
X93388388Y-99238388D01*
X93379299Y-99246626D01*
X93369446Y-99253934D01*
X93358925Y-99260240D01*
X93347835Y-99265485D01*
X93336286Y-99269618D01*
X93324386Y-99272598D01*
X93312252Y-99274398D01*
X93300000Y-99275000D01*
X92050000Y-99275000D01*
X92037748Y-99274398D01*
X92025614Y-99272598D01*
X92013714Y-99269618D01*
X92002165Y-99265485D01*
X91991075Y-99260240D01*
X91980554Y-99253934D01*
X91970701Y-99246626D01*
X91961612Y-99238388D01*
X91953374Y-99229299D01*
X91946066Y-99219446D01*
X91939760Y-99208925D01*
X91934515Y-99197835D01*
X91930382Y-99186286D01*
X91927402Y-99174386D01*
X91925602Y-99162252D01*
X91925000Y-99150000D01*
X91925000Y-98900000D01*
X91925602Y-98887748D01*
X91927402Y-98875614D01*
X91930382Y-98863714D01*
X91934515Y-98852165D01*
X91939760Y-98841075D01*
X91946066Y-98830554D01*
X91953374Y-98820701D01*
X91961612Y-98811612D01*
X91970701Y-98803374D01*
X91980554Y-98796066D01*
X91991075Y-98789760D01*
X92002165Y-98784515D01*
X92013714Y-98780382D01*
X92025614Y-98777402D01*
X92037748Y-98775602D01*
X92050000Y-98775000D01*
X93300000Y-98775000D01*
X93312252Y-98775602D01*
X93312252Y-98775602D01*
G37*
D11*
X92675000Y-99025000D03*
D10*
G36*
X93312252Y-99575602D02*
G01*
X93324386Y-99577402D01*
X93336286Y-99580382D01*
X93347835Y-99584515D01*
X93358925Y-99589760D01*
X93369446Y-99596066D01*
X93379299Y-99603374D01*
X93388388Y-99611612D01*
X93396626Y-99620701D01*
X93403934Y-99630554D01*
X93410240Y-99641075D01*
X93415485Y-99652165D01*
X93419618Y-99663714D01*
X93422598Y-99675614D01*
X93424398Y-99687748D01*
X93425000Y-99700000D01*
X93425000Y-99950000D01*
X93424398Y-99962252D01*
X93422598Y-99974386D01*
X93419618Y-99986286D01*
X93415485Y-99997835D01*
X93410240Y-100008925D01*
X93403934Y-100019446D01*
X93396626Y-100029299D01*
X93388388Y-100038388D01*
X93379299Y-100046626D01*
X93369446Y-100053934D01*
X93358925Y-100060240D01*
X93347835Y-100065485D01*
X93336286Y-100069618D01*
X93324386Y-100072598D01*
X93312252Y-100074398D01*
X93300000Y-100075000D01*
X92050000Y-100075000D01*
X92037748Y-100074398D01*
X92025614Y-100072598D01*
X92013714Y-100069618D01*
X92002165Y-100065485D01*
X91991075Y-100060240D01*
X91980554Y-100053934D01*
X91970701Y-100046626D01*
X91961612Y-100038388D01*
X91953374Y-100029299D01*
X91946066Y-100019446D01*
X91939760Y-100008925D01*
X91934515Y-99997835D01*
X91930382Y-99986286D01*
X91927402Y-99974386D01*
X91925602Y-99962252D01*
X91925000Y-99950000D01*
X91925000Y-99700000D01*
X91925602Y-99687748D01*
X91927402Y-99675614D01*
X91930382Y-99663714D01*
X91934515Y-99652165D01*
X91939760Y-99641075D01*
X91946066Y-99630554D01*
X91953374Y-99620701D01*
X91961612Y-99611612D01*
X91970701Y-99603374D01*
X91980554Y-99596066D01*
X91991075Y-99589760D01*
X92002165Y-99584515D01*
X92013714Y-99580382D01*
X92025614Y-99577402D01*
X92037748Y-99575602D01*
X92050000Y-99575000D01*
X93300000Y-99575000D01*
X93312252Y-99575602D01*
X93312252Y-99575602D01*
G37*
D11*
X92675000Y-99825000D03*
D10*
G36*
X93312252Y-100375602D02*
G01*
X93324386Y-100377402D01*
X93336286Y-100380382D01*
X93347835Y-100384515D01*
X93358925Y-100389760D01*
X93369446Y-100396066D01*
X93379299Y-100403374D01*
X93388388Y-100411612D01*
X93396626Y-100420701D01*
X93403934Y-100430554D01*
X93410240Y-100441075D01*
X93415485Y-100452165D01*
X93419618Y-100463714D01*
X93422598Y-100475614D01*
X93424398Y-100487748D01*
X93425000Y-100500000D01*
X93425000Y-100750000D01*
X93424398Y-100762252D01*
X93422598Y-100774386D01*
X93419618Y-100786286D01*
X93415485Y-100797835D01*
X93410240Y-100808925D01*
X93403934Y-100819446D01*
X93396626Y-100829299D01*
X93388388Y-100838388D01*
X93379299Y-100846626D01*
X93369446Y-100853934D01*
X93358925Y-100860240D01*
X93347835Y-100865485D01*
X93336286Y-100869618D01*
X93324386Y-100872598D01*
X93312252Y-100874398D01*
X93300000Y-100875000D01*
X92050000Y-100875000D01*
X92037748Y-100874398D01*
X92025614Y-100872598D01*
X92013714Y-100869618D01*
X92002165Y-100865485D01*
X91991075Y-100860240D01*
X91980554Y-100853934D01*
X91970701Y-100846626D01*
X91961612Y-100838388D01*
X91953374Y-100829299D01*
X91946066Y-100819446D01*
X91939760Y-100808925D01*
X91934515Y-100797835D01*
X91930382Y-100786286D01*
X91927402Y-100774386D01*
X91925602Y-100762252D01*
X91925000Y-100750000D01*
X91925000Y-100500000D01*
X91925602Y-100487748D01*
X91927402Y-100475614D01*
X91930382Y-100463714D01*
X91934515Y-100452165D01*
X91939760Y-100441075D01*
X91946066Y-100430554D01*
X91953374Y-100420701D01*
X91961612Y-100411612D01*
X91970701Y-100403374D01*
X91980554Y-100396066D01*
X91991075Y-100389760D01*
X92002165Y-100384515D01*
X92013714Y-100380382D01*
X92025614Y-100377402D01*
X92037748Y-100375602D01*
X92050000Y-100375000D01*
X93300000Y-100375000D01*
X93312252Y-100375602D01*
X93312252Y-100375602D01*
G37*
D11*
X92675000Y-100625000D03*
D10*
G36*
X93312252Y-101175602D02*
G01*
X93324386Y-101177402D01*
X93336286Y-101180382D01*
X93347835Y-101184515D01*
X93358925Y-101189760D01*
X93369446Y-101196066D01*
X93379299Y-101203374D01*
X93388388Y-101211612D01*
X93396626Y-101220701D01*
X93403934Y-101230554D01*
X93410240Y-101241075D01*
X93415485Y-101252165D01*
X93419618Y-101263714D01*
X93422598Y-101275614D01*
X93424398Y-101287748D01*
X93425000Y-101300000D01*
X93425000Y-101550000D01*
X93424398Y-101562252D01*
X93422598Y-101574386D01*
X93419618Y-101586286D01*
X93415485Y-101597835D01*
X93410240Y-101608925D01*
X93403934Y-101619446D01*
X93396626Y-101629299D01*
X93388388Y-101638388D01*
X93379299Y-101646626D01*
X93369446Y-101653934D01*
X93358925Y-101660240D01*
X93347835Y-101665485D01*
X93336286Y-101669618D01*
X93324386Y-101672598D01*
X93312252Y-101674398D01*
X93300000Y-101675000D01*
X92050000Y-101675000D01*
X92037748Y-101674398D01*
X92025614Y-101672598D01*
X92013714Y-101669618D01*
X92002165Y-101665485D01*
X91991075Y-101660240D01*
X91980554Y-101653934D01*
X91970701Y-101646626D01*
X91961612Y-101638388D01*
X91953374Y-101629299D01*
X91946066Y-101619446D01*
X91939760Y-101608925D01*
X91934515Y-101597835D01*
X91930382Y-101586286D01*
X91927402Y-101574386D01*
X91925602Y-101562252D01*
X91925000Y-101550000D01*
X91925000Y-101300000D01*
X91925602Y-101287748D01*
X91927402Y-101275614D01*
X91930382Y-101263714D01*
X91934515Y-101252165D01*
X91939760Y-101241075D01*
X91946066Y-101230554D01*
X91953374Y-101220701D01*
X91961612Y-101211612D01*
X91970701Y-101203374D01*
X91980554Y-101196066D01*
X91991075Y-101189760D01*
X92002165Y-101184515D01*
X92013714Y-101180382D01*
X92025614Y-101177402D01*
X92037748Y-101175602D01*
X92050000Y-101175000D01*
X93300000Y-101175000D01*
X93312252Y-101175602D01*
X93312252Y-101175602D01*
G37*
D11*
X92675000Y-101425000D03*
D10*
G36*
X94187252Y-102050602D02*
G01*
X94199386Y-102052402D01*
X94211286Y-102055382D01*
X94222835Y-102059515D01*
X94233925Y-102064760D01*
X94244446Y-102071066D01*
X94254299Y-102078374D01*
X94263388Y-102086612D01*
X94271626Y-102095701D01*
X94278934Y-102105554D01*
X94285240Y-102116075D01*
X94290485Y-102127165D01*
X94294618Y-102138714D01*
X94297598Y-102150614D01*
X94299398Y-102162748D01*
X94300000Y-102175000D01*
X94300000Y-103425000D01*
X94299398Y-103437252D01*
X94297598Y-103449386D01*
X94294618Y-103461286D01*
X94290485Y-103472835D01*
X94285240Y-103483925D01*
X94278934Y-103494446D01*
X94271626Y-103504299D01*
X94263388Y-103513388D01*
X94254299Y-103521626D01*
X94244446Y-103528934D01*
X94233925Y-103535240D01*
X94222835Y-103540485D01*
X94211286Y-103544618D01*
X94199386Y-103547598D01*
X94187252Y-103549398D01*
X94175000Y-103550000D01*
X93925000Y-103550000D01*
X93912748Y-103549398D01*
X93900614Y-103547598D01*
X93888714Y-103544618D01*
X93877165Y-103540485D01*
X93866075Y-103535240D01*
X93855554Y-103528934D01*
X93845701Y-103521626D01*
X93836612Y-103513388D01*
X93828374Y-103504299D01*
X93821066Y-103494446D01*
X93814760Y-103483925D01*
X93809515Y-103472835D01*
X93805382Y-103461286D01*
X93802402Y-103449386D01*
X93800602Y-103437252D01*
X93800000Y-103425000D01*
X93800000Y-102175000D01*
X93800602Y-102162748D01*
X93802402Y-102150614D01*
X93805382Y-102138714D01*
X93809515Y-102127165D01*
X93814760Y-102116075D01*
X93821066Y-102105554D01*
X93828374Y-102095701D01*
X93836612Y-102086612D01*
X93845701Y-102078374D01*
X93855554Y-102071066D01*
X93866075Y-102064760D01*
X93877165Y-102059515D01*
X93888714Y-102055382D01*
X93900614Y-102052402D01*
X93912748Y-102050602D01*
X93925000Y-102050000D01*
X94175000Y-102050000D01*
X94187252Y-102050602D01*
X94187252Y-102050602D01*
G37*
D11*
X94050000Y-102800000D03*
D10*
G36*
X94987252Y-102050602D02*
G01*
X94999386Y-102052402D01*
X95011286Y-102055382D01*
X95022835Y-102059515D01*
X95033925Y-102064760D01*
X95044446Y-102071066D01*
X95054299Y-102078374D01*
X95063388Y-102086612D01*
X95071626Y-102095701D01*
X95078934Y-102105554D01*
X95085240Y-102116075D01*
X95090485Y-102127165D01*
X95094618Y-102138714D01*
X95097598Y-102150614D01*
X95099398Y-102162748D01*
X95100000Y-102175000D01*
X95100000Y-103425000D01*
X95099398Y-103437252D01*
X95097598Y-103449386D01*
X95094618Y-103461286D01*
X95090485Y-103472835D01*
X95085240Y-103483925D01*
X95078934Y-103494446D01*
X95071626Y-103504299D01*
X95063388Y-103513388D01*
X95054299Y-103521626D01*
X95044446Y-103528934D01*
X95033925Y-103535240D01*
X95022835Y-103540485D01*
X95011286Y-103544618D01*
X94999386Y-103547598D01*
X94987252Y-103549398D01*
X94975000Y-103550000D01*
X94725000Y-103550000D01*
X94712748Y-103549398D01*
X94700614Y-103547598D01*
X94688714Y-103544618D01*
X94677165Y-103540485D01*
X94666075Y-103535240D01*
X94655554Y-103528934D01*
X94645701Y-103521626D01*
X94636612Y-103513388D01*
X94628374Y-103504299D01*
X94621066Y-103494446D01*
X94614760Y-103483925D01*
X94609515Y-103472835D01*
X94605382Y-103461286D01*
X94602402Y-103449386D01*
X94600602Y-103437252D01*
X94600000Y-103425000D01*
X94600000Y-102175000D01*
X94600602Y-102162748D01*
X94602402Y-102150614D01*
X94605382Y-102138714D01*
X94609515Y-102127165D01*
X94614760Y-102116075D01*
X94621066Y-102105554D01*
X94628374Y-102095701D01*
X94636612Y-102086612D01*
X94645701Y-102078374D01*
X94655554Y-102071066D01*
X94666075Y-102064760D01*
X94677165Y-102059515D01*
X94688714Y-102055382D01*
X94700614Y-102052402D01*
X94712748Y-102050602D01*
X94725000Y-102050000D01*
X94975000Y-102050000D01*
X94987252Y-102050602D01*
X94987252Y-102050602D01*
G37*
D11*
X94850000Y-102800000D03*
D10*
G36*
X95787252Y-102050602D02*
G01*
X95799386Y-102052402D01*
X95811286Y-102055382D01*
X95822835Y-102059515D01*
X95833925Y-102064760D01*
X95844446Y-102071066D01*
X95854299Y-102078374D01*
X95863388Y-102086612D01*
X95871626Y-102095701D01*
X95878934Y-102105554D01*
X95885240Y-102116075D01*
X95890485Y-102127165D01*
X95894618Y-102138714D01*
X95897598Y-102150614D01*
X95899398Y-102162748D01*
X95900000Y-102175000D01*
X95900000Y-103425000D01*
X95899398Y-103437252D01*
X95897598Y-103449386D01*
X95894618Y-103461286D01*
X95890485Y-103472835D01*
X95885240Y-103483925D01*
X95878934Y-103494446D01*
X95871626Y-103504299D01*
X95863388Y-103513388D01*
X95854299Y-103521626D01*
X95844446Y-103528934D01*
X95833925Y-103535240D01*
X95822835Y-103540485D01*
X95811286Y-103544618D01*
X95799386Y-103547598D01*
X95787252Y-103549398D01*
X95775000Y-103550000D01*
X95525000Y-103550000D01*
X95512748Y-103549398D01*
X95500614Y-103547598D01*
X95488714Y-103544618D01*
X95477165Y-103540485D01*
X95466075Y-103535240D01*
X95455554Y-103528934D01*
X95445701Y-103521626D01*
X95436612Y-103513388D01*
X95428374Y-103504299D01*
X95421066Y-103494446D01*
X95414760Y-103483925D01*
X95409515Y-103472835D01*
X95405382Y-103461286D01*
X95402402Y-103449386D01*
X95400602Y-103437252D01*
X95400000Y-103425000D01*
X95400000Y-102175000D01*
X95400602Y-102162748D01*
X95402402Y-102150614D01*
X95405382Y-102138714D01*
X95409515Y-102127165D01*
X95414760Y-102116075D01*
X95421066Y-102105554D01*
X95428374Y-102095701D01*
X95436612Y-102086612D01*
X95445701Y-102078374D01*
X95455554Y-102071066D01*
X95466075Y-102064760D01*
X95477165Y-102059515D01*
X95488714Y-102055382D01*
X95500614Y-102052402D01*
X95512748Y-102050602D01*
X95525000Y-102050000D01*
X95775000Y-102050000D01*
X95787252Y-102050602D01*
X95787252Y-102050602D01*
G37*
D11*
X95650000Y-102800000D03*
D10*
G36*
X96587252Y-102050602D02*
G01*
X96599386Y-102052402D01*
X96611286Y-102055382D01*
X96622835Y-102059515D01*
X96633925Y-102064760D01*
X96644446Y-102071066D01*
X96654299Y-102078374D01*
X96663388Y-102086612D01*
X96671626Y-102095701D01*
X96678934Y-102105554D01*
X96685240Y-102116075D01*
X96690485Y-102127165D01*
X96694618Y-102138714D01*
X96697598Y-102150614D01*
X96699398Y-102162748D01*
X96700000Y-102175000D01*
X96700000Y-103425000D01*
X96699398Y-103437252D01*
X96697598Y-103449386D01*
X96694618Y-103461286D01*
X96690485Y-103472835D01*
X96685240Y-103483925D01*
X96678934Y-103494446D01*
X96671626Y-103504299D01*
X96663388Y-103513388D01*
X96654299Y-103521626D01*
X96644446Y-103528934D01*
X96633925Y-103535240D01*
X96622835Y-103540485D01*
X96611286Y-103544618D01*
X96599386Y-103547598D01*
X96587252Y-103549398D01*
X96575000Y-103550000D01*
X96325000Y-103550000D01*
X96312748Y-103549398D01*
X96300614Y-103547598D01*
X96288714Y-103544618D01*
X96277165Y-103540485D01*
X96266075Y-103535240D01*
X96255554Y-103528934D01*
X96245701Y-103521626D01*
X96236612Y-103513388D01*
X96228374Y-103504299D01*
X96221066Y-103494446D01*
X96214760Y-103483925D01*
X96209515Y-103472835D01*
X96205382Y-103461286D01*
X96202402Y-103449386D01*
X96200602Y-103437252D01*
X96200000Y-103425000D01*
X96200000Y-102175000D01*
X96200602Y-102162748D01*
X96202402Y-102150614D01*
X96205382Y-102138714D01*
X96209515Y-102127165D01*
X96214760Y-102116075D01*
X96221066Y-102105554D01*
X96228374Y-102095701D01*
X96236612Y-102086612D01*
X96245701Y-102078374D01*
X96255554Y-102071066D01*
X96266075Y-102064760D01*
X96277165Y-102059515D01*
X96288714Y-102055382D01*
X96300614Y-102052402D01*
X96312748Y-102050602D01*
X96325000Y-102050000D01*
X96575000Y-102050000D01*
X96587252Y-102050602D01*
X96587252Y-102050602D01*
G37*
D11*
X96450000Y-102800000D03*
D10*
G36*
X97387252Y-102050602D02*
G01*
X97399386Y-102052402D01*
X97411286Y-102055382D01*
X97422835Y-102059515D01*
X97433925Y-102064760D01*
X97444446Y-102071066D01*
X97454299Y-102078374D01*
X97463388Y-102086612D01*
X97471626Y-102095701D01*
X97478934Y-102105554D01*
X97485240Y-102116075D01*
X97490485Y-102127165D01*
X97494618Y-102138714D01*
X97497598Y-102150614D01*
X97499398Y-102162748D01*
X97500000Y-102175000D01*
X97500000Y-103425000D01*
X97499398Y-103437252D01*
X97497598Y-103449386D01*
X97494618Y-103461286D01*
X97490485Y-103472835D01*
X97485240Y-103483925D01*
X97478934Y-103494446D01*
X97471626Y-103504299D01*
X97463388Y-103513388D01*
X97454299Y-103521626D01*
X97444446Y-103528934D01*
X97433925Y-103535240D01*
X97422835Y-103540485D01*
X97411286Y-103544618D01*
X97399386Y-103547598D01*
X97387252Y-103549398D01*
X97375000Y-103550000D01*
X97125000Y-103550000D01*
X97112748Y-103549398D01*
X97100614Y-103547598D01*
X97088714Y-103544618D01*
X97077165Y-103540485D01*
X97066075Y-103535240D01*
X97055554Y-103528934D01*
X97045701Y-103521626D01*
X97036612Y-103513388D01*
X97028374Y-103504299D01*
X97021066Y-103494446D01*
X97014760Y-103483925D01*
X97009515Y-103472835D01*
X97005382Y-103461286D01*
X97002402Y-103449386D01*
X97000602Y-103437252D01*
X97000000Y-103425000D01*
X97000000Y-102175000D01*
X97000602Y-102162748D01*
X97002402Y-102150614D01*
X97005382Y-102138714D01*
X97009515Y-102127165D01*
X97014760Y-102116075D01*
X97021066Y-102105554D01*
X97028374Y-102095701D01*
X97036612Y-102086612D01*
X97045701Y-102078374D01*
X97055554Y-102071066D01*
X97066075Y-102064760D01*
X97077165Y-102059515D01*
X97088714Y-102055382D01*
X97100614Y-102052402D01*
X97112748Y-102050602D01*
X97125000Y-102050000D01*
X97375000Y-102050000D01*
X97387252Y-102050602D01*
X97387252Y-102050602D01*
G37*
D11*
X97250000Y-102800000D03*
D10*
G36*
X98187252Y-102050602D02*
G01*
X98199386Y-102052402D01*
X98211286Y-102055382D01*
X98222835Y-102059515D01*
X98233925Y-102064760D01*
X98244446Y-102071066D01*
X98254299Y-102078374D01*
X98263388Y-102086612D01*
X98271626Y-102095701D01*
X98278934Y-102105554D01*
X98285240Y-102116075D01*
X98290485Y-102127165D01*
X98294618Y-102138714D01*
X98297598Y-102150614D01*
X98299398Y-102162748D01*
X98300000Y-102175000D01*
X98300000Y-103425000D01*
X98299398Y-103437252D01*
X98297598Y-103449386D01*
X98294618Y-103461286D01*
X98290485Y-103472835D01*
X98285240Y-103483925D01*
X98278934Y-103494446D01*
X98271626Y-103504299D01*
X98263388Y-103513388D01*
X98254299Y-103521626D01*
X98244446Y-103528934D01*
X98233925Y-103535240D01*
X98222835Y-103540485D01*
X98211286Y-103544618D01*
X98199386Y-103547598D01*
X98187252Y-103549398D01*
X98175000Y-103550000D01*
X97925000Y-103550000D01*
X97912748Y-103549398D01*
X97900614Y-103547598D01*
X97888714Y-103544618D01*
X97877165Y-103540485D01*
X97866075Y-103535240D01*
X97855554Y-103528934D01*
X97845701Y-103521626D01*
X97836612Y-103513388D01*
X97828374Y-103504299D01*
X97821066Y-103494446D01*
X97814760Y-103483925D01*
X97809515Y-103472835D01*
X97805382Y-103461286D01*
X97802402Y-103449386D01*
X97800602Y-103437252D01*
X97800000Y-103425000D01*
X97800000Y-102175000D01*
X97800602Y-102162748D01*
X97802402Y-102150614D01*
X97805382Y-102138714D01*
X97809515Y-102127165D01*
X97814760Y-102116075D01*
X97821066Y-102105554D01*
X97828374Y-102095701D01*
X97836612Y-102086612D01*
X97845701Y-102078374D01*
X97855554Y-102071066D01*
X97866075Y-102064760D01*
X97877165Y-102059515D01*
X97888714Y-102055382D01*
X97900614Y-102052402D01*
X97912748Y-102050602D01*
X97925000Y-102050000D01*
X98175000Y-102050000D01*
X98187252Y-102050602D01*
X98187252Y-102050602D01*
G37*
D11*
X98050000Y-102800000D03*
D10*
G36*
X98987252Y-102050602D02*
G01*
X98999386Y-102052402D01*
X99011286Y-102055382D01*
X99022835Y-102059515D01*
X99033925Y-102064760D01*
X99044446Y-102071066D01*
X99054299Y-102078374D01*
X99063388Y-102086612D01*
X99071626Y-102095701D01*
X99078934Y-102105554D01*
X99085240Y-102116075D01*
X99090485Y-102127165D01*
X99094618Y-102138714D01*
X99097598Y-102150614D01*
X99099398Y-102162748D01*
X99100000Y-102175000D01*
X99100000Y-103425000D01*
X99099398Y-103437252D01*
X99097598Y-103449386D01*
X99094618Y-103461286D01*
X99090485Y-103472835D01*
X99085240Y-103483925D01*
X99078934Y-103494446D01*
X99071626Y-103504299D01*
X99063388Y-103513388D01*
X99054299Y-103521626D01*
X99044446Y-103528934D01*
X99033925Y-103535240D01*
X99022835Y-103540485D01*
X99011286Y-103544618D01*
X98999386Y-103547598D01*
X98987252Y-103549398D01*
X98975000Y-103550000D01*
X98725000Y-103550000D01*
X98712748Y-103549398D01*
X98700614Y-103547598D01*
X98688714Y-103544618D01*
X98677165Y-103540485D01*
X98666075Y-103535240D01*
X98655554Y-103528934D01*
X98645701Y-103521626D01*
X98636612Y-103513388D01*
X98628374Y-103504299D01*
X98621066Y-103494446D01*
X98614760Y-103483925D01*
X98609515Y-103472835D01*
X98605382Y-103461286D01*
X98602402Y-103449386D01*
X98600602Y-103437252D01*
X98600000Y-103425000D01*
X98600000Y-102175000D01*
X98600602Y-102162748D01*
X98602402Y-102150614D01*
X98605382Y-102138714D01*
X98609515Y-102127165D01*
X98614760Y-102116075D01*
X98621066Y-102105554D01*
X98628374Y-102095701D01*
X98636612Y-102086612D01*
X98645701Y-102078374D01*
X98655554Y-102071066D01*
X98666075Y-102064760D01*
X98677165Y-102059515D01*
X98688714Y-102055382D01*
X98700614Y-102052402D01*
X98712748Y-102050602D01*
X98725000Y-102050000D01*
X98975000Y-102050000D01*
X98987252Y-102050602D01*
X98987252Y-102050602D01*
G37*
D11*
X98850000Y-102800000D03*
D10*
G36*
X99787252Y-102050602D02*
G01*
X99799386Y-102052402D01*
X99811286Y-102055382D01*
X99822835Y-102059515D01*
X99833925Y-102064760D01*
X99844446Y-102071066D01*
X99854299Y-102078374D01*
X99863388Y-102086612D01*
X99871626Y-102095701D01*
X99878934Y-102105554D01*
X99885240Y-102116075D01*
X99890485Y-102127165D01*
X99894618Y-102138714D01*
X99897598Y-102150614D01*
X99899398Y-102162748D01*
X99900000Y-102175000D01*
X99900000Y-103425000D01*
X99899398Y-103437252D01*
X99897598Y-103449386D01*
X99894618Y-103461286D01*
X99890485Y-103472835D01*
X99885240Y-103483925D01*
X99878934Y-103494446D01*
X99871626Y-103504299D01*
X99863388Y-103513388D01*
X99854299Y-103521626D01*
X99844446Y-103528934D01*
X99833925Y-103535240D01*
X99822835Y-103540485D01*
X99811286Y-103544618D01*
X99799386Y-103547598D01*
X99787252Y-103549398D01*
X99775000Y-103550000D01*
X99525000Y-103550000D01*
X99512748Y-103549398D01*
X99500614Y-103547598D01*
X99488714Y-103544618D01*
X99477165Y-103540485D01*
X99466075Y-103535240D01*
X99455554Y-103528934D01*
X99445701Y-103521626D01*
X99436612Y-103513388D01*
X99428374Y-103504299D01*
X99421066Y-103494446D01*
X99414760Y-103483925D01*
X99409515Y-103472835D01*
X99405382Y-103461286D01*
X99402402Y-103449386D01*
X99400602Y-103437252D01*
X99400000Y-103425000D01*
X99400000Y-102175000D01*
X99400602Y-102162748D01*
X99402402Y-102150614D01*
X99405382Y-102138714D01*
X99409515Y-102127165D01*
X99414760Y-102116075D01*
X99421066Y-102105554D01*
X99428374Y-102095701D01*
X99436612Y-102086612D01*
X99445701Y-102078374D01*
X99455554Y-102071066D01*
X99466075Y-102064760D01*
X99477165Y-102059515D01*
X99488714Y-102055382D01*
X99500614Y-102052402D01*
X99512748Y-102050602D01*
X99525000Y-102050000D01*
X99775000Y-102050000D01*
X99787252Y-102050602D01*
X99787252Y-102050602D01*
G37*
D11*
X99650000Y-102800000D03*
D10*
G36*
X103052691Y-103031053D02*
G01*
X103073926Y-103034203D01*
X103094750Y-103039419D01*
X103114962Y-103046651D01*
X103134368Y-103055830D01*
X103152781Y-103066866D01*
X103170024Y-103079654D01*
X103185930Y-103094070D01*
X103200346Y-103109976D01*
X103213134Y-103127219D01*
X103224170Y-103145632D01*
X103233349Y-103165038D01*
X103240581Y-103185250D01*
X103245797Y-103206074D01*
X103248947Y-103227309D01*
X103250000Y-103248750D01*
X103250000Y-103761250D01*
X103248947Y-103782691D01*
X103245797Y-103803926D01*
X103240581Y-103824750D01*
X103233349Y-103844962D01*
X103224170Y-103864368D01*
X103213134Y-103882781D01*
X103200346Y-103900024D01*
X103185930Y-103915930D01*
X103170024Y-103930346D01*
X103152781Y-103943134D01*
X103134368Y-103954170D01*
X103114962Y-103963349D01*
X103094750Y-103970581D01*
X103073926Y-103975797D01*
X103052691Y-103978947D01*
X103031250Y-103980000D01*
X102593750Y-103980000D01*
X102572309Y-103978947D01*
X102551074Y-103975797D01*
X102530250Y-103970581D01*
X102510038Y-103963349D01*
X102490632Y-103954170D01*
X102472219Y-103943134D01*
X102454976Y-103930346D01*
X102439070Y-103915930D01*
X102424654Y-103900024D01*
X102411866Y-103882781D01*
X102400830Y-103864368D01*
X102391651Y-103844962D01*
X102384419Y-103824750D01*
X102379203Y-103803926D01*
X102376053Y-103782691D01*
X102375000Y-103761250D01*
X102375000Y-103248750D01*
X102376053Y-103227309D01*
X102379203Y-103206074D01*
X102384419Y-103185250D01*
X102391651Y-103165038D01*
X102400830Y-103145632D01*
X102411866Y-103127219D01*
X102424654Y-103109976D01*
X102439070Y-103094070D01*
X102454976Y-103079654D01*
X102472219Y-103066866D01*
X102490632Y-103055830D01*
X102510038Y-103046651D01*
X102530250Y-103039419D01*
X102551074Y-103034203D01*
X102572309Y-103031053D01*
X102593750Y-103030000D01*
X103031250Y-103030000D01*
X103052691Y-103031053D01*
X103052691Y-103031053D01*
G37*
D12*
X102812500Y-103505000D03*
D10*
G36*
X104627691Y-103031053D02*
G01*
X104648926Y-103034203D01*
X104669750Y-103039419D01*
X104689962Y-103046651D01*
X104709368Y-103055830D01*
X104727781Y-103066866D01*
X104745024Y-103079654D01*
X104760930Y-103094070D01*
X104775346Y-103109976D01*
X104788134Y-103127219D01*
X104799170Y-103145632D01*
X104808349Y-103165038D01*
X104815581Y-103185250D01*
X104820797Y-103206074D01*
X104823947Y-103227309D01*
X104825000Y-103248750D01*
X104825000Y-103761250D01*
X104823947Y-103782691D01*
X104820797Y-103803926D01*
X104815581Y-103824750D01*
X104808349Y-103844962D01*
X104799170Y-103864368D01*
X104788134Y-103882781D01*
X104775346Y-103900024D01*
X104760930Y-103915930D01*
X104745024Y-103930346D01*
X104727781Y-103943134D01*
X104709368Y-103954170D01*
X104689962Y-103963349D01*
X104669750Y-103970581D01*
X104648926Y-103975797D01*
X104627691Y-103978947D01*
X104606250Y-103980000D01*
X104168750Y-103980000D01*
X104147309Y-103978947D01*
X104126074Y-103975797D01*
X104105250Y-103970581D01*
X104085038Y-103963349D01*
X104065632Y-103954170D01*
X104047219Y-103943134D01*
X104029976Y-103930346D01*
X104014070Y-103915930D01*
X103999654Y-103900024D01*
X103986866Y-103882781D01*
X103975830Y-103864368D01*
X103966651Y-103844962D01*
X103959419Y-103824750D01*
X103954203Y-103803926D01*
X103951053Y-103782691D01*
X103950000Y-103761250D01*
X103950000Y-103248750D01*
X103951053Y-103227309D01*
X103954203Y-103206074D01*
X103959419Y-103185250D01*
X103966651Y-103165038D01*
X103975830Y-103145632D01*
X103986866Y-103127219D01*
X103999654Y-103109976D01*
X104014070Y-103094070D01*
X104029976Y-103079654D01*
X104047219Y-103066866D01*
X104065632Y-103055830D01*
X104085038Y-103046651D01*
X104105250Y-103039419D01*
X104126074Y-103034203D01*
X104147309Y-103031053D01*
X104168750Y-103030000D01*
X104606250Y-103030000D01*
X104627691Y-103031053D01*
X104627691Y-103031053D01*
G37*
D12*
X104387500Y-103505000D03*
D10*
G36*
X104627691Y-104526053D02*
G01*
X104648926Y-104529203D01*
X104669750Y-104534419D01*
X104689962Y-104541651D01*
X104709368Y-104550830D01*
X104727781Y-104561866D01*
X104745024Y-104574654D01*
X104760930Y-104589070D01*
X104775346Y-104604976D01*
X104788134Y-104622219D01*
X104799170Y-104640632D01*
X104808349Y-104660038D01*
X104815581Y-104680250D01*
X104820797Y-104701074D01*
X104823947Y-104722309D01*
X104825000Y-104743750D01*
X104825000Y-105256250D01*
X104823947Y-105277691D01*
X104820797Y-105298926D01*
X104815581Y-105319750D01*
X104808349Y-105339962D01*
X104799170Y-105359368D01*
X104788134Y-105377781D01*
X104775346Y-105395024D01*
X104760930Y-105410930D01*
X104745024Y-105425346D01*
X104727781Y-105438134D01*
X104709368Y-105449170D01*
X104689962Y-105458349D01*
X104669750Y-105465581D01*
X104648926Y-105470797D01*
X104627691Y-105473947D01*
X104606250Y-105475000D01*
X104168750Y-105475000D01*
X104147309Y-105473947D01*
X104126074Y-105470797D01*
X104105250Y-105465581D01*
X104085038Y-105458349D01*
X104065632Y-105449170D01*
X104047219Y-105438134D01*
X104029976Y-105425346D01*
X104014070Y-105410930D01*
X103999654Y-105395024D01*
X103986866Y-105377781D01*
X103975830Y-105359368D01*
X103966651Y-105339962D01*
X103959419Y-105319750D01*
X103954203Y-105298926D01*
X103951053Y-105277691D01*
X103950000Y-105256250D01*
X103950000Y-104743750D01*
X103951053Y-104722309D01*
X103954203Y-104701074D01*
X103959419Y-104680250D01*
X103966651Y-104660038D01*
X103975830Y-104640632D01*
X103986866Y-104622219D01*
X103999654Y-104604976D01*
X104014070Y-104589070D01*
X104029976Y-104574654D01*
X104047219Y-104561866D01*
X104065632Y-104550830D01*
X104085038Y-104541651D01*
X104105250Y-104534419D01*
X104126074Y-104529203D01*
X104147309Y-104526053D01*
X104168750Y-104525000D01*
X104606250Y-104525000D01*
X104627691Y-104526053D01*
X104627691Y-104526053D01*
G37*
D12*
X104387500Y-105000000D03*
D10*
G36*
X103052691Y-104526053D02*
G01*
X103073926Y-104529203D01*
X103094750Y-104534419D01*
X103114962Y-104541651D01*
X103134368Y-104550830D01*
X103152781Y-104561866D01*
X103170024Y-104574654D01*
X103185930Y-104589070D01*
X103200346Y-104604976D01*
X103213134Y-104622219D01*
X103224170Y-104640632D01*
X103233349Y-104660038D01*
X103240581Y-104680250D01*
X103245797Y-104701074D01*
X103248947Y-104722309D01*
X103250000Y-104743750D01*
X103250000Y-105256250D01*
X103248947Y-105277691D01*
X103245797Y-105298926D01*
X103240581Y-105319750D01*
X103233349Y-105339962D01*
X103224170Y-105359368D01*
X103213134Y-105377781D01*
X103200346Y-105395024D01*
X103185930Y-105410930D01*
X103170024Y-105425346D01*
X103152781Y-105438134D01*
X103134368Y-105449170D01*
X103114962Y-105458349D01*
X103094750Y-105465581D01*
X103073926Y-105470797D01*
X103052691Y-105473947D01*
X103031250Y-105475000D01*
X102593750Y-105475000D01*
X102572309Y-105473947D01*
X102551074Y-105470797D01*
X102530250Y-105465581D01*
X102510038Y-105458349D01*
X102490632Y-105449170D01*
X102472219Y-105438134D01*
X102454976Y-105425346D01*
X102439070Y-105410930D01*
X102424654Y-105395024D01*
X102411866Y-105377781D01*
X102400830Y-105359368D01*
X102391651Y-105339962D01*
X102384419Y-105319750D01*
X102379203Y-105298926D01*
X102376053Y-105277691D01*
X102375000Y-105256250D01*
X102375000Y-104743750D01*
X102376053Y-104722309D01*
X102379203Y-104701074D01*
X102384419Y-104680250D01*
X102391651Y-104660038D01*
X102400830Y-104640632D01*
X102411866Y-104622219D01*
X102424654Y-104604976D01*
X102439070Y-104589070D01*
X102454976Y-104574654D01*
X102472219Y-104561866D01*
X102490632Y-104550830D01*
X102510038Y-104541651D01*
X102530250Y-104534419D01*
X102551074Y-104529203D01*
X102572309Y-104526053D01*
X102593750Y-104525000D01*
X103031250Y-104525000D01*
X103052691Y-104526053D01*
X103052691Y-104526053D01*
G37*
D12*
X102812500Y-105000000D03*
D13*
X103250000Y-95300000D03*
X105150000Y-95300000D03*
X104200000Y-93300000D03*
D10*
G36*
X81152691Y-97776053D02*
G01*
X81173926Y-97779203D01*
X81194750Y-97784419D01*
X81214962Y-97791651D01*
X81234368Y-97800830D01*
X81252781Y-97811866D01*
X81270024Y-97824654D01*
X81285930Y-97839070D01*
X81300346Y-97854976D01*
X81313134Y-97872219D01*
X81324170Y-97890632D01*
X81333349Y-97910038D01*
X81340581Y-97930250D01*
X81345797Y-97951074D01*
X81348947Y-97972309D01*
X81350000Y-97993750D01*
X81350000Y-98506250D01*
X81348947Y-98527691D01*
X81345797Y-98548926D01*
X81340581Y-98569750D01*
X81333349Y-98589962D01*
X81324170Y-98609368D01*
X81313134Y-98627781D01*
X81300346Y-98645024D01*
X81285930Y-98660930D01*
X81270024Y-98675346D01*
X81252781Y-98688134D01*
X81234368Y-98699170D01*
X81214962Y-98708349D01*
X81194750Y-98715581D01*
X81173926Y-98720797D01*
X81152691Y-98723947D01*
X81131250Y-98725000D01*
X80693750Y-98725000D01*
X80672309Y-98723947D01*
X80651074Y-98720797D01*
X80630250Y-98715581D01*
X80610038Y-98708349D01*
X80590632Y-98699170D01*
X80572219Y-98688134D01*
X80554976Y-98675346D01*
X80539070Y-98660930D01*
X80524654Y-98645024D01*
X80511866Y-98627781D01*
X80500830Y-98609368D01*
X80491651Y-98589962D01*
X80484419Y-98569750D01*
X80479203Y-98548926D01*
X80476053Y-98527691D01*
X80475000Y-98506250D01*
X80475000Y-97993750D01*
X80476053Y-97972309D01*
X80479203Y-97951074D01*
X80484419Y-97930250D01*
X80491651Y-97910038D01*
X80500830Y-97890632D01*
X80511866Y-97872219D01*
X80524654Y-97854976D01*
X80539070Y-97839070D01*
X80554976Y-97824654D01*
X80572219Y-97811866D01*
X80590632Y-97800830D01*
X80610038Y-97791651D01*
X80630250Y-97784419D01*
X80651074Y-97779203D01*
X80672309Y-97776053D01*
X80693750Y-97775000D01*
X81131250Y-97775000D01*
X81152691Y-97776053D01*
X81152691Y-97776053D01*
G37*
D12*
X80912500Y-98250000D03*
D10*
G36*
X79577691Y-97776053D02*
G01*
X79598926Y-97779203D01*
X79619750Y-97784419D01*
X79639962Y-97791651D01*
X79659368Y-97800830D01*
X79677781Y-97811866D01*
X79695024Y-97824654D01*
X79710930Y-97839070D01*
X79725346Y-97854976D01*
X79738134Y-97872219D01*
X79749170Y-97890632D01*
X79758349Y-97910038D01*
X79765581Y-97930250D01*
X79770797Y-97951074D01*
X79773947Y-97972309D01*
X79775000Y-97993750D01*
X79775000Y-98506250D01*
X79773947Y-98527691D01*
X79770797Y-98548926D01*
X79765581Y-98569750D01*
X79758349Y-98589962D01*
X79749170Y-98609368D01*
X79738134Y-98627781D01*
X79725346Y-98645024D01*
X79710930Y-98660930D01*
X79695024Y-98675346D01*
X79677781Y-98688134D01*
X79659368Y-98699170D01*
X79639962Y-98708349D01*
X79619750Y-98715581D01*
X79598926Y-98720797D01*
X79577691Y-98723947D01*
X79556250Y-98725000D01*
X79118750Y-98725000D01*
X79097309Y-98723947D01*
X79076074Y-98720797D01*
X79055250Y-98715581D01*
X79035038Y-98708349D01*
X79015632Y-98699170D01*
X78997219Y-98688134D01*
X78979976Y-98675346D01*
X78964070Y-98660930D01*
X78949654Y-98645024D01*
X78936866Y-98627781D01*
X78925830Y-98609368D01*
X78916651Y-98589962D01*
X78909419Y-98569750D01*
X78904203Y-98548926D01*
X78901053Y-98527691D01*
X78900000Y-98506250D01*
X78900000Y-97993750D01*
X78901053Y-97972309D01*
X78904203Y-97951074D01*
X78909419Y-97930250D01*
X78916651Y-97910038D01*
X78925830Y-97890632D01*
X78936866Y-97872219D01*
X78949654Y-97854976D01*
X78964070Y-97839070D01*
X78979976Y-97824654D01*
X78997219Y-97811866D01*
X79015632Y-97800830D01*
X79035038Y-97791651D01*
X79055250Y-97784419D01*
X79076074Y-97779203D01*
X79097309Y-97776053D01*
X79118750Y-97775000D01*
X79556250Y-97775000D01*
X79577691Y-97776053D01*
X79577691Y-97776053D01*
G37*
D12*
X79337500Y-98250000D03*
D14*
X83745000Y-99825000D03*
X83745000Y-100325000D03*
X83745000Y-100825000D03*
X83745000Y-101325000D03*
X83745000Y-101825000D03*
X79445000Y-101825000D03*
X79445000Y-101325000D03*
X79445000Y-100825000D03*
X79445000Y-100325000D03*
X79445000Y-99825000D03*
D10*
G36*
X87152691Y-98841053D02*
G01*
X87173926Y-98844203D01*
X87194750Y-98849419D01*
X87214962Y-98856651D01*
X87234368Y-98865830D01*
X87252781Y-98876866D01*
X87270024Y-98889654D01*
X87285930Y-98904070D01*
X87300346Y-98919976D01*
X87313134Y-98937219D01*
X87324170Y-98955632D01*
X87333349Y-98975038D01*
X87340581Y-98995250D01*
X87345797Y-99016074D01*
X87348947Y-99037309D01*
X87350000Y-99058750D01*
X87350000Y-99571250D01*
X87348947Y-99592691D01*
X87345797Y-99613926D01*
X87340581Y-99634750D01*
X87333349Y-99654962D01*
X87324170Y-99674368D01*
X87313134Y-99692781D01*
X87300346Y-99710024D01*
X87285930Y-99725930D01*
X87270024Y-99740346D01*
X87252781Y-99753134D01*
X87234368Y-99764170D01*
X87214962Y-99773349D01*
X87194750Y-99780581D01*
X87173926Y-99785797D01*
X87152691Y-99788947D01*
X87131250Y-99790000D01*
X86693750Y-99790000D01*
X86672309Y-99788947D01*
X86651074Y-99785797D01*
X86630250Y-99780581D01*
X86610038Y-99773349D01*
X86590632Y-99764170D01*
X86572219Y-99753134D01*
X86554976Y-99740346D01*
X86539070Y-99725930D01*
X86524654Y-99710024D01*
X86511866Y-99692781D01*
X86500830Y-99674368D01*
X86491651Y-99654962D01*
X86484419Y-99634750D01*
X86479203Y-99613926D01*
X86476053Y-99592691D01*
X86475000Y-99571250D01*
X86475000Y-99058750D01*
X86476053Y-99037309D01*
X86479203Y-99016074D01*
X86484419Y-98995250D01*
X86491651Y-98975038D01*
X86500830Y-98955632D01*
X86511866Y-98937219D01*
X86524654Y-98919976D01*
X86539070Y-98904070D01*
X86554976Y-98889654D01*
X86572219Y-98876866D01*
X86590632Y-98865830D01*
X86610038Y-98856651D01*
X86630250Y-98849419D01*
X86651074Y-98844203D01*
X86672309Y-98841053D01*
X86693750Y-98840000D01*
X87131250Y-98840000D01*
X87152691Y-98841053D01*
X87152691Y-98841053D01*
G37*
D12*
X86912500Y-99315000D03*
D10*
G36*
X85577691Y-98841053D02*
G01*
X85598926Y-98844203D01*
X85619750Y-98849419D01*
X85639962Y-98856651D01*
X85659368Y-98865830D01*
X85677781Y-98876866D01*
X85695024Y-98889654D01*
X85710930Y-98904070D01*
X85725346Y-98919976D01*
X85738134Y-98937219D01*
X85749170Y-98955632D01*
X85758349Y-98975038D01*
X85765581Y-98995250D01*
X85770797Y-99016074D01*
X85773947Y-99037309D01*
X85775000Y-99058750D01*
X85775000Y-99571250D01*
X85773947Y-99592691D01*
X85770797Y-99613926D01*
X85765581Y-99634750D01*
X85758349Y-99654962D01*
X85749170Y-99674368D01*
X85738134Y-99692781D01*
X85725346Y-99710024D01*
X85710930Y-99725930D01*
X85695024Y-99740346D01*
X85677781Y-99753134D01*
X85659368Y-99764170D01*
X85639962Y-99773349D01*
X85619750Y-99780581D01*
X85598926Y-99785797D01*
X85577691Y-99788947D01*
X85556250Y-99790000D01*
X85118750Y-99790000D01*
X85097309Y-99788947D01*
X85076074Y-99785797D01*
X85055250Y-99780581D01*
X85035038Y-99773349D01*
X85015632Y-99764170D01*
X84997219Y-99753134D01*
X84979976Y-99740346D01*
X84964070Y-99725930D01*
X84949654Y-99710024D01*
X84936866Y-99692781D01*
X84925830Y-99674368D01*
X84916651Y-99654962D01*
X84909419Y-99634750D01*
X84904203Y-99613926D01*
X84901053Y-99592691D01*
X84900000Y-99571250D01*
X84900000Y-99058750D01*
X84901053Y-99037309D01*
X84904203Y-99016074D01*
X84909419Y-98995250D01*
X84916651Y-98975038D01*
X84925830Y-98955632D01*
X84936866Y-98937219D01*
X84949654Y-98919976D01*
X84964070Y-98904070D01*
X84979976Y-98889654D01*
X84997219Y-98876866D01*
X85015632Y-98865830D01*
X85035038Y-98856651D01*
X85055250Y-98849419D01*
X85076074Y-98844203D01*
X85097309Y-98841053D01*
X85118750Y-98840000D01*
X85556250Y-98840000D01*
X85577691Y-98841053D01*
X85577691Y-98841053D01*
G37*
D12*
X85337500Y-99315000D03*
D10*
G36*
X87142691Y-100391053D02*
G01*
X87163926Y-100394203D01*
X87184750Y-100399419D01*
X87204962Y-100406651D01*
X87224368Y-100415830D01*
X87242781Y-100426866D01*
X87260024Y-100439654D01*
X87275930Y-100454070D01*
X87290346Y-100469976D01*
X87303134Y-100487219D01*
X87314170Y-100505632D01*
X87323349Y-100525038D01*
X87330581Y-100545250D01*
X87335797Y-100566074D01*
X87338947Y-100587309D01*
X87340000Y-100608750D01*
X87340000Y-101121250D01*
X87338947Y-101142691D01*
X87335797Y-101163926D01*
X87330581Y-101184750D01*
X87323349Y-101204962D01*
X87314170Y-101224368D01*
X87303134Y-101242781D01*
X87290346Y-101260024D01*
X87275930Y-101275930D01*
X87260024Y-101290346D01*
X87242781Y-101303134D01*
X87224368Y-101314170D01*
X87204962Y-101323349D01*
X87184750Y-101330581D01*
X87163926Y-101335797D01*
X87142691Y-101338947D01*
X87121250Y-101340000D01*
X86683750Y-101340000D01*
X86662309Y-101338947D01*
X86641074Y-101335797D01*
X86620250Y-101330581D01*
X86600038Y-101323349D01*
X86580632Y-101314170D01*
X86562219Y-101303134D01*
X86544976Y-101290346D01*
X86529070Y-101275930D01*
X86514654Y-101260024D01*
X86501866Y-101242781D01*
X86490830Y-101224368D01*
X86481651Y-101204962D01*
X86474419Y-101184750D01*
X86469203Y-101163926D01*
X86466053Y-101142691D01*
X86465000Y-101121250D01*
X86465000Y-100608750D01*
X86466053Y-100587309D01*
X86469203Y-100566074D01*
X86474419Y-100545250D01*
X86481651Y-100525038D01*
X86490830Y-100505632D01*
X86501866Y-100487219D01*
X86514654Y-100469976D01*
X86529070Y-100454070D01*
X86544976Y-100439654D01*
X86562219Y-100426866D01*
X86580632Y-100415830D01*
X86600038Y-100406651D01*
X86620250Y-100399419D01*
X86641074Y-100394203D01*
X86662309Y-100391053D01*
X86683750Y-100390000D01*
X87121250Y-100390000D01*
X87142691Y-100391053D01*
X87142691Y-100391053D01*
G37*
D12*
X86902500Y-100865000D03*
D10*
G36*
X85567691Y-100391053D02*
G01*
X85588926Y-100394203D01*
X85609750Y-100399419D01*
X85629962Y-100406651D01*
X85649368Y-100415830D01*
X85667781Y-100426866D01*
X85685024Y-100439654D01*
X85700930Y-100454070D01*
X85715346Y-100469976D01*
X85728134Y-100487219D01*
X85739170Y-100505632D01*
X85748349Y-100525038D01*
X85755581Y-100545250D01*
X85760797Y-100566074D01*
X85763947Y-100587309D01*
X85765000Y-100608750D01*
X85765000Y-101121250D01*
X85763947Y-101142691D01*
X85760797Y-101163926D01*
X85755581Y-101184750D01*
X85748349Y-101204962D01*
X85739170Y-101224368D01*
X85728134Y-101242781D01*
X85715346Y-101260024D01*
X85700930Y-101275930D01*
X85685024Y-101290346D01*
X85667781Y-101303134D01*
X85649368Y-101314170D01*
X85629962Y-101323349D01*
X85609750Y-101330581D01*
X85588926Y-101335797D01*
X85567691Y-101338947D01*
X85546250Y-101340000D01*
X85108750Y-101340000D01*
X85087309Y-101338947D01*
X85066074Y-101335797D01*
X85045250Y-101330581D01*
X85025038Y-101323349D01*
X85005632Y-101314170D01*
X84987219Y-101303134D01*
X84969976Y-101290346D01*
X84954070Y-101275930D01*
X84939654Y-101260024D01*
X84926866Y-101242781D01*
X84915830Y-101224368D01*
X84906651Y-101204962D01*
X84899419Y-101184750D01*
X84894203Y-101163926D01*
X84891053Y-101142691D01*
X84890000Y-101121250D01*
X84890000Y-100608750D01*
X84891053Y-100587309D01*
X84894203Y-100566074D01*
X84899419Y-100545250D01*
X84906651Y-100525038D01*
X84915830Y-100505632D01*
X84926866Y-100487219D01*
X84939654Y-100469976D01*
X84954070Y-100454070D01*
X84969976Y-100439654D01*
X84987219Y-100426866D01*
X85005632Y-100415830D01*
X85025038Y-100406651D01*
X85045250Y-100399419D01*
X85066074Y-100394203D01*
X85087309Y-100391053D01*
X85108750Y-100390000D01*
X85546250Y-100390000D01*
X85567691Y-100391053D01*
X85567691Y-100391053D01*
G37*
D12*
X85327500Y-100865000D03*
D15*
X59615000Y-100000000D03*
D16*
X62765000Y-101275000D03*
X62765000Y-100625000D03*
X62765000Y-99975000D03*
X62765000Y-99325000D03*
X62765000Y-98675000D03*
D17*
X62885000Y-102875000D03*
X62865000Y-97125000D03*
D18*
X153050000Y-95410000D03*
X153050000Y-104590000D03*
D19*
X63250000Y-105250000D03*
X60750000Y-105250000D03*
X126750000Y-93250000D03*
X124250000Y-93250000D03*
D10*
G36*
X108212691Y-92441053D02*
G01*
X108233926Y-92444203D01*
X108254750Y-92449419D01*
X108274962Y-92456651D01*
X108294368Y-92465830D01*
X108312781Y-92476866D01*
X108330024Y-92489654D01*
X108345930Y-92504070D01*
X108360346Y-92519976D01*
X108373134Y-92537219D01*
X108384170Y-92555632D01*
X108393349Y-92575038D01*
X108400581Y-92595250D01*
X108405797Y-92616074D01*
X108408947Y-92637309D01*
X108410000Y-92658750D01*
X108410000Y-93171250D01*
X108408947Y-93192691D01*
X108405797Y-93213926D01*
X108400581Y-93234750D01*
X108393349Y-93254962D01*
X108384170Y-93274368D01*
X108373134Y-93292781D01*
X108360346Y-93310024D01*
X108345930Y-93325930D01*
X108330024Y-93340346D01*
X108312781Y-93353134D01*
X108294368Y-93364170D01*
X108274962Y-93373349D01*
X108254750Y-93380581D01*
X108233926Y-93385797D01*
X108212691Y-93388947D01*
X108191250Y-93390000D01*
X107753750Y-93390000D01*
X107732309Y-93388947D01*
X107711074Y-93385797D01*
X107690250Y-93380581D01*
X107670038Y-93373349D01*
X107650632Y-93364170D01*
X107632219Y-93353134D01*
X107614976Y-93340346D01*
X107599070Y-93325930D01*
X107584654Y-93310024D01*
X107571866Y-93292781D01*
X107560830Y-93274368D01*
X107551651Y-93254962D01*
X107544419Y-93234750D01*
X107539203Y-93213926D01*
X107536053Y-93192691D01*
X107535000Y-93171250D01*
X107535000Y-92658750D01*
X107536053Y-92637309D01*
X107539203Y-92616074D01*
X107544419Y-92595250D01*
X107551651Y-92575038D01*
X107560830Y-92555632D01*
X107571866Y-92537219D01*
X107584654Y-92519976D01*
X107599070Y-92504070D01*
X107614976Y-92489654D01*
X107632219Y-92476866D01*
X107650632Y-92465830D01*
X107670038Y-92456651D01*
X107690250Y-92449419D01*
X107711074Y-92444203D01*
X107732309Y-92441053D01*
X107753750Y-92440000D01*
X108191250Y-92440000D01*
X108212691Y-92441053D01*
X108212691Y-92441053D01*
G37*
D12*
X107972500Y-92915000D03*
D10*
G36*
X109787691Y-92441053D02*
G01*
X109808926Y-92444203D01*
X109829750Y-92449419D01*
X109849962Y-92456651D01*
X109869368Y-92465830D01*
X109887781Y-92476866D01*
X109905024Y-92489654D01*
X109920930Y-92504070D01*
X109935346Y-92519976D01*
X109948134Y-92537219D01*
X109959170Y-92555632D01*
X109968349Y-92575038D01*
X109975581Y-92595250D01*
X109980797Y-92616074D01*
X109983947Y-92637309D01*
X109985000Y-92658750D01*
X109985000Y-93171250D01*
X109983947Y-93192691D01*
X109980797Y-93213926D01*
X109975581Y-93234750D01*
X109968349Y-93254962D01*
X109959170Y-93274368D01*
X109948134Y-93292781D01*
X109935346Y-93310024D01*
X109920930Y-93325930D01*
X109905024Y-93340346D01*
X109887781Y-93353134D01*
X109869368Y-93364170D01*
X109849962Y-93373349D01*
X109829750Y-93380581D01*
X109808926Y-93385797D01*
X109787691Y-93388947D01*
X109766250Y-93390000D01*
X109328750Y-93390000D01*
X109307309Y-93388947D01*
X109286074Y-93385797D01*
X109265250Y-93380581D01*
X109245038Y-93373349D01*
X109225632Y-93364170D01*
X109207219Y-93353134D01*
X109189976Y-93340346D01*
X109174070Y-93325930D01*
X109159654Y-93310024D01*
X109146866Y-93292781D01*
X109135830Y-93274368D01*
X109126651Y-93254962D01*
X109119419Y-93234750D01*
X109114203Y-93213926D01*
X109111053Y-93192691D01*
X109110000Y-93171250D01*
X109110000Y-92658750D01*
X109111053Y-92637309D01*
X109114203Y-92616074D01*
X109119419Y-92595250D01*
X109126651Y-92575038D01*
X109135830Y-92555632D01*
X109146866Y-92537219D01*
X109159654Y-92519976D01*
X109174070Y-92504070D01*
X109189976Y-92489654D01*
X109207219Y-92476866D01*
X109225632Y-92465830D01*
X109245038Y-92456651D01*
X109265250Y-92449419D01*
X109286074Y-92444203D01*
X109307309Y-92441053D01*
X109328750Y-92440000D01*
X109766250Y-92440000D01*
X109787691Y-92441053D01*
X109787691Y-92441053D01*
G37*
D12*
X109547500Y-92915000D03*
D10*
G36*
X113187691Y-92441053D02*
G01*
X113208926Y-92444203D01*
X113229750Y-92449419D01*
X113249962Y-92456651D01*
X113269368Y-92465830D01*
X113287781Y-92476866D01*
X113305024Y-92489654D01*
X113320930Y-92504070D01*
X113335346Y-92519976D01*
X113348134Y-92537219D01*
X113359170Y-92555632D01*
X113368349Y-92575038D01*
X113375581Y-92595250D01*
X113380797Y-92616074D01*
X113383947Y-92637309D01*
X113385000Y-92658750D01*
X113385000Y-93171250D01*
X113383947Y-93192691D01*
X113380797Y-93213926D01*
X113375581Y-93234750D01*
X113368349Y-93254962D01*
X113359170Y-93274368D01*
X113348134Y-93292781D01*
X113335346Y-93310024D01*
X113320930Y-93325930D01*
X113305024Y-93340346D01*
X113287781Y-93353134D01*
X113269368Y-93364170D01*
X113249962Y-93373349D01*
X113229750Y-93380581D01*
X113208926Y-93385797D01*
X113187691Y-93388947D01*
X113166250Y-93390000D01*
X112728750Y-93390000D01*
X112707309Y-93388947D01*
X112686074Y-93385797D01*
X112665250Y-93380581D01*
X112645038Y-93373349D01*
X112625632Y-93364170D01*
X112607219Y-93353134D01*
X112589976Y-93340346D01*
X112574070Y-93325930D01*
X112559654Y-93310024D01*
X112546866Y-93292781D01*
X112535830Y-93274368D01*
X112526651Y-93254962D01*
X112519419Y-93234750D01*
X112514203Y-93213926D01*
X112511053Y-93192691D01*
X112510000Y-93171250D01*
X112510000Y-92658750D01*
X112511053Y-92637309D01*
X112514203Y-92616074D01*
X112519419Y-92595250D01*
X112526651Y-92575038D01*
X112535830Y-92555632D01*
X112546866Y-92537219D01*
X112559654Y-92519976D01*
X112574070Y-92504070D01*
X112589976Y-92489654D01*
X112607219Y-92476866D01*
X112625632Y-92465830D01*
X112645038Y-92456651D01*
X112665250Y-92449419D01*
X112686074Y-92444203D01*
X112707309Y-92441053D01*
X112728750Y-92440000D01*
X113166250Y-92440000D01*
X113187691Y-92441053D01*
X113187691Y-92441053D01*
G37*
D12*
X112947500Y-92915000D03*
D10*
G36*
X111612691Y-92441053D02*
G01*
X111633926Y-92444203D01*
X111654750Y-92449419D01*
X111674962Y-92456651D01*
X111694368Y-92465830D01*
X111712781Y-92476866D01*
X111730024Y-92489654D01*
X111745930Y-92504070D01*
X111760346Y-92519976D01*
X111773134Y-92537219D01*
X111784170Y-92555632D01*
X111793349Y-92575038D01*
X111800581Y-92595250D01*
X111805797Y-92616074D01*
X111808947Y-92637309D01*
X111810000Y-92658750D01*
X111810000Y-93171250D01*
X111808947Y-93192691D01*
X111805797Y-93213926D01*
X111800581Y-93234750D01*
X111793349Y-93254962D01*
X111784170Y-93274368D01*
X111773134Y-93292781D01*
X111760346Y-93310024D01*
X111745930Y-93325930D01*
X111730024Y-93340346D01*
X111712781Y-93353134D01*
X111694368Y-93364170D01*
X111674962Y-93373349D01*
X111654750Y-93380581D01*
X111633926Y-93385797D01*
X111612691Y-93388947D01*
X111591250Y-93390000D01*
X111153750Y-93390000D01*
X111132309Y-93388947D01*
X111111074Y-93385797D01*
X111090250Y-93380581D01*
X111070038Y-93373349D01*
X111050632Y-93364170D01*
X111032219Y-93353134D01*
X111014976Y-93340346D01*
X110999070Y-93325930D01*
X110984654Y-93310024D01*
X110971866Y-93292781D01*
X110960830Y-93274368D01*
X110951651Y-93254962D01*
X110944419Y-93234750D01*
X110939203Y-93213926D01*
X110936053Y-93192691D01*
X110935000Y-93171250D01*
X110935000Y-92658750D01*
X110936053Y-92637309D01*
X110939203Y-92616074D01*
X110944419Y-92595250D01*
X110951651Y-92575038D01*
X110960830Y-92555632D01*
X110971866Y-92537219D01*
X110984654Y-92519976D01*
X110999070Y-92504070D01*
X111014976Y-92489654D01*
X111032219Y-92476866D01*
X111050632Y-92465830D01*
X111070038Y-92456651D01*
X111090250Y-92449419D01*
X111111074Y-92444203D01*
X111132309Y-92441053D01*
X111153750Y-92440000D01*
X111591250Y-92440000D01*
X111612691Y-92441053D01*
X111612691Y-92441053D01*
G37*
D12*
X111372500Y-92915000D03*
D10*
G36*
X116587691Y-92441053D02*
G01*
X116608926Y-92444203D01*
X116629750Y-92449419D01*
X116649962Y-92456651D01*
X116669368Y-92465830D01*
X116687781Y-92476866D01*
X116705024Y-92489654D01*
X116720930Y-92504070D01*
X116735346Y-92519976D01*
X116748134Y-92537219D01*
X116759170Y-92555632D01*
X116768349Y-92575038D01*
X116775581Y-92595250D01*
X116780797Y-92616074D01*
X116783947Y-92637309D01*
X116785000Y-92658750D01*
X116785000Y-93171250D01*
X116783947Y-93192691D01*
X116780797Y-93213926D01*
X116775581Y-93234750D01*
X116768349Y-93254962D01*
X116759170Y-93274368D01*
X116748134Y-93292781D01*
X116735346Y-93310024D01*
X116720930Y-93325930D01*
X116705024Y-93340346D01*
X116687781Y-93353134D01*
X116669368Y-93364170D01*
X116649962Y-93373349D01*
X116629750Y-93380581D01*
X116608926Y-93385797D01*
X116587691Y-93388947D01*
X116566250Y-93390000D01*
X116128750Y-93390000D01*
X116107309Y-93388947D01*
X116086074Y-93385797D01*
X116065250Y-93380581D01*
X116045038Y-93373349D01*
X116025632Y-93364170D01*
X116007219Y-93353134D01*
X115989976Y-93340346D01*
X115974070Y-93325930D01*
X115959654Y-93310024D01*
X115946866Y-93292781D01*
X115935830Y-93274368D01*
X115926651Y-93254962D01*
X115919419Y-93234750D01*
X115914203Y-93213926D01*
X115911053Y-93192691D01*
X115910000Y-93171250D01*
X115910000Y-92658750D01*
X115911053Y-92637309D01*
X115914203Y-92616074D01*
X115919419Y-92595250D01*
X115926651Y-92575038D01*
X115935830Y-92555632D01*
X115946866Y-92537219D01*
X115959654Y-92519976D01*
X115974070Y-92504070D01*
X115989976Y-92489654D01*
X116007219Y-92476866D01*
X116025632Y-92465830D01*
X116045038Y-92456651D01*
X116065250Y-92449419D01*
X116086074Y-92444203D01*
X116107309Y-92441053D01*
X116128750Y-92440000D01*
X116566250Y-92440000D01*
X116587691Y-92441053D01*
X116587691Y-92441053D01*
G37*
D12*
X116347500Y-92915000D03*
D10*
G36*
X115012691Y-92441053D02*
G01*
X115033926Y-92444203D01*
X115054750Y-92449419D01*
X115074962Y-92456651D01*
X115094368Y-92465830D01*
X115112781Y-92476866D01*
X115130024Y-92489654D01*
X115145930Y-92504070D01*
X115160346Y-92519976D01*
X115173134Y-92537219D01*
X115184170Y-92555632D01*
X115193349Y-92575038D01*
X115200581Y-92595250D01*
X115205797Y-92616074D01*
X115208947Y-92637309D01*
X115210000Y-92658750D01*
X115210000Y-93171250D01*
X115208947Y-93192691D01*
X115205797Y-93213926D01*
X115200581Y-93234750D01*
X115193349Y-93254962D01*
X115184170Y-93274368D01*
X115173134Y-93292781D01*
X115160346Y-93310024D01*
X115145930Y-93325930D01*
X115130024Y-93340346D01*
X115112781Y-93353134D01*
X115094368Y-93364170D01*
X115074962Y-93373349D01*
X115054750Y-93380581D01*
X115033926Y-93385797D01*
X115012691Y-93388947D01*
X114991250Y-93390000D01*
X114553750Y-93390000D01*
X114532309Y-93388947D01*
X114511074Y-93385797D01*
X114490250Y-93380581D01*
X114470038Y-93373349D01*
X114450632Y-93364170D01*
X114432219Y-93353134D01*
X114414976Y-93340346D01*
X114399070Y-93325930D01*
X114384654Y-93310024D01*
X114371866Y-93292781D01*
X114360830Y-93274368D01*
X114351651Y-93254962D01*
X114344419Y-93234750D01*
X114339203Y-93213926D01*
X114336053Y-93192691D01*
X114335000Y-93171250D01*
X114335000Y-92658750D01*
X114336053Y-92637309D01*
X114339203Y-92616074D01*
X114344419Y-92595250D01*
X114351651Y-92575038D01*
X114360830Y-92555632D01*
X114371866Y-92537219D01*
X114384654Y-92519976D01*
X114399070Y-92504070D01*
X114414976Y-92489654D01*
X114432219Y-92476866D01*
X114450632Y-92465830D01*
X114470038Y-92456651D01*
X114490250Y-92449419D01*
X114511074Y-92444203D01*
X114532309Y-92441053D01*
X114553750Y-92440000D01*
X114991250Y-92440000D01*
X115012691Y-92441053D01*
X115012691Y-92441053D01*
G37*
D12*
X114772500Y-92915000D03*
D10*
G36*
X120027691Y-92441053D02*
G01*
X120048926Y-92444203D01*
X120069750Y-92449419D01*
X120089962Y-92456651D01*
X120109368Y-92465830D01*
X120127781Y-92476866D01*
X120145024Y-92489654D01*
X120160930Y-92504070D01*
X120175346Y-92519976D01*
X120188134Y-92537219D01*
X120199170Y-92555632D01*
X120208349Y-92575038D01*
X120215581Y-92595250D01*
X120220797Y-92616074D01*
X120223947Y-92637309D01*
X120225000Y-92658750D01*
X120225000Y-93171250D01*
X120223947Y-93192691D01*
X120220797Y-93213926D01*
X120215581Y-93234750D01*
X120208349Y-93254962D01*
X120199170Y-93274368D01*
X120188134Y-93292781D01*
X120175346Y-93310024D01*
X120160930Y-93325930D01*
X120145024Y-93340346D01*
X120127781Y-93353134D01*
X120109368Y-93364170D01*
X120089962Y-93373349D01*
X120069750Y-93380581D01*
X120048926Y-93385797D01*
X120027691Y-93388947D01*
X120006250Y-93390000D01*
X119568750Y-93390000D01*
X119547309Y-93388947D01*
X119526074Y-93385797D01*
X119505250Y-93380581D01*
X119485038Y-93373349D01*
X119465632Y-93364170D01*
X119447219Y-93353134D01*
X119429976Y-93340346D01*
X119414070Y-93325930D01*
X119399654Y-93310024D01*
X119386866Y-93292781D01*
X119375830Y-93274368D01*
X119366651Y-93254962D01*
X119359419Y-93234750D01*
X119354203Y-93213926D01*
X119351053Y-93192691D01*
X119350000Y-93171250D01*
X119350000Y-92658750D01*
X119351053Y-92637309D01*
X119354203Y-92616074D01*
X119359419Y-92595250D01*
X119366651Y-92575038D01*
X119375830Y-92555632D01*
X119386866Y-92537219D01*
X119399654Y-92519976D01*
X119414070Y-92504070D01*
X119429976Y-92489654D01*
X119447219Y-92476866D01*
X119465632Y-92465830D01*
X119485038Y-92456651D01*
X119505250Y-92449419D01*
X119526074Y-92444203D01*
X119547309Y-92441053D01*
X119568750Y-92440000D01*
X120006250Y-92440000D01*
X120027691Y-92441053D01*
X120027691Y-92441053D01*
G37*
D12*
X119787500Y-92915000D03*
D10*
G36*
X118452691Y-92441053D02*
G01*
X118473926Y-92444203D01*
X118494750Y-92449419D01*
X118514962Y-92456651D01*
X118534368Y-92465830D01*
X118552781Y-92476866D01*
X118570024Y-92489654D01*
X118585930Y-92504070D01*
X118600346Y-92519976D01*
X118613134Y-92537219D01*
X118624170Y-92555632D01*
X118633349Y-92575038D01*
X118640581Y-92595250D01*
X118645797Y-92616074D01*
X118648947Y-92637309D01*
X118650000Y-92658750D01*
X118650000Y-93171250D01*
X118648947Y-93192691D01*
X118645797Y-93213926D01*
X118640581Y-93234750D01*
X118633349Y-93254962D01*
X118624170Y-93274368D01*
X118613134Y-93292781D01*
X118600346Y-93310024D01*
X118585930Y-93325930D01*
X118570024Y-93340346D01*
X118552781Y-93353134D01*
X118534368Y-93364170D01*
X118514962Y-93373349D01*
X118494750Y-93380581D01*
X118473926Y-93385797D01*
X118452691Y-93388947D01*
X118431250Y-93390000D01*
X117993750Y-93390000D01*
X117972309Y-93388947D01*
X117951074Y-93385797D01*
X117930250Y-93380581D01*
X117910038Y-93373349D01*
X117890632Y-93364170D01*
X117872219Y-93353134D01*
X117854976Y-93340346D01*
X117839070Y-93325930D01*
X117824654Y-93310024D01*
X117811866Y-93292781D01*
X117800830Y-93274368D01*
X117791651Y-93254962D01*
X117784419Y-93234750D01*
X117779203Y-93213926D01*
X117776053Y-93192691D01*
X117775000Y-93171250D01*
X117775000Y-92658750D01*
X117776053Y-92637309D01*
X117779203Y-92616074D01*
X117784419Y-92595250D01*
X117791651Y-92575038D01*
X117800830Y-92555632D01*
X117811866Y-92537219D01*
X117824654Y-92519976D01*
X117839070Y-92504070D01*
X117854976Y-92489654D01*
X117872219Y-92476866D01*
X117890632Y-92465830D01*
X117910038Y-92456651D01*
X117930250Y-92449419D01*
X117951074Y-92444203D01*
X117972309Y-92441053D01*
X117993750Y-92440000D01*
X118431250Y-92440000D01*
X118452691Y-92441053D01*
X118452691Y-92441053D01*
G37*
D12*
X118212500Y-92915000D03*
D10*
G36*
X103102691Y-96776053D02*
G01*
X103123926Y-96779203D01*
X103144750Y-96784419D01*
X103164962Y-96791651D01*
X103184368Y-96800830D01*
X103202781Y-96811866D01*
X103220024Y-96824654D01*
X103235930Y-96839070D01*
X103250346Y-96854976D01*
X103263134Y-96872219D01*
X103274170Y-96890632D01*
X103283349Y-96910038D01*
X103290581Y-96930250D01*
X103295797Y-96951074D01*
X103298947Y-96972309D01*
X103300000Y-96993750D01*
X103300000Y-97431250D01*
X103298947Y-97452691D01*
X103295797Y-97473926D01*
X103290581Y-97494750D01*
X103283349Y-97514962D01*
X103274170Y-97534368D01*
X103263134Y-97552781D01*
X103250346Y-97570024D01*
X103235930Y-97585930D01*
X103220024Y-97600346D01*
X103202781Y-97613134D01*
X103184368Y-97624170D01*
X103164962Y-97633349D01*
X103144750Y-97640581D01*
X103123926Y-97645797D01*
X103102691Y-97648947D01*
X103081250Y-97650000D01*
X102568750Y-97650000D01*
X102547309Y-97648947D01*
X102526074Y-97645797D01*
X102505250Y-97640581D01*
X102485038Y-97633349D01*
X102465632Y-97624170D01*
X102447219Y-97613134D01*
X102429976Y-97600346D01*
X102414070Y-97585930D01*
X102399654Y-97570024D01*
X102386866Y-97552781D01*
X102375830Y-97534368D01*
X102366651Y-97514962D01*
X102359419Y-97494750D01*
X102354203Y-97473926D01*
X102351053Y-97452691D01*
X102350000Y-97431250D01*
X102350000Y-96993750D01*
X102351053Y-96972309D01*
X102354203Y-96951074D01*
X102359419Y-96930250D01*
X102366651Y-96910038D01*
X102375830Y-96890632D01*
X102386866Y-96872219D01*
X102399654Y-96854976D01*
X102414070Y-96839070D01*
X102429976Y-96824654D01*
X102447219Y-96811866D01*
X102465632Y-96800830D01*
X102485038Y-96791651D01*
X102505250Y-96784419D01*
X102526074Y-96779203D01*
X102547309Y-96776053D01*
X102568750Y-96775000D01*
X103081250Y-96775000D01*
X103102691Y-96776053D01*
X103102691Y-96776053D01*
G37*
D12*
X102825000Y-97212500D03*
D10*
G36*
X103102691Y-98351053D02*
G01*
X103123926Y-98354203D01*
X103144750Y-98359419D01*
X103164962Y-98366651D01*
X103184368Y-98375830D01*
X103202781Y-98386866D01*
X103220024Y-98399654D01*
X103235930Y-98414070D01*
X103250346Y-98429976D01*
X103263134Y-98447219D01*
X103274170Y-98465632D01*
X103283349Y-98485038D01*
X103290581Y-98505250D01*
X103295797Y-98526074D01*
X103298947Y-98547309D01*
X103300000Y-98568750D01*
X103300000Y-99006250D01*
X103298947Y-99027691D01*
X103295797Y-99048926D01*
X103290581Y-99069750D01*
X103283349Y-99089962D01*
X103274170Y-99109368D01*
X103263134Y-99127781D01*
X103250346Y-99145024D01*
X103235930Y-99160930D01*
X103220024Y-99175346D01*
X103202781Y-99188134D01*
X103184368Y-99199170D01*
X103164962Y-99208349D01*
X103144750Y-99215581D01*
X103123926Y-99220797D01*
X103102691Y-99223947D01*
X103081250Y-99225000D01*
X102568750Y-99225000D01*
X102547309Y-99223947D01*
X102526074Y-99220797D01*
X102505250Y-99215581D01*
X102485038Y-99208349D01*
X102465632Y-99199170D01*
X102447219Y-99188134D01*
X102429976Y-99175346D01*
X102414070Y-99160930D01*
X102399654Y-99145024D01*
X102386866Y-99127781D01*
X102375830Y-99109368D01*
X102366651Y-99089962D01*
X102359419Y-99069750D01*
X102354203Y-99048926D01*
X102351053Y-99027691D01*
X102350000Y-99006250D01*
X102350000Y-98568750D01*
X102351053Y-98547309D01*
X102354203Y-98526074D01*
X102359419Y-98505250D01*
X102366651Y-98485038D01*
X102375830Y-98465632D01*
X102386866Y-98447219D01*
X102399654Y-98429976D01*
X102414070Y-98414070D01*
X102429976Y-98399654D01*
X102447219Y-98386866D01*
X102465632Y-98375830D01*
X102485038Y-98366651D01*
X102505250Y-98359419D01*
X102526074Y-98354203D01*
X102547309Y-98351053D01*
X102568750Y-98350000D01*
X103081250Y-98350000D01*
X103102691Y-98351053D01*
X103102691Y-98351053D01*
G37*
D12*
X102825000Y-98787500D03*
D10*
G36*
X133777691Y-92901053D02*
G01*
X133798926Y-92904203D01*
X133819750Y-92909419D01*
X133839962Y-92916651D01*
X133859368Y-92925830D01*
X133877781Y-92936866D01*
X133895024Y-92949654D01*
X133910930Y-92964070D01*
X133925346Y-92979976D01*
X133938134Y-92997219D01*
X133949170Y-93015632D01*
X133958349Y-93035038D01*
X133965581Y-93055250D01*
X133970797Y-93076074D01*
X133973947Y-93097309D01*
X133975000Y-93118750D01*
X133975000Y-93631250D01*
X133973947Y-93652691D01*
X133970797Y-93673926D01*
X133965581Y-93694750D01*
X133958349Y-93714962D01*
X133949170Y-93734368D01*
X133938134Y-93752781D01*
X133925346Y-93770024D01*
X133910930Y-93785930D01*
X133895024Y-93800346D01*
X133877781Y-93813134D01*
X133859368Y-93824170D01*
X133839962Y-93833349D01*
X133819750Y-93840581D01*
X133798926Y-93845797D01*
X133777691Y-93848947D01*
X133756250Y-93850000D01*
X133318750Y-93850000D01*
X133297309Y-93848947D01*
X133276074Y-93845797D01*
X133255250Y-93840581D01*
X133235038Y-93833349D01*
X133215632Y-93824170D01*
X133197219Y-93813134D01*
X133179976Y-93800346D01*
X133164070Y-93785930D01*
X133149654Y-93770024D01*
X133136866Y-93752781D01*
X133125830Y-93734368D01*
X133116651Y-93714962D01*
X133109419Y-93694750D01*
X133104203Y-93673926D01*
X133101053Y-93652691D01*
X133100000Y-93631250D01*
X133100000Y-93118750D01*
X133101053Y-93097309D01*
X133104203Y-93076074D01*
X133109419Y-93055250D01*
X133116651Y-93035038D01*
X133125830Y-93015632D01*
X133136866Y-92997219D01*
X133149654Y-92979976D01*
X133164070Y-92964070D01*
X133179976Y-92949654D01*
X133197219Y-92936866D01*
X133215632Y-92925830D01*
X133235038Y-92916651D01*
X133255250Y-92909419D01*
X133276074Y-92904203D01*
X133297309Y-92901053D01*
X133318750Y-92900000D01*
X133756250Y-92900000D01*
X133777691Y-92901053D01*
X133777691Y-92901053D01*
G37*
D12*
X133537500Y-93375000D03*
D10*
G36*
X132202691Y-92901053D02*
G01*
X132223926Y-92904203D01*
X132244750Y-92909419D01*
X132264962Y-92916651D01*
X132284368Y-92925830D01*
X132302781Y-92936866D01*
X132320024Y-92949654D01*
X132335930Y-92964070D01*
X132350346Y-92979976D01*
X132363134Y-92997219D01*
X132374170Y-93015632D01*
X132383349Y-93035038D01*
X132390581Y-93055250D01*
X132395797Y-93076074D01*
X132398947Y-93097309D01*
X132400000Y-93118750D01*
X132400000Y-93631250D01*
X132398947Y-93652691D01*
X132395797Y-93673926D01*
X132390581Y-93694750D01*
X132383349Y-93714962D01*
X132374170Y-93734368D01*
X132363134Y-93752781D01*
X132350346Y-93770024D01*
X132335930Y-93785930D01*
X132320024Y-93800346D01*
X132302781Y-93813134D01*
X132284368Y-93824170D01*
X132264962Y-93833349D01*
X132244750Y-93840581D01*
X132223926Y-93845797D01*
X132202691Y-93848947D01*
X132181250Y-93850000D01*
X131743750Y-93850000D01*
X131722309Y-93848947D01*
X131701074Y-93845797D01*
X131680250Y-93840581D01*
X131660038Y-93833349D01*
X131640632Y-93824170D01*
X131622219Y-93813134D01*
X131604976Y-93800346D01*
X131589070Y-93785930D01*
X131574654Y-93770024D01*
X131561866Y-93752781D01*
X131550830Y-93734368D01*
X131541651Y-93714962D01*
X131534419Y-93694750D01*
X131529203Y-93673926D01*
X131526053Y-93652691D01*
X131525000Y-93631250D01*
X131525000Y-93118750D01*
X131526053Y-93097309D01*
X131529203Y-93076074D01*
X131534419Y-93055250D01*
X131541651Y-93035038D01*
X131550830Y-93015632D01*
X131561866Y-92997219D01*
X131574654Y-92979976D01*
X131589070Y-92964070D01*
X131604976Y-92949654D01*
X131622219Y-92936866D01*
X131640632Y-92925830D01*
X131660038Y-92916651D01*
X131680250Y-92909419D01*
X131701074Y-92904203D01*
X131722309Y-92901053D01*
X131743750Y-92900000D01*
X132181250Y-92900000D01*
X132202691Y-92901053D01*
X132202691Y-92901053D01*
G37*
D12*
X131962500Y-93375000D03*
D10*
G36*
X133102691Y-106201053D02*
G01*
X133123926Y-106204203D01*
X133144750Y-106209419D01*
X133164962Y-106216651D01*
X133184368Y-106225830D01*
X133202781Y-106236866D01*
X133220024Y-106249654D01*
X133235930Y-106264070D01*
X133250346Y-106279976D01*
X133263134Y-106297219D01*
X133274170Y-106315632D01*
X133283349Y-106335038D01*
X133290581Y-106355250D01*
X133295797Y-106376074D01*
X133298947Y-106397309D01*
X133300000Y-106418750D01*
X133300000Y-106931250D01*
X133298947Y-106952691D01*
X133295797Y-106973926D01*
X133290581Y-106994750D01*
X133283349Y-107014962D01*
X133274170Y-107034368D01*
X133263134Y-107052781D01*
X133250346Y-107070024D01*
X133235930Y-107085930D01*
X133220024Y-107100346D01*
X133202781Y-107113134D01*
X133184368Y-107124170D01*
X133164962Y-107133349D01*
X133144750Y-107140581D01*
X133123926Y-107145797D01*
X133102691Y-107148947D01*
X133081250Y-107150000D01*
X132643750Y-107150000D01*
X132622309Y-107148947D01*
X132601074Y-107145797D01*
X132580250Y-107140581D01*
X132560038Y-107133349D01*
X132540632Y-107124170D01*
X132522219Y-107113134D01*
X132504976Y-107100346D01*
X132489070Y-107085930D01*
X132474654Y-107070024D01*
X132461866Y-107052781D01*
X132450830Y-107034368D01*
X132441651Y-107014962D01*
X132434419Y-106994750D01*
X132429203Y-106973926D01*
X132426053Y-106952691D01*
X132425000Y-106931250D01*
X132425000Y-106418750D01*
X132426053Y-106397309D01*
X132429203Y-106376074D01*
X132434419Y-106355250D01*
X132441651Y-106335038D01*
X132450830Y-106315632D01*
X132461866Y-106297219D01*
X132474654Y-106279976D01*
X132489070Y-106264070D01*
X132504976Y-106249654D01*
X132522219Y-106236866D01*
X132540632Y-106225830D01*
X132560038Y-106216651D01*
X132580250Y-106209419D01*
X132601074Y-106204203D01*
X132622309Y-106201053D01*
X132643750Y-106200000D01*
X133081250Y-106200000D01*
X133102691Y-106201053D01*
X133102691Y-106201053D01*
G37*
D12*
X132862500Y-106675000D03*
D10*
G36*
X131527691Y-106201053D02*
G01*
X131548926Y-106204203D01*
X131569750Y-106209419D01*
X131589962Y-106216651D01*
X131609368Y-106225830D01*
X131627781Y-106236866D01*
X131645024Y-106249654D01*
X131660930Y-106264070D01*
X131675346Y-106279976D01*
X131688134Y-106297219D01*
X131699170Y-106315632D01*
X131708349Y-106335038D01*
X131715581Y-106355250D01*
X131720797Y-106376074D01*
X131723947Y-106397309D01*
X131725000Y-106418750D01*
X131725000Y-106931250D01*
X131723947Y-106952691D01*
X131720797Y-106973926D01*
X131715581Y-106994750D01*
X131708349Y-107014962D01*
X131699170Y-107034368D01*
X131688134Y-107052781D01*
X131675346Y-107070024D01*
X131660930Y-107085930D01*
X131645024Y-107100346D01*
X131627781Y-107113134D01*
X131609368Y-107124170D01*
X131589962Y-107133349D01*
X131569750Y-107140581D01*
X131548926Y-107145797D01*
X131527691Y-107148947D01*
X131506250Y-107150000D01*
X131068750Y-107150000D01*
X131047309Y-107148947D01*
X131026074Y-107145797D01*
X131005250Y-107140581D01*
X130985038Y-107133349D01*
X130965632Y-107124170D01*
X130947219Y-107113134D01*
X130929976Y-107100346D01*
X130914070Y-107085930D01*
X130899654Y-107070024D01*
X130886866Y-107052781D01*
X130875830Y-107034368D01*
X130866651Y-107014962D01*
X130859419Y-106994750D01*
X130854203Y-106973926D01*
X130851053Y-106952691D01*
X130850000Y-106931250D01*
X130850000Y-106418750D01*
X130851053Y-106397309D01*
X130854203Y-106376074D01*
X130859419Y-106355250D01*
X130866651Y-106335038D01*
X130875830Y-106315632D01*
X130886866Y-106297219D01*
X130899654Y-106279976D01*
X130914070Y-106264070D01*
X130929976Y-106249654D01*
X130947219Y-106236866D01*
X130965632Y-106225830D01*
X130985038Y-106216651D01*
X131005250Y-106209419D01*
X131026074Y-106204203D01*
X131047309Y-106201053D01*
X131068750Y-106200000D01*
X131506250Y-106200000D01*
X131527691Y-106201053D01*
X131527691Y-106201053D01*
G37*
D12*
X131287500Y-106675000D03*
D10*
G36*
X128477691Y-106201053D02*
G01*
X128498926Y-106204203D01*
X128519750Y-106209419D01*
X128539962Y-106216651D01*
X128559368Y-106225830D01*
X128577781Y-106236866D01*
X128595024Y-106249654D01*
X128610930Y-106264070D01*
X128625346Y-106279976D01*
X128638134Y-106297219D01*
X128649170Y-106315632D01*
X128658349Y-106335038D01*
X128665581Y-106355250D01*
X128670797Y-106376074D01*
X128673947Y-106397309D01*
X128675000Y-106418750D01*
X128675000Y-106931250D01*
X128673947Y-106952691D01*
X128670797Y-106973926D01*
X128665581Y-106994750D01*
X128658349Y-107014962D01*
X128649170Y-107034368D01*
X128638134Y-107052781D01*
X128625346Y-107070024D01*
X128610930Y-107085930D01*
X128595024Y-107100346D01*
X128577781Y-107113134D01*
X128559368Y-107124170D01*
X128539962Y-107133349D01*
X128519750Y-107140581D01*
X128498926Y-107145797D01*
X128477691Y-107148947D01*
X128456250Y-107150000D01*
X128018750Y-107150000D01*
X127997309Y-107148947D01*
X127976074Y-107145797D01*
X127955250Y-107140581D01*
X127935038Y-107133349D01*
X127915632Y-107124170D01*
X127897219Y-107113134D01*
X127879976Y-107100346D01*
X127864070Y-107085930D01*
X127849654Y-107070024D01*
X127836866Y-107052781D01*
X127825830Y-107034368D01*
X127816651Y-107014962D01*
X127809419Y-106994750D01*
X127804203Y-106973926D01*
X127801053Y-106952691D01*
X127800000Y-106931250D01*
X127800000Y-106418750D01*
X127801053Y-106397309D01*
X127804203Y-106376074D01*
X127809419Y-106355250D01*
X127816651Y-106335038D01*
X127825830Y-106315632D01*
X127836866Y-106297219D01*
X127849654Y-106279976D01*
X127864070Y-106264070D01*
X127879976Y-106249654D01*
X127897219Y-106236866D01*
X127915632Y-106225830D01*
X127935038Y-106216651D01*
X127955250Y-106209419D01*
X127976074Y-106204203D01*
X127997309Y-106201053D01*
X128018750Y-106200000D01*
X128456250Y-106200000D01*
X128477691Y-106201053D01*
X128477691Y-106201053D01*
G37*
D12*
X128237500Y-106675000D03*
D10*
G36*
X130052691Y-106201053D02*
G01*
X130073926Y-106204203D01*
X130094750Y-106209419D01*
X130114962Y-106216651D01*
X130134368Y-106225830D01*
X130152781Y-106236866D01*
X130170024Y-106249654D01*
X130185930Y-106264070D01*
X130200346Y-106279976D01*
X130213134Y-106297219D01*
X130224170Y-106315632D01*
X130233349Y-106335038D01*
X130240581Y-106355250D01*
X130245797Y-106376074D01*
X130248947Y-106397309D01*
X130250000Y-106418750D01*
X130250000Y-106931250D01*
X130248947Y-106952691D01*
X130245797Y-106973926D01*
X130240581Y-106994750D01*
X130233349Y-107014962D01*
X130224170Y-107034368D01*
X130213134Y-107052781D01*
X130200346Y-107070024D01*
X130185930Y-107085930D01*
X130170024Y-107100346D01*
X130152781Y-107113134D01*
X130134368Y-107124170D01*
X130114962Y-107133349D01*
X130094750Y-107140581D01*
X130073926Y-107145797D01*
X130052691Y-107148947D01*
X130031250Y-107150000D01*
X129593750Y-107150000D01*
X129572309Y-107148947D01*
X129551074Y-107145797D01*
X129530250Y-107140581D01*
X129510038Y-107133349D01*
X129490632Y-107124170D01*
X129472219Y-107113134D01*
X129454976Y-107100346D01*
X129439070Y-107085930D01*
X129424654Y-107070024D01*
X129411866Y-107052781D01*
X129400830Y-107034368D01*
X129391651Y-107014962D01*
X129384419Y-106994750D01*
X129379203Y-106973926D01*
X129376053Y-106952691D01*
X129375000Y-106931250D01*
X129375000Y-106418750D01*
X129376053Y-106397309D01*
X129379203Y-106376074D01*
X129384419Y-106355250D01*
X129391651Y-106335038D01*
X129400830Y-106315632D01*
X129411866Y-106297219D01*
X129424654Y-106279976D01*
X129439070Y-106264070D01*
X129454976Y-106249654D01*
X129472219Y-106236866D01*
X129490632Y-106225830D01*
X129510038Y-106216651D01*
X129530250Y-106209419D01*
X129551074Y-106204203D01*
X129572309Y-106201053D01*
X129593750Y-106200000D01*
X130031250Y-106200000D01*
X130052691Y-106201053D01*
X130052691Y-106201053D01*
G37*
D12*
X129812500Y-106675000D03*
D10*
G36*
X121502691Y-102476053D02*
G01*
X121523926Y-102479203D01*
X121544750Y-102484419D01*
X121564962Y-102491651D01*
X121584368Y-102500830D01*
X121602781Y-102511866D01*
X121620024Y-102524654D01*
X121635930Y-102539070D01*
X121650346Y-102554976D01*
X121663134Y-102572219D01*
X121674170Y-102590632D01*
X121683349Y-102610038D01*
X121690581Y-102630250D01*
X121695797Y-102651074D01*
X121698947Y-102672309D01*
X121700000Y-102693750D01*
X121700000Y-103206250D01*
X121698947Y-103227691D01*
X121695797Y-103248926D01*
X121690581Y-103269750D01*
X121683349Y-103289962D01*
X121674170Y-103309368D01*
X121663134Y-103327781D01*
X121650346Y-103345024D01*
X121635930Y-103360930D01*
X121620024Y-103375346D01*
X121602781Y-103388134D01*
X121584368Y-103399170D01*
X121564962Y-103408349D01*
X121544750Y-103415581D01*
X121523926Y-103420797D01*
X121502691Y-103423947D01*
X121481250Y-103425000D01*
X121043750Y-103425000D01*
X121022309Y-103423947D01*
X121001074Y-103420797D01*
X120980250Y-103415581D01*
X120960038Y-103408349D01*
X120940632Y-103399170D01*
X120922219Y-103388134D01*
X120904976Y-103375346D01*
X120889070Y-103360930D01*
X120874654Y-103345024D01*
X120861866Y-103327781D01*
X120850830Y-103309368D01*
X120841651Y-103289962D01*
X120834419Y-103269750D01*
X120829203Y-103248926D01*
X120826053Y-103227691D01*
X120825000Y-103206250D01*
X120825000Y-102693750D01*
X120826053Y-102672309D01*
X120829203Y-102651074D01*
X120834419Y-102630250D01*
X120841651Y-102610038D01*
X120850830Y-102590632D01*
X120861866Y-102572219D01*
X120874654Y-102554976D01*
X120889070Y-102539070D01*
X120904976Y-102524654D01*
X120922219Y-102511866D01*
X120940632Y-102500830D01*
X120960038Y-102491651D01*
X120980250Y-102484419D01*
X121001074Y-102479203D01*
X121022309Y-102476053D01*
X121043750Y-102475000D01*
X121481250Y-102475000D01*
X121502691Y-102476053D01*
X121502691Y-102476053D01*
G37*
D12*
X121262500Y-102950000D03*
D10*
G36*
X119927691Y-102476053D02*
G01*
X119948926Y-102479203D01*
X119969750Y-102484419D01*
X119989962Y-102491651D01*
X120009368Y-102500830D01*
X120027781Y-102511866D01*
X120045024Y-102524654D01*
X120060930Y-102539070D01*
X120075346Y-102554976D01*
X120088134Y-102572219D01*
X120099170Y-102590632D01*
X120108349Y-102610038D01*
X120115581Y-102630250D01*
X120120797Y-102651074D01*
X120123947Y-102672309D01*
X120125000Y-102693750D01*
X120125000Y-103206250D01*
X120123947Y-103227691D01*
X120120797Y-103248926D01*
X120115581Y-103269750D01*
X120108349Y-103289962D01*
X120099170Y-103309368D01*
X120088134Y-103327781D01*
X120075346Y-103345024D01*
X120060930Y-103360930D01*
X120045024Y-103375346D01*
X120027781Y-103388134D01*
X120009368Y-103399170D01*
X119989962Y-103408349D01*
X119969750Y-103415581D01*
X119948926Y-103420797D01*
X119927691Y-103423947D01*
X119906250Y-103425000D01*
X119468750Y-103425000D01*
X119447309Y-103423947D01*
X119426074Y-103420797D01*
X119405250Y-103415581D01*
X119385038Y-103408349D01*
X119365632Y-103399170D01*
X119347219Y-103388134D01*
X119329976Y-103375346D01*
X119314070Y-103360930D01*
X119299654Y-103345024D01*
X119286866Y-103327781D01*
X119275830Y-103309368D01*
X119266651Y-103289962D01*
X119259419Y-103269750D01*
X119254203Y-103248926D01*
X119251053Y-103227691D01*
X119250000Y-103206250D01*
X119250000Y-102693750D01*
X119251053Y-102672309D01*
X119254203Y-102651074D01*
X119259419Y-102630250D01*
X119266651Y-102610038D01*
X119275830Y-102590632D01*
X119286866Y-102572219D01*
X119299654Y-102554976D01*
X119314070Y-102539070D01*
X119329976Y-102524654D01*
X119347219Y-102511866D01*
X119365632Y-102500830D01*
X119385038Y-102491651D01*
X119405250Y-102484419D01*
X119426074Y-102479203D01*
X119447309Y-102476053D01*
X119468750Y-102475000D01*
X119906250Y-102475000D01*
X119927691Y-102476053D01*
X119927691Y-102476053D01*
G37*
D12*
X119687500Y-102950000D03*
D10*
G36*
X117977691Y-102476053D02*
G01*
X117998926Y-102479203D01*
X118019750Y-102484419D01*
X118039962Y-102491651D01*
X118059368Y-102500830D01*
X118077781Y-102511866D01*
X118095024Y-102524654D01*
X118110930Y-102539070D01*
X118125346Y-102554976D01*
X118138134Y-102572219D01*
X118149170Y-102590632D01*
X118158349Y-102610038D01*
X118165581Y-102630250D01*
X118170797Y-102651074D01*
X118173947Y-102672309D01*
X118175000Y-102693750D01*
X118175000Y-103206250D01*
X118173947Y-103227691D01*
X118170797Y-103248926D01*
X118165581Y-103269750D01*
X118158349Y-103289962D01*
X118149170Y-103309368D01*
X118138134Y-103327781D01*
X118125346Y-103345024D01*
X118110930Y-103360930D01*
X118095024Y-103375346D01*
X118077781Y-103388134D01*
X118059368Y-103399170D01*
X118039962Y-103408349D01*
X118019750Y-103415581D01*
X117998926Y-103420797D01*
X117977691Y-103423947D01*
X117956250Y-103425000D01*
X117518750Y-103425000D01*
X117497309Y-103423947D01*
X117476074Y-103420797D01*
X117455250Y-103415581D01*
X117435038Y-103408349D01*
X117415632Y-103399170D01*
X117397219Y-103388134D01*
X117379976Y-103375346D01*
X117364070Y-103360930D01*
X117349654Y-103345024D01*
X117336866Y-103327781D01*
X117325830Y-103309368D01*
X117316651Y-103289962D01*
X117309419Y-103269750D01*
X117304203Y-103248926D01*
X117301053Y-103227691D01*
X117300000Y-103206250D01*
X117300000Y-102693750D01*
X117301053Y-102672309D01*
X117304203Y-102651074D01*
X117309419Y-102630250D01*
X117316651Y-102610038D01*
X117325830Y-102590632D01*
X117336866Y-102572219D01*
X117349654Y-102554976D01*
X117364070Y-102539070D01*
X117379976Y-102524654D01*
X117397219Y-102511866D01*
X117415632Y-102500830D01*
X117435038Y-102491651D01*
X117455250Y-102484419D01*
X117476074Y-102479203D01*
X117497309Y-102476053D01*
X117518750Y-102475000D01*
X117956250Y-102475000D01*
X117977691Y-102476053D01*
X117977691Y-102476053D01*
G37*
D12*
X117737500Y-102950000D03*
D10*
G36*
X116402691Y-102476053D02*
G01*
X116423926Y-102479203D01*
X116444750Y-102484419D01*
X116464962Y-102491651D01*
X116484368Y-102500830D01*
X116502781Y-102511866D01*
X116520024Y-102524654D01*
X116535930Y-102539070D01*
X116550346Y-102554976D01*
X116563134Y-102572219D01*
X116574170Y-102590632D01*
X116583349Y-102610038D01*
X116590581Y-102630250D01*
X116595797Y-102651074D01*
X116598947Y-102672309D01*
X116600000Y-102693750D01*
X116600000Y-103206250D01*
X116598947Y-103227691D01*
X116595797Y-103248926D01*
X116590581Y-103269750D01*
X116583349Y-103289962D01*
X116574170Y-103309368D01*
X116563134Y-103327781D01*
X116550346Y-103345024D01*
X116535930Y-103360930D01*
X116520024Y-103375346D01*
X116502781Y-103388134D01*
X116484368Y-103399170D01*
X116464962Y-103408349D01*
X116444750Y-103415581D01*
X116423926Y-103420797D01*
X116402691Y-103423947D01*
X116381250Y-103425000D01*
X115943750Y-103425000D01*
X115922309Y-103423947D01*
X115901074Y-103420797D01*
X115880250Y-103415581D01*
X115860038Y-103408349D01*
X115840632Y-103399170D01*
X115822219Y-103388134D01*
X115804976Y-103375346D01*
X115789070Y-103360930D01*
X115774654Y-103345024D01*
X115761866Y-103327781D01*
X115750830Y-103309368D01*
X115741651Y-103289962D01*
X115734419Y-103269750D01*
X115729203Y-103248926D01*
X115726053Y-103227691D01*
X115725000Y-103206250D01*
X115725000Y-102693750D01*
X115726053Y-102672309D01*
X115729203Y-102651074D01*
X115734419Y-102630250D01*
X115741651Y-102610038D01*
X115750830Y-102590632D01*
X115761866Y-102572219D01*
X115774654Y-102554976D01*
X115789070Y-102539070D01*
X115804976Y-102524654D01*
X115822219Y-102511866D01*
X115840632Y-102500830D01*
X115860038Y-102491651D01*
X115880250Y-102484419D01*
X115901074Y-102479203D01*
X115922309Y-102476053D01*
X115943750Y-102475000D01*
X116381250Y-102475000D01*
X116402691Y-102476053D01*
X116402691Y-102476053D01*
G37*
D12*
X116162500Y-102950000D03*
D10*
G36*
X85577691Y-101921053D02*
G01*
X85598926Y-101924203D01*
X85619750Y-101929419D01*
X85639962Y-101936651D01*
X85659368Y-101945830D01*
X85677781Y-101956866D01*
X85695024Y-101969654D01*
X85710930Y-101984070D01*
X85725346Y-101999976D01*
X85738134Y-102017219D01*
X85749170Y-102035632D01*
X85758349Y-102055038D01*
X85765581Y-102075250D01*
X85770797Y-102096074D01*
X85773947Y-102117309D01*
X85775000Y-102138750D01*
X85775000Y-102651250D01*
X85773947Y-102672691D01*
X85770797Y-102693926D01*
X85765581Y-102714750D01*
X85758349Y-102734962D01*
X85749170Y-102754368D01*
X85738134Y-102772781D01*
X85725346Y-102790024D01*
X85710930Y-102805930D01*
X85695024Y-102820346D01*
X85677781Y-102833134D01*
X85659368Y-102844170D01*
X85639962Y-102853349D01*
X85619750Y-102860581D01*
X85598926Y-102865797D01*
X85577691Y-102868947D01*
X85556250Y-102870000D01*
X85118750Y-102870000D01*
X85097309Y-102868947D01*
X85076074Y-102865797D01*
X85055250Y-102860581D01*
X85035038Y-102853349D01*
X85015632Y-102844170D01*
X84997219Y-102833134D01*
X84979976Y-102820346D01*
X84964070Y-102805930D01*
X84949654Y-102790024D01*
X84936866Y-102772781D01*
X84925830Y-102754368D01*
X84916651Y-102734962D01*
X84909419Y-102714750D01*
X84904203Y-102693926D01*
X84901053Y-102672691D01*
X84900000Y-102651250D01*
X84900000Y-102138750D01*
X84901053Y-102117309D01*
X84904203Y-102096074D01*
X84909419Y-102075250D01*
X84916651Y-102055038D01*
X84925830Y-102035632D01*
X84936866Y-102017219D01*
X84949654Y-101999976D01*
X84964070Y-101984070D01*
X84979976Y-101969654D01*
X84997219Y-101956866D01*
X85015632Y-101945830D01*
X85035038Y-101936651D01*
X85055250Y-101929419D01*
X85076074Y-101924203D01*
X85097309Y-101921053D01*
X85118750Y-101920000D01*
X85556250Y-101920000D01*
X85577691Y-101921053D01*
X85577691Y-101921053D01*
G37*
D12*
X85337500Y-102395000D03*
D10*
G36*
X87152691Y-101921053D02*
G01*
X87173926Y-101924203D01*
X87194750Y-101929419D01*
X87214962Y-101936651D01*
X87234368Y-101945830D01*
X87252781Y-101956866D01*
X87270024Y-101969654D01*
X87285930Y-101984070D01*
X87300346Y-101999976D01*
X87313134Y-102017219D01*
X87324170Y-102035632D01*
X87333349Y-102055038D01*
X87340581Y-102075250D01*
X87345797Y-102096074D01*
X87348947Y-102117309D01*
X87350000Y-102138750D01*
X87350000Y-102651250D01*
X87348947Y-102672691D01*
X87345797Y-102693926D01*
X87340581Y-102714750D01*
X87333349Y-102734962D01*
X87324170Y-102754368D01*
X87313134Y-102772781D01*
X87300346Y-102790024D01*
X87285930Y-102805930D01*
X87270024Y-102820346D01*
X87252781Y-102833134D01*
X87234368Y-102844170D01*
X87214962Y-102853349D01*
X87194750Y-102860581D01*
X87173926Y-102865797D01*
X87152691Y-102868947D01*
X87131250Y-102870000D01*
X86693750Y-102870000D01*
X86672309Y-102868947D01*
X86651074Y-102865797D01*
X86630250Y-102860581D01*
X86610038Y-102853349D01*
X86590632Y-102844170D01*
X86572219Y-102833134D01*
X86554976Y-102820346D01*
X86539070Y-102805930D01*
X86524654Y-102790024D01*
X86511866Y-102772781D01*
X86500830Y-102754368D01*
X86491651Y-102734962D01*
X86484419Y-102714750D01*
X86479203Y-102693926D01*
X86476053Y-102672691D01*
X86475000Y-102651250D01*
X86475000Y-102138750D01*
X86476053Y-102117309D01*
X86479203Y-102096074D01*
X86484419Y-102075250D01*
X86491651Y-102055038D01*
X86500830Y-102035632D01*
X86511866Y-102017219D01*
X86524654Y-101999976D01*
X86539070Y-101984070D01*
X86554976Y-101969654D01*
X86572219Y-101956866D01*
X86590632Y-101945830D01*
X86610038Y-101936651D01*
X86630250Y-101929419D01*
X86651074Y-101924203D01*
X86672309Y-101921053D01*
X86693750Y-101920000D01*
X87131250Y-101920000D01*
X87152691Y-101921053D01*
X87152691Y-101921053D01*
G37*
D12*
X86912500Y-102395000D03*
D10*
G36*
X119777691Y-97526053D02*
G01*
X119798926Y-97529203D01*
X119819750Y-97534419D01*
X119839962Y-97541651D01*
X119859368Y-97550830D01*
X119877781Y-97561866D01*
X119895024Y-97574654D01*
X119910930Y-97589070D01*
X119925346Y-97604976D01*
X119938134Y-97622219D01*
X119949170Y-97640632D01*
X119958349Y-97660038D01*
X119965581Y-97680250D01*
X119970797Y-97701074D01*
X119973947Y-97722309D01*
X119975000Y-97743750D01*
X119975000Y-98256250D01*
X119973947Y-98277691D01*
X119970797Y-98298926D01*
X119965581Y-98319750D01*
X119958349Y-98339962D01*
X119949170Y-98359368D01*
X119938134Y-98377781D01*
X119925346Y-98395024D01*
X119910930Y-98410930D01*
X119895024Y-98425346D01*
X119877781Y-98438134D01*
X119859368Y-98449170D01*
X119839962Y-98458349D01*
X119819750Y-98465581D01*
X119798926Y-98470797D01*
X119777691Y-98473947D01*
X119756250Y-98475000D01*
X119318750Y-98475000D01*
X119297309Y-98473947D01*
X119276074Y-98470797D01*
X119255250Y-98465581D01*
X119235038Y-98458349D01*
X119215632Y-98449170D01*
X119197219Y-98438134D01*
X119179976Y-98425346D01*
X119164070Y-98410930D01*
X119149654Y-98395024D01*
X119136866Y-98377781D01*
X119125830Y-98359368D01*
X119116651Y-98339962D01*
X119109419Y-98319750D01*
X119104203Y-98298926D01*
X119101053Y-98277691D01*
X119100000Y-98256250D01*
X119100000Y-97743750D01*
X119101053Y-97722309D01*
X119104203Y-97701074D01*
X119109419Y-97680250D01*
X119116651Y-97660038D01*
X119125830Y-97640632D01*
X119136866Y-97622219D01*
X119149654Y-97604976D01*
X119164070Y-97589070D01*
X119179976Y-97574654D01*
X119197219Y-97561866D01*
X119215632Y-97550830D01*
X119235038Y-97541651D01*
X119255250Y-97534419D01*
X119276074Y-97529203D01*
X119297309Y-97526053D01*
X119318750Y-97525000D01*
X119756250Y-97525000D01*
X119777691Y-97526053D01*
X119777691Y-97526053D01*
G37*
D12*
X119537500Y-98000000D03*
D10*
G36*
X121352691Y-97526053D02*
G01*
X121373926Y-97529203D01*
X121394750Y-97534419D01*
X121414962Y-97541651D01*
X121434368Y-97550830D01*
X121452781Y-97561866D01*
X121470024Y-97574654D01*
X121485930Y-97589070D01*
X121500346Y-97604976D01*
X121513134Y-97622219D01*
X121524170Y-97640632D01*
X121533349Y-97660038D01*
X121540581Y-97680250D01*
X121545797Y-97701074D01*
X121548947Y-97722309D01*
X121550000Y-97743750D01*
X121550000Y-98256250D01*
X121548947Y-98277691D01*
X121545797Y-98298926D01*
X121540581Y-98319750D01*
X121533349Y-98339962D01*
X121524170Y-98359368D01*
X121513134Y-98377781D01*
X121500346Y-98395024D01*
X121485930Y-98410930D01*
X121470024Y-98425346D01*
X121452781Y-98438134D01*
X121434368Y-98449170D01*
X121414962Y-98458349D01*
X121394750Y-98465581D01*
X121373926Y-98470797D01*
X121352691Y-98473947D01*
X121331250Y-98475000D01*
X120893750Y-98475000D01*
X120872309Y-98473947D01*
X120851074Y-98470797D01*
X120830250Y-98465581D01*
X120810038Y-98458349D01*
X120790632Y-98449170D01*
X120772219Y-98438134D01*
X120754976Y-98425346D01*
X120739070Y-98410930D01*
X120724654Y-98395024D01*
X120711866Y-98377781D01*
X120700830Y-98359368D01*
X120691651Y-98339962D01*
X120684419Y-98319750D01*
X120679203Y-98298926D01*
X120676053Y-98277691D01*
X120675000Y-98256250D01*
X120675000Y-97743750D01*
X120676053Y-97722309D01*
X120679203Y-97701074D01*
X120684419Y-97680250D01*
X120691651Y-97660038D01*
X120700830Y-97640632D01*
X120711866Y-97622219D01*
X120724654Y-97604976D01*
X120739070Y-97589070D01*
X120754976Y-97574654D01*
X120772219Y-97561866D01*
X120790632Y-97550830D01*
X120810038Y-97541651D01*
X120830250Y-97534419D01*
X120851074Y-97529203D01*
X120872309Y-97526053D01*
X120893750Y-97525000D01*
X121331250Y-97525000D01*
X121352691Y-97526053D01*
X121352691Y-97526053D01*
G37*
D12*
X121112500Y-98000000D03*
D10*
G36*
X116177691Y-97526053D02*
G01*
X116198926Y-97529203D01*
X116219750Y-97534419D01*
X116239962Y-97541651D01*
X116259368Y-97550830D01*
X116277781Y-97561866D01*
X116295024Y-97574654D01*
X116310930Y-97589070D01*
X116325346Y-97604976D01*
X116338134Y-97622219D01*
X116349170Y-97640632D01*
X116358349Y-97660038D01*
X116365581Y-97680250D01*
X116370797Y-97701074D01*
X116373947Y-97722309D01*
X116375000Y-97743750D01*
X116375000Y-98256250D01*
X116373947Y-98277691D01*
X116370797Y-98298926D01*
X116365581Y-98319750D01*
X116358349Y-98339962D01*
X116349170Y-98359368D01*
X116338134Y-98377781D01*
X116325346Y-98395024D01*
X116310930Y-98410930D01*
X116295024Y-98425346D01*
X116277781Y-98438134D01*
X116259368Y-98449170D01*
X116239962Y-98458349D01*
X116219750Y-98465581D01*
X116198926Y-98470797D01*
X116177691Y-98473947D01*
X116156250Y-98475000D01*
X115718750Y-98475000D01*
X115697309Y-98473947D01*
X115676074Y-98470797D01*
X115655250Y-98465581D01*
X115635038Y-98458349D01*
X115615632Y-98449170D01*
X115597219Y-98438134D01*
X115579976Y-98425346D01*
X115564070Y-98410930D01*
X115549654Y-98395024D01*
X115536866Y-98377781D01*
X115525830Y-98359368D01*
X115516651Y-98339962D01*
X115509419Y-98319750D01*
X115504203Y-98298926D01*
X115501053Y-98277691D01*
X115500000Y-98256250D01*
X115500000Y-97743750D01*
X115501053Y-97722309D01*
X115504203Y-97701074D01*
X115509419Y-97680250D01*
X115516651Y-97660038D01*
X115525830Y-97640632D01*
X115536866Y-97622219D01*
X115549654Y-97604976D01*
X115564070Y-97589070D01*
X115579976Y-97574654D01*
X115597219Y-97561866D01*
X115615632Y-97550830D01*
X115635038Y-97541651D01*
X115655250Y-97534419D01*
X115676074Y-97529203D01*
X115697309Y-97526053D01*
X115718750Y-97525000D01*
X116156250Y-97525000D01*
X116177691Y-97526053D01*
X116177691Y-97526053D01*
G37*
D12*
X115937500Y-98000000D03*
D10*
G36*
X117752691Y-97526053D02*
G01*
X117773926Y-97529203D01*
X117794750Y-97534419D01*
X117814962Y-97541651D01*
X117834368Y-97550830D01*
X117852781Y-97561866D01*
X117870024Y-97574654D01*
X117885930Y-97589070D01*
X117900346Y-97604976D01*
X117913134Y-97622219D01*
X117924170Y-97640632D01*
X117933349Y-97660038D01*
X117940581Y-97680250D01*
X117945797Y-97701074D01*
X117948947Y-97722309D01*
X117950000Y-97743750D01*
X117950000Y-98256250D01*
X117948947Y-98277691D01*
X117945797Y-98298926D01*
X117940581Y-98319750D01*
X117933349Y-98339962D01*
X117924170Y-98359368D01*
X117913134Y-98377781D01*
X117900346Y-98395024D01*
X117885930Y-98410930D01*
X117870024Y-98425346D01*
X117852781Y-98438134D01*
X117834368Y-98449170D01*
X117814962Y-98458349D01*
X117794750Y-98465581D01*
X117773926Y-98470797D01*
X117752691Y-98473947D01*
X117731250Y-98475000D01*
X117293750Y-98475000D01*
X117272309Y-98473947D01*
X117251074Y-98470797D01*
X117230250Y-98465581D01*
X117210038Y-98458349D01*
X117190632Y-98449170D01*
X117172219Y-98438134D01*
X117154976Y-98425346D01*
X117139070Y-98410930D01*
X117124654Y-98395024D01*
X117111866Y-98377781D01*
X117100830Y-98359368D01*
X117091651Y-98339962D01*
X117084419Y-98319750D01*
X117079203Y-98298926D01*
X117076053Y-98277691D01*
X117075000Y-98256250D01*
X117075000Y-97743750D01*
X117076053Y-97722309D01*
X117079203Y-97701074D01*
X117084419Y-97680250D01*
X117091651Y-97660038D01*
X117100830Y-97640632D01*
X117111866Y-97622219D01*
X117124654Y-97604976D01*
X117139070Y-97589070D01*
X117154976Y-97574654D01*
X117172219Y-97561866D01*
X117190632Y-97550830D01*
X117210038Y-97541651D01*
X117230250Y-97534419D01*
X117251074Y-97529203D01*
X117272309Y-97526053D01*
X117293750Y-97525000D01*
X117731250Y-97525000D01*
X117752691Y-97526053D01*
X117752691Y-97526053D01*
G37*
D12*
X117512500Y-98000000D03*
D10*
G36*
X114327691Y-102476053D02*
G01*
X114348926Y-102479203D01*
X114369750Y-102484419D01*
X114389962Y-102491651D01*
X114409368Y-102500830D01*
X114427781Y-102511866D01*
X114445024Y-102524654D01*
X114460930Y-102539070D01*
X114475346Y-102554976D01*
X114488134Y-102572219D01*
X114499170Y-102590632D01*
X114508349Y-102610038D01*
X114515581Y-102630250D01*
X114520797Y-102651074D01*
X114523947Y-102672309D01*
X114525000Y-102693750D01*
X114525000Y-103206250D01*
X114523947Y-103227691D01*
X114520797Y-103248926D01*
X114515581Y-103269750D01*
X114508349Y-103289962D01*
X114499170Y-103309368D01*
X114488134Y-103327781D01*
X114475346Y-103345024D01*
X114460930Y-103360930D01*
X114445024Y-103375346D01*
X114427781Y-103388134D01*
X114409368Y-103399170D01*
X114389962Y-103408349D01*
X114369750Y-103415581D01*
X114348926Y-103420797D01*
X114327691Y-103423947D01*
X114306250Y-103425000D01*
X113868750Y-103425000D01*
X113847309Y-103423947D01*
X113826074Y-103420797D01*
X113805250Y-103415581D01*
X113785038Y-103408349D01*
X113765632Y-103399170D01*
X113747219Y-103388134D01*
X113729976Y-103375346D01*
X113714070Y-103360930D01*
X113699654Y-103345024D01*
X113686866Y-103327781D01*
X113675830Y-103309368D01*
X113666651Y-103289962D01*
X113659419Y-103269750D01*
X113654203Y-103248926D01*
X113651053Y-103227691D01*
X113650000Y-103206250D01*
X113650000Y-102693750D01*
X113651053Y-102672309D01*
X113654203Y-102651074D01*
X113659419Y-102630250D01*
X113666651Y-102610038D01*
X113675830Y-102590632D01*
X113686866Y-102572219D01*
X113699654Y-102554976D01*
X113714070Y-102539070D01*
X113729976Y-102524654D01*
X113747219Y-102511866D01*
X113765632Y-102500830D01*
X113785038Y-102491651D01*
X113805250Y-102484419D01*
X113826074Y-102479203D01*
X113847309Y-102476053D01*
X113868750Y-102475000D01*
X114306250Y-102475000D01*
X114327691Y-102476053D01*
X114327691Y-102476053D01*
G37*
D12*
X114087500Y-102950000D03*
D10*
G36*
X112752691Y-102476053D02*
G01*
X112773926Y-102479203D01*
X112794750Y-102484419D01*
X112814962Y-102491651D01*
X112834368Y-102500830D01*
X112852781Y-102511866D01*
X112870024Y-102524654D01*
X112885930Y-102539070D01*
X112900346Y-102554976D01*
X112913134Y-102572219D01*
X112924170Y-102590632D01*
X112933349Y-102610038D01*
X112940581Y-102630250D01*
X112945797Y-102651074D01*
X112948947Y-102672309D01*
X112950000Y-102693750D01*
X112950000Y-103206250D01*
X112948947Y-103227691D01*
X112945797Y-103248926D01*
X112940581Y-103269750D01*
X112933349Y-103289962D01*
X112924170Y-103309368D01*
X112913134Y-103327781D01*
X112900346Y-103345024D01*
X112885930Y-103360930D01*
X112870024Y-103375346D01*
X112852781Y-103388134D01*
X112834368Y-103399170D01*
X112814962Y-103408349D01*
X112794750Y-103415581D01*
X112773926Y-103420797D01*
X112752691Y-103423947D01*
X112731250Y-103425000D01*
X112293750Y-103425000D01*
X112272309Y-103423947D01*
X112251074Y-103420797D01*
X112230250Y-103415581D01*
X112210038Y-103408349D01*
X112190632Y-103399170D01*
X112172219Y-103388134D01*
X112154976Y-103375346D01*
X112139070Y-103360930D01*
X112124654Y-103345024D01*
X112111866Y-103327781D01*
X112100830Y-103309368D01*
X112091651Y-103289962D01*
X112084419Y-103269750D01*
X112079203Y-103248926D01*
X112076053Y-103227691D01*
X112075000Y-103206250D01*
X112075000Y-102693750D01*
X112076053Y-102672309D01*
X112079203Y-102651074D01*
X112084419Y-102630250D01*
X112091651Y-102610038D01*
X112100830Y-102590632D01*
X112111866Y-102572219D01*
X112124654Y-102554976D01*
X112139070Y-102539070D01*
X112154976Y-102524654D01*
X112172219Y-102511866D01*
X112190632Y-102500830D01*
X112210038Y-102491651D01*
X112230250Y-102484419D01*
X112251074Y-102479203D01*
X112272309Y-102476053D01*
X112293750Y-102475000D01*
X112731250Y-102475000D01*
X112752691Y-102476053D01*
X112752691Y-102476053D01*
G37*
D12*
X112512500Y-102950000D03*
D10*
G36*
X114152691Y-97526053D02*
G01*
X114173926Y-97529203D01*
X114194750Y-97534419D01*
X114214962Y-97541651D01*
X114234368Y-97550830D01*
X114252781Y-97561866D01*
X114270024Y-97574654D01*
X114285930Y-97589070D01*
X114300346Y-97604976D01*
X114313134Y-97622219D01*
X114324170Y-97640632D01*
X114333349Y-97660038D01*
X114340581Y-97680250D01*
X114345797Y-97701074D01*
X114348947Y-97722309D01*
X114350000Y-97743750D01*
X114350000Y-98256250D01*
X114348947Y-98277691D01*
X114345797Y-98298926D01*
X114340581Y-98319750D01*
X114333349Y-98339962D01*
X114324170Y-98359368D01*
X114313134Y-98377781D01*
X114300346Y-98395024D01*
X114285930Y-98410930D01*
X114270024Y-98425346D01*
X114252781Y-98438134D01*
X114234368Y-98449170D01*
X114214962Y-98458349D01*
X114194750Y-98465581D01*
X114173926Y-98470797D01*
X114152691Y-98473947D01*
X114131250Y-98475000D01*
X113693750Y-98475000D01*
X113672309Y-98473947D01*
X113651074Y-98470797D01*
X113630250Y-98465581D01*
X113610038Y-98458349D01*
X113590632Y-98449170D01*
X113572219Y-98438134D01*
X113554976Y-98425346D01*
X113539070Y-98410930D01*
X113524654Y-98395024D01*
X113511866Y-98377781D01*
X113500830Y-98359368D01*
X113491651Y-98339962D01*
X113484419Y-98319750D01*
X113479203Y-98298926D01*
X113476053Y-98277691D01*
X113475000Y-98256250D01*
X113475000Y-97743750D01*
X113476053Y-97722309D01*
X113479203Y-97701074D01*
X113484419Y-97680250D01*
X113491651Y-97660038D01*
X113500830Y-97640632D01*
X113511866Y-97622219D01*
X113524654Y-97604976D01*
X113539070Y-97589070D01*
X113554976Y-97574654D01*
X113572219Y-97561866D01*
X113590632Y-97550830D01*
X113610038Y-97541651D01*
X113630250Y-97534419D01*
X113651074Y-97529203D01*
X113672309Y-97526053D01*
X113693750Y-97525000D01*
X114131250Y-97525000D01*
X114152691Y-97526053D01*
X114152691Y-97526053D01*
G37*
D12*
X113912500Y-98000000D03*
D10*
G36*
X112577691Y-97526053D02*
G01*
X112598926Y-97529203D01*
X112619750Y-97534419D01*
X112639962Y-97541651D01*
X112659368Y-97550830D01*
X112677781Y-97561866D01*
X112695024Y-97574654D01*
X112710930Y-97589070D01*
X112725346Y-97604976D01*
X112738134Y-97622219D01*
X112749170Y-97640632D01*
X112758349Y-97660038D01*
X112765581Y-97680250D01*
X112770797Y-97701074D01*
X112773947Y-97722309D01*
X112775000Y-97743750D01*
X112775000Y-98256250D01*
X112773947Y-98277691D01*
X112770797Y-98298926D01*
X112765581Y-98319750D01*
X112758349Y-98339962D01*
X112749170Y-98359368D01*
X112738134Y-98377781D01*
X112725346Y-98395024D01*
X112710930Y-98410930D01*
X112695024Y-98425346D01*
X112677781Y-98438134D01*
X112659368Y-98449170D01*
X112639962Y-98458349D01*
X112619750Y-98465581D01*
X112598926Y-98470797D01*
X112577691Y-98473947D01*
X112556250Y-98475000D01*
X112118750Y-98475000D01*
X112097309Y-98473947D01*
X112076074Y-98470797D01*
X112055250Y-98465581D01*
X112035038Y-98458349D01*
X112015632Y-98449170D01*
X111997219Y-98438134D01*
X111979976Y-98425346D01*
X111964070Y-98410930D01*
X111949654Y-98395024D01*
X111936866Y-98377781D01*
X111925830Y-98359368D01*
X111916651Y-98339962D01*
X111909419Y-98319750D01*
X111904203Y-98298926D01*
X111901053Y-98277691D01*
X111900000Y-98256250D01*
X111900000Y-97743750D01*
X111901053Y-97722309D01*
X111904203Y-97701074D01*
X111909419Y-97680250D01*
X111916651Y-97660038D01*
X111925830Y-97640632D01*
X111936866Y-97622219D01*
X111949654Y-97604976D01*
X111964070Y-97589070D01*
X111979976Y-97574654D01*
X111997219Y-97561866D01*
X112015632Y-97550830D01*
X112035038Y-97541651D01*
X112055250Y-97534419D01*
X112076074Y-97529203D01*
X112097309Y-97526053D01*
X112118750Y-97525000D01*
X112556250Y-97525000D01*
X112577691Y-97526053D01*
X112577691Y-97526053D01*
G37*
D12*
X112337500Y-98000000D03*
D10*
G36*
X110577691Y-97526053D02*
G01*
X110598926Y-97529203D01*
X110619750Y-97534419D01*
X110639962Y-97541651D01*
X110659368Y-97550830D01*
X110677781Y-97561866D01*
X110695024Y-97574654D01*
X110710930Y-97589070D01*
X110725346Y-97604976D01*
X110738134Y-97622219D01*
X110749170Y-97640632D01*
X110758349Y-97660038D01*
X110765581Y-97680250D01*
X110770797Y-97701074D01*
X110773947Y-97722309D01*
X110775000Y-97743750D01*
X110775000Y-98256250D01*
X110773947Y-98277691D01*
X110770797Y-98298926D01*
X110765581Y-98319750D01*
X110758349Y-98339962D01*
X110749170Y-98359368D01*
X110738134Y-98377781D01*
X110725346Y-98395024D01*
X110710930Y-98410930D01*
X110695024Y-98425346D01*
X110677781Y-98438134D01*
X110659368Y-98449170D01*
X110639962Y-98458349D01*
X110619750Y-98465581D01*
X110598926Y-98470797D01*
X110577691Y-98473947D01*
X110556250Y-98475000D01*
X110118750Y-98475000D01*
X110097309Y-98473947D01*
X110076074Y-98470797D01*
X110055250Y-98465581D01*
X110035038Y-98458349D01*
X110015632Y-98449170D01*
X109997219Y-98438134D01*
X109979976Y-98425346D01*
X109964070Y-98410930D01*
X109949654Y-98395024D01*
X109936866Y-98377781D01*
X109925830Y-98359368D01*
X109916651Y-98339962D01*
X109909419Y-98319750D01*
X109904203Y-98298926D01*
X109901053Y-98277691D01*
X109900000Y-98256250D01*
X109900000Y-97743750D01*
X109901053Y-97722309D01*
X109904203Y-97701074D01*
X109909419Y-97680250D01*
X109916651Y-97660038D01*
X109925830Y-97640632D01*
X109936866Y-97622219D01*
X109949654Y-97604976D01*
X109964070Y-97589070D01*
X109979976Y-97574654D01*
X109997219Y-97561866D01*
X110015632Y-97550830D01*
X110035038Y-97541651D01*
X110055250Y-97534419D01*
X110076074Y-97529203D01*
X110097309Y-97526053D01*
X110118750Y-97525000D01*
X110556250Y-97525000D01*
X110577691Y-97526053D01*
X110577691Y-97526053D01*
G37*
D12*
X110337500Y-98000000D03*
D10*
G36*
X109002691Y-97526053D02*
G01*
X109023926Y-97529203D01*
X109044750Y-97534419D01*
X109064962Y-97541651D01*
X109084368Y-97550830D01*
X109102781Y-97561866D01*
X109120024Y-97574654D01*
X109135930Y-97589070D01*
X109150346Y-97604976D01*
X109163134Y-97622219D01*
X109174170Y-97640632D01*
X109183349Y-97660038D01*
X109190581Y-97680250D01*
X109195797Y-97701074D01*
X109198947Y-97722309D01*
X109200000Y-97743750D01*
X109200000Y-98256250D01*
X109198947Y-98277691D01*
X109195797Y-98298926D01*
X109190581Y-98319750D01*
X109183349Y-98339962D01*
X109174170Y-98359368D01*
X109163134Y-98377781D01*
X109150346Y-98395024D01*
X109135930Y-98410930D01*
X109120024Y-98425346D01*
X109102781Y-98438134D01*
X109084368Y-98449170D01*
X109064962Y-98458349D01*
X109044750Y-98465581D01*
X109023926Y-98470797D01*
X109002691Y-98473947D01*
X108981250Y-98475000D01*
X108543750Y-98475000D01*
X108522309Y-98473947D01*
X108501074Y-98470797D01*
X108480250Y-98465581D01*
X108460038Y-98458349D01*
X108440632Y-98449170D01*
X108422219Y-98438134D01*
X108404976Y-98425346D01*
X108389070Y-98410930D01*
X108374654Y-98395024D01*
X108361866Y-98377781D01*
X108350830Y-98359368D01*
X108341651Y-98339962D01*
X108334419Y-98319750D01*
X108329203Y-98298926D01*
X108326053Y-98277691D01*
X108325000Y-98256250D01*
X108325000Y-97743750D01*
X108326053Y-97722309D01*
X108329203Y-97701074D01*
X108334419Y-97680250D01*
X108341651Y-97660038D01*
X108350830Y-97640632D01*
X108361866Y-97622219D01*
X108374654Y-97604976D01*
X108389070Y-97589070D01*
X108404976Y-97574654D01*
X108422219Y-97561866D01*
X108440632Y-97550830D01*
X108460038Y-97541651D01*
X108480250Y-97534419D01*
X108501074Y-97529203D01*
X108522309Y-97526053D01*
X108543750Y-97525000D01*
X108981250Y-97525000D01*
X109002691Y-97526053D01*
X109002691Y-97526053D01*
G37*
D12*
X108762500Y-98000000D03*
D10*
G36*
X110777691Y-102476053D02*
G01*
X110798926Y-102479203D01*
X110819750Y-102484419D01*
X110839962Y-102491651D01*
X110859368Y-102500830D01*
X110877781Y-102511866D01*
X110895024Y-102524654D01*
X110910930Y-102539070D01*
X110925346Y-102554976D01*
X110938134Y-102572219D01*
X110949170Y-102590632D01*
X110958349Y-102610038D01*
X110965581Y-102630250D01*
X110970797Y-102651074D01*
X110973947Y-102672309D01*
X110975000Y-102693750D01*
X110975000Y-103206250D01*
X110973947Y-103227691D01*
X110970797Y-103248926D01*
X110965581Y-103269750D01*
X110958349Y-103289962D01*
X110949170Y-103309368D01*
X110938134Y-103327781D01*
X110925346Y-103345024D01*
X110910930Y-103360930D01*
X110895024Y-103375346D01*
X110877781Y-103388134D01*
X110859368Y-103399170D01*
X110839962Y-103408349D01*
X110819750Y-103415581D01*
X110798926Y-103420797D01*
X110777691Y-103423947D01*
X110756250Y-103425000D01*
X110318750Y-103425000D01*
X110297309Y-103423947D01*
X110276074Y-103420797D01*
X110255250Y-103415581D01*
X110235038Y-103408349D01*
X110215632Y-103399170D01*
X110197219Y-103388134D01*
X110179976Y-103375346D01*
X110164070Y-103360930D01*
X110149654Y-103345024D01*
X110136866Y-103327781D01*
X110125830Y-103309368D01*
X110116651Y-103289962D01*
X110109419Y-103269750D01*
X110104203Y-103248926D01*
X110101053Y-103227691D01*
X110100000Y-103206250D01*
X110100000Y-102693750D01*
X110101053Y-102672309D01*
X110104203Y-102651074D01*
X110109419Y-102630250D01*
X110116651Y-102610038D01*
X110125830Y-102590632D01*
X110136866Y-102572219D01*
X110149654Y-102554976D01*
X110164070Y-102539070D01*
X110179976Y-102524654D01*
X110197219Y-102511866D01*
X110215632Y-102500830D01*
X110235038Y-102491651D01*
X110255250Y-102484419D01*
X110276074Y-102479203D01*
X110297309Y-102476053D01*
X110318750Y-102475000D01*
X110756250Y-102475000D01*
X110777691Y-102476053D01*
X110777691Y-102476053D01*
G37*
D12*
X110537500Y-102950000D03*
D10*
G36*
X109202691Y-102476053D02*
G01*
X109223926Y-102479203D01*
X109244750Y-102484419D01*
X109264962Y-102491651D01*
X109284368Y-102500830D01*
X109302781Y-102511866D01*
X109320024Y-102524654D01*
X109335930Y-102539070D01*
X109350346Y-102554976D01*
X109363134Y-102572219D01*
X109374170Y-102590632D01*
X109383349Y-102610038D01*
X109390581Y-102630250D01*
X109395797Y-102651074D01*
X109398947Y-102672309D01*
X109400000Y-102693750D01*
X109400000Y-103206250D01*
X109398947Y-103227691D01*
X109395797Y-103248926D01*
X109390581Y-103269750D01*
X109383349Y-103289962D01*
X109374170Y-103309368D01*
X109363134Y-103327781D01*
X109350346Y-103345024D01*
X109335930Y-103360930D01*
X109320024Y-103375346D01*
X109302781Y-103388134D01*
X109284368Y-103399170D01*
X109264962Y-103408349D01*
X109244750Y-103415581D01*
X109223926Y-103420797D01*
X109202691Y-103423947D01*
X109181250Y-103425000D01*
X108743750Y-103425000D01*
X108722309Y-103423947D01*
X108701074Y-103420797D01*
X108680250Y-103415581D01*
X108660038Y-103408349D01*
X108640632Y-103399170D01*
X108622219Y-103388134D01*
X108604976Y-103375346D01*
X108589070Y-103360930D01*
X108574654Y-103345024D01*
X108561866Y-103327781D01*
X108550830Y-103309368D01*
X108541651Y-103289962D01*
X108534419Y-103269750D01*
X108529203Y-103248926D01*
X108526053Y-103227691D01*
X108525000Y-103206250D01*
X108525000Y-102693750D01*
X108526053Y-102672309D01*
X108529203Y-102651074D01*
X108534419Y-102630250D01*
X108541651Y-102610038D01*
X108550830Y-102590632D01*
X108561866Y-102572219D01*
X108574654Y-102554976D01*
X108589070Y-102539070D01*
X108604976Y-102524654D01*
X108622219Y-102511866D01*
X108640632Y-102500830D01*
X108660038Y-102491651D01*
X108680250Y-102484419D01*
X108701074Y-102479203D01*
X108722309Y-102476053D01*
X108743750Y-102475000D01*
X109181250Y-102475000D01*
X109202691Y-102476053D01*
X109202691Y-102476053D01*
G37*
D12*
X108962500Y-102950000D03*
D10*
G36*
X125427691Y-106201053D02*
G01*
X125448926Y-106204203D01*
X125469750Y-106209419D01*
X125489962Y-106216651D01*
X125509368Y-106225830D01*
X125527781Y-106236866D01*
X125545024Y-106249654D01*
X125560930Y-106264070D01*
X125575346Y-106279976D01*
X125588134Y-106297219D01*
X125599170Y-106315632D01*
X125608349Y-106335038D01*
X125615581Y-106355250D01*
X125620797Y-106376074D01*
X125623947Y-106397309D01*
X125625000Y-106418750D01*
X125625000Y-106931250D01*
X125623947Y-106952691D01*
X125620797Y-106973926D01*
X125615581Y-106994750D01*
X125608349Y-107014962D01*
X125599170Y-107034368D01*
X125588134Y-107052781D01*
X125575346Y-107070024D01*
X125560930Y-107085930D01*
X125545024Y-107100346D01*
X125527781Y-107113134D01*
X125509368Y-107124170D01*
X125489962Y-107133349D01*
X125469750Y-107140581D01*
X125448926Y-107145797D01*
X125427691Y-107148947D01*
X125406250Y-107150000D01*
X124968750Y-107150000D01*
X124947309Y-107148947D01*
X124926074Y-107145797D01*
X124905250Y-107140581D01*
X124885038Y-107133349D01*
X124865632Y-107124170D01*
X124847219Y-107113134D01*
X124829976Y-107100346D01*
X124814070Y-107085930D01*
X124799654Y-107070024D01*
X124786866Y-107052781D01*
X124775830Y-107034368D01*
X124766651Y-107014962D01*
X124759419Y-106994750D01*
X124754203Y-106973926D01*
X124751053Y-106952691D01*
X124750000Y-106931250D01*
X124750000Y-106418750D01*
X124751053Y-106397309D01*
X124754203Y-106376074D01*
X124759419Y-106355250D01*
X124766651Y-106335038D01*
X124775830Y-106315632D01*
X124786866Y-106297219D01*
X124799654Y-106279976D01*
X124814070Y-106264070D01*
X124829976Y-106249654D01*
X124847219Y-106236866D01*
X124865632Y-106225830D01*
X124885038Y-106216651D01*
X124905250Y-106209419D01*
X124926074Y-106204203D01*
X124947309Y-106201053D01*
X124968750Y-106200000D01*
X125406250Y-106200000D01*
X125427691Y-106201053D01*
X125427691Y-106201053D01*
G37*
D12*
X125187500Y-106675000D03*
D10*
G36*
X127002691Y-106201053D02*
G01*
X127023926Y-106204203D01*
X127044750Y-106209419D01*
X127064962Y-106216651D01*
X127084368Y-106225830D01*
X127102781Y-106236866D01*
X127120024Y-106249654D01*
X127135930Y-106264070D01*
X127150346Y-106279976D01*
X127163134Y-106297219D01*
X127174170Y-106315632D01*
X127183349Y-106335038D01*
X127190581Y-106355250D01*
X127195797Y-106376074D01*
X127198947Y-106397309D01*
X127200000Y-106418750D01*
X127200000Y-106931250D01*
X127198947Y-106952691D01*
X127195797Y-106973926D01*
X127190581Y-106994750D01*
X127183349Y-107014962D01*
X127174170Y-107034368D01*
X127163134Y-107052781D01*
X127150346Y-107070024D01*
X127135930Y-107085930D01*
X127120024Y-107100346D01*
X127102781Y-107113134D01*
X127084368Y-107124170D01*
X127064962Y-107133349D01*
X127044750Y-107140581D01*
X127023926Y-107145797D01*
X127002691Y-107148947D01*
X126981250Y-107150000D01*
X126543750Y-107150000D01*
X126522309Y-107148947D01*
X126501074Y-107145797D01*
X126480250Y-107140581D01*
X126460038Y-107133349D01*
X126440632Y-107124170D01*
X126422219Y-107113134D01*
X126404976Y-107100346D01*
X126389070Y-107085930D01*
X126374654Y-107070024D01*
X126361866Y-107052781D01*
X126350830Y-107034368D01*
X126341651Y-107014962D01*
X126334419Y-106994750D01*
X126329203Y-106973926D01*
X126326053Y-106952691D01*
X126325000Y-106931250D01*
X126325000Y-106418750D01*
X126326053Y-106397309D01*
X126329203Y-106376074D01*
X126334419Y-106355250D01*
X126341651Y-106335038D01*
X126350830Y-106315632D01*
X126361866Y-106297219D01*
X126374654Y-106279976D01*
X126389070Y-106264070D01*
X126404976Y-106249654D01*
X126422219Y-106236866D01*
X126440632Y-106225830D01*
X126460038Y-106216651D01*
X126480250Y-106209419D01*
X126501074Y-106204203D01*
X126522309Y-106201053D01*
X126543750Y-106200000D01*
X126981250Y-106200000D01*
X127002691Y-106201053D01*
X127002691Y-106201053D01*
G37*
D12*
X126762500Y-106675000D03*
D10*
G36*
X106102691Y-96776053D02*
G01*
X106123926Y-96779203D01*
X106144750Y-96784419D01*
X106164962Y-96791651D01*
X106184368Y-96800830D01*
X106202781Y-96811866D01*
X106220024Y-96824654D01*
X106235930Y-96839070D01*
X106250346Y-96854976D01*
X106263134Y-96872219D01*
X106274170Y-96890632D01*
X106283349Y-96910038D01*
X106290581Y-96930250D01*
X106295797Y-96951074D01*
X106298947Y-96972309D01*
X106300000Y-96993750D01*
X106300000Y-97431250D01*
X106298947Y-97452691D01*
X106295797Y-97473926D01*
X106290581Y-97494750D01*
X106283349Y-97514962D01*
X106274170Y-97534368D01*
X106263134Y-97552781D01*
X106250346Y-97570024D01*
X106235930Y-97585930D01*
X106220024Y-97600346D01*
X106202781Y-97613134D01*
X106184368Y-97624170D01*
X106164962Y-97633349D01*
X106144750Y-97640581D01*
X106123926Y-97645797D01*
X106102691Y-97648947D01*
X106081250Y-97650000D01*
X105568750Y-97650000D01*
X105547309Y-97648947D01*
X105526074Y-97645797D01*
X105505250Y-97640581D01*
X105485038Y-97633349D01*
X105465632Y-97624170D01*
X105447219Y-97613134D01*
X105429976Y-97600346D01*
X105414070Y-97585930D01*
X105399654Y-97570024D01*
X105386866Y-97552781D01*
X105375830Y-97534368D01*
X105366651Y-97514962D01*
X105359419Y-97494750D01*
X105354203Y-97473926D01*
X105351053Y-97452691D01*
X105350000Y-97431250D01*
X105350000Y-96993750D01*
X105351053Y-96972309D01*
X105354203Y-96951074D01*
X105359419Y-96930250D01*
X105366651Y-96910038D01*
X105375830Y-96890632D01*
X105386866Y-96872219D01*
X105399654Y-96854976D01*
X105414070Y-96839070D01*
X105429976Y-96824654D01*
X105447219Y-96811866D01*
X105465632Y-96800830D01*
X105485038Y-96791651D01*
X105505250Y-96784419D01*
X105526074Y-96779203D01*
X105547309Y-96776053D01*
X105568750Y-96775000D01*
X106081250Y-96775000D01*
X106102691Y-96776053D01*
X106102691Y-96776053D01*
G37*
D12*
X105825000Y-97212500D03*
D10*
G36*
X106102691Y-98351053D02*
G01*
X106123926Y-98354203D01*
X106144750Y-98359419D01*
X106164962Y-98366651D01*
X106184368Y-98375830D01*
X106202781Y-98386866D01*
X106220024Y-98399654D01*
X106235930Y-98414070D01*
X106250346Y-98429976D01*
X106263134Y-98447219D01*
X106274170Y-98465632D01*
X106283349Y-98485038D01*
X106290581Y-98505250D01*
X106295797Y-98526074D01*
X106298947Y-98547309D01*
X106300000Y-98568750D01*
X106300000Y-99006250D01*
X106298947Y-99027691D01*
X106295797Y-99048926D01*
X106290581Y-99069750D01*
X106283349Y-99089962D01*
X106274170Y-99109368D01*
X106263134Y-99127781D01*
X106250346Y-99145024D01*
X106235930Y-99160930D01*
X106220024Y-99175346D01*
X106202781Y-99188134D01*
X106184368Y-99199170D01*
X106164962Y-99208349D01*
X106144750Y-99215581D01*
X106123926Y-99220797D01*
X106102691Y-99223947D01*
X106081250Y-99225000D01*
X105568750Y-99225000D01*
X105547309Y-99223947D01*
X105526074Y-99220797D01*
X105505250Y-99215581D01*
X105485038Y-99208349D01*
X105465632Y-99199170D01*
X105447219Y-99188134D01*
X105429976Y-99175346D01*
X105414070Y-99160930D01*
X105399654Y-99145024D01*
X105386866Y-99127781D01*
X105375830Y-99109368D01*
X105366651Y-99089962D01*
X105359419Y-99069750D01*
X105354203Y-99048926D01*
X105351053Y-99027691D01*
X105350000Y-99006250D01*
X105350000Y-98568750D01*
X105351053Y-98547309D01*
X105354203Y-98526074D01*
X105359419Y-98505250D01*
X105366651Y-98485038D01*
X105375830Y-98465632D01*
X105386866Y-98447219D01*
X105399654Y-98429976D01*
X105414070Y-98414070D01*
X105429976Y-98399654D01*
X105447219Y-98386866D01*
X105465632Y-98375830D01*
X105485038Y-98366651D01*
X105505250Y-98359419D01*
X105526074Y-98354203D01*
X105547309Y-98351053D01*
X105568750Y-98350000D01*
X106081250Y-98350000D01*
X106102691Y-98351053D01*
X106102691Y-98351053D01*
G37*
D12*
X105825000Y-98787500D03*
D10*
G36*
X104602691Y-96776053D02*
G01*
X104623926Y-96779203D01*
X104644750Y-96784419D01*
X104664962Y-96791651D01*
X104684368Y-96800830D01*
X104702781Y-96811866D01*
X104720024Y-96824654D01*
X104735930Y-96839070D01*
X104750346Y-96854976D01*
X104763134Y-96872219D01*
X104774170Y-96890632D01*
X104783349Y-96910038D01*
X104790581Y-96930250D01*
X104795797Y-96951074D01*
X104798947Y-96972309D01*
X104800000Y-96993750D01*
X104800000Y-97431250D01*
X104798947Y-97452691D01*
X104795797Y-97473926D01*
X104790581Y-97494750D01*
X104783349Y-97514962D01*
X104774170Y-97534368D01*
X104763134Y-97552781D01*
X104750346Y-97570024D01*
X104735930Y-97585930D01*
X104720024Y-97600346D01*
X104702781Y-97613134D01*
X104684368Y-97624170D01*
X104664962Y-97633349D01*
X104644750Y-97640581D01*
X104623926Y-97645797D01*
X104602691Y-97648947D01*
X104581250Y-97650000D01*
X104068750Y-97650000D01*
X104047309Y-97648947D01*
X104026074Y-97645797D01*
X104005250Y-97640581D01*
X103985038Y-97633349D01*
X103965632Y-97624170D01*
X103947219Y-97613134D01*
X103929976Y-97600346D01*
X103914070Y-97585930D01*
X103899654Y-97570024D01*
X103886866Y-97552781D01*
X103875830Y-97534368D01*
X103866651Y-97514962D01*
X103859419Y-97494750D01*
X103854203Y-97473926D01*
X103851053Y-97452691D01*
X103850000Y-97431250D01*
X103850000Y-96993750D01*
X103851053Y-96972309D01*
X103854203Y-96951074D01*
X103859419Y-96930250D01*
X103866651Y-96910038D01*
X103875830Y-96890632D01*
X103886866Y-96872219D01*
X103899654Y-96854976D01*
X103914070Y-96839070D01*
X103929976Y-96824654D01*
X103947219Y-96811866D01*
X103965632Y-96800830D01*
X103985038Y-96791651D01*
X104005250Y-96784419D01*
X104026074Y-96779203D01*
X104047309Y-96776053D01*
X104068750Y-96775000D01*
X104581250Y-96775000D01*
X104602691Y-96776053D01*
X104602691Y-96776053D01*
G37*
D12*
X104325000Y-97212500D03*
D10*
G36*
X104602691Y-98351053D02*
G01*
X104623926Y-98354203D01*
X104644750Y-98359419D01*
X104664962Y-98366651D01*
X104684368Y-98375830D01*
X104702781Y-98386866D01*
X104720024Y-98399654D01*
X104735930Y-98414070D01*
X104750346Y-98429976D01*
X104763134Y-98447219D01*
X104774170Y-98465632D01*
X104783349Y-98485038D01*
X104790581Y-98505250D01*
X104795797Y-98526074D01*
X104798947Y-98547309D01*
X104800000Y-98568750D01*
X104800000Y-99006250D01*
X104798947Y-99027691D01*
X104795797Y-99048926D01*
X104790581Y-99069750D01*
X104783349Y-99089962D01*
X104774170Y-99109368D01*
X104763134Y-99127781D01*
X104750346Y-99145024D01*
X104735930Y-99160930D01*
X104720024Y-99175346D01*
X104702781Y-99188134D01*
X104684368Y-99199170D01*
X104664962Y-99208349D01*
X104644750Y-99215581D01*
X104623926Y-99220797D01*
X104602691Y-99223947D01*
X104581250Y-99225000D01*
X104068750Y-99225000D01*
X104047309Y-99223947D01*
X104026074Y-99220797D01*
X104005250Y-99215581D01*
X103985038Y-99208349D01*
X103965632Y-99199170D01*
X103947219Y-99188134D01*
X103929976Y-99175346D01*
X103914070Y-99160930D01*
X103899654Y-99145024D01*
X103886866Y-99127781D01*
X103875830Y-99109368D01*
X103866651Y-99089962D01*
X103859419Y-99069750D01*
X103854203Y-99048926D01*
X103851053Y-99027691D01*
X103850000Y-99006250D01*
X103850000Y-98568750D01*
X103851053Y-98547309D01*
X103854203Y-98526074D01*
X103859419Y-98505250D01*
X103866651Y-98485038D01*
X103875830Y-98465632D01*
X103886866Y-98447219D01*
X103899654Y-98429976D01*
X103914070Y-98414070D01*
X103929976Y-98399654D01*
X103947219Y-98386866D01*
X103965632Y-98375830D01*
X103985038Y-98366651D01*
X104005250Y-98359419D01*
X104026074Y-98354203D01*
X104047309Y-98351053D01*
X104068750Y-98350000D01*
X104581250Y-98350000D01*
X104602691Y-98351053D01*
X104602691Y-98351053D01*
G37*
D12*
X104325000Y-98787500D03*
D10*
G36*
X92627691Y-94126053D02*
G01*
X92648926Y-94129203D01*
X92669750Y-94134419D01*
X92689962Y-94141651D01*
X92709368Y-94150830D01*
X92727781Y-94161866D01*
X92745024Y-94174654D01*
X92760930Y-94189070D01*
X92775346Y-94204976D01*
X92788134Y-94222219D01*
X92799170Y-94240632D01*
X92808349Y-94260038D01*
X92815581Y-94280250D01*
X92820797Y-94301074D01*
X92823947Y-94322309D01*
X92825000Y-94343750D01*
X92825000Y-94781250D01*
X92823947Y-94802691D01*
X92820797Y-94823926D01*
X92815581Y-94844750D01*
X92808349Y-94864962D01*
X92799170Y-94884368D01*
X92788134Y-94902781D01*
X92775346Y-94920024D01*
X92760930Y-94935930D01*
X92745024Y-94950346D01*
X92727781Y-94963134D01*
X92709368Y-94974170D01*
X92689962Y-94983349D01*
X92669750Y-94990581D01*
X92648926Y-94995797D01*
X92627691Y-94998947D01*
X92606250Y-95000000D01*
X92093750Y-95000000D01*
X92072309Y-94998947D01*
X92051074Y-94995797D01*
X92030250Y-94990581D01*
X92010038Y-94983349D01*
X91990632Y-94974170D01*
X91972219Y-94963134D01*
X91954976Y-94950346D01*
X91939070Y-94935930D01*
X91924654Y-94920024D01*
X91911866Y-94902781D01*
X91900830Y-94884368D01*
X91891651Y-94864962D01*
X91884419Y-94844750D01*
X91879203Y-94823926D01*
X91876053Y-94802691D01*
X91875000Y-94781250D01*
X91875000Y-94343750D01*
X91876053Y-94322309D01*
X91879203Y-94301074D01*
X91884419Y-94280250D01*
X91891651Y-94260038D01*
X91900830Y-94240632D01*
X91911866Y-94222219D01*
X91924654Y-94204976D01*
X91939070Y-94189070D01*
X91954976Y-94174654D01*
X91972219Y-94161866D01*
X91990632Y-94150830D01*
X92010038Y-94141651D01*
X92030250Y-94134419D01*
X92051074Y-94129203D01*
X92072309Y-94126053D01*
X92093750Y-94125000D01*
X92606250Y-94125000D01*
X92627691Y-94126053D01*
X92627691Y-94126053D01*
G37*
D12*
X92350000Y-94562500D03*
D10*
G36*
X92627691Y-92551053D02*
G01*
X92648926Y-92554203D01*
X92669750Y-92559419D01*
X92689962Y-92566651D01*
X92709368Y-92575830D01*
X92727781Y-92586866D01*
X92745024Y-92599654D01*
X92760930Y-92614070D01*
X92775346Y-92629976D01*
X92788134Y-92647219D01*
X92799170Y-92665632D01*
X92808349Y-92685038D01*
X92815581Y-92705250D01*
X92820797Y-92726074D01*
X92823947Y-92747309D01*
X92825000Y-92768750D01*
X92825000Y-93206250D01*
X92823947Y-93227691D01*
X92820797Y-93248926D01*
X92815581Y-93269750D01*
X92808349Y-93289962D01*
X92799170Y-93309368D01*
X92788134Y-93327781D01*
X92775346Y-93345024D01*
X92760930Y-93360930D01*
X92745024Y-93375346D01*
X92727781Y-93388134D01*
X92709368Y-93399170D01*
X92689962Y-93408349D01*
X92669750Y-93415581D01*
X92648926Y-93420797D01*
X92627691Y-93423947D01*
X92606250Y-93425000D01*
X92093750Y-93425000D01*
X92072309Y-93423947D01*
X92051074Y-93420797D01*
X92030250Y-93415581D01*
X92010038Y-93408349D01*
X91990632Y-93399170D01*
X91972219Y-93388134D01*
X91954976Y-93375346D01*
X91939070Y-93360930D01*
X91924654Y-93345024D01*
X91911866Y-93327781D01*
X91900830Y-93309368D01*
X91891651Y-93289962D01*
X91884419Y-93269750D01*
X91879203Y-93248926D01*
X91876053Y-93227691D01*
X91875000Y-93206250D01*
X91875000Y-92768750D01*
X91876053Y-92747309D01*
X91879203Y-92726074D01*
X91884419Y-92705250D01*
X91891651Y-92685038D01*
X91900830Y-92665632D01*
X91911866Y-92647219D01*
X91924654Y-92629976D01*
X91939070Y-92614070D01*
X91954976Y-92599654D01*
X91972219Y-92586866D01*
X91990632Y-92575830D01*
X92010038Y-92566651D01*
X92030250Y-92559419D01*
X92051074Y-92554203D01*
X92072309Y-92551053D01*
X92093750Y-92550000D01*
X92606250Y-92550000D01*
X92627691Y-92551053D01*
X92627691Y-92551053D01*
G37*
D12*
X92350000Y-92987500D03*
D10*
G36*
X104627691Y-101476053D02*
G01*
X104648926Y-101479203D01*
X104669750Y-101484419D01*
X104689962Y-101491651D01*
X104709368Y-101500830D01*
X104727781Y-101511866D01*
X104745024Y-101524654D01*
X104760930Y-101539070D01*
X104775346Y-101554976D01*
X104788134Y-101572219D01*
X104799170Y-101590632D01*
X104808349Y-101610038D01*
X104815581Y-101630250D01*
X104820797Y-101651074D01*
X104823947Y-101672309D01*
X104825000Y-101693750D01*
X104825000Y-102206250D01*
X104823947Y-102227691D01*
X104820797Y-102248926D01*
X104815581Y-102269750D01*
X104808349Y-102289962D01*
X104799170Y-102309368D01*
X104788134Y-102327781D01*
X104775346Y-102345024D01*
X104760930Y-102360930D01*
X104745024Y-102375346D01*
X104727781Y-102388134D01*
X104709368Y-102399170D01*
X104689962Y-102408349D01*
X104669750Y-102415581D01*
X104648926Y-102420797D01*
X104627691Y-102423947D01*
X104606250Y-102425000D01*
X104168750Y-102425000D01*
X104147309Y-102423947D01*
X104126074Y-102420797D01*
X104105250Y-102415581D01*
X104085038Y-102408349D01*
X104065632Y-102399170D01*
X104047219Y-102388134D01*
X104029976Y-102375346D01*
X104014070Y-102360930D01*
X103999654Y-102345024D01*
X103986866Y-102327781D01*
X103975830Y-102309368D01*
X103966651Y-102289962D01*
X103959419Y-102269750D01*
X103954203Y-102248926D01*
X103951053Y-102227691D01*
X103950000Y-102206250D01*
X103950000Y-101693750D01*
X103951053Y-101672309D01*
X103954203Y-101651074D01*
X103959419Y-101630250D01*
X103966651Y-101610038D01*
X103975830Y-101590632D01*
X103986866Y-101572219D01*
X103999654Y-101554976D01*
X104014070Y-101539070D01*
X104029976Y-101524654D01*
X104047219Y-101511866D01*
X104065632Y-101500830D01*
X104085038Y-101491651D01*
X104105250Y-101484419D01*
X104126074Y-101479203D01*
X104147309Y-101476053D01*
X104168750Y-101475000D01*
X104606250Y-101475000D01*
X104627691Y-101476053D01*
X104627691Y-101476053D01*
G37*
D12*
X104387500Y-101950000D03*
D10*
G36*
X103052691Y-101476053D02*
G01*
X103073926Y-101479203D01*
X103094750Y-101484419D01*
X103114962Y-101491651D01*
X103134368Y-101500830D01*
X103152781Y-101511866D01*
X103170024Y-101524654D01*
X103185930Y-101539070D01*
X103200346Y-101554976D01*
X103213134Y-101572219D01*
X103224170Y-101590632D01*
X103233349Y-101610038D01*
X103240581Y-101630250D01*
X103245797Y-101651074D01*
X103248947Y-101672309D01*
X103250000Y-101693750D01*
X103250000Y-102206250D01*
X103248947Y-102227691D01*
X103245797Y-102248926D01*
X103240581Y-102269750D01*
X103233349Y-102289962D01*
X103224170Y-102309368D01*
X103213134Y-102327781D01*
X103200346Y-102345024D01*
X103185930Y-102360930D01*
X103170024Y-102375346D01*
X103152781Y-102388134D01*
X103134368Y-102399170D01*
X103114962Y-102408349D01*
X103094750Y-102415581D01*
X103073926Y-102420797D01*
X103052691Y-102423947D01*
X103031250Y-102425000D01*
X102593750Y-102425000D01*
X102572309Y-102423947D01*
X102551074Y-102420797D01*
X102530250Y-102415581D01*
X102510038Y-102408349D01*
X102490632Y-102399170D01*
X102472219Y-102388134D01*
X102454976Y-102375346D01*
X102439070Y-102360930D01*
X102424654Y-102345024D01*
X102411866Y-102327781D01*
X102400830Y-102309368D01*
X102391651Y-102289962D01*
X102384419Y-102269750D01*
X102379203Y-102248926D01*
X102376053Y-102227691D01*
X102375000Y-102206250D01*
X102375000Y-101693750D01*
X102376053Y-101672309D01*
X102379203Y-101651074D01*
X102384419Y-101630250D01*
X102391651Y-101610038D01*
X102400830Y-101590632D01*
X102411866Y-101572219D01*
X102424654Y-101554976D01*
X102439070Y-101539070D01*
X102454976Y-101524654D01*
X102472219Y-101511866D01*
X102490632Y-101500830D01*
X102510038Y-101491651D01*
X102530250Y-101484419D01*
X102551074Y-101479203D01*
X102572309Y-101476053D01*
X102593750Y-101475000D01*
X103031250Y-101475000D01*
X103052691Y-101476053D01*
X103052691Y-101476053D01*
G37*
D12*
X102812500Y-101950000D03*
D10*
G36*
X103052691Y-99876053D02*
G01*
X103073926Y-99879203D01*
X103094750Y-99884419D01*
X103114962Y-99891651D01*
X103134368Y-99900830D01*
X103152781Y-99911866D01*
X103170024Y-99924654D01*
X103185930Y-99939070D01*
X103200346Y-99954976D01*
X103213134Y-99972219D01*
X103224170Y-99990632D01*
X103233349Y-100010038D01*
X103240581Y-100030250D01*
X103245797Y-100051074D01*
X103248947Y-100072309D01*
X103250000Y-100093750D01*
X103250000Y-100606250D01*
X103248947Y-100627691D01*
X103245797Y-100648926D01*
X103240581Y-100669750D01*
X103233349Y-100689962D01*
X103224170Y-100709368D01*
X103213134Y-100727781D01*
X103200346Y-100745024D01*
X103185930Y-100760930D01*
X103170024Y-100775346D01*
X103152781Y-100788134D01*
X103134368Y-100799170D01*
X103114962Y-100808349D01*
X103094750Y-100815581D01*
X103073926Y-100820797D01*
X103052691Y-100823947D01*
X103031250Y-100825000D01*
X102593750Y-100825000D01*
X102572309Y-100823947D01*
X102551074Y-100820797D01*
X102530250Y-100815581D01*
X102510038Y-100808349D01*
X102490632Y-100799170D01*
X102472219Y-100788134D01*
X102454976Y-100775346D01*
X102439070Y-100760930D01*
X102424654Y-100745024D01*
X102411866Y-100727781D01*
X102400830Y-100709368D01*
X102391651Y-100689962D01*
X102384419Y-100669750D01*
X102379203Y-100648926D01*
X102376053Y-100627691D01*
X102375000Y-100606250D01*
X102375000Y-100093750D01*
X102376053Y-100072309D01*
X102379203Y-100051074D01*
X102384419Y-100030250D01*
X102391651Y-100010038D01*
X102400830Y-99990632D01*
X102411866Y-99972219D01*
X102424654Y-99954976D01*
X102439070Y-99939070D01*
X102454976Y-99924654D01*
X102472219Y-99911866D01*
X102490632Y-99900830D01*
X102510038Y-99891651D01*
X102530250Y-99884419D01*
X102551074Y-99879203D01*
X102572309Y-99876053D01*
X102593750Y-99875000D01*
X103031250Y-99875000D01*
X103052691Y-99876053D01*
X103052691Y-99876053D01*
G37*
D12*
X102812500Y-100350000D03*
D10*
G36*
X104627691Y-99876053D02*
G01*
X104648926Y-99879203D01*
X104669750Y-99884419D01*
X104689962Y-99891651D01*
X104709368Y-99900830D01*
X104727781Y-99911866D01*
X104745024Y-99924654D01*
X104760930Y-99939070D01*
X104775346Y-99954976D01*
X104788134Y-99972219D01*
X104799170Y-99990632D01*
X104808349Y-100010038D01*
X104815581Y-100030250D01*
X104820797Y-100051074D01*
X104823947Y-100072309D01*
X104825000Y-100093750D01*
X104825000Y-100606250D01*
X104823947Y-100627691D01*
X104820797Y-100648926D01*
X104815581Y-100669750D01*
X104808349Y-100689962D01*
X104799170Y-100709368D01*
X104788134Y-100727781D01*
X104775346Y-100745024D01*
X104760930Y-100760930D01*
X104745024Y-100775346D01*
X104727781Y-100788134D01*
X104709368Y-100799170D01*
X104689962Y-100808349D01*
X104669750Y-100815581D01*
X104648926Y-100820797D01*
X104627691Y-100823947D01*
X104606250Y-100825000D01*
X104168750Y-100825000D01*
X104147309Y-100823947D01*
X104126074Y-100820797D01*
X104105250Y-100815581D01*
X104085038Y-100808349D01*
X104065632Y-100799170D01*
X104047219Y-100788134D01*
X104029976Y-100775346D01*
X104014070Y-100760930D01*
X103999654Y-100745024D01*
X103986866Y-100727781D01*
X103975830Y-100709368D01*
X103966651Y-100689962D01*
X103959419Y-100669750D01*
X103954203Y-100648926D01*
X103951053Y-100627691D01*
X103950000Y-100606250D01*
X103950000Y-100093750D01*
X103951053Y-100072309D01*
X103954203Y-100051074D01*
X103959419Y-100030250D01*
X103966651Y-100010038D01*
X103975830Y-99990632D01*
X103986866Y-99972219D01*
X103999654Y-99954976D01*
X104014070Y-99939070D01*
X104029976Y-99924654D01*
X104047219Y-99911866D01*
X104065632Y-99900830D01*
X104085038Y-99891651D01*
X104105250Y-99884419D01*
X104126074Y-99879203D01*
X104147309Y-99876053D01*
X104168750Y-99875000D01*
X104606250Y-99875000D01*
X104627691Y-99876053D01*
X104627691Y-99876053D01*
G37*
D12*
X104387500Y-100350000D03*
D10*
G36*
X63027691Y-92936053D02*
G01*
X63048926Y-92939203D01*
X63069750Y-92944419D01*
X63089962Y-92951651D01*
X63109368Y-92960830D01*
X63127781Y-92971866D01*
X63145024Y-92984654D01*
X63160930Y-92999070D01*
X63175346Y-93014976D01*
X63188134Y-93032219D01*
X63199170Y-93050632D01*
X63208349Y-93070038D01*
X63215581Y-93090250D01*
X63220797Y-93111074D01*
X63223947Y-93132309D01*
X63225000Y-93153750D01*
X63225000Y-93666250D01*
X63223947Y-93687691D01*
X63220797Y-93708926D01*
X63215581Y-93729750D01*
X63208349Y-93749962D01*
X63199170Y-93769368D01*
X63188134Y-93787781D01*
X63175346Y-93805024D01*
X63160930Y-93820930D01*
X63145024Y-93835346D01*
X63127781Y-93848134D01*
X63109368Y-93859170D01*
X63089962Y-93868349D01*
X63069750Y-93875581D01*
X63048926Y-93880797D01*
X63027691Y-93883947D01*
X63006250Y-93885000D01*
X62568750Y-93885000D01*
X62547309Y-93883947D01*
X62526074Y-93880797D01*
X62505250Y-93875581D01*
X62485038Y-93868349D01*
X62465632Y-93859170D01*
X62447219Y-93848134D01*
X62429976Y-93835346D01*
X62414070Y-93820930D01*
X62399654Y-93805024D01*
X62386866Y-93787781D01*
X62375830Y-93769368D01*
X62366651Y-93749962D01*
X62359419Y-93729750D01*
X62354203Y-93708926D01*
X62351053Y-93687691D01*
X62350000Y-93666250D01*
X62350000Y-93153750D01*
X62351053Y-93132309D01*
X62354203Y-93111074D01*
X62359419Y-93090250D01*
X62366651Y-93070038D01*
X62375830Y-93050632D01*
X62386866Y-93032219D01*
X62399654Y-93014976D01*
X62414070Y-92999070D01*
X62429976Y-92984654D01*
X62447219Y-92971866D01*
X62465632Y-92960830D01*
X62485038Y-92951651D01*
X62505250Y-92944419D01*
X62526074Y-92939203D01*
X62547309Y-92936053D01*
X62568750Y-92935000D01*
X63006250Y-92935000D01*
X63027691Y-92936053D01*
X63027691Y-92936053D01*
G37*
D12*
X62787500Y-93410000D03*
D10*
G36*
X61452691Y-92936053D02*
G01*
X61473926Y-92939203D01*
X61494750Y-92944419D01*
X61514962Y-92951651D01*
X61534368Y-92960830D01*
X61552781Y-92971866D01*
X61570024Y-92984654D01*
X61585930Y-92999070D01*
X61600346Y-93014976D01*
X61613134Y-93032219D01*
X61624170Y-93050632D01*
X61633349Y-93070038D01*
X61640581Y-93090250D01*
X61645797Y-93111074D01*
X61648947Y-93132309D01*
X61650000Y-93153750D01*
X61650000Y-93666250D01*
X61648947Y-93687691D01*
X61645797Y-93708926D01*
X61640581Y-93729750D01*
X61633349Y-93749962D01*
X61624170Y-93769368D01*
X61613134Y-93787781D01*
X61600346Y-93805024D01*
X61585930Y-93820930D01*
X61570024Y-93835346D01*
X61552781Y-93848134D01*
X61534368Y-93859170D01*
X61514962Y-93868349D01*
X61494750Y-93875581D01*
X61473926Y-93880797D01*
X61452691Y-93883947D01*
X61431250Y-93885000D01*
X60993750Y-93885000D01*
X60972309Y-93883947D01*
X60951074Y-93880797D01*
X60930250Y-93875581D01*
X60910038Y-93868349D01*
X60890632Y-93859170D01*
X60872219Y-93848134D01*
X60854976Y-93835346D01*
X60839070Y-93820930D01*
X60824654Y-93805024D01*
X60811866Y-93787781D01*
X60800830Y-93769368D01*
X60791651Y-93749962D01*
X60784419Y-93729750D01*
X60779203Y-93708926D01*
X60776053Y-93687691D01*
X60775000Y-93666250D01*
X60775000Y-93153750D01*
X60776053Y-93132309D01*
X60779203Y-93111074D01*
X60784419Y-93090250D01*
X60791651Y-93070038D01*
X60800830Y-93050632D01*
X60811866Y-93032219D01*
X60824654Y-93014976D01*
X60839070Y-92999070D01*
X60854976Y-92984654D01*
X60872219Y-92971866D01*
X60890632Y-92960830D01*
X60910038Y-92951651D01*
X60930250Y-92944419D01*
X60951074Y-92939203D01*
X60972309Y-92936053D01*
X60993750Y-92935000D01*
X61431250Y-92935000D01*
X61452691Y-92936053D01*
X61452691Y-92936053D01*
G37*
D12*
X61212500Y-93410000D03*
D20*
X106250000Y-100300000D03*
X106250000Y-102800000D03*
D10*
G36*
X63458329Y-94501023D02*
G01*
X63478957Y-94504083D01*
X63499185Y-94509150D01*
X63518820Y-94516176D01*
X63537672Y-94525092D01*
X63555559Y-94535813D01*
X63572309Y-94548235D01*
X63587760Y-94562240D01*
X63601765Y-94577691D01*
X63614187Y-94594441D01*
X63624908Y-94612328D01*
X63633824Y-94631180D01*
X63640850Y-94650815D01*
X63645917Y-94671043D01*
X63648977Y-94691671D01*
X63650000Y-94712500D01*
X63650000Y-95137500D01*
X63648977Y-95158329D01*
X63645917Y-95178957D01*
X63640850Y-95199185D01*
X63633824Y-95218820D01*
X63624908Y-95237672D01*
X63614187Y-95255559D01*
X63601765Y-95272309D01*
X63587760Y-95287760D01*
X63572309Y-95301765D01*
X63555559Y-95314187D01*
X63537672Y-95324908D01*
X63518820Y-95333824D01*
X63499185Y-95340850D01*
X63478957Y-95345917D01*
X63458329Y-95348977D01*
X63437500Y-95350000D01*
X62637500Y-95350000D01*
X62616671Y-95348977D01*
X62596043Y-95345917D01*
X62575815Y-95340850D01*
X62556180Y-95333824D01*
X62537328Y-95324908D01*
X62519441Y-95314187D01*
X62502691Y-95301765D01*
X62487240Y-95287760D01*
X62473235Y-95272309D01*
X62460813Y-95255559D01*
X62450092Y-95237672D01*
X62441176Y-95218820D01*
X62434150Y-95199185D01*
X62429083Y-95178957D01*
X62426023Y-95158329D01*
X62425000Y-95137500D01*
X62425000Y-94712500D01*
X62426023Y-94691671D01*
X62429083Y-94671043D01*
X62434150Y-94650815D01*
X62441176Y-94631180D01*
X62450092Y-94612328D01*
X62460813Y-94594441D01*
X62473235Y-94577691D01*
X62487240Y-94562240D01*
X62502691Y-94548235D01*
X62519441Y-94535813D01*
X62537328Y-94525092D01*
X62556180Y-94516176D01*
X62575815Y-94509150D01*
X62596043Y-94504083D01*
X62616671Y-94501023D01*
X62637500Y-94500000D01*
X63437500Y-94500000D01*
X63458329Y-94501023D01*
X63458329Y-94501023D01*
G37*
D21*
X63037500Y-94925000D03*
D10*
G36*
X61833329Y-94501023D02*
G01*
X61853957Y-94504083D01*
X61874185Y-94509150D01*
X61893820Y-94516176D01*
X61912672Y-94525092D01*
X61930559Y-94535813D01*
X61947309Y-94548235D01*
X61962760Y-94562240D01*
X61976765Y-94577691D01*
X61989187Y-94594441D01*
X61999908Y-94612328D01*
X62008824Y-94631180D01*
X62015850Y-94650815D01*
X62020917Y-94671043D01*
X62023977Y-94691671D01*
X62025000Y-94712500D01*
X62025000Y-95137500D01*
X62023977Y-95158329D01*
X62020917Y-95178957D01*
X62015850Y-95199185D01*
X62008824Y-95218820D01*
X61999908Y-95237672D01*
X61989187Y-95255559D01*
X61976765Y-95272309D01*
X61962760Y-95287760D01*
X61947309Y-95301765D01*
X61930559Y-95314187D01*
X61912672Y-95324908D01*
X61893820Y-95333824D01*
X61874185Y-95340850D01*
X61853957Y-95345917D01*
X61833329Y-95348977D01*
X61812500Y-95350000D01*
X61012500Y-95350000D01*
X60991671Y-95348977D01*
X60971043Y-95345917D01*
X60950815Y-95340850D01*
X60931180Y-95333824D01*
X60912328Y-95324908D01*
X60894441Y-95314187D01*
X60877691Y-95301765D01*
X60862240Y-95287760D01*
X60848235Y-95272309D01*
X60835813Y-95255559D01*
X60825092Y-95237672D01*
X60816176Y-95218820D01*
X60809150Y-95199185D01*
X60804083Y-95178957D01*
X60801023Y-95158329D01*
X60800000Y-95137500D01*
X60800000Y-94712500D01*
X60801023Y-94691671D01*
X60804083Y-94671043D01*
X60809150Y-94650815D01*
X60816176Y-94631180D01*
X60825092Y-94612328D01*
X60835813Y-94594441D01*
X60848235Y-94577691D01*
X60862240Y-94562240D01*
X60877691Y-94548235D01*
X60894441Y-94535813D01*
X60912328Y-94525092D01*
X60931180Y-94516176D01*
X60950815Y-94509150D01*
X60971043Y-94504083D01*
X60991671Y-94501023D01*
X61012500Y-94500000D01*
X61812500Y-94500000D01*
X61833329Y-94501023D01*
X61833329Y-94501023D01*
G37*
D21*
X61412500Y-94925000D03*
D13*
X120400000Y-99470000D03*
X121350000Y-101470000D03*
X119450000Y-101470000D03*
X113300000Y-99475000D03*
X114250000Y-101475000D03*
X112350000Y-101475000D03*
X109750000Y-99475000D03*
X110700000Y-101475000D03*
X108800000Y-101475000D03*
D10*
G36*
X130658329Y-92926023D02*
G01*
X130678957Y-92929083D01*
X130699185Y-92934150D01*
X130718820Y-92941176D01*
X130737672Y-92950092D01*
X130755559Y-92960813D01*
X130772309Y-92973235D01*
X130787760Y-92987240D01*
X130801765Y-93002691D01*
X130814187Y-93019441D01*
X130824908Y-93037328D01*
X130833824Y-93056180D01*
X130840850Y-93075815D01*
X130845917Y-93096043D01*
X130848977Y-93116671D01*
X130850000Y-93137500D01*
X130850000Y-93562500D01*
X130848977Y-93583329D01*
X130845917Y-93603957D01*
X130840850Y-93624185D01*
X130833824Y-93643820D01*
X130824908Y-93662672D01*
X130814187Y-93680559D01*
X130801765Y-93697309D01*
X130787760Y-93712760D01*
X130772309Y-93726765D01*
X130755559Y-93739187D01*
X130737672Y-93749908D01*
X130718820Y-93758824D01*
X130699185Y-93765850D01*
X130678957Y-93770917D01*
X130658329Y-93773977D01*
X130637500Y-93775000D01*
X129837500Y-93775000D01*
X129816671Y-93773977D01*
X129796043Y-93770917D01*
X129775815Y-93765850D01*
X129756180Y-93758824D01*
X129737328Y-93749908D01*
X129719441Y-93739187D01*
X129702691Y-93726765D01*
X129687240Y-93712760D01*
X129673235Y-93697309D01*
X129660813Y-93680559D01*
X129650092Y-93662672D01*
X129641176Y-93643820D01*
X129634150Y-93624185D01*
X129629083Y-93603957D01*
X129626023Y-93583329D01*
X129625000Y-93562500D01*
X129625000Y-93137500D01*
X129626023Y-93116671D01*
X129629083Y-93096043D01*
X129634150Y-93075815D01*
X129641176Y-93056180D01*
X129650092Y-93037328D01*
X129660813Y-93019441D01*
X129673235Y-93002691D01*
X129687240Y-92987240D01*
X129702691Y-92973235D01*
X129719441Y-92960813D01*
X129737328Y-92950092D01*
X129756180Y-92941176D01*
X129775815Y-92934150D01*
X129796043Y-92929083D01*
X129816671Y-92926023D01*
X129837500Y-92925000D01*
X130637500Y-92925000D01*
X130658329Y-92926023D01*
X130658329Y-92926023D01*
G37*
D21*
X130237500Y-93350000D03*
D10*
G36*
X129033329Y-92926023D02*
G01*
X129053957Y-92929083D01*
X129074185Y-92934150D01*
X129093820Y-92941176D01*
X129112672Y-92950092D01*
X129130559Y-92960813D01*
X129147309Y-92973235D01*
X129162760Y-92987240D01*
X129176765Y-93002691D01*
X129189187Y-93019441D01*
X129199908Y-93037328D01*
X129208824Y-93056180D01*
X129215850Y-93075815D01*
X129220917Y-93096043D01*
X129223977Y-93116671D01*
X129225000Y-93137500D01*
X129225000Y-93562500D01*
X129223977Y-93583329D01*
X129220917Y-93603957D01*
X129215850Y-93624185D01*
X129208824Y-93643820D01*
X129199908Y-93662672D01*
X129189187Y-93680559D01*
X129176765Y-93697309D01*
X129162760Y-93712760D01*
X129147309Y-93726765D01*
X129130559Y-93739187D01*
X129112672Y-93749908D01*
X129093820Y-93758824D01*
X129074185Y-93765850D01*
X129053957Y-93770917D01*
X129033329Y-93773977D01*
X129012500Y-93775000D01*
X128212500Y-93775000D01*
X128191671Y-93773977D01*
X128171043Y-93770917D01*
X128150815Y-93765850D01*
X128131180Y-93758824D01*
X128112328Y-93749908D01*
X128094441Y-93739187D01*
X128077691Y-93726765D01*
X128062240Y-93712760D01*
X128048235Y-93697309D01*
X128035813Y-93680559D01*
X128025092Y-93662672D01*
X128016176Y-93643820D01*
X128009150Y-93624185D01*
X128004083Y-93603957D01*
X128001023Y-93583329D01*
X128000000Y-93562500D01*
X128000000Y-93137500D01*
X128001023Y-93116671D01*
X128004083Y-93096043D01*
X128009150Y-93075815D01*
X128016176Y-93056180D01*
X128025092Y-93037328D01*
X128035813Y-93019441D01*
X128048235Y-93002691D01*
X128062240Y-92987240D01*
X128077691Y-92973235D01*
X128094441Y-92960813D01*
X128112328Y-92950092D01*
X128131180Y-92941176D01*
X128150815Y-92934150D01*
X128171043Y-92929083D01*
X128191671Y-92926023D01*
X128212500Y-92925000D01*
X129012500Y-92925000D01*
X129033329Y-92926023D01*
X129033329Y-92926023D01*
G37*
D21*
X128612500Y-93350000D03*
D13*
X115900000Y-101475000D03*
X117800000Y-101475000D03*
X116850000Y-99475000D03*
M02*
