G04 #@! TF.GenerationSoftware,KiCad,Pcbnew,(5.1.4-0-10_14)*
G04 #@! TF.CreationDate,2019-10-15T00:27:30-07:00*
G04 #@! TF.ProjectId,STM32L0xx_18650,53544d33-324c-4307-9878-5f3138363530,rev?*
G04 #@! TF.SameCoordinates,Original*
G04 #@! TF.FileFunction,Copper,L2,Bot*
G04 #@! TF.FilePolarity,Positive*
%FSLAX46Y46*%
G04 Gerber Fmt 4.6, Leading zero omitted, Abs format (unit mm)*
G04 Created by KiCad (PCBNEW (5.1.4-0-10_14)) date 2019-10-15 00:27:30*
%MOMM*%
%LPD*%
G04 APERTURE LIST*
%ADD10C,2.800000*%
%ADD11O,1.700000X1.700000*%
%ADD12R,1.700000X1.700000*%
%ADD13O,1.700000X1.350000*%
%ADD14O,1.500000X1.100000*%
%ADD15C,2.400000*%
%ADD16C,0.508000*%
%ADD17C,0.152400*%
%ADD18C,0.310000*%
%ADD19C,0.254000*%
G04 APERTURE END LIST*
D10*
X75200000Y-97460000D03*
X75200000Y-102540000D03*
X126400000Y-97460000D03*
X126400000Y-102540000D03*
X134020000Y-100000000D03*
X67580000Y-100000000D03*
D11*
X97460000Y-105610000D03*
X94920000Y-105610000D03*
X92380000Y-105610000D03*
X89840000Y-105610000D03*
X87300000Y-105610000D03*
X84760000Y-105610000D03*
X82220000Y-105610000D03*
D12*
X79680000Y-105610000D03*
X112690000Y-105610000D03*
D11*
X115230000Y-105610000D03*
X117770000Y-105610000D03*
X120310000Y-105610000D03*
D13*
X59885000Y-102705000D03*
X59885000Y-97245000D03*
D14*
X62885000Y-102395000D03*
X62885000Y-97555000D03*
D15*
X139150000Y-102675000D03*
X139150000Y-97375000D03*
D12*
X120300000Y-95450000D03*
D11*
X117760000Y-95450000D03*
X115220000Y-95450000D03*
X112680000Y-95450000D03*
X110140000Y-95450000D03*
D12*
X79660000Y-95440000D03*
D11*
X82200000Y-95440000D03*
X84740000Y-95440000D03*
X87280000Y-95440000D03*
X89820000Y-95440000D03*
D16*
X98925000Y-104150000D03*
X101750000Y-106975000D03*
X109800000Y-93825000D03*
X113850000Y-93850000D03*
X117425000Y-93875000D03*
X102350000Y-96350000D03*
X102050000Y-104225000D03*
X91450000Y-95125000D03*
X153500000Y-102650000D03*
X102575000Y-93025000D03*
X106025000Y-95625000D03*
X104250000Y-95300000D03*
X84625000Y-98662990D03*
X107150000Y-95950000D03*
X134350000Y-97125000D03*
X80495204Y-101823400D03*
X136300000Y-106000000D03*
X64000000Y-106075000D03*
X97475000Y-99550000D03*
X94450000Y-98225000D03*
X94000000Y-97400000D03*
X91450000Y-96625000D03*
X96000000Y-95700000D03*
X97150000Y-95800000D03*
X98000000Y-95650000D03*
X82500000Y-94100000D03*
X98800000Y-93325000D03*
X90437002Y-99069400D03*
X65498552Y-98173552D03*
X90437002Y-99780600D03*
X66001448Y-98676448D03*
X99625000Y-97475000D03*
X118825000Y-102350000D03*
X99750000Y-96675000D03*
X116900000Y-101700000D03*
X113225000Y-101175000D03*
X99875000Y-95975000D03*
X100300000Y-94400000D03*
X109775000Y-100675000D03*
X93850000Y-100625000D03*
X93950000Y-101450000D03*
D17*
X101750000Y-106975000D02*
X98925000Y-104150000D01*
D18*
X62575000Y-102705000D02*
X62885000Y-102395000D01*
X59885000Y-102705000D02*
X62575000Y-102705000D01*
X62575000Y-97245000D02*
X62885000Y-97555000D01*
X59885000Y-97245000D02*
X62575000Y-97245000D01*
X120300000Y-95450000D02*
X120300000Y-94290000D01*
X120300000Y-94290000D02*
X118410000Y-92400000D01*
X118410000Y-92400000D02*
X81875000Y-92400000D01*
X81042599Y-93232401D02*
X81042599Y-95995553D01*
X83710036Y-98662990D02*
X84265790Y-98662990D01*
X81875000Y-92400000D02*
X81042599Y-93232401D01*
X81042599Y-95995553D02*
X83710036Y-98662990D01*
X84265790Y-98662990D02*
X84625000Y-98662990D01*
X136502599Y-104247401D02*
X138100000Y-102650000D01*
X110140790Y-99300000D02*
X119425000Y-99300000D01*
X107150000Y-96309210D02*
X110140790Y-99300000D01*
X107150000Y-95950000D02*
X107150000Y-96309210D01*
X139150000Y-101925000D02*
X139150000Y-102675000D01*
X134350000Y-97125000D02*
X139150000Y-101925000D01*
X124372401Y-104247401D02*
X119425000Y-99300000D01*
X136502599Y-104247401D02*
X124372401Y-104247401D01*
X113230000Y-107610000D02*
X115230000Y-105610000D01*
X77365000Y-107610000D02*
X113230000Y-107610000D01*
X75135000Y-107610000D02*
X77365000Y-107610000D01*
X74708604Y-107610000D02*
X74565000Y-107610000D01*
X80495204Y-101823400D02*
X74708604Y-107610000D01*
X74565000Y-107610000D02*
X75135000Y-107610000D01*
X67785000Y-107610000D02*
X73410000Y-107610000D01*
X64440000Y-106330000D02*
X66505000Y-106330000D01*
X66505000Y-106330000D02*
X67785000Y-107610000D01*
X73410000Y-107610000D02*
X74565000Y-107610000D01*
X134690000Y-107610000D02*
X113230000Y-107610000D01*
X136300000Y-106000000D02*
X134690000Y-107610000D01*
X64438999Y-106328999D02*
X64440000Y-106330000D01*
X64253999Y-106328999D02*
X64438999Y-106328999D01*
X64000000Y-106075000D02*
X64253999Y-106328999D01*
D17*
X97475000Y-105595000D02*
X97460000Y-105610000D01*
X97475000Y-99550000D02*
X97475000Y-105595000D01*
X94450000Y-98225000D02*
X94450000Y-99225000D01*
X94450000Y-99225000D02*
X89753223Y-103921777D01*
X89753223Y-103921777D02*
X83908223Y-103921777D01*
X83908223Y-103921777D02*
X83069999Y-104760001D01*
X83069999Y-104760001D02*
X82220000Y-105610000D01*
X93746001Y-97653999D02*
X93746001Y-99446001D01*
X94000000Y-97400000D02*
X93746001Y-97653999D01*
X89575036Y-103616966D02*
X82675434Y-103616966D01*
X80682400Y-105610000D02*
X79680000Y-105610000D01*
X93746001Y-99446001D02*
X89575036Y-103616966D01*
X82675434Y-103616966D02*
X80682400Y-105610000D01*
X91005000Y-96625000D02*
X91450000Y-96625000D01*
X89820000Y-95440000D02*
X91005000Y-96625000D01*
X94659622Y-94359622D02*
X95746001Y-95446001D01*
X95746001Y-95446001D02*
X96000000Y-95700000D01*
X87280000Y-95440000D02*
X88360378Y-94359622D01*
X88360378Y-94359622D02*
X94659622Y-94359622D01*
X96896001Y-95546001D02*
X97150000Y-95800000D01*
X84740000Y-95440000D02*
X86125189Y-94054811D01*
X95404811Y-94054811D02*
X96896001Y-95546001D01*
X86125189Y-94054811D02*
X95404811Y-94054811D01*
X96100000Y-93750000D02*
X98000000Y-95650000D01*
X83890000Y-93750000D02*
X96100000Y-93750000D01*
X82200000Y-95440000D02*
X83890000Y-93750000D01*
X98800000Y-93325000D02*
X83275000Y-93325000D01*
X83275000Y-93325000D02*
X82500000Y-94100000D01*
D19*
X90310002Y-99196400D02*
X70394690Y-99196400D01*
X90437002Y-99069400D02*
X90310002Y-99196400D01*
X70394690Y-99196400D02*
X68894690Y-97696400D01*
X65678158Y-98173552D02*
X65498552Y-98173552D01*
X66155310Y-97696400D02*
X65678158Y-98173552D01*
X68894690Y-97696400D02*
X66155310Y-97696400D01*
X90310002Y-99653600D02*
X70205310Y-99653600D01*
X90437002Y-99780600D02*
X90310002Y-99653600D01*
X70205310Y-99653600D02*
X68705310Y-98153600D01*
X66001448Y-98496842D02*
X66001448Y-98676448D01*
X68705310Y-98153600D02*
X66344690Y-98153600D01*
X66344690Y-98153600D02*
X66001448Y-98496842D01*
D17*
X99625000Y-98543200D02*
X99625000Y-97475000D01*
X103431800Y-102350000D02*
X99625000Y-98543200D01*
X118825000Y-102350000D02*
X103431800Y-102350000D01*
X103212866Y-101700000D02*
X116540790Y-101700000D01*
X116540790Y-101700000D02*
X116900000Y-101700000D01*
X99750000Y-96675000D02*
X100265378Y-97190378D01*
X100265378Y-98752512D02*
X103212866Y-101700000D01*
X100265378Y-97190378D02*
X100265378Y-98752512D01*
X103118933Y-101175000D02*
X100570189Y-98626256D01*
X100570189Y-96670189D02*
X99875000Y-95975000D01*
X100570189Y-98626256D02*
X100570189Y-96670189D01*
X113225000Y-101175000D02*
X103118933Y-101175000D01*
X103050000Y-100675000D02*
X109775000Y-100675000D01*
X100875000Y-98500000D02*
X103050000Y-100675000D01*
X100300000Y-94400000D02*
X100300000Y-94759210D01*
X100300000Y-94759210D02*
X100875000Y-95334210D01*
X100875000Y-95334210D02*
X100875000Y-98500000D01*
X93850000Y-100625000D02*
X90248412Y-104226588D01*
X86143412Y-104226588D02*
X85609999Y-104760001D01*
X85609999Y-104760001D02*
X84760000Y-105610000D01*
X90248412Y-104226588D02*
X86143412Y-104226588D01*
X88149999Y-104760001D02*
X87300000Y-105610000D01*
X90868601Y-104531399D02*
X88378601Y-104531399D01*
X93950000Y-101450000D02*
X90868601Y-104531399D01*
X88378601Y-104531399D02*
X88149999Y-104760001D01*
G36*
X64181663Y-92594256D02*
G01*
X64200648Y-92638550D01*
X64219046Y-92683188D01*
X64222580Y-92689725D01*
X64326004Y-92877853D01*
X64353263Y-92917664D01*
X64379949Y-92957830D01*
X64384686Y-92963556D01*
X64522681Y-93128012D01*
X64557163Y-93161779D01*
X64591132Y-93195986D01*
X64596891Y-93200683D01*
X64764201Y-93335204D01*
X64804530Y-93361594D01*
X64844554Y-93388591D01*
X64851116Y-93392079D01*
X65041369Y-93491541D01*
X65086095Y-93509611D01*
X65130556Y-93528301D01*
X65137670Y-93530449D01*
X65343619Y-93591063D01*
X65391034Y-93600108D01*
X65438251Y-93609800D01*
X65445647Y-93610526D01*
X65659445Y-93629983D01*
X65707679Y-93629646D01*
X65755912Y-93629983D01*
X65763308Y-93629258D01*
X65976815Y-93606818D01*
X66024099Y-93597112D01*
X66071450Y-93588079D01*
X66078564Y-93585932D01*
X66283645Y-93522448D01*
X66328126Y-93503750D01*
X66372833Y-93485687D01*
X66379394Y-93482198D01*
X66568239Y-93380090D01*
X66608212Y-93353128D01*
X66648589Y-93326706D01*
X66654348Y-93322009D01*
X66819763Y-93185167D01*
X66853754Y-93150938D01*
X66888217Y-93117189D01*
X66892954Y-93111463D01*
X67028639Y-92945096D01*
X67055323Y-92904933D01*
X67082583Y-92865121D01*
X67086117Y-92858584D01*
X67186905Y-92669031D01*
X67205278Y-92624454D01*
X67224289Y-92580099D01*
X67226486Y-92573000D01*
X67238804Y-92532200D01*
X80877019Y-92532200D01*
X80630976Y-92778243D01*
X80607614Y-92797416D01*
X80531110Y-92890636D01*
X80474263Y-92996990D01*
X80453335Y-93065981D01*
X80439257Y-93112389D01*
X80438282Y-93122285D01*
X80430399Y-93202328D01*
X80430399Y-93202335D01*
X80427438Y-93232401D01*
X80430399Y-93262468D01*
X80430399Y-94130588D01*
X78810000Y-94130588D01*
X78720373Y-94139415D01*
X78634191Y-94165559D01*
X78554764Y-94208013D01*
X78485147Y-94265147D01*
X78428013Y-94334764D01*
X78385559Y-94414191D01*
X78359415Y-94500373D01*
X78350588Y-94590000D01*
X78350588Y-96290000D01*
X78359415Y-96379627D01*
X78385559Y-96465809D01*
X78428013Y-96545236D01*
X78485147Y-96614853D01*
X78554764Y-96671987D01*
X78634191Y-96714441D01*
X78720373Y-96740585D01*
X78810000Y-96749412D01*
X80510000Y-96749412D01*
X80599627Y-96740585D01*
X80685809Y-96714441D01*
X80765236Y-96671987D01*
X80813578Y-96632313D01*
X82793465Y-98612200D01*
X76663760Y-98612200D01*
X76845829Y-98339714D01*
X76985829Y-98001725D01*
X77057200Y-97642918D01*
X77057200Y-97277082D01*
X76985829Y-96918275D01*
X76845829Y-96580286D01*
X76642581Y-96276104D01*
X76383896Y-96017419D01*
X76079714Y-95814171D01*
X75741725Y-95674171D01*
X75382918Y-95602800D01*
X75017082Y-95602800D01*
X74658275Y-95674171D01*
X74320286Y-95814171D01*
X74016104Y-96017419D01*
X73757419Y-96276104D01*
X73554171Y-96580286D01*
X73414171Y-96918275D01*
X73342800Y-97277082D01*
X73342800Y-97642918D01*
X73414171Y-98001725D01*
X73554171Y-98339714D01*
X73736240Y-98612200D01*
X70636673Y-98612200D01*
X69328072Y-97303599D01*
X69309780Y-97281310D01*
X69220824Y-97208306D01*
X69119335Y-97154059D01*
X69009213Y-97120654D01*
X68923382Y-97112200D01*
X68923374Y-97112200D01*
X68894690Y-97109375D01*
X68866006Y-97112200D01*
X66184002Y-97112200D01*
X66155310Y-97109374D01*
X66040787Y-97120654D01*
X65930665Y-97154059D01*
X65829176Y-97208306D01*
X65762506Y-97263020D01*
X65762504Y-97263022D01*
X65740220Y-97281310D01*
X65721932Y-97303594D01*
X65563174Y-97462352D01*
X65428505Y-97462352D01*
X65291103Y-97489683D01*
X65161673Y-97543295D01*
X65045189Y-97621127D01*
X64946127Y-97720189D01*
X64868295Y-97836673D01*
X64814683Y-97966103D01*
X64787352Y-98103505D01*
X64787352Y-98243599D01*
X64814683Y-98381001D01*
X64868295Y-98510431D01*
X64946127Y-98626915D01*
X65045189Y-98725977D01*
X65161673Y-98803809D01*
X65291103Y-98857421D01*
X65313186Y-98861814D01*
X65317579Y-98883897D01*
X65371191Y-99013327D01*
X65449023Y-99129811D01*
X65548085Y-99228873D01*
X65664569Y-99306705D01*
X65793999Y-99360317D01*
X65831645Y-99367805D01*
X65794171Y-99458275D01*
X65722800Y-99817082D01*
X65722800Y-100182918D01*
X65794171Y-100541725D01*
X65934171Y-100879714D01*
X66137419Y-101183896D01*
X66396104Y-101442581D01*
X66700286Y-101645829D01*
X67038275Y-101785829D01*
X67397082Y-101857200D01*
X67762918Y-101857200D01*
X68121725Y-101785829D01*
X68459714Y-101645829D01*
X68763896Y-101442581D01*
X69022581Y-101183896D01*
X69225829Y-100879714D01*
X69365829Y-100541725D01*
X69437200Y-100182918D01*
X69437200Y-99817082D01*
X69411027Y-99685500D01*
X69771928Y-100046401D01*
X69790220Y-100068690D01*
X69879176Y-100141694D01*
X69980665Y-100195941D01*
X70090787Y-100229346D01*
X70176618Y-100237800D01*
X70176627Y-100237800D01*
X70205309Y-100240625D01*
X70233991Y-100237800D01*
X89888414Y-100237800D01*
X89983639Y-100333025D01*
X90100123Y-100410857D01*
X90229553Y-100464469D01*
X90366955Y-100491800D01*
X90507049Y-100491800D01*
X90644451Y-100464469D01*
X90773881Y-100410857D01*
X90890365Y-100333025D01*
X90989427Y-100233963D01*
X91067259Y-100117479D01*
X91120871Y-99988049D01*
X91148202Y-99850647D01*
X91148202Y-99710553D01*
X91120871Y-99573151D01*
X91067259Y-99443721D01*
X91054750Y-99425000D01*
X91067259Y-99406279D01*
X91120871Y-99276849D01*
X91148202Y-99139447D01*
X91148202Y-98999353D01*
X91120871Y-98861951D01*
X91067259Y-98732521D01*
X90989427Y-98616037D01*
X90890365Y-98516975D01*
X90773881Y-98439143D01*
X90644451Y-98385531D01*
X90507049Y-98358200D01*
X90366955Y-98358200D01*
X90229553Y-98385531D01*
X90100123Y-98439143D01*
X89983639Y-98516975D01*
X89888414Y-98612200D01*
X85336200Y-98612200D01*
X85336200Y-98592943D01*
X85308869Y-98455541D01*
X85255257Y-98326111D01*
X85177425Y-98209627D01*
X85078363Y-98110565D01*
X84961879Y-98032733D01*
X84832449Y-97979121D01*
X84695047Y-97951790D01*
X84554953Y-97951790D01*
X84417551Y-97979121D01*
X84288121Y-98032733D01*
X84261097Y-98050790D01*
X83963617Y-98050790D01*
X82598088Y-96685261D01*
X82702664Y-96653538D01*
X82929755Y-96532155D01*
X83128802Y-96368802D01*
X83292155Y-96169755D01*
X83413538Y-95942664D01*
X83470000Y-95756534D01*
X83526462Y-95942664D01*
X83647845Y-96169755D01*
X83811198Y-96368802D01*
X84010245Y-96532155D01*
X84237336Y-96653538D01*
X84483744Y-96728285D01*
X84675791Y-96747200D01*
X84804209Y-96747200D01*
X84996256Y-96728285D01*
X85242664Y-96653538D01*
X85469755Y-96532155D01*
X85668802Y-96368802D01*
X85832155Y-96169755D01*
X85953538Y-95942664D01*
X86010000Y-95756534D01*
X86066462Y-95942664D01*
X86187845Y-96169755D01*
X86351198Y-96368802D01*
X86550245Y-96532155D01*
X86777336Y-96653538D01*
X87023744Y-96728285D01*
X87215791Y-96747200D01*
X87344209Y-96747200D01*
X87536256Y-96728285D01*
X87782664Y-96653538D01*
X88009755Y-96532155D01*
X88208802Y-96368802D01*
X88372155Y-96169755D01*
X88493538Y-95942664D01*
X88550000Y-95756534D01*
X88606462Y-95942664D01*
X88727845Y-96169755D01*
X88891198Y-96368802D01*
X89090245Y-96532155D01*
X89317336Y-96653538D01*
X89563744Y-96728285D01*
X89755791Y-96747200D01*
X89884209Y-96747200D01*
X90076256Y-96728285D01*
X90289313Y-96663655D01*
X90609309Y-96983651D01*
X90626005Y-97003995D01*
X90646349Y-97020691D01*
X90646351Y-97020693D01*
X90688097Y-97054953D01*
X90707225Y-97070651D01*
X90799889Y-97120181D01*
X90900435Y-97150681D01*
X90977482Y-97158270D01*
X90996637Y-97177425D01*
X91113121Y-97255257D01*
X91242551Y-97308869D01*
X91379953Y-97336200D01*
X91520047Y-97336200D01*
X91657449Y-97308869D01*
X91786879Y-97255257D01*
X91903363Y-97177425D01*
X92002425Y-97078363D01*
X92080257Y-96961879D01*
X92133869Y-96832449D01*
X92161200Y-96695047D01*
X92161200Y-96554953D01*
X92133869Y-96417551D01*
X92080257Y-96288121D01*
X92002425Y-96171637D01*
X91903363Y-96072575D01*
X91786879Y-95994743D01*
X91657449Y-95941131D01*
X91520047Y-95913800D01*
X91379953Y-95913800D01*
X91242551Y-95941131D01*
X91124409Y-95990067D01*
X91043655Y-95909313D01*
X91108285Y-95696256D01*
X91133524Y-95440000D01*
X91108285Y-95183744D01*
X91033538Y-94937336D01*
X91009852Y-94893022D01*
X94438681Y-94893022D01*
X95288800Y-95743142D01*
X95288800Y-95770047D01*
X95316131Y-95907449D01*
X95369743Y-96036879D01*
X95447575Y-96153363D01*
X95546637Y-96252425D01*
X95663121Y-96330257D01*
X95792551Y-96383869D01*
X95929953Y-96411200D01*
X96070047Y-96411200D01*
X96207449Y-96383869D01*
X96336879Y-96330257D01*
X96453363Y-96252425D01*
X96539436Y-96166352D01*
X96597575Y-96253363D01*
X96696637Y-96352425D01*
X96813121Y-96430257D01*
X96942551Y-96483869D01*
X97079953Y-96511200D01*
X97220047Y-96511200D01*
X97357449Y-96483869D01*
X97486879Y-96430257D01*
X97603363Y-96352425D01*
X97671896Y-96283892D01*
X97792551Y-96333869D01*
X97929953Y-96361200D01*
X98070047Y-96361200D01*
X98207449Y-96333869D01*
X98336879Y-96280257D01*
X98453363Y-96202425D01*
X98552425Y-96103363D01*
X98630257Y-95986879D01*
X98683869Y-95857449D01*
X98711200Y-95720047D01*
X98711200Y-95579953D01*
X98683869Y-95442551D01*
X98630257Y-95313121D01*
X98552425Y-95196637D01*
X98453363Y-95097575D01*
X98336879Y-95019743D01*
X98207449Y-94966131D01*
X98070047Y-94938800D01*
X98043141Y-94938800D01*
X96962741Y-93858400D01*
X98327612Y-93858400D01*
X98346637Y-93877425D01*
X98463121Y-93955257D01*
X98592551Y-94008869D01*
X98729953Y-94036200D01*
X98870047Y-94036200D01*
X99007449Y-94008869D01*
X99136879Y-93955257D01*
X99253363Y-93877425D01*
X99352425Y-93778363D01*
X99430257Y-93661879D01*
X99483869Y-93532449D01*
X99511200Y-93395047D01*
X99511200Y-93254953D01*
X99483869Y-93117551D01*
X99440231Y-93012200D01*
X118156419Y-93012200D01*
X119309168Y-94164949D01*
X119274191Y-94175559D01*
X119194764Y-94218013D01*
X119125147Y-94275147D01*
X119068013Y-94344764D01*
X119025559Y-94424191D01*
X118999415Y-94510373D01*
X118990588Y-94600000D01*
X118990588Y-95003542D01*
X118973538Y-94947336D01*
X118852155Y-94720245D01*
X118688802Y-94521198D01*
X118489755Y-94357845D01*
X118262664Y-94236462D01*
X118016256Y-94161715D01*
X117824209Y-94142800D01*
X117695791Y-94142800D01*
X117503744Y-94161715D01*
X117257336Y-94236462D01*
X117030245Y-94357845D01*
X116831198Y-94521198D01*
X116667845Y-94720245D01*
X116546462Y-94947336D01*
X116490000Y-95133466D01*
X116433538Y-94947336D01*
X116312155Y-94720245D01*
X116148802Y-94521198D01*
X115949755Y-94357845D01*
X115722664Y-94236462D01*
X115476256Y-94161715D01*
X115284209Y-94142800D01*
X115155791Y-94142800D01*
X114963744Y-94161715D01*
X114717336Y-94236462D01*
X114490245Y-94357845D01*
X114291198Y-94521198D01*
X114127845Y-94720245D01*
X114006462Y-94947336D01*
X113950000Y-95133466D01*
X113893538Y-94947336D01*
X113772155Y-94720245D01*
X113608802Y-94521198D01*
X113409755Y-94357845D01*
X113182664Y-94236462D01*
X112936256Y-94161715D01*
X112744209Y-94142800D01*
X112615791Y-94142800D01*
X112423744Y-94161715D01*
X112177336Y-94236462D01*
X111950245Y-94357845D01*
X111751198Y-94521198D01*
X111587845Y-94720245D01*
X111466462Y-94947336D01*
X111410000Y-95133466D01*
X111353538Y-94947336D01*
X111232155Y-94720245D01*
X111068802Y-94521198D01*
X110869755Y-94357845D01*
X110642664Y-94236462D01*
X110396256Y-94161715D01*
X110204209Y-94142800D01*
X110075791Y-94142800D01*
X109883744Y-94161715D01*
X109637336Y-94236462D01*
X109410245Y-94357845D01*
X109211198Y-94521198D01*
X109047845Y-94720245D01*
X108926462Y-94947336D01*
X108851715Y-95193744D01*
X108826476Y-95450000D01*
X108851715Y-95706256D01*
X108926462Y-95952664D01*
X109047845Y-96179755D01*
X109211198Y-96378802D01*
X109410245Y-96542155D01*
X109637336Y-96663538D01*
X109883744Y-96738285D01*
X110075791Y-96757200D01*
X110204209Y-96757200D01*
X110396256Y-96738285D01*
X110642664Y-96663538D01*
X110869755Y-96542155D01*
X111068802Y-96378802D01*
X111232155Y-96179755D01*
X111353538Y-95952664D01*
X111410000Y-95766534D01*
X111466462Y-95952664D01*
X111587845Y-96179755D01*
X111751198Y-96378802D01*
X111950245Y-96542155D01*
X112177336Y-96663538D01*
X112423744Y-96738285D01*
X112615791Y-96757200D01*
X112744209Y-96757200D01*
X112936256Y-96738285D01*
X113182664Y-96663538D01*
X113409755Y-96542155D01*
X113608802Y-96378802D01*
X113772155Y-96179755D01*
X113893538Y-95952664D01*
X113950000Y-95766534D01*
X114006462Y-95952664D01*
X114127845Y-96179755D01*
X114291198Y-96378802D01*
X114490245Y-96542155D01*
X114717336Y-96663538D01*
X114963744Y-96738285D01*
X115155791Y-96757200D01*
X115284209Y-96757200D01*
X115476256Y-96738285D01*
X115722664Y-96663538D01*
X115949755Y-96542155D01*
X116148802Y-96378802D01*
X116312155Y-96179755D01*
X116433538Y-95952664D01*
X116490000Y-95766534D01*
X116546462Y-95952664D01*
X116667845Y-96179755D01*
X116831198Y-96378802D01*
X117030245Y-96542155D01*
X117257336Y-96663538D01*
X117503744Y-96738285D01*
X117695791Y-96757200D01*
X117824209Y-96757200D01*
X118016256Y-96738285D01*
X118262664Y-96663538D01*
X118489755Y-96542155D01*
X118688802Y-96378802D01*
X118852155Y-96179755D01*
X118973538Y-95952664D01*
X118990588Y-95896458D01*
X118990588Y-96300000D01*
X118999415Y-96389627D01*
X119025559Y-96475809D01*
X119068013Y-96555236D01*
X119125147Y-96624853D01*
X119194764Y-96681987D01*
X119274191Y-96724441D01*
X119360373Y-96750585D01*
X119450000Y-96759412D01*
X121150000Y-96759412D01*
X121239627Y-96750585D01*
X121325809Y-96724441D01*
X121405236Y-96681987D01*
X121474853Y-96624853D01*
X121531987Y-96555236D01*
X121574441Y-96475809D01*
X121600585Y-96389627D01*
X121609412Y-96300000D01*
X121609412Y-94600000D01*
X121600585Y-94510373D01*
X121574441Y-94424191D01*
X121531987Y-94344764D01*
X121474853Y-94275147D01*
X121405236Y-94218013D01*
X121325809Y-94175559D01*
X121239627Y-94149415D01*
X121150000Y-94140588D01*
X120894424Y-94140588D01*
X120882111Y-94100000D01*
X120868336Y-94054588D01*
X120811489Y-93948234D01*
X120734985Y-93855015D01*
X120711623Y-93835842D01*
X119407981Y-92532200D01*
X137461978Y-92532200D01*
X137481663Y-92594256D01*
X137500648Y-92638550D01*
X137519046Y-92683188D01*
X137522580Y-92689725D01*
X137626004Y-92877853D01*
X137653263Y-92917664D01*
X137679949Y-92957830D01*
X137684686Y-92963556D01*
X137822681Y-93128012D01*
X137857163Y-93161779D01*
X137891132Y-93195986D01*
X137896891Y-93200683D01*
X138064201Y-93335204D01*
X138104530Y-93361594D01*
X138144554Y-93388591D01*
X138151116Y-93392079D01*
X138341369Y-93491541D01*
X138386095Y-93509611D01*
X138430556Y-93528301D01*
X138437670Y-93530449D01*
X138643619Y-93591063D01*
X138691034Y-93600108D01*
X138738251Y-93609800D01*
X138745647Y-93610526D01*
X138959445Y-93629983D01*
X139007679Y-93629646D01*
X139055912Y-93629983D01*
X139063308Y-93629258D01*
X139276815Y-93606818D01*
X139324099Y-93597112D01*
X139371450Y-93588079D01*
X139378564Y-93585932D01*
X139583645Y-93522448D01*
X139628126Y-93503750D01*
X139672833Y-93485687D01*
X139679394Y-93482198D01*
X139868239Y-93380090D01*
X139908212Y-93353128D01*
X139948589Y-93326706D01*
X139954348Y-93322009D01*
X140119763Y-93185167D01*
X140153754Y-93150938D01*
X140188217Y-93117189D01*
X140192954Y-93111463D01*
X140328639Y-92945096D01*
X140355323Y-92904933D01*
X140382583Y-92865121D01*
X140386117Y-92858584D01*
X140486905Y-92669031D01*
X140505278Y-92624454D01*
X140524289Y-92580099D01*
X140526486Y-92573000D01*
X140538804Y-92532200D01*
X155211978Y-92532200D01*
X155231663Y-92594256D01*
X155250648Y-92638550D01*
X155269046Y-92683188D01*
X155272580Y-92689725D01*
X155376004Y-92877853D01*
X155403263Y-92917664D01*
X155429949Y-92957830D01*
X155434686Y-92963556D01*
X155572681Y-93128012D01*
X155607163Y-93161779D01*
X155641132Y-93195986D01*
X155646891Y-93200683D01*
X155814201Y-93335204D01*
X155854530Y-93361594D01*
X155894554Y-93388591D01*
X155901116Y-93392079D01*
X155973800Y-93430077D01*
X155973800Y-95295329D01*
X155936638Y-95332491D01*
X155822042Y-95503996D01*
X155743107Y-95694562D01*
X155702867Y-95896866D01*
X155702867Y-96103134D01*
X155743107Y-96305438D01*
X155822042Y-96496004D01*
X155936638Y-96667509D01*
X155973800Y-96704671D01*
X155973800Y-103295329D01*
X155936638Y-103332491D01*
X155822042Y-103503996D01*
X155743107Y-103694562D01*
X155702867Y-103896866D01*
X155702867Y-104103134D01*
X155743107Y-104305438D01*
X155822042Y-104496004D01*
X155936638Y-104667509D01*
X155973800Y-104704671D01*
X155973800Y-106570145D01*
X155881761Y-106619910D01*
X155841765Y-106646888D01*
X155801411Y-106673294D01*
X155795652Y-106677991D01*
X155630236Y-106814834D01*
X155596246Y-106849062D01*
X155561783Y-106882811D01*
X155557046Y-106888537D01*
X155421361Y-107054904D01*
X155394677Y-107095067D01*
X155367417Y-107134879D01*
X155363882Y-107141416D01*
X155263095Y-107330970D01*
X155244727Y-107375533D01*
X155225711Y-107419901D01*
X155223514Y-107427000D01*
X155211196Y-107467800D01*
X140433612Y-107467800D01*
X140426422Y-107445135D01*
X140407430Y-107400823D01*
X140389040Y-107356205D01*
X140385505Y-107349668D01*
X140291483Y-107178643D01*
X140264234Y-107138847D01*
X140237539Y-107098668D01*
X140232802Y-107092942D01*
X140107352Y-106943436D01*
X140072906Y-106909704D01*
X140038899Y-106875459D01*
X140033140Y-106870762D01*
X139881041Y-106748472D01*
X139840682Y-106722062D01*
X139800692Y-106695088D01*
X139794130Y-106691599D01*
X139621175Y-106601179D01*
X139576469Y-106583117D01*
X139531981Y-106564416D01*
X139524867Y-106562269D01*
X139337642Y-106507166D01*
X139290238Y-106498123D01*
X139243013Y-106488429D01*
X139235617Y-106487703D01*
X139041255Y-106470014D01*
X138993014Y-106470351D01*
X138944783Y-106470015D01*
X138937387Y-106470740D01*
X138743290Y-106491141D01*
X138696071Y-106500834D01*
X138648661Y-106509878D01*
X138641547Y-106512026D01*
X138455109Y-106569738D01*
X138410649Y-106588427D01*
X138365919Y-106606499D01*
X138359357Y-106609988D01*
X138187681Y-106702813D01*
X138147706Y-106729776D01*
X138107328Y-106756199D01*
X138101569Y-106760896D01*
X137951191Y-106885300D01*
X137917203Y-106919526D01*
X137882741Y-106953274D01*
X137878004Y-106959000D01*
X137754654Y-107110242D01*
X137727968Y-107150408D01*
X137700709Y-107190219D01*
X137697174Y-107196755D01*
X137605549Y-107369078D01*
X137587161Y-107413689D01*
X137568166Y-107458009D01*
X137565971Y-107465101D01*
X137565968Y-107465108D01*
X137565967Y-107465115D01*
X137565156Y-107467800D01*
X135697981Y-107467800D01*
X136475572Y-106690210D01*
X136507449Y-106683869D01*
X136636879Y-106630257D01*
X136753363Y-106552425D01*
X136852425Y-106453363D01*
X136930257Y-106336879D01*
X136983869Y-106207449D01*
X137011200Y-106070047D01*
X137011200Y-105929953D01*
X136983869Y-105792551D01*
X136930257Y-105663121D01*
X136852425Y-105546637D01*
X136753363Y-105447575D01*
X136636879Y-105369743D01*
X136507449Y-105316131D01*
X136370047Y-105288800D01*
X136229953Y-105288800D01*
X136092551Y-105316131D01*
X135963121Y-105369743D01*
X135846637Y-105447575D01*
X135747575Y-105546637D01*
X135669743Y-105663121D01*
X135616131Y-105792551D01*
X135609790Y-105824428D01*
X134436419Y-106997800D01*
X114707982Y-106997800D01*
X114846190Y-106859592D01*
X114973744Y-106898285D01*
X115165791Y-106917200D01*
X115294209Y-106917200D01*
X115486256Y-106898285D01*
X115732664Y-106823538D01*
X115959755Y-106702155D01*
X116158802Y-106538802D01*
X116322155Y-106339755D01*
X116443538Y-106112664D01*
X116518285Y-105866256D01*
X116543524Y-105610000D01*
X118996476Y-105610000D01*
X119021715Y-105866256D01*
X119096462Y-106112664D01*
X119217845Y-106339755D01*
X119381198Y-106538802D01*
X119580245Y-106702155D01*
X119807336Y-106823538D01*
X120053744Y-106898285D01*
X120245791Y-106917200D01*
X120374209Y-106917200D01*
X120566256Y-106898285D01*
X120812664Y-106823538D01*
X121039755Y-106702155D01*
X121238802Y-106538802D01*
X121402155Y-106339755D01*
X121523538Y-106112664D01*
X121598285Y-105866256D01*
X121623524Y-105610000D01*
X121598285Y-105353744D01*
X121523538Y-105107336D01*
X121402155Y-104880245D01*
X121238802Y-104681198D01*
X121039755Y-104517845D01*
X120812664Y-104396462D01*
X120566256Y-104321715D01*
X120374209Y-104302800D01*
X120245791Y-104302800D01*
X120053744Y-104321715D01*
X119807336Y-104396462D01*
X119580245Y-104517845D01*
X119381198Y-104681198D01*
X119217845Y-104880245D01*
X119096462Y-105107336D01*
X119021715Y-105353744D01*
X118996476Y-105610000D01*
X116543524Y-105610000D01*
X116518285Y-105353744D01*
X116443538Y-105107336D01*
X116322155Y-104880245D01*
X116158802Y-104681198D01*
X115959755Y-104517845D01*
X115732664Y-104396462D01*
X115486256Y-104321715D01*
X115294209Y-104302800D01*
X115165791Y-104302800D01*
X114973744Y-104321715D01*
X114727336Y-104396462D01*
X114500245Y-104517845D01*
X114301198Y-104681198D01*
X114137845Y-104880245D01*
X114016462Y-105107336D01*
X113999412Y-105163542D01*
X113999412Y-104760000D01*
X113990585Y-104670373D01*
X113964441Y-104584191D01*
X113921987Y-104504764D01*
X113864853Y-104435147D01*
X113795236Y-104378013D01*
X113715809Y-104335559D01*
X113629627Y-104309415D01*
X113540000Y-104300588D01*
X111840000Y-104300588D01*
X111750373Y-104309415D01*
X111664191Y-104335559D01*
X111584764Y-104378013D01*
X111515147Y-104435147D01*
X111458013Y-104504764D01*
X111415559Y-104584191D01*
X111389415Y-104670373D01*
X111380588Y-104760000D01*
X111380588Y-106460000D01*
X111389415Y-106549627D01*
X111415559Y-106635809D01*
X111458013Y-106715236D01*
X111515147Y-106784853D01*
X111584764Y-106841987D01*
X111664191Y-106884441D01*
X111750373Y-106910585D01*
X111840000Y-106919412D01*
X113054807Y-106919412D01*
X112976419Y-106997800D01*
X102461200Y-106997800D01*
X102461200Y-106904953D01*
X102433869Y-106767551D01*
X102380257Y-106638121D01*
X102302425Y-106521637D01*
X102203363Y-106422575D01*
X102086879Y-106344743D01*
X101957449Y-106291131D01*
X101820047Y-106263800D01*
X101793142Y-106263800D01*
X99636200Y-104106859D01*
X99636200Y-104079953D01*
X99608869Y-103942551D01*
X99555257Y-103813121D01*
X99477425Y-103696637D01*
X99378363Y-103597575D01*
X99261879Y-103519743D01*
X99132449Y-103466131D01*
X98995047Y-103438800D01*
X98854953Y-103438800D01*
X98717551Y-103466131D01*
X98588121Y-103519743D01*
X98471637Y-103597575D01*
X98372575Y-103696637D01*
X98294743Y-103813121D01*
X98241131Y-103942551D01*
X98213800Y-104079953D01*
X98213800Y-104220047D01*
X98241131Y-104357449D01*
X98294743Y-104486879D01*
X98372575Y-104603363D01*
X98471637Y-104702425D01*
X98588121Y-104780257D01*
X98717551Y-104833869D01*
X98854953Y-104861200D01*
X98881859Y-104861200D01*
X101018458Y-106997800D01*
X76186585Y-106997800D01*
X78370588Y-104813798D01*
X78370588Y-106460000D01*
X78379415Y-106549627D01*
X78405559Y-106635809D01*
X78448013Y-106715236D01*
X78505147Y-106784853D01*
X78574764Y-106841987D01*
X78654191Y-106884441D01*
X78740373Y-106910585D01*
X78830000Y-106919412D01*
X80530000Y-106919412D01*
X80619627Y-106910585D01*
X80705809Y-106884441D01*
X80785236Y-106841987D01*
X80854853Y-106784853D01*
X80911987Y-106715236D01*
X80954441Y-106635809D01*
X80980585Y-106549627D01*
X80989412Y-106460000D01*
X80989412Y-106056458D01*
X81006462Y-106112664D01*
X81127845Y-106339755D01*
X81291198Y-106538802D01*
X81490245Y-106702155D01*
X81717336Y-106823538D01*
X81963744Y-106898285D01*
X82155791Y-106917200D01*
X82284209Y-106917200D01*
X82476256Y-106898285D01*
X82722664Y-106823538D01*
X82949755Y-106702155D01*
X83148802Y-106538802D01*
X83312155Y-106339755D01*
X83433538Y-106112664D01*
X83490000Y-105926534D01*
X83546462Y-106112664D01*
X83667845Y-106339755D01*
X83831198Y-106538802D01*
X84030245Y-106702155D01*
X84257336Y-106823538D01*
X84503744Y-106898285D01*
X84695791Y-106917200D01*
X84824209Y-106917200D01*
X85016256Y-106898285D01*
X85262664Y-106823538D01*
X85489755Y-106702155D01*
X85688802Y-106538802D01*
X85852155Y-106339755D01*
X85973538Y-106112664D01*
X86030000Y-105926534D01*
X86086462Y-106112664D01*
X86207845Y-106339755D01*
X86371198Y-106538802D01*
X86570245Y-106702155D01*
X86797336Y-106823538D01*
X87043744Y-106898285D01*
X87235791Y-106917200D01*
X87364209Y-106917200D01*
X87556256Y-106898285D01*
X87802664Y-106823538D01*
X88029755Y-106702155D01*
X88228802Y-106538802D01*
X88392155Y-106339755D01*
X88513538Y-106112664D01*
X88570000Y-105926534D01*
X88626462Y-106112664D01*
X88747845Y-106339755D01*
X88911198Y-106538802D01*
X89110245Y-106702155D01*
X89337336Y-106823538D01*
X89583744Y-106898285D01*
X89775791Y-106917200D01*
X89904209Y-106917200D01*
X90096256Y-106898285D01*
X90342664Y-106823538D01*
X90569755Y-106702155D01*
X90768802Y-106538802D01*
X90932155Y-106339755D01*
X91053538Y-106112664D01*
X91110000Y-105926534D01*
X91166462Y-106112664D01*
X91287845Y-106339755D01*
X91451198Y-106538802D01*
X91650245Y-106702155D01*
X91877336Y-106823538D01*
X92123744Y-106898285D01*
X92315791Y-106917200D01*
X92444209Y-106917200D01*
X92636256Y-106898285D01*
X92882664Y-106823538D01*
X93109755Y-106702155D01*
X93308802Y-106538802D01*
X93472155Y-106339755D01*
X93593538Y-106112664D01*
X93650000Y-105926534D01*
X93706462Y-106112664D01*
X93827845Y-106339755D01*
X93991198Y-106538802D01*
X94190245Y-106702155D01*
X94417336Y-106823538D01*
X94663744Y-106898285D01*
X94855791Y-106917200D01*
X94984209Y-106917200D01*
X95176256Y-106898285D01*
X95422664Y-106823538D01*
X95649755Y-106702155D01*
X95848802Y-106538802D01*
X96012155Y-106339755D01*
X96133538Y-106112664D01*
X96190000Y-105926534D01*
X96246462Y-106112664D01*
X96367845Y-106339755D01*
X96531198Y-106538802D01*
X96730245Y-106702155D01*
X96957336Y-106823538D01*
X97203744Y-106898285D01*
X97395791Y-106917200D01*
X97524209Y-106917200D01*
X97716256Y-106898285D01*
X97962664Y-106823538D01*
X98189755Y-106702155D01*
X98388802Y-106538802D01*
X98552155Y-106339755D01*
X98673538Y-106112664D01*
X98748285Y-105866256D01*
X98773524Y-105610000D01*
X98748285Y-105353744D01*
X98673538Y-105107336D01*
X98552155Y-104880245D01*
X98388802Y-104681198D01*
X98189755Y-104517845D01*
X98008400Y-104420908D01*
X98008400Y-100022388D01*
X98027425Y-100003363D01*
X98105257Y-99886879D01*
X98158869Y-99757449D01*
X98186200Y-99620047D01*
X98186200Y-99479953D01*
X98158869Y-99342551D01*
X98105257Y-99213121D01*
X98027425Y-99096637D01*
X97928363Y-98997575D01*
X97811879Y-98919743D01*
X97682449Y-98866131D01*
X97545047Y-98838800D01*
X97404953Y-98838800D01*
X97267551Y-98866131D01*
X97138121Y-98919743D01*
X97021637Y-98997575D01*
X96922575Y-99096637D01*
X96844743Y-99213121D01*
X96791131Y-99342551D01*
X96763800Y-99479953D01*
X96763800Y-99620047D01*
X96791131Y-99757449D01*
X96844743Y-99886879D01*
X96922575Y-100003363D01*
X96941600Y-100022388D01*
X96941601Y-104404873D01*
X96730245Y-104517845D01*
X96531198Y-104681198D01*
X96367845Y-104880245D01*
X96246462Y-105107336D01*
X96190000Y-105293466D01*
X96133538Y-105107336D01*
X96012155Y-104880245D01*
X95848802Y-104681198D01*
X95649755Y-104517845D01*
X95422664Y-104396462D01*
X95176256Y-104321715D01*
X94984209Y-104302800D01*
X94855791Y-104302800D01*
X94663744Y-104321715D01*
X94417336Y-104396462D01*
X94190245Y-104517845D01*
X93991198Y-104681198D01*
X93827845Y-104880245D01*
X93706462Y-105107336D01*
X93650000Y-105293466D01*
X93593538Y-105107336D01*
X93472155Y-104880245D01*
X93308802Y-104681198D01*
X93109755Y-104517845D01*
X92882664Y-104396462D01*
X92636256Y-104321715D01*
X92444209Y-104302800D01*
X92315791Y-104302800D01*
X92123744Y-104321715D01*
X91877336Y-104396462D01*
X91650245Y-104517845D01*
X91573575Y-104580767D01*
X93993142Y-102161200D01*
X94020047Y-102161200D01*
X94157449Y-102133869D01*
X94286879Y-102080257D01*
X94403363Y-102002425D01*
X94502425Y-101903363D01*
X94580257Y-101786879D01*
X94633869Y-101657449D01*
X94661200Y-101520047D01*
X94661200Y-101379953D01*
X94633869Y-101242551D01*
X94580257Y-101113121D01*
X94502425Y-100996637D01*
X94475214Y-100969426D01*
X94480257Y-100961879D01*
X94533869Y-100832449D01*
X94561200Y-100695047D01*
X94561200Y-100554953D01*
X94533869Y-100417551D01*
X94480257Y-100288121D01*
X94402425Y-100171637D01*
X94330065Y-100099277D01*
X94808645Y-99620696D01*
X94828995Y-99603995D01*
X94895651Y-99522775D01*
X94945181Y-99430111D01*
X94975681Y-99329565D01*
X94983400Y-99251195D01*
X94983400Y-99251194D01*
X94985980Y-99225000D01*
X94983400Y-99198806D01*
X94983400Y-98697388D01*
X95002425Y-98678363D01*
X95080257Y-98561879D01*
X95133869Y-98432449D01*
X95161200Y-98295047D01*
X95161200Y-98154953D01*
X95133869Y-98017551D01*
X95080257Y-97888121D01*
X95002425Y-97771637D01*
X94903363Y-97672575D01*
X94786879Y-97594743D01*
X94694045Y-97556290D01*
X94711200Y-97470047D01*
X94711200Y-97404953D01*
X98913800Y-97404953D01*
X98913800Y-97545047D01*
X98941131Y-97682449D01*
X98994743Y-97811879D01*
X99072575Y-97928363D01*
X99091601Y-97947389D01*
X99091600Y-98517013D01*
X99089021Y-98543200D01*
X99091600Y-98569387D01*
X99091600Y-98569394D01*
X99099319Y-98647764D01*
X99129819Y-98748310D01*
X99179349Y-98840975D01*
X99246005Y-98922195D01*
X99266355Y-98938896D01*
X103036109Y-102708651D01*
X103052805Y-102728995D01*
X103134025Y-102795651D01*
X103226689Y-102845181D01*
X103327235Y-102875681D01*
X103405605Y-102883400D01*
X103405612Y-102883400D01*
X103431799Y-102885979D01*
X103457986Y-102883400D01*
X118352612Y-102883400D01*
X118371637Y-102902425D01*
X118488121Y-102980257D01*
X118617551Y-103033869D01*
X118754953Y-103061200D01*
X118895047Y-103061200D01*
X119032449Y-103033869D01*
X119161879Y-102980257D01*
X119278363Y-102902425D01*
X119377425Y-102803363D01*
X119455257Y-102686879D01*
X119508869Y-102557449D01*
X119536200Y-102420047D01*
X119536200Y-102279953D01*
X119508869Y-102142551D01*
X119455257Y-102013121D01*
X119377425Y-101896637D01*
X119278363Y-101797575D01*
X119161879Y-101719743D01*
X119032449Y-101666131D01*
X118895047Y-101638800D01*
X118754953Y-101638800D01*
X118617551Y-101666131D01*
X118488121Y-101719743D01*
X118371637Y-101797575D01*
X118352612Y-101816600D01*
X117601940Y-101816600D01*
X117611200Y-101770047D01*
X117611200Y-101629953D01*
X117583869Y-101492551D01*
X117530257Y-101363121D01*
X117452425Y-101246637D01*
X117353363Y-101147575D01*
X117236879Y-101069743D01*
X117107449Y-101016131D01*
X116970047Y-100988800D01*
X116829953Y-100988800D01*
X116692551Y-101016131D01*
X116563121Y-101069743D01*
X116446637Y-101147575D01*
X116427612Y-101166600D01*
X113936200Y-101166600D01*
X113936200Y-101104953D01*
X113908869Y-100967551D01*
X113855257Y-100838121D01*
X113777425Y-100721637D01*
X113678363Y-100622575D01*
X113561879Y-100544743D01*
X113432449Y-100491131D01*
X113295047Y-100463800D01*
X113154953Y-100463800D01*
X113017551Y-100491131D01*
X112888121Y-100544743D01*
X112771637Y-100622575D01*
X112752612Y-100641600D01*
X110486200Y-100641600D01*
X110486200Y-100604953D01*
X110458869Y-100467551D01*
X110405257Y-100338121D01*
X110327425Y-100221637D01*
X110228363Y-100122575D01*
X110111879Y-100044743D01*
X109982449Y-99991131D01*
X109845047Y-99963800D01*
X109704953Y-99963800D01*
X109567551Y-99991131D01*
X109438121Y-100044743D01*
X109321637Y-100122575D01*
X109302612Y-100141600D01*
X103270942Y-100141600D01*
X101408400Y-98279059D01*
X101408400Y-95879953D01*
X106438800Y-95879953D01*
X106438800Y-96020047D01*
X106466131Y-96157449D01*
X106519743Y-96286879D01*
X106534869Y-96309517D01*
X106537800Y-96339276D01*
X106537800Y-96339284D01*
X106546658Y-96429222D01*
X106581664Y-96544622D01*
X106638512Y-96650976D01*
X106667420Y-96686200D01*
X106695844Y-96720835D01*
X106695848Y-96720839D01*
X106715016Y-96744195D01*
X106738372Y-96763363D01*
X109686637Y-99711629D01*
X109705805Y-99734985D01*
X109729161Y-99754153D01*
X109729164Y-99754156D01*
X109746182Y-99768122D01*
X109799024Y-99811489D01*
X109905378Y-99868336D01*
X109982241Y-99891652D01*
X110020777Y-99903342D01*
X110031632Y-99904411D01*
X110110716Y-99912200D01*
X110110723Y-99912200D01*
X110140790Y-99915161D01*
X110170856Y-99912200D01*
X119171419Y-99912200D01*
X123918243Y-104659024D01*
X123937416Y-104682386D01*
X124030635Y-104758890D01*
X124136989Y-104815737D01*
X124252389Y-104850743D01*
X124342327Y-104859601D01*
X124342335Y-104859601D01*
X124372401Y-104862562D01*
X124402467Y-104859601D01*
X136472533Y-104859601D01*
X136502599Y-104862562D01*
X136532665Y-104859601D01*
X136532673Y-104859601D01*
X136622611Y-104850743D01*
X136738011Y-104815737D01*
X136844365Y-104758890D01*
X136937584Y-104682386D01*
X136956757Y-104659024D01*
X137873574Y-103742208D01*
X138093597Y-103962231D01*
X138365022Y-104143591D01*
X138666613Y-104268514D01*
X138986780Y-104332200D01*
X139313220Y-104332200D01*
X139633387Y-104268514D01*
X139934978Y-104143591D01*
X140206403Y-103962231D01*
X140437231Y-103731403D01*
X140618591Y-103459978D01*
X140743514Y-103158387D01*
X140807200Y-102838220D01*
X140807200Y-102511780D01*
X140743514Y-102191613D01*
X140618591Y-101890022D01*
X140437231Y-101618597D01*
X140206403Y-101387769D01*
X139934978Y-101206409D01*
X139633387Y-101081486D01*
X139313220Y-101017800D01*
X139108582Y-101017800D01*
X135302562Y-97211780D01*
X137492800Y-97211780D01*
X137492800Y-97538220D01*
X137556486Y-97858387D01*
X137681409Y-98159978D01*
X137862769Y-98431403D01*
X138093597Y-98662231D01*
X138365022Y-98843591D01*
X138666613Y-98968514D01*
X138986780Y-99032200D01*
X139313220Y-99032200D01*
X139633387Y-98968514D01*
X139934978Y-98843591D01*
X140206403Y-98662231D01*
X140437231Y-98431403D01*
X140618591Y-98159978D01*
X140743514Y-97858387D01*
X140807200Y-97538220D01*
X140807200Y-97211780D01*
X140743514Y-96891613D01*
X140618591Y-96590022D01*
X140437231Y-96318597D01*
X140206403Y-96087769D01*
X139934978Y-95906409D01*
X139633387Y-95781486D01*
X139313220Y-95717800D01*
X138986780Y-95717800D01*
X138666613Y-95781486D01*
X138365022Y-95906409D01*
X138093597Y-96087769D01*
X137862769Y-96318597D01*
X137681409Y-96590022D01*
X137556486Y-96891613D01*
X137492800Y-97211780D01*
X135302562Y-97211780D01*
X135040210Y-96949429D01*
X135033869Y-96917551D01*
X134980257Y-96788121D01*
X134902425Y-96671637D01*
X134803363Y-96572575D01*
X134686879Y-96494743D01*
X134557449Y-96441131D01*
X134420047Y-96413800D01*
X134279953Y-96413800D01*
X134142551Y-96441131D01*
X134013121Y-96494743D01*
X133896637Y-96572575D01*
X133797575Y-96671637D01*
X133719743Y-96788121D01*
X133666131Y-96917551D01*
X133638800Y-97054953D01*
X133638800Y-97195047D01*
X133666131Y-97332449D01*
X133719743Y-97461879D01*
X133797575Y-97578363D01*
X133896637Y-97677425D01*
X134013121Y-97755257D01*
X134142551Y-97808869D01*
X134174429Y-97815210D01*
X134581638Y-98222419D01*
X134561725Y-98214171D01*
X134202918Y-98142800D01*
X133837082Y-98142800D01*
X133478275Y-98214171D01*
X133140286Y-98354171D01*
X132836104Y-98557419D01*
X132577419Y-98816104D01*
X132374171Y-99120286D01*
X132234171Y-99458275D01*
X132162800Y-99817082D01*
X132162800Y-100182918D01*
X132234171Y-100541725D01*
X132374171Y-100879714D01*
X132577419Y-101183896D01*
X132836104Y-101442581D01*
X133140286Y-101645829D01*
X133478275Y-101785829D01*
X133837082Y-101857200D01*
X134202918Y-101857200D01*
X134561725Y-101785829D01*
X134899714Y-101645829D01*
X135203896Y-101442581D01*
X135462581Y-101183896D01*
X135665829Y-100879714D01*
X135805829Y-100541725D01*
X135877200Y-100182918D01*
X135877200Y-99817082D01*
X135805829Y-99458275D01*
X135797581Y-99438362D01*
X137920292Y-101561074D01*
X137862769Y-101618597D01*
X137681409Y-101890022D01*
X137556486Y-102191613D01*
X137522687Y-102361531D01*
X136249018Y-103635201D01*
X127901845Y-103635201D01*
X128045829Y-103419714D01*
X128185829Y-103081725D01*
X128257200Y-102722918D01*
X128257200Y-102357082D01*
X128185829Y-101998275D01*
X128045829Y-101660286D01*
X127842581Y-101356104D01*
X127583896Y-101097419D01*
X127279714Y-100894171D01*
X126941725Y-100754171D01*
X126582918Y-100682800D01*
X126217082Y-100682800D01*
X125858275Y-100754171D01*
X125520286Y-100894171D01*
X125216104Y-101097419D01*
X124957419Y-101356104D01*
X124754171Y-101660286D01*
X124614171Y-101998275D01*
X124542800Y-102357082D01*
X124542800Y-102722918D01*
X124614171Y-103081725D01*
X124754171Y-103419714D01*
X124898155Y-103635201D01*
X124625982Y-103635201D01*
X119879158Y-98888377D01*
X119859985Y-98865015D01*
X119766766Y-98788511D01*
X119660412Y-98731664D01*
X119545012Y-98696658D01*
X119455074Y-98687800D01*
X119455066Y-98687800D01*
X119425000Y-98684839D01*
X119394934Y-98687800D01*
X110394372Y-98687800D01*
X108983654Y-97277082D01*
X124542800Y-97277082D01*
X124542800Y-97642918D01*
X124614171Y-98001725D01*
X124754171Y-98339714D01*
X124957419Y-98643896D01*
X125216104Y-98902581D01*
X125520286Y-99105829D01*
X125858275Y-99245829D01*
X126217082Y-99317200D01*
X126582918Y-99317200D01*
X126941725Y-99245829D01*
X127279714Y-99105829D01*
X127583896Y-98902581D01*
X127842581Y-98643896D01*
X128045829Y-98339714D01*
X128185829Y-98001725D01*
X128257200Y-97642918D01*
X128257200Y-97277082D01*
X128185829Y-96918275D01*
X128045829Y-96580286D01*
X127842581Y-96276104D01*
X127583896Y-96017419D01*
X127279714Y-95814171D01*
X126941725Y-95674171D01*
X126582918Y-95602800D01*
X126217082Y-95602800D01*
X125858275Y-95674171D01*
X125520286Y-95814171D01*
X125216104Y-96017419D01*
X124957419Y-96276104D01*
X124754171Y-96580286D01*
X124614171Y-96918275D01*
X124542800Y-97277082D01*
X108983654Y-97277082D01*
X107838871Y-96132300D01*
X107861200Y-96020047D01*
X107861200Y-95879953D01*
X107833869Y-95742551D01*
X107780257Y-95613121D01*
X107702425Y-95496637D01*
X107603363Y-95397575D01*
X107486879Y-95319743D01*
X107357449Y-95266131D01*
X107220047Y-95238800D01*
X107079953Y-95238800D01*
X106942551Y-95266131D01*
X106813121Y-95319743D01*
X106696637Y-95397575D01*
X106597575Y-95496637D01*
X106519743Y-95613121D01*
X106466131Y-95742551D01*
X106438800Y-95879953D01*
X101408400Y-95879953D01*
X101408400Y-95360404D01*
X101410980Y-95334210D01*
X101401789Y-95240891D01*
X101400681Y-95229645D01*
X101370181Y-95129099D01*
X101320651Y-95036435D01*
X101253995Y-94955215D01*
X101233645Y-94938514D01*
X100960060Y-94664929D01*
X100983869Y-94607449D01*
X101011200Y-94470047D01*
X101011200Y-94329953D01*
X100983869Y-94192551D01*
X100930257Y-94063121D01*
X100852425Y-93946637D01*
X100753363Y-93847575D01*
X100636879Y-93769743D01*
X100507449Y-93716131D01*
X100370047Y-93688800D01*
X100229953Y-93688800D01*
X100092551Y-93716131D01*
X99963121Y-93769743D01*
X99846637Y-93847575D01*
X99747575Y-93946637D01*
X99669743Y-94063121D01*
X99616131Y-94192551D01*
X99588800Y-94329953D01*
X99588800Y-94470047D01*
X99616131Y-94607449D01*
X99669743Y-94736879D01*
X99747575Y-94853363D01*
X99781431Y-94887219D01*
X99804819Y-94964320D01*
X99843366Y-95036435D01*
X99854350Y-95056985D01*
X99866707Y-95072042D01*
X99904307Y-95117858D01*
X99904310Y-95117861D01*
X99921006Y-95138205D01*
X99941350Y-95154901D01*
X100076371Y-95289922D01*
X99945047Y-95263800D01*
X99804953Y-95263800D01*
X99667551Y-95291131D01*
X99538121Y-95344743D01*
X99421637Y-95422575D01*
X99322575Y-95521637D01*
X99244743Y-95638121D01*
X99191131Y-95767551D01*
X99163800Y-95904953D01*
X99163800Y-96045047D01*
X99191131Y-96182449D01*
X99204496Y-96214716D01*
X99197575Y-96221637D01*
X99119743Y-96338121D01*
X99066131Y-96467551D01*
X99038800Y-96604953D01*
X99038800Y-96745047D01*
X99066131Y-96882449D01*
X99108786Y-96985426D01*
X99072575Y-97021637D01*
X98994743Y-97138121D01*
X98941131Y-97267551D01*
X98913800Y-97404953D01*
X94711200Y-97404953D01*
X94711200Y-97329953D01*
X94683869Y-97192551D01*
X94630257Y-97063121D01*
X94552425Y-96946637D01*
X94453363Y-96847575D01*
X94336879Y-96769743D01*
X94207449Y-96716131D01*
X94070047Y-96688800D01*
X93929953Y-96688800D01*
X93792551Y-96716131D01*
X93663121Y-96769743D01*
X93546637Y-96847575D01*
X93447575Y-96946637D01*
X93369743Y-97063121D01*
X93316131Y-97192551D01*
X93288800Y-97329953D01*
X93288800Y-97377833D01*
X93250820Y-97448889D01*
X93220320Y-97549435D01*
X93212601Y-97627805D01*
X93212601Y-97627812D01*
X93210022Y-97653999D01*
X93212601Y-97680186D01*
X93212602Y-99225058D01*
X89354095Y-103083566D01*
X82701628Y-103083566D01*
X82675434Y-103080986D01*
X82649240Y-103083566D01*
X82649239Y-103083566D01*
X82570869Y-103091285D01*
X82470323Y-103121785D01*
X82377659Y-103171315D01*
X82296439Y-103237971D01*
X82279741Y-103258318D01*
X80954241Y-104583818D01*
X80911987Y-104504764D01*
X80854853Y-104435147D01*
X80785236Y-104378013D01*
X80705809Y-104335559D01*
X80619627Y-104309415D01*
X80530000Y-104300588D01*
X78883798Y-104300588D01*
X80670776Y-102513610D01*
X80702653Y-102507269D01*
X80832083Y-102453657D01*
X80948567Y-102375825D01*
X81047629Y-102276763D01*
X81125461Y-102160279D01*
X81179073Y-102030849D01*
X81206404Y-101893447D01*
X81206404Y-101753353D01*
X81179073Y-101615951D01*
X81125461Y-101486521D01*
X81047629Y-101370037D01*
X80948567Y-101270975D01*
X80832083Y-101193143D01*
X80702653Y-101139531D01*
X80565251Y-101112200D01*
X80425157Y-101112200D01*
X80287755Y-101139531D01*
X80158325Y-101193143D01*
X80041841Y-101270975D01*
X79942779Y-101370037D01*
X79864947Y-101486521D01*
X79811335Y-101615951D01*
X79804994Y-101647828D01*
X74455023Y-106997800D01*
X68038582Y-106997800D01*
X66959157Y-105918376D01*
X66939985Y-105895015D01*
X66846766Y-105818511D01*
X66740412Y-105761664D01*
X66625012Y-105726658D01*
X66535074Y-105717800D01*
X66535066Y-105717800D01*
X66505000Y-105714839D01*
X66474934Y-105717800D01*
X64616679Y-105717800D01*
X64552425Y-105621637D01*
X64453363Y-105522575D01*
X64336879Y-105444743D01*
X64207449Y-105391131D01*
X64070047Y-105363800D01*
X63929953Y-105363800D01*
X63792551Y-105391131D01*
X63663121Y-105444743D01*
X63546637Y-105522575D01*
X63447575Y-105621637D01*
X63369743Y-105738121D01*
X63316131Y-105867551D01*
X63288800Y-106004953D01*
X63288800Y-106145047D01*
X63316131Y-106282449D01*
X63369743Y-106411879D01*
X63447575Y-106528363D01*
X63546637Y-106627425D01*
X63663121Y-106705257D01*
X63792551Y-106758869D01*
X63819253Y-106764180D01*
X63912233Y-106840488D01*
X64018587Y-106897335D01*
X64082089Y-106916598D01*
X64133986Y-106932341D01*
X64144150Y-106933342D01*
X64223925Y-106941199D01*
X64223932Y-106941199D01*
X64253999Y-106944160D01*
X64284065Y-106941199D01*
X64399763Y-106941199D01*
X64409926Y-106942200D01*
X64409934Y-106942200D01*
X64440000Y-106945161D01*
X64462687Y-106942927D01*
X64371361Y-107054904D01*
X64344677Y-107095067D01*
X64317417Y-107134879D01*
X64313882Y-107141416D01*
X64213095Y-107330970D01*
X64194727Y-107375533D01*
X64175711Y-107419901D01*
X64173514Y-107427000D01*
X64161196Y-107467800D01*
X60126029Y-107467800D01*
X59815400Y-107437342D01*
X59541637Y-107354689D01*
X59289148Y-107220438D01*
X59067537Y-107039697D01*
X58885253Y-106819354D01*
X58749242Y-106567806D01*
X58664679Y-106294628D01*
X58632200Y-105985602D01*
X58632200Y-103052278D01*
X58658923Y-103140371D01*
X58764055Y-103337060D01*
X58905540Y-103509460D01*
X59077940Y-103650945D01*
X59274629Y-103756077D01*
X59488050Y-103820818D01*
X59654381Y-103837200D01*
X60115619Y-103837200D01*
X60281950Y-103820818D01*
X60495371Y-103756077D01*
X60692060Y-103650945D01*
X60864460Y-103509460D01*
X61005945Y-103337060D01*
X61016560Y-103317200D01*
X62273685Y-103317200D01*
X62297696Y-103330034D01*
X62487554Y-103387626D01*
X62635524Y-103402200D01*
X63134476Y-103402200D01*
X63282446Y-103387626D01*
X63472304Y-103330034D01*
X63647278Y-103236508D01*
X63800644Y-103110644D01*
X63926508Y-102957278D01*
X64020034Y-102782304D01*
X64077626Y-102592446D01*
X64097073Y-102395000D01*
X64093339Y-102357082D01*
X73342800Y-102357082D01*
X73342800Y-102722918D01*
X73414171Y-103081725D01*
X73554171Y-103419714D01*
X73757419Y-103723896D01*
X74016104Y-103982581D01*
X74320286Y-104185829D01*
X74658275Y-104325829D01*
X75017082Y-104397200D01*
X75382918Y-104397200D01*
X75741725Y-104325829D01*
X76079714Y-104185829D01*
X76383896Y-103982581D01*
X76642581Y-103723896D01*
X76845829Y-103419714D01*
X76985829Y-103081725D01*
X77057200Y-102722918D01*
X77057200Y-102357082D01*
X76985829Y-101998275D01*
X76845829Y-101660286D01*
X76642581Y-101356104D01*
X76383896Y-101097419D01*
X76079714Y-100894171D01*
X75741725Y-100754171D01*
X75382918Y-100682800D01*
X75017082Y-100682800D01*
X74658275Y-100754171D01*
X74320286Y-100894171D01*
X74016104Y-101097419D01*
X73757419Y-101356104D01*
X73554171Y-101660286D01*
X73414171Y-101998275D01*
X73342800Y-102357082D01*
X64093339Y-102357082D01*
X64077626Y-102197554D01*
X64020034Y-102007696D01*
X63926508Y-101832722D01*
X63800644Y-101679356D01*
X63647278Y-101553492D01*
X63472304Y-101459966D01*
X63282446Y-101402374D01*
X63134476Y-101387800D01*
X62635524Y-101387800D01*
X62487554Y-101402374D01*
X62297696Y-101459966D01*
X62122722Y-101553492D01*
X61969356Y-101679356D01*
X61843492Y-101832722D01*
X61749966Y-102007696D01*
X61724150Y-102092800D01*
X61016560Y-102092800D01*
X61005945Y-102072940D01*
X60864460Y-101900540D01*
X60692060Y-101759055D01*
X60495371Y-101653923D01*
X60281950Y-101589182D01*
X60115619Y-101572800D01*
X59654381Y-101572800D01*
X59488050Y-101589182D01*
X59274629Y-101653923D01*
X59077940Y-101759055D01*
X58905540Y-101900540D01*
X58764055Y-102072940D01*
X58658923Y-102269629D01*
X58632200Y-102357722D01*
X58632200Y-97592278D01*
X58658923Y-97680371D01*
X58764055Y-97877060D01*
X58905540Y-98049460D01*
X59077940Y-98190945D01*
X59274629Y-98296077D01*
X59488050Y-98360818D01*
X59654381Y-98377200D01*
X60115619Y-98377200D01*
X60281950Y-98360818D01*
X60495371Y-98296077D01*
X60692060Y-98190945D01*
X60864460Y-98049460D01*
X61005945Y-97877060D01*
X61016560Y-97857200D01*
X61724150Y-97857200D01*
X61749966Y-97942304D01*
X61843492Y-98117278D01*
X61969356Y-98270644D01*
X62122722Y-98396508D01*
X62297696Y-98490034D01*
X62487554Y-98547626D01*
X62635524Y-98562200D01*
X63134476Y-98562200D01*
X63282446Y-98547626D01*
X63472304Y-98490034D01*
X63647278Y-98396508D01*
X63800644Y-98270644D01*
X63926508Y-98117278D01*
X64020034Y-97942304D01*
X64077626Y-97752446D01*
X64097073Y-97555000D01*
X64077626Y-97357554D01*
X64020034Y-97167696D01*
X63926508Y-96992722D01*
X63800644Y-96839356D01*
X63647278Y-96713492D01*
X63472304Y-96619966D01*
X63282446Y-96562374D01*
X63134476Y-96547800D01*
X62635524Y-96547800D01*
X62487554Y-96562374D01*
X62297696Y-96619966D01*
X62273685Y-96632800D01*
X61016560Y-96632800D01*
X61005945Y-96612940D01*
X60864460Y-96440540D01*
X60692060Y-96299055D01*
X60495371Y-96193923D01*
X60281950Y-96129182D01*
X60115619Y-96112800D01*
X59654381Y-96112800D01*
X59488050Y-96129182D01*
X59274629Y-96193923D01*
X59077940Y-96299055D01*
X58905540Y-96440540D01*
X58764055Y-96612940D01*
X58658923Y-96809629D01*
X58632200Y-96897722D01*
X58632200Y-94026029D01*
X58662658Y-93715399D01*
X58745311Y-93441636D01*
X58879565Y-93189144D01*
X59060301Y-92967540D01*
X59280646Y-92785253D01*
X59532194Y-92649242D01*
X59805367Y-92564681D01*
X60114399Y-92532200D01*
X64161978Y-92532200D01*
X64181663Y-92594256D01*
X64181663Y-92594256D01*
G37*
X64181663Y-92594256D02*
X64200648Y-92638550D01*
X64219046Y-92683188D01*
X64222580Y-92689725D01*
X64326004Y-92877853D01*
X64353263Y-92917664D01*
X64379949Y-92957830D01*
X64384686Y-92963556D01*
X64522681Y-93128012D01*
X64557163Y-93161779D01*
X64591132Y-93195986D01*
X64596891Y-93200683D01*
X64764201Y-93335204D01*
X64804530Y-93361594D01*
X64844554Y-93388591D01*
X64851116Y-93392079D01*
X65041369Y-93491541D01*
X65086095Y-93509611D01*
X65130556Y-93528301D01*
X65137670Y-93530449D01*
X65343619Y-93591063D01*
X65391034Y-93600108D01*
X65438251Y-93609800D01*
X65445647Y-93610526D01*
X65659445Y-93629983D01*
X65707679Y-93629646D01*
X65755912Y-93629983D01*
X65763308Y-93629258D01*
X65976815Y-93606818D01*
X66024099Y-93597112D01*
X66071450Y-93588079D01*
X66078564Y-93585932D01*
X66283645Y-93522448D01*
X66328126Y-93503750D01*
X66372833Y-93485687D01*
X66379394Y-93482198D01*
X66568239Y-93380090D01*
X66608212Y-93353128D01*
X66648589Y-93326706D01*
X66654348Y-93322009D01*
X66819763Y-93185167D01*
X66853754Y-93150938D01*
X66888217Y-93117189D01*
X66892954Y-93111463D01*
X67028639Y-92945096D01*
X67055323Y-92904933D01*
X67082583Y-92865121D01*
X67086117Y-92858584D01*
X67186905Y-92669031D01*
X67205278Y-92624454D01*
X67224289Y-92580099D01*
X67226486Y-92573000D01*
X67238804Y-92532200D01*
X80877019Y-92532200D01*
X80630976Y-92778243D01*
X80607614Y-92797416D01*
X80531110Y-92890636D01*
X80474263Y-92996990D01*
X80453335Y-93065981D01*
X80439257Y-93112389D01*
X80438282Y-93122285D01*
X80430399Y-93202328D01*
X80430399Y-93202335D01*
X80427438Y-93232401D01*
X80430399Y-93262468D01*
X80430399Y-94130588D01*
X78810000Y-94130588D01*
X78720373Y-94139415D01*
X78634191Y-94165559D01*
X78554764Y-94208013D01*
X78485147Y-94265147D01*
X78428013Y-94334764D01*
X78385559Y-94414191D01*
X78359415Y-94500373D01*
X78350588Y-94590000D01*
X78350588Y-96290000D01*
X78359415Y-96379627D01*
X78385559Y-96465809D01*
X78428013Y-96545236D01*
X78485147Y-96614853D01*
X78554764Y-96671987D01*
X78634191Y-96714441D01*
X78720373Y-96740585D01*
X78810000Y-96749412D01*
X80510000Y-96749412D01*
X80599627Y-96740585D01*
X80685809Y-96714441D01*
X80765236Y-96671987D01*
X80813578Y-96632313D01*
X82793465Y-98612200D01*
X76663760Y-98612200D01*
X76845829Y-98339714D01*
X76985829Y-98001725D01*
X77057200Y-97642918D01*
X77057200Y-97277082D01*
X76985829Y-96918275D01*
X76845829Y-96580286D01*
X76642581Y-96276104D01*
X76383896Y-96017419D01*
X76079714Y-95814171D01*
X75741725Y-95674171D01*
X75382918Y-95602800D01*
X75017082Y-95602800D01*
X74658275Y-95674171D01*
X74320286Y-95814171D01*
X74016104Y-96017419D01*
X73757419Y-96276104D01*
X73554171Y-96580286D01*
X73414171Y-96918275D01*
X73342800Y-97277082D01*
X73342800Y-97642918D01*
X73414171Y-98001725D01*
X73554171Y-98339714D01*
X73736240Y-98612200D01*
X70636673Y-98612200D01*
X69328072Y-97303599D01*
X69309780Y-97281310D01*
X69220824Y-97208306D01*
X69119335Y-97154059D01*
X69009213Y-97120654D01*
X68923382Y-97112200D01*
X68923374Y-97112200D01*
X68894690Y-97109375D01*
X68866006Y-97112200D01*
X66184002Y-97112200D01*
X66155310Y-97109374D01*
X66040787Y-97120654D01*
X65930665Y-97154059D01*
X65829176Y-97208306D01*
X65762506Y-97263020D01*
X65762504Y-97263022D01*
X65740220Y-97281310D01*
X65721932Y-97303594D01*
X65563174Y-97462352D01*
X65428505Y-97462352D01*
X65291103Y-97489683D01*
X65161673Y-97543295D01*
X65045189Y-97621127D01*
X64946127Y-97720189D01*
X64868295Y-97836673D01*
X64814683Y-97966103D01*
X64787352Y-98103505D01*
X64787352Y-98243599D01*
X64814683Y-98381001D01*
X64868295Y-98510431D01*
X64946127Y-98626915D01*
X65045189Y-98725977D01*
X65161673Y-98803809D01*
X65291103Y-98857421D01*
X65313186Y-98861814D01*
X65317579Y-98883897D01*
X65371191Y-99013327D01*
X65449023Y-99129811D01*
X65548085Y-99228873D01*
X65664569Y-99306705D01*
X65793999Y-99360317D01*
X65831645Y-99367805D01*
X65794171Y-99458275D01*
X65722800Y-99817082D01*
X65722800Y-100182918D01*
X65794171Y-100541725D01*
X65934171Y-100879714D01*
X66137419Y-101183896D01*
X66396104Y-101442581D01*
X66700286Y-101645829D01*
X67038275Y-101785829D01*
X67397082Y-101857200D01*
X67762918Y-101857200D01*
X68121725Y-101785829D01*
X68459714Y-101645829D01*
X68763896Y-101442581D01*
X69022581Y-101183896D01*
X69225829Y-100879714D01*
X69365829Y-100541725D01*
X69437200Y-100182918D01*
X69437200Y-99817082D01*
X69411027Y-99685500D01*
X69771928Y-100046401D01*
X69790220Y-100068690D01*
X69879176Y-100141694D01*
X69980665Y-100195941D01*
X70090787Y-100229346D01*
X70176618Y-100237800D01*
X70176627Y-100237800D01*
X70205309Y-100240625D01*
X70233991Y-100237800D01*
X89888414Y-100237800D01*
X89983639Y-100333025D01*
X90100123Y-100410857D01*
X90229553Y-100464469D01*
X90366955Y-100491800D01*
X90507049Y-100491800D01*
X90644451Y-100464469D01*
X90773881Y-100410857D01*
X90890365Y-100333025D01*
X90989427Y-100233963D01*
X91067259Y-100117479D01*
X91120871Y-99988049D01*
X91148202Y-99850647D01*
X91148202Y-99710553D01*
X91120871Y-99573151D01*
X91067259Y-99443721D01*
X91054750Y-99425000D01*
X91067259Y-99406279D01*
X91120871Y-99276849D01*
X91148202Y-99139447D01*
X91148202Y-98999353D01*
X91120871Y-98861951D01*
X91067259Y-98732521D01*
X90989427Y-98616037D01*
X90890365Y-98516975D01*
X90773881Y-98439143D01*
X90644451Y-98385531D01*
X90507049Y-98358200D01*
X90366955Y-98358200D01*
X90229553Y-98385531D01*
X90100123Y-98439143D01*
X89983639Y-98516975D01*
X89888414Y-98612200D01*
X85336200Y-98612200D01*
X85336200Y-98592943D01*
X85308869Y-98455541D01*
X85255257Y-98326111D01*
X85177425Y-98209627D01*
X85078363Y-98110565D01*
X84961879Y-98032733D01*
X84832449Y-97979121D01*
X84695047Y-97951790D01*
X84554953Y-97951790D01*
X84417551Y-97979121D01*
X84288121Y-98032733D01*
X84261097Y-98050790D01*
X83963617Y-98050790D01*
X82598088Y-96685261D01*
X82702664Y-96653538D01*
X82929755Y-96532155D01*
X83128802Y-96368802D01*
X83292155Y-96169755D01*
X83413538Y-95942664D01*
X83470000Y-95756534D01*
X83526462Y-95942664D01*
X83647845Y-96169755D01*
X83811198Y-96368802D01*
X84010245Y-96532155D01*
X84237336Y-96653538D01*
X84483744Y-96728285D01*
X84675791Y-96747200D01*
X84804209Y-96747200D01*
X84996256Y-96728285D01*
X85242664Y-96653538D01*
X85469755Y-96532155D01*
X85668802Y-96368802D01*
X85832155Y-96169755D01*
X85953538Y-95942664D01*
X86010000Y-95756534D01*
X86066462Y-95942664D01*
X86187845Y-96169755D01*
X86351198Y-96368802D01*
X86550245Y-96532155D01*
X86777336Y-96653538D01*
X87023744Y-96728285D01*
X87215791Y-96747200D01*
X87344209Y-96747200D01*
X87536256Y-96728285D01*
X87782664Y-96653538D01*
X88009755Y-96532155D01*
X88208802Y-96368802D01*
X88372155Y-96169755D01*
X88493538Y-95942664D01*
X88550000Y-95756534D01*
X88606462Y-95942664D01*
X88727845Y-96169755D01*
X88891198Y-96368802D01*
X89090245Y-96532155D01*
X89317336Y-96653538D01*
X89563744Y-96728285D01*
X89755791Y-96747200D01*
X89884209Y-96747200D01*
X90076256Y-96728285D01*
X90289313Y-96663655D01*
X90609309Y-96983651D01*
X90626005Y-97003995D01*
X90646349Y-97020691D01*
X90646351Y-97020693D01*
X90688097Y-97054953D01*
X90707225Y-97070651D01*
X90799889Y-97120181D01*
X90900435Y-97150681D01*
X90977482Y-97158270D01*
X90996637Y-97177425D01*
X91113121Y-97255257D01*
X91242551Y-97308869D01*
X91379953Y-97336200D01*
X91520047Y-97336200D01*
X91657449Y-97308869D01*
X91786879Y-97255257D01*
X91903363Y-97177425D01*
X92002425Y-97078363D01*
X92080257Y-96961879D01*
X92133869Y-96832449D01*
X92161200Y-96695047D01*
X92161200Y-96554953D01*
X92133869Y-96417551D01*
X92080257Y-96288121D01*
X92002425Y-96171637D01*
X91903363Y-96072575D01*
X91786879Y-95994743D01*
X91657449Y-95941131D01*
X91520047Y-95913800D01*
X91379953Y-95913800D01*
X91242551Y-95941131D01*
X91124409Y-95990067D01*
X91043655Y-95909313D01*
X91108285Y-95696256D01*
X91133524Y-95440000D01*
X91108285Y-95183744D01*
X91033538Y-94937336D01*
X91009852Y-94893022D01*
X94438681Y-94893022D01*
X95288800Y-95743142D01*
X95288800Y-95770047D01*
X95316131Y-95907449D01*
X95369743Y-96036879D01*
X95447575Y-96153363D01*
X95546637Y-96252425D01*
X95663121Y-96330257D01*
X95792551Y-96383869D01*
X95929953Y-96411200D01*
X96070047Y-96411200D01*
X96207449Y-96383869D01*
X96336879Y-96330257D01*
X96453363Y-96252425D01*
X96539436Y-96166352D01*
X96597575Y-96253363D01*
X96696637Y-96352425D01*
X96813121Y-96430257D01*
X96942551Y-96483869D01*
X97079953Y-96511200D01*
X97220047Y-96511200D01*
X97357449Y-96483869D01*
X97486879Y-96430257D01*
X97603363Y-96352425D01*
X97671896Y-96283892D01*
X97792551Y-96333869D01*
X97929953Y-96361200D01*
X98070047Y-96361200D01*
X98207449Y-96333869D01*
X98336879Y-96280257D01*
X98453363Y-96202425D01*
X98552425Y-96103363D01*
X98630257Y-95986879D01*
X98683869Y-95857449D01*
X98711200Y-95720047D01*
X98711200Y-95579953D01*
X98683869Y-95442551D01*
X98630257Y-95313121D01*
X98552425Y-95196637D01*
X98453363Y-95097575D01*
X98336879Y-95019743D01*
X98207449Y-94966131D01*
X98070047Y-94938800D01*
X98043141Y-94938800D01*
X96962741Y-93858400D01*
X98327612Y-93858400D01*
X98346637Y-93877425D01*
X98463121Y-93955257D01*
X98592551Y-94008869D01*
X98729953Y-94036200D01*
X98870047Y-94036200D01*
X99007449Y-94008869D01*
X99136879Y-93955257D01*
X99253363Y-93877425D01*
X99352425Y-93778363D01*
X99430257Y-93661879D01*
X99483869Y-93532449D01*
X99511200Y-93395047D01*
X99511200Y-93254953D01*
X99483869Y-93117551D01*
X99440231Y-93012200D01*
X118156419Y-93012200D01*
X119309168Y-94164949D01*
X119274191Y-94175559D01*
X119194764Y-94218013D01*
X119125147Y-94275147D01*
X119068013Y-94344764D01*
X119025559Y-94424191D01*
X118999415Y-94510373D01*
X118990588Y-94600000D01*
X118990588Y-95003542D01*
X118973538Y-94947336D01*
X118852155Y-94720245D01*
X118688802Y-94521198D01*
X118489755Y-94357845D01*
X118262664Y-94236462D01*
X118016256Y-94161715D01*
X117824209Y-94142800D01*
X117695791Y-94142800D01*
X117503744Y-94161715D01*
X117257336Y-94236462D01*
X117030245Y-94357845D01*
X116831198Y-94521198D01*
X116667845Y-94720245D01*
X116546462Y-94947336D01*
X116490000Y-95133466D01*
X116433538Y-94947336D01*
X116312155Y-94720245D01*
X116148802Y-94521198D01*
X115949755Y-94357845D01*
X115722664Y-94236462D01*
X115476256Y-94161715D01*
X115284209Y-94142800D01*
X115155791Y-94142800D01*
X114963744Y-94161715D01*
X114717336Y-94236462D01*
X114490245Y-94357845D01*
X114291198Y-94521198D01*
X114127845Y-94720245D01*
X114006462Y-94947336D01*
X113950000Y-95133466D01*
X113893538Y-94947336D01*
X113772155Y-94720245D01*
X113608802Y-94521198D01*
X113409755Y-94357845D01*
X113182664Y-94236462D01*
X112936256Y-94161715D01*
X112744209Y-94142800D01*
X112615791Y-94142800D01*
X112423744Y-94161715D01*
X112177336Y-94236462D01*
X111950245Y-94357845D01*
X111751198Y-94521198D01*
X111587845Y-94720245D01*
X111466462Y-94947336D01*
X111410000Y-95133466D01*
X111353538Y-94947336D01*
X111232155Y-94720245D01*
X111068802Y-94521198D01*
X110869755Y-94357845D01*
X110642664Y-94236462D01*
X110396256Y-94161715D01*
X110204209Y-94142800D01*
X110075791Y-94142800D01*
X109883744Y-94161715D01*
X109637336Y-94236462D01*
X109410245Y-94357845D01*
X109211198Y-94521198D01*
X109047845Y-94720245D01*
X108926462Y-94947336D01*
X108851715Y-95193744D01*
X108826476Y-95450000D01*
X108851715Y-95706256D01*
X108926462Y-95952664D01*
X109047845Y-96179755D01*
X109211198Y-96378802D01*
X109410245Y-96542155D01*
X109637336Y-96663538D01*
X109883744Y-96738285D01*
X110075791Y-96757200D01*
X110204209Y-96757200D01*
X110396256Y-96738285D01*
X110642664Y-96663538D01*
X110869755Y-96542155D01*
X111068802Y-96378802D01*
X111232155Y-96179755D01*
X111353538Y-95952664D01*
X111410000Y-95766534D01*
X111466462Y-95952664D01*
X111587845Y-96179755D01*
X111751198Y-96378802D01*
X111950245Y-96542155D01*
X112177336Y-96663538D01*
X112423744Y-96738285D01*
X112615791Y-96757200D01*
X112744209Y-96757200D01*
X112936256Y-96738285D01*
X113182664Y-96663538D01*
X113409755Y-96542155D01*
X113608802Y-96378802D01*
X113772155Y-96179755D01*
X113893538Y-95952664D01*
X113950000Y-95766534D01*
X114006462Y-95952664D01*
X114127845Y-96179755D01*
X114291198Y-96378802D01*
X114490245Y-96542155D01*
X114717336Y-96663538D01*
X114963744Y-96738285D01*
X115155791Y-96757200D01*
X115284209Y-96757200D01*
X115476256Y-96738285D01*
X115722664Y-96663538D01*
X115949755Y-96542155D01*
X116148802Y-96378802D01*
X116312155Y-96179755D01*
X116433538Y-95952664D01*
X116490000Y-95766534D01*
X116546462Y-95952664D01*
X116667845Y-96179755D01*
X116831198Y-96378802D01*
X117030245Y-96542155D01*
X117257336Y-96663538D01*
X117503744Y-96738285D01*
X117695791Y-96757200D01*
X117824209Y-96757200D01*
X118016256Y-96738285D01*
X118262664Y-96663538D01*
X118489755Y-96542155D01*
X118688802Y-96378802D01*
X118852155Y-96179755D01*
X118973538Y-95952664D01*
X118990588Y-95896458D01*
X118990588Y-96300000D01*
X118999415Y-96389627D01*
X119025559Y-96475809D01*
X119068013Y-96555236D01*
X119125147Y-96624853D01*
X119194764Y-96681987D01*
X119274191Y-96724441D01*
X119360373Y-96750585D01*
X119450000Y-96759412D01*
X121150000Y-96759412D01*
X121239627Y-96750585D01*
X121325809Y-96724441D01*
X121405236Y-96681987D01*
X121474853Y-96624853D01*
X121531987Y-96555236D01*
X121574441Y-96475809D01*
X121600585Y-96389627D01*
X121609412Y-96300000D01*
X121609412Y-94600000D01*
X121600585Y-94510373D01*
X121574441Y-94424191D01*
X121531987Y-94344764D01*
X121474853Y-94275147D01*
X121405236Y-94218013D01*
X121325809Y-94175559D01*
X121239627Y-94149415D01*
X121150000Y-94140588D01*
X120894424Y-94140588D01*
X120882111Y-94100000D01*
X120868336Y-94054588D01*
X120811489Y-93948234D01*
X120734985Y-93855015D01*
X120711623Y-93835842D01*
X119407981Y-92532200D01*
X137461978Y-92532200D01*
X137481663Y-92594256D01*
X137500648Y-92638550D01*
X137519046Y-92683188D01*
X137522580Y-92689725D01*
X137626004Y-92877853D01*
X137653263Y-92917664D01*
X137679949Y-92957830D01*
X137684686Y-92963556D01*
X137822681Y-93128012D01*
X137857163Y-93161779D01*
X137891132Y-93195986D01*
X137896891Y-93200683D01*
X138064201Y-93335204D01*
X138104530Y-93361594D01*
X138144554Y-93388591D01*
X138151116Y-93392079D01*
X138341369Y-93491541D01*
X138386095Y-93509611D01*
X138430556Y-93528301D01*
X138437670Y-93530449D01*
X138643619Y-93591063D01*
X138691034Y-93600108D01*
X138738251Y-93609800D01*
X138745647Y-93610526D01*
X138959445Y-93629983D01*
X139007679Y-93629646D01*
X139055912Y-93629983D01*
X139063308Y-93629258D01*
X139276815Y-93606818D01*
X139324099Y-93597112D01*
X139371450Y-93588079D01*
X139378564Y-93585932D01*
X139583645Y-93522448D01*
X139628126Y-93503750D01*
X139672833Y-93485687D01*
X139679394Y-93482198D01*
X139868239Y-93380090D01*
X139908212Y-93353128D01*
X139948589Y-93326706D01*
X139954348Y-93322009D01*
X140119763Y-93185167D01*
X140153754Y-93150938D01*
X140188217Y-93117189D01*
X140192954Y-93111463D01*
X140328639Y-92945096D01*
X140355323Y-92904933D01*
X140382583Y-92865121D01*
X140386117Y-92858584D01*
X140486905Y-92669031D01*
X140505278Y-92624454D01*
X140524289Y-92580099D01*
X140526486Y-92573000D01*
X140538804Y-92532200D01*
X155211978Y-92532200D01*
X155231663Y-92594256D01*
X155250648Y-92638550D01*
X155269046Y-92683188D01*
X155272580Y-92689725D01*
X155376004Y-92877853D01*
X155403263Y-92917664D01*
X155429949Y-92957830D01*
X155434686Y-92963556D01*
X155572681Y-93128012D01*
X155607163Y-93161779D01*
X155641132Y-93195986D01*
X155646891Y-93200683D01*
X155814201Y-93335204D01*
X155854530Y-93361594D01*
X155894554Y-93388591D01*
X155901116Y-93392079D01*
X155973800Y-93430077D01*
X155973800Y-95295329D01*
X155936638Y-95332491D01*
X155822042Y-95503996D01*
X155743107Y-95694562D01*
X155702867Y-95896866D01*
X155702867Y-96103134D01*
X155743107Y-96305438D01*
X155822042Y-96496004D01*
X155936638Y-96667509D01*
X155973800Y-96704671D01*
X155973800Y-103295329D01*
X155936638Y-103332491D01*
X155822042Y-103503996D01*
X155743107Y-103694562D01*
X155702867Y-103896866D01*
X155702867Y-104103134D01*
X155743107Y-104305438D01*
X155822042Y-104496004D01*
X155936638Y-104667509D01*
X155973800Y-104704671D01*
X155973800Y-106570145D01*
X155881761Y-106619910D01*
X155841765Y-106646888D01*
X155801411Y-106673294D01*
X155795652Y-106677991D01*
X155630236Y-106814834D01*
X155596246Y-106849062D01*
X155561783Y-106882811D01*
X155557046Y-106888537D01*
X155421361Y-107054904D01*
X155394677Y-107095067D01*
X155367417Y-107134879D01*
X155363882Y-107141416D01*
X155263095Y-107330970D01*
X155244727Y-107375533D01*
X155225711Y-107419901D01*
X155223514Y-107427000D01*
X155211196Y-107467800D01*
X140433612Y-107467800D01*
X140426422Y-107445135D01*
X140407430Y-107400823D01*
X140389040Y-107356205D01*
X140385505Y-107349668D01*
X140291483Y-107178643D01*
X140264234Y-107138847D01*
X140237539Y-107098668D01*
X140232802Y-107092942D01*
X140107352Y-106943436D01*
X140072906Y-106909704D01*
X140038899Y-106875459D01*
X140033140Y-106870762D01*
X139881041Y-106748472D01*
X139840682Y-106722062D01*
X139800692Y-106695088D01*
X139794130Y-106691599D01*
X139621175Y-106601179D01*
X139576469Y-106583117D01*
X139531981Y-106564416D01*
X139524867Y-106562269D01*
X139337642Y-106507166D01*
X139290238Y-106498123D01*
X139243013Y-106488429D01*
X139235617Y-106487703D01*
X139041255Y-106470014D01*
X138993014Y-106470351D01*
X138944783Y-106470015D01*
X138937387Y-106470740D01*
X138743290Y-106491141D01*
X138696071Y-106500834D01*
X138648661Y-106509878D01*
X138641547Y-106512026D01*
X138455109Y-106569738D01*
X138410649Y-106588427D01*
X138365919Y-106606499D01*
X138359357Y-106609988D01*
X138187681Y-106702813D01*
X138147706Y-106729776D01*
X138107328Y-106756199D01*
X138101569Y-106760896D01*
X137951191Y-106885300D01*
X137917203Y-106919526D01*
X137882741Y-106953274D01*
X137878004Y-106959000D01*
X137754654Y-107110242D01*
X137727968Y-107150408D01*
X137700709Y-107190219D01*
X137697174Y-107196755D01*
X137605549Y-107369078D01*
X137587161Y-107413689D01*
X137568166Y-107458009D01*
X137565971Y-107465101D01*
X137565968Y-107465108D01*
X137565967Y-107465115D01*
X137565156Y-107467800D01*
X135697981Y-107467800D01*
X136475572Y-106690210D01*
X136507449Y-106683869D01*
X136636879Y-106630257D01*
X136753363Y-106552425D01*
X136852425Y-106453363D01*
X136930257Y-106336879D01*
X136983869Y-106207449D01*
X137011200Y-106070047D01*
X137011200Y-105929953D01*
X136983869Y-105792551D01*
X136930257Y-105663121D01*
X136852425Y-105546637D01*
X136753363Y-105447575D01*
X136636879Y-105369743D01*
X136507449Y-105316131D01*
X136370047Y-105288800D01*
X136229953Y-105288800D01*
X136092551Y-105316131D01*
X135963121Y-105369743D01*
X135846637Y-105447575D01*
X135747575Y-105546637D01*
X135669743Y-105663121D01*
X135616131Y-105792551D01*
X135609790Y-105824428D01*
X134436419Y-106997800D01*
X114707982Y-106997800D01*
X114846190Y-106859592D01*
X114973744Y-106898285D01*
X115165791Y-106917200D01*
X115294209Y-106917200D01*
X115486256Y-106898285D01*
X115732664Y-106823538D01*
X115959755Y-106702155D01*
X116158802Y-106538802D01*
X116322155Y-106339755D01*
X116443538Y-106112664D01*
X116518285Y-105866256D01*
X116543524Y-105610000D01*
X118996476Y-105610000D01*
X119021715Y-105866256D01*
X119096462Y-106112664D01*
X119217845Y-106339755D01*
X119381198Y-106538802D01*
X119580245Y-106702155D01*
X119807336Y-106823538D01*
X120053744Y-106898285D01*
X120245791Y-106917200D01*
X120374209Y-106917200D01*
X120566256Y-106898285D01*
X120812664Y-106823538D01*
X121039755Y-106702155D01*
X121238802Y-106538802D01*
X121402155Y-106339755D01*
X121523538Y-106112664D01*
X121598285Y-105866256D01*
X121623524Y-105610000D01*
X121598285Y-105353744D01*
X121523538Y-105107336D01*
X121402155Y-104880245D01*
X121238802Y-104681198D01*
X121039755Y-104517845D01*
X120812664Y-104396462D01*
X120566256Y-104321715D01*
X120374209Y-104302800D01*
X120245791Y-104302800D01*
X120053744Y-104321715D01*
X119807336Y-104396462D01*
X119580245Y-104517845D01*
X119381198Y-104681198D01*
X119217845Y-104880245D01*
X119096462Y-105107336D01*
X119021715Y-105353744D01*
X118996476Y-105610000D01*
X116543524Y-105610000D01*
X116518285Y-105353744D01*
X116443538Y-105107336D01*
X116322155Y-104880245D01*
X116158802Y-104681198D01*
X115959755Y-104517845D01*
X115732664Y-104396462D01*
X115486256Y-104321715D01*
X115294209Y-104302800D01*
X115165791Y-104302800D01*
X114973744Y-104321715D01*
X114727336Y-104396462D01*
X114500245Y-104517845D01*
X114301198Y-104681198D01*
X114137845Y-104880245D01*
X114016462Y-105107336D01*
X113999412Y-105163542D01*
X113999412Y-104760000D01*
X113990585Y-104670373D01*
X113964441Y-104584191D01*
X113921987Y-104504764D01*
X113864853Y-104435147D01*
X113795236Y-104378013D01*
X113715809Y-104335559D01*
X113629627Y-104309415D01*
X113540000Y-104300588D01*
X111840000Y-104300588D01*
X111750373Y-104309415D01*
X111664191Y-104335559D01*
X111584764Y-104378013D01*
X111515147Y-104435147D01*
X111458013Y-104504764D01*
X111415559Y-104584191D01*
X111389415Y-104670373D01*
X111380588Y-104760000D01*
X111380588Y-106460000D01*
X111389415Y-106549627D01*
X111415559Y-106635809D01*
X111458013Y-106715236D01*
X111515147Y-106784853D01*
X111584764Y-106841987D01*
X111664191Y-106884441D01*
X111750373Y-106910585D01*
X111840000Y-106919412D01*
X113054807Y-106919412D01*
X112976419Y-106997800D01*
X102461200Y-106997800D01*
X102461200Y-106904953D01*
X102433869Y-106767551D01*
X102380257Y-106638121D01*
X102302425Y-106521637D01*
X102203363Y-106422575D01*
X102086879Y-106344743D01*
X101957449Y-106291131D01*
X101820047Y-106263800D01*
X101793142Y-106263800D01*
X99636200Y-104106859D01*
X99636200Y-104079953D01*
X99608869Y-103942551D01*
X99555257Y-103813121D01*
X99477425Y-103696637D01*
X99378363Y-103597575D01*
X99261879Y-103519743D01*
X99132449Y-103466131D01*
X98995047Y-103438800D01*
X98854953Y-103438800D01*
X98717551Y-103466131D01*
X98588121Y-103519743D01*
X98471637Y-103597575D01*
X98372575Y-103696637D01*
X98294743Y-103813121D01*
X98241131Y-103942551D01*
X98213800Y-104079953D01*
X98213800Y-104220047D01*
X98241131Y-104357449D01*
X98294743Y-104486879D01*
X98372575Y-104603363D01*
X98471637Y-104702425D01*
X98588121Y-104780257D01*
X98717551Y-104833869D01*
X98854953Y-104861200D01*
X98881859Y-104861200D01*
X101018458Y-106997800D01*
X76186585Y-106997800D01*
X78370588Y-104813798D01*
X78370588Y-106460000D01*
X78379415Y-106549627D01*
X78405559Y-106635809D01*
X78448013Y-106715236D01*
X78505147Y-106784853D01*
X78574764Y-106841987D01*
X78654191Y-106884441D01*
X78740373Y-106910585D01*
X78830000Y-106919412D01*
X80530000Y-106919412D01*
X80619627Y-106910585D01*
X80705809Y-106884441D01*
X80785236Y-106841987D01*
X80854853Y-106784853D01*
X80911987Y-106715236D01*
X80954441Y-106635809D01*
X80980585Y-106549627D01*
X80989412Y-106460000D01*
X80989412Y-106056458D01*
X81006462Y-106112664D01*
X81127845Y-106339755D01*
X81291198Y-106538802D01*
X81490245Y-106702155D01*
X81717336Y-106823538D01*
X81963744Y-106898285D01*
X82155791Y-106917200D01*
X82284209Y-106917200D01*
X82476256Y-106898285D01*
X82722664Y-106823538D01*
X82949755Y-106702155D01*
X83148802Y-106538802D01*
X83312155Y-106339755D01*
X83433538Y-106112664D01*
X83490000Y-105926534D01*
X83546462Y-106112664D01*
X83667845Y-106339755D01*
X83831198Y-106538802D01*
X84030245Y-106702155D01*
X84257336Y-106823538D01*
X84503744Y-106898285D01*
X84695791Y-106917200D01*
X84824209Y-106917200D01*
X85016256Y-106898285D01*
X85262664Y-106823538D01*
X85489755Y-106702155D01*
X85688802Y-106538802D01*
X85852155Y-106339755D01*
X85973538Y-106112664D01*
X86030000Y-105926534D01*
X86086462Y-106112664D01*
X86207845Y-106339755D01*
X86371198Y-106538802D01*
X86570245Y-106702155D01*
X86797336Y-106823538D01*
X87043744Y-106898285D01*
X87235791Y-106917200D01*
X87364209Y-106917200D01*
X87556256Y-106898285D01*
X87802664Y-106823538D01*
X88029755Y-106702155D01*
X88228802Y-106538802D01*
X88392155Y-106339755D01*
X88513538Y-106112664D01*
X88570000Y-105926534D01*
X88626462Y-106112664D01*
X88747845Y-106339755D01*
X88911198Y-106538802D01*
X89110245Y-106702155D01*
X89337336Y-106823538D01*
X89583744Y-106898285D01*
X89775791Y-106917200D01*
X89904209Y-106917200D01*
X90096256Y-106898285D01*
X90342664Y-106823538D01*
X90569755Y-106702155D01*
X90768802Y-106538802D01*
X90932155Y-106339755D01*
X91053538Y-106112664D01*
X91110000Y-105926534D01*
X91166462Y-106112664D01*
X91287845Y-106339755D01*
X91451198Y-106538802D01*
X91650245Y-106702155D01*
X91877336Y-106823538D01*
X92123744Y-106898285D01*
X92315791Y-106917200D01*
X92444209Y-106917200D01*
X92636256Y-106898285D01*
X92882664Y-106823538D01*
X93109755Y-106702155D01*
X93308802Y-106538802D01*
X93472155Y-106339755D01*
X93593538Y-106112664D01*
X93650000Y-105926534D01*
X93706462Y-106112664D01*
X93827845Y-106339755D01*
X93991198Y-106538802D01*
X94190245Y-106702155D01*
X94417336Y-106823538D01*
X94663744Y-106898285D01*
X94855791Y-106917200D01*
X94984209Y-106917200D01*
X95176256Y-106898285D01*
X95422664Y-106823538D01*
X95649755Y-106702155D01*
X95848802Y-106538802D01*
X96012155Y-106339755D01*
X96133538Y-106112664D01*
X96190000Y-105926534D01*
X96246462Y-106112664D01*
X96367845Y-106339755D01*
X96531198Y-106538802D01*
X96730245Y-106702155D01*
X96957336Y-106823538D01*
X97203744Y-106898285D01*
X97395791Y-106917200D01*
X97524209Y-106917200D01*
X97716256Y-106898285D01*
X97962664Y-106823538D01*
X98189755Y-106702155D01*
X98388802Y-106538802D01*
X98552155Y-106339755D01*
X98673538Y-106112664D01*
X98748285Y-105866256D01*
X98773524Y-105610000D01*
X98748285Y-105353744D01*
X98673538Y-105107336D01*
X98552155Y-104880245D01*
X98388802Y-104681198D01*
X98189755Y-104517845D01*
X98008400Y-104420908D01*
X98008400Y-100022388D01*
X98027425Y-100003363D01*
X98105257Y-99886879D01*
X98158869Y-99757449D01*
X98186200Y-99620047D01*
X98186200Y-99479953D01*
X98158869Y-99342551D01*
X98105257Y-99213121D01*
X98027425Y-99096637D01*
X97928363Y-98997575D01*
X97811879Y-98919743D01*
X97682449Y-98866131D01*
X97545047Y-98838800D01*
X97404953Y-98838800D01*
X97267551Y-98866131D01*
X97138121Y-98919743D01*
X97021637Y-98997575D01*
X96922575Y-99096637D01*
X96844743Y-99213121D01*
X96791131Y-99342551D01*
X96763800Y-99479953D01*
X96763800Y-99620047D01*
X96791131Y-99757449D01*
X96844743Y-99886879D01*
X96922575Y-100003363D01*
X96941600Y-100022388D01*
X96941601Y-104404873D01*
X96730245Y-104517845D01*
X96531198Y-104681198D01*
X96367845Y-104880245D01*
X96246462Y-105107336D01*
X96190000Y-105293466D01*
X96133538Y-105107336D01*
X96012155Y-104880245D01*
X95848802Y-104681198D01*
X95649755Y-104517845D01*
X95422664Y-104396462D01*
X95176256Y-104321715D01*
X94984209Y-104302800D01*
X94855791Y-104302800D01*
X94663744Y-104321715D01*
X94417336Y-104396462D01*
X94190245Y-104517845D01*
X93991198Y-104681198D01*
X93827845Y-104880245D01*
X93706462Y-105107336D01*
X93650000Y-105293466D01*
X93593538Y-105107336D01*
X93472155Y-104880245D01*
X93308802Y-104681198D01*
X93109755Y-104517845D01*
X92882664Y-104396462D01*
X92636256Y-104321715D01*
X92444209Y-104302800D01*
X92315791Y-104302800D01*
X92123744Y-104321715D01*
X91877336Y-104396462D01*
X91650245Y-104517845D01*
X91573575Y-104580767D01*
X93993142Y-102161200D01*
X94020047Y-102161200D01*
X94157449Y-102133869D01*
X94286879Y-102080257D01*
X94403363Y-102002425D01*
X94502425Y-101903363D01*
X94580257Y-101786879D01*
X94633869Y-101657449D01*
X94661200Y-101520047D01*
X94661200Y-101379953D01*
X94633869Y-101242551D01*
X94580257Y-101113121D01*
X94502425Y-100996637D01*
X94475214Y-100969426D01*
X94480257Y-100961879D01*
X94533869Y-100832449D01*
X94561200Y-100695047D01*
X94561200Y-100554953D01*
X94533869Y-100417551D01*
X94480257Y-100288121D01*
X94402425Y-100171637D01*
X94330065Y-100099277D01*
X94808645Y-99620696D01*
X94828995Y-99603995D01*
X94895651Y-99522775D01*
X94945181Y-99430111D01*
X94975681Y-99329565D01*
X94983400Y-99251195D01*
X94983400Y-99251194D01*
X94985980Y-99225000D01*
X94983400Y-99198806D01*
X94983400Y-98697388D01*
X95002425Y-98678363D01*
X95080257Y-98561879D01*
X95133869Y-98432449D01*
X95161200Y-98295047D01*
X95161200Y-98154953D01*
X95133869Y-98017551D01*
X95080257Y-97888121D01*
X95002425Y-97771637D01*
X94903363Y-97672575D01*
X94786879Y-97594743D01*
X94694045Y-97556290D01*
X94711200Y-97470047D01*
X94711200Y-97404953D01*
X98913800Y-97404953D01*
X98913800Y-97545047D01*
X98941131Y-97682449D01*
X98994743Y-97811879D01*
X99072575Y-97928363D01*
X99091601Y-97947389D01*
X99091600Y-98517013D01*
X99089021Y-98543200D01*
X99091600Y-98569387D01*
X99091600Y-98569394D01*
X99099319Y-98647764D01*
X99129819Y-98748310D01*
X99179349Y-98840975D01*
X99246005Y-98922195D01*
X99266355Y-98938896D01*
X103036109Y-102708651D01*
X103052805Y-102728995D01*
X103134025Y-102795651D01*
X103226689Y-102845181D01*
X103327235Y-102875681D01*
X103405605Y-102883400D01*
X103405612Y-102883400D01*
X103431799Y-102885979D01*
X103457986Y-102883400D01*
X118352612Y-102883400D01*
X118371637Y-102902425D01*
X118488121Y-102980257D01*
X118617551Y-103033869D01*
X118754953Y-103061200D01*
X118895047Y-103061200D01*
X119032449Y-103033869D01*
X119161879Y-102980257D01*
X119278363Y-102902425D01*
X119377425Y-102803363D01*
X119455257Y-102686879D01*
X119508869Y-102557449D01*
X119536200Y-102420047D01*
X119536200Y-102279953D01*
X119508869Y-102142551D01*
X119455257Y-102013121D01*
X119377425Y-101896637D01*
X119278363Y-101797575D01*
X119161879Y-101719743D01*
X119032449Y-101666131D01*
X118895047Y-101638800D01*
X118754953Y-101638800D01*
X118617551Y-101666131D01*
X118488121Y-101719743D01*
X118371637Y-101797575D01*
X118352612Y-101816600D01*
X117601940Y-101816600D01*
X117611200Y-101770047D01*
X117611200Y-101629953D01*
X117583869Y-101492551D01*
X117530257Y-101363121D01*
X117452425Y-101246637D01*
X117353363Y-101147575D01*
X117236879Y-101069743D01*
X117107449Y-101016131D01*
X116970047Y-100988800D01*
X116829953Y-100988800D01*
X116692551Y-101016131D01*
X116563121Y-101069743D01*
X116446637Y-101147575D01*
X116427612Y-101166600D01*
X113936200Y-101166600D01*
X113936200Y-101104953D01*
X113908869Y-100967551D01*
X113855257Y-100838121D01*
X113777425Y-100721637D01*
X113678363Y-100622575D01*
X113561879Y-100544743D01*
X113432449Y-100491131D01*
X113295047Y-100463800D01*
X113154953Y-100463800D01*
X113017551Y-100491131D01*
X112888121Y-100544743D01*
X112771637Y-100622575D01*
X112752612Y-100641600D01*
X110486200Y-100641600D01*
X110486200Y-100604953D01*
X110458869Y-100467551D01*
X110405257Y-100338121D01*
X110327425Y-100221637D01*
X110228363Y-100122575D01*
X110111879Y-100044743D01*
X109982449Y-99991131D01*
X109845047Y-99963800D01*
X109704953Y-99963800D01*
X109567551Y-99991131D01*
X109438121Y-100044743D01*
X109321637Y-100122575D01*
X109302612Y-100141600D01*
X103270942Y-100141600D01*
X101408400Y-98279059D01*
X101408400Y-95879953D01*
X106438800Y-95879953D01*
X106438800Y-96020047D01*
X106466131Y-96157449D01*
X106519743Y-96286879D01*
X106534869Y-96309517D01*
X106537800Y-96339276D01*
X106537800Y-96339284D01*
X106546658Y-96429222D01*
X106581664Y-96544622D01*
X106638512Y-96650976D01*
X106667420Y-96686200D01*
X106695844Y-96720835D01*
X106695848Y-96720839D01*
X106715016Y-96744195D01*
X106738372Y-96763363D01*
X109686637Y-99711629D01*
X109705805Y-99734985D01*
X109729161Y-99754153D01*
X109729164Y-99754156D01*
X109746182Y-99768122D01*
X109799024Y-99811489D01*
X109905378Y-99868336D01*
X109982241Y-99891652D01*
X110020777Y-99903342D01*
X110031632Y-99904411D01*
X110110716Y-99912200D01*
X110110723Y-99912200D01*
X110140790Y-99915161D01*
X110170856Y-99912200D01*
X119171419Y-99912200D01*
X123918243Y-104659024D01*
X123937416Y-104682386D01*
X124030635Y-104758890D01*
X124136989Y-104815737D01*
X124252389Y-104850743D01*
X124342327Y-104859601D01*
X124342335Y-104859601D01*
X124372401Y-104862562D01*
X124402467Y-104859601D01*
X136472533Y-104859601D01*
X136502599Y-104862562D01*
X136532665Y-104859601D01*
X136532673Y-104859601D01*
X136622611Y-104850743D01*
X136738011Y-104815737D01*
X136844365Y-104758890D01*
X136937584Y-104682386D01*
X136956757Y-104659024D01*
X137873574Y-103742208D01*
X138093597Y-103962231D01*
X138365022Y-104143591D01*
X138666613Y-104268514D01*
X138986780Y-104332200D01*
X139313220Y-104332200D01*
X139633387Y-104268514D01*
X139934978Y-104143591D01*
X140206403Y-103962231D01*
X140437231Y-103731403D01*
X140618591Y-103459978D01*
X140743514Y-103158387D01*
X140807200Y-102838220D01*
X140807200Y-102511780D01*
X140743514Y-102191613D01*
X140618591Y-101890022D01*
X140437231Y-101618597D01*
X140206403Y-101387769D01*
X139934978Y-101206409D01*
X139633387Y-101081486D01*
X139313220Y-101017800D01*
X139108582Y-101017800D01*
X135302562Y-97211780D01*
X137492800Y-97211780D01*
X137492800Y-97538220D01*
X137556486Y-97858387D01*
X137681409Y-98159978D01*
X137862769Y-98431403D01*
X138093597Y-98662231D01*
X138365022Y-98843591D01*
X138666613Y-98968514D01*
X138986780Y-99032200D01*
X139313220Y-99032200D01*
X139633387Y-98968514D01*
X139934978Y-98843591D01*
X140206403Y-98662231D01*
X140437231Y-98431403D01*
X140618591Y-98159978D01*
X140743514Y-97858387D01*
X140807200Y-97538220D01*
X140807200Y-97211780D01*
X140743514Y-96891613D01*
X140618591Y-96590022D01*
X140437231Y-96318597D01*
X140206403Y-96087769D01*
X139934978Y-95906409D01*
X139633387Y-95781486D01*
X139313220Y-95717800D01*
X138986780Y-95717800D01*
X138666613Y-95781486D01*
X138365022Y-95906409D01*
X138093597Y-96087769D01*
X137862769Y-96318597D01*
X137681409Y-96590022D01*
X137556486Y-96891613D01*
X137492800Y-97211780D01*
X135302562Y-97211780D01*
X135040210Y-96949429D01*
X135033869Y-96917551D01*
X134980257Y-96788121D01*
X134902425Y-96671637D01*
X134803363Y-96572575D01*
X134686879Y-96494743D01*
X134557449Y-96441131D01*
X134420047Y-96413800D01*
X134279953Y-96413800D01*
X134142551Y-96441131D01*
X134013121Y-96494743D01*
X133896637Y-96572575D01*
X133797575Y-96671637D01*
X133719743Y-96788121D01*
X133666131Y-96917551D01*
X133638800Y-97054953D01*
X133638800Y-97195047D01*
X133666131Y-97332449D01*
X133719743Y-97461879D01*
X133797575Y-97578363D01*
X133896637Y-97677425D01*
X134013121Y-97755257D01*
X134142551Y-97808869D01*
X134174429Y-97815210D01*
X134581638Y-98222419D01*
X134561725Y-98214171D01*
X134202918Y-98142800D01*
X133837082Y-98142800D01*
X133478275Y-98214171D01*
X133140286Y-98354171D01*
X132836104Y-98557419D01*
X132577419Y-98816104D01*
X132374171Y-99120286D01*
X132234171Y-99458275D01*
X132162800Y-99817082D01*
X132162800Y-100182918D01*
X132234171Y-100541725D01*
X132374171Y-100879714D01*
X132577419Y-101183896D01*
X132836104Y-101442581D01*
X133140286Y-101645829D01*
X133478275Y-101785829D01*
X133837082Y-101857200D01*
X134202918Y-101857200D01*
X134561725Y-101785829D01*
X134899714Y-101645829D01*
X135203896Y-101442581D01*
X135462581Y-101183896D01*
X135665829Y-100879714D01*
X135805829Y-100541725D01*
X135877200Y-100182918D01*
X135877200Y-99817082D01*
X135805829Y-99458275D01*
X135797581Y-99438362D01*
X137920292Y-101561074D01*
X137862769Y-101618597D01*
X137681409Y-101890022D01*
X137556486Y-102191613D01*
X137522687Y-102361531D01*
X136249018Y-103635201D01*
X127901845Y-103635201D01*
X128045829Y-103419714D01*
X128185829Y-103081725D01*
X128257200Y-102722918D01*
X128257200Y-102357082D01*
X128185829Y-101998275D01*
X128045829Y-101660286D01*
X127842581Y-101356104D01*
X127583896Y-101097419D01*
X127279714Y-100894171D01*
X126941725Y-100754171D01*
X126582918Y-100682800D01*
X126217082Y-100682800D01*
X125858275Y-100754171D01*
X125520286Y-100894171D01*
X125216104Y-101097419D01*
X124957419Y-101356104D01*
X124754171Y-101660286D01*
X124614171Y-101998275D01*
X124542800Y-102357082D01*
X124542800Y-102722918D01*
X124614171Y-103081725D01*
X124754171Y-103419714D01*
X124898155Y-103635201D01*
X124625982Y-103635201D01*
X119879158Y-98888377D01*
X119859985Y-98865015D01*
X119766766Y-98788511D01*
X119660412Y-98731664D01*
X119545012Y-98696658D01*
X119455074Y-98687800D01*
X119455066Y-98687800D01*
X119425000Y-98684839D01*
X119394934Y-98687800D01*
X110394372Y-98687800D01*
X108983654Y-97277082D01*
X124542800Y-97277082D01*
X124542800Y-97642918D01*
X124614171Y-98001725D01*
X124754171Y-98339714D01*
X124957419Y-98643896D01*
X125216104Y-98902581D01*
X125520286Y-99105829D01*
X125858275Y-99245829D01*
X126217082Y-99317200D01*
X126582918Y-99317200D01*
X126941725Y-99245829D01*
X127279714Y-99105829D01*
X127583896Y-98902581D01*
X127842581Y-98643896D01*
X128045829Y-98339714D01*
X128185829Y-98001725D01*
X128257200Y-97642918D01*
X128257200Y-97277082D01*
X128185829Y-96918275D01*
X128045829Y-96580286D01*
X127842581Y-96276104D01*
X127583896Y-96017419D01*
X127279714Y-95814171D01*
X126941725Y-95674171D01*
X126582918Y-95602800D01*
X126217082Y-95602800D01*
X125858275Y-95674171D01*
X125520286Y-95814171D01*
X125216104Y-96017419D01*
X124957419Y-96276104D01*
X124754171Y-96580286D01*
X124614171Y-96918275D01*
X124542800Y-97277082D01*
X108983654Y-97277082D01*
X107838871Y-96132300D01*
X107861200Y-96020047D01*
X107861200Y-95879953D01*
X107833869Y-95742551D01*
X107780257Y-95613121D01*
X107702425Y-95496637D01*
X107603363Y-95397575D01*
X107486879Y-95319743D01*
X107357449Y-95266131D01*
X107220047Y-95238800D01*
X107079953Y-95238800D01*
X106942551Y-95266131D01*
X106813121Y-95319743D01*
X106696637Y-95397575D01*
X106597575Y-95496637D01*
X106519743Y-95613121D01*
X106466131Y-95742551D01*
X106438800Y-95879953D01*
X101408400Y-95879953D01*
X101408400Y-95360404D01*
X101410980Y-95334210D01*
X101401789Y-95240891D01*
X101400681Y-95229645D01*
X101370181Y-95129099D01*
X101320651Y-95036435D01*
X101253995Y-94955215D01*
X101233645Y-94938514D01*
X100960060Y-94664929D01*
X100983869Y-94607449D01*
X101011200Y-94470047D01*
X101011200Y-94329953D01*
X100983869Y-94192551D01*
X100930257Y-94063121D01*
X100852425Y-93946637D01*
X100753363Y-93847575D01*
X100636879Y-93769743D01*
X100507449Y-93716131D01*
X100370047Y-93688800D01*
X100229953Y-93688800D01*
X100092551Y-93716131D01*
X99963121Y-93769743D01*
X99846637Y-93847575D01*
X99747575Y-93946637D01*
X99669743Y-94063121D01*
X99616131Y-94192551D01*
X99588800Y-94329953D01*
X99588800Y-94470047D01*
X99616131Y-94607449D01*
X99669743Y-94736879D01*
X99747575Y-94853363D01*
X99781431Y-94887219D01*
X99804819Y-94964320D01*
X99843366Y-95036435D01*
X99854350Y-95056985D01*
X99866707Y-95072042D01*
X99904307Y-95117858D01*
X99904310Y-95117861D01*
X99921006Y-95138205D01*
X99941350Y-95154901D01*
X100076371Y-95289922D01*
X99945047Y-95263800D01*
X99804953Y-95263800D01*
X99667551Y-95291131D01*
X99538121Y-95344743D01*
X99421637Y-95422575D01*
X99322575Y-95521637D01*
X99244743Y-95638121D01*
X99191131Y-95767551D01*
X99163800Y-95904953D01*
X99163800Y-96045047D01*
X99191131Y-96182449D01*
X99204496Y-96214716D01*
X99197575Y-96221637D01*
X99119743Y-96338121D01*
X99066131Y-96467551D01*
X99038800Y-96604953D01*
X99038800Y-96745047D01*
X99066131Y-96882449D01*
X99108786Y-96985426D01*
X99072575Y-97021637D01*
X98994743Y-97138121D01*
X98941131Y-97267551D01*
X98913800Y-97404953D01*
X94711200Y-97404953D01*
X94711200Y-97329953D01*
X94683869Y-97192551D01*
X94630257Y-97063121D01*
X94552425Y-96946637D01*
X94453363Y-96847575D01*
X94336879Y-96769743D01*
X94207449Y-96716131D01*
X94070047Y-96688800D01*
X93929953Y-96688800D01*
X93792551Y-96716131D01*
X93663121Y-96769743D01*
X93546637Y-96847575D01*
X93447575Y-96946637D01*
X93369743Y-97063121D01*
X93316131Y-97192551D01*
X93288800Y-97329953D01*
X93288800Y-97377833D01*
X93250820Y-97448889D01*
X93220320Y-97549435D01*
X93212601Y-97627805D01*
X93212601Y-97627812D01*
X93210022Y-97653999D01*
X93212601Y-97680186D01*
X93212602Y-99225058D01*
X89354095Y-103083566D01*
X82701628Y-103083566D01*
X82675434Y-103080986D01*
X82649240Y-103083566D01*
X82649239Y-103083566D01*
X82570869Y-103091285D01*
X82470323Y-103121785D01*
X82377659Y-103171315D01*
X82296439Y-103237971D01*
X82279741Y-103258318D01*
X80954241Y-104583818D01*
X80911987Y-104504764D01*
X80854853Y-104435147D01*
X80785236Y-104378013D01*
X80705809Y-104335559D01*
X80619627Y-104309415D01*
X80530000Y-104300588D01*
X78883798Y-104300588D01*
X80670776Y-102513610D01*
X80702653Y-102507269D01*
X80832083Y-102453657D01*
X80948567Y-102375825D01*
X81047629Y-102276763D01*
X81125461Y-102160279D01*
X81179073Y-102030849D01*
X81206404Y-101893447D01*
X81206404Y-101753353D01*
X81179073Y-101615951D01*
X81125461Y-101486521D01*
X81047629Y-101370037D01*
X80948567Y-101270975D01*
X80832083Y-101193143D01*
X80702653Y-101139531D01*
X80565251Y-101112200D01*
X80425157Y-101112200D01*
X80287755Y-101139531D01*
X80158325Y-101193143D01*
X80041841Y-101270975D01*
X79942779Y-101370037D01*
X79864947Y-101486521D01*
X79811335Y-101615951D01*
X79804994Y-101647828D01*
X74455023Y-106997800D01*
X68038582Y-106997800D01*
X66959157Y-105918376D01*
X66939985Y-105895015D01*
X66846766Y-105818511D01*
X66740412Y-105761664D01*
X66625012Y-105726658D01*
X66535074Y-105717800D01*
X66535066Y-105717800D01*
X66505000Y-105714839D01*
X66474934Y-105717800D01*
X64616679Y-105717800D01*
X64552425Y-105621637D01*
X64453363Y-105522575D01*
X64336879Y-105444743D01*
X64207449Y-105391131D01*
X64070047Y-105363800D01*
X63929953Y-105363800D01*
X63792551Y-105391131D01*
X63663121Y-105444743D01*
X63546637Y-105522575D01*
X63447575Y-105621637D01*
X63369743Y-105738121D01*
X63316131Y-105867551D01*
X63288800Y-106004953D01*
X63288800Y-106145047D01*
X63316131Y-106282449D01*
X63369743Y-106411879D01*
X63447575Y-106528363D01*
X63546637Y-106627425D01*
X63663121Y-106705257D01*
X63792551Y-106758869D01*
X63819253Y-106764180D01*
X63912233Y-106840488D01*
X64018587Y-106897335D01*
X64082089Y-106916598D01*
X64133986Y-106932341D01*
X64144150Y-106933342D01*
X64223925Y-106941199D01*
X64223932Y-106941199D01*
X64253999Y-106944160D01*
X64284065Y-106941199D01*
X64399763Y-106941199D01*
X64409926Y-106942200D01*
X64409934Y-106942200D01*
X64440000Y-106945161D01*
X64462687Y-106942927D01*
X64371361Y-107054904D01*
X64344677Y-107095067D01*
X64317417Y-107134879D01*
X64313882Y-107141416D01*
X64213095Y-107330970D01*
X64194727Y-107375533D01*
X64175711Y-107419901D01*
X64173514Y-107427000D01*
X64161196Y-107467800D01*
X60126029Y-107467800D01*
X59815400Y-107437342D01*
X59541637Y-107354689D01*
X59289148Y-107220438D01*
X59067537Y-107039697D01*
X58885253Y-106819354D01*
X58749242Y-106567806D01*
X58664679Y-106294628D01*
X58632200Y-105985602D01*
X58632200Y-103052278D01*
X58658923Y-103140371D01*
X58764055Y-103337060D01*
X58905540Y-103509460D01*
X59077940Y-103650945D01*
X59274629Y-103756077D01*
X59488050Y-103820818D01*
X59654381Y-103837200D01*
X60115619Y-103837200D01*
X60281950Y-103820818D01*
X60495371Y-103756077D01*
X60692060Y-103650945D01*
X60864460Y-103509460D01*
X61005945Y-103337060D01*
X61016560Y-103317200D01*
X62273685Y-103317200D01*
X62297696Y-103330034D01*
X62487554Y-103387626D01*
X62635524Y-103402200D01*
X63134476Y-103402200D01*
X63282446Y-103387626D01*
X63472304Y-103330034D01*
X63647278Y-103236508D01*
X63800644Y-103110644D01*
X63926508Y-102957278D01*
X64020034Y-102782304D01*
X64077626Y-102592446D01*
X64097073Y-102395000D01*
X64093339Y-102357082D01*
X73342800Y-102357082D01*
X73342800Y-102722918D01*
X73414171Y-103081725D01*
X73554171Y-103419714D01*
X73757419Y-103723896D01*
X74016104Y-103982581D01*
X74320286Y-104185829D01*
X74658275Y-104325829D01*
X75017082Y-104397200D01*
X75382918Y-104397200D01*
X75741725Y-104325829D01*
X76079714Y-104185829D01*
X76383896Y-103982581D01*
X76642581Y-103723896D01*
X76845829Y-103419714D01*
X76985829Y-103081725D01*
X77057200Y-102722918D01*
X77057200Y-102357082D01*
X76985829Y-101998275D01*
X76845829Y-101660286D01*
X76642581Y-101356104D01*
X76383896Y-101097419D01*
X76079714Y-100894171D01*
X75741725Y-100754171D01*
X75382918Y-100682800D01*
X75017082Y-100682800D01*
X74658275Y-100754171D01*
X74320286Y-100894171D01*
X74016104Y-101097419D01*
X73757419Y-101356104D01*
X73554171Y-101660286D01*
X73414171Y-101998275D01*
X73342800Y-102357082D01*
X64093339Y-102357082D01*
X64077626Y-102197554D01*
X64020034Y-102007696D01*
X63926508Y-101832722D01*
X63800644Y-101679356D01*
X63647278Y-101553492D01*
X63472304Y-101459966D01*
X63282446Y-101402374D01*
X63134476Y-101387800D01*
X62635524Y-101387800D01*
X62487554Y-101402374D01*
X62297696Y-101459966D01*
X62122722Y-101553492D01*
X61969356Y-101679356D01*
X61843492Y-101832722D01*
X61749966Y-102007696D01*
X61724150Y-102092800D01*
X61016560Y-102092800D01*
X61005945Y-102072940D01*
X60864460Y-101900540D01*
X60692060Y-101759055D01*
X60495371Y-101653923D01*
X60281950Y-101589182D01*
X60115619Y-101572800D01*
X59654381Y-101572800D01*
X59488050Y-101589182D01*
X59274629Y-101653923D01*
X59077940Y-101759055D01*
X58905540Y-101900540D01*
X58764055Y-102072940D01*
X58658923Y-102269629D01*
X58632200Y-102357722D01*
X58632200Y-97592278D01*
X58658923Y-97680371D01*
X58764055Y-97877060D01*
X58905540Y-98049460D01*
X59077940Y-98190945D01*
X59274629Y-98296077D01*
X59488050Y-98360818D01*
X59654381Y-98377200D01*
X60115619Y-98377200D01*
X60281950Y-98360818D01*
X60495371Y-98296077D01*
X60692060Y-98190945D01*
X60864460Y-98049460D01*
X61005945Y-97877060D01*
X61016560Y-97857200D01*
X61724150Y-97857200D01*
X61749966Y-97942304D01*
X61843492Y-98117278D01*
X61969356Y-98270644D01*
X62122722Y-98396508D01*
X62297696Y-98490034D01*
X62487554Y-98547626D01*
X62635524Y-98562200D01*
X63134476Y-98562200D01*
X63282446Y-98547626D01*
X63472304Y-98490034D01*
X63647278Y-98396508D01*
X63800644Y-98270644D01*
X63926508Y-98117278D01*
X64020034Y-97942304D01*
X64077626Y-97752446D01*
X64097073Y-97555000D01*
X64077626Y-97357554D01*
X64020034Y-97167696D01*
X63926508Y-96992722D01*
X63800644Y-96839356D01*
X63647278Y-96713492D01*
X63472304Y-96619966D01*
X63282446Y-96562374D01*
X63134476Y-96547800D01*
X62635524Y-96547800D01*
X62487554Y-96562374D01*
X62297696Y-96619966D01*
X62273685Y-96632800D01*
X61016560Y-96632800D01*
X61005945Y-96612940D01*
X60864460Y-96440540D01*
X60692060Y-96299055D01*
X60495371Y-96193923D01*
X60281950Y-96129182D01*
X60115619Y-96112800D01*
X59654381Y-96112800D01*
X59488050Y-96129182D01*
X59274629Y-96193923D01*
X59077940Y-96299055D01*
X58905540Y-96440540D01*
X58764055Y-96612940D01*
X58658923Y-96809629D01*
X58632200Y-96897722D01*
X58632200Y-94026029D01*
X58662658Y-93715399D01*
X58745311Y-93441636D01*
X58879565Y-93189144D01*
X59060301Y-92967540D01*
X59280646Y-92785253D01*
X59532194Y-92649242D01*
X59805367Y-92564681D01*
X60114399Y-92532200D01*
X64161978Y-92532200D01*
X64181663Y-92594256D01*
M02*
