G04 #@! TF.GenerationSoftware,KiCad,Pcbnew,(5.1.4-0-10_14)*
G04 #@! TF.CreationDate,2019-09-17T09:12:07-07:00*
G04 #@! TF.ProjectId,STM32L0xx_18650,53544d33-324c-4307-9878-5f3138363530,rev?*
G04 #@! TF.SameCoordinates,Original*
G04 #@! TF.FileFunction,Copper,L2,Inr*
G04 #@! TF.FilePolarity,Positive*
%FSLAX46Y46*%
G04 Gerber Fmt 4.6, Leading zero omitted, Abs format (unit mm)*
G04 Created by KiCad (PCBNEW (5.1.4-0-10_14)) date 2019-09-17 09:12:07*
%MOMM*%
%LPD*%
G04 APERTURE LIST*
%ADD10C,2.800000*%
%ADD11O,1.700000X1.350000*%
%ADD12O,1.500000X1.100000*%
%ADD13C,2.400000*%
%ADD14R,1.000000X1.000000*%
%ADD15O,1.000000X1.000000*%
%ADD16R,1.700000X1.700000*%
%ADD17O,1.700000X1.700000*%
%ADD18C,0.457200*%
%ADD19C,0.685800*%
%ADD20C,0.152400*%
G04 APERTURE END LIST*
D10*
X74900000Y-97460000D03*
X74900000Y-102540000D03*
X125100000Y-97460000D03*
X125100000Y-102540000D03*
X132720000Y-100000000D03*
X67280000Y-100000000D03*
D11*
X59885000Y-102705000D03*
X59885000Y-97245000D03*
D12*
X62885000Y-102395000D03*
X62885000Y-97555000D03*
D13*
X138100000Y-102650000D03*
X138100000Y-97350000D03*
D14*
X94925000Y-106200000D03*
D15*
X94925000Y-104930000D03*
X96195000Y-106200000D03*
X96195000Y-104930000D03*
X97465000Y-106200000D03*
X97465000Y-104930000D03*
X98735000Y-106200000D03*
X98735000Y-104930000D03*
X100005000Y-106200000D03*
X100005000Y-104930000D03*
D16*
X79700000Y-105600000D03*
D17*
X82240000Y-105600000D03*
X84780000Y-105600000D03*
X87320000Y-105600000D03*
X89860000Y-105600000D03*
D16*
X112700000Y-105600000D03*
D17*
X115240000Y-105600000D03*
X117780000Y-105600000D03*
X120320000Y-105600000D03*
D16*
X120300000Y-95450000D03*
D17*
X117760000Y-95450000D03*
X115220000Y-95450000D03*
X112680000Y-95450000D03*
X110140000Y-95450000D03*
D16*
X79700000Y-95450000D03*
D17*
X82240000Y-95450000D03*
X84780000Y-95450000D03*
X87320000Y-95450000D03*
X89860000Y-95450000D03*
D18*
X121350000Y-100550000D03*
X111050000Y-102050000D03*
X126050000Y-105750000D03*
X134150000Y-105800000D03*
D19*
X135275000Y-93053090D03*
D18*
X110200000Y-93600000D03*
X113800000Y-93600000D03*
X119000000Y-93650000D03*
X150900000Y-94650000D03*
X106625000Y-93575000D03*
D19*
X127350000Y-94750000D03*
D18*
X127550000Y-105625000D03*
X99275000Y-101525000D03*
X94200000Y-94575000D03*
X100450000Y-101625000D03*
X105325000Y-103925000D03*
X106275000Y-99775000D03*
X80362500Y-101612500D03*
X89500000Y-99050000D03*
X85750000Y-101850000D03*
X103800001Y-93050001D03*
X93050000Y-94975000D03*
X128900000Y-92500000D03*
X60850000Y-106375000D03*
X92375000Y-100600000D03*
X94650000Y-101350000D03*
X100725000Y-98975000D03*
X101093577Y-103574632D03*
X64050000Y-99575000D03*
X64050000Y-100225000D03*
X100325000Y-95550000D03*
X109250000Y-101600000D03*
X101825000Y-103287500D03*
X88650000Y-100200000D03*
X85150000Y-98500000D03*
X90800000Y-98950000D03*
X92325000Y-99204011D03*
X92323362Y-99798362D03*
D20*
G36*
X128118435Y-92737085D02*
G01*
X128179706Y-92885005D01*
X128268657Y-93018130D01*
X128381870Y-93131343D01*
X128514995Y-93220294D01*
X128662915Y-93281565D01*
X128819946Y-93312800D01*
X128980054Y-93312800D01*
X129137085Y-93281565D01*
X129285005Y-93220294D01*
X129418130Y-93131343D01*
X129531343Y-93018130D01*
X129620294Y-92885005D01*
X129681565Y-92737085D01*
X129697057Y-92659200D01*
X152533780Y-92659200D01*
X153923800Y-94031844D01*
X153923800Y-105968436D01*
X152551436Y-107340800D01*
X60708218Y-107340800D01*
X59244023Y-106294946D01*
X60037200Y-106294946D01*
X60037200Y-106455054D01*
X60068435Y-106612085D01*
X60129706Y-106760005D01*
X60218657Y-106893130D01*
X60331870Y-107006343D01*
X60464995Y-107095294D01*
X60612915Y-107156565D01*
X60769946Y-107187800D01*
X60930054Y-107187800D01*
X61087085Y-107156565D01*
X61235005Y-107095294D01*
X61368130Y-107006343D01*
X61481343Y-106893130D01*
X61570294Y-106760005D01*
X61631565Y-106612085D01*
X61662800Y-106455054D01*
X61662800Y-106294946D01*
X61631565Y-106137915D01*
X61570294Y-105989995D01*
X61481343Y-105856870D01*
X61368130Y-105743657D01*
X61235005Y-105654706D01*
X61087085Y-105593435D01*
X60930054Y-105562200D01*
X60769946Y-105562200D01*
X60612915Y-105593435D01*
X60464995Y-105654706D01*
X60331870Y-105743657D01*
X60218657Y-105856870D01*
X60129706Y-105989995D01*
X60068435Y-106137915D01*
X60037200Y-106294946D01*
X59244023Y-106294946D01*
X58776200Y-105960787D01*
X58776200Y-104750000D01*
X78262974Y-104750000D01*
X78262974Y-106450000D01*
X78274254Y-106564523D01*
X78307659Y-106674645D01*
X78361906Y-106776134D01*
X78434910Y-106865090D01*
X78523866Y-106938094D01*
X78625355Y-106992341D01*
X78735477Y-107025746D01*
X78850000Y-107037026D01*
X80550000Y-107037026D01*
X80664523Y-107025746D01*
X80774645Y-106992341D01*
X80876134Y-106938094D01*
X80965090Y-106865090D01*
X81038094Y-106776134D01*
X81092341Y-106674645D01*
X81125746Y-106564523D01*
X81131155Y-106509610D01*
X81220961Y-106619039D01*
X81439346Y-106798263D01*
X81688500Y-106931439D01*
X81958848Y-107013448D01*
X82169547Y-107034200D01*
X82310453Y-107034200D01*
X82521152Y-107013448D01*
X82791500Y-106931439D01*
X83040654Y-106798263D01*
X83259039Y-106619039D01*
X83438263Y-106400654D01*
X83510000Y-106266444D01*
X83581737Y-106400654D01*
X83760961Y-106619039D01*
X83979346Y-106798263D01*
X84228500Y-106931439D01*
X84498848Y-107013448D01*
X84709547Y-107034200D01*
X84850453Y-107034200D01*
X85061152Y-107013448D01*
X85331500Y-106931439D01*
X85580654Y-106798263D01*
X85799039Y-106619039D01*
X85978263Y-106400654D01*
X86050000Y-106266444D01*
X86121737Y-106400654D01*
X86300961Y-106619039D01*
X86519346Y-106798263D01*
X86768500Y-106931439D01*
X87038848Y-107013448D01*
X87249547Y-107034200D01*
X87390453Y-107034200D01*
X87601152Y-107013448D01*
X87871500Y-106931439D01*
X88120654Y-106798263D01*
X88339039Y-106619039D01*
X88518263Y-106400654D01*
X88590000Y-106266444D01*
X88661737Y-106400654D01*
X88840961Y-106619039D01*
X89059346Y-106798263D01*
X89308500Y-106931439D01*
X89578848Y-107013448D01*
X89789547Y-107034200D01*
X89930453Y-107034200D01*
X90141152Y-107013448D01*
X90411500Y-106931439D01*
X90660654Y-106798263D01*
X90879039Y-106619039D01*
X91058263Y-106400654D01*
X91191439Y-106151500D01*
X91273448Y-105881152D01*
X91301139Y-105600000D01*
X91273448Y-105318848D01*
X91191439Y-105048500D01*
X91128100Y-104930000D01*
X93835555Y-104930000D01*
X93856488Y-105142540D01*
X93918484Y-105346913D01*
X93934898Y-105377622D01*
X93882659Y-105475355D01*
X93849254Y-105585477D01*
X93837974Y-105700000D01*
X93837974Y-106700000D01*
X93849254Y-106814523D01*
X93882659Y-106924645D01*
X93936906Y-107026134D01*
X94009910Y-107115090D01*
X94098866Y-107188094D01*
X94200355Y-107242341D01*
X94310477Y-107275746D01*
X94425000Y-107287026D01*
X95425000Y-107287026D01*
X95539523Y-107275746D01*
X95649645Y-107242341D01*
X95751134Y-107188094D01*
X95840090Y-107115090D01*
X95913094Y-107026134D01*
X95967341Y-106924645D01*
X96000746Y-106814523D01*
X96012026Y-106700000D01*
X96012026Y-106200000D01*
X97645555Y-106200000D01*
X97666488Y-106412540D01*
X97728484Y-106616913D01*
X97829160Y-106805263D01*
X97964646Y-106970354D01*
X98129737Y-107105840D01*
X98318087Y-107206516D01*
X98522460Y-107268512D01*
X98681746Y-107284200D01*
X98788254Y-107284200D01*
X98947540Y-107268512D01*
X99151913Y-107206516D01*
X99340263Y-107105840D01*
X99505354Y-106970354D01*
X99640840Y-106805263D01*
X99741516Y-106616913D01*
X99803512Y-106412540D01*
X99824445Y-106200000D01*
X99804719Y-105999719D01*
X99951746Y-106014200D01*
X100058254Y-106014200D01*
X100217540Y-105998512D01*
X100421913Y-105936516D01*
X100610263Y-105835840D01*
X100775354Y-105700354D01*
X100857711Y-105600000D01*
X113798861Y-105600000D01*
X113826552Y-105881152D01*
X113908561Y-106151500D01*
X114041737Y-106400654D01*
X114220961Y-106619039D01*
X114439346Y-106798263D01*
X114688500Y-106931439D01*
X114958848Y-107013448D01*
X115169547Y-107034200D01*
X115310453Y-107034200D01*
X115521152Y-107013448D01*
X115791500Y-106931439D01*
X116040654Y-106798263D01*
X116259039Y-106619039D01*
X116438263Y-106400654D01*
X116510000Y-106266444D01*
X116581737Y-106400654D01*
X116760961Y-106619039D01*
X116979346Y-106798263D01*
X117228500Y-106931439D01*
X117498848Y-107013448D01*
X117709547Y-107034200D01*
X117850453Y-107034200D01*
X118061152Y-107013448D01*
X118331500Y-106931439D01*
X118580654Y-106798263D01*
X118799039Y-106619039D01*
X118978263Y-106400654D01*
X119050000Y-106266444D01*
X119121737Y-106400654D01*
X119300961Y-106619039D01*
X119519346Y-106798263D01*
X119768500Y-106931439D01*
X120038848Y-107013448D01*
X120249547Y-107034200D01*
X120390453Y-107034200D01*
X120601152Y-107013448D01*
X120871500Y-106931439D01*
X121120654Y-106798263D01*
X121339039Y-106619039D01*
X121518263Y-106400654D01*
X121651439Y-106151500D01*
X121733448Y-105881152D01*
X121761139Y-105600000D01*
X121755717Y-105544946D01*
X126737200Y-105544946D01*
X126737200Y-105705054D01*
X126768435Y-105862085D01*
X126829706Y-106010005D01*
X126918657Y-106143130D01*
X127031870Y-106256343D01*
X127164995Y-106345294D01*
X127312915Y-106406565D01*
X127469946Y-106437800D01*
X127630054Y-106437800D01*
X127787085Y-106406565D01*
X127935005Y-106345294D01*
X128068130Y-106256343D01*
X128181343Y-106143130D01*
X128270294Y-106010005D01*
X128331565Y-105862085D01*
X128362800Y-105705054D01*
X128362800Y-105544946D01*
X128331565Y-105387915D01*
X128270294Y-105239995D01*
X128181343Y-105106870D01*
X128068130Y-104993657D01*
X127935005Y-104904706D01*
X127787085Y-104843435D01*
X127630054Y-104812200D01*
X127469946Y-104812200D01*
X127312915Y-104843435D01*
X127164995Y-104904706D01*
X127031870Y-104993657D01*
X126918657Y-105106870D01*
X126829706Y-105239995D01*
X126768435Y-105387915D01*
X126737200Y-105544946D01*
X121755717Y-105544946D01*
X121733448Y-105318848D01*
X121651439Y-105048500D01*
X121518263Y-104799346D01*
X121339039Y-104580961D01*
X121120654Y-104401737D01*
X120871500Y-104268561D01*
X120601152Y-104186552D01*
X120390453Y-104165800D01*
X120249547Y-104165800D01*
X120038848Y-104186552D01*
X119768500Y-104268561D01*
X119519346Y-104401737D01*
X119300961Y-104580961D01*
X119121737Y-104799346D01*
X119050000Y-104933556D01*
X118978263Y-104799346D01*
X118799039Y-104580961D01*
X118580654Y-104401737D01*
X118331500Y-104268561D01*
X118061152Y-104186552D01*
X117850453Y-104165800D01*
X117709547Y-104165800D01*
X117498848Y-104186552D01*
X117228500Y-104268561D01*
X116979346Y-104401737D01*
X116760961Y-104580961D01*
X116581737Y-104799346D01*
X116510000Y-104933556D01*
X116438263Y-104799346D01*
X116259039Y-104580961D01*
X116040654Y-104401737D01*
X115791500Y-104268561D01*
X115521152Y-104186552D01*
X115310453Y-104165800D01*
X115169547Y-104165800D01*
X114958848Y-104186552D01*
X114688500Y-104268561D01*
X114439346Y-104401737D01*
X114220961Y-104580961D01*
X114041737Y-104799346D01*
X113908561Y-105048500D01*
X113826552Y-105318848D01*
X113798861Y-105600000D01*
X100857711Y-105600000D01*
X100910840Y-105535263D01*
X101011516Y-105346913D01*
X101073512Y-105142540D01*
X101094445Y-104930000D01*
X101073512Y-104717460D01*
X101011516Y-104513087D01*
X100936122Y-104372036D01*
X101013523Y-104387432D01*
X101173631Y-104387432D01*
X101330662Y-104356197D01*
X101478582Y-104294926D01*
X101611707Y-104205975D01*
X101721955Y-104095727D01*
X101744946Y-104100300D01*
X101905054Y-104100300D01*
X102062085Y-104069065D01*
X102210005Y-104007794D01*
X102343130Y-103918843D01*
X102456343Y-103805630D01*
X102545294Y-103672505D01*
X102606565Y-103524585D01*
X102637800Y-103367554D01*
X102637800Y-103207446D01*
X102606565Y-103050415D01*
X102545294Y-102902495D01*
X102456343Y-102769370D01*
X102343130Y-102656157D01*
X102210005Y-102567206D01*
X102062085Y-102505935D01*
X101905054Y-102474700D01*
X101744946Y-102474700D01*
X101587915Y-102505935D01*
X101439995Y-102567206D01*
X101306870Y-102656157D01*
X101196622Y-102766405D01*
X101173631Y-102761832D01*
X101013523Y-102761832D01*
X100856492Y-102793067D01*
X100708572Y-102854338D01*
X100575447Y-102943289D01*
X100462234Y-103056502D01*
X100373283Y-103189627D01*
X100312012Y-103337547D01*
X100280777Y-103494578D01*
X100280777Y-103654686D01*
X100312012Y-103811717D01*
X100349167Y-103901417D01*
X100217540Y-103861488D01*
X100058254Y-103845800D01*
X99951746Y-103845800D01*
X99792460Y-103861488D01*
X99588087Y-103923484D01*
X99399737Y-104024160D01*
X99234646Y-104159646D01*
X99099160Y-104324737D01*
X98998484Y-104513087D01*
X98936488Y-104717460D01*
X98915555Y-104930000D01*
X98935281Y-105130281D01*
X98788254Y-105115800D01*
X98681746Y-105115800D01*
X98522460Y-105131488D01*
X98318087Y-105193484D01*
X98129737Y-105294160D01*
X97964646Y-105429646D01*
X97829160Y-105594737D01*
X97728484Y-105783087D01*
X97666488Y-105987460D01*
X97645555Y-106200000D01*
X96012026Y-106200000D01*
X96012026Y-106001424D01*
X96141746Y-106014200D01*
X96248254Y-106014200D01*
X96407540Y-105998512D01*
X96611913Y-105936516D01*
X96800263Y-105835840D01*
X96965354Y-105700354D01*
X97100840Y-105535263D01*
X97201516Y-105346913D01*
X97263512Y-105142540D01*
X97284445Y-104930000D01*
X97263512Y-104717460D01*
X97201516Y-104513087D01*
X97100840Y-104324737D01*
X96965354Y-104159646D01*
X96800263Y-104024160D01*
X96611913Y-103923484D01*
X96407540Y-103861488D01*
X96248254Y-103845800D01*
X96141746Y-103845800D01*
X95982460Y-103861488D01*
X95778087Y-103923484D01*
X95589737Y-104024160D01*
X95560000Y-104048564D01*
X95530263Y-104024160D01*
X95341913Y-103923484D01*
X95137540Y-103861488D01*
X94978254Y-103845800D01*
X94871746Y-103845800D01*
X94712460Y-103861488D01*
X94508087Y-103923484D01*
X94319737Y-104024160D01*
X94154646Y-104159646D01*
X94019160Y-104324737D01*
X93918484Y-104513087D01*
X93856488Y-104717460D01*
X93835555Y-104930000D01*
X91128100Y-104930000D01*
X91058263Y-104799346D01*
X90879039Y-104580961D01*
X90660654Y-104401737D01*
X90411500Y-104268561D01*
X90141152Y-104186552D01*
X89930453Y-104165800D01*
X89789547Y-104165800D01*
X89578848Y-104186552D01*
X89308500Y-104268561D01*
X89059346Y-104401737D01*
X88840961Y-104580961D01*
X88661737Y-104799346D01*
X88590000Y-104933556D01*
X88518263Y-104799346D01*
X88339039Y-104580961D01*
X88120654Y-104401737D01*
X87871500Y-104268561D01*
X87601152Y-104186552D01*
X87390453Y-104165800D01*
X87249547Y-104165800D01*
X87038848Y-104186552D01*
X86768500Y-104268561D01*
X86519346Y-104401737D01*
X86300961Y-104580961D01*
X86121737Y-104799346D01*
X86050000Y-104933556D01*
X85978263Y-104799346D01*
X85799039Y-104580961D01*
X85580654Y-104401737D01*
X85331500Y-104268561D01*
X85061152Y-104186552D01*
X84850453Y-104165800D01*
X84709547Y-104165800D01*
X84498848Y-104186552D01*
X84228500Y-104268561D01*
X83979346Y-104401737D01*
X83760961Y-104580961D01*
X83581737Y-104799346D01*
X83510000Y-104933556D01*
X83438263Y-104799346D01*
X83259039Y-104580961D01*
X83040654Y-104401737D01*
X82791500Y-104268561D01*
X82521152Y-104186552D01*
X82310453Y-104165800D01*
X82169547Y-104165800D01*
X81958848Y-104186552D01*
X81688500Y-104268561D01*
X81439346Y-104401737D01*
X81220961Y-104580961D01*
X81131155Y-104690390D01*
X81125746Y-104635477D01*
X81092341Y-104525355D01*
X81038094Y-104423866D01*
X80965090Y-104334910D01*
X80876134Y-104261906D01*
X80774645Y-104207659D01*
X80664523Y-104174254D01*
X80550000Y-104162974D01*
X78850000Y-104162974D01*
X78735477Y-104174254D01*
X78625355Y-104207659D01*
X78523866Y-104261906D01*
X78434910Y-104334910D01*
X78361906Y-104423866D01*
X78307659Y-104525355D01*
X78274254Y-104635477D01*
X78262974Y-104750000D01*
X58776200Y-104750000D01*
X58776200Y-99494946D01*
X63237200Y-99494946D01*
X63237200Y-99655054D01*
X63268435Y-99812085D01*
X63304851Y-99900000D01*
X63268435Y-99987915D01*
X63237200Y-100144946D01*
X63237200Y-100305054D01*
X63268435Y-100462085D01*
X63329706Y-100610005D01*
X63418657Y-100743130D01*
X63531870Y-100856343D01*
X63664995Y-100945294D01*
X63812915Y-101006565D01*
X63969946Y-101037800D01*
X64130054Y-101037800D01*
X64287085Y-101006565D01*
X64435005Y-100945294D01*
X64568130Y-100856343D01*
X64681343Y-100743130D01*
X64770294Y-100610005D01*
X64831565Y-100462085D01*
X64862800Y-100305054D01*
X64862800Y-100144946D01*
X64857828Y-100119946D01*
X87837200Y-100119946D01*
X87837200Y-100280054D01*
X87868435Y-100437085D01*
X87929706Y-100585005D01*
X88018657Y-100718130D01*
X88131870Y-100831343D01*
X88264995Y-100920294D01*
X88412915Y-100981565D01*
X88569946Y-101012800D01*
X88730054Y-101012800D01*
X88887085Y-100981565D01*
X89035005Y-100920294D01*
X89168130Y-100831343D01*
X89281343Y-100718130D01*
X89370294Y-100585005D01*
X89431565Y-100437085D01*
X89462800Y-100280054D01*
X89462800Y-100119946D01*
X89431565Y-99962915D01*
X89370294Y-99814995D01*
X89281343Y-99681870D01*
X89168130Y-99568657D01*
X89035005Y-99479706D01*
X88887085Y-99418435D01*
X88730054Y-99387200D01*
X88569946Y-99387200D01*
X88412915Y-99418435D01*
X88264995Y-99479706D01*
X88131870Y-99568657D01*
X88018657Y-99681870D01*
X87929706Y-99814995D01*
X87868435Y-99962915D01*
X87837200Y-100119946D01*
X64857828Y-100119946D01*
X64831565Y-99987915D01*
X64795149Y-99900000D01*
X64831565Y-99812085D01*
X64862800Y-99655054D01*
X64862800Y-99494946D01*
X64831565Y-99337915D01*
X64770294Y-99189995D01*
X64681343Y-99056870D01*
X64568130Y-98943657D01*
X64435005Y-98854706D01*
X64287085Y-98793435D01*
X64130054Y-98762200D01*
X63969946Y-98762200D01*
X63812915Y-98793435D01*
X63664995Y-98854706D01*
X63531870Y-98943657D01*
X63418657Y-99056870D01*
X63329706Y-99189995D01*
X63268435Y-99337915D01*
X63237200Y-99494946D01*
X58776200Y-99494946D01*
X58776200Y-98419946D01*
X84337200Y-98419946D01*
X84337200Y-98580054D01*
X84368435Y-98737085D01*
X84429706Y-98885005D01*
X84518657Y-99018130D01*
X84631870Y-99131343D01*
X84764995Y-99220294D01*
X84912915Y-99281565D01*
X85069946Y-99312800D01*
X85230054Y-99312800D01*
X85387085Y-99281565D01*
X85535005Y-99220294D01*
X85668130Y-99131343D01*
X85781343Y-99018130D01*
X85870294Y-98885005D01*
X85876531Y-98869946D01*
X89987200Y-98869946D01*
X89987200Y-99030054D01*
X90018435Y-99187085D01*
X90079706Y-99335005D01*
X90168657Y-99468130D01*
X90281870Y-99581343D01*
X90414995Y-99670294D01*
X90562915Y-99731565D01*
X90719946Y-99762800D01*
X90880054Y-99762800D01*
X91037085Y-99731565D01*
X91185005Y-99670294D01*
X91318130Y-99581343D01*
X91431343Y-99468130D01*
X91520294Y-99335005D01*
X91521671Y-99331680D01*
X91543435Y-99441096D01*
X91567507Y-99499209D01*
X91541797Y-99561277D01*
X91510562Y-99718308D01*
X91510562Y-99878416D01*
X91541797Y-100035447D01*
X91603068Y-100183367D01*
X91643032Y-100243178D01*
X91593435Y-100362915D01*
X91562200Y-100519946D01*
X91562200Y-100680054D01*
X91593435Y-100837085D01*
X91654706Y-100985005D01*
X91743657Y-101118130D01*
X91856870Y-101231343D01*
X91989995Y-101320294D01*
X92137915Y-101381565D01*
X92294946Y-101412800D01*
X92455054Y-101412800D01*
X92612085Y-101381565D01*
X92760005Y-101320294D01*
X92835356Y-101269946D01*
X93837200Y-101269946D01*
X93837200Y-101430054D01*
X93868435Y-101587085D01*
X93929706Y-101735005D01*
X94018657Y-101868130D01*
X94131870Y-101981343D01*
X94264995Y-102070294D01*
X94412915Y-102131565D01*
X94569946Y-102162800D01*
X94730054Y-102162800D01*
X94887085Y-102131565D01*
X95035005Y-102070294D01*
X95168130Y-101981343D01*
X95281343Y-101868130D01*
X95370294Y-101735005D01*
X95431565Y-101587085D01*
X95459837Y-101444946D01*
X98462200Y-101444946D01*
X98462200Y-101605054D01*
X98493435Y-101762085D01*
X98554706Y-101910005D01*
X98643657Y-102043130D01*
X98756870Y-102156343D01*
X98889995Y-102245294D01*
X99037915Y-102306565D01*
X99194946Y-102337800D01*
X99355054Y-102337800D01*
X99512085Y-102306565D01*
X99660005Y-102245294D01*
X99793130Y-102156343D01*
X99906343Y-102043130D01*
X99995294Y-101910005D01*
X100056565Y-101762085D01*
X100087800Y-101605054D01*
X100087800Y-101519946D01*
X108437200Y-101519946D01*
X108437200Y-101680054D01*
X108468435Y-101837085D01*
X108529706Y-101985005D01*
X108618657Y-102118130D01*
X108731870Y-102231343D01*
X108864995Y-102320294D01*
X109012915Y-102381565D01*
X109169946Y-102412800D01*
X109330054Y-102412800D01*
X109487085Y-102381565D01*
X109576390Y-102344573D01*
X123115800Y-102344573D01*
X123115800Y-102735427D01*
X123192051Y-103118770D01*
X123341625Y-103479871D01*
X123558771Y-103804854D01*
X123835146Y-104081229D01*
X124160129Y-104298375D01*
X124521230Y-104447949D01*
X124904573Y-104524200D01*
X125295427Y-104524200D01*
X125678770Y-104447949D01*
X126039871Y-104298375D01*
X126364854Y-104081229D01*
X126641229Y-103804854D01*
X126858375Y-103479871D01*
X127007949Y-103118770D01*
X127084200Y-102735427D01*
X127084200Y-102474272D01*
X136315800Y-102474272D01*
X136315800Y-102825728D01*
X136384366Y-103170432D01*
X136518862Y-103495136D01*
X136714121Y-103787361D01*
X136962639Y-104035879D01*
X137254864Y-104231138D01*
X137579568Y-104365634D01*
X137924272Y-104434200D01*
X138275728Y-104434200D01*
X138620432Y-104365634D01*
X138945136Y-104231138D01*
X139237361Y-104035879D01*
X139485879Y-103787361D01*
X139681138Y-103495136D01*
X139815634Y-103170432D01*
X139884200Y-102825728D01*
X139884200Y-102474272D01*
X139815634Y-102129568D01*
X139681138Y-101804864D01*
X139485879Y-101512639D01*
X139237361Y-101264121D01*
X138945136Y-101068862D01*
X138620432Y-100934366D01*
X138275728Y-100865800D01*
X137924272Y-100865800D01*
X137579568Y-100934366D01*
X137254864Y-101068862D01*
X136962639Y-101264121D01*
X136714121Y-101512639D01*
X136518862Y-101804864D01*
X136384366Y-102129568D01*
X136315800Y-102474272D01*
X127084200Y-102474272D01*
X127084200Y-102344573D01*
X127007949Y-101961230D01*
X126858375Y-101600129D01*
X126641229Y-101275146D01*
X126364854Y-100998771D01*
X126039871Y-100781625D01*
X125678770Y-100632051D01*
X125295427Y-100555800D01*
X124904573Y-100555800D01*
X124521230Y-100632051D01*
X124160129Y-100781625D01*
X123835146Y-100998771D01*
X123558771Y-101275146D01*
X123341625Y-101600129D01*
X123192051Y-101961230D01*
X123115800Y-102344573D01*
X109576390Y-102344573D01*
X109635005Y-102320294D01*
X109768130Y-102231343D01*
X109881343Y-102118130D01*
X109970294Y-101985005D01*
X110031565Y-101837085D01*
X110062800Y-101680054D01*
X110062800Y-101519946D01*
X110031565Y-101362915D01*
X109970294Y-101214995D01*
X109881343Y-101081870D01*
X109768130Y-100968657D01*
X109635005Y-100879706D01*
X109487085Y-100818435D01*
X109330054Y-100787200D01*
X109169946Y-100787200D01*
X109012915Y-100818435D01*
X108864995Y-100879706D01*
X108731870Y-100968657D01*
X108618657Y-101081870D01*
X108529706Y-101214995D01*
X108468435Y-101362915D01*
X108437200Y-101519946D01*
X100087800Y-101519946D01*
X100087800Y-101444946D01*
X100056565Y-101287915D01*
X99995294Y-101139995D01*
X99906343Y-101006870D01*
X99793130Y-100893657D01*
X99660005Y-100804706D01*
X99512085Y-100743435D01*
X99355054Y-100712200D01*
X99194946Y-100712200D01*
X99037915Y-100743435D01*
X98889995Y-100804706D01*
X98756870Y-100893657D01*
X98643657Y-101006870D01*
X98554706Y-101139995D01*
X98493435Y-101287915D01*
X98462200Y-101444946D01*
X95459837Y-101444946D01*
X95462800Y-101430054D01*
X95462800Y-101269946D01*
X95431565Y-101112915D01*
X95370294Y-100964995D01*
X95281343Y-100831870D01*
X95168130Y-100718657D01*
X95035005Y-100629706D01*
X94887085Y-100568435D01*
X94730054Y-100537200D01*
X94569946Y-100537200D01*
X94412915Y-100568435D01*
X94264995Y-100629706D01*
X94131870Y-100718657D01*
X94018657Y-100831870D01*
X93929706Y-100964995D01*
X93868435Y-101112915D01*
X93837200Y-101269946D01*
X92835356Y-101269946D01*
X92893130Y-101231343D01*
X93006343Y-101118130D01*
X93095294Y-100985005D01*
X93156565Y-100837085D01*
X93187800Y-100680054D01*
X93187800Y-100519946D01*
X93156565Y-100362915D01*
X93095294Y-100214995D01*
X93055330Y-100155184D01*
X93104927Y-100035447D01*
X93136162Y-99878416D01*
X93136162Y-99804573D01*
X130735800Y-99804573D01*
X130735800Y-100195427D01*
X130812051Y-100578770D01*
X130961625Y-100939871D01*
X131178771Y-101264854D01*
X131455146Y-101541229D01*
X131780129Y-101758375D01*
X132141230Y-101907949D01*
X132524573Y-101984200D01*
X132915427Y-101984200D01*
X133298770Y-101907949D01*
X133659871Y-101758375D01*
X133984854Y-101541229D01*
X134261229Y-101264854D01*
X134478375Y-100939871D01*
X134627949Y-100578770D01*
X134704200Y-100195427D01*
X134704200Y-99804573D01*
X134627949Y-99421230D01*
X134478375Y-99060129D01*
X134261229Y-98735146D01*
X133984854Y-98458771D01*
X133659871Y-98241625D01*
X133298770Y-98092051D01*
X132915427Y-98015800D01*
X132524573Y-98015800D01*
X132141230Y-98092051D01*
X131780129Y-98241625D01*
X131455146Y-98458771D01*
X131178771Y-98735146D01*
X130961625Y-99060129D01*
X130812051Y-99421230D01*
X130735800Y-99804573D01*
X93136162Y-99804573D01*
X93136162Y-99718308D01*
X93104927Y-99561277D01*
X93080855Y-99503164D01*
X93106565Y-99441096D01*
X93137800Y-99284065D01*
X93137800Y-99123957D01*
X93106565Y-98966926D01*
X93076750Y-98894946D01*
X99912200Y-98894946D01*
X99912200Y-99055054D01*
X99943435Y-99212085D01*
X100004706Y-99360005D01*
X100093657Y-99493130D01*
X100206870Y-99606343D01*
X100339995Y-99695294D01*
X100487915Y-99756565D01*
X100644946Y-99787800D01*
X100805054Y-99787800D01*
X100962085Y-99756565D01*
X101110005Y-99695294D01*
X101243130Y-99606343D01*
X101356343Y-99493130D01*
X101445294Y-99360005D01*
X101506565Y-99212085D01*
X101537800Y-99055054D01*
X101537800Y-98894946D01*
X101506565Y-98737915D01*
X101445294Y-98589995D01*
X101356343Y-98456870D01*
X101243130Y-98343657D01*
X101110005Y-98254706D01*
X100962085Y-98193435D01*
X100805054Y-98162200D01*
X100644946Y-98162200D01*
X100487915Y-98193435D01*
X100339995Y-98254706D01*
X100206870Y-98343657D01*
X100093657Y-98456870D01*
X100004706Y-98589995D01*
X99943435Y-98737915D01*
X99912200Y-98894946D01*
X93076750Y-98894946D01*
X93045294Y-98819006D01*
X92956343Y-98685881D01*
X92843130Y-98572668D01*
X92710005Y-98483717D01*
X92562085Y-98422446D01*
X92405054Y-98391211D01*
X92244946Y-98391211D01*
X92087915Y-98422446D01*
X91939995Y-98483717D01*
X91806870Y-98572668D01*
X91693657Y-98685881D01*
X91604706Y-98819006D01*
X91603329Y-98822331D01*
X91581565Y-98712915D01*
X91520294Y-98564995D01*
X91431343Y-98431870D01*
X91318130Y-98318657D01*
X91185005Y-98229706D01*
X91037085Y-98168435D01*
X90880054Y-98137200D01*
X90719946Y-98137200D01*
X90562915Y-98168435D01*
X90414995Y-98229706D01*
X90281870Y-98318657D01*
X90168657Y-98431870D01*
X90079706Y-98564995D01*
X90018435Y-98712915D01*
X89987200Y-98869946D01*
X85876531Y-98869946D01*
X85931565Y-98737085D01*
X85962800Y-98580054D01*
X85962800Y-98419946D01*
X85931565Y-98262915D01*
X85870294Y-98114995D01*
X85781343Y-97981870D01*
X85668130Y-97868657D01*
X85535005Y-97779706D01*
X85387085Y-97718435D01*
X85230054Y-97687200D01*
X85069946Y-97687200D01*
X84912915Y-97718435D01*
X84764995Y-97779706D01*
X84631870Y-97868657D01*
X84518657Y-97981870D01*
X84429706Y-98114995D01*
X84368435Y-98262915D01*
X84337200Y-98419946D01*
X58776200Y-98419946D01*
X58776200Y-97264573D01*
X123115800Y-97264573D01*
X123115800Y-97655427D01*
X123192051Y-98038770D01*
X123341625Y-98399871D01*
X123558771Y-98724854D01*
X123835146Y-99001229D01*
X124160129Y-99218375D01*
X124521230Y-99367949D01*
X124904573Y-99444200D01*
X125295427Y-99444200D01*
X125678770Y-99367949D01*
X126039871Y-99218375D01*
X126364854Y-99001229D01*
X126641229Y-98724854D01*
X126858375Y-98399871D01*
X127007949Y-98038770D01*
X127084200Y-97655427D01*
X127084200Y-97264573D01*
X127066239Y-97174272D01*
X136315800Y-97174272D01*
X136315800Y-97525728D01*
X136384366Y-97870432D01*
X136518862Y-98195136D01*
X136714121Y-98487361D01*
X136962639Y-98735879D01*
X137254864Y-98931138D01*
X137579568Y-99065634D01*
X137924272Y-99134200D01*
X138275728Y-99134200D01*
X138620432Y-99065634D01*
X138945136Y-98931138D01*
X139237361Y-98735879D01*
X139485879Y-98487361D01*
X139681138Y-98195136D01*
X139815634Y-97870432D01*
X139884200Y-97525728D01*
X139884200Y-97174272D01*
X139815634Y-96829568D01*
X139681138Y-96504864D01*
X139485879Y-96212639D01*
X139237361Y-95964121D01*
X138945136Y-95768862D01*
X138620432Y-95634366D01*
X138275728Y-95565800D01*
X137924272Y-95565800D01*
X137579568Y-95634366D01*
X137254864Y-95768862D01*
X136962639Y-95964121D01*
X136714121Y-96212639D01*
X136518862Y-96504864D01*
X136384366Y-96829568D01*
X136315800Y-97174272D01*
X127066239Y-97174272D01*
X127007949Y-96881230D01*
X126858375Y-96520129D01*
X126641229Y-96195146D01*
X126364854Y-95918771D01*
X126039871Y-95701625D01*
X125678770Y-95552051D01*
X125295427Y-95475800D01*
X124904573Y-95475800D01*
X124521230Y-95552051D01*
X124160129Y-95701625D01*
X123835146Y-95918771D01*
X123558771Y-96195146D01*
X123341625Y-96520129D01*
X123192051Y-96881230D01*
X123115800Y-97264573D01*
X58776200Y-97264573D01*
X58776200Y-94600000D01*
X78262974Y-94600000D01*
X78262974Y-96300000D01*
X78274254Y-96414523D01*
X78307659Y-96524645D01*
X78361906Y-96626134D01*
X78434910Y-96715090D01*
X78523866Y-96788094D01*
X78625355Y-96842341D01*
X78735477Y-96875746D01*
X78850000Y-96887026D01*
X80550000Y-96887026D01*
X80664523Y-96875746D01*
X80774645Y-96842341D01*
X80876134Y-96788094D01*
X80965090Y-96715090D01*
X81038094Y-96626134D01*
X81092341Y-96524645D01*
X81125746Y-96414523D01*
X81131155Y-96359610D01*
X81220961Y-96469039D01*
X81439346Y-96648263D01*
X81688500Y-96781439D01*
X81958848Y-96863448D01*
X82169547Y-96884200D01*
X82310453Y-96884200D01*
X82521152Y-96863448D01*
X82791500Y-96781439D01*
X83040654Y-96648263D01*
X83259039Y-96469039D01*
X83438263Y-96250654D01*
X83510000Y-96116444D01*
X83581737Y-96250654D01*
X83760961Y-96469039D01*
X83979346Y-96648263D01*
X84228500Y-96781439D01*
X84498848Y-96863448D01*
X84709547Y-96884200D01*
X84850453Y-96884200D01*
X85061152Y-96863448D01*
X85331500Y-96781439D01*
X85580654Y-96648263D01*
X85799039Y-96469039D01*
X85978263Y-96250654D01*
X86050000Y-96116444D01*
X86121737Y-96250654D01*
X86300961Y-96469039D01*
X86519346Y-96648263D01*
X86768500Y-96781439D01*
X87038848Y-96863448D01*
X87249547Y-96884200D01*
X87390453Y-96884200D01*
X87601152Y-96863448D01*
X87871500Y-96781439D01*
X88120654Y-96648263D01*
X88339039Y-96469039D01*
X88518263Y-96250654D01*
X88590000Y-96116444D01*
X88661737Y-96250654D01*
X88840961Y-96469039D01*
X89059346Y-96648263D01*
X89308500Y-96781439D01*
X89578848Y-96863448D01*
X89789547Y-96884200D01*
X89930453Y-96884200D01*
X90141152Y-96863448D01*
X90411500Y-96781439D01*
X90660654Y-96648263D01*
X90879039Y-96469039D01*
X91058263Y-96250654D01*
X91191439Y-96001500D01*
X91273448Y-95731152D01*
X91301139Y-95450000D01*
X91273448Y-95168848D01*
X91191439Y-94898500D01*
X91189540Y-94894946D01*
X92237200Y-94894946D01*
X92237200Y-95055054D01*
X92268435Y-95212085D01*
X92329706Y-95360005D01*
X92418657Y-95493130D01*
X92531870Y-95606343D01*
X92664995Y-95695294D01*
X92812915Y-95756565D01*
X92969946Y-95787800D01*
X93130054Y-95787800D01*
X93287085Y-95756565D01*
X93435005Y-95695294D01*
X93568130Y-95606343D01*
X93681343Y-95493130D01*
X93696834Y-95469946D01*
X99512200Y-95469946D01*
X99512200Y-95630054D01*
X99543435Y-95787085D01*
X99604706Y-95935005D01*
X99693657Y-96068130D01*
X99806870Y-96181343D01*
X99939995Y-96270294D01*
X100087915Y-96331565D01*
X100244946Y-96362800D01*
X100405054Y-96362800D01*
X100562085Y-96331565D01*
X100710005Y-96270294D01*
X100843130Y-96181343D01*
X100956343Y-96068130D01*
X101045294Y-95935005D01*
X101106565Y-95787085D01*
X101137800Y-95630054D01*
X101137800Y-95469946D01*
X101133833Y-95450000D01*
X108698861Y-95450000D01*
X108726552Y-95731152D01*
X108808561Y-96001500D01*
X108941737Y-96250654D01*
X109120961Y-96469039D01*
X109339346Y-96648263D01*
X109588500Y-96781439D01*
X109858848Y-96863448D01*
X110069547Y-96884200D01*
X110210453Y-96884200D01*
X110421152Y-96863448D01*
X110691500Y-96781439D01*
X110940654Y-96648263D01*
X111159039Y-96469039D01*
X111338263Y-96250654D01*
X111410000Y-96116444D01*
X111481737Y-96250654D01*
X111660961Y-96469039D01*
X111879346Y-96648263D01*
X112128500Y-96781439D01*
X112398848Y-96863448D01*
X112609547Y-96884200D01*
X112750453Y-96884200D01*
X112961152Y-96863448D01*
X113231500Y-96781439D01*
X113480654Y-96648263D01*
X113699039Y-96469039D01*
X113878263Y-96250654D01*
X113950000Y-96116444D01*
X114021737Y-96250654D01*
X114200961Y-96469039D01*
X114419346Y-96648263D01*
X114668500Y-96781439D01*
X114938848Y-96863448D01*
X115149547Y-96884200D01*
X115290453Y-96884200D01*
X115501152Y-96863448D01*
X115771500Y-96781439D01*
X116020654Y-96648263D01*
X116239039Y-96469039D01*
X116418263Y-96250654D01*
X116490000Y-96116444D01*
X116561737Y-96250654D01*
X116740961Y-96469039D01*
X116959346Y-96648263D01*
X117208500Y-96781439D01*
X117478848Y-96863448D01*
X117689547Y-96884200D01*
X117830453Y-96884200D01*
X118041152Y-96863448D01*
X118311500Y-96781439D01*
X118560654Y-96648263D01*
X118779039Y-96469039D01*
X118868845Y-96359610D01*
X118874254Y-96414523D01*
X118907659Y-96524645D01*
X118961906Y-96626134D01*
X119034910Y-96715090D01*
X119123866Y-96788094D01*
X119225355Y-96842341D01*
X119335477Y-96875746D01*
X119450000Y-96887026D01*
X121150000Y-96887026D01*
X121264523Y-96875746D01*
X121374645Y-96842341D01*
X121476134Y-96788094D01*
X121565090Y-96715090D01*
X121638094Y-96626134D01*
X121692341Y-96524645D01*
X121725746Y-96414523D01*
X121737026Y-96300000D01*
X121737026Y-94658689D01*
X126422900Y-94658689D01*
X126422900Y-94841311D01*
X126458528Y-95020425D01*
X126528414Y-95189147D01*
X126629874Y-95340992D01*
X126759008Y-95470126D01*
X126910853Y-95571586D01*
X127079575Y-95641472D01*
X127258689Y-95677100D01*
X127441311Y-95677100D01*
X127620425Y-95641472D01*
X127789147Y-95571586D01*
X127940992Y-95470126D01*
X128070126Y-95340992D01*
X128171586Y-95189147D01*
X128241472Y-95020425D01*
X128277100Y-94841311D01*
X128277100Y-94658689D01*
X128259448Y-94569946D01*
X150087200Y-94569946D01*
X150087200Y-94730054D01*
X150118435Y-94887085D01*
X150179706Y-95035005D01*
X150268657Y-95168130D01*
X150381870Y-95281343D01*
X150514995Y-95370294D01*
X150662915Y-95431565D01*
X150819946Y-95462800D01*
X150980054Y-95462800D01*
X151137085Y-95431565D01*
X151285005Y-95370294D01*
X151418130Y-95281343D01*
X151531343Y-95168130D01*
X151620294Y-95035005D01*
X151681565Y-94887085D01*
X151712800Y-94730054D01*
X151712800Y-94569946D01*
X151681565Y-94412915D01*
X151620294Y-94264995D01*
X151531343Y-94131870D01*
X151418130Y-94018657D01*
X151285005Y-93929706D01*
X151137085Y-93868435D01*
X150980054Y-93837200D01*
X150819946Y-93837200D01*
X150662915Y-93868435D01*
X150514995Y-93929706D01*
X150381870Y-94018657D01*
X150268657Y-94131870D01*
X150179706Y-94264995D01*
X150118435Y-94412915D01*
X150087200Y-94569946D01*
X128259448Y-94569946D01*
X128241472Y-94479575D01*
X128171586Y-94310853D01*
X128070126Y-94159008D01*
X127940992Y-94029874D01*
X127789147Y-93928414D01*
X127620425Y-93858528D01*
X127441311Y-93822900D01*
X127258689Y-93822900D01*
X127079575Y-93858528D01*
X126910853Y-93928414D01*
X126759008Y-94029874D01*
X126629874Y-94159008D01*
X126528414Y-94310853D01*
X126458528Y-94479575D01*
X126422900Y-94658689D01*
X121737026Y-94658689D01*
X121737026Y-94600000D01*
X121725746Y-94485477D01*
X121692341Y-94375355D01*
X121638094Y-94273866D01*
X121565090Y-94184910D01*
X121476134Y-94111906D01*
X121374645Y-94057659D01*
X121264523Y-94024254D01*
X121150000Y-94012974D01*
X119729420Y-94012974D01*
X119781565Y-93887085D01*
X119812800Y-93730054D01*
X119812800Y-93569946D01*
X119781565Y-93412915D01*
X119720294Y-93264995D01*
X119631343Y-93131870D01*
X119518130Y-93018657D01*
X119385005Y-92929706D01*
X119237085Y-92868435D01*
X119080054Y-92837200D01*
X118919946Y-92837200D01*
X118762915Y-92868435D01*
X118614995Y-92929706D01*
X118481870Y-93018657D01*
X118368657Y-93131870D01*
X118279706Y-93264995D01*
X118218435Y-93412915D01*
X118187200Y-93569946D01*
X118187200Y-93730054D01*
X118218435Y-93887085D01*
X118279706Y-94035005D01*
X118348890Y-94138546D01*
X118311500Y-94118561D01*
X118041152Y-94036552D01*
X117830453Y-94015800D01*
X117689547Y-94015800D01*
X117478848Y-94036552D01*
X117208500Y-94118561D01*
X116959346Y-94251737D01*
X116740961Y-94430961D01*
X116561737Y-94649346D01*
X116490000Y-94783556D01*
X116418263Y-94649346D01*
X116239039Y-94430961D01*
X116020654Y-94251737D01*
X115771500Y-94118561D01*
X115501152Y-94036552D01*
X115290453Y-94015800D01*
X115149547Y-94015800D01*
X114938848Y-94036552D01*
X114668500Y-94118561D01*
X114419346Y-94251737D01*
X114200961Y-94430961D01*
X114021737Y-94649346D01*
X113950000Y-94783556D01*
X113878263Y-94649346D01*
X113699039Y-94430961D01*
X113663142Y-94401501D01*
X113719946Y-94412800D01*
X113880054Y-94412800D01*
X114037085Y-94381565D01*
X114185005Y-94320294D01*
X114318130Y-94231343D01*
X114431343Y-94118130D01*
X114520294Y-93985005D01*
X114581565Y-93837085D01*
X114612800Y-93680054D01*
X114612800Y-93519946D01*
X114581565Y-93362915D01*
X114520294Y-93214995D01*
X114431343Y-93081870D01*
X114318130Y-92968657D01*
X114185005Y-92879706D01*
X114037085Y-92818435D01*
X113880054Y-92787200D01*
X113719946Y-92787200D01*
X113562915Y-92818435D01*
X113414995Y-92879706D01*
X113281870Y-92968657D01*
X113168657Y-93081870D01*
X113079706Y-93214995D01*
X113018435Y-93362915D01*
X112987200Y-93519946D01*
X112987200Y-93680054D01*
X113018435Y-93837085D01*
X113079706Y-93985005D01*
X113153043Y-94094761D01*
X112961152Y-94036552D01*
X112750453Y-94015800D01*
X112609547Y-94015800D01*
X112398848Y-94036552D01*
X112128500Y-94118561D01*
X111879346Y-94251737D01*
X111660961Y-94430961D01*
X111481737Y-94649346D01*
X111410000Y-94783556D01*
X111338263Y-94649346D01*
X111159039Y-94430961D01*
X110940654Y-94251737D01*
X110782351Y-94167122D01*
X110831343Y-94118130D01*
X110920294Y-93985005D01*
X110981565Y-93837085D01*
X111012800Y-93680054D01*
X111012800Y-93519946D01*
X110981565Y-93362915D01*
X110920294Y-93214995D01*
X110831343Y-93081870D01*
X110718130Y-92968657D01*
X110585005Y-92879706D01*
X110437085Y-92818435D01*
X110280054Y-92787200D01*
X110119946Y-92787200D01*
X109962915Y-92818435D01*
X109814995Y-92879706D01*
X109681870Y-92968657D01*
X109568657Y-93081870D01*
X109479706Y-93214995D01*
X109418435Y-93362915D01*
X109387200Y-93519946D01*
X109387200Y-93680054D01*
X109418435Y-93837085D01*
X109479706Y-93985005D01*
X109568657Y-94118130D01*
X109575850Y-94125323D01*
X109339346Y-94251737D01*
X109120961Y-94430961D01*
X108941737Y-94649346D01*
X108808561Y-94898500D01*
X108726552Y-95168848D01*
X108698861Y-95450000D01*
X101133833Y-95450000D01*
X101106565Y-95312915D01*
X101045294Y-95164995D01*
X100956343Y-95031870D01*
X100843130Y-94918657D01*
X100710005Y-94829706D01*
X100562085Y-94768435D01*
X100405054Y-94737200D01*
X100244946Y-94737200D01*
X100087915Y-94768435D01*
X99939995Y-94829706D01*
X99806870Y-94918657D01*
X99693657Y-95031870D01*
X99604706Y-95164995D01*
X99543435Y-95312915D01*
X99512200Y-95469946D01*
X93696834Y-95469946D01*
X93770294Y-95360005D01*
X93831565Y-95212085D01*
X93862800Y-95055054D01*
X93862800Y-94894946D01*
X93831565Y-94737915D01*
X93770294Y-94589995D01*
X93681343Y-94456870D01*
X93568130Y-94343657D01*
X93435005Y-94254706D01*
X93287085Y-94193435D01*
X93130054Y-94162200D01*
X92969946Y-94162200D01*
X92812915Y-94193435D01*
X92664995Y-94254706D01*
X92531870Y-94343657D01*
X92418657Y-94456870D01*
X92329706Y-94589995D01*
X92268435Y-94737915D01*
X92237200Y-94894946D01*
X91189540Y-94894946D01*
X91058263Y-94649346D01*
X90879039Y-94430961D01*
X90660654Y-94251737D01*
X90411500Y-94118561D01*
X90141152Y-94036552D01*
X89930453Y-94015800D01*
X89789547Y-94015800D01*
X89578848Y-94036552D01*
X89308500Y-94118561D01*
X89059346Y-94251737D01*
X88840961Y-94430961D01*
X88661737Y-94649346D01*
X88590000Y-94783556D01*
X88518263Y-94649346D01*
X88339039Y-94430961D01*
X88120654Y-94251737D01*
X87871500Y-94118561D01*
X87601152Y-94036552D01*
X87390453Y-94015800D01*
X87249547Y-94015800D01*
X87038848Y-94036552D01*
X86768500Y-94118561D01*
X86519346Y-94251737D01*
X86300961Y-94430961D01*
X86121737Y-94649346D01*
X86050000Y-94783556D01*
X85978263Y-94649346D01*
X85799039Y-94430961D01*
X85580654Y-94251737D01*
X85331500Y-94118561D01*
X85061152Y-94036552D01*
X84850453Y-94015800D01*
X84709547Y-94015800D01*
X84498848Y-94036552D01*
X84228500Y-94118561D01*
X83979346Y-94251737D01*
X83760961Y-94430961D01*
X83581737Y-94649346D01*
X83510000Y-94783556D01*
X83438263Y-94649346D01*
X83259039Y-94430961D01*
X83040654Y-94251737D01*
X82791500Y-94118561D01*
X82521152Y-94036552D01*
X82310453Y-94015800D01*
X82169547Y-94015800D01*
X81958848Y-94036552D01*
X81688500Y-94118561D01*
X81439346Y-94251737D01*
X81220961Y-94430961D01*
X81131155Y-94540390D01*
X81125746Y-94485477D01*
X81092341Y-94375355D01*
X81038094Y-94273866D01*
X80965090Y-94184910D01*
X80876134Y-94111906D01*
X80774645Y-94057659D01*
X80664523Y-94024254D01*
X80550000Y-94012974D01*
X78850000Y-94012974D01*
X78735477Y-94024254D01*
X78625355Y-94057659D01*
X78523866Y-94111906D01*
X78434910Y-94184910D01*
X78361906Y-94273866D01*
X78307659Y-94375355D01*
X78274254Y-94485477D01*
X78262974Y-94600000D01*
X58776200Y-94600000D01*
X58776200Y-94035496D01*
X59419386Y-93494946D01*
X105812200Y-93494946D01*
X105812200Y-93655054D01*
X105843435Y-93812085D01*
X105904706Y-93960005D01*
X105993657Y-94093130D01*
X106106870Y-94206343D01*
X106239995Y-94295294D01*
X106387915Y-94356565D01*
X106544946Y-94387800D01*
X106705054Y-94387800D01*
X106862085Y-94356565D01*
X107010005Y-94295294D01*
X107143130Y-94206343D01*
X107256343Y-94093130D01*
X107345294Y-93960005D01*
X107406565Y-93812085D01*
X107437800Y-93655054D01*
X107437800Y-93494946D01*
X107406565Y-93337915D01*
X107345294Y-93189995D01*
X107256343Y-93056870D01*
X107143130Y-92943657D01*
X107010005Y-92854706D01*
X106862085Y-92793435D01*
X106705054Y-92762200D01*
X106544946Y-92762200D01*
X106387915Y-92793435D01*
X106239995Y-92854706D01*
X106106870Y-92943657D01*
X105993657Y-93056870D01*
X105904706Y-93189995D01*
X105843435Y-93337915D01*
X105812200Y-93494946D01*
X59419386Y-93494946D01*
X60413818Y-92659200D01*
X128102943Y-92659200D01*
X128118435Y-92737085D01*
X128118435Y-92737085D01*
G37*
X128118435Y-92737085D02*
X128179706Y-92885005D01*
X128268657Y-93018130D01*
X128381870Y-93131343D01*
X128514995Y-93220294D01*
X128662915Y-93281565D01*
X128819946Y-93312800D01*
X128980054Y-93312800D01*
X129137085Y-93281565D01*
X129285005Y-93220294D01*
X129418130Y-93131343D01*
X129531343Y-93018130D01*
X129620294Y-92885005D01*
X129681565Y-92737085D01*
X129697057Y-92659200D01*
X152533780Y-92659200D01*
X153923800Y-94031844D01*
X153923800Y-105968436D01*
X152551436Y-107340800D01*
X60708218Y-107340800D01*
X59244023Y-106294946D01*
X60037200Y-106294946D01*
X60037200Y-106455054D01*
X60068435Y-106612085D01*
X60129706Y-106760005D01*
X60218657Y-106893130D01*
X60331870Y-107006343D01*
X60464995Y-107095294D01*
X60612915Y-107156565D01*
X60769946Y-107187800D01*
X60930054Y-107187800D01*
X61087085Y-107156565D01*
X61235005Y-107095294D01*
X61368130Y-107006343D01*
X61481343Y-106893130D01*
X61570294Y-106760005D01*
X61631565Y-106612085D01*
X61662800Y-106455054D01*
X61662800Y-106294946D01*
X61631565Y-106137915D01*
X61570294Y-105989995D01*
X61481343Y-105856870D01*
X61368130Y-105743657D01*
X61235005Y-105654706D01*
X61087085Y-105593435D01*
X60930054Y-105562200D01*
X60769946Y-105562200D01*
X60612915Y-105593435D01*
X60464995Y-105654706D01*
X60331870Y-105743657D01*
X60218657Y-105856870D01*
X60129706Y-105989995D01*
X60068435Y-106137915D01*
X60037200Y-106294946D01*
X59244023Y-106294946D01*
X58776200Y-105960787D01*
X58776200Y-104750000D01*
X78262974Y-104750000D01*
X78262974Y-106450000D01*
X78274254Y-106564523D01*
X78307659Y-106674645D01*
X78361906Y-106776134D01*
X78434910Y-106865090D01*
X78523866Y-106938094D01*
X78625355Y-106992341D01*
X78735477Y-107025746D01*
X78850000Y-107037026D01*
X80550000Y-107037026D01*
X80664523Y-107025746D01*
X80774645Y-106992341D01*
X80876134Y-106938094D01*
X80965090Y-106865090D01*
X81038094Y-106776134D01*
X81092341Y-106674645D01*
X81125746Y-106564523D01*
X81131155Y-106509610D01*
X81220961Y-106619039D01*
X81439346Y-106798263D01*
X81688500Y-106931439D01*
X81958848Y-107013448D01*
X82169547Y-107034200D01*
X82310453Y-107034200D01*
X82521152Y-107013448D01*
X82791500Y-106931439D01*
X83040654Y-106798263D01*
X83259039Y-106619039D01*
X83438263Y-106400654D01*
X83510000Y-106266444D01*
X83581737Y-106400654D01*
X83760961Y-106619039D01*
X83979346Y-106798263D01*
X84228500Y-106931439D01*
X84498848Y-107013448D01*
X84709547Y-107034200D01*
X84850453Y-107034200D01*
X85061152Y-107013448D01*
X85331500Y-106931439D01*
X85580654Y-106798263D01*
X85799039Y-106619039D01*
X85978263Y-106400654D01*
X86050000Y-106266444D01*
X86121737Y-106400654D01*
X86300961Y-106619039D01*
X86519346Y-106798263D01*
X86768500Y-106931439D01*
X87038848Y-107013448D01*
X87249547Y-107034200D01*
X87390453Y-107034200D01*
X87601152Y-107013448D01*
X87871500Y-106931439D01*
X88120654Y-106798263D01*
X88339039Y-106619039D01*
X88518263Y-106400654D01*
X88590000Y-106266444D01*
X88661737Y-106400654D01*
X88840961Y-106619039D01*
X89059346Y-106798263D01*
X89308500Y-106931439D01*
X89578848Y-107013448D01*
X89789547Y-107034200D01*
X89930453Y-107034200D01*
X90141152Y-107013448D01*
X90411500Y-106931439D01*
X90660654Y-106798263D01*
X90879039Y-106619039D01*
X91058263Y-106400654D01*
X91191439Y-106151500D01*
X91273448Y-105881152D01*
X91301139Y-105600000D01*
X91273448Y-105318848D01*
X91191439Y-105048500D01*
X91128100Y-104930000D01*
X93835555Y-104930000D01*
X93856488Y-105142540D01*
X93918484Y-105346913D01*
X93934898Y-105377622D01*
X93882659Y-105475355D01*
X93849254Y-105585477D01*
X93837974Y-105700000D01*
X93837974Y-106700000D01*
X93849254Y-106814523D01*
X93882659Y-106924645D01*
X93936906Y-107026134D01*
X94009910Y-107115090D01*
X94098866Y-107188094D01*
X94200355Y-107242341D01*
X94310477Y-107275746D01*
X94425000Y-107287026D01*
X95425000Y-107287026D01*
X95539523Y-107275746D01*
X95649645Y-107242341D01*
X95751134Y-107188094D01*
X95840090Y-107115090D01*
X95913094Y-107026134D01*
X95967341Y-106924645D01*
X96000746Y-106814523D01*
X96012026Y-106700000D01*
X96012026Y-106200000D01*
X97645555Y-106200000D01*
X97666488Y-106412540D01*
X97728484Y-106616913D01*
X97829160Y-106805263D01*
X97964646Y-106970354D01*
X98129737Y-107105840D01*
X98318087Y-107206516D01*
X98522460Y-107268512D01*
X98681746Y-107284200D01*
X98788254Y-107284200D01*
X98947540Y-107268512D01*
X99151913Y-107206516D01*
X99340263Y-107105840D01*
X99505354Y-106970354D01*
X99640840Y-106805263D01*
X99741516Y-106616913D01*
X99803512Y-106412540D01*
X99824445Y-106200000D01*
X99804719Y-105999719D01*
X99951746Y-106014200D01*
X100058254Y-106014200D01*
X100217540Y-105998512D01*
X100421913Y-105936516D01*
X100610263Y-105835840D01*
X100775354Y-105700354D01*
X100857711Y-105600000D01*
X113798861Y-105600000D01*
X113826552Y-105881152D01*
X113908561Y-106151500D01*
X114041737Y-106400654D01*
X114220961Y-106619039D01*
X114439346Y-106798263D01*
X114688500Y-106931439D01*
X114958848Y-107013448D01*
X115169547Y-107034200D01*
X115310453Y-107034200D01*
X115521152Y-107013448D01*
X115791500Y-106931439D01*
X116040654Y-106798263D01*
X116259039Y-106619039D01*
X116438263Y-106400654D01*
X116510000Y-106266444D01*
X116581737Y-106400654D01*
X116760961Y-106619039D01*
X116979346Y-106798263D01*
X117228500Y-106931439D01*
X117498848Y-107013448D01*
X117709547Y-107034200D01*
X117850453Y-107034200D01*
X118061152Y-107013448D01*
X118331500Y-106931439D01*
X118580654Y-106798263D01*
X118799039Y-106619039D01*
X118978263Y-106400654D01*
X119050000Y-106266444D01*
X119121737Y-106400654D01*
X119300961Y-106619039D01*
X119519346Y-106798263D01*
X119768500Y-106931439D01*
X120038848Y-107013448D01*
X120249547Y-107034200D01*
X120390453Y-107034200D01*
X120601152Y-107013448D01*
X120871500Y-106931439D01*
X121120654Y-106798263D01*
X121339039Y-106619039D01*
X121518263Y-106400654D01*
X121651439Y-106151500D01*
X121733448Y-105881152D01*
X121761139Y-105600000D01*
X121755717Y-105544946D01*
X126737200Y-105544946D01*
X126737200Y-105705054D01*
X126768435Y-105862085D01*
X126829706Y-106010005D01*
X126918657Y-106143130D01*
X127031870Y-106256343D01*
X127164995Y-106345294D01*
X127312915Y-106406565D01*
X127469946Y-106437800D01*
X127630054Y-106437800D01*
X127787085Y-106406565D01*
X127935005Y-106345294D01*
X128068130Y-106256343D01*
X128181343Y-106143130D01*
X128270294Y-106010005D01*
X128331565Y-105862085D01*
X128362800Y-105705054D01*
X128362800Y-105544946D01*
X128331565Y-105387915D01*
X128270294Y-105239995D01*
X128181343Y-105106870D01*
X128068130Y-104993657D01*
X127935005Y-104904706D01*
X127787085Y-104843435D01*
X127630054Y-104812200D01*
X127469946Y-104812200D01*
X127312915Y-104843435D01*
X127164995Y-104904706D01*
X127031870Y-104993657D01*
X126918657Y-105106870D01*
X126829706Y-105239995D01*
X126768435Y-105387915D01*
X126737200Y-105544946D01*
X121755717Y-105544946D01*
X121733448Y-105318848D01*
X121651439Y-105048500D01*
X121518263Y-104799346D01*
X121339039Y-104580961D01*
X121120654Y-104401737D01*
X120871500Y-104268561D01*
X120601152Y-104186552D01*
X120390453Y-104165800D01*
X120249547Y-104165800D01*
X120038848Y-104186552D01*
X119768500Y-104268561D01*
X119519346Y-104401737D01*
X119300961Y-104580961D01*
X119121737Y-104799346D01*
X119050000Y-104933556D01*
X118978263Y-104799346D01*
X118799039Y-104580961D01*
X118580654Y-104401737D01*
X118331500Y-104268561D01*
X118061152Y-104186552D01*
X117850453Y-104165800D01*
X117709547Y-104165800D01*
X117498848Y-104186552D01*
X117228500Y-104268561D01*
X116979346Y-104401737D01*
X116760961Y-104580961D01*
X116581737Y-104799346D01*
X116510000Y-104933556D01*
X116438263Y-104799346D01*
X116259039Y-104580961D01*
X116040654Y-104401737D01*
X115791500Y-104268561D01*
X115521152Y-104186552D01*
X115310453Y-104165800D01*
X115169547Y-104165800D01*
X114958848Y-104186552D01*
X114688500Y-104268561D01*
X114439346Y-104401737D01*
X114220961Y-104580961D01*
X114041737Y-104799346D01*
X113908561Y-105048500D01*
X113826552Y-105318848D01*
X113798861Y-105600000D01*
X100857711Y-105600000D01*
X100910840Y-105535263D01*
X101011516Y-105346913D01*
X101073512Y-105142540D01*
X101094445Y-104930000D01*
X101073512Y-104717460D01*
X101011516Y-104513087D01*
X100936122Y-104372036D01*
X101013523Y-104387432D01*
X101173631Y-104387432D01*
X101330662Y-104356197D01*
X101478582Y-104294926D01*
X101611707Y-104205975D01*
X101721955Y-104095727D01*
X101744946Y-104100300D01*
X101905054Y-104100300D01*
X102062085Y-104069065D01*
X102210005Y-104007794D01*
X102343130Y-103918843D01*
X102456343Y-103805630D01*
X102545294Y-103672505D01*
X102606565Y-103524585D01*
X102637800Y-103367554D01*
X102637800Y-103207446D01*
X102606565Y-103050415D01*
X102545294Y-102902495D01*
X102456343Y-102769370D01*
X102343130Y-102656157D01*
X102210005Y-102567206D01*
X102062085Y-102505935D01*
X101905054Y-102474700D01*
X101744946Y-102474700D01*
X101587915Y-102505935D01*
X101439995Y-102567206D01*
X101306870Y-102656157D01*
X101196622Y-102766405D01*
X101173631Y-102761832D01*
X101013523Y-102761832D01*
X100856492Y-102793067D01*
X100708572Y-102854338D01*
X100575447Y-102943289D01*
X100462234Y-103056502D01*
X100373283Y-103189627D01*
X100312012Y-103337547D01*
X100280777Y-103494578D01*
X100280777Y-103654686D01*
X100312012Y-103811717D01*
X100349167Y-103901417D01*
X100217540Y-103861488D01*
X100058254Y-103845800D01*
X99951746Y-103845800D01*
X99792460Y-103861488D01*
X99588087Y-103923484D01*
X99399737Y-104024160D01*
X99234646Y-104159646D01*
X99099160Y-104324737D01*
X98998484Y-104513087D01*
X98936488Y-104717460D01*
X98915555Y-104930000D01*
X98935281Y-105130281D01*
X98788254Y-105115800D01*
X98681746Y-105115800D01*
X98522460Y-105131488D01*
X98318087Y-105193484D01*
X98129737Y-105294160D01*
X97964646Y-105429646D01*
X97829160Y-105594737D01*
X97728484Y-105783087D01*
X97666488Y-105987460D01*
X97645555Y-106200000D01*
X96012026Y-106200000D01*
X96012026Y-106001424D01*
X96141746Y-106014200D01*
X96248254Y-106014200D01*
X96407540Y-105998512D01*
X96611913Y-105936516D01*
X96800263Y-105835840D01*
X96965354Y-105700354D01*
X97100840Y-105535263D01*
X97201516Y-105346913D01*
X97263512Y-105142540D01*
X97284445Y-104930000D01*
X97263512Y-104717460D01*
X97201516Y-104513087D01*
X97100840Y-104324737D01*
X96965354Y-104159646D01*
X96800263Y-104024160D01*
X96611913Y-103923484D01*
X96407540Y-103861488D01*
X96248254Y-103845800D01*
X96141746Y-103845800D01*
X95982460Y-103861488D01*
X95778087Y-103923484D01*
X95589737Y-104024160D01*
X95560000Y-104048564D01*
X95530263Y-104024160D01*
X95341913Y-103923484D01*
X95137540Y-103861488D01*
X94978254Y-103845800D01*
X94871746Y-103845800D01*
X94712460Y-103861488D01*
X94508087Y-103923484D01*
X94319737Y-104024160D01*
X94154646Y-104159646D01*
X94019160Y-104324737D01*
X93918484Y-104513087D01*
X93856488Y-104717460D01*
X93835555Y-104930000D01*
X91128100Y-104930000D01*
X91058263Y-104799346D01*
X90879039Y-104580961D01*
X90660654Y-104401737D01*
X90411500Y-104268561D01*
X90141152Y-104186552D01*
X89930453Y-104165800D01*
X89789547Y-104165800D01*
X89578848Y-104186552D01*
X89308500Y-104268561D01*
X89059346Y-104401737D01*
X88840961Y-104580961D01*
X88661737Y-104799346D01*
X88590000Y-104933556D01*
X88518263Y-104799346D01*
X88339039Y-104580961D01*
X88120654Y-104401737D01*
X87871500Y-104268561D01*
X87601152Y-104186552D01*
X87390453Y-104165800D01*
X87249547Y-104165800D01*
X87038848Y-104186552D01*
X86768500Y-104268561D01*
X86519346Y-104401737D01*
X86300961Y-104580961D01*
X86121737Y-104799346D01*
X86050000Y-104933556D01*
X85978263Y-104799346D01*
X85799039Y-104580961D01*
X85580654Y-104401737D01*
X85331500Y-104268561D01*
X85061152Y-104186552D01*
X84850453Y-104165800D01*
X84709547Y-104165800D01*
X84498848Y-104186552D01*
X84228500Y-104268561D01*
X83979346Y-104401737D01*
X83760961Y-104580961D01*
X83581737Y-104799346D01*
X83510000Y-104933556D01*
X83438263Y-104799346D01*
X83259039Y-104580961D01*
X83040654Y-104401737D01*
X82791500Y-104268561D01*
X82521152Y-104186552D01*
X82310453Y-104165800D01*
X82169547Y-104165800D01*
X81958848Y-104186552D01*
X81688500Y-104268561D01*
X81439346Y-104401737D01*
X81220961Y-104580961D01*
X81131155Y-104690390D01*
X81125746Y-104635477D01*
X81092341Y-104525355D01*
X81038094Y-104423866D01*
X80965090Y-104334910D01*
X80876134Y-104261906D01*
X80774645Y-104207659D01*
X80664523Y-104174254D01*
X80550000Y-104162974D01*
X78850000Y-104162974D01*
X78735477Y-104174254D01*
X78625355Y-104207659D01*
X78523866Y-104261906D01*
X78434910Y-104334910D01*
X78361906Y-104423866D01*
X78307659Y-104525355D01*
X78274254Y-104635477D01*
X78262974Y-104750000D01*
X58776200Y-104750000D01*
X58776200Y-99494946D01*
X63237200Y-99494946D01*
X63237200Y-99655054D01*
X63268435Y-99812085D01*
X63304851Y-99900000D01*
X63268435Y-99987915D01*
X63237200Y-100144946D01*
X63237200Y-100305054D01*
X63268435Y-100462085D01*
X63329706Y-100610005D01*
X63418657Y-100743130D01*
X63531870Y-100856343D01*
X63664995Y-100945294D01*
X63812915Y-101006565D01*
X63969946Y-101037800D01*
X64130054Y-101037800D01*
X64287085Y-101006565D01*
X64435005Y-100945294D01*
X64568130Y-100856343D01*
X64681343Y-100743130D01*
X64770294Y-100610005D01*
X64831565Y-100462085D01*
X64862800Y-100305054D01*
X64862800Y-100144946D01*
X64857828Y-100119946D01*
X87837200Y-100119946D01*
X87837200Y-100280054D01*
X87868435Y-100437085D01*
X87929706Y-100585005D01*
X88018657Y-100718130D01*
X88131870Y-100831343D01*
X88264995Y-100920294D01*
X88412915Y-100981565D01*
X88569946Y-101012800D01*
X88730054Y-101012800D01*
X88887085Y-100981565D01*
X89035005Y-100920294D01*
X89168130Y-100831343D01*
X89281343Y-100718130D01*
X89370294Y-100585005D01*
X89431565Y-100437085D01*
X89462800Y-100280054D01*
X89462800Y-100119946D01*
X89431565Y-99962915D01*
X89370294Y-99814995D01*
X89281343Y-99681870D01*
X89168130Y-99568657D01*
X89035005Y-99479706D01*
X88887085Y-99418435D01*
X88730054Y-99387200D01*
X88569946Y-99387200D01*
X88412915Y-99418435D01*
X88264995Y-99479706D01*
X88131870Y-99568657D01*
X88018657Y-99681870D01*
X87929706Y-99814995D01*
X87868435Y-99962915D01*
X87837200Y-100119946D01*
X64857828Y-100119946D01*
X64831565Y-99987915D01*
X64795149Y-99900000D01*
X64831565Y-99812085D01*
X64862800Y-99655054D01*
X64862800Y-99494946D01*
X64831565Y-99337915D01*
X64770294Y-99189995D01*
X64681343Y-99056870D01*
X64568130Y-98943657D01*
X64435005Y-98854706D01*
X64287085Y-98793435D01*
X64130054Y-98762200D01*
X63969946Y-98762200D01*
X63812915Y-98793435D01*
X63664995Y-98854706D01*
X63531870Y-98943657D01*
X63418657Y-99056870D01*
X63329706Y-99189995D01*
X63268435Y-99337915D01*
X63237200Y-99494946D01*
X58776200Y-99494946D01*
X58776200Y-98419946D01*
X84337200Y-98419946D01*
X84337200Y-98580054D01*
X84368435Y-98737085D01*
X84429706Y-98885005D01*
X84518657Y-99018130D01*
X84631870Y-99131343D01*
X84764995Y-99220294D01*
X84912915Y-99281565D01*
X85069946Y-99312800D01*
X85230054Y-99312800D01*
X85387085Y-99281565D01*
X85535005Y-99220294D01*
X85668130Y-99131343D01*
X85781343Y-99018130D01*
X85870294Y-98885005D01*
X85876531Y-98869946D01*
X89987200Y-98869946D01*
X89987200Y-99030054D01*
X90018435Y-99187085D01*
X90079706Y-99335005D01*
X90168657Y-99468130D01*
X90281870Y-99581343D01*
X90414995Y-99670294D01*
X90562915Y-99731565D01*
X90719946Y-99762800D01*
X90880054Y-99762800D01*
X91037085Y-99731565D01*
X91185005Y-99670294D01*
X91318130Y-99581343D01*
X91431343Y-99468130D01*
X91520294Y-99335005D01*
X91521671Y-99331680D01*
X91543435Y-99441096D01*
X91567507Y-99499209D01*
X91541797Y-99561277D01*
X91510562Y-99718308D01*
X91510562Y-99878416D01*
X91541797Y-100035447D01*
X91603068Y-100183367D01*
X91643032Y-100243178D01*
X91593435Y-100362915D01*
X91562200Y-100519946D01*
X91562200Y-100680054D01*
X91593435Y-100837085D01*
X91654706Y-100985005D01*
X91743657Y-101118130D01*
X91856870Y-101231343D01*
X91989995Y-101320294D01*
X92137915Y-101381565D01*
X92294946Y-101412800D01*
X92455054Y-101412800D01*
X92612085Y-101381565D01*
X92760005Y-101320294D01*
X92835356Y-101269946D01*
X93837200Y-101269946D01*
X93837200Y-101430054D01*
X93868435Y-101587085D01*
X93929706Y-101735005D01*
X94018657Y-101868130D01*
X94131870Y-101981343D01*
X94264995Y-102070294D01*
X94412915Y-102131565D01*
X94569946Y-102162800D01*
X94730054Y-102162800D01*
X94887085Y-102131565D01*
X95035005Y-102070294D01*
X95168130Y-101981343D01*
X95281343Y-101868130D01*
X95370294Y-101735005D01*
X95431565Y-101587085D01*
X95459837Y-101444946D01*
X98462200Y-101444946D01*
X98462200Y-101605054D01*
X98493435Y-101762085D01*
X98554706Y-101910005D01*
X98643657Y-102043130D01*
X98756870Y-102156343D01*
X98889995Y-102245294D01*
X99037915Y-102306565D01*
X99194946Y-102337800D01*
X99355054Y-102337800D01*
X99512085Y-102306565D01*
X99660005Y-102245294D01*
X99793130Y-102156343D01*
X99906343Y-102043130D01*
X99995294Y-101910005D01*
X100056565Y-101762085D01*
X100087800Y-101605054D01*
X100087800Y-101519946D01*
X108437200Y-101519946D01*
X108437200Y-101680054D01*
X108468435Y-101837085D01*
X108529706Y-101985005D01*
X108618657Y-102118130D01*
X108731870Y-102231343D01*
X108864995Y-102320294D01*
X109012915Y-102381565D01*
X109169946Y-102412800D01*
X109330054Y-102412800D01*
X109487085Y-102381565D01*
X109576390Y-102344573D01*
X123115800Y-102344573D01*
X123115800Y-102735427D01*
X123192051Y-103118770D01*
X123341625Y-103479871D01*
X123558771Y-103804854D01*
X123835146Y-104081229D01*
X124160129Y-104298375D01*
X124521230Y-104447949D01*
X124904573Y-104524200D01*
X125295427Y-104524200D01*
X125678770Y-104447949D01*
X126039871Y-104298375D01*
X126364854Y-104081229D01*
X126641229Y-103804854D01*
X126858375Y-103479871D01*
X127007949Y-103118770D01*
X127084200Y-102735427D01*
X127084200Y-102474272D01*
X136315800Y-102474272D01*
X136315800Y-102825728D01*
X136384366Y-103170432D01*
X136518862Y-103495136D01*
X136714121Y-103787361D01*
X136962639Y-104035879D01*
X137254864Y-104231138D01*
X137579568Y-104365634D01*
X137924272Y-104434200D01*
X138275728Y-104434200D01*
X138620432Y-104365634D01*
X138945136Y-104231138D01*
X139237361Y-104035879D01*
X139485879Y-103787361D01*
X139681138Y-103495136D01*
X139815634Y-103170432D01*
X139884200Y-102825728D01*
X139884200Y-102474272D01*
X139815634Y-102129568D01*
X139681138Y-101804864D01*
X139485879Y-101512639D01*
X139237361Y-101264121D01*
X138945136Y-101068862D01*
X138620432Y-100934366D01*
X138275728Y-100865800D01*
X137924272Y-100865800D01*
X137579568Y-100934366D01*
X137254864Y-101068862D01*
X136962639Y-101264121D01*
X136714121Y-101512639D01*
X136518862Y-101804864D01*
X136384366Y-102129568D01*
X136315800Y-102474272D01*
X127084200Y-102474272D01*
X127084200Y-102344573D01*
X127007949Y-101961230D01*
X126858375Y-101600129D01*
X126641229Y-101275146D01*
X126364854Y-100998771D01*
X126039871Y-100781625D01*
X125678770Y-100632051D01*
X125295427Y-100555800D01*
X124904573Y-100555800D01*
X124521230Y-100632051D01*
X124160129Y-100781625D01*
X123835146Y-100998771D01*
X123558771Y-101275146D01*
X123341625Y-101600129D01*
X123192051Y-101961230D01*
X123115800Y-102344573D01*
X109576390Y-102344573D01*
X109635005Y-102320294D01*
X109768130Y-102231343D01*
X109881343Y-102118130D01*
X109970294Y-101985005D01*
X110031565Y-101837085D01*
X110062800Y-101680054D01*
X110062800Y-101519946D01*
X110031565Y-101362915D01*
X109970294Y-101214995D01*
X109881343Y-101081870D01*
X109768130Y-100968657D01*
X109635005Y-100879706D01*
X109487085Y-100818435D01*
X109330054Y-100787200D01*
X109169946Y-100787200D01*
X109012915Y-100818435D01*
X108864995Y-100879706D01*
X108731870Y-100968657D01*
X108618657Y-101081870D01*
X108529706Y-101214995D01*
X108468435Y-101362915D01*
X108437200Y-101519946D01*
X100087800Y-101519946D01*
X100087800Y-101444946D01*
X100056565Y-101287915D01*
X99995294Y-101139995D01*
X99906343Y-101006870D01*
X99793130Y-100893657D01*
X99660005Y-100804706D01*
X99512085Y-100743435D01*
X99355054Y-100712200D01*
X99194946Y-100712200D01*
X99037915Y-100743435D01*
X98889995Y-100804706D01*
X98756870Y-100893657D01*
X98643657Y-101006870D01*
X98554706Y-101139995D01*
X98493435Y-101287915D01*
X98462200Y-101444946D01*
X95459837Y-101444946D01*
X95462800Y-101430054D01*
X95462800Y-101269946D01*
X95431565Y-101112915D01*
X95370294Y-100964995D01*
X95281343Y-100831870D01*
X95168130Y-100718657D01*
X95035005Y-100629706D01*
X94887085Y-100568435D01*
X94730054Y-100537200D01*
X94569946Y-100537200D01*
X94412915Y-100568435D01*
X94264995Y-100629706D01*
X94131870Y-100718657D01*
X94018657Y-100831870D01*
X93929706Y-100964995D01*
X93868435Y-101112915D01*
X93837200Y-101269946D01*
X92835356Y-101269946D01*
X92893130Y-101231343D01*
X93006343Y-101118130D01*
X93095294Y-100985005D01*
X93156565Y-100837085D01*
X93187800Y-100680054D01*
X93187800Y-100519946D01*
X93156565Y-100362915D01*
X93095294Y-100214995D01*
X93055330Y-100155184D01*
X93104927Y-100035447D01*
X93136162Y-99878416D01*
X93136162Y-99804573D01*
X130735800Y-99804573D01*
X130735800Y-100195427D01*
X130812051Y-100578770D01*
X130961625Y-100939871D01*
X131178771Y-101264854D01*
X131455146Y-101541229D01*
X131780129Y-101758375D01*
X132141230Y-101907949D01*
X132524573Y-101984200D01*
X132915427Y-101984200D01*
X133298770Y-101907949D01*
X133659871Y-101758375D01*
X133984854Y-101541229D01*
X134261229Y-101264854D01*
X134478375Y-100939871D01*
X134627949Y-100578770D01*
X134704200Y-100195427D01*
X134704200Y-99804573D01*
X134627949Y-99421230D01*
X134478375Y-99060129D01*
X134261229Y-98735146D01*
X133984854Y-98458771D01*
X133659871Y-98241625D01*
X133298770Y-98092051D01*
X132915427Y-98015800D01*
X132524573Y-98015800D01*
X132141230Y-98092051D01*
X131780129Y-98241625D01*
X131455146Y-98458771D01*
X131178771Y-98735146D01*
X130961625Y-99060129D01*
X130812051Y-99421230D01*
X130735800Y-99804573D01*
X93136162Y-99804573D01*
X93136162Y-99718308D01*
X93104927Y-99561277D01*
X93080855Y-99503164D01*
X93106565Y-99441096D01*
X93137800Y-99284065D01*
X93137800Y-99123957D01*
X93106565Y-98966926D01*
X93076750Y-98894946D01*
X99912200Y-98894946D01*
X99912200Y-99055054D01*
X99943435Y-99212085D01*
X100004706Y-99360005D01*
X100093657Y-99493130D01*
X100206870Y-99606343D01*
X100339995Y-99695294D01*
X100487915Y-99756565D01*
X100644946Y-99787800D01*
X100805054Y-99787800D01*
X100962085Y-99756565D01*
X101110005Y-99695294D01*
X101243130Y-99606343D01*
X101356343Y-99493130D01*
X101445294Y-99360005D01*
X101506565Y-99212085D01*
X101537800Y-99055054D01*
X101537800Y-98894946D01*
X101506565Y-98737915D01*
X101445294Y-98589995D01*
X101356343Y-98456870D01*
X101243130Y-98343657D01*
X101110005Y-98254706D01*
X100962085Y-98193435D01*
X100805054Y-98162200D01*
X100644946Y-98162200D01*
X100487915Y-98193435D01*
X100339995Y-98254706D01*
X100206870Y-98343657D01*
X100093657Y-98456870D01*
X100004706Y-98589995D01*
X99943435Y-98737915D01*
X99912200Y-98894946D01*
X93076750Y-98894946D01*
X93045294Y-98819006D01*
X92956343Y-98685881D01*
X92843130Y-98572668D01*
X92710005Y-98483717D01*
X92562085Y-98422446D01*
X92405054Y-98391211D01*
X92244946Y-98391211D01*
X92087915Y-98422446D01*
X91939995Y-98483717D01*
X91806870Y-98572668D01*
X91693657Y-98685881D01*
X91604706Y-98819006D01*
X91603329Y-98822331D01*
X91581565Y-98712915D01*
X91520294Y-98564995D01*
X91431343Y-98431870D01*
X91318130Y-98318657D01*
X91185005Y-98229706D01*
X91037085Y-98168435D01*
X90880054Y-98137200D01*
X90719946Y-98137200D01*
X90562915Y-98168435D01*
X90414995Y-98229706D01*
X90281870Y-98318657D01*
X90168657Y-98431870D01*
X90079706Y-98564995D01*
X90018435Y-98712915D01*
X89987200Y-98869946D01*
X85876531Y-98869946D01*
X85931565Y-98737085D01*
X85962800Y-98580054D01*
X85962800Y-98419946D01*
X85931565Y-98262915D01*
X85870294Y-98114995D01*
X85781343Y-97981870D01*
X85668130Y-97868657D01*
X85535005Y-97779706D01*
X85387085Y-97718435D01*
X85230054Y-97687200D01*
X85069946Y-97687200D01*
X84912915Y-97718435D01*
X84764995Y-97779706D01*
X84631870Y-97868657D01*
X84518657Y-97981870D01*
X84429706Y-98114995D01*
X84368435Y-98262915D01*
X84337200Y-98419946D01*
X58776200Y-98419946D01*
X58776200Y-97264573D01*
X123115800Y-97264573D01*
X123115800Y-97655427D01*
X123192051Y-98038770D01*
X123341625Y-98399871D01*
X123558771Y-98724854D01*
X123835146Y-99001229D01*
X124160129Y-99218375D01*
X124521230Y-99367949D01*
X124904573Y-99444200D01*
X125295427Y-99444200D01*
X125678770Y-99367949D01*
X126039871Y-99218375D01*
X126364854Y-99001229D01*
X126641229Y-98724854D01*
X126858375Y-98399871D01*
X127007949Y-98038770D01*
X127084200Y-97655427D01*
X127084200Y-97264573D01*
X127066239Y-97174272D01*
X136315800Y-97174272D01*
X136315800Y-97525728D01*
X136384366Y-97870432D01*
X136518862Y-98195136D01*
X136714121Y-98487361D01*
X136962639Y-98735879D01*
X137254864Y-98931138D01*
X137579568Y-99065634D01*
X137924272Y-99134200D01*
X138275728Y-99134200D01*
X138620432Y-99065634D01*
X138945136Y-98931138D01*
X139237361Y-98735879D01*
X139485879Y-98487361D01*
X139681138Y-98195136D01*
X139815634Y-97870432D01*
X139884200Y-97525728D01*
X139884200Y-97174272D01*
X139815634Y-96829568D01*
X139681138Y-96504864D01*
X139485879Y-96212639D01*
X139237361Y-95964121D01*
X138945136Y-95768862D01*
X138620432Y-95634366D01*
X138275728Y-95565800D01*
X137924272Y-95565800D01*
X137579568Y-95634366D01*
X137254864Y-95768862D01*
X136962639Y-95964121D01*
X136714121Y-96212639D01*
X136518862Y-96504864D01*
X136384366Y-96829568D01*
X136315800Y-97174272D01*
X127066239Y-97174272D01*
X127007949Y-96881230D01*
X126858375Y-96520129D01*
X126641229Y-96195146D01*
X126364854Y-95918771D01*
X126039871Y-95701625D01*
X125678770Y-95552051D01*
X125295427Y-95475800D01*
X124904573Y-95475800D01*
X124521230Y-95552051D01*
X124160129Y-95701625D01*
X123835146Y-95918771D01*
X123558771Y-96195146D01*
X123341625Y-96520129D01*
X123192051Y-96881230D01*
X123115800Y-97264573D01*
X58776200Y-97264573D01*
X58776200Y-94600000D01*
X78262974Y-94600000D01*
X78262974Y-96300000D01*
X78274254Y-96414523D01*
X78307659Y-96524645D01*
X78361906Y-96626134D01*
X78434910Y-96715090D01*
X78523866Y-96788094D01*
X78625355Y-96842341D01*
X78735477Y-96875746D01*
X78850000Y-96887026D01*
X80550000Y-96887026D01*
X80664523Y-96875746D01*
X80774645Y-96842341D01*
X80876134Y-96788094D01*
X80965090Y-96715090D01*
X81038094Y-96626134D01*
X81092341Y-96524645D01*
X81125746Y-96414523D01*
X81131155Y-96359610D01*
X81220961Y-96469039D01*
X81439346Y-96648263D01*
X81688500Y-96781439D01*
X81958848Y-96863448D01*
X82169547Y-96884200D01*
X82310453Y-96884200D01*
X82521152Y-96863448D01*
X82791500Y-96781439D01*
X83040654Y-96648263D01*
X83259039Y-96469039D01*
X83438263Y-96250654D01*
X83510000Y-96116444D01*
X83581737Y-96250654D01*
X83760961Y-96469039D01*
X83979346Y-96648263D01*
X84228500Y-96781439D01*
X84498848Y-96863448D01*
X84709547Y-96884200D01*
X84850453Y-96884200D01*
X85061152Y-96863448D01*
X85331500Y-96781439D01*
X85580654Y-96648263D01*
X85799039Y-96469039D01*
X85978263Y-96250654D01*
X86050000Y-96116444D01*
X86121737Y-96250654D01*
X86300961Y-96469039D01*
X86519346Y-96648263D01*
X86768500Y-96781439D01*
X87038848Y-96863448D01*
X87249547Y-96884200D01*
X87390453Y-96884200D01*
X87601152Y-96863448D01*
X87871500Y-96781439D01*
X88120654Y-96648263D01*
X88339039Y-96469039D01*
X88518263Y-96250654D01*
X88590000Y-96116444D01*
X88661737Y-96250654D01*
X88840961Y-96469039D01*
X89059346Y-96648263D01*
X89308500Y-96781439D01*
X89578848Y-96863448D01*
X89789547Y-96884200D01*
X89930453Y-96884200D01*
X90141152Y-96863448D01*
X90411500Y-96781439D01*
X90660654Y-96648263D01*
X90879039Y-96469039D01*
X91058263Y-96250654D01*
X91191439Y-96001500D01*
X91273448Y-95731152D01*
X91301139Y-95450000D01*
X91273448Y-95168848D01*
X91191439Y-94898500D01*
X91189540Y-94894946D01*
X92237200Y-94894946D01*
X92237200Y-95055054D01*
X92268435Y-95212085D01*
X92329706Y-95360005D01*
X92418657Y-95493130D01*
X92531870Y-95606343D01*
X92664995Y-95695294D01*
X92812915Y-95756565D01*
X92969946Y-95787800D01*
X93130054Y-95787800D01*
X93287085Y-95756565D01*
X93435005Y-95695294D01*
X93568130Y-95606343D01*
X93681343Y-95493130D01*
X93696834Y-95469946D01*
X99512200Y-95469946D01*
X99512200Y-95630054D01*
X99543435Y-95787085D01*
X99604706Y-95935005D01*
X99693657Y-96068130D01*
X99806870Y-96181343D01*
X99939995Y-96270294D01*
X100087915Y-96331565D01*
X100244946Y-96362800D01*
X100405054Y-96362800D01*
X100562085Y-96331565D01*
X100710005Y-96270294D01*
X100843130Y-96181343D01*
X100956343Y-96068130D01*
X101045294Y-95935005D01*
X101106565Y-95787085D01*
X101137800Y-95630054D01*
X101137800Y-95469946D01*
X101133833Y-95450000D01*
X108698861Y-95450000D01*
X108726552Y-95731152D01*
X108808561Y-96001500D01*
X108941737Y-96250654D01*
X109120961Y-96469039D01*
X109339346Y-96648263D01*
X109588500Y-96781439D01*
X109858848Y-96863448D01*
X110069547Y-96884200D01*
X110210453Y-96884200D01*
X110421152Y-96863448D01*
X110691500Y-96781439D01*
X110940654Y-96648263D01*
X111159039Y-96469039D01*
X111338263Y-96250654D01*
X111410000Y-96116444D01*
X111481737Y-96250654D01*
X111660961Y-96469039D01*
X111879346Y-96648263D01*
X112128500Y-96781439D01*
X112398848Y-96863448D01*
X112609547Y-96884200D01*
X112750453Y-96884200D01*
X112961152Y-96863448D01*
X113231500Y-96781439D01*
X113480654Y-96648263D01*
X113699039Y-96469039D01*
X113878263Y-96250654D01*
X113950000Y-96116444D01*
X114021737Y-96250654D01*
X114200961Y-96469039D01*
X114419346Y-96648263D01*
X114668500Y-96781439D01*
X114938848Y-96863448D01*
X115149547Y-96884200D01*
X115290453Y-96884200D01*
X115501152Y-96863448D01*
X115771500Y-96781439D01*
X116020654Y-96648263D01*
X116239039Y-96469039D01*
X116418263Y-96250654D01*
X116490000Y-96116444D01*
X116561737Y-96250654D01*
X116740961Y-96469039D01*
X116959346Y-96648263D01*
X117208500Y-96781439D01*
X117478848Y-96863448D01*
X117689547Y-96884200D01*
X117830453Y-96884200D01*
X118041152Y-96863448D01*
X118311500Y-96781439D01*
X118560654Y-96648263D01*
X118779039Y-96469039D01*
X118868845Y-96359610D01*
X118874254Y-96414523D01*
X118907659Y-96524645D01*
X118961906Y-96626134D01*
X119034910Y-96715090D01*
X119123866Y-96788094D01*
X119225355Y-96842341D01*
X119335477Y-96875746D01*
X119450000Y-96887026D01*
X121150000Y-96887026D01*
X121264523Y-96875746D01*
X121374645Y-96842341D01*
X121476134Y-96788094D01*
X121565090Y-96715090D01*
X121638094Y-96626134D01*
X121692341Y-96524645D01*
X121725746Y-96414523D01*
X121737026Y-96300000D01*
X121737026Y-94658689D01*
X126422900Y-94658689D01*
X126422900Y-94841311D01*
X126458528Y-95020425D01*
X126528414Y-95189147D01*
X126629874Y-95340992D01*
X126759008Y-95470126D01*
X126910853Y-95571586D01*
X127079575Y-95641472D01*
X127258689Y-95677100D01*
X127441311Y-95677100D01*
X127620425Y-95641472D01*
X127789147Y-95571586D01*
X127940992Y-95470126D01*
X128070126Y-95340992D01*
X128171586Y-95189147D01*
X128241472Y-95020425D01*
X128277100Y-94841311D01*
X128277100Y-94658689D01*
X128259448Y-94569946D01*
X150087200Y-94569946D01*
X150087200Y-94730054D01*
X150118435Y-94887085D01*
X150179706Y-95035005D01*
X150268657Y-95168130D01*
X150381870Y-95281343D01*
X150514995Y-95370294D01*
X150662915Y-95431565D01*
X150819946Y-95462800D01*
X150980054Y-95462800D01*
X151137085Y-95431565D01*
X151285005Y-95370294D01*
X151418130Y-95281343D01*
X151531343Y-95168130D01*
X151620294Y-95035005D01*
X151681565Y-94887085D01*
X151712800Y-94730054D01*
X151712800Y-94569946D01*
X151681565Y-94412915D01*
X151620294Y-94264995D01*
X151531343Y-94131870D01*
X151418130Y-94018657D01*
X151285005Y-93929706D01*
X151137085Y-93868435D01*
X150980054Y-93837200D01*
X150819946Y-93837200D01*
X150662915Y-93868435D01*
X150514995Y-93929706D01*
X150381870Y-94018657D01*
X150268657Y-94131870D01*
X150179706Y-94264995D01*
X150118435Y-94412915D01*
X150087200Y-94569946D01*
X128259448Y-94569946D01*
X128241472Y-94479575D01*
X128171586Y-94310853D01*
X128070126Y-94159008D01*
X127940992Y-94029874D01*
X127789147Y-93928414D01*
X127620425Y-93858528D01*
X127441311Y-93822900D01*
X127258689Y-93822900D01*
X127079575Y-93858528D01*
X126910853Y-93928414D01*
X126759008Y-94029874D01*
X126629874Y-94159008D01*
X126528414Y-94310853D01*
X126458528Y-94479575D01*
X126422900Y-94658689D01*
X121737026Y-94658689D01*
X121737026Y-94600000D01*
X121725746Y-94485477D01*
X121692341Y-94375355D01*
X121638094Y-94273866D01*
X121565090Y-94184910D01*
X121476134Y-94111906D01*
X121374645Y-94057659D01*
X121264523Y-94024254D01*
X121150000Y-94012974D01*
X119729420Y-94012974D01*
X119781565Y-93887085D01*
X119812800Y-93730054D01*
X119812800Y-93569946D01*
X119781565Y-93412915D01*
X119720294Y-93264995D01*
X119631343Y-93131870D01*
X119518130Y-93018657D01*
X119385005Y-92929706D01*
X119237085Y-92868435D01*
X119080054Y-92837200D01*
X118919946Y-92837200D01*
X118762915Y-92868435D01*
X118614995Y-92929706D01*
X118481870Y-93018657D01*
X118368657Y-93131870D01*
X118279706Y-93264995D01*
X118218435Y-93412915D01*
X118187200Y-93569946D01*
X118187200Y-93730054D01*
X118218435Y-93887085D01*
X118279706Y-94035005D01*
X118348890Y-94138546D01*
X118311500Y-94118561D01*
X118041152Y-94036552D01*
X117830453Y-94015800D01*
X117689547Y-94015800D01*
X117478848Y-94036552D01*
X117208500Y-94118561D01*
X116959346Y-94251737D01*
X116740961Y-94430961D01*
X116561737Y-94649346D01*
X116490000Y-94783556D01*
X116418263Y-94649346D01*
X116239039Y-94430961D01*
X116020654Y-94251737D01*
X115771500Y-94118561D01*
X115501152Y-94036552D01*
X115290453Y-94015800D01*
X115149547Y-94015800D01*
X114938848Y-94036552D01*
X114668500Y-94118561D01*
X114419346Y-94251737D01*
X114200961Y-94430961D01*
X114021737Y-94649346D01*
X113950000Y-94783556D01*
X113878263Y-94649346D01*
X113699039Y-94430961D01*
X113663142Y-94401501D01*
X113719946Y-94412800D01*
X113880054Y-94412800D01*
X114037085Y-94381565D01*
X114185005Y-94320294D01*
X114318130Y-94231343D01*
X114431343Y-94118130D01*
X114520294Y-93985005D01*
X114581565Y-93837085D01*
X114612800Y-93680054D01*
X114612800Y-93519946D01*
X114581565Y-93362915D01*
X114520294Y-93214995D01*
X114431343Y-93081870D01*
X114318130Y-92968657D01*
X114185005Y-92879706D01*
X114037085Y-92818435D01*
X113880054Y-92787200D01*
X113719946Y-92787200D01*
X113562915Y-92818435D01*
X113414995Y-92879706D01*
X113281870Y-92968657D01*
X113168657Y-93081870D01*
X113079706Y-93214995D01*
X113018435Y-93362915D01*
X112987200Y-93519946D01*
X112987200Y-93680054D01*
X113018435Y-93837085D01*
X113079706Y-93985005D01*
X113153043Y-94094761D01*
X112961152Y-94036552D01*
X112750453Y-94015800D01*
X112609547Y-94015800D01*
X112398848Y-94036552D01*
X112128500Y-94118561D01*
X111879346Y-94251737D01*
X111660961Y-94430961D01*
X111481737Y-94649346D01*
X111410000Y-94783556D01*
X111338263Y-94649346D01*
X111159039Y-94430961D01*
X110940654Y-94251737D01*
X110782351Y-94167122D01*
X110831343Y-94118130D01*
X110920294Y-93985005D01*
X110981565Y-93837085D01*
X111012800Y-93680054D01*
X111012800Y-93519946D01*
X110981565Y-93362915D01*
X110920294Y-93214995D01*
X110831343Y-93081870D01*
X110718130Y-92968657D01*
X110585005Y-92879706D01*
X110437085Y-92818435D01*
X110280054Y-92787200D01*
X110119946Y-92787200D01*
X109962915Y-92818435D01*
X109814995Y-92879706D01*
X109681870Y-92968657D01*
X109568657Y-93081870D01*
X109479706Y-93214995D01*
X109418435Y-93362915D01*
X109387200Y-93519946D01*
X109387200Y-93680054D01*
X109418435Y-93837085D01*
X109479706Y-93985005D01*
X109568657Y-94118130D01*
X109575850Y-94125323D01*
X109339346Y-94251737D01*
X109120961Y-94430961D01*
X108941737Y-94649346D01*
X108808561Y-94898500D01*
X108726552Y-95168848D01*
X108698861Y-95450000D01*
X101133833Y-95450000D01*
X101106565Y-95312915D01*
X101045294Y-95164995D01*
X100956343Y-95031870D01*
X100843130Y-94918657D01*
X100710005Y-94829706D01*
X100562085Y-94768435D01*
X100405054Y-94737200D01*
X100244946Y-94737200D01*
X100087915Y-94768435D01*
X99939995Y-94829706D01*
X99806870Y-94918657D01*
X99693657Y-95031870D01*
X99604706Y-95164995D01*
X99543435Y-95312915D01*
X99512200Y-95469946D01*
X93696834Y-95469946D01*
X93770294Y-95360005D01*
X93831565Y-95212085D01*
X93862800Y-95055054D01*
X93862800Y-94894946D01*
X93831565Y-94737915D01*
X93770294Y-94589995D01*
X93681343Y-94456870D01*
X93568130Y-94343657D01*
X93435005Y-94254706D01*
X93287085Y-94193435D01*
X93130054Y-94162200D01*
X92969946Y-94162200D01*
X92812915Y-94193435D01*
X92664995Y-94254706D01*
X92531870Y-94343657D01*
X92418657Y-94456870D01*
X92329706Y-94589995D01*
X92268435Y-94737915D01*
X92237200Y-94894946D01*
X91189540Y-94894946D01*
X91058263Y-94649346D01*
X90879039Y-94430961D01*
X90660654Y-94251737D01*
X90411500Y-94118561D01*
X90141152Y-94036552D01*
X89930453Y-94015800D01*
X89789547Y-94015800D01*
X89578848Y-94036552D01*
X89308500Y-94118561D01*
X89059346Y-94251737D01*
X88840961Y-94430961D01*
X88661737Y-94649346D01*
X88590000Y-94783556D01*
X88518263Y-94649346D01*
X88339039Y-94430961D01*
X88120654Y-94251737D01*
X87871500Y-94118561D01*
X87601152Y-94036552D01*
X87390453Y-94015800D01*
X87249547Y-94015800D01*
X87038848Y-94036552D01*
X86768500Y-94118561D01*
X86519346Y-94251737D01*
X86300961Y-94430961D01*
X86121737Y-94649346D01*
X86050000Y-94783556D01*
X85978263Y-94649346D01*
X85799039Y-94430961D01*
X85580654Y-94251737D01*
X85331500Y-94118561D01*
X85061152Y-94036552D01*
X84850453Y-94015800D01*
X84709547Y-94015800D01*
X84498848Y-94036552D01*
X84228500Y-94118561D01*
X83979346Y-94251737D01*
X83760961Y-94430961D01*
X83581737Y-94649346D01*
X83510000Y-94783556D01*
X83438263Y-94649346D01*
X83259039Y-94430961D01*
X83040654Y-94251737D01*
X82791500Y-94118561D01*
X82521152Y-94036552D01*
X82310453Y-94015800D01*
X82169547Y-94015800D01*
X81958848Y-94036552D01*
X81688500Y-94118561D01*
X81439346Y-94251737D01*
X81220961Y-94430961D01*
X81131155Y-94540390D01*
X81125746Y-94485477D01*
X81092341Y-94375355D01*
X81038094Y-94273866D01*
X80965090Y-94184910D01*
X80876134Y-94111906D01*
X80774645Y-94057659D01*
X80664523Y-94024254D01*
X80550000Y-94012974D01*
X78850000Y-94012974D01*
X78735477Y-94024254D01*
X78625355Y-94057659D01*
X78523866Y-94111906D01*
X78434910Y-94184910D01*
X78361906Y-94273866D01*
X78307659Y-94375355D01*
X78274254Y-94485477D01*
X78262974Y-94600000D01*
X58776200Y-94600000D01*
X58776200Y-94035496D01*
X59419386Y-93494946D01*
X105812200Y-93494946D01*
X105812200Y-93655054D01*
X105843435Y-93812085D01*
X105904706Y-93960005D01*
X105993657Y-94093130D01*
X106106870Y-94206343D01*
X106239995Y-94295294D01*
X106387915Y-94356565D01*
X106544946Y-94387800D01*
X106705054Y-94387800D01*
X106862085Y-94356565D01*
X107010005Y-94295294D01*
X107143130Y-94206343D01*
X107256343Y-94093130D01*
X107345294Y-93960005D01*
X107406565Y-93812085D01*
X107437800Y-93655054D01*
X107437800Y-93494946D01*
X107406565Y-93337915D01*
X107345294Y-93189995D01*
X107256343Y-93056870D01*
X107143130Y-92943657D01*
X107010005Y-92854706D01*
X106862085Y-92793435D01*
X106705054Y-92762200D01*
X106544946Y-92762200D01*
X106387915Y-92793435D01*
X106239995Y-92854706D01*
X106106870Y-92943657D01*
X105993657Y-93056870D01*
X105904706Y-93189995D01*
X105843435Y-93337915D01*
X105812200Y-93494946D01*
X59419386Y-93494946D01*
X60413818Y-92659200D01*
X128102943Y-92659200D01*
X128118435Y-92737085D01*
M02*
