G04 #@! TF.GenerationSoftware,KiCad,Pcbnew,(5.1.4-0-10_14)*
G04 #@! TF.CreationDate,2019-09-20T09:10:15-07:00*
G04 #@! TF.ProjectId,STM32L0xx_18650,53544d33-324c-4307-9878-5f3138363530,rev?*
G04 #@! TF.SameCoordinates,Original*
G04 #@! TF.FileFunction,Legend,Bot*
G04 #@! TF.FilePolarity,Positive*
%FSLAX46Y46*%
G04 Gerber Fmt 4.6, Leading zero omitted, Abs format (unit mm)*
G04 Created by KiCad (PCBNEW (5.1.4-0-10_14)) date 2019-09-20 09:10:15*
%MOMM*%
%LPD*%
G04 APERTURE LIST*
%ADD10C,0.100000*%
%ADD11C,0.060000*%
%ADD12C,0.200000*%
%ADD13C,0.300000*%
%ADD14C,0.080000*%
G04 APERTURE END LIST*
D10*
X152256428Y-96864285D02*
X152256428Y-96364285D01*
X152256428Y-96507142D02*
X152220714Y-96435714D01*
X152185000Y-96400000D01*
X152113571Y-96364285D01*
X152042142Y-96364285D01*
X151506428Y-96828571D02*
X151577857Y-96864285D01*
X151720714Y-96864285D01*
X151792142Y-96828571D01*
X151827857Y-96757142D01*
X151827857Y-96471428D01*
X151792142Y-96400000D01*
X151720714Y-96364285D01*
X151577857Y-96364285D01*
X151506428Y-96400000D01*
X151470714Y-96471428D01*
X151470714Y-96542857D01*
X151827857Y-96614285D01*
X151220714Y-96364285D02*
X151042142Y-96864285D01*
X150863571Y-96364285D01*
X149613571Y-96864285D02*
X150042142Y-96864285D01*
X149827857Y-96864285D02*
X149827857Y-96114285D01*
X149899285Y-96221428D01*
X149970714Y-96292857D01*
X150042142Y-96328571D01*
X148970714Y-96864285D02*
X148970714Y-96471428D01*
X149006428Y-96400000D01*
X149077857Y-96364285D01*
X149220714Y-96364285D01*
X149292142Y-96400000D01*
X148970714Y-96828571D02*
X149042142Y-96864285D01*
X149220714Y-96864285D01*
X149292142Y-96828571D01*
X149327857Y-96757142D01*
X149327857Y-96685714D01*
X149292142Y-96614285D01*
X149220714Y-96578571D01*
X149042142Y-96578571D01*
X148970714Y-96542857D01*
X148649285Y-96185714D02*
X148613571Y-96150000D01*
X148542142Y-96114285D01*
X148363571Y-96114285D01*
X148292142Y-96150000D01*
X148256428Y-96185714D01*
X148220714Y-96257142D01*
X148220714Y-96328571D01*
X148256428Y-96435714D01*
X148685000Y-96864285D01*
X148220714Y-96864285D01*
X152539285Y-105642857D02*
X152575000Y-105678571D01*
X152682142Y-105714285D01*
X152753571Y-105714285D01*
X152860714Y-105678571D01*
X152932142Y-105607142D01*
X152967857Y-105535714D01*
X153003571Y-105392857D01*
X153003571Y-105285714D01*
X152967857Y-105142857D01*
X152932142Y-105071428D01*
X152860714Y-105000000D01*
X152753571Y-104964285D01*
X152682142Y-104964285D01*
X152575000Y-105000000D01*
X152539285Y-105035714D01*
X152217857Y-105714285D02*
X152217857Y-105214285D01*
X152217857Y-105357142D02*
X152182142Y-105285714D01*
X152146428Y-105250000D01*
X152075000Y-105214285D01*
X152003571Y-105214285D01*
X151467857Y-105678571D02*
X151539285Y-105714285D01*
X151682142Y-105714285D01*
X151753571Y-105678571D01*
X151789285Y-105607142D01*
X151789285Y-105321428D01*
X151753571Y-105250000D01*
X151682142Y-105214285D01*
X151539285Y-105214285D01*
X151467857Y-105250000D01*
X151432142Y-105321428D01*
X151432142Y-105392857D01*
X151789285Y-105464285D01*
X150789285Y-105714285D02*
X150789285Y-105321428D01*
X150825000Y-105250000D01*
X150896428Y-105214285D01*
X151039285Y-105214285D01*
X151110714Y-105250000D01*
X150789285Y-105678571D02*
X150860714Y-105714285D01*
X151039285Y-105714285D01*
X151110714Y-105678571D01*
X151146428Y-105607142D01*
X151146428Y-105535714D01*
X151110714Y-105464285D01*
X151039285Y-105428571D01*
X150860714Y-105428571D01*
X150789285Y-105392857D01*
X150539285Y-105214285D02*
X150253571Y-105214285D01*
X150432142Y-104964285D02*
X150432142Y-105607142D01*
X150396428Y-105678571D01*
X150325000Y-105714285D01*
X150253571Y-105714285D01*
X149717857Y-105678571D02*
X149789285Y-105714285D01*
X149932142Y-105714285D01*
X150003571Y-105678571D01*
X150039285Y-105607142D01*
X150039285Y-105321428D01*
X150003571Y-105250000D01*
X149932142Y-105214285D01*
X149789285Y-105214285D01*
X149717857Y-105250000D01*
X149682142Y-105321428D01*
X149682142Y-105392857D01*
X150039285Y-105464285D01*
X149039285Y-105714285D02*
X149039285Y-104964285D01*
X149039285Y-105678571D02*
X149110714Y-105714285D01*
X149253571Y-105714285D01*
X149325000Y-105678571D01*
X149360714Y-105642857D01*
X149396428Y-105571428D01*
X149396428Y-105357142D01*
X149360714Y-105285714D01*
X149325000Y-105250000D01*
X149253571Y-105214285D01*
X149110714Y-105214285D01*
X149039285Y-105250000D01*
X148110714Y-105714285D02*
X148110714Y-104964285D01*
X148110714Y-105250000D02*
X148039285Y-105214285D01*
X147896428Y-105214285D01*
X147825000Y-105250000D01*
X147789285Y-105285714D01*
X147753571Y-105357142D01*
X147753571Y-105571428D01*
X147789285Y-105642857D01*
X147825000Y-105678571D01*
X147896428Y-105714285D01*
X148039285Y-105714285D01*
X148110714Y-105678571D01*
X147503571Y-105214285D02*
X147325000Y-105714285D01*
X147146428Y-105214285D02*
X147325000Y-105714285D01*
X147396428Y-105892857D01*
X147432142Y-105928571D01*
X147503571Y-105964285D01*
X146075000Y-104964285D02*
X146075000Y-105500000D01*
X146110714Y-105607142D01*
X146182142Y-105678571D01*
X146289285Y-105714285D01*
X146360714Y-105714285D01*
X145432142Y-105678571D02*
X145503571Y-105714285D01*
X145646428Y-105714285D01*
X145717857Y-105678571D01*
X145753571Y-105607142D01*
X145753571Y-105321428D01*
X145717857Y-105250000D01*
X145646428Y-105214285D01*
X145503571Y-105214285D01*
X145432142Y-105250000D01*
X145396428Y-105321428D01*
X145396428Y-105392857D01*
X145753571Y-105464285D01*
X145075000Y-105714285D02*
X145075000Y-105214285D01*
X145075000Y-105357142D02*
X145039285Y-105285714D01*
X145003571Y-105250000D01*
X144932142Y-105214285D01*
X144860714Y-105214285D01*
X144325000Y-105678571D02*
X144396428Y-105714285D01*
X144539285Y-105714285D01*
X144610714Y-105678571D01*
X144646428Y-105607142D01*
X144646428Y-105321428D01*
X144610714Y-105250000D01*
X144539285Y-105214285D01*
X144396428Y-105214285D01*
X144325000Y-105250000D01*
X144289285Y-105321428D01*
X144289285Y-105392857D01*
X144646428Y-105464285D01*
X143967857Y-105714285D02*
X143967857Y-105214285D01*
X143967857Y-105285714D02*
X143932142Y-105250000D01*
X143860714Y-105214285D01*
X143753571Y-105214285D01*
X143682142Y-105250000D01*
X143646428Y-105321428D01*
X143646428Y-105714285D01*
X143646428Y-105321428D02*
X143610714Y-105250000D01*
X143539285Y-105214285D01*
X143432142Y-105214285D01*
X143360714Y-105250000D01*
X143325000Y-105321428D01*
X143325000Y-105714285D01*
X143039285Y-105214285D02*
X142860714Y-105714285D01*
X142682142Y-105214285D02*
X142860714Y-105714285D01*
X142932142Y-105892857D01*
X142967857Y-105928571D01*
X143039285Y-105964285D01*
X141432142Y-105000000D02*
X141503571Y-104964285D01*
X141610714Y-104964285D01*
X141717857Y-105000000D01*
X141789285Y-105071428D01*
X141825000Y-105142857D01*
X141860714Y-105285714D01*
X141860714Y-105392857D01*
X141825000Y-105535714D01*
X141789285Y-105607142D01*
X141717857Y-105678571D01*
X141610714Y-105714285D01*
X141539285Y-105714285D01*
X141432142Y-105678571D01*
X141396428Y-105642857D01*
X141396428Y-105392857D01*
X141539285Y-105392857D01*
X141075000Y-105714285D02*
X141075000Y-105214285D01*
X141075000Y-104964285D02*
X141110714Y-105000000D01*
X141075000Y-105035714D01*
X141039285Y-105000000D01*
X141075000Y-104964285D01*
X141075000Y-105035714D01*
X140610714Y-105714285D02*
X140682142Y-105678571D01*
X140717857Y-105607142D01*
X140717857Y-104964285D01*
X140217857Y-105714285D02*
X140289285Y-105678571D01*
X140325000Y-105607142D01*
X140325000Y-104964285D01*
X139932142Y-105714285D02*
X139932142Y-105214285D01*
X139932142Y-104964285D02*
X139967857Y-105000000D01*
X139932142Y-105035714D01*
X139896428Y-105000000D01*
X139932142Y-104964285D01*
X139932142Y-105035714D01*
X139253571Y-105678571D02*
X139325000Y-105714285D01*
X139467857Y-105714285D01*
X139539285Y-105678571D01*
X139575000Y-105642857D01*
X139610714Y-105571428D01*
X139610714Y-105357142D01*
X139575000Y-105285714D01*
X139539285Y-105250000D01*
X139467857Y-105214285D01*
X139325000Y-105214285D01*
X139253571Y-105250000D01*
X138932142Y-105714285D02*
X138932142Y-104964285D01*
X138860714Y-105428571D02*
X138646428Y-105714285D01*
X138646428Y-105214285D02*
X138932142Y-105500000D01*
D11*
X120082142Y-98758333D02*
X120108333Y-98732142D01*
X120160714Y-98653571D01*
X120186904Y-98601190D01*
X120213095Y-98522619D01*
X120239285Y-98391666D01*
X120239285Y-98286904D01*
X120213095Y-98155952D01*
X120186904Y-98077380D01*
X120160714Y-98025000D01*
X120108333Y-97946428D01*
X120082142Y-97920238D01*
X119872619Y-98548809D02*
X119872619Y-98182142D01*
X119872619Y-98234523D02*
X119846428Y-98208333D01*
X119794047Y-98182142D01*
X119715476Y-98182142D01*
X119663095Y-98208333D01*
X119636904Y-98260714D01*
X119636904Y-98548809D01*
X119636904Y-98260714D02*
X119610714Y-98208333D01*
X119558333Y-98182142D01*
X119479761Y-98182142D01*
X119427380Y-98208333D01*
X119401190Y-98260714D01*
X119401190Y-98548809D01*
X118903571Y-98548809D02*
X118903571Y-98260714D01*
X118929761Y-98208333D01*
X118982142Y-98182142D01*
X119086904Y-98182142D01*
X119139285Y-98208333D01*
X118903571Y-98522619D02*
X118955952Y-98548809D01*
X119086904Y-98548809D01*
X119139285Y-98522619D01*
X119165476Y-98470238D01*
X119165476Y-98417857D01*
X119139285Y-98365476D01*
X119086904Y-98339285D01*
X118955952Y-98339285D01*
X118903571Y-98313095D01*
X118694047Y-98548809D02*
X118405952Y-98182142D01*
X118694047Y-98182142D02*
X118405952Y-98548809D01*
X117803571Y-98051190D02*
X117777380Y-98025000D01*
X117725000Y-97998809D01*
X117594047Y-97998809D01*
X117541666Y-98025000D01*
X117515476Y-98051190D01*
X117489285Y-98103571D01*
X117489285Y-98155952D01*
X117515476Y-98234523D01*
X117829761Y-98548809D01*
X117489285Y-98548809D01*
X117253571Y-98496428D02*
X117227380Y-98522619D01*
X117253571Y-98548809D01*
X117279761Y-98522619D01*
X117253571Y-98496428D01*
X117253571Y-98548809D01*
X117044047Y-97998809D02*
X116703571Y-97998809D01*
X116886904Y-98208333D01*
X116808333Y-98208333D01*
X116755952Y-98234523D01*
X116729761Y-98260714D01*
X116703571Y-98313095D01*
X116703571Y-98444047D01*
X116729761Y-98496428D01*
X116755952Y-98522619D01*
X116808333Y-98548809D01*
X116965476Y-98548809D01*
X117017857Y-98522619D01*
X117044047Y-98496428D01*
X116494047Y-98391666D02*
X116232142Y-98391666D01*
X116546428Y-98548809D02*
X116363095Y-97998809D01*
X116179761Y-98548809D01*
X115577380Y-98182142D02*
X115577380Y-98732142D01*
X115577380Y-98208333D02*
X115525000Y-98182142D01*
X115420238Y-98182142D01*
X115367857Y-98208333D01*
X115341666Y-98234523D01*
X115315476Y-98286904D01*
X115315476Y-98444047D01*
X115341666Y-98496428D01*
X115367857Y-98522619D01*
X115420238Y-98548809D01*
X115525000Y-98548809D01*
X115577380Y-98522619D01*
X114870238Y-98522619D02*
X114922619Y-98548809D01*
X115027380Y-98548809D01*
X115079761Y-98522619D01*
X115105952Y-98470238D01*
X115105952Y-98260714D01*
X115079761Y-98208333D01*
X115027380Y-98182142D01*
X114922619Y-98182142D01*
X114870238Y-98208333D01*
X114844047Y-98260714D01*
X114844047Y-98313095D01*
X115105952Y-98365476D01*
X114608333Y-98548809D02*
X114608333Y-98182142D01*
X114608333Y-98286904D02*
X114582142Y-98234523D01*
X114555952Y-98208333D01*
X114503571Y-98182142D01*
X114451190Y-98182142D01*
X113613095Y-98522619D02*
X113665476Y-98548809D01*
X113770238Y-98548809D01*
X113822619Y-98522619D01*
X113848809Y-98496428D01*
X113875000Y-98444047D01*
X113875000Y-98286904D01*
X113848809Y-98234523D01*
X113822619Y-98208333D01*
X113770238Y-98182142D01*
X113665476Y-98182142D01*
X113613095Y-98208333D01*
X113377380Y-98548809D02*
X113377380Y-97998809D01*
X113141666Y-98548809D02*
X113141666Y-98260714D01*
X113167857Y-98208333D01*
X113220238Y-98182142D01*
X113298809Y-98182142D01*
X113351190Y-98208333D01*
X113377380Y-98234523D01*
X112644047Y-98548809D02*
X112644047Y-98260714D01*
X112670238Y-98208333D01*
X112722619Y-98182142D01*
X112827380Y-98182142D01*
X112879761Y-98208333D01*
X112644047Y-98522619D02*
X112696428Y-98548809D01*
X112827380Y-98548809D01*
X112879761Y-98522619D01*
X112905952Y-98470238D01*
X112905952Y-98417857D01*
X112879761Y-98365476D01*
X112827380Y-98339285D01*
X112696428Y-98339285D01*
X112644047Y-98313095D01*
X112382142Y-98182142D02*
X112382142Y-98548809D01*
X112382142Y-98234523D02*
X112355952Y-98208333D01*
X112303571Y-98182142D01*
X112225000Y-98182142D01*
X112172619Y-98208333D01*
X112146428Y-98260714D01*
X112146428Y-98548809D01*
X111884523Y-98182142D02*
X111884523Y-98548809D01*
X111884523Y-98234523D02*
X111858333Y-98208333D01*
X111805952Y-98182142D01*
X111727380Y-98182142D01*
X111675000Y-98208333D01*
X111648809Y-98260714D01*
X111648809Y-98548809D01*
X111177380Y-98522619D02*
X111229761Y-98548809D01*
X111334523Y-98548809D01*
X111386904Y-98522619D01*
X111413095Y-98470238D01*
X111413095Y-98260714D01*
X111386904Y-98208333D01*
X111334523Y-98182142D01*
X111229761Y-98182142D01*
X111177380Y-98208333D01*
X111151190Y-98260714D01*
X111151190Y-98313095D01*
X111413095Y-98365476D01*
X110836904Y-98548809D02*
X110889285Y-98522619D01*
X110915476Y-98470238D01*
X110915476Y-97998809D01*
X110627380Y-98496428D02*
X110601190Y-98522619D01*
X110627380Y-98548809D01*
X110653571Y-98522619D01*
X110627380Y-98496428D01*
X110627380Y-98548809D01*
X110627380Y-98339285D02*
X110653571Y-98025000D01*
X110627380Y-97998809D01*
X110601190Y-98025000D01*
X110627380Y-98339285D01*
X110627380Y-97998809D01*
X110417857Y-98758333D02*
X110391666Y-98732142D01*
X110339285Y-98653571D01*
X110313095Y-98601190D01*
X110286904Y-98522619D01*
X110260714Y-98391666D01*
X110260714Y-98286904D01*
X110286904Y-98155952D01*
X110313095Y-98077380D01*
X110339285Y-98025000D01*
X110391666Y-97946428D01*
X110417857Y-97920238D01*
D10*
X90608333Y-97694047D02*
X90608333Y-97044047D01*
X90360714Y-97044047D01*
X90298809Y-97075000D01*
X90267857Y-97105952D01*
X90236904Y-97167857D01*
X90236904Y-97260714D01*
X90267857Y-97322619D01*
X90298809Y-97353571D01*
X90360714Y-97384523D01*
X90608333Y-97384523D01*
X89989285Y-97508333D02*
X89679761Y-97508333D01*
X90051190Y-97694047D02*
X89834523Y-97044047D01*
X89617857Y-97694047D01*
X89308333Y-97322619D02*
X89370238Y-97291666D01*
X89401190Y-97260714D01*
X89432142Y-97198809D01*
X89432142Y-97167857D01*
X89401190Y-97105952D01*
X89370238Y-97075000D01*
X89308333Y-97044047D01*
X89184523Y-97044047D01*
X89122619Y-97075000D01*
X89091666Y-97105952D01*
X89060714Y-97167857D01*
X89060714Y-97198809D01*
X89091666Y-97260714D01*
X89122619Y-97291666D01*
X89184523Y-97322619D01*
X89308333Y-97322619D01*
X89370238Y-97353571D01*
X89401190Y-97384523D01*
X89432142Y-97446428D01*
X89432142Y-97570238D01*
X89401190Y-97632142D01*
X89370238Y-97663095D01*
X89308333Y-97694047D01*
X89184523Y-97694047D01*
X89122619Y-97663095D01*
X89091666Y-97632142D01*
X89060714Y-97570238D01*
X89060714Y-97446428D01*
X89091666Y-97384523D01*
X89122619Y-97353571D01*
X89184523Y-97322619D01*
X88133333Y-97694047D02*
X88133333Y-97044047D01*
X87885714Y-97044047D01*
X87823809Y-97075000D01*
X87792857Y-97105952D01*
X87761904Y-97167857D01*
X87761904Y-97260714D01*
X87792857Y-97322619D01*
X87823809Y-97353571D01*
X87885714Y-97384523D01*
X88133333Y-97384523D01*
X87514285Y-97508333D02*
X87204761Y-97508333D01*
X87576190Y-97694047D02*
X87359523Y-97044047D01*
X87142857Y-97694047D01*
X86988095Y-97044047D02*
X86554761Y-97044047D01*
X86833333Y-97694047D01*
X85558333Y-97694047D02*
X85558333Y-97044047D01*
X85310714Y-97044047D01*
X85248809Y-97075000D01*
X85217857Y-97105952D01*
X85186904Y-97167857D01*
X85186904Y-97260714D01*
X85217857Y-97322619D01*
X85248809Y-97353571D01*
X85310714Y-97384523D01*
X85558333Y-97384523D01*
X84939285Y-97508333D02*
X84629761Y-97508333D01*
X85001190Y-97694047D02*
X84784523Y-97044047D01*
X84567857Y-97694047D01*
X84072619Y-97044047D02*
X84196428Y-97044047D01*
X84258333Y-97075000D01*
X84289285Y-97105952D01*
X84351190Y-97198809D01*
X84382142Y-97322619D01*
X84382142Y-97570238D01*
X84351190Y-97632142D01*
X84320238Y-97663095D01*
X84258333Y-97694047D01*
X84134523Y-97694047D01*
X84072619Y-97663095D01*
X84041666Y-97632142D01*
X84010714Y-97570238D01*
X84010714Y-97415476D01*
X84041666Y-97353571D01*
X84072619Y-97322619D01*
X84134523Y-97291666D01*
X84258333Y-97291666D01*
X84320238Y-97322619D01*
X84351190Y-97353571D01*
X84382142Y-97415476D01*
X82958333Y-97694047D02*
X82958333Y-97044047D01*
X82710714Y-97044047D01*
X82648809Y-97075000D01*
X82617857Y-97105952D01*
X82586904Y-97167857D01*
X82586904Y-97260714D01*
X82617857Y-97322619D01*
X82648809Y-97353571D01*
X82710714Y-97384523D01*
X82958333Y-97384523D01*
X82339285Y-97508333D02*
X82029761Y-97508333D01*
X82401190Y-97694047D02*
X82184523Y-97044047D01*
X81967857Y-97694047D01*
X81441666Y-97044047D02*
X81751190Y-97044047D01*
X81782142Y-97353571D01*
X81751190Y-97322619D01*
X81689285Y-97291666D01*
X81534523Y-97291666D01*
X81472619Y-97322619D01*
X81441666Y-97353571D01*
X81410714Y-97415476D01*
X81410714Y-97570238D01*
X81441666Y-97632142D01*
X81472619Y-97663095D01*
X81534523Y-97694047D01*
X81689285Y-97694047D01*
X81751190Y-97663095D01*
X81782142Y-97632142D01*
X80408333Y-97694047D02*
X80408333Y-97044047D01*
X80160714Y-97044047D01*
X80098809Y-97075000D01*
X80067857Y-97105952D01*
X80036904Y-97167857D01*
X80036904Y-97260714D01*
X80067857Y-97322619D01*
X80098809Y-97353571D01*
X80160714Y-97384523D01*
X80408333Y-97384523D01*
X79789285Y-97508333D02*
X79479761Y-97508333D01*
X79851190Y-97694047D02*
X79634523Y-97044047D01*
X79417857Y-97694047D01*
X78922619Y-97260714D02*
X78922619Y-97694047D01*
X79077380Y-97013095D02*
X79232142Y-97477380D01*
X78829761Y-97477380D01*
X90654761Y-104144047D02*
X90654761Y-103494047D01*
X90407142Y-103494047D01*
X90345238Y-103525000D01*
X90314285Y-103555952D01*
X90283333Y-103617857D01*
X90283333Y-103710714D01*
X90314285Y-103772619D01*
X90345238Y-103803571D01*
X90407142Y-103834523D01*
X90654761Y-103834523D01*
X89788095Y-103803571D02*
X89695238Y-103834523D01*
X89664285Y-103865476D01*
X89633333Y-103927380D01*
X89633333Y-104020238D01*
X89664285Y-104082142D01*
X89695238Y-104113095D01*
X89757142Y-104144047D01*
X90004761Y-104144047D01*
X90004761Y-103494047D01*
X89788095Y-103494047D01*
X89726190Y-103525000D01*
X89695238Y-103555952D01*
X89664285Y-103617857D01*
X89664285Y-103679761D01*
X89695238Y-103741666D01*
X89726190Y-103772619D01*
X89788095Y-103803571D01*
X90004761Y-103803571D01*
X89261904Y-103772619D02*
X89323809Y-103741666D01*
X89354761Y-103710714D01*
X89385714Y-103648809D01*
X89385714Y-103617857D01*
X89354761Y-103555952D01*
X89323809Y-103525000D01*
X89261904Y-103494047D01*
X89138095Y-103494047D01*
X89076190Y-103525000D01*
X89045238Y-103555952D01*
X89014285Y-103617857D01*
X89014285Y-103648809D01*
X89045238Y-103710714D01*
X89076190Y-103741666D01*
X89138095Y-103772619D01*
X89261904Y-103772619D01*
X89323809Y-103803571D01*
X89354761Y-103834523D01*
X89385714Y-103896428D01*
X89385714Y-104020238D01*
X89354761Y-104082142D01*
X89323809Y-104113095D01*
X89261904Y-104144047D01*
X89138095Y-104144047D01*
X89076190Y-104113095D01*
X89045238Y-104082142D01*
X89014285Y-104020238D01*
X89014285Y-103896428D01*
X89045238Y-103834523D01*
X89076190Y-103803571D01*
X89138095Y-103772619D01*
X88129761Y-104144047D02*
X88129761Y-103494047D01*
X87882142Y-103494047D01*
X87820238Y-103525000D01*
X87789285Y-103555952D01*
X87758333Y-103617857D01*
X87758333Y-103710714D01*
X87789285Y-103772619D01*
X87820238Y-103803571D01*
X87882142Y-103834523D01*
X88129761Y-103834523D01*
X87263095Y-103803571D02*
X87170238Y-103834523D01*
X87139285Y-103865476D01*
X87108333Y-103927380D01*
X87108333Y-104020238D01*
X87139285Y-104082142D01*
X87170238Y-104113095D01*
X87232142Y-104144047D01*
X87479761Y-104144047D01*
X87479761Y-103494047D01*
X87263095Y-103494047D01*
X87201190Y-103525000D01*
X87170238Y-103555952D01*
X87139285Y-103617857D01*
X87139285Y-103679761D01*
X87170238Y-103741666D01*
X87201190Y-103772619D01*
X87263095Y-103803571D01*
X87479761Y-103803571D01*
X86891666Y-103494047D02*
X86458333Y-103494047D01*
X86736904Y-104144047D01*
X85554761Y-104144047D02*
X85554761Y-103494047D01*
X85307142Y-103494047D01*
X85245238Y-103525000D01*
X85214285Y-103555952D01*
X85183333Y-103617857D01*
X85183333Y-103710714D01*
X85214285Y-103772619D01*
X85245238Y-103803571D01*
X85307142Y-103834523D01*
X85554761Y-103834523D01*
X84688095Y-103803571D02*
X84595238Y-103834523D01*
X84564285Y-103865476D01*
X84533333Y-103927380D01*
X84533333Y-104020238D01*
X84564285Y-104082142D01*
X84595238Y-104113095D01*
X84657142Y-104144047D01*
X84904761Y-104144047D01*
X84904761Y-103494047D01*
X84688095Y-103494047D01*
X84626190Y-103525000D01*
X84595238Y-103555952D01*
X84564285Y-103617857D01*
X84564285Y-103679761D01*
X84595238Y-103741666D01*
X84626190Y-103772619D01*
X84688095Y-103803571D01*
X84904761Y-103803571D01*
X83976190Y-103494047D02*
X84100000Y-103494047D01*
X84161904Y-103525000D01*
X84192857Y-103555952D01*
X84254761Y-103648809D01*
X84285714Y-103772619D01*
X84285714Y-104020238D01*
X84254761Y-104082142D01*
X84223809Y-104113095D01*
X84161904Y-104144047D01*
X84038095Y-104144047D01*
X83976190Y-104113095D01*
X83945238Y-104082142D01*
X83914285Y-104020238D01*
X83914285Y-103865476D01*
X83945238Y-103803571D01*
X83976190Y-103772619D01*
X84038095Y-103741666D01*
X84161904Y-103741666D01*
X84223809Y-103772619D01*
X84254761Y-103803571D01*
X84285714Y-103865476D01*
X83317857Y-104144047D02*
X83317857Y-103494047D01*
X83070238Y-103494047D01*
X83008333Y-103525000D01*
X82977380Y-103555952D01*
X82946428Y-103617857D01*
X82946428Y-103710714D01*
X82977380Y-103772619D01*
X83008333Y-103803571D01*
X83070238Y-103834523D01*
X83317857Y-103834523D01*
X82698809Y-103958333D02*
X82389285Y-103958333D01*
X82760714Y-104144047D02*
X82544047Y-103494047D01*
X82327380Y-104144047D01*
X81770238Y-104144047D02*
X82141666Y-104144047D01*
X81955952Y-104144047D02*
X81955952Y-103494047D01*
X82017857Y-103586904D01*
X82079761Y-103648809D01*
X82141666Y-103679761D01*
X81367857Y-103494047D02*
X81305952Y-103494047D01*
X81244047Y-103525000D01*
X81213095Y-103555952D01*
X81182142Y-103617857D01*
X81151190Y-103741666D01*
X81151190Y-103896428D01*
X81182142Y-104020238D01*
X81213095Y-104082142D01*
X81244047Y-104113095D01*
X81305952Y-104144047D01*
X81367857Y-104144047D01*
X81429761Y-104113095D01*
X81460714Y-104082142D01*
X81491666Y-104020238D01*
X81522619Y-103896428D01*
X81522619Y-103741666D01*
X81491666Y-103617857D01*
X81460714Y-103555952D01*
X81429761Y-103525000D01*
X81367857Y-103494047D01*
X80483333Y-104144047D02*
X80483333Y-103494047D01*
X80235714Y-103494047D01*
X80173809Y-103525000D01*
X80142857Y-103555952D01*
X80111904Y-103617857D01*
X80111904Y-103710714D01*
X80142857Y-103772619D01*
X80173809Y-103803571D01*
X80235714Y-103834523D01*
X80483333Y-103834523D01*
X79864285Y-103958333D02*
X79554761Y-103958333D01*
X79926190Y-104144047D02*
X79709523Y-103494047D01*
X79492857Y-104144047D01*
X79245238Y-104144047D02*
X79121428Y-104144047D01*
X79059523Y-104113095D01*
X79028571Y-104082142D01*
X78966666Y-103989285D01*
X78935714Y-103865476D01*
X78935714Y-103617857D01*
X78966666Y-103555952D01*
X78997619Y-103525000D01*
X79059523Y-103494047D01*
X79183333Y-103494047D01*
X79245238Y-103525000D01*
X79276190Y-103555952D01*
X79307142Y-103617857D01*
X79307142Y-103772619D01*
X79276190Y-103834523D01*
X79245238Y-103865476D01*
X79183333Y-103896428D01*
X79059523Y-103896428D01*
X78997619Y-103865476D01*
X78966666Y-103834523D01*
X78935714Y-103772619D01*
X110858333Y-97469047D02*
X110858333Y-96819047D01*
X110610714Y-96819047D01*
X110548809Y-96850000D01*
X110517857Y-96880952D01*
X110486904Y-96942857D01*
X110486904Y-97035714D01*
X110517857Y-97097619D01*
X110548809Y-97128571D01*
X110610714Y-97159523D01*
X110858333Y-97159523D01*
X110239285Y-97283333D02*
X109929761Y-97283333D01*
X110301190Y-97469047D02*
X110084523Y-96819047D01*
X109867857Y-97469047D01*
X109713095Y-96819047D02*
X109310714Y-96819047D01*
X109527380Y-97066666D01*
X109434523Y-97066666D01*
X109372619Y-97097619D01*
X109341666Y-97128571D01*
X109310714Y-97190476D01*
X109310714Y-97345238D01*
X109341666Y-97407142D01*
X109372619Y-97438095D01*
X109434523Y-97469047D01*
X109620238Y-97469047D01*
X109682142Y-97438095D01*
X109713095Y-97407142D01*
X113408333Y-97469047D02*
X113408333Y-96819047D01*
X113160714Y-96819047D01*
X113098809Y-96850000D01*
X113067857Y-96880952D01*
X113036904Y-96942857D01*
X113036904Y-97035714D01*
X113067857Y-97097619D01*
X113098809Y-97128571D01*
X113160714Y-97159523D01*
X113408333Y-97159523D01*
X112789285Y-97283333D02*
X112479761Y-97283333D01*
X112851190Y-97469047D02*
X112634523Y-96819047D01*
X112417857Y-97469047D01*
X112232142Y-96880952D02*
X112201190Y-96850000D01*
X112139285Y-96819047D01*
X111984523Y-96819047D01*
X111922619Y-96850000D01*
X111891666Y-96880952D01*
X111860714Y-96942857D01*
X111860714Y-97004761D01*
X111891666Y-97097619D01*
X112263095Y-97469047D01*
X111860714Y-97469047D01*
X115958333Y-97469047D02*
X115958333Y-96819047D01*
X115710714Y-96819047D01*
X115648809Y-96850000D01*
X115617857Y-96880952D01*
X115586904Y-96942857D01*
X115586904Y-97035714D01*
X115617857Y-97097619D01*
X115648809Y-97128571D01*
X115710714Y-97159523D01*
X115958333Y-97159523D01*
X115339285Y-97283333D02*
X115029761Y-97283333D01*
X115401190Y-97469047D02*
X115184523Y-96819047D01*
X114967857Y-97469047D01*
X114410714Y-97469047D02*
X114782142Y-97469047D01*
X114596428Y-97469047D02*
X114596428Y-96819047D01*
X114658333Y-96911904D01*
X114720238Y-96973809D01*
X114782142Y-97004761D01*
X118508333Y-97494047D02*
X118508333Y-96844047D01*
X118260714Y-96844047D01*
X118198809Y-96875000D01*
X118167857Y-96905952D01*
X118136904Y-96967857D01*
X118136904Y-97060714D01*
X118167857Y-97122619D01*
X118198809Y-97153571D01*
X118260714Y-97184523D01*
X118508333Y-97184523D01*
X117889285Y-97308333D02*
X117579761Y-97308333D01*
X117951190Y-97494047D02*
X117734523Y-96844047D01*
X117517857Y-97494047D01*
X117177380Y-96844047D02*
X117115476Y-96844047D01*
X117053571Y-96875000D01*
X117022619Y-96905952D01*
X116991666Y-96967857D01*
X116960714Y-97091666D01*
X116960714Y-97246428D01*
X116991666Y-97370238D01*
X117022619Y-97432142D01*
X117053571Y-97463095D01*
X117115476Y-97494047D01*
X117177380Y-97494047D01*
X117239285Y-97463095D01*
X117270238Y-97432142D01*
X117301190Y-97370238D01*
X117332142Y-97246428D01*
X117332142Y-97091666D01*
X117301190Y-96967857D01*
X117270238Y-96905952D01*
X117239285Y-96875000D01*
X117177380Y-96844047D01*
X121521428Y-97078571D02*
X121428571Y-97109523D01*
X121397619Y-97140476D01*
X121366666Y-97202380D01*
X121366666Y-97295238D01*
X121397619Y-97357142D01*
X121428571Y-97388095D01*
X121490476Y-97419047D01*
X121738095Y-97419047D01*
X121738095Y-96769047D01*
X121521428Y-96769047D01*
X121459523Y-96800000D01*
X121428571Y-96830952D01*
X121397619Y-96892857D01*
X121397619Y-96954761D01*
X121428571Y-97016666D01*
X121459523Y-97047619D01*
X121521428Y-97078571D01*
X121738095Y-97078571D01*
X120809523Y-97419047D02*
X120809523Y-97078571D01*
X120840476Y-97016666D01*
X120902380Y-96985714D01*
X121026190Y-96985714D01*
X121088095Y-97016666D01*
X120809523Y-97388095D02*
X120871428Y-97419047D01*
X121026190Y-97419047D01*
X121088095Y-97388095D01*
X121119047Y-97326190D01*
X121119047Y-97264285D01*
X121088095Y-97202380D01*
X121026190Y-97171428D01*
X120871428Y-97171428D01*
X120809523Y-97140476D01*
X120592857Y-96985714D02*
X120345238Y-96985714D01*
X120500000Y-96769047D02*
X120500000Y-97326190D01*
X120469047Y-97388095D01*
X120407142Y-97419047D01*
X120345238Y-97419047D01*
X120221428Y-96985714D02*
X119973809Y-96985714D01*
X120128571Y-96769047D02*
X120128571Y-97326190D01*
X120097619Y-97388095D01*
X120035714Y-97419047D01*
X119973809Y-97419047D01*
X119757142Y-97171428D02*
X119261904Y-97171428D01*
X119509523Y-97419047D02*
X119509523Y-96923809D01*
D12*
X119702380Y-93977380D02*
X119702380Y-92977380D01*
X119321428Y-92977380D01*
X119226190Y-93025000D01*
X119178571Y-93072619D01*
X119130952Y-93167857D01*
X119130952Y-93310714D01*
X119178571Y-93405952D01*
X119226190Y-93453571D01*
X119321428Y-93501190D01*
X119702380Y-93501190D01*
X118797619Y-92977380D02*
X118559523Y-93977380D01*
X118369047Y-93263095D01*
X118178571Y-93977380D01*
X117940476Y-92977380D01*
X117559523Y-93977380D02*
X117559523Y-92977380D01*
X117226190Y-93691666D01*
X116892857Y-92977380D01*
X116892857Y-93977380D01*
X114940476Y-92929761D02*
X115797619Y-94215476D01*
X113369047Y-93977380D02*
X113845238Y-93977380D01*
X113845238Y-92977380D01*
X113035714Y-93453571D02*
X112702380Y-93453571D01*
X112559523Y-93977380D02*
X113035714Y-93977380D01*
X113035714Y-92977380D01*
X112559523Y-92977380D01*
X112130952Y-93977380D02*
X112130952Y-92977380D01*
X111892857Y-92977380D01*
X111750000Y-93025000D01*
X111654761Y-93120238D01*
X111607142Y-93215476D01*
X111559523Y-93405952D01*
X111559523Y-93548809D01*
X111607142Y-93739285D01*
X111654761Y-93834523D01*
X111750000Y-93929761D01*
X111892857Y-93977380D01*
X112130952Y-93977380D01*
X111178571Y-93929761D02*
X111083333Y-93977380D01*
X110892857Y-93977380D01*
X110797619Y-93929761D01*
X110750000Y-93834523D01*
X110750000Y-93786904D01*
X110797619Y-93691666D01*
X110892857Y-93644047D01*
X111035714Y-93644047D01*
X111130952Y-93596428D01*
X111178571Y-93501190D01*
X111178571Y-93453571D01*
X111130952Y-93358333D01*
X111035714Y-93310714D01*
X110892857Y-93310714D01*
X110797619Y-93358333D01*
D10*
X121492857Y-103853571D02*
X121407142Y-103884523D01*
X121378571Y-103915476D01*
X121350000Y-103977380D01*
X121350000Y-104070238D01*
X121378571Y-104132142D01*
X121407142Y-104163095D01*
X121464285Y-104194047D01*
X121692857Y-104194047D01*
X121692857Y-103544047D01*
X121492857Y-103544047D01*
X121435714Y-103575000D01*
X121407142Y-103605952D01*
X121378571Y-103667857D01*
X121378571Y-103729761D01*
X121407142Y-103791666D01*
X121435714Y-103822619D01*
X121492857Y-103853571D01*
X121692857Y-103853571D01*
X120835714Y-104194047D02*
X120835714Y-103853571D01*
X120864285Y-103791666D01*
X120921428Y-103760714D01*
X121035714Y-103760714D01*
X121092857Y-103791666D01*
X120835714Y-104163095D02*
X120892857Y-104194047D01*
X121035714Y-104194047D01*
X121092857Y-104163095D01*
X121121428Y-104101190D01*
X121121428Y-104039285D01*
X121092857Y-103977380D01*
X121035714Y-103946428D01*
X120892857Y-103946428D01*
X120835714Y-103915476D01*
X120635714Y-103760714D02*
X120407142Y-103760714D01*
X120550000Y-103544047D02*
X120550000Y-104101190D01*
X120521428Y-104163095D01*
X120464285Y-104194047D01*
X120407142Y-104194047D01*
X120292857Y-103760714D02*
X120064285Y-103760714D01*
X120207142Y-103544047D02*
X120207142Y-104101190D01*
X120178571Y-104163095D01*
X120121428Y-104194047D01*
X120064285Y-104194047D01*
X119864285Y-103946428D02*
X119407142Y-103946428D01*
X119635714Y-104194047D02*
X119635714Y-103698809D01*
X118632142Y-103569047D02*
X118260714Y-103569047D01*
X118460714Y-103816666D01*
X118375000Y-103816666D01*
X118317857Y-103847619D01*
X118289285Y-103878571D01*
X118260714Y-103940476D01*
X118260714Y-104095238D01*
X118289285Y-104157142D01*
X118317857Y-104188095D01*
X118375000Y-104219047D01*
X118546428Y-104219047D01*
X118603571Y-104188095D01*
X118632142Y-104157142D01*
X118003571Y-104157142D02*
X117975000Y-104188095D01*
X118003571Y-104219047D01*
X118032142Y-104188095D01*
X118003571Y-104157142D01*
X118003571Y-104219047D01*
X117775000Y-103569047D02*
X117403571Y-103569047D01*
X117603571Y-103816666D01*
X117517857Y-103816666D01*
X117460714Y-103847619D01*
X117432142Y-103878571D01*
X117403571Y-103940476D01*
X117403571Y-104095238D01*
X117432142Y-104157142D01*
X117460714Y-104188095D01*
X117517857Y-104219047D01*
X117689285Y-104219047D01*
X117746428Y-104188095D01*
X117775000Y-104157142D01*
X117203571Y-103785714D02*
X117060714Y-104219047D01*
X116917857Y-103785714D01*
X116178571Y-103569047D02*
X116178571Y-104095238D01*
X116150000Y-104157142D01*
X116121428Y-104188095D01*
X116064285Y-104219047D01*
X115950000Y-104219047D01*
X115892857Y-104188095D01*
X115864285Y-104157142D01*
X115835714Y-104095238D01*
X115835714Y-103569047D01*
X115578571Y-104188095D02*
X115492857Y-104219047D01*
X115350000Y-104219047D01*
X115292857Y-104188095D01*
X115264285Y-104157142D01*
X115235714Y-104095238D01*
X115235714Y-104033333D01*
X115264285Y-103971428D01*
X115292857Y-103940476D01*
X115350000Y-103909523D01*
X115464285Y-103878571D01*
X115521428Y-103847619D01*
X115550000Y-103816666D01*
X115578571Y-103754761D01*
X115578571Y-103692857D01*
X115550000Y-103630952D01*
X115521428Y-103600000D01*
X115464285Y-103569047D01*
X115321428Y-103569047D01*
X115235714Y-103600000D01*
X114778571Y-103878571D02*
X114692857Y-103909523D01*
X114664285Y-103940476D01*
X114635714Y-104002380D01*
X114635714Y-104095238D01*
X114664285Y-104157142D01*
X114692857Y-104188095D01*
X114750000Y-104219047D01*
X114978571Y-104219047D01*
X114978571Y-103569047D01*
X114778571Y-103569047D01*
X114721428Y-103600000D01*
X114692857Y-103630952D01*
X114664285Y-103692857D01*
X114664285Y-103754761D01*
X114692857Y-103816666D01*
X114721428Y-103847619D01*
X114778571Y-103878571D01*
X114978571Y-103878571D01*
X114378571Y-103971428D02*
X113921428Y-103971428D01*
X114150000Y-104219047D02*
X114150000Y-103723809D01*
X113085714Y-103600000D02*
X113142857Y-103569047D01*
X113228571Y-103569047D01*
X113314285Y-103600000D01*
X113371428Y-103661904D01*
X113400000Y-103723809D01*
X113428571Y-103847619D01*
X113428571Y-103940476D01*
X113400000Y-104064285D01*
X113371428Y-104126190D01*
X113314285Y-104188095D01*
X113228571Y-104219047D01*
X113171428Y-104219047D01*
X113085714Y-104188095D01*
X113057142Y-104157142D01*
X113057142Y-103940476D01*
X113171428Y-103940476D01*
X112800000Y-103785714D02*
X112800000Y-104219047D01*
X112800000Y-103847619D02*
X112771428Y-103816666D01*
X112714285Y-103785714D01*
X112628571Y-103785714D01*
X112571428Y-103816666D01*
X112542857Y-103878571D01*
X112542857Y-104219047D01*
X112000000Y-104219047D02*
X112000000Y-103569047D01*
X112000000Y-104188095D02*
X112057142Y-104219047D01*
X112171428Y-104219047D01*
X112228571Y-104188095D01*
X112257142Y-104157142D01*
X112285714Y-104095238D01*
X112285714Y-103909523D01*
X112257142Y-103847619D01*
X112228571Y-103816666D01*
X112171428Y-103785714D01*
X112057142Y-103785714D01*
X112000000Y-103816666D01*
D12*
X118476190Y-102852380D02*
X118476190Y-101852380D01*
X118095238Y-101852380D01*
X118000000Y-101900000D01*
X117952380Y-101947619D01*
X117904761Y-102042857D01*
X117904761Y-102185714D01*
X117952380Y-102280952D01*
X118000000Y-102328571D01*
X118095238Y-102376190D01*
X118476190Y-102376190D01*
X117333333Y-102852380D02*
X117428571Y-102804761D01*
X117476190Y-102757142D01*
X117523809Y-102661904D01*
X117523809Y-102376190D01*
X117476190Y-102280952D01*
X117428571Y-102233333D01*
X117333333Y-102185714D01*
X117190476Y-102185714D01*
X117095238Y-102233333D01*
X117047619Y-102280952D01*
X117000000Y-102376190D01*
X117000000Y-102661904D01*
X117047619Y-102757142D01*
X117095238Y-102804761D01*
X117190476Y-102852380D01*
X117333333Y-102852380D01*
X116666666Y-102185714D02*
X116476190Y-102852380D01*
X116285714Y-102376190D01*
X116095238Y-102852380D01*
X115904761Y-102185714D01*
X115142857Y-102804761D02*
X115238095Y-102852380D01*
X115428571Y-102852380D01*
X115523809Y-102804761D01*
X115571428Y-102709523D01*
X115571428Y-102328571D01*
X115523809Y-102233333D01*
X115428571Y-102185714D01*
X115238095Y-102185714D01*
X115142857Y-102233333D01*
X115095238Y-102328571D01*
X115095238Y-102423809D01*
X115571428Y-102519047D01*
X114666666Y-102852380D02*
X114666666Y-102185714D01*
X114666666Y-102376190D02*
X114619047Y-102280952D01*
X114571428Y-102233333D01*
X114476190Y-102185714D01*
X114380952Y-102185714D01*
D13*
X152708571Y-93339285D02*
X151680000Y-93339285D01*
X152194285Y-95139285D02*
X152194285Y-93339285D01*
X151080000Y-95139285D02*
X151080000Y-93339285D01*
X150308571Y-95139285D02*
X150308571Y-94196428D01*
X150394285Y-94025000D01*
X150565714Y-93939285D01*
X150822857Y-93939285D01*
X150994285Y-94025000D01*
X151080000Y-94110714D01*
X148680000Y-93939285D02*
X148680000Y-95139285D01*
X149451428Y-93939285D02*
X149451428Y-94882142D01*
X149365714Y-95053571D01*
X149194285Y-95139285D01*
X148937142Y-95139285D01*
X148765714Y-95053571D01*
X148680000Y-94967857D01*
X147822857Y-93939285D02*
X147822857Y-95139285D01*
X147822857Y-94110714D02*
X147737142Y-94025000D01*
X147565714Y-93939285D01*
X147308571Y-93939285D01*
X147137142Y-94025000D01*
X147051428Y-94196428D01*
X147051428Y-95139285D01*
X145422857Y-95139285D02*
X145422857Y-93339285D01*
X145422857Y-95053571D02*
X145594285Y-95139285D01*
X145937142Y-95139285D01*
X146108571Y-95053571D01*
X146194285Y-94967857D01*
X146280000Y-94796428D01*
X146280000Y-94282142D01*
X146194285Y-94110714D01*
X146108571Y-94025000D01*
X145937142Y-93939285D01*
X145594285Y-93939285D01*
X145422857Y-94025000D01*
X143880000Y-95053571D02*
X144051428Y-95139285D01*
X144394285Y-95139285D01*
X144565714Y-95053571D01*
X144651428Y-94882142D01*
X144651428Y-94196428D01*
X144565714Y-94025000D01*
X144394285Y-93939285D01*
X144051428Y-93939285D01*
X143880000Y-94025000D01*
X143794285Y-94196428D01*
X143794285Y-94367857D01*
X144651428Y-94539285D01*
X143022857Y-95139285D02*
X143022857Y-93939285D01*
X143022857Y-94282142D02*
X142937142Y-94110714D01*
X142851428Y-94025000D01*
X142680000Y-93939285D01*
X142508571Y-93939285D01*
X140537142Y-95139285D02*
X140537142Y-93339285D01*
X139851428Y-93339285D01*
X139680000Y-93425000D01*
X139594285Y-93510714D01*
X139508571Y-93682142D01*
X139508571Y-93939285D01*
X139594285Y-94110714D01*
X139680000Y-94196428D01*
X139851428Y-94282142D01*
X140537142Y-94282142D01*
X137965714Y-95139285D02*
X137965714Y-94196428D01*
X138051428Y-94025000D01*
X138222857Y-93939285D01*
X138565714Y-93939285D01*
X138737142Y-94025000D01*
X137965714Y-95053571D02*
X138137142Y-95139285D01*
X138565714Y-95139285D01*
X138737142Y-95053571D01*
X138822857Y-94882142D01*
X138822857Y-94710714D01*
X138737142Y-94539285D01*
X138565714Y-94453571D01*
X138137142Y-94453571D01*
X137965714Y-94367857D01*
X136337142Y-95053571D02*
X136508571Y-95139285D01*
X136851428Y-95139285D01*
X137022857Y-95053571D01*
X137108571Y-94967857D01*
X137194285Y-94796428D01*
X137194285Y-94282142D01*
X137108571Y-94110714D01*
X137022857Y-94025000D01*
X136851428Y-93939285D01*
X136508571Y-93939285D01*
X136337142Y-94025000D01*
X135565714Y-95139285D02*
X135565714Y-93339285D01*
X135394285Y-94453571D02*
X134880000Y-95139285D01*
X134880000Y-93939285D02*
X135565714Y-94625000D01*
X92000000Y-98050800D02*
X92000000Y-102050800D01*
X108000000Y-98050800D02*
X92000000Y-98050800D01*
X108000000Y-99050800D02*
X108000000Y-98050800D01*
X109000000Y-99050800D02*
X108000000Y-99050800D01*
X109000000Y-100950800D02*
X109000000Y-99050800D01*
X108100000Y-100950800D02*
X109000000Y-100950800D01*
X108100000Y-102050800D02*
X108100000Y-100950800D01*
X92000000Y-102050800D02*
X108100000Y-102050800D01*
D14*
X107071428Y-101227142D02*
X106992857Y-101255714D01*
X106966666Y-101284285D01*
X106940476Y-101341428D01*
X106940476Y-101427142D01*
X106966666Y-101484285D01*
X106992857Y-101512857D01*
X107045238Y-101541428D01*
X107254761Y-101541428D01*
X107254761Y-100941428D01*
X107071428Y-100941428D01*
X107019047Y-100970000D01*
X106992857Y-100998571D01*
X106966666Y-101055714D01*
X106966666Y-101112857D01*
X106992857Y-101170000D01*
X107019047Y-101198571D01*
X107071428Y-101227142D01*
X107254761Y-101227142D01*
X106469047Y-101141428D02*
X106469047Y-101541428D01*
X106704761Y-101141428D02*
X106704761Y-101455714D01*
X106678571Y-101512857D01*
X106626190Y-101541428D01*
X106547619Y-101541428D01*
X106495238Y-101512857D01*
X106469047Y-101484285D01*
X106207142Y-101541428D02*
X106207142Y-101141428D01*
X106207142Y-100941428D02*
X106233333Y-100970000D01*
X106207142Y-100998571D01*
X106180952Y-100970000D01*
X106207142Y-100941428D01*
X106207142Y-100998571D01*
X105866666Y-101541428D02*
X105919047Y-101512857D01*
X105945238Y-101455714D01*
X105945238Y-100941428D01*
X105735714Y-101141428D02*
X105526190Y-101141428D01*
X105657142Y-100941428D02*
X105657142Y-101455714D01*
X105630952Y-101512857D01*
X105578571Y-101541428D01*
X105526190Y-101541428D01*
X105342857Y-101312857D02*
X104923809Y-101312857D01*
X104661904Y-101541428D02*
X104661904Y-101141428D01*
X104661904Y-100941428D02*
X104688095Y-100970000D01*
X104661904Y-100998571D01*
X104635714Y-100970000D01*
X104661904Y-100941428D01*
X104661904Y-100998571D01*
X104400000Y-101141428D02*
X104400000Y-101541428D01*
X104400000Y-101198571D02*
X104373809Y-101170000D01*
X104321428Y-101141428D01*
X104242857Y-101141428D01*
X104190476Y-101170000D01*
X104164285Y-101227142D01*
X104164285Y-101541428D01*
X103483333Y-101141428D02*
X103483333Y-101741428D01*
X103483333Y-101170000D02*
X103430952Y-101141428D01*
X103326190Y-101141428D01*
X103273809Y-101170000D01*
X103247619Y-101198571D01*
X103221428Y-101255714D01*
X103221428Y-101427142D01*
X103247619Y-101484285D01*
X103273809Y-101512857D01*
X103326190Y-101541428D01*
X103430952Y-101541428D01*
X103483333Y-101512857D01*
X102985714Y-101541428D02*
X102985714Y-101141428D01*
X102985714Y-101255714D02*
X102959523Y-101198571D01*
X102933333Y-101170000D01*
X102880952Y-101141428D01*
X102828571Y-101141428D01*
X102566666Y-101541428D02*
X102619047Y-101512857D01*
X102645238Y-101484285D01*
X102671428Y-101427142D01*
X102671428Y-101255714D01*
X102645238Y-101198571D01*
X102619047Y-101170000D01*
X102566666Y-101141428D01*
X102488095Y-101141428D01*
X102435714Y-101170000D01*
X102409523Y-101198571D01*
X102383333Y-101255714D01*
X102383333Y-101427142D01*
X102409523Y-101484285D01*
X102435714Y-101512857D01*
X102488095Y-101541428D01*
X102566666Y-101541428D01*
X102226190Y-101141428D02*
X102016666Y-101141428D01*
X102147619Y-100941428D02*
X102147619Y-101455714D01*
X102121428Y-101512857D01*
X102069047Y-101541428D01*
X102016666Y-101541428D01*
X101623809Y-101512857D02*
X101676190Y-101541428D01*
X101780952Y-101541428D01*
X101833333Y-101512857D01*
X101859523Y-101455714D01*
X101859523Y-101227142D01*
X101833333Y-101170000D01*
X101780952Y-101141428D01*
X101676190Y-101141428D01*
X101623809Y-101170000D01*
X101597619Y-101227142D01*
X101597619Y-101284285D01*
X101859523Y-101341428D01*
X101126190Y-101512857D02*
X101178571Y-101541428D01*
X101283333Y-101541428D01*
X101335714Y-101512857D01*
X101361904Y-101484285D01*
X101388095Y-101427142D01*
X101388095Y-101255714D01*
X101361904Y-101198571D01*
X101335714Y-101170000D01*
X101283333Y-101141428D01*
X101178571Y-101141428D01*
X101126190Y-101170000D01*
X100969047Y-101141428D02*
X100759523Y-101141428D01*
X100890476Y-100941428D02*
X100890476Y-101455714D01*
X100864285Y-101512857D01*
X100811904Y-101541428D01*
X100759523Y-101541428D01*
X100576190Y-101541428D02*
X100576190Y-101141428D01*
X100576190Y-100941428D02*
X100602380Y-100970000D01*
X100576190Y-100998571D01*
X100550000Y-100970000D01*
X100576190Y-100941428D01*
X100576190Y-100998571D01*
X100235714Y-101541428D02*
X100288095Y-101512857D01*
X100314285Y-101484285D01*
X100340476Y-101427142D01*
X100340476Y-101255714D01*
X100314285Y-101198571D01*
X100288095Y-101170000D01*
X100235714Y-101141428D01*
X100157142Y-101141428D01*
X100104761Y-101170000D01*
X100078571Y-101198571D01*
X100052380Y-101255714D01*
X100052380Y-101427142D01*
X100078571Y-101484285D01*
X100104761Y-101512857D01*
X100157142Y-101541428D01*
X100235714Y-101541428D01*
X99816666Y-101141428D02*
X99816666Y-101541428D01*
X99816666Y-101198571D02*
X99790476Y-101170000D01*
X99738095Y-101141428D01*
X99659523Y-101141428D01*
X99607142Y-101170000D01*
X99580952Y-101227142D01*
X99580952Y-101541428D01*
X98664285Y-101512857D02*
X98716666Y-101541428D01*
X98821428Y-101541428D01*
X98873809Y-101512857D01*
X98900000Y-101484285D01*
X98926190Y-101427142D01*
X98926190Y-101255714D01*
X98900000Y-101198571D01*
X98873809Y-101170000D01*
X98821428Y-101141428D01*
X98716666Y-101141428D01*
X98664285Y-101170000D01*
X98428571Y-101541428D02*
X98428571Y-101141428D01*
X98428571Y-100941428D02*
X98454761Y-100970000D01*
X98428571Y-100998571D01*
X98402380Y-100970000D01*
X98428571Y-100941428D01*
X98428571Y-100998571D01*
X98166666Y-101541428D02*
X98166666Y-101141428D01*
X98166666Y-101255714D02*
X98140476Y-101198571D01*
X98114285Y-101170000D01*
X98061904Y-101141428D01*
X98009523Y-101141428D01*
X97590476Y-101512857D02*
X97642857Y-101541428D01*
X97747619Y-101541428D01*
X97800000Y-101512857D01*
X97826190Y-101484285D01*
X97852380Y-101427142D01*
X97852380Y-101255714D01*
X97826190Y-101198571D01*
X97800000Y-101170000D01*
X97747619Y-101141428D01*
X97642857Y-101141428D01*
X97590476Y-101170000D01*
X97119047Y-101141428D02*
X97119047Y-101541428D01*
X97354761Y-101141428D02*
X97354761Y-101455714D01*
X97328571Y-101512857D01*
X97276190Y-101541428D01*
X97197619Y-101541428D01*
X97145238Y-101512857D01*
X97119047Y-101484285D01*
X96857142Y-101541428D02*
X96857142Y-101141428D01*
X96857142Y-100941428D02*
X96883333Y-100970000D01*
X96857142Y-100998571D01*
X96830952Y-100970000D01*
X96857142Y-100941428D01*
X96857142Y-100998571D01*
X96673809Y-101141428D02*
X96464285Y-101141428D01*
X96595238Y-100941428D02*
X96595238Y-101455714D01*
X96569047Y-101512857D01*
X96516666Y-101541428D01*
X96464285Y-101541428D01*
X95861904Y-101541428D02*
X95861904Y-101141428D01*
X95861904Y-101255714D02*
X95835714Y-101198571D01*
X95809523Y-101170000D01*
X95757142Y-101141428D01*
X95704761Y-101141428D01*
X95311904Y-101512857D02*
X95364285Y-101541428D01*
X95469047Y-101541428D01*
X95521428Y-101512857D01*
X95547619Y-101455714D01*
X95547619Y-101227142D01*
X95521428Y-101170000D01*
X95469047Y-101141428D01*
X95364285Y-101141428D01*
X95311904Y-101170000D01*
X95285714Y-101227142D01*
X95285714Y-101284285D01*
X95547619Y-101341428D01*
X94814285Y-101141428D02*
X94814285Y-101741428D01*
X94814285Y-101512857D02*
X94866666Y-101541428D01*
X94971428Y-101541428D01*
X95023809Y-101512857D01*
X95050000Y-101484285D01*
X95076190Y-101427142D01*
X95076190Y-101255714D01*
X95050000Y-101198571D01*
X95023809Y-101170000D01*
X94971428Y-101141428D01*
X94866666Y-101141428D01*
X94814285Y-101170000D01*
X94316666Y-101141428D02*
X94316666Y-101541428D01*
X94552380Y-101141428D02*
X94552380Y-101455714D01*
X94526190Y-101512857D01*
X94473809Y-101541428D01*
X94395238Y-101541428D01*
X94342857Y-101512857D01*
X94316666Y-101484285D01*
X94054761Y-101541428D02*
X94054761Y-101141428D01*
X94054761Y-100941428D02*
X94080952Y-100970000D01*
X94054761Y-100998571D01*
X94028571Y-100970000D01*
X94054761Y-100941428D01*
X94054761Y-100998571D01*
X93792857Y-101541428D02*
X93792857Y-101141428D01*
X93792857Y-101255714D02*
X93766666Y-101198571D01*
X93740476Y-101170000D01*
X93688095Y-101141428D01*
X93635714Y-101141428D01*
X93242857Y-101512857D02*
X93295238Y-101541428D01*
X93400000Y-101541428D01*
X93452380Y-101512857D01*
X93478571Y-101455714D01*
X93478571Y-101227142D01*
X93452380Y-101170000D01*
X93400000Y-101141428D01*
X93295238Y-101141428D01*
X93242857Y-101170000D01*
X93216666Y-101227142D01*
X93216666Y-101284285D01*
X93478571Y-101341428D01*
X92745238Y-101541428D02*
X92745238Y-100941428D01*
X92745238Y-101512857D02*
X92797619Y-101541428D01*
X92902380Y-101541428D01*
X92954761Y-101512857D01*
X92980952Y-101484285D01*
X93007142Y-101427142D01*
X93007142Y-101255714D01*
X92980952Y-101198571D01*
X92954761Y-101170000D01*
X92902380Y-101141428D01*
X92797619Y-101141428D01*
X92745238Y-101170000D01*
D10*
X90266666Y-99948400D02*
X89733333Y-99948400D01*
X111266666Y-99948400D02*
X110733333Y-99948400D01*
X111000000Y-100215066D02*
X111000000Y-99681733D01*
X101295238Y-100361904D02*
X101752380Y-100361904D01*
X101523809Y-100361904D02*
X101523809Y-99561904D01*
X101600000Y-99676190D01*
X101676190Y-99752380D01*
X101752380Y-99790476D01*
X100838095Y-99904761D02*
X100914285Y-99866666D01*
X100952380Y-99828571D01*
X100990476Y-99752380D01*
X100990476Y-99714285D01*
X100952380Y-99638095D01*
X100914285Y-99600000D01*
X100838095Y-99561904D01*
X100685714Y-99561904D01*
X100609523Y-99600000D01*
X100571428Y-99638095D01*
X100533333Y-99714285D01*
X100533333Y-99752380D01*
X100571428Y-99828571D01*
X100609523Y-99866666D01*
X100685714Y-99904761D01*
X100838095Y-99904761D01*
X100914285Y-99942857D01*
X100952380Y-99980952D01*
X100990476Y-100057142D01*
X100990476Y-100209523D01*
X100952380Y-100285714D01*
X100914285Y-100323809D01*
X100838095Y-100361904D01*
X100685714Y-100361904D01*
X100609523Y-100323809D01*
X100571428Y-100285714D01*
X100533333Y-100209523D01*
X100533333Y-100057142D01*
X100571428Y-99980952D01*
X100609523Y-99942857D01*
X100685714Y-99904761D01*
X99847619Y-99561904D02*
X100000000Y-99561904D01*
X100076190Y-99600000D01*
X100114285Y-99638095D01*
X100190476Y-99752380D01*
X100228571Y-99904761D01*
X100228571Y-100209523D01*
X100190476Y-100285714D01*
X100152380Y-100323809D01*
X100076190Y-100361904D01*
X99923809Y-100361904D01*
X99847619Y-100323809D01*
X99809523Y-100285714D01*
X99771428Y-100209523D01*
X99771428Y-100019047D01*
X99809523Y-99942857D01*
X99847619Y-99904761D01*
X99923809Y-99866666D01*
X100076190Y-99866666D01*
X100152380Y-99904761D01*
X100190476Y-99942857D01*
X100228571Y-100019047D01*
X99047619Y-99561904D02*
X99428571Y-99561904D01*
X99466666Y-99942857D01*
X99428571Y-99904761D01*
X99352380Y-99866666D01*
X99161904Y-99866666D01*
X99085714Y-99904761D01*
X99047619Y-99942857D01*
X99009523Y-100019047D01*
X99009523Y-100209523D01*
X99047619Y-100285714D01*
X99085714Y-100323809D01*
X99161904Y-100361904D01*
X99352380Y-100361904D01*
X99428571Y-100323809D01*
X99466666Y-100285714D01*
X98514285Y-99561904D02*
X98438095Y-99561904D01*
X98361904Y-99600000D01*
X98323809Y-99638095D01*
X98285714Y-99714285D01*
X98247619Y-99866666D01*
X98247619Y-100057142D01*
X98285714Y-100209523D01*
X98323809Y-100285714D01*
X98361904Y-100323809D01*
X98438095Y-100361904D01*
X98514285Y-100361904D01*
X98590476Y-100323809D01*
X98628571Y-100285714D01*
X98666666Y-100209523D01*
X98704761Y-100057142D01*
X98704761Y-99866666D01*
X98666666Y-99714285D01*
X98628571Y-99638095D01*
X98590476Y-99600000D01*
X98514285Y-99561904D01*
X140913095Y-97659523D02*
X140944047Y-97752380D01*
X140944047Y-97907142D01*
X140913095Y-97969047D01*
X140882142Y-98000000D01*
X140820238Y-98030952D01*
X140758333Y-98030952D01*
X140696428Y-98000000D01*
X140665476Y-97969047D01*
X140634523Y-97907142D01*
X140603571Y-97783333D01*
X140572619Y-97721428D01*
X140541666Y-97690476D01*
X140479761Y-97659523D01*
X140417857Y-97659523D01*
X140355952Y-97690476D01*
X140325000Y-97721428D01*
X140294047Y-97783333D01*
X140294047Y-97938095D01*
X140325000Y-98030952D01*
X140294047Y-98247619D02*
X140944047Y-98402380D01*
X140479761Y-98526190D01*
X140944047Y-98650000D01*
X140294047Y-98804761D01*
X140944047Y-99547619D02*
X140294047Y-99547619D01*
X140294047Y-99702380D01*
X140325000Y-99795238D01*
X140386904Y-99857142D01*
X140448809Y-99888095D01*
X140572619Y-99919047D01*
X140665476Y-99919047D01*
X140789285Y-99888095D01*
X140851190Y-99857142D01*
X140913095Y-99795238D01*
X140944047Y-99702380D01*
X140944047Y-99547619D01*
X140913095Y-100445238D02*
X140944047Y-100383333D01*
X140944047Y-100259523D01*
X140913095Y-100197619D01*
X140851190Y-100166666D01*
X140603571Y-100166666D01*
X140541666Y-100197619D01*
X140510714Y-100259523D01*
X140510714Y-100383333D01*
X140541666Y-100445238D01*
X140603571Y-100476190D01*
X140665476Y-100476190D01*
X140727380Y-100166666D01*
X140944047Y-100754761D02*
X140294047Y-100754761D01*
X140541666Y-100754761D02*
X140510714Y-100816666D01*
X140510714Y-100940476D01*
X140541666Y-101002380D01*
X140572619Y-101033333D01*
X140634523Y-101064285D01*
X140820238Y-101064285D01*
X140882142Y-101033333D01*
X140913095Y-101002380D01*
X140944047Y-100940476D01*
X140944047Y-100816666D01*
X140913095Y-100754761D01*
X140510714Y-101621428D02*
X140944047Y-101621428D01*
X140510714Y-101342857D02*
X140851190Y-101342857D01*
X140913095Y-101373809D01*
X140944047Y-101435714D01*
X140944047Y-101528571D01*
X140913095Y-101590476D01*
X140882142Y-101621428D01*
X140510714Y-102209523D02*
X141036904Y-102209523D01*
X141098809Y-102178571D01*
X141129761Y-102147619D01*
X141160714Y-102085714D01*
X141160714Y-101992857D01*
X141129761Y-101930952D01*
X140913095Y-102209523D02*
X140944047Y-102147619D01*
X140944047Y-102023809D01*
X140913095Y-101961904D01*
X140882142Y-101930952D01*
X140820238Y-101900000D01*
X140634523Y-101900000D01*
X140572619Y-101930952D01*
X140541666Y-101961904D01*
X140510714Y-102023809D01*
X140510714Y-102147619D01*
X140541666Y-102209523D01*
M02*
