G04 #@! TF.GenerationSoftware,KiCad,Pcbnew,(5.1.4-0-10_14)*
G04 #@! TF.CreationDate,2019-09-17T09:12:07-07:00*
G04 #@! TF.ProjectId,STM32L0xx_18650,53544d33-324c-4307-9878-5f3138363530,rev?*
G04 #@! TF.SameCoordinates,Original*
G04 #@! TF.FileFunction,Copper,L3,Inr*
G04 #@! TF.FilePolarity,Positive*
%FSLAX46Y46*%
G04 Gerber Fmt 4.6, Leading zero omitted, Abs format (unit mm)*
G04 Created by KiCad (PCBNEW (5.1.4-0-10_14)) date 2019-09-17 09:12:07*
%MOMM*%
%LPD*%
G04 APERTURE LIST*
%ADD10C,2.800000*%
%ADD11O,1.700000X1.350000*%
%ADD12O,1.500000X1.100000*%
%ADD13C,2.400000*%
%ADD14R,1.000000X1.000000*%
%ADD15O,1.000000X1.000000*%
%ADD16R,1.700000X1.700000*%
%ADD17O,1.700000X1.700000*%
%ADD18C,0.457200*%
%ADD19C,0.685800*%
%ADD20C,0.781000*%
%ADD21C,0.762000*%
%ADD22C,0.310000*%
%ADD23C,0.254000*%
G04 APERTURE END LIST*
D10*
X74900000Y-97460000D03*
X74900000Y-102540000D03*
X125100000Y-97460000D03*
X125100000Y-102540000D03*
X132720000Y-100000000D03*
X67280000Y-100000000D03*
D11*
X59885000Y-102705000D03*
X59885000Y-97245000D03*
D12*
X62885000Y-102395000D03*
X62885000Y-97555000D03*
D13*
X138100000Y-102650000D03*
X138100000Y-97350000D03*
D14*
X94925000Y-106200000D03*
D15*
X94925000Y-104930000D03*
X96195000Y-106200000D03*
X96195000Y-104930000D03*
X97465000Y-106200000D03*
X97465000Y-104930000D03*
X98735000Y-106200000D03*
X98735000Y-104930000D03*
X100005000Y-106200000D03*
X100005000Y-104930000D03*
D16*
X79700000Y-105600000D03*
D17*
X82240000Y-105600000D03*
X84780000Y-105600000D03*
X87320000Y-105600000D03*
X89860000Y-105600000D03*
D16*
X112700000Y-105600000D03*
D17*
X115240000Y-105600000D03*
X117780000Y-105600000D03*
X120320000Y-105600000D03*
D16*
X120300000Y-95450000D03*
D17*
X117760000Y-95450000D03*
X115220000Y-95450000D03*
X112680000Y-95450000D03*
X110140000Y-95450000D03*
D16*
X79700000Y-95450000D03*
D17*
X82240000Y-95450000D03*
X84780000Y-95450000D03*
X87320000Y-95450000D03*
X89860000Y-95450000D03*
D18*
X121350000Y-100550000D03*
X111050000Y-102050000D03*
X126050000Y-105750000D03*
X134150000Y-105800000D03*
D19*
X135275000Y-93053090D03*
D18*
X110200000Y-93600000D03*
X113800000Y-93600000D03*
X119000000Y-93650000D03*
X150900000Y-94650000D03*
X106625000Y-93575000D03*
D19*
X127350000Y-94750000D03*
D18*
X127550000Y-105625000D03*
X99275000Y-101525000D03*
X94200000Y-94575000D03*
X100450000Y-101625000D03*
X105325000Y-103925000D03*
X106275000Y-99775000D03*
X80362500Y-101612500D03*
X89500000Y-99050000D03*
X85750000Y-101850000D03*
X103800001Y-93050001D03*
X93050000Y-94975000D03*
X128900000Y-92500000D03*
X60850000Y-106375000D03*
X92375000Y-100600000D03*
X94650000Y-101350000D03*
X100725000Y-98975000D03*
X101093577Y-103574632D03*
X64050000Y-99575000D03*
X64050000Y-100225000D03*
X100325000Y-95550000D03*
X109250000Y-101600000D03*
X101825000Y-103287500D03*
X88650000Y-100200000D03*
X85150000Y-98500000D03*
X90800000Y-98950000D03*
X92325000Y-99204011D03*
X92323362Y-99798362D03*
D20*
X62542901Y-107242901D02*
X113597099Y-107242901D01*
D21*
X113597099Y-107242901D02*
X115240000Y-105600000D01*
X61717901Y-107242901D02*
X60850000Y-106375000D01*
X62542901Y-107242901D02*
X61717901Y-107242901D01*
D22*
X125100000Y-97460000D02*
X125100000Y-95480102D01*
X122019898Y-92400000D02*
X94400000Y-92400000D01*
X125100000Y-95480102D02*
X122019898Y-92400000D01*
X85945362Y-98500000D02*
X85150000Y-98500000D01*
X88452001Y-95993361D02*
X85945362Y-98500000D01*
X88452001Y-95182637D02*
X88452001Y-95993361D01*
X91234638Y-92400000D02*
X88452001Y-95182637D01*
X94400000Y-92400000D02*
X91234638Y-92400000D01*
D23*
G36*
X128069587Y-92751903D02*
G01*
X128134687Y-92909068D01*
X128229198Y-93050513D01*
X128349487Y-93170802D01*
X128490932Y-93265313D01*
X128648097Y-93330413D01*
X128814943Y-93363600D01*
X128985057Y-93363600D01*
X129151903Y-93330413D01*
X129309068Y-93265313D01*
X129450513Y-93170802D01*
X129570802Y-93050513D01*
X129665313Y-92909068D01*
X129730413Y-92751903D01*
X129738748Y-92710000D01*
X134358641Y-92710000D01*
X134334680Y-92767847D01*
X134297100Y-92956775D01*
X134297100Y-93149405D01*
X134334680Y-93338333D01*
X134408396Y-93516300D01*
X134515415Y-93676465D01*
X134651625Y-93812675D01*
X134811790Y-93919694D01*
X134989757Y-93993410D01*
X135178685Y-94030990D01*
X135371315Y-94030990D01*
X135560243Y-93993410D01*
X135738210Y-93919694D01*
X135898375Y-93812675D01*
X136034585Y-93676465D01*
X136141604Y-93516300D01*
X136215320Y-93338333D01*
X136252900Y-93149405D01*
X136252900Y-92956775D01*
X136215320Y-92767847D01*
X136191359Y-92710000D01*
X152512925Y-92710000D01*
X153873000Y-94053074D01*
X153873000Y-105947394D01*
X152530394Y-107290000D01*
X119727000Y-107290000D01*
X119727000Y-106954481D01*
X119815901Y-106996825D01*
X119963110Y-107041476D01*
X120193000Y-106920155D01*
X120193000Y-105727000D01*
X120447000Y-105727000D01*
X120447000Y-106920155D01*
X120676890Y-107041476D01*
X120824099Y-106996825D01*
X121086920Y-106871641D01*
X121320269Y-106697588D01*
X121515178Y-106481355D01*
X121664157Y-106231252D01*
X121761481Y-105956891D01*
X121640814Y-105727000D01*
X120447000Y-105727000D01*
X120193000Y-105727000D01*
X120173000Y-105727000D01*
X120173000Y-105664943D01*
X125186400Y-105664943D01*
X125186400Y-105835057D01*
X125219587Y-106001903D01*
X125284687Y-106159068D01*
X125379198Y-106300513D01*
X125499487Y-106420802D01*
X125640932Y-106515313D01*
X125798097Y-106580413D01*
X125964943Y-106613600D01*
X126135057Y-106613600D01*
X126301903Y-106580413D01*
X126459068Y-106515313D01*
X126600513Y-106420802D01*
X126720802Y-106300513D01*
X126815313Y-106159068D01*
X126835556Y-106110198D01*
X126879198Y-106175513D01*
X126999487Y-106295802D01*
X127140932Y-106390313D01*
X127298097Y-106455413D01*
X127464943Y-106488600D01*
X127635057Y-106488600D01*
X127801903Y-106455413D01*
X127959068Y-106390313D01*
X128100513Y-106295802D01*
X128220802Y-106175513D01*
X128315313Y-106034068D01*
X128380413Y-105876903D01*
X128412628Y-105714943D01*
X133286400Y-105714943D01*
X133286400Y-105885057D01*
X133319587Y-106051903D01*
X133384687Y-106209068D01*
X133479198Y-106350513D01*
X133599487Y-106470802D01*
X133740932Y-106565313D01*
X133898097Y-106630413D01*
X134064943Y-106663600D01*
X134235057Y-106663600D01*
X134401903Y-106630413D01*
X134559068Y-106565313D01*
X134700513Y-106470802D01*
X134820802Y-106350513D01*
X134915313Y-106209068D01*
X134980413Y-106051903D01*
X135013600Y-105885057D01*
X135013600Y-105714943D01*
X134980413Y-105548097D01*
X134915313Y-105390932D01*
X134820802Y-105249487D01*
X134700513Y-105129198D01*
X134559068Y-105034687D01*
X134401903Y-104969587D01*
X134235057Y-104936400D01*
X134064943Y-104936400D01*
X133898097Y-104969587D01*
X133740932Y-105034687D01*
X133599487Y-105129198D01*
X133479198Y-105249487D01*
X133384687Y-105390932D01*
X133319587Y-105548097D01*
X133286400Y-105714943D01*
X128412628Y-105714943D01*
X128413600Y-105710057D01*
X128413600Y-105539943D01*
X128380413Y-105373097D01*
X128315313Y-105215932D01*
X128220802Y-105074487D01*
X128100513Y-104954198D01*
X127959068Y-104859687D01*
X127801903Y-104794587D01*
X127635057Y-104761400D01*
X127464943Y-104761400D01*
X127298097Y-104794587D01*
X127140932Y-104859687D01*
X126999487Y-104954198D01*
X126879198Y-105074487D01*
X126784687Y-105215932D01*
X126764444Y-105264802D01*
X126720802Y-105199487D01*
X126600513Y-105079198D01*
X126459068Y-104984687D01*
X126301903Y-104919587D01*
X126135057Y-104886400D01*
X125964943Y-104886400D01*
X125798097Y-104919587D01*
X125640932Y-104984687D01*
X125499487Y-105079198D01*
X125379198Y-105199487D01*
X125284687Y-105340932D01*
X125219587Y-105498097D01*
X125186400Y-105664943D01*
X120173000Y-105664943D01*
X120173000Y-105473000D01*
X120193000Y-105473000D01*
X120193000Y-104279845D01*
X120447000Y-104279845D01*
X120447000Y-105473000D01*
X121640814Y-105473000D01*
X121761481Y-105243109D01*
X121664157Y-104968748D01*
X121515178Y-104718645D01*
X121320269Y-104502412D01*
X121086920Y-104328359D01*
X120824099Y-104203175D01*
X120676890Y-104158524D01*
X120447000Y-104279845D01*
X120193000Y-104279845D01*
X119963110Y-104158524D01*
X119815901Y-104203175D01*
X119727000Y-104245519D01*
X119727000Y-103960447D01*
X123859158Y-103960447D01*
X124003135Y-104265770D01*
X124360892Y-104446597D01*
X124747053Y-104554155D01*
X125146777Y-104584310D01*
X125544704Y-104535904D01*
X125925540Y-104410795D01*
X126196865Y-104265770D01*
X126340842Y-103960447D01*
X125100000Y-102719605D01*
X123859158Y-103960447D01*
X119727000Y-103960447D01*
X119727000Y-102586777D01*
X123055690Y-102586777D01*
X123104096Y-102984704D01*
X123229205Y-103365540D01*
X123374230Y-103636865D01*
X123679553Y-103780842D01*
X124920395Y-102540000D01*
X125279605Y-102540000D01*
X126520447Y-103780842D01*
X126825770Y-103636865D01*
X127006597Y-103279108D01*
X127114155Y-102892947D01*
X127144310Y-102493223D01*
X127141396Y-102469268D01*
X136265000Y-102469268D01*
X136265000Y-102830732D01*
X136335518Y-103185250D01*
X136473844Y-103519199D01*
X136674662Y-103819744D01*
X136930256Y-104075338D01*
X137230801Y-104276156D01*
X137564750Y-104414482D01*
X137919268Y-104485000D01*
X138280732Y-104485000D01*
X138635250Y-104414482D01*
X138969199Y-104276156D01*
X139269744Y-104075338D01*
X139525338Y-103819744D01*
X139726156Y-103519199D01*
X139864482Y-103185250D01*
X139935000Y-102830732D01*
X139935000Y-102469268D01*
X139864482Y-102114750D01*
X139726156Y-101780801D01*
X139525338Y-101480256D01*
X139269744Y-101224662D01*
X138969199Y-101023844D01*
X138635250Y-100885518D01*
X138280732Y-100815000D01*
X137919268Y-100815000D01*
X137564750Y-100885518D01*
X137230801Y-101023844D01*
X136930256Y-101224662D01*
X136674662Y-101480256D01*
X136473844Y-101780801D01*
X136335518Y-102114750D01*
X136265000Y-102469268D01*
X127141396Y-102469268D01*
X127095904Y-102095296D01*
X126970795Y-101714460D01*
X126825770Y-101443135D01*
X126777657Y-101420447D01*
X131479158Y-101420447D01*
X131623135Y-101725770D01*
X131980892Y-101906597D01*
X132367053Y-102014155D01*
X132766777Y-102044310D01*
X133164704Y-101995904D01*
X133545540Y-101870795D01*
X133816865Y-101725770D01*
X133960842Y-101420447D01*
X132720000Y-100179605D01*
X131479158Y-101420447D01*
X126777657Y-101420447D01*
X126520447Y-101299158D01*
X125279605Y-102540000D01*
X124920395Y-102540000D01*
X123679553Y-101299158D01*
X123374230Y-101443135D01*
X123193403Y-101800892D01*
X123085845Y-102187053D01*
X123055690Y-102586777D01*
X119727000Y-102586777D01*
X119727000Y-100464943D01*
X120486400Y-100464943D01*
X120486400Y-100635057D01*
X120519587Y-100801903D01*
X120584687Y-100959068D01*
X120679198Y-101100513D01*
X120799487Y-101220802D01*
X120940932Y-101315313D01*
X121098097Y-101380413D01*
X121264943Y-101413600D01*
X121435057Y-101413600D01*
X121601903Y-101380413D01*
X121759068Y-101315313D01*
X121900513Y-101220802D01*
X122001762Y-101119553D01*
X123859158Y-101119553D01*
X125100000Y-102360395D01*
X126340842Y-101119553D01*
X126196865Y-100814230D01*
X125839108Y-100633403D01*
X125452947Y-100525845D01*
X125053223Y-100495690D01*
X124655296Y-100544096D01*
X124274460Y-100669205D01*
X124003135Y-100814230D01*
X123859158Y-101119553D01*
X122001762Y-101119553D01*
X122020802Y-101100513D01*
X122115313Y-100959068D01*
X122180413Y-100801903D01*
X122213600Y-100635057D01*
X122213600Y-100464943D01*
X122180413Y-100298097D01*
X122115313Y-100140932D01*
X122052401Y-100046777D01*
X130675690Y-100046777D01*
X130724096Y-100444704D01*
X130849205Y-100825540D01*
X130994230Y-101096865D01*
X131299553Y-101240842D01*
X132540395Y-100000000D01*
X132899605Y-100000000D01*
X134140447Y-101240842D01*
X134445770Y-101096865D01*
X134626597Y-100739108D01*
X134734155Y-100352947D01*
X134764310Y-99953223D01*
X134715904Y-99555296D01*
X134590795Y-99174460D01*
X134445770Y-98903135D01*
X134140447Y-98759158D01*
X132899605Y-100000000D01*
X132540395Y-100000000D01*
X131299553Y-98759158D01*
X130994230Y-98903135D01*
X130813403Y-99260892D01*
X130705845Y-99647053D01*
X130675690Y-100046777D01*
X122052401Y-100046777D01*
X122020802Y-99999487D01*
X121900513Y-99879198D01*
X121759068Y-99784687D01*
X121601903Y-99719587D01*
X121435057Y-99686400D01*
X121264943Y-99686400D01*
X121098097Y-99719587D01*
X120940932Y-99784687D01*
X120799487Y-99879198D01*
X120679198Y-99999487D01*
X120584687Y-100140932D01*
X120519587Y-100298097D01*
X120486400Y-100464943D01*
X119727000Y-100464943D01*
X119727000Y-98880447D01*
X123859158Y-98880447D01*
X124003135Y-99185770D01*
X124360892Y-99366597D01*
X124747053Y-99474155D01*
X125146777Y-99504310D01*
X125544704Y-99455904D01*
X125925540Y-99330795D01*
X126196865Y-99185770D01*
X126340842Y-98880447D01*
X125100000Y-97639605D01*
X123859158Y-98880447D01*
X119727000Y-98880447D01*
X119727000Y-97506777D01*
X123055690Y-97506777D01*
X123104096Y-97904704D01*
X123229205Y-98285540D01*
X123374230Y-98556865D01*
X123679553Y-98700842D01*
X124920395Y-97460000D01*
X125279605Y-97460000D01*
X126520447Y-98700842D01*
X126777656Y-98579553D01*
X131479158Y-98579553D01*
X132720000Y-99820395D01*
X133960842Y-98579553D01*
X133816865Y-98274230D01*
X133459108Y-98093403D01*
X133072947Y-97985845D01*
X132673223Y-97955690D01*
X132275296Y-98004096D01*
X131894460Y-98129205D01*
X131623135Y-98274230D01*
X131479158Y-98579553D01*
X126777656Y-98579553D01*
X126825770Y-98556865D01*
X127006597Y-98199108D01*
X127114155Y-97812947D01*
X127144310Y-97413223D01*
X127114634Y-97169268D01*
X136265000Y-97169268D01*
X136265000Y-97530732D01*
X136335518Y-97885250D01*
X136473844Y-98219199D01*
X136674662Y-98519744D01*
X136930256Y-98775338D01*
X137230801Y-98976156D01*
X137564750Y-99114482D01*
X137919268Y-99185000D01*
X138280732Y-99185000D01*
X138635250Y-99114482D01*
X138969199Y-98976156D01*
X139269744Y-98775338D01*
X139525338Y-98519744D01*
X139726156Y-98219199D01*
X139864482Y-97885250D01*
X139935000Y-97530732D01*
X139935000Y-97169268D01*
X139864482Y-96814750D01*
X139726156Y-96480801D01*
X139525338Y-96180256D01*
X139269744Y-95924662D01*
X138969199Y-95723844D01*
X138635250Y-95585518D01*
X138280732Y-95515000D01*
X137919268Y-95515000D01*
X137564750Y-95585518D01*
X137230801Y-95723844D01*
X136930256Y-95924662D01*
X136674662Y-96180256D01*
X136473844Y-96480801D01*
X136335518Y-96814750D01*
X136265000Y-97169268D01*
X127114634Y-97169268D01*
X127095904Y-97015296D01*
X126970795Y-96634460D01*
X126825770Y-96363135D01*
X126520447Y-96219158D01*
X125279605Y-97460000D01*
X124920395Y-97460000D01*
X123679553Y-96219158D01*
X123374230Y-96363135D01*
X123193403Y-96720892D01*
X123085845Y-97107053D01*
X123055690Y-97506777D01*
X119727000Y-97506777D01*
X119727000Y-96936564D01*
X120014250Y-96935000D01*
X120173000Y-96776250D01*
X120173000Y-95577000D01*
X120427000Y-95577000D01*
X120427000Y-96776250D01*
X120585750Y-96935000D01*
X121150000Y-96938072D01*
X121274482Y-96925812D01*
X121394180Y-96889502D01*
X121504494Y-96830537D01*
X121601185Y-96751185D01*
X121680537Y-96654494D01*
X121739502Y-96544180D01*
X121775812Y-96424482D01*
X121788072Y-96300000D01*
X121786655Y-96039553D01*
X123859158Y-96039553D01*
X125100000Y-97280395D01*
X126340842Y-96039553D01*
X126196865Y-95734230D01*
X125839108Y-95553403D01*
X125452947Y-95445845D01*
X125053223Y-95415690D01*
X124655296Y-95464096D01*
X124274460Y-95589205D01*
X124003135Y-95734230D01*
X123859158Y-96039553D01*
X121786655Y-96039553D01*
X121785000Y-95735750D01*
X121626250Y-95577000D01*
X120427000Y-95577000D01*
X120173000Y-95577000D01*
X120153000Y-95577000D01*
X120153000Y-95323000D01*
X120173000Y-95323000D01*
X120173000Y-94123750D01*
X120427000Y-94123750D01*
X120427000Y-95323000D01*
X121626250Y-95323000D01*
X121785000Y-95164250D01*
X121787779Y-94653685D01*
X126372100Y-94653685D01*
X126372100Y-94846315D01*
X126409680Y-95035243D01*
X126483396Y-95213210D01*
X126590415Y-95373375D01*
X126726625Y-95509585D01*
X126886790Y-95616604D01*
X127064757Y-95690320D01*
X127253685Y-95727900D01*
X127446315Y-95727900D01*
X127635243Y-95690320D01*
X127813210Y-95616604D01*
X127973375Y-95509585D01*
X128109585Y-95373375D01*
X128216604Y-95213210D01*
X128290320Y-95035243D01*
X128327900Y-94846315D01*
X128327900Y-94653685D01*
X128310249Y-94564943D01*
X150036400Y-94564943D01*
X150036400Y-94735057D01*
X150069587Y-94901903D01*
X150134687Y-95059068D01*
X150229198Y-95200513D01*
X150349487Y-95320802D01*
X150490932Y-95415313D01*
X150648097Y-95480413D01*
X150814943Y-95513600D01*
X150985057Y-95513600D01*
X151151903Y-95480413D01*
X151309068Y-95415313D01*
X151450513Y-95320802D01*
X151570802Y-95200513D01*
X151665313Y-95059068D01*
X151730413Y-94901903D01*
X151763600Y-94735057D01*
X151763600Y-94564943D01*
X151730413Y-94398097D01*
X151665313Y-94240932D01*
X151570802Y-94099487D01*
X151450513Y-93979198D01*
X151309068Y-93884687D01*
X151151903Y-93819587D01*
X150985057Y-93786400D01*
X150814943Y-93786400D01*
X150648097Y-93819587D01*
X150490932Y-93884687D01*
X150349487Y-93979198D01*
X150229198Y-94099487D01*
X150134687Y-94240932D01*
X150069587Y-94398097D01*
X150036400Y-94564943D01*
X128310249Y-94564943D01*
X128290320Y-94464757D01*
X128216604Y-94286790D01*
X128109585Y-94126625D01*
X127973375Y-93990415D01*
X127813210Y-93883396D01*
X127635243Y-93809680D01*
X127446315Y-93772100D01*
X127253685Y-93772100D01*
X127064757Y-93809680D01*
X126886790Y-93883396D01*
X126726625Y-93990415D01*
X126590415Y-94126625D01*
X126483396Y-94286790D01*
X126409680Y-94464757D01*
X126372100Y-94653685D01*
X121787779Y-94653685D01*
X121788072Y-94600000D01*
X121775812Y-94475518D01*
X121739502Y-94355820D01*
X121680537Y-94245506D01*
X121601185Y-94148815D01*
X121504494Y-94069463D01*
X121394180Y-94010498D01*
X121274482Y-93974188D01*
X121150000Y-93961928D01*
X120585750Y-93965000D01*
X120427000Y-94123750D01*
X120173000Y-94123750D01*
X120014250Y-93965000D01*
X119804750Y-93963859D01*
X119830413Y-93901903D01*
X119863600Y-93735057D01*
X119863600Y-93564943D01*
X119830413Y-93398097D01*
X119765313Y-93240932D01*
X119727000Y-93183593D01*
X119727000Y-92710000D01*
X128061252Y-92710000D01*
X128069587Y-92751903D01*
X128069587Y-92751903D01*
G37*
X128069587Y-92751903D02*
X128134687Y-92909068D01*
X128229198Y-93050513D01*
X128349487Y-93170802D01*
X128490932Y-93265313D01*
X128648097Y-93330413D01*
X128814943Y-93363600D01*
X128985057Y-93363600D01*
X129151903Y-93330413D01*
X129309068Y-93265313D01*
X129450513Y-93170802D01*
X129570802Y-93050513D01*
X129665313Y-92909068D01*
X129730413Y-92751903D01*
X129738748Y-92710000D01*
X134358641Y-92710000D01*
X134334680Y-92767847D01*
X134297100Y-92956775D01*
X134297100Y-93149405D01*
X134334680Y-93338333D01*
X134408396Y-93516300D01*
X134515415Y-93676465D01*
X134651625Y-93812675D01*
X134811790Y-93919694D01*
X134989757Y-93993410D01*
X135178685Y-94030990D01*
X135371315Y-94030990D01*
X135560243Y-93993410D01*
X135738210Y-93919694D01*
X135898375Y-93812675D01*
X136034585Y-93676465D01*
X136141604Y-93516300D01*
X136215320Y-93338333D01*
X136252900Y-93149405D01*
X136252900Y-92956775D01*
X136215320Y-92767847D01*
X136191359Y-92710000D01*
X152512925Y-92710000D01*
X153873000Y-94053074D01*
X153873000Y-105947394D01*
X152530394Y-107290000D01*
X119727000Y-107290000D01*
X119727000Y-106954481D01*
X119815901Y-106996825D01*
X119963110Y-107041476D01*
X120193000Y-106920155D01*
X120193000Y-105727000D01*
X120447000Y-105727000D01*
X120447000Y-106920155D01*
X120676890Y-107041476D01*
X120824099Y-106996825D01*
X121086920Y-106871641D01*
X121320269Y-106697588D01*
X121515178Y-106481355D01*
X121664157Y-106231252D01*
X121761481Y-105956891D01*
X121640814Y-105727000D01*
X120447000Y-105727000D01*
X120193000Y-105727000D01*
X120173000Y-105727000D01*
X120173000Y-105664943D01*
X125186400Y-105664943D01*
X125186400Y-105835057D01*
X125219587Y-106001903D01*
X125284687Y-106159068D01*
X125379198Y-106300513D01*
X125499487Y-106420802D01*
X125640932Y-106515313D01*
X125798097Y-106580413D01*
X125964943Y-106613600D01*
X126135057Y-106613600D01*
X126301903Y-106580413D01*
X126459068Y-106515313D01*
X126600513Y-106420802D01*
X126720802Y-106300513D01*
X126815313Y-106159068D01*
X126835556Y-106110198D01*
X126879198Y-106175513D01*
X126999487Y-106295802D01*
X127140932Y-106390313D01*
X127298097Y-106455413D01*
X127464943Y-106488600D01*
X127635057Y-106488600D01*
X127801903Y-106455413D01*
X127959068Y-106390313D01*
X128100513Y-106295802D01*
X128220802Y-106175513D01*
X128315313Y-106034068D01*
X128380413Y-105876903D01*
X128412628Y-105714943D01*
X133286400Y-105714943D01*
X133286400Y-105885057D01*
X133319587Y-106051903D01*
X133384687Y-106209068D01*
X133479198Y-106350513D01*
X133599487Y-106470802D01*
X133740932Y-106565313D01*
X133898097Y-106630413D01*
X134064943Y-106663600D01*
X134235057Y-106663600D01*
X134401903Y-106630413D01*
X134559068Y-106565313D01*
X134700513Y-106470802D01*
X134820802Y-106350513D01*
X134915313Y-106209068D01*
X134980413Y-106051903D01*
X135013600Y-105885057D01*
X135013600Y-105714943D01*
X134980413Y-105548097D01*
X134915313Y-105390932D01*
X134820802Y-105249487D01*
X134700513Y-105129198D01*
X134559068Y-105034687D01*
X134401903Y-104969587D01*
X134235057Y-104936400D01*
X134064943Y-104936400D01*
X133898097Y-104969587D01*
X133740932Y-105034687D01*
X133599487Y-105129198D01*
X133479198Y-105249487D01*
X133384687Y-105390932D01*
X133319587Y-105548097D01*
X133286400Y-105714943D01*
X128412628Y-105714943D01*
X128413600Y-105710057D01*
X128413600Y-105539943D01*
X128380413Y-105373097D01*
X128315313Y-105215932D01*
X128220802Y-105074487D01*
X128100513Y-104954198D01*
X127959068Y-104859687D01*
X127801903Y-104794587D01*
X127635057Y-104761400D01*
X127464943Y-104761400D01*
X127298097Y-104794587D01*
X127140932Y-104859687D01*
X126999487Y-104954198D01*
X126879198Y-105074487D01*
X126784687Y-105215932D01*
X126764444Y-105264802D01*
X126720802Y-105199487D01*
X126600513Y-105079198D01*
X126459068Y-104984687D01*
X126301903Y-104919587D01*
X126135057Y-104886400D01*
X125964943Y-104886400D01*
X125798097Y-104919587D01*
X125640932Y-104984687D01*
X125499487Y-105079198D01*
X125379198Y-105199487D01*
X125284687Y-105340932D01*
X125219587Y-105498097D01*
X125186400Y-105664943D01*
X120173000Y-105664943D01*
X120173000Y-105473000D01*
X120193000Y-105473000D01*
X120193000Y-104279845D01*
X120447000Y-104279845D01*
X120447000Y-105473000D01*
X121640814Y-105473000D01*
X121761481Y-105243109D01*
X121664157Y-104968748D01*
X121515178Y-104718645D01*
X121320269Y-104502412D01*
X121086920Y-104328359D01*
X120824099Y-104203175D01*
X120676890Y-104158524D01*
X120447000Y-104279845D01*
X120193000Y-104279845D01*
X119963110Y-104158524D01*
X119815901Y-104203175D01*
X119727000Y-104245519D01*
X119727000Y-103960447D01*
X123859158Y-103960447D01*
X124003135Y-104265770D01*
X124360892Y-104446597D01*
X124747053Y-104554155D01*
X125146777Y-104584310D01*
X125544704Y-104535904D01*
X125925540Y-104410795D01*
X126196865Y-104265770D01*
X126340842Y-103960447D01*
X125100000Y-102719605D01*
X123859158Y-103960447D01*
X119727000Y-103960447D01*
X119727000Y-102586777D01*
X123055690Y-102586777D01*
X123104096Y-102984704D01*
X123229205Y-103365540D01*
X123374230Y-103636865D01*
X123679553Y-103780842D01*
X124920395Y-102540000D01*
X125279605Y-102540000D01*
X126520447Y-103780842D01*
X126825770Y-103636865D01*
X127006597Y-103279108D01*
X127114155Y-102892947D01*
X127144310Y-102493223D01*
X127141396Y-102469268D01*
X136265000Y-102469268D01*
X136265000Y-102830732D01*
X136335518Y-103185250D01*
X136473844Y-103519199D01*
X136674662Y-103819744D01*
X136930256Y-104075338D01*
X137230801Y-104276156D01*
X137564750Y-104414482D01*
X137919268Y-104485000D01*
X138280732Y-104485000D01*
X138635250Y-104414482D01*
X138969199Y-104276156D01*
X139269744Y-104075338D01*
X139525338Y-103819744D01*
X139726156Y-103519199D01*
X139864482Y-103185250D01*
X139935000Y-102830732D01*
X139935000Y-102469268D01*
X139864482Y-102114750D01*
X139726156Y-101780801D01*
X139525338Y-101480256D01*
X139269744Y-101224662D01*
X138969199Y-101023844D01*
X138635250Y-100885518D01*
X138280732Y-100815000D01*
X137919268Y-100815000D01*
X137564750Y-100885518D01*
X137230801Y-101023844D01*
X136930256Y-101224662D01*
X136674662Y-101480256D01*
X136473844Y-101780801D01*
X136335518Y-102114750D01*
X136265000Y-102469268D01*
X127141396Y-102469268D01*
X127095904Y-102095296D01*
X126970795Y-101714460D01*
X126825770Y-101443135D01*
X126777657Y-101420447D01*
X131479158Y-101420447D01*
X131623135Y-101725770D01*
X131980892Y-101906597D01*
X132367053Y-102014155D01*
X132766777Y-102044310D01*
X133164704Y-101995904D01*
X133545540Y-101870795D01*
X133816865Y-101725770D01*
X133960842Y-101420447D01*
X132720000Y-100179605D01*
X131479158Y-101420447D01*
X126777657Y-101420447D01*
X126520447Y-101299158D01*
X125279605Y-102540000D01*
X124920395Y-102540000D01*
X123679553Y-101299158D01*
X123374230Y-101443135D01*
X123193403Y-101800892D01*
X123085845Y-102187053D01*
X123055690Y-102586777D01*
X119727000Y-102586777D01*
X119727000Y-100464943D01*
X120486400Y-100464943D01*
X120486400Y-100635057D01*
X120519587Y-100801903D01*
X120584687Y-100959068D01*
X120679198Y-101100513D01*
X120799487Y-101220802D01*
X120940932Y-101315313D01*
X121098097Y-101380413D01*
X121264943Y-101413600D01*
X121435057Y-101413600D01*
X121601903Y-101380413D01*
X121759068Y-101315313D01*
X121900513Y-101220802D01*
X122001762Y-101119553D01*
X123859158Y-101119553D01*
X125100000Y-102360395D01*
X126340842Y-101119553D01*
X126196865Y-100814230D01*
X125839108Y-100633403D01*
X125452947Y-100525845D01*
X125053223Y-100495690D01*
X124655296Y-100544096D01*
X124274460Y-100669205D01*
X124003135Y-100814230D01*
X123859158Y-101119553D01*
X122001762Y-101119553D01*
X122020802Y-101100513D01*
X122115313Y-100959068D01*
X122180413Y-100801903D01*
X122213600Y-100635057D01*
X122213600Y-100464943D01*
X122180413Y-100298097D01*
X122115313Y-100140932D01*
X122052401Y-100046777D01*
X130675690Y-100046777D01*
X130724096Y-100444704D01*
X130849205Y-100825540D01*
X130994230Y-101096865D01*
X131299553Y-101240842D01*
X132540395Y-100000000D01*
X132899605Y-100000000D01*
X134140447Y-101240842D01*
X134445770Y-101096865D01*
X134626597Y-100739108D01*
X134734155Y-100352947D01*
X134764310Y-99953223D01*
X134715904Y-99555296D01*
X134590795Y-99174460D01*
X134445770Y-98903135D01*
X134140447Y-98759158D01*
X132899605Y-100000000D01*
X132540395Y-100000000D01*
X131299553Y-98759158D01*
X130994230Y-98903135D01*
X130813403Y-99260892D01*
X130705845Y-99647053D01*
X130675690Y-100046777D01*
X122052401Y-100046777D01*
X122020802Y-99999487D01*
X121900513Y-99879198D01*
X121759068Y-99784687D01*
X121601903Y-99719587D01*
X121435057Y-99686400D01*
X121264943Y-99686400D01*
X121098097Y-99719587D01*
X120940932Y-99784687D01*
X120799487Y-99879198D01*
X120679198Y-99999487D01*
X120584687Y-100140932D01*
X120519587Y-100298097D01*
X120486400Y-100464943D01*
X119727000Y-100464943D01*
X119727000Y-98880447D01*
X123859158Y-98880447D01*
X124003135Y-99185770D01*
X124360892Y-99366597D01*
X124747053Y-99474155D01*
X125146777Y-99504310D01*
X125544704Y-99455904D01*
X125925540Y-99330795D01*
X126196865Y-99185770D01*
X126340842Y-98880447D01*
X125100000Y-97639605D01*
X123859158Y-98880447D01*
X119727000Y-98880447D01*
X119727000Y-97506777D01*
X123055690Y-97506777D01*
X123104096Y-97904704D01*
X123229205Y-98285540D01*
X123374230Y-98556865D01*
X123679553Y-98700842D01*
X124920395Y-97460000D01*
X125279605Y-97460000D01*
X126520447Y-98700842D01*
X126777656Y-98579553D01*
X131479158Y-98579553D01*
X132720000Y-99820395D01*
X133960842Y-98579553D01*
X133816865Y-98274230D01*
X133459108Y-98093403D01*
X133072947Y-97985845D01*
X132673223Y-97955690D01*
X132275296Y-98004096D01*
X131894460Y-98129205D01*
X131623135Y-98274230D01*
X131479158Y-98579553D01*
X126777656Y-98579553D01*
X126825770Y-98556865D01*
X127006597Y-98199108D01*
X127114155Y-97812947D01*
X127144310Y-97413223D01*
X127114634Y-97169268D01*
X136265000Y-97169268D01*
X136265000Y-97530732D01*
X136335518Y-97885250D01*
X136473844Y-98219199D01*
X136674662Y-98519744D01*
X136930256Y-98775338D01*
X137230801Y-98976156D01*
X137564750Y-99114482D01*
X137919268Y-99185000D01*
X138280732Y-99185000D01*
X138635250Y-99114482D01*
X138969199Y-98976156D01*
X139269744Y-98775338D01*
X139525338Y-98519744D01*
X139726156Y-98219199D01*
X139864482Y-97885250D01*
X139935000Y-97530732D01*
X139935000Y-97169268D01*
X139864482Y-96814750D01*
X139726156Y-96480801D01*
X139525338Y-96180256D01*
X139269744Y-95924662D01*
X138969199Y-95723844D01*
X138635250Y-95585518D01*
X138280732Y-95515000D01*
X137919268Y-95515000D01*
X137564750Y-95585518D01*
X137230801Y-95723844D01*
X136930256Y-95924662D01*
X136674662Y-96180256D01*
X136473844Y-96480801D01*
X136335518Y-96814750D01*
X136265000Y-97169268D01*
X127114634Y-97169268D01*
X127095904Y-97015296D01*
X126970795Y-96634460D01*
X126825770Y-96363135D01*
X126520447Y-96219158D01*
X125279605Y-97460000D01*
X124920395Y-97460000D01*
X123679553Y-96219158D01*
X123374230Y-96363135D01*
X123193403Y-96720892D01*
X123085845Y-97107053D01*
X123055690Y-97506777D01*
X119727000Y-97506777D01*
X119727000Y-96936564D01*
X120014250Y-96935000D01*
X120173000Y-96776250D01*
X120173000Y-95577000D01*
X120427000Y-95577000D01*
X120427000Y-96776250D01*
X120585750Y-96935000D01*
X121150000Y-96938072D01*
X121274482Y-96925812D01*
X121394180Y-96889502D01*
X121504494Y-96830537D01*
X121601185Y-96751185D01*
X121680537Y-96654494D01*
X121739502Y-96544180D01*
X121775812Y-96424482D01*
X121788072Y-96300000D01*
X121786655Y-96039553D01*
X123859158Y-96039553D01*
X125100000Y-97280395D01*
X126340842Y-96039553D01*
X126196865Y-95734230D01*
X125839108Y-95553403D01*
X125452947Y-95445845D01*
X125053223Y-95415690D01*
X124655296Y-95464096D01*
X124274460Y-95589205D01*
X124003135Y-95734230D01*
X123859158Y-96039553D01*
X121786655Y-96039553D01*
X121785000Y-95735750D01*
X121626250Y-95577000D01*
X120427000Y-95577000D01*
X120173000Y-95577000D01*
X120153000Y-95577000D01*
X120153000Y-95323000D01*
X120173000Y-95323000D01*
X120173000Y-94123750D01*
X120427000Y-94123750D01*
X120427000Y-95323000D01*
X121626250Y-95323000D01*
X121785000Y-95164250D01*
X121787779Y-94653685D01*
X126372100Y-94653685D01*
X126372100Y-94846315D01*
X126409680Y-95035243D01*
X126483396Y-95213210D01*
X126590415Y-95373375D01*
X126726625Y-95509585D01*
X126886790Y-95616604D01*
X127064757Y-95690320D01*
X127253685Y-95727900D01*
X127446315Y-95727900D01*
X127635243Y-95690320D01*
X127813210Y-95616604D01*
X127973375Y-95509585D01*
X128109585Y-95373375D01*
X128216604Y-95213210D01*
X128290320Y-95035243D01*
X128327900Y-94846315D01*
X128327900Y-94653685D01*
X128310249Y-94564943D01*
X150036400Y-94564943D01*
X150036400Y-94735057D01*
X150069587Y-94901903D01*
X150134687Y-95059068D01*
X150229198Y-95200513D01*
X150349487Y-95320802D01*
X150490932Y-95415313D01*
X150648097Y-95480413D01*
X150814943Y-95513600D01*
X150985057Y-95513600D01*
X151151903Y-95480413D01*
X151309068Y-95415313D01*
X151450513Y-95320802D01*
X151570802Y-95200513D01*
X151665313Y-95059068D01*
X151730413Y-94901903D01*
X151763600Y-94735057D01*
X151763600Y-94564943D01*
X151730413Y-94398097D01*
X151665313Y-94240932D01*
X151570802Y-94099487D01*
X151450513Y-93979198D01*
X151309068Y-93884687D01*
X151151903Y-93819587D01*
X150985057Y-93786400D01*
X150814943Y-93786400D01*
X150648097Y-93819587D01*
X150490932Y-93884687D01*
X150349487Y-93979198D01*
X150229198Y-94099487D01*
X150134687Y-94240932D01*
X150069587Y-94398097D01*
X150036400Y-94564943D01*
X128310249Y-94564943D01*
X128290320Y-94464757D01*
X128216604Y-94286790D01*
X128109585Y-94126625D01*
X127973375Y-93990415D01*
X127813210Y-93883396D01*
X127635243Y-93809680D01*
X127446315Y-93772100D01*
X127253685Y-93772100D01*
X127064757Y-93809680D01*
X126886790Y-93883396D01*
X126726625Y-93990415D01*
X126590415Y-94126625D01*
X126483396Y-94286790D01*
X126409680Y-94464757D01*
X126372100Y-94653685D01*
X121787779Y-94653685D01*
X121788072Y-94600000D01*
X121775812Y-94475518D01*
X121739502Y-94355820D01*
X121680537Y-94245506D01*
X121601185Y-94148815D01*
X121504494Y-94069463D01*
X121394180Y-94010498D01*
X121274482Y-93974188D01*
X121150000Y-93961928D01*
X120585750Y-93965000D01*
X120427000Y-94123750D01*
X120173000Y-94123750D01*
X120014250Y-93965000D01*
X119804750Y-93963859D01*
X119830413Y-93901903D01*
X119863600Y-93735057D01*
X119863600Y-93564943D01*
X119830413Y-93398097D01*
X119765313Y-93240932D01*
X119727000Y-93183593D01*
X119727000Y-92710000D01*
X128061252Y-92710000D01*
X128069587Y-92751903D01*
G36*
X88236400Y-94281010D02*
G01*
X88149014Y-94209294D01*
X87891034Y-94071401D01*
X87611111Y-93986487D01*
X87392950Y-93965000D01*
X87247050Y-93965000D01*
X87028889Y-93986487D01*
X86748966Y-94071401D01*
X86490986Y-94209294D01*
X86264866Y-94394866D01*
X86079294Y-94620986D01*
X86050000Y-94675791D01*
X86020706Y-94620986D01*
X85835134Y-94394866D01*
X85609014Y-94209294D01*
X85351034Y-94071401D01*
X85071111Y-93986487D01*
X84852950Y-93965000D01*
X84707050Y-93965000D01*
X84488889Y-93986487D01*
X84208966Y-94071401D01*
X83950986Y-94209294D01*
X83724866Y-94394866D01*
X83539294Y-94620986D01*
X83510000Y-94675791D01*
X83480706Y-94620986D01*
X83295134Y-94394866D01*
X83069014Y-94209294D01*
X82811034Y-94071401D01*
X82531111Y-93986487D01*
X82312950Y-93965000D01*
X82167050Y-93965000D01*
X81948889Y-93986487D01*
X81668966Y-94071401D01*
X81410986Y-94209294D01*
X81184866Y-94394866D01*
X81160393Y-94424687D01*
X81139502Y-94355820D01*
X81080537Y-94245506D01*
X81001185Y-94148815D01*
X80904494Y-94069463D01*
X80794180Y-94010498D01*
X80674482Y-93974188D01*
X80550000Y-93961928D01*
X78850000Y-93961928D01*
X78725518Y-93974188D01*
X78605820Y-94010498D01*
X78495506Y-94069463D01*
X78398815Y-94148815D01*
X78319463Y-94245506D01*
X78260498Y-94355820D01*
X78224188Y-94475518D01*
X78211928Y-94600000D01*
X78211928Y-96300000D01*
X78224188Y-96424482D01*
X78260498Y-96544180D01*
X78319463Y-96654494D01*
X78398815Y-96751185D01*
X78495506Y-96830537D01*
X78605820Y-96889502D01*
X78725518Y-96925812D01*
X78850000Y-96938072D01*
X80550000Y-96938072D01*
X80674482Y-96925812D01*
X80794180Y-96889502D01*
X80904494Y-96830537D01*
X81001185Y-96751185D01*
X81080537Y-96654494D01*
X81139502Y-96544180D01*
X81160393Y-96475313D01*
X81184866Y-96505134D01*
X81410986Y-96690706D01*
X81668966Y-96828599D01*
X81948889Y-96913513D01*
X82167050Y-96935000D01*
X82312950Y-96935000D01*
X82531111Y-96913513D01*
X82811034Y-96828599D01*
X83069014Y-96690706D01*
X83295134Y-96505134D01*
X83480706Y-96279014D01*
X83510000Y-96224209D01*
X83539294Y-96279014D01*
X83724866Y-96505134D01*
X83950986Y-96690706D01*
X84208966Y-96828599D01*
X84488889Y-96913513D01*
X84707050Y-96935000D01*
X84852950Y-96935000D01*
X85071111Y-96913513D01*
X85351034Y-96828599D01*
X85609014Y-96690706D01*
X85835134Y-96505134D01*
X86020706Y-96279014D01*
X86050000Y-96224209D01*
X86079294Y-96279014D01*
X86264866Y-96505134D01*
X86490986Y-96690706D01*
X86586418Y-96741715D01*
X85618134Y-97710000D01*
X85499468Y-97710000D01*
X85401903Y-97669587D01*
X85235057Y-97636400D01*
X85064943Y-97636400D01*
X84898097Y-97669587D01*
X84740932Y-97734687D01*
X84599487Y-97829198D01*
X84479198Y-97949487D01*
X84384687Y-98090932D01*
X84319587Y-98248097D01*
X84286400Y-98414943D01*
X84286400Y-98585057D01*
X84319587Y-98751903D01*
X84384687Y-98909068D01*
X84479198Y-99050513D01*
X84599487Y-99170802D01*
X84740932Y-99265313D01*
X84898097Y-99330413D01*
X85064943Y-99363600D01*
X85235057Y-99363600D01*
X85401903Y-99330413D01*
X85499468Y-99290000D01*
X85906557Y-99290000D01*
X85945362Y-99293822D01*
X85984167Y-99290000D01*
X85984168Y-99290000D01*
X86100229Y-99278569D01*
X86249145Y-99233396D01*
X86386386Y-99160039D01*
X86506679Y-99061317D01*
X86531420Y-99031170D01*
X86597647Y-98964943D01*
X88636400Y-98964943D01*
X88636400Y-99135057D01*
X88669587Y-99301903D01*
X88734687Y-99459068D01*
X88829198Y-99600513D01*
X88949487Y-99720802D01*
X89090932Y-99815313D01*
X89248097Y-99880413D01*
X89414943Y-99913600D01*
X89585057Y-99913600D01*
X89751903Y-99880413D01*
X89909068Y-99815313D01*
X90050513Y-99720802D01*
X90170802Y-99600513D01*
X90194192Y-99565507D01*
X90249487Y-99620802D01*
X90390932Y-99715313D01*
X90548097Y-99780413D01*
X90714943Y-99813600D01*
X90885057Y-99813600D01*
X91051903Y-99780413D01*
X91209068Y-99715313D01*
X91350513Y-99620802D01*
X91470802Y-99500513D01*
X91496889Y-99461471D01*
X91512521Y-99499209D01*
X91492949Y-99546459D01*
X91459762Y-99713305D01*
X91459762Y-99883419D01*
X91492949Y-100050265D01*
X91558049Y-100207430D01*
X91585707Y-100248824D01*
X91544587Y-100348097D01*
X91511400Y-100514943D01*
X91511400Y-100685057D01*
X91544587Y-100851903D01*
X91609687Y-101009068D01*
X91704198Y-101150513D01*
X91824487Y-101270802D01*
X91965932Y-101365313D01*
X92123097Y-101430413D01*
X92289943Y-101463600D01*
X92460057Y-101463600D01*
X92626903Y-101430413D01*
X92784068Y-101365313D01*
X92925513Y-101270802D01*
X92931372Y-101264943D01*
X93786400Y-101264943D01*
X93786400Y-101435057D01*
X93819587Y-101601903D01*
X93884687Y-101759068D01*
X93979198Y-101900513D01*
X94099487Y-102020802D01*
X94240932Y-102115313D01*
X94398097Y-102180413D01*
X94564943Y-102213600D01*
X94735057Y-102213600D01*
X94901903Y-102180413D01*
X95059068Y-102115313D01*
X95200513Y-102020802D01*
X95320802Y-101900513D01*
X95415313Y-101759068D01*
X95480413Y-101601903D01*
X95512628Y-101439943D01*
X98411400Y-101439943D01*
X98411400Y-101610057D01*
X98444587Y-101776903D01*
X98509687Y-101934068D01*
X98604198Y-102075513D01*
X98724487Y-102195802D01*
X98865932Y-102290313D01*
X99023097Y-102355413D01*
X99189943Y-102388600D01*
X99360057Y-102388600D01*
X99526903Y-102355413D01*
X99684068Y-102290313D01*
X99809912Y-102206227D01*
X99899487Y-102295802D01*
X100040932Y-102390313D01*
X100198097Y-102455413D01*
X100364943Y-102488600D01*
X100535057Y-102488600D01*
X100701903Y-102455413D01*
X100859068Y-102390313D01*
X101000513Y-102295802D01*
X101120802Y-102175513D01*
X101215313Y-102034068D01*
X101280413Y-101876903D01*
X101313600Y-101710057D01*
X101313600Y-101539943D01*
X101308628Y-101514943D01*
X108386400Y-101514943D01*
X108386400Y-101685057D01*
X108419587Y-101851903D01*
X108484687Y-102009068D01*
X108579198Y-102150513D01*
X108699487Y-102270802D01*
X108840932Y-102365313D01*
X108998097Y-102430413D01*
X109164943Y-102463600D01*
X109335057Y-102463600D01*
X109501903Y-102430413D01*
X109659068Y-102365313D01*
X109800513Y-102270802D01*
X109920802Y-102150513D01*
X110015313Y-102009068D01*
X110033590Y-101964943D01*
X110186400Y-101964943D01*
X110186400Y-102135057D01*
X110219587Y-102301903D01*
X110284687Y-102459068D01*
X110379198Y-102600513D01*
X110499487Y-102720802D01*
X110640932Y-102815313D01*
X110798097Y-102880413D01*
X110964943Y-102913600D01*
X111135057Y-102913600D01*
X111301903Y-102880413D01*
X111459068Y-102815313D01*
X111600513Y-102720802D01*
X111720802Y-102600513D01*
X111815313Y-102459068D01*
X111880413Y-102301903D01*
X111913600Y-102135057D01*
X111913600Y-101964943D01*
X111880413Y-101798097D01*
X111815313Y-101640932D01*
X111720802Y-101499487D01*
X111600513Y-101379198D01*
X111459068Y-101284687D01*
X111301903Y-101219587D01*
X111135057Y-101186400D01*
X110964943Y-101186400D01*
X110798097Y-101219587D01*
X110640932Y-101284687D01*
X110499487Y-101379198D01*
X110379198Y-101499487D01*
X110284687Y-101640932D01*
X110219587Y-101798097D01*
X110186400Y-101964943D01*
X110033590Y-101964943D01*
X110080413Y-101851903D01*
X110113600Y-101685057D01*
X110113600Y-101514943D01*
X110080413Y-101348097D01*
X110015313Y-101190932D01*
X109920802Y-101049487D01*
X109800513Y-100929198D01*
X109659068Y-100834687D01*
X109501903Y-100769587D01*
X109335057Y-100736400D01*
X109164943Y-100736400D01*
X108998097Y-100769587D01*
X108840932Y-100834687D01*
X108699487Y-100929198D01*
X108579198Y-101049487D01*
X108484687Y-101190932D01*
X108419587Y-101348097D01*
X108386400Y-101514943D01*
X101308628Y-101514943D01*
X101280413Y-101373097D01*
X101215313Y-101215932D01*
X101120802Y-101074487D01*
X101000513Y-100954198D01*
X100859068Y-100859687D01*
X100701903Y-100794587D01*
X100535057Y-100761400D01*
X100364943Y-100761400D01*
X100198097Y-100794587D01*
X100040932Y-100859687D01*
X99915088Y-100943773D01*
X99825513Y-100854198D01*
X99684068Y-100759687D01*
X99526903Y-100694587D01*
X99360057Y-100661400D01*
X99189943Y-100661400D01*
X99023097Y-100694587D01*
X98865932Y-100759687D01*
X98724487Y-100854198D01*
X98604198Y-100974487D01*
X98509687Y-101115932D01*
X98444587Y-101273097D01*
X98411400Y-101439943D01*
X95512628Y-101439943D01*
X95513600Y-101435057D01*
X95513600Y-101264943D01*
X95480413Y-101098097D01*
X95415313Y-100940932D01*
X95320802Y-100799487D01*
X95200513Y-100679198D01*
X95059068Y-100584687D01*
X94901903Y-100519587D01*
X94735057Y-100486400D01*
X94564943Y-100486400D01*
X94398097Y-100519587D01*
X94240932Y-100584687D01*
X94099487Y-100679198D01*
X93979198Y-100799487D01*
X93884687Y-100940932D01*
X93819587Y-101098097D01*
X93786400Y-101264943D01*
X92931372Y-101264943D01*
X93045802Y-101150513D01*
X93140313Y-101009068D01*
X93205413Y-100851903D01*
X93238600Y-100685057D01*
X93238600Y-100514943D01*
X93205413Y-100348097D01*
X93140313Y-100190932D01*
X93112655Y-100149538D01*
X93153775Y-100050265D01*
X93186962Y-99883419D01*
X93186962Y-99713305D01*
X93153775Y-99546459D01*
X93135841Y-99503164D01*
X93155413Y-99455914D01*
X93188600Y-99289068D01*
X93188600Y-99118954D01*
X93155413Y-98952108D01*
X93129664Y-98889943D01*
X99861400Y-98889943D01*
X99861400Y-99060057D01*
X99894587Y-99226903D01*
X99959687Y-99384068D01*
X100054198Y-99525513D01*
X100174487Y-99645802D01*
X100315932Y-99740313D01*
X100473097Y-99805413D01*
X100639943Y-99838600D01*
X100810057Y-99838600D01*
X100976903Y-99805413D01*
X101134068Y-99740313D01*
X101209451Y-99689943D01*
X105411400Y-99689943D01*
X105411400Y-99860057D01*
X105444587Y-100026903D01*
X105509687Y-100184068D01*
X105604198Y-100325513D01*
X105724487Y-100445802D01*
X105865932Y-100540313D01*
X106023097Y-100605413D01*
X106189943Y-100638600D01*
X106360057Y-100638600D01*
X106526903Y-100605413D01*
X106684068Y-100540313D01*
X106825513Y-100445802D01*
X106945802Y-100325513D01*
X107040313Y-100184068D01*
X107105413Y-100026903D01*
X107138600Y-99860057D01*
X107138600Y-99689943D01*
X107105413Y-99523097D01*
X107040313Y-99365932D01*
X106945802Y-99224487D01*
X106825513Y-99104198D01*
X106684068Y-99009687D01*
X106526903Y-98944587D01*
X106360057Y-98911400D01*
X106189943Y-98911400D01*
X106023097Y-98944587D01*
X105865932Y-99009687D01*
X105724487Y-99104198D01*
X105604198Y-99224487D01*
X105509687Y-99365932D01*
X105444587Y-99523097D01*
X105411400Y-99689943D01*
X101209451Y-99689943D01*
X101275513Y-99645802D01*
X101395802Y-99525513D01*
X101490313Y-99384068D01*
X101555413Y-99226903D01*
X101588600Y-99060057D01*
X101588600Y-98889943D01*
X101555413Y-98723097D01*
X101490313Y-98565932D01*
X101395802Y-98424487D01*
X101275513Y-98304198D01*
X101134068Y-98209687D01*
X100976903Y-98144587D01*
X100810057Y-98111400D01*
X100639943Y-98111400D01*
X100473097Y-98144587D01*
X100315932Y-98209687D01*
X100174487Y-98304198D01*
X100054198Y-98424487D01*
X99959687Y-98565932D01*
X99894587Y-98723097D01*
X99861400Y-98889943D01*
X93129664Y-98889943D01*
X93090313Y-98794943D01*
X92995802Y-98653498D01*
X92875513Y-98533209D01*
X92734068Y-98438698D01*
X92576903Y-98373598D01*
X92410057Y-98340411D01*
X92239943Y-98340411D01*
X92073097Y-98373598D01*
X91915932Y-98438698D01*
X91774487Y-98533209D01*
X91654198Y-98653498D01*
X91628111Y-98692540D01*
X91565313Y-98540932D01*
X91470802Y-98399487D01*
X91350513Y-98279198D01*
X91209068Y-98184687D01*
X91051903Y-98119587D01*
X90885057Y-98086400D01*
X90714943Y-98086400D01*
X90548097Y-98119587D01*
X90390932Y-98184687D01*
X90249487Y-98279198D01*
X90129198Y-98399487D01*
X90105808Y-98434493D01*
X90050513Y-98379198D01*
X89909068Y-98284687D01*
X89751903Y-98219587D01*
X89585057Y-98186400D01*
X89414943Y-98186400D01*
X89248097Y-98219587D01*
X89090932Y-98284687D01*
X88949487Y-98379198D01*
X88829198Y-98499487D01*
X88734687Y-98640932D01*
X88669587Y-98798097D01*
X88636400Y-98964943D01*
X86597647Y-98964943D01*
X88943600Y-96618991D01*
X89030986Y-96690706D01*
X89288966Y-96828599D01*
X89568889Y-96913513D01*
X89787050Y-96935000D01*
X89932950Y-96935000D01*
X90151111Y-96913513D01*
X90431034Y-96828599D01*
X90689014Y-96690706D01*
X90915134Y-96505134D01*
X91100706Y-96279014D01*
X91238599Y-96021034D01*
X91323513Y-95741111D01*
X91350713Y-95464943D01*
X99461400Y-95464943D01*
X99461400Y-95635057D01*
X99494587Y-95801903D01*
X99559687Y-95959068D01*
X99654198Y-96100513D01*
X99774487Y-96220802D01*
X99915932Y-96315313D01*
X100073097Y-96380413D01*
X100239943Y-96413600D01*
X100410057Y-96413600D01*
X100576903Y-96380413D01*
X100734068Y-96315313D01*
X100875513Y-96220802D01*
X100995802Y-96100513D01*
X101090313Y-95959068D01*
X101155413Y-95801903D01*
X101188600Y-95635057D01*
X101188600Y-95464943D01*
X101155413Y-95298097D01*
X101090313Y-95140932D01*
X100995802Y-94999487D01*
X100875513Y-94879198D01*
X100734068Y-94784687D01*
X100576903Y-94719587D01*
X100410057Y-94686400D01*
X100239943Y-94686400D01*
X100073097Y-94719587D01*
X99915932Y-94784687D01*
X99774487Y-94879198D01*
X99654198Y-94999487D01*
X99559687Y-95140932D01*
X99494587Y-95298097D01*
X99461400Y-95464943D01*
X91350713Y-95464943D01*
X91352185Y-95450000D01*
X91323513Y-95158889D01*
X91238599Y-94878966D01*
X91100706Y-94620986D01*
X90993162Y-94489943D01*
X93336400Y-94489943D01*
X93336400Y-94660057D01*
X93369587Y-94826903D01*
X93434687Y-94984068D01*
X93529198Y-95125513D01*
X93649487Y-95245802D01*
X93790932Y-95340313D01*
X93948097Y-95405413D01*
X94114943Y-95438600D01*
X94285057Y-95438600D01*
X94451903Y-95405413D01*
X94609068Y-95340313D01*
X94750513Y-95245802D01*
X94870802Y-95125513D01*
X94965313Y-94984068D01*
X95030413Y-94826903D01*
X95063600Y-94660057D01*
X95063600Y-94489943D01*
X95030413Y-94323097D01*
X94965313Y-94165932D01*
X94870802Y-94024487D01*
X94750513Y-93904198D01*
X94609068Y-93809687D01*
X94451903Y-93744587D01*
X94285057Y-93711400D01*
X94114943Y-93711400D01*
X93948097Y-93744587D01*
X93790932Y-93809687D01*
X93649487Y-93904198D01*
X93529198Y-94024487D01*
X93434687Y-94165932D01*
X93369587Y-94323097D01*
X93336400Y-94489943D01*
X90993162Y-94489943D01*
X90915134Y-94394866D01*
X90689014Y-94209294D01*
X90593582Y-94158285D01*
X91561867Y-93190000D01*
X102947329Y-93190000D01*
X102969588Y-93301904D01*
X103034688Y-93459069D01*
X103129199Y-93600514D01*
X103249488Y-93720803D01*
X103390933Y-93815314D01*
X103548098Y-93880414D01*
X103714944Y-93913601D01*
X103885058Y-93913601D01*
X104051904Y-93880414D01*
X104209069Y-93815314D01*
X104350514Y-93720803D01*
X104470803Y-93600514D01*
X104565314Y-93459069D01*
X104630414Y-93301904D01*
X104652673Y-93190000D01*
X118873000Y-93190000D01*
X118873000Y-94332431D01*
X118860498Y-94355820D01*
X118839607Y-94424687D01*
X118815134Y-94394866D01*
X118589014Y-94209294D01*
X118331034Y-94071401D01*
X118051111Y-93986487D01*
X117832950Y-93965000D01*
X117687050Y-93965000D01*
X117468889Y-93986487D01*
X117188966Y-94071401D01*
X116930986Y-94209294D01*
X116704866Y-94394866D01*
X116519294Y-94620986D01*
X116490000Y-94675791D01*
X116460706Y-94620986D01*
X116275134Y-94394866D01*
X116049014Y-94209294D01*
X115791034Y-94071401D01*
X115511111Y-93986487D01*
X115292950Y-93965000D01*
X115147050Y-93965000D01*
X114928889Y-93986487D01*
X114648966Y-94071401D01*
X114390986Y-94209294D01*
X114164866Y-94394866D01*
X113979294Y-94620986D01*
X113950000Y-94675791D01*
X113920706Y-94620986D01*
X113735134Y-94394866D01*
X113509014Y-94209294D01*
X113251034Y-94071401D01*
X112971111Y-93986487D01*
X112752950Y-93965000D01*
X112607050Y-93965000D01*
X112388889Y-93986487D01*
X112108966Y-94071401D01*
X111850986Y-94209294D01*
X111624866Y-94394866D01*
X111439294Y-94620986D01*
X111410000Y-94675791D01*
X111380706Y-94620986D01*
X111195134Y-94394866D01*
X110969014Y-94209294D01*
X110711034Y-94071401D01*
X110431111Y-93986487D01*
X110212950Y-93965000D01*
X110067050Y-93965000D01*
X109848889Y-93986487D01*
X109568966Y-94071401D01*
X109310986Y-94209294D01*
X109084866Y-94394866D01*
X108899294Y-94620986D01*
X108761401Y-94878966D01*
X108676487Y-95158889D01*
X108647815Y-95450000D01*
X108676487Y-95741111D01*
X108761401Y-96021034D01*
X108899294Y-96279014D01*
X109084866Y-96505134D01*
X109310986Y-96690706D01*
X109568966Y-96828599D01*
X109848889Y-96913513D01*
X110067050Y-96935000D01*
X110212950Y-96935000D01*
X110431111Y-96913513D01*
X110711034Y-96828599D01*
X110969014Y-96690706D01*
X111195134Y-96505134D01*
X111380706Y-96279014D01*
X111410000Y-96224209D01*
X111439294Y-96279014D01*
X111624866Y-96505134D01*
X111850986Y-96690706D01*
X112108966Y-96828599D01*
X112388889Y-96913513D01*
X112607050Y-96935000D01*
X112752950Y-96935000D01*
X112971111Y-96913513D01*
X113251034Y-96828599D01*
X113509014Y-96690706D01*
X113735134Y-96505134D01*
X113920706Y-96279014D01*
X113950000Y-96224209D01*
X113979294Y-96279014D01*
X114164866Y-96505134D01*
X114390986Y-96690706D01*
X114648966Y-96828599D01*
X114928889Y-96913513D01*
X115147050Y-96935000D01*
X115292950Y-96935000D01*
X115511111Y-96913513D01*
X115791034Y-96828599D01*
X116049014Y-96690706D01*
X116275134Y-96505134D01*
X116460706Y-96279014D01*
X116490000Y-96224209D01*
X116519294Y-96279014D01*
X116704866Y-96505134D01*
X116930986Y-96690706D01*
X117188966Y-96828599D01*
X117468889Y-96913513D01*
X117687050Y-96935000D01*
X117832950Y-96935000D01*
X118051111Y-96913513D01*
X118331034Y-96828599D01*
X118589014Y-96690706D01*
X118815134Y-96505134D01*
X118839607Y-96475313D01*
X118860498Y-96544180D01*
X118873000Y-96567569D01*
X118873000Y-105254453D01*
X118856487Y-105308889D01*
X118827815Y-105600000D01*
X118856487Y-105891111D01*
X118873000Y-105945547D01*
X118873000Y-107290000D01*
X114986840Y-107290000D01*
X115191841Y-107085000D01*
X115312950Y-107085000D01*
X115531111Y-107063513D01*
X115811034Y-106978599D01*
X116069014Y-106840706D01*
X116295134Y-106655134D01*
X116480706Y-106429014D01*
X116618599Y-106171034D01*
X116703513Y-105891111D01*
X116732185Y-105600000D01*
X116703513Y-105308889D01*
X116618599Y-105028966D01*
X116480706Y-104770986D01*
X116295134Y-104544866D01*
X116069014Y-104359294D01*
X115811034Y-104221401D01*
X115531111Y-104136487D01*
X115312950Y-104115000D01*
X115167050Y-104115000D01*
X114948889Y-104136487D01*
X114668966Y-104221401D01*
X114410986Y-104359294D01*
X114184866Y-104544866D01*
X114160393Y-104574687D01*
X114139502Y-104505820D01*
X114080537Y-104395506D01*
X114001185Y-104298815D01*
X113904494Y-104219463D01*
X113794180Y-104160498D01*
X113674482Y-104124188D01*
X113550000Y-104111928D01*
X111850000Y-104111928D01*
X111725518Y-104124188D01*
X111605820Y-104160498D01*
X111495506Y-104219463D01*
X111398815Y-104298815D01*
X111319463Y-104395506D01*
X111260498Y-104505820D01*
X111224188Y-104625518D01*
X111211928Y-104750000D01*
X111211928Y-106217401D01*
X101143777Y-106217401D01*
X101145491Y-106200000D01*
X101123577Y-105977501D01*
X101058676Y-105763553D01*
X100953284Y-105566377D01*
X100952154Y-105565000D01*
X100953284Y-105563623D01*
X101058676Y-105366447D01*
X101123577Y-105152499D01*
X101145491Y-104930000D01*
X101123577Y-104707501D01*
X101058676Y-104493553D01*
X101029107Y-104438232D01*
X101178634Y-104438232D01*
X101345480Y-104405045D01*
X101502645Y-104339945D01*
X101644090Y-104245434D01*
X101764379Y-104125145D01*
X101858890Y-103983700D01*
X101918436Y-103839943D01*
X104461400Y-103839943D01*
X104461400Y-104010057D01*
X104494587Y-104176903D01*
X104559687Y-104334068D01*
X104654198Y-104475513D01*
X104774487Y-104595802D01*
X104915932Y-104690313D01*
X105073097Y-104755413D01*
X105239943Y-104788600D01*
X105410057Y-104788600D01*
X105576903Y-104755413D01*
X105734068Y-104690313D01*
X105875513Y-104595802D01*
X105995802Y-104475513D01*
X106090313Y-104334068D01*
X106155413Y-104176903D01*
X106188600Y-104010057D01*
X106188600Y-103839943D01*
X106155413Y-103673097D01*
X106090313Y-103515932D01*
X105995802Y-103374487D01*
X105875513Y-103254198D01*
X105734068Y-103159687D01*
X105576903Y-103094587D01*
X105410057Y-103061400D01*
X105239943Y-103061400D01*
X105073097Y-103094587D01*
X104915932Y-103159687D01*
X104774487Y-103254198D01*
X104654198Y-103374487D01*
X104559687Y-103515932D01*
X104494587Y-103673097D01*
X104461400Y-103839943D01*
X101918436Y-103839943D01*
X101923990Y-103826535D01*
X101957177Y-103659689D01*
X101957177Y-103489575D01*
X101923990Y-103322729D01*
X101858890Y-103165564D01*
X101764379Y-103024119D01*
X101644090Y-102903830D01*
X101502645Y-102809319D01*
X101345480Y-102744219D01*
X101178634Y-102711032D01*
X101008520Y-102711032D01*
X100841674Y-102744219D01*
X100684509Y-102809319D01*
X100543064Y-102903830D01*
X100422775Y-103024119D01*
X100328264Y-103165564D01*
X100263164Y-103322729D01*
X100229977Y-103489575D01*
X100229977Y-103659689D01*
X100262255Y-103821966D01*
X100227499Y-103811423D01*
X100060752Y-103795000D01*
X99949248Y-103795000D01*
X99782501Y-103811423D01*
X99568553Y-103876324D01*
X99371377Y-103981716D01*
X99370000Y-103982846D01*
X99368623Y-103981716D01*
X99171447Y-103876324D01*
X98957499Y-103811423D01*
X98790752Y-103795000D01*
X98679248Y-103795000D01*
X98512501Y-103811423D01*
X98298553Y-103876324D01*
X98101377Y-103981716D01*
X98100000Y-103982846D01*
X98098623Y-103981716D01*
X97901447Y-103876324D01*
X97687499Y-103811423D01*
X97520752Y-103795000D01*
X97409248Y-103795000D01*
X97242501Y-103811423D01*
X97028553Y-103876324D01*
X96831377Y-103981716D01*
X96830000Y-103982846D01*
X96828623Y-103981716D01*
X96631447Y-103876324D01*
X96417499Y-103811423D01*
X96250752Y-103795000D01*
X96139248Y-103795000D01*
X95972501Y-103811423D01*
X95758553Y-103876324D01*
X95561377Y-103981716D01*
X95560000Y-103982846D01*
X95558623Y-103981716D01*
X95361447Y-103876324D01*
X95147499Y-103811423D01*
X94980752Y-103795000D01*
X94869248Y-103795000D01*
X94702501Y-103811423D01*
X94488553Y-103876324D01*
X94291377Y-103981716D01*
X94118551Y-104123551D01*
X93976716Y-104296377D01*
X93871324Y-104493553D01*
X93806423Y-104707501D01*
X93784509Y-104930000D01*
X93806423Y-105152499D01*
X93871324Y-105366447D01*
X93976716Y-105563623D01*
X94118551Y-105736449D01*
X94291377Y-105878284D01*
X94488553Y-105983676D01*
X94702501Y-106048577D01*
X94869248Y-106065000D01*
X94980752Y-106065000D01*
X95068658Y-106056342D01*
X95054509Y-106200000D01*
X95056223Y-106217401D01*
X91213815Y-106217401D01*
X91238599Y-106171034D01*
X91323513Y-105891111D01*
X91352185Y-105600000D01*
X91323513Y-105308889D01*
X91238599Y-105028966D01*
X91100706Y-104770986D01*
X90915134Y-104544866D01*
X90689014Y-104359294D01*
X90431034Y-104221401D01*
X90151111Y-104136487D01*
X89932950Y-104115000D01*
X89787050Y-104115000D01*
X89568889Y-104136487D01*
X89288966Y-104221401D01*
X89030986Y-104359294D01*
X88804866Y-104544866D01*
X88619294Y-104770986D01*
X88590000Y-104825791D01*
X88560706Y-104770986D01*
X88375134Y-104544866D01*
X88149014Y-104359294D01*
X87891034Y-104221401D01*
X87611111Y-104136487D01*
X87392950Y-104115000D01*
X87247050Y-104115000D01*
X87028889Y-104136487D01*
X86748966Y-104221401D01*
X86490986Y-104359294D01*
X86264866Y-104544866D01*
X86079294Y-104770986D01*
X86050000Y-104825791D01*
X86020706Y-104770986D01*
X85835134Y-104544866D01*
X85609014Y-104359294D01*
X85351034Y-104221401D01*
X85071111Y-104136487D01*
X84852950Y-104115000D01*
X84707050Y-104115000D01*
X84488889Y-104136487D01*
X84208966Y-104221401D01*
X83950986Y-104359294D01*
X83724866Y-104544866D01*
X83539294Y-104770986D01*
X83510000Y-104825791D01*
X83480706Y-104770986D01*
X83295134Y-104544866D01*
X83069014Y-104359294D01*
X82811034Y-104221401D01*
X82531111Y-104136487D01*
X82312950Y-104115000D01*
X82167050Y-104115000D01*
X81948889Y-104136487D01*
X81668966Y-104221401D01*
X81410986Y-104359294D01*
X81184866Y-104544866D01*
X81160393Y-104574687D01*
X81139502Y-104505820D01*
X81080537Y-104395506D01*
X81001185Y-104298815D01*
X80904494Y-104219463D01*
X80794180Y-104160498D01*
X80674482Y-104124188D01*
X80550000Y-104111928D01*
X78850000Y-104111928D01*
X78725518Y-104124188D01*
X78605820Y-104160498D01*
X78495506Y-104219463D01*
X78398815Y-104298815D01*
X78319463Y-104395506D01*
X78260498Y-104505820D01*
X78224188Y-104625518D01*
X78211928Y-104750000D01*
X78211928Y-106217401D01*
X62492531Y-106217401D01*
X62396076Y-106226901D01*
X62138742Y-106226901D01*
X61533134Y-105621294D01*
X61417189Y-105526141D01*
X61240687Y-105431799D01*
X61049170Y-105373702D01*
X60850000Y-105354085D01*
X60650830Y-105373702D01*
X60459313Y-105431799D01*
X60282811Y-105526141D01*
X60128105Y-105653105D01*
X60001141Y-105807811D01*
X59906799Y-105984313D01*
X59848702Y-106175830D01*
X59829085Y-106375000D01*
X59848702Y-106574170D01*
X59873163Y-106654804D01*
X58827000Y-105933313D01*
X58827000Y-103675013D01*
X58978682Y-103799495D01*
X59206259Y-103921138D01*
X59453195Y-103996045D01*
X59645649Y-104015000D01*
X60124351Y-104015000D01*
X60316805Y-103996045D01*
X60563741Y-103921138D01*
X60791318Y-103799495D01*
X60990792Y-103635792D01*
X61154495Y-103436318D01*
X61276138Y-103208741D01*
X61351045Y-102961805D01*
X61376338Y-102705000D01*
X61351045Y-102448195D01*
X61334909Y-102395000D01*
X61494267Y-102395000D01*
X61517147Y-102627300D01*
X61584906Y-102850674D01*
X61694942Y-103056536D01*
X61843025Y-103236975D01*
X62023464Y-103385058D01*
X62229326Y-103495094D01*
X62452700Y-103562853D01*
X62626793Y-103580000D01*
X63143207Y-103580000D01*
X63317300Y-103562853D01*
X63540674Y-103495094D01*
X63746536Y-103385058D01*
X63926975Y-103236975D01*
X64075058Y-103056536D01*
X64185094Y-102850674D01*
X64252853Y-102627300D01*
X64275733Y-102395000D01*
X64270274Y-102339570D01*
X72865000Y-102339570D01*
X72865000Y-102740430D01*
X72943204Y-103133587D01*
X73096607Y-103503934D01*
X73319313Y-103837237D01*
X73602763Y-104120687D01*
X73936066Y-104343393D01*
X74306413Y-104496796D01*
X74699570Y-104575000D01*
X75100430Y-104575000D01*
X75493587Y-104496796D01*
X75863934Y-104343393D01*
X76197237Y-104120687D01*
X76480687Y-103837237D01*
X76703393Y-103503934D01*
X76856796Y-103133587D01*
X76935000Y-102740430D01*
X76935000Y-102339570D01*
X76856796Y-101946413D01*
X76703393Y-101576066D01*
X76670905Y-101527443D01*
X79498900Y-101527443D01*
X79498900Y-101697557D01*
X79532087Y-101864403D01*
X79597187Y-102021568D01*
X79691698Y-102163013D01*
X79811987Y-102283302D01*
X79953432Y-102377813D01*
X80110597Y-102442913D01*
X80277443Y-102476100D01*
X80447557Y-102476100D01*
X80614403Y-102442913D01*
X80771568Y-102377813D01*
X80913013Y-102283302D01*
X81033302Y-102163013D01*
X81127813Y-102021568D01*
X81192913Y-101864403D01*
X81212696Y-101764943D01*
X84886400Y-101764943D01*
X84886400Y-101935057D01*
X84919587Y-102101903D01*
X84984687Y-102259068D01*
X85079198Y-102400513D01*
X85199487Y-102520802D01*
X85340932Y-102615313D01*
X85498097Y-102680413D01*
X85664943Y-102713600D01*
X85835057Y-102713600D01*
X86001903Y-102680413D01*
X86159068Y-102615313D01*
X86300513Y-102520802D01*
X86420802Y-102400513D01*
X86515313Y-102259068D01*
X86580413Y-102101903D01*
X86613600Y-101935057D01*
X86613600Y-101764943D01*
X86580413Y-101598097D01*
X86515313Y-101440932D01*
X86420802Y-101299487D01*
X86300513Y-101179198D01*
X86159068Y-101084687D01*
X86001903Y-101019587D01*
X85835057Y-100986400D01*
X85664943Y-100986400D01*
X85498097Y-101019587D01*
X85340932Y-101084687D01*
X85199487Y-101179198D01*
X85079198Y-101299487D01*
X84984687Y-101440932D01*
X84919587Y-101598097D01*
X84886400Y-101764943D01*
X81212696Y-101764943D01*
X81226100Y-101697557D01*
X81226100Y-101527443D01*
X81192913Y-101360597D01*
X81127813Y-101203432D01*
X81033302Y-101061987D01*
X80913013Y-100941698D01*
X80771568Y-100847187D01*
X80614403Y-100782087D01*
X80447557Y-100748900D01*
X80277443Y-100748900D01*
X80110597Y-100782087D01*
X79953432Y-100847187D01*
X79811987Y-100941698D01*
X79691698Y-101061987D01*
X79597187Y-101203432D01*
X79532087Y-101360597D01*
X79498900Y-101527443D01*
X76670905Y-101527443D01*
X76480687Y-101242763D01*
X76197237Y-100959313D01*
X75863934Y-100736607D01*
X75493587Y-100583204D01*
X75100430Y-100505000D01*
X74699570Y-100505000D01*
X74306413Y-100583204D01*
X73936066Y-100736607D01*
X73602763Y-100959313D01*
X73319313Y-101242763D01*
X73096607Y-101576066D01*
X72943204Y-101946413D01*
X72865000Y-102339570D01*
X64270274Y-102339570D01*
X64252853Y-102162700D01*
X64185094Y-101939326D01*
X64075058Y-101733464D01*
X63926975Y-101553025D01*
X63746536Y-101404942D01*
X63540674Y-101294906D01*
X63317300Y-101227147D01*
X63143207Y-101210000D01*
X62626793Y-101210000D01*
X62452700Y-101227147D01*
X62229326Y-101294906D01*
X62023464Y-101404942D01*
X61843025Y-101553025D01*
X61694942Y-101733464D01*
X61584906Y-101939326D01*
X61517147Y-102162700D01*
X61494267Y-102395000D01*
X61334909Y-102395000D01*
X61276138Y-102201259D01*
X61154495Y-101973682D01*
X60990792Y-101774208D01*
X60791318Y-101610505D01*
X60563741Y-101488862D01*
X60316805Y-101413955D01*
X60124351Y-101395000D01*
X59645649Y-101395000D01*
X59453195Y-101413955D01*
X59206259Y-101488862D01*
X58978682Y-101610505D01*
X58827000Y-101734987D01*
X58827000Y-99489943D01*
X63186400Y-99489943D01*
X63186400Y-99660057D01*
X63219587Y-99826903D01*
X63249865Y-99900000D01*
X63219587Y-99973097D01*
X63186400Y-100139943D01*
X63186400Y-100310057D01*
X63219587Y-100476903D01*
X63284687Y-100634068D01*
X63379198Y-100775513D01*
X63499487Y-100895802D01*
X63640932Y-100990313D01*
X63798097Y-101055413D01*
X63964943Y-101088600D01*
X64135057Y-101088600D01*
X64301903Y-101055413D01*
X64459068Y-100990313D01*
X64600513Y-100895802D01*
X64720802Y-100775513D01*
X64815313Y-100634068D01*
X64880413Y-100476903D01*
X64913600Y-100310057D01*
X64913600Y-100139943D01*
X64880413Y-99973097D01*
X64850135Y-99900000D01*
X64880413Y-99826903D01*
X64885849Y-99799570D01*
X65245000Y-99799570D01*
X65245000Y-100200430D01*
X65323204Y-100593587D01*
X65476607Y-100963934D01*
X65699313Y-101297237D01*
X65982763Y-101580687D01*
X66316066Y-101803393D01*
X66686413Y-101956796D01*
X67079570Y-102035000D01*
X67480430Y-102035000D01*
X67873587Y-101956796D01*
X68243934Y-101803393D01*
X68577237Y-101580687D01*
X68860687Y-101297237D01*
X69083393Y-100963934D01*
X69236796Y-100593587D01*
X69315000Y-100200430D01*
X69315000Y-99799570D01*
X69236796Y-99406413D01*
X69083393Y-99036066D01*
X68860687Y-98702763D01*
X68577237Y-98419313D01*
X68243934Y-98196607D01*
X67873587Y-98043204D01*
X67480430Y-97965000D01*
X67079570Y-97965000D01*
X66686413Y-98043204D01*
X66316066Y-98196607D01*
X65982763Y-98419313D01*
X65699313Y-98702763D01*
X65476607Y-99036066D01*
X65323204Y-99406413D01*
X65245000Y-99799570D01*
X64885849Y-99799570D01*
X64913600Y-99660057D01*
X64913600Y-99489943D01*
X64880413Y-99323097D01*
X64815313Y-99165932D01*
X64720802Y-99024487D01*
X64600513Y-98904198D01*
X64459068Y-98809687D01*
X64301903Y-98744587D01*
X64135057Y-98711400D01*
X63964943Y-98711400D01*
X63798097Y-98744587D01*
X63640932Y-98809687D01*
X63499487Y-98904198D01*
X63379198Y-99024487D01*
X63284687Y-99165932D01*
X63219587Y-99323097D01*
X63186400Y-99489943D01*
X58827000Y-99489943D01*
X58827000Y-98215013D01*
X58978682Y-98339495D01*
X59206259Y-98461138D01*
X59453195Y-98536045D01*
X59645649Y-98555000D01*
X60124351Y-98555000D01*
X60316805Y-98536045D01*
X60563741Y-98461138D01*
X60791318Y-98339495D01*
X60990792Y-98175792D01*
X61154495Y-97976318D01*
X61276138Y-97748741D01*
X61334908Y-97555000D01*
X61494267Y-97555000D01*
X61517147Y-97787300D01*
X61584906Y-98010674D01*
X61694942Y-98216536D01*
X61843025Y-98396975D01*
X62023464Y-98545058D01*
X62229326Y-98655094D01*
X62452700Y-98722853D01*
X62626793Y-98740000D01*
X63143207Y-98740000D01*
X63317300Y-98722853D01*
X63540674Y-98655094D01*
X63746536Y-98545058D01*
X63926975Y-98396975D01*
X64075058Y-98216536D01*
X64185094Y-98010674D01*
X64252853Y-97787300D01*
X64275733Y-97555000D01*
X64252853Y-97322700D01*
X64233703Y-97259570D01*
X72865000Y-97259570D01*
X72865000Y-97660430D01*
X72943204Y-98053587D01*
X73096607Y-98423934D01*
X73319313Y-98757237D01*
X73602763Y-99040687D01*
X73936066Y-99263393D01*
X74306413Y-99416796D01*
X74699570Y-99495000D01*
X75100430Y-99495000D01*
X75493587Y-99416796D01*
X75863934Y-99263393D01*
X76197237Y-99040687D01*
X76480687Y-98757237D01*
X76703393Y-98423934D01*
X76856796Y-98053587D01*
X76935000Y-97660430D01*
X76935000Y-97259570D01*
X76856796Y-96866413D01*
X76703393Y-96496066D01*
X76480687Y-96162763D01*
X76197237Y-95879313D01*
X75863934Y-95656607D01*
X75493587Y-95503204D01*
X75100430Y-95425000D01*
X74699570Y-95425000D01*
X74306413Y-95503204D01*
X73936066Y-95656607D01*
X73602763Y-95879313D01*
X73319313Y-96162763D01*
X73096607Y-96496066D01*
X72943204Y-96866413D01*
X72865000Y-97259570D01*
X64233703Y-97259570D01*
X64185094Y-97099326D01*
X64075058Y-96893464D01*
X63926975Y-96713025D01*
X63746536Y-96564942D01*
X63540674Y-96454906D01*
X63317300Y-96387147D01*
X63143207Y-96370000D01*
X62626793Y-96370000D01*
X62452700Y-96387147D01*
X62229326Y-96454906D01*
X62023464Y-96564942D01*
X61843025Y-96713025D01*
X61694942Y-96893464D01*
X61584906Y-97099326D01*
X61517147Y-97322700D01*
X61494267Y-97555000D01*
X61334908Y-97555000D01*
X61351045Y-97501805D01*
X61376338Y-97245000D01*
X61351045Y-96988195D01*
X61276138Y-96741259D01*
X61154495Y-96513682D01*
X60990792Y-96314208D01*
X60791318Y-96150505D01*
X60563741Y-96028862D01*
X60316805Y-95953955D01*
X60124351Y-95935000D01*
X59645649Y-95935000D01*
X59453195Y-95953955D01*
X59206259Y-96028862D01*
X58978682Y-96150505D01*
X58827000Y-96274987D01*
X58827000Y-94058827D01*
X60417924Y-92710000D01*
X89807409Y-92710000D01*
X88236400Y-94281010D01*
X88236400Y-94281010D01*
G37*
X88236400Y-94281010D02*
X88149014Y-94209294D01*
X87891034Y-94071401D01*
X87611111Y-93986487D01*
X87392950Y-93965000D01*
X87247050Y-93965000D01*
X87028889Y-93986487D01*
X86748966Y-94071401D01*
X86490986Y-94209294D01*
X86264866Y-94394866D01*
X86079294Y-94620986D01*
X86050000Y-94675791D01*
X86020706Y-94620986D01*
X85835134Y-94394866D01*
X85609014Y-94209294D01*
X85351034Y-94071401D01*
X85071111Y-93986487D01*
X84852950Y-93965000D01*
X84707050Y-93965000D01*
X84488889Y-93986487D01*
X84208966Y-94071401D01*
X83950986Y-94209294D01*
X83724866Y-94394866D01*
X83539294Y-94620986D01*
X83510000Y-94675791D01*
X83480706Y-94620986D01*
X83295134Y-94394866D01*
X83069014Y-94209294D01*
X82811034Y-94071401D01*
X82531111Y-93986487D01*
X82312950Y-93965000D01*
X82167050Y-93965000D01*
X81948889Y-93986487D01*
X81668966Y-94071401D01*
X81410986Y-94209294D01*
X81184866Y-94394866D01*
X81160393Y-94424687D01*
X81139502Y-94355820D01*
X81080537Y-94245506D01*
X81001185Y-94148815D01*
X80904494Y-94069463D01*
X80794180Y-94010498D01*
X80674482Y-93974188D01*
X80550000Y-93961928D01*
X78850000Y-93961928D01*
X78725518Y-93974188D01*
X78605820Y-94010498D01*
X78495506Y-94069463D01*
X78398815Y-94148815D01*
X78319463Y-94245506D01*
X78260498Y-94355820D01*
X78224188Y-94475518D01*
X78211928Y-94600000D01*
X78211928Y-96300000D01*
X78224188Y-96424482D01*
X78260498Y-96544180D01*
X78319463Y-96654494D01*
X78398815Y-96751185D01*
X78495506Y-96830537D01*
X78605820Y-96889502D01*
X78725518Y-96925812D01*
X78850000Y-96938072D01*
X80550000Y-96938072D01*
X80674482Y-96925812D01*
X80794180Y-96889502D01*
X80904494Y-96830537D01*
X81001185Y-96751185D01*
X81080537Y-96654494D01*
X81139502Y-96544180D01*
X81160393Y-96475313D01*
X81184866Y-96505134D01*
X81410986Y-96690706D01*
X81668966Y-96828599D01*
X81948889Y-96913513D01*
X82167050Y-96935000D01*
X82312950Y-96935000D01*
X82531111Y-96913513D01*
X82811034Y-96828599D01*
X83069014Y-96690706D01*
X83295134Y-96505134D01*
X83480706Y-96279014D01*
X83510000Y-96224209D01*
X83539294Y-96279014D01*
X83724866Y-96505134D01*
X83950986Y-96690706D01*
X84208966Y-96828599D01*
X84488889Y-96913513D01*
X84707050Y-96935000D01*
X84852950Y-96935000D01*
X85071111Y-96913513D01*
X85351034Y-96828599D01*
X85609014Y-96690706D01*
X85835134Y-96505134D01*
X86020706Y-96279014D01*
X86050000Y-96224209D01*
X86079294Y-96279014D01*
X86264866Y-96505134D01*
X86490986Y-96690706D01*
X86586418Y-96741715D01*
X85618134Y-97710000D01*
X85499468Y-97710000D01*
X85401903Y-97669587D01*
X85235057Y-97636400D01*
X85064943Y-97636400D01*
X84898097Y-97669587D01*
X84740932Y-97734687D01*
X84599487Y-97829198D01*
X84479198Y-97949487D01*
X84384687Y-98090932D01*
X84319587Y-98248097D01*
X84286400Y-98414943D01*
X84286400Y-98585057D01*
X84319587Y-98751903D01*
X84384687Y-98909068D01*
X84479198Y-99050513D01*
X84599487Y-99170802D01*
X84740932Y-99265313D01*
X84898097Y-99330413D01*
X85064943Y-99363600D01*
X85235057Y-99363600D01*
X85401903Y-99330413D01*
X85499468Y-99290000D01*
X85906557Y-99290000D01*
X85945362Y-99293822D01*
X85984167Y-99290000D01*
X85984168Y-99290000D01*
X86100229Y-99278569D01*
X86249145Y-99233396D01*
X86386386Y-99160039D01*
X86506679Y-99061317D01*
X86531420Y-99031170D01*
X86597647Y-98964943D01*
X88636400Y-98964943D01*
X88636400Y-99135057D01*
X88669587Y-99301903D01*
X88734687Y-99459068D01*
X88829198Y-99600513D01*
X88949487Y-99720802D01*
X89090932Y-99815313D01*
X89248097Y-99880413D01*
X89414943Y-99913600D01*
X89585057Y-99913600D01*
X89751903Y-99880413D01*
X89909068Y-99815313D01*
X90050513Y-99720802D01*
X90170802Y-99600513D01*
X90194192Y-99565507D01*
X90249487Y-99620802D01*
X90390932Y-99715313D01*
X90548097Y-99780413D01*
X90714943Y-99813600D01*
X90885057Y-99813600D01*
X91051903Y-99780413D01*
X91209068Y-99715313D01*
X91350513Y-99620802D01*
X91470802Y-99500513D01*
X91496889Y-99461471D01*
X91512521Y-99499209D01*
X91492949Y-99546459D01*
X91459762Y-99713305D01*
X91459762Y-99883419D01*
X91492949Y-100050265D01*
X91558049Y-100207430D01*
X91585707Y-100248824D01*
X91544587Y-100348097D01*
X91511400Y-100514943D01*
X91511400Y-100685057D01*
X91544587Y-100851903D01*
X91609687Y-101009068D01*
X91704198Y-101150513D01*
X91824487Y-101270802D01*
X91965932Y-101365313D01*
X92123097Y-101430413D01*
X92289943Y-101463600D01*
X92460057Y-101463600D01*
X92626903Y-101430413D01*
X92784068Y-101365313D01*
X92925513Y-101270802D01*
X92931372Y-101264943D01*
X93786400Y-101264943D01*
X93786400Y-101435057D01*
X93819587Y-101601903D01*
X93884687Y-101759068D01*
X93979198Y-101900513D01*
X94099487Y-102020802D01*
X94240932Y-102115313D01*
X94398097Y-102180413D01*
X94564943Y-102213600D01*
X94735057Y-102213600D01*
X94901903Y-102180413D01*
X95059068Y-102115313D01*
X95200513Y-102020802D01*
X95320802Y-101900513D01*
X95415313Y-101759068D01*
X95480413Y-101601903D01*
X95512628Y-101439943D01*
X98411400Y-101439943D01*
X98411400Y-101610057D01*
X98444587Y-101776903D01*
X98509687Y-101934068D01*
X98604198Y-102075513D01*
X98724487Y-102195802D01*
X98865932Y-102290313D01*
X99023097Y-102355413D01*
X99189943Y-102388600D01*
X99360057Y-102388600D01*
X99526903Y-102355413D01*
X99684068Y-102290313D01*
X99809912Y-102206227D01*
X99899487Y-102295802D01*
X100040932Y-102390313D01*
X100198097Y-102455413D01*
X100364943Y-102488600D01*
X100535057Y-102488600D01*
X100701903Y-102455413D01*
X100859068Y-102390313D01*
X101000513Y-102295802D01*
X101120802Y-102175513D01*
X101215313Y-102034068D01*
X101280413Y-101876903D01*
X101313600Y-101710057D01*
X101313600Y-101539943D01*
X101308628Y-101514943D01*
X108386400Y-101514943D01*
X108386400Y-101685057D01*
X108419587Y-101851903D01*
X108484687Y-102009068D01*
X108579198Y-102150513D01*
X108699487Y-102270802D01*
X108840932Y-102365313D01*
X108998097Y-102430413D01*
X109164943Y-102463600D01*
X109335057Y-102463600D01*
X109501903Y-102430413D01*
X109659068Y-102365313D01*
X109800513Y-102270802D01*
X109920802Y-102150513D01*
X110015313Y-102009068D01*
X110033590Y-101964943D01*
X110186400Y-101964943D01*
X110186400Y-102135057D01*
X110219587Y-102301903D01*
X110284687Y-102459068D01*
X110379198Y-102600513D01*
X110499487Y-102720802D01*
X110640932Y-102815313D01*
X110798097Y-102880413D01*
X110964943Y-102913600D01*
X111135057Y-102913600D01*
X111301903Y-102880413D01*
X111459068Y-102815313D01*
X111600513Y-102720802D01*
X111720802Y-102600513D01*
X111815313Y-102459068D01*
X111880413Y-102301903D01*
X111913600Y-102135057D01*
X111913600Y-101964943D01*
X111880413Y-101798097D01*
X111815313Y-101640932D01*
X111720802Y-101499487D01*
X111600513Y-101379198D01*
X111459068Y-101284687D01*
X111301903Y-101219587D01*
X111135057Y-101186400D01*
X110964943Y-101186400D01*
X110798097Y-101219587D01*
X110640932Y-101284687D01*
X110499487Y-101379198D01*
X110379198Y-101499487D01*
X110284687Y-101640932D01*
X110219587Y-101798097D01*
X110186400Y-101964943D01*
X110033590Y-101964943D01*
X110080413Y-101851903D01*
X110113600Y-101685057D01*
X110113600Y-101514943D01*
X110080413Y-101348097D01*
X110015313Y-101190932D01*
X109920802Y-101049487D01*
X109800513Y-100929198D01*
X109659068Y-100834687D01*
X109501903Y-100769587D01*
X109335057Y-100736400D01*
X109164943Y-100736400D01*
X108998097Y-100769587D01*
X108840932Y-100834687D01*
X108699487Y-100929198D01*
X108579198Y-101049487D01*
X108484687Y-101190932D01*
X108419587Y-101348097D01*
X108386400Y-101514943D01*
X101308628Y-101514943D01*
X101280413Y-101373097D01*
X101215313Y-101215932D01*
X101120802Y-101074487D01*
X101000513Y-100954198D01*
X100859068Y-100859687D01*
X100701903Y-100794587D01*
X100535057Y-100761400D01*
X100364943Y-100761400D01*
X100198097Y-100794587D01*
X100040932Y-100859687D01*
X99915088Y-100943773D01*
X99825513Y-100854198D01*
X99684068Y-100759687D01*
X99526903Y-100694587D01*
X99360057Y-100661400D01*
X99189943Y-100661400D01*
X99023097Y-100694587D01*
X98865932Y-100759687D01*
X98724487Y-100854198D01*
X98604198Y-100974487D01*
X98509687Y-101115932D01*
X98444587Y-101273097D01*
X98411400Y-101439943D01*
X95512628Y-101439943D01*
X95513600Y-101435057D01*
X95513600Y-101264943D01*
X95480413Y-101098097D01*
X95415313Y-100940932D01*
X95320802Y-100799487D01*
X95200513Y-100679198D01*
X95059068Y-100584687D01*
X94901903Y-100519587D01*
X94735057Y-100486400D01*
X94564943Y-100486400D01*
X94398097Y-100519587D01*
X94240932Y-100584687D01*
X94099487Y-100679198D01*
X93979198Y-100799487D01*
X93884687Y-100940932D01*
X93819587Y-101098097D01*
X93786400Y-101264943D01*
X92931372Y-101264943D01*
X93045802Y-101150513D01*
X93140313Y-101009068D01*
X93205413Y-100851903D01*
X93238600Y-100685057D01*
X93238600Y-100514943D01*
X93205413Y-100348097D01*
X93140313Y-100190932D01*
X93112655Y-100149538D01*
X93153775Y-100050265D01*
X93186962Y-99883419D01*
X93186962Y-99713305D01*
X93153775Y-99546459D01*
X93135841Y-99503164D01*
X93155413Y-99455914D01*
X93188600Y-99289068D01*
X93188600Y-99118954D01*
X93155413Y-98952108D01*
X93129664Y-98889943D01*
X99861400Y-98889943D01*
X99861400Y-99060057D01*
X99894587Y-99226903D01*
X99959687Y-99384068D01*
X100054198Y-99525513D01*
X100174487Y-99645802D01*
X100315932Y-99740313D01*
X100473097Y-99805413D01*
X100639943Y-99838600D01*
X100810057Y-99838600D01*
X100976903Y-99805413D01*
X101134068Y-99740313D01*
X101209451Y-99689943D01*
X105411400Y-99689943D01*
X105411400Y-99860057D01*
X105444587Y-100026903D01*
X105509687Y-100184068D01*
X105604198Y-100325513D01*
X105724487Y-100445802D01*
X105865932Y-100540313D01*
X106023097Y-100605413D01*
X106189943Y-100638600D01*
X106360057Y-100638600D01*
X106526903Y-100605413D01*
X106684068Y-100540313D01*
X106825513Y-100445802D01*
X106945802Y-100325513D01*
X107040313Y-100184068D01*
X107105413Y-100026903D01*
X107138600Y-99860057D01*
X107138600Y-99689943D01*
X107105413Y-99523097D01*
X107040313Y-99365932D01*
X106945802Y-99224487D01*
X106825513Y-99104198D01*
X106684068Y-99009687D01*
X106526903Y-98944587D01*
X106360057Y-98911400D01*
X106189943Y-98911400D01*
X106023097Y-98944587D01*
X105865932Y-99009687D01*
X105724487Y-99104198D01*
X105604198Y-99224487D01*
X105509687Y-99365932D01*
X105444587Y-99523097D01*
X105411400Y-99689943D01*
X101209451Y-99689943D01*
X101275513Y-99645802D01*
X101395802Y-99525513D01*
X101490313Y-99384068D01*
X101555413Y-99226903D01*
X101588600Y-99060057D01*
X101588600Y-98889943D01*
X101555413Y-98723097D01*
X101490313Y-98565932D01*
X101395802Y-98424487D01*
X101275513Y-98304198D01*
X101134068Y-98209687D01*
X100976903Y-98144587D01*
X100810057Y-98111400D01*
X100639943Y-98111400D01*
X100473097Y-98144587D01*
X100315932Y-98209687D01*
X100174487Y-98304198D01*
X100054198Y-98424487D01*
X99959687Y-98565932D01*
X99894587Y-98723097D01*
X99861400Y-98889943D01*
X93129664Y-98889943D01*
X93090313Y-98794943D01*
X92995802Y-98653498D01*
X92875513Y-98533209D01*
X92734068Y-98438698D01*
X92576903Y-98373598D01*
X92410057Y-98340411D01*
X92239943Y-98340411D01*
X92073097Y-98373598D01*
X91915932Y-98438698D01*
X91774487Y-98533209D01*
X91654198Y-98653498D01*
X91628111Y-98692540D01*
X91565313Y-98540932D01*
X91470802Y-98399487D01*
X91350513Y-98279198D01*
X91209068Y-98184687D01*
X91051903Y-98119587D01*
X90885057Y-98086400D01*
X90714943Y-98086400D01*
X90548097Y-98119587D01*
X90390932Y-98184687D01*
X90249487Y-98279198D01*
X90129198Y-98399487D01*
X90105808Y-98434493D01*
X90050513Y-98379198D01*
X89909068Y-98284687D01*
X89751903Y-98219587D01*
X89585057Y-98186400D01*
X89414943Y-98186400D01*
X89248097Y-98219587D01*
X89090932Y-98284687D01*
X88949487Y-98379198D01*
X88829198Y-98499487D01*
X88734687Y-98640932D01*
X88669587Y-98798097D01*
X88636400Y-98964943D01*
X86597647Y-98964943D01*
X88943600Y-96618991D01*
X89030986Y-96690706D01*
X89288966Y-96828599D01*
X89568889Y-96913513D01*
X89787050Y-96935000D01*
X89932950Y-96935000D01*
X90151111Y-96913513D01*
X90431034Y-96828599D01*
X90689014Y-96690706D01*
X90915134Y-96505134D01*
X91100706Y-96279014D01*
X91238599Y-96021034D01*
X91323513Y-95741111D01*
X91350713Y-95464943D01*
X99461400Y-95464943D01*
X99461400Y-95635057D01*
X99494587Y-95801903D01*
X99559687Y-95959068D01*
X99654198Y-96100513D01*
X99774487Y-96220802D01*
X99915932Y-96315313D01*
X100073097Y-96380413D01*
X100239943Y-96413600D01*
X100410057Y-96413600D01*
X100576903Y-96380413D01*
X100734068Y-96315313D01*
X100875513Y-96220802D01*
X100995802Y-96100513D01*
X101090313Y-95959068D01*
X101155413Y-95801903D01*
X101188600Y-95635057D01*
X101188600Y-95464943D01*
X101155413Y-95298097D01*
X101090313Y-95140932D01*
X100995802Y-94999487D01*
X100875513Y-94879198D01*
X100734068Y-94784687D01*
X100576903Y-94719587D01*
X100410057Y-94686400D01*
X100239943Y-94686400D01*
X100073097Y-94719587D01*
X99915932Y-94784687D01*
X99774487Y-94879198D01*
X99654198Y-94999487D01*
X99559687Y-95140932D01*
X99494587Y-95298097D01*
X99461400Y-95464943D01*
X91350713Y-95464943D01*
X91352185Y-95450000D01*
X91323513Y-95158889D01*
X91238599Y-94878966D01*
X91100706Y-94620986D01*
X90993162Y-94489943D01*
X93336400Y-94489943D01*
X93336400Y-94660057D01*
X93369587Y-94826903D01*
X93434687Y-94984068D01*
X93529198Y-95125513D01*
X93649487Y-95245802D01*
X93790932Y-95340313D01*
X93948097Y-95405413D01*
X94114943Y-95438600D01*
X94285057Y-95438600D01*
X94451903Y-95405413D01*
X94609068Y-95340313D01*
X94750513Y-95245802D01*
X94870802Y-95125513D01*
X94965313Y-94984068D01*
X95030413Y-94826903D01*
X95063600Y-94660057D01*
X95063600Y-94489943D01*
X95030413Y-94323097D01*
X94965313Y-94165932D01*
X94870802Y-94024487D01*
X94750513Y-93904198D01*
X94609068Y-93809687D01*
X94451903Y-93744587D01*
X94285057Y-93711400D01*
X94114943Y-93711400D01*
X93948097Y-93744587D01*
X93790932Y-93809687D01*
X93649487Y-93904198D01*
X93529198Y-94024487D01*
X93434687Y-94165932D01*
X93369587Y-94323097D01*
X93336400Y-94489943D01*
X90993162Y-94489943D01*
X90915134Y-94394866D01*
X90689014Y-94209294D01*
X90593582Y-94158285D01*
X91561867Y-93190000D01*
X102947329Y-93190000D01*
X102969588Y-93301904D01*
X103034688Y-93459069D01*
X103129199Y-93600514D01*
X103249488Y-93720803D01*
X103390933Y-93815314D01*
X103548098Y-93880414D01*
X103714944Y-93913601D01*
X103885058Y-93913601D01*
X104051904Y-93880414D01*
X104209069Y-93815314D01*
X104350514Y-93720803D01*
X104470803Y-93600514D01*
X104565314Y-93459069D01*
X104630414Y-93301904D01*
X104652673Y-93190000D01*
X118873000Y-93190000D01*
X118873000Y-94332431D01*
X118860498Y-94355820D01*
X118839607Y-94424687D01*
X118815134Y-94394866D01*
X118589014Y-94209294D01*
X118331034Y-94071401D01*
X118051111Y-93986487D01*
X117832950Y-93965000D01*
X117687050Y-93965000D01*
X117468889Y-93986487D01*
X117188966Y-94071401D01*
X116930986Y-94209294D01*
X116704866Y-94394866D01*
X116519294Y-94620986D01*
X116490000Y-94675791D01*
X116460706Y-94620986D01*
X116275134Y-94394866D01*
X116049014Y-94209294D01*
X115791034Y-94071401D01*
X115511111Y-93986487D01*
X115292950Y-93965000D01*
X115147050Y-93965000D01*
X114928889Y-93986487D01*
X114648966Y-94071401D01*
X114390986Y-94209294D01*
X114164866Y-94394866D01*
X113979294Y-94620986D01*
X113950000Y-94675791D01*
X113920706Y-94620986D01*
X113735134Y-94394866D01*
X113509014Y-94209294D01*
X113251034Y-94071401D01*
X112971111Y-93986487D01*
X112752950Y-93965000D01*
X112607050Y-93965000D01*
X112388889Y-93986487D01*
X112108966Y-94071401D01*
X111850986Y-94209294D01*
X111624866Y-94394866D01*
X111439294Y-94620986D01*
X111410000Y-94675791D01*
X111380706Y-94620986D01*
X111195134Y-94394866D01*
X110969014Y-94209294D01*
X110711034Y-94071401D01*
X110431111Y-93986487D01*
X110212950Y-93965000D01*
X110067050Y-93965000D01*
X109848889Y-93986487D01*
X109568966Y-94071401D01*
X109310986Y-94209294D01*
X109084866Y-94394866D01*
X108899294Y-94620986D01*
X108761401Y-94878966D01*
X108676487Y-95158889D01*
X108647815Y-95450000D01*
X108676487Y-95741111D01*
X108761401Y-96021034D01*
X108899294Y-96279014D01*
X109084866Y-96505134D01*
X109310986Y-96690706D01*
X109568966Y-96828599D01*
X109848889Y-96913513D01*
X110067050Y-96935000D01*
X110212950Y-96935000D01*
X110431111Y-96913513D01*
X110711034Y-96828599D01*
X110969014Y-96690706D01*
X111195134Y-96505134D01*
X111380706Y-96279014D01*
X111410000Y-96224209D01*
X111439294Y-96279014D01*
X111624866Y-96505134D01*
X111850986Y-96690706D01*
X112108966Y-96828599D01*
X112388889Y-96913513D01*
X112607050Y-96935000D01*
X112752950Y-96935000D01*
X112971111Y-96913513D01*
X113251034Y-96828599D01*
X113509014Y-96690706D01*
X113735134Y-96505134D01*
X113920706Y-96279014D01*
X113950000Y-96224209D01*
X113979294Y-96279014D01*
X114164866Y-96505134D01*
X114390986Y-96690706D01*
X114648966Y-96828599D01*
X114928889Y-96913513D01*
X115147050Y-96935000D01*
X115292950Y-96935000D01*
X115511111Y-96913513D01*
X115791034Y-96828599D01*
X116049014Y-96690706D01*
X116275134Y-96505134D01*
X116460706Y-96279014D01*
X116490000Y-96224209D01*
X116519294Y-96279014D01*
X116704866Y-96505134D01*
X116930986Y-96690706D01*
X117188966Y-96828599D01*
X117468889Y-96913513D01*
X117687050Y-96935000D01*
X117832950Y-96935000D01*
X118051111Y-96913513D01*
X118331034Y-96828599D01*
X118589014Y-96690706D01*
X118815134Y-96505134D01*
X118839607Y-96475313D01*
X118860498Y-96544180D01*
X118873000Y-96567569D01*
X118873000Y-105254453D01*
X118856487Y-105308889D01*
X118827815Y-105600000D01*
X118856487Y-105891111D01*
X118873000Y-105945547D01*
X118873000Y-107290000D01*
X114986840Y-107290000D01*
X115191841Y-107085000D01*
X115312950Y-107085000D01*
X115531111Y-107063513D01*
X115811034Y-106978599D01*
X116069014Y-106840706D01*
X116295134Y-106655134D01*
X116480706Y-106429014D01*
X116618599Y-106171034D01*
X116703513Y-105891111D01*
X116732185Y-105600000D01*
X116703513Y-105308889D01*
X116618599Y-105028966D01*
X116480706Y-104770986D01*
X116295134Y-104544866D01*
X116069014Y-104359294D01*
X115811034Y-104221401D01*
X115531111Y-104136487D01*
X115312950Y-104115000D01*
X115167050Y-104115000D01*
X114948889Y-104136487D01*
X114668966Y-104221401D01*
X114410986Y-104359294D01*
X114184866Y-104544866D01*
X114160393Y-104574687D01*
X114139502Y-104505820D01*
X114080537Y-104395506D01*
X114001185Y-104298815D01*
X113904494Y-104219463D01*
X113794180Y-104160498D01*
X113674482Y-104124188D01*
X113550000Y-104111928D01*
X111850000Y-104111928D01*
X111725518Y-104124188D01*
X111605820Y-104160498D01*
X111495506Y-104219463D01*
X111398815Y-104298815D01*
X111319463Y-104395506D01*
X111260498Y-104505820D01*
X111224188Y-104625518D01*
X111211928Y-104750000D01*
X111211928Y-106217401D01*
X101143777Y-106217401D01*
X101145491Y-106200000D01*
X101123577Y-105977501D01*
X101058676Y-105763553D01*
X100953284Y-105566377D01*
X100952154Y-105565000D01*
X100953284Y-105563623D01*
X101058676Y-105366447D01*
X101123577Y-105152499D01*
X101145491Y-104930000D01*
X101123577Y-104707501D01*
X101058676Y-104493553D01*
X101029107Y-104438232D01*
X101178634Y-104438232D01*
X101345480Y-104405045D01*
X101502645Y-104339945D01*
X101644090Y-104245434D01*
X101764379Y-104125145D01*
X101858890Y-103983700D01*
X101918436Y-103839943D01*
X104461400Y-103839943D01*
X104461400Y-104010057D01*
X104494587Y-104176903D01*
X104559687Y-104334068D01*
X104654198Y-104475513D01*
X104774487Y-104595802D01*
X104915932Y-104690313D01*
X105073097Y-104755413D01*
X105239943Y-104788600D01*
X105410057Y-104788600D01*
X105576903Y-104755413D01*
X105734068Y-104690313D01*
X105875513Y-104595802D01*
X105995802Y-104475513D01*
X106090313Y-104334068D01*
X106155413Y-104176903D01*
X106188600Y-104010057D01*
X106188600Y-103839943D01*
X106155413Y-103673097D01*
X106090313Y-103515932D01*
X105995802Y-103374487D01*
X105875513Y-103254198D01*
X105734068Y-103159687D01*
X105576903Y-103094587D01*
X105410057Y-103061400D01*
X105239943Y-103061400D01*
X105073097Y-103094587D01*
X104915932Y-103159687D01*
X104774487Y-103254198D01*
X104654198Y-103374487D01*
X104559687Y-103515932D01*
X104494587Y-103673097D01*
X104461400Y-103839943D01*
X101918436Y-103839943D01*
X101923990Y-103826535D01*
X101957177Y-103659689D01*
X101957177Y-103489575D01*
X101923990Y-103322729D01*
X101858890Y-103165564D01*
X101764379Y-103024119D01*
X101644090Y-102903830D01*
X101502645Y-102809319D01*
X101345480Y-102744219D01*
X101178634Y-102711032D01*
X101008520Y-102711032D01*
X100841674Y-102744219D01*
X100684509Y-102809319D01*
X100543064Y-102903830D01*
X100422775Y-103024119D01*
X100328264Y-103165564D01*
X100263164Y-103322729D01*
X100229977Y-103489575D01*
X100229977Y-103659689D01*
X100262255Y-103821966D01*
X100227499Y-103811423D01*
X100060752Y-103795000D01*
X99949248Y-103795000D01*
X99782501Y-103811423D01*
X99568553Y-103876324D01*
X99371377Y-103981716D01*
X99370000Y-103982846D01*
X99368623Y-103981716D01*
X99171447Y-103876324D01*
X98957499Y-103811423D01*
X98790752Y-103795000D01*
X98679248Y-103795000D01*
X98512501Y-103811423D01*
X98298553Y-103876324D01*
X98101377Y-103981716D01*
X98100000Y-103982846D01*
X98098623Y-103981716D01*
X97901447Y-103876324D01*
X97687499Y-103811423D01*
X97520752Y-103795000D01*
X97409248Y-103795000D01*
X97242501Y-103811423D01*
X97028553Y-103876324D01*
X96831377Y-103981716D01*
X96830000Y-103982846D01*
X96828623Y-103981716D01*
X96631447Y-103876324D01*
X96417499Y-103811423D01*
X96250752Y-103795000D01*
X96139248Y-103795000D01*
X95972501Y-103811423D01*
X95758553Y-103876324D01*
X95561377Y-103981716D01*
X95560000Y-103982846D01*
X95558623Y-103981716D01*
X95361447Y-103876324D01*
X95147499Y-103811423D01*
X94980752Y-103795000D01*
X94869248Y-103795000D01*
X94702501Y-103811423D01*
X94488553Y-103876324D01*
X94291377Y-103981716D01*
X94118551Y-104123551D01*
X93976716Y-104296377D01*
X93871324Y-104493553D01*
X93806423Y-104707501D01*
X93784509Y-104930000D01*
X93806423Y-105152499D01*
X93871324Y-105366447D01*
X93976716Y-105563623D01*
X94118551Y-105736449D01*
X94291377Y-105878284D01*
X94488553Y-105983676D01*
X94702501Y-106048577D01*
X94869248Y-106065000D01*
X94980752Y-106065000D01*
X95068658Y-106056342D01*
X95054509Y-106200000D01*
X95056223Y-106217401D01*
X91213815Y-106217401D01*
X91238599Y-106171034D01*
X91323513Y-105891111D01*
X91352185Y-105600000D01*
X91323513Y-105308889D01*
X91238599Y-105028966D01*
X91100706Y-104770986D01*
X90915134Y-104544866D01*
X90689014Y-104359294D01*
X90431034Y-104221401D01*
X90151111Y-104136487D01*
X89932950Y-104115000D01*
X89787050Y-104115000D01*
X89568889Y-104136487D01*
X89288966Y-104221401D01*
X89030986Y-104359294D01*
X88804866Y-104544866D01*
X88619294Y-104770986D01*
X88590000Y-104825791D01*
X88560706Y-104770986D01*
X88375134Y-104544866D01*
X88149014Y-104359294D01*
X87891034Y-104221401D01*
X87611111Y-104136487D01*
X87392950Y-104115000D01*
X87247050Y-104115000D01*
X87028889Y-104136487D01*
X86748966Y-104221401D01*
X86490986Y-104359294D01*
X86264866Y-104544866D01*
X86079294Y-104770986D01*
X86050000Y-104825791D01*
X86020706Y-104770986D01*
X85835134Y-104544866D01*
X85609014Y-104359294D01*
X85351034Y-104221401D01*
X85071111Y-104136487D01*
X84852950Y-104115000D01*
X84707050Y-104115000D01*
X84488889Y-104136487D01*
X84208966Y-104221401D01*
X83950986Y-104359294D01*
X83724866Y-104544866D01*
X83539294Y-104770986D01*
X83510000Y-104825791D01*
X83480706Y-104770986D01*
X83295134Y-104544866D01*
X83069014Y-104359294D01*
X82811034Y-104221401D01*
X82531111Y-104136487D01*
X82312950Y-104115000D01*
X82167050Y-104115000D01*
X81948889Y-104136487D01*
X81668966Y-104221401D01*
X81410986Y-104359294D01*
X81184866Y-104544866D01*
X81160393Y-104574687D01*
X81139502Y-104505820D01*
X81080537Y-104395506D01*
X81001185Y-104298815D01*
X80904494Y-104219463D01*
X80794180Y-104160498D01*
X80674482Y-104124188D01*
X80550000Y-104111928D01*
X78850000Y-104111928D01*
X78725518Y-104124188D01*
X78605820Y-104160498D01*
X78495506Y-104219463D01*
X78398815Y-104298815D01*
X78319463Y-104395506D01*
X78260498Y-104505820D01*
X78224188Y-104625518D01*
X78211928Y-104750000D01*
X78211928Y-106217401D01*
X62492531Y-106217401D01*
X62396076Y-106226901D01*
X62138742Y-106226901D01*
X61533134Y-105621294D01*
X61417189Y-105526141D01*
X61240687Y-105431799D01*
X61049170Y-105373702D01*
X60850000Y-105354085D01*
X60650830Y-105373702D01*
X60459313Y-105431799D01*
X60282811Y-105526141D01*
X60128105Y-105653105D01*
X60001141Y-105807811D01*
X59906799Y-105984313D01*
X59848702Y-106175830D01*
X59829085Y-106375000D01*
X59848702Y-106574170D01*
X59873163Y-106654804D01*
X58827000Y-105933313D01*
X58827000Y-103675013D01*
X58978682Y-103799495D01*
X59206259Y-103921138D01*
X59453195Y-103996045D01*
X59645649Y-104015000D01*
X60124351Y-104015000D01*
X60316805Y-103996045D01*
X60563741Y-103921138D01*
X60791318Y-103799495D01*
X60990792Y-103635792D01*
X61154495Y-103436318D01*
X61276138Y-103208741D01*
X61351045Y-102961805D01*
X61376338Y-102705000D01*
X61351045Y-102448195D01*
X61334909Y-102395000D01*
X61494267Y-102395000D01*
X61517147Y-102627300D01*
X61584906Y-102850674D01*
X61694942Y-103056536D01*
X61843025Y-103236975D01*
X62023464Y-103385058D01*
X62229326Y-103495094D01*
X62452700Y-103562853D01*
X62626793Y-103580000D01*
X63143207Y-103580000D01*
X63317300Y-103562853D01*
X63540674Y-103495094D01*
X63746536Y-103385058D01*
X63926975Y-103236975D01*
X64075058Y-103056536D01*
X64185094Y-102850674D01*
X64252853Y-102627300D01*
X64275733Y-102395000D01*
X64270274Y-102339570D01*
X72865000Y-102339570D01*
X72865000Y-102740430D01*
X72943204Y-103133587D01*
X73096607Y-103503934D01*
X73319313Y-103837237D01*
X73602763Y-104120687D01*
X73936066Y-104343393D01*
X74306413Y-104496796D01*
X74699570Y-104575000D01*
X75100430Y-104575000D01*
X75493587Y-104496796D01*
X75863934Y-104343393D01*
X76197237Y-104120687D01*
X76480687Y-103837237D01*
X76703393Y-103503934D01*
X76856796Y-103133587D01*
X76935000Y-102740430D01*
X76935000Y-102339570D01*
X76856796Y-101946413D01*
X76703393Y-101576066D01*
X76670905Y-101527443D01*
X79498900Y-101527443D01*
X79498900Y-101697557D01*
X79532087Y-101864403D01*
X79597187Y-102021568D01*
X79691698Y-102163013D01*
X79811987Y-102283302D01*
X79953432Y-102377813D01*
X80110597Y-102442913D01*
X80277443Y-102476100D01*
X80447557Y-102476100D01*
X80614403Y-102442913D01*
X80771568Y-102377813D01*
X80913013Y-102283302D01*
X81033302Y-102163013D01*
X81127813Y-102021568D01*
X81192913Y-101864403D01*
X81212696Y-101764943D01*
X84886400Y-101764943D01*
X84886400Y-101935057D01*
X84919587Y-102101903D01*
X84984687Y-102259068D01*
X85079198Y-102400513D01*
X85199487Y-102520802D01*
X85340932Y-102615313D01*
X85498097Y-102680413D01*
X85664943Y-102713600D01*
X85835057Y-102713600D01*
X86001903Y-102680413D01*
X86159068Y-102615313D01*
X86300513Y-102520802D01*
X86420802Y-102400513D01*
X86515313Y-102259068D01*
X86580413Y-102101903D01*
X86613600Y-101935057D01*
X86613600Y-101764943D01*
X86580413Y-101598097D01*
X86515313Y-101440932D01*
X86420802Y-101299487D01*
X86300513Y-101179198D01*
X86159068Y-101084687D01*
X86001903Y-101019587D01*
X85835057Y-100986400D01*
X85664943Y-100986400D01*
X85498097Y-101019587D01*
X85340932Y-101084687D01*
X85199487Y-101179198D01*
X85079198Y-101299487D01*
X84984687Y-101440932D01*
X84919587Y-101598097D01*
X84886400Y-101764943D01*
X81212696Y-101764943D01*
X81226100Y-101697557D01*
X81226100Y-101527443D01*
X81192913Y-101360597D01*
X81127813Y-101203432D01*
X81033302Y-101061987D01*
X80913013Y-100941698D01*
X80771568Y-100847187D01*
X80614403Y-100782087D01*
X80447557Y-100748900D01*
X80277443Y-100748900D01*
X80110597Y-100782087D01*
X79953432Y-100847187D01*
X79811987Y-100941698D01*
X79691698Y-101061987D01*
X79597187Y-101203432D01*
X79532087Y-101360597D01*
X79498900Y-101527443D01*
X76670905Y-101527443D01*
X76480687Y-101242763D01*
X76197237Y-100959313D01*
X75863934Y-100736607D01*
X75493587Y-100583204D01*
X75100430Y-100505000D01*
X74699570Y-100505000D01*
X74306413Y-100583204D01*
X73936066Y-100736607D01*
X73602763Y-100959313D01*
X73319313Y-101242763D01*
X73096607Y-101576066D01*
X72943204Y-101946413D01*
X72865000Y-102339570D01*
X64270274Y-102339570D01*
X64252853Y-102162700D01*
X64185094Y-101939326D01*
X64075058Y-101733464D01*
X63926975Y-101553025D01*
X63746536Y-101404942D01*
X63540674Y-101294906D01*
X63317300Y-101227147D01*
X63143207Y-101210000D01*
X62626793Y-101210000D01*
X62452700Y-101227147D01*
X62229326Y-101294906D01*
X62023464Y-101404942D01*
X61843025Y-101553025D01*
X61694942Y-101733464D01*
X61584906Y-101939326D01*
X61517147Y-102162700D01*
X61494267Y-102395000D01*
X61334909Y-102395000D01*
X61276138Y-102201259D01*
X61154495Y-101973682D01*
X60990792Y-101774208D01*
X60791318Y-101610505D01*
X60563741Y-101488862D01*
X60316805Y-101413955D01*
X60124351Y-101395000D01*
X59645649Y-101395000D01*
X59453195Y-101413955D01*
X59206259Y-101488862D01*
X58978682Y-101610505D01*
X58827000Y-101734987D01*
X58827000Y-99489943D01*
X63186400Y-99489943D01*
X63186400Y-99660057D01*
X63219587Y-99826903D01*
X63249865Y-99900000D01*
X63219587Y-99973097D01*
X63186400Y-100139943D01*
X63186400Y-100310057D01*
X63219587Y-100476903D01*
X63284687Y-100634068D01*
X63379198Y-100775513D01*
X63499487Y-100895802D01*
X63640932Y-100990313D01*
X63798097Y-101055413D01*
X63964943Y-101088600D01*
X64135057Y-101088600D01*
X64301903Y-101055413D01*
X64459068Y-100990313D01*
X64600513Y-100895802D01*
X64720802Y-100775513D01*
X64815313Y-100634068D01*
X64880413Y-100476903D01*
X64913600Y-100310057D01*
X64913600Y-100139943D01*
X64880413Y-99973097D01*
X64850135Y-99900000D01*
X64880413Y-99826903D01*
X64885849Y-99799570D01*
X65245000Y-99799570D01*
X65245000Y-100200430D01*
X65323204Y-100593587D01*
X65476607Y-100963934D01*
X65699313Y-101297237D01*
X65982763Y-101580687D01*
X66316066Y-101803393D01*
X66686413Y-101956796D01*
X67079570Y-102035000D01*
X67480430Y-102035000D01*
X67873587Y-101956796D01*
X68243934Y-101803393D01*
X68577237Y-101580687D01*
X68860687Y-101297237D01*
X69083393Y-100963934D01*
X69236796Y-100593587D01*
X69315000Y-100200430D01*
X69315000Y-99799570D01*
X69236796Y-99406413D01*
X69083393Y-99036066D01*
X68860687Y-98702763D01*
X68577237Y-98419313D01*
X68243934Y-98196607D01*
X67873587Y-98043204D01*
X67480430Y-97965000D01*
X67079570Y-97965000D01*
X66686413Y-98043204D01*
X66316066Y-98196607D01*
X65982763Y-98419313D01*
X65699313Y-98702763D01*
X65476607Y-99036066D01*
X65323204Y-99406413D01*
X65245000Y-99799570D01*
X64885849Y-99799570D01*
X64913600Y-99660057D01*
X64913600Y-99489943D01*
X64880413Y-99323097D01*
X64815313Y-99165932D01*
X64720802Y-99024487D01*
X64600513Y-98904198D01*
X64459068Y-98809687D01*
X64301903Y-98744587D01*
X64135057Y-98711400D01*
X63964943Y-98711400D01*
X63798097Y-98744587D01*
X63640932Y-98809687D01*
X63499487Y-98904198D01*
X63379198Y-99024487D01*
X63284687Y-99165932D01*
X63219587Y-99323097D01*
X63186400Y-99489943D01*
X58827000Y-99489943D01*
X58827000Y-98215013D01*
X58978682Y-98339495D01*
X59206259Y-98461138D01*
X59453195Y-98536045D01*
X59645649Y-98555000D01*
X60124351Y-98555000D01*
X60316805Y-98536045D01*
X60563741Y-98461138D01*
X60791318Y-98339495D01*
X60990792Y-98175792D01*
X61154495Y-97976318D01*
X61276138Y-97748741D01*
X61334908Y-97555000D01*
X61494267Y-97555000D01*
X61517147Y-97787300D01*
X61584906Y-98010674D01*
X61694942Y-98216536D01*
X61843025Y-98396975D01*
X62023464Y-98545058D01*
X62229326Y-98655094D01*
X62452700Y-98722853D01*
X62626793Y-98740000D01*
X63143207Y-98740000D01*
X63317300Y-98722853D01*
X63540674Y-98655094D01*
X63746536Y-98545058D01*
X63926975Y-98396975D01*
X64075058Y-98216536D01*
X64185094Y-98010674D01*
X64252853Y-97787300D01*
X64275733Y-97555000D01*
X64252853Y-97322700D01*
X64233703Y-97259570D01*
X72865000Y-97259570D01*
X72865000Y-97660430D01*
X72943204Y-98053587D01*
X73096607Y-98423934D01*
X73319313Y-98757237D01*
X73602763Y-99040687D01*
X73936066Y-99263393D01*
X74306413Y-99416796D01*
X74699570Y-99495000D01*
X75100430Y-99495000D01*
X75493587Y-99416796D01*
X75863934Y-99263393D01*
X76197237Y-99040687D01*
X76480687Y-98757237D01*
X76703393Y-98423934D01*
X76856796Y-98053587D01*
X76935000Y-97660430D01*
X76935000Y-97259570D01*
X76856796Y-96866413D01*
X76703393Y-96496066D01*
X76480687Y-96162763D01*
X76197237Y-95879313D01*
X75863934Y-95656607D01*
X75493587Y-95503204D01*
X75100430Y-95425000D01*
X74699570Y-95425000D01*
X74306413Y-95503204D01*
X73936066Y-95656607D01*
X73602763Y-95879313D01*
X73319313Y-96162763D01*
X73096607Y-96496066D01*
X72943204Y-96866413D01*
X72865000Y-97259570D01*
X64233703Y-97259570D01*
X64185094Y-97099326D01*
X64075058Y-96893464D01*
X63926975Y-96713025D01*
X63746536Y-96564942D01*
X63540674Y-96454906D01*
X63317300Y-96387147D01*
X63143207Y-96370000D01*
X62626793Y-96370000D01*
X62452700Y-96387147D01*
X62229326Y-96454906D01*
X62023464Y-96564942D01*
X61843025Y-96713025D01*
X61694942Y-96893464D01*
X61584906Y-97099326D01*
X61517147Y-97322700D01*
X61494267Y-97555000D01*
X61334908Y-97555000D01*
X61351045Y-97501805D01*
X61376338Y-97245000D01*
X61351045Y-96988195D01*
X61276138Y-96741259D01*
X61154495Y-96513682D01*
X60990792Y-96314208D01*
X60791318Y-96150505D01*
X60563741Y-96028862D01*
X60316805Y-95953955D01*
X60124351Y-95935000D01*
X59645649Y-95935000D01*
X59453195Y-95953955D01*
X59206259Y-96028862D01*
X58978682Y-96150505D01*
X58827000Y-96274987D01*
X58827000Y-94058827D01*
X60417924Y-92710000D01*
X89807409Y-92710000D01*
X88236400Y-94281010D01*
M02*
