M48
; DRILL file {KiCad (5.1.4-0-10_14)} date Tuesday, September 17, 2019 at 09:12:10 AM
; FORMAT={-:-/ absolute / metric / decimal}
; #@! TF.CreationDate,2019-09-17T09:12:10-07:00
; #@! TF.GenerationSoftware,Kicad,Pcbnew,(5.1.4-0-10_14)
FMAT,2
METRIC
T1C0.254
T2C0.330
T3C0.650
T4C0.700
T5C1.000
T6C1.200
T7C1.830
%
G90
G05
T1
X60.85Y-106.375
X64.05Y-99.575
X64.05Y-100.225
X80.362Y-101.612
X85.15Y-98.5
X85.75Y-101.85
X88.65Y-100.2
X89.5Y-99.05
X90.8Y-98.95
X92.323Y-99.798
X92.325Y-99.204
X92.375Y-100.6
X93.05Y-94.975
X94.2Y-94.575
X94.65Y-101.35
X99.275Y-101.525
X100.325Y-95.55
X100.45Y-101.625
X100.725Y-98.975
X101.094Y-103.575
X101.825Y-103.287
X103.8Y-93.05
X105.325Y-103.925
X106.275Y-99.775
X106.625Y-93.575
X109.25Y-101.6
X110.2Y-93.6
X111.05Y-102.05
X113.8Y-93.6
X119.0Y-93.65
X121.35Y-100.55
X126.05Y-105.75
X127.55Y-105.625
X128.9Y-92.5
X134.15Y-105.8
X150.9Y-94.65
T2
X127.35Y-94.75
X135.275Y-93.053
T3
X94.925Y-104.93
X94.925Y-106.2
X96.195Y-104.93
X96.195Y-106.2
X97.465Y-104.93
X97.465Y-106.2
X98.735Y-104.93
X98.735Y-106.2
X100.005Y-104.93
X100.005Y-106.2
T5
X79.7Y-105.6
X82.24Y-105.6
X84.78Y-105.6
X87.32Y-105.6
X89.86Y-105.6
X110.14Y-95.45
X112.68Y-95.45
X115.22Y-95.45
X117.76Y-95.45
X120.3Y-95.45
X79.7Y-95.45
X82.24Y-95.45
X84.78Y-95.45
X87.32Y-95.45
X89.86Y-95.45
X112.7Y-105.6
X115.24Y-105.6
X117.78Y-105.6
X120.32Y-105.6
T6
X138.1Y-97.35
X138.1Y-102.65
T7
X67.28Y-100.0
X74.9Y-97.46
X74.9Y-102.54
X125.1Y-97.46
X125.1Y-102.54
X132.72Y-100.0
T3
G00X62.685Y-97.555
M15
G01X63.085Y-97.555
M16
G05
G00X62.685Y-102.395
M15
G01X63.085Y-102.395
M16
G05
T4
G00X59.635Y-97.245
M15
G01X60.135Y-97.245
M16
G05
G00X59.635Y-102.705
M15
G01X60.135Y-102.705
M16
G05
T0
M30
