G04 #@! TF.GenerationSoftware,KiCad,Pcbnew,(5.1.8-0-10_14)*
G04 #@! TF.CreationDate,2020-12-21T23:46:11-08:00*
G04 #@! TF.ProjectId,Compact,436f6d70-6163-4742-9e6b-696361645f70,rev?*
G04 #@! TF.SameCoordinates,Original*
G04 #@! TF.FileFunction,Copper,L2,Bot*
G04 #@! TF.FilePolarity,Positive*
%FSLAX46Y46*%
G04 Gerber Fmt 4.6, Leading zero omitted, Abs format (unit mm)*
G04 Created by KiCad (PCBNEW (5.1.8-0-10_14)) date 2020-12-21 23:46:11*
%MOMM*%
%LPD*%
G01*
G04 APERTURE LIST*
G04 #@! TA.AperFunction,EtchedComponent*
%ADD10C,0.100000*%
G04 #@! TD*
G04 #@! TA.AperFunction,ComponentPad*
%ADD11O,1.750000X1.200000*%
G04 #@! TD*
G04 #@! TA.AperFunction,SMDPad,CuDef*
%ADD12R,2.500000X2.800000*%
G04 #@! TD*
G04 #@! TA.AperFunction,SMDPad,CuDef*
%ADD13C,0.100000*%
G04 #@! TD*
G04 #@! TA.AperFunction,SMDPad,CuDef*
%ADD14R,2.180000X1.600000*%
G04 #@! TD*
G04 #@! TA.AperFunction,ComponentPad*
%ADD15C,1.500000*%
G04 #@! TD*
G04 #@! TA.AperFunction,ComponentPad*
%ADD16R,1.700000X1.700000*%
G04 #@! TD*
G04 #@! TA.AperFunction,ComponentPad*
%ADD17O,1.700000X1.700000*%
G04 #@! TD*
G04 #@! TA.AperFunction,ComponentPad*
%ADD18O,1.700000X1.350000*%
G04 #@! TD*
G04 #@! TA.AperFunction,ComponentPad*
%ADD19O,1.500000X1.100000*%
G04 #@! TD*
G04 #@! TA.AperFunction,ViaPad*
%ADD20C,0.508000*%
G04 #@! TD*
G04 #@! TA.AperFunction,Conductor*
%ADD21C,0.152400*%
G04 #@! TD*
G04 #@! TA.AperFunction,Conductor*
%ADD22C,0.254000*%
G04 #@! TD*
G04 #@! TA.AperFunction,Conductor*
%ADD23C,0.310000*%
G04 #@! TD*
G04 #@! TA.AperFunction,Conductor*
%ADD24C,0.152000*%
G04 #@! TD*
G04 #@! TA.AperFunction,Conductor*
%ADD25C,0.100000*%
G04 #@! TD*
G04 APERTURE END LIST*
D10*
G36*
X133575000Y-95700000D02*
G01*
X133575000Y-96200000D01*
X132975000Y-96200000D01*
X132975000Y-95700000D01*
X133575000Y-95700000D01*
G37*
D11*
X159900000Y-96850000D03*
G04 #@! TA.AperFunction,ComponentPad*
G36*
G01*
X160525001Y-99450000D02*
X159274999Y-99450000D01*
G75*
G02*
X159025000Y-99200001I0J249999D01*
G01*
X159025000Y-98499999D01*
G75*
G02*
X159274999Y-98250000I249999J0D01*
G01*
X160525001Y-98250000D01*
G75*
G02*
X160775000Y-98499999I0J-249999D01*
G01*
X160775000Y-99200001D01*
G75*
G02*
X160525001Y-99450000I-249999J0D01*
G01*
G37*
G04 #@! TD.AperFunction*
G04 #@! TA.AperFunction,SMDPad,CuDef*
G36*
G01*
X164325000Y-101905000D02*
X164325000Y-102455000D01*
G75*
G02*
X164125000Y-102655000I-200000J0D01*
G01*
X163725000Y-102655000D01*
G75*
G02*
X163525000Y-102455000I0J200000D01*
G01*
X163525000Y-101905000D01*
G75*
G02*
X163725000Y-101705000I200000J0D01*
G01*
X164125000Y-101705000D01*
G75*
G02*
X164325000Y-101905000I0J-200000D01*
G01*
G37*
G04 #@! TD.AperFunction*
G04 #@! TA.AperFunction,SMDPad,CuDef*
G36*
G01*
X162675000Y-101905000D02*
X162675000Y-102455000D01*
G75*
G02*
X162475000Y-102655000I-200000J0D01*
G01*
X162075000Y-102655000D01*
G75*
G02*
X161875000Y-102455000I0J200000D01*
G01*
X161875000Y-101905000D01*
G75*
G02*
X162075000Y-101705000I200000J0D01*
G01*
X162475000Y-101705000D01*
G75*
G02*
X162675000Y-101905000I0J-200000D01*
G01*
G37*
G04 #@! TD.AperFunction*
G04 #@! TA.AperFunction,SMDPad,CuDef*
G36*
G01*
X164335000Y-103365000D02*
X164335000Y-103915000D01*
G75*
G02*
X164135000Y-104115000I-200000J0D01*
G01*
X163735000Y-104115000D01*
G75*
G02*
X163535000Y-103915000I0J200000D01*
G01*
X163535000Y-103365000D01*
G75*
G02*
X163735000Y-103165000I200000J0D01*
G01*
X164135000Y-103165000D01*
G75*
G02*
X164335000Y-103365000I0J-200000D01*
G01*
G37*
G04 #@! TD.AperFunction*
G04 #@! TA.AperFunction,SMDPad,CuDef*
G36*
G01*
X162685000Y-103365000D02*
X162685000Y-103915000D01*
G75*
G02*
X162485000Y-104115000I-200000J0D01*
G01*
X162085000Y-104115000D01*
G75*
G02*
X161885000Y-103915000I0J200000D01*
G01*
X161885000Y-103365000D01*
G75*
G02*
X162085000Y-103165000I200000J0D01*
G01*
X162485000Y-103165000D01*
G75*
G02*
X162685000Y-103365000I0J-200000D01*
G01*
G37*
G04 #@! TD.AperFunction*
G04 #@! TA.AperFunction,SMDPad,CuDef*
G36*
G01*
X164345000Y-93035000D02*
X164345000Y-93585000D01*
G75*
G02*
X164145000Y-93785000I-200000J0D01*
G01*
X163745000Y-93785000D01*
G75*
G02*
X163545000Y-93585000I0J200000D01*
G01*
X163545000Y-93035000D01*
G75*
G02*
X163745000Y-92835000I200000J0D01*
G01*
X164145000Y-92835000D01*
G75*
G02*
X164345000Y-93035000I0J-200000D01*
G01*
G37*
G04 #@! TD.AperFunction*
G04 #@! TA.AperFunction,SMDPad,CuDef*
G36*
G01*
X162695000Y-93035000D02*
X162695000Y-93585000D01*
G75*
G02*
X162495000Y-93785000I-200000J0D01*
G01*
X162095000Y-93785000D01*
G75*
G02*
X161895000Y-93585000I0J200000D01*
G01*
X161895000Y-93035000D01*
G75*
G02*
X162095000Y-92835000I200000J0D01*
G01*
X162495000Y-92835000D01*
G75*
G02*
X162695000Y-93035000I0J-200000D01*
G01*
G37*
G04 #@! TD.AperFunction*
G04 #@! TA.AperFunction,SMDPad,CuDef*
G36*
G01*
X164335000Y-94505000D02*
X164335000Y-95055000D01*
G75*
G02*
X164135000Y-95255000I-200000J0D01*
G01*
X163735000Y-95255000D01*
G75*
G02*
X163535000Y-95055000I0J200000D01*
G01*
X163535000Y-94505000D01*
G75*
G02*
X163735000Y-94305000I200000J0D01*
G01*
X164135000Y-94305000D01*
G75*
G02*
X164335000Y-94505000I0J-200000D01*
G01*
G37*
G04 #@! TD.AperFunction*
G04 #@! TA.AperFunction,SMDPad,CuDef*
G36*
G01*
X162685000Y-94505000D02*
X162685000Y-95055000D01*
G75*
G02*
X162485000Y-95255000I-200000J0D01*
G01*
X162085000Y-95255000D01*
G75*
G02*
X161885000Y-95055000I0J200000D01*
G01*
X161885000Y-94505000D01*
G75*
G02*
X162085000Y-94305000I200000J0D01*
G01*
X162485000Y-94305000D01*
G75*
G02*
X162685000Y-94505000I0J-200000D01*
G01*
G37*
G04 #@! TD.AperFunction*
G04 #@! TA.AperFunction,SMDPad,CuDef*
G36*
G01*
X164315000Y-100463750D02*
X164315000Y-100976250D01*
G75*
G02*
X164096250Y-101195000I-218750J0D01*
G01*
X163658750Y-101195000D01*
G75*
G02*
X163440000Y-100976250I0J218750D01*
G01*
X163440000Y-100463750D01*
G75*
G02*
X163658750Y-100245000I218750J0D01*
G01*
X164096250Y-100245000D01*
G75*
G02*
X164315000Y-100463750I0J-218750D01*
G01*
G37*
G04 #@! TD.AperFunction*
G04 #@! TA.AperFunction,SMDPad,CuDef*
G36*
G01*
X162740000Y-100463750D02*
X162740000Y-100976250D01*
G75*
G02*
X162521250Y-101195000I-218750J0D01*
G01*
X162083750Y-101195000D01*
G75*
G02*
X161865000Y-100976250I0J218750D01*
G01*
X161865000Y-100463750D01*
G75*
G02*
X162083750Y-100245000I218750J0D01*
G01*
X162521250Y-100245000D01*
G75*
G02*
X162740000Y-100463750I0J-218750D01*
G01*
G37*
G04 #@! TD.AperFunction*
G04 #@! TA.AperFunction,SMDPad,CuDef*
G36*
G01*
X164335000Y-98983750D02*
X164335000Y-99496250D01*
G75*
G02*
X164116250Y-99715000I-218750J0D01*
G01*
X163678750Y-99715000D01*
G75*
G02*
X163460000Y-99496250I0J218750D01*
G01*
X163460000Y-98983750D01*
G75*
G02*
X163678750Y-98765000I218750J0D01*
G01*
X164116250Y-98765000D01*
G75*
G02*
X164335000Y-98983750I0J-218750D01*
G01*
G37*
G04 #@! TD.AperFunction*
G04 #@! TA.AperFunction,SMDPad,CuDef*
G36*
G01*
X162760000Y-98983750D02*
X162760000Y-99496250D01*
G75*
G02*
X162541250Y-99715000I-218750J0D01*
G01*
X162103750Y-99715000D01*
G75*
G02*
X161885000Y-99496250I0J218750D01*
G01*
X161885000Y-98983750D01*
G75*
G02*
X162103750Y-98765000I218750J0D01*
G01*
X162541250Y-98765000D01*
G75*
G02*
X162760000Y-98983750I0J-218750D01*
G01*
G37*
G04 #@! TD.AperFunction*
G04 #@! TA.AperFunction,SMDPad,CuDef*
G36*
G01*
X164335000Y-97523750D02*
X164335000Y-98036250D01*
G75*
G02*
X164116250Y-98255000I-218750J0D01*
G01*
X163678750Y-98255000D01*
G75*
G02*
X163460000Y-98036250I0J218750D01*
G01*
X163460000Y-97523750D01*
G75*
G02*
X163678750Y-97305000I218750J0D01*
G01*
X164116250Y-97305000D01*
G75*
G02*
X164335000Y-97523750I0J-218750D01*
G01*
G37*
G04 #@! TD.AperFunction*
G04 #@! TA.AperFunction,SMDPad,CuDef*
G36*
G01*
X162760000Y-97523750D02*
X162760000Y-98036250D01*
G75*
G02*
X162541250Y-98255000I-218750J0D01*
G01*
X162103750Y-98255000D01*
G75*
G02*
X161885000Y-98036250I0J218750D01*
G01*
X161885000Y-97523750D01*
G75*
G02*
X162103750Y-97305000I218750J0D01*
G01*
X162541250Y-97305000D01*
G75*
G02*
X162760000Y-97523750I0J-218750D01*
G01*
G37*
G04 #@! TD.AperFunction*
G04 #@! TA.AperFunction,SMDPad,CuDef*
G36*
G01*
X164325000Y-96023750D02*
X164325000Y-96536250D01*
G75*
G02*
X164106250Y-96755000I-218750J0D01*
G01*
X163668750Y-96755000D01*
G75*
G02*
X163450000Y-96536250I0J218750D01*
G01*
X163450000Y-96023750D01*
G75*
G02*
X163668750Y-95805000I218750J0D01*
G01*
X164106250Y-95805000D01*
G75*
G02*
X164325000Y-96023750I0J-218750D01*
G01*
G37*
G04 #@! TD.AperFunction*
G04 #@! TA.AperFunction,SMDPad,CuDef*
G36*
G01*
X162750000Y-96023750D02*
X162750000Y-96536250D01*
G75*
G02*
X162531250Y-96755000I-218750J0D01*
G01*
X162093750Y-96755000D01*
G75*
G02*
X161875000Y-96536250I0J218750D01*
G01*
X161875000Y-96023750D01*
G75*
G02*
X162093750Y-95805000I218750J0D01*
G01*
X162531250Y-95805000D01*
G75*
G02*
X162750000Y-96023750I0J-218750D01*
G01*
G37*
G04 #@! TD.AperFunction*
D12*
X136300000Y-97050000D03*
X152700000Y-97050000D03*
G04 #@! TA.AperFunction,SMDPad,CuDef*
D13*
G36*
X134025000Y-96100000D02*
G01*
X134025000Y-96600000D01*
X134024398Y-96600000D01*
X134024398Y-96624534D01*
X134019588Y-96673365D01*
X134010016Y-96721490D01*
X133995772Y-96768445D01*
X133976995Y-96813778D01*
X133953864Y-96857051D01*
X133926604Y-96897850D01*
X133895476Y-96935779D01*
X133860779Y-96970476D01*
X133822850Y-97001604D01*
X133782051Y-97028864D01*
X133738778Y-97051995D01*
X133693445Y-97070772D01*
X133646490Y-97085016D01*
X133598365Y-97094588D01*
X133549534Y-97099398D01*
X133525000Y-97099398D01*
X133525000Y-97100000D01*
X133025000Y-97100000D01*
X133025000Y-97099398D01*
X133000466Y-97099398D01*
X132951635Y-97094588D01*
X132903510Y-97085016D01*
X132856555Y-97070772D01*
X132811222Y-97051995D01*
X132767949Y-97028864D01*
X132727150Y-97001604D01*
X132689221Y-96970476D01*
X132654524Y-96935779D01*
X132623396Y-96897850D01*
X132596136Y-96857051D01*
X132573005Y-96813778D01*
X132554228Y-96768445D01*
X132539984Y-96721490D01*
X132530412Y-96673365D01*
X132525602Y-96624534D01*
X132525602Y-96600000D01*
X132525000Y-96600000D01*
X132525000Y-96100000D01*
X134025000Y-96100000D01*
G37*
G04 #@! TD.AperFunction*
G04 #@! TA.AperFunction,SMDPad,CuDef*
G36*
X132525602Y-95300000D02*
G01*
X132525602Y-95275466D01*
X132530412Y-95226635D01*
X132539984Y-95178510D01*
X132554228Y-95131555D01*
X132573005Y-95086222D01*
X132596136Y-95042949D01*
X132623396Y-95002150D01*
X132654524Y-94964221D01*
X132689221Y-94929524D01*
X132727150Y-94898396D01*
X132767949Y-94871136D01*
X132811222Y-94848005D01*
X132856555Y-94829228D01*
X132903510Y-94814984D01*
X132951635Y-94805412D01*
X133000466Y-94800602D01*
X133025000Y-94800602D01*
X133025000Y-94800000D01*
X133525000Y-94800000D01*
X133525000Y-94800602D01*
X133549534Y-94800602D01*
X133598365Y-94805412D01*
X133646490Y-94814984D01*
X133693445Y-94829228D01*
X133738778Y-94848005D01*
X133782051Y-94871136D01*
X133822850Y-94898396D01*
X133860779Y-94929524D01*
X133895476Y-94964221D01*
X133926604Y-95002150D01*
X133953864Y-95042949D01*
X133976995Y-95086222D01*
X133995772Y-95131555D01*
X134010016Y-95178510D01*
X134019588Y-95226635D01*
X134024398Y-95275466D01*
X134024398Y-95300000D01*
X134025000Y-95300000D01*
X134025000Y-95800000D01*
X132525000Y-95800000D01*
X132525000Y-95300000D01*
X132525602Y-95300000D01*
G37*
G04 #@! TD.AperFunction*
D14*
X139710000Y-103260000D03*
X148890000Y-103260000D03*
D15*
X126725000Y-107100000D03*
X164595000Y-107055000D03*
X126700000Y-91200000D03*
X164580000Y-90940000D03*
D16*
X160840000Y-106700000D03*
D17*
X158300000Y-106700000D03*
X155760000Y-106700000D03*
X153220000Y-106700000D03*
X150680000Y-106700000D03*
X148140000Y-106700000D03*
X145600000Y-106700000D03*
X143060000Y-106700000D03*
X140520000Y-106700000D03*
X137980000Y-106700000D03*
X135440000Y-106700000D03*
X132900000Y-106700000D03*
X148130000Y-91460000D03*
X150670000Y-91460000D03*
X153210000Y-91460000D03*
X155750000Y-91460000D03*
D16*
X158290000Y-91460000D03*
G04 #@! TA.AperFunction,SMDPad,CuDef*
G36*
G01*
X136510000Y-103818750D02*
X136510000Y-104331250D01*
G75*
G02*
X136291250Y-104550000I-218750J0D01*
G01*
X135853750Y-104550000D01*
G75*
G02*
X135635000Y-104331250I0J218750D01*
G01*
X135635000Y-103818750D01*
G75*
G02*
X135853750Y-103600000I218750J0D01*
G01*
X136291250Y-103600000D01*
G75*
G02*
X136510000Y-103818750I0J-218750D01*
G01*
G37*
G04 #@! TD.AperFunction*
G04 #@! TA.AperFunction,SMDPad,CuDef*
G36*
G01*
X138085000Y-103818750D02*
X138085000Y-104331250D01*
G75*
G02*
X137866250Y-104550000I-218750J0D01*
G01*
X137428750Y-104550000D01*
G75*
G02*
X137210000Y-104331250I0J218750D01*
G01*
X137210000Y-103818750D01*
G75*
G02*
X137428750Y-103600000I218750J0D01*
G01*
X137866250Y-103600000D01*
G75*
G02*
X138085000Y-103818750I0J-218750D01*
G01*
G37*
G04 #@! TD.AperFunction*
G04 #@! TA.AperFunction,SMDPad,CuDef*
G36*
G01*
X136406250Y-101500000D02*
X135893750Y-101500000D01*
G75*
G02*
X135675000Y-101281250I0J218750D01*
G01*
X135675000Y-100843750D01*
G75*
G02*
X135893750Y-100625000I218750J0D01*
G01*
X136406250Y-100625000D01*
G75*
G02*
X136625000Y-100843750I0J-218750D01*
G01*
X136625000Y-101281250D01*
G75*
G02*
X136406250Y-101500000I-218750J0D01*
G01*
G37*
G04 #@! TD.AperFunction*
G04 #@! TA.AperFunction,SMDPad,CuDef*
G36*
G01*
X136406250Y-103075000D02*
X135893750Y-103075000D01*
G75*
G02*
X135675000Y-102856250I0J218750D01*
G01*
X135675000Y-102418750D01*
G75*
G02*
X135893750Y-102200000I218750J0D01*
G01*
X136406250Y-102200000D01*
G75*
G02*
X136625000Y-102418750I0J-218750D01*
G01*
X136625000Y-102856250D01*
G75*
G02*
X136406250Y-103075000I-218750J0D01*
G01*
G37*
G04 #@! TD.AperFunction*
G04 #@! TA.AperFunction,SMDPad,CuDef*
G36*
G01*
X137866250Y-103085000D02*
X137353750Y-103085000D01*
G75*
G02*
X137135000Y-102866250I0J218750D01*
G01*
X137135000Y-102428750D01*
G75*
G02*
X137353750Y-102210000I218750J0D01*
G01*
X137866250Y-102210000D01*
G75*
G02*
X138085000Y-102428750I0J-218750D01*
G01*
X138085000Y-102866250D01*
G75*
G02*
X137866250Y-103085000I-218750J0D01*
G01*
G37*
G04 #@! TD.AperFunction*
G04 #@! TA.AperFunction,SMDPad,CuDef*
G36*
G01*
X137866250Y-101510000D02*
X137353750Y-101510000D01*
G75*
G02*
X137135000Y-101291250I0J218750D01*
G01*
X137135000Y-100853750D01*
G75*
G02*
X137353750Y-100635000I218750J0D01*
G01*
X137866250Y-100635000D01*
G75*
G02*
X138085000Y-100853750I0J-218750D01*
G01*
X138085000Y-101291250D01*
G75*
G02*
X137866250Y-101510000I-218750J0D01*
G01*
G37*
G04 #@! TD.AperFunction*
D17*
X143040000Y-91460000D03*
X140500000Y-91460000D03*
X137960000Y-91460000D03*
X135420000Y-91460000D03*
D16*
X132880000Y-91460000D03*
G04 #@! TA.AperFunction,SMDPad,CuDef*
G36*
G01*
X144700000Y-97262500D02*
X144700000Y-96837500D01*
G75*
G02*
X144912500Y-96625000I212500J0D01*
G01*
X145712500Y-96625000D01*
G75*
G02*
X145925000Y-96837500I0J-212500D01*
G01*
X145925000Y-97262500D01*
G75*
G02*
X145712500Y-97475000I-212500J0D01*
G01*
X144912500Y-97475000D01*
G75*
G02*
X144700000Y-97262500I0J212500D01*
G01*
G37*
G04 #@! TD.AperFunction*
G04 #@! TA.AperFunction,SMDPad,CuDef*
G36*
G01*
X143075000Y-97262500D02*
X143075000Y-96837500D01*
G75*
G02*
X143287500Y-96625000I212500J0D01*
G01*
X144087500Y-96625000D01*
G75*
G02*
X144300000Y-96837500I0J-212500D01*
G01*
X144300000Y-97262500D01*
G75*
G02*
X144087500Y-97475000I-212500J0D01*
G01*
X143287500Y-97475000D01*
G75*
G02*
X143075000Y-97262500I0J212500D01*
G01*
G37*
G04 #@! TD.AperFunction*
G04 #@! TA.AperFunction,SMDPad,CuDef*
G36*
G01*
X144125000Y-98218750D02*
X144125000Y-98731250D01*
G75*
G02*
X143906250Y-98950000I-218750J0D01*
G01*
X143468750Y-98950000D01*
G75*
G02*
X143250000Y-98731250I0J218750D01*
G01*
X143250000Y-98218750D01*
G75*
G02*
X143468750Y-98000000I218750J0D01*
G01*
X143906250Y-98000000D01*
G75*
G02*
X144125000Y-98218750I0J-218750D01*
G01*
G37*
G04 #@! TD.AperFunction*
G04 #@! TA.AperFunction,SMDPad,CuDef*
G36*
G01*
X145700000Y-98218750D02*
X145700000Y-98731250D01*
G75*
G02*
X145481250Y-98950000I-218750J0D01*
G01*
X145043750Y-98950000D01*
G75*
G02*
X144825000Y-98731250I0J218750D01*
G01*
X144825000Y-98218750D01*
G75*
G02*
X145043750Y-98000000I218750J0D01*
G01*
X145481250Y-98000000D01*
G75*
G02*
X145700000Y-98218750I0J-218750D01*
G01*
G37*
G04 #@! TD.AperFunction*
D18*
X127710000Y-102635000D03*
X127710000Y-97175000D03*
D19*
X130710000Y-102325000D03*
X130710000Y-97485000D03*
D20*
X154400000Y-101250000D03*
X142793750Y-95681250D03*
X130350000Y-105800000D03*
X136910000Y-100440000D03*
X146425000Y-104800000D03*
X144325000Y-104900000D03*
X136300000Y-105100000D03*
X154250000Y-103575000D03*
X149250000Y-103725000D03*
X150100000Y-99275000D03*
X133975000Y-103275000D03*
X140075000Y-95525000D03*
X134475000Y-94475000D03*
X132225000Y-97350000D03*
X131850000Y-104900000D03*
X160625000Y-102200000D03*
X148070627Y-96111323D03*
X147400000Y-95875000D03*
X146900000Y-96325000D03*
X146375000Y-95900000D03*
X141325000Y-99692390D03*
X136025000Y-94850000D03*
X149987028Y-100240212D03*
X142300000Y-104550000D03*
X141532610Y-102204693D03*
X126510000Y-93930000D03*
X162375000Y-105141031D03*
X138250000Y-98042390D03*
X141226424Y-98681091D03*
X136275000Y-98900000D03*
X147200000Y-104790000D03*
X139450000Y-93675000D03*
X145450000Y-95713590D03*
X141425000Y-100675000D03*
X139465000Y-100175000D03*
X150078204Y-98582604D03*
X159360000Y-93670000D03*
X156550000Y-95675000D03*
X156575000Y-98925000D03*
D21*
X137810000Y-101072500D02*
X136310000Y-101072500D01*
X137610000Y-101072500D02*
X137610000Y-100760000D01*
X143687500Y-97050000D02*
X143687500Y-96575000D01*
X143687500Y-96575000D02*
X142793750Y-95681250D01*
X127710000Y-103160000D02*
X127710000Y-102635000D01*
X130350000Y-105800000D02*
X127710000Y-103160000D01*
X127710000Y-102635000D02*
X127710000Y-97175000D01*
X136150000Y-101062500D02*
X136287500Y-101062500D01*
X136287500Y-101062500D02*
X136910000Y-100440000D01*
X146425000Y-104800000D02*
X146075000Y-105150000D01*
X144575000Y-105150000D02*
X144325000Y-104900000D01*
X146075000Y-105150000D02*
X144575000Y-105150000D01*
X136310000Y-104037500D02*
X136272500Y-104075000D01*
X136310000Y-102647500D02*
X136310000Y-104037500D01*
X136072500Y-104075000D02*
X136072500Y-104222500D01*
X136072500Y-104872500D02*
X136300000Y-105100000D01*
X136072500Y-104075000D02*
X136072500Y-104872500D01*
D22*
X153220000Y-104605000D02*
X154250000Y-103575000D01*
X153220000Y-106700000D02*
X153220000Y-104605000D01*
X140075000Y-95525000D02*
X140500000Y-95525000D01*
D23*
X140075000Y-95525000D02*
X141275000Y-95525000D01*
X141275000Y-95525000D02*
X142025000Y-94775000D01*
X142025000Y-94775000D02*
X143300000Y-94775000D01*
X143300000Y-94775000D02*
X144825000Y-96300000D01*
X145910264Y-96300000D02*
X146475000Y-96864736D01*
X144825000Y-96300000D02*
X145910264Y-96300000D01*
D21*
X140926176Y-95525000D02*
X143172565Y-97771390D01*
X144091554Y-97771390D02*
X144525000Y-98204836D01*
X143172565Y-97771390D02*
X144091554Y-97771390D01*
X140075000Y-95525000D02*
X140926176Y-95525000D01*
X144525000Y-98204836D02*
X144525000Y-99300000D01*
X162312500Y-96310000D02*
X162312500Y-100730000D01*
D23*
X155760000Y-106700000D02*
X155760000Y-107090000D01*
D22*
X135850000Y-96600000D02*
X136300000Y-97050000D01*
X133275000Y-96600000D02*
X135850000Y-96600000D01*
X155760000Y-106700000D02*
X154630599Y-107829401D01*
X154630599Y-107829401D02*
X132357887Y-107829401D01*
X132357887Y-107829401D02*
X131770599Y-107242113D01*
X131770599Y-107242113D02*
X131770599Y-106157887D01*
X131770599Y-106157887D02*
X131770599Y-106120599D01*
X131770599Y-106120599D02*
X129150000Y-103500000D01*
X129150000Y-103500000D02*
X129150000Y-97200000D01*
X129750000Y-96600000D02*
X133275000Y-96600000D01*
X129150000Y-97200000D02*
X129750000Y-96600000D01*
D21*
X131770599Y-104979401D02*
X131850000Y-104900000D01*
X131770599Y-106157887D02*
X131770599Y-104979401D01*
D22*
X158300000Y-106700000D02*
X158300000Y-104525000D01*
X158300000Y-104525000D02*
X160625000Y-102200000D01*
D21*
X145262500Y-97100000D02*
X145312500Y-97050000D01*
X145262500Y-98475000D02*
X145262500Y-97100000D01*
X148070627Y-96111323D02*
X148070627Y-95752113D01*
X148070627Y-95752113D02*
X143778514Y-91460000D01*
X143778514Y-91460000D02*
X143040000Y-91460000D01*
X147400000Y-95875000D02*
X147400000Y-95515790D01*
X147400000Y-95515790D02*
X144422811Y-92538601D01*
X144422811Y-92538601D02*
X141578601Y-92538601D01*
X141578601Y-92538601D02*
X140500000Y-91460000D01*
X146900000Y-96325000D02*
X146900000Y-95700000D01*
X139343412Y-92843412D02*
X137960000Y-91460000D01*
X144043412Y-92843412D02*
X139343412Y-92843412D01*
X146900000Y-95700000D02*
X144043412Y-92843412D01*
X146375000Y-95900000D02*
X143623222Y-93148222D01*
X137108222Y-93148222D02*
X135420000Y-91460000D01*
X143623222Y-93148222D02*
X137108222Y-93148222D01*
X141179811Y-97854811D02*
X141732601Y-98407601D01*
X136025000Y-94850000D02*
X137168933Y-94850000D01*
X141732601Y-98407601D02*
X141732601Y-99284789D01*
X140173744Y-97854811D02*
X141179811Y-97854811D01*
X137168933Y-94850000D02*
X140173744Y-97854811D01*
X141732601Y-99284789D02*
X141325000Y-99692390D01*
X150680000Y-100933184D02*
X149987028Y-100240212D01*
X150680000Y-106700000D02*
X150680000Y-100933184D01*
X140520000Y-106330000D02*
X140520000Y-106700000D01*
X142300000Y-104550000D02*
X140520000Y-106330000D01*
X137980000Y-106700000D02*
X138387134Y-106700000D01*
X138561482Y-106700000D02*
X137980000Y-106700000D01*
X138711482Y-106700000D02*
X138575000Y-106700000D01*
X141532610Y-102204693D02*
X141532610Y-104267390D01*
X139058601Y-105621399D02*
X137980000Y-106700000D01*
X140178601Y-105621399D02*
X139058601Y-105621399D01*
X141532610Y-104267390D02*
X140178601Y-105621399D01*
X162084988Y-108185012D02*
X162375000Y-107895000D01*
X162375000Y-107895000D02*
X162375000Y-105141031D01*
X126510000Y-93930000D02*
X126510000Y-103050000D01*
X126510000Y-103050000D02*
X131645012Y-108185012D01*
X131645012Y-108185012D02*
X162084988Y-108185012D01*
X138888701Y-98681091D02*
X141226424Y-98681091D01*
X138250000Y-98042390D02*
X138888701Y-98681091D01*
X137847500Y-102685000D02*
X137810000Y-102647500D01*
X137847500Y-104075000D02*
X137847500Y-102685000D01*
X138462500Y-103260000D02*
X137647500Y-104075000D01*
X139710000Y-103260000D02*
X138462500Y-103260000D01*
X142615000Y-100210000D02*
X142620000Y-100210000D01*
X142620000Y-100210000D02*
X147200000Y-104790000D01*
X140065018Y-99640000D02*
X140600009Y-100174991D01*
X142579991Y-100174991D02*
X142615000Y-100210000D01*
X140600009Y-100174991D02*
X142579991Y-100174991D01*
X136275000Y-98900000D02*
X137015000Y-99640000D01*
X137015000Y-99640000D02*
X137210000Y-99640000D01*
X137210000Y-99640000D02*
X140065018Y-99640000D01*
X143411410Y-93675000D02*
X145450000Y-95713590D01*
X139450000Y-93675000D02*
X143411410Y-93675000D01*
X149513412Y-90076588D02*
X148130000Y-91460000D01*
X163193470Y-92265189D02*
X161004869Y-90076588D01*
X164412404Y-92265190D02*
X163193470Y-92265189D01*
X161004869Y-90076588D02*
X149513412Y-90076588D01*
X161656390Y-102818610D02*
X161656390Y-104102538D01*
X161656390Y-104102538D02*
X162212273Y-104658421D01*
X162285000Y-102190000D02*
X161656390Y-102818610D01*
X164859999Y-99816231D02*
X164859999Y-103052785D01*
X164868419Y-99807811D02*
X164859999Y-99816231D01*
X164868420Y-98672190D02*
X164868419Y-99807811D01*
X164859999Y-98356231D02*
X164859999Y-98663769D01*
X164868420Y-97212190D02*
X164868419Y-98347811D01*
X164868419Y-95358795D02*
X164859999Y-95367215D01*
X164868420Y-94201206D02*
X164868419Y-95358795D01*
X164859999Y-94192785D02*
X164868420Y-94201206D01*
X164859999Y-93907215D02*
X164859999Y-94192785D01*
X164878419Y-93888795D02*
X164859999Y-93907215D01*
X164448795Y-92301581D02*
X164878420Y-92731206D01*
X164412404Y-92301580D02*
X164448795Y-92301581D01*
X164859999Y-98663769D02*
X164868420Y-98672190D01*
X164868419Y-98347811D02*
X164859999Y-98356231D01*
X164878420Y-92731206D02*
X164878419Y-93888795D01*
X164859999Y-97203769D02*
X164868420Y-97212190D01*
X164859999Y-95367215D02*
X164859999Y-97203769D01*
X164412404Y-92265190D02*
X164412404Y-92301580D01*
X164428794Y-104658421D02*
X162212273Y-104658421D01*
X164868421Y-104218794D02*
X164428794Y-104658421D01*
X164868421Y-103061206D02*
X164868421Y-104218794D01*
X164859999Y-103052785D02*
X164868421Y-103061206D01*
X164563610Y-98798446D02*
X164555189Y-98790025D01*
X162285000Y-104125000D02*
X162513610Y-104353610D01*
X164555189Y-95240959D02*
X164563610Y-95232538D01*
X162285000Y-103535000D02*
X162285000Y-104125000D01*
X164555189Y-93780959D02*
X164573610Y-93762538D01*
X164322538Y-92606390D02*
X163103605Y-92606390D01*
X164563610Y-97338446D02*
X164555189Y-97330025D01*
X162513610Y-104353610D02*
X164302538Y-104353610D01*
X164302538Y-104353610D02*
X164563610Y-104092538D01*
X164555189Y-98229975D02*
X164563610Y-98221554D01*
X164563610Y-95232538D02*
X164563610Y-94327462D01*
X151748601Y-90381399D02*
X150670000Y-91460000D01*
X164555189Y-97330025D02*
X164555189Y-95240959D01*
X164573610Y-92857462D02*
X164322538Y-92606390D01*
X164555189Y-94319041D02*
X164555189Y-93780959D01*
X164563610Y-104092538D02*
X164563610Y-103187462D01*
X164563610Y-98221554D02*
X164563610Y-97338446D01*
X164563610Y-99681554D02*
X164563610Y-98798446D01*
X164563610Y-94327462D02*
X164555189Y-94319041D01*
X164555189Y-103179041D02*
X164555189Y-99689975D01*
X164555189Y-98790025D02*
X164555189Y-98229975D01*
X164573610Y-93762538D02*
X164573610Y-92857462D01*
X164563610Y-103187462D02*
X164555189Y-103179041D01*
X164555189Y-99689975D02*
X164563610Y-99681554D01*
X160878614Y-90381399D02*
X151748601Y-90381399D01*
X163103605Y-92606390D02*
X160878614Y-90381399D01*
X162295000Y-93340000D02*
X161798412Y-92843412D01*
X154864478Y-92843412D02*
X153481066Y-91460000D01*
X161798412Y-92843412D02*
X154864478Y-92843412D01*
X153481066Y-91460000D02*
X153210000Y-91460000D01*
X156828601Y-92538601D02*
X155750000Y-91460000D01*
X162604749Y-92538601D02*
X156828601Y-92538601D01*
X162950000Y-92883852D02*
X162604749Y-92538601D01*
X162950000Y-94115000D02*
X162950000Y-92883852D01*
X162285000Y-94780000D02*
X162950000Y-94115000D01*
X136823412Y-105316588D02*
X136289999Y-105850001D01*
X139994894Y-105316588D02*
X136823412Y-105316588D01*
X141050000Y-104261482D02*
X139994894Y-105316588D01*
X141050000Y-101050000D02*
X141050000Y-104261482D01*
X141425000Y-100675000D02*
X141050000Y-101050000D01*
X136289999Y-105850001D02*
X135440000Y-106700000D01*
X133550000Y-106700000D02*
X132900000Y-106700000D01*
X132900000Y-106139836D02*
X132900000Y-106700000D01*
X135446390Y-103593446D02*
X132900000Y-106139836D01*
X135446390Y-100658446D02*
X135446390Y-103593446D01*
X137141649Y-99957399D02*
X136147437Y-99957399D01*
X136147437Y-99957399D02*
X135446390Y-100658446D01*
X137359250Y-100175000D02*
X137141649Y-99957399D01*
X139465000Y-100175000D02*
X137359250Y-100175000D01*
X133843670Y-106700000D02*
X132900000Y-106700000D01*
X150078204Y-95771796D02*
X150078204Y-98582604D01*
X152180000Y-93670000D02*
X159360000Y-93670000D01*
X150078204Y-95771796D02*
X152180000Y-93670000D01*
D22*
X155175000Y-97050000D02*
X153750000Y-97050000D01*
X156550000Y-95675000D02*
X155175000Y-97050000D01*
X154700000Y-97050000D02*
X153750000Y-97050000D01*
X156575000Y-98925000D02*
X154700000Y-97050000D01*
D21*
X133275000Y-95300000D02*
X134525000Y-95300000D01*
X134525000Y-95300000D02*
X135475000Y-94350000D01*
X135475000Y-94350000D02*
X137100000Y-94350000D01*
X137100000Y-94350000D02*
X140300000Y-97550000D01*
X143445109Y-98475000D02*
X143687500Y-98475000D01*
X142520109Y-97550000D02*
X143445109Y-98475000D01*
X140300000Y-97550000D02*
X142520109Y-97550000D01*
X163935000Y-96262500D02*
X163887500Y-96310000D01*
X163935000Y-94810000D02*
X163935000Y-96262500D01*
X163945000Y-93310000D02*
X163945000Y-93555000D01*
X163221390Y-97103890D02*
X163897500Y-97780000D01*
X163221390Y-94278610D02*
X163221390Y-97103890D01*
X163945000Y-93555000D02*
X163221390Y-94278610D01*
X163211390Y-99926110D02*
X163897500Y-99240000D01*
X163211390Y-102916390D02*
X163211390Y-99926110D01*
X163935000Y-103640000D02*
X163211390Y-102916390D01*
X163935000Y-100777500D02*
X163887500Y-100730000D01*
X163935000Y-102190000D02*
X163935000Y-100777500D01*
D24*
X147501903Y-90284914D02*
X147284724Y-90430029D01*
X147100029Y-90614724D01*
X146954914Y-90831903D01*
X146854957Y-91073220D01*
X146804000Y-91329400D01*
X146804000Y-91590600D01*
X146854957Y-91846780D01*
X146954914Y-92088097D01*
X147100029Y-92305276D01*
X147284724Y-92489971D01*
X147501903Y-92635086D01*
X147743220Y-92735043D01*
X147999400Y-92786000D01*
X148260600Y-92786000D01*
X148516780Y-92735043D01*
X148758097Y-92635086D01*
X148975276Y-92489971D01*
X149159971Y-92305276D01*
X149305086Y-92088097D01*
X149400000Y-91858955D01*
X149494914Y-92088097D01*
X149640029Y-92305276D01*
X149824724Y-92489971D01*
X150041903Y-92635086D01*
X150283220Y-92735043D01*
X150539400Y-92786000D01*
X150800600Y-92786000D01*
X151056780Y-92735043D01*
X151298097Y-92635086D01*
X151515276Y-92489971D01*
X151699971Y-92305276D01*
X151845086Y-92088097D01*
X151940000Y-91858955D01*
X152034914Y-92088097D01*
X152180029Y-92305276D01*
X152364724Y-92489971D01*
X152581903Y-92635086D01*
X152823220Y-92735043D01*
X153079400Y-92786000D01*
X153340600Y-92786000D01*
X153596780Y-92735043D01*
X153838097Y-92635086D01*
X153860353Y-92620215D01*
X154357937Y-93117800D01*
X152207107Y-93117800D01*
X152179999Y-93115130D01*
X152152891Y-93117800D01*
X152152882Y-93117800D01*
X152071750Y-93125791D01*
X151967660Y-93157366D01*
X151871730Y-93208642D01*
X151787647Y-93277647D01*
X151770361Y-93298710D01*
X149706919Y-95362153D01*
X149685851Y-95379443D01*
X149616846Y-95463526D01*
X149565570Y-95559457D01*
X149533995Y-95663547D01*
X149526004Y-95744679D01*
X149526004Y-95744686D01*
X149523334Y-95771796D01*
X149526004Y-95798907D01*
X149526005Y-98102427D01*
X149511176Y-98117256D01*
X149431287Y-98236819D01*
X149376258Y-98369671D01*
X149348204Y-98510705D01*
X149348204Y-98654503D01*
X149376258Y-98795537D01*
X149431287Y-98928389D01*
X149511176Y-99047952D01*
X149612856Y-99149632D01*
X149732419Y-99229521D01*
X149865271Y-99284550D01*
X150006305Y-99312604D01*
X150150103Y-99312604D01*
X150291137Y-99284550D01*
X150423989Y-99229521D01*
X150543552Y-99149632D01*
X150645232Y-99047952D01*
X150725121Y-98928389D01*
X150780150Y-98795537D01*
X150808204Y-98654503D01*
X150808204Y-98510705D01*
X150780150Y-98369671D01*
X150725121Y-98236819D01*
X150645232Y-98117256D01*
X150630404Y-98102428D01*
X150630404Y-96000524D01*
X150971697Y-95659231D01*
X150971697Y-98450000D01*
X150980887Y-98543312D01*
X151008106Y-98633039D01*
X151052306Y-98715731D01*
X151111789Y-98788211D01*
X151184269Y-98847694D01*
X151266961Y-98891894D01*
X151356688Y-98919113D01*
X151450000Y-98928303D01*
X153950000Y-98928303D01*
X154043312Y-98919113D01*
X154133039Y-98891894D01*
X154215731Y-98847694D01*
X154288211Y-98788211D01*
X154347694Y-98715731D01*
X154391894Y-98633039D01*
X154419113Y-98543312D01*
X154428303Y-98450000D01*
X154428303Y-97653000D01*
X154450230Y-97653000D01*
X155857632Y-99060403D01*
X155873054Y-99137933D01*
X155928083Y-99270785D01*
X156007972Y-99390348D01*
X156109652Y-99492028D01*
X156229215Y-99571917D01*
X156362067Y-99626946D01*
X156503101Y-99655000D01*
X156646899Y-99655000D01*
X156787933Y-99626946D01*
X156920785Y-99571917D01*
X157040348Y-99492028D01*
X157142028Y-99390348D01*
X157221917Y-99270785D01*
X157276946Y-99137933D01*
X157305000Y-98996899D01*
X157305000Y-98853101D01*
X157276946Y-98712067D01*
X157221917Y-98579215D01*
X157142028Y-98459652D01*
X157040348Y-98357972D01*
X156920785Y-98278083D01*
X156787933Y-98223054D01*
X156710403Y-98207632D01*
X155790270Y-97287500D01*
X156227770Y-96850000D01*
X158543794Y-96850000D01*
X158564569Y-97060933D01*
X158626096Y-97263760D01*
X158726010Y-97450686D01*
X158860472Y-97614528D01*
X159024314Y-97748990D01*
X159107436Y-97793420D01*
X158996290Y-97827136D01*
X158870376Y-97894438D01*
X158760012Y-97985012D01*
X158669438Y-98095376D01*
X158602136Y-98221290D01*
X158560691Y-98357914D01*
X158546697Y-98499999D01*
X158546697Y-99200001D01*
X158560691Y-99342086D01*
X158602136Y-99478710D01*
X158669438Y-99604624D01*
X158760012Y-99714988D01*
X158870376Y-99805562D01*
X158996290Y-99872864D01*
X159132914Y-99914309D01*
X159274999Y-99928303D01*
X160525001Y-99928303D01*
X160667086Y-99914309D01*
X160803710Y-99872864D01*
X160929624Y-99805562D01*
X161039988Y-99714988D01*
X161130562Y-99604624D01*
X161197864Y-99478710D01*
X161239309Y-99342086D01*
X161253303Y-99200001D01*
X161253303Y-98499999D01*
X161239309Y-98357914D01*
X161197864Y-98221290D01*
X161130562Y-98095376D01*
X161039988Y-97985012D01*
X160929624Y-97894438D01*
X160803710Y-97827136D01*
X160692564Y-97793420D01*
X160775686Y-97748990D01*
X160939528Y-97614528D01*
X161073990Y-97450686D01*
X161173904Y-97263760D01*
X161235431Y-97060933D01*
X161256206Y-96850000D01*
X161235431Y-96639067D01*
X161173904Y-96436240D01*
X161073990Y-96249314D01*
X160939528Y-96085472D01*
X160775686Y-95951010D01*
X160588760Y-95851096D01*
X160385933Y-95789569D01*
X160227858Y-95774000D01*
X159572142Y-95774000D01*
X159414067Y-95789569D01*
X159211240Y-95851096D01*
X159024314Y-95951010D01*
X158860472Y-96085472D01*
X158726010Y-96249314D01*
X158626096Y-96436240D01*
X158564569Y-96639067D01*
X158543794Y-96850000D01*
X156227770Y-96850000D01*
X156685403Y-96392368D01*
X156762933Y-96376946D01*
X156895785Y-96321917D01*
X157015348Y-96242028D01*
X157117028Y-96140348D01*
X157196917Y-96020785D01*
X157251946Y-95887933D01*
X157280000Y-95746899D01*
X157280000Y-95603101D01*
X157251946Y-95462067D01*
X157196917Y-95329215D01*
X157117028Y-95209652D01*
X157015348Y-95107972D01*
X156895785Y-95028083D01*
X156762933Y-94973054D01*
X156621899Y-94945000D01*
X156478101Y-94945000D01*
X156337067Y-94973054D01*
X156204215Y-95028083D01*
X156084652Y-95107972D01*
X155982972Y-95209652D01*
X155903083Y-95329215D01*
X155848054Y-95462067D01*
X155832632Y-95539597D01*
X154925230Y-96447000D01*
X154729608Y-96447000D01*
X154700000Y-96444084D01*
X154670392Y-96447000D01*
X154428303Y-96447000D01*
X154428303Y-95650000D01*
X154419113Y-95556688D01*
X154391894Y-95466961D01*
X154347694Y-95384269D01*
X154288211Y-95311789D01*
X154215731Y-95252306D01*
X154133039Y-95208106D01*
X154043312Y-95180887D01*
X153950000Y-95171697D01*
X151459231Y-95171697D01*
X152408729Y-94222200D01*
X158879824Y-94222200D01*
X158894652Y-94237028D01*
X159014215Y-94316917D01*
X159147067Y-94371946D01*
X159288101Y-94400000D01*
X159431899Y-94400000D01*
X159572933Y-94371946D01*
X159705785Y-94316917D01*
X159825348Y-94237028D01*
X159927028Y-94135348D01*
X160006917Y-94015785D01*
X160061946Y-93882933D01*
X160090000Y-93741899D01*
X160090000Y-93598101D01*
X160061946Y-93457067D01*
X160036491Y-93395612D01*
X161416697Y-93395612D01*
X161416697Y-93585000D01*
X161429730Y-93717330D01*
X161468330Y-93844575D01*
X161531012Y-93961845D01*
X161594255Y-94038907D01*
X161521012Y-94128155D01*
X161458330Y-94245425D01*
X161419730Y-94372670D01*
X161406697Y-94505000D01*
X161406697Y-95055000D01*
X161419730Y-95187330D01*
X161458330Y-95314575D01*
X161521012Y-95431845D01*
X161605367Y-95534633D01*
X161708155Y-95618988D01*
X161825425Y-95681670D01*
X161952670Y-95720270D01*
X162085000Y-95733303D01*
X162485000Y-95733303D01*
X162617330Y-95720270D01*
X162669191Y-95704538D01*
X162669191Y-97076770D01*
X162666520Y-97103890D01*
X162677181Y-97212139D01*
X162708756Y-97316229D01*
X162760032Y-97412159D01*
X162808921Y-97471730D01*
X162829038Y-97496243D01*
X162850101Y-97513529D01*
X162981697Y-97645125D01*
X162981697Y-98036250D01*
X162995091Y-98172238D01*
X163034757Y-98303001D01*
X163099172Y-98423512D01*
X163170150Y-98510000D01*
X163099172Y-98596488D01*
X163034757Y-98716999D01*
X162995091Y-98847762D01*
X162981697Y-98983750D01*
X162981697Y-99374875D01*
X162840100Y-99516472D01*
X162819038Y-99533757D01*
X162801752Y-99554820D01*
X162801751Y-99554821D01*
X162750032Y-99617841D01*
X162698756Y-99713771D01*
X162667181Y-99817861D01*
X162656520Y-99926110D01*
X162659191Y-99953230D01*
X162659191Y-101255462D01*
X162607330Y-101239730D01*
X162475000Y-101226697D01*
X162075000Y-101226697D01*
X161942670Y-101239730D01*
X161815425Y-101278330D01*
X161698155Y-101341012D01*
X161595367Y-101425367D01*
X161511012Y-101528155D01*
X161448330Y-101645425D01*
X161409730Y-101772670D01*
X161396697Y-101905000D01*
X161396697Y-102297375D01*
X161338320Y-102355752D01*
X161355000Y-102271899D01*
X161355000Y-102128101D01*
X161326946Y-101987067D01*
X161271917Y-101854215D01*
X161192028Y-101734652D01*
X161090348Y-101632972D01*
X160970785Y-101553083D01*
X160837933Y-101498054D01*
X160696899Y-101470000D01*
X160553101Y-101470000D01*
X160412067Y-101498054D01*
X160279215Y-101553083D01*
X160159652Y-101632972D01*
X160057972Y-101734652D01*
X159978083Y-101854215D01*
X159923054Y-101987067D01*
X159907632Y-102064597D01*
X157894556Y-104077674D01*
X157871553Y-104096552D01*
X157796199Y-104188371D01*
X157777705Y-104222972D01*
X157740207Y-104293126D01*
X157705726Y-104406791D01*
X157694084Y-104525000D01*
X157697001Y-104554618D01*
X157697001Y-105514518D01*
X157671903Y-105524914D01*
X157454724Y-105670029D01*
X157270029Y-105854724D01*
X157124914Y-106071903D01*
X157030000Y-106301045D01*
X156935086Y-106071903D01*
X156789971Y-105854724D01*
X156605276Y-105670029D01*
X156388097Y-105524914D01*
X156146780Y-105424957D01*
X155890600Y-105374000D01*
X155629400Y-105374000D01*
X155373220Y-105424957D01*
X155131903Y-105524914D01*
X154914724Y-105670029D01*
X154730029Y-105854724D01*
X154584914Y-106071903D01*
X154484957Y-106313220D01*
X154434000Y-106569400D01*
X154434000Y-106830600D01*
X154484957Y-107086780D01*
X154495353Y-107111877D01*
X154380829Y-107226401D01*
X151897210Y-107226401D01*
X151955043Y-107086780D01*
X152006000Y-106830600D01*
X152006000Y-106569400D01*
X151955043Y-106313220D01*
X151855086Y-106071903D01*
X151709971Y-105854724D01*
X151525276Y-105670029D01*
X151308097Y-105524914D01*
X151232200Y-105493476D01*
X151232200Y-101178101D01*
X153670000Y-101178101D01*
X153670000Y-101321899D01*
X153698054Y-101462933D01*
X153753083Y-101595785D01*
X153832972Y-101715348D01*
X153934652Y-101817028D01*
X154054215Y-101896917D01*
X154187067Y-101951946D01*
X154328101Y-101980000D01*
X154471899Y-101980000D01*
X154612933Y-101951946D01*
X154745785Y-101896917D01*
X154865348Y-101817028D01*
X154967028Y-101715348D01*
X155046917Y-101595785D01*
X155101946Y-101462933D01*
X155130000Y-101321899D01*
X155130000Y-101178101D01*
X155101946Y-101037067D01*
X155046917Y-100904215D01*
X154967028Y-100784652D01*
X154865348Y-100682972D01*
X154745785Y-100603083D01*
X154612933Y-100548054D01*
X154471899Y-100520000D01*
X154328101Y-100520000D01*
X154187067Y-100548054D01*
X154054215Y-100603083D01*
X153934652Y-100682972D01*
X153832972Y-100784652D01*
X153753083Y-100904215D01*
X153698054Y-101037067D01*
X153670000Y-101178101D01*
X151232200Y-101178101D01*
X151232200Y-100960291D01*
X151234870Y-100933183D01*
X151232200Y-100906075D01*
X151232200Y-100906066D01*
X151224209Y-100824934D01*
X151192634Y-100720844D01*
X151141358Y-100624914D01*
X151072353Y-100540831D01*
X151051290Y-100523545D01*
X150717028Y-100189284D01*
X150717028Y-100168313D01*
X150688974Y-100027279D01*
X150633945Y-99894427D01*
X150554056Y-99774864D01*
X150452376Y-99673184D01*
X150332813Y-99593295D01*
X150199961Y-99538266D01*
X150058927Y-99510212D01*
X149915129Y-99510212D01*
X149774095Y-99538266D01*
X149641243Y-99593295D01*
X149521680Y-99673184D01*
X149420000Y-99774864D01*
X149340111Y-99894427D01*
X149285082Y-100027279D01*
X149257028Y-100168313D01*
X149257028Y-100312111D01*
X149285082Y-100453145D01*
X149340111Y-100585997D01*
X149420000Y-100705560D01*
X149521680Y-100807240D01*
X149641243Y-100887129D01*
X149774095Y-100942158D01*
X149915129Y-100970212D01*
X149936100Y-100970212D01*
X150127801Y-101161914D01*
X150127800Y-105493476D01*
X150051903Y-105524914D01*
X149834724Y-105670029D01*
X149650029Y-105854724D01*
X149504914Y-106071903D01*
X149410000Y-106301045D01*
X149315086Y-106071903D01*
X149169971Y-105854724D01*
X148985276Y-105670029D01*
X148768097Y-105524914D01*
X148526780Y-105424957D01*
X148270600Y-105374000D01*
X148009400Y-105374000D01*
X147753220Y-105424957D01*
X147511903Y-105524914D01*
X147294724Y-105670029D01*
X147110029Y-105854724D01*
X146964914Y-106071903D01*
X146870000Y-106301045D01*
X146775086Y-106071903D01*
X146629971Y-105854724D01*
X146445276Y-105670029D01*
X146368936Y-105619020D01*
X146383270Y-105611358D01*
X146467353Y-105542353D01*
X146477491Y-105530000D01*
X146496899Y-105530000D01*
X146637933Y-105501946D01*
X146770785Y-105446917D01*
X146819983Y-105414044D01*
X146854215Y-105436917D01*
X146987067Y-105491946D01*
X147128101Y-105520000D01*
X147271899Y-105520000D01*
X147412933Y-105491946D01*
X147545785Y-105436917D01*
X147665348Y-105357028D01*
X147767028Y-105255348D01*
X147846917Y-105135785D01*
X147901946Y-105002933D01*
X147930000Y-104861899D01*
X147930000Y-104718101D01*
X147901946Y-104577067D01*
X147846917Y-104444215D01*
X147767028Y-104324652D01*
X147665348Y-104222972D01*
X147545785Y-104143083D01*
X147412933Y-104088054D01*
X147271899Y-104060000D01*
X147250929Y-104060000D01*
X143029643Y-99838715D01*
X143012353Y-99817647D01*
X142977810Y-99789298D01*
X142972344Y-99782638D01*
X142888261Y-99713633D01*
X142792331Y-99662357D01*
X142688241Y-99630782D01*
X142607109Y-99622791D01*
X142607101Y-99622791D01*
X142579991Y-99620121D01*
X142552881Y-99622791D01*
X142169559Y-99622791D01*
X142193959Y-99593059D01*
X142245235Y-99497129D01*
X142276810Y-99393039D01*
X142284801Y-99311907D01*
X142287472Y-99284789D01*
X142284801Y-99257671D01*
X142284801Y-98434711D01*
X142287471Y-98407600D01*
X142284801Y-98380490D01*
X142284801Y-98380483D01*
X142276810Y-98299351D01*
X142245235Y-98195261D01*
X142195493Y-98102200D01*
X142291381Y-98102200D01*
X142771697Y-98582517D01*
X142771697Y-98731250D01*
X142785091Y-98867238D01*
X142824757Y-98998001D01*
X142889172Y-99118512D01*
X142975859Y-99224141D01*
X143081488Y-99310828D01*
X143201999Y-99375243D01*
X143332762Y-99414909D01*
X143468750Y-99428303D01*
X143906250Y-99428303D01*
X144042238Y-99414909D01*
X144173001Y-99375243D01*
X144293512Y-99310828D01*
X144399141Y-99224141D01*
X144475000Y-99131706D01*
X144550859Y-99224141D01*
X144656488Y-99310828D01*
X144776999Y-99375243D01*
X144907762Y-99414909D01*
X145043750Y-99428303D01*
X145481250Y-99428303D01*
X145617238Y-99414909D01*
X145748001Y-99375243D01*
X145868512Y-99310828D01*
X145974141Y-99224141D01*
X146060828Y-99118512D01*
X146125243Y-98998001D01*
X146164909Y-98867238D01*
X146178303Y-98731250D01*
X146178303Y-98218750D01*
X146164909Y-98082762D01*
X146125243Y-97951999D01*
X146070951Y-97850426D01*
X146096290Y-97836882D01*
X146200971Y-97750971D01*
X146286882Y-97646290D01*
X146350719Y-97526859D01*
X146390029Y-97397269D01*
X146403303Y-97262500D01*
X146403303Y-96860679D01*
X146434652Y-96892028D01*
X146554215Y-96971917D01*
X146687067Y-97026946D01*
X146828101Y-97055000D01*
X146971899Y-97055000D01*
X147112933Y-97026946D01*
X147245785Y-96971917D01*
X147365348Y-96892028D01*
X147467028Y-96790348D01*
X147546917Y-96670785D01*
X147561795Y-96634867D01*
X147605279Y-96678351D01*
X147724842Y-96758240D01*
X147857694Y-96813269D01*
X147998728Y-96841323D01*
X148142526Y-96841323D01*
X148283560Y-96813269D01*
X148416412Y-96758240D01*
X148535975Y-96678351D01*
X148637655Y-96576671D01*
X148717544Y-96457108D01*
X148772573Y-96324256D01*
X148800627Y-96183222D01*
X148800627Y-96039424D01*
X148772573Y-95898390D01*
X148717544Y-95765538D01*
X148637655Y-95645975D01*
X148605819Y-95614139D01*
X148583261Y-95539773D01*
X148531985Y-95443843D01*
X148462980Y-95359760D01*
X148441917Y-95342474D01*
X144350396Y-91250954D01*
X144315043Y-91073220D01*
X144215086Y-90831903D01*
X144069971Y-90614724D01*
X143885276Y-90430029D01*
X143668097Y-90284914D01*
X143544395Y-90233675D01*
X147650816Y-90223232D01*
X147501903Y-90284914D01*
G04 #@! TA.AperFunction,Conductor*
D25*
G36*
X147501903Y-90284914D02*
G01*
X147284724Y-90430029D01*
X147100029Y-90614724D01*
X146954914Y-90831903D01*
X146854957Y-91073220D01*
X146804000Y-91329400D01*
X146804000Y-91590600D01*
X146854957Y-91846780D01*
X146954914Y-92088097D01*
X147100029Y-92305276D01*
X147284724Y-92489971D01*
X147501903Y-92635086D01*
X147743220Y-92735043D01*
X147999400Y-92786000D01*
X148260600Y-92786000D01*
X148516780Y-92735043D01*
X148758097Y-92635086D01*
X148975276Y-92489971D01*
X149159971Y-92305276D01*
X149305086Y-92088097D01*
X149400000Y-91858955D01*
X149494914Y-92088097D01*
X149640029Y-92305276D01*
X149824724Y-92489971D01*
X150041903Y-92635086D01*
X150283220Y-92735043D01*
X150539400Y-92786000D01*
X150800600Y-92786000D01*
X151056780Y-92735043D01*
X151298097Y-92635086D01*
X151515276Y-92489971D01*
X151699971Y-92305276D01*
X151845086Y-92088097D01*
X151940000Y-91858955D01*
X152034914Y-92088097D01*
X152180029Y-92305276D01*
X152364724Y-92489971D01*
X152581903Y-92635086D01*
X152823220Y-92735043D01*
X153079400Y-92786000D01*
X153340600Y-92786000D01*
X153596780Y-92735043D01*
X153838097Y-92635086D01*
X153860353Y-92620215D01*
X154357937Y-93117800D01*
X152207107Y-93117800D01*
X152179999Y-93115130D01*
X152152891Y-93117800D01*
X152152882Y-93117800D01*
X152071750Y-93125791D01*
X151967660Y-93157366D01*
X151871730Y-93208642D01*
X151787647Y-93277647D01*
X151770361Y-93298710D01*
X149706919Y-95362153D01*
X149685851Y-95379443D01*
X149616846Y-95463526D01*
X149565570Y-95559457D01*
X149533995Y-95663547D01*
X149526004Y-95744679D01*
X149526004Y-95744686D01*
X149523334Y-95771796D01*
X149526004Y-95798907D01*
X149526005Y-98102427D01*
X149511176Y-98117256D01*
X149431287Y-98236819D01*
X149376258Y-98369671D01*
X149348204Y-98510705D01*
X149348204Y-98654503D01*
X149376258Y-98795537D01*
X149431287Y-98928389D01*
X149511176Y-99047952D01*
X149612856Y-99149632D01*
X149732419Y-99229521D01*
X149865271Y-99284550D01*
X150006305Y-99312604D01*
X150150103Y-99312604D01*
X150291137Y-99284550D01*
X150423989Y-99229521D01*
X150543552Y-99149632D01*
X150645232Y-99047952D01*
X150725121Y-98928389D01*
X150780150Y-98795537D01*
X150808204Y-98654503D01*
X150808204Y-98510705D01*
X150780150Y-98369671D01*
X150725121Y-98236819D01*
X150645232Y-98117256D01*
X150630404Y-98102428D01*
X150630404Y-96000524D01*
X150971697Y-95659231D01*
X150971697Y-98450000D01*
X150980887Y-98543312D01*
X151008106Y-98633039D01*
X151052306Y-98715731D01*
X151111789Y-98788211D01*
X151184269Y-98847694D01*
X151266961Y-98891894D01*
X151356688Y-98919113D01*
X151450000Y-98928303D01*
X153950000Y-98928303D01*
X154043312Y-98919113D01*
X154133039Y-98891894D01*
X154215731Y-98847694D01*
X154288211Y-98788211D01*
X154347694Y-98715731D01*
X154391894Y-98633039D01*
X154419113Y-98543312D01*
X154428303Y-98450000D01*
X154428303Y-97653000D01*
X154450230Y-97653000D01*
X155857632Y-99060403D01*
X155873054Y-99137933D01*
X155928083Y-99270785D01*
X156007972Y-99390348D01*
X156109652Y-99492028D01*
X156229215Y-99571917D01*
X156362067Y-99626946D01*
X156503101Y-99655000D01*
X156646899Y-99655000D01*
X156787933Y-99626946D01*
X156920785Y-99571917D01*
X157040348Y-99492028D01*
X157142028Y-99390348D01*
X157221917Y-99270785D01*
X157276946Y-99137933D01*
X157305000Y-98996899D01*
X157305000Y-98853101D01*
X157276946Y-98712067D01*
X157221917Y-98579215D01*
X157142028Y-98459652D01*
X157040348Y-98357972D01*
X156920785Y-98278083D01*
X156787933Y-98223054D01*
X156710403Y-98207632D01*
X155790270Y-97287500D01*
X156227770Y-96850000D01*
X158543794Y-96850000D01*
X158564569Y-97060933D01*
X158626096Y-97263760D01*
X158726010Y-97450686D01*
X158860472Y-97614528D01*
X159024314Y-97748990D01*
X159107436Y-97793420D01*
X158996290Y-97827136D01*
X158870376Y-97894438D01*
X158760012Y-97985012D01*
X158669438Y-98095376D01*
X158602136Y-98221290D01*
X158560691Y-98357914D01*
X158546697Y-98499999D01*
X158546697Y-99200001D01*
X158560691Y-99342086D01*
X158602136Y-99478710D01*
X158669438Y-99604624D01*
X158760012Y-99714988D01*
X158870376Y-99805562D01*
X158996290Y-99872864D01*
X159132914Y-99914309D01*
X159274999Y-99928303D01*
X160525001Y-99928303D01*
X160667086Y-99914309D01*
X160803710Y-99872864D01*
X160929624Y-99805562D01*
X161039988Y-99714988D01*
X161130562Y-99604624D01*
X161197864Y-99478710D01*
X161239309Y-99342086D01*
X161253303Y-99200001D01*
X161253303Y-98499999D01*
X161239309Y-98357914D01*
X161197864Y-98221290D01*
X161130562Y-98095376D01*
X161039988Y-97985012D01*
X160929624Y-97894438D01*
X160803710Y-97827136D01*
X160692564Y-97793420D01*
X160775686Y-97748990D01*
X160939528Y-97614528D01*
X161073990Y-97450686D01*
X161173904Y-97263760D01*
X161235431Y-97060933D01*
X161256206Y-96850000D01*
X161235431Y-96639067D01*
X161173904Y-96436240D01*
X161073990Y-96249314D01*
X160939528Y-96085472D01*
X160775686Y-95951010D01*
X160588760Y-95851096D01*
X160385933Y-95789569D01*
X160227858Y-95774000D01*
X159572142Y-95774000D01*
X159414067Y-95789569D01*
X159211240Y-95851096D01*
X159024314Y-95951010D01*
X158860472Y-96085472D01*
X158726010Y-96249314D01*
X158626096Y-96436240D01*
X158564569Y-96639067D01*
X158543794Y-96850000D01*
X156227770Y-96850000D01*
X156685403Y-96392368D01*
X156762933Y-96376946D01*
X156895785Y-96321917D01*
X157015348Y-96242028D01*
X157117028Y-96140348D01*
X157196917Y-96020785D01*
X157251946Y-95887933D01*
X157280000Y-95746899D01*
X157280000Y-95603101D01*
X157251946Y-95462067D01*
X157196917Y-95329215D01*
X157117028Y-95209652D01*
X157015348Y-95107972D01*
X156895785Y-95028083D01*
X156762933Y-94973054D01*
X156621899Y-94945000D01*
X156478101Y-94945000D01*
X156337067Y-94973054D01*
X156204215Y-95028083D01*
X156084652Y-95107972D01*
X155982972Y-95209652D01*
X155903083Y-95329215D01*
X155848054Y-95462067D01*
X155832632Y-95539597D01*
X154925230Y-96447000D01*
X154729608Y-96447000D01*
X154700000Y-96444084D01*
X154670392Y-96447000D01*
X154428303Y-96447000D01*
X154428303Y-95650000D01*
X154419113Y-95556688D01*
X154391894Y-95466961D01*
X154347694Y-95384269D01*
X154288211Y-95311789D01*
X154215731Y-95252306D01*
X154133039Y-95208106D01*
X154043312Y-95180887D01*
X153950000Y-95171697D01*
X151459231Y-95171697D01*
X152408729Y-94222200D01*
X158879824Y-94222200D01*
X158894652Y-94237028D01*
X159014215Y-94316917D01*
X159147067Y-94371946D01*
X159288101Y-94400000D01*
X159431899Y-94400000D01*
X159572933Y-94371946D01*
X159705785Y-94316917D01*
X159825348Y-94237028D01*
X159927028Y-94135348D01*
X160006917Y-94015785D01*
X160061946Y-93882933D01*
X160090000Y-93741899D01*
X160090000Y-93598101D01*
X160061946Y-93457067D01*
X160036491Y-93395612D01*
X161416697Y-93395612D01*
X161416697Y-93585000D01*
X161429730Y-93717330D01*
X161468330Y-93844575D01*
X161531012Y-93961845D01*
X161594255Y-94038907D01*
X161521012Y-94128155D01*
X161458330Y-94245425D01*
X161419730Y-94372670D01*
X161406697Y-94505000D01*
X161406697Y-95055000D01*
X161419730Y-95187330D01*
X161458330Y-95314575D01*
X161521012Y-95431845D01*
X161605367Y-95534633D01*
X161708155Y-95618988D01*
X161825425Y-95681670D01*
X161952670Y-95720270D01*
X162085000Y-95733303D01*
X162485000Y-95733303D01*
X162617330Y-95720270D01*
X162669191Y-95704538D01*
X162669191Y-97076770D01*
X162666520Y-97103890D01*
X162677181Y-97212139D01*
X162708756Y-97316229D01*
X162760032Y-97412159D01*
X162808921Y-97471730D01*
X162829038Y-97496243D01*
X162850101Y-97513529D01*
X162981697Y-97645125D01*
X162981697Y-98036250D01*
X162995091Y-98172238D01*
X163034757Y-98303001D01*
X163099172Y-98423512D01*
X163170150Y-98510000D01*
X163099172Y-98596488D01*
X163034757Y-98716999D01*
X162995091Y-98847762D01*
X162981697Y-98983750D01*
X162981697Y-99374875D01*
X162840100Y-99516472D01*
X162819038Y-99533757D01*
X162801752Y-99554820D01*
X162801751Y-99554821D01*
X162750032Y-99617841D01*
X162698756Y-99713771D01*
X162667181Y-99817861D01*
X162656520Y-99926110D01*
X162659191Y-99953230D01*
X162659191Y-101255462D01*
X162607330Y-101239730D01*
X162475000Y-101226697D01*
X162075000Y-101226697D01*
X161942670Y-101239730D01*
X161815425Y-101278330D01*
X161698155Y-101341012D01*
X161595367Y-101425367D01*
X161511012Y-101528155D01*
X161448330Y-101645425D01*
X161409730Y-101772670D01*
X161396697Y-101905000D01*
X161396697Y-102297375D01*
X161338320Y-102355752D01*
X161355000Y-102271899D01*
X161355000Y-102128101D01*
X161326946Y-101987067D01*
X161271917Y-101854215D01*
X161192028Y-101734652D01*
X161090348Y-101632972D01*
X160970785Y-101553083D01*
X160837933Y-101498054D01*
X160696899Y-101470000D01*
X160553101Y-101470000D01*
X160412067Y-101498054D01*
X160279215Y-101553083D01*
X160159652Y-101632972D01*
X160057972Y-101734652D01*
X159978083Y-101854215D01*
X159923054Y-101987067D01*
X159907632Y-102064597D01*
X157894556Y-104077674D01*
X157871553Y-104096552D01*
X157796199Y-104188371D01*
X157777705Y-104222972D01*
X157740207Y-104293126D01*
X157705726Y-104406791D01*
X157694084Y-104525000D01*
X157697001Y-104554618D01*
X157697001Y-105514518D01*
X157671903Y-105524914D01*
X157454724Y-105670029D01*
X157270029Y-105854724D01*
X157124914Y-106071903D01*
X157030000Y-106301045D01*
X156935086Y-106071903D01*
X156789971Y-105854724D01*
X156605276Y-105670029D01*
X156388097Y-105524914D01*
X156146780Y-105424957D01*
X155890600Y-105374000D01*
X155629400Y-105374000D01*
X155373220Y-105424957D01*
X155131903Y-105524914D01*
X154914724Y-105670029D01*
X154730029Y-105854724D01*
X154584914Y-106071903D01*
X154484957Y-106313220D01*
X154434000Y-106569400D01*
X154434000Y-106830600D01*
X154484957Y-107086780D01*
X154495353Y-107111877D01*
X154380829Y-107226401D01*
X151897210Y-107226401D01*
X151955043Y-107086780D01*
X152006000Y-106830600D01*
X152006000Y-106569400D01*
X151955043Y-106313220D01*
X151855086Y-106071903D01*
X151709971Y-105854724D01*
X151525276Y-105670029D01*
X151308097Y-105524914D01*
X151232200Y-105493476D01*
X151232200Y-101178101D01*
X153670000Y-101178101D01*
X153670000Y-101321899D01*
X153698054Y-101462933D01*
X153753083Y-101595785D01*
X153832972Y-101715348D01*
X153934652Y-101817028D01*
X154054215Y-101896917D01*
X154187067Y-101951946D01*
X154328101Y-101980000D01*
X154471899Y-101980000D01*
X154612933Y-101951946D01*
X154745785Y-101896917D01*
X154865348Y-101817028D01*
X154967028Y-101715348D01*
X155046917Y-101595785D01*
X155101946Y-101462933D01*
X155130000Y-101321899D01*
X155130000Y-101178101D01*
X155101946Y-101037067D01*
X155046917Y-100904215D01*
X154967028Y-100784652D01*
X154865348Y-100682972D01*
X154745785Y-100603083D01*
X154612933Y-100548054D01*
X154471899Y-100520000D01*
X154328101Y-100520000D01*
X154187067Y-100548054D01*
X154054215Y-100603083D01*
X153934652Y-100682972D01*
X153832972Y-100784652D01*
X153753083Y-100904215D01*
X153698054Y-101037067D01*
X153670000Y-101178101D01*
X151232200Y-101178101D01*
X151232200Y-100960291D01*
X151234870Y-100933183D01*
X151232200Y-100906075D01*
X151232200Y-100906066D01*
X151224209Y-100824934D01*
X151192634Y-100720844D01*
X151141358Y-100624914D01*
X151072353Y-100540831D01*
X151051290Y-100523545D01*
X150717028Y-100189284D01*
X150717028Y-100168313D01*
X150688974Y-100027279D01*
X150633945Y-99894427D01*
X150554056Y-99774864D01*
X150452376Y-99673184D01*
X150332813Y-99593295D01*
X150199961Y-99538266D01*
X150058927Y-99510212D01*
X149915129Y-99510212D01*
X149774095Y-99538266D01*
X149641243Y-99593295D01*
X149521680Y-99673184D01*
X149420000Y-99774864D01*
X149340111Y-99894427D01*
X149285082Y-100027279D01*
X149257028Y-100168313D01*
X149257028Y-100312111D01*
X149285082Y-100453145D01*
X149340111Y-100585997D01*
X149420000Y-100705560D01*
X149521680Y-100807240D01*
X149641243Y-100887129D01*
X149774095Y-100942158D01*
X149915129Y-100970212D01*
X149936100Y-100970212D01*
X150127801Y-101161914D01*
X150127800Y-105493476D01*
X150051903Y-105524914D01*
X149834724Y-105670029D01*
X149650029Y-105854724D01*
X149504914Y-106071903D01*
X149410000Y-106301045D01*
X149315086Y-106071903D01*
X149169971Y-105854724D01*
X148985276Y-105670029D01*
X148768097Y-105524914D01*
X148526780Y-105424957D01*
X148270600Y-105374000D01*
X148009400Y-105374000D01*
X147753220Y-105424957D01*
X147511903Y-105524914D01*
X147294724Y-105670029D01*
X147110029Y-105854724D01*
X146964914Y-106071903D01*
X146870000Y-106301045D01*
X146775086Y-106071903D01*
X146629971Y-105854724D01*
X146445276Y-105670029D01*
X146368936Y-105619020D01*
X146383270Y-105611358D01*
X146467353Y-105542353D01*
X146477491Y-105530000D01*
X146496899Y-105530000D01*
X146637933Y-105501946D01*
X146770785Y-105446917D01*
X146819983Y-105414044D01*
X146854215Y-105436917D01*
X146987067Y-105491946D01*
X147128101Y-105520000D01*
X147271899Y-105520000D01*
X147412933Y-105491946D01*
X147545785Y-105436917D01*
X147665348Y-105357028D01*
X147767028Y-105255348D01*
X147846917Y-105135785D01*
X147901946Y-105002933D01*
X147930000Y-104861899D01*
X147930000Y-104718101D01*
X147901946Y-104577067D01*
X147846917Y-104444215D01*
X147767028Y-104324652D01*
X147665348Y-104222972D01*
X147545785Y-104143083D01*
X147412933Y-104088054D01*
X147271899Y-104060000D01*
X147250929Y-104060000D01*
X143029643Y-99838715D01*
X143012353Y-99817647D01*
X142977810Y-99789298D01*
X142972344Y-99782638D01*
X142888261Y-99713633D01*
X142792331Y-99662357D01*
X142688241Y-99630782D01*
X142607109Y-99622791D01*
X142607101Y-99622791D01*
X142579991Y-99620121D01*
X142552881Y-99622791D01*
X142169559Y-99622791D01*
X142193959Y-99593059D01*
X142245235Y-99497129D01*
X142276810Y-99393039D01*
X142284801Y-99311907D01*
X142287472Y-99284789D01*
X142284801Y-99257671D01*
X142284801Y-98434711D01*
X142287471Y-98407600D01*
X142284801Y-98380490D01*
X142284801Y-98380483D01*
X142276810Y-98299351D01*
X142245235Y-98195261D01*
X142195493Y-98102200D01*
X142291381Y-98102200D01*
X142771697Y-98582517D01*
X142771697Y-98731250D01*
X142785091Y-98867238D01*
X142824757Y-98998001D01*
X142889172Y-99118512D01*
X142975859Y-99224141D01*
X143081488Y-99310828D01*
X143201999Y-99375243D01*
X143332762Y-99414909D01*
X143468750Y-99428303D01*
X143906250Y-99428303D01*
X144042238Y-99414909D01*
X144173001Y-99375243D01*
X144293512Y-99310828D01*
X144399141Y-99224141D01*
X144475000Y-99131706D01*
X144550859Y-99224141D01*
X144656488Y-99310828D01*
X144776999Y-99375243D01*
X144907762Y-99414909D01*
X145043750Y-99428303D01*
X145481250Y-99428303D01*
X145617238Y-99414909D01*
X145748001Y-99375243D01*
X145868512Y-99310828D01*
X145974141Y-99224141D01*
X146060828Y-99118512D01*
X146125243Y-98998001D01*
X146164909Y-98867238D01*
X146178303Y-98731250D01*
X146178303Y-98218750D01*
X146164909Y-98082762D01*
X146125243Y-97951999D01*
X146070951Y-97850426D01*
X146096290Y-97836882D01*
X146200971Y-97750971D01*
X146286882Y-97646290D01*
X146350719Y-97526859D01*
X146390029Y-97397269D01*
X146403303Y-97262500D01*
X146403303Y-96860679D01*
X146434652Y-96892028D01*
X146554215Y-96971917D01*
X146687067Y-97026946D01*
X146828101Y-97055000D01*
X146971899Y-97055000D01*
X147112933Y-97026946D01*
X147245785Y-96971917D01*
X147365348Y-96892028D01*
X147467028Y-96790348D01*
X147546917Y-96670785D01*
X147561795Y-96634867D01*
X147605279Y-96678351D01*
X147724842Y-96758240D01*
X147857694Y-96813269D01*
X147998728Y-96841323D01*
X148142526Y-96841323D01*
X148283560Y-96813269D01*
X148416412Y-96758240D01*
X148535975Y-96678351D01*
X148637655Y-96576671D01*
X148717544Y-96457108D01*
X148772573Y-96324256D01*
X148800627Y-96183222D01*
X148800627Y-96039424D01*
X148772573Y-95898390D01*
X148717544Y-95765538D01*
X148637655Y-95645975D01*
X148605819Y-95614139D01*
X148583261Y-95539773D01*
X148531985Y-95443843D01*
X148462980Y-95359760D01*
X148441917Y-95342474D01*
X144350396Y-91250954D01*
X144315043Y-91073220D01*
X144215086Y-90831903D01*
X144069971Y-90614724D01*
X143885276Y-90430029D01*
X143668097Y-90284914D01*
X143544395Y-90233675D01*
X147650816Y-90223232D01*
X147501903Y-90284914D01*
G37*
G04 #@! TD.AperFunction*
D24*
X132300284Y-97255408D02*
X132369592Y-97324716D01*
X132442072Y-97384199D01*
X132523571Y-97438655D01*
X132606266Y-97482856D01*
X132696822Y-97520365D01*
X132786546Y-97547583D01*
X132882679Y-97566705D01*
X132975991Y-97575895D01*
X133000550Y-97575895D01*
X133025000Y-97578303D01*
X133525000Y-97578303D01*
X133549450Y-97575895D01*
X133574009Y-97575895D01*
X133667321Y-97566705D01*
X133763454Y-97547583D01*
X133853178Y-97520365D01*
X133943734Y-97482856D01*
X134026429Y-97438655D01*
X134107928Y-97384199D01*
X134180408Y-97324716D01*
X134249716Y-97255408D01*
X134292726Y-97203000D01*
X134571697Y-97203000D01*
X134571697Y-98450000D01*
X134580887Y-98543312D01*
X134608106Y-98633039D01*
X134652306Y-98715731D01*
X134711789Y-98788211D01*
X134784269Y-98847694D01*
X134866961Y-98891894D01*
X134956688Y-98919113D01*
X135050000Y-98928303D01*
X135545000Y-98928303D01*
X135545000Y-98971899D01*
X135573054Y-99112933D01*
X135628083Y-99245785D01*
X135707972Y-99365348D01*
X135809652Y-99467028D01*
X135846893Y-99491911D01*
X135839167Y-99496041D01*
X135755084Y-99565046D01*
X135737798Y-99586109D01*
X135075105Y-100248803D01*
X135054037Y-100266093D01*
X134985032Y-100350176D01*
X134933756Y-100446107D01*
X134902181Y-100550197D01*
X134894190Y-100631329D01*
X134894190Y-100631336D01*
X134891520Y-100658446D01*
X134894190Y-100685557D01*
X134894191Y-103364716D01*
X132884908Y-105374000D01*
X132769400Y-105374000D01*
X132513220Y-105424957D01*
X132322799Y-105503832D01*
X132322799Y-105459577D01*
X132417028Y-105365348D01*
X132496917Y-105245785D01*
X132551946Y-105112933D01*
X132580000Y-104971899D01*
X132580000Y-104828101D01*
X132551946Y-104687067D01*
X132496917Y-104554215D01*
X132417028Y-104434652D01*
X132315348Y-104332972D01*
X132195785Y-104253083D01*
X132062933Y-104198054D01*
X131921899Y-104170000D01*
X131778101Y-104170000D01*
X131637067Y-104198054D01*
X131504215Y-104253083D01*
X131384652Y-104332972D01*
X131282972Y-104434652D01*
X131203083Y-104554215D01*
X131160292Y-104657522D01*
X129753000Y-103250230D01*
X129753000Y-103019886D01*
X129780998Y-103054002D01*
X129937227Y-103182215D01*
X130115467Y-103277487D01*
X130308869Y-103336154D01*
X130459600Y-103351000D01*
X130960400Y-103351000D01*
X131111131Y-103336154D01*
X131304533Y-103277487D01*
X131482773Y-103182215D01*
X131639002Y-103054002D01*
X131767215Y-102897773D01*
X131862487Y-102719533D01*
X131921154Y-102526131D01*
X131940964Y-102325000D01*
X131921154Y-102123869D01*
X131862487Y-101930467D01*
X131767215Y-101752227D01*
X131639002Y-101595998D01*
X131482773Y-101467785D01*
X131304533Y-101372513D01*
X131111131Y-101313846D01*
X130960400Y-101299000D01*
X130459600Y-101299000D01*
X130308869Y-101313846D01*
X130115467Y-101372513D01*
X129937227Y-101467785D01*
X129780998Y-101595998D01*
X129753000Y-101630114D01*
X129753000Y-98179886D01*
X129780998Y-98214002D01*
X129937227Y-98342215D01*
X130115467Y-98437487D01*
X130308869Y-98496154D01*
X130459600Y-98511000D01*
X130960400Y-98511000D01*
X131111131Y-98496154D01*
X131304533Y-98437487D01*
X131482773Y-98342215D01*
X131639002Y-98214002D01*
X131767215Y-98057773D01*
X131862487Y-97879533D01*
X131921154Y-97686131D01*
X131940964Y-97485000D01*
X131921154Y-97283869D01*
X131896623Y-97203000D01*
X132257274Y-97203000D01*
X132300284Y-97255408D01*
G04 #@! TA.AperFunction,Conductor*
D25*
G36*
X132300284Y-97255408D02*
G01*
X132369592Y-97324716D01*
X132442072Y-97384199D01*
X132523571Y-97438655D01*
X132606266Y-97482856D01*
X132696822Y-97520365D01*
X132786546Y-97547583D01*
X132882679Y-97566705D01*
X132975991Y-97575895D01*
X133000550Y-97575895D01*
X133025000Y-97578303D01*
X133525000Y-97578303D01*
X133549450Y-97575895D01*
X133574009Y-97575895D01*
X133667321Y-97566705D01*
X133763454Y-97547583D01*
X133853178Y-97520365D01*
X133943734Y-97482856D01*
X134026429Y-97438655D01*
X134107928Y-97384199D01*
X134180408Y-97324716D01*
X134249716Y-97255408D01*
X134292726Y-97203000D01*
X134571697Y-97203000D01*
X134571697Y-98450000D01*
X134580887Y-98543312D01*
X134608106Y-98633039D01*
X134652306Y-98715731D01*
X134711789Y-98788211D01*
X134784269Y-98847694D01*
X134866961Y-98891894D01*
X134956688Y-98919113D01*
X135050000Y-98928303D01*
X135545000Y-98928303D01*
X135545000Y-98971899D01*
X135573054Y-99112933D01*
X135628083Y-99245785D01*
X135707972Y-99365348D01*
X135809652Y-99467028D01*
X135846893Y-99491911D01*
X135839167Y-99496041D01*
X135755084Y-99565046D01*
X135737798Y-99586109D01*
X135075105Y-100248803D01*
X135054037Y-100266093D01*
X134985032Y-100350176D01*
X134933756Y-100446107D01*
X134902181Y-100550197D01*
X134894190Y-100631329D01*
X134894190Y-100631336D01*
X134891520Y-100658446D01*
X134894190Y-100685557D01*
X134894191Y-103364716D01*
X132884908Y-105374000D01*
X132769400Y-105374000D01*
X132513220Y-105424957D01*
X132322799Y-105503832D01*
X132322799Y-105459577D01*
X132417028Y-105365348D01*
X132496917Y-105245785D01*
X132551946Y-105112933D01*
X132580000Y-104971899D01*
X132580000Y-104828101D01*
X132551946Y-104687067D01*
X132496917Y-104554215D01*
X132417028Y-104434652D01*
X132315348Y-104332972D01*
X132195785Y-104253083D01*
X132062933Y-104198054D01*
X131921899Y-104170000D01*
X131778101Y-104170000D01*
X131637067Y-104198054D01*
X131504215Y-104253083D01*
X131384652Y-104332972D01*
X131282972Y-104434652D01*
X131203083Y-104554215D01*
X131160292Y-104657522D01*
X129753000Y-103250230D01*
X129753000Y-103019886D01*
X129780998Y-103054002D01*
X129937227Y-103182215D01*
X130115467Y-103277487D01*
X130308869Y-103336154D01*
X130459600Y-103351000D01*
X130960400Y-103351000D01*
X131111131Y-103336154D01*
X131304533Y-103277487D01*
X131482773Y-103182215D01*
X131639002Y-103054002D01*
X131767215Y-102897773D01*
X131862487Y-102719533D01*
X131921154Y-102526131D01*
X131940964Y-102325000D01*
X131921154Y-102123869D01*
X131862487Y-101930467D01*
X131767215Y-101752227D01*
X131639002Y-101595998D01*
X131482773Y-101467785D01*
X131304533Y-101372513D01*
X131111131Y-101313846D01*
X130960400Y-101299000D01*
X130459600Y-101299000D01*
X130308869Y-101313846D01*
X130115467Y-101372513D01*
X129937227Y-101467785D01*
X129780998Y-101595998D01*
X129753000Y-101630114D01*
X129753000Y-98179886D01*
X129780998Y-98214002D01*
X129937227Y-98342215D01*
X130115467Y-98437487D01*
X130308869Y-98496154D01*
X130459600Y-98511000D01*
X130960400Y-98511000D01*
X131111131Y-98496154D01*
X131304533Y-98437487D01*
X131482773Y-98342215D01*
X131639002Y-98214002D01*
X131767215Y-98057773D01*
X131862487Y-97879533D01*
X131921154Y-97686131D01*
X131940964Y-97485000D01*
X131921154Y-97283869D01*
X131896623Y-97203000D01*
X132257274Y-97203000D01*
X132300284Y-97255408D01*
G37*
G04 #@! TD.AperFunction*
D24*
X131691789Y-90271789D02*
X131632306Y-90344269D01*
X131588106Y-90426961D01*
X131560887Y-90516688D01*
X131551697Y-90610000D01*
X131551697Y-92310000D01*
X131560887Y-92403312D01*
X131588106Y-92493039D01*
X131632306Y-92575731D01*
X131691789Y-92648211D01*
X131764269Y-92707694D01*
X131846961Y-92751894D01*
X131936688Y-92779113D01*
X132030000Y-92788303D01*
X133730000Y-92788303D01*
X133823312Y-92779113D01*
X133913039Y-92751894D01*
X133995731Y-92707694D01*
X134068211Y-92648211D01*
X134127694Y-92575731D01*
X134171894Y-92493039D01*
X134199113Y-92403312D01*
X134208303Y-92310000D01*
X134208303Y-91999710D01*
X134244914Y-92088097D01*
X134390029Y-92305276D01*
X134574724Y-92489971D01*
X134791903Y-92635086D01*
X135033220Y-92735043D01*
X135289400Y-92786000D01*
X135550600Y-92786000D01*
X135806780Y-92735043D01*
X135882677Y-92703605D01*
X136698582Y-93519511D01*
X136715869Y-93540575D01*
X136799952Y-93609580D01*
X136895882Y-93660856D01*
X136999972Y-93692431D01*
X137081104Y-93700422D01*
X137081113Y-93700422D01*
X137108221Y-93703092D01*
X137135329Y-93700422D01*
X138720000Y-93700422D01*
X138720000Y-93746899D01*
X138748054Y-93887933D01*
X138803083Y-94020785D01*
X138882972Y-94140348D01*
X138984652Y-94242028D01*
X139104215Y-94321917D01*
X139237067Y-94376946D01*
X139378101Y-94405000D01*
X139521899Y-94405000D01*
X139662933Y-94376946D01*
X139795785Y-94321917D01*
X139915348Y-94242028D01*
X139930176Y-94227200D01*
X143182682Y-94227200D01*
X144720000Y-95764518D01*
X144720000Y-95785489D01*
X144748054Y-95926523D01*
X144803083Y-96059375D01*
X144864583Y-96151417D01*
X144777731Y-96159971D01*
X144648141Y-96199281D01*
X144528710Y-96263118D01*
X144500000Y-96286680D01*
X144471290Y-96263118D01*
X144351859Y-96199281D01*
X144222269Y-96159971D01*
X144087500Y-96146697D01*
X144040126Y-96146697D01*
X143523750Y-95630322D01*
X143523750Y-95609351D01*
X143495696Y-95468317D01*
X143440667Y-95335465D01*
X143360778Y-95215902D01*
X143259098Y-95114222D01*
X143139535Y-95034333D01*
X143006683Y-94979304D01*
X142865649Y-94951250D01*
X142721851Y-94951250D01*
X142580817Y-94979304D01*
X142447965Y-95034333D01*
X142328402Y-95114222D01*
X142226722Y-95215902D01*
X142146833Y-95335465D01*
X142091804Y-95468317D01*
X142063750Y-95609351D01*
X142063750Y-95753149D01*
X142091804Y-95894183D01*
X142146833Y-96027035D01*
X142226722Y-96146598D01*
X142328402Y-96248278D01*
X142447965Y-96328167D01*
X142580817Y-96383196D01*
X142721851Y-96411250D01*
X142742822Y-96411250D01*
X142745646Y-96414075D01*
X142713118Y-96453710D01*
X142649281Y-96573141D01*
X142609971Y-96702731D01*
X142596697Y-96837500D01*
X142596697Y-97002672D01*
X142547227Y-96997800D01*
X142547219Y-96997800D01*
X142520109Y-96995130D01*
X142492999Y-96997800D01*
X140528729Y-96997800D01*
X137509643Y-93978715D01*
X137492353Y-93957647D01*
X137408270Y-93888642D01*
X137312340Y-93837366D01*
X137208250Y-93805791D01*
X137127118Y-93797800D01*
X137127110Y-93797800D01*
X137100000Y-93795130D01*
X137072890Y-93797800D01*
X135502118Y-93797800D01*
X135475000Y-93795129D01*
X135411768Y-93801357D01*
X135366750Y-93805791D01*
X135262660Y-93837366D01*
X135166730Y-93888642D01*
X135082647Y-93957647D01*
X135065357Y-93978715D01*
X134316329Y-94727743D01*
X134309199Y-94717072D01*
X134249716Y-94644592D01*
X134180408Y-94575284D01*
X134107928Y-94515801D01*
X134026429Y-94461345D01*
X133943734Y-94417144D01*
X133853178Y-94379635D01*
X133763454Y-94352417D01*
X133667321Y-94333295D01*
X133574009Y-94324105D01*
X133549450Y-94324105D01*
X133525000Y-94321697D01*
X133025000Y-94321697D01*
X133000550Y-94324105D01*
X132975991Y-94324105D01*
X132882679Y-94333295D01*
X132786546Y-94352417D01*
X132696822Y-94379635D01*
X132606266Y-94417144D01*
X132523571Y-94461345D01*
X132442072Y-94515801D01*
X132369592Y-94575284D01*
X132300284Y-94644592D01*
X132240801Y-94717072D01*
X132186345Y-94798571D01*
X132142144Y-94881266D01*
X132104635Y-94971822D01*
X132077417Y-95061546D01*
X132058295Y-95157679D01*
X132049105Y-95250991D01*
X132049105Y-95275550D01*
X132046697Y-95300000D01*
X132046697Y-95800000D01*
X132055887Y-95893312D01*
X132073084Y-95950000D01*
X132058826Y-95997000D01*
X129779607Y-95997000D01*
X129749999Y-95994084D01*
X129720391Y-95997000D01*
X129720384Y-95997000D01*
X129642998Y-96004622D01*
X129631790Y-96005726D01*
X129612331Y-96011629D01*
X129518126Y-96040206D01*
X129413371Y-96096198D01*
X129321552Y-96171552D01*
X129302669Y-96194561D01*
X128887801Y-96609429D01*
X128846652Y-96532445D01*
X128702818Y-96357182D01*
X128527555Y-96213348D01*
X128327600Y-96106470D01*
X128110635Y-96040654D01*
X127941543Y-96024000D01*
X127478457Y-96024000D01*
X127309365Y-96040654D01*
X127092400Y-96106470D01*
X127062200Y-96122612D01*
X127062200Y-94410176D01*
X127077028Y-94395348D01*
X127156917Y-94275785D01*
X127211946Y-94142933D01*
X127240000Y-94001899D01*
X127240000Y-93858101D01*
X127211946Y-93717067D01*
X127156917Y-93584215D01*
X127077028Y-93464652D01*
X126975348Y-93362972D01*
X126855785Y-93283083D01*
X126722933Y-93228054D01*
X126581899Y-93200000D01*
X126438101Y-93200000D01*
X126297067Y-93228054D01*
X126164215Y-93283083D01*
X126140551Y-93298895D01*
X126136593Y-92293642D01*
X126342389Y-92378885D01*
X126579250Y-92426000D01*
X126820750Y-92426000D01*
X127057611Y-92378885D01*
X127280729Y-92286467D01*
X127481529Y-92152296D01*
X127652296Y-91981529D01*
X127786467Y-91780729D01*
X127878885Y-91557611D01*
X127926000Y-91320750D01*
X127926000Y-91079250D01*
X127878885Y-90842389D01*
X127786467Y-90619271D01*
X127652296Y-90418471D01*
X127508280Y-90274455D01*
X131701534Y-90263791D01*
X131691789Y-90271789D01*
G04 #@! TA.AperFunction,Conductor*
D25*
G36*
X131691789Y-90271789D02*
G01*
X131632306Y-90344269D01*
X131588106Y-90426961D01*
X131560887Y-90516688D01*
X131551697Y-90610000D01*
X131551697Y-92310000D01*
X131560887Y-92403312D01*
X131588106Y-92493039D01*
X131632306Y-92575731D01*
X131691789Y-92648211D01*
X131764269Y-92707694D01*
X131846961Y-92751894D01*
X131936688Y-92779113D01*
X132030000Y-92788303D01*
X133730000Y-92788303D01*
X133823312Y-92779113D01*
X133913039Y-92751894D01*
X133995731Y-92707694D01*
X134068211Y-92648211D01*
X134127694Y-92575731D01*
X134171894Y-92493039D01*
X134199113Y-92403312D01*
X134208303Y-92310000D01*
X134208303Y-91999710D01*
X134244914Y-92088097D01*
X134390029Y-92305276D01*
X134574724Y-92489971D01*
X134791903Y-92635086D01*
X135033220Y-92735043D01*
X135289400Y-92786000D01*
X135550600Y-92786000D01*
X135806780Y-92735043D01*
X135882677Y-92703605D01*
X136698582Y-93519511D01*
X136715869Y-93540575D01*
X136799952Y-93609580D01*
X136895882Y-93660856D01*
X136999972Y-93692431D01*
X137081104Y-93700422D01*
X137081113Y-93700422D01*
X137108221Y-93703092D01*
X137135329Y-93700422D01*
X138720000Y-93700422D01*
X138720000Y-93746899D01*
X138748054Y-93887933D01*
X138803083Y-94020785D01*
X138882972Y-94140348D01*
X138984652Y-94242028D01*
X139104215Y-94321917D01*
X139237067Y-94376946D01*
X139378101Y-94405000D01*
X139521899Y-94405000D01*
X139662933Y-94376946D01*
X139795785Y-94321917D01*
X139915348Y-94242028D01*
X139930176Y-94227200D01*
X143182682Y-94227200D01*
X144720000Y-95764518D01*
X144720000Y-95785489D01*
X144748054Y-95926523D01*
X144803083Y-96059375D01*
X144864583Y-96151417D01*
X144777731Y-96159971D01*
X144648141Y-96199281D01*
X144528710Y-96263118D01*
X144500000Y-96286680D01*
X144471290Y-96263118D01*
X144351859Y-96199281D01*
X144222269Y-96159971D01*
X144087500Y-96146697D01*
X144040126Y-96146697D01*
X143523750Y-95630322D01*
X143523750Y-95609351D01*
X143495696Y-95468317D01*
X143440667Y-95335465D01*
X143360778Y-95215902D01*
X143259098Y-95114222D01*
X143139535Y-95034333D01*
X143006683Y-94979304D01*
X142865649Y-94951250D01*
X142721851Y-94951250D01*
X142580817Y-94979304D01*
X142447965Y-95034333D01*
X142328402Y-95114222D01*
X142226722Y-95215902D01*
X142146833Y-95335465D01*
X142091804Y-95468317D01*
X142063750Y-95609351D01*
X142063750Y-95753149D01*
X142091804Y-95894183D01*
X142146833Y-96027035D01*
X142226722Y-96146598D01*
X142328402Y-96248278D01*
X142447965Y-96328167D01*
X142580817Y-96383196D01*
X142721851Y-96411250D01*
X142742822Y-96411250D01*
X142745646Y-96414075D01*
X142713118Y-96453710D01*
X142649281Y-96573141D01*
X142609971Y-96702731D01*
X142596697Y-96837500D01*
X142596697Y-97002672D01*
X142547227Y-96997800D01*
X142547219Y-96997800D01*
X142520109Y-96995130D01*
X142492999Y-96997800D01*
X140528729Y-96997800D01*
X137509643Y-93978715D01*
X137492353Y-93957647D01*
X137408270Y-93888642D01*
X137312340Y-93837366D01*
X137208250Y-93805791D01*
X137127118Y-93797800D01*
X137127110Y-93797800D01*
X137100000Y-93795130D01*
X137072890Y-93797800D01*
X135502118Y-93797800D01*
X135475000Y-93795129D01*
X135411768Y-93801357D01*
X135366750Y-93805791D01*
X135262660Y-93837366D01*
X135166730Y-93888642D01*
X135082647Y-93957647D01*
X135065357Y-93978715D01*
X134316329Y-94727743D01*
X134309199Y-94717072D01*
X134249716Y-94644592D01*
X134180408Y-94575284D01*
X134107928Y-94515801D01*
X134026429Y-94461345D01*
X133943734Y-94417144D01*
X133853178Y-94379635D01*
X133763454Y-94352417D01*
X133667321Y-94333295D01*
X133574009Y-94324105D01*
X133549450Y-94324105D01*
X133525000Y-94321697D01*
X133025000Y-94321697D01*
X133000550Y-94324105D01*
X132975991Y-94324105D01*
X132882679Y-94333295D01*
X132786546Y-94352417D01*
X132696822Y-94379635D01*
X132606266Y-94417144D01*
X132523571Y-94461345D01*
X132442072Y-94515801D01*
X132369592Y-94575284D01*
X132300284Y-94644592D01*
X132240801Y-94717072D01*
X132186345Y-94798571D01*
X132142144Y-94881266D01*
X132104635Y-94971822D01*
X132077417Y-95061546D01*
X132058295Y-95157679D01*
X132049105Y-95250991D01*
X132049105Y-95275550D01*
X132046697Y-95300000D01*
X132046697Y-95800000D01*
X132055887Y-95893312D01*
X132073084Y-95950000D01*
X132058826Y-95997000D01*
X129779607Y-95997000D01*
X129749999Y-95994084D01*
X129720391Y-95997000D01*
X129720384Y-95997000D01*
X129642998Y-96004622D01*
X129631790Y-96005726D01*
X129612331Y-96011629D01*
X129518126Y-96040206D01*
X129413371Y-96096198D01*
X129321552Y-96171552D01*
X129302669Y-96194561D01*
X128887801Y-96609429D01*
X128846652Y-96532445D01*
X128702818Y-96357182D01*
X128527555Y-96213348D01*
X128327600Y-96106470D01*
X128110635Y-96040654D01*
X127941543Y-96024000D01*
X127478457Y-96024000D01*
X127309365Y-96040654D01*
X127092400Y-96106470D01*
X127062200Y-96122612D01*
X127062200Y-94410176D01*
X127077028Y-94395348D01*
X127156917Y-94275785D01*
X127211946Y-94142933D01*
X127240000Y-94001899D01*
X127240000Y-93858101D01*
X127211946Y-93717067D01*
X127156917Y-93584215D01*
X127077028Y-93464652D01*
X126975348Y-93362972D01*
X126855785Y-93283083D01*
X126722933Y-93228054D01*
X126581899Y-93200000D01*
X126438101Y-93200000D01*
X126297067Y-93228054D01*
X126164215Y-93283083D01*
X126140551Y-93298895D01*
X126136593Y-92293642D01*
X126342389Y-92378885D01*
X126579250Y-92426000D01*
X126820750Y-92426000D01*
X127057611Y-92378885D01*
X127280729Y-92286467D01*
X127481529Y-92152296D01*
X127652296Y-91981529D01*
X127786467Y-91780729D01*
X127878885Y-91557611D01*
X127926000Y-91320750D01*
X127926000Y-91079250D01*
X127878885Y-90842389D01*
X127786467Y-90619271D01*
X127652296Y-90418471D01*
X127508280Y-90274455D01*
X131701534Y-90263791D01*
X131691789Y-90271789D01*
G37*
G04 #@! TD.AperFunction*
M02*
