G04 #@! TF.GenerationSoftware,KiCad,Pcbnew,(5.1.8-0-10_14)*
G04 #@! TF.CreationDate,2021-01-26T20:48:40-08:00*
G04 #@! TF.ProjectId,Compact,436f6d70-6163-4742-9e6b-696361645f70,rev?*
G04 #@! TF.SameCoordinates,Original*
G04 #@! TF.FileFunction,Soldermask,Top*
G04 #@! TF.FilePolarity,Negative*
%FSLAX46Y46*%
G04 Gerber Fmt 4.6, Leading zero omitted, Abs format (unit mm)*
G04 Created by KiCad (PCBNEW (5.1.8-0-10_14)) date 2021-01-26 20:48:40*
%MOMM*%
%LPD*%
G01*
G04 APERTURE LIST*
%ADD10O,1.851600X1.301600*%
%ADD11C,1.601600*%
%ADD12O,1.801600X1.801600*%
%ADD13O,1.801600X1.451600*%
%ADD14O,1.601600X1.201600*%
G04 APERTURE END LIST*
G36*
G01*
X135300000Y-101095800D02*
X134600000Y-101095800D01*
G75*
G02*
X134549200Y-101045000I0J50800D01*
G01*
X134549200Y-100595000D01*
G75*
G02*
X134600000Y-100544200I50800J0D01*
G01*
X135300000Y-100544200D01*
G75*
G02*
X135350800Y-100595000I0J-50800D01*
G01*
X135350800Y-101045000D01*
G75*
G02*
X135300000Y-101095800I-50800J0D01*
G01*
G37*
G36*
G01*
X135300000Y-99795800D02*
X134600000Y-99795800D01*
G75*
G02*
X134549200Y-99745000I0J50800D01*
G01*
X134549200Y-99295000D01*
G75*
G02*
X134600000Y-99244200I50800J0D01*
G01*
X135300000Y-99244200D01*
G75*
G02*
X135350800Y-99295000I0J-50800D01*
G01*
X135350800Y-99745000D01*
G75*
G02*
X135300000Y-99795800I-50800J0D01*
G01*
G37*
G36*
G01*
X133300000Y-100445800D02*
X132600000Y-100445800D01*
G75*
G02*
X132549200Y-100395000I0J50800D01*
G01*
X132549200Y-99945000D01*
G75*
G02*
X132600000Y-99894200I50800J0D01*
G01*
X133300000Y-99894200D01*
G75*
G02*
X133350800Y-99945000I0J-50800D01*
G01*
X133350800Y-100395000D01*
G75*
G02*
X133300000Y-100445800I-50800J0D01*
G01*
G37*
G36*
G01*
X134835000Y-97775800D02*
X134585000Y-97775800D01*
G75*
G02*
X134534200Y-97725000I0J50800D01*
G01*
X134534200Y-97125000D01*
G75*
G02*
X134585000Y-97074200I50800J0D01*
G01*
X134835000Y-97074200D01*
G75*
G02*
X134885800Y-97125000I0J-50800D01*
G01*
X134885800Y-97725000D01*
G75*
G02*
X134835000Y-97775800I-50800J0D01*
G01*
G37*
G36*
G01*
X134835000Y-96175800D02*
X134585000Y-96175800D01*
G75*
G02*
X134534200Y-96125000I0J50800D01*
G01*
X134534200Y-95525000D01*
G75*
G02*
X134585000Y-95474200I50800J0D01*
G01*
X134835000Y-95474200D01*
G75*
G02*
X134885800Y-95525000I0J-50800D01*
G01*
X134885800Y-96125000D01*
G75*
G02*
X134835000Y-96175800I-50800J0D01*
G01*
G37*
G36*
G01*
X135159200Y-96025000D02*
X135159200Y-95625000D01*
G75*
G02*
X135210000Y-95574200I50800J0D01*
G01*
X135910000Y-95574200D01*
G75*
G02*
X135960800Y-95625000I0J-50800D01*
G01*
X135960800Y-96025000D01*
G75*
G02*
X135910000Y-96075800I-50800J0D01*
G01*
X135210000Y-96075800D01*
G75*
G02*
X135159200Y-96025000I0J50800D01*
G01*
G37*
G36*
G01*
X135159200Y-97625000D02*
X135159200Y-97225000D01*
G75*
G02*
X135210000Y-97174200I50800J0D01*
G01*
X135910000Y-97174200D01*
G75*
G02*
X135960800Y-97225000I0J-50800D01*
G01*
X135960800Y-97625000D01*
G75*
G02*
X135910000Y-97675800I-50800J0D01*
G01*
X135210000Y-97675800D01*
G75*
G02*
X135159200Y-97625000I0J50800D01*
G01*
G37*
G36*
G01*
X135109200Y-96800000D02*
X135109200Y-96450000D01*
G75*
G02*
X135160000Y-96399200I50800J0D01*
G01*
X135960000Y-96399200D01*
G75*
G02*
X136010800Y-96450000I0J-50800D01*
G01*
X136010800Y-96800000D01*
G75*
G02*
X135960000Y-96850800I-50800J0D01*
G01*
X135160000Y-96850800D01*
G75*
G02*
X135109200Y-96800000I0J50800D01*
G01*
G37*
G36*
G01*
X133459200Y-97625000D02*
X133459200Y-97225000D01*
G75*
G02*
X133510000Y-97174200I50800J0D01*
G01*
X134210000Y-97174200D01*
G75*
G02*
X134260800Y-97225000I0J-50800D01*
G01*
X134260800Y-97625000D01*
G75*
G02*
X134210000Y-97675800I-50800J0D01*
G01*
X133510000Y-97675800D01*
G75*
G02*
X133459200Y-97625000I0J50800D01*
G01*
G37*
G36*
G01*
X133409200Y-96800000D02*
X133409200Y-96450000D01*
G75*
G02*
X133460000Y-96399200I50800J0D01*
G01*
X134260000Y-96399200D01*
G75*
G02*
X134310800Y-96450000I0J-50800D01*
G01*
X134310800Y-96800000D01*
G75*
G02*
X134260000Y-96850800I-50800J0D01*
G01*
X133460000Y-96850800D01*
G75*
G02*
X133409200Y-96800000I0J50800D01*
G01*
G37*
G36*
G01*
X133459200Y-96025000D02*
X133459200Y-95625000D01*
G75*
G02*
X133510000Y-95574200I50800J0D01*
G01*
X134210000Y-95574200D01*
G75*
G02*
X134260800Y-95625000I0J-50800D01*
G01*
X134260800Y-96025000D01*
G75*
G02*
X134210000Y-96075800I-50800J0D01*
G01*
X133510000Y-96075800D01*
G75*
G02*
X133459200Y-96025000I0J50800D01*
G01*
G37*
D10*
X159900000Y-96850000D03*
G36*
G01*
X160554635Y-99500800D02*
X159245365Y-99500800D01*
G75*
G02*
X158974200Y-99229635I0J271165D01*
G01*
X158974200Y-98470365D01*
G75*
G02*
X159245365Y-98199200I271165J0D01*
G01*
X160554635Y-98199200D01*
G75*
G02*
X160825800Y-98470365I0J-271165D01*
G01*
X160825800Y-99229635D01*
G75*
G02*
X160554635Y-99500800I-271165J0D01*
G01*
G37*
G36*
G01*
X156850000Y-100024200D02*
X157300000Y-100024200D01*
G75*
G02*
X157350800Y-100075000I0J-50800D01*
G01*
X157350800Y-100675000D01*
G75*
G02*
X157300000Y-100725800I-50800J0D01*
G01*
X156850000Y-100725800D01*
G75*
G02*
X156799200Y-100675000I0J50800D01*
G01*
X156799200Y-100075000D01*
G75*
G02*
X156850000Y-100024200I50800J0D01*
G01*
G37*
G36*
G01*
X156850000Y-97924200D02*
X157300000Y-97924200D01*
G75*
G02*
X157350800Y-97975000I0J-50800D01*
G01*
X157350800Y-98575000D01*
G75*
G02*
X157300000Y-98625800I-50800J0D01*
G01*
X156850000Y-98625800D01*
G75*
G02*
X156799200Y-98575000I0J50800D01*
G01*
X156799200Y-97975000D01*
G75*
G02*
X156850000Y-97924200I50800J0D01*
G01*
G37*
G36*
G01*
X156850000Y-96824200D02*
X157300000Y-96824200D01*
G75*
G02*
X157350800Y-96875000I0J-50800D01*
G01*
X157350800Y-97475000D01*
G75*
G02*
X157300000Y-97525800I-50800J0D01*
G01*
X156850000Y-97525800D01*
G75*
G02*
X156799200Y-97475000I0J50800D01*
G01*
X156799200Y-96875000D01*
G75*
G02*
X156850000Y-96824200I50800J0D01*
G01*
G37*
G36*
G01*
X156850000Y-94724200D02*
X157300000Y-94724200D01*
G75*
G02*
X157350800Y-94775000I0J-50800D01*
G01*
X157350800Y-95375000D01*
G75*
G02*
X157300000Y-95425800I-50800J0D01*
G01*
X156850000Y-95425800D01*
G75*
G02*
X156799200Y-95375000I0J50800D01*
G01*
X156799200Y-94775000D01*
G75*
G02*
X156850000Y-94724200I50800J0D01*
G01*
G37*
D11*
X126725000Y-107400000D03*
X164595000Y-107355000D03*
X126700000Y-90850000D03*
X164580000Y-90590000D03*
G36*
G01*
X139774200Y-97750000D02*
X139774200Y-97450000D01*
G75*
G02*
X139825000Y-97399200I50800J0D01*
G01*
X140575000Y-97399200D01*
G75*
G02*
X140625800Y-97450000I0J-50800D01*
G01*
X140625800Y-97750000D01*
G75*
G02*
X140575000Y-97800800I-50800J0D01*
G01*
X139825000Y-97800800D01*
G75*
G02*
X139774200Y-97750000I0J50800D01*
G01*
G37*
G36*
G01*
X139774200Y-98250000D02*
X139774200Y-97950000D01*
G75*
G02*
X139825000Y-97899200I50800J0D01*
G01*
X140575000Y-97899200D01*
G75*
G02*
X140625800Y-97950000I0J-50800D01*
G01*
X140625800Y-98250000D01*
G75*
G02*
X140575000Y-98300800I-50800J0D01*
G01*
X139825000Y-98300800D01*
G75*
G02*
X139774200Y-98250000I0J50800D01*
G01*
G37*
G36*
G01*
X139774200Y-98750000D02*
X139774200Y-98450000D01*
G75*
G02*
X139825000Y-98399200I50800J0D01*
G01*
X140575000Y-98399200D01*
G75*
G02*
X140625800Y-98450000I0J-50800D01*
G01*
X140625800Y-98750000D01*
G75*
G02*
X140575000Y-98800800I-50800J0D01*
G01*
X139825000Y-98800800D01*
G75*
G02*
X139774200Y-98750000I0J50800D01*
G01*
G37*
G36*
G01*
X139774200Y-99250000D02*
X139774200Y-98950000D01*
G75*
G02*
X139825000Y-98899200I50800J0D01*
G01*
X140575000Y-98899200D01*
G75*
G02*
X140625800Y-98950000I0J-50800D01*
G01*
X140625800Y-99250000D01*
G75*
G02*
X140575000Y-99300800I-50800J0D01*
G01*
X139825000Y-99300800D01*
G75*
G02*
X139774200Y-99250000I0J50800D01*
G01*
G37*
G36*
G01*
X136874200Y-99250000D02*
X136874200Y-98950000D01*
G75*
G02*
X136925000Y-98899200I50800J0D01*
G01*
X137675000Y-98899200D01*
G75*
G02*
X137725800Y-98950000I0J-50800D01*
G01*
X137725800Y-99250000D01*
G75*
G02*
X137675000Y-99300800I-50800J0D01*
G01*
X136925000Y-99300800D01*
G75*
G02*
X136874200Y-99250000I0J50800D01*
G01*
G37*
G36*
G01*
X136874200Y-98750000D02*
X136874200Y-98450000D01*
G75*
G02*
X136925000Y-98399200I50800J0D01*
G01*
X137675000Y-98399200D01*
G75*
G02*
X137725800Y-98450000I0J-50800D01*
G01*
X137725800Y-98750000D01*
G75*
G02*
X137675000Y-98800800I-50800J0D01*
G01*
X136925000Y-98800800D01*
G75*
G02*
X136874200Y-98750000I0J50800D01*
G01*
G37*
G36*
G01*
X136874200Y-98250000D02*
X136874200Y-97950000D01*
G75*
G02*
X136925000Y-97899200I50800J0D01*
G01*
X137675000Y-97899200D01*
G75*
G02*
X137725800Y-97950000I0J-50800D01*
G01*
X137725800Y-98250000D01*
G75*
G02*
X137675000Y-98300800I-50800J0D01*
G01*
X136925000Y-98300800D01*
G75*
G02*
X136874200Y-98250000I0J50800D01*
G01*
G37*
G36*
G01*
X136874200Y-97750000D02*
X136874200Y-97450000D01*
G75*
G02*
X136925000Y-97399200I50800J0D01*
G01*
X137675000Y-97399200D01*
G75*
G02*
X137725800Y-97450000I0J-50800D01*
G01*
X137725800Y-97750000D01*
G75*
G02*
X137675000Y-97800800I-50800J0D01*
G01*
X136925000Y-97800800D01*
G75*
G02*
X136874200Y-97750000I0J50800D01*
G01*
G37*
G36*
G01*
X148575800Y-103462100D02*
X148575800Y-104262900D01*
G75*
G02*
X148487900Y-104350800I-87900J0D01*
G01*
X148312100Y-104350800D01*
G75*
G02*
X148224200Y-104262900I0J87900D01*
G01*
X148224200Y-103462100D01*
G75*
G02*
X148312100Y-103374200I87900J0D01*
G01*
X148487900Y-103374200D01*
G75*
G02*
X148575800Y-103462100I0J-87900D01*
G01*
G37*
G36*
G01*
X148075800Y-103462100D02*
X148075800Y-104262900D01*
G75*
G02*
X147987900Y-104350800I-87900J0D01*
G01*
X147812100Y-104350800D01*
G75*
G02*
X147724200Y-104262900I0J87900D01*
G01*
X147724200Y-103462100D01*
G75*
G02*
X147812100Y-103374200I87900J0D01*
G01*
X147987900Y-103374200D01*
G75*
G02*
X148075800Y-103462100I0J-87900D01*
G01*
G37*
G36*
G01*
X147575800Y-103462100D02*
X147575800Y-104262900D01*
G75*
G02*
X147487900Y-104350800I-87900J0D01*
G01*
X147312100Y-104350800D01*
G75*
G02*
X147224200Y-104262900I0J87900D01*
G01*
X147224200Y-103462100D01*
G75*
G02*
X147312100Y-103374200I87900J0D01*
G01*
X147487900Y-103374200D01*
G75*
G02*
X147575800Y-103462100I0J-87900D01*
G01*
G37*
G36*
G01*
X147075800Y-103462100D02*
X147075800Y-104262900D01*
G75*
G02*
X146987900Y-104350800I-87900J0D01*
G01*
X146812100Y-104350800D01*
G75*
G02*
X146724200Y-104262900I0J87900D01*
G01*
X146724200Y-103462100D01*
G75*
G02*
X146812100Y-103374200I87900J0D01*
G01*
X146987900Y-103374200D01*
G75*
G02*
X147075800Y-103462100I0J-87900D01*
G01*
G37*
G36*
G01*
X146575800Y-103462100D02*
X146575800Y-104262900D01*
G75*
G02*
X146487900Y-104350800I-87900J0D01*
G01*
X146312100Y-104350800D01*
G75*
G02*
X146224200Y-104262900I0J87900D01*
G01*
X146224200Y-103462100D01*
G75*
G02*
X146312100Y-103374200I87900J0D01*
G01*
X146487900Y-103374200D01*
G75*
G02*
X146575800Y-103462100I0J-87900D01*
G01*
G37*
G36*
G01*
X146075800Y-103462100D02*
X146075800Y-104262900D01*
G75*
G02*
X145987900Y-104350800I-87900J0D01*
G01*
X145812100Y-104350800D01*
G75*
G02*
X145724200Y-104262900I0J87900D01*
G01*
X145724200Y-103462100D01*
G75*
G02*
X145812100Y-103374200I87900J0D01*
G01*
X145987900Y-103374200D01*
G75*
G02*
X146075800Y-103462100I0J-87900D01*
G01*
G37*
G36*
G01*
X145575800Y-103462100D02*
X145575800Y-104262900D01*
G75*
G02*
X145487900Y-104350800I-87900J0D01*
G01*
X145312100Y-104350800D01*
G75*
G02*
X145224200Y-104262900I0J87900D01*
G01*
X145224200Y-103462100D01*
G75*
G02*
X145312100Y-103374200I87900J0D01*
G01*
X145487900Y-103374200D01*
G75*
G02*
X145575800Y-103462100I0J-87900D01*
G01*
G37*
G36*
G01*
X145075800Y-103462100D02*
X145075800Y-104262900D01*
G75*
G02*
X144987900Y-104350800I-87900J0D01*
G01*
X144812100Y-104350800D01*
G75*
G02*
X144724200Y-104262900I0J87900D01*
G01*
X144724200Y-103462100D01*
G75*
G02*
X144812100Y-103374200I87900J0D01*
G01*
X144987900Y-103374200D01*
G75*
G02*
X145075800Y-103462100I0J-87900D01*
G01*
G37*
G36*
G01*
X144575800Y-103462100D02*
X144575800Y-104262900D01*
G75*
G02*
X144487900Y-104350800I-87900J0D01*
G01*
X144312100Y-104350800D01*
G75*
G02*
X144224200Y-104262900I0J87900D01*
G01*
X144224200Y-103462100D01*
G75*
G02*
X144312100Y-103374200I87900J0D01*
G01*
X144487900Y-103374200D01*
G75*
G02*
X144575800Y-103462100I0J-87900D01*
G01*
G37*
G36*
G01*
X144075800Y-103462100D02*
X144075800Y-104262900D01*
G75*
G02*
X143987900Y-104350800I-87900J0D01*
G01*
X143812100Y-104350800D01*
G75*
G02*
X143724200Y-104262900I0J87900D01*
G01*
X143724200Y-103462100D01*
G75*
G02*
X143812100Y-103374200I87900J0D01*
G01*
X143987900Y-103374200D01*
G75*
G02*
X144075800Y-103462100I0J-87900D01*
G01*
G37*
G36*
G01*
X143575800Y-103462100D02*
X143575800Y-104262900D01*
G75*
G02*
X143487900Y-104350800I-87900J0D01*
G01*
X143312100Y-104350800D01*
G75*
G02*
X143224200Y-104262900I0J87900D01*
G01*
X143224200Y-103462100D01*
G75*
G02*
X143312100Y-103374200I87900J0D01*
G01*
X143487900Y-103374200D01*
G75*
G02*
X143575800Y-103462100I0J-87900D01*
G01*
G37*
G36*
G01*
X143075800Y-103462100D02*
X143075800Y-104262900D01*
G75*
G02*
X142987900Y-104350800I-87900J0D01*
G01*
X142812100Y-104350800D01*
G75*
G02*
X142724200Y-104262900I0J87900D01*
G01*
X142724200Y-103462100D01*
G75*
G02*
X142812100Y-103374200I87900J0D01*
G01*
X142987900Y-103374200D01*
G75*
G02*
X143075800Y-103462100I0J-87900D01*
G01*
G37*
G36*
G01*
X142700800Y-103087100D02*
X142700800Y-103262900D01*
G75*
G02*
X142612900Y-103350800I-87900J0D01*
G01*
X141812100Y-103350800D01*
G75*
G02*
X141724200Y-103262900I0J87900D01*
G01*
X141724200Y-103087100D01*
G75*
G02*
X141812100Y-102999200I87900J0D01*
G01*
X142612900Y-102999200D01*
G75*
G02*
X142700800Y-103087100I0J-87900D01*
G01*
G37*
G36*
G01*
X142700800Y-102587100D02*
X142700800Y-102762900D01*
G75*
G02*
X142612900Y-102850800I-87900J0D01*
G01*
X141812100Y-102850800D01*
G75*
G02*
X141724200Y-102762900I0J87900D01*
G01*
X141724200Y-102587100D01*
G75*
G02*
X141812100Y-102499200I87900J0D01*
G01*
X142612900Y-102499200D01*
G75*
G02*
X142700800Y-102587100I0J-87900D01*
G01*
G37*
G36*
G01*
X142700800Y-102087100D02*
X142700800Y-102262900D01*
G75*
G02*
X142612900Y-102350800I-87900J0D01*
G01*
X141812100Y-102350800D01*
G75*
G02*
X141724200Y-102262900I0J87900D01*
G01*
X141724200Y-102087100D01*
G75*
G02*
X141812100Y-101999200I87900J0D01*
G01*
X142612900Y-101999200D01*
G75*
G02*
X142700800Y-102087100I0J-87900D01*
G01*
G37*
G36*
G01*
X142700800Y-101587100D02*
X142700800Y-101762900D01*
G75*
G02*
X142612900Y-101850800I-87900J0D01*
G01*
X141812100Y-101850800D01*
G75*
G02*
X141724200Y-101762900I0J87900D01*
G01*
X141724200Y-101587100D01*
G75*
G02*
X141812100Y-101499200I87900J0D01*
G01*
X142612900Y-101499200D01*
G75*
G02*
X142700800Y-101587100I0J-87900D01*
G01*
G37*
G36*
G01*
X142700800Y-101087100D02*
X142700800Y-101262900D01*
G75*
G02*
X142612900Y-101350800I-87900J0D01*
G01*
X141812100Y-101350800D01*
G75*
G02*
X141724200Y-101262900I0J87900D01*
G01*
X141724200Y-101087100D01*
G75*
G02*
X141812100Y-100999200I87900J0D01*
G01*
X142612900Y-100999200D01*
G75*
G02*
X142700800Y-101087100I0J-87900D01*
G01*
G37*
G36*
G01*
X142700800Y-100587100D02*
X142700800Y-100762900D01*
G75*
G02*
X142612900Y-100850800I-87900J0D01*
G01*
X141812100Y-100850800D01*
G75*
G02*
X141724200Y-100762900I0J87900D01*
G01*
X141724200Y-100587100D01*
G75*
G02*
X141812100Y-100499200I87900J0D01*
G01*
X142612900Y-100499200D01*
G75*
G02*
X142700800Y-100587100I0J-87900D01*
G01*
G37*
G36*
G01*
X142700800Y-100087100D02*
X142700800Y-100262900D01*
G75*
G02*
X142612900Y-100350800I-87900J0D01*
G01*
X141812100Y-100350800D01*
G75*
G02*
X141724200Y-100262900I0J87900D01*
G01*
X141724200Y-100087100D01*
G75*
G02*
X141812100Y-99999200I87900J0D01*
G01*
X142612900Y-99999200D01*
G75*
G02*
X142700800Y-100087100I0J-87900D01*
G01*
G37*
G36*
G01*
X142700800Y-99587100D02*
X142700800Y-99762900D01*
G75*
G02*
X142612900Y-99850800I-87900J0D01*
G01*
X141812100Y-99850800D01*
G75*
G02*
X141724200Y-99762900I0J87900D01*
G01*
X141724200Y-99587100D01*
G75*
G02*
X141812100Y-99499200I87900J0D01*
G01*
X142612900Y-99499200D01*
G75*
G02*
X142700800Y-99587100I0J-87900D01*
G01*
G37*
G36*
G01*
X142700800Y-99087100D02*
X142700800Y-99262900D01*
G75*
G02*
X142612900Y-99350800I-87900J0D01*
G01*
X141812100Y-99350800D01*
G75*
G02*
X141724200Y-99262900I0J87900D01*
G01*
X141724200Y-99087100D01*
G75*
G02*
X141812100Y-98999200I87900J0D01*
G01*
X142612900Y-98999200D01*
G75*
G02*
X142700800Y-99087100I0J-87900D01*
G01*
G37*
G36*
G01*
X142700800Y-98587100D02*
X142700800Y-98762900D01*
G75*
G02*
X142612900Y-98850800I-87900J0D01*
G01*
X141812100Y-98850800D01*
G75*
G02*
X141724200Y-98762900I0J87900D01*
G01*
X141724200Y-98587100D01*
G75*
G02*
X141812100Y-98499200I87900J0D01*
G01*
X142612900Y-98499200D01*
G75*
G02*
X142700800Y-98587100I0J-87900D01*
G01*
G37*
G36*
G01*
X142700800Y-98087100D02*
X142700800Y-98262900D01*
G75*
G02*
X142612900Y-98350800I-87900J0D01*
G01*
X141812100Y-98350800D01*
G75*
G02*
X141724200Y-98262900I0J87900D01*
G01*
X141724200Y-98087100D01*
G75*
G02*
X141812100Y-97999200I87900J0D01*
G01*
X142612900Y-97999200D01*
G75*
G02*
X142700800Y-98087100I0J-87900D01*
G01*
G37*
G36*
G01*
X142700800Y-97587100D02*
X142700800Y-97762900D01*
G75*
G02*
X142612900Y-97850800I-87900J0D01*
G01*
X141812100Y-97850800D01*
G75*
G02*
X141724200Y-97762900I0J87900D01*
G01*
X141724200Y-97587100D01*
G75*
G02*
X141812100Y-97499200I87900J0D01*
G01*
X142612900Y-97499200D01*
G75*
G02*
X142700800Y-97587100I0J-87900D01*
G01*
G37*
G36*
G01*
X143075800Y-96587100D02*
X143075800Y-97387900D01*
G75*
G02*
X142987900Y-97475800I-87900J0D01*
G01*
X142812100Y-97475800D01*
G75*
G02*
X142724200Y-97387900I0J87900D01*
G01*
X142724200Y-96587100D01*
G75*
G02*
X142812100Y-96499200I87900J0D01*
G01*
X142987900Y-96499200D01*
G75*
G02*
X143075800Y-96587100I0J-87900D01*
G01*
G37*
G36*
G01*
X143575800Y-96587100D02*
X143575800Y-97387900D01*
G75*
G02*
X143487900Y-97475800I-87900J0D01*
G01*
X143312100Y-97475800D01*
G75*
G02*
X143224200Y-97387900I0J87900D01*
G01*
X143224200Y-96587100D01*
G75*
G02*
X143312100Y-96499200I87900J0D01*
G01*
X143487900Y-96499200D01*
G75*
G02*
X143575800Y-96587100I0J-87900D01*
G01*
G37*
G36*
G01*
X144075800Y-96587100D02*
X144075800Y-97387900D01*
G75*
G02*
X143987900Y-97475800I-87900J0D01*
G01*
X143812100Y-97475800D01*
G75*
G02*
X143724200Y-97387900I0J87900D01*
G01*
X143724200Y-96587100D01*
G75*
G02*
X143812100Y-96499200I87900J0D01*
G01*
X143987900Y-96499200D01*
G75*
G02*
X144075800Y-96587100I0J-87900D01*
G01*
G37*
G36*
G01*
X144575800Y-96587100D02*
X144575800Y-97387900D01*
G75*
G02*
X144487900Y-97475800I-87900J0D01*
G01*
X144312100Y-97475800D01*
G75*
G02*
X144224200Y-97387900I0J87900D01*
G01*
X144224200Y-96587100D01*
G75*
G02*
X144312100Y-96499200I87900J0D01*
G01*
X144487900Y-96499200D01*
G75*
G02*
X144575800Y-96587100I0J-87900D01*
G01*
G37*
G36*
G01*
X145075800Y-96587100D02*
X145075800Y-97387900D01*
G75*
G02*
X144987900Y-97475800I-87900J0D01*
G01*
X144812100Y-97475800D01*
G75*
G02*
X144724200Y-97387900I0J87900D01*
G01*
X144724200Y-96587100D01*
G75*
G02*
X144812100Y-96499200I87900J0D01*
G01*
X144987900Y-96499200D01*
G75*
G02*
X145075800Y-96587100I0J-87900D01*
G01*
G37*
G36*
G01*
X145575800Y-96587100D02*
X145575800Y-97387900D01*
G75*
G02*
X145487900Y-97475800I-87900J0D01*
G01*
X145312100Y-97475800D01*
G75*
G02*
X145224200Y-97387900I0J87900D01*
G01*
X145224200Y-96587100D01*
G75*
G02*
X145312100Y-96499200I87900J0D01*
G01*
X145487900Y-96499200D01*
G75*
G02*
X145575800Y-96587100I0J-87900D01*
G01*
G37*
G36*
G01*
X146075800Y-96587100D02*
X146075800Y-97387900D01*
G75*
G02*
X145987900Y-97475800I-87900J0D01*
G01*
X145812100Y-97475800D01*
G75*
G02*
X145724200Y-97387900I0J87900D01*
G01*
X145724200Y-96587100D01*
G75*
G02*
X145812100Y-96499200I87900J0D01*
G01*
X145987900Y-96499200D01*
G75*
G02*
X146075800Y-96587100I0J-87900D01*
G01*
G37*
G36*
G01*
X146575800Y-96587100D02*
X146575800Y-97387900D01*
G75*
G02*
X146487900Y-97475800I-87900J0D01*
G01*
X146312100Y-97475800D01*
G75*
G02*
X146224200Y-97387900I0J87900D01*
G01*
X146224200Y-96587100D01*
G75*
G02*
X146312100Y-96499200I87900J0D01*
G01*
X146487900Y-96499200D01*
G75*
G02*
X146575800Y-96587100I0J-87900D01*
G01*
G37*
G36*
G01*
X147075800Y-96587100D02*
X147075800Y-97387900D01*
G75*
G02*
X146987900Y-97475800I-87900J0D01*
G01*
X146812100Y-97475800D01*
G75*
G02*
X146724200Y-97387900I0J87900D01*
G01*
X146724200Y-96587100D01*
G75*
G02*
X146812100Y-96499200I87900J0D01*
G01*
X146987900Y-96499200D01*
G75*
G02*
X147075800Y-96587100I0J-87900D01*
G01*
G37*
G36*
G01*
X147575800Y-96587100D02*
X147575800Y-97387900D01*
G75*
G02*
X147487900Y-97475800I-87900J0D01*
G01*
X147312100Y-97475800D01*
G75*
G02*
X147224200Y-97387900I0J87900D01*
G01*
X147224200Y-96587100D01*
G75*
G02*
X147312100Y-96499200I87900J0D01*
G01*
X147487900Y-96499200D01*
G75*
G02*
X147575800Y-96587100I0J-87900D01*
G01*
G37*
G36*
G01*
X148075800Y-96587100D02*
X148075800Y-97387900D01*
G75*
G02*
X147987900Y-97475800I-87900J0D01*
G01*
X147812100Y-97475800D01*
G75*
G02*
X147724200Y-97387900I0J87900D01*
G01*
X147724200Y-96587100D01*
G75*
G02*
X147812100Y-96499200I87900J0D01*
G01*
X147987900Y-96499200D01*
G75*
G02*
X148075800Y-96587100I0J-87900D01*
G01*
G37*
G36*
G01*
X148575800Y-96587100D02*
X148575800Y-97387900D01*
G75*
G02*
X148487900Y-97475800I-87900J0D01*
G01*
X148312100Y-97475800D01*
G75*
G02*
X148224200Y-97387900I0J87900D01*
G01*
X148224200Y-96587100D01*
G75*
G02*
X148312100Y-96499200I87900J0D01*
G01*
X148487900Y-96499200D01*
G75*
G02*
X148575800Y-96587100I0J-87900D01*
G01*
G37*
G36*
G01*
X149575800Y-97587100D02*
X149575800Y-97762900D01*
G75*
G02*
X149487900Y-97850800I-87900J0D01*
G01*
X148687100Y-97850800D01*
G75*
G02*
X148599200Y-97762900I0J87900D01*
G01*
X148599200Y-97587100D01*
G75*
G02*
X148687100Y-97499200I87900J0D01*
G01*
X149487900Y-97499200D01*
G75*
G02*
X149575800Y-97587100I0J-87900D01*
G01*
G37*
G36*
G01*
X149575800Y-98087100D02*
X149575800Y-98262900D01*
G75*
G02*
X149487900Y-98350800I-87900J0D01*
G01*
X148687100Y-98350800D01*
G75*
G02*
X148599200Y-98262900I0J87900D01*
G01*
X148599200Y-98087100D01*
G75*
G02*
X148687100Y-97999200I87900J0D01*
G01*
X149487900Y-97999200D01*
G75*
G02*
X149575800Y-98087100I0J-87900D01*
G01*
G37*
G36*
G01*
X149575800Y-98587100D02*
X149575800Y-98762900D01*
G75*
G02*
X149487900Y-98850800I-87900J0D01*
G01*
X148687100Y-98850800D01*
G75*
G02*
X148599200Y-98762900I0J87900D01*
G01*
X148599200Y-98587100D01*
G75*
G02*
X148687100Y-98499200I87900J0D01*
G01*
X149487900Y-98499200D01*
G75*
G02*
X149575800Y-98587100I0J-87900D01*
G01*
G37*
G36*
G01*
X149575800Y-99087100D02*
X149575800Y-99262900D01*
G75*
G02*
X149487900Y-99350800I-87900J0D01*
G01*
X148687100Y-99350800D01*
G75*
G02*
X148599200Y-99262900I0J87900D01*
G01*
X148599200Y-99087100D01*
G75*
G02*
X148687100Y-98999200I87900J0D01*
G01*
X149487900Y-98999200D01*
G75*
G02*
X149575800Y-99087100I0J-87900D01*
G01*
G37*
G36*
G01*
X149575800Y-99587100D02*
X149575800Y-99762900D01*
G75*
G02*
X149487900Y-99850800I-87900J0D01*
G01*
X148687100Y-99850800D01*
G75*
G02*
X148599200Y-99762900I0J87900D01*
G01*
X148599200Y-99587100D01*
G75*
G02*
X148687100Y-99499200I87900J0D01*
G01*
X149487900Y-99499200D01*
G75*
G02*
X149575800Y-99587100I0J-87900D01*
G01*
G37*
G36*
G01*
X149575800Y-100087100D02*
X149575800Y-100262900D01*
G75*
G02*
X149487900Y-100350800I-87900J0D01*
G01*
X148687100Y-100350800D01*
G75*
G02*
X148599200Y-100262900I0J87900D01*
G01*
X148599200Y-100087100D01*
G75*
G02*
X148687100Y-99999200I87900J0D01*
G01*
X149487900Y-99999200D01*
G75*
G02*
X149575800Y-100087100I0J-87900D01*
G01*
G37*
G36*
G01*
X149575800Y-100587100D02*
X149575800Y-100762900D01*
G75*
G02*
X149487900Y-100850800I-87900J0D01*
G01*
X148687100Y-100850800D01*
G75*
G02*
X148599200Y-100762900I0J87900D01*
G01*
X148599200Y-100587100D01*
G75*
G02*
X148687100Y-100499200I87900J0D01*
G01*
X149487900Y-100499200D01*
G75*
G02*
X149575800Y-100587100I0J-87900D01*
G01*
G37*
G36*
G01*
X149575800Y-101087100D02*
X149575800Y-101262900D01*
G75*
G02*
X149487900Y-101350800I-87900J0D01*
G01*
X148687100Y-101350800D01*
G75*
G02*
X148599200Y-101262900I0J87900D01*
G01*
X148599200Y-101087100D01*
G75*
G02*
X148687100Y-100999200I87900J0D01*
G01*
X149487900Y-100999200D01*
G75*
G02*
X149575800Y-101087100I0J-87900D01*
G01*
G37*
G36*
G01*
X149575800Y-101587100D02*
X149575800Y-101762900D01*
G75*
G02*
X149487900Y-101850800I-87900J0D01*
G01*
X148687100Y-101850800D01*
G75*
G02*
X148599200Y-101762900I0J87900D01*
G01*
X148599200Y-101587100D01*
G75*
G02*
X148687100Y-101499200I87900J0D01*
G01*
X149487900Y-101499200D01*
G75*
G02*
X149575800Y-101587100I0J-87900D01*
G01*
G37*
G36*
G01*
X149575800Y-102087100D02*
X149575800Y-102262900D01*
G75*
G02*
X149487900Y-102350800I-87900J0D01*
G01*
X148687100Y-102350800D01*
G75*
G02*
X148599200Y-102262900I0J87900D01*
G01*
X148599200Y-102087100D01*
G75*
G02*
X148687100Y-101999200I87900J0D01*
G01*
X149487900Y-101999200D01*
G75*
G02*
X149575800Y-102087100I0J-87900D01*
G01*
G37*
G36*
G01*
X149575800Y-102587100D02*
X149575800Y-102762900D01*
G75*
G02*
X149487900Y-102850800I-87900J0D01*
G01*
X148687100Y-102850800D01*
G75*
G02*
X148599200Y-102762900I0J87900D01*
G01*
X148599200Y-102587100D01*
G75*
G02*
X148687100Y-102499200I87900J0D01*
G01*
X149487900Y-102499200D01*
G75*
G02*
X149575800Y-102587100I0J-87900D01*
G01*
G37*
G36*
G01*
X149575800Y-103087100D02*
X149575800Y-103262900D01*
G75*
G02*
X149487900Y-103350800I-87900J0D01*
G01*
X148687100Y-103350800D01*
G75*
G02*
X148599200Y-103262900I0J87900D01*
G01*
X148599200Y-103087100D01*
G75*
G02*
X148687100Y-102999200I87900J0D01*
G01*
X149487900Y-102999200D01*
G75*
G02*
X149575800Y-103087100I0J-87900D01*
G01*
G37*
G36*
G01*
X148500800Y-97828734D02*
X148500800Y-103021266D01*
G75*
G02*
X148246266Y-103275800I-254534J0D01*
G01*
X143053734Y-103275800D01*
G75*
G02*
X142799200Y-103021266I0J254534D01*
G01*
X142799200Y-97828734D01*
G75*
G02*
X143053734Y-97574200I254534J0D01*
G01*
X148246266Y-97574200D01*
G75*
G02*
X148500800Y-97828734I0J-254534D01*
G01*
G37*
G36*
G01*
X159990000Y-105799200D02*
X161690000Y-105799200D01*
G75*
G02*
X161740800Y-105850000I0J-50800D01*
G01*
X161740800Y-107550000D01*
G75*
G02*
X161690000Y-107600800I-50800J0D01*
G01*
X159990000Y-107600800D01*
G75*
G02*
X159939200Y-107550000I0J50800D01*
G01*
X159939200Y-105850000D01*
G75*
G02*
X159990000Y-105799200I50800J0D01*
G01*
G37*
D12*
X158300000Y-106700000D03*
X155760000Y-106700000D03*
X153220000Y-106700000D03*
X150680000Y-106700000D03*
X148140000Y-106700000D03*
X145600000Y-106700000D03*
X143060000Y-106700000D03*
X140520000Y-106700000D03*
X137980000Y-106700000D03*
X135440000Y-106700000D03*
X132900000Y-106700000D03*
X148130000Y-91460000D03*
X150670000Y-91460000D03*
X153210000Y-91460000D03*
X155750000Y-91460000D03*
G36*
G01*
X157440000Y-90559200D02*
X159140000Y-90559200D01*
G75*
G02*
X159190800Y-90610000I0J-50800D01*
G01*
X159190800Y-92310000D01*
G75*
G02*
X159140000Y-92360800I-50800J0D01*
G01*
X157440000Y-92360800D01*
G75*
G02*
X157389200Y-92310000I0J50800D01*
G01*
X157389200Y-90610000D01*
G75*
G02*
X157440000Y-90559200I50800J0D01*
G01*
G37*
G36*
G01*
X153775000Y-94850800D02*
X153075000Y-94850800D01*
G75*
G02*
X153024200Y-94800000I0J50800D01*
G01*
X153024200Y-94350000D01*
G75*
G02*
X153075000Y-94299200I50800J0D01*
G01*
X153775000Y-94299200D01*
G75*
G02*
X153825800Y-94350000I0J-50800D01*
G01*
X153825800Y-94800000D01*
G75*
G02*
X153775000Y-94850800I-50800J0D01*
G01*
G37*
G36*
G01*
X155775000Y-94200800D02*
X155075000Y-94200800D01*
G75*
G02*
X155024200Y-94150000I0J50800D01*
G01*
X155024200Y-93700000D01*
G75*
G02*
X155075000Y-93649200I50800J0D01*
G01*
X155775000Y-93649200D01*
G75*
G02*
X155825800Y-93700000I0J-50800D01*
G01*
X155825800Y-94150000D01*
G75*
G02*
X155775000Y-94200800I-50800J0D01*
G01*
G37*
G36*
G01*
X155775000Y-95500800D02*
X155075000Y-95500800D01*
G75*
G02*
X155024200Y-95450000I0J50800D01*
G01*
X155024200Y-95000000D01*
G75*
G02*
X155075000Y-94949200I50800J0D01*
G01*
X155775000Y-94949200D01*
G75*
G02*
X155825800Y-95000000I0J-50800D01*
G01*
X155825800Y-95450000D01*
G75*
G02*
X155775000Y-95500800I-50800J0D01*
G01*
G37*
G36*
G01*
X145856650Y-91475800D02*
X145293350Y-91475800D01*
G75*
G02*
X145049200Y-91231650I0J244150D01*
G01*
X145049200Y-90743350D01*
G75*
G02*
X145293350Y-90499200I244150J0D01*
G01*
X145856650Y-90499200D01*
G75*
G02*
X146100800Y-90743350I0J-244150D01*
G01*
X146100800Y-91231650D01*
G75*
G02*
X145856650Y-91475800I-244150J0D01*
G01*
G37*
G36*
G01*
X145856650Y-93050800D02*
X145293350Y-93050800D01*
G75*
G02*
X145049200Y-92806650I0J244150D01*
G01*
X145049200Y-92318350D01*
G75*
G02*
X145293350Y-92074200I244150J0D01*
G01*
X145856650Y-92074200D01*
G75*
G02*
X146100800Y-92318350I0J-244150D01*
G01*
X146100800Y-92806650D01*
G75*
G02*
X145856650Y-93050800I-244150J0D01*
G01*
G37*
G36*
G01*
X151574200Y-96906650D02*
X151574200Y-96343350D01*
G75*
G02*
X151818350Y-96099200I244150J0D01*
G01*
X152306650Y-96099200D01*
G75*
G02*
X152550800Y-96343350I0J-244150D01*
G01*
X152550800Y-96906650D01*
G75*
G02*
X152306650Y-97150800I-244150J0D01*
G01*
X151818350Y-97150800D01*
G75*
G02*
X151574200Y-96906650I0J244150D01*
G01*
G37*
G36*
G01*
X149999200Y-96906650D02*
X149999200Y-96343350D01*
G75*
G02*
X150243350Y-96099200I244150J0D01*
G01*
X150731650Y-96099200D01*
G75*
G02*
X150975800Y-96343350I0J-244150D01*
G01*
X150975800Y-96906650D01*
G75*
G02*
X150731650Y-97150800I-244150J0D01*
G01*
X150243350Y-97150800D01*
G75*
G02*
X149999200Y-96906650I0J244150D01*
G01*
G37*
G36*
G01*
X153945800Y-96343350D02*
X153945800Y-96906650D01*
G75*
G02*
X153701650Y-97150800I-244150J0D01*
G01*
X153213350Y-97150800D01*
G75*
G02*
X152969200Y-96906650I0J244150D01*
G01*
X152969200Y-96343350D01*
G75*
G02*
X153213350Y-96099200I244150J0D01*
G01*
X153701650Y-96099200D01*
G75*
G02*
X153945800Y-96343350I0J-244150D01*
G01*
G37*
G36*
G01*
X155520800Y-96343350D02*
X155520800Y-96906650D01*
G75*
G02*
X155276650Y-97150800I-244150J0D01*
G01*
X154788350Y-97150800D01*
G75*
G02*
X154544200Y-96906650I0J244150D01*
G01*
X154544200Y-96343350D01*
G75*
G02*
X154788350Y-96099200I244150J0D01*
G01*
X155276650Y-96099200D01*
G75*
G02*
X155520800Y-96343350I0J-244150D01*
G01*
G37*
G36*
G01*
X161879200Y-93951650D02*
X161879200Y-93388350D01*
G75*
G02*
X162123350Y-93144200I244150J0D01*
G01*
X162611650Y-93144200D01*
G75*
G02*
X162855800Y-93388350I0J-244150D01*
G01*
X162855800Y-93951650D01*
G75*
G02*
X162611650Y-94195800I-244150J0D01*
G01*
X162123350Y-94195800D01*
G75*
G02*
X161879200Y-93951650I0J244150D01*
G01*
G37*
G36*
G01*
X160304200Y-93951650D02*
X160304200Y-93388350D01*
G75*
G02*
X160548350Y-93144200I244150J0D01*
G01*
X161036650Y-93144200D01*
G75*
G02*
X161280800Y-93388350I0J-244150D01*
G01*
X161280800Y-93951650D01*
G75*
G02*
X161036650Y-94195800I-244150J0D01*
G01*
X160548350Y-94195800D01*
G75*
G02*
X160304200Y-93951650I0J244150D01*
G01*
G37*
G36*
G01*
X148250000Y-94299200D02*
X148950000Y-94299200D01*
G75*
G02*
X149000800Y-94350000I0J-50800D01*
G01*
X149000800Y-94800000D01*
G75*
G02*
X148950000Y-94850800I-50800J0D01*
G01*
X148250000Y-94850800D01*
G75*
G02*
X148199200Y-94800000I0J50800D01*
G01*
X148199200Y-94350000D01*
G75*
G02*
X148250000Y-94299200I50800J0D01*
G01*
G37*
G36*
G01*
X146250000Y-94949200D02*
X146950000Y-94949200D01*
G75*
G02*
X147000800Y-95000000I0J-50800D01*
G01*
X147000800Y-95450000D01*
G75*
G02*
X146950000Y-95500800I-50800J0D01*
G01*
X146250000Y-95500800D01*
G75*
G02*
X146199200Y-95450000I0J50800D01*
G01*
X146199200Y-95000000D01*
G75*
G02*
X146250000Y-94949200I50800J0D01*
G01*
G37*
G36*
G01*
X146250000Y-93649200D02*
X146950000Y-93649200D01*
G75*
G02*
X147000800Y-93700000I0J-50800D01*
G01*
X147000800Y-94150000D01*
G75*
G02*
X146950000Y-94200800I-50800J0D01*
G01*
X146250000Y-94200800D01*
G75*
G02*
X146199200Y-94150000I0J50800D01*
G01*
X146199200Y-93700000D01*
G75*
G02*
X146250000Y-93649200I50800J0D01*
G01*
G37*
G36*
G01*
X150350000Y-94850800D02*
X149650000Y-94850800D01*
G75*
G02*
X149599200Y-94800000I0J50800D01*
G01*
X149599200Y-94350000D01*
G75*
G02*
X149650000Y-94299200I50800J0D01*
G01*
X150350000Y-94299200D01*
G75*
G02*
X150400800Y-94350000I0J-50800D01*
G01*
X150400800Y-94800000D01*
G75*
G02*
X150350000Y-94850800I-50800J0D01*
G01*
G37*
G36*
G01*
X152350000Y-94200800D02*
X151650000Y-94200800D01*
G75*
G02*
X151599200Y-94150000I0J50800D01*
G01*
X151599200Y-93700000D01*
G75*
G02*
X151650000Y-93649200I50800J0D01*
G01*
X152350000Y-93649200D01*
G75*
G02*
X152400800Y-93700000I0J-50800D01*
G01*
X152400800Y-94150000D01*
G75*
G02*
X152350000Y-94200800I-50800J0D01*
G01*
G37*
G36*
G01*
X152350000Y-95500800D02*
X151650000Y-95500800D01*
G75*
G02*
X151599200Y-95450000I0J50800D01*
G01*
X151599200Y-95000000D01*
G75*
G02*
X151650000Y-94949200I50800J0D01*
G01*
X152350000Y-94949200D01*
G75*
G02*
X152400800Y-95000000I0J-50800D01*
G01*
X152400800Y-95450000D01*
G75*
G02*
X152350000Y-95500800I-50800J0D01*
G01*
G37*
G36*
G01*
X161140000Y-91905800D02*
X160440000Y-91905800D01*
G75*
G02*
X160389200Y-91855000I0J50800D01*
G01*
X160389200Y-91405000D01*
G75*
G02*
X160440000Y-91354200I50800J0D01*
G01*
X161140000Y-91354200D01*
G75*
G02*
X161190800Y-91405000I0J-50800D01*
G01*
X161190800Y-91855000D01*
G75*
G02*
X161140000Y-91905800I-50800J0D01*
G01*
G37*
G36*
G01*
X163140000Y-91255800D02*
X162440000Y-91255800D01*
G75*
G02*
X162389200Y-91205000I0J50800D01*
G01*
X162389200Y-90755000D01*
G75*
G02*
X162440000Y-90704200I50800J0D01*
G01*
X163140000Y-90704200D01*
G75*
G02*
X163190800Y-90755000I0J-50800D01*
G01*
X163190800Y-91205000D01*
G75*
G02*
X163140000Y-91255800I-50800J0D01*
G01*
G37*
G36*
G01*
X163140000Y-92555800D02*
X162440000Y-92555800D01*
G75*
G02*
X162389200Y-92505000I0J50800D01*
G01*
X162389200Y-92055000D01*
G75*
G02*
X162440000Y-92004200I50800J0D01*
G01*
X163140000Y-92004200D01*
G75*
G02*
X163190800Y-92055000I0J-50800D01*
G01*
X163190800Y-92505000D01*
G75*
G02*
X163140000Y-92555800I-50800J0D01*
G01*
G37*
G36*
G01*
X160170800Y-103725000D02*
X160170800Y-104375000D01*
G75*
G02*
X160120000Y-104425800I-50800J0D01*
G01*
X159060000Y-104425800D01*
G75*
G02*
X159009200Y-104375000I0J50800D01*
G01*
X159009200Y-103725000D01*
G75*
G02*
X159060000Y-103674200I50800J0D01*
G01*
X160120000Y-103674200D01*
G75*
G02*
X160170800Y-103725000I0J-50800D01*
G01*
G37*
G36*
G01*
X160170800Y-101825000D02*
X160170800Y-102475000D01*
G75*
G02*
X160120000Y-102525800I-50800J0D01*
G01*
X159060000Y-102525800D01*
G75*
G02*
X159009200Y-102475000I0J50800D01*
G01*
X159009200Y-101825000D01*
G75*
G02*
X159060000Y-101774200I50800J0D01*
G01*
X160120000Y-101774200D01*
G75*
G02*
X160170800Y-101825000I0J-50800D01*
G01*
G37*
G36*
G01*
X162370800Y-101825000D02*
X162370800Y-102475000D01*
G75*
G02*
X162320000Y-102525800I-50800J0D01*
G01*
X161260000Y-102525800D01*
G75*
G02*
X161209200Y-102475000I0J50800D01*
G01*
X161209200Y-101825000D01*
G75*
G02*
X161260000Y-101774200I50800J0D01*
G01*
X162320000Y-101774200D01*
G75*
G02*
X162370800Y-101825000I0J-50800D01*
G01*
G37*
G36*
G01*
X162370800Y-102775000D02*
X162370800Y-103425000D01*
G75*
G02*
X162320000Y-103475800I-50800J0D01*
G01*
X161260000Y-103475800D01*
G75*
G02*
X161209200Y-103425000I0J50800D01*
G01*
X161209200Y-102775000D01*
G75*
G02*
X161260000Y-102724200I50800J0D01*
G01*
X162320000Y-102724200D01*
G75*
G02*
X162370800Y-102775000I0J-50800D01*
G01*
G37*
G36*
G01*
X162370800Y-103725000D02*
X162370800Y-104375000D01*
G75*
G02*
X162320000Y-104425800I-50800J0D01*
G01*
X161260000Y-104425800D01*
G75*
G02*
X161209200Y-104375000I0J50800D01*
G01*
X161209200Y-103725000D01*
G75*
G02*
X161260000Y-103674200I50800J0D01*
G01*
X162320000Y-103674200D01*
G75*
G02*
X162370800Y-103725000I0J-50800D01*
G01*
G37*
G36*
G01*
X128849200Y-93796650D02*
X128849200Y-93233350D01*
G75*
G02*
X129093350Y-92989200I244150J0D01*
G01*
X129581650Y-92989200D01*
G75*
G02*
X129825800Y-93233350I0J-244150D01*
G01*
X129825800Y-93796650D01*
G75*
G02*
X129581650Y-94040800I-244150J0D01*
G01*
X129093350Y-94040800D01*
G75*
G02*
X128849200Y-93796650I0J244150D01*
G01*
G37*
G36*
G01*
X127274200Y-93796650D02*
X127274200Y-93233350D01*
G75*
G02*
X127518350Y-92989200I244150J0D01*
G01*
X128006650Y-92989200D01*
G75*
G02*
X128250800Y-93233350I0J-244150D01*
G01*
X128250800Y-93796650D01*
G75*
G02*
X128006650Y-94040800I-244150J0D01*
G01*
X127518350Y-94040800D01*
G75*
G02*
X127274200Y-93796650I0J244150D01*
G01*
G37*
G36*
G01*
X156293350Y-103124200D02*
X156856650Y-103124200D01*
G75*
G02*
X157100800Y-103368350I0J-244150D01*
G01*
X157100800Y-103856650D01*
G75*
G02*
X156856650Y-104100800I-244150J0D01*
G01*
X156293350Y-104100800D01*
G75*
G02*
X156049200Y-103856650I0J244150D01*
G01*
X156049200Y-103368350D01*
G75*
G02*
X156293350Y-103124200I244150J0D01*
G01*
G37*
G36*
G01*
X156293350Y-101549200D02*
X156856650Y-101549200D01*
G75*
G02*
X157100800Y-101793350I0J-244150D01*
G01*
X157100800Y-102281650D01*
G75*
G02*
X156856650Y-102525800I-244150J0D01*
G01*
X156293350Y-102525800D01*
G75*
G02*
X156049200Y-102281650I0J244150D01*
G01*
X156049200Y-101793350D01*
G75*
G02*
X156293350Y-101549200I244150J0D01*
G01*
G37*
G36*
G01*
X128849200Y-95256650D02*
X128849200Y-94693350D01*
G75*
G02*
X129093350Y-94449200I244150J0D01*
G01*
X129581650Y-94449200D01*
G75*
G02*
X129825800Y-94693350I0J-244150D01*
G01*
X129825800Y-95256650D01*
G75*
G02*
X129581650Y-95500800I-244150J0D01*
G01*
X129093350Y-95500800D01*
G75*
G02*
X128849200Y-95256650I0J244150D01*
G01*
G37*
G36*
G01*
X127274200Y-95256650D02*
X127274200Y-94693350D01*
G75*
G02*
X127518350Y-94449200I244150J0D01*
G01*
X128006650Y-94449200D01*
G75*
G02*
X128250800Y-94693350I0J-244150D01*
G01*
X128250800Y-95256650D01*
G75*
G02*
X128006650Y-95500800I-244150J0D01*
G01*
X127518350Y-95500800D01*
G75*
G02*
X127274200Y-95256650I0J244150D01*
G01*
G37*
G36*
G01*
X163043350Y-103104200D02*
X163606650Y-103104200D01*
G75*
G02*
X163850800Y-103348350I0J-244150D01*
G01*
X163850800Y-103836650D01*
G75*
G02*
X163606650Y-104080800I-244150J0D01*
G01*
X163043350Y-104080800D01*
G75*
G02*
X162799200Y-103836650I0J244150D01*
G01*
X162799200Y-103348350D01*
G75*
G02*
X163043350Y-103104200I244150J0D01*
G01*
G37*
G36*
G01*
X163043350Y-101529200D02*
X163606650Y-101529200D01*
G75*
G02*
X163850800Y-101773350I0J-244150D01*
G01*
X163850800Y-102261650D01*
G75*
G02*
X163606650Y-102505800I-244150J0D01*
G01*
X163043350Y-102505800D01*
G75*
G02*
X162799200Y-102261650I0J244150D01*
G01*
X162799200Y-101773350D01*
G75*
G02*
X163043350Y-101529200I244150J0D01*
G01*
G37*
G36*
G01*
X157768350Y-103124200D02*
X158331650Y-103124200D01*
G75*
G02*
X158575800Y-103368350I0J-244150D01*
G01*
X158575800Y-103856650D01*
G75*
G02*
X158331650Y-104100800I-244150J0D01*
G01*
X157768350Y-104100800D01*
G75*
G02*
X157524200Y-103856650I0J244150D01*
G01*
X157524200Y-103368350D01*
G75*
G02*
X157768350Y-103124200I244150J0D01*
G01*
G37*
G36*
G01*
X157768350Y-101549200D02*
X158331650Y-101549200D01*
G75*
G02*
X158575800Y-101793350I0J-244150D01*
G01*
X158575800Y-102281650D01*
G75*
G02*
X158331650Y-102525800I-244150J0D01*
G01*
X157768350Y-102525800D01*
G75*
G02*
X157524200Y-102281650I0J244150D01*
G01*
X157524200Y-101793350D01*
G75*
G02*
X157768350Y-101549200I244150J0D01*
G01*
G37*
X143040000Y-91460000D03*
X140500000Y-91460000D03*
X137960000Y-91460000D03*
X135420000Y-91460000D03*
G36*
G01*
X133730000Y-92360800D02*
X132030000Y-92360800D01*
G75*
G02*
X131979200Y-92310000I0J50800D01*
G01*
X131979200Y-90610000D01*
G75*
G02*
X132030000Y-90559200I50800J0D01*
G01*
X133730000Y-90559200D01*
G75*
G02*
X133780800Y-90610000I0J-50800D01*
G01*
X133780800Y-92310000D01*
G75*
G02*
X133730000Y-92360800I-50800J0D01*
G01*
G37*
G36*
G01*
X140831650Y-103050800D02*
X140268350Y-103050800D01*
G75*
G02*
X140024200Y-102806650I0J244150D01*
G01*
X140024200Y-102318350D01*
G75*
G02*
X140268350Y-102074200I244150J0D01*
G01*
X140831650Y-102074200D01*
G75*
G02*
X141075800Y-102318350I0J-244150D01*
G01*
X141075800Y-102806650D01*
G75*
G02*
X140831650Y-103050800I-244150J0D01*
G01*
G37*
G36*
G01*
X140831650Y-104625800D02*
X140268350Y-104625800D01*
G75*
G02*
X140024200Y-104381650I0J244150D01*
G01*
X140024200Y-103893350D01*
G75*
G02*
X140268350Y-103649200I244150J0D01*
G01*
X140831650Y-103649200D01*
G75*
G02*
X141075800Y-103893350I0J-244150D01*
G01*
X141075800Y-104381650D01*
G75*
G02*
X140831650Y-104625800I-244150J0D01*
G01*
G37*
G36*
G01*
X137871650Y-103050800D02*
X137308350Y-103050800D01*
G75*
G02*
X137064200Y-102806650I0J244150D01*
G01*
X137064200Y-102318350D01*
G75*
G02*
X137308350Y-102074200I244150J0D01*
G01*
X137871650Y-102074200D01*
G75*
G02*
X138115800Y-102318350I0J-244150D01*
G01*
X138115800Y-102806650D01*
G75*
G02*
X137871650Y-103050800I-244150J0D01*
G01*
G37*
G36*
G01*
X137871650Y-104625800D02*
X137308350Y-104625800D01*
G75*
G02*
X137064200Y-104381650I0J244150D01*
G01*
X137064200Y-103893350D01*
G75*
G02*
X137308350Y-103649200I244150J0D01*
G01*
X137871650Y-103649200D01*
G75*
G02*
X138115800Y-103893350I0J-244150D01*
G01*
X138115800Y-104381650D01*
G75*
G02*
X137871650Y-104625800I-244150J0D01*
G01*
G37*
G36*
G01*
X152775000Y-102425800D02*
X151975000Y-102425800D01*
G75*
G02*
X151924200Y-102375000I0J50800D01*
G01*
X151924200Y-101475000D01*
G75*
G02*
X151975000Y-101424200I50800J0D01*
G01*
X152775000Y-101424200D01*
G75*
G02*
X152825800Y-101475000I0J-50800D01*
G01*
X152825800Y-102375000D01*
G75*
G02*
X152775000Y-102425800I-50800J0D01*
G01*
G37*
G36*
G01*
X152775000Y-101025800D02*
X151975000Y-101025800D01*
G75*
G02*
X151924200Y-100975000I0J50800D01*
G01*
X151924200Y-100075000D01*
G75*
G02*
X151975000Y-100024200I50800J0D01*
G01*
X152775000Y-100024200D01*
G75*
G02*
X152825800Y-100075000I0J-50800D01*
G01*
X152825800Y-100975000D01*
G75*
G02*
X152775000Y-101025800I-50800J0D01*
G01*
G37*
G36*
G01*
X153875000Y-101025800D02*
X153075000Y-101025800D01*
G75*
G02*
X153024200Y-100975000I0J50800D01*
G01*
X153024200Y-100075000D01*
G75*
G02*
X153075000Y-100024200I50800J0D01*
G01*
X153875000Y-100024200D01*
G75*
G02*
X153925800Y-100075000I0J-50800D01*
G01*
X153925800Y-100975000D01*
G75*
G02*
X153875000Y-101025800I-50800J0D01*
G01*
G37*
G36*
G01*
X153875000Y-102425800D02*
X153075000Y-102425800D01*
G75*
G02*
X153024200Y-102375000I0J50800D01*
G01*
X153024200Y-101475000D01*
G75*
G02*
X153075000Y-101424200I50800J0D01*
G01*
X153875000Y-101424200D01*
G75*
G02*
X153925800Y-101475000I0J-50800D01*
G01*
X153925800Y-102375000D01*
G75*
G02*
X153875000Y-102425800I-50800J0D01*
G01*
G37*
G36*
G01*
X134705000Y-103694200D02*
X135505000Y-103694200D01*
G75*
G02*
X135555800Y-103745000I0J-50800D01*
G01*
X135555800Y-104645000D01*
G75*
G02*
X135505000Y-104695800I-50800J0D01*
G01*
X134705000Y-104695800D01*
G75*
G02*
X134654200Y-104645000I0J50800D01*
G01*
X134654200Y-103745000D01*
G75*
G02*
X134705000Y-103694200I50800J0D01*
G01*
G37*
G36*
G01*
X133755000Y-101694200D02*
X134555000Y-101694200D01*
G75*
G02*
X134605800Y-101745000I0J-50800D01*
G01*
X134605800Y-102645000D01*
G75*
G02*
X134555000Y-102695800I-50800J0D01*
G01*
X133755000Y-102695800D01*
G75*
G02*
X133704200Y-102645000I0J50800D01*
G01*
X133704200Y-101745000D01*
G75*
G02*
X133755000Y-101694200I50800J0D01*
G01*
G37*
G36*
G01*
X135655000Y-101694200D02*
X136455000Y-101694200D01*
G75*
G02*
X136505800Y-101745000I0J-50800D01*
G01*
X136505800Y-102645000D01*
G75*
G02*
X136455000Y-102695800I-50800J0D01*
G01*
X135655000Y-102695800D01*
G75*
G02*
X135604200Y-102645000I0J50800D01*
G01*
X135604200Y-101745000D01*
G75*
G02*
X135655000Y-101694200I50800J0D01*
G01*
G37*
G36*
G01*
X126139200Y-102130000D02*
X126139200Y-97730000D01*
G75*
G02*
X126190000Y-97679200I50800J0D01*
G01*
X128690000Y-97679200D01*
G75*
G02*
X128740800Y-97730000I0J-50800D01*
G01*
X128740800Y-102130000D01*
G75*
G02*
X128690000Y-102180800I-50800J0D01*
G01*
X126190000Y-102180800D01*
G75*
G02*
X126139200Y-102130000I0J50800D01*
G01*
G37*
D13*
X127710000Y-102635000D03*
X127710000Y-97175000D03*
D14*
X130710000Y-102325000D03*
X130710000Y-97485000D03*
G36*
G01*
X129714200Y-101405000D02*
X129714200Y-101005000D01*
G75*
G02*
X129765000Y-100954200I50800J0D01*
G01*
X131415000Y-100954200D01*
G75*
G02*
X131465800Y-101005000I0J-50800D01*
G01*
X131465800Y-101405000D01*
G75*
G02*
X131415000Y-101455800I-50800J0D01*
G01*
X129765000Y-101455800D01*
G75*
G02*
X129714200Y-101405000I0J50800D01*
G01*
G37*
G36*
G01*
X129714200Y-100755000D02*
X129714200Y-100355000D01*
G75*
G02*
X129765000Y-100304200I50800J0D01*
G01*
X131415000Y-100304200D01*
G75*
G02*
X131465800Y-100355000I0J-50800D01*
G01*
X131465800Y-100755000D01*
G75*
G02*
X131415000Y-100805800I-50800J0D01*
G01*
X129765000Y-100805800D01*
G75*
G02*
X129714200Y-100755000I0J50800D01*
G01*
G37*
G36*
G01*
X129714200Y-100105000D02*
X129714200Y-99705000D01*
G75*
G02*
X129765000Y-99654200I50800J0D01*
G01*
X131415000Y-99654200D01*
G75*
G02*
X131465800Y-99705000I0J-50800D01*
G01*
X131465800Y-100105000D01*
G75*
G02*
X131415000Y-100155800I-50800J0D01*
G01*
X129765000Y-100155800D01*
G75*
G02*
X129714200Y-100105000I0J50800D01*
G01*
G37*
G36*
G01*
X129714200Y-99455000D02*
X129714200Y-99055000D01*
G75*
G02*
X129765000Y-99004200I50800J0D01*
G01*
X131415000Y-99004200D01*
G75*
G02*
X131465800Y-99055000I0J-50800D01*
G01*
X131465800Y-99455000D01*
G75*
G02*
X131415000Y-99505800I-50800J0D01*
G01*
X129765000Y-99505800D01*
G75*
G02*
X129714200Y-99455000I0J50800D01*
G01*
G37*
G36*
G01*
X129714200Y-98805000D02*
X129714200Y-98405000D01*
G75*
G02*
X129765000Y-98354200I50800J0D01*
G01*
X131415000Y-98354200D01*
G75*
G02*
X131465800Y-98405000I0J-50800D01*
G01*
X131465800Y-98805000D01*
G75*
G02*
X131415000Y-98855800I-50800J0D01*
G01*
X129765000Y-98855800D01*
G75*
G02*
X129714200Y-98805000I0J50800D01*
G01*
G37*
G36*
G01*
X129960000Y-101754200D02*
X131460000Y-101754200D01*
G75*
G02*
X131510800Y-101805000I0J-50800D01*
G01*
X131510800Y-103805000D01*
G75*
G02*
X131460000Y-103855800I-50800J0D01*
G01*
X129960000Y-103855800D01*
G75*
G02*
X129909200Y-103805000I0J50800D01*
G01*
X129909200Y-101805000D01*
G75*
G02*
X129960000Y-101754200I50800J0D01*
G01*
G37*
G36*
G01*
X129940000Y-96004200D02*
X131440000Y-96004200D01*
G75*
G02*
X131490800Y-96055000I0J-50800D01*
G01*
X131490800Y-98055000D01*
G75*
G02*
X131440000Y-98105800I-50800J0D01*
G01*
X129940000Y-98105800D01*
G75*
G02*
X129889200Y-98055000I0J50800D01*
G01*
X129889200Y-96055000D01*
G75*
G02*
X129940000Y-96004200I50800J0D01*
G01*
G37*
G36*
G01*
X154509200Y-104446650D02*
X154509200Y-103883350D01*
G75*
G02*
X154753350Y-103639200I244150J0D01*
G01*
X155241650Y-103639200D01*
G75*
G02*
X155485800Y-103883350I0J-244150D01*
G01*
X155485800Y-104446650D01*
G75*
G02*
X155241650Y-104690800I-244150J0D01*
G01*
X154753350Y-104690800D01*
G75*
G02*
X154509200Y-104446650I0J244150D01*
G01*
G37*
G36*
G01*
X152934200Y-104446650D02*
X152934200Y-103883350D01*
G75*
G02*
X153178350Y-103639200I244150J0D01*
G01*
X153666650Y-103639200D01*
G75*
G02*
X153910800Y-103883350I0J-244150D01*
G01*
X153910800Y-104446650D01*
G75*
G02*
X153666650Y-104690800I-244150J0D01*
G01*
X153178350Y-104690800D01*
G75*
G02*
X152934200Y-104446650I0J244150D01*
G01*
G37*
G36*
G01*
X142725800Y-94468350D02*
X142725800Y-95031650D01*
G75*
G02*
X142481650Y-95275800I-244150J0D01*
G01*
X141993350Y-95275800D01*
G75*
G02*
X141749200Y-95031650I0J244150D01*
G01*
X141749200Y-94468350D01*
G75*
G02*
X141993350Y-94224200I244150J0D01*
G01*
X142481650Y-94224200D01*
G75*
G02*
X142725800Y-94468350I0J-244150D01*
G01*
G37*
G36*
G01*
X144300800Y-94468350D02*
X144300800Y-95031650D01*
G75*
G02*
X144056650Y-95275800I-244150J0D01*
G01*
X143568350Y-95275800D01*
G75*
G02*
X143324200Y-95031650I0J244150D01*
G01*
X143324200Y-94468350D01*
G75*
G02*
X143568350Y-94224200I244150J0D01*
G01*
X144056650Y-94224200D01*
G75*
G02*
X144300800Y-94468350I0J-244150D01*
G01*
G37*
G36*
G01*
X130875800Y-104618350D02*
X130875800Y-105181650D01*
G75*
G02*
X130631650Y-105425800I-244150J0D01*
G01*
X130143350Y-105425800D01*
G75*
G02*
X129899200Y-105181650I0J244150D01*
G01*
X129899200Y-104618350D01*
G75*
G02*
X130143350Y-104374200I244150J0D01*
G01*
X130631650Y-104374200D01*
G75*
G02*
X130875800Y-104618350I0J-244150D01*
G01*
G37*
G36*
G01*
X129300800Y-104618350D02*
X129300800Y-105181650D01*
G75*
G02*
X129056650Y-105425800I-244150J0D01*
G01*
X128568350Y-105425800D01*
G75*
G02*
X128324200Y-105181650I0J244150D01*
G01*
X128324200Y-104618350D01*
G75*
G02*
X128568350Y-104374200I244150J0D01*
G01*
X129056650Y-104374200D01*
G75*
G02*
X129300800Y-104618350I0J-244150D01*
G01*
G37*
G36*
G01*
X150593350Y-101549200D02*
X151156650Y-101549200D01*
G75*
G02*
X151400800Y-101793350I0J-244150D01*
G01*
X151400800Y-102281650D01*
G75*
G02*
X151156650Y-102525800I-244150J0D01*
G01*
X150593350Y-102525800D01*
G75*
G02*
X150349200Y-102281650I0J244150D01*
G01*
X150349200Y-101793350D01*
G75*
G02*
X150593350Y-101549200I244150J0D01*
G01*
G37*
G36*
G01*
X150593350Y-99974200D02*
X151156650Y-99974200D01*
G75*
G02*
X151400800Y-100218350I0J-244150D01*
G01*
X151400800Y-100706650D01*
G75*
G02*
X151156650Y-100950800I-244150J0D01*
G01*
X150593350Y-100950800D01*
G75*
G02*
X150349200Y-100706650I0J244150D01*
G01*
X150349200Y-100218350D01*
G75*
G02*
X150593350Y-99974200I244150J0D01*
G01*
G37*
G36*
G01*
X155256650Y-102575800D02*
X154693350Y-102575800D01*
G75*
G02*
X154449200Y-102331650I0J244150D01*
G01*
X154449200Y-101843350D01*
G75*
G02*
X154693350Y-101599200I244150J0D01*
G01*
X155256650Y-101599200D01*
G75*
G02*
X155500800Y-101843350I0J-244150D01*
G01*
X155500800Y-102331650D01*
G75*
G02*
X155256650Y-102575800I-244150J0D01*
G01*
G37*
G36*
G01*
X155256650Y-101000800D02*
X154693350Y-101000800D01*
G75*
G02*
X154449200Y-100756650I0J244150D01*
G01*
X154449200Y-100268350D01*
G75*
G02*
X154693350Y-100024200I244150J0D01*
G01*
X155256650Y-100024200D01*
G75*
G02*
X155500800Y-100268350I0J-244150D01*
G01*
X155500800Y-100756650D01*
G75*
G02*
X155256650Y-101000800I-244150J0D01*
G01*
G37*
G36*
G01*
X150950800Y-103888350D02*
X150950800Y-104451650D01*
G75*
G02*
X150706650Y-104695800I-244150J0D01*
G01*
X150218350Y-104695800D01*
G75*
G02*
X149974200Y-104451650I0J244150D01*
G01*
X149974200Y-103888350D01*
G75*
G02*
X150218350Y-103644200I244150J0D01*
G01*
X150706650Y-103644200D01*
G75*
G02*
X150950800Y-103888350I0J-244150D01*
G01*
G37*
G36*
G01*
X152525800Y-103888350D02*
X152525800Y-104451650D01*
G75*
G02*
X152281650Y-104695800I-244150J0D01*
G01*
X151793350Y-104695800D01*
G75*
G02*
X151549200Y-104451650I0J244150D01*
G01*
X151549200Y-103888350D01*
G75*
G02*
X151793350Y-103644200I244150J0D01*
G01*
X152281650Y-103644200D01*
G75*
G02*
X152525800Y-103888350I0J-244150D01*
G01*
G37*
G36*
G01*
X132906650Y-103100800D02*
X132343350Y-103100800D01*
G75*
G02*
X132099200Y-102856650I0J244150D01*
G01*
X132099200Y-102368350D01*
G75*
G02*
X132343350Y-102124200I244150J0D01*
G01*
X132906650Y-102124200D01*
G75*
G02*
X133150800Y-102368350I0J-244150D01*
G01*
X133150800Y-102856650D01*
G75*
G02*
X132906650Y-103100800I-244150J0D01*
G01*
G37*
G36*
G01*
X132906650Y-104675800D02*
X132343350Y-104675800D01*
G75*
G02*
X132099200Y-104431650I0J244150D01*
G01*
X132099200Y-103943350D01*
G75*
G02*
X132343350Y-103699200I244150J0D01*
G01*
X132906650Y-103699200D01*
G75*
G02*
X133150800Y-103943350I0J-244150D01*
G01*
X133150800Y-104431650D01*
G75*
G02*
X132906650Y-104675800I-244150J0D01*
G01*
G37*
G36*
G01*
X140349200Y-95031650D02*
X140349200Y-94468350D01*
G75*
G02*
X140593350Y-94224200I244150J0D01*
G01*
X141081650Y-94224200D01*
G75*
G02*
X141325800Y-94468350I0J-244150D01*
G01*
X141325800Y-95031650D01*
G75*
G02*
X141081650Y-95275800I-244150J0D01*
G01*
X140593350Y-95275800D01*
G75*
G02*
X140349200Y-95031650I0J244150D01*
G01*
G37*
G36*
G01*
X138774200Y-95031650D02*
X138774200Y-94468350D01*
G75*
G02*
X139018350Y-94224200I244150J0D01*
G01*
X139506650Y-94224200D01*
G75*
G02*
X139750800Y-94468350I0J-244150D01*
G01*
X139750800Y-95031650D01*
G75*
G02*
X139506650Y-95275800I-244150J0D01*
G01*
X139018350Y-95275800D01*
G75*
G02*
X138774200Y-95031650I0J244150D01*
G01*
G37*
G36*
G01*
X140349200Y-96491650D02*
X140349200Y-95928350D01*
G75*
G02*
X140593350Y-95684200I244150J0D01*
G01*
X141081650Y-95684200D01*
G75*
G02*
X141325800Y-95928350I0J-244150D01*
G01*
X141325800Y-96491650D01*
G75*
G02*
X141081650Y-96735800I-244150J0D01*
G01*
X140593350Y-96735800D01*
G75*
G02*
X140349200Y-96491650I0J244150D01*
G01*
G37*
G36*
G01*
X138774200Y-96491650D02*
X138774200Y-95928350D01*
G75*
G02*
X139018350Y-95684200I244150J0D01*
G01*
X139506650Y-95684200D01*
G75*
G02*
X139750800Y-95928350I0J-244150D01*
G01*
X139750800Y-96491650D01*
G75*
G02*
X139506650Y-96735800I-244150J0D01*
G01*
X139018350Y-96735800D01*
G75*
G02*
X138774200Y-96491650I0J244150D01*
G01*
G37*
G36*
G01*
X152174200Y-99306650D02*
X152174200Y-98743350D01*
G75*
G02*
X152418350Y-98499200I244150J0D01*
G01*
X152906650Y-98499200D01*
G75*
G02*
X153150800Y-98743350I0J-244150D01*
G01*
X153150800Y-99306650D01*
G75*
G02*
X152906650Y-99550800I-244150J0D01*
G01*
X152418350Y-99550800D01*
G75*
G02*
X152174200Y-99306650I0J244150D01*
G01*
G37*
G36*
G01*
X150599200Y-99306650D02*
X150599200Y-98743350D01*
G75*
G02*
X150843350Y-98499200I244150J0D01*
G01*
X151331650Y-98499200D01*
G75*
G02*
X151575800Y-98743350I0J-244150D01*
G01*
X151575800Y-99306650D01*
G75*
G02*
X151331650Y-99550800I-244150J0D01*
G01*
X150843350Y-99550800D01*
G75*
G02*
X150599200Y-99306650I0J244150D01*
G01*
G37*
M02*
