G04 #@! TF.GenerationSoftware,KiCad,Pcbnew,(5.1.8-0-10_14)*
G04 #@! TF.CreationDate,2020-12-21T23:46:11-08:00*
G04 #@! TF.ProjectId,Compact,436f6d70-6163-4742-9e6b-696361645f70,rev?*
G04 #@! TF.SameCoordinates,Original*
G04 #@! TF.FileFunction,Paste,Bot*
G04 #@! TF.FilePolarity,Positive*
%FSLAX46Y46*%
G04 Gerber Fmt 4.6, Leading zero omitted, Abs format (unit mm)*
G04 Created by KiCad (PCBNEW (5.1.8-0-10_14)) date 2020-12-21 23:46:11*
%MOMM*%
%LPD*%
G01*
G04 APERTURE LIST*
%ADD10R,2.500000X2.800000*%
%ADD11R,2.180000X1.600000*%
G04 APERTURE END LIST*
G36*
G01*
X164325000Y-101905000D02*
X164325000Y-102455000D01*
G75*
G02*
X164125000Y-102655000I-200000J0D01*
G01*
X163725000Y-102655000D01*
G75*
G02*
X163525000Y-102455000I0J200000D01*
G01*
X163525000Y-101905000D01*
G75*
G02*
X163725000Y-101705000I200000J0D01*
G01*
X164125000Y-101705000D01*
G75*
G02*
X164325000Y-101905000I0J-200000D01*
G01*
G37*
G36*
G01*
X162675000Y-101905000D02*
X162675000Y-102455000D01*
G75*
G02*
X162475000Y-102655000I-200000J0D01*
G01*
X162075000Y-102655000D01*
G75*
G02*
X161875000Y-102455000I0J200000D01*
G01*
X161875000Y-101905000D01*
G75*
G02*
X162075000Y-101705000I200000J0D01*
G01*
X162475000Y-101705000D01*
G75*
G02*
X162675000Y-101905000I0J-200000D01*
G01*
G37*
G36*
G01*
X164335000Y-103365000D02*
X164335000Y-103915000D01*
G75*
G02*
X164135000Y-104115000I-200000J0D01*
G01*
X163735000Y-104115000D01*
G75*
G02*
X163535000Y-103915000I0J200000D01*
G01*
X163535000Y-103365000D01*
G75*
G02*
X163735000Y-103165000I200000J0D01*
G01*
X164135000Y-103165000D01*
G75*
G02*
X164335000Y-103365000I0J-200000D01*
G01*
G37*
G36*
G01*
X162685000Y-103365000D02*
X162685000Y-103915000D01*
G75*
G02*
X162485000Y-104115000I-200000J0D01*
G01*
X162085000Y-104115000D01*
G75*
G02*
X161885000Y-103915000I0J200000D01*
G01*
X161885000Y-103365000D01*
G75*
G02*
X162085000Y-103165000I200000J0D01*
G01*
X162485000Y-103165000D01*
G75*
G02*
X162685000Y-103365000I0J-200000D01*
G01*
G37*
G36*
G01*
X164345000Y-93035000D02*
X164345000Y-93585000D01*
G75*
G02*
X164145000Y-93785000I-200000J0D01*
G01*
X163745000Y-93785000D01*
G75*
G02*
X163545000Y-93585000I0J200000D01*
G01*
X163545000Y-93035000D01*
G75*
G02*
X163745000Y-92835000I200000J0D01*
G01*
X164145000Y-92835000D01*
G75*
G02*
X164345000Y-93035000I0J-200000D01*
G01*
G37*
G36*
G01*
X162695000Y-93035000D02*
X162695000Y-93585000D01*
G75*
G02*
X162495000Y-93785000I-200000J0D01*
G01*
X162095000Y-93785000D01*
G75*
G02*
X161895000Y-93585000I0J200000D01*
G01*
X161895000Y-93035000D01*
G75*
G02*
X162095000Y-92835000I200000J0D01*
G01*
X162495000Y-92835000D01*
G75*
G02*
X162695000Y-93035000I0J-200000D01*
G01*
G37*
G36*
G01*
X164335000Y-94505000D02*
X164335000Y-95055000D01*
G75*
G02*
X164135000Y-95255000I-200000J0D01*
G01*
X163735000Y-95255000D01*
G75*
G02*
X163535000Y-95055000I0J200000D01*
G01*
X163535000Y-94505000D01*
G75*
G02*
X163735000Y-94305000I200000J0D01*
G01*
X164135000Y-94305000D01*
G75*
G02*
X164335000Y-94505000I0J-200000D01*
G01*
G37*
G36*
G01*
X162685000Y-94505000D02*
X162685000Y-95055000D01*
G75*
G02*
X162485000Y-95255000I-200000J0D01*
G01*
X162085000Y-95255000D01*
G75*
G02*
X161885000Y-95055000I0J200000D01*
G01*
X161885000Y-94505000D01*
G75*
G02*
X162085000Y-94305000I200000J0D01*
G01*
X162485000Y-94305000D01*
G75*
G02*
X162685000Y-94505000I0J-200000D01*
G01*
G37*
G36*
G01*
X164315000Y-100463750D02*
X164315000Y-100976250D01*
G75*
G02*
X164096250Y-101195000I-218750J0D01*
G01*
X163658750Y-101195000D01*
G75*
G02*
X163440000Y-100976250I0J218750D01*
G01*
X163440000Y-100463750D01*
G75*
G02*
X163658750Y-100245000I218750J0D01*
G01*
X164096250Y-100245000D01*
G75*
G02*
X164315000Y-100463750I0J-218750D01*
G01*
G37*
G36*
G01*
X162740000Y-100463750D02*
X162740000Y-100976250D01*
G75*
G02*
X162521250Y-101195000I-218750J0D01*
G01*
X162083750Y-101195000D01*
G75*
G02*
X161865000Y-100976250I0J218750D01*
G01*
X161865000Y-100463750D01*
G75*
G02*
X162083750Y-100245000I218750J0D01*
G01*
X162521250Y-100245000D01*
G75*
G02*
X162740000Y-100463750I0J-218750D01*
G01*
G37*
G36*
G01*
X164335000Y-98983750D02*
X164335000Y-99496250D01*
G75*
G02*
X164116250Y-99715000I-218750J0D01*
G01*
X163678750Y-99715000D01*
G75*
G02*
X163460000Y-99496250I0J218750D01*
G01*
X163460000Y-98983750D01*
G75*
G02*
X163678750Y-98765000I218750J0D01*
G01*
X164116250Y-98765000D01*
G75*
G02*
X164335000Y-98983750I0J-218750D01*
G01*
G37*
G36*
G01*
X162760000Y-98983750D02*
X162760000Y-99496250D01*
G75*
G02*
X162541250Y-99715000I-218750J0D01*
G01*
X162103750Y-99715000D01*
G75*
G02*
X161885000Y-99496250I0J218750D01*
G01*
X161885000Y-98983750D01*
G75*
G02*
X162103750Y-98765000I218750J0D01*
G01*
X162541250Y-98765000D01*
G75*
G02*
X162760000Y-98983750I0J-218750D01*
G01*
G37*
G36*
G01*
X164335000Y-97523750D02*
X164335000Y-98036250D01*
G75*
G02*
X164116250Y-98255000I-218750J0D01*
G01*
X163678750Y-98255000D01*
G75*
G02*
X163460000Y-98036250I0J218750D01*
G01*
X163460000Y-97523750D01*
G75*
G02*
X163678750Y-97305000I218750J0D01*
G01*
X164116250Y-97305000D01*
G75*
G02*
X164335000Y-97523750I0J-218750D01*
G01*
G37*
G36*
G01*
X162760000Y-97523750D02*
X162760000Y-98036250D01*
G75*
G02*
X162541250Y-98255000I-218750J0D01*
G01*
X162103750Y-98255000D01*
G75*
G02*
X161885000Y-98036250I0J218750D01*
G01*
X161885000Y-97523750D01*
G75*
G02*
X162103750Y-97305000I218750J0D01*
G01*
X162541250Y-97305000D01*
G75*
G02*
X162760000Y-97523750I0J-218750D01*
G01*
G37*
G36*
G01*
X164325000Y-96023750D02*
X164325000Y-96536250D01*
G75*
G02*
X164106250Y-96755000I-218750J0D01*
G01*
X163668750Y-96755000D01*
G75*
G02*
X163450000Y-96536250I0J218750D01*
G01*
X163450000Y-96023750D01*
G75*
G02*
X163668750Y-95805000I218750J0D01*
G01*
X164106250Y-95805000D01*
G75*
G02*
X164325000Y-96023750I0J-218750D01*
G01*
G37*
G36*
G01*
X162750000Y-96023750D02*
X162750000Y-96536250D01*
G75*
G02*
X162531250Y-96755000I-218750J0D01*
G01*
X162093750Y-96755000D01*
G75*
G02*
X161875000Y-96536250I0J218750D01*
G01*
X161875000Y-96023750D01*
G75*
G02*
X162093750Y-95805000I218750J0D01*
G01*
X162531250Y-95805000D01*
G75*
G02*
X162750000Y-96023750I0J-218750D01*
G01*
G37*
D10*
X136300000Y-97050000D03*
X152700000Y-97050000D03*
D11*
X139710000Y-103260000D03*
X148890000Y-103260000D03*
G36*
G01*
X136510000Y-103818750D02*
X136510000Y-104331250D01*
G75*
G02*
X136291250Y-104550000I-218750J0D01*
G01*
X135853750Y-104550000D01*
G75*
G02*
X135635000Y-104331250I0J218750D01*
G01*
X135635000Y-103818750D01*
G75*
G02*
X135853750Y-103600000I218750J0D01*
G01*
X136291250Y-103600000D01*
G75*
G02*
X136510000Y-103818750I0J-218750D01*
G01*
G37*
G36*
G01*
X138085000Y-103818750D02*
X138085000Y-104331250D01*
G75*
G02*
X137866250Y-104550000I-218750J0D01*
G01*
X137428750Y-104550000D01*
G75*
G02*
X137210000Y-104331250I0J218750D01*
G01*
X137210000Y-103818750D01*
G75*
G02*
X137428750Y-103600000I218750J0D01*
G01*
X137866250Y-103600000D01*
G75*
G02*
X138085000Y-103818750I0J-218750D01*
G01*
G37*
G36*
G01*
X136406250Y-101500000D02*
X135893750Y-101500000D01*
G75*
G02*
X135675000Y-101281250I0J218750D01*
G01*
X135675000Y-100843750D01*
G75*
G02*
X135893750Y-100625000I218750J0D01*
G01*
X136406250Y-100625000D01*
G75*
G02*
X136625000Y-100843750I0J-218750D01*
G01*
X136625000Y-101281250D01*
G75*
G02*
X136406250Y-101500000I-218750J0D01*
G01*
G37*
G36*
G01*
X136406250Y-103075000D02*
X135893750Y-103075000D01*
G75*
G02*
X135675000Y-102856250I0J218750D01*
G01*
X135675000Y-102418750D01*
G75*
G02*
X135893750Y-102200000I218750J0D01*
G01*
X136406250Y-102200000D01*
G75*
G02*
X136625000Y-102418750I0J-218750D01*
G01*
X136625000Y-102856250D01*
G75*
G02*
X136406250Y-103075000I-218750J0D01*
G01*
G37*
G36*
G01*
X137866250Y-103085000D02*
X137353750Y-103085000D01*
G75*
G02*
X137135000Y-102866250I0J218750D01*
G01*
X137135000Y-102428750D01*
G75*
G02*
X137353750Y-102210000I218750J0D01*
G01*
X137866250Y-102210000D01*
G75*
G02*
X138085000Y-102428750I0J-218750D01*
G01*
X138085000Y-102866250D01*
G75*
G02*
X137866250Y-103085000I-218750J0D01*
G01*
G37*
G36*
G01*
X137866250Y-101510000D02*
X137353750Y-101510000D01*
G75*
G02*
X137135000Y-101291250I0J218750D01*
G01*
X137135000Y-100853750D01*
G75*
G02*
X137353750Y-100635000I218750J0D01*
G01*
X137866250Y-100635000D01*
G75*
G02*
X138085000Y-100853750I0J-218750D01*
G01*
X138085000Y-101291250D01*
G75*
G02*
X137866250Y-101510000I-218750J0D01*
G01*
G37*
G36*
G01*
X144700000Y-97262500D02*
X144700000Y-96837500D01*
G75*
G02*
X144912500Y-96625000I212500J0D01*
G01*
X145712500Y-96625000D01*
G75*
G02*
X145925000Y-96837500I0J-212500D01*
G01*
X145925000Y-97262500D01*
G75*
G02*
X145712500Y-97475000I-212500J0D01*
G01*
X144912500Y-97475000D01*
G75*
G02*
X144700000Y-97262500I0J212500D01*
G01*
G37*
G36*
G01*
X143075000Y-97262500D02*
X143075000Y-96837500D01*
G75*
G02*
X143287500Y-96625000I212500J0D01*
G01*
X144087500Y-96625000D01*
G75*
G02*
X144300000Y-96837500I0J-212500D01*
G01*
X144300000Y-97262500D01*
G75*
G02*
X144087500Y-97475000I-212500J0D01*
G01*
X143287500Y-97475000D01*
G75*
G02*
X143075000Y-97262500I0J212500D01*
G01*
G37*
G36*
G01*
X144125000Y-98218750D02*
X144125000Y-98731250D01*
G75*
G02*
X143906250Y-98950000I-218750J0D01*
G01*
X143468750Y-98950000D01*
G75*
G02*
X143250000Y-98731250I0J218750D01*
G01*
X143250000Y-98218750D01*
G75*
G02*
X143468750Y-98000000I218750J0D01*
G01*
X143906250Y-98000000D01*
G75*
G02*
X144125000Y-98218750I0J-218750D01*
G01*
G37*
G36*
G01*
X145700000Y-98218750D02*
X145700000Y-98731250D01*
G75*
G02*
X145481250Y-98950000I-218750J0D01*
G01*
X145043750Y-98950000D01*
G75*
G02*
X144825000Y-98731250I0J218750D01*
G01*
X144825000Y-98218750D01*
G75*
G02*
X145043750Y-98000000I218750J0D01*
G01*
X145481250Y-98000000D01*
G75*
G02*
X145700000Y-98218750I0J-218750D01*
G01*
G37*
M02*
