G04 #@! TF.GenerationSoftware,KiCad,Pcbnew,(5.1.8-0-10_14)*
G04 #@! TF.CreationDate,2020-12-21T23:46:11-08:00*
G04 #@! TF.ProjectId,Compact,436f6d70-6163-4742-9e6b-696361645f70,rev?*
G04 #@! TF.SameCoordinates,Original*
G04 #@! TF.FileFunction,Legend,Bot*
G04 #@! TF.FilePolarity,Positive*
%FSLAX46Y46*%
G04 Gerber Fmt 4.6, Leading zero omitted, Abs format (unit mm)*
G04 Created by KiCad (PCBNEW (5.1.8-0-10_14)) date 2020-12-21 23:46:11*
%MOMM*%
%LPD*%
G01*
G04 APERTURE LIST*
%ADD10C,0.150000*%
%ADD11C,0.100000*%
%ADD12C,0.120000*%
G04 APERTURE END LIST*
D10*
X150750000Y-90075000D02*
X147250000Y-90075000D01*
X154225000Y-90100000D02*
X156750000Y-90100000D01*
D11*
X151217857Y-89927380D02*
X151165476Y-89901190D01*
X151060714Y-89901190D01*
X151008333Y-89927380D01*
X150982142Y-89953571D01*
X150955952Y-90005952D01*
X150955952Y-90163095D01*
X150982142Y-90215476D01*
X151008333Y-90241666D01*
X151060714Y-90267857D01*
X151165476Y-90267857D01*
X151217857Y-90241666D01*
X151689285Y-89901190D02*
X151689285Y-90189285D01*
X151663095Y-90241666D01*
X151610714Y-90267857D01*
X151505952Y-90267857D01*
X151453571Y-90241666D01*
X151689285Y-89927380D02*
X151636904Y-89901190D01*
X151505952Y-89901190D01*
X151453571Y-89927380D01*
X151427380Y-89979761D01*
X151427380Y-90032142D01*
X151453571Y-90084523D01*
X151505952Y-90110714D01*
X151636904Y-90110714D01*
X151689285Y-90136904D01*
X151872619Y-90267857D02*
X152082142Y-90267857D01*
X151951190Y-90451190D02*
X151951190Y-89979761D01*
X151977380Y-89927380D01*
X152029761Y-89901190D01*
X152082142Y-89901190D01*
X152265476Y-89901190D02*
X152265476Y-90451190D01*
X152501190Y-89901190D02*
X152501190Y-90189285D01*
X152475000Y-90241666D01*
X152422619Y-90267857D01*
X152344047Y-90267857D01*
X152291666Y-90241666D01*
X152265476Y-90215476D01*
X152841666Y-89901190D02*
X152789285Y-89927380D01*
X152763095Y-89953571D01*
X152736904Y-90005952D01*
X152736904Y-90163095D01*
X152763095Y-90215476D01*
X152789285Y-90241666D01*
X152841666Y-90267857D01*
X152920238Y-90267857D01*
X152972619Y-90241666D01*
X152998809Y-90215476D01*
X153025000Y-90163095D01*
X153025000Y-90005952D01*
X152998809Y-89953571D01*
X152972619Y-89927380D01*
X152920238Y-89901190D01*
X152841666Y-89901190D01*
X153496428Y-89901190D02*
X153496428Y-90451190D01*
X153496428Y-89927380D02*
X153444047Y-89901190D01*
X153339285Y-89901190D01*
X153286904Y-89927380D01*
X153260714Y-89953571D01*
X153234523Y-90005952D01*
X153234523Y-90163095D01*
X153260714Y-90215476D01*
X153286904Y-90241666D01*
X153339285Y-90267857D01*
X153444047Y-90267857D01*
X153496428Y-90241666D01*
X153967857Y-89927380D02*
X153915476Y-89901190D01*
X153810714Y-89901190D01*
X153758333Y-89927380D01*
X153732142Y-89979761D01*
X153732142Y-90189285D01*
X153758333Y-90241666D01*
X153810714Y-90267857D01*
X153915476Y-90267857D01*
X153967857Y-90241666D01*
X153994047Y-90189285D01*
X153994047Y-90136904D01*
X153732142Y-90084523D01*
X165007142Y-100829761D02*
X165373809Y-100829761D01*
X164797619Y-100698809D02*
X165190476Y-100567857D01*
X165190476Y-100908333D01*
X164798809Y-99016666D02*
X164798809Y-99357142D01*
X165008333Y-99173809D01*
X165008333Y-99252380D01*
X165034523Y-99304761D01*
X165060714Y-99330952D01*
X165113095Y-99357142D01*
X165244047Y-99357142D01*
X165296428Y-99330952D01*
X165322619Y-99304761D01*
X165348809Y-99252380D01*
X165348809Y-99095238D01*
X165322619Y-99042857D01*
X165296428Y-99016666D01*
X164851190Y-97642857D02*
X164825000Y-97669047D01*
X164798809Y-97721428D01*
X164798809Y-97852380D01*
X164825000Y-97904761D01*
X164851190Y-97930952D01*
X164903571Y-97957142D01*
X164955952Y-97957142D01*
X165034523Y-97930952D01*
X165348809Y-97616666D01*
X165348809Y-97957142D01*
X165373809Y-96457142D02*
X165373809Y-96142857D01*
X165373809Y-96300000D02*
X164823809Y-96300000D01*
X164902380Y-96247619D01*
X164954761Y-96195238D01*
X164980952Y-96142857D01*
X134025000Y-98296428D02*
X134025000Y-97696428D01*
X133796428Y-97696428D01*
X133739285Y-97725000D01*
X133710714Y-97753571D01*
X133682142Y-97810714D01*
X133682142Y-97896428D01*
X133710714Y-97953571D01*
X133739285Y-97982142D01*
X133796428Y-98010714D01*
X134025000Y-98010714D01*
X133482142Y-97696428D02*
X133339285Y-98296428D01*
X133225000Y-97867857D01*
X133110714Y-98296428D01*
X132967857Y-97696428D01*
X132396428Y-98296428D02*
X132596428Y-98010714D01*
X132739285Y-98296428D02*
X132739285Y-97696428D01*
X132510714Y-97696428D01*
X132453571Y-97725000D01*
X132425000Y-97753571D01*
X132396428Y-97810714D01*
X132396428Y-97896428D01*
X132425000Y-97953571D01*
X132453571Y-97982142D01*
X132510714Y-98010714D01*
X132739285Y-98010714D01*
X133610714Y-99296428D02*
X133896428Y-99296428D01*
X133896428Y-98696428D01*
X133410714Y-98982142D02*
X133210714Y-98982142D01*
X133125000Y-99296428D02*
X133410714Y-99296428D01*
X133410714Y-98696428D01*
X133125000Y-98696428D01*
X132867857Y-99296428D02*
X132867857Y-98696428D01*
X132725000Y-98696428D01*
X132639285Y-98725000D01*
X132582142Y-98782142D01*
X132553571Y-98839285D01*
X132525000Y-98953571D01*
X132525000Y-99039285D01*
X132553571Y-99153571D01*
X132582142Y-99210714D01*
X132639285Y-99267857D01*
X132725000Y-99296428D01*
X132867857Y-99296428D01*
D12*
X157607142Y-92892857D02*
X157692857Y-92864285D01*
X157721428Y-92835714D01*
X157750000Y-92778571D01*
X157750000Y-92692857D01*
X157721428Y-92635714D01*
X157692857Y-92607142D01*
X157635714Y-92578571D01*
X157407142Y-92578571D01*
X157407142Y-93178571D01*
X157607142Y-93178571D01*
X157664285Y-93150000D01*
X157692857Y-93121428D01*
X157721428Y-93064285D01*
X157721428Y-93007142D01*
X157692857Y-92950000D01*
X157664285Y-92921428D01*
X157607142Y-92892857D01*
X157407142Y-92892857D01*
X157978571Y-92750000D02*
X158264285Y-92750000D01*
X157921428Y-92578571D02*
X158121428Y-93178571D01*
X158321428Y-92578571D01*
X158435714Y-93178571D02*
X158778571Y-93178571D01*
X158607142Y-92578571D02*
X158607142Y-93178571D01*
X158892857Y-93178571D02*
X159235714Y-93178571D01*
X159064285Y-92578571D02*
X159064285Y-93178571D01*
X159435714Y-92807142D02*
X159892857Y-92807142D01*
X159664285Y-92578571D02*
X159664285Y-93035714D01*
D11*
X160629761Y-103415714D02*
X160655952Y-103453809D01*
X160734523Y-103491904D01*
X160786904Y-103491904D01*
X160865476Y-103453809D01*
X160917857Y-103377619D01*
X160944047Y-103301428D01*
X160970238Y-103149047D01*
X160970238Y-103034761D01*
X160944047Y-102882380D01*
X160917857Y-102806190D01*
X160865476Y-102730000D01*
X160786904Y-102691904D01*
X160734523Y-102691904D01*
X160655952Y-102730000D01*
X160629761Y-102768095D01*
X160315476Y-103491904D02*
X160367857Y-103453809D01*
X160394047Y-103415714D01*
X160420238Y-103339523D01*
X160420238Y-103110952D01*
X160394047Y-103034761D01*
X160367857Y-102996666D01*
X160315476Y-102958571D01*
X160236904Y-102958571D01*
X160184523Y-102996666D01*
X160158333Y-103034761D01*
X160132142Y-103110952D01*
X160132142Y-103339523D01*
X160158333Y-103415714D01*
X160184523Y-103453809D01*
X160236904Y-103491904D01*
X160315476Y-103491904D01*
X159896428Y-103491904D02*
X159896428Y-102958571D01*
X159896428Y-103034761D02*
X159870238Y-102996666D01*
X159817857Y-102958571D01*
X159739285Y-102958571D01*
X159686904Y-102996666D01*
X159660714Y-103072857D01*
X159660714Y-103491904D01*
X159660714Y-103072857D02*
X159634523Y-102996666D01*
X159582142Y-102958571D01*
X159503571Y-102958571D01*
X159451190Y-102996666D01*
X159425000Y-103072857D01*
X159425000Y-103491904D01*
X159163095Y-102958571D02*
X159163095Y-103758571D01*
X159163095Y-102996666D02*
X159110714Y-102958571D01*
X159005952Y-102958571D01*
X158953571Y-102996666D01*
X158927380Y-103034761D01*
X158901190Y-103110952D01*
X158901190Y-103339523D01*
X158927380Y-103415714D01*
X158953571Y-103453809D01*
X159005952Y-103491904D01*
X159110714Y-103491904D01*
X159163095Y-103453809D01*
X158429761Y-103491904D02*
X158429761Y-103072857D01*
X158455952Y-102996666D01*
X158508333Y-102958571D01*
X158613095Y-102958571D01*
X158665476Y-102996666D01*
X158429761Y-103453809D02*
X158482142Y-103491904D01*
X158613095Y-103491904D01*
X158665476Y-103453809D01*
X158691666Y-103377619D01*
X158691666Y-103301428D01*
X158665476Y-103225238D01*
X158613095Y-103187142D01*
X158482142Y-103187142D01*
X158429761Y-103149047D01*
X157932142Y-103453809D02*
X157984523Y-103491904D01*
X158089285Y-103491904D01*
X158141666Y-103453809D01*
X158167857Y-103415714D01*
X158194047Y-103339523D01*
X158194047Y-103110952D01*
X158167857Y-103034761D01*
X158141666Y-102996666D01*
X158089285Y-102958571D01*
X157984523Y-102958571D01*
X157932142Y-102996666D01*
X157775000Y-102958571D02*
X157565476Y-102958571D01*
X157696428Y-102691904D02*
X157696428Y-103377619D01*
X157670238Y-103453809D01*
X157617857Y-103491904D01*
X157565476Y-103491904D01*
D10*
X160966309Y-101291904D02*
X160509166Y-101291904D01*
X160737738Y-102091904D02*
X160737738Y-101291904D01*
X160242500Y-102091904D02*
X160242500Y-101291904D01*
X159899642Y-102091904D02*
X159899642Y-101672857D01*
X159937738Y-101596666D01*
X160013928Y-101558571D01*
X160128214Y-101558571D01*
X160204404Y-101596666D01*
X160242500Y-101634761D01*
X159175833Y-101558571D02*
X159175833Y-102091904D01*
X159518690Y-101558571D02*
X159518690Y-101977619D01*
X159480595Y-102053809D01*
X159404404Y-102091904D01*
X159290119Y-102091904D01*
X159213928Y-102053809D01*
X159175833Y-102015714D01*
X158794880Y-101558571D02*
X158794880Y-102091904D01*
X158794880Y-101634761D02*
X158756785Y-101596666D01*
X158680595Y-101558571D01*
X158566309Y-101558571D01*
X158490119Y-101596666D01*
X158452023Y-101672857D01*
X158452023Y-102091904D01*
X157728214Y-102091904D02*
X157728214Y-101291904D01*
X157728214Y-102053809D02*
X157804404Y-102091904D01*
X157956785Y-102091904D01*
X158032976Y-102053809D01*
X158071071Y-102015714D01*
X158109166Y-101939523D01*
X158109166Y-101710952D01*
X158071071Y-101634761D01*
X158032976Y-101596666D01*
X157956785Y-101558571D01*
X157804404Y-101558571D01*
X157728214Y-101596666D01*
X157042500Y-102053809D02*
X157118690Y-102091904D01*
X157271071Y-102091904D01*
X157347261Y-102053809D01*
X157385357Y-101977619D01*
X157385357Y-101672857D01*
X157347261Y-101596666D01*
X157271071Y-101558571D01*
X157118690Y-101558571D01*
X157042500Y-101596666D01*
X157004404Y-101672857D01*
X157004404Y-101749047D01*
X157385357Y-101825238D01*
X156661547Y-102091904D02*
X156661547Y-101558571D01*
X156661547Y-101710952D02*
X156623452Y-101634761D01*
X156585357Y-101596666D01*
X156509166Y-101558571D01*
X156432976Y-101558571D01*
X156166309Y-102091904D02*
X156166309Y-101291904D01*
X155861547Y-101291904D01*
X155785357Y-101330000D01*
X155747261Y-101368095D01*
X155709166Y-101444285D01*
X155709166Y-101558571D01*
X155747261Y-101634761D01*
X155785357Y-101672857D01*
X155861547Y-101710952D01*
X156166309Y-101710952D01*
X155023452Y-102091904D02*
X155023452Y-101672857D01*
X155061547Y-101596666D01*
X155137738Y-101558571D01*
X155290119Y-101558571D01*
X155366309Y-101596666D01*
X155023452Y-102053809D02*
X155099642Y-102091904D01*
X155290119Y-102091904D01*
X155366309Y-102053809D01*
X155404404Y-101977619D01*
X155404404Y-101901428D01*
X155366309Y-101825238D01*
X155290119Y-101787142D01*
X155099642Y-101787142D01*
X155023452Y-101749047D01*
X154299642Y-102053809D02*
X154375833Y-102091904D01*
X154528214Y-102091904D01*
X154604404Y-102053809D01*
X154642500Y-102015714D01*
X154680595Y-101939523D01*
X154680595Y-101710952D01*
X154642500Y-101634761D01*
X154604404Y-101596666D01*
X154528214Y-101558571D01*
X154375833Y-101558571D01*
X154299642Y-101596666D01*
X153956785Y-102091904D02*
X153956785Y-101291904D01*
X153880595Y-101787142D02*
X153652023Y-102091904D01*
X153652023Y-101558571D02*
X153956785Y-101863333D01*
X152775833Y-101558571D02*
X152585357Y-102091904D01*
X152394880Y-101558571D01*
X151671071Y-102091904D02*
X152128214Y-102091904D01*
X151899642Y-102091904D02*
X151899642Y-101291904D01*
X151975833Y-101406190D01*
X152052023Y-101482380D01*
X152128214Y-101520476D01*
X151328214Y-102015714D02*
X151290119Y-102053809D01*
X151328214Y-102091904D01*
X151366309Y-102053809D01*
X151328214Y-102015714D01*
X151328214Y-102091904D01*
X150985357Y-101368095D02*
X150947261Y-101330000D01*
X150871071Y-101291904D01*
X150680595Y-101291904D01*
X150604404Y-101330000D01*
X150566309Y-101368095D01*
X150528214Y-101444285D01*
X150528214Y-101520476D01*
X150566309Y-101634761D01*
X151023452Y-102091904D01*
X150528214Y-102091904D01*
D11*
X129605952Y-105008333D02*
X129141666Y-105008333D01*
X129048809Y-105039285D01*
X128986904Y-105101190D01*
X128955952Y-105194047D01*
X128955952Y-105255952D01*
X128986904Y-104451190D02*
X128955952Y-104513095D01*
X128955952Y-104636904D01*
X128986904Y-104698809D01*
X129048809Y-104729761D01*
X129296428Y-104729761D01*
X129358333Y-104698809D01*
X129389285Y-104636904D01*
X129389285Y-104513095D01*
X129358333Y-104451190D01*
X129296428Y-104420238D01*
X129234523Y-104420238D01*
X129172619Y-104729761D01*
X128955952Y-104141666D02*
X129389285Y-104141666D01*
X129265476Y-104141666D02*
X129327380Y-104110714D01*
X129358333Y-104079761D01*
X129389285Y-104017857D01*
X129389285Y-103955952D01*
X128986904Y-103491666D02*
X128955952Y-103553571D01*
X128955952Y-103677380D01*
X128986904Y-103739285D01*
X129048809Y-103770238D01*
X129296428Y-103770238D01*
X129358333Y-103739285D01*
X129389285Y-103677380D01*
X129389285Y-103553571D01*
X129358333Y-103491666D01*
X129296428Y-103460714D01*
X129234523Y-103460714D01*
X129172619Y-103770238D01*
X128955952Y-103182142D02*
X129389285Y-103182142D01*
X129327380Y-103182142D02*
X129358333Y-103151190D01*
X129389285Y-103089285D01*
X129389285Y-102996428D01*
X129358333Y-102934523D01*
X129296428Y-102903571D01*
X128955952Y-102903571D01*
X129296428Y-102903571D02*
X129358333Y-102872619D01*
X129389285Y-102810714D01*
X129389285Y-102717857D01*
X129358333Y-102655952D01*
X129296428Y-102625000D01*
X128955952Y-102625000D01*
X129389285Y-102377380D02*
X128955952Y-102222619D01*
X129389285Y-102067857D02*
X128955952Y-102222619D01*
X128801190Y-102284523D01*
X128770238Y-102315476D01*
X128739285Y-102377380D01*
X129575000Y-100984523D02*
X129605952Y-101046428D01*
X129605952Y-101139285D01*
X129575000Y-101232142D01*
X129513095Y-101294047D01*
X129451190Y-101325000D01*
X129327380Y-101355952D01*
X129234523Y-101355952D01*
X129110714Y-101325000D01*
X129048809Y-101294047D01*
X128986904Y-101232142D01*
X128955952Y-101139285D01*
X128955952Y-101077380D01*
X128986904Y-100984523D01*
X129017857Y-100953571D01*
X129234523Y-100953571D01*
X129234523Y-101077380D01*
X128955952Y-100675000D02*
X129389285Y-100675000D01*
X129605952Y-100675000D02*
X129575000Y-100705952D01*
X129544047Y-100675000D01*
X129575000Y-100644047D01*
X129605952Y-100675000D01*
X129544047Y-100675000D01*
X128955952Y-100272619D02*
X128986904Y-100334523D01*
X129048809Y-100365476D01*
X129605952Y-100365476D01*
X128955952Y-99932142D02*
X128986904Y-99994047D01*
X129048809Y-100025000D01*
X129605952Y-100025000D01*
X128955952Y-99684523D02*
X129389285Y-99684523D01*
X129605952Y-99684523D02*
X129575000Y-99715476D01*
X129544047Y-99684523D01*
X129575000Y-99653571D01*
X129605952Y-99684523D01*
X129544047Y-99684523D01*
X128986904Y-99096428D02*
X128955952Y-99158333D01*
X128955952Y-99282142D01*
X128986904Y-99344047D01*
X129017857Y-99375000D01*
X129079761Y-99405952D01*
X129265476Y-99405952D01*
X129327380Y-99375000D01*
X129358333Y-99344047D01*
X129389285Y-99282142D01*
X129389285Y-99158333D01*
X129358333Y-99096428D01*
X128955952Y-98817857D02*
X129605952Y-98817857D01*
X129203571Y-98755952D02*
X128955952Y-98570238D01*
X129389285Y-98570238D02*
X129141666Y-98817857D01*
X128955952Y-97486904D02*
X128955952Y-97796428D01*
X129605952Y-97796428D01*
X128955952Y-96991666D02*
X129296428Y-96991666D01*
X129358333Y-97022619D01*
X129389285Y-97084523D01*
X129389285Y-97208333D01*
X129358333Y-97270238D01*
X128986904Y-96991666D02*
X128955952Y-97053571D01*
X128955952Y-97208333D01*
X128986904Y-97270238D01*
X129048809Y-97301190D01*
X129110714Y-97301190D01*
X129172619Y-97270238D01*
X129203571Y-97208333D01*
X129203571Y-97053571D01*
X129234523Y-96991666D01*
X128955952Y-96682142D02*
X129605952Y-96682142D01*
X129358333Y-96682142D02*
X129389285Y-96620238D01*
X129389285Y-96496428D01*
X129358333Y-96434523D01*
X129327380Y-96403571D01*
X129265476Y-96372619D01*
X129079761Y-96372619D01*
X129017857Y-96403571D01*
X128986904Y-96434523D01*
X128955952Y-96496428D01*
X128955952Y-96620238D01*
X128986904Y-96682142D01*
X128986904Y-96125000D02*
X128955952Y-96063095D01*
X128955952Y-95939285D01*
X128986904Y-95877380D01*
X129048809Y-95846428D01*
X129079761Y-95846428D01*
X129141666Y-95877380D01*
X129172619Y-95939285D01*
X129172619Y-96032142D01*
X129203571Y-96094047D01*
X129265476Y-96125000D01*
X129296428Y-96125000D01*
X129358333Y-96094047D01*
X129389285Y-96032142D01*
X129389285Y-95939285D01*
X129358333Y-95877380D01*
X129544047Y-95103571D02*
X129575000Y-95072619D01*
X129605952Y-95010714D01*
X129605952Y-94855952D01*
X129575000Y-94794047D01*
X129544047Y-94763095D01*
X129482142Y-94732142D01*
X129420238Y-94732142D01*
X129327380Y-94763095D01*
X128955952Y-95134523D01*
X128955952Y-94732142D01*
X129605952Y-94329761D02*
X129605952Y-94267857D01*
X129575000Y-94205952D01*
X129544047Y-94175000D01*
X129482142Y-94144047D01*
X129358333Y-94113095D01*
X129203571Y-94113095D01*
X129079761Y-94144047D01*
X129017857Y-94175000D01*
X128986904Y-94205952D01*
X128955952Y-94267857D01*
X128955952Y-94329761D01*
X128986904Y-94391666D01*
X129017857Y-94422619D01*
X129079761Y-94453571D01*
X129203571Y-94484523D01*
X129358333Y-94484523D01*
X129482142Y-94453571D01*
X129544047Y-94422619D01*
X129575000Y-94391666D01*
X129605952Y-94329761D01*
X129544047Y-93865476D02*
X129575000Y-93834523D01*
X129605952Y-93772619D01*
X129605952Y-93617857D01*
X129575000Y-93555952D01*
X129544047Y-93525000D01*
X129482142Y-93494047D01*
X129420238Y-93494047D01*
X129327380Y-93525000D01*
X128955952Y-93896428D01*
X128955952Y-93494047D01*
X129605952Y-93091666D02*
X129605952Y-93029761D01*
X129575000Y-92967857D01*
X129544047Y-92936904D01*
X129482142Y-92905952D01*
X129358333Y-92875000D01*
X129203571Y-92875000D01*
X129079761Y-92905952D01*
X129017857Y-92936904D01*
X128986904Y-92967857D01*
X128955952Y-93029761D01*
X128955952Y-93091666D01*
X128986904Y-93153571D01*
X129017857Y-93184523D01*
X129079761Y-93215476D01*
X129203571Y-93246428D01*
X129358333Y-93246428D01*
X129482142Y-93215476D01*
X129544047Y-93184523D01*
X129575000Y-93153571D01*
X129605952Y-93091666D01*
D12*
X141635714Y-105581428D02*
X141635714Y-104981428D01*
X141407142Y-104981428D01*
X141350000Y-105010000D01*
X141321428Y-105038571D01*
X141292857Y-105095714D01*
X141292857Y-105181428D01*
X141321428Y-105238571D01*
X141350000Y-105267142D01*
X141407142Y-105295714D01*
X141635714Y-105295714D01*
X141064285Y-105410000D02*
X140778571Y-105410000D01*
X141121428Y-105581428D02*
X140921428Y-104981428D01*
X140721428Y-105581428D01*
X140207142Y-105581428D02*
X140550000Y-105581428D01*
X140378571Y-105581428D02*
X140378571Y-104981428D01*
X140435714Y-105067142D01*
X140492857Y-105124285D01*
X140550000Y-105152857D01*
X139692857Y-105181428D02*
X139692857Y-105581428D01*
X139835714Y-104952857D02*
X139978571Y-105381428D01*
X139607142Y-105381428D01*
X143892857Y-105641428D02*
X143892857Y-105041428D01*
X143664285Y-105041428D01*
X143607142Y-105070000D01*
X143578571Y-105098571D01*
X143550000Y-105155714D01*
X143550000Y-105241428D01*
X143578571Y-105298571D01*
X143607142Y-105327142D01*
X143664285Y-105355714D01*
X143892857Y-105355714D01*
X143092857Y-105327142D02*
X143007142Y-105355714D01*
X142978571Y-105384285D01*
X142950000Y-105441428D01*
X142950000Y-105527142D01*
X142978571Y-105584285D01*
X143007142Y-105612857D01*
X143064285Y-105641428D01*
X143292857Y-105641428D01*
X143292857Y-105041428D01*
X143092857Y-105041428D01*
X143035714Y-105070000D01*
X143007142Y-105098571D01*
X142978571Y-105155714D01*
X142978571Y-105212857D01*
X143007142Y-105270000D01*
X143035714Y-105298571D01*
X143092857Y-105327142D01*
X143292857Y-105327142D01*
X142407142Y-105041428D02*
X142692857Y-105041428D01*
X142721428Y-105327142D01*
X142692857Y-105298571D01*
X142635714Y-105270000D01*
X142492857Y-105270000D01*
X142435714Y-105298571D01*
X142407142Y-105327142D01*
X142378571Y-105384285D01*
X142378571Y-105527142D01*
X142407142Y-105584285D01*
X142435714Y-105612857D01*
X142492857Y-105641428D01*
X142635714Y-105641428D01*
X142692857Y-105612857D01*
X142721428Y-105584285D01*
X146432857Y-105641428D02*
X146432857Y-105041428D01*
X146204285Y-105041428D01*
X146147142Y-105070000D01*
X146118571Y-105098571D01*
X146090000Y-105155714D01*
X146090000Y-105241428D01*
X146118571Y-105298571D01*
X146147142Y-105327142D01*
X146204285Y-105355714D01*
X146432857Y-105355714D01*
X145632857Y-105327142D02*
X145547142Y-105355714D01*
X145518571Y-105384285D01*
X145490000Y-105441428D01*
X145490000Y-105527142D01*
X145518571Y-105584285D01*
X145547142Y-105612857D01*
X145604285Y-105641428D01*
X145832857Y-105641428D01*
X145832857Y-105041428D01*
X145632857Y-105041428D01*
X145575714Y-105070000D01*
X145547142Y-105098571D01*
X145518571Y-105155714D01*
X145518571Y-105212857D01*
X145547142Y-105270000D01*
X145575714Y-105298571D01*
X145632857Y-105327142D01*
X145832857Y-105327142D01*
X144975714Y-105041428D02*
X145090000Y-105041428D01*
X145147142Y-105070000D01*
X145175714Y-105098571D01*
X145232857Y-105184285D01*
X145261428Y-105298571D01*
X145261428Y-105527142D01*
X145232857Y-105584285D01*
X145204285Y-105612857D01*
X145147142Y-105641428D01*
X145032857Y-105641428D01*
X144975714Y-105612857D01*
X144947142Y-105584285D01*
X144918571Y-105527142D01*
X144918571Y-105384285D01*
X144947142Y-105327142D01*
X144975714Y-105298571D01*
X145032857Y-105270000D01*
X145147142Y-105270000D01*
X145204285Y-105298571D01*
X145232857Y-105327142D01*
X145261428Y-105384285D01*
X148952857Y-105601428D02*
X148952857Y-105001428D01*
X148724285Y-105001428D01*
X148667142Y-105030000D01*
X148638571Y-105058571D01*
X148610000Y-105115714D01*
X148610000Y-105201428D01*
X148638571Y-105258571D01*
X148667142Y-105287142D01*
X148724285Y-105315714D01*
X148952857Y-105315714D01*
X148152857Y-105287142D02*
X148067142Y-105315714D01*
X148038571Y-105344285D01*
X148010000Y-105401428D01*
X148010000Y-105487142D01*
X148038571Y-105544285D01*
X148067142Y-105572857D01*
X148124285Y-105601428D01*
X148352857Y-105601428D01*
X148352857Y-105001428D01*
X148152857Y-105001428D01*
X148095714Y-105030000D01*
X148067142Y-105058571D01*
X148038571Y-105115714D01*
X148038571Y-105172857D01*
X148067142Y-105230000D01*
X148095714Y-105258571D01*
X148152857Y-105287142D01*
X148352857Y-105287142D01*
X147810000Y-105001428D02*
X147410000Y-105001428D01*
X147667142Y-105601428D01*
X151641428Y-105611428D02*
X151841428Y-105325714D01*
X151984285Y-105611428D02*
X151984285Y-105011428D01*
X151755714Y-105011428D01*
X151698571Y-105040000D01*
X151670000Y-105068571D01*
X151641428Y-105125714D01*
X151641428Y-105211428D01*
X151670000Y-105268571D01*
X151698571Y-105297142D01*
X151755714Y-105325714D01*
X151984285Y-105325714D01*
X151384285Y-105297142D02*
X151184285Y-105297142D01*
X151098571Y-105611428D02*
X151384285Y-105611428D01*
X151384285Y-105011428D01*
X151098571Y-105011428D01*
X150870000Y-105582857D02*
X150784285Y-105611428D01*
X150641428Y-105611428D01*
X150584285Y-105582857D01*
X150555714Y-105554285D01*
X150527142Y-105497142D01*
X150527142Y-105440000D01*
X150555714Y-105382857D01*
X150584285Y-105354285D01*
X150641428Y-105325714D01*
X150755714Y-105297142D01*
X150812857Y-105268571D01*
X150841428Y-105240000D01*
X150870000Y-105182857D01*
X150870000Y-105125714D01*
X150841428Y-105068571D01*
X150812857Y-105040000D01*
X150755714Y-105011428D01*
X150612857Y-105011428D01*
X150527142Y-105040000D01*
X150270000Y-105297142D02*
X150070000Y-105297142D01*
X149984285Y-105611428D02*
X150270000Y-105611428D01*
X150270000Y-105011428D01*
X149984285Y-105011428D01*
X149812857Y-105011428D02*
X149470000Y-105011428D01*
X149641428Y-105611428D02*
X149641428Y-105011428D01*
X154024285Y-105021428D02*
X153652857Y-105021428D01*
X153852857Y-105250000D01*
X153767142Y-105250000D01*
X153710000Y-105278571D01*
X153681428Y-105307142D01*
X153652857Y-105364285D01*
X153652857Y-105507142D01*
X153681428Y-105564285D01*
X153710000Y-105592857D01*
X153767142Y-105621428D01*
X153938571Y-105621428D01*
X153995714Y-105592857D01*
X154024285Y-105564285D01*
X153452857Y-105221428D02*
X153310000Y-105621428D01*
X153167142Y-105221428D01*
X152995714Y-105021428D02*
X152624285Y-105021428D01*
X152824285Y-105250000D01*
X152738571Y-105250000D01*
X152681428Y-105278571D01*
X152652857Y-105307142D01*
X152624285Y-105364285D01*
X152624285Y-105507142D01*
X152652857Y-105564285D01*
X152681428Y-105592857D01*
X152738571Y-105621428D01*
X152910000Y-105621428D01*
X152967142Y-105592857D01*
X152995714Y-105564285D01*
X156430000Y-105021428D02*
X156230000Y-105621428D01*
X156030000Y-105021428D01*
X155487142Y-105564285D02*
X155515714Y-105592857D01*
X155601428Y-105621428D01*
X155658571Y-105621428D01*
X155744285Y-105592857D01*
X155801428Y-105535714D01*
X155830000Y-105478571D01*
X155858571Y-105364285D01*
X155858571Y-105278571D01*
X155830000Y-105164285D01*
X155801428Y-105107142D01*
X155744285Y-105050000D01*
X155658571Y-105021428D01*
X155601428Y-105021428D01*
X155515714Y-105050000D01*
X155487142Y-105078571D01*
X154887142Y-105564285D02*
X154915714Y-105592857D01*
X155001428Y-105621428D01*
X155058571Y-105621428D01*
X155144285Y-105592857D01*
X155201428Y-105535714D01*
X155230000Y-105478571D01*
X155258571Y-105364285D01*
X155258571Y-105278571D01*
X155230000Y-105164285D01*
X155201428Y-105107142D01*
X155144285Y-105050000D01*
X155058571Y-105021428D01*
X155001428Y-105021428D01*
X154915714Y-105050000D01*
X154887142Y-105078571D01*
X159490000Y-105021428D02*
X159290000Y-105621428D01*
X159090000Y-105021428D01*
X158890000Y-105021428D02*
X158890000Y-105507142D01*
X158861428Y-105564285D01*
X158832857Y-105592857D01*
X158775714Y-105621428D01*
X158661428Y-105621428D01*
X158604285Y-105592857D01*
X158575714Y-105564285D01*
X158547142Y-105507142D01*
X158547142Y-105021428D01*
X158290000Y-105592857D02*
X158204285Y-105621428D01*
X158061428Y-105621428D01*
X158004285Y-105592857D01*
X157975714Y-105564285D01*
X157947142Y-105507142D01*
X157947142Y-105450000D01*
X157975714Y-105392857D01*
X158004285Y-105364285D01*
X158061428Y-105335714D01*
X158175714Y-105307142D01*
X158232857Y-105278571D01*
X158261428Y-105250000D01*
X158290000Y-105192857D01*
X158290000Y-105135714D01*
X158261428Y-105078571D01*
X158232857Y-105050000D01*
X158175714Y-105021428D01*
X158032857Y-105021428D01*
X157947142Y-105050000D01*
X157490000Y-105307142D02*
X157404285Y-105335714D01*
X157375714Y-105364285D01*
X157347142Y-105421428D01*
X157347142Y-105507142D01*
X157375714Y-105564285D01*
X157404285Y-105592857D01*
X157461428Y-105621428D01*
X157690000Y-105621428D01*
X157690000Y-105021428D01*
X157490000Y-105021428D01*
X157432857Y-105050000D01*
X157404285Y-105078571D01*
X157375714Y-105135714D01*
X157375714Y-105192857D01*
X157404285Y-105250000D01*
X157432857Y-105278571D01*
X157490000Y-105307142D01*
X157690000Y-105307142D01*
X161397142Y-105050000D02*
X161454285Y-105021428D01*
X161540000Y-105021428D01*
X161625714Y-105050000D01*
X161682857Y-105107142D01*
X161711428Y-105164285D01*
X161740000Y-105278571D01*
X161740000Y-105364285D01*
X161711428Y-105478571D01*
X161682857Y-105535714D01*
X161625714Y-105592857D01*
X161540000Y-105621428D01*
X161482857Y-105621428D01*
X161397142Y-105592857D01*
X161368571Y-105564285D01*
X161368571Y-105364285D01*
X161482857Y-105364285D01*
X161111428Y-105621428D02*
X161111428Y-105021428D01*
X160768571Y-105621428D01*
X160768571Y-105021428D01*
X160482857Y-105621428D02*
X160482857Y-105021428D01*
X160340000Y-105021428D01*
X160254285Y-105050000D01*
X160197142Y-105107142D01*
X160168571Y-105164285D01*
X160140000Y-105278571D01*
X160140000Y-105364285D01*
X160168571Y-105478571D01*
X160197142Y-105535714D01*
X160254285Y-105592857D01*
X160340000Y-105621428D01*
X160482857Y-105621428D01*
X139065714Y-105571428D02*
X139065714Y-104971428D01*
X138837142Y-104971428D01*
X138780000Y-105000000D01*
X138751428Y-105028571D01*
X138722857Y-105085714D01*
X138722857Y-105171428D01*
X138751428Y-105228571D01*
X138780000Y-105257142D01*
X138837142Y-105285714D01*
X139065714Y-105285714D01*
X138494285Y-105400000D02*
X138208571Y-105400000D01*
X138551428Y-105571428D02*
X138351428Y-104971428D01*
X138151428Y-105571428D01*
X137637142Y-105571428D02*
X137980000Y-105571428D01*
X137808571Y-105571428D02*
X137808571Y-104971428D01*
X137865714Y-105057142D01*
X137922857Y-105114285D01*
X137980000Y-105142857D01*
X137437142Y-104971428D02*
X137065714Y-104971428D01*
X137265714Y-105200000D01*
X137180000Y-105200000D01*
X137122857Y-105228571D01*
X137094285Y-105257142D01*
X137065714Y-105314285D01*
X137065714Y-105457142D01*
X137094285Y-105514285D01*
X137122857Y-105542857D01*
X137180000Y-105571428D01*
X137351428Y-105571428D01*
X137408571Y-105542857D01*
X137437142Y-105514285D01*
X136455714Y-105571428D02*
X136455714Y-104971428D01*
X136227142Y-104971428D01*
X136170000Y-105000000D01*
X136141428Y-105028571D01*
X136112857Y-105085714D01*
X136112857Y-105171428D01*
X136141428Y-105228571D01*
X136170000Y-105257142D01*
X136227142Y-105285714D01*
X136455714Y-105285714D01*
X135884285Y-105400000D02*
X135598571Y-105400000D01*
X135941428Y-105571428D02*
X135741428Y-104971428D01*
X135541428Y-105571428D01*
X135027142Y-105571428D02*
X135370000Y-105571428D01*
X135198571Y-105571428D02*
X135198571Y-104971428D01*
X135255714Y-105057142D01*
X135312857Y-105114285D01*
X135370000Y-105142857D01*
X134655714Y-104971428D02*
X134598571Y-104971428D01*
X134541428Y-105000000D01*
X134512857Y-105028571D01*
X134484285Y-105085714D01*
X134455714Y-105200000D01*
X134455714Y-105342857D01*
X134484285Y-105457142D01*
X134512857Y-105514285D01*
X134541428Y-105542857D01*
X134598571Y-105571428D01*
X134655714Y-105571428D01*
X134712857Y-105542857D01*
X134741428Y-105514285D01*
X134770000Y-105457142D01*
X134798571Y-105342857D01*
X134798571Y-105200000D01*
X134770000Y-105085714D01*
X134741428Y-105028571D01*
X134712857Y-105000000D01*
X134655714Y-104971428D01*
X133600000Y-105571428D02*
X133600000Y-104971428D01*
X133371428Y-104971428D01*
X133314285Y-105000000D01*
X133285714Y-105028571D01*
X133257142Y-105085714D01*
X133257142Y-105171428D01*
X133285714Y-105228571D01*
X133314285Y-105257142D01*
X133371428Y-105285714D01*
X133600000Y-105285714D01*
X133028571Y-105400000D02*
X132742857Y-105400000D01*
X133085714Y-105571428D02*
X132885714Y-104971428D01*
X132685714Y-105571428D01*
X132457142Y-105571428D02*
X132342857Y-105571428D01*
X132285714Y-105542857D01*
X132257142Y-105514285D01*
X132200000Y-105428571D01*
X132171428Y-105314285D01*
X132171428Y-105085714D01*
X132200000Y-105028571D01*
X132228571Y-105000000D01*
X132285714Y-104971428D01*
X132400000Y-104971428D01*
X132457142Y-105000000D01*
X132485714Y-105028571D01*
X132514285Y-105085714D01*
X132514285Y-105228571D01*
X132485714Y-105285714D01*
X132457142Y-105314285D01*
X132400000Y-105342857D01*
X132285714Y-105342857D01*
X132228571Y-105314285D01*
X132200000Y-105285714D01*
X132171428Y-105228571D01*
X132205000Y-92623571D02*
X132205000Y-93223571D01*
X132433571Y-93223571D01*
X132490714Y-93195000D01*
X132519285Y-93166428D01*
X132547857Y-93109285D01*
X132547857Y-93023571D01*
X132519285Y-92966428D01*
X132490714Y-92937857D01*
X132433571Y-92909285D01*
X132205000Y-92909285D01*
X132776428Y-92795000D02*
X133062142Y-92795000D01*
X132719285Y-92623571D02*
X132919285Y-93223571D01*
X133119285Y-92623571D01*
X133405000Y-92966428D02*
X133347857Y-92995000D01*
X133319285Y-93023571D01*
X133290714Y-93080714D01*
X133290714Y-93109285D01*
X133319285Y-93166428D01*
X133347857Y-93195000D01*
X133405000Y-93223571D01*
X133519285Y-93223571D01*
X133576428Y-93195000D01*
X133605000Y-93166428D01*
X133633571Y-93109285D01*
X133633571Y-93080714D01*
X133605000Y-93023571D01*
X133576428Y-92995000D01*
X133519285Y-92966428D01*
X133405000Y-92966428D01*
X133347857Y-92937857D01*
X133319285Y-92909285D01*
X133290714Y-92852142D01*
X133290714Y-92737857D01*
X133319285Y-92680714D01*
X133347857Y-92652142D01*
X133405000Y-92623571D01*
X133519285Y-92623571D01*
X133576428Y-92652142D01*
X133605000Y-92680714D01*
X133633571Y-92737857D01*
X133633571Y-92852142D01*
X133605000Y-92909285D01*
X133576428Y-92937857D01*
X133519285Y-92966428D01*
X134745000Y-92623571D02*
X134745000Y-93223571D01*
X134973571Y-93223571D01*
X135030714Y-93195000D01*
X135059285Y-93166428D01*
X135087857Y-93109285D01*
X135087857Y-93023571D01*
X135059285Y-92966428D01*
X135030714Y-92937857D01*
X134973571Y-92909285D01*
X134745000Y-92909285D01*
X135316428Y-92795000D02*
X135602142Y-92795000D01*
X135259285Y-92623571D02*
X135459285Y-93223571D01*
X135659285Y-92623571D01*
X135802142Y-93223571D02*
X136202142Y-93223571D01*
X135945000Y-92623571D01*
X137285000Y-92623571D02*
X137285000Y-93223571D01*
X137513571Y-93223571D01*
X137570714Y-93195000D01*
X137599285Y-93166428D01*
X137627857Y-93109285D01*
X137627857Y-93023571D01*
X137599285Y-92966428D01*
X137570714Y-92937857D01*
X137513571Y-92909285D01*
X137285000Y-92909285D01*
X137856428Y-92795000D02*
X138142142Y-92795000D01*
X137799285Y-92623571D02*
X137999285Y-93223571D01*
X138199285Y-92623571D01*
X138656428Y-93223571D02*
X138542142Y-93223571D01*
X138485000Y-93195000D01*
X138456428Y-93166428D01*
X138399285Y-93080714D01*
X138370714Y-92966428D01*
X138370714Y-92737857D01*
X138399285Y-92680714D01*
X138427857Y-92652142D01*
X138485000Y-92623571D01*
X138599285Y-92623571D01*
X138656428Y-92652142D01*
X138685000Y-92680714D01*
X138713571Y-92737857D01*
X138713571Y-92880714D01*
X138685000Y-92937857D01*
X138656428Y-92966428D01*
X138599285Y-92995000D01*
X138485000Y-92995000D01*
X138427857Y-92966428D01*
X138399285Y-92937857D01*
X138370714Y-92880714D01*
X141428571Y-92100000D02*
X142028571Y-92100000D01*
X142028571Y-91871428D01*
X142000000Y-91814285D01*
X141971428Y-91785714D01*
X141914285Y-91757142D01*
X141828571Y-91757142D01*
X141771428Y-91785714D01*
X141742857Y-91814285D01*
X141714285Y-91871428D01*
X141714285Y-92100000D01*
X141600000Y-91528571D02*
X141600000Y-91242857D01*
X141428571Y-91585714D02*
X142028571Y-91385714D01*
X141428571Y-91185714D01*
X142028571Y-90700000D02*
X142028571Y-90985714D01*
X141742857Y-91014285D01*
X141771428Y-90985714D01*
X141800000Y-90928571D01*
X141800000Y-90785714D01*
X141771428Y-90728571D01*
X141742857Y-90700000D01*
X141685714Y-90671428D01*
X141542857Y-90671428D01*
X141485714Y-90700000D01*
X141457142Y-90728571D01*
X141428571Y-90785714D01*
X141428571Y-90928571D01*
X141457142Y-90985714D01*
X141485714Y-91014285D01*
X144128571Y-92150000D02*
X144728571Y-92150000D01*
X144728571Y-91921428D01*
X144700000Y-91864285D01*
X144671428Y-91835714D01*
X144614285Y-91807142D01*
X144528571Y-91807142D01*
X144471428Y-91835714D01*
X144442857Y-91864285D01*
X144414285Y-91921428D01*
X144414285Y-92150000D01*
X144300000Y-91578571D02*
X144300000Y-91292857D01*
X144128571Y-91635714D02*
X144728571Y-91435714D01*
X144128571Y-91235714D01*
X144528571Y-90778571D02*
X144128571Y-90778571D01*
X144757142Y-90921428D02*
X144328571Y-91064285D01*
X144328571Y-90692857D01*
X146821428Y-90778571D02*
X146821428Y-90492857D01*
X146221428Y-90492857D01*
X146507142Y-90978571D02*
X146507142Y-91178571D01*
X146821428Y-91264285D02*
X146821428Y-90978571D01*
X146221428Y-90978571D01*
X146221428Y-91264285D01*
X146821428Y-91521428D02*
X146221428Y-91521428D01*
X146221428Y-91664285D01*
X146250000Y-91750000D01*
X146307142Y-91807142D01*
X146364285Y-91835714D01*
X146478571Y-91864285D01*
X146564285Y-91864285D01*
X146678571Y-91835714D01*
X146735714Y-91807142D01*
X146792857Y-91750000D01*
X146821428Y-91664285D01*
X146821428Y-91521428D01*
X146421428Y-92378571D02*
X146821428Y-92378571D01*
X146192857Y-92235714D02*
X146621428Y-92092857D01*
X146621428Y-92464285D01*
X150158571Y-92588571D02*
X149872857Y-92588571D01*
X149872857Y-93188571D01*
X150358571Y-92902857D02*
X150558571Y-92902857D01*
X150644285Y-92588571D02*
X150358571Y-92588571D01*
X150358571Y-93188571D01*
X150644285Y-93188571D01*
X150901428Y-92588571D02*
X150901428Y-93188571D01*
X151044285Y-93188571D01*
X151130000Y-93160000D01*
X151187142Y-93102857D01*
X151215714Y-93045714D01*
X151244285Y-92931428D01*
X151244285Y-92845714D01*
X151215714Y-92731428D01*
X151187142Y-92674285D01*
X151130000Y-92617142D01*
X151044285Y-92588571D01*
X150901428Y-92588571D01*
X151444285Y-93188571D02*
X151815714Y-93188571D01*
X151615714Y-92960000D01*
X151701428Y-92960000D01*
X151758571Y-92931428D01*
X151787142Y-92902857D01*
X151815714Y-92845714D01*
X151815714Y-92702857D01*
X151787142Y-92645714D01*
X151758571Y-92617142D01*
X151701428Y-92588571D01*
X151530000Y-92588571D01*
X151472857Y-92617142D01*
X151444285Y-92645714D01*
X152728571Y-92588571D02*
X152442857Y-92588571D01*
X152442857Y-93188571D01*
X152928571Y-92902857D02*
X153128571Y-92902857D01*
X153214285Y-92588571D02*
X152928571Y-92588571D01*
X152928571Y-93188571D01*
X153214285Y-93188571D01*
X153471428Y-92588571D02*
X153471428Y-93188571D01*
X153614285Y-93188571D01*
X153700000Y-93160000D01*
X153757142Y-93102857D01*
X153785714Y-93045714D01*
X153814285Y-92931428D01*
X153814285Y-92845714D01*
X153785714Y-92731428D01*
X153757142Y-92674285D01*
X153700000Y-92617142D01*
X153614285Y-92588571D01*
X153471428Y-92588571D01*
X154042857Y-93131428D02*
X154071428Y-93160000D01*
X154128571Y-93188571D01*
X154271428Y-93188571D01*
X154328571Y-93160000D01*
X154357142Y-93131428D01*
X154385714Y-93074285D01*
X154385714Y-93017142D01*
X154357142Y-92931428D01*
X154014285Y-92588571D01*
X154385714Y-92588571D01*
X155218571Y-92588571D02*
X154932857Y-92588571D01*
X154932857Y-93188571D01*
X155418571Y-92902857D02*
X155618571Y-92902857D01*
X155704285Y-92588571D02*
X155418571Y-92588571D01*
X155418571Y-93188571D01*
X155704285Y-93188571D01*
X155961428Y-92588571D02*
X155961428Y-93188571D01*
X156104285Y-93188571D01*
X156190000Y-93160000D01*
X156247142Y-93102857D01*
X156275714Y-93045714D01*
X156304285Y-92931428D01*
X156304285Y-92845714D01*
X156275714Y-92731428D01*
X156247142Y-92674285D01*
X156190000Y-92617142D01*
X156104285Y-92588571D01*
X155961428Y-92588571D01*
X156875714Y-92588571D02*
X156532857Y-92588571D01*
X156704285Y-92588571D02*
X156704285Y-93188571D01*
X156647142Y-93102857D01*
X156590000Y-93045714D01*
X156532857Y-93017142D01*
D10*
X158271428Y-97230952D02*
X158271428Y-96469047D01*
X157819047Y-98821428D02*
X158580952Y-98821428D01*
X158200000Y-99202380D02*
X158200000Y-98440476D01*
D11*
X156920714Y-96730714D02*
X156946904Y-96809285D01*
X156973095Y-96835476D01*
X157025476Y-96861666D01*
X157104047Y-96861666D01*
X157156428Y-96835476D01*
X157182619Y-96809285D01*
X157208809Y-96756904D01*
X157208809Y-96547380D01*
X156658809Y-96547380D01*
X156658809Y-96730714D01*
X156685000Y-96783095D01*
X156711190Y-96809285D01*
X156763571Y-96835476D01*
X156815952Y-96835476D01*
X156868333Y-96809285D01*
X156894523Y-96783095D01*
X156920714Y-96730714D01*
X156920714Y-96547380D01*
X157208809Y-97333095D02*
X156920714Y-97333095D01*
X156868333Y-97306904D01*
X156842142Y-97254523D01*
X156842142Y-97149761D01*
X156868333Y-97097380D01*
X157182619Y-97333095D02*
X157208809Y-97280714D01*
X157208809Y-97149761D01*
X157182619Y-97097380D01*
X157130238Y-97071190D01*
X157077857Y-97071190D01*
X157025476Y-97097380D01*
X156999285Y-97149761D01*
X156999285Y-97280714D01*
X156973095Y-97333095D01*
X156842142Y-97516428D02*
X156842142Y-97725952D01*
X156658809Y-97595000D02*
X157130238Y-97595000D01*
X157182619Y-97621190D01*
X157208809Y-97673571D01*
X157208809Y-97725952D01*
X156842142Y-97830714D02*
X156842142Y-98040238D01*
X156658809Y-97909285D02*
X157130238Y-97909285D01*
X157182619Y-97935476D01*
X157208809Y-97987857D01*
X157208809Y-98040238D01*
X157182619Y-98433095D02*
X157208809Y-98380714D01*
X157208809Y-98275952D01*
X157182619Y-98223571D01*
X157130238Y-98197380D01*
X156920714Y-98197380D01*
X156868333Y-98223571D01*
X156842142Y-98275952D01*
X156842142Y-98380714D01*
X156868333Y-98433095D01*
X156920714Y-98459285D01*
X156973095Y-98459285D01*
X157025476Y-98197380D01*
X157208809Y-98695000D02*
X156842142Y-98695000D01*
X156946904Y-98695000D02*
X156894523Y-98721190D01*
X156868333Y-98747380D01*
X156842142Y-98799761D01*
X156842142Y-98852142D01*
X156842142Y-98983095D02*
X157208809Y-99114047D01*
X156842142Y-99245000D02*
X157208809Y-99114047D01*
X157339761Y-99061666D01*
X157365952Y-99035476D01*
X157392142Y-98983095D01*
D12*
X163337258Y-102702500D02*
X162862742Y-102702500D01*
X163337258Y-101657500D02*
X162862742Y-101657500D01*
X163347258Y-104162500D02*
X162872742Y-104162500D01*
X163347258Y-103117500D02*
X162872742Y-103117500D01*
X163357258Y-93832500D02*
X162882742Y-93832500D01*
X163357258Y-92787500D02*
X162882742Y-92787500D01*
X163347258Y-95302500D02*
X162872742Y-95302500D01*
X163347258Y-94257500D02*
X162872742Y-94257500D01*
X164575000Y-101455000D02*
X162290000Y-101455000D01*
X164575000Y-99985000D02*
X164575000Y-101455000D01*
X162290000Y-99985000D02*
X164575000Y-99985000D01*
X164595000Y-99975000D02*
X162310000Y-99975000D01*
X164595000Y-98505000D02*
X164595000Y-99975000D01*
X162310000Y-98505000D02*
X164595000Y-98505000D01*
X164595000Y-98515000D02*
X162310000Y-98515000D01*
X164595000Y-97045000D02*
X164595000Y-98515000D01*
X162310000Y-97045000D02*
X164595000Y-97045000D01*
X164585000Y-97015000D02*
X162300000Y-97015000D01*
X164585000Y-95545000D02*
X164585000Y-97015000D01*
X162300000Y-95545000D02*
X164585000Y-95545000D01*
D11*
X148950000Y-101050000D02*
X140000000Y-101050000D01*
X140025679Y-93021297D02*
X148975679Y-93021297D01*
X147950000Y-97050000D02*
G75*
G03*
X147950000Y-97050000I-3450000J0D01*
G01*
X146700000Y-97050000D02*
G75*
G03*
X146700000Y-97050000I-2200000J0D01*
G01*
X148950000Y-101050000D02*
G75*
G03*
X148975679Y-93021297I-4474321J4028703D01*
G01*
X140025679Y-93021297D02*
G75*
G03*
X140000000Y-101050000I4474321J-4028703D01*
G01*
D12*
X132975000Y-97350000D02*
X133575000Y-97350000D01*
X132275000Y-95250000D02*
X132275000Y-96650000D01*
X133575000Y-94550000D02*
X132975000Y-94550000D01*
X134275000Y-96650000D02*
X134275000Y-95250000D01*
X133575000Y-97350000D02*
G75*
G03*
X134275000Y-96650000I0J700000D01*
G01*
X132275000Y-96650000D02*
G75*
G03*
X132975000Y-97350000I700000J0D01*
G01*
X132975000Y-94550000D02*
G75*
G03*
X132275000Y-95250000I0J-700000D01*
G01*
X134275000Y-95250000D02*
G75*
G03*
X133575000Y-94550000I-700000J0D01*
G01*
X147360000Y-105070000D02*
X147360000Y-101450000D01*
X141240000Y-105070000D02*
X147360000Y-105070000D01*
X141240000Y-101450000D02*
X141240000Y-105070000D01*
X147360000Y-101450000D02*
X141240000Y-101450000D01*
X137022779Y-103565000D02*
X136697221Y-103565000D01*
X137022779Y-104585000D02*
X136697221Y-104585000D01*
X136660000Y-102012779D02*
X136660000Y-101687221D01*
X135640000Y-102012779D02*
X135640000Y-101687221D01*
X137100000Y-102022779D02*
X137100000Y-101697221D01*
X138120000Y-102022779D02*
X138120000Y-101697221D01*
X145300000Y-97735000D02*
X142815000Y-97735000D01*
X142815000Y-97735000D02*
X142815000Y-96365000D01*
X142815000Y-96365000D02*
X145300000Y-96365000D01*
X144637779Y-97965000D02*
X144312221Y-97965000D01*
X144637779Y-98985000D02*
X144312221Y-98985000D01*
D11*
X164253571Y-105048809D02*
X164436904Y-104786904D01*
X164567857Y-105048809D02*
X164567857Y-104498809D01*
X164358333Y-104498809D01*
X164305952Y-104525000D01*
X164279761Y-104551190D01*
X164253571Y-104603571D01*
X164253571Y-104682142D01*
X164279761Y-104734523D01*
X164305952Y-104760714D01*
X164358333Y-104786904D01*
X164567857Y-104786904D01*
X163729761Y-105048809D02*
X164044047Y-105048809D01*
X163886904Y-105048809D02*
X163886904Y-104498809D01*
X163939285Y-104577380D01*
X163991666Y-104629761D01*
X164044047Y-104655952D01*
X163520238Y-104551190D02*
X163494047Y-104525000D01*
X163441666Y-104498809D01*
X163310714Y-104498809D01*
X163258333Y-104525000D01*
X163232142Y-104551190D01*
X163205952Y-104603571D01*
X163205952Y-104655952D01*
X163232142Y-104734523D01*
X163546428Y-105048809D01*
X163205952Y-105048809D01*
X164278571Y-105773809D02*
X164461904Y-105511904D01*
X164592857Y-105773809D02*
X164592857Y-105223809D01*
X164383333Y-105223809D01*
X164330952Y-105250000D01*
X164304761Y-105276190D01*
X164278571Y-105328571D01*
X164278571Y-105407142D01*
X164304761Y-105459523D01*
X164330952Y-105485714D01*
X164383333Y-105511904D01*
X164592857Y-105511904D01*
X163754761Y-105773809D02*
X164069047Y-105773809D01*
X163911904Y-105773809D02*
X163911904Y-105223809D01*
X163964285Y-105302380D01*
X164016666Y-105354761D01*
X164069047Y-105380952D01*
X163414285Y-105223809D02*
X163361904Y-105223809D01*
X163309523Y-105250000D01*
X163283333Y-105276190D01*
X163257142Y-105328571D01*
X163230952Y-105433333D01*
X163230952Y-105564285D01*
X163257142Y-105669047D01*
X163283333Y-105721428D01*
X163309523Y-105747619D01*
X163361904Y-105773809D01*
X163414285Y-105773809D01*
X163466666Y-105747619D01*
X163492857Y-105721428D01*
X163519047Y-105669047D01*
X163545238Y-105564285D01*
X163545238Y-105433333D01*
X163519047Y-105328571D01*
X163492857Y-105276190D01*
X163466666Y-105250000D01*
X163414285Y-105223809D01*
X161623809Y-93258333D02*
X161361904Y-93075000D01*
X161623809Y-92944047D02*
X161073809Y-92944047D01*
X161073809Y-93153571D01*
X161100000Y-93205952D01*
X161126190Y-93232142D01*
X161178571Y-93258333D01*
X161257142Y-93258333D01*
X161309523Y-93232142D01*
X161335714Y-93205952D01*
X161361904Y-93153571D01*
X161361904Y-92944047D01*
X161309523Y-93572619D02*
X161283333Y-93520238D01*
X161257142Y-93494047D01*
X161204761Y-93467857D01*
X161178571Y-93467857D01*
X161126190Y-93494047D01*
X161100000Y-93520238D01*
X161073809Y-93572619D01*
X161073809Y-93677380D01*
X161100000Y-93729761D01*
X161126190Y-93755952D01*
X161178571Y-93782142D01*
X161204761Y-93782142D01*
X161257142Y-93755952D01*
X161283333Y-93729761D01*
X161309523Y-93677380D01*
X161309523Y-93572619D01*
X161335714Y-93520238D01*
X161361904Y-93494047D01*
X161414285Y-93467857D01*
X161519047Y-93467857D01*
X161571428Y-93494047D01*
X161597619Y-93520238D01*
X161623809Y-93572619D01*
X161623809Y-93677380D01*
X161597619Y-93729761D01*
X161571428Y-93755952D01*
X161519047Y-93782142D01*
X161414285Y-93782142D01*
X161361904Y-93755952D01*
X161335714Y-93729761D01*
X161309523Y-93677380D01*
X161598809Y-94708333D02*
X161336904Y-94525000D01*
X161598809Y-94394047D02*
X161048809Y-94394047D01*
X161048809Y-94603571D01*
X161075000Y-94655952D01*
X161101190Y-94682142D01*
X161153571Y-94708333D01*
X161232142Y-94708333D01*
X161284523Y-94682142D01*
X161310714Y-94655952D01*
X161336904Y-94603571D01*
X161336904Y-94394047D01*
X161048809Y-94891666D02*
X161048809Y-95258333D01*
X161598809Y-95022619D01*
X161623809Y-100244047D02*
X161073809Y-100244047D01*
X161073809Y-100375000D01*
X161100000Y-100453571D01*
X161152380Y-100505952D01*
X161204761Y-100532142D01*
X161309523Y-100558333D01*
X161388095Y-100558333D01*
X161492857Y-100532142D01*
X161545238Y-100505952D01*
X161597619Y-100453571D01*
X161623809Y-100375000D01*
X161623809Y-100244047D01*
X161309523Y-100872619D02*
X161283333Y-100820238D01*
X161257142Y-100794047D01*
X161204761Y-100767857D01*
X161178571Y-100767857D01*
X161126190Y-100794047D01*
X161100000Y-100820238D01*
X161073809Y-100872619D01*
X161073809Y-100977380D01*
X161100000Y-101029761D01*
X161126190Y-101055952D01*
X161178571Y-101082142D01*
X161204761Y-101082142D01*
X161257142Y-101055952D01*
X161283333Y-101029761D01*
X161309523Y-100977380D01*
X161309523Y-100872619D01*
X161335714Y-100820238D01*
X161361904Y-100794047D01*
X161414285Y-100767857D01*
X161519047Y-100767857D01*
X161571428Y-100794047D01*
X161597619Y-100820238D01*
X161623809Y-100872619D01*
X161623809Y-100977380D01*
X161597619Y-101029761D01*
X161571428Y-101055952D01*
X161519047Y-101082142D01*
X161414285Y-101082142D01*
X161361904Y-101055952D01*
X161335714Y-101029761D01*
X161309523Y-100977380D01*
X161623809Y-98834047D02*
X161073809Y-98834047D01*
X161073809Y-98965000D01*
X161100000Y-99043571D01*
X161152380Y-99095952D01*
X161204761Y-99122142D01*
X161309523Y-99148333D01*
X161388095Y-99148333D01*
X161492857Y-99122142D01*
X161545238Y-99095952D01*
X161597619Y-99043571D01*
X161623809Y-98965000D01*
X161623809Y-98834047D01*
X161073809Y-99331666D02*
X161073809Y-99698333D01*
X161623809Y-99462619D01*
X161623809Y-97344047D02*
X161073809Y-97344047D01*
X161073809Y-97475000D01*
X161100000Y-97553571D01*
X161152380Y-97605952D01*
X161204761Y-97632142D01*
X161309523Y-97658333D01*
X161388095Y-97658333D01*
X161492857Y-97632142D01*
X161545238Y-97605952D01*
X161597619Y-97553571D01*
X161623809Y-97475000D01*
X161623809Y-97344047D01*
X161073809Y-98155952D02*
X161073809Y-97894047D01*
X161335714Y-97867857D01*
X161309523Y-97894047D01*
X161283333Y-97946428D01*
X161283333Y-98077380D01*
X161309523Y-98129761D01*
X161335714Y-98155952D01*
X161388095Y-98182142D01*
X161519047Y-98182142D01*
X161571428Y-98155952D01*
X161597619Y-98129761D01*
X161623809Y-98077380D01*
X161623809Y-97946428D01*
X161597619Y-97894047D01*
X161571428Y-97867857D01*
X161623809Y-95919047D02*
X161073809Y-95919047D01*
X161073809Y-96050000D01*
X161100000Y-96128571D01*
X161152380Y-96180952D01*
X161204761Y-96207142D01*
X161309523Y-96233333D01*
X161388095Y-96233333D01*
X161492857Y-96207142D01*
X161545238Y-96180952D01*
X161597619Y-96128571D01*
X161623809Y-96050000D01*
X161623809Y-95919047D01*
X161257142Y-96704761D02*
X161623809Y-96704761D01*
X161047619Y-96573809D02*
X161440476Y-96442857D01*
X161440476Y-96783333D01*
X135198809Y-103958333D02*
X134936904Y-103775000D01*
X135198809Y-103644047D02*
X134648809Y-103644047D01*
X134648809Y-103853571D01*
X134675000Y-103905952D01*
X134701190Y-103932142D01*
X134753571Y-103958333D01*
X134832142Y-103958333D01*
X134884523Y-103932142D01*
X134910714Y-103905952D01*
X134936904Y-103853571D01*
X134936904Y-103644047D01*
X134648809Y-104141666D02*
X134648809Y-104482142D01*
X134858333Y-104298809D01*
X134858333Y-104377380D01*
X134884523Y-104429761D01*
X134910714Y-104455952D01*
X134963095Y-104482142D01*
X135094047Y-104482142D01*
X135146428Y-104455952D01*
X135172619Y-104429761D01*
X135198809Y-104377380D01*
X135198809Y-104220238D01*
X135172619Y-104167857D01*
X135146428Y-104141666D01*
X136296428Y-99708333D02*
X136322619Y-99682142D01*
X136348809Y-99603571D01*
X136348809Y-99551190D01*
X136322619Y-99472619D01*
X136270238Y-99420238D01*
X136217857Y-99394047D01*
X136113095Y-99367857D01*
X136034523Y-99367857D01*
X135929761Y-99394047D01*
X135877380Y-99420238D01*
X135825000Y-99472619D01*
X135798809Y-99551190D01*
X135798809Y-99603571D01*
X135825000Y-99682142D01*
X135851190Y-99708333D01*
X136348809Y-100232142D02*
X136348809Y-99917857D01*
X136348809Y-100075000D02*
X135798809Y-100075000D01*
X135877380Y-100022619D01*
X135929761Y-99970238D01*
X135955952Y-99917857D01*
X137908809Y-99718333D02*
X137646904Y-99535000D01*
X137908809Y-99404047D02*
X137358809Y-99404047D01*
X137358809Y-99613571D01*
X137385000Y-99665952D01*
X137411190Y-99692142D01*
X137463571Y-99718333D01*
X137542142Y-99718333D01*
X137594523Y-99692142D01*
X137620714Y-99665952D01*
X137646904Y-99613571D01*
X137646904Y-99404047D01*
X137411190Y-99927857D02*
X137385000Y-99954047D01*
X137358809Y-100006428D01*
X137358809Y-100137380D01*
X137385000Y-100189761D01*
X137411190Y-100215952D01*
X137463571Y-100242142D01*
X137515952Y-100242142D01*
X137594523Y-100215952D01*
X137908809Y-99901666D01*
X137908809Y-100242142D01*
X142081190Y-97435952D02*
X142631190Y-97435952D01*
X142631190Y-97305000D01*
X142605000Y-97226428D01*
X142552619Y-97174047D01*
X142500238Y-97147857D01*
X142395476Y-97121666D01*
X142316904Y-97121666D01*
X142212142Y-97147857D01*
X142159761Y-97174047D01*
X142107380Y-97226428D01*
X142081190Y-97305000D01*
X142081190Y-97435952D01*
X142631190Y-96938333D02*
X142631190Y-96597857D01*
X142421666Y-96781190D01*
X142421666Y-96702619D01*
X142395476Y-96650238D01*
X142369285Y-96624047D01*
X142316904Y-96597857D01*
X142185952Y-96597857D01*
X142133571Y-96624047D01*
X142107380Y-96650238D01*
X142081190Y-96702619D01*
X142081190Y-96859761D01*
X142107380Y-96912142D01*
X142133571Y-96938333D01*
X142131190Y-98611666D02*
X142393095Y-98795000D01*
X142131190Y-98925952D02*
X142681190Y-98925952D01*
X142681190Y-98716428D01*
X142655000Y-98664047D01*
X142628809Y-98637857D01*
X142576428Y-98611666D01*
X142497857Y-98611666D01*
X142445476Y-98637857D01*
X142419285Y-98664047D01*
X142393095Y-98716428D01*
X142393095Y-98925952D01*
X142131190Y-98087857D02*
X142131190Y-98402142D01*
X142131190Y-98245000D02*
X142681190Y-98245000D01*
X142602619Y-98297380D01*
X142550238Y-98349761D01*
X142524047Y-98402142D01*
M02*
