G04 #@! TF.GenerationSoftware,KiCad,Pcbnew,(5.1.6-0-10_14)*
G04 #@! TF.CreationDate,2020-07-04T12:59:23-07:00*
G04 #@! TF.ProjectId,Compact,436f6d70-6163-4742-9e6b-696361645f70,rev?*
G04 #@! TF.SameCoordinates,Original*
G04 #@! TF.FileFunction,Copper,L1,Top*
G04 #@! TF.FilePolarity,Positive*
%FSLAX46Y46*%
G04 Gerber Fmt 4.6, Leading zero omitted, Abs format (unit mm)*
G04 Created by KiCad (PCBNEW (5.1.6-0-10_14)) date 2020-07-04 12:59:23*
%MOMM*%
%LPD*%
G01*
G04 APERTURE LIST*
G04 #@! TA.AperFunction,ComponentPad*
%ADD10C,1.500000*%
G04 #@! TD*
G04 #@! TA.AperFunction,ComponentPad*
%ADD11R,1.700000X1.700000*%
G04 #@! TD*
G04 #@! TA.AperFunction,ComponentPad*
%ADD12O,1.700000X1.700000*%
G04 #@! TD*
G04 #@! TA.AperFunction,SMDPad,CuDef*
%ADD13R,0.700000X0.450000*%
G04 #@! TD*
G04 #@! TA.AperFunction,SMDPad,CuDef*
%ADD14R,0.500000X1.480000*%
G04 #@! TD*
G04 #@! TA.AperFunction,SMDPad,CuDef*
%ADD15R,0.500000X1.000000*%
G04 #@! TD*
G04 #@! TA.AperFunction,SMDPad,CuDef*
%ADD16R,0.800000X0.500000*%
G04 #@! TD*
G04 #@! TA.AperFunction,SMDPad,CuDef*
%ADD17R,0.800000X0.300000*%
G04 #@! TD*
G04 #@! TA.AperFunction,ComponentPad*
%ADD18O,1.750000X1.200000*%
G04 #@! TD*
G04 #@! TA.AperFunction,SMDPad,CuDef*
%ADD19R,0.750000X0.300000*%
G04 #@! TD*
G04 #@! TA.AperFunction,SMDPad,CuDef*
%ADD20R,1.060000X0.650000*%
G04 #@! TD*
G04 #@! TA.AperFunction,SMDPad,CuDef*
%ADD21R,1.000000X1.000000*%
G04 #@! TD*
G04 #@! TA.AperFunction,SMDPad,CuDef*
%ADD22R,0.800000X0.900000*%
G04 #@! TD*
G04 #@! TA.AperFunction,SMDPad,CuDef*
%ADD23R,2.500000X4.400000*%
G04 #@! TD*
G04 #@! TA.AperFunction,ComponentPad*
%ADD24O,1.700000X1.350000*%
G04 #@! TD*
G04 #@! TA.AperFunction,ComponentPad*
%ADD25O,1.500000X1.100000*%
G04 #@! TD*
G04 #@! TA.AperFunction,SMDPad,CuDef*
%ADD26R,1.650000X0.400000*%
G04 #@! TD*
G04 #@! TA.AperFunction,SMDPad,CuDef*
%ADD27R,1.500000X2.000000*%
G04 #@! TD*
G04 #@! TA.AperFunction,ViaPad*
%ADD28C,0.508000*%
G04 #@! TD*
G04 #@! TA.AperFunction,Conductor*
%ADD29C,0.254000*%
G04 #@! TD*
G04 #@! TA.AperFunction,Conductor*
%ADD30C,0.152400*%
G04 #@! TD*
G04 #@! TA.AperFunction,Conductor*
%ADD31C,0.310000*%
G04 #@! TD*
G04 #@! TA.AperFunction,Conductor*
%ADD32C,0.152000*%
G04 #@! TD*
G04 APERTURE END LIST*
G04 #@! TA.AperFunction,SMDPad,CuDef*
G36*
G01*
X148525000Y-103487500D02*
X148525000Y-104237500D01*
G75*
G02*
X148462500Y-104300000I-62500J0D01*
G01*
X148337500Y-104300000D01*
G75*
G02*
X148275000Y-104237500I0J62500D01*
G01*
X148275000Y-103487500D01*
G75*
G02*
X148337500Y-103425000I62500J0D01*
G01*
X148462500Y-103425000D01*
G75*
G02*
X148525000Y-103487500I0J-62500D01*
G01*
G37*
G04 #@! TD.AperFunction*
G04 #@! TA.AperFunction,SMDPad,CuDef*
G36*
G01*
X148025000Y-103487500D02*
X148025000Y-104237500D01*
G75*
G02*
X147962500Y-104300000I-62500J0D01*
G01*
X147837500Y-104300000D01*
G75*
G02*
X147775000Y-104237500I0J62500D01*
G01*
X147775000Y-103487500D01*
G75*
G02*
X147837500Y-103425000I62500J0D01*
G01*
X147962500Y-103425000D01*
G75*
G02*
X148025000Y-103487500I0J-62500D01*
G01*
G37*
G04 #@! TD.AperFunction*
G04 #@! TA.AperFunction,SMDPad,CuDef*
G36*
G01*
X147525000Y-103487500D02*
X147525000Y-104237500D01*
G75*
G02*
X147462500Y-104300000I-62500J0D01*
G01*
X147337500Y-104300000D01*
G75*
G02*
X147275000Y-104237500I0J62500D01*
G01*
X147275000Y-103487500D01*
G75*
G02*
X147337500Y-103425000I62500J0D01*
G01*
X147462500Y-103425000D01*
G75*
G02*
X147525000Y-103487500I0J-62500D01*
G01*
G37*
G04 #@! TD.AperFunction*
G04 #@! TA.AperFunction,SMDPad,CuDef*
G36*
G01*
X147025000Y-103487500D02*
X147025000Y-104237500D01*
G75*
G02*
X146962500Y-104300000I-62500J0D01*
G01*
X146837500Y-104300000D01*
G75*
G02*
X146775000Y-104237500I0J62500D01*
G01*
X146775000Y-103487500D01*
G75*
G02*
X146837500Y-103425000I62500J0D01*
G01*
X146962500Y-103425000D01*
G75*
G02*
X147025000Y-103487500I0J-62500D01*
G01*
G37*
G04 #@! TD.AperFunction*
G04 #@! TA.AperFunction,SMDPad,CuDef*
G36*
G01*
X146525000Y-103487500D02*
X146525000Y-104237500D01*
G75*
G02*
X146462500Y-104300000I-62500J0D01*
G01*
X146337500Y-104300000D01*
G75*
G02*
X146275000Y-104237500I0J62500D01*
G01*
X146275000Y-103487500D01*
G75*
G02*
X146337500Y-103425000I62500J0D01*
G01*
X146462500Y-103425000D01*
G75*
G02*
X146525000Y-103487500I0J-62500D01*
G01*
G37*
G04 #@! TD.AperFunction*
G04 #@! TA.AperFunction,SMDPad,CuDef*
G36*
G01*
X146025000Y-103487500D02*
X146025000Y-104237500D01*
G75*
G02*
X145962500Y-104300000I-62500J0D01*
G01*
X145837500Y-104300000D01*
G75*
G02*
X145775000Y-104237500I0J62500D01*
G01*
X145775000Y-103487500D01*
G75*
G02*
X145837500Y-103425000I62500J0D01*
G01*
X145962500Y-103425000D01*
G75*
G02*
X146025000Y-103487500I0J-62500D01*
G01*
G37*
G04 #@! TD.AperFunction*
G04 #@! TA.AperFunction,SMDPad,CuDef*
G36*
G01*
X145525000Y-103487500D02*
X145525000Y-104237500D01*
G75*
G02*
X145462500Y-104300000I-62500J0D01*
G01*
X145337500Y-104300000D01*
G75*
G02*
X145275000Y-104237500I0J62500D01*
G01*
X145275000Y-103487500D01*
G75*
G02*
X145337500Y-103425000I62500J0D01*
G01*
X145462500Y-103425000D01*
G75*
G02*
X145525000Y-103487500I0J-62500D01*
G01*
G37*
G04 #@! TD.AperFunction*
G04 #@! TA.AperFunction,SMDPad,CuDef*
G36*
G01*
X145025000Y-103487500D02*
X145025000Y-104237500D01*
G75*
G02*
X144962500Y-104300000I-62500J0D01*
G01*
X144837500Y-104300000D01*
G75*
G02*
X144775000Y-104237500I0J62500D01*
G01*
X144775000Y-103487500D01*
G75*
G02*
X144837500Y-103425000I62500J0D01*
G01*
X144962500Y-103425000D01*
G75*
G02*
X145025000Y-103487500I0J-62500D01*
G01*
G37*
G04 #@! TD.AperFunction*
G04 #@! TA.AperFunction,SMDPad,CuDef*
G36*
G01*
X144525000Y-103487500D02*
X144525000Y-104237500D01*
G75*
G02*
X144462500Y-104300000I-62500J0D01*
G01*
X144337500Y-104300000D01*
G75*
G02*
X144275000Y-104237500I0J62500D01*
G01*
X144275000Y-103487500D01*
G75*
G02*
X144337500Y-103425000I62500J0D01*
G01*
X144462500Y-103425000D01*
G75*
G02*
X144525000Y-103487500I0J-62500D01*
G01*
G37*
G04 #@! TD.AperFunction*
G04 #@! TA.AperFunction,SMDPad,CuDef*
G36*
G01*
X144025000Y-103487500D02*
X144025000Y-104237500D01*
G75*
G02*
X143962500Y-104300000I-62500J0D01*
G01*
X143837500Y-104300000D01*
G75*
G02*
X143775000Y-104237500I0J62500D01*
G01*
X143775000Y-103487500D01*
G75*
G02*
X143837500Y-103425000I62500J0D01*
G01*
X143962500Y-103425000D01*
G75*
G02*
X144025000Y-103487500I0J-62500D01*
G01*
G37*
G04 #@! TD.AperFunction*
G04 #@! TA.AperFunction,SMDPad,CuDef*
G36*
G01*
X143525000Y-103487500D02*
X143525000Y-104237500D01*
G75*
G02*
X143462500Y-104300000I-62500J0D01*
G01*
X143337500Y-104300000D01*
G75*
G02*
X143275000Y-104237500I0J62500D01*
G01*
X143275000Y-103487500D01*
G75*
G02*
X143337500Y-103425000I62500J0D01*
G01*
X143462500Y-103425000D01*
G75*
G02*
X143525000Y-103487500I0J-62500D01*
G01*
G37*
G04 #@! TD.AperFunction*
G04 #@! TA.AperFunction,SMDPad,CuDef*
G36*
G01*
X143025000Y-103487500D02*
X143025000Y-104237500D01*
G75*
G02*
X142962500Y-104300000I-62500J0D01*
G01*
X142837500Y-104300000D01*
G75*
G02*
X142775000Y-104237500I0J62500D01*
G01*
X142775000Y-103487500D01*
G75*
G02*
X142837500Y-103425000I62500J0D01*
G01*
X142962500Y-103425000D01*
G75*
G02*
X143025000Y-103487500I0J-62500D01*
G01*
G37*
G04 #@! TD.AperFunction*
G04 #@! TA.AperFunction,SMDPad,CuDef*
G36*
G01*
X142650000Y-103112500D02*
X142650000Y-103237500D01*
G75*
G02*
X142587500Y-103300000I-62500J0D01*
G01*
X141837500Y-103300000D01*
G75*
G02*
X141775000Y-103237500I0J62500D01*
G01*
X141775000Y-103112500D01*
G75*
G02*
X141837500Y-103050000I62500J0D01*
G01*
X142587500Y-103050000D01*
G75*
G02*
X142650000Y-103112500I0J-62500D01*
G01*
G37*
G04 #@! TD.AperFunction*
G04 #@! TA.AperFunction,SMDPad,CuDef*
G36*
G01*
X142650000Y-102612500D02*
X142650000Y-102737500D01*
G75*
G02*
X142587500Y-102800000I-62500J0D01*
G01*
X141837500Y-102800000D01*
G75*
G02*
X141775000Y-102737500I0J62500D01*
G01*
X141775000Y-102612500D01*
G75*
G02*
X141837500Y-102550000I62500J0D01*
G01*
X142587500Y-102550000D01*
G75*
G02*
X142650000Y-102612500I0J-62500D01*
G01*
G37*
G04 #@! TD.AperFunction*
G04 #@! TA.AperFunction,SMDPad,CuDef*
G36*
G01*
X142650000Y-102112500D02*
X142650000Y-102237500D01*
G75*
G02*
X142587500Y-102300000I-62500J0D01*
G01*
X141837500Y-102300000D01*
G75*
G02*
X141775000Y-102237500I0J62500D01*
G01*
X141775000Y-102112500D01*
G75*
G02*
X141837500Y-102050000I62500J0D01*
G01*
X142587500Y-102050000D01*
G75*
G02*
X142650000Y-102112500I0J-62500D01*
G01*
G37*
G04 #@! TD.AperFunction*
G04 #@! TA.AperFunction,SMDPad,CuDef*
G36*
G01*
X142650000Y-101612500D02*
X142650000Y-101737500D01*
G75*
G02*
X142587500Y-101800000I-62500J0D01*
G01*
X141837500Y-101800000D01*
G75*
G02*
X141775000Y-101737500I0J62500D01*
G01*
X141775000Y-101612500D01*
G75*
G02*
X141837500Y-101550000I62500J0D01*
G01*
X142587500Y-101550000D01*
G75*
G02*
X142650000Y-101612500I0J-62500D01*
G01*
G37*
G04 #@! TD.AperFunction*
G04 #@! TA.AperFunction,SMDPad,CuDef*
G36*
G01*
X142650000Y-101112500D02*
X142650000Y-101237500D01*
G75*
G02*
X142587500Y-101300000I-62500J0D01*
G01*
X141837500Y-101300000D01*
G75*
G02*
X141775000Y-101237500I0J62500D01*
G01*
X141775000Y-101112500D01*
G75*
G02*
X141837500Y-101050000I62500J0D01*
G01*
X142587500Y-101050000D01*
G75*
G02*
X142650000Y-101112500I0J-62500D01*
G01*
G37*
G04 #@! TD.AperFunction*
G04 #@! TA.AperFunction,SMDPad,CuDef*
G36*
G01*
X142650000Y-100612500D02*
X142650000Y-100737500D01*
G75*
G02*
X142587500Y-100800000I-62500J0D01*
G01*
X141837500Y-100800000D01*
G75*
G02*
X141775000Y-100737500I0J62500D01*
G01*
X141775000Y-100612500D01*
G75*
G02*
X141837500Y-100550000I62500J0D01*
G01*
X142587500Y-100550000D01*
G75*
G02*
X142650000Y-100612500I0J-62500D01*
G01*
G37*
G04 #@! TD.AperFunction*
G04 #@! TA.AperFunction,SMDPad,CuDef*
G36*
G01*
X142650000Y-100112500D02*
X142650000Y-100237500D01*
G75*
G02*
X142587500Y-100300000I-62500J0D01*
G01*
X141837500Y-100300000D01*
G75*
G02*
X141775000Y-100237500I0J62500D01*
G01*
X141775000Y-100112500D01*
G75*
G02*
X141837500Y-100050000I62500J0D01*
G01*
X142587500Y-100050000D01*
G75*
G02*
X142650000Y-100112500I0J-62500D01*
G01*
G37*
G04 #@! TD.AperFunction*
G04 #@! TA.AperFunction,SMDPad,CuDef*
G36*
G01*
X142650000Y-99612500D02*
X142650000Y-99737500D01*
G75*
G02*
X142587500Y-99800000I-62500J0D01*
G01*
X141837500Y-99800000D01*
G75*
G02*
X141775000Y-99737500I0J62500D01*
G01*
X141775000Y-99612500D01*
G75*
G02*
X141837500Y-99550000I62500J0D01*
G01*
X142587500Y-99550000D01*
G75*
G02*
X142650000Y-99612500I0J-62500D01*
G01*
G37*
G04 #@! TD.AperFunction*
G04 #@! TA.AperFunction,SMDPad,CuDef*
G36*
G01*
X142650000Y-99112500D02*
X142650000Y-99237500D01*
G75*
G02*
X142587500Y-99300000I-62500J0D01*
G01*
X141837500Y-99300000D01*
G75*
G02*
X141775000Y-99237500I0J62500D01*
G01*
X141775000Y-99112500D01*
G75*
G02*
X141837500Y-99050000I62500J0D01*
G01*
X142587500Y-99050000D01*
G75*
G02*
X142650000Y-99112500I0J-62500D01*
G01*
G37*
G04 #@! TD.AperFunction*
G04 #@! TA.AperFunction,SMDPad,CuDef*
G36*
G01*
X142650000Y-98612500D02*
X142650000Y-98737500D01*
G75*
G02*
X142587500Y-98800000I-62500J0D01*
G01*
X141837500Y-98800000D01*
G75*
G02*
X141775000Y-98737500I0J62500D01*
G01*
X141775000Y-98612500D01*
G75*
G02*
X141837500Y-98550000I62500J0D01*
G01*
X142587500Y-98550000D01*
G75*
G02*
X142650000Y-98612500I0J-62500D01*
G01*
G37*
G04 #@! TD.AperFunction*
G04 #@! TA.AperFunction,SMDPad,CuDef*
G36*
G01*
X142650000Y-98112500D02*
X142650000Y-98237500D01*
G75*
G02*
X142587500Y-98300000I-62500J0D01*
G01*
X141837500Y-98300000D01*
G75*
G02*
X141775000Y-98237500I0J62500D01*
G01*
X141775000Y-98112500D01*
G75*
G02*
X141837500Y-98050000I62500J0D01*
G01*
X142587500Y-98050000D01*
G75*
G02*
X142650000Y-98112500I0J-62500D01*
G01*
G37*
G04 #@! TD.AperFunction*
G04 #@! TA.AperFunction,SMDPad,CuDef*
G36*
G01*
X142650000Y-97612500D02*
X142650000Y-97737500D01*
G75*
G02*
X142587500Y-97800000I-62500J0D01*
G01*
X141837500Y-97800000D01*
G75*
G02*
X141775000Y-97737500I0J62500D01*
G01*
X141775000Y-97612500D01*
G75*
G02*
X141837500Y-97550000I62500J0D01*
G01*
X142587500Y-97550000D01*
G75*
G02*
X142650000Y-97612500I0J-62500D01*
G01*
G37*
G04 #@! TD.AperFunction*
G04 #@! TA.AperFunction,SMDPad,CuDef*
G36*
G01*
X143025000Y-96612500D02*
X143025000Y-97362500D01*
G75*
G02*
X142962500Y-97425000I-62500J0D01*
G01*
X142837500Y-97425000D01*
G75*
G02*
X142775000Y-97362500I0J62500D01*
G01*
X142775000Y-96612500D01*
G75*
G02*
X142837500Y-96550000I62500J0D01*
G01*
X142962500Y-96550000D01*
G75*
G02*
X143025000Y-96612500I0J-62500D01*
G01*
G37*
G04 #@! TD.AperFunction*
G04 #@! TA.AperFunction,SMDPad,CuDef*
G36*
G01*
X143525000Y-96612500D02*
X143525000Y-97362500D01*
G75*
G02*
X143462500Y-97425000I-62500J0D01*
G01*
X143337500Y-97425000D01*
G75*
G02*
X143275000Y-97362500I0J62500D01*
G01*
X143275000Y-96612500D01*
G75*
G02*
X143337500Y-96550000I62500J0D01*
G01*
X143462500Y-96550000D01*
G75*
G02*
X143525000Y-96612500I0J-62500D01*
G01*
G37*
G04 #@! TD.AperFunction*
G04 #@! TA.AperFunction,SMDPad,CuDef*
G36*
G01*
X144025000Y-96612500D02*
X144025000Y-97362500D01*
G75*
G02*
X143962500Y-97425000I-62500J0D01*
G01*
X143837500Y-97425000D01*
G75*
G02*
X143775000Y-97362500I0J62500D01*
G01*
X143775000Y-96612500D01*
G75*
G02*
X143837500Y-96550000I62500J0D01*
G01*
X143962500Y-96550000D01*
G75*
G02*
X144025000Y-96612500I0J-62500D01*
G01*
G37*
G04 #@! TD.AperFunction*
G04 #@! TA.AperFunction,SMDPad,CuDef*
G36*
G01*
X144525000Y-96612500D02*
X144525000Y-97362500D01*
G75*
G02*
X144462500Y-97425000I-62500J0D01*
G01*
X144337500Y-97425000D01*
G75*
G02*
X144275000Y-97362500I0J62500D01*
G01*
X144275000Y-96612500D01*
G75*
G02*
X144337500Y-96550000I62500J0D01*
G01*
X144462500Y-96550000D01*
G75*
G02*
X144525000Y-96612500I0J-62500D01*
G01*
G37*
G04 #@! TD.AperFunction*
G04 #@! TA.AperFunction,SMDPad,CuDef*
G36*
G01*
X145025000Y-96612500D02*
X145025000Y-97362500D01*
G75*
G02*
X144962500Y-97425000I-62500J0D01*
G01*
X144837500Y-97425000D01*
G75*
G02*
X144775000Y-97362500I0J62500D01*
G01*
X144775000Y-96612500D01*
G75*
G02*
X144837500Y-96550000I62500J0D01*
G01*
X144962500Y-96550000D01*
G75*
G02*
X145025000Y-96612500I0J-62500D01*
G01*
G37*
G04 #@! TD.AperFunction*
G04 #@! TA.AperFunction,SMDPad,CuDef*
G36*
G01*
X145525000Y-96612500D02*
X145525000Y-97362500D01*
G75*
G02*
X145462500Y-97425000I-62500J0D01*
G01*
X145337500Y-97425000D01*
G75*
G02*
X145275000Y-97362500I0J62500D01*
G01*
X145275000Y-96612500D01*
G75*
G02*
X145337500Y-96550000I62500J0D01*
G01*
X145462500Y-96550000D01*
G75*
G02*
X145525000Y-96612500I0J-62500D01*
G01*
G37*
G04 #@! TD.AperFunction*
G04 #@! TA.AperFunction,SMDPad,CuDef*
G36*
G01*
X146025000Y-96612500D02*
X146025000Y-97362500D01*
G75*
G02*
X145962500Y-97425000I-62500J0D01*
G01*
X145837500Y-97425000D01*
G75*
G02*
X145775000Y-97362500I0J62500D01*
G01*
X145775000Y-96612500D01*
G75*
G02*
X145837500Y-96550000I62500J0D01*
G01*
X145962500Y-96550000D01*
G75*
G02*
X146025000Y-96612500I0J-62500D01*
G01*
G37*
G04 #@! TD.AperFunction*
G04 #@! TA.AperFunction,SMDPad,CuDef*
G36*
G01*
X146525000Y-96612500D02*
X146525000Y-97362500D01*
G75*
G02*
X146462500Y-97425000I-62500J0D01*
G01*
X146337500Y-97425000D01*
G75*
G02*
X146275000Y-97362500I0J62500D01*
G01*
X146275000Y-96612500D01*
G75*
G02*
X146337500Y-96550000I62500J0D01*
G01*
X146462500Y-96550000D01*
G75*
G02*
X146525000Y-96612500I0J-62500D01*
G01*
G37*
G04 #@! TD.AperFunction*
G04 #@! TA.AperFunction,SMDPad,CuDef*
G36*
G01*
X147025000Y-96612500D02*
X147025000Y-97362500D01*
G75*
G02*
X146962500Y-97425000I-62500J0D01*
G01*
X146837500Y-97425000D01*
G75*
G02*
X146775000Y-97362500I0J62500D01*
G01*
X146775000Y-96612500D01*
G75*
G02*
X146837500Y-96550000I62500J0D01*
G01*
X146962500Y-96550000D01*
G75*
G02*
X147025000Y-96612500I0J-62500D01*
G01*
G37*
G04 #@! TD.AperFunction*
G04 #@! TA.AperFunction,SMDPad,CuDef*
G36*
G01*
X147525000Y-96612500D02*
X147525000Y-97362500D01*
G75*
G02*
X147462500Y-97425000I-62500J0D01*
G01*
X147337500Y-97425000D01*
G75*
G02*
X147275000Y-97362500I0J62500D01*
G01*
X147275000Y-96612500D01*
G75*
G02*
X147337500Y-96550000I62500J0D01*
G01*
X147462500Y-96550000D01*
G75*
G02*
X147525000Y-96612500I0J-62500D01*
G01*
G37*
G04 #@! TD.AperFunction*
G04 #@! TA.AperFunction,SMDPad,CuDef*
G36*
G01*
X148025000Y-96612500D02*
X148025000Y-97362500D01*
G75*
G02*
X147962500Y-97425000I-62500J0D01*
G01*
X147837500Y-97425000D01*
G75*
G02*
X147775000Y-97362500I0J62500D01*
G01*
X147775000Y-96612500D01*
G75*
G02*
X147837500Y-96550000I62500J0D01*
G01*
X147962500Y-96550000D01*
G75*
G02*
X148025000Y-96612500I0J-62500D01*
G01*
G37*
G04 #@! TD.AperFunction*
G04 #@! TA.AperFunction,SMDPad,CuDef*
G36*
G01*
X148525000Y-96612500D02*
X148525000Y-97362500D01*
G75*
G02*
X148462500Y-97425000I-62500J0D01*
G01*
X148337500Y-97425000D01*
G75*
G02*
X148275000Y-97362500I0J62500D01*
G01*
X148275000Y-96612500D01*
G75*
G02*
X148337500Y-96550000I62500J0D01*
G01*
X148462500Y-96550000D01*
G75*
G02*
X148525000Y-96612500I0J-62500D01*
G01*
G37*
G04 #@! TD.AperFunction*
G04 #@! TA.AperFunction,SMDPad,CuDef*
G36*
G01*
X149525000Y-97612500D02*
X149525000Y-97737500D01*
G75*
G02*
X149462500Y-97800000I-62500J0D01*
G01*
X148712500Y-97800000D01*
G75*
G02*
X148650000Y-97737500I0J62500D01*
G01*
X148650000Y-97612500D01*
G75*
G02*
X148712500Y-97550000I62500J0D01*
G01*
X149462500Y-97550000D01*
G75*
G02*
X149525000Y-97612500I0J-62500D01*
G01*
G37*
G04 #@! TD.AperFunction*
G04 #@! TA.AperFunction,SMDPad,CuDef*
G36*
G01*
X149525000Y-98112500D02*
X149525000Y-98237500D01*
G75*
G02*
X149462500Y-98300000I-62500J0D01*
G01*
X148712500Y-98300000D01*
G75*
G02*
X148650000Y-98237500I0J62500D01*
G01*
X148650000Y-98112500D01*
G75*
G02*
X148712500Y-98050000I62500J0D01*
G01*
X149462500Y-98050000D01*
G75*
G02*
X149525000Y-98112500I0J-62500D01*
G01*
G37*
G04 #@! TD.AperFunction*
G04 #@! TA.AperFunction,SMDPad,CuDef*
G36*
G01*
X149525000Y-98612500D02*
X149525000Y-98737500D01*
G75*
G02*
X149462500Y-98800000I-62500J0D01*
G01*
X148712500Y-98800000D01*
G75*
G02*
X148650000Y-98737500I0J62500D01*
G01*
X148650000Y-98612500D01*
G75*
G02*
X148712500Y-98550000I62500J0D01*
G01*
X149462500Y-98550000D01*
G75*
G02*
X149525000Y-98612500I0J-62500D01*
G01*
G37*
G04 #@! TD.AperFunction*
G04 #@! TA.AperFunction,SMDPad,CuDef*
G36*
G01*
X149525000Y-99112500D02*
X149525000Y-99237500D01*
G75*
G02*
X149462500Y-99300000I-62500J0D01*
G01*
X148712500Y-99300000D01*
G75*
G02*
X148650000Y-99237500I0J62500D01*
G01*
X148650000Y-99112500D01*
G75*
G02*
X148712500Y-99050000I62500J0D01*
G01*
X149462500Y-99050000D01*
G75*
G02*
X149525000Y-99112500I0J-62500D01*
G01*
G37*
G04 #@! TD.AperFunction*
G04 #@! TA.AperFunction,SMDPad,CuDef*
G36*
G01*
X149525000Y-99612500D02*
X149525000Y-99737500D01*
G75*
G02*
X149462500Y-99800000I-62500J0D01*
G01*
X148712500Y-99800000D01*
G75*
G02*
X148650000Y-99737500I0J62500D01*
G01*
X148650000Y-99612500D01*
G75*
G02*
X148712500Y-99550000I62500J0D01*
G01*
X149462500Y-99550000D01*
G75*
G02*
X149525000Y-99612500I0J-62500D01*
G01*
G37*
G04 #@! TD.AperFunction*
G04 #@! TA.AperFunction,SMDPad,CuDef*
G36*
G01*
X149525000Y-100112500D02*
X149525000Y-100237500D01*
G75*
G02*
X149462500Y-100300000I-62500J0D01*
G01*
X148712500Y-100300000D01*
G75*
G02*
X148650000Y-100237500I0J62500D01*
G01*
X148650000Y-100112500D01*
G75*
G02*
X148712500Y-100050000I62500J0D01*
G01*
X149462500Y-100050000D01*
G75*
G02*
X149525000Y-100112500I0J-62500D01*
G01*
G37*
G04 #@! TD.AperFunction*
G04 #@! TA.AperFunction,SMDPad,CuDef*
G36*
G01*
X149525000Y-100612500D02*
X149525000Y-100737500D01*
G75*
G02*
X149462500Y-100800000I-62500J0D01*
G01*
X148712500Y-100800000D01*
G75*
G02*
X148650000Y-100737500I0J62500D01*
G01*
X148650000Y-100612500D01*
G75*
G02*
X148712500Y-100550000I62500J0D01*
G01*
X149462500Y-100550000D01*
G75*
G02*
X149525000Y-100612500I0J-62500D01*
G01*
G37*
G04 #@! TD.AperFunction*
G04 #@! TA.AperFunction,SMDPad,CuDef*
G36*
G01*
X149525000Y-101112500D02*
X149525000Y-101237500D01*
G75*
G02*
X149462500Y-101300000I-62500J0D01*
G01*
X148712500Y-101300000D01*
G75*
G02*
X148650000Y-101237500I0J62500D01*
G01*
X148650000Y-101112500D01*
G75*
G02*
X148712500Y-101050000I62500J0D01*
G01*
X149462500Y-101050000D01*
G75*
G02*
X149525000Y-101112500I0J-62500D01*
G01*
G37*
G04 #@! TD.AperFunction*
G04 #@! TA.AperFunction,SMDPad,CuDef*
G36*
G01*
X149525000Y-101612500D02*
X149525000Y-101737500D01*
G75*
G02*
X149462500Y-101800000I-62500J0D01*
G01*
X148712500Y-101800000D01*
G75*
G02*
X148650000Y-101737500I0J62500D01*
G01*
X148650000Y-101612500D01*
G75*
G02*
X148712500Y-101550000I62500J0D01*
G01*
X149462500Y-101550000D01*
G75*
G02*
X149525000Y-101612500I0J-62500D01*
G01*
G37*
G04 #@! TD.AperFunction*
G04 #@! TA.AperFunction,SMDPad,CuDef*
G36*
G01*
X149525000Y-102112500D02*
X149525000Y-102237500D01*
G75*
G02*
X149462500Y-102300000I-62500J0D01*
G01*
X148712500Y-102300000D01*
G75*
G02*
X148650000Y-102237500I0J62500D01*
G01*
X148650000Y-102112500D01*
G75*
G02*
X148712500Y-102050000I62500J0D01*
G01*
X149462500Y-102050000D01*
G75*
G02*
X149525000Y-102112500I0J-62500D01*
G01*
G37*
G04 #@! TD.AperFunction*
G04 #@! TA.AperFunction,SMDPad,CuDef*
G36*
G01*
X149525000Y-102612500D02*
X149525000Y-102737500D01*
G75*
G02*
X149462500Y-102800000I-62500J0D01*
G01*
X148712500Y-102800000D01*
G75*
G02*
X148650000Y-102737500I0J62500D01*
G01*
X148650000Y-102612500D01*
G75*
G02*
X148712500Y-102550000I62500J0D01*
G01*
X149462500Y-102550000D01*
G75*
G02*
X149525000Y-102612500I0J-62500D01*
G01*
G37*
G04 #@! TD.AperFunction*
G04 #@! TA.AperFunction,SMDPad,CuDef*
G36*
G01*
X149525000Y-103112500D02*
X149525000Y-103237500D01*
G75*
G02*
X149462500Y-103300000I-62500J0D01*
G01*
X148712500Y-103300000D01*
G75*
G02*
X148650000Y-103237500I0J62500D01*
G01*
X148650000Y-103112500D01*
G75*
G02*
X148712500Y-103050000I62500J0D01*
G01*
X149462500Y-103050000D01*
G75*
G02*
X149525000Y-103112500I0J-62500D01*
G01*
G37*
G04 #@! TD.AperFunction*
G04 #@! TA.AperFunction,SMDPad,CuDef*
G36*
G01*
X148450000Y-97875000D02*
X148450000Y-102975000D01*
G75*
G02*
X148200000Y-103225000I-250000J0D01*
G01*
X143100000Y-103225000D01*
G75*
G02*
X142850000Y-102975000I0J250000D01*
G01*
X142850000Y-97875000D01*
G75*
G02*
X143100000Y-97625000I250000J0D01*
G01*
X148200000Y-97625000D01*
G75*
G02*
X148450000Y-97875000I0J-250000D01*
G01*
G37*
G04 #@! TD.AperFunction*
D10*
X126725000Y-107100000D03*
X164375000Y-107075000D03*
X126700000Y-91200000D03*
X164360000Y-90960000D03*
D11*
X160840000Y-106700000D03*
D12*
X158300000Y-106700000D03*
X155760000Y-106700000D03*
X153220000Y-106700000D03*
X150680000Y-106700000D03*
X148140000Y-106700000D03*
X145600000Y-106700000D03*
X143060000Y-106700000D03*
X140520000Y-106700000D03*
X137980000Y-106700000D03*
X135440000Y-106700000D03*
X132900000Y-106700000D03*
X148130000Y-91460000D03*
X150670000Y-91460000D03*
X153210000Y-91460000D03*
X155750000Y-91460000D03*
D11*
X158290000Y-91460000D03*
D13*
X153900000Y-94560000D03*
X155900000Y-93910000D03*
X155900000Y-95210000D03*
G04 #@! TA.AperFunction,SMDPad,CuDef*
G36*
G01*
X145333750Y-94750000D02*
X145846250Y-94750000D01*
G75*
G02*
X146065000Y-94968750I0J-218750D01*
G01*
X146065000Y-95406250D01*
G75*
G02*
X145846250Y-95625000I-218750J0D01*
G01*
X145333750Y-95625000D01*
G75*
G02*
X145115000Y-95406250I0J218750D01*
G01*
X145115000Y-94968750D01*
G75*
G02*
X145333750Y-94750000I218750J0D01*
G01*
G37*
G04 #@! TD.AperFunction*
G04 #@! TA.AperFunction,SMDPad,CuDef*
G36*
G01*
X145333750Y-93175000D02*
X145846250Y-93175000D01*
G75*
G02*
X146065000Y-93393750I0J-218750D01*
G01*
X146065000Y-93831250D01*
G75*
G02*
X145846250Y-94050000I-218750J0D01*
G01*
X145333750Y-94050000D01*
G75*
G02*
X145115000Y-93831250I0J218750D01*
G01*
X145115000Y-93393750D01*
G75*
G02*
X145333750Y-93175000I218750J0D01*
G01*
G37*
G04 #@! TD.AperFunction*
G04 #@! TA.AperFunction,SMDPad,CuDef*
G36*
G01*
X152050000Y-96866250D02*
X152050000Y-96353750D01*
G75*
G02*
X152268750Y-96135000I218750J0D01*
G01*
X152706250Y-96135000D01*
G75*
G02*
X152925000Y-96353750I0J-218750D01*
G01*
X152925000Y-96866250D01*
G75*
G02*
X152706250Y-97085000I-218750J0D01*
G01*
X152268750Y-97085000D01*
G75*
G02*
X152050000Y-96866250I0J218750D01*
G01*
G37*
G04 #@! TD.AperFunction*
G04 #@! TA.AperFunction,SMDPad,CuDef*
G36*
G01*
X150475000Y-96866250D02*
X150475000Y-96353750D01*
G75*
G02*
X150693750Y-96135000I218750J0D01*
G01*
X151131250Y-96135000D01*
G75*
G02*
X151350000Y-96353750I0J-218750D01*
G01*
X151350000Y-96866250D01*
G75*
G02*
X151131250Y-97085000I-218750J0D01*
G01*
X150693750Y-97085000D01*
G75*
G02*
X150475000Y-96866250I0J218750D01*
G01*
G37*
G04 #@! TD.AperFunction*
G04 #@! TA.AperFunction,SMDPad,CuDef*
G36*
G01*
X154320000Y-96333750D02*
X154320000Y-96846250D01*
G75*
G02*
X154101250Y-97065000I-218750J0D01*
G01*
X153663750Y-97065000D01*
G75*
G02*
X153445000Y-96846250I0J218750D01*
G01*
X153445000Y-96333750D01*
G75*
G02*
X153663750Y-96115000I218750J0D01*
G01*
X154101250Y-96115000D01*
G75*
G02*
X154320000Y-96333750I0J-218750D01*
G01*
G37*
G04 #@! TD.AperFunction*
G04 #@! TA.AperFunction,SMDPad,CuDef*
G36*
G01*
X155895000Y-96333750D02*
X155895000Y-96846250D01*
G75*
G02*
X155676250Y-97065000I-218750J0D01*
G01*
X155238750Y-97065000D01*
G75*
G02*
X155020000Y-96846250I0J218750D01*
G01*
X155020000Y-96333750D01*
G75*
G02*
X155238750Y-96115000I218750J0D01*
G01*
X155676250Y-96115000D01*
G75*
G02*
X155895000Y-96333750I0J-218750D01*
G01*
G37*
G04 #@! TD.AperFunction*
G04 #@! TA.AperFunction,SMDPad,CuDef*
G36*
G01*
X161925000Y-91311250D02*
X161925000Y-90798750D01*
G75*
G02*
X162143750Y-90580000I218750J0D01*
G01*
X162581250Y-90580000D01*
G75*
G02*
X162800000Y-90798750I0J-218750D01*
G01*
X162800000Y-91311250D01*
G75*
G02*
X162581250Y-91530000I-218750J0D01*
G01*
X162143750Y-91530000D01*
G75*
G02*
X161925000Y-91311250I0J218750D01*
G01*
G37*
G04 #@! TD.AperFunction*
G04 #@! TA.AperFunction,SMDPad,CuDef*
G36*
G01*
X160350000Y-91311250D02*
X160350000Y-90798750D01*
G75*
G02*
X160568750Y-90580000I218750J0D01*
G01*
X161006250Y-90580000D01*
G75*
G02*
X161225000Y-90798750I0J-218750D01*
G01*
X161225000Y-91311250D01*
G75*
G02*
X161006250Y-91530000I-218750J0D01*
G01*
X160568750Y-91530000D01*
G75*
G02*
X160350000Y-91311250I0J218750D01*
G01*
G37*
G04 #@! TD.AperFunction*
X149025000Y-94575000D03*
X147025000Y-95225000D03*
X147025000Y-93925000D03*
X150475000Y-94575000D03*
X152475000Y-93925000D03*
X152475000Y-95225000D03*
X160800000Y-93100000D03*
X162800000Y-92450000D03*
X162800000Y-93750000D03*
D14*
X134700000Y-98740000D03*
D15*
X134700000Y-97320000D03*
D16*
X135550000Y-97250000D03*
X135550000Y-99050000D03*
D17*
X135550000Y-98150000D03*
D16*
X133850000Y-99050000D03*
D17*
X133850000Y-98150000D03*
D16*
X133850000Y-97250000D03*
G04 #@! TA.AperFunction,ComponentPad*
G36*
G01*
X160300001Y-99450000D02*
X159049999Y-99450000D01*
G75*
G02*
X158800000Y-99200001I0J249999D01*
G01*
X158800000Y-98499999D01*
G75*
G02*
X159049999Y-98250000I249999J0D01*
G01*
X160300001Y-98250000D01*
G75*
G02*
X160550000Y-98499999I0J-249999D01*
G01*
X160550000Y-99200001D01*
G75*
G02*
X160300001Y-99450000I-249999J0D01*
G01*
G37*
G04 #@! TD.AperFunction*
D18*
X159675000Y-96850000D03*
D19*
X140200000Y-97600000D03*
X140200000Y-98100000D03*
X140200000Y-98600000D03*
X140200000Y-99100000D03*
X137300000Y-99100000D03*
X137300000Y-98600000D03*
X137300000Y-98100000D03*
X137300000Y-97600000D03*
D20*
X159590000Y-104050000D03*
X159590000Y-102150000D03*
X161790000Y-102150000D03*
X161790000Y-103100000D03*
X161790000Y-104050000D03*
G04 #@! TA.AperFunction,SMDPad,CuDef*
G36*
G01*
X128900000Y-93771250D02*
X128900000Y-93258750D01*
G75*
G02*
X129118750Y-93040000I218750J0D01*
G01*
X129556250Y-93040000D01*
G75*
G02*
X129775000Y-93258750I0J-218750D01*
G01*
X129775000Y-93771250D01*
G75*
G02*
X129556250Y-93990000I-218750J0D01*
G01*
X129118750Y-93990000D01*
G75*
G02*
X128900000Y-93771250I0J218750D01*
G01*
G37*
G04 #@! TD.AperFunction*
G04 #@! TA.AperFunction,SMDPad,CuDef*
G36*
G01*
X127325000Y-93771250D02*
X127325000Y-93258750D01*
G75*
G02*
X127543750Y-93040000I218750J0D01*
G01*
X127981250Y-93040000D01*
G75*
G02*
X128200000Y-93258750I0J-218750D01*
G01*
X128200000Y-93771250D01*
G75*
G02*
X127981250Y-93990000I-218750J0D01*
G01*
X127543750Y-93990000D01*
G75*
G02*
X127325000Y-93771250I0J218750D01*
G01*
G37*
G04 #@! TD.AperFunction*
G04 #@! TA.AperFunction,SMDPad,CuDef*
G36*
G01*
X156318750Y-103175000D02*
X156831250Y-103175000D01*
G75*
G02*
X157050000Y-103393750I0J-218750D01*
G01*
X157050000Y-103831250D01*
G75*
G02*
X156831250Y-104050000I-218750J0D01*
G01*
X156318750Y-104050000D01*
G75*
G02*
X156100000Y-103831250I0J218750D01*
G01*
X156100000Y-103393750D01*
G75*
G02*
X156318750Y-103175000I218750J0D01*
G01*
G37*
G04 #@! TD.AperFunction*
G04 #@! TA.AperFunction,SMDPad,CuDef*
G36*
G01*
X156318750Y-101600000D02*
X156831250Y-101600000D01*
G75*
G02*
X157050000Y-101818750I0J-218750D01*
G01*
X157050000Y-102256250D01*
G75*
G02*
X156831250Y-102475000I-218750J0D01*
G01*
X156318750Y-102475000D01*
G75*
G02*
X156100000Y-102256250I0J218750D01*
G01*
X156100000Y-101818750D01*
G75*
G02*
X156318750Y-101600000I218750J0D01*
G01*
G37*
G04 #@! TD.AperFunction*
G04 #@! TA.AperFunction,SMDPad,CuDef*
G36*
G01*
X128900000Y-95231250D02*
X128900000Y-94718750D01*
G75*
G02*
X129118750Y-94500000I218750J0D01*
G01*
X129556250Y-94500000D01*
G75*
G02*
X129775000Y-94718750I0J-218750D01*
G01*
X129775000Y-95231250D01*
G75*
G02*
X129556250Y-95450000I-218750J0D01*
G01*
X129118750Y-95450000D01*
G75*
G02*
X128900000Y-95231250I0J218750D01*
G01*
G37*
G04 #@! TD.AperFunction*
G04 #@! TA.AperFunction,SMDPad,CuDef*
G36*
G01*
X127325000Y-95231250D02*
X127325000Y-94718750D01*
G75*
G02*
X127543750Y-94500000I218750J0D01*
G01*
X127981250Y-94500000D01*
G75*
G02*
X128200000Y-94718750I0J-218750D01*
G01*
X128200000Y-95231250D01*
G75*
G02*
X127981250Y-95450000I-218750J0D01*
G01*
X127543750Y-95450000D01*
G75*
G02*
X127325000Y-95231250I0J218750D01*
G01*
G37*
G04 #@! TD.AperFunction*
G04 #@! TA.AperFunction,SMDPad,CuDef*
G36*
G01*
X163068750Y-103155000D02*
X163581250Y-103155000D01*
G75*
G02*
X163800000Y-103373750I0J-218750D01*
G01*
X163800000Y-103811250D01*
G75*
G02*
X163581250Y-104030000I-218750J0D01*
G01*
X163068750Y-104030000D01*
G75*
G02*
X162850000Y-103811250I0J218750D01*
G01*
X162850000Y-103373750D01*
G75*
G02*
X163068750Y-103155000I218750J0D01*
G01*
G37*
G04 #@! TD.AperFunction*
G04 #@! TA.AperFunction,SMDPad,CuDef*
G36*
G01*
X163068750Y-101580000D02*
X163581250Y-101580000D01*
G75*
G02*
X163800000Y-101798750I0J-218750D01*
G01*
X163800000Y-102236250D01*
G75*
G02*
X163581250Y-102455000I-218750J0D01*
G01*
X163068750Y-102455000D01*
G75*
G02*
X162850000Y-102236250I0J218750D01*
G01*
X162850000Y-101798750D01*
G75*
G02*
X163068750Y-101580000I218750J0D01*
G01*
G37*
G04 #@! TD.AperFunction*
G04 #@! TA.AperFunction,SMDPad,CuDef*
G36*
G01*
X157793750Y-103175000D02*
X158306250Y-103175000D01*
G75*
G02*
X158525000Y-103393750I0J-218750D01*
G01*
X158525000Y-103831250D01*
G75*
G02*
X158306250Y-104050000I-218750J0D01*
G01*
X157793750Y-104050000D01*
G75*
G02*
X157575000Y-103831250I0J218750D01*
G01*
X157575000Y-103393750D01*
G75*
G02*
X157793750Y-103175000I218750J0D01*
G01*
G37*
G04 #@! TD.AperFunction*
G04 #@! TA.AperFunction,SMDPad,CuDef*
G36*
G01*
X157793750Y-101600000D02*
X158306250Y-101600000D01*
G75*
G02*
X158525000Y-101818750I0J-218750D01*
G01*
X158525000Y-102256250D01*
G75*
G02*
X158306250Y-102475000I-218750J0D01*
G01*
X157793750Y-102475000D01*
G75*
G02*
X157575000Y-102256250I0J218750D01*
G01*
X157575000Y-101818750D01*
G75*
G02*
X157793750Y-101600000I218750J0D01*
G01*
G37*
G04 #@! TD.AperFunction*
D21*
X156800000Y-100570000D03*
X156800000Y-98070000D03*
D12*
X143040000Y-91460000D03*
X140500000Y-91460000D03*
X137960000Y-91460000D03*
X135420000Y-91460000D03*
D11*
X132880000Y-91460000D03*
G04 #@! TA.AperFunction,SMDPad,CuDef*
G36*
G01*
X139311250Y-102760000D02*
X138798750Y-102760000D01*
G75*
G02*
X138580000Y-102541250I0J218750D01*
G01*
X138580000Y-102103750D01*
G75*
G02*
X138798750Y-101885000I218750J0D01*
G01*
X139311250Y-101885000D01*
G75*
G02*
X139530000Y-102103750I0J-218750D01*
G01*
X139530000Y-102541250D01*
G75*
G02*
X139311250Y-102760000I-218750J0D01*
G01*
G37*
G04 #@! TD.AperFunction*
G04 #@! TA.AperFunction,SMDPad,CuDef*
G36*
G01*
X139311250Y-104335000D02*
X138798750Y-104335000D01*
G75*
G02*
X138580000Y-104116250I0J218750D01*
G01*
X138580000Y-103678750D01*
G75*
G02*
X138798750Y-103460000I218750J0D01*
G01*
X139311250Y-103460000D01*
G75*
G02*
X139530000Y-103678750I0J-218750D01*
G01*
X139530000Y-104116250D01*
G75*
G02*
X139311250Y-104335000I-218750J0D01*
G01*
G37*
G04 #@! TD.AperFunction*
G04 #@! TA.AperFunction,SMDPad,CuDef*
G36*
G01*
X137846250Y-102760000D02*
X137333750Y-102760000D01*
G75*
G02*
X137115000Y-102541250I0J218750D01*
G01*
X137115000Y-102103750D01*
G75*
G02*
X137333750Y-101885000I218750J0D01*
G01*
X137846250Y-101885000D01*
G75*
G02*
X138065000Y-102103750I0J-218750D01*
G01*
X138065000Y-102541250D01*
G75*
G02*
X137846250Y-102760000I-218750J0D01*
G01*
G37*
G04 #@! TD.AperFunction*
G04 #@! TA.AperFunction,SMDPad,CuDef*
G36*
G01*
X137846250Y-104335000D02*
X137333750Y-104335000D01*
G75*
G02*
X137115000Y-104116250I0J218750D01*
G01*
X137115000Y-103678750D01*
G75*
G02*
X137333750Y-103460000I218750J0D01*
G01*
X137846250Y-103460000D01*
G75*
G02*
X138065000Y-103678750I0J-218750D01*
G01*
X138065000Y-104116250D01*
G75*
G02*
X137846250Y-104335000I-218750J0D01*
G01*
G37*
G04 #@! TD.AperFunction*
D22*
X152375000Y-101925000D03*
X152375000Y-100525000D03*
X153475000Y-100525000D03*
X153475000Y-101925000D03*
X135105000Y-104195000D03*
X134155000Y-102195000D03*
X136055000Y-102195000D03*
D23*
X127440000Y-99930000D03*
D24*
X127710000Y-102635000D03*
X127710000Y-97175000D03*
D25*
X130710000Y-102325000D03*
X130710000Y-97485000D03*
D26*
X130590000Y-101205000D03*
X130590000Y-100555000D03*
X130590000Y-99905000D03*
X130590000Y-99255000D03*
X130590000Y-98605000D03*
D27*
X130710000Y-102805000D03*
X130690000Y-97055000D03*
D21*
X127825000Y-105025000D03*
X130325000Y-105025000D03*
G04 #@! TA.AperFunction,SMDPad,CuDef*
G36*
G01*
X154560000Y-104421250D02*
X154560000Y-103908750D01*
G75*
G02*
X154778750Y-103690000I218750J0D01*
G01*
X155216250Y-103690000D01*
G75*
G02*
X155435000Y-103908750I0J-218750D01*
G01*
X155435000Y-104421250D01*
G75*
G02*
X155216250Y-104640000I-218750J0D01*
G01*
X154778750Y-104640000D01*
G75*
G02*
X154560000Y-104421250I0J218750D01*
G01*
G37*
G04 #@! TD.AperFunction*
G04 #@! TA.AperFunction,SMDPad,CuDef*
G36*
G01*
X152985000Y-104421250D02*
X152985000Y-103908750D01*
G75*
G02*
X153203750Y-103690000I218750J0D01*
G01*
X153641250Y-103690000D01*
G75*
G02*
X153860000Y-103908750I0J-218750D01*
G01*
X153860000Y-104421250D01*
G75*
G02*
X153641250Y-104640000I-218750J0D01*
G01*
X153203750Y-104640000D01*
G75*
G02*
X152985000Y-104421250I0J218750D01*
G01*
G37*
G04 #@! TD.AperFunction*
G04 #@! TA.AperFunction,SMDPad,CuDef*
G36*
G01*
X140771250Y-104335000D02*
X140258750Y-104335000D01*
G75*
G02*
X140040000Y-104116250I0J218750D01*
G01*
X140040000Y-103678750D01*
G75*
G02*
X140258750Y-103460000I218750J0D01*
G01*
X140771250Y-103460000D01*
G75*
G02*
X140990000Y-103678750I0J-218750D01*
G01*
X140990000Y-104116250D01*
G75*
G02*
X140771250Y-104335000I-218750J0D01*
G01*
G37*
G04 #@! TD.AperFunction*
G04 #@! TA.AperFunction,SMDPad,CuDef*
G36*
G01*
X140771250Y-102760000D02*
X140258750Y-102760000D01*
G75*
G02*
X140040000Y-102541250I0J218750D01*
G01*
X140040000Y-102103750D01*
G75*
G02*
X140258750Y-101885000I218750J0D01*
G01*
X140771250Y-101885000D01*
G75*
G02*
X140990000Y-102103750I0J-218750D01*
G01*
X140990000Y-102541250D01*
G75*
G02*
X140771250Y-102760000I-218750J0D01*
G01*
G37*
G04 #@! TD.AperFunction*
G04 #@! TA.AperFunction,SMDPad,CuDef*
G36*
G01*
X142675000Y-94493750D02*
X142675000Y-95006250D01*
G75*
G02*
X142456250Y-95225000I-218750J0D01*
G01*
X142018750Y-95225000D01*
G75*
G02*
X141800000Y-95006250I0J218750D01*
G01*
X141800000Y-94493750D01*
G75*
G02*
X142018750Y-94275000I218750J0D01*
G01*
X142456250Y-94275000D01*
G75*
G02*
X142675000Y-94493750I0J-218750D01*
G01*
G37*
G04 #@! TD.AperFunction*
G04 #@! TA.AperFunction,SMDPad,CuDef*
G36*
G01*
X144250000Y-94493750D02*
X144250000Y-95006250D01*
G75*
G02*
X144031250Y-95225000I-218750J0D01*
G01*
X143593750Y-95225000D01*
G75*
G02*
X143375000Y-95006250I0J218750D01*
G01*
X143375000Y-94493750D01*
G75*
G02*
X143593750Y-94275000I218750J0D01*
G01*
X144031250Y-94275000D01*
G75*
G02*
X144250000Y-94493750I0J-218750D01*
G01*
G37*
G04 #@! TD.AperFunction*
G04 #@! TA.AperFunction,SMDPad,CuDef*
G36*
G01*
X129250000Y-106468750D02*
X129250000Y-106981250D01*
G75*
G02*
X129031250Y-107200000I-218750J0D01*
G01*
X128593750Y-107200000D01*
G75*
G02*
X128375000Y-106981250I0J218750D01*
G01*
X128375000Y-106468750D01*
G75*
G02*
X128593750Y-106250000I218750J0D01*
G01*
X129031250Y-106250000D01*
G75*
G02*
X129250000Y-106468750I0J-218750D01*
G01*
G37*
G04 #@! TD.AperFunction*
G04 #@! TA.AperFunction,SMDPad,CuDef*
G36*
G01*
X130825000Y-106468750D02*
X130825000Y-106981250D01*
G75*
G02*
X130606250Y-107200000I-218750J0D01*
G01*
X130168750Y-107200000D01*
G75*
G02*
X129950000Y-106981250I0J218750D01*
G01*
X129950000Y-106468750D01*
G75*
G02*
X130168750Y-106250000I218750J0D01*
G01*
X130606250Y-106250000D01*
G75*
G02*
X130825000Y-106468750I0J-218750D01*
G01*
G37*
G04 #@! TD.AperFunction*
G04 #@! TA.AperFunction,SMDPad,CuDef*
G36*
G01*
X150618750Y-101600000D02*
X151131250Y-101600000D01*
G75*
G02*
X151350000Y-101818750I0J-218750D01*
G01*
X151350000Y-102256250D01*
G75*
G02*
X151131250Y-102475000I-218750J0D01*
G01*
X150618750Y-102475000D01*
G75*
G02*
X150400000Y-102256250I0J218750D01*
G01*
X150400000Y-101818750D01*
G75*
G02*
X150618750Y-101600000I218750J0D01*
G01*
G37*
G04 #@! TD.AperFunction*
G04 #@! TA.AperFunction,SMDPad,CuDef*
G36*
G01*
X150618750Y-100025000D02*
X151131250Y-100025000D01*
G75*
G02*
X151350000Y-100243750I0J-218750D01*
G01*
X151350000Y-100681250D01*
G75*
G02*
X151131250Y-100900000I-218750J0D01*
G01*
X150618750Y-100900000D01*
G75*
G02*
X150400000Y-100681250I0J218750D01*
G01*
X150400000Y-100243750D01*
G75*
G02*
X150618750Y-100025000I218750J0D01*
G01*
G37*
G04 #@! TD.AperFunction*
G04 #@! TA.AperFunction,SMDPad,CuDef*
G36*
G01*
X155231250Y-102525000D02*
X154718750Y-102525000D01*
G75*
G02*
X154500000Y-102306250I0J218750D01*
G01*
X154500000Y-101868750D01*
G75*
G02*
X154718750Y-101650000I218750J0D01*
G01*
X155231250Y-101650000D01*
G75*
G02*
X155450000Y-101868750I0J-218750D01*
G01*
X155450000Y-102306250D01*
G75*
G02*
X155231250Y-102525000I-218750J0D01*
G01*
G37*
G04 #@! TD.AperFunction*
G04 #@! TA.AperFunction,SMDPad,CuDef*
G36*
G01*
X155231250Y-100950000D02*
X154718750Y-100950000D01*
G75*
G02*
X154500000Y-100731250I0J218750D01*
G01*
X154500000Y-100293750D01*
G75*
G02*
X154718750Y-100075000I218750J0D01*
G01*
X155231250Y-100075000D01*
G75*
G02*
X155450000Y-100293750I0J-218750D01*
G01*
X155450000Y-100731250D01*
G75*
G02*
X155231250Y-100950000I-218750J0D01*
G01*
G37*
G04 #@! TD.AperFunction*
G04 #@! TA.AperFunction,SMDPad,CuDef*
G36*
G01*
X150900000Y-103913750D02*
X150900000Y-104426250D01*
G75*
G02*
X150681250Y-104645000I-218750J0D01*
G01*
X150243750Y-104645000D01*
G75*
G02*
X150025000Y-104426250I0J218750D01*
G01*
X150025000Y-103913750D01*
G75*
G02*
X150243750Y-103695000I218750J0D01*
G01*
X150681250Y-103695000D01*
G75*
G02*
X150900000Y-103913750I0J-218750D01*
G01*
G37*
G04 #@! TD.AperFunction*
G04 #@! TA.AperFunction,SMDPad,CuDef*
G36*
G01*
X152475000Y-103913750D02*
X152475000Y-104426250D01*
G75*
G02*
X152256250Y-104645000I-218750J0D01*
G01*
X151818750Y-104645000D01*
G75*
G02*
X151600000Y-104426250I0J218750D01*
G01*
X151600000Y-103913750D01*
G75*
G02*
X151818750Y-103695000I218750J0D01*
G01*
X152256250Y-103695000D01*
G75*
G02*
X152475000Y-103913750I0J-218750D01*
G01*
G37*
G04 #@! TD.AperFunction*
G04 #@! TA.AperFunction,SMDPad,CuDef*
G36*
G01*
X132881250Y-103050000D02*
X132368750Y-103050000D01*
G75*
G02*
X132150000Y-102831250I0J218750D01*
G01*
X132150000Y-102393750D01*
G75*
G02*
X132368750Y-102175000I218750J0D01*
G01*
X132881250Y-102175000D01*
G75*
G02*
X133100000Y-102393750I0J-218750D01*
G01*
X133100000Y-102831250D01*
G75*
G02*
X132881250Y-103050000I-218750J0D01*
G01*
G37*
G04 #@! TD.AperFunction*
G04 #@! TA.AperFunction,SMDPad,CuDef*
G36*
G01*
X132881250Y-104625000D02*
X132368750Y-104625000D01*
G75*
G02*
X132150000Y-104406250I0J218750D01*
G01*
X132150000Y-103968750D01*
G75*
G02*
X132368750Y-103750000I218750J0D01*
G01*
X132881250Y-103750000D01*
G75*
G02*
X133100000Y-103968750I0J-218750D01*
G01*
X133100000Y-104406250D01*
G75*
G02*
X132881250Y-104625000I-218750J0D01*
G01*
G37*
G04 #@! TD.AperFunction*
G04 #@! TA.AperFunction,SMDPad,CuDef*
G36*
G01*
X140400000Y-95006250D02*
X140400000Y-94493750D01*
G75*
G02*
X140618750Y-94275000I218750J0D01*
G01*
X141056250Y-94275000D01*
G75*
G02*
X141275000Y-94493750I0J-218750D01*
G01*
X141275000Y-95006250D01*
G75*
G02*
X141056250Y-95225000I-218750J0D01*
G01*
X140618750Y-95225000D01*
G75*
G02*
X140400000Y-95006250I0J218750D01*
G01*
G37*
G04 #@! TD.AperFunction*
G04 #@! TA.AperFunction,SMDPad,CuDef*
G36*
G01*
X138825000Y-95006250D02*
X138825000Y-94493750D01*
G75*
G02*
X139043750Y-94275000I218750J0D01*
G01*
X139481250Y-94275000D01*
G75*
G02*
X139700000Y-94493750I0J-218750D01*
G01*
X139700000Y-95006250D01*
G75*
G02*
X139481250Y-95225000I-218750J0D01*
G01*
X139043750Y-95225000D01*
G75*
G02*
X138825000Y-95006250I0J218750D01*
G01*
G37*
G04 #@! TD.AperFunction*
G04 #@! TA.AperFunction,SMDPad,CuDef*
G36*
G01*
X140400000Y-96466250D02*
X140400000Y-95953750D01*
G75*
G02*
X140618750Y-95735000I218750J0D01*
G01*
X141056250Y-95735000D01*
G75*
G02*
X141275000Y-95953750I0J-218750D01*
G01*
X141275000Y-96466250D01*
G75*
G02*
X141056250Y-96685000I-218750J0D01*
G01*
X140618750Y-96685000D01*
G75*
G02*
X140400000Y-96466250I0J218750D01*
G01*
G37*
G04 #@! TD.AperFunction*
G04 #@! TA.AperFunction,SMDPad,CuDef*
G36*
G01*
X138825000Y-96466250D02*
X138825000Y-95953750D01*
G75*
G02*
X139043750Y-95735000I218750J0D01*
G01*
X139481250Y-95735000D01*
G75*
G02*
X139700000Y-95953750I0J-218750D01*
G01*
X139700000Y-96466250D01*
G75*
G02*
X139481250Y-96685000I-218750J0D01*
G01*
X139043750Y-96685000D01*
G75*
G02*
X138825000Y-96466250I0J218750D01*
G01*
G37*
G04 #@! TD.AperFunction*
G04 #@! TA.AperFunction,SMDPad,CuDef*
G36*
G01*
X152225000Y-99281250D02*
X152225000Y-98768750D01*
G75*
G02*
X152443750Y-98550000I218750J0D01*
G01*
X152881250Y-98550000D01*
G75*
G02*
X153100000Y-98768750I0J-218750D01*
G01*
X153100000Y-99281250D01*
G75*
G02*
X152881250Y-99500000I-218750J0D01*
G01*
X152443750Y-99500000D01*
G75*
G02*
X152225000Y-99281250I0J218750D01*
G01*
G37*
G04 #@! TD.AperFunction*
G04 #@! TA.AperFunction,SMDPad,CuDef*
G36*
G01*
X150650000Y-99281250D02*
X150650000Y-98768750D01*
G75*
G02*
X150868750Y-98550000I218750J0D01*
G01*
X151306250Y-98550000D01*
G75*
G02*
X151525000Y-98768750I0J-218750D01*
G01*
X151525000Y-99281250D01*
G75*
G02*
X151306250Y-99500000I-218750J0D01*
G01*
X150868750Y-99500000D01*
G75*
G02*
X150650000Y-99281250I0J218750D01*
G01*
G37*
G04 #@! TD.AperFunction*
D28*
X154400000Y-101250000D03*
X137050000Y-100200000D03*
X146425000Y-104800000D03*
X144325000Y-104900000D03*
X136700000Y-104850000D03*
X154250000Y-103575000D03*
X149250000Y-103725000D03*
X150100000Y-99275000D03*
X133975000Y-103275000D03*
X140075000Y-95525000D03*
X132375000Y-96950000D03*
X134963780Y-103307816D03*
X160625000Y-102200000D03*
X128650000Y-95925000D03*
X156350000Y-99350000D03*
X129350000Y-105425000D03*
X148070627Y-96111323D03*
X147400000Y-95875000D03*
X146900000Y-96325000D03*
X146375000Y-95900000D03*
X135960000Y-94540000D03*
X141325000Y-99692390D03*
X149987028Y-100240212D03*
X142300000Y-104550000D03*
X141532610Y-102204693D03*
X162375000Y-104975000D03*
X131175000Y-90700000D03*
X138250000Y-98042390D03*
X141226424Y-98681091D03*
X147200000Y-104790000D03*
X136070000Y-99640000D03*
X145700000Y-96100000D03*
X139450000Y-93675000D03*
X141400000Y-100700000D03*
X139465000Y-100175000D03*
X162925000Y-97825000D03*
X150078204Y-98582604D03*
X157600000Y-97000000D03*
X163125000Y-94575000D03*
D29*
X162902500Y-103105000D02*
X161865000Y-103105000D01*
X163390000Y-103592500D02*
X162902500Y-103105000D01*
D30*
X137600000Y-102322500D02*
X140565000Y-102322500D01*
D29*
X160930000Y-105646000D02*
X160930000Y-106750000D01*
X160664000Y-105380000D02*
X160930000Y-105646000D01*
X161001000Y-103110000D02*
X161785000Y-103110000D01*
X160664000Y-103447000D02*
X161001000Y-103110000D01*
X160664000Y-105380000D02*
X160664000Y-103447000D01*
D30*
X136162500Y-102322500D02*
X135975000Y-102135000D01*
X137600000Y-102322500D02*
X136162500Y-102322500D01*
X153487500Y-100512500D02*
X153475000Y-100525000D01*
X154975000Y-100512500D02*
X153487500Y-100512500D01*
X143400000Y-103050000D02*
X145650000Y-100800000D01*
X147900000Y-102675000D02*
X145650000Y-100425000D01*
X147900000Y-103862500D02*
X147900000Y-102675000D01*
X146400000Y-99675000D02*
X145650000Y-100425000D01*
X149087500Y-99675000D02*
X146400000Y-99675000D01*
X144900000Y-99675000D02*
X145650000Y-100425000D01*
X144900000Y-96987500D02*
X144900000Y-99675000D01*
X143400000Y-98175000D02*
X145650000Y-100425000D01*
X143400000Y-96987500D02*
X143400000Y-98175000D01*
X150133890Y-104528610D02*
X150457500Y-104205000D01*
X148128610Y-104528610D02*
X150133890Y-104528610D01*
X147900000Y-104300000D02*
X148128610Y-104528610D01*
X147900000Y-103862500D02*
X147900000Y-104300000D01*
D29*
X153270599Y-94720599D02*
X152475000Y-93925000D01*
X153270599Y-95983099D02*
X153270599Y-94720599D01*
X153887500Y-96600000D02*
X153270599Y-95983099D01*
X153104401Y-94554401D02*
X152475000Y-93925000D01*
X153104401Y-95983099D02*
X153104401Y-94554401D01*
X152487500Y-96600000D02*
X153104401Y-95983099D01*
D30*
X149087500Y-99675000D02*
X149170102Y-99757602D01*
X149170102Y-99757602D02*
X151929898Y-99757602D01*
X151929898Y-99757602D02*
X152662500Y-99025000D01*
X143400000Y-96287500D02*
X143400000Y-96987500D01*
X142237500Y-95125000D02*
X143400000Y-96287500D01*
X140837500Y-94750000D02*
X142237500Y-94750000D01*
X143400000Y-102675000D02*
X145650000Y-100425000D01*
X142212500Y-102675000D02*
X143400000Y-102675000D01*
X154975000Y-100675000D02*
X154400000Y-101250000D01*
X154975000Y-100512500D02*
X154975000Y-100675000D01*
X134893601Y-98571399D02*
X134725000Y-98740000D01*
X136157881Y-98571399D02*
X134893601Y-98571399D01*
X136686482Y-99100000D02*
X136157881Y-98571399D01*
X137325000Y-99100000D02*
X136686482Y-99100000D01*
X145650000Y-100425000D02*
X142811694Y-100425000D01*
X146987500Y-95187500D02*
X147025000Y-95225000D01*
X145600000Y-95187500D02*
X146987500Y-95187500D01*
X144900000Y-96987500D02*
X144900000Y-95887500D01*
X144900000Y-95887500D02*
X145600000Y-95187500D01*
D29*
X127830000Y-97055000D02*
X127710000Y-97175000D01*
X130690000Y-97055000D02*
X127830000Y-97055000D01*
X130590000Y-102685000D02*
X130710000Y-102805000D01*
X130590000Y-101205000D02*
X130590000Y-102685000D01*
D30*
X142087500Y-102800000D02*
X140992500Y-102800000D01*
X142212500Y-102675000D02*
X142087500Y-102800000D01*
X140992500Y-102800000D02*
X140515000Y-102322500D01*
D29*
X154342078Y-99025000D02*
X152662500Y-99025000D01*
X157092078Y-96275000D02*
X154342078Y-99025000D01*
X159325000Y-96275000D02*
X157092078Y-96275000D01*
X159900000Y-96850000D02*
X159325000Y-96275000D01*
X159675000Y-96850000D02*
X159900000Y-96850000D01*
D30*
X146400000Y-103862500D02*
X146400000Y-104275000D01*
X146400000Y-104775000D02*
X146425000Y-104800000D01*
X146400000Y-104275000D02*
X146400000Y-104775000D01*
X144400000Y-104825000D02*
X144325000Y-104900000D01*
X144400000Y-103862500D02*
X144400000Y-104825000D01*
X144325000Y-104900000D02*
X144250000Y-104900000D01*
X144250000Y-104900000D02*
X144050000Y-105100000D01*
X136950000Y-105100000D02*
X136700000Y-104850000D01*
X144050000Y-105100000D02*
X136950000Y-105100000D01*
X152032500Y-104205000D02*
X153432500Y-104205000D01*
D29*
X154062500Y-103575000D02*
X153432500Y-104205000D01*
X154250000Y-103575000D02*
X154062500Y-103575000D01*
D30*
X137590000Y-103897500D02*
X140515000Y-103897500D01*
X151002500Y-103175000D02*
X152032500Y-104205000D01*
X149087500Y-103175000D02*
X151002500Y-103175000D01*
X149018750Y-103493750D02*
X149250000Y-103725000D01*
X148768750Y-103493750D02*
X149018750Y-103493750D01*
X148400000Y-103862500D02*
X148768750Y-103493750D01*
X148768750Y-103493750D02*
X149087500Y-103175000D01*
X149087500Y-99175000D02*
X149400000Y-99175000D01*
X149400000Y-99175000D02*
X150000000Y-99175000D01*
X150000000Y-99175000D02*
X150100000Y-99275000D01*
X150837500Y-99275000D02*
X151087500Y-99025000D01*
X150100000Y-99275000D02*
X150837500Y-99275000D01*
X140225000Y-98025000D02*
X140225000Y-97525000D01*
D29*
X134155000Y-103095000D02*
X133975000Y-103275000D01*
X134155000Y-102195000D02*
X134155000Y-103095000D01*
D30*
X136409900Y-103897500D02*
X137590000Y-103897500D01*
X134707400Y-102195000D02*
X136409900Y-103897500D01*
X134155000Y-102195000D02*
X134707400Y-102195000D01*
X134655000Y-97350000D02*
X134725000Y-97420000D01*
X133875000Y-97350000D02*
X134655000Y-97350000D01*
X139400000Y-96200000D02*
X140075000Y-95525000D01*
X139262500Y-96200000D02*
X139400000Y-96200000D01*
X139300000Y-94750000D02*
X140075000Y-95525000D01*
X139262500Y-94750000D02*
X139300000Y-94750000D01*
X142816110Y-96903610D02*
X142900000Y-96987500D01*
X139788518Y-98100000D02*
X140225000Y-98100000D01*
X139288518Y-98600000D02*
X139788518Y-98100000D01*
X137325000Y-98600000D02*
X139288518Y-98600000D01*
X132675000Y-97250000D02*
X132375000Y-96950000D01*
X133850000Y-97250000D02*
X132675000Y-97250000D01*
X136696399Y-97267119D02*
X137763518Y-96200000D01*
X137763518Y-96200000D02*
X139262500Y-96200000D01*
X136696399Y-98523799D02*
X136696399Y-97267119D01*
X136772600Y-98600000D02*
X136696399Y-98523799D01*
X137300000Y-98600000D02*
X136772600Y-98600000D01*
X142826110Y-96913610D02*
X142900000Y-96987500D01*
X140413610Y-96913610D02*
X142826110Y-96913610D01*
X139700000Y-96200000D02*
X140413610Y-96913610D01*
X139262500Y-96200000D02*
X139700000Y-96200000D01*
X142212500Y-103637500D02*
X141975000Y-103875000D01*
X140515000Y-103897500D02*
X141952500Y-103897500D01*
X141952500Y-103897500D02*
X141975000Y-103875000D01*
X142212500Y-103175000D02*
X142212500Y-103637500D01*
X132637500Y-104195000D02*
X132630000Y-104187500D01*
X135105000Y-104195000D02*
X132637500Y-104195000D01*
D31*
X135105000Y-104195000D02*
X135105000Y-103449036D01*
X135105000Y-103449036D02*
X134963780Y-103307816D01*
D29*
X157540001Y-107599999D02*
X158390000Y-106750000D01*
X157260599Y-107879401D02*
X157540001Y-107599999D01*
X134979401Y-107879401D02*
X134739401Y-107879401D01*
X135440599Y-107879401D02*
X157260599Y-107879401D01*
X135440599Y-107879401D02*
X134979401Y-107879401D01*
X134979401Y-107879401D02*
X133521780Y-107879401D01*
X157975000Y-100550000D02*
X159585000Y-102160000D01*
X156875000Y-100550000D02*
X157975000Y-100550000D01*
X159442500Y-102017500D02*
X159585000Y-102160000D01*
X158040000Y-102017500D02*
X159442500Y-102017500D01*
X159625000Y-102200000D02*
X159585000Y-102160000D01*
X160625000Y-102200000D02*
X159625000Y-102200000D01*
D30*
X128650000Y-95737500D02*
X129312500Y-95075000D01*
X128650000Y-95925000D02*
X128650000Y-95737500D01*
D29*
X156350000Y-100025000D02*
X156875000Y-100550000D01*
X156350000Y-99350000D02*
X156350000Y-100025000D01*
X128862500Y-106864838D02*
X129873730Y-107876068D01*
X128862500Y-106700000D02*
X128862500Y-106864838D01*
X133518447Y-107876068D02*
X133519482Y-107877103D01*
X129873730Y-107876068D02*
X133518447Y-107876068D01*
X128862500Y-106537500D02*
X130375000Y-105025000D01*
X128862500Y-106700000D02*
X128862500Y-106537500D01*
X129750000Y-105025000D02*
X129350000Y-105425000D01*
X130375000Y-105025000D02*
X129750000Y-105025000D01*
X163252500Y-102155000D02*
X163390000Y-102017500D01*
X161865000Y-102155000D02*
X163252500Y-102155000D01*
X157675000Y-98850000D02*
X156875000Y-98050000D01*
X159675000Y-98850000D02*
X157675000Y-98850000D01*
X162842500Y-102017500D02*
X159675000Y-98850000D01*
X163325000Y-102017500D02*
X162842500Y-102017500D01*
D30*
X143900000Y-95212500D02*
X143812500Y-95125000D01*
X143900000Y-96987500D02*
X143900000Y-95212500D01*
D29*
X129154401Y-104070599D02*
X127825000Y-105400000D01*
X129511000Y-98605000D02*
X129154401Y-98961599D01*
X129154401Y-98961599D02*
X129154401Y-104070599D01*
X130590000Y-98605000D02*
X129511000Y-98605000D01*
D30*
X127737500Y-95075000D02*
X127737500Y-93615000D01*
X147900000Y-96987500D02*
X147900000Y-96575000D01*
X147900000Y-96281950D02*
X148070627Y-96111323D01*
X147900000Y-96575000D02*
X147900000Y-96281950D01*
X147400000Y-96987500D02*
X147400000Y-96625000D01*
X147400000Y-96625000D02*
X147400000Y-95875000D01*
X146900000Y-96987500D02*
X146900000Y-96600000D01*
X146900000Y-96600000D02*
X146900000Y-96325000D01*
X146400000Y-96987500D02*
X146400000Y-96625000D01*
X146400000Y-95925000D02*
X146375000Y-95900000D01*
X146400000Y-96987500D02*
X146400000Y-95925000D01*
X132880000Y-91460000D02*
X135960000Y-94540000D01*
X142212500Y-99675000D02*
X141342390Y-99675000D01*
X141342390Y-99675000D02*
X141325000Y-99692390D01*
D29*
X131382200Y-99783200D02*
X131336800Y-99783200D01*
X131336800Y-99783200D02*
X131215000Y-99905000D01*
X131215000Y-99905000D02*
X130590000Y-99905000D01*
X132801272Y-101202272D02*
X131382200Y-99783200D01*
X142182433Y-101644933D02*
X140992489Y-101644933D01*
X140549828Y-101202272D02*
X132801272Y-101202272D01*
X140992489Y-101644933D02*
X140549828Y-101202272D01*
X142212500Y-101675000D02*
X142182433Y-101644933D01*
X131625800Y-99376800D02*
X131336800Y-99376800D01*
X133044861Y-100795861D02*
X131625800Y-99376800D01*
X131215000Y-99255000D02*
X130590000Y-99255000D01*
X131336800Y-99376800D02*
X131215000Y-99255000D01*
X141173413Y-101238522D02*
X140730752Y-100795861D01*
X140730752Y-100795861D02*
X133044861Y-100795861D01*
X142212500Y-101175000D02*
X142148978Y-101238522D01*
X142148978Y-101238522D02*
X141173413Y-101238522D01*
D30*
X149087500Y-100175000D02*
X149921816Y-100175000D01*
X149921816Y-100175000D02*
X149987028Y-100240212D01*
X145900000Y-103862500D02*
X145900000Y-104989252D01*
X145900000Y-104989252D02*
X147610748Y-106700000D01*
X147610748Y-106700000D02*
X148140000Y-106700000D01*
X145400000Y-106500000D02*
X145600000Y-106700000D01*
X145400000Y-103862500D02*
X145400000Y-106500000D01*
X144900000Y-103862500D02*
X144900000Y-105039250D01*
X144900000Y-105039250D02*
X143239250Y-106700000D01*
X143239250Y-106700000D02*
X143060000Y-106700000D01*
X142900000Y-103950000D02*
X142300000Y-104550000D01*
X142900000Y-103862500D02*
X142900000Y-103950000D01*
X141562303Y-102175000D02*
X141532610Y-102204693D01*
X142212500Y-102175000D02*
X141562303Y-102175000D01*
X156590000Y-102017500D02*
X156590000Y-102050000D01*
X159585000Y-103582600D02*
X159585000Y-104060000D01*
X158928790Y-102926390D02*
X159585000Y-103582600D01*
X157473890Y-102926390D02*
X158928790Y-102926390D01*
X156565000Y-102017500D02*
X157473890Y-102926390D01*
X161785000Y-104385000D02*
X162375000Y-104975000D01*
X161785000Y-104060000D02*
X161785000Y-104385000D01*
X129312500Y-92562500D02*
X129312500Y-93615000D01*
X131175000Y-90700000D02*
X129312500Y-92562500D01*
X140375000Y-99175000D02*
X140225000Y-99025000D01*
X142212500Y-99175000D02*
X140375000Y-99175000D01*
X138232610Y-98025000D02*
X138250000Y-98042390D01*
X138192390Y-98100000D02*
X138250000Y-98042390D01*
X137325000Y-98100000D02*
X138192390Y-98100000D01*
X141232515Y-98675000D02*
X141226424Y-98681091D01*
X142212500Y-98675000D02*
X141232515Y-98675000D01*
X140225000Y-98600000D02*
X140500000Y-98600000D01*
X142212500Y-98175000D02*
X141875000Y-98175000D01*
X140200000Y-98600000D02*
X140625000Y-98600000D01*
X141050000Y-98175000D02*
X142212500Y-98175000D01*
X140625000Y-98600000D02*
X141050000Y-98175000D01*
X154762500Y-101925000D02*
X154950000Y-102112500D01*
X153475000Y-101925000D02*
X154762500Y-101925000D01*
X153475000Y-101322600D02*
X153475000Y-101925000D01*
X153398799Y-101246399D02*
X153475000Y-101322600D01*
X149158899Y-101246399D02*
X153398799Y-101246399D01*
X149087500Y-101175000D02*
X149158899Y-101246399D01*
X152312500Y-100462500D02*
X152375000Y-100525000D01*
X150875000Y-100462500D02*
X152312500Y-100462500D01*
X150537500Y-100800000D02*
X150875000Y-100462500D01*
X149212500Y-100800000D02*
X150537500Y-100800000D01*
X149087500Y-100675000D02*
X149212500Y-100800000D01*
X140351256Y-97220190D02*
X137704810Y-97220190D01*
X140352465Y-97221399D02*
X140351256Y-97220190D01*
X141758899Y-97221399D02*
X140352465Y-97221399D01*
X137704810Y-97220190D02*
X137325000Y-97600000D01*
X142212500Y-97675000D02*
X141758899Y-97221399D01*
X135825000Y-99400000D02*
X135575000Y-99150000D01*
X146900000Y-104490000D02*
X147200000Y-104790000D01*
X146900000Y-103862500D02*
X146900000Y-104490000D01*
X136065000Y-99640000D02*
X135825000Y-99400000D01*
X136070000Y-99640000D02*
X136065000Y-99640000D01*
X145900000Y-96987500D02*
X145900000Y-96625000D01*
X145900000Y-96300000D02*
X145700000Y-96100000D01*
X145900000Y-96625000D02*
X145900000Y-96300000D01*
X136391588Y-97860812D02*
X136391588Y-96374202D01*
X136102400Y-98150000D02*
X136391588Y-97860812D01*
X136391588Y-96374202D02*
X139090790Y-93675000D01*
X135550000Y-98150000D02*
X136102400Y-98150000D01*
X139090790Y-93675000D02*
X139450000Y-93675000D01*
D31*
X149025000Y-92355000D02*
X148130000Y-91460000D01*
X149025000Y-94575000D02*
X149025000Y-92355000D01*
X150475000Y-91655000D02*
X150670000Y-91460000D01*
X150475000Y-94575000D02*
X150475000Y-91655000D01*
X153900000Y-92150000D02*
X153210000Y-91460000D01*
X153900000Y-94575000D02*
X153900000Y-92150000D01*
X157415000Y-93125000D02*
X160800000Y-93125000D01*
X155750000Y-91460000D02*
X157415000Y-93125000D01*
D30*
X141425000Y-100675000D02*
X141400000Y-100700000D01*
X142212500Y-100675000D02*
X141425000Y-100675000D01*
X139325000Y-100175000D02*
X142212500Y-100175000D01*
X139465000Y-100175000D02*
X139325000Y-100175000D01*
X161237500Y-92212500D02*
X162800000Y-93775000D01*
X149985808Y-98675000D02*
X150078204Y-98582604D01*
X149087500Y-98675000D02*
X149985808Y-98675000D01*
X158425000Y-97825000D02*
X157600000Y-97000000D01*
X162925000Y-97825000D02*
X158425000Y-97825000D01*
X162800000Y-94250000D02*
X163125000Y-94575000D01*
X162800000Y-93775000D02*
X162800000Y-94250000D01*
X160787500Y-91762500D02*
X161237500Y-92212500D01*
X160787500Y-91100000D02*
X160787500Y-91762500D01*
X155900000Y-96162500D02*
X155462500Y-96600000D01*
X155900000Y-95225000D02*
X155900000Y-96162500D01*
X155462500Y-96600000D02*
X154487500Y-97575000D01*
X154487500Y-97575000D02*
X150425000Y-97575000D01*
X150425000Y-97575000D02*
X149850000Y-98150000D01*
X149112500Y-98150000D02*
X149087500Y-98175000D01*
X149850000Y-98150000D02*
X149112500Y-98150000D01*
X149837500Y-97675000D02*
X150912500Y-96600000D01*
X149087500Y-97675000D02*
X149837500Y-97675000D01*
X151100000Y-96600000D02*
X152475000Y-95225000D01*
X150912500Y-96600000D02*
X151100000Y-96600000D01*
X147025000Y-93925000D02*
X147100000Y-93925000D01*
X148575000Y-95475000D02*
X147025000Y-93925000D01*
X148575000Y-96425000D02*
X148575000Y-95475000D01*
X148400000Y-96600000D02*
X148575000Y-96425000D01*
X148400000Y-96987500D02*
X148400000Y-96600000D01*
X145600000Y-93612500D02*
X146712500Y-93612500D01*
X146712500Y-93612500D02*
X147025000Y-93925000D01*
D32*
G36*
X163362152Y-90426639D02*
G01*
X163277272Y-90631558D01*
X163234000Y-90849099D01*
X163234000Y-91070901D01*
X163277272Y-91288442D01*
X163362152Y-91493361D01*
X163485379Y-91677783D01*
X163642217Y-91834621D01*
X163826639Y-91957848D01*
X164031558Y-92042728D01*
X164249099Y-92086000D01*
X164470901Y-92086000D01*
X164688442Y-92042728D01*
X164893361Y-91957848D01*
X165031192Y-91865752D01*
X165015135Y-106148496D01*
X164908361Y-106077152D01*
X164703442Y-105992272D01*
X164485901Y-105949000D01*
X164264099Y-105949000D01*
X164046558Y-105992272D01*
X163841639Y-106077152D01*
X163657217Y-106200379D01*
X163500379Y-106357217D01*
X163377152Y-106541639D01*
X163292272Y-106746558D01*
X163249000Y-106964099D01*
X163249000Y-107185901D01*
X163292272Y-107403442D01*
X163377152Y-107608361D01*
X163500379Y-107792783D01*
X163509519Y-107801923D01*
X163488535Y-107795551D01*
X163422280Y-107789007D01*
X158877681Y-107787730D01*
X158880729Y-107786467D01*
X159081529Y-107652296D01*
X159252296Y-107481529D01*
X159386467Y-107280729D01*
X159478885Y-107057611D01*
X159526000Y-106820750D01*
X159526000Y-106579250D01*
X159478885Y-106342389D01*
X159386467Y-106119271D01*
X159252296Y-105918471D01*
X159081529Y-105747704D01*
X158880729Y-105613533D01*
X158657611Y-105521115D01*
X158420750Y-105474000D01*
X158179250Y-105474000D01*
X157942389Y-105521115D01*
X157719271Y-105613533D01*
X157518471Y-105747704D01*
X157347704Y-105918471D01*
X157213533Y-106119271D01*
X157121115Y-106342389D01*
X157074000Y-106579250D01*
X157074000Y-106820750D01*
X157121115Y-107057611D01*
X157194316Y-107234336D01*
X157052251Y-107376401D01*
X156782541Y-107376401D01*
X156846467Y-107280729D01*
X156938885Y-107057611D01*
X156986000Y-106820750D01*
X156986000Y-106579250D01*
X156938885Y-106342389D01*
X156846467Y-106119271D01*
X156712296Y-105918471D01*
X156541529Y-105747704D01*
X156340729Y-105613533D01*
X156117611Y-105521115D01*
X155880750Y-105474000D01*
X155639250Y-105474000D01*
X155402389Y-105521115D01*
X155179271Y-105613533D01*
X154978471Y-105747704D01*
X154807704Y-105918471D01*
X154673533Y-106119271D01*
X154581115Y-106342389D01*
X154534000Y-106579250D01*
X154534000Y-106820750D01*
X154581115Y-107057611D01*
X154673533Y-107280729D01*
X154737459Y-107376401D01*
X154242541Y-107376401D01*
X154306467Y-107280729D01*
X154398885Y-107057611D01*
X154446000Y-106820750D01*
X154446000Y-106579250D01*
X154398885Y-106342389D01*
X154306467Y-106119271D01*
X154172296Y-105918471D01*
X154001529Y-105747704D01*
X153800729Y-105613533D01*
X153577611Y-105521115D01*
X153340750Y-105474000D01*
X153099250Y-105474000D01*
X152862389Y-105521115D01*
X152639271Y-105613533D01*
X152438471Y-105747704D01*
X152267704Y-105918471D01*
X152133533Y-106119271D01*
X152041115Y-106342389D01*
X151994000Y-106579250D01*
X151994000Y-106820750D01*
X152041115Y-107057611D01*
X152133533Y-107280729D01*
X152197459Y-107376401D01*
X151702541Y-107376401D01*
X151766467Y-107280729D01*
X151858885Y-107057611D01*
X151906000Y-106820750D01*
X151906000Y-106579250D01*
X151858885Y-106342389D01*
X151766467Y-106119271D01*
X151632296Y-105918471D01*
X151461529Y-105747704D01*
X151260729Y-105613533D01*
X151037611Y-105521115D01*
X150800750Y-105474000D01*
X150559250Y-105474000D01*
X150322389Y-105521115D01*
X150099271Y-105613533D01*
X149898471Y-105747704D01*
X149727704Y-105918471D01*
X149593533Y-106119271D01*
X149501115Y-106342389D01*
X149454000Y-106579250D01*
X149454000Y-106820750D01*
X149501115Y-107057611D01*
X149593533Y-107280729D01*
X149657459Y-107376401D01*
X149162541Y-107376401D01*
X149226467Y-107280729D01*
X149318885Y-107057611D01*
X149366000Y-106820750D01*
X149366000Y-106579250D01*
X149318885Y-106342389D01*
X149226467Y-106119271D01*
X149092296Y-105918471D01*
X148921529Y-105747704D01*
X148720729Y-105613533D01*
X148497611Y-105521115D01*
X148260750Y-105474000D01*
X148019250Y-105474000D01*
X147782389Y-105521115D01*
X147559271Y-105613533D01*
X147358471Y-105747704D01*
X147328215Y-105777960D01*
X146892453Y-105342197D01*
X146901583Y-105348298D01*
X147016236Y-105395789D01*
X147137950Y-105420000D01*
X147262050Y-105420000D01*
X147383764Y-105395789D01*
X147498417Y-105348298D01*
X147601601Y-105279353D01*
X147689353Y-105191601D01*
X147758298Y-105088417D01*
X147805789Y-104973764D01*
X147830000Y-104852050D01*
X147830000Y-104727950D01*
X147805789Y-104606236D01*
X147779281Y-104542239D01*
X147828612Y-104482128D01*
X147869302Y-104406003D01*
X147894358Y-104323402D01*
X147900000Y-104266120D01*
X147905642Y-104323402D01*
X147930698Y-104406003D01*
X147971388Y-104482128D01*
X148026147Y-104548853D01*
X148092872Y-104603612D01*
X148168997Y-104644302D01*
X148251598Y-104669358D01*
X148337500Y-104677819D01*
X148462500Y-104677819D01*
X148548402Y-104669358D01*
X148631003Y-104644302D01*
X148707128Y-104603612D01*
X148773853Y-104548853D01*
X148828612Y-104482128D01*
X148869302Y-104406003D01*
X148894358Y-104323402D01*
X148901598Y-104249899D01*
X148951583Y-104283298D01*
X149066236Y-104330789D01*
X149187950Y-104355000D01*
X149312050Y-104355000D01*
X149433764Y-104330789D01*
X149548417Y-104283298D01*
X149651601Y-104214353D01*
X149739353Y-104126601D01*
X149808298Y-104023417D01*
X149855789Y-103908764D01*
X149880000Y-103787050D01*
X149880000Y-103662950D01*
X149872889Y-103627200D01*
X150815193Y-103627200D01*
X151222181Y-104034189D01*
X151222181Y-104426250D01*
X151233644Y-104542635D01*
X151267592Y-104654547D01*
X151322721Y-104757686D01*
X151396912Y-104848088D01*
X151487314Y-104922279D01*
X151590453Y-104977408D01*
X151702365Y-105011356D01*
X151818750Y-105022819D01*
X152256250Y-105022819D01*
X152372635Y-105011356D01*
X152484547Y-104977408D01*
X152587686Y-104922279D01*
X152678088Y-104848088D01*
X152732052Y-104782333D01*
X152781912Y-104843088D01*
X152872314Y-104917279D01*
X152975453Y-104972408D01*
X153087365Y-105006356D01*
X153203750Y-105017819D01*
X153641250Y-105017819D01*
X153757635Y-105006356D01*
X153869547Y-104972408D01*
X153972686Y-104917279D01*
X154063088Y-104843088D01*
X154137279Y-104752686D01*
X154192408Y-104649547D01*
X154226356Y-104537635D01*
X154237819Y-104421250D01*
X154237819Y-104205000D01*
X154312050Y-104205000D01*
X154433764Y-104180789D01*
X154548417Y-104133298D01*
X154651601Y-104064353D01*
X154739353Y-103976601D01*
X154808298Y-103873417D01*
X154855789Y-103758764D01*
X154880000Y-103637050D01*
X154880000Y-103512950D01*
X154855789Y-103391236D01*
X154808298Y-103276583D01*
X154739353Y-103173399D01*
X154651601Y-103085647D01*
X154548417Y-103016702D01*
X154433764Y-102969211D01*
X154312050Y-102945000D01*
X154187950Y-102945000D01*
X154066236Y-102969211D01*
X153951583Y-103016702D01*
X153848399Y-103085647D01*
X153768323Y-103165723D01*
X153705105Y-103217605D01*
X153689356Y-103236795D01*
X153613970Y-103312181D01*
X153203750Y-103312181D01*
X153087365Y-103323644D01*
X152975453Y-103357592D01*
X152872314Y-103412721D01*
X152781912Y-103486912D01*
X152727948Y-103552667D01*
X152678088Y-103491912D01*
X152587686Y-103417721D01*
X152484547Y-103362592D01*
X152372635Y-103328644D01*
X152256250Y-103317181D01*
X151818750Y-103317181D01*
X151787287Y-103320280D01*
X151337965Y-102870958D01*
X151323801Y-102853699D01*
X151254944Y-102797190D01*
X151176387Y-102755200D01*
X151091147Y-102729343D01*
X151024715Y-102722800D01*
X151024713Y-102722800D01*
X151002500Y-102720612D01*
X150980287Y-102722800D01*
X149902819Y-102722800D01*
X149902819Y-102612500D01*
X149894358Y-102526598D01*
X149869302Y-102443997D01*
X149859148Y-102425000D01*
X149869302Y-102406003D01*
X149894358Y-102323402D01*
X149902819Y-102237500D01*
X149902819Y-102112500D01*
X149894358Y-102026598D01*
X149869302Y-101943997D01*
X149859148Y-101925000D01*
X149869302Y-101906003D01*
X149894358Y-101823402D01*
X149902819Y-101737500D01*
X149902819Y-101698599D01*
X151597181Y-101698599D01*
X151597181Y-102375000D01*
X151604441Y-102448709D01*
X151625941Y-102519585D01*
X151660855Y-102584905D01*
X151707842Y-102642158D01*
X151765095Y-102689145D01*
X151830415Y-102724059D01*
X151901291Y-102745559D01*
X151975000Y-102752819D01*
X152775000Y-102752819D01*
X152848709Y-102745559D01*
X152919585Y-102724059D01*
X152925000Y-102721165D01*
X152930415Y-102724059D01*
X153001291Y-102745559D01*
X153075000Y-102752819D01*
X153875000Y-102752819D01*
X153948709Y-102745559D01*
X154019585Y-102724059D01*
X154084905Y-102689145D01*
X154142158Y-102642158D01*
X154189145Y-102584905D01*
X154191827Y-102579887D01*
X154222721Y-102637686D01*
X154296912Y-102728088D01*
X154387314Y-102802279D01*
X154490453Y-102857408D01*
X154602365Y-102891356D01*
X154718750Y-102902819D01*
X155231250Y-102902819D01*
X155347635Y-102891356D01*
X155459547Y-102857408D01*
X155562686Y-102802279D01*
X155653088Y-102728088D01*
X155727279Y-102637686D01*
X155782408Y-102534547D01*
X155786720Y-102520333D01*
X155822721Y-102587686D01*
X155896912Y-102678088D01*
X155987314Y-102752279D01*
X156090453Y-102807408D01*
X156202365Y-102841356D01*
X156318750Y-102852819D01*
X156760811Y-102852819D01*
X157138427Y-103230435D01*
X157152589Y-103247691D01*
X157169842Y-103261850D01*
X157169844Y-103261852D01*
X157221446Y-103304200D01*
X157300003Y-103346190D01*
X157385243Y-103372047D01*
X157473890Y-103380778D01*
X157496105Y-103378590D01*
X158741483Y-103378590D01*
X158808162Y-103445269D01*
X158792842Y-103457842D01*
X158745855Y-103515095D01*
X158710941Y-103580415D01*
X158689441Y-103651291D01*
X158682181Y-103725000D01*
X158682181Y-104375000D01*
X158689441Y-104448709D01*
X158710941Y-104519585D01*
X158745855Y-104584905D01*
X158792842Y-104642158D01*
X158850095Y-104689145D01*
X158915415Y-104724059D01*
X158986291Y-104745559D01*
X159060000Y-104752819D01*
X160120000Y-104752819D01*
X160193709Y-104745559D01*
X160264585Y-104724059D01*
X160329905Y-104689145D01*
X160387158Y-104642158D01*
X160434145Y-104584905D01*
X160469059Y-104519585D01*
X160490559Y-104448709D01*
X160497819Y-104375000D01*
X160497819Y-103725000D01*
X160882181Y-103725000D01*
X160882181Y-104375000D01*
X160889441Y-104448709D01*
X160910941Y-104519585D01*
X160945855Y-104584905D01*
X160992842Y-104642158D01*
X161050095Y-104689145D01*
X161115415Y-104724059D01*
X161186291Y-104745559D01*
X161260000Y-104752819D01*
X161513312Y-104752819D01*
X161745000Y-104984507D01*
X161745000Y-105037050D01*
X161769211Y-105158764D01*
X161816702Y-105273417D01*
X161885647Y-105376601D01*
X161973399Y-105464353D01*
X162076583Y-105533298D01*
X162191236Y-105580789D01*
X162312950Y-105605000D01*
X162437050Y-105605000D01*
X162558764Y-105580789D01*
X162673417Y-105533298D01*
X162776601Y-105464353D01*
X162864353Y-105376601D01*
X162933298Y-105273417D01*
X162980789Y-105158764D01*
X163005000Y-105037050D01*
X163005000Y-104912950D01*
X162980789Y-104791236D01*
X162933298Y-104676583D01*
X162864353Y-104573399D01*
X162776601Y-104485647D01*
X162692458Y-104429425D01*
X162697819Y-104375000D01*
X162697819Y-103725000D01*
X162690559Y-103651291D01*
X162669059Y-103580415D01*
X162634145Y-103515095D01*
X162587158Y-103457842D01*
X162529905Y-103410855D01*
X162464585Y-103375941D01*
X162393709Y-103354441D01*
X162320000Y-103347181D01*
X161260000Y-103347181D01*
X161186291Y-103354441D01*
X161115415Y-103375941D01*
X161050095Y-103410855D01*
X160992842Y-103457842D01*
X160945855Y-103515095D01*
X160910941Y-103580415D01*
X160889441Y-103651291D01*
X160882181Y-103725000D01*
X160497819Y-103725000D01*
X160490559Y-103651291D01*
X160469059Y-103580415D01*
X160434145Y-103515095D01*
X160387158Y-103457842D01*
X160329905Y-103410855D01*
X160264585Y-103375941D01*
X160193709Y-103354441D01*
X160120000Y-103347181D01*
X159971910Y-103347181D01*
X159962810Y-103330156D01*
X159939734Y-103302038D01*
X159920462Y-103278554D01*
X159920460Y-103278552D01*
X159906301Y-103261299D01*
X159889049Y-103247141D01*
X159494726Y-102852819D01*
X160120000Y-102852819D01*
X160193709Y-102845559D01*
X160264585Y-102824059D01*
X160329905Y-102789145D01*
X160353770Y-102769559D01*
X160441236Y-102805789D01*
X160562950Y-102830000D01*
X160687050Y-102830000D01*
X160808764Y-102805789D01*
X160923417Y-102758298D01*
X160976809Y-102722623D01*
X160992842Y-102742158D01*
X161050095Y-102789145D01*
X161115415Y-102824059D01*
X161186291Y-102845559D01*
X161260000Y-102852819D01*
X162320000Y-102852819D01*
X162393709Y-102845559D01*
X162464585Y-102824059D01*
X162529905Y-102789145D01*
X162587158Y-102742158D01*
X162634145Y-102684905D01*
X162648001Y-102658982D01*
X162737314Y-102732279D01*
X162840453Y-102787408D01*
X162952365Y-102821356D01*
X163068750Y-102832819D01*
X163581250Y-102832819D01*
X163697635Y-102821356D01*
X163809547Y-102787408D01*
X163912686Y-102732279D01*
X164003088Y-102658088D01*
X164077279Y-102567686D01*
X164132408Y-102464547D01*
X164166356Y-102352635D01*
X164177819Y-102236250D01*
X164177819Y-101798750D01*
X164166356Y-101682365D01*
X164132408Y-101570453D01*
X164077279Y-101467314D01*
X164003088Y-101376912D01*
X163912686Y-101302721D01*
X163809547Y-101247592D01*
X163697635Y-101213644D01*
X163581250Y-101202181D01*
X163068750Y-101202181D01*
X162952365Y-101213644D01*
X162840453Y-101247592D01*
X162803626Y-101267276D01*
X160902507Y-99366158D01*
X160915756Y-99322482D01*
X160927819Y-99200001D01*
X160927819Y-98499999D01*
X160915756Y-98377518D01*
X160885325Y-98277200D01*
X162486246Y-98277200D01*
X162523399Y-98314353D01*
X162626583Y-98383298D01*
X162741236Y-98430789D01*
X162862950Y-98455000D01*
X162987050Y-98455000D01*
X163108764Y-98430789D01*
X163223417Y-98383298D01*
X163326601Y-98314353D01*
X163414353Y-98226601D01*
X163483298Y-98123417D01*
X163530789Y-98008764D01*
X163555000Y-97887050D01*
X163555000Y-97762950D01*
X163530789Y-97641236D01*
X163483298Y-97526583D01*
X163414353Y-97423399D01*
X163326601Y-97335647D01*
X163223417Y-97266702D01*
X163108764Y-97219211D01*
X162987050Y-97195000D01*
X162862950Y-97195000D01*
X162741236Y-97219211D01*
X162626583Y-97266702D01*
X162523399Y-97335647D01*
X162486246Y-97372800D01*
X158612307Y-97372800D01*
X158230000Y-96990493D01*
X158230000Y-96937950D01*
X158205789Y-96816236D01*
X158158298Y-96701583D01*
X158089353Y-96598399D01*
X158001601Y-96510647D01*
X157898417Y-96441702D01*
X157783764Y-96394211D01*
X157662050Y-96370000D01*
X157537950Y-96370000D01*
X157416236Y-96394211D01*
X157301583Y-96441702D01*
X157198399Y-96510647D01*
X157110647Y-96598399D01*
X157041702Y-96701583D01*
X156994211Y-96816236D01*
X156970000Y-96937950D01*
X156970000Y-97062050D01*
X156994211Y-97183764D01*
X156997697Y-97192181D01*
X156300000Y-97192181D01*
X156226291Y-97199441D01*
X156155415Y-97220941D01*
X156122219Y-97238685D01*
X156172279Y-97177686D01*
X156227408Y-97074547D01*
X156261356Y-96962635D01*
X156272819Y-96846250D01*
X156272819Y-96421026D01*
X156277810Y-96414944D01*
X156319800Y-96336387D01*
X156345657Y-96251147D01*
X156352200Y-96184715D01*
X156352200Y-96184706D01*
X156354387Y-96162501D01*
X156352200Y-96140296D01*
X156352200Y-95796916D01*
X156394585Y-95784059D01*
X156459905Y-95749145D01*
X156517158Y-95702158D01*
X156564145Y-95644905D01*
X156599059Y-95579585D01*
X156620559Y-95508709D01*
X156627819Y-95435000D01*
X156627819Y-94985000D01*
X156620559Y-94911291D01*
X156599059Y-94840415D01*
X156564145Y-94775095D01*
X156517158Y-94717842D01*
X156459905Y-94670855D01*
X156394585Y-94635941D01*
X156323709Y-94614441D01*
X156250000Y-94607181D01*
X155550000Y-94607181D01*
X155476291Y-94614441D01*
X155405415Y-94635941D01*
X155340095Y-94670855D01*
X155282842Y-94717842D01*
X155235855Y-94775095D01*
X155200941Y-94840415D01*
X155179441Y-94911291D01*
X155172181Y-94985000D01*
X155172181Y-95435000D01*
X155179441Y-95508709D01*
X155200941Y-95579585D01*
X155235855Y-95644905D01*
X155282842Y-95702158D01*
X155325517Y-95737181D01*
X155238750Y-95737181D01*
X155122365Y-95748644D01*
X155010453Y-95782592D01*
X154907314Y-95837721D01*
X154816912Y-95911912D01*
X154742721Y-96002314D01*
X154687592Y-96105453D01*
X154653644Y-96217365D01*
X154642181Y-96333750D01*
X154642181Y-96780812D01*
X154300193Y-97122800D01*
X151667306Y-97122800D01*
X151682408Y-97094547D01*
X151716356Y-96982635D01*
X151727819Y-96866250D01*
X151727819Y-96611688D01*
X152511689Y-95827819D01*
X152825000Y-95827819D01*
X152898709Y-95820559D01*
X152969585Y-95799059D01*
X153034905Y-95764145D01*
X153092158Y-95717158D01*
X153139145Y-95659905D01*
X153174059Y-95594585D01*
X153195559Y-95523709D01*
X153202819Y-95450000D01*
X153202819Y-95000000D01*
X153195559Y-94926291D01*
X153174059Y-94855415D01*
X153139145Y-94790095D01*
X153092158Y-94732842D01*
X153034905Y-94685855D01*
X152969585Y-94650941D01*
X152898709Y-94629441D01*
X152825000Y-94622181D01*
X152125000Y-94622181D01*
X152051291Y-94629441D01*
X151980415Y-94650941D01*
X151915095Y-94685855D01*
X151857842Y-94732842D01*
X151810855Y-94790095D01*
X151775941Y-94855415D01*
X151754441Y-94926291D01*
X151747181Y-95000000D01*
X151747181Y-95313311D01*
X151281558Y-95778934D01*
X151247635Y-95768644D01*
X151131250Y-95757181D01*
X150693750Y-95757181D01*
X150577365Y-95768644D01*
X150465453Y-95802592D01*
X150362314Y-95857721D01*
X150271912Y-95931912D01*
X150197721Y-96022314D01*
X150142592Y-96125453D01*
X150108644Y-96237365D01*
X150097181Y-96353750D01*
X150097181Y-96775811D01*
X149654653Y-97218339D01*
X149631003Y-97205698D01*
X149548402Y-97180642D01*
X149462500Y-97172181D01*
X148902819Y-97172181D01*
X148902819Y-96738359D01*
X148952810Y-96677444D01*
X148994800Y-96598887D01*
X149020657Y-96513647D01*
X149027200Y-96447215D01*
X149027200Y-96447206D01*
X149029387Y-96425001D01*
X149027200Y-96402796D01*
X149027200Y-95497212D01*
X149029388Y-95474999D01*
X149026926Y-95450000D01*
X149020657Y-95386353D01*
X148994800Y-95301113D01*
X148952810Y-95222556D01*
X148936585Y-95202786D01*
X148916096Y-95177819D01*
X149375000Y-95177819D01*
X149448709Y-95170559D01*
X149519585Y-95149059D01*
X149584905Y-95114145D01*
X149642158Y-95067158D01*
X149689145Y-95009905D01*
X149724059Y-94944585D01*
X149745559Y-94873709D01*
X149750000Y-94828621D01*
X149754441Y-94873709D01*
X149775941Y-94944585D01*
X149810855Y-95009905D01*
X149857842Y-95067158D01*
X149915095Y-95114145D01*
X149980415Y-95149059D01*
X150051291Y-95170559D01*
X150125000Y-95177819D01*
X150825000Y-95177819D01*
X150898709Y-95170559D01*
X150969585Y-95149059D01*
X151034905Y-95114145D01*
X151092158Y-95067158D01*
X151139145Y-95009905D01*
X151174059Y-94944585D01*
X151195559Y-94873709D01*
X151202819Y-94800000D01*
X151202819Y-94350000D01*
X151195559Y-94276291D01*
X151174059Y-94205415D01*
X151139145Y-94140095D01*
X151092158Y-94082842D01*
X151034905Y-94035855D01*
X151006000Y-94020405D01*
X151006000Y-92643184D01*
X151027611Y-92638885D01*
X151250729Y-92546467D01*
X151451529Y-92412296D01*
X151622296Y-92241529D01*
X151756467Y-92040729D01*
X151848885Y-91817611D01*
X151896000Y-91580750D01*
X151896000Y-91339250D01*
X151848885Y-91102389D01*
X151756467Y-90879271D01*
X151622296Y-90678471D01*
X151451529Y-90507704D01*
X151346933Y-90437815D01*
X152535564Y-90436146D01*
X152428471Y-90507704D01*
X152257704Y-90678471D01*
X152123533Y-90879271D01*
X152031115Y-91102389D01*
X151984000Y-91339250D01*
X151984000Y-91580750D01*
X152031115Y-91817611D01*
X152123533Y-92040729D01*
X152257704Y-92241529D01*
X152428471Y-92412296D01*
X152629271Y-92546467D01*
X152852389Y-92638885D01*
X153089250Y-92686000D01*
X153330750Y-92686000D01*
X153369001Y-92678391D01*
X153369000Y-94005405D01*
X153340095Y-94020855D01*
X153282842Y-94067842D01*
X153235855Y-94125095D01*
X153200941Y-94190415D01*
X153179441Y-94261291D01*
X153172181Y-94335000D01*
X153172181Y-94785000D01*
X153179441Y-94858709D01*
X153200941Y-94929585D01*
X153235855Y-94994905D01*
X153282842Y-95052158D01*
X153340095Y-95099145D01*
X153405415Y-95134059D01*
X153476291Y-95155559D01*
X153550000Y-95162819D01*
X154250000Y-95162819D01*
X154323709Y-95155559D01*
X154394585Y-95134059D01*
X154459905Y-95099145D01*
X154517158Y-95052158D01*
X154564145Y-94994905D01*
X154599059Y-94929585D01*
X154620559Y-94858709D01*
X154627819Y-94785000D01*
X154627819Y-94335000D01*
X154620559Y-94261291D01*
X154599059Y-94190415D01*
X154564145Y-94125095D01*
X154517158Y-94067842D01*
X154459905Y-94020855D01*
X154431000Y-94005405D01*
X154431000Y-92176073D01*
X154433568Y-92149999D01*
X154431000Y-92123925D01*
X154431000Y-92123916D01*
X154423317Y-92045906D01*
X154392953Y-91945812D01*
X154360743Y-91885552D01*
X154388885Y-91817611D01*
X154436000Y-91580750D01*
X154436000Y-91339250D01*
X154388885Y-91102389D01*
X154296467Y-90879271D01*
X154162296Y-90678471D01*
X153991529Y-90507704D01*
X153881609Y-90434257D01*
X155080910Y-90432574D01*
X154968471Y-90507704D01*
X154797704Y-90678471D01*
X154663533Y-90879271D01*
X154571115Y-91102389D01*
X154524000Y-91339250D01*
X154524000Y-91580750D01*
X154571115Y-91817611D01*
X154663533Y-92040729D01*
X154797704Y-92241529D01*
X154968471Y-92412296D01*
X155169271Y-92546467D01*
X155392389Y-92638885D01*
X155629250Y-92686000D01*
X155870750Y-92686000D01*
X156107611Y-92638885D01*
X156157340Y-92618287D01*
X157021088Y-93482036D01*
X157037710Y-93502290D01*
X157057964Y-93518912D01*
X157057970Y-93518918D01*
X157118564Y-93568646D01*
X157184146Y-93603700D01*
X157210812Y-93617953D01*
X157310906Y-93648317D01*
X157388916Y-93656000D01*
X157388926Y-93656000D01*
X157415000Y-93658568D01*
X157441074Y-93656000D01*
X160271629Y-93656000D01*
X160305415Y-93674059D01*
X160376291Y-93695559D01*
X160450000Y-93702819D01*
X161150000Y-93702819D01*
X161223709Y-93695559D01*
X161294585Y-93674059D01*
X161359905Y-93639145D01*
X161417158Y-93592158D01*
X161464145Y-93534905D01*
X161499059Y-93469585D01*
X161520559Y-93398709D01*
X161527819Y-93325000D01*
X161527819Y-93142326D01*
X162072181Y-93686689D01*
X162072181Y-93975000D01*
X162079441Y-94048709D01*
X162100941Y-94119585D01*
X162135855Y-94184905D01*
X162182842Y-94242158D01*
X162240095Y-94289145D01*
X162305415Y-94324059D01*
X162354429Y-94338927D01*
X162380200Y-94423886D01*
X162422191Y-94502444D01*
X162443016Y-94527819D01*
X162478700Y-94571301D01*
X162495000Y-94584678D01*
X162495000Y-94637050D01*
X162519211Y-94758764D01*
X162566702Y-94873417D01*
X162635647Y-94976601D01*
X162723399Y-95064353D01*
X162826583Y-95133298D01*
X162941236Y-95180789D01*
X163062950Y-95205000D01*
X163187050Y-95205000D01*
X163308764Y-95180789D01*
X163423417Y-95133298D01*
X163526601Y-95064353D01*
X163614353Y-94976601D01*
X163683298Y-94873417D01*
X163730789Y-94758764D01*
X163755000Y-94637050D01*
X163755000Y-94512950D01*
X163730789Y-94391236D01*
X163683298Y-94276583D01*
X163614353Y-94173399D01*
X163526601Y-94085647D01*
X163512261Y-94076065D01*
X163520559Y-94048709D01*
X163527819Y-93975000D01*
X163527819Y-93525000D01*
X163520559Y-93451291D01*
X163499059Y-93380415D01*
X163464145Y-93315095D01*
X163417158Y-93257842D01*
X163359905Y-93210855D01*
X163294585Y-93175941D01*
X163223709Y-93154441D01*
X163150000Y-93147181D01*
X162811689Y-93147181D01*
X161541545Y-91877038D01*
X161411340Y-91746833D01*
X161428088Y-91733088D01*
X161502279Y-91642686D01*
X161557408Y-91539547D01*
X161591356Y-91427635D01*
X161602819Y-91311250D01*
X161602819Y-90798750D01*
X161591356Y-90682365D01*
X161557408Y-90570453D01*
X161502279Y-90467314D01*
X161466415Y-90423613D01*
X163332806Y-90420994D01*
X163368293Y-90417448D01*
X163362152Y-90426639D01*
G37*
X163362152Y-90426639D02*
X163277272Y-90631558D01*
X163234000Y-90849099D01*
X163234000Y-91070901D01*
X163277272Y-91288442D01*
X163362152Y-91493361D01*
X163485379Y-91677783D01*
X163642217Y-91834621D01*
X163826639Y-91957848D01*
X164031558Y-92042728D01*
X164249099Y-92086000D01*
X164470901Y-92086000D01*
X164688442Y-92042728D01*
X164893361Y-91957848D01*
X165031192Y-91865752D01*
X165015135Y-106148496D01*
X164908361Y-106077152D01*
X164703442Y-105992272D01*
X164485901Y-105949000D01*
X164264099Y-105949000D01*
X164046558Y-105992272D01*
X163841639Y-106077152D01*
X163657217Y-106200379D01*
X163500379Y-106357217D01*
X163377152Y-106541639D01*
X163292272Y-106746558D01*
X163249000Y-106964099D01*
X163249000Y-107185901D01*
X163292272Y-107403442D01*
X163377152Y-107608361D01*
X163500379Y-107792783D01*
X163509519Y-107801923D01*
X163488535Y-107795551D01*
X163422280Y-107789007D01*
X158877681Y-107787730D01*
X158880729Y-107786467D01*
X159081529Y-107652296D01*
X159252296Y-107481529D01*
X159386467Y-107280729D01*
X159478885Y-107057611D01*
X159526000Y-106820750D01*
X159526000Y-106579250D01*
X159478885Y-106342389D01*
X159386467Y-106119271D01*
X159252296Y-105918471D01*
X159081529Y-105747704D01*
X158880729Y-105613533D01*
X158657611Y-105521115D01*
X158420750Y-105474000D01*
X158179250Y-105474000D01*
X157942389Y-105521115D01*
X157719271Y-105613533D01*
X157518471Y-105747704D01*
X157347704Y-105918471D01*
X157213533Y-106119271D01*
X157121115Y-106342389D01*
X157074000Y-106579250D01*
X157074000Y-106820750D01*
X157121115Y-107057611D01*
X157194316Y-107234336D01*
X157052251Y-107376401D01*
X156782541Y-107376401D01*
X156846467Y-107280729D01*
X156938885Y-107057611D01*
X156986000Y-106820750D01*
X156986000Y-106579250D01*
X156938885Y-106342389D01*
X156846467Y-106119271D01*
X156712296Y-105918471D01*
X156541529Y-105747704D01*
X156340729Y-105613533D01*
X156117611Y-105521115D01*
X155880750Y-105474000D01*
X155639250Y-105474000D01*
X155402389Y-105521115D01*
X155179271Y-105613533D01*
X154978471Y-105747704D01*
X154807704Y-105918471D01*
X154673533Y-106119271D01*
X154581115Y-106342389D01*
X154534000Y-106579250D01*
X154534000Y-106820750D01*
X154581115Y-107057611D01*
X154673533Y-107280729D01*
X154737459Y-107376401D01*
X154242541Y-107376401D01*
X154306467Y-107280729D01*
X154398885Y-107057611D01*
X154446000Y-106820750D01*
X154446000Y-106579250D01*
X154398885Y-106342389D01*
X154306467Y-106119271D01*
X154172296Y-105918471D01*
X154001529Y-105747704D01*
X153800729Y-105613533D01*
X153577611Y-105521115D01*
X153340750Y-105474000D01*
X153099250Y-105474000D01*
X152862389Y-105521115D01*
X152639271Y-105613533D01*
X152438471Y-105747704D01*
X152267704Y-105918471D01*
X152133533Y-106119271D01*
X152041115Y-106342389D01*
X151994000Y-106579250D01*
X151994000Y-106820750D01*
X152041115Y-107057611D01*
X152133533Y-107280729D01*
X152197459Y-107376401D01*
X151702541Y-107376401D01*
X151766467Y-107280729D01*
X151858885Y-107057611D01*
X151906000Y-106820750D01*
X151906000Y-106579250D01*
X151858885Y-106342389D01*
X151766467Y-106119271D01*
X151632296Y-105918471D01*
X151461529Y-105747704D01*
X151260729Y-105613533D01*
X151037611Y-105521115D01*
X150800750Y-105474000D01*
X150559250Y-105474000D01*
X150322389Y-105521115D01*
X150099271Y-105613533D01*
X149898471Y-105747704D01*
X149727704Y-105918471D01*
X149593533Y-106119271D01*
X149501115Y-106342389D01*
X149454000Y-106579250D01*
X149454000Y-106820750D01*
X149501115Y-107057611D01*
X149593533Y-107280729D01*
X149657459Y-107376401D01*
X149162541Y-107376401D01*
X149226467Y-107280729D01*
X149318885Y-107057611D01*
X149366000Y-106820750D01*
X149366000Y-106579250D01*
X149318885Y-106342389D01*
X149226467Y-106119271D01*
X149092296Y-105918471D01*
X148921529Y-105747704D01*
X148720729Y-105613533D01*
X148497611Y-105521115D01*
X148260750Y-105474000D01*
X148019250Y-105474000D01*
X147782389Y-105521115D01*
X147559271Y-105613533D01*
X147358471Y-105747704D01*
X147328215Y-105777960D01*
X146892453Y-105342197D01*
X146901583Y-105348298D01*
X147016236Y-105395789D01*
X147137950Y-105420000D01*
X147262050Y-105420000D01*
X147383764Y-105395789D01*
X147498417Y-105348298D01*
X147601601Y-105279353D01*
X147689353Y-105191601D01*
X147758298Y-105088417D01*
X147805789Y-104973764D01*
X147830000Y-104852050D01*
X147830000Y-104727950D01*
X147805789Y-104606236D01*
X147779281Y-104542239D01*
X147828612Y-104482128D01*
X147869302Y-104406003D01*
X147894358Y-104323402D01*
X147900000Y-104266120D01*
X147905642Y-104323402D01*
X147930698Y-104406003D01*
X147971388Y-104482128D01*
X148026147Y-104548853D01*
X148092872Y-104603612D01*
X148168997Y-104644302D01*
X148251598Y-104669358D01*
X148337500Y-104677819D01*
X148462500Y-104677819D01*
X148548402Y-104669358D01*
X148631003Y-104644302D01*
X148707128Y-104603612D01*
X148773853Y-104548853D01*
X148828612Y-104482128D01*
X148869302Y-104406003D01*
X148894358Y-104323402D01*
X148901598Y-104249899D01*
X148951583Y-104283298D01*
X149066236Y-104330789D01*
X149187950Y-104355000D01*
X149312050Y-104355000D01*
X149433764Y-104330789D01*
X149548417Y-104283298D01*
X149651601Y-104214353D01*
X149739353Y-104126601D01*
X149808298Y-104023417D01*
X149855789Y-103908764D01*
X149880000Y-103787050D01*
X149880000Y-103662950D01*
X149872889Y-103627200D01*
X150815193Y-103627200D01*
X151222181Y-104034189D01*
X151222181Y-104426250D01*
X151233644Y-104542635D01*
X151267592Y-104654547D01*
X151322721Y-104757686D01*
X151396912Y-104848088D01*
X151487314Y-104922279D01*
X151590453Y-104977408D01*
X151702365Y-105011356D01*
X151818750Y-105022819D01*
X152256250Y-105022819D01*
X152372635Y-105011356D01*
X152484547Y-104977408D01*
X152587686Y-104922279D01*
X152678088Y-104848088D01*
X152732052Y-104782333D01*
X152781912Y-104843088D01*
X152872314Y-104917279D01*
X152975453Y-104972408D01*
X153087365Y-105006356D01*
X153203750Y-105017819D01*
X153641250Y-105017819D01*
X153757635Y-105006356D01*
X153869547Y-104972408D01*
X153972686Y-104917279D01*
X154063088Y-104843088D01*
X154137279Y-104752686D01*
X154192408Y-104649547D01*
X154226356Y-104537635D01*
X154237819Y-104421250D01*
X154237819Y-104205000D01*
X154312050Y-104205000D01*
X154433764Y-104180789D01*
X154548417Y-104133298D01*
X154651601Y-104064353D01*
X154739353Y-103976601D01*
X154808298Y-103873417D01*
X154855789Y-103758764D01*
X154880000Y-103637050D01*
X154880000Y-103512950D01*
X154855789Y-103391236D01*
X154808298Y-103276583D01*
X154739353Y-103173399D01*
X154651601Y-103085647D01*
X154548417Y-103016702D01*
X154433764Y-102969211D01*
X154312050Y-102945000D01*
X154187950Y-102945000D01*
X154066236Y-102969211D01*
X153951583Y-103016702D01*
X153848399Y-103085647D01*
X153768323Y-103165723D01*
X153705105Y-103217605D01*
X153689356Y-103236795D01*
X153613970Y-103312181D01*
X153203750Y-103312181D01*
X153087365Y-103323644D01*
X152975453Y-103357592D01*
X152872314Y-103412721D01*
X152781912Y-103486912D01*
X152727948Y-103552667D01*
X152678088Y-103491912D01*
X152587686Y-103417721D01*
X152484547Y-103362592D01*
X152372635Y-103328644D01*
X152256250Y-103317181D01*
X151818750Y-103317181D01*
X151787287Y-103320280D01*
X151337965Y-102870958D01*
X151323801Y-102853699D01*
X151254944Y-102797190D01*
X151176387Y-102755200D01*
X151091147Y-102729343D01*
X151024715Y-102722800D01*
X151024713Y-102722800D01*
X151002500Y-102720612D01*
X150980287Y-102722800D01*
X149902819Y-102722800D01*
X149902819Y-102612500D01*
X149894358Y-102526598D01*
X149869302Y-102443997D01*
X149859148Y-102425000D01*
X149869302Y-102406003D01*
X149894358Y-102323402D01*
X149902819Y-102237500D01*
X149902819Y-102112500D01*
X149894358Y-102026598D01*
X149869302Y-101943997D01*
X149859148Y-101925000D01*
X149869302Y-101906003D01*
X149894358Y-101823402D01*
X149902819Y-101737500D01*
X149902819Y-101698599D01*
X151597181Y-101698599D01*
X151597181Y-102375000D01*
X151604441Y-102448709D01*
X151625941Y-102519585D01*
X151660855Y-102584905D01*
X151707842Y-102642158D01*
X151765095Y-102689145D01*
X151830415Y-102724059D01*
X151901291Y-102745559D01*
X151975000Y-102752819D01*
X152775000Y-102752819D01*
X152848709Y-102745559D01*
X152919585Y-102724059D01*
X152925000Y-102721165D01*
X152930415Y-102724059D01*
X153001291Y-102745559D01*
X153075000Y-102752819D01*
X153875000Y-102752819D01*
X153948709Y-102745559D01*
X154019585Y-102724059D01*
X154084905Y-102689145D01*
X154142158Y-102642158D01*
X154189145Y-102584905D01*
X154191827Y-102579887D01*
X154222721Y-102637686D01*
X154296912Y-102728088D01*
X154387314Y-102802279D01*
X154490453Y-102857408D01*
X154602365Y-102891356D01*
X154718750Y-102902819D01*
X155231250Y-102902819D01*
X155347635Y-102891356D01*
X155459547Y-102857408D01*
X155562686Y-102802279D01*
X155653088Y-102728088D01*
X155727279Y-102637686D01*
X155782408Y-102534547D01*
X155786720Y-102520333D01*
X155822721Y-102587686D01*
X155896912Y-102678088D01*
X155987314Y-102752279D01*
X156090453Y-102807408D01*
X156202365Y-102841356D01*
X156318750Y-102852819D01*
X156760811Y-102852819D01*
X157138427Y-103230435D01*
X157152589Y-103247691D01*
X157169842Y-103261850D01*
X157169844Y-103261852D01*
X157221446Y-103304200D01*
X157300003Y-103346190D01*
X157385243Y-103372047D01*
X157473890Y-103380778D01*
X157496105Y-103378590D01*
X158741483Y-103378590D01*
X158808162Y-103445269D01*
X158792842Y-103457842D01*
X158745855Y-103515095D01*
X158710941Y-103580415D01*
X158689441Y-103651291D01*
X158682181Y-103725000D01*
X158682181Y-104375000D01*
X158689441Y-104448709D01*
X158710941Y-104519585D01*
X158745855Y-104584905D01*
X158792842Y-104642158D01*
X158850095Y-104689145D01*
X158915415Y-104724059D01*
X158986291Y-104745559D01*
X159060000Y-104752819D01*
X160120000Y-104752819D01*
X160193709Y-104745559D01*
X160264585Y-104724059D01*
X160329905Y-104689145D01*
X160387158Y-104642158D01*
X160434145Y-104584905D01*
X160469059Y-104519585D01*
X160490559Y-104448709D01*
X160497819Y-104375000D01*
X160497819Y-103725000D01*
X160882181Y-103725000D01*
X160882181Y-104375000D01*
X160889441Y-104448709D01*
X160910941Y-104519585D01*
X160945855Y-104584905D01*
X160992842Y-104642158D01*
X161050095Y-104689145D01*
X161115415Y-104724059D01*
X161186291Y-104745559D01*
X161260000Y-104752819D01*
X161513312Y-104752819D01*
X161745000Y-104984507D01*
X161745000Y-105037050D01*
X161769211Y-105158764D01*
X161816702Y-105273417D01*
X161885647Y-105376601D01*
X161973399Y-105464353D01*
X162076583Y-105533298D01*
X162191236Y-105580789D01*
X162312950Y-105605000D01*
X162437050Y-105605000D01*
X162558764Y-105580789D01*
X162673417Y-105533298D01*
X162776601Y-105464353D01*
X162864353Y-105376601D01*
X162933298Y-105273417D01*
X162980789Y-105158764D01*
X163005000Y-105037050D01*
X163005000Y-104912950D01*
X162980789Y-104791236D01*
X162933298Y-104676583D01*
X162864353Y-104573399D01*
X162776601Y-104485647D01*
X162692458Y-104429425D01*
X162697819Y-104375000D01*
X162697819Y-103725000D01*
X162690559Y-103651291D01*
X162669059Y-103580415D01*
X162634145Y-103515095D01*
X162587158Y-103457842D01*
X162529905Y-103410855D01*
X162464585Y-103375941D01*
X162393709Y-103354441D01*
X162320000Y-103347181D01*
X161260000Y-103347181D01*
X161186291Y-103354441D01*
X161115415Y-103375941D01*
X161050095Y-103410855D01*
X160992842Y-103457842D01*
X160945855Y-103515095D01*
X160910941Y-103580415D01*
X160889441Y-103651291D01*
X160882181Y-103725000D01*
X160497819Y-103725000D01*
X160490559Y-103651291D01*
X160469059Y-103580415D01*
X160434145Y-103515095D01*
X160387158Y-103457842D01*
X160329905Y-103410855D01*
X160264585Y-103375941D01*
X160193709Y-103354441D01*
X160120000Y-103347181D01*
X159971910Y-103347181D01*
X159962810Y-103330156D01*
X159939734Y-103302038D01*
X159920462Y-103278554D01*
X159920460Y-103278552D01*
X159906301Y-103261299D01*
X159889049Y-103247141D01*
X159494726Y-102852819D01*
X160120000Y-102852819D01*
X160193709Y-102845559D01*
X160264585Y-102824059D01*
X160329905Y-102789145D01*
X160353770Y-102769559D01*
X160441236Y-102805789D01*
X160562950Y-102830000D01*
X160687050Y-102830000D01*
X160808764Y-102805789D01*
X160923417Y-102758298D01*
X160976809Y-102722623D01*
X160992842Y-102742158D01*
X161050095Y-102789145D01*
X161115415Y-102824059D01*
X161186291Y-102845559D01*
X161260000Y-102852819D01*
X162320000Y-102852819D01*
X162393709Y-102845559D01*
X162464585Y-102824059D01*
X162529905Y-102789145D01*
X162587158Y-102742158D01*
X162634145Y-102684905D01*
X162648001Y-102658982D01*
X162737314Y-102732279D01*
X162840453Y-102787408D01*
X162952365Y-102821356D01*
X163068750Y-102832819D01*
X163581250Y-102832819D01*
X163697635Y-102821356D01*
X163809547Y-102787408D01*
X163912686Y-102732279D01*
X164003088Y-102658088D01*
X164077279Y-102567686D01*
X164132408Y-102464547D01*
X164166356Y-102352635D01*
X164177819Y-102236250D01*
X164177819Y-101798750D01*
X164166356Y-101682365D01*
X164132408Y-101570453D01*
X164077279Y-101467314D01*
X164003088Y-101376912D01*
X163912686Y-101302721D01*
X163809547Y-101247592D01*
X163697635Y-101213644D01*
X163581250Y-101202181D01*
X163068750Y-101202181D01*
X162952365Y-101213644D01*
X162840453Y-101247592D01*
X162803626Y-101267276D01*
X160902507Y-99366158D01*
X160915756Y-99322482D01*
X160927819Y-99200001D01*
X160927819Y-98499999D01*
X160915756Y-98377518D01*
X160885325Y-98277200D01*
X162486246Y-98277200D01*
X162523399Y-98314353D01*
X162626583Y-98383298D01*
X162741236Y-98430789D01*
X162862950Y-98455000D01*
X162987050Y-98455000D01*
X163108764Y-98430789D01*
X163223417Y-98383298D01*
X163326601Y-98314353D01*
X163414353Y-98226601D01*
X163483298Y-98123417D01*
X163530789Y-98008764D01*
X163555000Y-97887050D01*
X163555000Y-97762950D01*
X163530789Y-97641236D01*
X163483298Y-97526583D01*
X163414353Y-97423399D01*
X163326601Y-97335647D01*
X163223417Y-97266702D01*
X163108764Y-97219211D01*
X162987050Y-97195000D01*
X162862950Y-97195000D01*
X162741236Y-97219211D01*
X162626583Y-97266702D01*
X162523399Y-97335647D01*
X162486246Y-97372800D01*
X158612307Y-97372800D01*
X158230000Y-96990493D01*
X158230000Y-96937950D01*
X158205789Y-96816236D01*
X158158298Y-96701583D01*
X158089353Y-96598399D01*
X158001601Y-96510647D01*
X157898417Y-96441702D01*
X157783764Y-96394211D01*
X157662050Y-96370000D01*
X157537950Y-96370000D01*
X157416236Y-96394211D01*
X157301583Y-96441702D01*
X157198399Y-96510647D01*
X157110647Y-96598399D01*
X157041702Y-96701583D01*
X156994211Y-96816236D01*
X156970000Y-96937950D01*
X156970000Y-97062050D01*
X156994211Y-97183764D01*
X156997697Y-97192181D01*
X156300000Y-97192181D01*
X156226291Y-97199441D01*
X156155415Y-97220941D01*
X156122219Y-97238685D01*
X156172279Y-97177686D01*
X156227408Y-97074547D01*
X156261356Y-96962635D01*
X156272819Y-96846250D01*
X156272819Y-96421026D01*
X156277810Y-96414944D01*
X156319800Y-96336387D01*
X156345657Y-96251147D01*
X156352200Y-96184715D01*
X156352200Y-96184706D01*
X156354387Y-96162501D01*
X156352200Y-96140296D01*
X156352200Y-95796916D01*
X156394585Y-95784059D01*
X156459905Y-95749145D01*
X156517158Y-95702158D01*
X156564145Y-95644905D01*
X156599059Y-95579585D01*
X156620559Y-95508709D01*
X156627819Y-95435000D01*
X156627819Y-94985000D01*
X156620559Y-94911291D01*
X156599059Y-94840415D01*
X156564145Y-94775095D01*
X156517158Y-94717842D01*
X156459905Y-94670855D01*
X156394585Y-94635941D01*
X156323709Y-94614441D01*
X156250000Y-94607181D01*
X155550000Y-94607181D01*
X155476291Y-94614441D01*
X155405415Y-94635941D01*
X155340095Y-94670855D01*
X155282842Y-94717842D01*
X155235855Y-94775095D01*
X155200941Y-94840415D01*
X155179441Y-94911291D01*
X155172181Y-94985000D01*
X155172181Y-95435000D01*
X155179441Y-95508709D01*
X155200941Y-95579585D01*
X155235855Y-95644905D01*
X155282842Y-95702158D01*
X155325517Y-95737181D01*
X155238750Y-95737181D01*
X155122365Y-95748644D01*
X155010453Y-95782592D01*
X154907314Y-95837721D01*
X154816912Y-95911912D01*
X154742721Y-96002314D01*
X154687592Y-96105453D01*
X154653644Y-96217365D01*
X154642181Y-96333750D01*
X154642181Y-96780812D01*
X154300193Y-97122800D01*
X151667306Y-97122800D01*
X151682408Y-97094547D01*
X151716356Y-96982635D01*
X151727819Y-96866250D01*
X151727819Y-96611688D01*
X152511689Y-95827819D01*
X152825000Y-95827819D01*
X152898709Y-95820559D01*
X152969585Y-95799059D01*
X153034905Y-95764145D01*
X153092158Y-95717158D01*
X153139145Y-95659905D01*
X153174059Y-95594585D01*
X153195559Y-95523709D01*
X153202819Y-95450000D01*
X153202819Y-95000000D01*
X153195559Y-94926291D01*
X153174059Y-94855415D01*
X153139145Y-94790095D01*
X153092158Y-94732842D01*
X153034905Y-94685855D01*
X152969585Y-94650941D01*
X152898709Y-94629441D01*
X152825000Y-94622181D01*
X152125000Y-94622181D01*
X152051291Y-94629441D01*
X151980415Y-94650941D01*
X151915095Y-94685855D01*
X151857842Y-94732842D01*
X151810855Y-94790095D01*
X151775941Y-94855415D01*
X151754441Y-94926291D01*
X151747181Y-95000000D01*
X151747181Y-95313311D01*
X151281558Y-95778934D01*
X151247635Y-95768644D01*
X151131250Y-95757181D01*
X150693750Y-95757181D01*
X150577365Y-95768644D01*
X150465453Y-95802592D01*
X150362314Y-95857721D01*
X150271912Y-95931912D01*
X150197721Y-96022314D01*
X150142592Y-96125453D01*
X150108644Y-96237365D01*
X150097181Y-96353750D01*
X150097181Y-96775811D01*
X149654653Y-97218339D01*
X149631003Y-97205698D01*
X149548402Y-97180642D01*
X149462500Y-97172181D01*
X148902819Y-97172181D01*
X148902819Y-96738359D01*
X148952810Y-96677444D01*
X148994800Y-96598887D01*
X149020657Y-96513647D01*
X149027200Y-96447215D01*
X149027200Y-96447206D01*
X149029387Y-96425001D01*
X149027200Y-96402796D01*
X149027200Y-95497212D01*
X149029388Y-95474999D01*
X149026926Y-95450000D01*
X149020657Y-95386353D01*
X148994800Y-95301113D01*
X148952810Y-95222556D01*
X148936585Y-95202786D01*
X148916096Y-95177819D01*
X149375000Y-95177819D01*
X149448709Y-95170559D01*
X149519585Y-95149059D01*
X149584905Y-95114145D01*
X149642158Y-95067158D01*
X149689145Y-95009905D01*
X149724059Y-94944585D01*
X149745559Y-94873709D01*
X149750000Y-94828621D01*
X149754441Y-94873709D01*
X149775941Y-94944585D01*
X149810855Y-95009905D01*
X149857842Y-95067158D01*
X149915095Y-95114145D01*
X149980415Y-95149059D01*
X150051291Y-95170559D01*
X150125000Y-95177819D01*
X150825000Y-95177819D01*
X150898709Y-95170559D01*
X150969585Y-95149059D01*
X151034905Y-95114145D01*
X151092158Y-95067158D01*
X151139145Y-95009905D01*
X151174059Y-94944585D01*
X151195559Y-94873709D01*
X151202819Y-94800000D01*
X151202819Y-94350000D01*
X151195559Y-94276291D01*
X151174059Y-94205415D01*
X151139145Y-94140095D01*
X151092158Y-94082842D01*
X151034905Y-94035855D01*
X151006000Y-94020405D01*
X151006000Y-92643184D01*
X151027611Y-92638885D01*
X151250729Y-92546467D01*
X151451529Y-92412296D01*
X151622296Y-92241529D01*
X151756467Y-92040729D01*
X151848885Y-91817611D01*
X151896000Y-91580750D01*
X151896000Y-91339250D01*
X151848885Y-91102389D01*
X151756467Y-90879271D01*
X151622296Y-90678471D01*
X151451529Y-90507704D01*
X151346933Y-90437815D01*
X152535564Y-90436146D01*
X152428471Y-90507704D01*
X152257704Y-90678471D01*
X152123533Y-90879271D01*
X152031115Y-91102389D01*
X151984000Y-91339250D01*
X151984000Y-91580750D01*
X152031115Y-91817611D01*
X152123533Y-92040729D01*
X152257704Y-92241529D01*
X152428471Y-92412296D01*
X152629271Y-92546467D01*
X152852389Y-92638885D01*
X153089250Y-92686000D01*
X153330750Y-92686000D01*
X153369001Y-92678391D01*
X153369000Y-94005405D01*
X153340095Y-94020855D01*
X153282842Y-94067842D01*
X153235855Y-94125095D01*
X153200941Y-94190415D01*
X153179441Y-94261291D01*
X153172181Y-94335000D01*
X153172181Y-94785000D01*
X153179441Y-94858709D01*
X153200941Y-94929585D01*
X153235855Y-94994905D01*
X153282842Y-95052158D01*
X153340095Y-95099145D01*
X153405415Y-95134059D01*
X153476291Y-95155559D01*
X153550000Y-95162819D01*
X154250000Y-95162819D01*
X154323709Y-95155559D01*
X154394585Y-95134059D01*
X154459905Y-95099145D01*
X154517158Y-95052158D01*
X154564145Y-94994905D01*
X154599059Y-94929585D01*
X154620559Y-94858709D01*
X154627819Y-94785000D01*
X154627819Y-94335000D01*
X154620559Y-94261291D01*
X154599059Y-94190415D01*
X154564145Y-94125095D01*
X154517158Y-94067842D01*
X154459905Y-94020855D01*
X154431000Y-94005405D01*
X154431000Y-92176073D01*
X154433568Y-92149999D01*
X154431000Y-92123925D01*
X154431000Y-92123916D01*
X154423317Y-92045906D01*
X154392953Y-91945812D01*
X154360743Y-91885552D01*
X154388885Y-91817611D01*
X154436000Y-91580750D01*
X154436000Y-91339250D01*
X154388885Y-91102389D01*
X154296467Y-90879271D01*
X154162296Y-90678471D01*
X153991529Y-90507704D01*
X153881609Y-90434257D01*
X155080910Y-90432574D01*
X154968471Y-90507704D01*
X154797704Y-90678471D01*
X154663533Y-90879271D01*
X154571115Y-91102389D01*
X154524000Y-91339250D01*
X154524000Y-91580750D01*
X154571115Y-91817611D01*
X154663533Y-92040729D01*
X154797704Y-92241529D01*
X154968471Y-92412296D01*
X155169271Y-92546467D01*
X155392389Y-92638885D01*
X155629250Y-92686000D01*
X155870750Y-92686000D01*
X156107611Y-92638885D01*
X156157340Y-92618287D01*
X157021088Y-93482036D01*
X157037710Y-93502290D01*
X157057964Y-93518912D01*
X157057970Y-93518918D01*
X157118564Y-93568646D01*
X157184146Y-93603700D01*
X157210812Y-93617953D01*
X157310906Y-93648317D01*
X157388916Y-93656000D01*
X157388926Y-93656000D01*
X157415000Y-93658568D01*
X157441074Y-93656000D01*
X160271629Y-93656000D01*
X160305415Y-93674059D01*
X160376291Y-93695559D01*
X160450000Y-93702819D01*
X161150000Y-93702819D01*
X161223709Y-93695559D01*
X161294585Y-93674059D01*
X161359905Y-93639145D01*
X161417158Y-93592158D01*
X161464145Y-93534905D01*
X161499059Y-93469585D01*
X161520559Y-93398709D01*
X161527819Y-93325000D01*
X161527819Y-93142326D01*
X162072181Y-93686689D01*
X162072181Y-93975000D01*
X162079441Y-94048709D01*
X162100941Y-94119585D01*
X162135855Y-94184905D01*
X162182842Y-94242158D01*
X162240095Y-94289145D01*
X162305415Y-94324059D01*
X162354429Y-94338927D01*
X162380200Y-94423886D01*
X162422191Y-94502444D01*
X162443016Y-94527819D01*
X162478700Y-94571301D01*
X162495000Y-94584678D01*
X162495000Y-94637050D01*
X162519211Y-94758764D01*
X162566702Y-94873417D01*
X162635647Y-94976601D01*
X162723399Y-95064353D01*
X162826583Y-95133298D01*
X162941236Y-95180789D01*
X163062950Y-95205000D01*
X163187050Y-95205000D01*
X163308764Y-95180789D01*
X163423417Y-95133298D01*
X163526601Y-95064353D01*
X163614353Y-94976601D01*
X163683298Y-94873417D01*
X163730789Y-94758764D01*
X163755000Y-94637050D01*
X163755000Y-94512950D01*
X163730789Y-94391236D01*
X163683298Y-94276583D01*
X163614353Y-94173399D01*
X163526601Y-94085647D01*
X163512261Y-94076065D01*
X163520559Y-94048709D01*
X163527819Y-93975000D01*
X163527819Y-93525000D01*
X163520559Y-93451291D01*
X163499059Y-93380415D01*
X163464145Y-93315095D01*
X163417158Y-93257842D01*
X163359905Y-93210855D01*
X163294585Y-93175941D01*
X163223709Y-93154441D01*
X163150000Y-93147181D01*
X162811689Y-93147181D01*
X161541545Y-91877038D01*
X161411340Y-91746833D01*
X161428088Y-91733088D01*
X161502279Y-91642686D01*
X161557408Y-91539547D01*
X161591356Y-91427635D01*
X161602819Y-91311250D01*
X161602819Y-90798750D01*
X161591356Y-90682365D01*
X161557408Y-90570453D01*
X161502279Y-90467314D01*
X161466415Y-90423613D01*
X163332806Y-90420994D01*
X163368293Y-90417448D01*
X163362152Y-90426639D01*
G36*
X132428128Y-101540477D02*
G01*
X132443877Y-101559667D01*
X132520468Y-101622524D01*
X132607851Y-101669231D01*
X132702667Y-101697993D01*
X132776570Y-101705272D01*
X132776578Y-101705272D01*
X132801272Y-101707704D01*
X132825966Y-101705272D01*
X133381094Y-101705272D01*
X133377181Y-101745000D01*
X133377181Y-102645000D01*
X133384441Y-102718709D01*
X133405941Y-102789585D01*
X133440855Y-102854905D01*
X133472357Y-102893289D01*
X133416702Y-102976583D01*
X133369211Y-103091236D01*
X133345000Y-103212950D01*
X133345000Y-103337050D01*
X133369211Y-103458764D01*
X133416702Y-103573417D01*
X133485647Y-103676601D01*
X133551846Y-103742800D01*
X133433120Y-103742800D01*
X133432408Y-103740453D01*
X133377279Y-103637314D01*
X133303088Y-103546912D01*
X133212686Y-103472721D01*
X133109547Y-103417592D01*
X132997635Y-103383644D01*
X132881250Y-103372181D01*
X132368750Y-103372181D01*
X132252365Y-103383644D01*
X132140453Y-103417592D01*
X132037314Y-103472721D01*
X131946912Y-103546912D01*
X131872721Y-103637314D01*
X131817592Y-103740453D01*
X131783644Y-103852365D01*
X131772181Y-103968750D01*
X131772181Y-104406250D01*
X131783644Y-104522635D01*
X131817592Y-104634547D01*
X131872721Y-104737686D01*
X131946912Y-104828088D01*
X132037314Y-104902279D01*
X132140453Y-104957408D01*
X132252365Y-104991356D01*
X132368750Y-105002819D01*
X132881250Y-105002819D01*
X132997635Y-104991356D01*
X133109547Y-104957408D01*
X133212686Y-104902279D01*
X133303088Y-104828088D01*
X133377279Y-104737686D01*
X133425645Y-104647200D01*
X134327398Y-104647200D01*
X134334441Y-104718709D01*
X134355941Y-104789585D01*
X134390855Y-104854905D01*
X134437842Y-104912158D01*
X134495095Y-104959145D01*
X134560415Y-104994059D01*
X134631291Y-105015559D01*
X134705000Y-105022819D01*
X135505000Y-105022819D01*
X135578709Y-105015559D01*
X135649585Y-104994059D01*
X135714905Y-104959145D01*
X135772158Y-104912158D01*
X135819145Y-104854905D01*
X135854059Y-104789585D01*
X135875559Y-104718709D01*
X135882819Y-104645000D01*
X135882819Y-104009927D01*
X136074440Y-104201548D01*
X136088599Y-104218801D01*
X136105852Y-104232960D01*
X136105854Y-104232962D01*
X136157456Y-104275310D01*
X136236013Y-104317300D01*
X136321253Y-104343157D01*
X136324148Y-104343442D01*
X136298399Y-104360647D01*
X136210647Y-104448399D01*
X136141702Y-104551583D01*
X136094211Y-104666236D01*
X136070000Y-104787950D01*
X136070000Y-104912050D01*
X136094211Y-105033764D01*
X136141702Y-105148417D01*
X136210647Y-105251601D01*
X136298399Y-105339353D01*
X136401583Y-105408298D01*
X136516236Y-105455789D01*
X136637950Y-105480000D01*
X136701653Y-105480000D01*
X136776113Y-105519800D01*
X136861353Y-105545657D01*
X136927785Y-105552200D01*
X136927794Y-105552200D01*
X136949999Y-105554387D01*
X136972204Y-105552200D01*
X137547343Y-105552200D01*
X137399271Y-105613533D01*
X137198471Y-105747704D01*
X137027704Y-105918471D01*
X136893533Y-106119271D01*
X136801115Y-106342389D01*
X136754000Y-106579250D01*
X136754000Y-106820750D01*
X136801115Y-107057611D01*
X136893533Y-107280729D01*
X136957459Y-107376401D01*
X136462541Y-107376401D01*
X136526467Y-107280729D01*
X136618885Y-107057611D01*
X136666000Y-106820750D01*
X136666000Y-106579250D01*
X136618885Y-106342389D01*
X136526467Y-106119271D01*
X136392296Y-105918471D01*
X136221529Y-105747704D01*
X136020729Y-105613533D01*
X135797611Y-105521115D01*
X135560750Y-105474000D01*
X135319250Y-105474000D01*
X135082389Y-105521115D01*
X134859271Y-105613533D01*
X134658471Y-105747704D01*
X134487704Y-105918471D01*
X134353533Y-106119271D01*
X134261115Y-106342389D01*
X134214000Y-106579250D01*
X134214000Y-106820750D01*
X134261115Y-107057611D01*
X134353533Y-107280729D01*
X134417459Y-107376401D01*
X133922541Y-107376401D01*
X133986467Y-107280729D01*
X134078885Y-107057611D01*
X134126000Y-106820750D01*
X134126000Y-106579250D01*
X134078885Y-106342389D01*
X133986467Y-106119271D01*
X133852296Y-105918471D01*
X133681529Y-105747704D01*
X133480729Y-105613533D01*
X133257611Y-105521115D01*
X133020750Y-105474000D01*
X132779250Y-105474000D01*
X132542389Y-105521115D01*
X132319271Y-105613533D01*
X132118471Y-105747704D01*
X131947704Y-105918471D01*
X131813533Y-106119271D01*
X131721115Y-106342389D01*
X131674000Y-106579250D01*
X131674000Y-106820750D01*
X131721115Y-107057611D01*
X131813533Y-107280729D01*
X131875232Y-107373068D01*
X130082079Y-107373068D01*
X129627819Y-106918809D01*
X129627819Y-106483529D01*
X130208530Y-105902819D01*
X130825000Y-105902819D01*
X130898709Y-105895559D01*
X130969585Y-105874059D01*
X131034905Y-105839145D01*
X131092158Y-105792158D01*
X131139145Y-105734905D01*
X131174059Y-105669585D01*
X131195559Y-105598709D01*
X131202819Y-105525000D01*
X131202819Y-104525000D01*
X131195559Y-104451291D01*
X131174059Y-104380415D01*
X131139145Y-104315095D01*
X131092158Y-104257842D01*
X131034905Y-104210855D01*
X130969585Y-104175941D01*
X130898709Y-104154441D01*
X130825000Y-104147181D01*
X129825000Y-104147181D01*
X129751291Y-104154441D01*
X129680415Y-104175941D01*
X129641821Y-104196570D01*
X129650122Y-104169204D01*
X129657401Y-104095301D01*
X129657401Y-104095293D01*
X129659833Y-104070599D01*
X129657401Y-104045905D01*
X129657401Y-101115279D01*
X129691291Y-101125559D01*
X129765000Y-101132819D01*
X131415000Y-101132819D01*
X131488709Y-101125559D01*
X131559585Y-101104059D01*
X131624905Y-101069145D01*
X131682158Y-101022158D01*
X131729145Y-100964905D01*
X131764059Y-100899585D01*
X131769453Y-100881802D01*
X132428128Y-101540477D01*
G37*
X132428128Y-101540477D02*
X132443877Y-101559667D01*
X132520468Y-101622524D01*
X132607851Y-101669231D01*
X132702667Y-101697993D01*
X132776570Y-101705272D01*
X132776578Y-101705272D01*
X132801272Y-101707704D01*
X132825966Y-101705272D01*
X133381094Y-101705272D01*
X133377181Y-101745000D01*
X133377181Y-102645000D01*
X133384441Y-102718709D01*
X133405941Y-102789585D01*
X133440855Y-102854905D01*
X133472357Y-102893289D01*
X133416702Y-102976583D01*
X133369211Y-103091236D01*
X133345000Y-103212950D01*
X133345000Y-103337050D01*
X133369211Y-103458764D01*
X133416702Y-103573417D01*
X133485647Y-103676601D01*
X133551846Y-103742800D01*
X133433120Y-103742800D01*
X133432408Y-103740453D01*
X133377279Y-103637314D01*
X133303088Y-103546912D01*
X133212686Y-103472721D01*
X133109547Y-103417592D01*
X132997635Y-103383644D01*
X132881250Y-103372181D01*
X132368750Y-103372181D01*
X132252365Y-103383644D01*
X132140453Y-103417592D01*
X132037314Y-103472721D01*
X131946912Y-103546912D01*
X131872721Y-103637314D01*
X131817592Y-103740453D01*
X131783644Y-103852365D01*
X131772181Y-103968750D01*
X131772181Y-104406250D01*
X131783644Y-104522635D01*
X131817592Y-104634547D01*
X131872721Y-104737686D01*
X131946912Y-104828088D01*
X132037314Y-104902279D01*
X132140453Y-104957408D01*
X132252365Y-104991356D01*
X132368750Y-105002819D01*
X132881250Y-105002819D01*
X132997635Y-104991356D01*
X133109547Y-104957408D01*
X133212686Y-104902279D01*
X133303088Y-104828088D01*
X133377279Y-104737686D01*
X133425645Y-104647200D01*
X134327398Y-104647200D01*
X134334441Y-104718709D01*
X134355941Y-104789585D01*
X134390855Y-104854905D01*
X134437842Y-104912158D01*
X134495095Y-104959145D01*
X134560415Y-104994059D01*
X134631291Y-105015559D01*
X134705000Y-105022819D01*
X135505000Y-105022819D01*
X135578709Y-105015559D01*
X135649585Y-104994059D01*
X135714905Y-104959145D01*
X135772158Y-104912158D01*
X135819145Y-104854905D01*
X135854059Y-104789585D01*
X135875559Y-104718709D01*
X135882819Y-104645000D01*
X135882819Y-104009927D01*
X136074440Y-104201548D01*
X136088599Y-104218801D01*
X136105852Y-104232960D01*
X136105854Y-104232962D01*
X136157456Y-104275310D01*
X136236013Y-104317300D01*
X136321253Y-104343157D01*
X136324148Y-104343442D01*
X136298399Y-104360647D01*
X136210647Y-104448399D01*
X136141702Y-104551583D01*
X136094211Y-104666236D01*
X136070000Y-104787950D01*
X136070000Y-104912050D01*
X136094211Y-105033764D01*
X136141702Y-105148417D01*
X136210647Y-105251601D01*
X136298399Y-105339353D01*
X136401583Y-105408298D01*
X136516236Y-105455789D01*
X136637950Y-105480000D01*
X136701653Y-105480000D01*
X136776113Y-105519800D01*
X136861353Y-105545657D01*
X136927785Y-105552200D01*
X136927794Y-105552200D01*
X136949999Y-105554387D01*
X136972204Y-105552200D01*
X137547343Y-105552200D01*
X137399271Y-105613533D01*
X137198471Y-105747704D01*
X137027704Y-105918471D01*
X136893533Y-106119271D01*
X136801115Y-106342389D01*
X136754000Y-106579250D01*
X136754000Y-106820750D01*
X136801115Y-107057611D01*
X136893533Y-107280729D01*
X136957459Y-107376401D01*
X136462541Y-107376401D01*
X136526467Y-107280729D01*
X136618885Y-107057611D01*
X136666000Y-106820750D01*
X136666000Y-106579250D01*
X136618885Y-106342389D01*
X136526467Y-106119271D01*
X136392296Y-105918471D01*
X136221529Y-105747704D01*
X136020729Y-105613533D01*
X135797611Y-105521115D01*
X135560750Y-105474000D01*
X135319250Y-105474000D01*
X135082389Y-105521115D01*
X134859271Y-105613533D01*
X134658471Y-105747704D01*
X134487704Y-105918471D01*
X134353533Y-106119271D01*
X134261115Y-106342389D01*
X134214000Y-106579250D01*
X134214000Y-106820750D01*
X134261115Y-107057611D01*
X134353533Y-107280729D01*
X134417459Y-107376401D01*
X133922541Y-107376401D01*
X133986467Y-107280729D01*
X134078885Y-107057611D01*
X134126000Y-106820750D01*
X134126000Y-106579250D01*
X134078885Y-106342389D01*
X133986467Y-106119271D01*
X133852296Y-105918471D01*
X133681529Y-105747704D01*
X133480729Y-105613533D01*
X133257611Y-105521115D01*
X133020750Y-105474000D01*
X132779250Y-105474000D01*
X132542389Y-105521115D01*
X132319271Y-105613533D01*
X132118471Y-105747704D01*
X131947704Y-105918471D01*
X131813533Y-106119271D01*
X131721115Y-106342389D01*
X131674000Y-106579250D01*
X131674000Y-106820750D01*
X131721115Y-107057611D01*
X131813533Y-107280729D01*
X131875232Y-107373068D01*
X130082079Y-107373068D01*
X129627819Y-106918809D01*
X129627819Y-106483529D01*
X130208530Y-105902819D01*
X130825000Y-105902819D01*
X130898709Y-105895559D01*
X130969585Y-105874059D01*
X131034905Y-105839145D01*
X131092158Y-105792158D01*
X131139145Y-105734905D01*
X131174059Y-105669585D01*
X131195559Y-105598709D01*
X131202819Y-105525000D01*
X131202819Y-104525000D01*
X131195559Y-104451291D01*
X131174059Y-104380415D01*
X131139145Y-104315095D01*
X131092158Y-104257842D01*
X131034905Y-104210855D01*
X130969585Y-104175941D01*
X130898709Y-104154441D01*
X130825000Y-104147181D01*
X129825000Y-104147181D01*
X129751291Y-104154441D01*
X129680415Y-104175941D01*
X129641821Y-104196570D01*
X129650122Y-104169204D01*
X129657401Y-104095301D01*
X129657401Y-104095293D01*
X129659833Y-104070599D01*
X129657401Y-104045905D01*
X129657401Y-101115279D01*
X129691291Y-101125559D01*
X129765000Y-101132819D01*
X131415000Y-101132819D01*
X131488709Y-101125559D01*
X131559585Y-101104059D01*
X131624905Y-101069145D01*
X131682158Y-101022158D01*
X131729145Y-100964905D01*
X131764059Y-100899585D01*
X131769453Y-100881802D01*
X132428128Y-101540477D01*
G36*
X147348471Y-90507704D02*
G01*
X147177704Y-90678471D01*
X147043533Y-90879271D01*
X146951115Y-91102389D01*
X146904000Y-91339250D01*
X146904000Y-91580750D01*
X146951115Y-91817611D01*
X147043533Y-92040729D01*
X147177704Y-92241529D01*
X147348471Y-92412296D01*
X147549271Y-92546467D01*
X147772389Y-92638885D01*
X148009250Y-92686000D01*
X148250750Y-92686000D01*
X148487611Y-92638885D01*
X148494001Y-92636238D01*
X148494000Y-94020405D01*
X148465095Y-94035855D01*
X148407842Y-94082842D01*
X148360855Y-94140095D01*
X148325941Y-94205415D01*
X148304441Y-94276291D01*
X148297181Y-94350000D01*
X148297181Y-94557673D01*
X147752819Y-94013312D01*
X147752819Y-93700000D01*
X147745559Y-93626291D01*
X147724059Y-93555415D01*
X147689145Y-93490095D01*
X147642158Y-93432842D01*
X147584905Y-93385855D01*
X147519585Y-93350941D01*
X147448709Y-93329441D01*
X147375000Y-93322181D01*
X147061688Y-93322181D01*
X147047964Y-93308457D01*
X147033801Y-93291199D01*
X146964944Y-93234690D01*
X146886387Y-93192700D01*
X146801147Y-93166843D01*
X146734715Y-93160300D01*
X146734713Y-93160300D01*
X146712500Y-93158112D01*
X146690287Y-93160300D01*
X146394654Y-93160300D01*
X146342279Y-93062314D01*
X146268088Y-92971912D01*
X146177686Y-92897721D01*
X146074547Y-92842592D01*
X145962635Y-92808644D01*
X145846250Y-92797181D01*
X145333750Y-92797181D01*
X145217365Y-92808644D01*
X145105453Y-92842592D01*
X145002314Y-92897721D01*
X144911912Y-92971912D01*
X144837721Y-93062314D01*
X144782592Y-93165453D01*
X144748644Y-93277365D01*
X144737181Y-93393750D01*
X144737181Y-93831250D01*
X144748644Y-93947635D01*
X144782592Y-94059547D01*
X144837721Y-94162686D01*
X144911912Y-94253088D01*
X145002314Y-94327279D01*
X145105453Y-94382408D01*
X145217365Y-94416356D01*
X145333750Y-94427819D01*
X145846250Y-94427819D01*
X145962635Y-94416356D01*
X146074547Y-94382408D01*
X146177686Y-94327279D01*
X146268088Y-94253088D01*
X146303129Y-94210390D01*
X146304441Y-94223709D01*
X146325941Y-94294585D01*
X146360855Y-94359905D01*
X146407842Y-94417158D01*
X146465095Y-94464145D01*
X146530415Y-94499059D01*
X146601291Y-94520559D01*
X146675000Y-94527819D01*
X146988312Y-94527819D01*
X147952892Y-95492400D01*
X147908014Y-95501327D01*
X147889353Y-95473399D01*
X147801601Y-95385647D01*
X147698417Y-95316702D01*
X147583764Y-95269211D01*
X147462050Y-95245000D01*
X147337950Y-95245000D01*
X147216236Y-95269211D01*
X147101583Y-95316702D01*
X146998399Y-95385647D01*
X146910647Y-95473399D01*
X146879148Y-95520541D01*
X146864353Y-95498399D01*
X146776601Y-95410647D01*
X146673417Y-95341702D01*
X146558764Y-95294211D01*
X146437050Y-95270000D01*
X146312950Y-95270000D01*
X146191236Y-95294211D01*
X146076583Y-95341702D01*
X145973399Y-95410647D01*
X145888057Y-95495989D01*
X145883764Y-95494211D01*
X145762050Y-95470000D01*
X145637950Y-95470000D01*
X145516236Y-95494211D01*
X145401583Y-95541702D01*
X145298399Y-95610647D01*
X145210647Y-95698399D01*
X145141702Y-95801583D01*
X145094211Y-95916236D01*
X145070000Y-96037950D01*
X145070000Y-96162050D01*
X145087632Y-96250689D01*
X145026147Y-96301147D01*
X144971388Y-96367872D01*
X144930698Y-96443997D01*
X144905642Y-96526598D01*
X144900000Y-96583880D01*
X144894358Y-96526598D01*
X144869302Y-96443997D01*
X144828612Y-96367872D01*
X144773853Y-96301147D01*
X144707128Y-96246388D01*
X144631003Y-96205698D01*
X144548402Y-96180642D01*
X144462500Y-96172181D01*
X144352200Y-96172181D01*
X144352200Y-95507884D01*
X144362686Y-95502279D01*
X144453088Y-95428088D01*
X144527279Y-95337686D01*
X144582408Y-95234547D01*
X144616356Y-95122635D01*
X144627819Y-95006250D01*
X144627819Y-94493750D01*
X144616356Y-94377365D01*
X144582408Y-94265453D01*
X144527279Y-94162314D01*
X144453088Y-94071912D01*
X144362686Y-93997721D01*
X144259547Y-93942592D01*
X144147635Y-93908644D01*
X144031250Y-93897181D01*
X143593750Y-93897181D01*
X143477365Y-93908644D01*
X143365453Y-93942592D01*
X143262314Y-93997721D01*
X143171912Y-94071912D01*
X143097721Y-94162314D01*
X143042592Y-94265453D01*
X143008644Y-94377365D01*
X142997181Y-94493750D01*
X142997181Y-95006250D01*
X143008644Y-95122635D01*
X143042592Y-95234547D01*
X143097721Y-95337686D01*
X143171912Y-95428088D01*
X143262314Y-95502279D01*
X143365453Y-95557408D01*
X143447801Y-95582388D01*
X143447800Y-96412001D01*
X143430698Y-96443997D01*
X143405642Y-96526598D01*
X143400000Y-96583880D01*
X143394358Y-96526598D01*
X143369302Y-96443997D01*
X143328612Y-96367872D01*
X143273853Y-96301147D01*
X143207128Y-96246388D01*
X143131003Y-96205698D01*
X143048402Y-96180642D01*
X142962500Y-96172181D01*
X142837500Y-96172181D01*
X142751598Y-96180642D01*
X142668997Y-96205698D01*
X142592872Y-96246388D01*
X142526147Y-96301147D01*
X142471388Y-96367872D01*
X142430698Y-96443997D01*
X142425416Y-96461410D01*
X140600918Y-96461410D01*
X140266919Y-96127411D01*
X140373417Y-96083298D01*
X140476601Y-96014353D01*
X140564353Y-95926601D01*
X140633298Y-95823417D01*
X140680789Y-95708764D01*
X140705000Y-95587050D01*
X140705000Y-95462950D01*
X140680789Y-95341236D01*
X140633298Y-95226583D01*
X140564353Y-95123399D01*
X140476601Y-95035647D01*
X140373417Y-94966702D01*
X140258764Y-94919211D01*
X140137050Y-94895000D01*
X140084507Y-94895000D01*
X140077819Y-94888312D01*
X140077819Y-94493750D01*
X140066356Y-94377365D01*
X140032408Y-94265453D01*
X139977279Y-94162314D01*
X139921548Y-94094406D01*
X139939353Y-94076601D01*
X140008298Y-93973417D01*
X140055789Y-93858764D01*
X140080000Y-93737050D01*
X140080000Y-93612950D01*
X140055789Y-93491236D01*
X140008298Y-93376583D01*
X139939353Y-93273399D01*
X139851601Y-93185647D01*
X139748417Y-93116702D01*
X139633764Y-93069211D01*
X139512050Y-93045000D01*
X139387950Y-93045000D01*
X139266236Y-93069211D01*
X139151583Y-93116702D01*
X139048399Y-93185647D01*
X139004983Y-93229063D01*
X139002143Y-93229343D01*
X138916903Y-93255200D01*
X138838346Y-93297190D01*
X138838344Y-93297191D01*
X138838345Y-93297191D01*
X138799048Y-93329441D01*
X138769489Y-93353699D01*
X138755330Y-93370952D01*
X136087541Y-96038742D01*
X136070288Y-96052901D01*
X136056129Y-96070154D01*
X136056126Y-96070157D01*
X136013779Y-96121758D01*
X135971788Y-96200316D01*
X135945932Y-96285555D01*
X135937200Y-96374202D01*
X135939389Y-96396424D01*
X135939388Y-97622181D01*
X135327819Y-97622181D01*
X135327819Y-96820000D01*
X135320559Y-96746291D01*
X135299059Y-96675415D01*
X135264145Y-96610095D01*
X135217158Y-96552842D01*
X135159905Y-96505855D01*
X135094585Y-96470941D01*
X135023709Y-96449441D01*
X134950000Y-96442181D01*
X134450000Y-96442181D01*
X134376291Y-96449441D01*
X134305415Y-96470941D01*
X134240095Y-96505855D01*
X134182842Y-96552842D01*
X134135855Y-96610095D01*
X134129395Y-96622181D01*
X133450000Y-96622181D01*
X133376291Y-96629441D01*
X133305415Y-96650941D01*
X133240095Y-96685855D01*
X133182842Y-96732842D01*
X133135855Y-96790095D01*
X133131737Y-96797800D01*
X132987068Y-96797800D01*
X132980789Y-96766236D01*
X132933298Y-96651583D01*
X132864353Y-96548399D01*
X132776601Y-96460647D01*
X132673417Y-96391702D01*
X132558764Y-96344211D01*
X132437050Y-96320000D01*
X132312950Y-96320000D01*
X132191236Y-96344211D01*
X132076583Y-96391702D01*
X131973399Y-96460647D01*
X131885647Y-96548399D01*
X131816702Y-96651583D01*
X131769211Y-96766236D01*
X131745000Y-96887950D01*
X131745000Y-97012050D01*
X131769211Y-97133764D01*
X131816702Y-97248417D01*
X131885647Y-97351601D01*
X131973399Y-97439353D01*
X132076583Y-97508298D01*
X132191236Y-97555789D01*
X132312950Y-97580000D01*
X132364299Y-97580000D01*
X132422556Y-97627810D01*
X132501113Y-97669800D01*
X132586353Y-97695657D01*
X132652785Y-97702200D01*
X132652786Y-97702200D01*
X132674999Y-97704388D01*
X132697212Y-97702200D01*
X133131737Y-97702200D01*
X133135855Y-97709905D01*
X133168761Y-97750000D01*
X133135855Y-97790095D01*
X133100941Y-97855415D01*
X133079441Y-97926291D01*
X133072181Y-98000000D01*
X133072181Y-98300000D01*
X133079441Y-98373709D01*
X133100941Y-98444585D01*
X133135855Y-98509905D01*
X133168761Y-98550000D01*
X133135855Y-98590095D01*
X133100941Y-98655415D01*
X133079441Y-98726291D01*
X133072181Y-98800000D01*
X133072181Y-99300000D01*
X133079441Y-99373709D01*
X133100941Y-99444585D01*
X133135855Y-99509905D01*
X133182842Y-99567158D01*
X133240095Y-99614145D01*
X133305415Y-99649059D01*
X133376291Y-99670559D01*
X133450000Y-99677819D01*
X134250000Y-99677819D01*
X134323709Y-99670559D01*
X134394585Y-99649059D01*
X134459905Y-99614145D01*
X134517158Y-99567158D01*
X134564145Y-99509905D01*
X134599059Y-99444585D01*
X134620559Y-99373709D01*
X134627819Y-99300000D01*
X134627819Y-98800000D01*
X134620559Y-98726291D01*
X134599059Y-98655415D01*
X134564145Y-98590095D01*
X134531239Y-98550000D01*
X134564145Y-98509905D01*
X134599059Y-98444585D01*
X134620559Y-98373709D01*
X134627819Y-98300000D01*
X134627819Y-98197819D01*
X134772181Y-98197819D01*
X134772181Y-98300000D01*
X134779441Y-98373709D01*
X134800941Y-98444585D01*
X134835855Y-98509905D01*
X134868761Y-98550000D01*
X134835855Y-98590095D01*
X134800941Y-98655415D01*
X134779441Y-98726291D01*
X134772181Y-98800000D01*
X134772181Y-99300000D01*
X134779441Y-99373709D01*
X134800941Y-99444585D01*
X134835855Y-99509905D01*
X134882842Y-99567158D01*
X134940095Y-99614145D01*
X135005415Y-99649059D01*
X135076291Y-99670559D01*
X135150000Y-99677819D01*
X135440000Y-99677819D01*
X135440000Y-99702050D01*
X135464211Y-99823764D01*
X135511702Y-99938417D01*
X135580647Y-100041601D01*
X135668399Y-100129353D01*
X135771583Y-100198298D01*
X135886236Y-100245789D01*
X136007950Y-100270000D01*
X136132050Y-100270000D01*
X136253764Y-100245789D01*
X136368417Y-100198298D01*
X136471601Y-100129353D01*
X136559353Y-100041601D01*
X136628298Y-99938417D01*
X136675789Y-99823764D01*
X136700000Y-99702050D01*
X136700000Y-99577950D01*
X136675789Y-99456236D01*
X136628298Y-99341583D01*
X136559353Y-99238399D01*
X136471601Y-99150647D01*
X136368417Y-99081702D01*
X136327819Y-99064886D01*
X136327819Y-98800000D01*
X136326419Y-98785783D01*
X136375098Y-98845100D01*
X136392358Y-98859265D01*
X136437132Y-98904038D01*
X136451299Y-98921301D01*
X136520156Y-98977810D01*
X136598713Y-99019800D01*
X136683953Y-99045657D01*
X136693742Y-99046621D01*
X136715095Y-99064145D01*
X136780415Y-99099059D01*
X136851291Y-99120559D01*
X136925000Y-99127819D01*
X137675000Y-99127819D01*
X137748709Y-99120559D01*
X137819585Y-99099059D01*
X137884905Y-99064145D01*
X137899460Y-99052200D01*
X139266305Y-99052200D01*
X139288518Y-99054388D01*
X139310731Y-99052200D01*
X139310733Y-99052200D01*
X139377165Y-99045657D01*
X139447181Y-99024418D01*
X139447181Y-99250000D01*
X139454441Y-99323709D01*
X139475941Y-99394585D01*
X139510855Y-99459905D01*
X139557842Y-99517158D01*
X139612471Y-99561992D01*
X139527050Y-99545000D01*
X139402950Y-99545000D01*
X139281236Y-99569211D01*
X139166583Y-99616702D01*
X139063399Y-99685647D01*
X138975647Y-99773399D01*
X138906702Y-99876583D01*
X138859211Y-99991236D01*
X138835000Y-100112950D01*
X138835000Y-100237050D01*
X138846102Y-100292861D01*
X133253210Y-100292861D01*
X131998948Y-99038600D01*
X131983195Y-99019405D01*
X131906604Y-98956548D01*
X131819221Y-98909841D01*
X131779748Y-98897867D01*
X131785559Y-98878709D01*
X131792819Y-98805000D01*
X131792819Y-98405000D01*
X131785559Y-98331291D01*
X131764059Y-98260415D01*
X131729145Y-98195095D01*
X131682158Y-98137842D01*
X131624905Y-98090855D01*
X131559585Y-98055941D01*
X131488709Y-98034441D01*
X131415000Y-98027181D01*
X129765000Y-98027181D01*
X129691291Y-98034441D01*
X129620415Y-98055941D01*
X129555095Y-98090855D01*
X129541515Y-98102000D01*
X129535693Y-98102000D01*
X129510999Y-98099568D01*
X129486305Y-98102000D01*
X129486298Y-98102000D01*
X129412395Y-98109279D01*
X129317579Y-98138041D01*
X129230196Y-98184748D01*
X129153605Y-98247605D01*
X129137856Y-98266795D01*
X128816201Y-98588451D01*
X128797006Y-98604204D01*
X128734149Y-98680795D01*
X128687442Y-98768179D01*
X128658680Y-98862995D01*
X128651401Y-98936898D01*
X128651401Y-98936905D01*
X128648969Y-98961599D01*
X128651401Y-98986293D01*
X128651402Y-103862249D01*
X128362752Y-104150899D01*
X128325000Y-104147181D01*
X127325000Y-104147181D01*
X127251291Y-104154441D01*
X127180415Y-104175941D01*
X127115823Y-104210466D01*
X127093962Y-95619031D01*
X127121912Y-95653088D01*
X127212314Y-95727279D01*
X127315453Y-95782408D01*
X127427365Y-95816356D01*
X127543750Y-95827819D01*
X127981250Y-95827819D01*
X128027902Y-95823224D01*
X128020000Y-95862950D01*
X128020000Y-95987050D01*
X128044211Y-96108764D01*
X128091702Y-96223417D01*
X128160647Y-96326601D01*
X128248399Y-96414353D01*
X128351583Y-96483298D01*
X128466236Y-96530789D01*
X128587950Y-96555000D01*
X128712050Y-96555000D01*
X128833764Y-96530789D01*
X128948417Y-96483298D01*
X129051601Y-96414353D01*
X129139353Y-96326601D01*
X129208298Y-96223417D01*
X129255789Y-96108764D01*
X129280000Y-95987050D01*
X129280000Y-95862950D01*
X129273012Y-95827819D01*
X129556250Y-95827819D01*
X129672635Y-95816356D01*
X129784547Y-95782408D01*
X129887686Y-95727279D01*
X129978088Y-95653088D01*
X130052279Y-95562686D01*
X130107408Y-95459547D01*
X130141356Y-95347635D01*
X130152819Y-95231250D01*
X130152819Y-94718750D01*
X130141356Y-94602365D01*
X130107408Y-94490453D01*
X130052279Y-94387314D01*
X129978088Y-94296912D01*
X129914833Y-94245000D01*
X129978088Y-94193088D01*
X130052279Y-94102686D01*
X130107408Y-93999547D01*
X130141356Y-93887635D01*
X130152819Y-93771250D01*
X130152819Y-93258750D01*
X130141356Y-93142365D01*
X130107408Y-93030453D01*
X130052279Y-92927314D01*
X129978088Y-92836912D01*
X129887686Y-92762721D01*
X129799124Y-92715383D01*
X131184508Y-91330000D01*
X131237050Y-91330000D01*
X131358764Y-91305789D01*
X131473417Y-91258298D01*
X131576601Y-91189353D01*
X131652181Y-91113773D01*
X131652181Y-92310000D01*
X131659441Y-92383709D01*
X131680941Y-92454585D01*
X131715855Y-92519905D01*
X131762842Y-92577158D01*
X131820095Y-92624145D01*
X131885415Y-92659059D01*
X131956291Y-92680559D01*
X132030000Y-92687819D01*
X133468312Y-92687819D01*
X135330000Y-94549508D01*
X135330000Y-94602050D01*
X135354211Y-94723764D01*
X135401702Y-94838417D01*
X135470647Y-94941601D01*
X135558399Y-95029353D01*
X135661583Y-95098298D01*
X135776236Y-95145789D01*
X135897950Y-95170000D01*
X136022050Y-95170000D01*
X136143764Y-95145789D01*
X136258417Y-95098298D01*
X136361601Y-95029353D01*
X136449353Y-94941601D01*
X136518298Y-94838417D01*
X136565789Y-94723764D01*
X136590000Y-94602050D01*
X136590000Y-94477950D01*
X136565789Y-94356236D01*
X136518298Y-94241583D01*
X136449353Y-94138399D01*
X136361601Y-94050647D01*
X136258417Y-93981702D01*
X136143764Y-93934211D01*
X136022050Y-93910000D01*
X135969508Y-93910000D01*
X134107819Y-92048312D01*
X134107819Y-90610000D01*
X134100559Y-90536291D01*
X134079059Y-90465415D01*
X134077260Y-90462050D01*
X134708121Y-90461165D01*
X134638471Y-90507704D01*
X134467704Y-90678471D01*
X134333533Y-90879271D01*
X134241115Y-91102389D01*
X134194000Y-91339250D01*
X134194000Y-91580750D01*
X134241115Y-91817611D01*
X134333533Y-92040729D01*
X134467704Y-92241529D01*
X134638471Y-92412296D01*
X134839271Y-92546467D01*
X135062389Y-92638885D01*
X135299250Y-92686000D01*
X135540750Y-92686000D01*
X135777611Y-92638885D01*
X136000729Y-92546467D01*
X136201529Y-92412296D01*
X136372296Y-92241529D01*
X136506467Y-92040729D01*
X136598885Y-91817611D01*
X136646000Y-91580750D01*
X136646000Y-91339250D01*
X136598885Y-91102389D01*
X136506467Y-90879271D01*
X136372296Y-90678471D01*
X136201529Y-90507704D01*
X136128895Y-90459171D01*
X137253467Y-90457593D01*
X137178471Y-90507704D01*
X137007704Y-90678471D01*
X136873533Y-90879271D01*
X136781115Y-91102389D01*
X136734000Y-91339250D01*
X136734000Y-91580750D01*
X136781115Y-91817611D01*
X136873533Y-92040729D01*
X137007704Y-92241529D01*
X137178471Y-92412296D01*
X137379271Y-92546467D01*
X137602389Y-92638885D01*
X137839250Y-92686000D01*
X138080750Y-92686000D01*
X138317611Y-92638885D01*
X138540729Y-92546467D01*
X138741529Y-92412296D01*
X138912296Y-92241529D01*
X139046467Y-92040729D01*
X139138885Y-91817611D01*
X139186000Y-91580750D01*
X139186000Y-91339250D01*
X139138885Y-91102389D01*
X139046467Y-90879271D01*
X138912296Y-90678471D01*
X138741529Y-90507704D01*
X138663571Y-90455614D01*
X139798813Y-90454021D01*
X139718471Y-90507704D01*
X139547704Y-90678471D01*
X139413533Y-90879271D01*
X139321115Y-91102389D01*
X139274000Y-91339250D01*
X139274000Y-91580750D01*
X139321115Y-91817611D01*
X139413533Y-92040729D01*
X139547704Y-92241529D01*
X139718471Y-92412296D01*
X139919271Y-92546467D01*
X140142389Y-92638885D01*
X140379250Y-92686000D01*
X140620750Y-92686000D01*
X140857611Y-92638885D01*
X141080729Y-92546467D01*
X141281529Y-92412296D01*
X141452296Y-92241529D01*
X141586467Y-92040729D01*
X141678885Y-91817611D01*
X141726000Y-91580750D01*
X141726000Y-91339250D01*
X141678885Y-91102389D01*
X141586467Y-90879271D01*
X141452296Y-90678471D01*
X141281529Y-90507704D01*
X141198248Y-90452057D01*
X142344159Y-90450449D01*
X142258471Y-90507704D01*
X142087704Y-90678471D01*
X141953533Y-90879271D01*
X141861115Y-91102389D01*
X141814000Y-91339250D01*
X141814000Y-91580750D01*
X141861115Y-91817611D01*
X141953533Y-92040729D01*
X142087704Y-92241529D01*
X142258471Y-92412296D01*
X142459271Y-92546467D01*
X142682389Y-92638885D01*
X142919250Y-92686000D01*
X143160750Y-92686000D01*
X143397611Y-92638885D01*
X143620729Y-92546467D01*
X143821529Y-92412296D01*
X143992296Y-92241529D01*
X144126467Y-92040729D01*
X144218885Y-91817611D01*
X144266000Y-91580750D01*
X144266000Y-91339250D01*
X144218885Y-91102389D01*
X144126467Y-90879271D01*
X143992296Y-90678471D01*
X143821529Y-90507704D01*
X143732924Y-90448500D01*
X147444872Y-90443291D01*
X147348471Y-90507704D01*
G37*
X147348471Y-90507704D02*
X147177704Y-90678471D01*
X147043533Y-90879271D01*
X146951115Y-91102389D01*
X146904000Y-91339250D01*
X146904000Y-91580750D01*
X146951115Y-91817611D01*
X147043533Y-92040729D01*
X147177704Y-92241529D01*
X147348471Y-92412296D01*
X147549271Y-92546467D01*
X147772389Y-92638885D01*
X148009250Y-92686000D01*
X148250750Y-92686000D01*
X148487611Y-92638885D01*
X148494001Y-92636238D01*
X148494000Y-94020405D01*
X148465095Y-94035855D01*
X148407842Y-94082842D01*
X148360855Y-94140095D01*
X148325941Y-94205415D01*
X148304441Y-94276291D01*
X148297181Y-94350000D01*
X148297181Y-94557673D01*
X147752819Y-94013312D01*
X147752819Y-93700000D01*
X147745559Y-93626291D01*
X147724059Y-93555415D01*
X147689145Y-93490095D01*
X147642158Y-93432842D01*
X147584905Y-93385855D01*
X147519585Y-93350941D01*
X147448709Y-93329441D01*
X147375000Y-93322181D01*
X147061688Y-93322181D01*
X147047964Y-93308457D01*
X147033801Y-93291199D01*
X146964944Y-93234690D01*
X146886387Y-93192700D01*
X146801147Y-93166843D01*
X146734715Y-93160300D01*
X146734713Y-93160300D01*
X146712500Y-93158112D01*
X146690287Y-93160300D01*
X146394654Y-93160300D01*
X146342279Y-93062314D01*
X146268088Y-92971912D01*
X146177686Y-92897721D01*
X146074547Y-92842592D01*
X145962635Y-92808644D01*
X145846250Y-92797181D01*
X145333750Y-92797181D01*
X145217365Y-92808644D01*
X145105453Y-92842592D01*
X145002314Y-92897721D01*
X144911912Y-92971912D01*
X144837721Y-93062314D01*
X144782592Y-93165453D01*
X144748644Y-93277365D01*
X144737181Y-93393750D01*
X144737181Y-93831250D01*
X144748644Y-93947635D01*
X144782592Y-94059547D01*
X144837721Y-94162686D01*
X144911912Y-94253088D01*
X145002314Y-94327279D01*
X145105453Y-94382408D01*
X145217365Y-94416356D01*
X145333750Y-94427819D01*
X145846250Y-94427819D01*
X145962635Y-94416356D01*
X146074547Y-94382408D01*
X146177686Y-94327279D01*
X146268088Y-94253088D01*
X146303129Y-94210390D01*
X146304441Y-94223709D01*
X146325941Y-94294585D01*
X146360855Y-94359905D01*
X146407842Y-94417158D01*
X146465095Y-94464145D01*
X146530415Y-94499059D01*
X146601291Y-94520559D01*
X146675000Y-94527819D01*
X146988312Y-94527819D01*
X147952892Y-95492400D01*
X147908014Y-95501327D01*
X147889353Y-95473399D01*
X147801601Y-95385647D01*
X147698417Y-95316702D01*
X147583764Y-95269211D01*
X147462050Y-95245000D01*
X147337950Y-95245000D01*
X147216236Y-95269211D01*
X147101583Y-95316702D01*
X146998399Y-95385647D01*
X146910647Y-95473399D01*
X146879148Y-95520541D01*
X146864353Y-95498399D01*
X146776601Y-95410647D01*
X146673417Y-95341702D01*
X146558764Y-95294211D01*
X146437050Y-95270000D01*
X146312950Y-95270000D01*
X146191236Y-95294211D01*
X146076583Y-95341702D01*
X145973399Y-95410647D01*
X145888057Y-95495989D01*
X145883764Y-95494211D01*
X145762050Y-95470000D01*
X145637950Y-95470000D01*
X145516236Y-95494211D01*
X145401583Y-95541702D01*
X145298399Y-95610647D01*
X145210647Y-95698399D01*
X145141702Y-95801583D01*
X145094211Y-95916236D01*
X145070000Y-96037950D01*
X145070000Y-96162050D01*
X145087632Y-96250689D01*
X145026147Y-96301147D01*
X144971388Y-96367872D01*
X144930698Y-96443997D01*
X144905642Y-96526598D01*
X144900000Y-96583880D01*
X144894358Y-96526598D01*
X144869302Y-96443997D01*
X144828612Y-96367872D01*
X144773853Y-96301147D01*
X144707128Y-96246388D01*
X144631003Y-96205698D01*
X144548402Y-96180642D01*
X144462500Y-96172181D01*
X144352200Y-96172181D01*
X144352200Y-95507884D01*
X144362686Y-95502279D01*
X144453088Y-95428088D01*
X144527279Y-95337686D01*
X144582408Y-95234547D01*
X144616356Y-95122635D01*
X144627819Y-95006250D01*
X144627819Y-94493750D01*
X144616356Y-94377365D01*
X144582408Y-94265453D01*
X144527279Y-94162314D01*
X144453088Y-94071912D01*
X144362686Y-93997721D01*
X144259547Y-93942592D01*
X144147635Y-93908644D01*
X144031250Y-93897181D01*
X143593750Y-93897181D01*
X143477365Y-93908644D01*
X143365453Y-93942592D01*
X143262314Y-93997721D01*
X143171912Y-94071912D01*
X143097721Y-94162314D01*
X143042592Y-94265453D01*
X143008644Y-94377365D01*
X142997181Y-94493750D01*
X142997181Y-95006250D01*
X143008644Y-95122635D01*
X143042592Y-95234547D01*
X143097721Y-95337686D01*
X143171912Y-95428088D01*
X143262314Y-95502279D01*
X143365453Y-95557408D01*
X143447801Y-95582388D01*
X143447800Y-96412001D01*
X143430698Y-96443997D01*
X143405642Y-96526598D01*
X143400000Y-96583880D01*
X143394358Y-96526598D01*
X143369302Y-96443997D01*
X143328612Y-96367872D01*
X143273853Y-96301147D01*
X143207128Y-96246388D01*
X143131003Y-96205698D01*
X143048402Y-96180642D01*
X142962500Y-96172181D01*
X142837500Y-96172181D01*
X142751598Y-96180642D01*
X142668997Y-96205698D01*
X142592872Y-96246388D01*
X142526147Y-96301147D01*
X142471388Y-96367872D01*
X142430698Y-96443997D01*
X142425416Y-96461410D01*
X140600918Y-96461410D01*
X140266919Y-96127411D01*
X140373417Y-96083298D01*
X140476601Y-96014353D01*
X140564353Y-95926601D01*
X140633298Y-95823417D01*
X140680789Y-95708764D01*
X140705000Y-95587050D01*
X140705000Y-95462950D01*
X140680789Y-95341236D01*
X140633298Y-95226583D01*
X140564353Y-95123399D01*
X140476601Y-95035647D01*
X140373417Y-94966702D01*
X140258764Y-94919211D01*
X140137050Y-94895000D01*
X140084507Y-94895000D01*
X140077819Y-94888312D01*
X140077819Y-94493750D01*
X140066356Y-94377365D01*
X140032408Y-94265453D01*
X139977279Y-94162314D01*
X139921548Y-94094406D01*
X139939353Y-94076601D01*
X140008298Y-93973417D01*
X140055789Y-93858764D01*
X140080000Y-93737050D01*
X140080000Y-93612950D01*
X140055789Y-93491236D01*
X140008298Y-93376583D01*
X139939353Y-93273399D01*
X139851601Y-93185647D01*
X139748417Y-93116702D01*
X139633764Y-93069211D01*
X139512050Y-93045000D01*
X139387950Y-93045000D01*
X139266236Y-93069211D01*
X139151583Y-93116702D01*
X139048399Y-93185647D01*
X139004983Y-93229063D01*
X139002143Y-93229343D01*
X138916903Y-93255200D01*
X138838346Y-93297190D01*
X138838344Y-93297191D01*
X138838345Y-93297191D01*
X138799048Y-93329441D01*
X138769489Y-93353699D01*
X138755330Y-93370952D01*
X136087541Y-96038742D01*
X136070288Y-96052901D01*
X136056129Y-96070154D01*
X136056126Y-96070157D01*
X136013779Y-96121758D01*
X135971788Y-96200316D01*
X135945932Y-96285555D01*
X135937200Y-96374202D01*
X135939389Y-96396424D01*
X135939388Y-97622181D01*
X135327819Y-97622181D01*
X135327819Y-96820000D01*
X135320559Y-96746291D01*
X135299059Y-96675415D01*
X135264145Y-96610095D01*
X135217158Y-96552842D01*
X135159905Y-96505855D01*
X135094585Y-96470941D01*
X135023709Y-96449441D01*
X134950000Y-96442181D01*
X134450000Y-96442181D01*
X134376291Y-96449441D01*
X134305415Y-96470941D01*
X134240095Y-96505855D01*
X134182842Y-96552842D01*
X134135855Y-96610095D01*
X134129395Y-96622181D01*
X133450000Y-96622181D01*
X133376291Y-96629441D01*
X133305415Y-96650941D01*
X133240095Y-96685855D01*
X133182842Y-96732842D01*
X133135855Y-96790095D01*
X133131737Y-96797800D01*
X132987068Y-96797800D01*
X132980789Y-96766236D01*
X132933298Y-96651583D01*
X132864353Y-96548399D01*
X132776601Y-96460647D01*
X132673417Y-96391702D01*
X132558764Y-96344211D01*
X132437050Y-96320000D01*
X132312950Y-96320000D01*
X132191236Y-96344211D01*
X132076583Y-96391702D01*
X131973399Y-96460647D01*
X131885647Y-96548399D01*
X131816702Y-96651583D01*
X131769211Y-96766236D01*
X131745000Y-96887950D01*
X131745000Y-97012050D01*
X131769211Y-97133764D01*
X131816702Y-97248417D01*
X131885647Y-97351601D01*
X131973399Y-97439353D01*
X132076583Y-97508298D01*
X132191236Y-97555789D01*
X132312950Y-97580000D01*
X132364299Y-97580000D01*
X132422556Y-97627810D01*
X132501113Y-97669800D01*
X132586353Y-97695657D01*
X132652785Y-97702200D01*
X132652786Y-97702200D01*
X132674999Y-97704388D01*
X132697212Y-97702200D01*
X133131737Y-97702200D01*
X133135855Y-97709905D01*
X133168761Y-97750000D01*
X133135855Y-97790095D01*
X133100941Y-97855415D01*
X133079441Y-97926291D01*
X133072181Y-98000000D01*
X133072181Y-98300000D01*
X133079441Y-98373709D01*
X133100941Y-98444585D01*
X133135855Y-98509905D01*
X133168761Y-98550000D01*
X133135855Y-98590095D01*
X133100941Y-98655415D01*
X133079441Y-98726291D01*
X133072181Y-98800000D01*
X133072181Y-99300000D01*
X133079441Y-99373709D01*
X133100941Y-99444585D01*
X133135855Y-99509905D01*
X133182842Y-99567158D01*
X133240095Y-99614145D01*
X133305415Y-99649059D01*
X133376291Y-99670559D01*
X133450000Y-99677819D01*
X134250000Y-99677819D01*
X134323709Y-99670559D01*
X134394585Y-99649059D01*
X134459905Y-99614145D01*
X134517158Y-99567158D01*
X134564145Y-99509905D01*
X134599059Y-99444585D01*
X134620559Y-99373709D01*
X134627819Y-99300000D01*
X134627819Y-98800000D01*
X134620559Y-98726291D01*
X134599059Y-98655415D01*
X134564145Y-98590095D01*
X134531239Y-98550000D01*
X134564145Y-98509905D01*
X134599059Y-98444585D01*
X134620559Y-98373709D01*
X134627819Y-98300000D01*
X134627819Y-98197819D01*
X134772181Y-98197819D01*
X134772181Y-98300000D01*
X134779441Y-98373709D01*
X134800941Y-98444585D01*
X134835855Y-98509905D01*
X134868761Y-98550000D01*
X134835855Y-98590095D01*
X134800941Y-98655415D01*
X134779441Y-98726291D01*
X134772181Y-98800000D01*
X134772181Y-99300000D01*
X134779441Y-99373709D01*
X134800941Y-99444585D01*
X134835855Y-99509905D01*
X134882842Y-99567158D01*
X134940095Y-99614145D01*
X135005415Y-99649059D01*
X135076291Y-99670559D01*
X135150000Y-99677819D01*
X135440000Y-99677819D01*
X135440000Y-99702050D01*
X135464211Y-99823764D01*
X135511702Y-99938417D01*
X135580647Y-100041601D01*
X135668399Y-100129353D01*
X135771583Y-100198298D01*
X135886236Y-100245789D01*
X136007950Y-100270000D01*
X136132050Y-100270000D01*
X136253764Y-100245789D01*
X136368417Y-100198298D01*
X136471601Y-100129353D01*
X136559353Y-100041601D01*
X136628298Y-99938417D01*
X136675789Y-99823764D01*
X136700000Y-99702050D01*
X136700000Y-99577950D01*
X136675789Y-99456236D01*
X136628298Y-99341583D01*
X136559353Y-99238399D01*
X136471601Y-99150647D01*
X136368417Y-99081702D01*
X136327819Y-99064886D01*
X136327819Y-98800000D01*
X136326419Y-98785783D01*
X136375098Y-98845100D01*
X136392358Y-98859265D01*
X136437132Y-98904038D01*
X136451299Y-98921301D01*
X136520156Y-98977810D01*
X136598713Y-99019800D01*
X136683953Y-99045657D01*
X136693742Y-99046621D01*
X136715095Y-99064145D01*
X136780415Y-99099059D01*
X136851291Y-99120559D01*
X136925000Y-99127819D01*
X137675000Y-99127819D01*
X137748709Y-99120559D01*
X137819585Y-99099059D01*
X137884905Y-99064145D01*
X137899460Y-99052200D01*
X139266305Y-99052200D01*
X139288518Y-99054388D01*
X139310731Y-99052200D01*
X139310733Y-99052200D01*
X139377165Y-99045657D01*
X139447181Y-99024418D01*
X139447181Y-99250000D01*
X139454441Y-99323709D01*
X139475941Y-99394585D01*
X139510855Y-99459905D01*
X139557842Y-99517158D01*
X139612471Y-99561992D01*
X139527050Y-99545000D01*
X139402950Y-99545000D01*
X139281236Y-99569211D01*
X139166583Y-99616702D01*
X139063399Y-99685647D01*
X138975647Y-99773399D01*
X138906702Y-99876583D01*
X138859211Y-99991236D01*
X138835000Y-100112950D01*
X138835000Y-100237050D01*
X138846102Y-100292861D01*
X133253210Y-100292861D01*
X131998948Y-99038600D01*
X131983195Y-99019405D01*
X131906604Y-98956548D01*
X131819221Y-98909841D01*
X131779748Y-98897867D01*
X131785559Y-98878709D01*
X131792819Y-98805000D01*
X131792819Y-98405000D01*
X131785559Y-98331291D01*
X131764059Y-98260415D01*
X131729145Y-98195095D01*
X131682158Y-98137842D01*
X131624905Y-98090855D01*
X131559585Y-98055941D01*
X131488709Y-98034441D01*
X131415000Y-98027181D01*
X129765000Y-98027181D01*
X129691291Y-98034441D01*
X129620415Y-98055941D01*
X129555095Y-98090855D01*
X129541515Y-98102000D01*
X129535693Y-98102000D01*
X129510999Y-98099568D01*
X129486305Y-98102000D01*
X129486298Y-98102000D01*
X129412395Y-98109279D01*
X129317579Y-98138041D01*
X129230196Y-98184748D01*
X129153605Y-98247605D01*
X129137856Y-98266795D01*
X128816201Y-98588451D01*
X128797006Y-98604204D01*
X128734149Y-98680795D01*
X128687442Y-98768179D01*
X128658680Y-98862995D01*
X128651401Y-98936898D01*
X128651401Y-98936905D01*
X128648969Y-98961599D01*
X128651401Y-98986293D01*
X128651402Y-103862249D01*
X128362752Y-104150899D01*
X128325000Y-104147181D01*
X127325000Y-104147181D01*
X127251291Y-104154441D01*
X127180415Y-104175941D01*
X127115823Y-104210466D01*
X127093962Y-95619031D01*
X127121912Y-95653088D01*
X127212314Y-95727279D01*
X127315453Y-95782408D01*
X127427365Y-95816356D01*
X127543750Y-95827819D01*
X127981250Y-95827819D01*
X128027902Y-95823224D01*
X128020000Y-95862950D01*
X128020000Y-95987050D01*
X128044211Y-96108764D01*
X128091702Y-96223417D01*
X128160647Y-96326601D01*
X128248399Y-96414353D01*
X128351583Y-96483298D01*
X128466236Y-96530789D01*
X128587950Y-96555000D01*
X128712050Y-96555000D01*
X128833764Y-96530789D01*
X128948417Y-96483298D01*
X129051601Y-96414353D01*
X129139353Y-96326601D01*
X129208298Y-96223417D01*
X129255789Y-96108764D01*
X129280000Y-95987050D01*
X129280000Y-95862950D01*
X129273012Y-95827819D01*
X129556250Y-95827819D01*
X129672635Y-95816356D01*
X129784547Y-95782408D01*
X129887686Y-95727279D01*
X129978088Y-95653088D01*
X130052279Y-95562686D01*
X130107408Y-95459547D01*
X130141356Y-95347635D01*
X130152819Y-95231250D01*
X130152819Y-94718750D01*
X130141356Y-94602365D01*
X130107408Y-94490453D01*
X130052279Y-94387314D01*
X129978088Y-94296912D01*
X129914833Y-94245000D01*
X129978088Y-94193088D01*
X130052279Y-94102686D01*
X130107408Y-93999547D01*
X130141356Y-93887635D01*
X130152819Y-93771250D01*
X130152819Y-93258750D01*
X130141356Y-93142365D01*
X130107408Y-93030453D01*
X130052279Y-92927314D01*
X129978088Y-92836912D01*
X129887686Y-92762721D01*
X129799124Y-92715383D01*
X131184508Y-91330000D01*
X131237050Y-91330000D01*
X131358764Y-91305789D01*
X131473417Y-91258298D01*
X131576601Y-91189353D01*
X131652181Y-91113773D01*
X131652181Y-92310000D01*
X131659441Y-92383709D01*
X131680941Y-92454585D01*
X131715855Y-92519905D01*
X131762842Y-92577158D01*
X131820095Y-92624145D01*
X131885415Y-92659059D01*
X131956291Y-92680559D01*
X132030000Y-92687819D01*
X133468312Y-92687819D01*
X135330000Y-94549508D01*
X135330000Y-94602050D01*
X135354211Y-94723764D01*
X135401702Y-94838417D01*
X135470647Y-94941601D01*
X135558399Y-95029353D01*
X135661583Y-95098298D01*
X135776236Y-95145789D01*
X135897950Y-95170000D01*
X136022050Y-95170000D01*
X136143764Y-95145789D01*
X136258417Y-95098298D01*
X136361601Y-95029353D01*
X136449353Y-94941601D01*
X136518298Y-94838417D01*
X136565789Y-94723764D01*
X136590000Y-94602050D01*
X136590000Y-94477950D01*
X136565789Y-94356236D01*
X136518298Y-94241583D01*
X136449353Y-94138399D01*
X136361601Y-94050647D01*
X136258417Y-93981702D01*
X136143764Y-93934211D01*
X136022050Y-93910000D01*
X135969508Y-93910000D01*
X134107819Y-92048312D01*
X134107819Y-90610000D01*
X134100559Y-90536291D01*
X134079059Y-90465415D01*
X134077260Y-90462050D01*
X134708121Y-90461165D01*
X134638471Y-90507704D01*
X134467704Y-90678471D01*
X134333533Y-90879271D01*
X134241115Y-91102389D01*
X134194000Y-91339250D01*
X134194000Y-91580750D01*
X134241115Y-91817611D01*
X134333533Y-92040729D01*
X134467704Y-92241529D01*
X134638471Y-92412296D01*
X134839271Y-92546467D01*
X135062389Y-92638885D01*
X135299250Y-92686000D01*
X135540750Y-92686000D01*
X135777611Y-92638885D01*
X136000729Y-92546467D01*
X136201529Y-92412296D01*
X136372296Y-92241529D01*
X136506467Y-92040729D01*
X136598885Y-91817611D01*
X136646000Y-91580750D01*
X136646000Y-91339250D01*
X136598885Y-91102389D01*
X136506467Y-90879271D01*
X136372296Y-90678471D01*
X136201529Y-90507704D01*
X136128895Y-90459171D01*
X137253467Y-90457593D01*
X137178471Y-90507704D01*
X137007704Y-90678471D01*
X136873533Y-90879271D01*
X136781115Y-91102389D01*
X136734000Y-91339250D01*
X136734000Y-91580750D01*
X136781115Y-91817611D01*
X136873533Y-92040729D01*
X137007704Y-92241529D01*
X137178471Y-92412296D01*
X137379271Y-92546467D01*
X137602389Y-92638885D01*
X137839250Y-92686000D01*
X138080750Y-92686000D01*
X138317611Y-92638885D01*
X138540729Y-92546467D01*
X138741529Y-92412296D01*
X138912296Y-92241529D01*
X139046467Y-92040729D01*
X139138885Y-91817611D01*
X139186000Y-91580750D01*
X139186000Y-91339250D01*
X139138885Y-91102389D01*
X139046467Y-90879271D01*
X138912296Y-90678471D01*
X138741529Y-90507704D01*
X138663571Y-90455614D01*
X139798813Y-90454021D01*
X139718471Y-90507704D01*
X139547704Y-90678471D01*
X139413533Y-90879271D01*
X139321115Y-91102389D01*
X139274000Y-91339250D01*
X139274000Y-91580750D01*
X139321115Y-91817611D01*
X139413533Y-92040729D01*
X139547704Y-92241529D01*
X139718471Y-92412296D01*
X139919271Y-92546467D01*
X140142389Y-92638885D01*
X140379250Y-92686000D01*
X140620750Y-92686000D01*
X140857611Y-92638885D01*
X141080729Y-92546467D01*
X141281529Y-92412296D01*
X141452296Y-92241529D01*
X141586467Y-92040729D01*
X141678885Y-91817611D01*
X141726000Y-91580750D01*
X141726000Y-91339250D01*
X141678885Y-91102389D01*
X141586467Y-90879271D01*
X141452296Y-90678471D01*
X141281529Y-90507704D01*
X141198248Y-90452057D01*
X142344159Y-90450449D01*
X142258471Y-90507704D01*
X142087704Y-90678471D01*
X141953533Y-90879271D01*
X141861115Y-91102389D01*
X141814000Y-91339250D01*
X141814000Y-91580750D01*
X141861115Y-91817611D01*
X141953533Y-92040729D01*
X142087704Y-92241529D01*
X142258471Y-92412296D01*
X142459271Y-92546467D01*
X142682389Y-92638885D01*
X142919250Y-92686000D01*
X143160750Y-92686000D01*
X143397611Y-92638885D01*
X143620729Y-92546467D01*
X143821529Y-92412296D01*
X143992296Y-92241529D01*
X144126467Y-92040729D01*
X144218885Y-91817611D01*
X144266000Y-91580750D01*
X144266000Y-91339250D01*
X144218885Y-91102389D01*
X144126467Y-90879271D01*
X143992296Y-90678471D01*
X143821529Y-90507704D01*
X143732924Y-90448500D01*
X147444872Y-90443291D01*
X147348471Y-90507704D01*
G36*
X144905642Y-97448402D02*
G01*
X144930698Y-97531003D01*
X144971388Y-97607128D01*
X145026147Y-97673853D01*
X145092872Y-97728612D01*
X145168997Y-97769302D01*
X145251598Y-97794358D01*
X145337500Y-97802819D01*
X145462500Y-97802819D01*
X145548402Y-97794358D01*
X145631003Y-97769302D01*
X145650000Y-97759148D01*
X145668997Y-97769302D01*
X145751598Y-97794358D01*
X145837500Y-97802819D01*
X145962500Y-97802819D01*
X146048402Y-97794358D01*
X146131003Y-97769302D01*
X146150000Y-97759148D01*
X146168997Y-97769302D01*
X146251598Y-97794358D01*
X146337500Y-97802819D01*
X146462500Y-97802819D01*
X146548402Y-97794358D01*
X146631003Y-97769302D01*
X146650000Y-97759148D01*
X146668997Y-97769302D01*
X146751598Y-97794358D01*
X146837500Y-97802819D01*
X146962500Y-97802819D01*
X147048402Y-97794358D01*
X147131003Y-97769302D01*
X147150000Y-97759148D01*
X147168997Y-97769302D01*
X147251598Y-97794358D01*
X147337500Y-97802819D01*
X147462500Y-97802819D01*
X147548402Y-97794358D01*
X147631003Y-97769302D01*
X147650000Y-97759148D01*
X147668997Y-97769302D01*
X147751598Y-97794358D01*
X147837500Y-97802819D01*
X147962500Y-97802819D01*
X148048402Y-97794358D01*
X148131003Y-97769302D01*
X148150000Y-97759148D01*
X148168997Y-97769302D01*
X148251598Y-97794358D01*
X148278038Y-97796962D01*
X148280642Y-97823402D01*
X148305698Y-97906003D01*
X148315852Y-97925000D01*
X148305698Y-97943997D01*
X148280642Y-98026598D01*
X148272181Y-98112500D01*
X148272181Y-98237500D01*
X148280642Y-98323402D01*
X148305698Y-98406003D01*
X148315852Y-98425000D01*
X148305698Y-98443997D01*
X148280642Y-98526598D01*
X148272181Y-98612500D01*
X148272181Y-98737500D01*
X148280642Y-98823402D01*
X148305698Y-98906003D01*
X148315852Y-98925000D01*
X148305698Y-98943997D01*
X148280642Y-99026598D01*
X148272181Y-99112500D01*
X148272181Y-99237500D01*
X148280642Y-99323402D01*
X148305698Y-99406003D01*
X148346388Y-99482128D01*
X148401147Y-99548853D01*
X148467872Y-99603612D01*
X148543997Y-99644302D01*
X148626598Y-99669358D01*
X148683880Y-99675000D01*
X148626598Y-99680642D01*
X148543997Y-99705698D01*
X148467872Y-99746388D01*
X148401147Y-99801147D01*
X148346388Y-99867872D01*
X148305698Y-99943997D01*
X148280642Y-100026598D01*
X148272181Y-100112500D01*
X148272181Y-100237500D01*
X148280642Y-100323402D01*
X148305698Y-100406003D01*
X148315852Y-100425000D01*
X148305698Y-100443997D01*
X148280642Y-100526598D01*
X148272181Y-100612500D01*
X148272181Y-100737500D01*
X148280642Y-100823402D01*
X148305698Y-100906003D01*
X148315852Y-100925000D01*
X148305698Y-100943997D01*
X148280642Y-101026598D01*
X148272181Y-101112500D01*
X148272181Y-101237500D01*
X148280642Y-101323402D01*
X148305698Y-101406003D01*
X148315852Y-101425000D01*
X148305698Y-101443997D01*
X148280642Y-101526598D01*
X148272181Y-101612500D01*
X148272181Y-101737500D01*
X148280642Y-101823402D01*
X148305698Y-101906003D01*
X148315852Y-101925000D01*
X148305698Y-101943997D01*
X148280642Y-102026598D01*
X148272181Y-102112500D01*
X148272181Y-102237500D01*
X148280642Y-102323402D01*
X148305698Y-102406003D01*
X148315852Y-102425000D01*
X148305698Y-102443997D01*
X148280642Y-102526598D01*
X148272181Y-102612500D01*
X148272181Y-102737500D01*
X148280642Y-102823402D01*
X148305698Y-102906003D01*
X148315852Y-102925000D01*
X148305698Y-102943997D01*
X148280642Y-103026598D01*
X148278038Y-103053038D01*
X148251598Y-103055642D01*
X148168997Y-103080698D01*
X148092872Y-103121388D01*
X148026147Y-103176147D01*
X147971388Y-103242872D01*
X147930698Y-103318997D01*
X147905642Y-103401598D01*
X147900000Y-103458880D01*
X147894358Y-103401598D01*
X147869302Y-103318997D01*
X147828612Y-103242872D01*
X147773853Y-103176147D01*
X147707128Y-103121388D01*
X147631003Y-103080698D01*
X147548402Y-103055642D01*
X147462500Y-103047181D01*
X147337500Y-103047181D01*
X147251598Y-103055642D01*
X147168997Y-103080698D01*
X147150000Y-103090852D01*
X147131003Y-103080698D01*
X147048402Y-103055642D01*
X146962500Y-103047181D01*
X146837500Y-103047181D01*
X146751598Y-103055642D01*
X146668997Y-103080698D01*
X146650000Y-103090852D01*
X146631003Y-103080698D01*
X146548402Y-103055642D01*
X146462500Y-103047181D01*
X146337500Y-103047181D01*
X146251598Y-103055642D01*
X146168997Y-103080698D01*
X146150000Y-103090852D01*
X146131003Y-103080698D01*
X146048402Y-103055642D01*
X145962500Y-103047181D01*
X145837500Y-103047181D01*
X145751598Y-103055642D01*
X145668997Y-103080698D01*
X145650000Y-103090852D01*
X145631003Y-103080698D01*
X145548402Y-103055642D01*
X145462500Y-103047181D01*
X145337500Y-103047181D01*
X145251598Y-103055642D01*
X145168997Y-103080698D01*
X145150000Y-103090852D01*
X145131003Y-103080698D01*
X145048402Y-103055642D01*
X144962500Y-103047181D01*
X144837500Y-103047181D01*
X144751598Y-103055642D01*
X144668997Y-103080698D01*
X144650000Y-103090852D01*
X144631003Y-103080698D01*
X144548402Y-103055642D01*
X144462500Y-103047181D01*
X144337500Y-103047181D01*
X144251598Y-103055642D01*
X144168997Y-103080698D01*
X144150000Y-103090852D01*
X144131003Y-103080698D01*
X144048402Y-103055642D01*
X143962500Y-103047181D01*
X143837500Y-103047181D01*
X143751598Y-103055642D01*
X143668997Y-103080698D01*
X143650000Y-103090852D01*
X143631003Y-103080698D01*
X143548402Y-103055642D01*
X143462500Y-103047181D01*
X143337500Y-103047181D01*
X143251598Y-103055642D01*
X143168997Y-103080698D01*
X143150000Y-103090852D01*
X143131003Y-103080698D01*
X143048402Y-103055642D01*
X143021962Y-103053038D01*
X143019358Y-103026598D01*
X142994302Y-102943997D01*
X142953612Y-102867872D01*
X142898853Y-102801147D01*
X142832128Y-102746388D01*
X142756003Y-102705698D01*
X142673402Y-102680642D01*
X142616120Y-102675000D01*
X142673402Y-102669358D01*
X142756003Y-102644302D01*
X142832128Y-102603612D01*
X142898853Y-102548853D01*
X142953612Y-102482128D01*
X142994302Y-102406003D01*
X143019358Y-102323402D01*
X143027819Y-102237500D01*
X143027819Y-102112500D01*
X143019358Y-102026598D01*
X142994302Y-101943997D01*
X142984148Y-101925000D01*
X142994302Y-101906003D01*
X143019358Y-101823402D01*
X143027819Y-101737500D01*
X143027819Y-101612500D01*
X143019358Y-101526598D01*
X142994302Y-101443997D01*
X142984148Y-101425000D01*
X142994302Y-101406003D01*
X143019358Y-101323402D01*
X143027819Y-101237500D01*
X143027819Y-101112500D01*
X143019358Y-101026598D01*
X142994302Y-100943997D01*
X142984148Y-100925000D01*
X142994302Y-100906003D01*
X143019358Y-100823402D01*
X143027819Y-100737500D01*
X143027819Y-100612500D01*
X143019358Y-100526598D01*
X142994302Y-100443997D01*
X142984148Y-100425000D01*
X142994302Y-100406003D01*
X143019358Y-100323402D01*
X143027819Y-100237500D01*
X143027819Y-100112500D01*
X143019358Y-100026598D01*
X142994302Y-99943997D01*
X142984148Y-99925000D01*
X142994302Y-99906003D01*
X143019358Y-99823402D01*
X143027819Y-99737500D01*
X143027819Y-99612500D01*
X143019358Y-99526598D01*
X142994302Y-99443997D01*
X142984148Y-99425000D01*
X142994302Y-99406003D01*
X143019358Y-99323402D01*
X143027819Y-99237500D01*
X143027819Y-99112500D01*
X143019358Y-99026598D01*
X142994302Y-98943997D01*
X142984148Y-98925000D01*
X142994302Y-98906003D01*
X143019358Y-98823402D01*
X143027819Y-98737500D01*
X143027819Y-98612500D01*
X143019358Y-98526598D01*
X142994302Y-98443997D01*
X142984148Y-98425000D01*
X142994302Y-98406003D01*
X143019358Y-98323402D01*
X143027819Y-98237500D01*
X143027819Y-98112500D01*
X143019358Y-98026598D01*
X142994302Y-97943997D01*
X142984148Y-97925000D01*
X142994302Y-97906003D01*
X143019358Y-97823402D01*
X143021962Y-97796962D01*
X143048402Y-97794358D01*
X143131003Y-97769302D01*
X143207128Y-97728612D01*
X143273853Y-97673853D01*
X143328612Y-97607128D01*
X143369302Y-97531003D01*
X143394358Y-97448402D01*
X143400000Y-97391120D01*
X143405642Y-97448402D01*
X143430698Y-97531003D01*
X143471388Y-97607128D01*
X143526147Y-97673853D01*
X143592872Y-97728612D01*
X143668997Y-97769302D01*
X143751598Y-97794358D01*
X143837500Y-97802819D01*
X143962500Y-97802819D01*
X144048402Y-97794358D01*
X144131003Y-97769302D01*
X144150000Y-97759148D01*
X144168997Y-97769302D01*
X144251598Y-97794358D01*
X144337500Y-97802819D01*
X144462500Y-97802819D01*
X144548402Y-97794358D01*
X144631003Y-97769302D01*
X144707128Y-97728612D01*
X144773853Y-97673853D01*
X144828612Y-97607128D01*
X144869302Y-97531003D01*
X144894358Y-97448402D01*
X144900000Y-97391120D01*
X144905642Y-97448402D01*
G37*
X144905642Y-97448402D02*
X144930698Y-97531003D01*
X144971388Y-97607128D01*
X145026147Y-97673853D01*
X145092872Y-97728612D01*
X145168997Y-97769302D01*
X145251598Y-97794358D01*
X145337500Y-97802819D01*
X145462500Y-97802819D01*
X145548402Y-97794358D01*
X145631003Y-97769302D01*
X145650000Y-97759148D01*
X145668997Y-97769302D01*
X145751598Y-97794358D01*
X145837500Y-97802819D01*
X145962500Y-97802819D01*
X146048402Y-97794358D01*
X146131003Y-97769302D01*
X146150000Y-97759148D01*
X146168997Y-97769302D01*
X146251598Y-97794358D01*
X146337500Y-97802819D01*
X146462500Y-97802819D01*
X146548402Y-97794358D01*
X146631003Y-97769302D01*
X146650000Y-97759148D01*
X146668997Y-97769302D01*
X146751598Y-97794358D01*
X146837500Y-97802819D01*
X146962500Y-97802819D01*
X147048402Y-97794358D01*
X147131003Y-97769302D01*
X147150000Y-97759148D01*
X147168997Y-97769302D01*
X147251598Y-97794358D01*
X147337500Y-97802819D01*
X147462500Y-97802819D01*
X147548402Y-97794358D01*
X147631003Y-97769302D01*
X147650000Y-97759148D01*
X147668997Y-97769302D01*
X147751598Y-97794358D01*
X147837500Y-97802819D01*
X147962500Y-97802819D01*
X148048402Y-97794358D01*
X148131003Y-97769302D01*
X148150000Y-97759148D01*
X148168997Y-97769302D01*
X148251598Y-97794358D01*
X148278038Y-97796962D01*
X148280642Y-97823402D01*
X148305698Y-97906003D01*
X148315852Y-97925000D01*
X148305698Y-97943997D01*
X148280642Y-98026598D01*
X148272181Y-98112500D01*
X148272181Y-98237500D01*
X148280642Y-98323402D01*
X148305698Y-98406003D01*
X148315852Y-98425000D01*
X148305698Y-98443997D01*
X148280642Y-98526598D01*
X148272181Y-98612500D01*
X148272181Y-98737500D01*
X148280642Y-98823402D01*
X148305698Y-98906003D01*
X148315852Y-98925000D01*
X148305698Y-98943997D01*
X148280642Y-99026598D01*
X148272181Y-99112500D01*
X148272181Y-99237500D01*
X148280642Y-99323402D01*
X148305698Y-99406003D01*
X148346388Y-99482128D01*
X148401147Y-99548853D01*
X148467872Y-99603612D01*
X148543997Y-99644302D01*
X148626598Y-99669358D01*
X148683880Y-99675000D01*
X148626598Y-99680642D01*
X148543997Y-99705698D01*
X148467872Y-99746388D01*
X148401147Y-99801147D01*
X148346388Y-99867872D01*
X148305698Y-99943997D01*
X148280642Y-100026598D01*
X148272181Y-100112500D01*
X148272181Y-100237500D01*
X148280642Y-100323402D01*
X148305698Y-100406003D01*
X148315852Y-100425000D01*
X148305698Y-100443997D01*
X148280642Y-100526598D01*
X148272181Y-100612500D01*
X148272181Y-100737500D01*
X148280642Y-100823402D01*
X148305698Y-100906003D01*
X148315852Y-100925000D01*
X148305698Y-100943997D01*
X148280642Y-101026598D01*
X148272181Y-101112500D01*
X148272181Y-101237500D01*
X148280642Y-101323402D01*
X148305698Y-101406003D01*
X148315852Y-101425000D01*
X148305698Y-101443997D01*
X148280642Y-101526598D01*
X148272181Y-101612500D01*
X148272181Y-101737500D01*
X148280642Y-101823402D01*
X148305698Y-101906003D01*
X148315852Y-101925000D01*
X148305698Y-101943997D01*
X148280642Y-102026598D01*
X148272181Y-102112500D01*
X148272181Y-102237500D01*
X148280642Y-102323402D01*
X148305698Y-102406003D01*
X148315852Y-102425000D01*
X148305698Y-102443997D01*
X148280642Y-102526598D01*
X148272181Y-102612500D01*
X148272181Y-102737500D01*
X148280642Y-102823402D01*
X148305698Y-102906003D01*
X148315852Y-102925000D01*
X148305698Y-102943997D01*
X148280642Y-103026598D01*
X148278038Y-103053038D01*
X148251598Y-103055642D01*
X148168997Y-103080698D01*
X148092872Y-103121388D01*
X148026147Y-103176147D01*
X147971388Y-103242872D01*
X147930698Y-103318997D01*
X147905642Y-103401598D01*
X147900000Y-103458880D01*
X147894358Y-103401598D01*
X147869302Y-103318997D01*
X147828612Y-103242872D01*
X147773853Y-103176147D01*
X147707128Y-103121388D01*
X147631003Y-103080698D01*
X147548402Y-103055642D01*
X147462500Y-103047181D01*
X147337500Y-103047181D01*
X147251598Y-103055642D01*
X147168997Y-103080698D01*
X147150000Y-103090852D01*
X147131003Y-103080698D01*
X147048402Y-103055642D01*
X146962500Y-103047181D01*
X146837500Y-103047181D01*
X146751598Y-103055642D01*
X146668997Y-103080698D01*
X146650000Y-103090852D01*
X146631003Y-103080698D01*
X146548402Y-103055642D01*
X146462500Y-103047181D01*
X146337500Y-103047181D01*
X146251598Y-103055642D01*
X146168997Y-103080698D01*
X146150000Y-103090852D01*
X146131003Y-103080698D01*
X146048402Y-103055642D01*
X145962500Y-103047181D01*
X145837500Y-103047181D01*
X145751598Y-103055642D01*
X145668997Y-103080698D01*
X145650000Y-103090852D01*
X145631003Y-103080698D01*
X145548402Y-103055642D01*
X145462500Y-103047181D01*
X145337500Y-103047181D01*
X145251598Y-103055642D01*
X145168997Y-103080698D01*
X145150000Y-103090852D01*
X145131003Y-103080698D01*
X145048402Y-103055642D01*
X144962500Y-103047181D01*
X144837500Y-103047181D01*
X144751598Y-103055642D01*
X144668997Y-103080698D01*
X144650000Y-103090852D01*
X144631003Y-103080698D01*
X144548402Y-103055642D01*
X144462500Y-103047181D01*
X144337500Y-103047181D01*
X144251598Y-103055642D01*
X144168997Y-103080698D01*
X144150000Y-103090852D01*
X144131003Y-103080698D01*
X144048402Y-103055642D01*
X143962500Y-103047181D01*
X143837500Y-103047181D01*
X143751598Y-103055642D01*
X143668997Y-103080698D01*
X143650000Y-103090852D01*
X143631003Y-103080698D01*
X143548402Y-103055642D01*
X143462500Y-103047181D01*
X143337500Y-103047181D01*
X143251598Y-103055642D01*
X143168997Y-103080698D01*
X143150000Y-103090852D01*
X143131003Y-103080698D01*
X143048402Y-103055642D01*
X143021962Y-103053038D01*
X143019358Y-103026598D01*
X142994302Y-102943997D01*
X142953612Y-102867872D01*
X142898853Y-102801147D01*
X142832128Y-102746388D01*
X142756003Y-102705698D01*
X142673402Y-102680642D01*
X142616120Y-102675000D01*
X142673402Y-102669358D01*
X142756003Y-102644302D01*
X142832128Y-102603612D01*
X142898853Y-102548853D01*
X142953612Y-102482128D01*
X142994302Y-102406003D01*
X143019358Y-102323402D01*
X143027819Y-102237500D01*
X143027819Y-102112500D01*
X143019358Y-102026598D01*
X142994302Y-101943997D01*
X142984148Y-101925000D01*
X142994302Y-101906003D01*
X143019358Y-101823402D01*
X143027819Y-101737500D01*
X143027819Y-101612500D01*
X143019358Y-101526598D01*
X142994302Y-101443997D01*
X142984148Y-101425000D01*
X142994302Y-101406003D01*
X143019358Y-101323402D01*
X143027819Y-101237500D01*
X143027819Y-101112500D01*
X143019358Y-101026598D01*
X142994302Y-100943997D01*
X142984148Y-100925000D01*
X142994302Y-100906003D01*
X143019358Y-100823402D01*
X143027819Y-100737500D01*
X143027819Y-100612500D01*
X143019358Y-100526598D01*
X142994302Y-100443997D01*
X142984148Y-100425000D01*
X142994302Y-100406003D01*
X143019358Y-100323402D01*
X143027819Y-100237500D01*
X143027819Y-100112500D01*
X143019358Y-100026598D01*
X142994302Y-99943997D01*
X142984148Y-99925000D01*
X142994302Y-99906003D01*
X143019358Y-99823402D01*
X143027819Y-99737500D01*
X143027819Y-99612500D01*
X143019358Y-99526598D01*
X142994302Y-99443997D01*
X142984148Y-99425000D01*
X142994302Y-99406003D01*
X143019358Y-99323402D01*
X143027819Y-99237500D01*
X143027819Y-99112500D01*
X143019358Y-99026598D01*
X142994302Y-98943997D01*
X142984148Y-98925000D01*
X142994302Y-98906003D01*
X143019358Y-98823402D01*
X143027819Y-98737500D01*
X143027819Y-98612500D01*
X143019358Y-98526598D01*
X142994302Y-98443997D01*
X142984148Y-98425000D01*
X142994302Y-98406003D01*
X143019358Y-98323402D01*
X143027819Y-98237500D01*
X143027819Y-98112500D01*
X143019358Y-98026598D01*
X142994302Y-97943997D01*
X142984148Y-97925000D01*
X142994302Y-97906003D01*
X143019358Y-97823402D01*
X143021962Y-97796962D01*
X143048402Y-97794358D01*
X143131003Y-97769302D01*
X143207128Y-97728612D01*
X143273853Y-97673853D01*
X143328612Y-97607128D01*
X143369302Y-97531003D01*
X143394358Y-97448402D01*
X143400000Y-97391120D01*
X143405642Y-97448402D01*
X143430698Y-97531003D01*
X143471388Y-97607128D01*
X143526147Y-97673853D01*
X143592872Y-97728612D01*
X143668997Y-97769302D01*
X143751598Y-97794358D01*
X143837500Y-97802819D01*
X143962500Y-97802819D01*
X144048402Y-97794358D01*
X144131003Y-97769302D01*
X144150000Y-97759148D01*
X144168997Y-97769302D01*
X144251598Y-97794358D01*
X144337500Y-97802819D01*
X144462500Y-97802819D01*
X144548402Y-97794358D01*
X144631003Y-97769302D01*
X144707128Y-97728612D01*
X144773853Y-97673853D01*
X144828612Y-97607128D01*
X144869302Y-97531003D01*
X144894358Y-97448402D01*
X144900000Y-97391120D01*
X144905642Y-97448402D01*
G36*
X140619345Y-101983138D02*
G01*
X140635094Y-102002328D01*
X140711685Y-102065185D01*
X140799068Y-102111892D01*
X140893884Y-102140654D01*
X140902830Y-102141535D01*
X140902610Y-102142643D01*
X140902610Y-102266743D01*
X140926821Y-102388457D01*
X140974312Y-102503110D01*
X141043257Y-102606294D01*
X141131009Y-102694046D01*
X141234193Y-102762991D01*
X141348846Y-102810482D01*
X141470560Y-102834693D01*
X141498617Y-102834693D01*
X141471388Y-102867872D01*
X141430698Y-102943997D01*
X141405642Y-103026598D01*
X141397181Y-103112500D01*
X141397181Y-103237500D01*
X141405642Y-103323402D01*
X141430698Y-103406003D01*
X141451703Y-103445300D01*
X141319654Y-103445300D01*
X141267279Y-103347314D01*
X141193088Y-103256912D01*
X141102686Y-103182721D01*
X140999547Y-103127592D01*
X140887635Y-103093644D01*
X140771250Y-103082181D01*
X140258750Y-103082181D01*
X140142365Y-103093644D01*
X140030453Y-103127592D01*
X139927314Y-103182721D01*
X139836912Y-103256912D01*
X139785000Y-103320167D01*
X139733088Y-103256912D01*
X139642686Y-103182721D01*
X139539547Y-103127592D01*
X139427635Y-103093644D01*
X139311250Y-103082181D01*
X138798750Y-103082181D01*
X138682365Y-103093644D01*
X138570453Y-103127592D01*
X138467314Y-103182721D01*
X138376912Y-103256912D01*
X138322500Y-103323213D01*
X138268088Y-103256912D01*
X138177686Y-103182721D01*
X138074547Y-103127592D01*
X137962635Y-103093644D01*
X137846250Y-103082181D01*
X137333750Y-103082181D01*
X137217365Y-103093644D01*
X137105453Y-103127592D01*
X137002314Y-103182721D01*
X136911912Y-103256912D01*
X136837721Y-103347314D01*
X136785346Y-103445300D01*
X136597208Y-103445300D01*
X135042865Y-101890958D01*
X135028701Y-101873699D01*
X134959844Y-101817190D01*
X134932819Y-101802745D01*
X134932819Y-101745000D01*
X134928906Y-101705272D01*
X140341480Y-101705272D01*
X140619345Y-101983138D01*
G37*
X140619345Y-101983138D02*
X140635094Y-102002328D01*
X140711685Y-102065185D01*
X140799068Y-102111892D01*
X140893884Y-102140654D01*
X140902830Y-102141535D01*
X140902610Y-102142643D01*
X140902610Y-102266743D01*
X140926821Y-102388457D01*
X140974312Y-102503110D01*
X141043257Y-102606294D01*
X141131009Y-102694046D01*
X141234193Y-102762991D01*
X141348846Y-102810482D01*
X141470560Y-102834693D01*
X141498617Y-102834693D01*
X141471388Y-102867872D01*
X141430698Y-102943997D01*
X141405642Y-103026598D01*
X141397181Y-103112500D01*
X141397181Y-103237500D01*
X141405642Y-103323402D01*
X141430698Y-103406003D01*
X141451703Y-103445300D01*
X141319654Y-103445300D01*
X141267279Y-103347314D01*
X141193088Y-103256912D01*
X141102686Y-103182721D01*
X140999547Y-103127592D01*
X140887635Y-103093644D01*
X140771250Y-103082181D01*
X140258750Y-103082181D01*
X140142365Y-103093644D01*
X140030453Y-103127592D01*
X139927314Y-103182721D01*
X139836912Y-103256912D01*
X139785000Y-103320167D01*
X139733088Y-103256912D01*
X139642686Y-103182721D01*
X139539547Y-103127592D01*
X139427635Y-103093644D01*
X139311250Y-103082181D01*
X138798750Y-103082181D01*
X138682365Y-103093644D01*
X138570453Y-103127592D01*
X138467314Y-103182721D01*
X138376912Y-103256912D01*
X138322500Y-103323213D01*
X138268088Y-103256912D01*
X138177686Y-103182721D01*
X138074547Y-103127592D01*
X137962635Y-103093644D01*
X137846250Y-103082181D01*
X137333750Y-103082181D01*
X137217365Y-103093644D01*
X137105453Y-103127592D01*
X137002314Y-103182721D01*
X136911912Y-103256912D01*
X136837721Y-103347314D01*
X136785346Y-103445300D01*
X136597208Y-103445300D01*
X135042865Y-101890958D01*
X135028701Y-101873699D01*
X134959844Y-101817190D01*
X134932819Y-101802745D01*
X134932819Y-101745000D01*
X134928906Y-101705272D01*
X140341480Y-101705272D01*
X140619345Y-101983138D01*
G36*
X155985855Y-97360095D02*
G01*
X155950941Y-97425415D01*
X155929441Y-97496291D01*
X155922181Y-97570000D01*
X155922181Y-98570000D01*
X155929441Y-98643709D01*
X155950941Y-98714585D01*
X155985855Y-98779905D01*
X156015386Y-98815888D01*
X155948399Y-98860647D01*
X155860647Y-98948399D01*
X155791702Y-99051583D01*
X155744211Y-99166236D01*
X155720000Y-99287950D01*
X155720000Y-99412050D01*
X155744211Y-99533764D01*
X155791702Y-99648417D01*
X155847001Y-99731178D01*
X155847001Y-100000296D01*
X155844568Y-100025000D01*
X155854279Y-100123604D01*
X155883041Y-100218420D01*
X155899699Y-100249585D01*
X155922181Y-100291645D01*
X155922181Y-101070000D01*
X155929441Y-101143709D01*
X155950941Y-101214585D01*
X155985855Y-101279905D01*
X156010724Y-101310208D01*
X155987314Y-101322721D01*
X155896912Y-101396912D01*
X155822721Y-101487314D01*
X155767592Y-101590453D01*
X155763280Y-101604667D01*
X155727279Y-101537314D01*
X155653088Y-101446912D01*
X155562686Y-101372721D01*
X155459547Y-101317592D01*
X155347635Y-101283644D01*
X155231250Y-101272181D01*
X154718750Y-101272181D01*
X154602365Y-101283644D01*
X154490453Y-101317592D01*
X154387314Y-101372721D01*
X154296912Y-101446912D01*
X154275666Y-101472800D01*
X154252602Y-101472800D01*
X154245559Y-101401291D01*
X154224059Y-101330415D01*
X154189145Y-101265095D01*
X154142158Y-101207842D01*
X154084905Y-101160855D01*
X154019585Y-101125941D01*
X153948709Y-101104441D01*
X153875000Y-101097181D01*
X153867255Y-101097181D01*
X153852810Y-101070156D01*
X153796301Y-101001299D01*
X153779039Y-100987133D01*
X153734265Y-100942358D01*
X153720100Y-100925098D01*
X153651243Y-100868589D01*
X153572686Y-100826599D01*
X153487446Y-100800742D01*
X153421014Y-100794199D01*
X153421012Y-100794199D01*
X153398799Y-100792011D01*
X153376586Y-100794199D01*
X153152819Y-100794199D01*
X153152819Y-100075000D01*
X153145559Y-100001291D01*
X153124059Y-99930415D01*
X153089145Y-99865095D01*
X153042158Y-99807842D01*
X152984905Y-99760855D01*
X152919585Y-99725941D01*
X152848709Y-99704441D01*
X152775000Y-99697181D01*
X151975000Y-99697181D01*
X151901291Y-99704441D01*
X151830415Y-99725941D01*
X151765095Y-99760855D01*
X151707842Y-99807842D01*
X151660855Y-99865095D01*
X151631448Y-99920113D01*
X151627279Y-99912314D01*
X151553422Y-99822319D01*
X151637686Y-99777279D01*
X151728088Y-99703088D01*
X151802279Y-99612686D01*
X151857408Y-99509547D01*
X151891356Y-99397635D01*
X151902819Y-99281250D01*
X151902819Y-98768750D01*
X151891356Y-98652365D01*
X151857408Y-98540453D01*
X151802279Y-98437314D01*
X151728088Y-98346912D01*
X151637686Y-98272721D01*
X151534547Y-98217592D01*
X151422635Y-98183644D01*
X151306250Y-98172181D01*
X150868750Y-98172181D01*
X150752365Y-98183644D01*
X150640453Y-98217592D01*
X150604754Y-98236673D01*
X150567557Y-98181003D01*
X150513031Y-98126477D01*
X150612308Y-98027200D01*
X154465287Y-98027200D01*
X154487500Y-98029388D01*
X154509713Y-98027200D01*
X154509715Y-98027200D01*
X154576147Y-98020657D01*
X154661387Y-97994800D01*
X154739944Y-97952810D01*
X154808801Y-97896301D01*
X154822965Y-97879042D01*
X155259188Y-97442819D01*
X155676250Y-97442819D01*
X155792635Y-97431356D01*
X155904547Y-97397408D01*
X155994842Y-97349144D01*
X155985855Y-97360095D01*
G37*
X155985855Y-97360095D02*
X155950941Y-97425415D01*
X155929441Y-97496291D01*
X155922181Y-97570000D01*
X155922181Y-98570000D01*
X155929441Y-98643709D01*
X155950941Y-98714585D01*
X155985855Y-98779905D01*
X156015386Y-98815888D01*
X155948399Y-98860647D01*
X155860647Y-98948399D01*
X155791702Y-99051583D01*
X155744211Y-99166236D01*
X155720000Y-99287950D01*
X155720000Y-99412050D01*
X155744211Y-99533764D01*
X155791702Y-99648417D01*
X155847001Y-99731178D01*
X155847001Y-100000296D01*
X155844568Y-100025000D01*
X155854279Y-100123604D01*
X155883041Y-100218420D01*
X155899699Y-100249585D01*
X155922181Y-100291645D01*
X155922181Y-101070000D01*
X155929441Y-101143709D01*
X155950941Y-101214585D01*
X155985855Y-101279905D01*
X156010724Y-101310208D01*
X155987314Y-101322721D01*
X155896912Y-101396912D01*
X155822721Y-101487314D01*
X155767592Y-101590453D01*
X155763280Y-101604667D01*
X155727279Y-101537314D01*
X155653088Y-101446912D01*
X155562686Y-101372721D01*
X155459547Y-101317592D01*
X155347635Y-101283644D01*
X155231250Y-101272181D01*
X154718750Y-101272181D01*
X154602365Y-101283644D01*
X154490453Y-101317592D01*
X154387314Y-101372721D01*
X154296912Y-101446912D01*
X154275666Y-101472800D01*
X154252602Y-101472800D01*
X154245559Y-101401291D01*
X154224059Y-101330415D01*
X154189145Y-101265095D01*
X154142158Y-101207842D01*
X154084905Y-101160855D01*
X154019585Y-101125941D01*
X153948709Y-101104441D01*
X153875000Y-101097181D01*
X153867255Y-101097181D01*
X153852810Y-101070156D01*
X153796301Y-101001299D01*
X153779039Y-100987133D01*
X153734265Y-100942358D01*
X153720100Y-100925098D01*
X153651243Y-100868589D01*
X153572686Y-100826599D01*
X153487446Y-100800742D01*
X153421014Y-100794199D01*
X153421012Y-100794199D01*
X153398799Y-100792011D01*
X153376586Y-100794199D01*
X153152819Y-100794199D01*
X153152819Y-100075000D01*
X153145559Y-100001291D01*
X153124059Y-99930415D01*
X153089145Y-99865095D01*
X153042158Y-99807842D01*
X152984905Y-99760855D01*
X152919585Y-99725941D01*
X152848709Y-99704441D01*
X152775000Y-99697181D01*
X151975000Y-99697181D01*
X151901291Y-99704441D01*
X151830415Y-99725941D01*
X151765095Y-99760855D01*
X151707842Y-99807842D01*
X151660855Y-99865095D01*
X151631448Y-99920113D01*
X151627279Y-99912314D01*
X151553422Y-99822319D01*
X151637686Y-99777279D01*
X151728088Y-99703088D01*
X151802279Y-99612686D01*
X151857408Y-99509547D01*
X151891356Y-99397635D01*
X151902819Y-99281250D01*
X151902819Y-98768750D01*
X151891356Y-98652365D01*
X151857408Y-98540453D01*
X151802279Y-98437314D01*
X151728088Y-98346912D01*
X151637686Y-98272721D01*
X151534547Y-98217592D01*
X151422635Y-98183644D01*
X151306250Y-98172181D01*
X150868750Y-98172181D01*
X150752365Y-98183644D01*
X150640453Y-98217592D01*
X150604754Y-98236673D01*
X150567557Y-98181003D01*
X150513031Y-98126477D01*
X150612308Y-98027200D01*
X154465287Y-98027200D01*
X154487500Y-98029388D01*
X154509713Y-98027200D01*
X154509715Y-98027200D01*
X154576147Y-98020657D01*
X154661387Y-97994800D01*
X154739944Y-97952810D01*
X154808801Y-97896301D01*
X154822965Y-97879042D01*
X155259188Y-97442819D01*
X155676250Y-97442819D01*
X155792635Y-97431356D01*
X155904547Y-97397408D01*
X155994842Y-97349144D01*
X155985855Y-97360095D01*
M02*
