G04 #@! TF.GenerationSoftware,KiCad,Pcbnew,(5.1.6-0-10_14)*
G04 #@! TF.CreationDate,2020-07-04T12:59:23-07:00*
G04 #@! TF.ProjectId,Compact,436f6d70-6163-4742-9e6b-696361645f70,rev?*
G04 #@! TF.SameCoordinates,Original*
G04 #@! TF.FileFunction,Paste,Top*
G04 #@! TF.FilePolarity,Positive*
%FSLAX46Y46*%
G04 Gerber Fmt 4.6, Leading zero omitted, Abs format (unit mm)*
G04 Created by KiCad (PCBNEW (5.1.6-0-10_14)) date 2020-07-04 12:59:23*
%MOMM*%
%LPD*%
G01*
G04 APERTURE LIST*
%ADD10R,0.700000X0.450000*%
%ADD11R,0.500000X1.480000*%
%ADD12R,0.500000X1.000000*%
%ADD13R,0.800000X0.500000*%
%ADD14R,0.800000X0.300000*%
%ADD15R,0.750000X0.300000*%
%ADD16R,1.060000X0.650000*%
%ADD17R,1.000000X1.000000*%
%ADD18R,0.800000X0.900000*%
%ADD19R,2.500000X4.400000*%
%ADD20R,1.650000X0.400000*%
%ADD21R,1.500000X2.000000*%
G04 APERTURE END LIST*
G36*
G01*
X148525000Y-103487500D02*
X148525000Y-104237500D01*
G75*
G02*
X148462500Y-104300000I-62500J0D01*
G01*
X148337500Y-104300000D01*
G75*
G02*
X148275000Y-104237500I0J62500D01*
G01*
X148275000Y-103487500D01*
G75*
G02*
X148337500Y-103425000I62500J0D01*
G01*
X148462500Y-103425000D01*
G75*
G02*
X148525000Y-103487500I0J-62500D01*
G01*
G37*
G36*
G01*
X148025000Y-103487500D02*
X148025000Y-104237500D01*
G75*
G02*
X147962500Y-104300000I-62500J0D01*
G01*
X147837500Y-104300000D01*
G75*
G02*
X147775000Y-104237500I0J62500D01*
G01*
X147775000Y-103487500D01*
G75*
G02*
X147837500Y-103425000I62500J0D01*
G01*
X147962500Y-103425000D01*
G75*
G02*
X148025000Y-103487500I0J-62500D01*
G01*
G37*
G36*
G01*
X147525000Y-103487500D02*
X147525000Y-104237500D01*
G75*
G02*
X147462500Y-104300000I-62500J0D01*
G01*
X147337500Y-104300000D01*
G75*
G02*
X147275000Y-104237500I0J62500D01*
G01*
X147275000Y-103487500D01*
G75*
G02*
X147337500Y-103425000I62500J0D01*
G01*
X147462500Y-103425000D01*
G75*
G02*
X147525000Y-103487500I0J-62500D01*
G01*
G37*
G36*
G01*
X147025000Y-103487500D02*
X147025000Y-104237500D01*
G75*
G02*
X146962500Y-104300000I-62500J0D01*
G01*
X146837500Y-104300000D01*
G75*
G02*
X146775000Y-104237500I0J62500D01*
G01*
X146775000Y-103487500D01*
G75*
G02*
X146837500Y-103425000I62500J0D01*
G01*
X146962500Y-103425000D01*
G75*
G02*
X147025000Y-103487500I0J-62500D01*
G01*
G37*
G36*
G01*
X146525000Y-103487500D02*
X146525000Y-104237500D01*
G75*
G02*
X146462500Y-104300000I-62500J0D01*
G01*
X146337500Y-104300000D01*
G75*
G02*
X146275000Y-104237500I0J62500D01*
G01*
X146275000Y-103487500D01*
G75*
G02*
X146337500Y-103425000I62500J0D01*
G01*
X146462500Y-103425000D01*
G75*
G02*
X146525000Y-103487500I0J-62500D01*
G01*
G37*
G36*
G01*
X146025000Y-103487500D02*
X146025000Y-104237500D01*
G75*
G02*
X145962500Y-104300000I-62500J0D01*
G01*
X145837500Y-104300000D01*
G75*
G02*
X145775000Y-104237500I0J62500D01*
G01*
X145775000Y-103487500D01*
G75*
G02*
X145837500Y-103425000I62500J0D01*
G01*
X145962500Y-103425000D01*
G75*
G02*
X146025000Y-103487500I0J-62500D01*
G01*
G37*
G36*
G01*
X145525000Y-103487500D02*
X145525000Y-104237500D01*
G75*
G02*
X145462500Y-104300000I-62500J0D01*
G01*
X145337500Y-104300000D01*
G75*
G02*
X145275000Y-104237500I0J62500D01*
G01*
X145275000Y-103487500D01*
G75*
G02*
X145337500Y-103425000I62500J0D01*
G01*
X145462500Y-103425000D01*
G75*
G02*
X145525000Y-103487500I0J-62500D01*
G01*
G37*
G36*
G01*
X145025000Y-103487500D02*
X145025000Y-104237500D01*
G75*
G02*
X144962500Y-104300000I-62500J0D01*
G01*
X144837500Y-104300000D01*
G75*
G02*
X144775000Y-104237500I0J62500D01*
G01*
X144775000Y-103487500D01*
G75*
G02*
X144837500Y-103425000I62500J0D01*
G01*
X144962500Y-103425000D01*
G75*
G02*
X145025000Y-103487500I0J-62500D01*
G01*
G37*
G36*
G01*
X144525000Y-103487500D02*
X144525000Y-104237500D01*
G75*
G02*
X144462500Y-104300000I-62500J0D01*
G01*
X144337500Y-104300000D01*
G75*
G02*
X144275000Y-104237500I0J62500D01*
G01*
X144275000Y-103487500D01*
G75*
G02*
X144337500Y-103425000I62500J0D01*
G01*
X144462500Y-103425000D01*
G75*
G02*
X144525000Y-103487500I0J-62500D01*
G01*
G37*
G36*
G01*
X144025000Y-103487500D02*
X144025000Y-104237500D01*
G75*
G02*
X143962500Y-104300000I-62500J0D01*
G01*
X143837500Y-104300000D01*
G75*
G02*
X143775000Y-104237500I0J62500D01*
G01*
X143775000Y-103487500D01*
G75*
G02*
X143837500Y-103425000I62500J0D01*
G01*
X143962500Y-103425000D01*
G75*
G02*
X144025000Y-103487500I0J-62500D01*
G01*
G37*
G36*
G01*
X143525000Y-103487500D02*
X143525000Y-104237500D01*
G75*
G02*
X143462500Y-104300000I-62500J0D01*
G01*
X143337500Y-104300000D01*
G75*
G02*
X143275000Y-104237500I0J62500D01*
G01*
X143275000Y-103487500D01*
G75*
G02*
X143337500Y-103425000I62500J0D01*
G01*
X143462500Y-103425000D01*
G75*
G02*
X143525000Y-103487500I0J-62500D01*
G01*
G37*
G36*
G01*
X143025000Y-103487500D02*
X143025000Y-104237500D01*
G75*
G02*
X142962500Y-104300000I-62500J0D01*
G01*
X142837500Y-104300000D01*
G75*
G02*
X142775000Y-104237500I0J62500D01*
G01*
X142775000Y-103487500D01*
G75*
G02*
X142837500Y-103425000I62500J0D01*
G01*
X142962500Y-103425000D01*
G75*
G02*
X143025000Y-103487500I0J-62500D01*
G01*
G37*
G36*
G01*
X142650000Y-103112500D02*
X142650000Y-103237500D01*
G75*
G02*
X142587500Y-103300000I-62500J0D01*
G01*
X141837500Y-103300000D01*
G75*
G02*
X141775000Y-103237500I0J62500D01*
G01*
X141775000Y-103112500D01*
G75*
G02*
X141837500Y-103050000I62500J0D01*
G01*
X142587500Y-103050000D01*
G75*
G02*
X142650000Y-103112500I0J-62500D01*
G01*
G37*
G36*
G01*
X142650000Y-102612500D02*
X142650000Y-102737500D01*
G75*
G02*
X142587500Y-102800000I-62500J0D01*
G01*
X141837500Y-102800000D01*
G75*
G02*
X141775000Y-102737500I0J62500D01*
G01*
X141775000Y-102612500D01*
G75*
G02*
X141837500Y-102550000I62500J0D01*
G01*
X142587500Y-102550000D01*
G75*
G02*
X142650000Y-102612500I0J-62500D01*
G01*
G37*
G36*
G01*
X142650000Y-102112500D02*
X142650000Y-102237500D01*
G75*
G02*
X142587500Y-102300000I-62500J0D01*
G01*
X141837500Y-102300000D01*
G75*
G02*
X141775000Y-102237500I0J62500D01*
G01*
X141775000Y-102112500D01*
G75*
G02*
X141837500Y-102050000I62500J0D01*
G01*
X142587500Y-102050000D01*
G75*
G02*
X142650000Y-102112500I0J-62500D01*
G01*
G37*
G36*
G01*
X142650000Y-101612500D02*
X142650000Y-101737500D01*
G75*
G02*
X142587500Y-101800000I-62500J0D01*
G01*
X141837500Y-101800000D01*
G75*
G02*
X141775000Y-101737500I0J62500D01*
G01*
X141775000Y-101612500D01*
G75*
G02*
X141837500Y-101550000I62500J0D01*
G01*
X142587500Y-101550000D01*
G75*
G02*
X142650000Y-101612500I0J-62500D01*
G01*
G37*
G36*
G01*
X142650000Y-101112500D02*
X142650000Y-101237500D01*
G75*
G02*
X142587500Y-101300000I-62500J0D01*
G01*
X141837500Y-101300000D01*
G75*
G02*
X141775000Y-101237500I0J62500D01*
G01*
X141775000Y-101112500D01*
G75*
G02*
X141837500Y-101050000I62500J0D01*
G01*
X142587500Y-101050000D01*
G75*
G02*
X142650000Y-101112500I0J-62500D01*
G01*
G37*
G36*
G01*
X142650000Y-100612500D02*
X142650000Y-100737500D01*
G75*
G02*
X142587500Y-100800000I-62500J0D01*
G01*
X141837500Y-100800000D01*
G75*
G02*
X141775000Y-100737500I0J62500D01*
G01*
X141775000Y-100612500D01*
G75*
G02*
X141837500Y-100550000I62500J0D01*
G01*
X142587500Y-100550000D01*
G75*
G02*
X142650000Y-100612500I0J-62500D01*
G01*
G37*
G36*
G01*
X142650000Y-100112500D02*
X142650000Y-100237500D01*
G75*
G02*
X142587500Y-100300000I-62500J0D01*
G01*
X141837500Y-100300000D01*
G75*
G02*
X141775000Y-100237500I0J62500D01*
G01*
X141775000Y-100112500D01*
G75*
G02*
X141837500Y-100050000I62500J0D01*
G01*
X142587500Y-100050000D01*
G75*
G02*
X142650000Y-100112500I0J-62500D01*
G01*
G37*
G36*
G01*
X142650000Y-99612500D02*
X142650000Y-99737500D01*
G75*
G02*
X142587500Y-99800000I-62500J0D01*
G01*
X141837500Y-99800000D01*
G75*
G02*
X141775000Y-99737500I0J62500D01*
G01*
X141775000Y-99612500D01*
G75*
G02*
X141837500Y-99550000I62500J0D01*
G01*
X142587500Y-99550000D01*
G75*
G02*
X142650000Y-99612500I0J-62500D01*
G01*
G37*
G36*
G01*
X142650000Y-99112500D02*
X142650000Y-99237500D01*
G75*
G02*
X142587500Y-99300000I-62500J0D01*
G01*
X141837500Y-99300000D01*
G75*
G02*
X141775000Y-99237500I0J62500D01*
G01*
X141775000Y-99112500D01*
G75*
G02*
X141837500Y-99050000I62500J0D01*
G01*
X142587500Y-99050000D01*
G75*
G02*
X142650000Y-99112500I0J-62500D01*
G01*
G37*
G36*
G01*
X142650000Y-98612500D02*
X142650000Y-98737500D01*
G75*
G02*
X142587500Y-98800000I-62500J0D01*
G01*
X141837500Y-98800000D01*
G75*
G02*
X141775000Y-98737500I0J62500D01*
G01*
X141775000Y-98612500D01*
G75*
G02*
X141837500Y-98550000I62500J0D01*
G01*
X142587500Y-98550000D01*
G75*
G02*
X142650000Y-98612500I0J-62500D01*
G01*
G37*
G36*
G01*
X142650000Y-98112500D02*
X142650000Y-98237500D01*
G75*
G02*
X142587500Y-98300000I-62500J0D01*
G01*
X141837500Y-98300000D01*
G75*
G02*
X141775000Y-98237500I0J62500D01*
G01*
X141775000Y-98112500D01*
G75*
G02*
X141837500Y-98050000I62500J0D01*
G01*
X142587500Y-98050000D01*
G75*
G02*
X142650000Y-98112500I0J-62500D01*
G01*
G37*
G36*
G01*
X142650000Y-97612500D02*
X142650000Y-97737500D01*
G75*
G02*
X142587500Y-97800000I-62500J0D01*
G01*
X141837500Y-97800000D01*
G75*
G02*
X141775000Y-97737500I0J62500D01*
G01*
X141775000Y-97612500D01*
G75*
G02*
X141837500Y-97550000I62500J0D01*
G01*
X142587500Y-97550000D01*
G75*
G02*
X142650000Y-97612500I0J-62500D01*
G01*
G37*
G36*
G01*
X143025000Y-96612500D02*
X143025000Y-97362500D01*
G75*
G02*
X142962500Y-97425000I-62500J0D01*
G01*
X142837500Y-97425000D01*
G75*
G02*
X142775000Y-97362500I0J62500D01*
G01*
X142775000Y-96612500D01*
G75*
G02*
X142837500Y-96550000I62500J0D01*
G01*
X142962500Y-96550000D01*
G75*
G02*
X143025000Y-96612500I0J-62500D01*
G01*
G37*
G36*
G01*
X143525000Y-96612500D02*
X143525000Y-97362500D01*
G75*
G02*
X143462500Y-97425000I-62500J0D01*
G01*
X143337500Y-97425000D01*
G75*
G02*
X143275000Y-97362500I0J62500D01*
G01*
X143275000Y-96612500D01*
G75*
G02*
X143337500Y-96550000I62500J0D01*
G01*
X143462500Y-96550000D01*
G75*
G02*
X143525000Y-96612500I0J-62500D01*
G01*
G37*
G36*
G01*
X144025000Y-96612500D02*
X144025000Y-97362500D01*
G75*
G02*
X143962500Y-97425000I-62500J0D01*
G01*
X143837500Y-97425000D01*
G75*
G02*
X143775000Y-97362500I0J62500D01*
G01*
X143775000Y-96612500D01*
G75*
G02*
X143837500Y-96550000I62500J0D01*
G01*
X143962500Y-96550000D01*
G75*
G02*
X144025000Y-96612500I0J-62500D01*
G01*
G37*
G36*
G01*
X144525000Y-96612500D02*
X144525000Y-97362500D01*
G75*
G02*
X144462500Y-97425000I-62500J0D01*
G01*
X144337500Y-97425000D01*
G75*
G02*
X144275000Y-97362500I0J62500D01*
G01*
X144275000Y-96612500D01*
G75*
G02*
X144337500Y-96550000I62500J0D01*
G01*
X144462500Y-96550000D01*
G75*
G02*
X144525000Y-96612500I0J-62500D01*
G01*
G37*
G36*
G01*
X145025000Y-96612500D02*
X145025000Y-97362500D01*
G75*
G02*
X144962500Y-97425000I-62500J0D01*
G01*
X144837500Y-97425000D01*
G75*
G02*
X144775000Y-97362500I0J62500D01*
G01*
X144775000Y-96612500D01*
G75*
G02*
X144837500Y-96550000I62500J0D01*
G01*
X144962500Y-96550000D01*
G75*
G02*
X145025000Y-96612500I0J-62500D01*
G01*
G37*
G36*
G01*
X145525000Y-96612500D02*
X145525000Y-97362500D01*
G75*
G02*
X145462500Y-97425000I-62500J0D01*
G01*
X145337500Y-97425000D01*
G75*
G02*
X145275000Y-97362500I0J62500D01*
G01*
X145275000Y-96612500D01*
G75*
G02*
X145337500Y-96550000I62500J0D01*
G01*
X145462500Y-96550000D01*
G75*
G02*
X145525000Y-96612500I0J-62500D01*
G01*
G37*
G36*
G01*
X146025000Y-96612500D02*
X146025000Y-97362500D01*
G75*
G02*
X145962500Y-97425000I-62500J0D01*
G01*
X145837500Y-97425000D01*
G75*
G02*
X145775000Y-97362500I0J62500D01*
G01*
X145775000Y-96612500D01*
G75*
G02*
X145837500Y-96550000I62500J0D01*
G01*
X145962500Y-96550000D01*
G75*
G02*
X146025000Y-96612500I0J-62500D01*
G01*
G37*
G36*
G01*
X146525000Y-96612500D02*
X146525000Y-97362500D01*
G75*
G02*
X146462500Y-97425000I-62500J0D01*
G01*
X146337500Y-97425000D01*
G75*
G02*
X146275000Y-97362500I0J62500D01*
G01*
X146275000Y-96612500D01*
G75*
G02*
X146337500Y-96550000I62500J0D01*
G01*
X146462500Y-96550000D01*
G75*
G02*
X146525000Y-96612500I0J-62500D01*
G01*
G37*
G36*
G01*
X147025000Y-96612500D02*
X147025000Y-97362500D01*
G75*
G02*
X146962500Y-97425000I-62500J0D01*
G01*
X146837500Y-97425000D01*
G75*
G02*
X146775000Y-97362500I0J62500D01*
G01*
X146775000Y-96612500D01*
G75*
G02*
X146837500Y-96550000I62500J0D01*
G01*
X146962500Y-96550000D01*
G75*
G02*
X147025000Y-96612500I0J-62500D01*
G01*
G37*
G36*
G01*
X147525000Y-96612500D02*
X147525000Y-97362500D01*
G75*
G02*
X147462500Y-97425000I-62500J0D01*
G01*
X147337500Y-97425000D01*
G75*
G02*
X147275000Y-97362500I0J62500D01*
G01*
X147275000Y-96612500D01*
G75*
G02*
X147337500Y-96550000I62500J0D01*
G01*
X147462500Y-96550000D01*
G75*
G02*
X147525000Y-96612500I0J-62500D01*
G01*
G37*
G36*
G01*
X148025000Y-96612500D02*
X148025000Y-97362500D01*
G75*
G02*
X147962500Y-97425000I-62500J0D01*
G01*
X147837500Y-97425000D01*
G75*
G02*
X147775000Y-97362500I0J62500D01*
G01*
X147775000Y-96612500D01*
G75*
G02*
X147837500Y-96550000I62500J0D01*
G01*
X147962500Y-96550000D01*
G75*
G02*
X148025000Y-96612500I0J-62500D01*
G01*
G37*
G36*
G01*
X148525000Y-96612500D02*
X148525000Y-97362500D01*
G75*
G02*
X148462500Y-97425000I-62500J0D01*
G01*
X148337500Y-97425000D01*
G75*
G02*
X148275000Y-97362500I0J62500D01*
G01*
X148275000Y-96612500D01*
G75*
G02*
X148337500Y-96550000I62500J0D01*
G01*
X148462500Y-96550000D01*
G75*
G02*
X148525000Y-96612500I0J-62500D01*
G01*
G37*
G36*
G01*
X149525000Y-97612500D02*
X149525000Y-97737500D01*
G75*
G02*
X149462500Y-97800000I-62500J0D01*
G01*
X148712500Y-97800000D01*
G75*
G02*
X148650000Y-97737500I0J62500D01*
G01*
X148650000Y-97612500D01*
G75*
G02*
X148712500Y-97550000I62500J0D01*
G01*
X149462500Y-97550000D01*
G75*
G02*
X149525000Y-97612500I0J-62500D01*
G01*
G37*
G36*
G01*
X149525000Y-98112500D02*
X149525000Y-98237500D01*
G75*
G02*
X149462500Y-98300000I-62500J0D01*
G01*
X148712500Y-98300000D01*
G75*
G02*
X148650000Y-98237500I0J62500D01*
G01*
X148650000Y-98112500D01*
G75*
G02*
X148712500Y-98050000I62500J0D01*
G01*
X149462500Y-98050000D01*
G75*
G02*
X149525000Y-98112500I0J-62500D01*
G01*
G37*
G36*
G01*
X149525000Y-98612500D02*
X149525000Y-98737500D01*
G75*
G02*
X149462500Y-98800000I-62500J0D01*
G01*
X148712500Y-98800000D01*
G75*
G02*
X148650000Y-98737500I0J62500D01*
G01*
X148650000Y-98612500D01*
G75*
G02*
X148712500Y-98550000I62500J0D01*
G01*
X149462500Y-98550000D01*
G75*
G02*
X149525000Y-98612500I0J-62500D01*
G01*
G37*
G36*
G01*
X149525000Y-99112500D02*
X149525000Y-99237500D01*
G75*
G02*
X149462500Y-99300000I-62500J0D01*
G01*
X148712500Y-99300000D01*
G75*
G02*
X148650000Y-99237500I0J62500D01*
G01*
X148650000Y-99112500D01*
G75*
G02*
X148712500Y-99050000I62500J0D01*
G01*
X149462500Y-99050000D01*
G75*
G02*
X149525000Y-99112500I0J-62500D01*
G01*
G37*
G36*
G01*
X149525000Y-99612500D02*
X149525000Y-99737500D01*
G75*
G02*
X149462500Y-99800000I-62500J0D01*
G01*
X148712500Y-99800000D01*
G75*
G02*
X148650000Y-99737500I0J62500D01*
G01*
X148650000Y-99612500D01*
G75*
G02*
X148712500Y-99550000I62500J0D01*
G01*
X149462500Y-99550000D01*
G75*
G02*
X149525000Y-99612500I0J-62500D01*
G01*
G37*
G36*
G01*
X149525000Y-100112500D02*
X149525000Y-100237500D01*
G75*
G02*
X149462500Y-100300000I-62500J0D01*
G01*
X148712500Y-100300000D01*
G75*
G02*
X148650000Y-100237500I0J62500D01*
G01*
X148650000Y-100112500D01*
G75*
G02*
X148712500Y-100050000I62500J0D01*
G01*
X149462500Y-100050000D01*
G75*
G02*
X149525000Y-100112500I0J-62500D01*
G01*
G37*
G36*
G01*
X149525000Y-100612500D02*
X149525000Y-100737500D01*
G75*
G02*
X149462500Y-100800000I-62500J0D01*
G01*
X148712500Y-100800000D01*
G75*
G02*
X148650000Y-100737500I0J62500D01*
G01*
X148650000Y-100612500D01*
G75*
G02*
X148712500Y-100550000I62500J0D01*
G01*
X149462500Y-100550000D01*
G75*
G02*
X149525000Y-100612500I0J-62500D01*
G01*
G37*
G36*
G01*
X149525000Y-101112500D02*
X149525000Y-101237500D01*
G75*
G02*
X149462500Y-101300000I-62500J0D01*
G01*
X148712500Y-101300000D01*
G75*
G02*
X148650000Y-101237500I0J62500D01*
G01*
X148650000Y-101112500D01*
G75*
G02*
X148712500Y-101050000I62500J0D01*
G01*
X149462500Y-101050000D01*
G75*
G02*
X149525000Y-101112500I0J-62500D01*
G01*
G37*
G36*
G01*
X149525000Y-101612500D02*
X149525000Y-101737500D01*
G75*
G02*
X149462500Y-101800000I-62500J0D01*
G01*
X148712500Y-101800000D01*
G75*
G02*
X148650000Y-101737500I0J62500D01*
G01*
X148650000Y-101612500D01*
G75*
G02*
X148712500Y-101550000I62500J0D01*
G01*
X149462500Y-101550000D01*
G75*
G02*
X149525000Y-101612500I0J-62500D01*
G01*
G37*
G36*
G01*
X149525000Y-102112500D02*
X149525000Y-102237500D01*
G75*
G02*
X149462500Y-102300000I-62500J0D01*
G01*
X148712500Y-102300000D01*
G75*
G02*
X148650000Y-102237500I0J62500D01*
G01*
X148650000Y-102112500D01*
G75*
G02*
X148712500Y-102050000I62500J0D01*
G01*
X149462500Y-102050000D01*
G75*
G02*
X149525000Y-102112500I0J-62500D01*
G01*
G37*
G36*
G01*
X149525000Y-102612500D02*
X149525000Y-102737500D01*
G75*
G02*
X149462500Y-102800000I-62500J0D01*
G01*
X148712500Y-102800000D01*
G75*
G02*
X148650000Y-102737500I0J62500D01*
G01*
X148650000Y-102612500D01*
G75*
G02*
X148712500Y-102550000I62500J0D01*
G01*
X149462500Y-102550000D01*
G75*
G02*
X149525000Y-102612500I0J-62500D01*
G01*
G37*
G36*
G01*
X149525000Y-103112500D02*
X149525000Y-103237500D01*
G75*
G02*
X149462500Y-103300000I-62500J0D01*
G01*
X148712500Y-103300000D01*
G75*
G02*
X148650000Y-103237500I0J62500D01*
G01*
X148650000Y-103112500D01*
G75*
G02*
X148712500Y-103050000I62500J0D01*
G01*
X149462500Y-103050000D01*
G75*
G02*
X149525000Y-103112500I0J-62500D01*
G01*
G37*
G36*
G01*
X145515000Y-99410000D02*
X145515000Y-100040000D01*
G75*
G02*
X145265000Y-100290000I-250000J0D01*
G01*
X144635000Y-100290000D01*
G75*
G02*
X144385000Y-100040000I0J250000D01*
G01*
X144385000Y-99410000D01*
G75*
G02*
X144635000Y-99160000I250000J0D01*
G01*
X145265000Y-99160000D01*
G75*
G02*
X145515000Y-99410000I0J-250000D01*
G01*
G37*
G36*
G01*
X145515000Y-100810000D02*
X145515000Y-101440000D01*
G75*
G02*
X145265000Y-101690000I-250000J0D01*
G01*
X144635000Y-101690000D01*
G75*
G02*
X144385000Y-101440000I0J250000D01*
G01*
X144385000Y-100810000D01*
G75*
G02*
X144635000Y-100560000I250000J0D01*
G01*
X145265000Y-100560000D01*
G75*
G02*
X145515000Y-100810000I0J-250000D01*
G01*
G37*
G36*
G01*
X146915000Y-99410000D02*
X146915000Y-100040000D01*
G75*
G02*
X146665000Y-100290000I-250000J0D01*
G01*
X146035000Y-100290000D01*
G75*
G02*
X145785000Y-100040000I0J250000D01*
G01*
X145785000Y-99410000D01*
G75*
G02*
X146035000Y-99160000I250000J0D01*
G01*
X146665000Y-99160000D01*
G75*
G02*
X146915000Y-99410000I0J-250000D01*
G01*
G37*
G36*
G01*
X146915000Y-100810000D02*
X146915000Y-101440000D01*
G75*
G02*
X146665000Y-101690000I-250000J0D01*
G01*
X146035000Y-101690000D01*
G75*
G02*
X145785000Y-101440000I0J250000D01*
G01*
X145785000Y-100810000D01*
G75*
G02*
X146035000Y-100560000I250000J0D01*
G01*
X146665000Y-100560000D01*
G75*
G02*
X146915000Y-100810000I0J-250000D01*
G01*
G37*
D10*
X153900000Y-94560000D03*
X155900000Y-93910000D03*
X155900000Y-95210000D03*
G36*
G01*
X145333750Y-94750000D02*
X145846250Y-94750000D01*
G75*
G02*
X146065000Y-94968750I0J-218750D01*
G01*
X146065000Y-95406250D01*
G75*
G02*
X145846250Y-95625000I-218750J0D01*
G01*
X145333750Y-95625000D01*
G75*
G02*
X145115000Y-95406250I0J218750D01*
G01*
X145115000Y-94968750D01*
G75*
G02*
X145333750Y-94750000I218750J0D01*
G01*
G37*
G36*
G01*
X145333750Y-93175000D02*
X145846250Y-93175000D01*
G75*
G02*
X146065000Y-93393750I0J-218750D01*
G01*
X146065000Y-93831250D01*
G75*
G02*
X145846250Y-94050000I-218750J0D01*
G01*
X145333750Y-94050000D01*
G75*
G02*
X145115000Y-93831250I0J218750D01*
G01*
X145115000Y-93393750D01*
G75*
G02*
X145333750Y-93175000I218750J0D01*
G01*
G37*
G36*
G01*
X152050000Y-96866250D02*
X152050000Y-96353750D01*
G75*
G02*
X152268750Y-96135000I218750J0D01*
G01*
X152706250Y-96135000D01*
G75*
G02*
X152925000Y-96353750I0J-218750D01*
G01*
X152925000Y-96866250D01*
G75*
G02*
X152706250Y-97085000I-218750J0D01*
G01*
X152268750Y-97085000D01*
G75*
G02*
X152050000Y-96866250I0J218750D01*
G01*
G37*
G36*
G01*
X150475000Y-96866250D02*
X150475000Y-96353750D01*
G75*
G02*
X150693750Y-96135000I218750J0D01*
G01*
X151131250Y-96135000D01*
G75*
G02*
X151350000Y-96353750I0J-218750D01*
G01*
X151350000Y-96866250D01*
G75*
G02*
X151131250Y-97085000I-218750J0D01*
G01*
X150693750Y-97085000D01*
G75*
G02*
X150475000Y-96866250I0J218750D01*
G01*
G37*
G36*
G01*
X154320000Y-96333750D02*
X154320000Y-96846250D01*
G75*
G02*
X154101250Y-97065000I-218750J0D01*
G01*
X153663750Y-97065000D01*
G75*
G02*
X153445000Y-96846250I0J218750D01*
G01*
X153445000Y-96333750D01*
G75*
G02*
X153663750Y-96115000I218750J0D01*
G01*
X154101250Y-96115000D01*
G75*
G02*
X154320000Y-96333750I0J-218750D01*
G01*
G37*
G36*
G01*
X155895000Y-96333750D02*
X155895000Y-96846250D01*
G75*
G02*
X155676250Y-97065000I-218750J0D01*
G01*
X155238750Y-97065000D01*
G75*
G02*
X155020000Y-96846250I0J218750D01*
G01*
X155020000Y-96333750D01*
G75*
G02*
X155238750Y-96115000I218750J0D01*
G01*
X155676250Y-96115000D01*
G75*
G02*
X155895000Y-96333750I0J-218750D01*
G01*
G37*
G36*
G01*
X161925000Y-91311250D02*
X161925000Y-90798750D01*
G75*
G02*
X162143750Y-90580000I218750J0D01*
G01*
X162581250Y-90580000D01*
G75*
G02*
X162800000Y-90798750I0J-218750D01*
G01*
X162800000Y-91311250D01*
G75*
G02*
X162581250Y-91530000I-218750J0D01*
G01*
X162143750Y-91530000D01*
G75*
G02*
X161925000Y-91311250I0J218750D01*
G01*
G37*
G36*
G01*
X160350000Y-91311250D02*
X160350000Y-90798750D01*
G75*
G02*
X160568750Y-90580000I218750J0D01*
G01*
X161006250Y-90580000D01*
G75*
G02*
X161225000Y-90798750I0J-218750D01*
G01*
X161225000Y-91311250D01*
G75*
G02*
X161006250Y-91530000I-218750J0D01*
G01*
X160568750Y-91530000D01*
G75*
G02*
X160350000Y-91311250I0J218750D01*
G01*
G37*
X149025000Y-94575000D03*
X147025000Y-95225000D03*
X147025000Y-93925000D03*
X150475000Y-94575000D03*
X152475000Y-93925000D03*
X152475000Y-95225000D03*
X160800000Y-93100000D03*
X162800000Y-92450000D03*
X162800000Y-93750000D03*
D11*
X134700000Y-98740000D03*
D12*
X134700000Y-97320000D03*
D13*
X135550000Y-97250000D03*
X135550000Y-99050000D03*
D14*
X135550000Y-98150000D03*
D13*
X133850000Y-99050000D03*
D14*
X133850000Y-98150000D03*
D13*
X133850000Y-97250000D03*
D15*
X140200000Y-97600000D03*
X140200000Y-98100000D03*
X140200000Y-98600000D03*
X140200000Y-99100000D03*
X137300000Y-99100000D03*
X137300000Y-98600000D03*
X137300000Y-98100000D03*
X137300000Y-97600000D03*
D16*
X159590000Y-104050000D03*
X159590000Y-102150000D03*
X161790000Y-102150000D03*
X161790000Y-103100000D03*
X161790000Y-104050000D03*
G36*
G01*
X128900000Y-93771250D02*
X128900000Y-93258750D01*
G75*
G02*
X129118750Y-93040000I218750J0D01*
G01*
X129556250Y-93040000D01*
G75*
G02*
X129775000Y-93258750I0J-218750D01*
G01*
X129775000Y-93771250D01*
G75*
G02*
X129556250Y-93990000I-218750J0D01*
G01*
X129118750Y-93990000D01*
G75*
G02*
X128900000Y-93771250I0J218750D01*
G01*
G37*
G36*
G01*
X127325000Y-93771250D02*
X127325000Y-93258750D01*
G75*
G02*
X127543750Y-93040000I218750J0D01*
G01*
X127981250Y-93040000D01*
G75*
G02*
X128200000Y-93258750I0J-218750D01*
G01*
X128200000Y-93771250D01*
G75*
G02*
X127981250Y-93990000I-218750J0D01*
G01*
X127543750Y-93990000D01*
G75*
G02*
X127325000Y-93771250I0J218750D01*
G01*
G37*
G36*
G01*
X156318750Y-103175000D02*
X156831250Y-103175000D01*
G75*
G02*
X157050000Y-103393750I0J-218750D01*
G01*
X157050000Y-103831250D01*
G75*
G02*
X156831250Y-104050000I-218750J0D01*
G01*
X156318750Y-104050000D01*
G75*
G02*
X156100000Y-103831250I0J218750D01*
G01*
X156100000Y-103393750D01*
G75*
G02*
X156318750Y-103175000I218750J0D01*
G01*
G37*
G36*
G01*
X156318750Y-101600000D02*
X156831250Y-101600000D01*
G75*
G02*
X157050000Y-101818750I0J-218750D01*
G01*
X157050000Y-102256250D01*
G75*
G02*
X156831250Y-102475000I-218750J0D01*
G01*
X156318750Y-102475000D01*
G75*
G02*
X156100000Y-102256250I0J218750D01*
G01*
X156100000Y-101818750D01*
G75*
G02*
X156318750Y-101600000I218750J0D01*
G01*
G37*
G36*
G01*
X128900000Y-95231250D02*
X128900000Y-94718750D01*
G75*
G02*
X129118750Y-94500000I218750J0D01*
G01*
X129556250Y-94500000D01*
G75*
G02*
X129775000Y-94718750I0J-218750D01*
G01*
X129775000Y-95231250D01*
G75*
G02*
X129556250Y-95450000I-218750J0D01*
G01*
X129118750Y-95450000D01*
G75*
G02*
X128900000Y-95231250I0J218750D01*
G01*
G37*
G36*
G01*
X127325000Y-95231250D02*
X127325000Y-94718750D01*
G75*
G02*
X127543750Y-94500000I218750J0D01*
G01*
X127981250Y-94500000D01*
G75*
G02*
X128200000Y-94718750I0J-218750D01*
G01*
X128200000Y-95231250D01*
G75*
G02*
X127981250Y-95450000I-218750J0D01*
G01*
X127543750Y-95450000D01*
G75*
G02*
X127325000Y-95231250I0J218750D01*
G01*
G37*
G36*
G01*
X163068750Y-103155000D02*
X163581250Y-103155000D01*
G75*
G02*
X163800000Y-103373750I0J-218750D01*
G01*
X163800000Y-103811250D01*
G75*
G02*
X163581250Y-104030000I-218750J0D01*
G01*
X163068750Y-104030000D01*
G75*
G02*
X162850000Y-103811250I0J218750D01*
G01*
X162850000Y-103373750D01*
G75*
G02*
X163068750Y-103155000I218750J0D01*
G01*
G37*
G36*
G01*
X163068750Y-101580000D02*
X163581250Y-101580000D01*
G75*
G02*
X163800000Y-101798750I0J-218750D01*
G01*
X163800000Y-102236250D01*
G75*
G02*
X163581250Y-102455000I-218750J0D01*
G01*
X163068750Y-102455000D01*
G75*
G02*
X162850000Y-102236250I0J218750D01*
G01*
X162850000Y-101798750D01*
G75*
G02*
X163068750Y-101580000I218750J0D01*
G01*
G37*
G36*
G01*
X157793750Y-103175000D02*
X158306250Y-103175000D01*
G75*
G02*
X158525000Y-103393750I0J-218750D01*
G01*
X158525000Y-103831250D01*
G75*
G02*
X158306250Y-104050000I-218750J0D01*
G01*
X157793750Y-104050000D01*
G75*
G02*
X157575000Y-103831250I0J218750D01*
G01*
X157575000Y-103393750D01*
G75*
G02*
X157793750Y-103175000I218750J0D01*
G01*
G37*
G36*
G01*
X157793750Y-101600000D02*
X158306250Y-101600000D01*
G75*
G02*
X158525000Y-101818750I0J-218750D01*
G01*
X158525000Y-102256250D01*
G75*
G02*
X158306250Y-102475000I-218750J0D01*
G01*
X157793750Y-102475000D01*
G75*
G02*
X157575000Y-102256250I0J218750D01*
G01*
X157575000Y-101818750D01*
G75*
G02*
X157793750Y-101600000I218750J0D01*
G01*
G37*
D17*
X156800000Y-100570000D03*
X156800000Y-98070000D03*
G36*
G01*
X139311250Y-102760000D02*
X138798750Y-102760000D01*
G75*
G02*
X138580000Y-102541250I0J218750D01*
G01*
X138580000Y-102103750D01*
G75*
G02*
X138798750Y-101885000I218750J0D01*
G01*
X139311250Y-101885000D01*
G75*
G02*
X139530000Y-102103750I0J-218750D01*
G01*
X139530000Y-102541250D01*
G75*
G02*
X139311250Y-102760000I-218750J0D01*
G01*
G37*
G36*
G01*
X139311250Y-104335000D02*
X138798750Y-104335000D01*
G75*
G02*
X138580000Y-104116250I0J218750D01*
G01*
X138580000Y-103678750D01*
G75*
G02*
X138798750Y-103460000I218750J0D01*
G01*
X139311250Y-103460000D01*
G75*
G02*
X139530000Y-103678750I0J-218750D01*
G01*
X139530000Y-104116250D01*
G75*
G02*
X139311250Y-104335000I-218750J0D01*
G01*
G37*
G36*
G01*
X137846250Y-102760000D02*
X137333750Y-102760000D01*
G75*
G02*
X137115000Y-102541250I0J218750D01*
G01*
X137115000Y-102103750D01*
G75*
G02*
X137333750Y-101885000I218750J0D01*
G01*
X137846250Y-101885000D01*
G75*
G02*
X138065000Y-102103750I0J-218750D01*
G01*
X138065000Y-102541250D01*
G75*
G02*
X137846250Y-102760000I-218750J0D01*
G01*
G37*
G36*
G01*
X137846250Y-104335000D02*
X137333750Y-104335000D01*
G75*
G02*
X137115000Y-104116250I0J218750D01*
G01*
X137115000Y-103678750D01*
G75*
G02*
X137333750Y-103460000I218750J0D01*
G01*
X137846250Y-103460000D01*
G75*
G02*
X138065000Y-103678750I0J-218750D01*
G01*
X138065000Y-104116250D01*
G75*
G02*
X137846250Y-104335000I-218750J0D01*
G01*
G37*
D18*
X152375000Y-101925000D03*
X152375000Y-100525000D03*
X153475000Y-100525000D03*
X153475000Y-101925000D03*
X135105000Y-104195000D03*
X134155000Y-102195000D03*
X136055000Y-102195000D03*
D19*
X127440000Y-99930000D03*
D20*
X130590000Y-101205000D03*
X130590000Y-100555000D03*
X130590000Y-99905000D03*
X130590000Y-99255000D03*
X130590000Y-98605000D03*
D21*
X130710000Y-102805000D03*
X130690000Y-97055000D03*
D17*
X127825000Y-105025000D03*
X130325000Y-105025000D03*
G36*
G01*
X154560000Y-104421250D02*
X154560000Y-103908750D01*
G75*
G02*
X154778750Y-103690000I218750J0D01*
G01*
X155216250Y-103690000D01*
G75*
G02*
X155435000Y-103908750I0J-218750D01*
G01*
X155435000Y-104421250D01*
G75*
G02*
X155216250Y-104640000I-218750J0D01*
G01*
X154778750Y-104640000D01*
G75*
G02*
X154560000Y-104421250I0J218750D01*
G01*
G37*
G36*
G01*
X152985000Y-104421250D02*
X152985000Y-103908750D01*
G75*
G02*
X153203750Y-103690000I218750J0D01*
G01*
X153641250Y-103690000D01*
G75*
G02*
X153860000Y-103908750I0J-218750D01*
G01*
X153860000Y-104421250D01*
G75*
G02*
X153641250Y-104640000I-218750J0D01*
G01*
X153203750Y-104640000D01*
G75*
G02*
X152985000Y-104421250I0J218750D01*
G01*
G37*
G36*
G01*
X140771250Y-104335000D02*
X140258750Y-104335000D01*
G75*
G02*
X140040000Y-104116250I0J218750D01*
G01*
X140040000Y-103678750D01*
G75*
G02*
X140258750Y-103460000I218750J0D01*
G01*
X140771250Y-103460000D01*
G75*
G02*
X140990000Y-103678750I0J-218750D01*
G01*
X140990000Y-104116250D01*
G75*
G02*
X140771250Y-104335000I-218750J0D01*
G01*
G37*
G36*
G01*
X140771250Y-102760000D02*
X140258750Y-102760000D01*
G75*
G02*
X140040000Y-102541250I0J218750D01*
G01*
X140040000Y-102103750D01*
G75*
G02*
X140258750Y-101885000I218750J0D01*
G01*
X140771250Y-101885000D01*
G75*
G02*
X140990000Y-102103750I0J-218750D01*
G01*
X140990000Y-102541250D01*
G75*
G02*
X140771250Y-102760000I-218750J0D01*
G01*
G37*
G36*
G01*
X142675000Y-94493750D02*
X142675000Y-95006250D01*
G75*
G02*
X142456250Y-95225000I-218750J0D01*
G01*
X142018750Y-95225000D01*
G75*
G02*
X141800000Y-95006250I0J218750D01*
G01*
X141800000Y-94493750D01*
G75*
G02*
X142018750Y-94275000I218750J0D01*
G01*
X142456250Y-94275000D01*
G75*
G02*
X142675000Y-94493750I0J-218750D01*
G01*
G37*
G36*
G01*
X144250000Y-94493750D02*
X144250000Y-95006250D01*
G75*
G02*
X144031250Y-95225000I-218750J0D01*
G01*
X143593750Y-95225000D01*
G75*
G02*
X143375000Y-95006250I0J218750D01*
G01*
X143375000Y-94493750D01*
G75*
G02*
X143593750Y-94275000I218750J0D01*
G01*
X144031250Y-94275000D01*
G75*
G02*
X144250000Y-94493750I0J-218750D01*
G01*
G37*
G36*
G01*
X129250000Y-106468750D02*
X129250000Y-106981250D01*
G75*
G02*
X129031250Y-107200000I-218750J0D01*
G01*
X128593750Y-107200000D01*
G75*
G02*
X128375000Y-106981250I0J218750D01*
G01*
X128375000Y-106468750D01*
G75*
G02*
X128593750Y-106250000I218750J0D01*
G01*
X129031250Y-106250000D01*
G75*
G02*
X129250000Y-106468750I0J-218750D01*
G01*
G37*
G36*
G01*
X130825000Y-106468750D02*
X130825000Y-106981250D01*
G75*
G02*
X130606250Y-107200000I-218750J0D01*
G01*
X130168750Y-107200000D01*
G75*
G02*
X129950000Y-106981250I0J218750D01*
G01*
X129950000Y-106468750D01*
G75*
G02*
X130168750Y-106250000I218750J0D01*
G01*
X130606250Y-106250000D01*
G75*
G02*
X130825000Y-106468750I0J-218750D01*
G01*
G37*
G36*
G01*
X150618750Y-101600000D02*
X151131250Y-101600000D01*
G75*
G02*
X151350000Y-101818750I0J-218750D01*
G01*
X151350000Y-102256250D01*
G75*
G02*
X151131250Y-102475000I-218750J0D01*
G01*
X150618750Y-102475000D01*
G75*
G02*
X150400000Y-102256250I0J218750D01*
G01*
X150400000Y-101818750D01*
G75*
G02*
X150618750Y-101600000I218750J0D01*
G01*
G37*
G36*
G01*
X150618750Y-100025000D02*
X151131250Y-100025000D01*
G75*
G02*
X151350000Y-100243750I0J-218750D01*
G01*
X151350000Y-100681250D01*
G75*
G02*
X151131250Y-100900000I-218750J0D01*
G01*
X150618750Y-100900000D01*
G75*
G02*
X150400000Y-100681250I0J218750D01*
G01*
X150400000Y-100243750D01*
G75*
G02*
X150618750Y-100025000I218750J0D01*
G01*
G37*
G36*
G01*
X155231250Y-102525000D02*
X154718750Y-102525000D01*
G75*
G02*
X154500000Y-102306250I0J218750D01*
G01*
X154500000Y-101868750D01*
G75*
G02*
X154718750Y-101650000I218750J0D01*
G01*
X155231250Y-101650000D01*
G75*
G02*
X155450000Y-101868750I0J-218750D01*
G01*
X155450000Y-102306250D01*
G75*
G02*
X155231250Y-102525000I-218750J0D01*
G01*
G37*
G36*
G01*
X155231250Y-100950000D02*
X154718750Y-100950000D01*
G75*
G02*
X154500000Y-100731250I0J218750D01*
G01*
X154500000Y-100293750D01*
G75*
G02*
X154718750Y-100075000I218750J0D01*
G01*
X155231250Y-100075000D01*
G75*
G02*
X155450000Y-100293750I0J-218750D01*
G01*
X155450000Y-100731250D01*
G75*
G02*
X155231250Y-100950000I-218750J0D01*
G01*
G37*
G36*
G01*
X150900000Y-103913750D02*
X150900000Y-104426250D01*
G75*
G02*
X150681250Y-104645000I-218750J0D01*
G01*
X150243750Y-104645000D01*
G75*
G02*
X150025000Y-104426250I0J218750D01*
G01*
X150025000Y-103913750D01*
G75*
G02*
X150243750Y-103695000I218750J0D01*
G01*
X150681250Y-103695000D01*
G75*
G02*
X150900000Y-103913750I0J-218750D01*
G01*
G37*
G36*
G01*
X152475000Y-103913750D02*
X152475000Y-104426250D01*
G75*
G02*
X152256250Y-104645000I-218750J0D01*
G01*
X151818750Y-104645000D01*
G75*
G02*
X151600000Y-104426250I0J218750D01*
G01*
X151600000Y-103913750D01*
G75*
G02*
X151818750Y-103695000I218750J0D01*
G01*
X152256250Y-103695000D01*
G75*
G02*
X152475000Y-103913750I0J-218750D01*
G01*
G37*
G36*
G01*
X132881250Y-103050000D02*
X132368750Y-103050000D01*
G75*
G02*
X132150000Y-102831250I0J218750D01*
G01*
X132150000Y-102393750D01*
G75*
G02*
X132368750Y-102175000I218750J0D01*
G01*
X132881250Y-102175000D01*
G75*
G02*
X133100000Y-102393750I0J-218750D01*
G01*
X133100000Y-102831250D01*
G75*
G02*
X132881250Y-103050000I-218750J0D01*
G01*
G37*
G36*
G01*
X132881250Y-104625000D02*
X132368750Y-104625000D01*
G75*
G02*
X132150000Y-104406250I0J218750D01*
G01*
X132150000Y-103968750D01*
G75*
G02*
X132368750Y-103750000I218750J0D01*
G01*
X132881250Y-103750000D01*
G75*
G02*
X133100000Y-103968750I0J-218750D01*
G01*
X133100000Y-104406250D01*
G75*
G02*
X132881250Y-104625000I-218750J0D01*
G01*
G37*
G36*
G01*
X140400000Y-95006250D02*
X140400000Y-94493750D01*
G75*
G02*
X140618750Y-94275000I218750J0D01*
G01*
X141056250Y-94275000D01*
G75*
G02*
X141275000Y-94493750I0J-218750D01*
G01*
X141275000Y-95006250D01*
G75*
G02*
X141056250Y-95225000I-218750J0D01*
G01*
X140618750Y-95225000D01*
G75*
G02*
X140400000Y-95006250I0J218750D01*
G01*
G37*
G36*
G01*
X138825000Y-95006250D02*
X138825000Y-94493750D01*
G75*
G02*
X139043750Y-94275000I218750J0D01*
G01*
X139481250Y-94275000D01*
G75*
G02*
X139700000Y-94493750I0J-218750D01*
G01*
X139700000Y-95006250D01*
G75*
G02*
X139481250Y-95225000I-218750J0D01*
G01*
X139043750Y-95225000D01*
G75*
G02*
X138825000Y-95006250I0J218750D01*
G01*
G37*
G36*
G01*
X140400000Y-96466250D02*
X140400000Y-95953750D01*
G75*
G02*
X140618750Y-95735000I218750J0D01*
G01*
X141056250Y-95735000D01*
G75*
G02*
X141275000Y-95953750I0J-218750D01*
G01*
X141275000Y-96466250D01*
G75*
G02*
X141056250Y-96685000I-218750J0D01*
G01*
X140618750Y-96685000D01*
G75*
G02*
X140400000Y-96466250I0J218750D01*
G01*
G37*
G36*
G01*
X138825000Y-96466250D02*
X138825000Y-95953750D01*
G75*
G02*
X139043750Y-95735000I218750J0D01*
G01*
X139481250Y-95735000D01*
G75*
G02*
X139700000Y-95953750I0J-218750D01*
G01*
X139700000Y-96466250D01*
G75*
G02*
X139481250Y-96685000I-218750J0D01*
G01*
X139043750Y-96685000D01*
G75*
G02*
X138825000Y-96466250I0J218750D01*
G01*
G37*
G36*
G01*
X152225000Y-99281250D02*
X152225000Y-98768750D01*
G75*
G02*
X152443750Y-98550000I218750J0D01*
G01*
X152881250Y-98550000D01*
G75*
G02*
X153100000Y-98768750I0J-218750D01*
G01*
X153100000Y-99281250D01*
G75*
G02*
X152881250Y-99500000I-218750J0D01*
G01*
X152443750Y-99500000D01*
G75*
G02*
X152225000Y-99281250I0J218750D01*
G01*
G37*
G36*
G01*
X150650000Y-99281250D02*
X150650000Y-98768750D01*
G75*
G02*
X150868750Y-98550000I218750J0D01*
G01*
X151306250Y-98550000D01*
G75*
G02*
X151525000Y-98768750I0J-218750D01*
G01*
X151525000Y-99281250D01*
G75*
G02*
X151306250Y-99500000I-218750J0D01*
G01*
X150868750Y-99500000D01*
G75*
G02*
X150650000Y-99281250I0J218750D01*
G01*
G37*
M02*
