M48
; DRILL file {KiCad (5.1.8-0-10_14)} date Monday, December 21, 2020 at 11:46:13 PM
; FORMAT={-:-/ absolute / inch / decimal}
; #@! TF.CreationDate,2020-12-21T23:46:13-08:00
; #@! TF.GenerationSoftware,Kicad,Pcbnew,(5.1.8-0-10_14)
; #@! TF.FileFunction,Plated,1,2,PTH
FMAT,2
INCH
T1C0.0100
T2C0.0256
T3C0.0276
T4C0.0295
T5C0.0394
T6C0.0591
%
G90
G05
T1
X4.9807Y-3.698
X5.1319Y-4.1654
X5.1909Y-4.1299
X5.2057Y-3.8327
X5.2746Y-4.0659
X5.2943Y-3.7195
X5.3553Y-3.7343
X5.3652Y-3.8937
X5.3661Y-4.1378
X5.3902Y-3.9543
X5.4429Y-3.8599
X5.4902Y-3.688
X5.4907Y-3.9439
X5.5148Y-3.7608
X5.5601Y-3.8851
X5.564Y-3.9249
X5.5679Y-3.9636
X5.5721Y-4.0238
X5.6024Y-4.1161
X5.6218Y-3.767
X5.6821Y-4.1299
X5.7264Y-3.7683
X5.7628Y-3.7756
X5.7648Y-4.126
X5.7835Y-3.7923
X5.7953Y-4.1256
X5.8031Y-3.7746
X5.8296Y-3.7839
X5.876Y-4.0837
X5.905Y-3.9465
X5.9086Y-3.8812
X5.9094Y-3.9085
X6.0728Y-4.0778
X6.0787Y-3.9862
X6.1634Y-3.7667
X6.1644Y-3.8947
X6.274Y-3.6878
X6.3238Y-4.0236
X6.3927Y-4.1394
T4
X6.2953Y-3.813
X6.2953Y-3.8917
T5
X5.2315Y-3.6008
X5.3315Y-3.6008
X5.4315Y-3.6008
X5.5315Y-3.6008
X5.6315Y-3.6008
X5.2323Y-4.2008
X5.3323Y-4.2008
X5.4323Y-4.2008
X5.5323Y-4.2008
X5.6323Y-4.2008
X5.7323Y-4.2008
X5.8323Y-4.2008
X5.9323Y-4.2008
X6.0323Y-4.2008
X6.1323Y-4.2008
X6.2323Y-4.2008
X6.3323Y-4.2008
X5.8319Y-3.6008
X5.9319Y-3.6008
X6.0319Y-3.6008
X6.1319Y-3.6008
X6.2319Y-3.6008
T6
X4.9882Y-3.5906
X4.9892Y-4.2165
X6.4795Y-3.5803
X6.4801Y-4.2148
T2
G00X5.1382Y-3.838
M15
G01X5.1539Y-3.838
M16
G05
G00X5.1382Y-4.0285
M15
G01X5.1539Y-4.0285
M16
G05
T3
G00X5.0181Y-3.8258
M15
G01X5.0378Y-3.8258
M16
G05
G00X5.0181Y-4.0407
M15
G01X5.0378Y-4.0407
M16
G05
T0
M30
