M48
METRIC,TZ
T1C0.254
T2C0.650
T3C0.700
T4C0.750
T5C1.000
T6C1.500
%
G90
G05
T1
X128650Y-95925
X129350Y-105425
X131175Y-90700
X132375Y-96950
X133975Y-103275
X134964Y-103308
X135960Y-94540
X136070Y-99640
X136700Y-104850
X137050Y-100200
X138250Y-98042
X139450Y-93675
X139465Y-100175
X140075Y-95525
X141226Y-98681
X141325Y-99692
X141400Y-100700
X141533Y-102205
X142300Y-104550
X144325Y-104900
X145700Y-96100
X146375Y-95900
X146425Y-104800
X146900Y-96325
X147200Y-104790
X147400Y-95875
X148071Y-96111
X149250Y-103725
X149987Y-100240
X150078Y-98583
X150100Y-99275
X154250Y-103575
X154400Y-101250
X156350Y-99350
X157600Y-97000
X160625Y-102200
X162375Y-104975
X162925Y-97825
X163125Y-94575
T4
X159675Y-96850
X159675Y-98850
T5
X132880Y-91460
X135420Y-91460
X137960Y-91460
X140500Y-91460
X143040Y-91460
X148130Y-91460
X150670Y-91460
X153210Y-91460
X155750Y-91460
X158290Y-91460
X132900Y-106700
X135440Y-106700
X137980Y-106700
X140520Y-106700
X143060Y-106700
X145600Y-106700
X148140Y-106700
X150680Y-106700
X153220Y-106700
X155760Y-106700
X158300Y-106700
X160840Y-106700
T6
X126700Y-91200
X164360Y-90960
X126725Y-107100
X164375Y-107075
T2
G00X130510Y-97485
M15
G01X130910Y-97485
M16
G05
G00X130510Y-102325
M15
G01X130910Y-102325
M16
G05
T3
G00X127460Y-97175
M15
G01X127960Y-97175
M16
G05
G00X127460Y-102635
M15
G01X127960Y-102635
M16
G05
T0
M30
