G04 #@! TF.GenerationSoftware,KiCad,Pcbnew,(5.1.8-0-10_14)*
G04 #@! TF.CreationDate,2021-01-26T20:48:40-08:00*
G04 #@! TF.ProjectId,Compact,436f6d70-6163-4742-9e6b-696361645f70,rev?*
G04 #@! TF.SameCoordinates,Original*
G04 #@! TF.FileFunction,Soldermask,Bot*
G04 #@! TF.FilePolarity,Negative*
%FSLAX46Y46*%
G04 Gerber Fmt 4.6, Leading zero omitted, Abs format (unit mm)*
G04 Created by KiCad (PCBNEW (5.1.8-0-10_14)) date 2021-01-26 20:48:40*
%MOMM*%
%LPD*%
G01*
G04 APERTURE LIST*
%ADD10O,1.851600X1.301600*%
%ADD11C,0.100000*%
%ADD12C,1.601600*%
%ADD13O,1.801600X1.801600*%
%ADD14O,1.801600X1.451600*%
%ADD15O,1.601600X1.201600*%
G04 APERTURE END LIST*
D10*
X159900000Y-96850000D03*
G36*
G01*
X160554635Y-99500800D02*
X159245365Y-99500800D01*
G75*
G02*
X158974200Y-99229635I0J271165D01*
G01*
X158974200Y-98470365D01*
G75*
G02*
X159245365Y-98199200I271165J0D01*
G01*
X160554635Y-98199200D01*
G75*
G02*
X160825800Y-98470365I0J-271165D01*
G01*
X160825800Y-99229635D01*
G75*
G02*
X160554635Y-99500800I-271165J0D01*
G01*
G37*
G36*
G01*
X164375800Y-101879600D02*
X164375800Y-102480400D01*
G75*
G02*
X164150400Y-102705800I-225400J0D01*
G01*
X163699600Y-102705800D01*
G75*
G02*
X163474200Y-102480400I0J225400D01*
G01*
X163474200Y-101879600D01*
G75*
G02*
X163699600Y-101654200I225400J0D01*
G01*
X164150400Y-101654200D01*
G75*
G02*
X164375800Y-101879600I0J-225400D01*
G01*
G37*
G36*
G01*
X162725800Y-101879600D02*
X162725800Y-102480400D01*
G75*
G02*
X162500400Y-102705800I-225400J0D01*
G01*
X162049600Y-102705800D01*
G75*
G02*
X161824200Y-102480400I0J225400D01*
G01*
X161824200Y-101879600D01*
G75*
G02*
X162049600Y-101654200I225400J0D01*
G01*
X162500400Y-101654200D01*
G75*
G02*
X162725800Y-101879600I0J-225400D01*
G01*
G37*
G36*
G01*
X164385800Y-103339600D02*
X164385800Y-103940400D01*
G75*
G02*
X164160400Y-104165800I-225400J0D01*
G01*
X163709600Y-104165800D01*
G75*
G02*
X163484200Y-103940400I0J225400D01*
G01*
X163484200Y-103339600D01*
G75*
G02*
X163709600Y-103114200I225400J0D01*
G01*
X164160400Y-103114200D01*
G75*
G02*
X164385800Y-103339600I0J-225400D01*
G01*
G37*
G36*
G01*
X162735800Y-103339600D02*
X162735800Y-103940400D01*
G75*
G02*
X162510400Y-104165800I-225400J0D01*
G01*
X162059600Y-104165800D01*
G75*
G02*
X161834200Y-103940400I0J225400D01*
G01*
X161834200Y-103339600D01*
G75*
G02*
X162059600Y-103114200I225400J0D01*
G01*
X162510400Y-103114200D01*
G75*
G02*
X162735800Y-103339600I0J-225400D01*
G01*
G37*
G36*
G01*
X164395800Y-93009600D02*
X164395800Y-93610400D01*
G75*
G02*
X164170400Y-93835800I-225400J0D01*
G01*
X163719600Y-93835800D01*
G75*
G02*
X163494200Y-93610400I0J225400D01*
G01*
X163494200Y-93009600D01*
G75*
G02*
X163719600Y-92784200I225400J0D01*
G01*
X164170400Y-92784200D01*
G75*
G02*
X164395800Y-93009600I0J-225400D01*
G01*
G37*
G36*
G01*
X162745800Y-93009600D02*
X162745800Y-93610400D01*
G75*
G02*
X162520400Y-93835800I-225400J0D01*
G01*
X162069600Y-93835800D01*
G75*
G02*
X161844200Y-93610400I0J225400D01*
G01*
X161844200Y-93009600D01*
G75*
G02*
X162069600Y-92784200I225400J0D01*
G01*
X162520400Y-92784200D01*
G75*
G02*
X162745800Y-93009600I0J-225400D01*
G01*
G37*
G36*
G01*
X164385800Y-94479600D02*
X164385800Y-95080400D01*
G75*
G02*
X164160400Y-95305800I-225400J0D01*
G01*
X163709600Y-95305800D01*
G75*
G02*
X163484200Y-95080400I0J225400D01*
G01*
X163484200Y-94479600D01*
G75*
G02*
X163709600Y-94254200I225400J0D01*
G01*
X164160400Y-94254200D01*
G75*
G02*
X164385800Y-94479600I0J-225400D01*
G01*
G37*
G36*
G01*
X162735800Y-94479600D02*
X162735800Y-95080400D01*
G75*
G02*
X162510400Y-95305800I-225400J0D01*
G01*
X162059600Y-95305800D01*
G75*
G02*
X161834200Y-95080400I0J225400D01*
G01*
X161834200Y-94479600D01*
G75*
G02*
X162059600Y-94254200I225400J0D01*
G01*
X162510400Y-94254200D01*
G75*
G02*
X162735800Y-94479600I0J-225400D01*
G01*
G37*
G36*
G01*
X164365800Y-100438350D02*
X164365800Y-101001650D01*
G75*
G02*
X164121650Y-101245800I-244150J0D01*
G01*
X163633350Y-101245800D01*
G75*
G02*
X163389200Y-101001650I0J244150D01*
G01*
X163389200Y-100438350D01*
G75*
G02*
X163633350Y-100194200I244150J0D01*
G01*
X164121650Y-100194200D01*
G75*
G02*
X164365800Y-100438350I0J-244150D01*
G01*
G37*
G36*
G01*
X162790800Y-100438350D02*
X162790800Y-101001650D01*
G75*
G02*
X162546650Y-101245800I-244150J0D01*
G01*
X162058350Y-101245800D01*
G75*
G02*
X161814200Y-101001650I0J244150D01*
G01*
X161814200Y-100438350D01*
G75*
G02*
X162058350Y-100194200I244150J0D01*
G01*
X162546650Y-100194200D01*
G75*
G02*
X162790800Y-100438350I0J-244150D01*
G01*
G37*
G36*
G01*
X164385800Y-98958350D02*
X164385800Y-99521650D01*
G75*
G02*
X164141650Y-99765800I-244150J0D01*
G01*
X163653350Y-99765800D01*
G75*
G02*
X163409200Y-99521650I0J244150D01*
G01*
X163409200Y-98958350D01*
G75*
G02*
X163653350Y-98714200I244150J0D01*
G01*
X164141650Y-98714200D01*
G75*
G02*
X164385800Y-98958350I0J-244150D01*
G01*
G37*
G36*
G01*
X162810800Y-98958350D02*
X162810800Y-99521650D01*
G75*
G02*
X162566650Y-99765800I-244150J0D01*
G01*
X162078350Y-99765800D01*
G75*
G02*
X161834200Y-99521650I0J244150D01*
G01*
X161834200Y-98958350D01*
G75*
G02*
X162078350Y-98714200I244150J0D01*
G01*
X162566650Y-98714200D01*
G75*
G02*
X162810800Y-98958350I0J-244150D01*
G01*
G37*
G36*
G01*
X164385800Y-97498350D02*
X164385800Y-98061650D01*
G75*
G02*
X164141650Y-98305800I-244150J0D01*
G01*
X163653350Y-98305800D01*
G75*
G02*
X163409200Y-98061650I0J244150D01*
G01*
X163409200Y-97498350D01*
G75*
G02*
X163653350Y-97254200I244150J0D01*
G01*
X164141650Y-97254200D01*
G75*
G02*
X164385800Y-97498350I0J-244150D01*
G01*
G37*
G36*
G01*
X162810800Y-97498350D02*
X162810800Y-98061650D01*
G75*
G02*
X162566650Y-98305800I-244150J0D01*
G01*
X162078350Y-98305800D01*
G75*
G02*
X161834200Y-98061650I0J244150D01*
G01*
X161834200Y-97498350D01*
G75*
G02*
X162078350Y-97254200I244150J0D01*
G01*
X162566650Y-97254200D01*
G75*
G02*
X162810800Y-97498350I0J-244150D01*
G01*
G37*
G36*
G01*
X164375800Y-95998350D02*
X164375800Y-96561650D01*
G75*
G02*
X164131650Y-96805800I-244150J0D01*
G01*
X163643350Y-96805800D01*
G75*
G02*
X163399200Y-96561650I0J244150D01*
G01*
X163399200Y-95998350D01*
G75*
G02*
X163643350Y-95754200I244150J0D01*
G01*
X164131650Y-95754200D01*
G75*
G02*
X164375800Y-95998350I0J-244150D01*
G01*
G37*
G36*
G01*
X162800800Y-95998350D02*
X162800800Y-96561650D01*
G75*
G02*
X162556650Y-96805800I-244150J0D01*
G01*
X162068350Y-96805800D01*
G75*
G02*
X161824200Y-96561650I0J244150D01*
G01*
X161824200Y-95998350D01*
G75*
G02*
X162068350Y-95754200I244150J0D01*
G01*
X162556650Y-95754200D01*
G75*
G02*
X162800800Y-95998350I0J-244150D01*
G01*
G37*
G36*
G01*
X137600800Y-95650000D02*
X137600800Y-98450000D01*
G75*
G02*
X137550000Y-98500800I-50800J0D01*
G01*
X135050000Y-98500800D01*
G75*
G02*
X134999200Y-98450000I0J50800D01*
G01*
X134999200Y-95650000D01*
G75*
G02*
X135050000Y-95599200I50800J0D01*
G01*
X137550000Y-95599200D01*
G75*
G02*
X137600800Y-95650000I0J-50800D01*
G01*
G37*
G36*
G01*
X154000800Y-95650000D02*
X154000800Y-98450000D01*
G75*
G02*
X153950000Y-98500800I-50800J0D01*
G01*
X151450000Y-98500800D01*
G75*
G02*
X151399200Y-98450000I0J50800D01*
G01*
X151399200Y-95650000D01*
G75*
G02*
X151450000Y-95599200I50800J0D01*
G01*
X153950000Y-95599200D01*
G75*
G02*
X154000800Y-95650000I0J-50800D01*
G01*
G37*
D11*
G36*
X132475176Y-96090089D02*
G01*
X132478067Y-96080560D01*
X132482761Y-96071777D01*
X132489079Y-96064079D01*
X132496777Y-96057761D01*
X132505560Y-96053067D01*
X132515089Y-96050176D01*
X132525000Y-96049200D01*
X134025000Y-96049200D01*
X134034911Y-96050176D01*
X134044440Y-96053067D01*
X134053223Y-96057761D01*
X134060921Y-96064079D01*
X134067239Y-96071777D01*
X134071933Y-96080560D01*
X134074824Y-96090089D01*
X134075800Y-96100000D01*
X134075800Y-96600000D01*
X134075198Y-96606113D01*
X134075198Y-96624534D01*
X134074953Y-96629514D01*
X134070143Y-96678345D01*
X134069412Y-96683275D01*
X134059840Y-96731400D01*
X134058628Y-96736237D01*
X134044384Y-96783192D01*
X134042705Y-96787885D01*
X134023928Y-96833218D01*
X134021796Y-96837726D01*
X133998665Y-96880999D01*
X133996103Y-96885273D01*
X133968843Y-96926072D01*
X133965873Y-96930077D01*
X133934745Y-96968006D01*
X133931397Y-96971700D01*
X133896700Y-97006397D01*
X133893006Y-97009745D01*
X133855077Y-97040873D01*
X133851072Y-97043843D01*
X133810273Y-97071103D01*
X133805999Y-97073665D01*
X133762726Y-97096796D01*
X133758218Y-97098928D01*
X133712885Y-97117705D01*
X133708192Y-97119384D01*
X133661237Y-97133628D01*
X133656400Y-97134840D01*
X133608275Y-97144412D01*
X133603345Y-97145143D01*
X133554514Y-97149953D01*
X133549534Y-97150198D01*
X133531113Y-97150198D01*
X133525000Y-97150800D01*
X133025000Y-97150800D01*
X133018887Y-97150198D01*
X133000466Y-97150198D01*
X132995486Y-97149953D01*
X132946655Y-97145143D01*
X132941725Y-97144412D01*
X132893600Y-97134840D01*
X132888763Y-97133628D01*
X132841808Y-97119384D01*
X132837115Y-97117705D01*
X132791782Y-97098928D01*
X132787274Y-97096796D01*
X132744001Y-97073665D01*
X132739727Y-97071103D01*
X132698928Y-97043843D01*
X132694923Y-97040873D01*
X132656994Y-97009745D01*
X132653300Y-97006397D01*
X132618603Y-96971700D01*
X132615255Y-96968006D01*
X132584127Y-96930077D01*
X132581157Y-96926072D01*
X132553897Y-96885273D01*
X132551335Y-96880999D01*
X132528204Y-96837726D01*
X132526072Y-96833218D01*
X132507295Y-96787885D01*
X132505616Y-96783192D01*
X132491372Y-96736237D01*
X132490160Y-96731400D01*
X132480588Y-96683275D01*
X132479857Y-96678345D01*
X132475047Y-96629514D01*
X132474802Y-96624534D01*
X132474802Y-96606113D01*
X132474200Y-96600000D01*
X132474200Y-96100000D01*
X132475176Y-96090089D01*
G37*
G36*
X132474802Y-95293887D02*
G01*
X132474802Y-95275466D01*
X132475047Y-95270486D01*
X132479857Y-95221655D01*
X132480588Y-95216725D01*
X132490160Y-95168600D01*
X132491372Y-95163763D01*
X132505616Y-95116808D01*
X132507295Y-95112115D01*
X132526072Y-95066782D01*
X132528204Y-95062274D01*
X132551335Y-95019001D01*
X132553897Y-95014727D01*
X132581157Y-94973928D01*
X132584127Y-94969923D01*
X132615255Y-94931994D01*
X132618603Y-94928300D01*
X132653300Y-94893603D01*
X132656994Y-94890255D01*
X132694923Y-94859127D01*
X132698928Y-94856157D01*
X132739727Y-94828897D01*
X132744001Y-94826335D01*
X132787274Y-94803204D01*
X132791782Y-94801072D01*
X132837115Y-94782295D01*
X132841808Y-94780616D01*
X132888763Y-94766372D01*
X132893600Y-94765160D01*
X132941725Y-94755588D01*
X132946655Y-94754857D01*
X132995486Y-94750047D01*
X133000466Y-94749802D01*
X133018887Y-94749802D01*
X133025000Y-94749200D01*
X133525000Y-94749200D01*
X133531113Y-94749802D01*
X133549534Y-94749802D01*
X133554514Y-94750047D01*
X133603345Y-94754857D01*
X133608275Y-94755588D01*
X133656400Y-94765160D01*
X133661237Y-94766372D01*
X133708192Y-94780616D01*
X133712885Y-94782295D01*
X133758218Y-94801072D01*
X133762726Y-94803204D01*
X133805999Y-94826335D01*
X133810273Y-94828897D01*
X133851072Y-94856157D01*
X133855077Y-94859127D01*
X133893006Y-94890255D01*
X133896700Y-94893603D01*
X133931397Y-94928300D01*
X133934745Y-94931994D01*
X133965873Y-94969923D01*
X133968843Y-94973928D01*
X133996103Y-95014727D01*
X133998665Y-95019001D01*
X134021796Y-95062274D01*
X134023928Y-95066782D01*
X134042705Y-95112115D01*
X134044384Y-95116808D01*
X134058628Y-95163763D01*
X134059840Y-95168600D01*
X134069412Y-95216725D01*
X134070143Y-95221655D01*
X134074953Y-95270486D01*
X134075198Y-95275466D01*
X134075198Y-95293887D01*
X134075800Y-95300000D01*
X134075800Y-95800000D01*
X134074824Y-95809911D01*
X134071933Y-95819440D01*
X134067239Y-95828223D01*
X134060921Y-95835921D01*
X134053223Y-95842239D01*
X134044440Y-95846933D01*
X134034911Y-95849824D01*
X134025000Y-95850800D01*
X132525000Y-95850800D01*
X132515089Y-95849824D01*
X132505560Y-95846933D01*
X132496777Y-95842239D01*
X132489079Y-95835921D01*
X132482761Y-95828223D01*
X132478067Y-95819440D01*
X132475176Y-95809911D01*
X132474200Y-95800000D01*
X132474200Y-95300000D01*
X132474802Y-95293887D01*
G37*
G36*
G01*
X140850800Y-102460000D02*
X140850800Y-104060000D01*
G75*
G02*
X140800000Y-104110800I-50800J0D01*
G01*
X138620000Y-104110800D01*
G75*
G02*
X138569200Y-104060000I0J50800D01*
G01*
X138569200Y-102460000D01*
G75*
G02*
X138620000Y-102409200I50800J0D01*
G01*
X140800000Y-102409200D01*
G75*
G02*
X140850800Y-102460000I0J-50800D01*
G01*
G37*
G36*
G01*
X150030800Y-102460000D02*
X150030800Y-104060000D01*
G75*
G02*
X149980000Y-104110800I-50800J0D01*
G01*
X147800000Y-104110800D01*
G75*
G02*
X147749200Y-104060000I0J50800D01*
G01*
X147749200Y-102460000D01*
G75*
G02*
X147800000Y-102409200I50800J0D01*
G01*
X149980000Y-102409200D01*
G75*
G02*
X150030800Y-102460000I0J-50800D01*
G01*
G37*
D12*
X126725000Y-107400000D03*
X164595000Y-107355000D03*
X126700000Y-90850000D03*
X164580000Y-90590000D03*
G36*
G01*
X159990000Y-105799200D02*
X161690000Y-105799200D01*
G75*
G02*
X161740800Y-105850000I0J-50800D01*
G01*
X161740800Y-107550000D01*
G75*
G02*
X161690000Y-107600800I-50800J0D01*
G01*
X159990000Y-107600800D01*
G75*
G02*
X159939200Y-107550000I0J50800D01*
G01*
X159939200Y-105850000D01*
G75*
G02*
X159990000Y-105799200I50800J0D01*
G01*
G37*
D13*
X158300000Y-106700000D03*
X155760000Y-106700000D03*
X153220000Y-106700000D03*
X150680000Y-106700000D03*
X148140000Y-106700000D03*
X145600000Y-106700000D03*
X143060000Y-106700000D03*
X140520000Y-106700000D03*
X137980000Y-106700000D03*
X135440000Y-106700000D03*
X132900000Y-106700000D03*
X148130000Y-91460000D03*
X150670000Y-91460000D03*
X153210000Y-91460000D03*
X155750000Y-91460000D03*
G36*
G01*
X157440000Y-90559200D02*
X159140000Y-90559200D01*
G75*
G02*
X159190800Y-90610000I0J-50800D01*
G01*
X159190800Y-92310000D01*
G75*
G02*
X159140000Y-92360800I-50800J0D01*
G01*
X157440000Y-92360800D01*
G75*
G02*
X157389200Y-92310000I0J50800D01*
G01*
X157389200Y-90610000D01*
G75*
G02*
X157440000Y-90559200I50800J0D01*
G01*
G37*
G36*
G01*
X136560800Y-103793350D02*
X136560800Y-104356650D01*
G75*
G02*
X136316650Y-104600800I-244150J0D01*
G01*
X135828350Y-104600800D01*
G75*
G02*
X135584200Y-104356650I0J244150D01*
G01*
X135584200Y-103793350D01*
G75*
G02*
X135828350Y-103549200I244150J0D01*
G01*
X136316650Y-103549200D01*
G75*
G02*
X136560800Y-103793350I0J-244150D01*
G01*
G37*
G36*
G01*
X138135800Y-103793350D02*
X138135800Y-104356650D01*
G75*
G02*
X137891650Y-104600800I-244150J0D01*
G01*
X137403350Y-104600800D01*
G75*
G02*
X137159200Y-104356650I0J244150D01*
G01*
X137159200Y-103793350D01*
G75*
G02*
X137403350Y-103549200I244150J0D01*
G01*
X137891650Y-103549200D01*
G75*
G02*
X138135800Y-103793350I0J-244150D01*
G01*
G37*
G36*
G01*
X136431650Y-101550800D02*
X135868350Y-101550800D01*
G75*
G02*
X135624200Y-101306650I0J244150D01*
G01*
X135624200Y-100818350D01*
G75*
G02*
X135868350Y-100574200I244150J0D01*
G01*
X136431650Y-100574200D01*
G75*
G02*
X136675800Y-100818350I0J-244150D01*
G01*
X136675800Y-101306650D01*
G75*
G02*
X136431650Y-101550800I-244150J0D01*
G01*
G37*
G36*
G01*
X136431650Y-103125800D02*
X135868350Y-103125800D01*
G75*
G02*
X135624200Y-102881650I0J244150D01*
G01*
X135624200Y-102393350D01*
G75*
G02*
X135868350Y-102149200I244150J0D01*
G01*
X136431650Y-102149200D01*
G75*
G02*
X136675800Y-102393350I0J-244150D01*
G01*
X136675800Y-102881650D01*
G75*
G02*
X136431650Y-103125800I-244150J0D01*
G01*
G37*
G36*
G01*
X137891650Y-103135800D02*
X137328350Y-103135800D01*
G75*
G02*
X137084200Y-102891650I0J244150D01*
G01*
X137084200Y-102403350D01*
G75*
G02*
X137328350Y-102159200I244150J0D01*
G01*
X137891650Y-102159200D01*
G75*
G02*
X138135800Y-102403350I0J-244150D01*
G01*
X138135800Y-102891650D01*
G75*
G02*
X137891650Y-103135800I-244150J0D01*
G01*
G37*
G36*
G01*
X137891650Y-101560800D02*
X137328350Y-101560800D01*
G75*
G02*
X137084200Y-101316650I0J244150D01*
G01*
X137084200Y-100828350D01*
G75*
G02*
X137328350Y-100584200I244150J0D01*
G01*
X137891650Y-100584200D01*
G75*
G02*
X138135800Y-100828350I0J-244150D01*
G01*
X138135800Y-101316650D01*
G75*
G02*
X137891650Y-101560800I-244150J0D01*
G01*
G37*
X143040000Y-91460000D03*
X140500000Y-91460000D03*
X137960000Y-91460000D03*
X135420000Y-91460000D03*
G36*
G01*
X133730000Y-92360800D02*
X132030000Y-92360800D01*
G75*
G02*
X131979200Y-92310000I0J50800D01*
G01*
X131979200Y-90610000D01*
G75*
G02*
X132030000Y-90559200I50800J0D01*
G01*
X133730000Y-90559200D01*
G75*
G02*
X133780800Y-90610000I0J-50800D01*
G01*
X133780800Y-92310000D01*
G75*
G02*
X133730000Y-92360800I-50800J0D01*
G01*
G37*
G36*
G01*
X144649200Y-97287900D02*
X144649200Y-96812100D01*
G75*
G02*
X144887100Y-96574200I237900J0D01*
G01*
X145737900Y-96574200D01*
G75*
G02*
X145975800Y-96812100I0J-237900D01*
G01*
X145975800Y-97287900D01*
G75*
G02*
X145737900Y-97525800I-237900J0D01*
G01*
X144887100Y-97525800D01*
G75*
G02*
X144649200Y-97287900I0J237900D01*
G01*
G37*
G36*
G01*
X143024200Y-97287900D02*
X143024200Y-96812100D01*
G75*
G02*
X143262100Y-96574200I237900J0D01*
G01*
X144112900Y-96574200D01*
G75*
G02*
X144350800Y-96812100I0J-237900D01*
G01*
X144350800Y-97287900D01*
G75*
G02*
X144112900Y-97525800I-237900J0D01*
G01*
X143262100Y-97525800D01*
G75*
G02*
X143024200Y-97287900I0J237900D01*
G01*
G37*
G36*
G01*
X144175800Y-98193350D02*
X144175800Y-98756650D01*
G75*
G02*
X143931650Y-99000800I-244150J0D01*
G01*
X143443350Y-99000800D01*
G75*
G02*
X143199200Y-98756650I0J244150D01*
G01*
X143199200Y-98193350D01*
G75*
G02*
X143443350Y-97949200I244150J0D01*
G01*
X143931650Y-97949200D01*
G75*
G02*
X144175800Y-98193350I0J-244150D01*
G01*
G37*
G36*
G01*
X145750800Y-98193350D02*
X145750800Y-98756650D01*
G75*
G02*
X145506650Y-99000800I-244150J0D01*
G01*
X145018350Y-99000800D01*
G75*
G02*
X144774200Y-98756650I0J244150D01*
G01*
X144774200Y-98193350D01*
G75*
G02*
X145018350Y-97949200I244150J0D01*
G01*
X145506650Y-97949200D01*
G75*
G02*
X145750800Y-98193350I0J-244150D01*
G01*
G37*
D14*
X127710000Y-102635000D03*
X127710000Y-97175000D03*
D15*
X130710000Y-102325000D03*
X130710000Y-97485000D03*
M02*
