G04 #@! TF.GenerationSoftware,KiCad,Pcbnew,(5.1.8-0-10_14)*
G04 #@! TF.CreationDate,2021-01-26T20:48:40-08:00*
G04 #@! TF.ProjectId,Compact,436f6d70-6163-4742-9e6b-696361645f70,rev?*
G04 #@! TF.SameCoordinates,Original*
G04 #@! TF.FileFunction,Legend,Bot*
G04 #@! TF.FilePolarity,Positive*
%FSLAX46Y46*%
G04 Gerber Fmt 4.6, Leading zero omitted, Abs format (unit mm)*
G04 Created by KiCad (PCBNEW (5.1.8-0-10_14)) date 2021-01-26 20:48:40*
%MOMM*%
%LPD*%
G01*
G04 APERTURE LIST*
%ADD10C,0.150000*%
%ADD11C,0.100000*%
%ADD12C,0.120000*%
G04 APERTURE END LIST*
D10*
X150750000Y-93075000D02*
X147250000Y-93075000D01*
X154225000Y-93100000D02*
X156750000Y-93100000D01*
D11*
X151217857Y-92927380D02*
X151165476Y-92901190D01*
X151060714Y-92901190D01*
X151008333Y-92927380D01*
X150982142Y-92953571D01*
X150955952Y-93005952D01*
X150955952Y-93163095D01*
X150982142Y-93215476D01*
X151008333Y-93241666D01*
X151060714Y-93267857D01*
X151165476Y-93267857D01*
X151217857Y-93241666D01*
X151689285Y-92901190D02*
X151689285Y-93189285D01*
X151663095Y-93241666D01*
X151610714Y-93267857D01*
X151505952Y-93267857D01*
X151453571Y-93241666D01*
X151689285Y-92927380D02*
X151636904Y-92901190D01*
X151505952Y-92901190D01*
X151453571Y-92927380D01*
X151427380Y-92979761D01*
X151427380Y-93032142D01*
X151453571Y-93084523D01*
X151505952Y-93110714D01*
X151636904Y-93110714D01*
X151689285Y-93136904D01*
X151872619Y-93267857D02*
X152082142Y-93267857D01*
X151951190Y-93451190D02*
X151951190Y-92979761D01*
X151977380Y-92927380D01*
X152029761Y-92901190D01*
X152082142Y-92901190D01*
X152265476Y-92901190D02*
X152265476Y-93451190D01*
X152501190Y-92901190D02*
X152501190Y-93189285D01*
X152475000Y-93241666D01*
X152422619Y-93267857D01*
X152344047Y-93267857D01*
X152291666Y-93241666D01*
X152265476Y-93215476D01*
X152841666Y-92901190D02*
X152789285Y-92927380D01*
X152763095Y-92953571D01*
X152736904Y-93005952D01*
X152736904Y-93163095D01*
X152763095Y-93215476D01*
X152789285Y-93241666D01*
X152841666Y-93267857D01*
X152920238Y-93267857D01*
X152972619Y-93241666D01*
X152998809Y-93215476D01*
X153025000Y-93163095D01*
X153025000Y-93005952D01*
X152998809Y-92953571D01*
X152972619Y-92927380D01*
X152920238Y-92901190D01*
X152841666Y-92901190D01*
X153496428Y-92901190D02*
X153496428Y-93451190D01*
X153496428Y-92927380D02*
X153444047Y-92901190D01*
X153339285Y-92901190D01*
X153286904Y-92927380D01*
X153260714Y-92953571D01*
X153234523Y-93005952D01*
X153234523Y-93163095D01*
X153260714Y-93215476D01*
X153286904Y-93241666D01*
X153339285Y-93267857D01*
X153444047Y-93267857D01*
X153496428Y-93241666D01*
X153967857Y-92927380D02*
X153915476Y-92901190D01*
X153810714Y-92901190D01*
X153758333Y-92927380D01*
X153732142Y-92979761D01*
X153732142Y-93189285D01*
X153758333Y-93241666D01*
X153810714Y-93267857D01*
X153915476Y-93267857D01*
X153967857Y-93241666D01*
X153994047Y-93189285D01*
X153994047Y-93136904D01*
X153732142Y-93084523D01*
X165007142Y-100829761D02*
X165373809Y-100829761D01*
X164797619Y-100698809D02*
X165190476Y-100567857D01*
X165190476Y-100908333D01*
X164798809Y-99016666D02*
X164798809Y-99357142D01*
X165008333Y-99173809D01*
X165008333Y-99252380D01*
X165034523Y-99304761D01*
X165060714Y-99330952D01*
X165113095Y-99357142D01*
X165244047Y-99357142D01*
X165296428Y-99330952D01*
X165322619Y-99304761D01*
X165348809Y-99252380D01*
X165348809Y-99095238D01*
X165322619Y-99042857D01*
X165296428Y-99016666D01*
X164851190Y-97642857D02*
X164825000Y-97669047D01*
X164798809Y-97721428D01*
X164798809Y-97852380D01*
X164825000Y-97904761D01*
X164851190Y-97930952D01*
X164903571Y-97957142D01*
X164955952Y-97957142D01*
X165034523Y-97930952D01*
X165348809Y-97616666D01*
X165348809Y-97957142D01*
X165373809Y-96457142D02*
X165373809Y-96142857D01*
X165373809Y-96300000D02*
X164823809Y-96300000D01*
X164902380Y-96247619D01*
X164954761Y-96195238D01*
X164980952Y-96142857D01*
X134025000Y-98296428D02*
X134025000Y-97696428D01*
X133796428Y-97696428D01*
X133739285Y-97725000D01*
X133710714Y-97753571D01*
X133682142Y-97810714D01*
X133682142Y-97896428D01*
X133710714Y-97953571D01*
X133739285Y-97982142D01*
X133796428Y-98010714D01*
X134025000Y-98010714D01*
X133482142Y-97696428D02*
X133339285Y-98296428D01*
X133225000Y-97867857D01*
X133110714Y-98296428D01*
X132967857Y-97696428D01*
X132396428Y-98296428D02*
X132596428Y-98010714D01*
X132739285Y-98296428D02*
X132739285Y-97696428D01*
X132510714Y-97696428D01*
X132453571Y-97725000D01*
X132425000Y-97753571D01*
X132396428Y-97810714D01*
X132396428Y-97896428D01*
X132425000Y-97953571D01*
X132453571Y-97982142D01*
X132510714Y-98010714D01*
X132739285Y-98010714D01*
X133610714Y-99296428D02*
X133896428Y-99296428D01*
X133896428Y-98696428D01*
X133410714Y-98982142D02*
X133210714Y-98982142D01*
X133125000Y-99296428D02*
X133410714Y-99296428D01*
X133410714Y-98696428D01*
X133125000Y-98696428D01*
X132867857Y-99296428D02*
X132867857Y-98696428D01*
X132725000Y-98696428D01*
X132639285Y-98725000D01*
X132582142Y-98782142D01*
X132553571Y-98839285D01*
X132525000Y-98953571D01*
X132525000Y-99039285D01*
X132553571Y-99153571D01*
X132582142Y-99210714D01*
X132639285Y-99267857D01*
X132725000Y-99296428D01*
X132867857Y-99296428D01*
D12*
X157607142Y-89942857D02*
X157692857Y-89914285D01*
X157721428Y-89885714D01*
X157750000Y-89828571D01*
X157750000Y-89742857D01*
X157721428Y-89685714D01*
X157692857Y-89657142D01*
X157635714Y-89628571D01*
X157407142Y-89628571D01*
X157407142Y-90228571D01*
X157607142Y-90228571D01*
X157664285Y-90200000D01*
X157692857Y-90171428D01*
X157721428Y-90114285D01*
X157721428Y-90057142D01*
X157692857Y-90000000D01*
X157664285Y-89971428D01*
X157607142Y-89942857D01*
X157407142Y-89942857D01*
X157978571Y-89800000D02*
X158264285Y-89800000D01*
X157921428Y-89628571D02*
X158121428Y-90228571D01*
X158321428Y-89628571D01*
X158435714Y-90228571D02*
X158778571Y-90228571D01*
X158607142Y-89628571D02*
X158607142Y-90228571D01*
X158892857Y-90228571D02*
X159235714Y-90228571D01*
X159064285Y-89628571D02*
X159064285Y-90228571D01*
X159435714Y-89857142D02*
X159892857Y-89857142D01*
X159664285Y-89628571D02*
X159664285Y-90085714D01*
D11*
X160629761Y-104665714D02*
X160655952Y-104703809D01*
X160734523Y-104741904D01*
X160786904Y-104741904D01*
X160865476Y-104703809D01*
X160917857Y-104627619D01*
X160944047Y-104551428D01*
X160970238Y-104399047D01*
X160970238Y-104284761D01*
X160944047Y-104132380D01*
X160917857Y-104056190D01*
X160865476Y-103980000D01*
X160786904Y-103941904D01*
X160734523Y-103941904D01*
X160655952Y-103980000D01*
X160629761Y-104018095D01*
X160315476Y-104741904D02*
X160367857Y-104703809D01*
X160394047Y-104665714D01*
X160420238Y-104589523D01*
X160420238Y-104360952D01*
X160394047Y-104284761D01*
X160367857Y-104246666D01*
X160315476Y-104208571D01*
X160236904Y-104208571D01*
X160184523Y-104246666D01*
X160158333Y-104284761D01*
X160132142Y-104360952D01*
X160132142Y-104589523D01*
X160158333Y-104665714D01*
X160184523Y-104703809D01*
X160236904Y-104741904D01*
X160315476Y-104741904D01*
X159896428Y-104741904D02*
X159896428Y-104208571D01*
X159896428Y-104284761D02*
X159870238Y-104246666D01*
X159817857Y-104208571D01*
X159739285Y-104208571D01*
X159686904Y-104246666D01*
X159660714Y-104322857D01*
X159660714Y-104741904D01*
X159660714Y-104322857D02*
X159634523Y-104246666D01*
X159582142Y-104208571D01*
X159503571Y-104208571D01*
X159451190Y-104246666D01*
X159425000Y-104322857D01*
X159425000Y-104741904D01*
X159163095Y-104208571D02*
X159163095Y-105008571D01*
X159163095Y-104246666D02*
X159110714Y-104208571D01*
X159005952Y-104208571D01*
X158953571Y-104246666D01*
X158927380Y-104284761D01*
X158901190Y-104360952D01*
X158901190Y-104589523D01*
X158927380Y-104665714D01*
X158953571Y-104703809D01*
X159005952Y-104741904D01*
X159110714Y-104741904D01*
X159163095Y-104703809D01*
X158429761Y-104741904D02*
X158429761Y-104322857D01*
X158455952Y-104246666D01*
X158508333Y-104208571D01*
X158613095Y-104208571D01*
X158665476Y-104246666D01*
X158429761Y-104703809D02*
X158482142Y-104741904D01*
X158613095Y-104741904D01*
X158665476Y-104703809D01*
X158691666Y-104627619D01*
X158691666Y-104551428D01*
X158665476Y-104475238D01*
X158613095Y-104437142D01*
X158482142Y-104437142D01*
X158429761Y-104399047D01*
X157932142Y-104703809D02*
X157984523Y-104741904D01*
X158089285Y-104741904D01*
X158141666Y-104703809D01*
X158167857Y-104665714D01*
X158194047Y-104589523D01*
X158194047Y-104360952D01*
X158167857Y-104284761D01*
X158141666Y-104246666D01*
X158089285Y-104208571D01*
X157984523Y-104208571D01*
X157932142Y-104246666D01*
X157775000Y-104208571D02*
X157565476Y-104208571D01*
X157696428Y-103941904D02*
X157696428Y-104627619D01*
X157670238Y-104703809D01*
X157617857Y-104741904D01*
X157565476Y-104741904D01*
D10*
X160966309Y-102541904D02*
X160509166Y-102541904D01*
X160737738Y-103341904D02*
X160737738Y-102541904D01*
X160242500Y-103341904D02*
X160242500Y-102541904D01*
X159899642Y-103341904D02*
X159899642Y-102922857D01*
X159937738Y-102846666D01*
X160013928Y-102808571D01*
X160128214Y-102808571D01*
X160204404Y-102846666D01*
X160242500Y-102884761D01*
X159175833Y-102808571D02*
X159175833Y-103341904D01*
X159518690Y-102808571D02*
X159518690Y-103227619D01*
X159480595Y-103303809D01*
X159404404Y-103341904D01*
X159290119Y-103341904D01*
X159213928Y-103303809D01*
X159175833Y-103265714D01*
X158794880Y-102808571D02*
X158794880Y-103341904D01*
X158794880Y-102884761D02*
X158756785Y-102846666D01*
X158680595Y-102808571D01*
X158566309Y-102808571D01*
X158490119Y-102846666D01*
X158452023Y-102922857D01*
X158452023Y-103341904D01*
X157728214Y-103341904D02*
X157728214Y-102541904D01*
X157728214Y-103303809D02*
X157804404Y-103341904D01*
X157956785Y-103341904D01*
X158032976Y-103303809D01*
X158071071Y-103265714D01*
X158109166Y-103189523D01*
X158109166Y-102960952D01*
X158071071Y-102884761D01*
X158032976Y-102846666D01*
X157956785Y-102808571D01*
X157804404Y-102808571D01*
X157728214Y-102846666D01*
X157042500Y-103303809D02*
X157118690Y-103341904D01*
X157271071Y-103341904D01*
X157347261Y-103303809D01*
X157385357Y-103227619D01*
X157385357Y-102922857D01*
X157347261Y-102846666D01*
X157271071Y-102808571D01*
X157118690Y-102808571D01*
X157042500Y-102846666D01*
X157004404Y-102922857D01*
X157004404Y-102999047D01*
X157385357Y-103075238D01*
X156661547Y-103341904D02*
X156661547Y-102808571D01*
X156661547Y-102960952D02*
X156623452Y-102884761D01*
X156585357Y-102846666D01*
X156509166Y-102808571D01*
X156432976Y-102808571D01*
X156166309Y-103341904D02*
X156166309Y-102541904D01*
X155861547Y-102541904D01*
X155785357Y-102580000D01*
X155747261Y-102618095D01*
X155709166Y-102694285D01*
X155709166Y-102808571D01*
X155747261Y-102884761D01*
X155785357Y-102922857D01*
X155861547Y-102960952D01*
X156166309Y-102960952D01*
X155023452Y-103341904D02*
X155023452Y-102922857D01*
X155061547Y-102846666D01*
X155137738Y-102808571D01*
X155290119Y-102808571D01*
X155366309Y-102846666D01*
X155023452Y-103303809D02*
X155099642Y-103341904D01*
X155290119Y-103341904D01*
X155366309Y-103303809D01*
X155404404Y-103227619D01*
X155404404Y-103151428D01*
X155366309Y-103075238D01*
X155290119Y-103037142D01*
X155099642Y-103037142D01*
X155023452Y-102999047D01*
X154299642Y-103303809D02*
X154375833Y-103341904D01*
X154528214Y-103341904D01*
X154604404Y-103303809D01*
X154642500Y-103265714D01*
X154680595Y-103189523D01*
X154680595Y-102960952D01*
X154642500Y-102884761D01*
X154604404Y-102846666D01*
X154528214Y-102808571D01*
X154375833Y-102808571D01*
X154299642Y-102846666D01*
X153956785Y-103341904D02*
X153956785Y-102541904D01*
X153880595Y-103037142D02*
X153652023Y-103341904D01*
X153652023Y-102808571D02*
X153956785Y-103113333D01*
X152775833Y-102808571D02*
X152585357Y-103341904D01*
X152394880Y-102808571D01*
X151671071Y-103341904D02*
X152128214Y-103341904D01*
X151899642Y-103341904D02*
X151899642Y-102541904D01*
X151975833Y-102656190D01*
X152052023Y-102732380D01*
X152128214Y-102770476D01*
X151328214Y-103265714D02*
X151290119Y-103303809D01*
X151328214Y-103341904D01*
X151366309Y-103303809D01*
X151328214Y-103265714D01*
X151328214Y-103341904D01*
X150985357Y-102618095D02*
X150947261Y-102580000D01*
X150871071Y-102541904D01*
X150680595Y-102541904D01*
X150604404Y-102580000D01*
X150566309Y-102618095D01*
X150528214Y-102694285D01*
X150528214Y-102770476D01*
X150566309Y-102884761D01*
X151023452Y-103341904D01*
X150528214Y-103341904D01*
D11*
X129605952Y-105008333D02*
X129141666Y-105008333D01*
X129048809Y-105039285D01*
X128986904Y-105101190D01*
X128955952Y-105194047D01*
X128955952Y-105255952D01*
X128986904Y-104451190D02*
X128955952Y-104513095D01*
X128955952Y-104636904D01*
X128986904Y-104698809D01*
X129048809Y-104729761D01*
X129296428Y-104729761D01*
X129358333Y-104698809D01*
X129389285Y-104636904D01*
X129389285Y-104513095D01*
X129358333Y-104451190D01*
X129296428Y-104420238D01*
X129234523Y-104420238D01*
X129172619Y-104729761D01*
X128955952Y-104141666D02*
X129389285Y-104141666D01*
X129265476Y-104141666D02*
X129327380Y-104110714D01*
X129358333Y-104079761D01*
X129389285Y-104017857D01*
X129389285Y-103955952D01*
X128986904Y-103491666D02*
X128955952Y-103553571D01*
X128955952Y-103677380D01*
X128986904Y-103739285D01*
X129048809Y-103770238D01*
X129296428Y-103770238D01*
X129358333Y-103739285D01*
X129389285Y-103677380D01*
X129389285Y-103553571D01*
X129358333Y-103491666D01*
X129296428Y-103460714D01*
X129234523Y-103460714D01*
X129172619Y-103770238D01*
X128955952Y-103182142D02*
X129389285Y-103182142D01*
X129327380Y-103182142D02*
X129358333Y-103151190D01*
X129389285Y-103089285D01*
X129389285Y-102996428D01*
X129358333Y-102934523D01*
X129296428Y-102903571D01*
X128955952Y-102903571D01*
X129296428Y-102903571D02*
X129358333Y-102872619D01*
X129389285Y-102810714D01*
X129389285Y-102717857D01*
X129358333Y-102655952D01*
X129296428Y-102625000D01*
X128955952Y-102625000D01*
X129389285Y-102377380D02*
X128955952Y-102222619D01*
X129389285Y-102067857D02*
X128955952Y-102222619D01*
X128801190Y-102284523D01*
X128770238Y-102315476D01*
X128739285Y-102377380D01*
X129575000Y-100984523D02*
X129605952Y-101046428D01*
X129605952Y-101139285D01*
X129575000Y-101232142D01*
X129513095Y-101294047D01*
X129451190Y-101325000D01*
X129327380Y-101355952D01*
X129234523Y-101355952D01*
X129110714Y-101325000D01*
X129048809Y-101294047D01*
X128986904Y-101232142D01*
X128955952Y-101139285D01*
X128955952Y-101077380D01*
X128986904Y-100984523D01*
X129017857Y-100953571D01*
X129234523Y-100953571D01*
X129234523Y-101077380D01*
X128955952Y-100675000D02*
X129389285Y-100675000D01*
X129605952Y-100675000D02*
X129575000Y-100705952D01*
X129544047Y-100675000D01*
X129575000Y-100644047D01*
X129605952Y-100675000D01*
X129544047Y-100675000D01*
X128955952Y-100272619D02*
X128986904Y-100334523D01*
X129048809Y-100365476D01*
X129605952Y-100365476D01*
X128955952Y-99932142D02*
X128986904Y-99994047D01*
X129048809Y-100025000D01*
X129605952Y-100025000D01*
X128955952Y-99684523D02*
X129389285Y-99684523D01*
X129605952Y-99684523D02*
X129575000Y-99715476D01*
X129544047Y-99684523D01*
X129575000Y-99653571D01*
X129605952Y-99684523D01*
X129544047Y-99684523D01*
X128986904Y-99096428D02*
X128955952Y-99158333D01*
X128955952Y-99282142D01*
X128986904Y-99344047D01*
X129017857Y-99375000D01*
X129079761Y-99405952D01*
X129265476Y-99405952D01*
X129327380Y-99375000D01*
X129358333Y-99344047D01*
X129389285Y-99282142D01*
X129389285Y-99158333D01*
X129358333Y-99096428D01*
X128955952Y-98817857D02*
X129605952Y-98817857D01*
X129203571Y-98755952D02*
X128955952Y-98570238D01*
X129389285Y-98570238D02*
X129141666Y-98817857D01*
X128955952Y-97486904D02*
X128955952Y-97796428D01*
X129605952Y-97796428D01*
X128955952Y-96991666D02*
X129296428Y-96991666D01*
X129358333Y-97022619D01*
X129389285Y-97084523D01*
X129389285Y-97208333D01*
X129358333Y-97270238D01*
X128986904Y-96991666D02*
X128955952Y-97053571D01*
X128955952Y-97208333D01*
X128986904Y-97270238D01*
X129048809Y-97301190D01*
X129110714Y-97301190D01*
X129172619Y-97270238D01*
X129203571Y-97208333D01*
X129203571Y-97053571D01*
X129234523Y-96991666D01*
X128955952Y-96682142D02*
X129605952Y-96682142D01*
X129358333Y-96682142D02*
X129389285Y-96620238D01*
X129389285Y-96496428D01*
X129358333Y-96434523D01*
X129327380Y-96403571D01*
X129265476Y-96372619D01*
X129079761Y-96372619D01*
X129017857Y-96403571D01*
X128986904Y-96434523D01*
X128955952Y-96496428D01*
X128955952Y-96620238D01*
X128986904Y-96682142D01*
X128986904Y-96125000D02*
X128955952Y-96063095D01*
X128955952Y-95939285D01*
X128986904Y-95877380D01*
X129048809Y-95846428D01*
X129079761Y-95846428D01*
X129141666Y-95877380D01*
X129172619Y-95939285D01*
X129172619Y-96032142D01*
X129203571Y-96094047D01*
X129265476Y-96125000D01*
X129296428Y-96125000D01*
X129358333Y-96094047D01*
X129389285Y-96032142D01*
X129389285Y-95939285D01*
X129358333Y-95877380D01*
X129544047Y-95103571D02*
X129575000Y-95072619D01*
X129605952Y-95010714D01*
X129605952Y-94855952D01*
X129575000Y-94794047D01*
X129544047Y-94763095D01*
X129482142Y-94732142D01*
X129420238Y-94732142D01*
X129327380Y-94763095D01*
X128955952Y-95134523D01*
X128955952Y-94732142D01*
X129605952Y-94329761D02*
X129605952Y-94267857D01*
X129575000Y-94205952D01*
X129544047Y-94175000D01*
X129482142Y-94144047D01*
X129358333Y-94113095D01*
X129203571Y-94113095D01*
X129079761Y-94144047D01*
X129017857Y-94175000D01*
X128986904Y-94205952D01*
X128955952Y-94267857D01*
X128955952Y-94329761D01*
X128986904Y-94391666D01*
X129017857Y-94422619D01*
X129079761Y-94453571D01*
X129203571Y-94484523D01*
X129358333Y-94484523D01*
X129482142Y-94453571D01*
X129544047Y-94422619D01*
X129575000Y-94391666D01*
X129605952Y-94329761D01*
X129544047Y-93865476D02*
X129575000Y-93834523D01*
X129605952Y-93772619D01*
X129605952Y-93617857D01*
X129575000Y-93555952D01*
X129544047Y-93525000D01*
X129482142Y-93494047D01*
X129420238Y-93494047D01*
X129327380Y-93525000D01*
X128955952Y-93896428D01*
X128955952Y-93494047D01*
X129605952Y-93091666D02*
X129605952Y-93029761D01*
X129575000Y-92967857D01*
X129544047Y-92936904D01*
X129482142Y-92905952D01*
X129358333Y-92875000D01*
X129203571Y-92875000D01*
X129079761Y-92905952D01*
X129017857Y-92936904D01*
X128986904Y-92967857D01*
X128955952Y-93029761D01*
X128955952Y-93091666D01*
X128986904Y-93153571D01*
X129017857Y-93184523D01*
X129079761Y-93215476D01*
X129203571Y-93246428D01*
X129358333Y-93246428D01*
X129482142Y-93215476D01*
X129544047Y-93184523D01*
X129575000Y-93153571D01*
X129605952Y-93091666D01*
D12*
X141660714Y-108456428D02*
X141660714Y-107856428D01*
X141432142Y-107856428D01*
X141375000Y-107885000D01*
X141346428Y-107913571D01*
X141317857Y-107970714D01*
X141317857Y-108056428D01*
X141346428Y-108113571D01*
X141375000Y-108142142D01*
X141432142Y-108170714D01*
X141660714Y-108170714D01*
X141089285Y-108285000D02*
X140803571Y-108285000D01*
X141146428Y-108456428D02*
X140946428Y-107856428D01*
X140746428Y-108456428D01*
X140232142Y-108456428D02*
X140575000Y-108456428D01*
X140403571Y-108456428D02*
X140403571Y-107856428D01*
X140460714Y-107942142D01*
X140517857Y-107999285D01*
X140575000Y-108027857D01*
X139717857Y-108056428D02*
X139717857Y-108456428D01*
X139860714Y-107827857D02*
X140003571Y-108256428D01*
X139632142Y-108256428D01*
X143917857Y-108516428D02*
X143917857Y-107916428D01*
X143689285Y-107916428D01*
X143632142Y-107945000D01*
X143603571Y-107973571D01*
X143575000Y-108030714D01*
X143575000Y-108116428D01*
X143603571Y-108173571D01*
X143632142Y-108202142D01*
X143689285Y-108230714D01*
X143917857Y-108230714D01*
X143117857Y-108202142D02*
X143032142Y-108230714D01*
X143003571Y-108259285D01*
X142975000Y-108316428D01*
X142975000Y-108402142D01*
X143003571Y-108459285D01*
X143032142Y-108487857D01*
X143089285Y-108516428D01*
X143317857Y-108516428D01*
X143317857Y-107916428D01*
X143117857Y-107916428D01*
X143060714Y-107945000D01*
X143032142Y-107973571D01*
X143003571Y-108030714D01*
X143003571Y-108087857D01*
X143032142Y-108145000D01*
X143060714Y-108173571D01*
X143117857Y-108202142D01*
X143317857Y-108202142D01*
X142432142Y-107916428D02*
X142717857Y-107916428D01*
X142746428Y-108202142D01*
X142717857Y-108173571D01*
X142660714Y-108145000D01*
X142517857Y-108145000D01*
X142460714Y-108173571D01*
X142432142Y-108202142D01*
X142403571Y-108259285D01*
X142403571Y-108402142D01*
X142432142Y-108459285D01*
X142460714Y-108487857D01*
X142517857Y-108516428D01*
X142660714Y-108516428D01*
X142717857Y-108487857D01*
X142746428Y-108459285D01*
X146457857Y-108516428D02*
X146457857Y-107916428D01*
X146229285Y-107916428D01*
X146172142Y-107945000D01*
X146143571Y-107973571D01*
X146115000Y-108030714D01*
X146115000Y-108116428D01*
X146143571Y-108173571D01*
X146172142Y-108202142D01*
X146229285Y-108230714D01*
X146457857Y-108230714D01*
X145657857Y-108202142D02*
X145572142Y-108230714D01*
X145543571Y-108259285D01*
X145515000Y-108316428D01*
X145515000Y-108402142D01*
X145543571Y-108459285D01*
X145572142Y-108487857D01*
X145629285Y-108516428D01*
X145857857Y-108516428D01*
X145857857Y-107916428D01*
X145657857Y-107916428D01*
X145600714Y-107945000D01*
X145572142Y-107973571D01*
X145543571Y-108030714D01*
X145543571Y-108087857D01*
X145572142Y-108145000D01*
X145600714Y-108173571D01*
X145657857Y-108202142D01*
X145857857Y-108202142D01*
X145000714Y-107916428D02*
X145115000Y-107916428D01*
X145172142Y-107945000D01*
X145200714Y-107973571D01*
X145257857Y-108059285D01*
X145286428Y-108173571D01*
X145286428Y-108402142D01*
X145257857Y-108459285D01*
X145229285Y-108487857D01*
X145172142Y-108516428D01*
X145057857Y-108516428D01*
X145000714Y-108487857D01*
X144972142Y-108459285D01*
X144943571Y-108402142D01*
X144943571Y-108259285D01*
X144972142Y-108202142D01*
X145000714Y-108173571D01*
X145057857Y-108145000D01*
X145172142Y-108145000D01*
X145229285Y-108173571D01*
X145257857Y-108202142D01*
X145286428Y-108259285D01*
X148977857Y-108476428D02*
X148977857Y-107876428D01*
X148749285Y-107876428D01*
X148692142Y-107905000D01*
X148663571Y-107933571D01*
X148635000Y-107990714D01*
X148635000Y-108076428D01*
X148663571Y-108133571D01*
X148692142Y-108162142D01*
X148749285Y-108190714D01*
X148977857Y-108190714D01*
X148177857Y-108162142D02*
X148092142Y-108190714D01*
X148063571Y-108219285D01*
X148035000Y-108276428D01*
X148035000Y-108362142D01*
X148063571Y-108419285D01*
X148092142Y-108447857D01*
X148149285Y-108476428D01*
X148377857Y-108476428D01*
X148377857Y-107876428D01*
X148177857Y-107876428D01*
X148120714Y-107905000D01*
X148092142Y-107933571D01*
X148063571Y-107990714D01*
X148063571Y-108047857D01*
X148092142Y-108105000D01*
X148120714Y-108133571D01*
X148177857Y-108162142D01*
X148377857Y-108162142D01*
X147835000Y-107876428D02*
X147435000Y-107876428D01*
X147692142Y-108476428D01*
X151666428Y-108486428D02*
X151866428Y-108200714D01*
X152009285Y-108486428D02*
X152009285Y-107886428D01*
X151780714Y-107886428D01*
X151723571Y-107915000D01*
X151695000Y-107943571D01*
X151666428Y-108000714D01*
X151666428Y-108086428D01*
X151695000Y-108143571D01*
X151723571Y-108172142D01*
X151780714Y-108200714D01*
X152009285Y-108200714D01*
X151409285Y-108172142D02*
X151209285Y-108172142D01*
X151123571Y-108486428D02*
X151409285Y-108486428D01*
X151409285Y-107886428D01*
X151123571Y-107886428D01*
X150895000Y-108457857D02*
X150809285Y-108486428D01*
X150666428Y-108486428D01*
X150609285Y-108457857D01*
X150580714Y-108429285D01*
X150552142Y-108372142D01*
X150552142Y-108315000D01*
X150580714Y-108257857D01*
X150609285Y-108229285D01*
X150666428Y-108200714D01*
X150780714Y-108172142D01*
X150837857Y-108143571D01*
X150866428Y-108115000D01*
X150895000Y-108057857D01*
X150895000Y-108000714D01*
X150866428Y-107943571D01*
X150837857Y-107915000D01*
X150780714Y-107886428D01*
X150637857Y-107886428D01*
X150552142Y-107915000D01*
X150295000Y-108172142D02*
X150095000Y-108172142D01*
X150009285Y-108486428D02*
X150295000Y-108486428D01*
X150295000Y-107886428D01*
X150009285Y-107886428D01*
X149837857Y-107886428D02*
X149495000Y-107886428D01*
X149666428Y-108486428D02*
X149666428Y-107886428D01*
X154049285Y-107896428D02*
X153677857Y-107896428D01*
X153877857Y-108125000D01*
X153792142Y-108125000D01*
X153735000Y-108153571D01*
X153706428Y-108182142D01*
X153677857Y-108239285D01*
X153677857Y-108382142D01*
X153706428Y-108439285D01*
X153735000Y-108467857D01*
X153792142Y-108496428D01*
X153963571Y-108496428D01*
X154020714Y-108467857D01*
X154049285Y-108439285D01*
X153477857Y-108096428D02*
X153335000Y-108496428D01*
X153192142Y-108096428D01*
X153020714Y-107896428D02*
X152649285Y-107896428D01*
X152849285Y-108125000D01*
X152763571Y-108125000D01*
X152706428Y-108153571D01*
X152677857Y-108182142D01*
X152649285Y-108239285D01*
X152649285Y-108382142D01*
X152677857Y-108439285D01*
X152706428Y-108467857D01*
X152763571Y-108496428D01*
X152935000Y-108496428D01*
X152992142Y-108467857D01*
X153020714Y-108439285D01*
X156455000Y-107896428D02*
X156255000Y-108496428D01*
X156055000Y-107896428D01*
X155512142Y-108439285D02*
X155540714Y-108467857D01*
X155626428Y-108496428D01*
X155683571Y-108496428D01*
X155769285Y-108467857D01*
X155826428Y-108410714D01*
X155855000Y-108353571D01*
X155883571Y-108239285D01*
X155883571Y-108153571D01*
X155855000Y-108039285D01*
X155826428Y-107982142D01*
X155769285Y-107925000D01*
X155683571Y-107896428D01*
X155626428Y-107896428D01*
X155540714Y-107925000D01*
X155512142Y-107953571D01*
X154912142Y-108439285D02*
X154940714Y-108467857D01*
X155026428Y-108496428D01*
X155083571Y-108496428D01*
X155169285Y-108467857D01*
X155226428Y-108410714D01*
X155255000Y-108353571D01*
X155283571Y-108239285D01*
X155283571Y-108153571D01*
X155255000Y-108039285D01*
X155226428Y-107982142D01*
X155169285Y-107925000D01*
X155083571Y-107896428D01*
X155026428Y-107896428D01*
X154940714Y-107925000D01*
X154912142Y-107953571D01*
X159515000Y-107896428D02*
X159315000Y-108496428D01*
X159115000Y-107896428D01*
X158915000Y-107896428D02*
X158915000Y-108382142D01*
X158886428Y-108439285D01*
X158857857Y-108467857D01*
X158800714Y-108496428D01*
X158686428Y-108496428D01*
X158629285Y-108467857D01*
X158600714Y-108439285D01*
X158572142Y-108382142D01*
X158572142Y-107896428D01*
X158315000Y-108467857D02*
X158229285Y-108496428D01*
X158086428Y-108496428D01*
X158029285Y-108467857D01*
X158000714Y-108439285D01*
X157972142Y-108382142D01*
X157972142Y-108325000D01*
X158000714Y-108267857D01*
X158029285Y-108239285D01*
X158086428Y-108210714D01*
X158200714Y-108182142D01*
X158257857Y-108153571D01*
X158286428Y-108125000D01*
X158315000Y-108067857D01*
X158315000Y-108010714D01*
X158286428Y-107953571D01*
X158257857Y-107925000D01*
X158200714Y-107896428D01*
X158057857Y-107896428D01*
X157972142Y-107925000D01*
X157515000Y-108182142D02*
X157429285Y-108210714D01*
X157400714Y-108239285D01*
X157372142Y-108296428D01*
X157372142Y-108382142D01*
X157400714Y-108439285D01*
X157429285Y-108467857D01*
X157486428Y-108496428D01*
X157715000Y-108496428D01*
X157715000Y-107896428D01*
X157515000Y-107896428D01*
X157457857Y-107925000D01*
X157429285Y-107953571D01*
X157400714Y-108010714D01*
X157400714Y-108067857D01*
X157429285Y-108125000D01*
X157457857Y-108153571D01*
X157515000Y-108182142D01*
X157715000Y-108182142D01*
X161422142Y-107925000D02*
X161479285Y-107896428D01*
X161565000Y-107896428D01*
X161650714Y-107925000D01*
X161707857Y-107982142D01*
X161736428Y-108039285D01*
X161765000Y-108153571D01*
X161765000Y-108239285D01*
X161736428Y-108353571D01*
X161707857Y-108410714D01*
X161650714Y-108467857D01*
X161565000Y-108496428D01*
X161507857Y-108496428D01*
X161422142Y-108467857D01*
X161393571Y-108439285D01*
X161393571Y-108239285D01*
X161507857Y-108239285D01*
X161136428Y-108496428D02*
X161136428Y-107896428D01*
X160793571Y-108496428D01*
X160793571Y-107896428D01*
X160507857Y-108496428D02*
X160507857Y-107896428D01*
X160365000Y-107896428D01*
X160279285Y-107925000D01*
X160222142Y-107982142D01*
X160193571Y-108039285D01*
X160165000Y-108153571D01*
X160165000Y-108239285D01*
X160193571Y-108353571D01*
X160222142Y-108410714D01*
X160279285Y-108467857D01*
X160365000Y-108496428D01*
X160507857Y-108496428D01*
X139090714Y-108446428D02*
X139090714Y-107846428D01*
X138862142Y-107846428D01*
X138805000Y-107875000D01*
X138776428Y-107903571D01*
X138747857Y-107960714D01*
X138747857Y-108046428D01*
X138776428Y-108103571D01*
X138805000Y-108132142D01*
X138862142Y-108160714D01*
X139090714Y-108160714D01*
X138519285Y-108275000D02*
X138233571Y-108275000D01*
X138576428Y-108446428D02*
X138376428Y-107846428D01*
X138176428Y-108446428D01*
X137662142Y-108446428D02*
X138005000Y-108446428D01*
X137833571Y-108446428D02*
X137833571Y-107846428D01*
X137890714Y-107932142D01*
X137947857Y-107989285D01*
X138005000Y-108017857D01*
X137462142Y-107846428D02*
X137090714Y-107846428D01*
X137290714Y-108075000D01*
X137205000Y-108075000D01*
X137147857Y-108103571D01*
X137119285Y-108132142D01*
X137090714Y-108189285D01*
X137090714Y-108332142D01*
X137119285Y-108389285D01*
X137147857Y-108417857D01*
X137205000Y-108446428D01*
X137376428Y-108446428D01*
X137433571Y-108417857D01*
X137462142Y-108389285D01*
X136480714Y-108446428D02*
X136480714Y-107846428D01*
X136252142Y-107846428D01*
X136195000Y-107875000D01*
X136166428Y-107903571D01*
X136137857Y-107960714D01*
X136137857Y-108046428D01*
X136166428Y-108103571D01*
X136195000Y-108132142D01*
X136252142Y-108160714D01*
X136480714Y-108160714D01*
X135909285Y-108275000D02*
X135623571Y-108275000D01*
X135966428Y-108446428D02*
X135766428Y-107846428D01*
X135566428Y-108446428D01*
X135052142Y-108446428D02*
X135395000Y-108446428D01*
X135223571Y-108446428D02*
X135223571Y-107846428D01*
X135280714Y-107932142D01*
X135337857Y-107989285D01*
X135395000Y-108017857D01*
X134680714Y-107846428D02*
X134623571Y-107846428D01*
X134566428Y-107875000D01*
X134537857Y-107903571D01*
X134509285Y-107960714D01*
X134480714Y-108075000D01*
X134480714Y-108217857D01*
X134509285Y-108332142D01*
X134537857Y-108389285D01*
X134566428Y-108417857D01*
X134623571Y-108446428D01*
X134680714Y-108446428D01*
X134737857Y-108417857D01*
X134766428Y-108389285D01*
X134795000Y-108332142D01*
X134823571Y-108217857D01*
X134823571Y-108075000D01*
X134795000Y-107960714D01*
X134766428Y-107903571D01*
X134737857Y-107875000D01*
X134680714Y-107846428D01*
X133625000Y-108446428D02*
X133625000Y-107846428D01*
X133396428Y-107846428D01*
X133339285Y-107875000D01*
X133310714Y-107903571D01*
X133282142Y-107960714D01*
X133282142Y-108046428D01*
X133310714Y-108103571D01*
X133339285Y-108132142D01*
X133396428Y-108160714D01*
X133625000Y-108160714D01*
X133053571Y-108275000D02*
X132767857Y-108275000D01*
X133110714Y-108446428D02*
X132910714Y-107846428D01*
X132710714Y-108446428D01*
X132482142Y-108446428D02*
X132367857Y-108446428D01*
X132310714Y-108417857D01*
X132282142Y-108389285D01*
X132225000Y-108303571D01*
X132196428Y-108189285D01*
X132196428Y-107960714D01*
X132225000Y-107903571D01*
X132253571Y-107875000D01*
X132310714Y-107846428D01*
X132425000Y-107846428D01*
X132482142Y-107875000D01*
X132510714Y-107903571D01*
X132539285Y-107960714D01*
X132539285Y-108103571D01*
X132510714Y-108160714D01*
X132482142Y-108189285D01*
X132425000Y-108217857D01*
X132310714Y-108217857D01*
X132253571Y-108189285D01*
X132225000Y-108160714D01*
X132196428Y-108103571D01*
X132205000Y-89648571D02*
X132205000Y-90248571D01*
X132433571Y-90248571D01*
X132490714Y-90220000D01*
X132519285Y-90191428D01*
X132547857Y-90134285D01*
X132547857Y-90048571D01*
X132519285Y-89991428D01*
X132490714Y-89962857D01*
X132433571Y-89934285D01*
X132205000Y-89934285D01*
X132776428Y-89820000D02*
X133062142Y-89820000D01*
X132719285Y-89648571D02*
X132919285Y-90248571D01*
X133119285Y-89648571D01*
X133405000Y-89991428D02*
X133347857Y-90020000D01*
X133319285Y-90048571D01*
X133290714Y-90105714D01*
X133290714Y-90134285D01*
X133319285Y-90191428D01*
X133347857Y-90220000D01*
X133405000Y-90248571D01*
X133519285Y-90248571D01*
X133576428Y-90220000D01*
X133605000Y-90191428D01*
X133633571Y-90134285D01*
X133633571Y-90105714D01*
X133605000Y-90048571D01*
X133576428Y-90020000D01*
X133519285Y-89991428D01*
X133405000Y-89991428D01*
X133347857Y-89962857D01*
X133319285Y-89934285D01*
X133290714Y-89877142D01*
X133290714Y-89762857D01*
X133319285Y-89705714D01*
X133347857Y-89677142D01*
X133405000Y-89648571D01*
X133519285Y-89648571D01*
X133576428Y-89677142D01*
X133605000Y-89705714D01*
X133633571Y-89762857D01*
X133633571Y-89877142D01*
X133605000Y-89934285D01*
X133576428Y-89962857D01*
X133519285Y-89991428D01*
X134745000Y-89648571D02*
X134745000Y-90248571D01*
X134973571Y-90248571D01*
X135030714Y-90220000D01*
X135059285Y-90191428D01*
X135087857Y-90134285D01*
X135087857Y-90048571D01*
X135059285Y-89991428D01*
X135030714Y-89962857D01*
X134973571Y-89934285D01*
X134745000Y-89934285D01*
X135316428Y-89820000D02*
X135602142Y-89820000D01*
X135259285Y-89648571D02*
X135459285Y-90248571D01*
X135659285Y-89648571D01*
X135802142Y-90248571D02*
X136202142Y-90248571D01*
X135945000Y-89648571D01*
X137285000Y-89648571D02*
X137285000Y-90248571D01*
X137513571Y-90248571D01*
X137570714Y-90220000D01*
X137599285Y-90191428D01*
X137627857Y-90134285D01*
X137627857Y-90048571D01*
X137599285Y-89991428D01*
X137570714Y-89962857D01*
X137513571Y-89934285D01*
X137285000Y-89934285D01*
X137856428Y-89820000D02*
X138142142Y-89820000D01*
X137799285Y-89648571D02*
X137999285Y-90248571D01*
X138199285Y-89648571D01*
X138656428Y-90248571D02*
X138542142Y-90248571D01*
X138485000Y-90220000D01*
X138456428Y-90191428D01*
X138399285Y-90105714D01*
X138370714Y-89991428D01*
X138370714Y-89762857D01*
X138399285Y-89705714D01*
X138427857Y-89677142D01*
X138485000Y-89648571D01*
X138599285Y-89648571D01*
X138656428Y-89677142D01*
X138685000Y-89705714D01*
X138713571Y-89762857D01*
X138713571Y-89905714D01*
X138685000Y-89962857D01*
X138656428Y-89991428D01*
X138599285Y-90020000D01*
X138485000Y-90020000D01*
X138427857Y-89991428D01*
X138399285Y-89962857D01*
X138370714Y-89905714D01*
X139800000Y-89653571D02*
X139800000Y-90253571D01*
X140028571Y-90253571D01*
X140085714Y-90225000D01*
X140114285Y-90196428D01*
X140142857Y-90139285D01*
X140142857Y-90053571D01*
X140114285Y-89996428D01*
X140085714Y-89967857D01*
X140028571Y-89939285D01*
X139800000Y-89939285D01*
X140371428Y-89825000D02*
X140657142Y-89825000D01*
X140314285Y-89653571D02*
X140514285Y-90253571D01*
X140714285Y-89653571D01*
X141200000Y-90253571D02*
X140914285Y-90253571D01*
X140885714Y-89967857D01*
X140914285Y-89996428D01*
X140971428Y-90025000D01*
X141114285Y-90025000D01*
X141171428Y-89996428D01*
X141200000Y-89967857D01*
X141228571Y-89910714D01*
X141228571Y-89767857D01*
X141200000Y-89710714D01*
X141171428Y-89682142D01*
X141114285Y-89653571D01*
X140971428Y-89653571D01*
X140914285Y-89682142D01*
X140885714Y-89710714D01*
X142350000Y-89653571D02*
X142350000Y-90253571D01*
X142578571Y-90253571D01*
X142635714Y-90225000D01*
X142664285Y-90196428D01*
X142692857Y-90139285D01*
X142692857Y-90053571D01*
X142664285Y-89996428D01*
X142635714Y-89967857D01*
X142578571Y-89939285D01*
X142350000Y-89939285D01*
X142921428Y-89825000D02*
X143207142Y-89825000D01*
X142864285Y-89653571D02*
X143064285Y-90253571D01*
X143264285Y-89653571D01*
X143721428Y-90053571D02*
X143721428Y-89653571D01*
X143578571Y-90282142D02*
X143435714Y-89853571D01*
X143807142Y-89853571D01*
X147528571Y-89628571D02*
X147242857Y-89628571D01*
X147242857Y-90228571D01*
X147728571Y-89942857D02*
X147928571Y-89942857D01*
X148014285Y-89628571D02*
X147728571Y-89628571D01*
X147728571Y-90228571D01*
X148014285Y-90228571D01*
X148271428Y-89628571D02*
X148271428Y-90228571D01*
X148414285Y-90228571D01*
X148500000Y-90200000D01*
X148557142Y-90142857D01*
X148585714Y-90085714D01*
X148614285Y-89971428D01*
X148614285Y-89885714D01*
X148585714Y-89771428D01*
X148557142Y-89714285D01*
X148500000Y-89657142D01*
X148414285Y-89628571D01*
X148271428Y-89628571D01*
X149128571Y-90028571D02*
X149128571Y-89628571D01*
X148985714Y-90257142D02*
X148842857Y-89828571D01*
X149214285Y-89828571D01*
X150158571Y-89638571D02*
X149872857Y-89638571D01*
X149872857Y-90238571D01*
X150358571Y-89952857D02*
X150558571Y-89952857D01*
X150644285Y-89638571D02*
X150358571Y-89638571D01*
X150358571Y-90238571D01*
X150644285Y-90238571D01*
X150901428Y-89638571D02*
X150901428Y-90238571D01*
X151044285Y-90238571D01*
X151130000Y-90210000D01*
X151187142Y-90152857D01*
X151215714Y-90095714D01*
X151244285Y-89981428D01*
X151244285Y-89895714D01*
X151215714Y-89781428D01*
X151187142Y-89724285D01*
X151130000Y-89667142D01*
X151044285Y-89638571D01*
X150901428Y-89638571D01*
X151444285Y-90238571D02*
X151815714Y-90238571D01*
X151615714Y-90010000D01*
X151701428Y-90010000D01*
X151758571Y-89981428D01*
X151787142Y-89952857D01*
X151815714Y-89895714D01*
X151815714Y-89752857D01*
X151787142Y-89695714D01*
X151758571Y-89667142D01*
X151701428Y-89638571D01*
X151530000Y-89638571D01*
X151472857Y-89667142D01*
X151444285Y-89695714D01*
X152728571Y-89638571D02*
X152442857Y-89638571D01*
X152442857Y-90238571D01*
X152928571Y-89952857D02*
X153128571Y-89952857D01*
X153214285Y-89638571D02*
X152928571Y-89638571D01*
X152928571Y-90238571D01*
X153214285Y-90238571D01*
X153471428Y-89638571D02*
X153471428Y-90238571D01*
X153614285Y-90238571D01*
X153700000Y-90210000D01*
X153757142Y-90152857D01*
X153785714Y-90095714D01*
X153814285Y-89981428D01*
X153814285Y-89895714D01*
X153785714Y-89781428D01*
X153757142Y-89724285D01*
X153700000Y-89667142D01*
X153614285Y-89638571D01*
X153471428Y-89638571D01*
X154042857Y-90181428D02*
X154071428Y-90210000D01*
X154128571Y-90238571D01*
X154271428Y-90238571D01*
X154328571Y-90210000D01*
X154357142Y-90181428D01*
X154385714Y-90124285D01*
X154385714Y-90067142D01*
X154357142Y-89981428D01*
X154014285Y-89638571D01*
X154385714Y-89638571D01*
X155218571Y-89638571D02*
X154932857Y-89638571D01*
X154932857Y-90238571D01*
X155418571Y-89952857D02*
X155618571Y-89952857D01*
X155704285Y-89638571D02*
X155418571Y-89638571D01*
X155418571Y-90238571D01*
X155704285Y-90238571D01*
X155961428Y-89638571D02*
X155961428Y-90238571D01*
X156104285Y-90238571D01*
X156190000Y-90210000D01*
X156247142Y-90152857D01*
X156275714Y-90095714D01*
X156304285Y-89981428D01*
X156304285Y-89895714D01*
X156275714Y-89781428D01*
X156247142Y-89724285D01*
X156190000Y-89667142D01*
X156104285Y-89638571D01*
X155961428Y-89638571D01*
X156875714Y-89638571D02*
X156532857Y-89638571D01*
X156704285Y-89638571D02*
X156704285Y-90238571D01*
X156647142Y-90152857D01*
X156590000Y-90095714D01*
X156532857Y-90067142D01*
D10*
X158271428Y-97230952D02*
X158271428Y-96469047D01*
X157819047Y-98821428D02*
X158580952Y-98821428D01*
X158200000Y-99202380D02*
X158200000Y-98440476D01*
D11*
X156920714Y-96730714D02*
X156946904Y-96809285D01*
X156973095Y-96835476D01*
X157025476Y-96861666D01*
X157104047Y-96861666D01*
X157156428Y-96835476D01*
X157182619Y-96809285D01*
X157208809Y-96756904D01*
X157208809Y-96547380D01*
X156658809Y-96547380D01*
X156658809Y-96730714D01*
X156685000Y-96783095D01*
X156711190Y-96809285D01*
X156763571Y-96835476D01*
X156815952Y-96835476D01*
X156868333Y-96809285D01*
X156894523Y-96783095D01*
X156920714Y-96730714D01*
X156920714Y-96547380D01*
X157208809Y-97333095D02*
X156920714Y-97333095D01*
X156868333Y-97306904D01*
X156842142Y-97254523D01*
X156842142Y-97149761D01*
X156868333Y-97097380D01*
X157182619Y-97333095D02*
X157208809Y-97280714D01*
X157208809Y-97149761D01*
X157182619Y-97097380D01*
X157130238Y-97071190D01*
X157077857Y-97071190D01*
X157025476Y-97097380D01*
X156999285Y-97149761D01*
X156999285Y-97280714D01*
X156973095Y-97333095D01*
X156842142Y-97516428D02*
X156842142Y-97725952D01*
X156658809Y-97595000D02*
X157130238Y-97595000D01*
X157182619Y-97621190D01*
X157208809Y-97673571D01*
X157208809Y-97725952D01*
X156842142Y-97830714D02*
X156842142Y-98040238D01*
X156658809Y-97909285D02*
X157130238Y-97909285D01*
X157182619Y-97935476D01*
X157208809Y-97987857D01*
X157208809Y-98040238D01*
X157182619Y-98433095D02*
X157208809Y-98380714D01*
X157208809Y-98275952D01*
X157182619Y-98223571D01*
X157130238Y-98197380D01*
X156920714Y-98197380D01*
X156868333Y-98223571D01*
X156842142Y-98275952D01*
X156842142Y-98380714D01*
X156868333Y-98433095D01*
X156920714Y-98459285D01*
X156973095Y-98459285D01*
X157025476Y-98197380D01*
X157208809Y-98695000D02*
X156842142Y-98695000D01*
X156946904Y-98695000D02*
X156894523Y-98721190D01*
X156868333Y-98747380D01*
X156842142Y-98799761D01*
X156842142Y-98852142D01*
X156842142Y-98983095D02*
X157208809Y-99114047D01*
X156842142Y-99245000D02*
X157208809Y-99114047D01*
X157339761Y-99061666D01*
X157365952Y-99035476D01*
X157392142Y-98983095D01*
D12*
X163337258Y-102702500D02*
X162862742Y-102702500D01*
X163337258Y-101657500D02*
X162862742Y-101657500D01*
X163347258Y-104162500D02*
X162872742Y-104162500D01*
X163347258Y-103117500D02*
X162872742Y-103117500D01*
X163357258Y-93832500D02*
X162882742Y-93832500D01*
X163357258Y-92787500D02*
X162882742Y-92787500D01*
X163347258Y-95302500D02*
X162872742Y-95302500D01*
X163347258Y-94257500D02*
X162872742Y-94257500D01*
X164575000Y-101455000D02*
X162290000Y-101455000D01*
X164575000Y-99985000D02*
X164575000Y-101455000D01*
X162290000Y-99985000D02*
X164575000Y-99985000D01*
X164595000Y-99975000D02*
X162310000Y-99975000D01*
X164595000Y-98505000D02*
X164595000Y-99975000D01*
X162310000Y-98505000D02*
X164595000Y-98505000D01*
X164595000Y-98515000D02*
X162310000Y-98515000D01*
X164595000Y-97045000D02*
X164595000Y-98515000D01*
X162310000Y-97045000D02*
X164595000Y-97045000D01*
X164585000Y-97015000D02*
X162300000Y-97015000D01*
X164585000Y-95545000D02*
X164585000Y-97015000D01*
X162300000Y-95545000D02*
X164585000Y-95545000D01*
D11*
X148950000Y-101050000D02*
X140000000Y-101050000D01*
X140025679Y-93021297D02*
X148975679Y-93021297D01*
X147950000Y-97050000D02*
G75*
G03*
X147950000Y-97050000I-3450000J0D01*
G01*
X146700000Y-97050000D02*
G75*
G03*
X146700000Y-97050000I-2200000J0D01*
G01*
X148950000Y-101050000D02*
G75*
G03*
X148975679Y-93021297I-4474321J4028703D01*
G01*
X140025679Y-93021297D02*
G75*
G03*
X140000000Y-101050000I4474321J-4028703D01*
G01*
D12*
X132975000Y-97350000D02*
X133575000Y-97350000D01*
X132275000Y-95250000D02*
X132275000Y-96650000D01*
X133575000Y-94550000D02*
X132975000Y-94550000D01*
X134275000Y-96650000D02*
X134275000Y-95250000D01*
X133575000Y-97350000D02*
G75*
G03*
X134275000Y-96650000I0J700000D01*
G01*
X132275000Y-96650000D02*
G75*
G03*
X132975000Y-97350000I700000J0D01*
G01*
X132975000Y-94550000D02*
G75*
G03*
X132275000Y-95250000I0J-700000D01*
G01*
X134275000Y-95250000D02*
G75*
G03*
X133575000Y-94550000I-700000J0D01*
G01*
X147360000Y-105070000D02*
X147360000Y-101450000D01*
X141240000Y-105070000D02*
X147360000Y-105070000D01*
X141240000Y-101450000D02*
X141240000Y-105070000D01*
X147360000Y-101450000D02*
X141240000Y-101450000D01*
X137022779Y-103565000D02*
X136697221Y-103565000D01*
X137022779Y-104585000D02*
X136697221Y-104585000D01*
X136660000Y-102012779D02*
X136660000Y-101687221D01*
X135640000Y-102012779D02*
X135640000Y-101687221D01*
X137100000Y-102022779D02*
X137100000Y-101697221D01*
X138120000Y-102022779D02*
X138120000Y-101697221D01*
X145300000Y-97735000D02*
X142815000Y-97735000D01*
X142815000Y-97735000D02*
X142815000Y-96365000D01*
X142815000Y-96365000D02*
X145300000Y-96365000D01*
X144637779Y-97965000D02*
X144312221Y-97965000D01*
X144637779Y-98985000D02*
X144312221Y-98985000D01*
D11*
X164253571Y-105048809D02*
X164436904Y-104786904D01*
X164567857Y-105048809D02*
X164567857Y-104498809D01*
X164358333Y-104498809D01*
X164305952Y-104525000D01*
X164279761Y-104551190D01*
X164253571Y-104603571D01*
X164253571Y-104682142D01*
X164279761Y-104734523D01*
X164305952Y-104760714D01*
X164358333Y-104786904D01*
X164567857Y-104786904D01*
X163729761Y-105048809D02*
X164044047Y-105048809D01*
X163886904Y-105048809D02*
X163886904Y-104498809D01*
X163939285Y-104577380D01*
X163991666Y-104629761D01*
X164044047Y-104655952D01*
X163520238Y-104551190D02*
X163494047Y-104525000D01*
X163441666Y-104498809D01*
X163310714Y-104498809D01*
X163258333Y-104525000D01*
X163232142Y-104551190D01*
X163205952Y-104603571D01*
X163205952Y-104655952D01*
X163232142Y-104734523D01*
X163546428Y-105048809D01*
X163205952Y-105048809D01*
X164278571Y-105773809D02*
X164461904Y-105511904D01*
X164592857Y-105773809D02*
X164592857Y-105223809D01*
X164383333Y-105223809D01*
X164330952Y-105250000D01*
X164304761Y-105276190D01*
X164278571Y-105328571D01*
X164278571Y-105407142D01*
X164304761Y-105459523D01*
X164330952Y-105485714D01*
X164383333Y-105511904D01*
X164592857Y-105511904D01*
X163754761Y-105773809D02*
X164069047Y-105773809D01*
X163911904Y-105773809D02*
X163911904Y-105223809D01*
X163964285Y-105302380D01*
X164016666Y-105354761D01*
X164069047Y-105380952D01*
X163414285Y-105223809D02*
X163361904Y-105223809D01*
X163309523Y-105250000D01*
X163283333Y-105276190D01*
X163257142Y-105328571D01*
X163230952Y-105433333D01*
X163230952Y-105564285D01*
X163257142Y-105669047D01*
X163283333Y-105721428D01*
X163309523Y-105747619D01*
X163361904Y-105773809D01*
X163414285Y-105773809D01*
X163466666Y-105747619D01*
X163492857Y-105721428D01*
X163519047Y-105669047D01*
X163545238Y-105564285D01*
X163545238Y-105433333D01*
X163519047Y-105328571D01*
X163492857Y-105276190D01*
X163466666Y-105250000D01*
X163414285Y-105223809D01*
X161623809Y-93258333D02*
X161361904Y-93075000D01*
X161623809Y-92944047D02*
X161073809Y-92944047D01*
X161073809Y-93153571D01*
X161100000Y-93205952D01*
X161126190Y-93232142D01*
X161178571Y-93258333D01*
X161257142Y-93258333D01*
X161309523Y-93232142D01*
X161335714Y-93205952D01*
X161361904Y-93153571D01*
X161361904Y-92944047D01*
X161309523Y-93572619D02*
X161283333Y-93520238D01*
X161257142Y-93494047D01*
X161204761Y-93467857D01*
X161178571Y-93467857D01*
X161126190Y-93494047D01*
X161100000Y-93520238D01*
X161073809Y-93572619D01*
X161073809Y-93677380D01*
X161100000Y-93729761D01*
X161126190Y-93755952D01*
X161178571Y-93782142D01*
X161204761Y-93782142D01*
X161257142Y-93755952D01*
X161283333Y-93729761D01*
X161309523Y-93677380D01*
X161309523Y-93572619D01*
X161335714Y-93520238D01*
X161361904Y-93494047D01*
X161414285Y-93467857D01*
X161519047Y-93467857D01*
X161571428Y-93494047D01*
X161597619Y-93520238D01*
X161623809Y-93572619D01*
X161623809Y-93677380D01*
X161597619Y-93729761D01*
X161571428Y-93755952D01*
X161519047Y-93782142D01*
X161414285Y-93782142D01*
X161361904Y-93755952D01*
X161335714Y-93729761D01*
X161309523Y-93677380D01*
X161598809Y-94708333D02*
X161336904Y-94525000D01*
X161598809Y-94394047D02*
X161048809Y-94394047D01*
X161048809Y-94603571D01*
X161075000Y-94655952D01*
X161101190Y-94682142D01*
X161153571Y-94708333D01*
X161232142Y-94708333D01*
X161284523Y-94682142D01*
X161310714Y-94655952D01*
X161336904Y-94603571D01*
X161336904Y-94394047D01*
X161048809Y-94891666D02*
X161048809Y-95258333D01*
X161598809Y-95022619D01*
X161623809Y-100244047D02*
X161073809Y-100244047D01*
X161073809Y-100375000D01*
X161100000Y-100453571D01*
X161152380Y-100505952D01*
X161204761Y-100532142D01*
X161309523Y-100558333D01*
X161388095Y-100558333D01*
X161492857Y-100532142D01*
X161545238Y-100505952D01*
X161597619Y-100453571D01*
X161623809Y-100375000D01*
X161623809Y-100244047D01*
X161309523Y-100872619D02*
X161283333Y-100820238D01*
X161257142Y-100794047D01*
X161204761Y-100767857D01*
X161178571Y-100767857D01*
X161126190Y-100794047D01*
X161100000Y-100820238D01*
X161073809Y-100872619D01*
X161073809Y-100977380D01*
X161100000Y-101029761D01*
X161126190Y-101055952D01*
X161178571Y-101082142D01*
X161204761Y-101082142D01*
X161257142Y-101055952D01*
X161283333Y-101029761D01*
X161309523Y-100977380D01*
X161309523Y-100872619D01*
X161335714Y-100820238D01*
X161361904Y-100794047D01*
X161414285Y-100767857D01*
X161519047Y-100767857D01*
X161571428Y-100794047D01*
X161597619Y-100820238D01*
X161623809Y-100872619D01*
X161623809Y-100977380D01*
X161597619Y-101029761D01*
X161571428Y-101055952D01*
X161519047Y-101082142D01*
X161414285Y-101082142D01*
X161361904Y-101055952D01*
X161335714Y-101029761D01*
X161309523Y-100977380D01*
X161623809Y-98834047D02*
X161073809Y-98834047D01*
X161073809Y-98965000D01*
X161100000Y-99043571D01*
X161152380Y-99095952D01*
X161204761Y-99122142D01*
X161309523Y-99148333D01*
X161388095Y-99148333D01*
X161492857Y-99122142D01*
X161545238Y-99095952D01*
X161597619Y-99043571D01*
X161623809Y-98965000D01*
X161623809Y-98834047D01*
X161073809Y-99331666D02*
X161073809Y-99698333D01*
X161623809Y-99462619D01*
X161623809Y-97344047D02*
X161073809Y-97344047D01*
X161073809Y-97475000D01*
X161100000Y-97553571D01*
X161152380Y-97605952D01*
X161204761Y-97632142D01*
X161309523Y-97658333D01*
X161388095Y-97658333D01*
X161492857Y-97632142D01*
X161545238Y-97605952D01*
X161597619Y-97553571D01*
X161623809Y-97475000D01*
X161623809Y-97344047D01*
X161073809Y-98155952D02*
X161073809Y-97894047D01*
X161335714Y-97867857D01*
X161309523Y-97894047D01*
X161283333Y-97946428D01*
X161283333Y-98077380D01*
X161309523Y-98129761D01*
X161335714Y-98155952D01*
X161388095Y-98182142D01*
X161519047Y-98182142D01*
X161571428Y-98155952D01*
X161597619Y-98129761D01*
X161623809Y-98077380D01*
X161623809Y-97946428D01*
X161597619Y-97894047D01*
X161571428Y-97867857D01*
X161623809Y-95919047D02*
X161073809Y-95919047D01*
X161073809Y-96050000D01*
X161100000Y-96128571D01*
X161152380Y-96180952D01*
X161204761Y-96207142D01*
X161309523Y-96233333D01*
X161388095Y-96233333D01*
X161492857Y-96207142D01*
X161545238Y-96180952D01*
X161597619Y-96128571D01*
X161623809Y-96050000D01*
X161623809Y-95919047D01*
X161257142Y-96704761D02*
X161623809Y-96704761D01*
X161047619Y-96573809D02*
X161440476Y-96442857D01*
X161440476Y-96783333D01*
X135198809Y-103958333D02*
X134936904Y-103775000D01*
X135198809Y-103644047D02*
X134648809Y-103644047D01*
X134648809Y-103853571D01*
X134675000Y-103905952D01*
X134701190Y-103932142D01*
X134753571Y-103958333D01*
X134832142Y-103958333D01*
X134884523Y-103932142D01*
X134910714Y-103905952D01*
X134936904Y-103853571D01*
X134936904Y-103644047D01*
X134648809Y-104141666D02*
X134648809Y-104482142D01*
X134858333Y-104298809D01*
X134858333Y-104377380D01*
X134884523Y-104429761D01*
X134910714Y-104455952D01*
X134963095Y-104482142D01*
X135094047Y-104482142D01*
X135146428Y-104455952D01*
X135172619Y-104429761D01*
X135198809Y-104377380D01*
X135198809Y-104220238D01*
X135172619Y-104167857D01*
X135146428Y-104141666D01*
X136296428Y-99708333D02*
X136322619Y-99682142D01*
X136348809Y-99603571D01*
X136348809Y-99551190D01*
X136322619Y-99472619D01*
X136270238Y-99420238D01*
X136217857Y-99394047D01*
X136113095Y-99367857D01*
X136034523Y-99367857D01*
X135929761Y-99394047D01*
X135877380Y-99420238D01*
X135825000Y-99472619D01*
X135798809Y-99551190D01*
X135798809Y-99603571D01*
X135825000Y-99682142D01*
X135851190Y-99708333D01*
X136348809Y-100232142D02*
X136348809Y-99917857D01*
X136348809Y-100075000D02*
X135798809Y-100075000D01*
X135877380Y-100022619D01*
X135929761Y-99970238D01*
X135955952Y-99917857D01*
X137908809Y-99718333D02*
X137646904Y-99535000D01*
X137908809Y-99404047D02*
X137358809Y-99404047D01*
X137358809Y-99613571D01*
X137385000Y-99665952D01*
X137411190Y-99692142D01*
X137463571Y-99718333D01*
X137542142Y-99718333D01*
X137594523Y-99692142D01*
X137620714Y-99665952D01*
X137646904Y-99613571D01*
X137646904Y-99404047D01*
X137411190Y-99927857D02*
X137385000Y-99954047D01*
X137358809Y-100006428D01*
X137358809Y-100137380D01*
X137385000Y-100189761D01*
X137411190Y-100215952D01*
X137463571Y-100242142D01*
X137515952Y-100242142D01*
X137594523Y-100215952D01*
X137908809Y-99901666D01*
X137908809Y-100242142D01*
X142081190Y-97435952D02*
X142631190Y-97435952D01*
X142631190Y-97305000D01*
X142605000Y-97226428D01*
X142552619Y-97174047D01*
X142500238Y-97147857D01*
X142395476Y-97121666D01*
X142316904Y-97121666D01*
X142212142Y-97147857D01*
X142159761Y-97174047D01*
X142107380Y-97226428D01*
X142081190Y-97305000D01*
X142081190Y-97435952D01*
X142631190Y-96938333D02*
X142631190Y-96597857D01*
X142421666Y-96781190D01*
X142421666Y-96702619D01*
X142395476Y-96650238D01*
X142369285Y-96624047D01*
X142316904Y-96597857D01*
X142185952Y-96597857D01*
X142133571Y-96624047D01*
X142107380Y-96650238D01*
X142081190Y-96702619D01*
X142081190Y-96859761D01*
X142107380Y-96912142D01*
X142133571Y-96938333D01*
X142131190Y-98611666D02*
X142393095Y-98795000D01*
X142131190Y-98925952D02*
X142681190Y-98925952D01*
X142681190Y-98716428D01*
X142655000Y-98664047D01*
X142628809Y-98637857D01*
X142576428Y-98611666D01*
X142497857Y-98611666D01*
X142445476Y-98637857D01*
X142419285Y-98664047D01*
X142393095Y-98716428D01*
X142393095Y-98925952D01*
X142131190Y-98087857D02*
X142131190Y-98402142D01*
X142131190Y-98245000D02*
X142681190Y-98245000D01*
X142602619Y-98297380D01*
X142550238Y-98349761D01*
X142524047Y-98402142D01*
M02*
