G04 #@! TF.GenerationSoftware,KiCad,Pcbnew,(5.1.5-0-10_14)*
G04 #@! TF.CreationDate,2020-01-18T17:03:48-08:00*
G04 #@! TF.ProjectId,10440,31303434-302e-46b6-9963-61645f706362,rev?*
G04 #@! TF.SameCoordinates,Original*
G04 #@! TF.FileFunction,Legend,Bot*
G04 #@! TF.FilePolarity,Positive*
%FSLAX46Y46*%
G04 Gerber Fmt 4.6, Leading zero omitted, Abs format (unit mm)*
G04 Created by KiCad (PCBNEW (5.1.5-0-10_14)) date 2020-01-18 17:03:48*
%MOMM*%
%LPD*%
G04 APERTURE LIST*
%ADD10C,0.150000*%
%ADD11C,0.100000*%
%ADD12C,0.250000*%
%ADD13C,0.200000*%
%ADD14C,0.300000*%
%ADD15C,0.010000*%
%ADD16C,2.901600*%
%ADD17C,2.501600*%
%ADD18O,1.801600X1.801600*%
%ADD19R,1.801600X1.801600*%
%ADD20O,1.601600X1.201600*%
%ADD21O,1.801600X1.451600*%
G04 APERTURE END LIST*
D10*
X115862857Y-93689285D02*
X114834285Y-93689285D01*
X115348571Y-95489285D02*
X115348571Y-93689285D01*
X114234285Y-95489285D02*
X114234285Y-94289285D01*
X114234285Y-93689285D02*
X114320000Y-93775000D01*
X114234285Y-93860714D01*
X114148571Y-93775000D01*
X114234285Y-93689285D01*
X114234285Y-93860714D01*
X113377142Y-94289285D02*
X113377142Y-95489285D01*
X113377142Y-94460714D02*
X113291428Y-94375000D01*
X113120000Y-94289285D01*
X112862857Y-94289285D01*
X112691428Y-94375000D01*
X112605714Y-94546428D01*
X112605714Y-95489285D01*
X111920000Y-94289285D02*
X111491428Y-95489285D01*
X111062857Y-94289285D02*
X111491428Y-95489285D01*
X111662857Y-95917857D01*
X111748571Y-96003571D01*
X111920000Y-96089285D01*
D11*
X89264285Y-94732142D02*
X89264285Y-94303571D01*
X89264285Y-94517857D02*
X88514285Y-94517857D01*
X88621428Y-94446428D01*
X88692857Y-94375000D01*
X88728571Y-94303571D01*
X89192857Y-95053571D02*
X89228571Y-95089285D01*
X89264285Y-95053571D01*
X89228571Y-95017857D01*
X89192857Y-95053571D01*
X89264285Y-95053571D01*
X88764285Y-95732142D02*
X89264285Y-95732142D01*
X88478571Y-95553571D02*
X89014285Y-95375000D01*
X89014285Y-95839285D01*
X89050000Y-96089285D02*
X89050000Y-96446428D01*
X89264285Y-96017857D02*
X88514285Y-96267857D01*
X89264285Y-96517857D01*
X83971428Y-93788095D02*
X83885714Y-93819047D01*
X83742857Y-93819047D01*
X83685714Y-93788095D01*
X83657142Y-93757142D01*
X83628571Y-93695238D01*
X83628571Y-93633333D01*
X83657142Y-93571428D01*
X83685714Y-93540476D01*
X83742857Y-93509523D01*
X83857142Y-93478571D01*
X83914285Y-93447619D01*
X83942857Y-93416666D01*
X83971428Y-93354761D01*
X83971428Y-93292857D01*
X83942857Y-93230952D01*
X83914285Y-93200000D01*
X83857142Y-93169047D01*
X83714285Y-93169047D01*
X83628571Y-93200000D01*
X83028571Y-93757142D02*
X83057142Y-93788095D01*
X83142857Y-93819047D01*
X83200000Y-93819047D01*
X83285714Y-93788095D01*
X83342857Y-93726190D01*
X83371428Y-93664285D01*
X83400000Y-93540476D01*
X83400000Y-93447619D01*
X83371428Y-93323809D01*
X83342857Y-93261904D01*
X83285714Y-93200000D01*
X83200000Y-93169047D01*
X83142857Y-93169047D01*
X83057142Y-93200000D01*
X83028571Y-93230952D01*
X82771428Y-93819047D02*
X82771428Y-93169047D01*
X82428571Y-93819047D02*
X82685714Y-93447619D01*
X82428571Y-93169047D02*
X82771428Y-93540476D01*
X81592857Y-93844047D02*
X81592857Y-93194047D01*
X81392857Y-93658333D01*
X81192857Y-93194047D01*
X81192857Y-93844047D01*
X80907142Y-93844047D02*
X80907142Y-93194047D01*
X80650000Y-93813095D02*
X80564285Y-93844047D01*
X80421428Y-93844047D01*
X80364285Y-93813095D01*
X80335714Y-93782142D01*
X80307142Y-93720238D01*
X80307142Y-93658333D01*
X80335714Y-93596428D01*
X80364285Y-93565476D01*
X80421428Y-93534523D01*
X80535714Y-93503571D01*
X80592857Y-93472619D01*
X80621428Y-93441666D01*
X80650000Y-93379761D01*
X80650000Y-93317857D01*
X80621428Y-93255952D01*
X80592857Y-93225000D01*
X80535714Y-93194047D01*
X80392857Y-93194047D01*
X80307142Y-93225000D01*
X79935714Y-93194047D02*
X79821428Y-93194047D01*
X79764285Y-93225000D01*
X79707142Y-93286904D01*
X79678571Y-93410714D01*
X79678571Y-93627380D01*
X79707142Y-93751190D01*
X79764285Y-93813095D01*
X79821428Y-93844047D01*
X79935714Y-93844047D01*
X79992857Y-93813095D01*
X80050000Y-93751190D01*
X80078571Y-93627380D01*
X80078571Y-93410714D01*
X80050000Y-93286904D01*
X79992857Y-93225000D01*
X79935714Y-93194047D01*
X79042857Y-93869047D02*
X79042857Y-93219047D01*
X78842857Y-93683333D01*
X78642857Y-93219047D01*
X78642857Y-93869047D01*
X78242857Y-93219047D02*
X78128571Y-93219047D01*
X78071428Y-93250000D01*
X78014285Y-93311904D01*
X77985714Y-93435714D01*
X77985714Y-93652380D01*
X78014285Y-93776190D01*
X78071428Y-93838095D01*
X78128571Y-93869047D01*
X78242857Y-93869047D01*
X78300000Y-93838095D01*
X78357142Y-93776190D01*
X78385714Y-93652380D01*
X78385714Y-93435714D01*
X78357142Y-93311904D01*
X78300000Y-93250000D01*
X78242857Y-93219047D01*
X77757142Y-93838095D02*
X77671428Y-93869047D01*
X77528571Y-93869047D01*
X77471428Y-93838095D01*
X77442857Y-93807142D01*
X77414285Y-93745238D01*
X77414285Y-93683333D01*
X77442857Y-93621428D01*
X77471428Y-93590476D01*
X77528571Y-93559523D01*
X77642857Y-93528571D01*
X77700000Y-93497619D01*
X77728571Y-93466666D01*
X77757142Y-93404761D01*
X77757142Y-93342857D01*
X77728571Y-93280952D01*
X77700000Y-93250000D01*
X77642857Y-93219047D01*
X77500000Y-93219047D01*
X77414285Y-93250000D01*
X77157142Y-93869047D02*
X77157142Y-93219047D01*
D12*
X109492857Y-99939285D02*
X107207142Y-99939285D01*
X108350000Y-101082142D02*
X108350000Y-98796428D01*
X70917857Y-99989285D02*
X68632142Y-99989285D01*
D11*
X83527142Y-107614285D02*
X83555714Y-107642857D01*
X83641428Y-107671428D01*
X83698571Y-107671428D01*
X83784285Y-107642857D01*
X83841428Y-107585714D01*
X83870000Y-107528571D01*
X83898571Y-107414285D01*
X83898571Y-107328571D01*
X83870000Y-107214285D01*
X83841428Y-107157142D01*
X83784285Y-107100000D01*
X83698571Y-107071428D01*
X83641428Y-107071428D01*
X83555714Y-107100000D01*
X83527142Y-107128571D01*
X82984285Y-107671428D02*
X83270000Y-107671428D01*
X83270000Y-107071428D01*
X82784285Y-107671428D02*
X82784285Y-107071428D01*
X82441428Y-107671428D02*
X82698571Y-107328571D01*
X82441428Y-107071428D02*
X82784285Y-107414285D01*
X81084285Y-107671428D02*
X81084285Y-107071428D01*
X80941428Y-107071428D01*
X80855714Y-107100000D01*
X80798571Y-107157142D01*
X80770000Y-107214285D01*
X80741428Y-107328571D01*
X80741428Y-107414285D01*
X80770000Y-107528571D01*
X80798571Y-107585714D01*
X80855714Y-107642857D01*
X80941428Y-107671428D01*
X81084285Y-107671428D01*
X80484285Y-107671428D02*
X80484285Y-107071428D01*
X80084285Y-107071428D02*
X79970000Y-107071428D01*
X79912857Y-107100000D01*
X79855714Y-107157142D01*
X79827142Y-107271428D01*
X79827142Y-107471428D01*
X79855714Y-107585714D01*
X79912857Y-107642857D01*
X79970000Y-107671428D01*
X80084285Y-107671428D01*
X80141428Y-107642857D01*
X80198571Y-107585714D01*
X80227142Y-107471428D01*
X80227142Y-107271428D01*
X80198571Y-107157142D01*
X80141428Y-107100000D01*
X80084285Y-107071428D01*
X76318809Y-107688095D02*
X76225952Y-107719047D01*
X76071190Y-107719047D01*
X76009285Y-107688095D01*
X75978333Y-107657142D01*
X75947380Y-107595238D01*
X75947380Y-107533333D01*
X75978333Y-107471428D01*
X76009285Y-107440476D01*
X76071190Y-107409523D01*
X76195000Y-107378571D01*
X76256904Y-107347619D01*
X76287857Y-107316666D01*
X76318809Y-107254761D01*
X76318809Y-107192857D01*
X76287857Y-107130952D01*
X76256904Y-107100000D01*
X76195000Y-107069047D01*
X76040238Y-107069047D01*
X75947380Y-107100000D01*
X75297380Y-107657142D02*
X75328333Y-107688095D01*
X75421190Y-107719047D01*
X75483095Y-107719047D01*
X75575952Y-107688095D01*
X75637857Y-107626190D01*
X75668809Y-107564285D01*
X75699761Y-107440476D01*
X75699761Y-107347619D01*
X75668809Y-107223809D01*
X75637857Y-107161904D01*
X75575952Y-107100000D01*
X75483095Y-107069047D01*
X75421190Y-107069047D01*
X75328333Y-107100000D01*
X75297380Y-107130952D01*
X74709285Y-107719047D02*
X75018809Y-107719047D01*
X75018809Y-107069047D01*
X78798571Y-107663095D02*
X78712857Y-107694047D01*
X78570000Y-107694047D01*
X78512857Y-107663095D01*
X78484285Y-107632142D01*
X78455714Y-107570238D01*
X78455714Y-107508333D01*
X78484285Y-107446428D01*
X78512857Y-107415476D01*
X78570000Y-107384523D01*
X78684285Y-107353571D01*
X78741428Y-107322619D01*
X78770000Y-107291666D01*
X78798571Y-107229761D01*
X78798571Y-107167857D01*
X78770000Y-107105952D01*
X78741428Y-107075000D01*
X78684285Y-107044047D01*
X78541428Y-107044047D01*
X78455714Y-107075000D01*
X78198571Y-107694047D02*
X78198571Y-107044047D01*
X78055714Y-107044047D01*
X77970000Y-107075000D01*
X77912857Y-107136904D01*
X77884285Y-107198809D01*
X77855714Y-107322619D01*
X77855714Y-107415476D01*
X77884285Y-107539285D01*
X77912857Y-107601190D01*
X77970000Y-107663095D01*
X78055714Y-107694047D01*
X78198571Y-107694047D01*
X77627142Y-107508333D02*
X77341428Y-107508333D01*
X77684285Y-107694047D02*
X77484285Y-107044047D01*
X77284285Y-107694047D01*
X88790238Y-107044047D02*
X88418809Y-107044047D01*
X88604523Y-107694047D02*
X88604523Y-107044047D01*
X88264047Y-107044047D02*
X87830714Y-107694047D01*
X87830714Y-107044047D02*
X88264047Y-107694047D01*
X90953333Y-107694047D02*
X91170000Y-107384523D01*
X91324761Y-107694047D02*
X91324761Y-107044047D01*
X91077142Y-107044047D01*
X91015238Y-107075000D01*
X90984285Y-107105952D01*
X90953333Y-107167857D01*
X90953333Y-107260714D01*
X90984285Y-107322619D01*
X91015238Y-107353571D01*
X91077142Y-107384523D01*
X91324761Y-107384523D01*
X90736666Y-107044047D02*
X90303333Y-107694047D01*
X90303333Y-107044047D02*
X90736666Y-107694047D01*
X89525000Y-94250000D02*
X99745000Y-94250000D01*
X89525000Y-96600000D02*
X89525000Y-94250000D01*
X99745000Y-96600000D02*
X89525000Y-96600000D01*
X99745000Y-94250000D02*
X99745000Y-96600000D01*
X93745952Y-104119047D02*
X93962619Y-103809523D01*
X94117380Y-104119047D02*
X94117380Y-103469047D01*
X93869761Y-103469047D01*
X93807857Y-103500000D01*
X93776904Y-103530952D01*
X93745952Y-103592857D01*
X93745952Y-103685714D01*
X93776904Y-103747619D01*
X93807857Y-103778571D01*
X93869761Y-103809523D01*
X94117380Y-103809523D01*
X93498333Y-104088095D02*
X93405476Y-104119047D01*
X93250714Y-104119047D01*
X93188809Y-104088095D01*
X93157857Y-104057142D01*
X93126904Y-103995238D01*
X93126904Y-103933333D01*
X93157857Y-103871428D01*
X93188809Y-103840476D01*
X93250714Y-103809523D01*
X93374523Y-103778571D01*
X93436428Y-103747619D01*
X93467380Y-103716666D01*
X93498333Y-103654761D01*
X93498333Y-103592857D01*
X93467380Y-103530952D01*
X93436428Y-103500000D01*
X93374523Y-103469047D01*
X93219761Y-103469047D01*
X93126904Y-103500000D01*
X92941190Y-103469047D02*
X92569761Y-103469047D01*
X92755476Y-104119047D02*
X92755476Y-103469047D01*
X91694761Y-104119047D02*
X91694761Y-103469047D01*
X91447142Y-103469047D01*
X91385238Y-103500000D01*
X91354285Y-103530952D01*
X91323333Y-103592857D01*
X91323333Y-103685714D01*
X91354285Y-103747619D01*
X91385238Y-103778571D01*
X91447142Y-103809523D01*
X91694761Y-103809523D01*
X90828095Y-103778571D02*
X90735238Y-103809523D01*
X90704285Y-103840476D01*
X90673333Y-103902380D01*
X90673333Y-103995238D01*
X90704285Y-104057142D01*
X90735238Y-104088095D01*
X90797142Y-104119047D01*
X91044761Y-104119047D01*
X91044761Y-103469047D01*
X90828095Y-103469047D01*
X90766190Y-103500000D01*
X90735238Y-103530952D01*
X90704285Y-103592857D01*
X90704285Y-103654761D01*
X90735238Y-103716666D01*
X90766190Y-103747619D01*
X90828095Y-103778571D01*
X91044761Y-103778571D01*
X90456666Y-103469047D02*
X90023333Y-103469047D01*
X90301904Y-104119047D01*
X89144761Y-104119047D02*
X89144761Y-103469047D01*
X88897142Y-103469047D01*
X88835238Y-103500000D01*
X88804285Y-103530952D01*
X88773333Y-103592857D01*
X88773333Y-103685714D01*
X88804285Y-103747619D01*
X88835238Y-103778571D01*
X88897142Y-103809523D01*
X89144761Y-103809523D01*
X88278095Y-103778571D02*
X88185238Y-103809523D01*
X88154285Y-103840476D01*
X88123333Y-103902380D01*
X88123333Y-103995238D01*
X88154285Y-104057142D01*
X88185238Y-104088095D01*
X88247142Y-104119047D01*
X88494761Y-104119047D01*
X88494761Y-103469047D01*
X88278095Y-103469047D01*
X88216190Y-103500000D01*
X88185238Y-103530952D01*
X88154285Y-103592857D01*
X88154285Y-103654761D01*
X88185238Y-103716666D01*
X88216190Y-103747619D01*
X88278095Y-103778571D01*
X88494761Y-103778571D01*
X87566190Y-103469047D02*
X87690000Y-103469047D01*
X87751904Y-103500000D01*
X87782857Y-103530952D01*
X87844761Y-103623809D01*
X87875714Y-103747619D01*
X87875714Y-103995238D01*
X87844761Y-104057142D01*
X87813809Y-104088095D01*
X87751904Y-104119047D01*
X87628095Y-104119047D01*
X87566190Y-104088095D01*
X87535238Y-104057142D01*
X87504285Y-103995238D01*
X87504285Y-103840476D01*
X87535238Y-103778571D01*
X87566190Y-103747619D01*
X87628095Y-103716666D01*
X87751904Y-103716666D01*
X87813809Y-103747619D01*
X87844761Y-103778571D01*
X87875714Y-103840476D01*
X132754523Y-96861904D02*
X132754523Y-96328571D01*
X132754523Y-96480952D02*
X132716428Y-96404761D01*
X132678333Y-96366666D01*
X132602142Y-96328571D01*
X132525952Y-96328571D01*
X131954523Y-96823809D02*
X132030714Y-96861904D01*
X132183095Y-96861904D01*
X132259285Y-96823809D01*
X132297380Y-96747619D01*
X132297380Y-96442857D01*
X132259285Y-96366666D01*
X132183095Y-96328571D01*
X132030714Y-96328571D01*
X131954523Y-96366666D01*
X131916428Y-96442857D01*
X131916428Y-96519047D01*
X132297380Y-96595238D01*
X131649761Y-96328571D02*
X131459285Y-96861904D01*
X131268809Y-96328571D01*
X129935476Y-96861904D02*
X130392619Y-96861904D01*
X130164047Y-96861904D02*
X130164047Y-96061904D01*
X130240238Y-96176190D01*
X130316428Y-96252380D01*
X130392619Y-96290476D01*
X129249761Y-96861904D02*
X129249761Y-96442857D01*
X129287857Y-96366666D01*
X129364047Y-96328571D01*
X129516428Y-96328571D01*
X129592619Y-96366666D01*
X129249761Y-96823809D02*
X129325952Y-96861904D01*
X129516428Y-96861904D01*
X129592619Y-96823809D01*
X129630714Y-96747619D01*
X129630714Y-96671428D01*
X129592619Y-96595238D01*
X129516428Y-96557142D01*
X129325952Y-96557142D01*
X129249761Y-96519047D01*
X132797380Y-104910714D02*
X132835476Y-104948809D01*
X132949761Y-104986904D01*
X133025952Y-104986904D01*
X133140238Y-104948809D01*
X133216428Y-104872619D01*
X133254523Y-104796428D01*
X133292619Y-104644047D01*
X133292619Y-104529761D01*
X133254523Y-104377380D01*
X133216428Y-104301190D01*
X133140238Y-104225000D01*
X133025952Y-104186904D01*
X132949761Y-104186904D01*
X132835476Y-104225000D01*
X132797380Y-104263095D01*
X132454523Y-104986904D02*
X132454523Y-104453571D01*
X132454523Y-104605952D02*
X132416428Y-104529761D01*
X132378333Y-104491666D01*
X132302142Y-104453571D01*
X132225952Y-104453571D01*
X131654523Y-104948809D02*
X131730714Y-104986904D01*
X131883095Y-104986904D01*
X131959285Y-104948809D01*
X131997380Y-104872619D01*
X131997380Y-104567857D01*
X131959285Y-104491666D01*
X131883095Y-104453571D01*
X131730714Y-104453571D01*
X131654523Y-104491666D01*
X131616428Y-104567857D01*
X131616428Y-104644047D01*
X131997380Y-104720238D01*
X130930714Y-104986904D02*
X130930714Y-104567857D01*
X130968809Y-104491666D01*
X131045000Y-104453571D01*
X131197380Y-104453571D01*
X131273571Y-104491666D01*
X130930714Y-104948809D02*
X131006904Y-104986904D01*
X131197380Y-104986904D01*
X131273571Y-104948809D01*
X131311666Y-104872619D01*
X131311666Y-104796428D01*
X131273571Y-104720238D01*
X131197380Y-104682142D01*
X131006904Y-104682142D01*
X130930714Y-104644047D01*
X130664047Y-104453571D02*
X130359285Y-104453571D01*
X130549761Y-104186904D02*
X130549761Y-104872619D01*
X130511666Y-104948809D01*
X130435476Y-104986904D01*
X130359285Y-104986904D01*
X129787857Y-104948809D02*
X129864047Y-104986904D01*
X130016428Y-104986904D01*
X130092619Y-104948809D01*
X130130714Y-104872619D01*
X130130714Y-104567857D01*
X130092619Y-104491666D01*
X130016428Y-104453571D01*
X129864047Y-104453571D01*
X129787857Y-104491666D01*
X129749761Y-104567857D01*
X129749761Y-104644047D01*
X130130714Y-104720238D01*
X129064047Y-104986904D02*
X129064047Y-104186904D01*
X129064047Y-104948809D02*
X129140238Y-104986904D01*
X129292619Y-104986904D01*
X129368809Y-104948809D01*
X129406904Y-104910714D01*
X129445000Y-104834523D01*
X129445000Y-104605952D01*
X129406904Y-104529761D01*
X129368809Y-104491666D01*
X129292619Y-104453571D01*
X129140238Y-104453571D01*
X129064047Y-104491666D01*
X128073571Y-104986904D02*
X128073571Y-104186904D01*
X128073571Y-104491666D02*
X127997380Y-104453571D01*
X127845000Y-104453571D01*
X127768809Y-104491666D01*
X127730714Y-104529761D01*
X127692619Y-104605952D01*
X127692619Y-104834523D01*
X127730714Y-104910714D01*
X127768809Y-104948809D01*
X127845000Y-104986904D01*
X127997380Y-104986904D01*
X128073571Y-104948809D01*
X127425952Y-104453571D02*
X127235476Y-104986904D01*
X127045000Y-104453571D02*
X127235476Y-104986904D01*
X127311666Y-105177380D01*
X127349761Y-105215476D01*
X127425952Y-105253571D01*
X125902142Y-104186904D02*
X125902142Y-104758333D01*
X125940238Y-104872619D01*
X126016428Y-104948809D01*
X126130714Y-104986904D01*
X126206904Y-104986904D01*
X125216428Y-104948809D02*
X125292619Y-104986904D01*
X125445000Y-104986904D01*
X125521190Y-104948809D01*
X125559285Y-104872619D01*
X125559285Y-104567857D01*
X125521190Y-104491666D01*
X125445000Y-104453571D01*
X125292619Y-104453571D01*
X125216428Y-104491666D01*
X125178333Y-104567857D01*
X125178333Y-104644047D01*
X125559285Y-104720238D01*
X124835476Y-104986904D02*
X124835476Y-104453571D01*
X124835476Y-104605952D02*
X124797380Y-104529761D01*
X124759285Y-104491666D01*
X124683095Y-104453571D01*
X124606904Y-104453571D01*
X124035476Y-104948809D02*
X124111666Y-104986904D01*
X124264047Y-104986904D01*
X124340238Y-104948809D01*
X124378333Y-104872619D01*
X124378333Y-104567857D01*
X124340238Y-104491666D01*
X124264047Y-104453571D01*
X124111666Y-104453571D01*
X124035476Y-104491666D01*
X123997380Y-104567857D01*
X123997380Y-104644047D01*
X124378333Y-104720238D01*
X123654523Y-104986904D02*
X123654523Y-104453571D01*
X123654523Y-104529761D02*
X123616428Y-104491666D01*
X123540238Y-104453571D01*
X123425952Y-104453571D01*
X123349761Y-104491666D01*
X123311666Y-104567857D01*
X123311666Y-104986904D01*
X123311666Y-104567857D02*
X123273571Y-104491666D01*
X123197380Y-104453571D01*
X123083095Y-104453571D01*
X123006904Y-104491666D01*
X122968809Y-104567857D01*
X122968809Y-104986904D01*
X122664047Y-104453571D02*
X122473571Y-104986904D01*
X122283095Y-104453571D02*
X122473571Y-104986904D01*
X122549761Y-105177380D01*
X122587857Y-105215476D01*
X122664047Y-105253571D01*
X120949761Y-104225000D02*
X121025952Y-104186904D01*
X121140238Y-104186904D01*
X121254523Y-104225000D01*
X121330714Y-104301190D01*
X121368809Y-104377380D01*
X121406904Y-104529761D01*
X121406904Y-104644047D01*
X121368809Y-104796428D01*
X121330714Y-104872619D01*
X121254523Y-104948809D01*
X121140238Y-104986904D01*
X121064047Y-104986904D01*
X120949761Y-104948809D01*
X120911666Y-104910714D01*
X120911666Y-104644047D01*
X121064047Y-104644047D01*
X120568809Y-104986904D02*
X120568809Y-104453571D01*
X120568809Y-104186904D02*
X120606904Y-104225000D01*
X120568809Y-104263095D01*
X120530714Y-104225000D01*
X120568809Y-104186904D01*
X120568809Y-104263095D01*
X120073571Y-104986904D02*
X120149761Y-104948809D01*
X120187857Y-104872619D01*
X120187857Y-104186904D01*
X119654523Y-104986904D02*
X119730714Y-104948809D01*
X119768809Y-104872619D01*
X119768809Y-104186904D01*
X119349761Y-104986904D02*
X119349761Y-104453571D01*
X119349761Y-104186904D02*
X119387857Y-104225000D01*
X119349761Y-104263095D01*
X119311666Y-104225000D01*
X119349761Y-104186904D01*
X119349761Y-104263095D01*
X118625952Y-104948809D02*
X118702142Y-104986904D01*
X118854523Y-104986904D01*
X118930714Y-104948809D01*
X118968809Y-104910714D01*
X119006904Y-104834523D01*
X119006904Y-104605952D01*
X118968809Y-104529761D01*
X118930714Y-104491666D01*
X118854523Y-104453571D01*
X118702142Y-104453571D01*
X118625952Y-104491666D01*
X118283095Y-104986904D02*
X118283095Y-104186904D01*
X118206904Y-104682142D02*
X117978333Y-104986904D01*
X117978333Y-104453571D02*
X118283095Y-104758333D01*
X133254523Y-106286904D02*
X133254523Y-105486904D01*
X132911666Y-106286904D02*
X132911666Y-105867857D01*
X132949761Y-105791666D01*
X133025952Y-105753571D01*
X133140238Y-105753571D01*
X133216428Y-105791666D01*
X133254523Y-105829761D01*
X132645000Y-105753571D02*
X132340238Y-105753571D01*
X132530714Y-105486904D02*
X132530714Y-106172619D01*
X132492619Y-106248809D01*
X132416428Y-106286904D01*
X132340238Y-106286904D01*
X132187857Y-105753571D02*
X131883095Y-105753571D01*
X132073571Y-105486904D02*
X132073571Y-106172619D01*
X132035476Y-106248809D01*
X131959285Y-106286904D01*
X131883095Y-106286904D01*
X131616428Y-105753571D02*
X131616428Y-106553571D01*
X131616428Y-105791666D02*
X131540238Y-105753571D01*
X131387857Y-105753571D01*
X131311666Y-105791666D01*
X131273571Y-105829761D01*
X131235476Y-105905952D01*
X131235476Y-106134523D01*
X131273571Y-106210714D01*
X131311666Y-106248809D01*
X131387857Y-106286904D01*
X131540238Y-106286904D01*
X131616428Y-106248809D01*
X130930714Y-106248809D02*
X130854523Y-106286904D01*
X130702142Y-106286904D01*
X130625952Y-106248809D01*
X130587857Y-106172619D01*
X130587857Y-106134523D01*
X130625952Y-106058333D01*
X130702142Y-106020238D01*
X130816428Y-106020238D01*
X130892619Y-105982142D01*
X130930714Y-105905952D01*
X130930714Y-105867857D01*
X130892619Y-105791666D01*
X130816428Y-105753571D01*
X130702142Y-105753571D01*
X130625952Y-105791666D01*
X130245000Y-106210714D02*
X130206904Y-106248809D01*
X130245000Y-106286904D01*
X130283095Y-106248809D01*
X130245000Y-106210714D01*
X130245000Y-106286904D01*
X130245000Y-105791666D02*
X130206904Y-105829761D01*
X130245000Y-105867857D01*
X130283095Y-105829761D01*
X130245000Y-105791666D01*
X130245000Y-105867857D01*
X129292619Y-105448809D02*
X129978333Y-106477380D01*
X128454523Y-105448809D02*
X129140238Y-106477380D01*
X127845000Y-105753571D02*
X127845000Y-106401190D01*
X127883095Y-106477380D01*
X127921190Y-106515476D01*
X127997380Y-106553571D01*
X128111666Y-106553571D01*
X128187857Y-106515476D01*
X127845000Y-106248809D02*
X127921190Y-106286904D01*
X128073571Y-106286904D01*
X128149761Y-106248809D01*
X128187857Y-106210714D01*
X128225952Y-106134523D01*
X128225952Y-105905952D01*
X128187857Y-105829761D01*
X128149761Y-105791666D01*
X128073571Y-105753571D01*
X127921190Y-105753571D01*
X127845000Y-105791666D01*
X127464047Y-106286904D02*
X127464047Y-105753571D01*
X127464047Y-105486904D02*
X127502142Y-105525000D01*
X127464047Y-105563095D01*
X127425952Y-105525000D01*
X127464047Y-105486904D01*
X127464047Y-105563095D01*
X127197380Y-105753571D02*
X126892619Y-105753571D01*
X127083095Y-105486904D02*
X127083095Y-106172619D01*
X127045000Y-106248809D01*
X126968809Y-106286904D01*
X126892619Y-106286904D01*
X126625952Y-106286904D02*
X126625952Y-105486904D01*
X126283095Y-106286904D02*
X126283095Y-105867857D01*
X126321190Y-105791666D01*
X126397380Y-105753571D01*
X126511666Y-105753571D01*
X126587857Y-105791666D01*
X126625952Y-105829761D01*
X125559285Y-105753571D02*
X125559285Y-106286904D01*
X125902142Y-105753571D02*
X125902142Y-106172619D01*
X125864047Y-106248809D01*
X125787857Y-106286904D01*
X125673571Y-106286904D01*
X125597380Y-106248809D01*
X125559285Y-106210714D01*
X125178333Y-106286904D02*
X125178333Y-105486904D01*
X125178333Y-105791666D02*
X125102142Y-105753571D01*
X124949761Y-105753571D01*
X124873571Y-105791666D01*
X124835476Y-105829761D01*
X124797380Y-105905952D01*
X124797380Y-106134523D01*
X124835476Y-106210714D01*
X124873571Y-106248809D01*
X124949761Y-106286904D01*
X125102142Y-106286904D01*
X125178333Y-106248809D01*
X124454523Y-106210714D02*
X124416428Y-106248809D01*
X124454523Y-106286904D01*
X124492619Y-106248809D01*
X124454523Y-106210714D01*
X124454523Y-106286904D01*
X123730714Y-106248809D02*
X123806904Y-106286904D01*
X123959285Y-106286904D01*
X124035476Y-106248809D01*
X124073571Y-106210714D01*
X124111666Y-106134523D01*
X124111666Y-105905952D01*
X124073571Y-105829761D01*
X124035476Y-105791666D01*
X123959285Y-105753571D01*
X123806904Y-105753571D01*
X123730714Y-105791666D01*
X123273571Y-106286904D02*
X123349761Y-106248809D01*
X123387857Y-106210714D01*
X123425952Y-106134523D01*
X123425952Y-105905952D01*
X123387857Y-105829761D01*
X123349761Y-105791666D01*
X123273571Y-105753571D01*
X123159285Y-105753571D01*
X123083095Y-105791666D01*
X123045000Y-105829761D01*
X123006904Y-105905952D01*
X123006904Y-106134523D01*
X123045000Y-106210714D01*
X123083095Y-106248809D01*
X123159285Y-106286904D01*
X123273571Y-106286904D01*
X122664047Y-106286904D02*
X122664047Y-105753571D01*
X122664047Y-105829761D02*
X122625952Y-105791666D01*
X122549761Y-105753571D01*
X122435476Y-105753571D01*
X122359285Y-105791666D01*
X122321190Y-105867857D01*
X122321190Y-106286904D01*
X122321190Y-105867857D02*
X122283095Y-105791666D01*
X122206904Y-105753571D01*
X122092619Y-105753571D01*
X122016428Y-105791666D01*
X121978333Y-105867857D01*
X121978333Y-106286904D01*
X121025952Y-105448809D02*
X121711666Y-106477380D01*
X120759285Y-105753571D02*
X120759285Y-106439285D01*
X120797380Y-106515476D01*
X120873571Y-106553571D01*
X120911666Y-106553571D01*
X120759285Y-105486904D02*
X120797380Y-105525000D01*
X120759285Y-105563095D01*
X120721190Y-105525000D01*
X120759285Y-105486904D01*
X120759285Y-105563095D01*
X120035476Y-105753571D02*
X120035476Y-106401190D01*
X120073571Y-106477380D01*
X120111666Y-106515476D01*
X120187857Y-106553571D01*
X120302142Y-106553571D01*
X120378333Y-106515476D01*
X120035476Y-106248809D02*
X120111666Y-106286904D01*
X120264047Y-106286904D01*
X120340238Y-106248809D01*
X120378333Y-106210714D01*
X120416428Y-106134523D01*
X120416428Y-105905952D01*
X120378333Y-105829761D01*
X120340238Y-105791666D01*
X120264047Y-105753571D01*
X120111666Y-105753571D01*
X120035476Y-105791666D01*
X119654523Y-106286904D02*
X119654523Y-105753571D01*
X119654523Y-105486904D02*
X119692619Y-105525000D01*
X119654523Y-105563095D01*
X119616428Y-105525000D01*
X119654523Y-105486904D01*
X119654523Y-105563095D01*
X119159285Y-106286904D02*
X119235476Y-106248809D01*
X119273571Y-106172619D01*
X119273571Y-105486904D01*
X118740238Y-106286904D02*
X118816428Y-106248809D01*
X118854523Y-106172619D01*
X118854523Y-105486904D01*
X118435476Y-106286904D02*
X118435476Y-105753571D01*
X118435476Y-105486904D02*
X118473571Y-105525000D01*
X118435476Y-105563095D01*
X118397380Y-105525000D01*
X118435476Y-105486904D01*
X118435476Y-105563095D01*
X117711666Y-106248809D02*
X117787857Y-106286904D01*
X117940238Y-106286904D01*
X118016428Y-106248809D01*
X118054523Y-106210714D01*
X118092619Y-106134523D01*
X118092619Y-105905952D01*
X118054523Y-105829761D01*
X118016428Y-105791666D01*
X117940238Y-105753571D01*
X117787857Y-105753571D01*
X117711666Y-105791666D01*
X117368809Y-106286904D02*
X117368809Y-105486904D01*
X117292619Y-105982142D02*
X117064047Y-106286904D01*
X117064047Y-105753571D02*
X117368809Y-106058333D01*
X116149761Y-105448809D02*
X116835476Y-106477380D01*
X115997380Y-105486904D02*
X115540238Y-105486904D01*
X115768809Y-106286904D02*
X115768809Y-105486904D01*
X115273571Y-106286904D02*
X115273571Y-105486904D01*
X114930714Y-106286904D02*
X114930714Y-105867857D01*
X114968809Y-105791666D01*
X115045000Y-105753571D01*
X115159285Y-105753571D01*
X115235476Y-105791666D01*
X115273571Y-105829761D01*
X114206904Y-105753571D02*
X114206904Y-106286904D01*
X114549761Y-105753571D02*
X114549761Y-106172619D01*
X114511666Y-106248809D01*
X114435476Y-106286904D01*
X114321190Y-106286904D01*
X114245000Y-106248809D01*
X114206904Y-106210714D01*
X113825952Y-105753571D02*
X113825952Y-106286904D01*
X113825952Y-105829761D02*
X113787857Y-105791666D01*
X113711666Y-105753571D01*
X113597380Y-105753571D01*
X113521190Y-105791666D01*
X113483095Y-105867857D01*
X113483095Y-106286904D01*
X112759285Y-106286904D02*
X112759285Y-105486904D01*
X112759285Y-106248809D02*
X112835476Y-106286904D01*
X112987857Y-106286904D01*
X113064047Y-106248809D01*
X113102142Y-106210714D01*
X113140238Y-106134523D01*
X113140238Y-105905952D01*
X113102142Y-105829761D01*
X113064047Y-105791666D01*
X112987857Y-105753571D01*
X112835476Y-105753571D01*
X112759285Y-105791666D01*
X112073571Y-106248809D02*
X112149761Y-106286904D01*
X112302142Y-106286904D01*
X112378333Y-106248809D01*
X112416428Y-106172619D01*
X112416428Y-105867857D01*
X112378333Y-105791666D01*
X112302142Y-105753571D01*
X112149761Y-105753571D01*
X112073571Y-105791666D01*
X112035476Y-105867857D01*
X112035476Y-105944047D01*
X112416428Y-106020238D01*
X111692619Y-106286904D02*
X111692619Y-105753571D01*
X111692619Y-105905952D02*
X111654523Y-105829761D01*
X111616428Y-105791666D01*
X111540238Y-105753571D01*
X111464047Y-105753571D01*
X111197380Y-106286904D02*
X111197380Y-105486904D01*
X110892619Y-105486904D01*
X110816428Y-105525000D01*
X110778333Y-105563095D01*
X110740238Y-105639285D01*
X110740238Y-105753571D01*
X110778333Y-105829761D01*
X110816428Y-105867857D01*
X110892619Y-105905952D01*
X111197380Y-105905952D01*
X110054523Y-106286904D02*
X110054523Y-105867857D01*
X110092619Y-105791666D01*
X110168809Y-105753571D01*
X110321190Y-105753571D01*
X110397380Y-105791666D01*
X110054523Y-106248809D02*
X110130714Y-106286904D01*
X110321190Y-106286904D01*
X110397380Y-106248809D01*
X110435476Y-106172619D01*
X110435476Y-106096428D01*
X110397380Y-106020238D01*
X110321190Y-105982142D01*
X110130714Y-105982142D01*
X110054523Y-105944047D01*
X109330714Y-106248809D02*
X109406904Y-106286904D01*
X109559285Y-106286904D01*
X109635476Y-106248809D01*
X109673571Y-106210714D01*
X109711666Y-106134523D01*
X109711666Y-105905952D01*
X109673571Y-105829761D01*
X109635476Y-105791666D01*
X109559285Y-105753571D01*
X109406904Y-105753571D01*
X109330714Y-105791666D01*
X108987857Y-106286904D02*
X108987857Y-105486904D01*
X108911666Y-105982142D02*
X108683095Y-106286904D01*
X108683095Y-105753571D02*
X108987857Y-106058333D01*
X96046428Y-94008333D02*
X96082142Y-93975000D01*
X96153571Y-93875000D01*
X96189285Y-93808333D01*
X96225000Y-93708333D01*
X96260714Y-93541666D01*
X96260714Y-93408333D01*
X96225000Y-93241666D01*
X96189285Y-93141666D01*
X96153571Y-93075000D01*
X96082142Y-92975000D01*
X96046428Y-92941666D01*
X95439285Y-93708333D02*
X95510714Y-93741666D01*
X95653571Y-93741666D01*
X95725000Y-93708333D01*
X95760714Y-93675000D01*
X95796428Y-93608333D01*
X95796428Y-93408333D01*
X95760714Y-93341666D01*
X95725000Y-93308333D01*
X95653571Y-93275000D01*
X95510714Y-93275000D01*
X95439285Y-93308333D01*
X95010714Y-93741666D02*
X95082142Y-93708333D01*
X95117857Y-93675000D01*
X95153571Y-93608333D01*
X95153571Y-93408333D01*
X95117857Y-93341666D01*
X95082142Y-93308333D01*
X95010714Y-93275000D01*
X94903571Y-93275000D01*
X94832142Y-93308333D01*
X94796428Y-93341666D01*
X94760714Y-93408333D01*
X94760714Y-93608333D01*
X94796428Y-93675000D01*
X94832142Y-93708333D01*
X94903571Y-93741666D01*
X95010714Y-93741666D01*
X94439285Y-93741666D02*
X94439285Y-93275000D01*
X94439285Y-93341666D02*
X94403571Y-93308333D01*
X94332142Y-93275000D01*
X94225000Y-93275000D01*
X94153571Y-93308333D01*
X94117857Y-93375000D01*
X94117857Y-93741666D01*
X94117857Y-93375000D02*
X94082142Y-93308333D01*
X94010714Y-93275000D01*
X93903571Y-93275000D01*
X93832142Y-93308333D01*
X93796428Y-93375000D01*
X93796428Y-93741666D01*
X93439285Y-93741666D02*
X93439285Y-93275000D01*
X93439285Y-93341666D02*
X93403571Y-93308333D01*
X93332142Y-93275000D01*
X93225000Y-93275000D01*
X93153571Y-93308333D01*
X93117857Y-93375000D01*
X93117857Y-93741666D01*
X93117857Y-93375000D02*
X93082142Y-93308333D01*
X93010714Y-93275000D01*
X92903571Y-93275000D01*
X92832142Y-93308333D01*
X92796428Y-93375000D01*
X92796428Y-93741666D01*
X92332142Y-93741666D02*
X92403571Y-93708333D01*
X92439285Y-93675000D01*
X92475000Y-93608333D01*
X92475000Y-93408333D01*
X92439285Y-93341666D01*
X92403571Y-93308333D01*
X92332142Y-93275000D01*
X92225000Y-93275000D01*
X92153571Y-93308333D01*
X92117857Y-93341666D01*
X92082142Y-93408333D01*
X92082142Y-93608333D01*
X92117857Y-93675000D01*
X92153571Y-93708333D01*
X92225000Y-93741666D01*
X92332142Y-93741666D01*
X91760714Y-93275000D02*
X91760714Y-93741666D01*
X91760714Y-93341666D02*
X91725000Y-93308333D01*
X91653571Y-93275000D01*
X91546428Y-93275000D01*
X91475000Y-93308333D01*
X91439285Y-93375000D01*
X91439285Y-93741666D01*
X90189285Y-93708333D02*
X90260714Y-93741666D01*
X90403571Y-93741666D01*
X90475000Y-93708333D01*
X90510714Y-93675000D01*
X90546428Y-93608333D01*
X90546428Y-93408333D01*
X90510714Y-93341666D01*
X90475000Y-93308333D01*
X90403571Y-93275000D01*
X90260714Y-93275000D01*
X90189285Y-93308333D01*
X89546428Y-93741666D02*
X89546428Y-93375000D01*
X89582142Y-93308333D01*
X89653571Y-93275000D01*
X89796428Y-93275000D01*
X89867857Y-93308333D01*
X89546428Y-93708333D02*
X89617857Y-93741666D01*
X89796428Y-93741666D01*
X89867857Y-93708333D01*
X89903571Y-93641666D01*
X89903571Y-93575000D01*
X89867857Y-93508333D01*
X89796428Y-93475000D01*
X89617857Y-93475000D01*
X89546428Y-93441666D01*
X89296428Y-93275000D02*
X89010714Y-93275000D01*
X89189285Y-93041666D02*
X89189285Y-93641666D01*
X89153571Y-93708333D01*
X89082142Y-93741666D01*
X89010714Y-93741666D01*
X88760714Y-93741666D02*
X88760714Y-93041666D01*
X88439285Y-93741666D02*
X88439285Y-93375000D01*
X88475000Y-93308333D01*
X88546428Y-93275000D01*
X88653571Y-93275000D01*
X88725000Y-93308333D01*
X88760714Y-93341666D01*
X87975000Y-93741666D02*
X88046428Y-93708333D01*
X88082142Y-93675000D01*
X88117857Y-93608333D01*
X88117857Y-93408333D01*
X88082142Y-93341666D01*
X88046428Y-93308333D01*
X87975000Y-93275000D01*
X87867857Y-93275000D01*
X87796428Y-93308333D01*
X87760714Y-93341666D01*
X87725000Y-93408333D01*
X87725000Y-93608333D01*
X87760714Y-93675000D01*
X87796428Y-93708333D01*
X87867857Y-93741666D01*
X87975000Y-93741666D01*
X87082142Y-93741666D02*
X87082142Y-93041666D01*
X87082142Y-93708333D02*
X87153571Y-93741666D01*
X87296428Y-93741666D01*
X87367857Y-93708333D01*
X87403571Y-93675000D01*
X87439285Y-93608333D01*
X87439285Y-93408333D01*
X87403571Y-93341666D01*
X87367857Y-93308333D01*
X87296428Y-93275000D01*
X87153571Y-93275000D01*
X87082142Y-93308333D01*
X86439285Y-93708333D02*
X86510714Y-93741666D01*
X86653571Y-93741666D01*
X86725000Y-93708333D01*
X86760714Y-93641666D01*
X86760714Y-93375000D01*
X86725000Y-93308333D01*
X86653571Y-93275000D01*
X86510714Y-93275000D01*
X86439285Y-93308333D01*
X86403571Y-93375000D01*
X86403571Y-93441666D01*
X86760714Y-93508333D01*
X86153571Y-94008333D02*
X86117857Y-93975000D01*
X86046428Y-93875000D01*
X86010714Y-93808333D01*
X85975000Y-93708333D01*
X85939285Y-93541666D01*
X85939285Y-93408333D01*
X85975000Y-93241666D01*
X86010714Y-93141666D01*
X86046428Y-93075000D01*
X86117857Y-92975000D01*
X86153571Y-92941666D01*
X86383333Y-97444047D02*
X86383333Y-96794047D01*
X86135714Y-96794047D01*
X86073809Y-96825000D01*
X86042857Y-96855952D01*
X86011904Y-96917857D01*
X86011904Y-97010714D01*
X86042857Y-97072619D01*
X86073809Y-97103571D01*
X86135714Y-97134523D01*
X86383333Y-97134523D01*
X85764285Y-97258333D02*
X85454761Y-97258333D01*
X85826190Y-97444047D02*
X85609523Y-96794047D01*
X85392857Y-97444047D01*
X84897619Y-97010714D02*
X84897619Y-97444047D01*
X85052380Y-96763095D02*
X85207142Y-97227380D01*
X84804761Y-97227380D01*
X84073333Y-97444047D02*
X84073333Y-96794047D01*
X83825714Y-96794047D01*
X83763809Y-96825000D01*
X83732857Y-96855952D01*
X83701904Y-96917857D01*
X83701904Y-97010714D01*
X83732857Y-97072619D01*
X83763809Y-97103571D01*
X83825714Y-97134523D01*
X84073333Y-97134523D01*
X83454285Y-97258333D02*
X83144761Y-97258333D01*
X83516190Y-97444047D02*
X83299523Y-96794047D01*
X83082857Y-97444047D01*
X82556666Y-96794047D02*
X82866190Y-96794047D01*
X82897142Y-97103571D01*
X82866190Y-97072619D01*
X82804285Y-97041666D01*
X82649523Y-97041666D01*
X82587619Y-97072619D01*
X82556666Y-97103571D01*
X82525714Y-97165476D01*
X82525714Y-97320238D01*
X82556666Y-97382142D01*
X82587619Y-97413095D01*
X82649523Y-97444047D01*
X82804285Y-97444047D01*
X82866190Y-97413095D01*
X82897142Y-97382142D01*
X81498333Y-97444047D02*
X81498333Y-96794047D01*
X81250714Y-96794047D01*
X81188809Y-96825000D01*
X81157857Y-96855952D01*
X81126904Y-96917857D01*
X81126904Y-97010714D01*
X81157857Y-97072619D01*
X81188809Y-97103571D01*
X81250714Y-97134523D01*
X81498333Y-97134523D01*
X80879285Y-97258333D02*
X80569761Y-97258333D01*
X80941190Y-97444047D02*
X80724523Y-96794047D01*
X80507857Y-97444047D01*
X80012619Y-96794047D02*
X80136428Y-96794047D01*
X80198333Y-96825000D01*
X80229285Y-96855952D01*
X80291190Y-96948809D01*
X80322142Y-97072619D01*
X80322142Y-97320238D01*
X80291190Y-97382142D01*
X80260238Y-97413095D01*
X80198333Y-97444047D01*
X80074523Y-97444047D01*
X80012619Y-97413095D01*
X79981666Y-97382142D01*
X79950714Y-97320238D01*
X79950714Y-97165476D01*
X79981666Y-97103571D01*
X80012619Y-97072619D01*
X80074523Y-97041666D01*
X80198333Y-97041666D01*
X80260238Y-97072619D01*
X80291190Y-97103571D01*
X80322142Y-97165476D01*
X78898333Y-97444047D02*
X78898333Y-96794047D01*
X78650714Y-96794047D01*
X78588809Y-96825000D01*
X78557857Y-96855952D01*
X78526904Y-96917857D01*
X78526904Y-97010714D01*
X78557857Y-97072619D01*
X78588809Y-97103571D01*
X78650714Y-97134523D01*
X78898333Y-97134523D01*
X78279285Y-97258333D02*
X77969761Y-97258333D01*
X78341190Y-97444047D02*
X78124523Y-96794047D01*
X77907857Y-97444047D01*
X77753095Y-96794047D02*
X77319761Y-96794047D01*
X77598333Y-97444047D01*
X76348333Y-97444047D02*
X76348333Y-96794047D01*
X76100714Y-96794047D01*
X76038809Y-96825000D01*
X76007857Y-96855952D01*
X75976904Y-96917857D01*
X75976904Y-97010714D01*
X76007857Y-97072619D01*
X76038809Y-97103571D01*
X76100714Y-97134523D01*
X76348333Y-97134523D01*
X75729285Y-97258333D02*
X75419761Y-97258333D01*
X75791190Y-97444047D02*
X75574523Y-96794047D01*
X75357857Y-97444047D01*
X75048333Y-97072619D02*
X75110238Y-97041666D01*
X75141190Y-97010714D01*
X75172142Y-96948809D01*
X75172142Y-96917857D01*
X75141190Y-96855952D01*
X75110238Y-96825000D01*
X75048333Y-96794047D01*
X74924523Y-96794047D01*
X74862619Y-96825000D01*
X74831666Y-96855952D01*
X74800714Y-96917857D01*
X74800714Y-96948809D01*
X74831666Y-97010714D01*
X74862619Y-97041666D01*
X74924523Y-97072619D01*
X75048333Y-97072619D01*
X75110238Y-97103571D01*
X75141190Y-97134523D01*
X75172142Y-97196428D01*
X75172142Y-97320238D01*
X75141190Y-97382142D01*
X75110238Y-97413095D01*
X75048333Y-97444047D01*
X74924523Y-97444047D01*
X74862619Y-97413095D01*
X74831666Y-97382142D01*
X74800714Y-97320238D01*
X74800714Y-97196428D01*
X74831666Y-97134523D01*
X74862619Y-97103571D01*
X74924523Y-97072619D01*
X86594761Y-104144047D02*
X86594761Y-103494047D01*
X86347142Y-103494047D01*
X86285238Y-103525000D01*
X86254285Y-103555952D01*
X86223333Y-103617857D01*
X86223333Y-103710714D01*
X86254285Y-103772619D01*
X86285238Y-103803571D01*
X86347142Y-103834523D01*
X86594761Y-103834523D01*
X85728095Y-103803571D02*
X85635238Y-103834523D01*
X85604285Y-103865476D01*
X85573333Y-103927380D01*
X85573333Y-104020238D01*
X85604285Y-104082142D01*
X85635238Y-104113095D01*
X85697142Y-104144047D01*
X85944761Y-104144047D01*
X85944761Y-103494047D01*
X85728095Y-103494047D01*
X85666190Y-103525000D01*
X85635238Y-103555952D01*
X85604285Y-103617857D01*
X85604285Y-103679761D01*
X85635238Y-103741666D01*
X85666190Y-103772619D01*
X85728095Y-103803571D01*
X85944761Y-103803571D01*
X84985238Y-103494047D02*
X85294761Y-103494047D01*
X85325714Y-103803571D01*
X85294761Y-103772619D01*
X85232857Y-103741666D01*
X85078095Y-103741666D01*
X85016190Y-103772619D01*
X84985238Y-103803571D01*
X84954285Y-103865476D01*
X84954285Y-104020238D01*
X84985238Y-104082142D01*
X85016190Y-104113095D01*
X85078095Y-104144047D01*
X85232857Y-104144047D01*
X85294761Y-104113095D01*
X85325714Y-104082142D01*
X84250714Y-104144047D02*
X84250714Y-103494047D01*
X84022142Y-103494047D01*
X83965000Y-103525000D01*
X83936428Y-103555952D01*
X83907857Y-103617857D01*
X83907857Y-103710714D01*
X83936428Y-103772619D01*
X83965000Y-103803571D01*
X84022142Y-103834523D01*
X84250714Y-103834523D01*
X83679285Y-103958333D02*
X83393571Y-103958333D01*
X83736428Y-104144047D02*
X83536428Y-103494047D01*
X83336428Y-104144047D01*
X82822142Y-104144047D02*
X83165000Y-104144047D01*
X82993571Y-104144047D02*
X82993571Y-103494047D01*
X83050714Y-103586904D01*
X83107857Y-103648809D01*
X83165000Y-103679761D01*
X82307857Y-103710714D02*
X82307857Y-104144047D01*
X82450714Y-103463095D02*
X82593571Y-103927380D01*
X82222142Y-103927380D01*
X81675714Y-104144047D02*
X81675714Y-103494047D01*
X81447142Y-103494047D01*
X81390000Y-103525000D01*
X81361428Y-103555952D01*
X81332857Y-103617857D01*
X81332857Y-103710714D01*
X81361428Y-103772619D01*
X81390000Y-103803571D01*
X81447142Y-103834523D01*
X81675714Y-103834523D01*
X81104285Y-103958333D02*
X80818571Y-103958333D01*
X81161428Y-104144047D02*
X80961428Y-103494047D01*
X80761428Y-104144047D01*
X80247142Y-104144047D02*
X80590000Y-104144047D01*
X80418571Y-104144047D02*
X80418571Y-103494047D01*
X80475714Y-103586904D01*
X80532857Y-103648809D01*
X80590000Y-103679761D01*
X80047142Y-103494047D02*
X79675714Y-103494047D01*
X79875714Y-103741666D01*
X79790000Y-103741666D01*
X79732857Y-103772619D01*
X79704285Y-103803571D01*
X79675714Y-103865476D01*
X79675714Y-104020238D01*
X79704285Y-104082142D01*
X79732857Y-104113095D01*
X79790000Y-104144047D01*
X79961428Y-104144047D01*
X80018571Y-104113095D01*
X80047142Y-104082142D01*
X79175714Y-104119047D02*
X79175714Y-103469047D01*
X78947142Y-103469047D01*
X78890000Y-103500000D01*
X78861428Y-103530952D01*
X78832857Y-103592857D01*
X78832857Y-103685714D01*
X78861428Y-103747619D01*
X78890000Y-103778571D01*
X78947142Y-103809523D01*
X79175714Y-103809523D01*
X78604285Y-103933333D02*
X78318571Y-103933333D01*
X78661428Y-104119047D02*
X78461428Y-103469047D01*
X78261428Y-104119047D01*
X77747142Y-104119047D02*
X78090000Y-104119047D01*
X77918571Y-104119047D02*
X77918571Y-103469047D01*
X77975714Y-103561904D01*
X78032857Y-103623809D01*
X78090000Y-103654761D01*
X77375714Y-103469047D02*
X77318571Y-103469047D01*
X77261428Y-103500000D01*
X77232857Y-103530952D01*
X77204285Y-103592857D01*
X77175714Y-103716666D01*
X77175714Y-103871428D01*
X77204285Y-103995238D01*
X77232857Y-104057142D01*
X77261428Y-104088095D01*
X77318571Y-104119047D01*
X77375714Y-104119047D01*
X77432857Y-104088095D01*
X77461428Y-104057142D01*
X77490000Y-103995238D01*
X77518571Y-103871428D01*
X77518571Y-103716666D01*
X77490000Y-103592857D01*
X77461428Y-103530952D01*
X77432857Y-103500000D01*
X77375714Y-103469047D01*
X76423333Y-104144047D02*
X76423333Y-103494047D01*
X76175714Y-103494047D01*
X76113809Y-103525000D01*
X76082857Y-103555952D01*
X76051904Y-103617857D01*
X76051904Y-103710714D01*
X76082857Y-103772619D01*
X76113809Y-103803571D01*
X76175714Y-103834523D01*
X76423333Y-103834523D01*
X75804285Y-103958333D02*
X75494761Y-103958333D01*
X75866190Y-104144047D02*
X75649523Y-103494047D01*
X75432857Y-104144047D01*
X75185238Y-104144047D02*
X75061428Y-104144047D01*
X74999523Y-104113095D01*
X74968571Y-104082142D01*
X74906666Y-103989285D01*
X74875714Y-103865476D01*
X74875714Y-103617857D01*
X74906666Y-103555952D01*
X74937619Y-103525000D01*
X74999523Y-103494047D01*
X75123333Y-103494047D01*
X75185238Y-103525000D01*
X75216190Y-103555952D01*
X75247142Y-103617857D01*
X75247142Y-103772619D01*
X75216190Y-103834523D01*
X75185238Y-103865476D01*
X75123333Y-103896428D01*
X74999523Y-103896428D01*
X74937619Y-103865476D01*
X74906666Y-103834523D01*
X74875714Y-103772619D01*
X91548333Y-97519047D02*
X91548333Y-96869047D01*
X91300714Y-96869047D01*
X91238809Y-96900000D01*
X91207857Y-96930952D01*
X91176904Y-96992857D01*
X91176904Y-97085714D01*
X91207857Y-97147619D01*
X91238809Y-97178571D01*
X91300714Y-97209523D01*
X91548333Y-97209523D01*
X90929285Y-97333333D02*
X90619761Y-97333333D01*
X90991190Y-97519047D02*
X90774523Y-96869047D01*
X90557857Y-97519047D01*
X90403095Y-96869047D02*
X90000714Y-96869047D01*
X90217380Y-97116666D01*
X90124523Y-97116666D01*
X90062619Y-97147619D01*
X90031666Y-97178571D01*
X90000714Y-97240476D01*
X90000714Y-97395238D01*
X90031666Y-97457142D01*
X90062619Y-97488095D01*
X90124523Y-97519047D01*
X90310238Y-97519047D01*
X90372142Y-97488095D01*
X90403095Y-97457142D01*
X94098333Y-97519047D02*
X94098333Y-96869047D01*
X93850714Y-96869047D01*
X93788809Y-96900000D01*
X93757857Y-96930952D01*
X93726904Y-96992857D01*
X93726904Y-97085714D01*
X93757857Y-97147619D01*
X93788809Y-97178571D01*
X93850714Y-97209523D01*
X94098333Y-97209523D01*
X93479285Y-97333333D02*
X93169761Y-97333333D01*
X93541190Y-97519047D02*
X93324523Y-96869047D01*
X93107857Y-97519047D01*
X92922142Y-96930952D02*
X92891190Y-96900000D01*
X92829285Y-96869047D01*
X92674523Y-96869047D01*
X92612619Y-96900000D01*
X92581666Y-96930952D01*
X92550714Y-96992857D01*
X92550714Y-97054761D01*
X92581666Y-97147619D01*
X92953095Y-97519047D01*
X92550714Y-97519047D01*
X96648333Y-97519047D02*
X96648333Y-96869047D01*
X96400714Y-96869047D01*
X96338809Y-96900000D01*
X96307857Y-96930952D01*
X96276904Y-96992857D01*
X96276904Y-97085714D01*
X96307857Y-97147619D01*
X96338809Y-97178571D01*
X96400714Y-97209523D01*
X96648333Y-97209523D01*
X96029285Y-97333333D02*
X95719761Y-97333333D01*
X96091190Y-97519047D02*
X95874523Y-96869047D01*
X95657857Y-97519047D01*
X95100714Y-97519047D02*
X95472142Y-97519047D01*
X95286428Y-97519047D02*
X95286428Y-96869047D01*
X95348333Y-96961904D01*
X95410238Y-97023809D01*
X95472142Y-97054761D01*
X99198333Y-97544047D02*
X99198333Y-96894047D01*
X98950714Y-96894047D01*
X98888809Y-96925000D01*
X98857857Y-96955952D01*
X98826904Y-97017857D01*
X98826904Y-97110714D01*
X98857857Y-97172619D01*
X98888809Y-97203571D01*
X98950714Y-97234523D01*
X99198333Y-97234523D01*
X98579285Y-97358333D02*
X98269761Y-97358333D01*
X98641190Y-97544047D02*
X98424523Y-96894047D01*
X98207857Y-97544047D01*
X97867380Y-96894047D02*
X97805476Y-96894047D01*
X97743571Y-96925000D01*
X97712619Y-96955952D01*
X97681666Y-97017857D01*
X97650714Y-97141666D01*
X97650714Y-97296428D01*
X97681666Y-97420238D01*
X97712619Y-97482142D01*
X97743571Y-97513095D01*
X97805476Y-97544047D01*
X97867380Y-97544047D01*
X97929285Y-97513095D01*
X97960238Y-97482142D01*
X97991190Y-97420238D01*
X98022142Y-97296428D01*
X98022142Y-97141666D01*
X97991190Y-97017857D01*
X97960238Y-96955952D01*
X97929285Y-96925000D01*
X97867380Y-96894047D01*
X102211428Y-97128571D02*
X102118571Y-97159523D01*
X102087619Y-97190476D01*
X102056666Y-97252380D01*
X102056666Y-97345238D01*
X102087619Y-97407142D01*
X102118571Y-97438095D01*
X102180476Y-97469047D01*
X102428095Y-97469047D01*
X102428095Y-96819047D01*
X102211428Y-96819047D01*
X102149523Y-96850000D01*
X102118571Y-96880952D01*
X102087619Y-96942857D01*
X102087619Y-97004761D01*
X102118571Y-97066666D01*
X102149523Y-97097619D01*
X102211428Y-97128571D01*
X102428095Y-97128571D01*
X101499523Y-97469047D02*
X101499523Y-97128571D01*
X101530476Y-97066666D01*
X101592380Y-97035714D01*
X101716190Y-97035714D01*
X101778095Y-97066666D01*
X101499523Y-97438095D02*
X101561428Y-97469047D01*
X101716190Y-97469047D01*
X101778095Y-97438095D01*
X101809047Y-97376190D01*
X101809047Y-97314285D01*
X101778095Y-97252380D01*
X101716190Y-97221428D01*
X101561428Y-97221428D01*
X101499523Y-97190476D01*
X101282857Y-97035714D02*
X101035238Y-97035714D01*
X101190000Y-96819047D02*
X101190000Y-97376190D01*
X101159047Y-97438095D01*
X101097142Y-97469047D01*
X101035238Y-97469047D01*
X100911428Y-97035714D02*
X100663809Y-97035714D01*
X100818571Y-96819047D02*
X100818571Y-97376190D01*
X100787619Y-97438095D01*
X100725714Y-97469047D01*
X100663809Y-97469047D01*
X100447142Y-97221428D02*
X99951904Y-97221428D01*
X100199523Y-97469047D02*
X100199523Y-96973809D01*
D13*
X99272619Y-93877380D02*
X99748809Y-93877380D01*
X99748809Y-92877380D01*
X98939285Y-93353571D02*
X98605952Y-93353571D01*
X98463095Y-93877380D02*
X98939285Y-93877380D01*
X98939285Y-92877380D01*
X98463095Y-92877380D01*
X98034523Y-93877380D02*
X98034523Y-92877380D01*
X97796428Y-92877380D01*
X97653571Y-92925000D01*
X97558333Y-93020238D01*
X97510714Y-93115476D01*
X97463095Y-93305952D01*
X97463095Y-93448809D01*
X97510714Y-93639285D01*
X97558333Y-93734523D01*
X97653571Y-93829761D01*
X97796428Y-93877380D01*
X98034523Y-93877380D01*
X97082142Y-93829761D02*
X96986904Y-93877380D01*
X96796428Y-93877380D01*
X96701190Y-93829761D01*
X96653571Y-93734523D01*
X96653571Y-93686904D01*
X96701190Y-93591666D01*
X96796428Y-93544047D01*
X96939285Y-93544047D01*
X97034523Y-93496428D01*
X97082142Y-93401190D01*
X97082142Y-93353571D01*
X97034523Y-93258333D01*
X96939285Y-93210714D01*
X96796428Y-93210714D01*
X96701190Y-93258333D01*
D11*
X104240476Y-103519047D02*
X104023809Y-104169047D01*
X103807142Y-103519047D01*
X103590476Y-104169047D02*
X103590476Y-103735714D01*
X103590476Y-103519047D02*
X103621428Y-103550000D01*
X103590476Y-103580952D01*
X103559523Y-103550000D01*
X103590476Y-103519047D01*
X103590476Y-103580952D01*
X103280952Y-103735714D02*
X103280952Y-104169047D01*
X103280952Y-103797619D02*
X103250000Y-103766666D01*
X103188095Y-103735714D01*
X103095238Y-103735714D01*
X103033333Y-103766666D01*
X103002380Y-103828571D01*
X103002380Y-104169047D01*
X101918571Y-103544047D02*
X101516190Y-103544047D01*
X101732857Y-103791666D01*
X101640000Y-103791666D01*
X101578095Y-103822619D01*
X101547142Y-103853571D01*
X101516190Y-103915476D01*
X101516190Y-104070238D01*
X101547142Y-104132142D01*
X101578095Y-104163095D01*
X101640000Y-104194047D01*
X101825714Y-104194047D01*
X101887619Y-104163095D01*
X101918571Y-104132142D01*
X101237619Y-104132142D02*
X101206666Y-104163095D01*
X101237619Y-104194047D01*
X101268571Y-104163095D01*
X101237619Y-104132142D01*
X101237619Y-104194047D01*
X100990000Y-103544047D02*
X100587619Y-103544047D01*
X100804285Y-103791666D01*
X100711428Y-103791666D01*
X100649523Y-103822619D01*
X100618571Y-103853571D01*
X100587619Y-103915476D01*
X100587619Y-104070238D01*
X100618571Y-104132142D01*
X100649523Y-104163095D01*
X100711428Y-104194047D01*
X100897142Y-104194047D01*
X100959047Y-104163095D01*
X100990000Y-104132142D01*
X100370952Y-103760714D02*
X100216190Y-104194047D01*
X100061428Y-103760714D01*
X99487619Y-103544047D02*
X99487619Y-104070238D01*
X99456666Y-104132142D01*
X99425714Y-104163095D01*
X99363809Y-104194047D01*
X99240000Y-104194047D01*
X99178095Y-104163095D01*
X99147142Y-104132142D01*
X99116190Y-104070238D01*
X99116190Y-103544047D01*
X98837619Y-104163095D02*
X98744761Y-104194047D01*
X98590000Y-104194047D01*
X98528095Y-104163095D01*
X98497142Y-104132142D01*
X98466190Y-104070238D01*
X98466190Y-104008333D01*
X98497142Y-103946428D01*
X98528095Y-103915476D01*
X98590000Y-103884523D01*
X98713809Y-103853571D01*
X98775714Y-103822619D01*
X98806666Y-103791666D01*
X98837619Y-103729761D01*
X98837619Y-103667857D01*
X98806666Y-103605952D01*
X98775714Y-103575000D01*
X98713809Y-103544047D01*
X98559047Y-103544047D01*
X98466190Y-103575000D01*
X97970952Y-103853571D02*
X97878095Y-103884523D01*
X97847142Y-103915476D01*
X97816190Y-103977380D01*
X97816190Y-104070238D01*
X97847142Y-104132142D01*
X97878095Y-104163095D01*
X97940000Y-104194047D01*
X98187619Y-104194047D01*
X98187619Y-103544047D01*
X97970952Y-103544047D01*
X97909047Y-103575000D01*
X97878095Y-103605952D01*
X97847142Y-103667857D01*
X97847142Y-103729761D01*
X97878095Y-103791666D01*
X97909047Y-103822619D01*
X97970952Y-103853571D01*
X98187619Y-103853571D01*
X97537619Y-103946428D02*
X97042380Y-103946428D01*
X97290000Y-104194047D02*
X97290000Y-103698809D01*
X96332857Y-103575000D02*
X96394761Y-103544047D01*
X96487619Y-103544047D01*
X96580476Y-103575000D01*
X96642380Y-103636904D01*
X96673333Y-103698809D01*
X96704285Y-103822619D01*
X96704285Y-103915476D01*
X96673333Y-104039285D01*
X96642380Y-104101190D01*
X96580476Y-104163095D01*
X96487619Y-104194047D01*
X96425714Y-104194047D01*
X96332857Y-104163095D01*
X96301904Y-104132142D01*
X96301904Y-103915476D01*
X96425714Y-103915476D01*
X96023333Y-103760714D02*
X96023333Y-104194047D01*
X96023333Y-103822619D02*
X95992380Y-103791666D01*
X95930476Y-103760714D01*
X95837619Y-103760714D01*
X95775714Y-103791666D01*
X95744761Y-103853571D01*
X95744761Y-104194047D01*
X95156666Y-104194047D02*
X95156666Y-103544047D01*
X95156666Y-104163095D02*
X95218571Y-104194047D01*
X95342380Y-104194047D01*
X95404285Y-104163095D01*
X95435238Y-104132142D01*
X95466190Y-104070238D01*
X95466190Y-103884523D01*
X95435238Y-103822619D01*
X95404285Y-103791666D01*
X95342380Y-103760714D01*
X95218571Y-103760714D01*
X95156666Y-103791666D01*
D14*
X133218571Y-93564285D02*
X132190000Y-93564285D01*
X132704285Y-95364285D02*
X132704285Y-93564285D01*
X131590000Y-95364285D02*
X131590000Y-93564285D01*
X130818571Y-95364285D02*
X130818571Y-94421428D01*
X130904285Y-94250000D01*
X131075714Y-94164285D01*
X131332857Y-94164285D01*
X131504285Y-94250000D01*
X131590000Y-94335714D01*
X129190000Y-94164285D02*
X129190000Y-95364285D01*
X129961428Y-94164285D02*
X129961428Y-95107142D01*
X129875714Y-95278571D01*
X129704285Y-95364285D01*
X129447142Y-95364285D01*
X129275714Y-95278571D01*
X129190000Y-95192857D01*
X128332857Y-94164285D02*
X128332857Y-95364285D01*
X128332857Y-94335714D02*
X128247142Y-94250000D01*
X128075714Y-94164285D01*
X127818571Y-94164285D01*
X127647142Y-94250000D01*
X127561428Y-94421428D01*
X127561428Y-95364285D01*
X125932857Y-95364285D02*
X125932857Y-93564285D01*
X125932857Y-95278571D02*
X126104285Y-95364285D01*
X126447142Y-95364285D01*
X126618571Y-95278571D01*
X126704285Y-95192857D01*
X126790000Y-95021428D01*
X126790000Y-94507142D01*
X126704285Y-94335714D01*
X126618571Y-94250000D01*
X126447142Y-94164285D01*
X126104285Y-94164285D01*
X125932857Y-94250000D01*
X124390000Y-95278571D02*
X124561428Y-95364285D01*
X124904285Y-95364285D01*
X125075714Y-95278571D01*
X125161428Y-95107142D01*
X125161428Y-94421428D01*
X125075714Y-94250000D01*
X124904285Y-94164285D01*
X124561428Y-94164285D01*
X124390000Y-94250000D01*
X124304285Y-94421428D01*
X124304285Y-94592857D01*
X125161428Y-94764285D01*
X123532857Y-95364285D02*
X123532857Y-94164285D01*
X123532857Y-94507142D02*
X123447142Y-94335714D01*
X123361428Y-94250000D01*
X123190000Y-94164285D01*
X123018571Y-94164285D01*
X122418571Y-95364285D02*
X122418571Y-93564285D01*
X121732857Y-93564285D01*
X121561428Y-93650000D01*
X121475714Y-93735714D01*
X121390000Y-93907142D01*
X121390000Y-94164285D01*
X121475714Y-94335714D01*
X121561428Y-94421428D01*
X121732857Y-94507142D01*
X122418571Y-94507142D01*
X119847142Y-95364285D02*
X119847142Y-94421428D01*
X119932857Y-94250000D01*
X120104285Y-94164285D01*
X120447142Y-94164285D01*
X120618571Y-94250000D01*
X119847142Y-95278571D02*
X120018571Y-95364285D01*
X120447142Y-95364285D01*
X120618571Y-95278571D01*
X120704285Y-95107142D01*
X120704285Y-94935714D01*
X120618571Y-94764285D01*
X120447142Y-94678571D01*
X120018571Y-94678571D01*
X119847142Y-94592857D01*
X118218571Y-95278571D02*
X118390000Y-95364285D01*
X118732857Y-95364285D01*
X118904285Y-95278571D01*
X118990000Y-95192857D01*
X119075714Y-95021428D01*
X119075714Y-94507142D01*
X118990000Y-94335714D01*
X118904285Y-94250000D01*
X118732857Y-94164285D01*
X118390000Y-94164285D01*
X118218571Y-94250000D01*
X117447142Y-95364285D02*
X117447142Y-93564285D01*
X117275714Y-94678571D02*
X116761428Y-95364285D01*
X116761428Y-94164285D02*
X117447142Y-94850000D01*
D11*
X82145000Y-98475000D02*
X96145000Y-98475000D01*
X96145000Y-98475000D02*
X96145000Y-99075000D01*
X96145000Y-99075000D02*
X97145000Y-99075000D01*
X97145000Y-99075000D02*
X97145000Y-100975000D01*
X97145000Y-100975000D02*
X96145000Y-100975000D01*
X96145000Y-100975000D02*
X96145000Y-101475000D01*
X96145000Y-101475000D02*
X82145000Y-101475000D01*
X82145000Y-101475000D02*
X82145000Y-98475000D01*
D10*
X93762857Y-99852380D02*
X94334285Y-99852380D01*
X94048571Y-99852380D02*
X94048571Y-98852380D01*
X94143809Y-98995238D01*
X94239047Y-99090476D01*
X94334285Y-99138095D01*
X93143809Y-98852380D02*
X93048571Y-98852380D01*
X92953333Y-98900000D01*
X92905714Y-98947619D01*
X92858095Y-99042857D01*
X92810476Y-99233333D01*
X92810476Y-99471428D01*
X92858095Y-99661904D01*
X92905714Y-99757142D01*
X92953333Y-99804761D01*
X93048571Y-99852380D01*
X93143809Y-99852380D01*
X93239047Y-99804761D01*
X93286666Y-99757142D01*
X93334285Y-99661904D01*
X93381904Y-99471428D01*
X93381904Y-99233333D01*
X93334285Y-99042857D01*
X93286666Y-98947619D01*
X93239047Y-98900000D01*
X93143809Y-98852380D01*
X91953333Y-99185714D02*
X91953333Y-99852380D01*
X92191428Y-98804761D02*
X92429523Y-99519047D01*
X91810476Y-99519047D01*
X91000952Y-99185714D02*
X91000952Y-99852380D01*
X91239047Y-98804761D02*
X91477142Y-99519047D01*
X90858095Y-99519047D01*
X90286666Y-98852380D02*
X90191428Y-98852380D01*
X90096190Y-98900000D01*
X90048571Y-98947619D01*
X90000952Y-99042857D01*
X89953333Y-99233333D01*
X89953333Y-99471428D01*
X90000952Y-99661904D01*
X90048571Y-99757142D01*
X90096190Y-99804761D01*
X90191428Y-99852380D01*
X90286666Y-99852380D01*
X90381904Y-99804761D01*
X90429523Y-99757142D01*
X90477142Y-99661904D01*
X90524761Y-99471428D01*
X90524761Y-99233333D01*
X90477142Y-99042857D01*
X90429523Y-98947619D01*
X90381904Y-98900000D01*
X90286666Y-98852380D01*
X88429523Y-99328571D02*
X88286666Y-99376190D01*
X88239047Y-99423809D01*
X88191428Y-99519047D01*
X88191428Y-99661904D01*
X88239047Y-99757142D01*
X88286666Y-99804761D01*
X88381904Y-99852380D01*
X88762857Y-99852380D01*
X88762857Y-98852380D01*
X88429523Y-98852380D01*
X88334285Y-98900000D01*
X88286666Y-98947619D01*
X88239047Y-99042857D01*
X88239047Y-99138095D01*
X88286666Y-99233333D01*
X88334285Y-99280952D01*
X88429523Y-99328571D01*
X88762857Y-99328571D01*
X87334285Y-99852380D02*
X87334285Y-99328571D01*
X87381904Y-99233333D01*
X87477142Y-99185714D01*
X87667619Y-99185714D01*
X87762857Y-99233333D01*
X87334285Y-99804761D02*
X87429523Y-99852380D01*
X87667619Y-99852380D01*
X87762857Y-99804761D01*
X87810476Y-99709523D01*
X87810476Y-99614285D01*
X87762857Y-99519047D01*
X87667619Y-99471428D01*
X87429523Y-99471428D01*
X87334285Y-99423809D01*
X87000952Y-99185714D02*
X86620000Y-99185714D01*
X86858095Y-98852380D02*
X86858095Y-99709523D01*
X86810476Y-99804761D01*
X86715238Y-99852380D01*
X86620000Y-99852380D01*
X86429523Y-99185714D02*
X86048571Y-99185714D01*
X86286666Y-98852380D02*
X86286666Y-99709523D01*
X86239047Y-99804761D01*
X86143809Y-99852380D01*
X86048571Y-99852380D01*
X85334285Y-99804761D02*
X85429523Y-99852380D01*
X85620000Y-99852380D01*
X85715238Y-99804761D01*
X85762857Y-99709523D01*
X85762857Y-99328571D01*
X85715238Y-99233333D01*
X85620000Y-99185714D01*
X85429523Y-99185714D01*
X85334285Y-99233333D01*
X85286666Y-99328571D01*
X85286666Y-99423809D01*
X85762857Y-99519047D01*
X84858095Y-99852380D02*
X84858095Y-99185714D01*
X84858095Y-99376190D02*
X84810476Y-99280952D01*
X84762857Y-99233333D01*
X84667619Y-99185714D01*
X84572380Y-99185714D01*
X84334285Y-99185714D02*
X84096190Y-99852380D01*
X83858095Y-99185714D02*
X84096190Y-99852380D01*
X84191428Y-100090476D01*
X84239047Y-100138095D01*
X84334285Y-100185714D01*
D11*
X95184285Y-101275000D02*
X95215238Y-101246428D01*
X95277142Y-101160714D01*
X95308095Y-101103571D01*
X95339047Y-101017857D01*
X95370000Y-100875000D01*
X95370000Y-100760714D01*
X95339047Y-100617857D01*
X95308095Y-100532142D01*
X95277142Y-100475000D01*
X95215238Y-100389285D01*
X95184285Y-100360714D01*
X94565238Y-100989285D02*
X94596190Y-101017857D01*
X94689047Y-101046428D01*
X94750952Y-101046428D01*
X94843809Y-101017857D01*
X94905714Y-100960714D01*
X94936666Y-100903571D01*
X94967619Y-100789285D01*
X94967619Y-100703571D01*
X94936666Y-100589285D01*
X94905714Y-100532142D01*
X94843809Y-100475000D01*
X94750952Y-100446428D01*
X94689047Y-100446428D01*
X94596190Y-100475000D01*
X94565238Y-100503571D01*
X94039047Y-101017857D02*
X94100952Y-101046428D01*
X94224761Y-101046428D01*
X94286666Y-101017857D01*
X94317619Y-100960714D01*
X94317619Y-100732142D01*
X94286666Y-100675000D01*
X94224761Y-100646428D01*
X94100952Y-100646428D01*
X94039047Y-100675000D01*
X94008095Y-100732142D01*
X94008095Y-100789285D01*
X94317619Y-100846428D01*
X93636666Y-101046428D02*
X93698571Y-101017857D01*
X93729523Y-100960714D01*
X93729523Y-100446428D01*
X93296190Y-101046428D02*
X93358095Y-101017857D01*
X93389047Y-100960714D01*
X93389047Y-100446428D01*
X92553333Y-100646428D02*
X92553333Y-101246428D01*
X92553333Y-100675000D02*
X92491428Y-100646428D01*
X92367619Y-100646428D01*
X92305714Y-100675000D01*
X92274761Y-100703571D01*
X92243809Y-100760714D01*
X92243809Y-100932142D01*
X92274761Y-100989285D01*
X92305714Y-101017857D01*
X92367619Y-101046428D01*
X92491428Y-101046428D01*
X92553333Y-101017857D01*
X91965238Y-101046428D02*
X91965238Y-100646428D01*
X91965238Y-100760714D02*
X91934285Y-100703571D01*
X91903333Y-100675000D01*
X91841428Y-100646428D01*
X91779523Y-100646428D01*
X91470000Y-101046428D02*
X91531904Y-101017857D01*
X91562857Y-100989285D01*
X91593809Y-100932142D01*
X91593809Y-100760714D01*
X91562857Y-100703571D01*
X91531904Y-100675000D01*
X91470000Y-100646428D01*
X91377142Y-100646428D01*
X91315238Y-100675000D01*
X91284285Y-100703571D01*
X91253333Y-100760714D01*
X91253333Y-100932142D01*
X91284285Y-100989285D01*
X91315238Y-101017857D01*
X91377142Y-101046428D01*
X91470000Y-101046428D01*
X91067619Y-100646428D02*
X90820000Y-100646428D01*
X90974761Y-100446428D02*
X90974761Y-100960714D01*
X90943809Y-101017857D01*
X90881904Y-101046428D01*
X90820000Y-101046428D01*
X90355714Y-101017857D02*
X90417619Y-101046428D01*
X90541428Y-101046428D01*
X90603333Y-101017857D01*
X90634285Y-100960714D01*
X90634285Y-100732142D01*
X90603333Y-100675000D01*
X90541428Y-100646428D01*
X90417619Y-100646428D01*
X90355714Y-100675000D01*
X90324761Y-100732142D01*
X90324761Y-100789285D01*
X90634285Y-100846428D01*
X89767619Y-101017857D02*
X89829523Y-101046428D01*
X89953333Y-101046428D01*
X90015238Y-101017857D01*
X90046190Y-100989285D01*
X90077142Y-100932142D01*
X90077142Y-100760714D01*
X90046190Y-100703571D01*
X90015238Y-100675000D01*
X89953333Y-100646428D01*
X89829523Y-100646428D01*
X89767619Y-100675000D01*
X89581904Y-100646428D02*
X89334285Y-100646428D01*
X89489047Y-100446428D02*
X89489047Y-100960714D01*
X89458095Y-101017857D01*
X89396190Y-101046428D01*
X89334285Y-101046428D01*
X89117619Y-101046428D02*
X89117619Y-100646428D01*
X89117619Y-100446428D02*
X89148571Y-100475000D01*
X89117619Y-100503571D01*
X89086666Y-100475000D01*
X89117619Y-100446428D01*
X89117619Y-100503571D01*
X88715238Y-101046428D02*
X88777142Y-101017857D01*
X88808095Y-100989285D01*
X88839047Y-100932142D01*
X88839047Y-100760714D01*
X88808095Y-100703571D01*
X88777142Y-100675000D01*
X88715238Y-100646428D01*
X88622380Y-100646428D01*
X88560476Y-100675000D01*
X88529523Y-100703571D01*
X88498571Y-100760714D01*
X88498571Y-100932142D01*
X88529523Y-100989285D01*
X88560476Y-101017857D01*
X88622380Y-101046428D01*
X88715238Y-101046428D01*
X88220000Y-100646428D02*
X88220000Y-101046428D01*
X88220000Y-100703571D02*
X88189047Y-100675000D01*
X88127142Y-100646428D01*
X88034285Y-100646428D01*
X87972380Y-100675000D01*
X87941428Y-100732142D01*
X87941428Y-101046428D01*
X87136666Y-101046428D02*
X87136666Y-100646428D01*
X87136666Y-100760714D02*
X87105714Y-100703571D01*
X87074761Y-100675000D01*
X87012857Y-100646428D01*
X86950952Y-100646428D01*
X86486666Y-101017857D02*
X86548571Y-101046428D01*
X86672380Y-101046428D01*
X86734285Y-101017857D01*
X86765238Y-100960714D01*
X86765238Y-100732142D01*
X86734285Y-100675000D01*
X86672380Y-100646428D01*
X86548571Y-100646428D01*
X86486666Y-100675000D01*
X86455714Y-100732142D01*
X86455714Y-100789285D01*
X86765238Y-100846428D01*
X85898571Y-100646428D02*
X85898571Y-101246428D01*
X85898571Y-101017857D02*
X85960476Y-101046428D01*
X86084285Y-101046428D01*
X86146190Y-101017857D01*
X86177142Y-100989285D01*
X86208095Y-100932142D01*
X86208095Y-100760714D01*
X86177142Y-100703571D01*
X86146190Y-100675000D01*
X86084285Y-100646428D01*
X85960476Y-100646428D01*
X85898571Y-100675000D01*
X85310476Y-100646428D02*
X85310476Y-101046428D01*
X85589047Y-100646428D02*
X85589047Y-100960714D01*
X85558095Y-101017857D01*
X85496190Y-101046428D01*
X85403333Y-101046428D01*
X85341428Y-101017857D01*
X85310476Y-100989285D01*
X85000952Y-101046428D02*
X85000952Y-100646428D01*
X85000952Y-100446428D02*
X85031904Y-100475000D01*
X85000952Y-100503571D01*
X84970000Y-100475000D01*
X85000952Y-100446428D01*
X85000952Y-100503571D01*
X84691428Y-101046428D02*
X84691428Y-100646428D01*
X84691428Y-100760714D02*
X84660476Y-100703571D01*
X84629523Y-100675000D01*
X84567619Y-100646428D01*
X84505714Y-100646428D01*
X84041428Y-101017857D02*
X84103333Y-101046428D01*
X84227142Y-101046428D01*
X84289047Y-101017857D01*
X84320000Y-100960714D01*
X84320000Y-100732142D01*
X84289047Y-100675000D01*
X84227142Y-100646428D01*
X84103333Y-100646428D01*
X84041428Y-100675000D01*
X84010476Y-100732142D01*
X84010476Y-100789285D01*
X84320000Y-100846428D01*
X83453333Y-101046428D02*
X83453333Y-100446428D01*
X83453333Y-101017857D02*
X83515238Y-101046428D01*
X83639047Y-101046428D01*
X83700952Y-101017857D01*
X83731904Y-100989285D01*
X83762857Y-100932142D01*
X83762857Y-100760714D01*
X83731904Y-100703571D01*
X83700952Y-100675000D01*
X83639047Y-100646428D01*
X83515238Y-100646428D01*
X83453333Y-100675000D01*
X83205714Y-101275000D02*
X83174761Y-101246428D01*
X83112857Y-101160714D01*
X83081904Y-101103571D01*
X83050952Y-101017857D01*
X83020000Y-100875000D01*
X83020000Y-100760714D01*
X83050952Y-100617857D01*
X83081904Y-100532142D01*
X83112857Y-100475000D01*
X83174761Y-100389285D01*
X83205714Y-100360714D01*
%LPC*%
D15*
G36*
X122954186Y-97193931D02*
G01*
X122870365Y-97638555D01*
X122561080Y-97766053D01*
X122251794Y-97893551D01*
X121880754Y-97641246D01*
X121776843Y-97570996D01*
X121682913Y-97508272D01*
X121603348Y-97455938D01*
X121542530Y-97416857D01*
X121504843Y-97393893D01*
X121494579Y-97388942D01*
X121476090Y-97401676D01*
X121436580Y-97436882D01*
X121380478Y-97490062D01*
X121312213Y-97556718D01*
X121236214Y-97632354D01*
X121156908Y-97712472D01*
X121078725Y-97792574D01*
X121006093Y-97868164D01*
X120943441Y-97934745D01*
X120895197Y-97987818D01*
X120865790Y-98022887D01*
X120858759Y-98034623D01*
X120868877Y-98056260D01*
X120897241Y-98103662D01*
X120940871Y-98172193D01*
X120996782Y-98257215D01*
X121061994Y-98354093D01*
X121099781Y-98409350D01*
X121168657Y-98510248D01*
X121229860Y-98601299D01*
X121280422Y-98677970D01*
X121317372Y-98735728D01*
X121337742Y-98770043D01*
X121340803Y-98777254D01*
X121333864Y-98797748D01*
X121314949Y-98845513D01*
X121286913Y-98913832D01*
X121252609Y-98995989D01*
X121214891Y-99085270D01*
X121176613Y-99174958D01*
X121140630Y-99258338D01*
X121109794Y-99328694D01*
X121086961Y-99379310D01*
X121074983Y-99403471D01*
X121074276Y-99404422D01*
X121055469Y-99409036D01*
X121005382Y-99419328D01*
X120929207Y-99434287D01*
X120832135Y-99452901D01*
X120719357Y-99474159D01*
X120653558Y-99486418D01*
X120533050Y-99509362D01*
X120424203Y-99531195D01*
X120332524Y-99550722D01*
X120263519Y-99566748D01*
X120222696Y-99578079D01*
X120214489Y-99581674D01*
X120206452Y-99606006D01*
X120199967Y-99660959D01*
X120195030Y-99740108D01*
X120191636Y-99837026D01*
X120189782Y-99945287D01*
X120189462Y-100058465D01*
X120190673Y-100170135D01*
X120193410Y-100273868D01*
X120197669Y-100363241D01*
X120203445Y-100431826D01*
X120210733Y-100473197D01*
X120215105Y-100481810D01*
X120241236Y-100492133D01*
X120296607Y-100506892D01*
X120373893Y-100524352D01*
X120465770Y-100542780D01*
X120497842Y-100548741D01*
X120652476Y-100577066D01*
X120774625Y-100599876D01*
X120868327Y-100618080D01*
X120937616Y-100632583D01*
X120986529Y-100644292D01*
X121019103Y-100654115D01*
X121039372Y-100662956D01*
X121051374Y-100671724D01*
X121053053Y-100673457D01*
X121069816Y-100701371D01*
X121095386Y-100755695D01*
X121127212Y-100829777D01*
X121162740Y-100916965D01*
X121199417Y-101010608D01*
X121234689Y-101104052D01*
X121266004Y-101190647D01*
X121290807Y-101263740D01*
X121306546Y-101316678D01*
X121310668Y-101342811D01*
X121310324Y-101343726D01*
X121296359Y-101365086D01*
X121264678Y-101412084D01*
X121218609Y-101479827D01*
X121161482Y-101563423D01*
X121096627Y-101657982D01*
X121078157Y-101684854D01*
X121012301Y-101782275D01*
X120954350Y-101871163D01*
X120907462Y-101946412D01*
X120874793Y-102002920D01*
X120859500Y-102035581D01*
X120858759Y-102039593D01*
X120871608Y-102060684D01*
X120907112Y-102102464D01*
X120960707Y-102160445D01*
X121027829Y-102230135D01*
X121103913Y-102307045D01*
X121184396Y-102386683D01*
X121264713Y-102464561D01*
X121340301Y-102536186D01*
X121406595Y-102597070D01*
X121459031Y-102642721D01*
X121493045Y-102668650D01*
X121502455Y-102672883D01*
X121524357Y-102662912D01*
X121569200Y-102636020D01*
X121629679Y-102596736D01*
X121676211Y-102565117D01*
X121760525Y-102507098D01*
X121860374Y-102438784D01*
X121960527Y-102370579D01*
X122014373Y-102334075D01*
X122196629Y-102210800D01*
X122349619Y-102293520D01*
X122419318Y-102329759D01*
X122478586Y-102357926D01*
X122518689Y-102373991D01*
X122528897Y-102376226D01*
X122541171Y-102359722D01*
X122565387Y-102313082D01*
X122599737Y-102240609D01*
X122642412Y-102146606D01*
X122691606Y-102035374D01*
X122745510Y-101911215D01*
X122802316Y-101778432D01*
X122860218Y-101641327D01*
X122917407Y-101504202D01*
X122972076Y-101371358D01*
X123022416Y-101247098D01*
X123066620Y-101135725D01*
X123102881Y-101041539D01*
X123129391Y-100968844D01*
X123144342Y-100921941D01*
X123146746Y-100905833D01*
X123127689Y-100885286D01*
X123085964Y-100851933D01*
X123030294Y-100812702D01*
X123025622Y-100809599D01*
X122881736Y-100694423D01*
X122765717Y-100560053D01*
X122678570Y-100410784D01*
X122621301Y-100250913D01*
X122594914Y-100084737D01*
X122600415Y-99916552D01*
X122638810Y-99750655D01*
X122711105Y-99591342D01*
X122732374Y-99556487D01*
X122843004Y-99415737D01*
X122973698Y-99302714D01*
X123119936Y-99218003D01*
X123277192Y-99162194D01*
X123440943Y-99135874D01*
X123606667Y-99139630D01*
X123769838Y-99174050D01*
X123925935Y-99239723D01*
X124070433Y-99337235D01*
X124115131Y-99376813D01*
X124228888Y-99500703D01*
X124311782Y-99631124D01*
X124368644Y-99777315D01*
X124400313Y-99922088D01*
X124408131Y-100084860D01*
X124382062Y-100248440D01*
X124324755Y-100407298D01*
X124238856Y-100555906D01*
X124127014Y-100688735D01*
X123991877Y-100800256D01*
X123974117Y-100812011D01*
X123917850Y-100850508D01*
X123875077Y-100883863D01*
X123854628Y-100905160D01*
X123854331Y-100905833D01*
X123858721Y-100928871D01*
X123876124Y-100981157D01*
X123904732Y-101058390D01*
X123942735Y-101156268D01*
X123988326Y-101270491D01*
X124039697Y-101396758D01*
X124095038Y-101530767D01*
X124152542Y-101668218D01*
X124210399Y-101804808D01*
X124266802Y-101936237D01*
X124319942Y-102058205D01*
X124368010Y-102166409D01*
X124409199Y-102256549D01*
X124441699Y-102324323D01*
X124463703Y-102365430D01*
X124472564Y-102376226D01*
X124499640Y-102367819D01*
X124550303Y-102345272D01*
X124615817Y-102312613D01*
X124651841Y-102293520D01*
X124804832Y-102210800D01*
X124987088Y-102334075D01*
X125080125Y-102397228D01*
X125181985Y-102466727D01*
X125277438Y-102532165D01*
X125325250Y-102565117D01*
X125392495Y-102610273D01*
X125449436Y-102646057D01*
X125488646Y-102667938D01*
X125501381Y-102672563D01*
X125519917Y-102660085D01*
X125560941Y-102625252D01*
X125620475Y-102571678D01*
X125694542Y-102502983D01*
X125779165Y-102422781D01*
X125832685Y-102371286D01*
X125926319Y-102279286D01*
X126007241Y-102196999D01*
X126072177Y-102127945D01*
X126117858Y-102075644D01*
X126141011Y-102043616D01*
X126143232Y-102037116D01*
X126132924Y-102012394D01*
X126104439Y-101962405D01*
X126060937Y-101892212D01*
X126005577Y-101806875D01*
X125941520Y-101711456D01*
X125923303Y-101684854D01*
X125856927Y-101588167D01*
X125797378Y-101501117D01*
X125747984Y-101428595D01*
X125712075Y-101375493D01*
X125692981Y-101346703D01*
X125691136Y-101343726D01*
X125693895Y-101320782D01*
X125708538Y-101270336D01*
X125732513Y-101199041D01*
X125763266Y-101113547D01*
X125798244Y-101020507D01*
X125834893Y-100926574D01*
X125870661Y-100838399D01*
X125902994Y-100762634D01*
X125929338Y-100705931D01*
X125947142Y-100674943D01*
X125948407Y-100673457D01*
X125959294Y-100664601D01*
X125977682Y-100655843D01*
X126007606Y-100646277D01*
X126053103Y-100634996D01*
X126118209Y-100621093D01*
X126206961Y-100603663D01*
X126323393Y-100581798D01*
X126471542Y-100554591D01*
X126503618Y-100548741D01*
X126598686Y-100530374D01*
X126681565Y-100512405D01*
X126744930Y-100496569D01*
X126781458Y-100484600D01*
X126786356Y-100481810D01*
X126794427Y-100457072D01*
X126800987Y-100401790D01*
X126806033Y-100322389D01*
X126809559Y-100225296D01*
X126811561Y-100116938D01*
X126812036Y-100003740D01*
X126810977Y-99892128D01*
X126808382Y-99788529D01*
X126804246Y-99699368D01*
X126798563Y-99631072D01*
X126791331Y-99590066D01*
X126786971Y-99581674D01*
X126762698Y-99573208D01*
X126707426Y-99559435D01*
X126626662Y-99541550D01*
X126525912Y-99520748D01*
X126410683Y-99498223D01*
X126347902Y-99486418D01*
X126228787Y-99464151D01*
X126122565Y-99443979D01*
X126034427Y-99426915D01*
X125969566Y-99413969D01*
X125933174Y-99406155D01*
X125927184Y-99404422D01*
X125917061Y-99384890D01*
X125895662Y-99337843D01*
X125865839Y-99270003D01*
X125830445Y-99188091D01*
X125792332Y-99098828D01*
X125754353Y-99008935D01*
X125719360Y-98925135D01*
X125690206Y-98854147D01*
X125669743Y-98802694D01*
X125660823Y-98777497D01*
X125660657Y-98776396D01*
X125670769Y-98756519D01*
X125699117Y-98710777D01*
X125742723Y-98643717D01*
X125798606Y-98559884D01*
X125863787Y-98463826D01*
X125901679Y-98408650D01*
X125970725Y-98307481D01*
X126032050Y-98215630D01*
X126082663Y-98137744D01*
X126119571Y-98078469D01*
X126139782Y-98042451D01*
X126142701Y-98034377D01*
X126130153Y-98015584D01*
X126095463Y-97975457D01*
X126043063Y-97918493D01*
X125977384Y-97849185D01*
X125902856Y-97772031D01*
X125823913Y-97691525D01*
X125744983Y-97612163D01*
X125670500Y-97538440D01*
X125604894Y-97474852D01*
X125552596Y-97425894D01*
X125518039Y-97396061D01*
X125506478Y-97388942D01*
X125487654Y-97398953D01*
X125442631Y-97427078D01*
X125375787Y-97470454D01*
X125291499Y-97526218D01*
X125194144Y-97591506D01*
X125120707Y-97641246D01*
X124749667Y-97893551D01*
X124131095Y-97638555D01*
X124047275Y-97193931D01*
X123963454Y-96749307D01*
X123038006Y-96749307D01*
X122954186Y-97193931D01*
G37*
X122954186Y-97193931D02*
X122870365Y-97638555D01*
X122561080Y-97766053D01*
X122251794Y-97893551D01*
X121880754Y-97641246D01*
X121776843Y-97570996D01*
X121682913Y-97508272D01*
X121603348Y-97455938D01*
X121542530Y-97416857D01*
X121504843Y-97393893D01*
X121494579Y-97388942D01*
X121476090Y-97401676D01*
X121436580Y-97436882D01*
X121380478Y-97490062D01*
X121312213Y-97556718D01*
X121236214Y-97632354D01*
X121156908Y-97712472D01*
X121078725Y-97792574D01*
X121006093Y-97868164D01*
X120943441Y-97934745D01*
X120895197Y-97987818D01*
X120865790Y-98022887D01*
X120858759Y-98034623D01*
X120868877Y-98056260D01*
X120897241Y-98103662D01*
X120940871Y-98172193D01*
X120996782Y-98257215D01*
X121061994Y-98354093D01*
X121099781Y-98409350D01*
X121168657Y-98510248D01*
X121229860Y-98601299D01*
X121280422Y-98677970D01*
X121317372Y-98735728D01*
X121337742Y-98770043D01*
X121340803Y-98777254D01*
X121333864Y-98797748D01*
X121314949Y-98845513D01*
X121286913Y-98913832D01*
X121252609Y-98995989D01*
X121214891Y-99085270D01*
X121176613Y-99174958D01*
X121140630Y-99258338D01*
X121109794Y-99328694D01*
X121086961Y-99379310D01*
X121074983Y-99403471D01*
X121074276Y-99404422D01*
X121055469Y-99409036D01*
X121005382Y-99419328D01*
X120929207Y-99434287D01*
X120832135Y-99452901D01*
X120719357Y-99474159D01*
X120653558Y-99486418D01*
X120533050Y-99509362D01*
X120424203Y-99531195D01*
X120332524Y-99550722D01*
X120263519Y-99566748D01*
X120222696Y-99578079D01*
X120214489Y-99581674D01*
X120206452Y-99606006D01*
X120199967Y-99660959D01*
X120195030Y-99740108D01*
X120191636Y-99837026D01*
X120189782Y-99945287D01*
X120189462Y-100058465D01*
X120190673Y-100170135D01*
X120193410Y-100273868D01*
X120197669Y-100363241D01*
X120203445Y-100431826D01*
X120210733Y-100473197D01*
X120215105Y-100481810D01*
X120241236Y-100492133D01*
X120296607Y-100506892D01*
X120373893Y-100524352D01*
X120465770Y-100542780D01*
X120497842Y-100548741D01*
X120652476Y-100577066D01*
X120774625Y-100599876D01*
X120868327Y-100618080D01*
X120937616Y-100632583D01*
X120986529Y-100644292D01*
X121019103Y-100654115D01*
X121039372Y-100662956D01*
X121051374Y-100671724D01*
X121053053Y-100673457D01*
X121069816Y-100701371D01*
X121095386Y-100755695D01*
X121127212Y-100829777D01*
X121162740Y-100916965D01*
X121199417Y-101010608D01*
X121234689Y-101104052D01*
X121266004Y-101190647D01*
X121290807Y-101263740D01*
X121306546Y-101316678D01*
X121310668Y-101342811D01*
X121310324Y-101343726D01*
X121296359Y-101365086D01*
X121264678Y-101412084D01*
X121218609Y-101479827D01*
X121161482Y-101563423D01*
X121096627Y-101657982D01*
X121078157Y-101684854D01*
X121012301Y-101782275D01*
X120954350Y-101871163D01*
X120907462Y-101946412D01*
X120874793Y-102002920D01*
X120859500Y-102035581D01*
X120858759Y-102039593D01*
X120871608Y-102060684D01*
X120907112Y-102102464D01*
X120960707Y-102160445D01*
X121027829Y-102230135D01*
X121103913Y-102307045D01*
X121184396Y-102386683D01*
X121264713Y-102464561D01*
X121340301Y-102536186D01*
X121406595Y-102597070D01*
X121459031Y-102642721D01*
X121493045Y-102668650D01*
X121502455Y-102672883D01*
X121524357Y-102662912D01*
X121569200Y-102636020D01*
X121629679Y-102596736D01*
X121676211Y-102565117D01*
X121760525Y-102507098D01*
X121860374Y-102438784D01*
X121960527Y-102370579D01*
X122014373Y-102334075D01*
X122196629Y-102210800D01*
X122349619Y-102293520D01*
X122419318Y-102329759D01*
X122478586Y-102357926D01*
X122518689Y-102373991D01*
X122528897Y-102376226D01*
X122541171Y-102359722D01*
X122565387Y-102313082D01*
X122599737Y-102240609D01*
X122642412Y-102146606D01*
X122691606Y-102035374D01*
X122745510Y-101911215D01*
X122802316Y-101778432D01*
X122860218Y-101641327D01*
X122917407Y-101504202D01*
X122972076Y-101371358D01*
X123022416Y-101247098D01*
X123066620Y-101135725D01*
X123102881Y-101041539D01*
X123129391Y-100968844D01*
X123144342Y-100921941D01*
X123146746Y-100905833D01*
X123127689Y-100885286D01*
X123085964Y-100851933D01*
X123030294Y-100812702D01*
X123025622Y-100809599D01*
X122881736Y-100694423D01*
X122765717Y-100560053D01*
X122678570Y-100410784D01*
X122621301Y-100250913D01*
X122594914Y-100084737D01*
X122600415Y-99916552D01*
X122638810Y-99750655D01*
X122711105Y-99591342D01*
X122732374Y-99556487D01*
X122843004Y-99415737D01*
X122973698Y-99302714D01*
X123119936Y-99218003D01*
X123277192Y-99162194D01*
X123440943Y-99135874D01*
X123606667Y-99139630D01*
X123769838Y-99174050D01*
X123925935Y-99239723D01*
X124070433Y-99337235D01*
X124115131Y-99376813D01*
X124228888Y-99500703D01*
X124311782Y-99631124D01*
X124368644Y-99777315D01*
X124400313Y-99922088D01*
X124408131Y-100084860D01*
X124382062Y-100248440D01*
X124324755Y-100407298D01*
X124238856Y-100555906D01*
X124127014Y-100688735D01*
X123991877Y-100800256D01*
X123974117Y-100812011D01*
X123917850Y-100850508D01*
X123875077Y-100883863D01*
X123854628Y-100905160D01*
X123854331Y-100905833D01*
X123858721Y-100928871D01*
X123876124Y-100981157D01*
X123904732Y-101058390D01*
X123942735Y-101156268D01*
X123988326Y-101270491D01*
X124039697Y-101396758D01*
X124095038Y-101530767D01*
X124152542Y-101668218D01*
X124210399Y-101804808D01*
X124266802Y-101936237D01*
X124319942Y-102058205D01*
X124368010Y-102166409D01*
X124409199Y-102256549D01*
X124441699Y-102324323D01*
X124463703Y-102365430D01*
X124472564Y-102376226D01*
X124499640Y-102367819D01*
X124550303Y-102345272D01*
X124615817Y-102312613D01*
X124651841Y-102293520D01*
X124804832Y-102210800D01*
X124987088Y-102334075D01*
X125080125Y-102397228D01*
X125181985Y-102466727D01*
X125277438Y-102532165D01*
X125325250Y-102565117D01*
X125392495Y-102610273D01*
X125449436Y-102646057D01*
X125488646Y-102667938D01*
X125501381Y-102672563D01*
X125519917Y-102660085D01*
X125560941Y-102625252D01*
X125620475Y-102571678D01*
X125694542Y-102502983D01*
X125779165Y-102422781D01*
X125832685Y-102371286D01*
X125926319Y-102279286D01*
X126007241Y-102196999D01*
X126072177Y-102127945D01*
X126117858Y-102075644D01*
X126141011Y-102043616D01*
X126143232Y-102037116D01*
X126132924Y-102012394D01*
X126104439Y-101962405D01*
X126060937Y-101892212D01*
X126005577Y-101806875D01*
X125941520Y-101711456D01*
X125923303Y-101684854D01*
X125856927Y-101588167D01*
X125797378Y-101501117D01*
X125747984Y-101428595D01*
X125712075Y-101375493D01*
X125692981Y-101346703D01*
X125691136Y-101343726D01*
X125693895Y-101320782D01*
X125708538Y-101270336D01*
X125732513Y-101199041D01*
X125763266Y-101113547D01*
X125798244Y-101020507D01*
X125834893Y-100926574D01*
X125870661Y-100838399D01*
X125902994Y-100762634D01*
X125929338Y-100705931D01*
X125947142Y-100674943D01*
X125948407Y-100673457D01*
X125959294Y-100664601D01*
X125977682Y-100655843D01*
X126007606Y-100646277D01*
X126053103Y-100634996D01*
X126118209Y-100621093D01*
X126206961Y-100603663D01*
X126323393Y-100581798D01*
X126471542Y-100554591D01*
X126503618Y-100548741D01*
X126598686Y-100530374D01*
X126681565Y-100512405D01*
X126744930Y-100496569D01*
X126781458Y-100484600D01*
X126786356Y-100481810D01*
X126794427Y-100457072D01*
X126800987Y-100401790D01*
X126806033Y-100322389D01*
X126809559Y-100225296D01*
X126811561Y-100116938D01*
X126812036Y-100003740D01*
X126810977Y-99892128D01*
X126808382Y-99788529D01*
X126804246Y-99699368D01*
X126798563Y-99631072D01*
X126791331Y-99590066D01*
X126786971Y-99581674D01*
X126762698Y-99573208D01*
X126707426Y-99559435D01*
X126626662Y-99541550D01*
X126525912Y-99520748D01*
X126410683Y-99498223D01*
X126347902Y-99486418D01*
X126228787Y-99464151D01*
X126122565Y-99443979D01*
X126034427Y-99426915D01*
X125969566Y-99413969D01*
X125933174Y-99406155D01*
X125927184Y-99404422D01*
X125917061Y-99384890D01*
X125895662Y-99337843D01*
X125865839Y-99270003D01*
X125830445Y-99188091D01*
X125792332Y-99098828D01*
X125754353Y-99008935D01*
X125719360Y-98925135D01*
X125690206Y-98854147D01*
X125669743Y-98802694D01*
X125660823Y-98777497D01*
X125660657Y-98776396D01*
X125670769Y-98756519D01*
X125699117Y-98710777D01*
X125742723Y-98643717D01*
X125798606Y-98559884D01*
X125863787Y-98463826D01*
X125901679Y-98408650D01*
X125970725Y-98307481D01*
X126032050Y-98215630D01*
X126082663Y-98137744D01*
X126119571Y-98078469D01*
X126139782Y-98042451D01*
X126142701Y-98034377D01*
X126130153Y-98015584D01*
X126095463Y-97975457D01*
X126043063Y-97918493D01*
X125977384Y-97849185D01*
X125902856Y-97772031D01*
X125823913Y-97691525D01*
X125744983Y-97612163D01*
X125670500Y-97538440D01*
X125604894Y-97474852D01*
X125552596Y-97425894D01*
X125518039Y-97396061D01*
X125506478Y-97388942D01*
X125487654Y-97398953D01*
X125442631Y-97427078D01*
X125375787Y-97470454D01*
X125291499Y-97526218D01*
X125194144Y-97591506D01*
X125120707Y-97641246D01*
X124749667Y-97893551D01*
X124131095Y-97638555D01*
X124047275Y-97193931D01*
X123963454Y-96749307D01*
X123038006Y-96749307D01*
X122954186Y-97193931D01*
D16*
X104745000Y-99975000D03*
X112145000Y-99975000D03*
X66145000Y-99975000D03*
X73545000Y-99975000D03*
D17*
X116275000Y-102650000D03*
X116275000Y-97350000D03*
D18*
X90850000Y-95435000D03*
X93390000Y-95435000D03*
X95930000Y-95435000D03*
X98470000Y-95435000D03*
D19*
X101010000Y-95435000D03*
D18*
X75590000Y-95445000D03*
X78130000Y-95445000D03*
X80670000Y-95445000D03*
X83210000Y-95445000D03*
D19*
X85750000Y-95445000D03*
D18*
X103560000Y-105610000D03*
X101020000Y-105610000D03*
X98480000Y-105610000D03*
X95940000Y-105610000D03*
X93400000Y-105610000D03*
X90860000Y-105610000D03*
X88320000Y-105610000D03*
X85780000Y-105610000D03*
X83240000Y-105610000D03*
X80700000Y-105610000D03*
X78160000Y-105610000D03*
D19*
X75620000Y-105610000D03*
D20*
X62885000Y-97555000D03*
X62885000Y-102395000D03*
D21*
X59885000Y-97245000D03*
X59885000Y-102705000D03*
M02*
