G04 #@! TF.GenerationSoftware,KiCad,Pcbnew,(5.1.5-0-10_14)*
G04 #@! TF.CreationDate,2020-01-18T17:03:48-08:00*
G04 #@! TF.ProjectId,10440,31303434-302e-46b6-9963-61645f706362,rev?*
G04 #@! TF.SameCoordinates,Original*
G04 #@! TF.FileFunction,Soldermask,Bot*
G04 #@! TF.FilePolarity,Negative*
%FSLAX46Y46*%
G04 Gerber Fmt 4.6, Leading zero omitted, Abs format (unit mm)*
G04 Created by KiCad (PCBNEW (5.1.5-0-10_14)) date 2020-01-18 17:03:48*
%MOMM*%
%LPD*%
G04 APERTURE LIST*
%ADD10C,0.010000*%
%ADD11C,2.901600*%
%ADD12C,2.501600*%
%ADD13O,1.801600X1.801600*%
%ADD14R,1.801600X1.801600*%
%ADD15O,1.601600X1.201600*%
%ADD16O,1.801600X1.451600*%
G04 APERTURE END LIST*
D10*
G36*
X122954186Y-97193931D02*
G01*
X122870365Y-97638555D01*
X122561080Y-97766053D01*
X122251794Y-97893551D01*
X121880754Y-97641246D01*
X121776843Y-97570996D01*
X121682913Y-97508272D01*
X121603348Y-97455938D01*
X121542530Y-97416857D01*
X121504843Y-97393893D01*
X121494579Y-97388942D01*
X121476090Y-97401676D01*
X121436580Y-97436882D01*
X121380478Y-97490062D01*
X121312213Y-97556718D01*
X121236214Y-97632354D01*
X121156908Y-97712472D01*
X121078725Y-97792574D01*
X121006093Y-97868164D01*
X120943441Y-97934745D01*
X120895197Y-97987818D01*
X120865790Y-98022887D01*
X120858759Y-98034623D01*
X120868877Y-98056260D01*
X120897241Y-98103662D01*
X120940871Y-98172193D01*
X120996782Y-98257215D01*
X121061994Y-98354093D01*
X121099781Y-98409350D01*
X121168657Y-98510248D01*
X121229860Y-98601299D01*
X121280422Y-98677970D01*
X121317372Y-98735728D01*
X121337742Y-98770043D01*
X121340803Y-98777254D01*
X121333864Y-98797748D01*
X121314949Y-98845513D01*
X121286913Y-98913832D01*
X121252609Y-98995989D01*
X121214891Y-99085270D01*
X121176613Y-99174958D01*
X121140630Y-99258338D01*
X121109794Y-99328694D01*
X121086961Y-99379310D01*
X121074983Y-99403471D01*
X121074276Y-99404422D01*
X121055469Y-99409036D01*
X121005382Y-99419328D01*
X120929207Y-99434287D01*
X120832135Y-99452901D01*
X120719357Y-99474159D01*
X120653558Y-99486418D01*
X120533050Y-99509362D01*
X120424203Y-99531195D01*
X120332524Y-99550722D01*
X120263519Y-99566748D01*
X120222696Y-99578079D01*
X120214489Y-99581674D01*
X120206452Y-99606006D01*
X120199967Y-99660959D01*
X120195030Y-99740108D01*
X120191636Y-99837026D01*
X120189782Y-99945287D01*
X120189462Y-100058465D01*
X120190673Y-100170135D01*
X120193410Y-100273868D01*
X120197669Y-100363241D01*
X120203445Y-100431826D01*
X120210733Y-100473197D01*
X120215105Y-100481810D01*
X120241236Y-100492133D01*
X120296607Y-100506892D01*
X120373893Y-100524352D01*
X120465770Y-100542780D01*
X120497842Y-100548741D01*
X120652476Y-100577066D01*
X120774625Y-100599876D01*
X120868327Y-100618080D01*
X120937616Y-100632583D01*
X120986529Y-100644292D01*
X121019103Y-100654115D01*
X121039372Y-100662956D01*
X121051374Y-100671724D01*
X121053053Y-100673457D01*
X121069816Y-100701371D01*
X121095386Y-100755695D01*
X121127212Y-100829777D01*
X121162740Y-100916965D01*
X121199417Y-101010608D01*
X121234689Y-101104052D01*
X121266004Y-101190647D01*
X121290807Y-101263740D01*
X121306546Y-101316678D01*
X121310668Y-101342811D01*
X121310324Y-101343726D01*
X121296359Y-101365086D01*
X121264678Y-101412084D01*
X121218609Y-101479827D01*
X121161482Y-101563423D01*
X121096627Y-101657982D01*
X121078157Y-101684854D01*
X121012301Y-101782275D01*
X120954350Y-101871163D01*
X120907462Y-101946412D01*
X120874793Y-102002920D01*
X120859500Y-102035581D01*
X120858759Y-102039593D01*
X120871608Y-102060684D01*
X120907112Y-102102464D01*
X120960707Y-102160445D01*
X121027829Y-102230135D01*
X121103913Y-102307045D01*
X121184396Y-102386683D01*
X121264713Y-102464561D01*
X121340301Y-102536186D01*
X121406595Y-102597070D01*
X121459031Y-102642721D01*
X121493045Y-102668650D01*
X121502455Y-102672883D01*
X121524357Y-102662912D01*
X121569200Y-102636020D01*
X121629679Y-102596736D01*
X121676211Y-102565117D01*
X121760525Y-102507098D01*
X121860374Y-102438784D01*
X121960527Y-102370579D01*
X122014373Y-102334075D01*
X122196629Y-102210800D01*
X122349619Y-102293520D01*
X122419318Y-102329759D01*
X122478586Y-102357926D01*
X122518689Y-102373991D01*
X122528897Y-102376226D01*
X122541171Y-102359722D01*
X122565387Y-102313082D01*
X122599737Y-102240609D01*
X122642412Y-102146606D01*
X122691606Y-102035374D01*
X122745510Y-101911215D01*
X122802316Y-101778432D01*
X122860218Y-101641327D01*
X122917407Y-101504202D01*
X122972076Y-101371358D01*
X123022416Y-101247098D01*
X123066620Y-101135725D01*
X123102881Y-101041539D01*
X123129391Y-100968844D01*
X123144342Y-100921941D01*
X123146746Y-100905833D01*
X123127689Y-100885286D01*
X123085964Y-100851933D01*
X123030294Y-100812702D01*
X123025622Y-100809599D01*
X122881736Y-100694423D01*
X122765717Y-100560053D01*
X122678570Y-100410784D01*
X122621301Y-100250913D01*
X122594914Y-100084737D01*
X122600415Y-99916552D01*
X122638810Y-99750655D01*
X122711105Y-99591342D01*
X122732374Y-99556487D01*
X122843004Y-99415737D01*
X122973698Y-99302714D01*
X123119936Y-99218003D01*
X123277192Y-99162194D01*
X123440943Y-99135874D01*
X123606667Y-99139630D01*
X123769838Y-99174050D01*
X123925935Y-99239723D01*
X124070433Y-99337235D01*
X124115131Y-99376813D01*
X124228888Y-99500703D01*
X124311782Y-99631124D01*
X124368644Y-99777315D01*
X124400313Y-99922088D01*
X124408131Y-100084860D01*
X124382062Y-100248440D01*
X124324755Y-100407298D01*
X124238856Y-100555906D01*
X124127014Y-100688735D01*
X123991877Y-100800256D01*
X123974117Y-100812011D01*
X123917850Y-100850508D01*
X123875077Y-100883863D01*
X123854628Y-100905160D01*
X123854331Y-100905833D01*
X123858721Y-100928871D01*
X123876124Y-100981157D01*
X123904732Y-101058390D01*
X123942735Y-101156268D01*
X123988326Y-101270491D01*
X124039697Y-101396758D01*
X124095038Y-101530767D01*
X124152542Y-101668218D01*
X124210399Y-101804808D01*
X124266802Y-101936237D01*
X124319942Y-102058205D01*
X124368010Y-102166409D01*
X124409199Y-102256549D01*
X124441699Y-102324323D01*
X124463703Y-102365430D01*
X124472564Y-102376226D01*
X124499640Y-102367819D01*
X124550303Y-102345272D01*
X124615817Y-102312613D01*
X124651841Y-102293520D01*
X124804832Y-102210800D01*
X124987088Y-102334075D01*
X125080125Y-102397228D01*
X125181985Y-102466727D01*
X125277438Y-102532165D01*
X125325250Y-102565117D01*
X125392495Y-102610273D01*
X125449436Y-102646057D01*
X125488646Y-102667938D01*
X125501381Y-102672563D01*
X125519917Y-102660085D01*
X125560941Y-102625252D01*
X125620475Y-102571678D01*
X125694542Y-102502983D01*
X125779165Y-102422781D01*
X125832685Y-102371286D01*
X125926319Y-102279286D01*
X126007241Y-102196999D01*
X126072177Y-102127945D01*
X126117858Y-102075644D01*
X126141011Y-102043616D01*
X126143232Y-102037116D01*
X126132924Y-102012394D01*
X126104439Y-101962405D01*
X126060937Y-101892212D01*
X126005577Y-101806875D01*
X125941520Y-101711456D01*
X125923303Y-101684854D01*
X125856927Y-101588167D01*
X125797378Y-101501117D01*
X125747984Y-101428595D01*
X125712075Y-101375493D01*
X125692981Y-101346703D01*
X125691136Y-101343726D01*
X125693895Y-101320782D01*
X125708538Y-101270336D01*
X125732513Y-101199041D01*
X125763266Y-101113547D01*
X125798244Y-101020507D01*
X125834893Y-100926574D01*
X125870661Y-100838399D01*
X125902994Y-100762634D01*
X125929338Y-100705931D01*
X125947142Y-100674943D01*
X125948407Y-100673457D01*
X125959294Y-100664601D01*
X125977682Y-100655843D01*
X126007606Y-100646277D01*
X126053103Y-100634996D01*
X126118209Y-100621093D01*
X126206961Y-100603663D01*
X126323393Y-100581798D01*
X126471542Y-100554591D01*
X126503618Y-100548741D01*
X126598686Y-100530374D01*
X126681565Y-100512405D01*
X126744930Y-100496569D01*
X126781458Y-100484600D01*
X126786356Y-100481810D01*
X126794427Y-100457072D01*
X126800987Y-100401790D01*
X126806033Y-100322389D01*
X126809559Y-100225296D01*
X126811561Y-100116938D01*
X126812036Y-100003740D01*
X126810977Y-99892128D01*
X126808382Y-99788529D01*
X126804246Y-99699368D01*
X126798563Y-99631072D01*
X126791331Y-99590066D01*
X126786971Y-99581674D01*
X126762698Y-99573208D01*
X126707426Y-99559435D01*
X126626662Y-99541550D01*
X126525912Y-99520748D01*
X126410683Y-99498223D01*
X126347902Y-99486418D01*
X126228787Y-99464151D01*
X126122565Y-99443979D01*
X126034427Y-99426915D01*
X125969566Y-99413969D01*
X125933174Y-99406155D01*
X125927184Y-99404422D01*
X125917061Y-99384890D01*
X125895662Y-99337843D01*
X125865839Y-99270003D01*
X125830445Y-99188091D01*
X125792332Y-99098828D01*
X125754353Y-99008935D01*
X125719360Y-98925135D01*
X125690206Y-98854147D01*
X125669743Y-98802694D01*
X125660823Y-98777497D01*
X125660657Y-98776396D01*
X125670769Y-98756519D01*
X125699117Y-98710777D01*
X125742723Y-98643717D01*
X125798606Y-98559884D01*
X125863787Y-98463826D01*
X125901679Y-98408650D01*
X125970725Y-98307481D01*
X126032050Y-98215630D01*
X126082663Y-98137744D01*
X126119571Y-98078469D01*
X126139782Y-98042451D01*
X126142701Y-98034377D01*
X126130153Y-98015584D01*
X126095463Y-97975457D01*
X126043063Y-97918493D01*
X125977384Y-97849185D01*
X125902856Y-97772031D01*
X125823913Y-97691525D01*
X125744983Y-97612163D01*
X125670500Y-97538440D01*
X125604894Y-97474852D01*
X125552596Y-97425894D01*
X125518039Y-97396061D01*
X125506478Y-97388942D01*
X125487654Y-97398953D01*
X125442631Y-97427078D01*
X125375787Y-97470454D01*
X125291499Y-97526218D01*
X125194144Y-97591506D01*
X125120707Y-97641246D01*
X124749667Y-97893551D01*
X124131095Y-97638555D01*
X124047275Y-97193931D01*
X123963454Y-96749307D01*
X123038006Y-96749307D01*
X122954186Y-97193931D01*
G37*
X122954186Y-97193931D02*
X122870365Y-97638555D01*
X122561080Y-97766053D01*
X122251794Y-97893551D01*
X121880754Y-97641246D01*
X121776843Y-97570996D01*
X121682913Y-97508272D01*
X121603348Y-97455938D01*
X121542530Y-97416857D01*
X121504843Y-97393893D01*
X121494579Y-97388942D01*
X121476090Y-97401676D01*
X121436580Y-97436882D01*
X121380478Y-97490062D01*
X121312213Y-97556718D01*
X121236214Y-97632354D01*
X121156908Y-97712472D01*
X121078725Y-97792574D01*
X121006093Y-97868164D01*
X120943441Y-97934745D01*
X120895197Y-97987818D01*
X120865790Y-98022887D01*
X120858759Y-98034623D01*
X120868877Y-98056260D01*
X120897241Y-98103662D01*
X120940871Y-98172193D01*
X120996782Y-98257215D01*
X121061994Y-98354093D01*
X121099781Y-98409350D01*
X121168657Y-98510248D01*
X121229860Y-98601299D01*
X121280422Y-98677970D01*
X121317372Y-98735728D01*
X121337742Y-98770043D01*
X121340803Y-98777254D01*
X121333864Y-98797748D01*
X121314949Y-98845513D01*
X121286913Y-98913832D01*
X121252609Y-98995989D01*
X121214891Y-99085270D01*
X121176613Y-99174958D01*
X121140630Y-99258338D01*
X121109794Y-99328694D01*
X121086961Y-99379310D01*
X121074983Y-99403471D01*
X121074276Y-99404422D01*
X121055469Y-99409036D01*
X121005382Y-99419328D01*
X120929207Y-99434287D01*
X120832135Y-99452901D01*
X120719357Y-99474159D01*
X120653558Y-99486418D01*
X120533050Y-99509362D01*
X120424203Y-99531195D01*
X120332524Y-99550722D01*
X120263519Y-99566748D01*
X120222696Y-99578079D01*
X120214489Y-99581674D01*
X120206452Y-99606006D01*
X120199967Y-99660959D01*
X120195030Y-99740108D01*
X120191636Y-99837026D01*
X120189782Y-99945287D01*
X120189462Y-100058465D01*
X120190673Y-100170135D01*
X120193410Y-100273868D01*
X120197669Y-100363241D01*
X120203445Y-100431826D01*
X120210733Y-100473197D01*
X120215105Y-100481810D01*
X120241236Y-100492133D01*
X120296607Y-100506892D01*
X120373893Y-100524352D01*
X120465770Y-100542780D01*
X120497842Y-100548741D01*
X120652476Y-100577066D01*
X120774625Y-100599876D01*
X120868327Y-100618080D01*
X120937616Y-100632583D01*
X120986529Y-100644292D01*
X121019103Y-100654115D01*
X121039372Y-100662956D01*
X121051374Y-100671724D01*
X121053053Y-100673457D01*
X121069816Y-100701371D01*
X121095386Y-100755695D01*
X121127212Y-100829777D01*
X121162740Y-100916965D01*
X121199417Y-101010608D01*
X121234689Y-101104052D01*
X121266004Y-101190647D01*
X121290807Y-101263740D01*
X121306546Y-101316678D01*
X121310668Y-101342811D01*
X121310324Y-101343726D01*
X121296359Y-101365086D01*
X121264678Y-101412084D01*
X121218609Y-101479827D01*
X121161482Y-101563423D01*
X121096627Y-101657982D01*
X121078157Y-101684854D01*
X121012301Y-101782275D01*
X120954350Y-101871163D01*
X120907462Y-101946412D01*
X120874793Y-102002920D01*
X120859500Y-102035581D01*
X120858759Y-102039593D01*
X120871608Y-102060684D01*
X120907112Y-102102464D01*
X120960707Y-102160445D01*
X121027829Y-102230135D01*
X121103913Y-102307045D01*
X121184396Y-102386683D01*
X121264713Y-102464561D01*
X121340301Y-102536186D01*
X121406595Y-102597070D01*
X121459031Y-102642721D01*
X121493045Y-102668650D01*
X121502455Y-102672883D01*
X121524357Y-102662912D01*
X121569200Y-102636020D01*
X121629679Y-102596736D01*
X121676211Y-102565117D01*
X121760525Y-102507098D01*
X121860374Y-102438784D01*
X121960527Y-102370579D01*
X122014373Y-102334075D01*
X122196629Y-102210800D01*
X122349619Y-102293520D01*
X122419318Y-102329759D01*
X122478586Y-102357926D01*
X122518689Y-102373991D01*
X122528897Y-102376226D01*
X122541171Y-102359722D01*
X122565387Y-102313082D01*
X122599737Y-102240609D01*
X122642412Y-102146606D01*
X122691606Y-102035374D01*
X122745510Y-101911215D01*
X122802316Y-101778432D01*
X122860218Y-101641327D01*
X122917407Y-101504202D01*
X122972076Y-101371358D01*
X123022416Y-101247098D01*
X123066620Y-101135725D01*
X123102881Y-101041539D01*
X123129391Y-100968844D01*
X123144342Y-100921941D01*
X123146746Y-100905833D01*
X123127689Y-100885286D01*
X123085964Y-100851933D01*
X123030294Y-100812702D01*
X123025622Y-100809599D01*
X122881736Y-100694423D01*
X122765717Y-100560053D01*
X122678570Y-100410784D01*
X122621301Y-100250913D01*
X122594914Y-100084737D01*
X122600415Y-99916552D01*
X122638810Y-99750655D01*
X122711105Y-99591342D01*
X122732374Y-99556487D01*
X122843004Y-99415737D01*
X122973698Y-99302714D01*
X123119936Y-99218003D01*
X123277192Y-99162194D01*
X123440943Y-99135874D01*
X123606667Y-99139630D01*
X123769838Y-99174050D01*
X123925935Y-99239723D01*
X124070433Y-99337235D01*
X124115131Y-99376813D01*
X124228888Y-99500703D01*
X124311782Y-99631124D01*
X124368644Y-99777315D01*
X124400313Y-99922088D01*
X124408131Y-100084860D01*
X124382062Y-100248440D01*
X124324755Y-100407298D01*
X124238856Y-100555906D01*
X124127014Y-100688735D01*
X123991877Y-100800256D01*
X123974117Y-100812011D01*
X123917850Y-100850508D01*
X123875077Y-100883863D01*
X123854628Y-100905160D01*
X123854331Y-100905833D01*
X123858721Y-100928871D01*
X123876124Y-100981157D01*
X123904732Y-101058390D01*
X123942735Y-101156268D01*
X123988326Y-101270491D01*
X124039697Y-101396758D01*
X124095038Y-101530767D01*
X124152542Y-101668218D01*
X124210399Y-101804808D01*
X124266802Y-101936237D01*
X124319942Y-102058205D01*
X124368010Y-102166409D01*
X124409199Y-102256549D01*
X124441699Y-102324323D01*
X124463703Y-102365430D01*
X124472564Y-102376226D01*
X124499640Y-102367819D01*
X124550303Y-102345272D01*
X124615817Y-102312613D01*
X124651841Y-102293520D01*
X124804832Y-102210800D01*
X124987088Y-102334075D01*
X125080125Y-102397228D01*
X125181985Y-102466727D01*
X125277438Y-102532165D01*
X125325250Y-102565117D01*
X125392495Y-102610273D01*
X125449436Y-102646057D01*
X125488646Y-102667938D01*
X125501381Y-102672563D01*
X125519917Y-102660085D01*
X125560941Y-102625252D01*
X125620475Y-102571678D01*
X125694542Y-102502983D01*
X125779165Y-102422781D01*
X125832685Y-102371286D01*
X125926319Y-102279286D01*
X126007241Y-102196999D01*
X126072177Y-102127945D01*
X126117858Y-102075644D01*
X126141011Y-102043616D01*
X126143232Y-102037116D01*
X126132924Y-102012394D01*
X126104439Y-101962405D01*
X126060937Y-101892212D01*
X126005577Y-101806875D01*
X125941520Y-101711456D01*
X125923303Y-101684854D01*
X125856927Y-101588167D01*
X125797378Y-101501117D01*
X125747984Y-101428595D01*
X125712075Y-101375493D01*
X125692981Y-101346703D01*
X125691136Y-101343726D01*
X125693895Y-101320782D01*
X125708538Y-101270336D01*
X125732513Y-101199041D01*
X125763266Y-101113547D01*
X125798244Y-101020507D01*
X125834893Y-100926574D01*
X125870661Y-100838399D01*
X125902994Y-100762634D01*
X125929338Y-100705931D01*
X125947142Y-100674943D01*
X125948407Y-100673457D01*
X125959294Y-100664601D01*
X125977682Y-100655843D01*
X126007606Y-100646277D01*
X126053103Y-100634996D01*
X126118209Y-100621093D01*
X126206961Y-100603663D01*
X126323393Y-100581798D01*
X126471542Y-100554591D01*
X126503618Y-100548741D01*
X126598686Y-100530374D01*
X126681565Y-100512405D01*
X126744930Y-100496569D01*
X126781458Y-100484600D01*
X126786356Y-100481810D01*
X126794427Y-100457072D01*
X126800987Y-100401790D01*
X126806033Y-100322389D01*
X126809559Y-100225296D01*
X126811561Y-100116938D01*
X126812036Y-100003740D01*
X126810977Y-99892128D01*
X126808382Y-99788529D01*
X126804246Y-99699368D01*
X126798563Y-99631072D01*
X126791331Y-99590066D01*
X126786971Y-99581674D01*
X126762698Y-99573208D01*
X126707426Y-99559435D01*
X126626662Y-99541550D01*
X126525912Y-99520748D01*
X126410683Y-99498223D01*
X126347902Y-99486418D01*
X126228787Y-99464151D01*
X126122565Y-99443979D01*
X126034427Y-99426915D01*
X125969566Y-99413969D01*
X125933174Y-99406155D01*
X125927184Y-99404422D01*
X125917061Y-99384890D01*
X125895662Y-99337843D01*
X125865839Y-99270003D01*
X125830445Y-99188091D01*
X125792332Y-99098828D01*
X125754353Y-99008935D01*
X125719360Y-98925135D01*
X125690206Y-98854147D01*
X125669743Y-98802694D01*
X125660823Y-98777497D01*
X125660657Y-98776396D01*
X125670769Y-98756519D01*
X125699117Y-98710777D01*
X125742723Y-98643717D01*
X125798606Y-98559884D01*
X125863787Y-98463826D01*
X125901679Y-98408650D01*
X125970725Y-98307481D01*
X126032050Y-98215630D01*
X126082663Y-98137744D01*
X126119571Y-98078469D01*
X126139782Y-98042451D01*
X126142701Y-98034377D01*
X126130153Y-98015584D01*
X126095463Y-97975457D01*
X126043063Y-97918493D01*
X125977384Y-97849185D01*
X125902856Y-97772031D01*
X125823913Y-97691525D01*
X125744983Y-97612163D01*
X125670500Y-97538440D01*
X125604894Y-97474852D01*
X125552596Y-97425894D01*
X125518039Y-97396061D01*
X125506478Y-97388942D01*
X125487654Y-97398953D01*
X125442631Y-97427078D01*
X125375787Y-97470454D01*
X125291499Y-97526218D01*
X125194144Y-97591506D01*
X125120707Y-97641246D01*
X124749667Y-97893551D01*
X124131095Y-97638555D01*
X124047275Y-97193931D01*
X123963454Y-96749307D01*
X123038006Y-96749307D01*
X122954186Y-97193931D01*
D11*
X104745000Y-99975000D03*
X112145000Y-99975000D03*
X66145000Y-99975000D03*
X73545000Y-99975000D03*
D12*
X116275000Y-102650000D03*
X116275000Y-97350000D03*
D13*
X90850000Y-95435000D03*
X93390000Y-95435000D03*
X95930000Y-95435000D03*
X98470000Y-95435000D03*
D14*
X101010000Y-95435000D03*
D13*
X75590000Y-95445000D03*
X78130000Y-95445000D03*
X80670000Y-95445000D03*
X83210000Y-95445000D03*
D14*
X85750000Y-95445000D03*
D13*
X103560000Y-105610000D03*
X101020000Y-105610000D03*
X98480000Y-105610000D03*
X95940000Y-105610000D03*
X93400000Y-105610000D03*
X90860000Y-105610000D03*
X88320000Y-105610000D03*
X85780000Y-105610000D03*
X83240000Y-105610000D03*
X80700000Y-105610000D03*
X78160000Y-105610000D03*
D14*
X75620000Y-105610000D03*
D15*
X62885000Y-97555000D03*
X62885000Y-102395000D03*
D16*
X59885000Y-97245000D03*
X59885000Y-102705000D03*
M02*
