G04 #@! TF.GenerationSoftware,KiCad,Pcbnew,(5.1.5-0-10_14)*
G04 #@! TF.CreationDate,2020-02-04T09:14:37-08:00*
G04 #@! TF.ProjectId,14500,31343530-302e-46b6-9963-61645f706362,rev?*
G04 #@! TF.SameCoordinates,Original*
G04 #@! TF.FileFunction,Paste,Bot*
G04 #@! TF.FilePolarity,Positive*
%FSLAX46Y46*%
G04 Gerber Fmt 4.6, Leading zero omitted, Abs format (unit mm)*
G04 Created by KiCad (PCBNEW (5.1.5-0-10_14)) date 2020-02-04 09:14:37*
%MOMM*%
%LPD*%
G04 APERTURE LIST*
%ADD10C,0.010000*%
G04 APERTURE END LIST*
D10*
G36*
X129284186Y-97723931D02*
G01*
X129200365Y-98168555D01*
X128891080Y-98296053D01*
X128581794Y-98423551D01*
X128210754Y-98171246D01*
X128106843Y-98100996D01*
X128012913Y-98038272D01*
X127933348Y-97985938D01*
X127872530Y-97946857D01*
X127834843Y-97923893D01*
X127824579Y-97918942D01*
X127806090Y-97931676D01*
X127766580Y-97966882D01*
X127710478Y-98020062D01*
X127642213Y-98086718D01*
X127566214Y-98162354D01*
X127486908Y-98242472D01*
X127408725Y-98322574D01*
X127336093Y-98398164D01*
X127273441Y-98464745D01*
X127225197Y-98517818D01*
X127195790Y-98552887D01*
X127188759Y-98564623D01*
X127198877Y-98586260D01*
X127227241Y-98633662D01*
X127270871Y-98702193D01*
X127326782Y-98787215D01*
X127391994Y-98884093D01*
X127429781Y-98939350D01*
X127498657Y-99040248D01*
X127559860Y-99131299D01*
X127610422Y-99207970D01*
X127647372Y-99265728D01*
X127667742Y-99300043D01*
X127670803Y-99307254D01*
X127663864Y-99327748D01*
X127644949Y-99375513D01*
X127616913Y-99443832D01*
X127582609Y-99525989D01*
X127544891Y-99615270D01*
X127506613Y-99704958D01*
X127470630Y-99788338D01*
X127439794Y-99858694D01*
X127416961Y-99909310D01*
X127404983Y-99933471D01*
X127404276Y-99934422D01*
X127385469Y-99939036D01*
X127335382Y-99949328D01*
X127259207Y-99964287D01*
X127162135Y-99982901D01*
X127049357Y-100004159D01*
X126983558Y-100016418D01*
X126863050Y-100039362D01*
X126754203Y-100061195D01*
X126662524Y-100080722D01*
X126593519Y-100096748D01*
X126552696Y-100108079D01*
X126544489Y-100111674D01*
X126536452Y-100136006D01*
X126529967Y-100190959D01*
X126525030Y-100270108D01*
X126521636Y-100367026D01*
X126519782Y-100475287D01*
X126519462Y-100588465D01*
X126520673Y-100700135D01*
X126523410Y-100803868D01*
X126527669Y-100893241D01*
X126533445Y-100961826D01*
X126540733Y-101003197D01*
X126545105Y-101011810D01*
X126571236Y-101022133D01*
X126626607Y-101036892D01*
X126703893Y-101054352D01*
X126795770Y-101072780D01*
X126827842Y-101078741D01*
X126982476Y-101107066D01*
X127104625Y-101129876D01*
X127198327Y-101148080D01*
X127267616Y-101162583D01*
X127316529Y-101174292D01*
X127349103Y-101184115D01*
X127369372Y-101192956D01*
X127381374Y-101201724D01*
X127383053Y-101203457D01*
X127399816Y-101231371D01*
X127425386Y-101285695D01*
X127457212Y-101359777D01*
X127492740Y-101446965D01*
X127529417Y-101540608D01*
X127564689Y-101634052D01*
X127596004Y-101720647D01*
X127620807Y-101793740D01*
X127636546Y-101846678D01*
X127640668Y-101872811D01*
X127640324Y-101873726D01*
X127626359Y-101895086D01*
X127594678Y-101942084D01*
X127548609Y-102009827D01*
X127491482Y-102093423D01*
X127426627Y-102187982D01*
X127408157Y-102214854D01*
X127342301Y-102312275D01*
X127284350Y-102401163D01*
X127237462Y-102476412D01*
X127204793Y-102532920D01*
X127189500Y-102565581D01*
X127188759Y-102569593D01*
X127201608Y-102590684D01*
X127237112Y-102632464D01*
X127290707Y-102690445D01*
X127357829Y-102760135D01*
X127433913Y-102837045D01*
X127514396Y-102916683D01*
X127594713Y-102994561D01*
X127670301Y-103066186D01*
X127736595Y-103127070D01*
X127789031Y-103172721D01*
X127823045Y-103198650D01*
X127832455Y-103202883D01*
X127854357Y-103192912D01*
X127899200Y-103166020D01*
X127959679Y-103126736D01*
X128006211Y-103095117D01*
X128090525Y-103037098D01*
X128190374Y-102968784D01*
X128290527Y-102900579D01*
X128344373Y-102864075D01*
X128526629Y-102740800D01*
X128679619Y-102823520D01*
X128749318Y-102859759D01*
X128808586Y-102887926D01*
X128848689Y-102903991D01*
X128858897Y-102906226D01*
X128871171Y-102889722D01*
X128895387Y-102843082D01*
X128929737Y-102770609D01*
X128972412Y-102676606D01*
X129021606Y-102565374D01*
X129075510Y-102441215D01*
X129132316Y-102308432D01*
X129190218Y-102171327D01*
X129247407Y-102034202D01*
X129302076Y-101901358D01*
X129352416Y-101777098D01*
X129396620Y-101665725D01*
X129432881Y-101571539D01*
X129459391Y-101498844D01*
X129474342Y-101451941D01*
X129476746Y-101435833D01*
X129457689Y-101415286D01*
X129415964Y-101381933D01*
X129360294Y-101342702D01*
X129355622Y-101339599D01*
X129211736Y-101224423D01*
X129095717Y-101090053D01*
X129008570Y-100940784D01*
X128951301Y-100780913D01*
X128924914Y-100614737D01*
X128930415Y-100446552D01*
X128968810Y-100280655D01*
X129041105Y-100121342D01*
X129062374Y-100086487D01*
X129173004Y-99945737D01*
X129303698Y-99832714D01*
X129449936Y-99748003D01*
X129607192Y-99692194D01*
X129770943Y-99665874D01*
X129936667Y-99669630D01*
X130099838Y-99704050D01*
X130255935Y-99769723D01*
X130400433Y-99867235D01*
X130445131Y-99906813D01*
X130558888Y-100030703D01*
X130641782Y-100161124D01*
X130698644Y-100307315D01*
X130730313Y-100452088D01*
X130738131Y-100614860D01*
X130712062Y-100778440D01*
X130654755Y-100937298D01*
X130568856Y-101085906D01*
X130457014Y-101218735D01*
X130321877Y-101330256D01*
X130304117Y-101342011D01*
X130247850Y-101380508D01*
X130205077Y-101413863D01*
X130184628Y-101435160D01*
X130184331Y-101435833D01*
X130188721Y-101458871D01*
X130206124Y-101511157D01*
X130234732Y-101588390D01*
X130272735Y-101686268D01*
X130318326Y-101800491D01*
X130369697Y-101926758D01*
X130425038Y-102060767D01*
X130482542Y-102198218D01*
X130540399Y-102334808D01*
X130596802Y-102466237D01*
X130649942Y-102588205D01*
X130698010Y-102696409D01*
X130739199Y-102786549D01*
X130771699Y-102854323D01*
X130793703Y-102895430D01*
X130802564Y-102906226D01*
X130829640Y-102897819D01*
X130880303Y-102875272D01*
X130945817Y-102842613D01*
X130981841Y-102823520D01*
X131134832Y-102740800D01*
X131317088Y-102864075D01*
X131410125Y-102927228D01*
X131511985Y-102996727D01*
X131607438Y-103062165D01*
X131655250Y-103095117D01*
X131722495Y-103140273D01*
X131779436Y-103176057D01*
X131818646Y-103197938D01*
X131831381Y-103202563D01*
X131849917Y-103190085D01*
X131890941Y-103155252D01*
X131950475Y-103101678D01*
X132024542Y-103032983D01*
X132109165Y-102952781D01*
X132162685Y-102901286D01*
X132256319Y-102809286D01*
X132337241Y-102726999D01*
X132402177Y-102657945D01*
X132447858Y-102605644D01*
X132471011Y-102573616D01*
X132473232Y-102567116D01*
X132462924Y-102542394D01*
X132434439Y-102492405D01*
X132390937Y-102422212D01*
X132335577Y-102336875D01*
X132271520Y-102241456D01*
X132253303Y-102214854D01*
X132186927Y-102118167D01*
X132127378Y-102031117D01*
X132077984Y-101958595D01*
X132042075Y-101905493D01*
X132022981Y-101876703D01*
X132021136Y-101873726D01*
X132023895Y-101850782D01*
X132038538Y-101800336D01*
X132062513Y-101729041D01*
X132093266Y-101643547D01*
X132128244Y-101550507D01*
X132164893Y-101456574D01*
X132200661Y-101368399D01*
X132232994Y-101292634D01*
X132259338Y-101235931D01*
X132277142Y-101204943D01*
X132278407Y-101203457D01*
X132289294Y-101194601D01*
X132307682Y-101185843D01*
X132337606Y-101176277D01*
X132383103Y-101164996D01*
X132448209Y-101151093D01*
X132536961Y-101133663D01*
X132653393Y-101111798D01*
X132801542Y-101084591D01*
X132833618Y-101078741D01*
X132928686Y-101060374D01*
X133011565Y-101042405D01*
X133074930Y-101026569D01*
X133111458Y-101014600D01*
X133116356Y-101011810D01*
X133124427Y-100987072D01*
X133130987Y-100931790D01*
X133136033Y-100852389D01*
X133139559Y-100755296D01*
X133141561Y-100646938D01*
X133142036Y-100533740D01*
X133140977Y-100422128D01*
X133138382Y-100318529D01*
X133134246Y-100229368D01*
X133128563Y-100161072D01*
X133121331Y-100120066D01*
X133116971Y-100111674D01*
X133092698Y-100103208D01*
X133037426Y-100089435D01*
X132956662Y-100071550D01*
X132855912Y-100050748D01*
X132740683Y-100028223D01*
X132677902Y-100016418D01*
X132558787Y-99994151D01*
X132452565Y-99973979D01*
X132364427Y-99956915D01*
X132299566Y-99943969D01*
X132263174Y-99936155D01*
X132257184Y-99934422D01*
X132247061Y-99914890D01*
X132225662Y-99867843D01*
X132195839Y-99800003D01*
X132160445Y-99718091D01*
X132122332Y-99628828D01*
X132084353Y-99538935D01*
X132049360Y-99455135D01*
X132020206Y-99384147D01*
X131999743Y-99332694D01*
X131990823Y-99307497D01*
X131990657Y-99306396D01*
X132000769Y-99286519D01*
X132029117Y-99240777D01*
X132072723Y-99173717D01*
X132128606Y-99089884D01*
X132193787Y-98993826D01*
X132231679Y-98938650D01*
X132300725Y-98837481D01*
X132362050Y-98745630D01*
X132412663Y-98667744D01*
X132449571Y-98608469D01*
X132469782Y-98572451D01*
X132472701Y-98564377D01*
X132460153Y-98545584D01*
X132425463Y-98505457D01*
X132373063Y-98448493D01*
X132307384Y-98379185D01*
X132232856Y-98302031D01*
X132153913Y-98221525D01*
X132074983Y-98142163D01*
X132000500Y-98068440D01*
X131934894Y-98004852D01*
X131882596Y-97955894D01*
X131848039Y-97926061D01*
X131836478Y-97918942D01*
X131817654Y-97928953D01*
X131772631Y-97957078D01*
X131705787Y-98000454D01*
X131621499Y-98056218D01*
X131524144Y-98121506D01*
X131450707Y-98171246D01*
X131079667Y-98423551D01*
X130461095Y-98168555D01*
X130377275Y-97723931D01*
X130293454Y-97279307D01*
X129368006Y-97279307D01*
X129284186Y-97723931D01*
G37*
X129284186Y-97723931D02*
X129200365Y-98168555D01*
X128891080Y-98296053D01*
X128581794Y-98423551D01*
X128210754Y-98171246D01*
X128106843Y-98100996D01*
X128012913Y-98038272D01*
X127933348Y-97985938D01*
X127872530Y-97946857D01*
X127834843Y-97923893D01*
X127824579Y-97918942D01*
X127806090Y-97931676D01*
X127766580Y-97966882D01*
X127710478Y-98020062D01*
X127642213Y-98086718D01*
X127566214Y-98162354D01*
X127486908Y-98242472D01*
X127408725Y-98322574D01*
X127336093Y-98398164D01*
X127273441Y-98464745D01*
X127225197Y-98517818D01*
X127195790Y-98552887D01*
X127188759Y-98564623D01*
X127198877Y-98586260D01*
X127227241Y-98633662D01*
X127270871Y-98702193D01*
X127326782Y-98787215D01*
X127391994Y-98884093D01*
X127429781Y-98939350D01*
X127498657Y-99040248D01*
X127559860Y-99131299D01*
X127610422Y-99207970D01*
X127647372Y-99265728D01*
X127667742Y-99300043D01*
X127670803Y-99307254D01*
X127663864Y-99327748D01*
X127644949Y-99375513D01*
X127616913Y-99443832D01*
X127582609Y-99525989D01*
X127544891Y-99615270D01*
X127506613Y-99704958D01*
X127470630Y-99788338D01*
X127439794Y-99858694D01*
X127416961Y-99909310D01*
X127404983Y-99933471D01*
X127404276Y-99934422D01*
X127385469Y-99939036D01*
X127335382Y-99949328D01*
X127259207Y-99964287D01*
X127162135Y-99982901D01*
X127049357Y-100004159D01*
X126983558Y-100016418D01*
X126863050Y-100039362D01*
X126754203Y-100061195D01*
X126662524Y-100080722D01*
X126593519Y-100096748D01*
X126552696Y-100108079D01*
X126544489Y-100111674D01*
X126536452Y-100136006D01*
X126529967Y-100190959D01*
X126525030Y-100270108D01*
X126521636Y-100367026D01*
X126519782Y-100475287D01*
X126519462Y-100588465D01*
X126520673Y-100700135D01*
X126523410Y-100803868D01*
X126527669Y-100893241D01*
X126533445Y-100961826D01*
X126540733Y-101003197D01*
X126545105Y-101011810D01*
X126571236Y-101022133D01*
X126626607Y-101036892D01*
X126703893Y-101054352D01*
X126795770Y-101072780D01*
X126827842Y-101078741D01*
X126982476Y-101107066D01*
X127104625Y-101129876D01*
X127198327Y-101148080D01*
X127267616Y-101162583D01*
X127316529Y-101174292D01*
X127349103Y-101184115D01*
X127369372Y-101192956D01*
X127381374Y-101201724D01*
X127383053Y-101203457D01*
X127399816Y-101231371D01*
X127425386Y-101285695D01*
X127457212Y-101359777D01*
X127492740Y-101446965D01*
X127529417Y-101540608D01*
X127564689Y-101634052D01*
X127596004Y-101720647D01*
X127620807Y-101793740D01*
X127636546Y-101846678D01*
X127640668Y-101872811D01*
X127640324Y-101873726D01*
X127626359Y-101895086D01*
X127594678Y-101942084D01*
X127548609Y-102009827D01*
X127491482Y-102093423D01*
X127426627Y-102187982D01*
X127408157Y-102214854D01*
X127342301Y-102312275D01*
X127284350Y-102401163D01*
X127237462Y-102476412D01*
X127204793Y-102532920D01*
X127189500Y-102565581D01*
X127188759Y-102569593D01*
X127201608Y-102590684D01*
X127237112Y-102632464D01*
X127290707Y-102690445D01*
X127357829Y-102760135D01*
X127433913Y-102837045D01*
X127514396Y-102916683D01*
X127594713Y-102994561D01*
X127670301Y-103066186D01*
X127736595Y-103127070D01*
X127789031Y-103172721D01*
X127823045Y-103198650D01*
X127832455Y-103202883D01*
X127854357Y-103192912D01*
X127899200Y-103166020D01*
X127959679Y-103126736D01*
X128006211Y-103095117D01*
X128090525Y-103037098D01*
X128190374Y-102968784D01*
X128290527Y-102900579D01*
X128344373Y-102864075D01*
X128526629Y-102740800D01*
X128679619Y-102823520D01*
X128749318Y-102859759D01*
X128808586Y-102887926D01*
X128848689Y-102903991D01*
X128858897Y-102906226D01*
X128871171Y-102889722D01*
X128895387Y-102843082D01*
X128929737Y-102770609D01*
X128972412Y-102676606D01*
X129021606Y-102565374D01*
X129075510Y-102441215D01*
X129132316Y-102308432D01*
X129190218Y-102171327D01*
X129247407Y-102034202D01*
X129302076Y-101901358D01*
X129352416Y-101777098D01*
X129396620Y-101665725D01*
X129432881Y-101571539D01*
X129459391Y-101498844D01*
X129474342Y-101451941D01*
X129476746Y-101435833D01*
X129457689Y-101415286D01*
X129415964Y-101381933D01*
X129360294Y-101342702D01*
X129355622Y-101339599D01*
X129211736Y-101224423D01*
X129095717Y-101090053D01*
X129008570Y-100940784D01*
X128951301Y-100780913D01*
X128924914Y-100614737D01*
X128930415Y-100446552D01*
X128968810Y-100280655D01*
X129041105Y-100121342D01*
X129062374Y-100086487D01*
X129173004Y-99945737D01*
X129303698Y-99832714D01*
X129449936Y-99748003D01*
X129607192Y-99692194D01*
X129770943Y-99665874D01*
X129936667Y-99669630D01*
X130099838Y-99704050D01*
X130255935Y-99769723D01*
X130400433Y-99867235D01*
X130445131Y-99906813D01*
X130558888Y-100030703D01*
X130641782Y-100161124D01*
X130698644Y-100307315D01*
X130730313Y-100452088D01*
X130738131Y-100614860D01*
X130712062Y-100778440D01*
X130654755Y-100937298D01*
X130568856Y-101085906D01*
X130457014Y-101218735D01*
X130321877Y-101330256D01*
X130304117Y-101342011D01*
X130247850Y-101380508D01*
X130205077Y-101413863D01*
X130184628Y-101435160D01*
X130184331Y-101435833D01*
X130188721Y-101458871D01*
X130206124Y-101511157D01*
X130234732Y-101588390D01*
X130272735Y-101686268D01*
X130318326Y-101800491D01*
X130369697Y-101926758D01*
X130425038Y-102060767D01*
X130482542Y-102198218D01*
X130540399Y-102334808D01*
X130596802Y-102466237D01*
X130649942Y-102588205D01*
X130698010Y-102696409D01*
X130739199Y-102786549D01*
X130771699Y-102854323D01*
X130793703Y-102895430D01*
X130802564Y-102906226D01*
X130829640Y-102897819D01*
X130880303Y-102875272D01*
X130945817Y-102842613D01*
X130981841Y-102823520D01*
X131134832Y-102740800D01*
X131317088Y-102864075D01*
X131410125Y-102927228D01*
X131511985Y-102996727D01*
X131607438Y-103062165D01*
X131655250Y-103095117D01*
X131722495Y-103140273D01*
X131779436Y-103176057D01*
X131818646Y-103197938D01*
X131831381Y-103202563D01*
X131849917Y-103190085D01*
X131890941Y-103155252D01*
X131950475Y-103101678D01*
X132024542Y-103032983D01*
X132109165Y-102952781D01*
X132162685Y-102901286D01*
X132256319Y-102809286D01*
X132337241Y-102726999D01*
X132402177Y-102657945D01*
X132447858Y-102605644D01*
X132471011Y-102573616D01*
X132473232Y-102567116D01*
X132462924Y-102542394D01*
X132434439Y-102492405D01*
X132390937Y-102422212D01*
X132335577Y-102336875D01*
X132271520Y-102241456D01*
X132253303Y-102214854D01*
X132186927Y-102118167D01*
X132127378Y-102031117D01*
X132077984Y-101958595D01*
X132042075Y-101905493D01*
X132022981Y-101876703D01*
X132021136Y-101873726D01*
X132023895Y-101850782D01*
X132038538Y-101800336D01*
X132062513Y-101729041D01*
X132093266Y-101643547D01*
X132128244Y-101550507D01*
X132164893Y-101456574D01*
X132200661Y-101368399D01*
X132232994Y-101292634D01*
X132259338Y-101235931D01*
X132277142Y-101204943D01*
X132278407Y-101203457D01*
X132289294Y-101194601D01*
X132307682Y-101185843D01*
X132337606Y-101176277D01*
X132383103Y-101164996D01*
X132448209Y-101151093D01*
X132536961Y-101133663D01*
X132653393Y-101111798D01*
X132801542Y-101084591D01*
X132833618Y-101078741D01*
X132928686Y-101060374D01*
X133011565Y-101042405D01*
X133074930Y-101026569D01*
X133111458Y-101014600D01*
X133116356Y-101011810D01*
X133124427Y-100987072D01*
X133130987Y-100931790D01*
X133136033Y-100852389D01*
X133139559Y-100755296D01*
X133141561Y-100646938D01*
X133142036Y-100533740D01*
X133140977Y-100422128D01*
X133138382Y-100318529D01*
X133134246Y-100229368D01*
X133128563Y-100161072D01*
X133121331Y-100120066D01*
X133116971Y-100111674D01*
X133092698Y-100103208D01*
X133037426Y-100089435D01*
X132956662Y-100071550D01*
X132855912Y-100050748D01*
X132740683Y-100028223D01*
X132677902Y-100016418D01*
X132558787Y-99994151D01*
X132452565Y-99973979D01*
X132364427Y-99956915D01*
X132299566Y-99943969D01*
X132263174Y-99936155D01*
X132257184Y-99934422D01*
X132247061Y-99914890D01*
X132225662Y-99867843D01*
X132195839Y-99800003D01*
X132160445Y-99718091D01*
X132122332Y-99628828D01*
X132084353Y-99538935D01*
X132049360Y-99455135D01*
X132020206Y-99384147D01*
X131999743Y-99332694D01*
X131990823Y-99307497D01*
X131990657Y-99306396D01*
X132000769Y-99286519D01*
X132029117Y-99240777D01*
X132072723Y-99173717D01*
X132128606Y-99089884D01*
X132193787Y-98993826D01*
X132231679Y-98938650D01*
X132300725Y-98837481D01*
X132362050Y-98745630D01*
X132412663Y-98667744D01*
X132449571Y-98608469D01*
X132469782Y-98572451D01*
X132472701Y-98564377D01*
X132460153Y-98545584D01*
X132425463Y-98505457D01*
X132373063Y-98448493D01*
X132307384Y-98379185D01*
X132232856Y-98302031D01*
X132153913Y-98221525D01*
X132074983Y-98142163D01*
X132000500Y-98068440D01*
X131934894Y-98004852D01*
X131882596Y-97955894D01*
X131848039Y-97926061D01*
X131836478Y-97918942D01*
X131817654Y-97928953D01*
X131772631Y-97957078D01*
X131705787Y-98000454D01*
X131621499Y-98056218D01*
X131524144Y-98121506D01*
X131450707Y-98171246D01*
X131079667Y-98423551D01*
X130461095Y-98168555D01*
X130377275Y-97723931D01*
X130293454Y-97279307D01*
X129368006Y-97279307D01*
X129284186Y-97723931D01*
M02*
