G04 #@! TF.GenerationSoftware,KiCad,Pcbnew,(5.1.5-0-10_14)*
G04 #@! TF.CreationDate,2020-01-18T17:08:02-08:00*
G04 #@! TF.ProjectId,14500,31343530-302e-46b6-9963-61645f706362,rev?*
G04 #@! TF.SameCoordinates,Original*
G04 #@! TF.FileFunction,Legend,Bot*
G04 #@! TF.FilePolarity,Positive*
%FSLAX46Y46*%
G04 Gerber Fmt 4.6, Leading zero omitted, Abs format (unit mm)*
G04 Created by KiCad (PCBNEW (5.1.5-0-10_14)) date 2020-01-18 17:08:02*
%MOMM*%
%LPD*%
G04 APERTURE LIST*
%ADD10C,0.250000*%
%ADD11C,0.150000*%
%ADD12C,0.100000*%
%ADD13C,0.200000*%
%ADD14C,0.300000*%
%ADD15C,0.010000*%
%ADD16C,2.901600*%
%ADD17O,1.801600X1.801600*%
%ADD18R,1.801600X1.801600*%
%ADD19O,1.801600X1.451600*%
%ADD20O,1.601600X1.201600*%
%ADD21C,2.501600*%
G04 APERTURE END LIST*
D10*
X115242857Y-99964285D02*
X112957142Y-99964285D01*
X114100000Y-101107142D02*
X114100000Y-98821428D01*
X70917857Y-100189285D02*
X68632142Y-100189285D01*
D11*
X120134642Y-95378571D02*
X119877500Y-95464285D01*
X119448928Y-95464285D01*
X119277500Y-95378571D01*
X119191785Y-95292857D01*
X119106071Y-95121428D01*
X119106071Y-94950000D01*
X119191785Y-94778571D01*
X119277500Y-94692857D01*
X119448928Y-94607142D01*
X119791785Y-94521428D01*
X119963214Y-94435714D01*
X120048928Y-94350000D01*
X120134642Y-94178571D01*
X120134642Y-94007142D01*
X120048928Y-93835714D01*
X119963214Y-93750000D01*
X119791785Y-93664285D01*
X119363214Y-93664285D01*
X119106071Y-93750000D01*
X118334642Y-95464285D02*
X118334642Y-94264285D01*
X118334642Y-94435714D02*
X118248928Y-94350000D01*
X118077500Y-94264285D01*
X117820357Y-94264285D01*
X117648928Y-94350000D01*
X117563214Y-94521428D01*
X117563214Y-95464285D01*
X117563214Y-94521428D02*
X117477500Y-94350000D01*
X117306071Y-94264285D01*
X117048928Y-94264285D01*
X116877500Y-94350000D01*
X116791785Y-94521428D01*
X116791785Y-95464285D01*
X115163214Y-95464285D02*
X115163214Y-94521428D01*
X115248928Y-94350000D01*
X115420357Y-94264285D01*
X115763214Y-94264285D01*
X115934642Y-94350000D01*
X115163214Y-95378571D02*
X115334642Y-95464285D01*
X115763214Y-95464285D01*
X115934642Y-95378571D01*
X116020357Y-95207142D01*
X116020357Y-95035714D01*
X115934642Y-94864285D01*
X115763214Y-94778571D01*
X115334642Y-94778571D01*
X115163214Y-94692857D01*
X114048928Y-95464285D02*
X114220357Y-95378571D01*
X114306071Y-95207142D01*
X114306071Y-93664285D01*
X113106071Y-95464285D02*
X113277500Y-95378571D01*
X113363214Y-95207142D01*
X113363214Y-93664285D01*
D12*
X85077142Y-107639285D02*
X85105714Y-107667857D01*
X85191428Y-107696428D01*
X85248571Y-107696428D01*
X85334285Y-107667857D01*
X85391428Y-107610714D01*
X85420000Y-107553571D01*
X85448571Y-107439285D01*
X85448571Y-107353571D01*
X85420000Y-107239285D01*
X85391428Y-107182142D01*
X85334285Y-107125000D01*
X85248571Y-107096428D01*
X85191428Y-107096428D01*
X85105714Y-107125000D01*
X85077142Y-107153571D01*
X84534285Y-107696428D02*
X84820000Y-107696428D01*
X84820000Y-107096428D01*
X84334285Y-107696428D02*
X84334285Y-107096428D01*
X83991428Y-107696428D02*
X84248571Y-107353571D01*
X83991428Y-107096428D02*
X84334285Y-107439285D01*
X82634285Y-107696428D02*
X82634285Y-107096428D01*
X82491428Y-107096428D01*
X82405714Y-107125000D01*
X82348571Y-107182142D01*
X82320000Y-107239285D01*
X82291428Y-107353571D01*
X82291428Y-107439285D01*
X82320000Y-107553571D01*
X82348571Y-107610714D01*
X82405714Y-107667857D01*
X82491428Y-107696428D01*
X82634285Y-107696428D01*
X82034285Y-107696428D02*
X82034285Y-107096428D01*
X81634285Y-107096428D02*
X81520000Y-107096428D01*
X81462857Y-107125000D01*
X81405714Y-107182142D01*
X81377142Y-107296428D01*
X81377142Y-107496428D01*
X81405714Y-107610714D01*
X81462857Y-107667857D01*
X81520000Y-107696428D01*
X81634285Y-107696428D01*
X81691428Y-107667857D01*
X81748571Y-107610714D01*
X81777142Y-107496428D01*
X81777142Y-107296428D01*
X81748571Y-107182142D01*
X81691428Y-107125000D01*
X81634285Y-107096428D01*
X77868809Y-107713095D02*
X77775952Y-107744047D01*
X77621190Y-107744047D01*
X77559285Y-107713095D01*
X77528333Y-107682142D01*
X77497380Y-107620238D01*
X77497380Y-107558333D01*
X77528333Y-107496428D01*
X77559285Y-107465476D01*
X77621190Y-107434523D01*
X77745000Y-107403571D01*
X77806904Y-107372619D01*
X77837857Y-107341666D01*
X77868809Y-107279761D01*
X77868809Y-107217857D01*
X77837857Y-107155952D01*
X77806904Y-107125000D01*
X77745000Y-107094047D01*
X77590238Y-107094047D01*
X77497380Y-107125000D01*
X76847380Y-107682142D02*
X76878333Y-107713095D01*
X76971190Y-107744047D01*
X77033095Y-107744047D01*
X77125952Y-107713095D01*
X77187857Y-107651190D01*
X77218809Y-107589285D01*
X77249761Y-107465476D01*
X77249761Y-107372619D01*
X77218809Y-107248809D01*
X77187857Y-107186904D01*
X77125952Y-107125000D01*
X77033095Y-107094047D01*
X76971190Y-107094047D01*
X76878333Y-107125000D01*
X76847380Y-107155952D01*
X76259285Y-107744047D02*
X76568809Y-107744047D01*
X76568809Y-107094047D01*
X80348571Y-107688095D02*
X80262857Y-107719047D01*
X80120000Y-107719047D01*
X80062857Y-107688095D01*
X80034285Y-107657142D01*
X80005714Y-107595238D01*
X80005714Y-107533333D01*
X80034285Y-107471428D01*
X80062857Y-107440476D01*
X80120000Y-107409523D01*
X80234285Y-107378571D01*
X80291428Y-107347619D01*
X80320000Y-107316666D01*
X80348571Y-107254761D01*
X80348571Y-107192857D01*
X80320000Y-107130952D01*
X80291428Y-107100000D01*
X80234285Y-107069047D01*
X80091428Y-107069047D01*
X80005714Y-107100000D01*
X79748571Y-107719047D02*
X79748571Y-107069047D01*
X79605714Y-107069047D01*
X79520000Y-107100000D01*
X79462857Y-107161904D01*
X79434285Y-107223809D01*
X79405714Y-107347619D01*
X79405714Y-107440476D01*
X79434285Y-107564285D01*
X79462857Y-107626190D01*
X79520000Y-107688095D01*
X79605714Y-107719047D01*
X79748571Y-107719047D01*
X79177142Y-107533333D02*
X78891428Y-107533333D01*
X79234285Y-107719047D02*
X79034285Y-107069047D01*
X78834285Y-107719047D01*
X80341428Y-93863095D02*
X80255714Y-93894047D01*
X80112857Y-93894047D01*
X80055714Y-93863095D01*
X80027142Y-93832142D01*
X79998571Y-93770238D01*
X79998571Y-93708333D01*
X80027142Y-93646428D01*
X80055714Y-93615476D01*
X80112857Y-93584523D01*
X80227142Y-93553571D01*
X80284285Y-93522619D01*
X80312857Y-93491666D01*
X80341428Y-93429761D01*
X80341428Y-93367857D01*
X80312857Y-93305952D01*
X80284285Y-93275000D01*
X80227142Y-93244047D01*
X80084285Y-93244047D01*
X79998571Y-93275000D01*
X79398571Y-93832142D02*
X79427142Y-93863095D01*
X79512857Y-93894047D01*
X79570000Y-93894047D01*
X79655714Y-93863095D01*
X79712857Y-93801190D01*
X79741428Y-93739285D01*
X79770000Y-93615476D01*
X79770000Y-93522619D01*
X79741428Y-93398809D01*
X79712857Y-93336904D01*
X79655714Y-93275000D01*
X79570000Y-93244047D01*
X79512857Y-93244047D01*
X79427142Y-93275000D01*
X79398571Y-93305952D01*
X79141428Y-93894047D02*
X79141428Y-93244047D01*
X78798571Y-93894047D02*
X79055714Y-93522619D01*
X78798571Y-93244047D02*
X79141428Y-93615476D01*
X83112857Y-93894047D02*
X83112857Y-93244047D01*
X82912857Y-93708333D01*
X82712857Y-93244047D01*
X82712857Y-93894047D01*
X82427142Y-93894047D02*
X82427142Y-93244047D01*
X82170000Y-93863095D02*
X82084285Y-93894047D01*
X81941428Y-93894047D01*
X81884285Y-93863095D01*
X81855714Y-93832142D01*
X81827142Y-93770238D01*
X81827142Y-93708333D01*
X81855714Y-93646428D01*
X81884285Y-93615476D01*
X81941428Y-93584523D01*
X82055714Y-93553571D01*
X82112857Y-93522619D01*
X82141428Y-93491666D01*
X82170000Y-93429761D01*
X82170000Y-93367857D01*
X82141428Y-93305952D01*
X82112857Y-93275000D01*
X82055714Y-93244047D01*
X81912857Y-93244047D01*
X81827142Y-93275000D01*
X81455714Y-93244047D02*
X81341428Y-93244047D01*
X81284285Y-93275000D01*
X81227142Y-93336904D01*
X81198571Y-93460714D01*
X81198571Y-93677380D01*
X81227142Y-93801190D01*
X81284285Y-93863095D01*
X81341428Y-93894047D01*
X81455714Y-93894047D01*
X81512857Y-93863095D01*
X81570000Y-93801190D01*
X81598571Y-93677380D01*
X81598571Y-93460714D01*
X81570000Y-93336904D01*
X81512857Y-93275000D01*
X81455714Y-93244047D01*
X85687857Y-93894047D02*
X85687857Y-93244047D01*
X85487857Y-93708333D01*
X85287857Y-93244047D01*
X85287857Y-93894047D01*
X84887857Y-93244047D02*
X84773571Y-93244047D01*
X84716428Y-93275000D01*
X84659285Y-93336904D01*
X84630714Y-93460714D01*
X84630714Y-93677380D01*
X84659285Y-93801190D01*
X84716428Y-93863095D01*
X84773571Y-93894047D01*
X84887857Y-93894047D01*
X84945000Y-93863095D01*
X85002142Y-93801190D01*
X85030714Y-93677380D01*
X85030714Y-93460714D01*
X85002142Y-93336904D01*
X84945000Y-93275000D01*
X84887857Y-93244047D01*
X84402142Y-93863095D02*
X84316428Y-93894047D01*
X84173571Y-93894047D01*
X84116428Y-93863095D01*
X84087857Y-93832142D01*
X84059285Y-93770238D01*
X84059285Y-93708333D01*
X84087857Y-93646428D01*
X84116428Y-93615476D01*
X84173571Y-93584523D01*
X84287857Y-93553571D01*
X84345000Y-93522619D01*
X84373571Y-93491666D01*
X84402142Y-93429761D01*
X84402142Y-93367857D01*
X84373571Y-93305952D01*
X84345000Y-93275000D01*
X84287857Y-93244047D01*
X84145000Y-93244047D01*
X84059285Y-93275000D01*
X83802142Y-93894047D02*
X83802142Y-93244047D01*
X90265238Y-107069047D02*
X89893809Y-107069047D01*
X90079523Y-107719047D02*
X90079523Y-107069047D01*
X89739047Y-107069047D02*
X89305714Y-107719047D01*
X89305714Y-107069047D02*
X89739047Y-107719047D01*
X92428333Y-107719047D02*
X92645000Y-107409523D01*
X92799761Y-107719047D02*
X92799761Y-107069047D01*
X92552142Y-107069047D01*
X92490238Y-107100000D01*
X92459285Y-107130952D01*
X92428333Y-107192857D01*
X92428333Y-107285714D01*
X92459285Y-107347619D01*
X92490238Y-107378571D01*
X92552142Y-107409523D01*
X92799761Y-107409523D01*
X92211666Y-107069047D02*
X91778333Y-107719047D01*
X91778333Y-107069047D02*
X92211666Y-107719047D01*
X93070000Y-95717857D02*
X93103333Y-95753571D01*
X93203333Y-95789285D01*
X93270000Y-95789285D01*
X93370000Y-95753571D01*
X93436666Y-95682142D01*
X93470000Y-95610714D01*
X93503333Y-95467857D01*
X93503333Y-95360714D01*
X93470000Y-95217857D01*
X93436666Y-95146428D01*
X93370000Y-95075000D01*
X93270000Y-95039285D01*
X93203333Y-95039285D01*
X93103333Y-95075000D01*
X93070000Y-95110714D01*
X92470000Y-95789285D02*
X92470000Y-95396428D01*
X92503333Y-95325000D01*
X92570000Y-95289285D01*
X92703333Y-95289285D01*
X92770000Y-95325000D01*
X92470000Y-95753571D02*
X92536666Y-95789285D01*
X92703333Y-95789285D01*
X92770000Y-95753571D01*
X92803333Y-95682142D01*
X92803333Y-95610714D01*
X92770000Y-95539285D01*
X92703333Y-95503571D01*
X92536666Y-95503571D01*
X92470000Y-95467857D01*
X92236666Y-95289285D02*
X91970000Y-95289285D01*
X92136666Y-95039285D02*
X92136666Y-95682142D01*
X92103333Y-95753571D01*
X92036666Y-95789285D01*
X91970000Y-95789285D01*
X91736666Y-95789285D02*
X91736666Y-95039285D01*
X91436666Y-95789285D02*
X91436666Y-95396428D01*
X91470000Y-95325000D01*
X91536666Y-95289285D01*
X91636666Y-95289285D01*
X91703333Y-95325000D01*
X91736666Y-95360714D01*
X91003333Y-95789285D02*
X91070000Y-95753571D01*
X91103333Y-95717857D01*
X91136666Y-95646428D01*
X91136666Y-95432142D01*
X91103333Y-95360714D01*
X91070000Y-95325000D01*
X91003333Y-95289285D01*
X90903333Y-95289285D01*
X90836666Y-95325000D01*
X90803333Y-95360714D01*
X90770000Y-95432142D01*
X90770000Y-95646428D01*
X90803333Y-95717857D01*
X90836666Y-95753571D01*
X90903333Y-95789285D01*
X91003333Y-95789285D01*
X90170000Y-95789285D02*
X90170000Y-95039285D01*
X90170000Y-95753571D02*
X90236666Y-95789285D01*
X90370000Y-95789285D01*
X90436666Y-95753571D01*
X90470000Y-95717857D01*
X90503333Y-95646428D01*
X90503333Y-95432142D01*
X90470000Y-95360714D01*
X90436666Y-95325000D01*
X90370000Y-95289285D01*
X90236666Y-95289285D01*
X90170000Y-95325000D01*
X89570000Y-95753571D02*
X89636666Y-95789285D01*
X89770000Y-95789285D01*
X89836666Y-95753571D01*
X89870000Y-95682142D01*
X89870000Y-95396428D01*
X89836666Y-95325000D01*
X89770000Y-95289285D01*
X89636666Y-95289285D01*
X89570000Y-95325000D01*
X89536666Y-95396428D01*
X89536666Y-95467857D01*
X89870000Y-95539285D01*
X89170000Y-94250000D02*
X103570000Y-94250000D01*
X89170000Y-96600000D02*
X89170000Y-94250000D01*
X103570000Y-96600000D02*
X89170000Y-96600000D01*
X103570000Y-94250000D02*
X103570000Y-96600000D01*
X95175952Y-104119047D02*
X95392619Y-103809523D01*
X95547380Y-104119047D02*
X95547380Y-103469047D01*
X95299761Y-103469047D01*
X95237857Y-103500000D01*
X95206904Y-103530952D01*
X95175952Y-103592857D01*
X95175952Y-103685714D01*
X95206904Y-103747619D01*
X95237857Y-103778571D01*
X95299761Y-103809523D01*
X95547380Y-103809523D01*
X94928333Y-104088095D02*
X94835476Y-104119047D01*
X94680714Y-104119047D01*
X94618809Y-104088095D01*
X94587857Y-104057142D01*
X94556904Y-103995238D01*
X94556904Y-103933333D01*
X94587857Y-103871428D01*
X94618809Y-103840476D01*
X94680714Y-103809523D01*
X94804523Y-103778571D01*
X94866428Y-103747619D01*
X94897380Y-103716666D01*
X94928333Y-103654761D01*
X94928333Y-103592857D01*
X94897380Y-103530952D01*
X94866428Y-103500000D01*
X94804523Y-103469047D01*
X94649761Y-103469047D01*
X94556904Y-103500000D01*
X94371190Y-103469047D02*
X93999761Y-103469047D01*
X94185476Y-104119047D02*
X94185476Y-103469047D01*
X93124761Y-104119047D02*
X93124761Y-103469047D01*
X92877142Y-103469047D01*
X92815238Y-103500000D01*
X92784285Y-103530952D01*
X92753333Y-103592857D01*
X92753333Y-103685714D01*
X92784285Y-103747619D01*
X92815238Y-103778571D01*
X92877142Y-103809523D01*
X93124761Y-103809523D01*
X92258095Y-103778571D02*
X92165238Y-103809523D01*
X92134285Y-103840476D01*
X92103333Y-103902380D01*
X92103333Y-103995238D01*
X92134285Y-104057142D01*
X92165238Y-104088095D01*
X92227142Y-104119047D01*
X92474761Y-104119047D01*
X92474761Y-103469047D01*
X92258095Y-103469047D01*
X92196190Y-103500000D01*
X92165238Y-103530952D01*
X92134285Y-103592857D01*
X92134285Y-103654761D01*
X92165238Y-103716666D01*
X92196190Y-103747619D01*
X92258095Y-103778571D01*
X92474761Y-103778571D01*
X91886666Y-103469047D02*
X91453333Y-103469047D01*
X91731904Y-104119047D01*
X90574761Y-104119047D02*
X90574761Y-103469047D01*
X90327142Y-103469047D01*
X90265238Y-103500000D01*
X90234285Y-103530952D01*
X90203333Y-103592857D01*
X90203333Y-103685714D01*
X90234285Y-103747619D01*
X90265238Y-103778571D01*
X90327142Y-103809523D01*
X90574761Y-103809523D01*
X89708095Y-103778571D02*
X89615238Y-103809523D01*
X89584285Y-103840476D01*
X89553333Y-103902380D01*
X89553333Y-103995238D01*
X89584285Y-104057142D01*
X89615238Y-104088095D01*
X89677142Y-104119047D01*
X89924761Y-104119047D01*
X89924761Y-103469047D01*
X89708095Y-103469047D01*
X89646190Y-103500000D01*
X89615238Y-103530952D01*
X89584285Y-103592857D01*
X89584285Y-103654761D01*
X89615238Y-103716666D01*
X89646190Y-103747619D01*
X89708095Y-103778571D01*
X89924761Y-103778571D01*
X88996190Y-103469047D02*
X89120000Y-103469047D01*
X89181904Y-103500000D01*
X89212857Y-103530952D01*
X89274761Y-103623809D01*
X89305714Y-103747619D01*
X89305714Y-103995238D01*
X89274761Y-104057142D01*
X89243809Y-104088095D01*
X89181904Y-104119047D01*
X89058095Y-104119047D01*
X88996190Y-104088095D01*
X88965238Y-104057142D01*
X88934285Y-103995238D01*
X88934285Y-103840476D01*
X88965238Y-103778571D01*
X88996190Y-103747619D01*
X89058095Y-103716666D01*
X89181904Y-103716666D01*
X89243809Y-103747619D01*
X89274761Y-103778571D01*
X89305714Y-103840476D01*
X137044523Y-96861904D02*
X137044523Y-96328571D01*
X137044523Y-96480952D02*
X137006428Y-96404761D01*
X136968333Y-96366666D01*
X136892142Y-96328571D01*
X136815952Y-96328571D01*
X136244523Y-96823809D02*
X136320714Y-96861904D01*
X136473095Y-96861904D01*
X136549285Y-96823809D01*
X136587380Y-96747619D01*
X136587380Y-96442857D01*
X136549285Y-96366666D01*
X136473095Y-96328571D01*
X136320714Y-96328571D01*
X136244523Y-96366666D01*
X136206428Y-96442857D01*
X136206428Y-96519047D01*
X136587380Y-96595238D01*
X135939761Y-96328571D02*
X135749285Y-96861904D01*
X135558809Y-96328571D01*
X134225476Y-96861904D02*
X134682619Y-96861904D01*
X134454047Y-96861904D02*
X134454047Y-96061904D01*
X134530238Y-96176190D01*
X134606428Y-96252380D01*
X134682619Y-96290476D01*
X133539761Y-96861904D02*
X133539761Y-96442857D01*
X133577857Y-96366666D01*
X133654047Y-96328571D01*
X133806428Y-96328571D01*
X133882619Y-96366666D01*
X133539761Y-96823809D02*
X133615952Y-96861904D01*
X133806428Y-96861904D01*
X133882619Y-96823809D01*
X133920714Y-96747619D01*
X133920714Y-96671428D01*
X133882619Y-96595238D01*
X133806428Y-96557142D01*
X133615952Y-96557142D01*
X133539761Y-96519047D01*
X133196904Y-96138095D02*
X133158809Y-96100000D01*
X133082619Y-96061904D01*
X132892142Y-96061904D01*
X132815952Y-96100000D01*
X132777857Y-96138095D01*
X132739761Y-96214285D01*
X132739761Y-96290476D01*
X132777857Y-96404761D01*
X133235000Y-96861904D01*
X132739761Y-96861904D01*
X137087380Y-104910714D02*
X137125476Y-104948809D01*
X137239761Y-104986904D01*
X137315952Y-104986904D01*
X137430238Y-104948809D01*
X137506428Y-104872619D01*
X137544523Y-104796428D01*
X137582619Y-104644047D01*
X137582619Y-104529761D01*
X137544523Y-104377380D01*
X137506428Y-104301190D01*
X137430238Y-104225000D01*
X137315952Y-104186904D01*
X137239761Y-104186904D01*
X137125476Y-104225000D01*
X137087380Y-104263095D01*
X136744523Y-104986904D02*
X136744523Y-104453571D01*
X136744523Y-104605952D02*
X136706428Y-104529761D01*
X136668333Y-104491666D01*
X136592142Y-104453571D01*
X136515952Y-104453571D01*
X135944523Y-104948809D02*
X136020714Y-104986904D01*
X136173095Y-104986904D01*
X136249285Y-104948809D01*
X136287380Y-104872619D01*
X136287380Y-104567857D01*
X136249285Y-104491666D01*
X136173095Y-104453571D01*
X136020714Y-104453571D01*
X135944523Y-104491666D01*
X135906428Y-104567857D01*
X135906428Y-104644047D01*
X136287380Y-104720238D01*
X135220714Y-104986904D02*
X135220714Y-104567857D01*
X135258809Y-104491666D01*
X135335000Y-104453571D01*
X135487380Y-104453571D01*
X135563571Y-104491666D01*
X135220714Y-104948809D02*
X135296904Y-104986904D01*
X135487380Y-104986904D01*
X135563571Y-104948809D01*
X135601666Y-104872619D01*
X135601666Y-104796428D01*
X135563571Y-104720238D01*
X135487380Y-104682142D01*
X135296904Y-104682142D01*
X135220714Y-104644047D01*
X134954047Y-104453571D02*
X134649285Y-104453571D01*
X134839761Y-104186904D02*
X134839761Y-104872619D01*
X134801666Y-104948809D01*
X134725476Y-104986904D01*
X134649285Y-104986904D01*
X134077857Y-104948809D02*
X134154047Y-104986904D01*
X134306428Y-104986904D01*
X134382619Y-104948809D01*
X134420714Y-104872619D01*
X134420714Y-104567857D01*
X134382619Y-104491666D01*
X134306428Y-104453571D01*
X134154047Y-104453571D01*
X134077857Y-104491666D01*
X134039761Y-104567857D01*
X134039761Y-104644047D01*
X134420714Y-104720238D01*
X133354047Y-104986904D02*
X133354047Y-104186904D01*
X133354047Y-104948809D02*
X133430238Y-104986904D01*
X133582619Y-104986904D01*
X133658809Y-104948809D01*
X133696904Y-104910714D01*
X133735000Y-104834523D01*
X133735000Y-104605952D01*
X133696904Y-104529761D01*
X133658809Y-104491666D01*
X133582619Y-104453571D01*
X133430238Y-104453571D01*
X133354047Y-104491666D01*
X132363571Y-104986904D02*
X132363571Y-104186904D01*
X132363571Y-104491666D02*
X132287380Y-104453571D01*
X132135000Y-104453571D01*
X132058809Y-104491666D01*
X132020714Y-104529761D01*
X131982619Y-104605952D01*
X131982619Y-104834523D01*
X132020714Y-104910714D01*
X132058809Y-104948809D01*
X132135000Y-104986904D01*
X132287380Y-104986904D01*
X132363571Y-104948809D01*
X131715952Y-104453571D02*
X131525476Y-104986904D01*
X131335000Y-104453571D02*
X131525476Y-104986904D01*
X131601666Y-105177380D01*
X131639761Y-105215476D01*
X131715952Y-105253571D01*
X130192142Y-104186904D02*
X130192142Y-104758333D01*
X130230238Y-104872619D01*
X130306428Y-104948809D01*
X130420714Y-104986904D01*
X130496904Y-104986904D01*
X129506428Y-104948809D02*
X129582619Y-104986904D01*
X129735000Y-104986904D01*
X129811190Y-104948809D01*
X129849285Y-104872619D01*
X129849285Y-104567857D01*
X129811190Y-104491666D01*
X129735000Y-104453571D01*
X129582619Y-104453571D01*
X129506428Y-104491666D01*
X129468333Y-104567857D01*
X129468333Y-104644047D01*
X129849285Y-104720238D01*
X129125476Y-104986904D02*
X129125476Y-104453571D01*
X129125476Y-104605952D02*
X129087380Y-104529761D01*
X129049285Y-104491666D01*
X128973095Y-104453571D01*
X128896904Y-104453571D01*
X128325476Y-104948809D02*
X128401666Y-104986904D01*
X128554047Y-104986904D01*
X128630238Y-104948809D01*
X128668333Y-104872619D01*
X128668333Y-104567857D01*
X128630238Y-104491666D01*
X128554047Y-104453571D01*
X128401666Y-104453571D01*
X128325476Y-104491666D01*
X128287380Y-104567857D01*
X128287380Y-104644047D01*
X128668333Y-104720238D01*
X127944523Y-104986904D02*
X127944523Y-104453571D01*
X127944523Y-104529761D02*
X127906428Y-104491666D01*
X127830238Y-104453571D01*
X127715952Y-104453571D01*
X127639761Y-104491666D01*
X127601666Y-104567857D01*
X127601666Y-104986904D01*
X127601666Y-104567857D02*
X127563571Y-104491666D01*
X127487380Y-104453571D01*
X127373095Y-104453571D01*
X127296904Y-104491666D01*
X127258809Y-104567857D01*
X127258809Y-104986904D01*
X126954047Y-104453571D02*
X126763571Y-104986904D01*
X126573095Y-104453571D02*
X126763571Y-104986904D01*
X126839761Y-105177380D01*
X126877857Y-105215476D01*
X126954047Y-105253571D01*
X125239761Y-104225000D02*
X125315952Y-104186904D01*
X125430238Y-104186904D01*
X125544523Y-104225000D01*
X125620714Y-104301190D01*
X125658809Y-104377380D01*
X125696904Y-104529761D01*
X125696904Y-104644047D01*
X125658809Y-104796428D01*
X125620714Y-104872619D01*
X125544523Y-104948809D01*
X125430238Y-104986904D01*
X125354047Y-104986904D01*
X125239761Y-104948809D01*
X125201666Y-104910714D01*
X125201666Y-104644047D01*
X125354047Y-104644047D01*
X124858809Y-104986904D02*
X124858809Y-104453571D01*
X124858809Y-104186904D02*
X124896904Y-104225000D01*
X124858809Y-104263095D01*
X124820714Y-104225000D01*
X124858809Y-104186904D01*
X124858809Y-104263095D01*
X124363571Y-104986904D02*
X124439761Y-104948809D01*
X124477857Y-104872619D01*
X124477857Y-104186904D01*
X123944523Y-104986904D02*
X124020714Y-104948809D01*
X124058809Y-104872619D01*
X124058809Y-104186904D01*
X123639761Y-104986904D02*
X123639761Y-104453571D01*
X123639761Y-104186904D02*
X123677857Y-104225000D01*
X123639761Y-104263095D01*
X123601666Y-104225000D01*
X123639761Y-104186904D01*
X123639761Y-104263095D01*
X122915952Y-104948809D02*
X122992142Y-104986904D01*
X123144523Y-104986904D01*
X123220714Y-104948809D01*
X123258809Y-104910714D01*
X123296904Y-104834523D01*
X123296904Y-104605952D01*
X123258809Y-104529761D01*
X123220714Y-104491666D01*
X123144523Y-104453571D01*
X122992142Y-104453571D01*
X122915952Y-104491666D01*
X122573095Y-104986904D02*
X122573095Y-104186904D01*
X122496904Y-104682142D02*
X122268333Y-104986904D01*
X122268333Y-104453571D02*
X122573095Y-104758333D01*
X137544523Y-106286904D02*
X137544523Y-105486904D01*
X137201666Y-106286904D02*
X137201666Y-105867857D01*
X137239761Y-105791666D01*
X137315952Y-105753571D01*
X137430238Y-105753571D01*
X137506428Y-105791666D01*
X137544523Y-105829761D01*
X136935000Y-105753571D02*
X136630238Y-105753571D01*
X136820714Y-105486904D02*
X136820714Y-106172619D01*
X136782619Y-106248809D01*
X136706428Y-106286904D01*
X136630238Y-106286904D01*
X136477857Y-105753571D02*
X136173095Y-105753571D01*
X136363571Y-105486904D02*
X136363571Y-106172619D01*
X136325476Y-106248809D01*
X136249285Y-106286904D01*
X136173095Y-106286904D01*
X135906428Y-105753571D02*
X135906428Y-106553571D01*
X135906428Y-105791666D02*
X135830238Y-105753571D01*
X135677857Y-105753571D01*
X135601666Y-105791666D01*
X135563571Y-105829761D01*
X135525476Y-105905952D01*
X135525476Y-106134523D01*
X135563571Y-106210714D01*
X135601666Y-106248809D01*
X135677857Y-106286904D01*
X135830238Y-106286904D01*
X135906428Y-106248809D01*
X135220714Y-106248809D02*
X135144523Y-106286904D01*
X134992142Y-106286904D01*
X134915952Y-106248809D01*
X134877857Y-106172619D01*
X134877857Y-106134523D01*
X134915952Y-106058333D01*
X134992142Y-106020238D01*
X135106428Y-106020238D01*
X135182619Y-105982142D01*
X135220714Y-105905952D01*
X135220714Y-105867857D01*
X135182619Y-105791666D01*
X135106428Y-105753571D01*
X134992142Y-105753571D01*
X134915952Y-105791666D01*
X134535000Y-106210714D02*
X134496904Y-106248809D01*
X134535000Y-106286904D01*
X134573095Y-106248809D01*
X134535000Y-106210714D01*
X134535000Y-106286904D01*
X134535000Y-105791666D02*
X134496904Y-105829761D01*
X134535000Y-105867857D01*
X134573095Y-105829761D01*
X134535000Y-105791666D01*
X134535000Y-105867857D01*
X133582619Y-105448809D02*
X134268333Y-106477380D01*
X132744523Y-105448809D02*
X133430238Y-106477380D01*
X132135000Y-105753571D02*
X132135000Y-106401190D01*
X132173095Y-106477380D01*
X132211190Y-106515476D01*
X132287380Y-106553571D01*
X132401666Y-106553571D01*
X132477857Y-106515476D01*
X132135000Y-106248809D02*
X132211190Y-106286904D01*
X132363571Y-106286904D01*
X132439761Y-106248809D01*
X132477857Y-106210714D01*
X132515952Y-106134523D01*
X132515952Y-105905952D01*
X132477857Y-105829761D01*
X132439761Y-105791666D01*
X132363571Y-105753571D01*
X132211190Y-105753571D01*
X132135000Y-105791666D01*
X131754047Y-106286904D02*
X131754047Y-105753571D01*
X131754047Y-105486904D02*
X131792142Y-105525000D01*
X131754047Y-105563095D01*
X131715952Y-105525000D01*
X131754047Y-105486904D01*
X131754047Y-105563095D01*
X131487380Y-105753571D02*
X131182619Y-105753571D01*
X131373095Y-105486904D02*
X131373095Y-106172619D01*
X131335000Y-106248809D01*
X131258809Y-106286904D01*
X131182619Y-106286904D01*
X130915952Y-106286904D02*
X130915952Y-105486904D01*
X130573095Y-106286904D02*
X130573095Y-105867857D01*
X130611190Y-105791666D01*
X130687380Y-105753571D01*
X130801666Y-105753571D01*
X130877857Y-105791666D01*
X130915952Y-105829761D01*
X129849285Y-105753571D02*
X129849285Y-106286904D01*
X130192142Y-105753571D02*
X130192142Y-106172619D01*
X130154047Y-106248809D01*
X130077857Y-106286904D01*
X129963571Y-106286904D01*
X129887380Y-106248809D01*
X129849285Y-106210714D01*
X129468333Y-106286904D02*
X129468333Y-105486904D01*
X129468333Y-105791666D02*
X129392142Y-105753571D01*
X129239761Y-105753571D01*
X129163571Y-105791666D01*
X129125476Y-105829761D01*
X129087380Y-105905952D01*
X129087380Y-106134523D01*
X129125476Y-106210714D01*
X129163571Y-106248809D01*
X129239761Y-106286904D01*
X129392142Y-106286904D01*
X129468333Y-106248809D01*
X128744523Y-106210714D02*
X128706428Y-106248809D01*
X128744523Y-106286904D01*
X128782619Y-106248809D01*
X128744523Y-106210714D01*
X128744523Y-106286904D01*
X128020714Y-106248809D02*
X128096904Y-106286904D01*
X128249285Y-106286904D01*
X128325476Y-106248809D01*
X128363571Y-106210714D01*
X128401666Y-106134523D01*
X128401666Y-105905952D01*
X128363571Y-105829761D01*
X128325476Y-105791666D01*
X128249285Y-105753571D01*
X128096904Y-105753571D01*
X128020714Y-105791666D01*
X127563571Y-106286904D02*
X127639761Y-106248809D01*
X127677857Y-106210714D01*
X127715952Y-106134523D01*
X127715952Y-105905952D01*
X127677857Y-105829761D01*
X127639761Y-105791666D01*
X127563571Y-105753571D01*
X127449285Y-105753571D01*
X127373095Y-105791666D01*
X127335000Y-105829761D01*
X127296904Y-105905952D01*
X127296904Y-106134523D01*
X127335000Y-106210714D01*
X127373095Y-106248809D01*
X127449285Y-106286904D01*
X127563571Y-106286904D01*
X126954047Y-106286904D02*
X126954047Y-105753571D01*
X126954047Y-105829761D02*
X126915952Y-105791666D01*
X126839761Y-105753571D01*
X126725476Y-105753571D01*
X126649285Y-105791666D01*
X126611190Y-105867857D01*
X126611190Y-106286904D01*
X126611190Y-105867857D02*
X126573095Y-105791666D01*
X126496904Y-105753571D01*
X126382619Y-105753571D01*
X126306428Y-105791666D01*
X126268333Y-105867857D01*
X126268333Y-106286904D01*
X125315952Y-105448809D02*
X126001666Y-106477380D01*
X125049285Y-105753571D02*
X125049285Y-106439285D01*
X125087380Y-106515476D01*
X125163571Y-106553571D01*
X125201666Y-106553571D01*
X125049285Y-105486904D02*
X125087380Y-105525000D01*
X125049285Y-105563095D01*
X125011190Y-105525000D01*
X125049285Y-105486904D01*
X125049285Y-105563095D01*
X124325476Y-105753571D02*
X124325476Y-106401190D01*
X124363571Y-106477380D01*
X124401666Y-106515476D01*
X124477857Y-106553571D01*
X124592142Y-106553571D01*
X124668333Y-106515476D01*
X124325476Y-106248809D02*
X124401666Y-106286904D01*
X124554047Y-106286904D01*
X124630238Y-106248809D01*
X124668333Y-106210714D01*
X124706428Y-106134523D01*
X124706428Y-105905952D01*
X124668333Y-105829761D01*
X124630238Y-105791666D01*
X124554047Y-105753571D01*
X124401666Y-105753571D01*
X124325476Y-105791666D01*
X123944523Y-106286904D02*
X123944523Y-105753571D01*
X123944523Y-105486904D02*
X123982619Y-105525000D01*
X123944523Y-105563095D01*
X123906428Y-105525000D01*
X123944523Y-105486904D01*
X123944523Y-105563095D01*
X123449285Y-106286904D02*
X123525476Y-106248809D01*
X123563571Y-106172619D01*
X123563571Y-105486904D01*
X123030238Y-106286904D02*
X123106428Y-106248809D01*
X123144523Y-106172619D01*
X123144523Y-105486904D01*
X122725476Y-106286904D02*
X122725476Y-105753571D01*
X122725476Y-105486904D02*
X122763571Y-105525000D01*
X122725476Y-105563095D01*
X122687380Y-105525000D01*
X122725476Y-105486904D01*
X122725476Y-105563095D01*
X122001666Y-106248809D02*
X122077857Y-106286904D01*
X122230238Y-106286904D01*
X122306428Y-106248809D01*
X122344523Y-106210714D01*
X122382619Y-106134523D01*
X122382619Y-105905952D01*
X122344523Y-105829761D01*
X122306428Y-105791666D01*
X122230238Y-105753571D01*
X122077857Y-105753571D01*
X122001666Y-105791666D01*
X121658809Y-106286904D02*
X121658809Y-105486904D01*
X121582619Y-105982142D02*
X121354047Y-106286904D01*
X121354047Y-105753571D02*
X121658809Y-106058333D01*
X120439761Y-105448809D02*
X121125476Y-106477380D01*
X120287380Y-105486904D02*
X119830238Y-105486904D01*
X120058809Y-106286904D02*
X120058809Y-105486904D01*
X119563571Y-106286904D02*
X119563571Y-105486904D01*
X119220714Y-106286904D02*
X119220714Y-105867857D01*
X119258809Y-105791666D01*
X119335000Y-105753571D01*
X119449285Y-105753571D01*
X119525476Y-105791666D01*
X119563571Y-105829761D01*
X118496904Y-105753571D02*
X118496904Y-106286904D01*
X118839761Y-105753571D02*
X118839761Y-106172619D01*
X118801666Y-106248809D01*
X118725476Y-106286904D01*
X118611190Y-106286904D01*
X118535000Y-106248809D01*
X118496904Y-106210714D01*
X118115952Y-105753571D02*
X118115952Y-106286904D01*
X118115952Y-105829761D02*
X118077857Y-105791666D01*
X118001666Y-105753571D01*
X117887380Y-105753571D01*
X117811190Y-105791666D01*
X117773095Y-105867857D01*
X117773095Y-106286904D01*
X117049285Y-106286904D02*
X117049285Y-105486904D01*
X117049285Y-106248809D02*
X117125476Y-106286904D01*
X117277857Y-106286904D01*
X117354047Y-106248809D01*
X117392142Y-106210714D01*
X117430238Y-106134523D01*
X117430238Y-105905952D01*
X117392142Y-105829761D01*
X117354047Y-105791666D01*
X117277857Y-105753571D01*
X117125476Y-105753571D01*
X117049285Y-105791666D01*
X116363571Y-106248809D02*
X116439761Y-106286904D01*
X116592142Y-106286904D01*
X116668333Y-106248809D01*
X116706428Y-106172619D01*
X116706428Y-105867857D01*
X116668333Y-105791666D01*
X116592142Y-105753571D01*
X116439761Y-105753571D01*
X116363571Y-105791666D01*
X116325476Y-105867857D01*
X116325476Y-105944047D01*
X116706428Y-106020238D01*
X115982619Y-106286904D02*
X115982619Y-105753571D01*
X115982619Y-105905952D02*
X115944523Y-105829761D01*
X115906428Y-105791666D01*
X115830238Y-105753571D01*
X115754047Y-105753571D01*
X115487380Y-106286904D02*
X115487380Y-105486904D01*
X115182619Y-105486904D01*
X115106428Y-105525000D01*
X115068333Y-105563095D01*
X115030238Y-105639285D01*
X115030238Y-105753571D01*
X115068333Y-105829761D01*
X115106428Y-105867857D01*
X115182619Y-105905952D01*
X115487380Y-105905952D01*
X114344523Y-106286904D02*
X114344523Y-105867857D01*
X114382619Y-105791666D01*
X114458809Y-105753571D01*
X114611190Y-105753571D01*
X114687380Y-105791666D01*
X114344523Y-106248809D02*
X114420714Y-106286904D01*
X114611190Y-106286904D01*
X114687380Y-106248809D01*
X114725476Y-106172619D01*
X114725476Y-106096428D01*
X114687380Y-106020238D01*
X114611190Y-105982142D01*
X114420714Y-105982142D01*
X114344523Y-105944047D01*
X113620714Y-106248809D02*
X113696904Y-106286904D01*
X113849285Y-106286904D01*
X113925476Y-106248809D01*
X113963571Y-106210714D01*
X114001666Y-106134523D01*
X114001666Y-105905952D01*
X113963571Y-105829761D01*
X113925476Y-105791666D01*
X113849285Y-105753571D01*
X113696904Y-105753571D01*
X113620714Y-105791666D01*
X113277857Y-106286904D02*
X113277857Y-105486904D01*
X113201666Y-105982142D02*
X112973095Y-106286904D01*
X112973095Y-105753571D02*
X113277857Y-106058333D01*
X97828571Y-93933333D02*
X97864285Y-93900000D01*
X97935714Y-93800000D01*
X97971428Y-93733333D01*
X98007142Y-93633333D01*
X98042857Y-93466666D01*
X98042857Y-93333333D01*
X98007142Y-93166666D01*
X97971428Y-93066666D01*
X97935714Y-93000000D01*
X97864285Y-92900000D01*
X97828571Y-92866666D01*
X97542857Y-93666666D02*
X97542857Y-93200000D01*
X97542857Y-93266666D02*
X97507142Y-93233333D01*
X97435714Y-93200000D01*
X97328571Y-93200000D01*
X97257142Y-93233333D01*
X97221428Y-93300000D01*
X97221428Y-93666666D01*
X97221428Y-93300000D02*
X97185714Y-93233333D01*
X97114285Y-93200000D01*
X97007142Y-93200000D01*
X96935714Y-93233333D01*
X96900000Y-93300000D01*
X96900000Y-93666666D01*
X96221428Y-93666666D02*
X96221428Y-93300000D01*
X96257142Y-93233333D01*
X96328571Y-93200000D01*
X96471428Y-93200000D01*
X96542857Y-93233333D01*
X96221428Y-93633333D02*
X96292857Y-93666666D01*
X96471428Y-93666666D01*
X96542857Y-93633333D01*
X96578571Y-93566666D01*
X96578571Y-93500000D01*
X96542857Y-93433333D01*
X96471428Y-93400000D01*
X96292857Y-93400000D01*
X96221428Y-93366666D01*
X95935714Y-93666666D02*
X95542857Y-93200000D01*
X95935714Y-93200000D02*
X95542857Y-93666666D01*
X94721428Y-93033333D02*
X94685714Y-93000000D01*
X94614285Y-92966666D01*
X94435714Y-92966666D01*
X94364285Y-93000000D01*
X94328571Y-93033333D01*
X94292857Y-93100000D01*
X94292857Y-93166666D01*
X94328571Y-93266666D01*
X94757142Y-93666666D01*
X94292857Y-93666666D01*
X93971428Y-93600000D02*
X93935714Y-93633333D01*
X93971428Y-93666666D01*
X94007142Y-93633333D01*
X93971428Y-93600000D01*
X93971428Y-93666666D01*
X93685714Y-92966666D02*
X93221428Y-92966666D01*
X93471428Y-93233333D01*
X93364285Y-93233333D01*
X93292857Y-93266666D01*
X93257142Y-93300000D01*
X93221428Y-93366666D01*
X93221428Y-93533333D01*
X93257142Y-93600000D01*
X93292857Y-93633333D01*
X93364285Y-93666666D01*
X93578571Y-93666666D01*
X93650000Y-93633333D01*
X93685714Y-93600000D01*
X92935714Y-93466666D02*
X92578571Y-93466666D01*
X93007142Y-93666666D02*
X92757142Y-92966666D01*
X92507142Y-93666666D01*
X91685714Y-93200000D02*
X91685714Y-93900000D01*
X91685714Y-93233333D02*
X91614285Y-93200000D01*
X91471428Y-93200000D01*
X91400000Y-93233333D01*
X91364285Y-93266666D01*
X91328571Y-93333333D01*
X91328571Y-93533333D01*
X91364285Y-93600000D01*
X91400000Y-93633333D01*
X91471428Y-93666666D01*
X91614285Y-93666666D01*
X91685714Y-93633333D01*
X90721428Y-93633333D02*
X90792857Y-93666666D01*
X90935714Y-93666666D01*
X91007142Y-93633333D01*
X91042857Y-93566666D01*
X91042857Y-93300000D01*
X91007142Y-93233333D01*
X90935714Y-93200000D01*
X90792857Y-93200000D01*
X90721428Y-93233333D01*
X90685714Y-93300000D01*
X90685714Y-93366666D01*
X91042857Y-93433333D01*
X90364285Y-93666666D02*
X90364285Y-93200000D01*
X90364285Y-93333333D02*
X90328571Y-93266666D01*
X90292857Y-93233333D01*
X90221428Y-93200000D01*
X90150000Y-93200000D01*
X89971428Y-93933333D02*
X89935714Y-93900000D01*
X89864285Y-93800000D01*
X89828571Y-93733333D01*
X89792857Y-93633333D01*
X89757142Y-93466666D01*
X89757142Y-93333333D01*
X89792857Y-93166666D01*
X89828571Y-93066666D01*
X89864285Y-93000000D01*
X89935714Y-92900000D01*
X89971428Y-92866666D01*
X87978333Y-97444047D02*
X87978333Y-96794047D01*
X87730714Y-96794047D01*
X87668809Y-96825000D01*
X87637857Y-96855952D01*
X87606904Y-96917857D01*
X87606904Y-97010714D01*
X87637857Y-97072619D01*
X87668809Y-97103571D01*
X87730714Y-97134523D01*
X87978333Y-97134523D01*
X87359285Y-97258333D02*
X87049761Y-97258333D01*
X87421190Y-97444047D02*
X87204523Y-96794047D01*
X86987857Y-97444047D01*
X86678333Y-97072619D02*
X86740238Y-97041666D01*
X86771190Y-97010714D01*
X86802142Y-96948809D01*
X86802142Y-96917857D01*
X86771190Y-96855952D01*
X86740238Y-96825000D01*
X86678333Y-96794047D01*
X86554523Y-96794047D01*
X86492619Y-96825000D01*
X86461666Y-96855952D01*
X86430714Y-96917857D01*
X86430714Y-96948809D01*
X86461666Y-97010714D01*
X86492619Y-97041666D01*
X86554523Y-97072619D01*
X86678333Y-97072619D01*
X86740238Y-97103571D01*
X86771190Y-97134523D01*
X86802142Y-97196428D01*
X86802142Y-97320238D01*
X86771190Y-97382142D01*
X86740238Y-97413095D01*
X86678333Y-97444047D01*
X86554523Y-97444047D01*
X86492619Y-97413095D01*
X86461666Y-97382142D01*
X86430714Y-97320238D01*
X86430714Y-97196428D01*
X86461666Y-97134523D01*
X86492619Y-97103571D01*
X86554523Y-97072619D01*
X85503333Y-97444047D02*
X85503333Y-96794047D01*
X85255714Y-96794047D01*
X85193809Y-96825000D01*
X85162857Y-96855952D01*
X85131904Y-96917857D01*
X85131904Y-97010714D01*
X85162857Y-97072619D01*
X85193809Y-97103571D01*
X85255714Y-97134523D01*
X85503333Y-97134523D01*
X84884285Y-97258333D02*
X84574761Y-97258333D01*
X84946190Y-97444047D02*
X84729523Y-96794047D01*
X84512857Y-97444047D01*
X84358095Y-96794047D02*
X83924761Y-96794047D01*
X84203333Y-97444047D01*
X82928333Y-97444047D02*
X82928333Y-96794047D01*
X82680714Y-96794047D01*
X82618809Y-96825000D01*
X82587857Y-96855952D01*
X82556904Y-96917857D01*
X82556904Y-97010714D01*
X82587857Y-97072619D01*
X82618809Y-97103571D01*
X82680714Y-97134523D01*
X82928333Y-97134523D01*
X82309285Y-97258333D02*
X81999761Y-97258333D01*
X82371190Y-97444047D02*
X82154523Y-96794047D01*
X81937857Y-97444047D01*
X81442619Y-96794047D02*
X81566428Y-96794047D01*
X81628333Y-96825000D01*
X81659285Y-96855952D01*
X81721190Y-96948809D01*
X81752142Y-97072619D01*
X81752142Y-97320238D01*
X81721190Y-97382142D01*
X81690238Y-97413095D01*
X81628333Y-97444047D01*
X81504523Y-97444047D01*
X81442619Y-97413095D01*
X81411666Y-97382142D01*
X81380714Y-97320238D01*
X81380714Y-97165476D01*
X81411666Y-97103571D01*
X81442619Y-97072619D01*
X81504523Y-97041666D01*
X81628333Y-97041666D01*
X81690238Y-97072619D01*
X81721190Y-97103571D01*
X81752142Y-97165476D01*
X80328333Y-97444047D02*
X80328333Y-96794047D01*
X80080714Y-96794047D01*
X80018809Y-96825000D01*
X79987857Y-96855952D01*
X79956904Y-96917857D01*
X79956904Y-97010714D01*
X79987857Y-97072619D01*
X80018809Y-97103571D01*
X80080714Y-97134523D01*
X80328333Y-97134523D01*
X79709285Y-97258333D02*
X79399761Y-97258333D01*
X79771190Y-97444047D02*
X79554523Y-96794047D01*
X79337857Y-97444047D01*
X78811666Y-96794047D02*
X79121190Y-96794047D01*
X79152142Y-97103571D01*
X79121190Y-97072619D01*
X79059285Y-97041666D01*
X78904523Y-97041666D01*
X78842619Y-97072619D01*
X78811666Y-97103571D01*
X78780714Y-97165476D01*
X78780714Y-97320238D01*
X78811666Y-97382142D01*
X78842619Y-97413095D01*
X78904523Y-97444047D01*
X79059285Y-97444047D01*
X79121190Y-97413095D01*
X79152142Y-97382142D01*
X77778333Y-97444047D02*
X77778333Y-96794047D01*
X77530714Y-96794047D01*
X77468809Y-96825000D01*
X77437857Y-96855952D01*
X77406904Y-96917857D01*
X77406904Y-97010714D01*
X77437857Y-97072619D01*
X77468809Y-97103571D01*
X77530714Y-97134523D01*
X77778333Y-97134523D01*
X77159285Y-97258333D02*
X76849761Y-97258333D01*
X77221190Y-97444047D02*
X77004523Y-96794047D01*
X76787857Y-97444047D01*
X76292619Y-97010714D02*
X76292619Y-97444047D01*
X76447380Y-96763095D02*
X76602142Y-97227380D01*
X76199761Y-97227380D01*
X88024761Y-104144047D02*
X88024761Y-103494047D01*
X87777142Y-103494047D01*
X87715238Y-103525000D01*
X87684285Y-103555952D01*
X87653333Y-103617857D01*
X87653333Y-103710714D01*
X87684285Y-103772619D01*
X87715238Y-103803571D01*
X87777142Y-103834523D01*
X88024761Y-103834523D01*
X87158095Y-103803571D02*
X87065238Y-103834523D01*
X87034285Y-103865476D01*
X87003333Y-103927380D01*
X87003333Y-104020238D01*
X87034285Y-104082142D01*
X87065238Y-104113095D01*
X87127142Y-104144047D01*
X87374761Y-104144047D01*
X87374761Y-103494047D01*
X87158095Y-103494047D01*
X87096190Y-103525000D01*
X87065238Y-103555952D01*
X87034285Y-103617857D01*
X87034285Y-103679761D01*
X87065238Y-103741666D01*
X87096190Y-103772619D01*
X87158095Y-103803571D01*
X87374761Y-103803571D01*
X86415238Y-103494047D02*
X86724761Y-103494047D01*
X86755714Y-103803571D01*
X86724761Y-103772619D01*
X86662857Y-103741666D01*
X86508095Y-103741666D01*
X86446190Y-103772619D01*
X86415238Y-103803571D01*
X86384285Y-103865476D01*
X86384285Y-104020238D01*
X86415238Y-104082142D01*
X86446190Y-104113095D01*
X86508095Y-104144047D01*
X86662857Y-104144047D01*
X86724761Y-104113095D01*
X86755714Y-104082142D01*
X85680714Y-104144047D02*
X85680714Y-103494047D01*
X85452142Y-103494047D01*
X85395000Y-103525000D01*
X85366428Y-103555952D01*
X85337857Y-103617857D01*
X85337857Y-103710714D01*
X85366428Y-103772619D01*
X85395000Y-103803571D01*
X85452142Y-103834523D01*
X85680714Y-103834523D01*
X85109285Y-103958333D02*
X84823571Y-103958333D01*
X85166428Y-104144047D02*
X84966428Y-103494047D01*
X84766428Y-104144047D01*
X84252142Y-104144047D02*
X84595000Y-104144047D01*
X84423571Y-104144047D02*
X84423571Y-103494047D01*
X84480714Y-103586904D01*
X84537857Y-103648809D01*
X84595000Y-103679761D01*
X83737857Y-103710714D02*
X83737857Y-104144047D01*
X83880714Y-103463095D02*
X84023571Y-103927380D01*
X83652142Y-103927380D01*
X83105714Y-104144047D02*
X83105714Y-103494047D01*
X82877142Y-103494047D01*
X82820000Y-103525000D01*
X82791428Y-103555952D01*
X82762857Y-103617857D01*
X82762857Y-103710714D01*
X82791428Y-103772619D01*
X82820000Y-103803571D01*
X82877142Y-103834523D01*
X83105714Y-103834523D01*
X82534285Y-103958333D02*
X82248571Y-103958333D01*
X82591428Y-104144047D02*
X82391428Y-103494047D01*
X82191428Y-104144047D01*
X81677142Y-104144047D02*
X82020000Y-104144047D01*
X81848571Y-104144047D02*
X81848571Y-103494047D01*
X81905714Y-103586904D01*
X81962857Y-103648809D01*
X82020000Y-103679761D01*
X81477142Y-103494047D02*
X81105714Y-103494047D01*
X81305714Y-103741666D01*
X81220000Y-103741666D01*
X81162857Y-103772619D01*
X81134285Y-103803571D01*
X81105714Y-103865476D01*
X81105714Y-104020238D01*
X81134285Y-104082142D01*
X81162857Y-104113095D01*
X81220000Y-104144047D01*
X81391428Y-104144047D01*
X81448571Y-104113095D01*
X81477142Y-104082142D01*
X80605714Y-104119047D02*
X80605714Y-103469047D01*
X80377142Y-103469047D01*
X80320000Y-103500000D01*
X80291428Y-103530952D01*
X80262857Y-103592857D01*
X80262857Y-103685714D01*
X80291428Y-103747619D01*
X80320000Y-103778571D01*
X80377142Y-103809523D01*
X80605714Y-103809523D01*
X80034285Y-103933333D02*
X79748571Y-103933333D01*
X80091428Y-104119047D02*
X79891428Y-103469047D01*
X79691428Y-104119047D01*
X79177142Y-104119047D02*
X79520000Y-104119047D01*
X79348571Y-104119047D02*
X79348571Y-103469047D01*
X79405714Y-103561904D01*
X79462857Y-103623809D01*
X79520000Y-103654761D01*
X78805714Y-103469047D02*
X78748571Y-103469047D01*
X78691428Y-103500000D01*
X78662857Y-103530952D01*
X78634285Y-103592857D01*
X78605714Y-103716666D01*
X78605714Y-103871428D01*
X78634285Y-103995238D01*
X78662857Y-104057142D01*
X78691428Y-104088095D01*
X78748571Y-104119047D01*
X78805714Y-104119047D01*
X78862857Y-104088095D01*
X78891428Y-104057142D01*
X78920000Y-103995238D01*
X78948571Y-103871428D01*
X78948571Y-103716666D01*
X78920000Y-103592857D01*
X78891428Y-103530952D01*
X78862857Y-103500000D01*
X78805714Y-103469047D01*
X77853333Y-104144047D02*
X77853333Y-103494047D01*
X77605714Y-103494047D01*
X77543809Y-103525000D01*
X77512857Y-103555952D01*
X77481904Y-103617857D01*
X77481904Y-103710714D01*
X77512857Y-103772619D01*
X77543809Y-103803571D01*
X77605714Y-103834523D01*
X77853333Y-103834523D01*
X77234285Y-103958333D02*
X76924761Y-103958333D01*
X77296190Y-104144047D02*
X77079523Y-103494047D01*
X76862857Y-104144047D01*
X76615238Y-104144047D02*
X76491428Y-104144047D01*
X76429523Y-104113095D01*
X76398571Y-104082142D01*
X76336666Y-103989285D01*
X76305714Y-103865476D01*
X76305714Y-103617857D01*
X76336666Y-103555952D01*
X76367619Y-103525000D01*
X76429523Y-103494047D01*
X76553333Y-103494047D01*
X76615238Y-103525000D01*
X76646190Y-103555952D01*
X76677142Y-103617857D01*
X76677142Y-103772619D01*
X76646190Y-103834523D01*
X76615238Y-103865476D01*
X76553333Y-103896428D01*
X76429523Y-103896428D01*
X76367619Y-103865476D01*
X76336666Y-103834523D01*
X76305714Y-103772619D01*
X95478333Y-97519047D02*
X95478333Y-96869047D01*
X95230714Y-96869047D01*
X95168809Y-96900000D01*
X95137857Y-96930952D01*
X95106904Y-96992857D01*
X95106904Y-97085714D01*
X95137857Y-97147619D01*
X95168809Y-97178571D01*
X95230714Y-97209523D01*
X95478333Y-97209523D01*
X94859285Y-97333333D02*
X94549761Y-97333333D01*
X94921190Y-97519047D02*
X94704523Y-96869047D01*
X94487857Y-97519047D01*
X94333095Y-96869047D02*
X93930714Y-96869047D01*
X94147380Y-97116666D01*
X94054523Y-97116666D01*
X93992619Y-97147619D01*
X93961666Y-97178571D01*
X93930714Y-97240476D01*
X93930714Y-97395238D01*
X93961666Y-97457142D01*
X93992619Y-97488095D01*
X94054523Y-97519047D01*
X94240238Y-97519047D01*
X94302142Y-97488095D01*
X94333095Y-97457142D01*
X98028333Y-97519047D02*
X98028333Y-96869047D01*
X97780714Y-96869047D01*
X97718809Y-96900000D01*
X97687857Y-96930952D01*
X97656904Y-96992857D01*
X97656904Y-97085714D01*
X97687857Y-97147619D01*
X97718809Y-97178571D01*
X97780714Y-97209523D01*
X98028333Y-97209523D01*
X97409285Y-97333333D02*
X97099761Y-97333333D01*
X97471190Y-97519047D02*
X97254523Y-96869047D01*
X97037857Y-97519047D01*
X96852142Y-96930952D02*
X96821190Y-96900000D01*
X96759285Y-96869047D01*
X96604523Y-96869047D01*
X96542619Y-96900000D01*
X96511666Y-96930952D01*
X96480714Y-96992857D01*
X96480714Y-97054761D01*
X96511666Y-97147619D01*
X96883095Y-97519047D01*
X96480714Y-97519047D01*
X100578333Y-97519047D02*
X100578333Y-96869047D01*
X100330714Y-96869047D01*
X100268809Y-96900000D01*
X100237857Y-96930952D01*
X100206904Y-96992857D01*
X100206904Y-97085714D01*
X100237857Y-97147619D01*
X100268809Y-97178571D01*
X100330714Y-97209523D01*
X100578333Y-97209523D01*
X99959285Y-97333333D02*
X99649761Y-97333333D01*
X100021190Y-97519047D02*
X99804523Y-96869047D01*
X99587857Y-97519047D01*
X99030714Y-97519047D02*
X99402142Y-97519047D01*
X99216428Y-97519047D02*
X99216428Y-96869047D01*
X99278333Y-96961904D01*
X99340238Y-97023809D01*
X99402142Y-97054761D01*
X103128333Y-97544047D02*
X103128333Y-96894047D01*
X102880714Y-96894047D01*
X102818809Y-96925000D01*
X102787857Y-96955952D01*
X102756904Y-97017857D01*
X102756904Y-97110714D01*
X102787857Y-97172619D01*
X102818809Y-97203571D01*
X102880714Y-97234523D01*
X103128333Y-97234523D01*
X102509285Y-97358333D02*
X102199761Y-97358333D01*
X102571190Y-97544047D02*
X102354523Y-96894047D01*
X102137857Y-97544047D01*
X101797380Y-96894047D02*
X101735476Y-96894047D01*
X101673571Y-96925000D01*
X101642619Y-96955952D01*
X101611666Y-97017857D01*
X101580714Y-97141666D01*
X101580714Y-97296428D01*
X101611666Y-97420238D01*
X101642619Y-97482142D01*
X101673571Y-97513095D01*
X101735476Y-97544047D01*
X101797380Y-97544047D01*
X101859285Y-97513095D01*
X101890238Y-97482142D01*
X101921190Y-97420238D01*
X101952142Y-97296428D01*
X101952142Y-97141666D01*
X101921190Y-97017857D01*
X101890238Y-96955952D01*
X101859285Y-96925000D01*
X101797380Y-96894047D01*
X106141428Y-97128571D02*
X106048571Y-97159523D01*
X106017619Y-97190476D01*
X105986666Y-97252380D01*
X105986666Y-97345238D01*
X106017619Y-97407142D01*
X106048571Y-97438095D01*
X106110476Y-97469047D01*
X106358095Y-97469047D01*
X106358095Y-96819047D01*
X106141428Y-96819047D01*
X106079523Y-96850000D01*
X106048571Y-96880952D01*
X106017619Y-96942857D01*
X106017619Y-97004761D01*
X106048571Y-97066666D01*
X106079523Y-97097619D01*
X106141428Y-97128571D01*
X106358095Y-97128571D01*
X105429523Y-97469047D02*
X105429523Y-97128571D01*
X105460476Y-97066666D01*
X105522380Y-97035714D01*
X105646190Y-97035714D01*
X105708095Y-97066666D01*
X105429523Y-97438095D02*
X105491428Y-97469047D01*
X105646190Y-97469047D01*
X105708095Y-97438095D01*
X105739047Y-97376190D01*
X105739047Y-97314285D01*
X105708095Y-97252380D01*
X105646190Y-97221428D01*
X105491428Y-97221428D01*
X105429523Y-97190476D01*
X105212857Y-97035714D02*
X104965238Y-97035714D01*
X105120000Y-96819047D02*
X105120000Y-97376190D01*
X105089047Y-97438095D01*
X105027142Y-97469047D01*
X104965238Y-97469047D01*
X104841428Y-97035714D02*
X104593809Y-97035714D01*
X104748571Y-96819047D02*
X104748571Y-97376190D01*
X104717619Y-97438095D01*
X104655714Y-97469047D01*
X104593809Y-97469047D01*
X104377142Y-97221428D02*
X103881904Y-97221428D01*
X104129523Y-97469047D02*
X104129523Y-96973809D01*
D13*
X101317619Y-93877380D02*
X101793809Y-93877380D01*
X101793809Y-92877380D01*
X100984285Y-93353571D02*
X100650952Y-93353571D01*
X100508095Y-93877380D02*
X100984285Y-93877380D01*
X100984285Y-92877380D01*
X100508095Y-92877380D01*
X100079523Y-93877380D02*
X100079523Y-92877380D01*
X99841428Y-92877380D01*
X99698571Y-92925000D01*
X99603333Y-93020238D01*
X99555714Y-93115476D01*
X99508095Y-93305952D01*
X99508095Y-93448809D01*
X99555714Y-93639285D01*
X99603333Y-93734523D01*
X99698571Y-93829761D01*
X99841428Y-93877380D01*
X100079523Y-93877380D01*
X99127142Y-93829761D02*
X99031904Y-93877380D01*
X98841428Y-93877380D01*
X98746190Y-93829761D01*
X98698571Y-93734523D01*
X98698571Y-93686904D01*
X98746190Y-93591666D01*
X98841428Y-93544047D01*
X98984285Y-93544047D01*
X99079523Y-93496428D01*
X99127142Y-93401190D01*
X99127142Y-93353571D01*
X99079523Y-93258333D01*
X98984285Y-93210714D01*
X98841428Y-93210714D01*
X98746190Y-93258333D01*
D12*
X108135476Y-103519047D02*
X107918809Y-104169047D01*
X107702142Y-103519047D01*
X107485476Y-104169047D02*
X107485476Y-103735714D01*
X107485476Y-103519047D02*
X107516428Y-103550000D01*
X107485476Y-103580952D01*
X107454523Y-103550000D01*
X107485476Y-103519047D01*
X107485476Y-103580952D01*
X107175952Y-103735714D02*
X107175952Y-104169047D01*
X107175952Y-103797619D02*
X107145000Y-103766666D01*
X107083095Y-103735714D01*
X106990238Y-103735714D01*
X106928333Y-103766666D01*
X106897380Y-103828571D01*
X106897380Y-104169047D01*
X105823571Y-103544047D02*
X105421190Y-103544047D01*
X105637857Y-103791666D01*
X105545000Y-103791666D01*
X105483095Y-103822619D01*
X105452142Y-103853571D01*
X105421190Y-103915476D01*
X105421190Y-104070238D01*
X105452142Y-104132142D01*
X105483095Y-104163095D01*
X105545000Y-104194047D01*
X105730714Y-104194047D01*
X105792619Y-104163095D01*
X105823571Y-104132142D01*
X105142619Y-104132142D02*
X105111666Y-104163095D01*
X105142619Y-104194047D01*
X105173571Y-104163095D01*
X105142619Y-104132142D01*
X105142619Y-104194047D01*
X104895000Y-103544047D02*
X104492619Y-103544047D01*
X104709285Y-103791666D01*
X104616428Y-103791666D01*
X104554523Y-103822619D01*
X104523571Y-103853571D01*
X104492619Y-103915476D01*
X104492619Y-104070238D01*
X104523571Y-104132142D01*
X104554523Y-104163095D01*
X104616428Y-104194047D01*
X104802142Y-104194047D01*
X104864047Y-104163095D01*
X104895000Y-104132142D01*
X104275952Y-103760714D02*
X104121190Y-104194047D01*
X103966428Y-103760714D01*
X103392619Y-103544047D02*
X103392619Y-104070238D01*
X103361666Y-104132142D01*
X103330714Y-104163095D01*
X103268809Y-104194047D01*
X103145000Y-104194047D01*
X103083095Y-104163095D01*
X103052142Y-104132142D01*
X103021190Y-104070238D01*
X103021190Y-103544047D01*
X102742619Y-104163095D02*
X102649761Y-104194047D01*
X102495000Y-104194047D01*
X102433095Y-104163095D01*
X102402142Y-104132142D01*
X102371190Y-104070238D01*
X102371190Y-104008333D01*
X102402142Y-103946428D01*
X102433095Y-103915476D01*
X102495000Y-103884523D01*
X102618809Y-103853571D01*
X102680714Y-103822619D01*
X102711666Y-103791666D01*
X102742619Y-103729761D01*
X102742619Y-103667857D01*
X102711666Y-103605952D01*
X102680714Y-103575000D01*
X102618809Y-103544047D01*
X102464047Y-103544047D01*
X102371190Y-103575000D01*
X101875952Y-103853571D02*
X101783095Y-103884523D01*
X101752142Y-103915476D01*
X101721190Y-103977380D01*
X101721190Y-104070238D01*
X101752142Y-104132142D01*
X101783095Y-104163095D01*
X101845000Y-104194047D01*
X102092619Y-104194047D01*
X102092619Y-103544047D01*
X101875952Y-103544047D01*
X101814047Y-103575000D01*
X101783095Y-103605952D01*
X101752142Y-103667857D01*
X101752142Y-103729761D01*
X101783095Y-103791666D01*
X101814047Y-103822619D01*
X101875952Y-103853571D01*
X102092619Y-103853571D01*
X101442619Y-103946428D02*
X100947380Y-103946428D01*
X101195000Y-104194047D02*
X101195000Y-103698809D01*
X100237857Y-103575000D02*
X100299761Y-103544047D01*
X100392619Y-103544047D01*
X100485476Y-103575000D01*
X100547380Y-103636904D01*
X100578333Y-103698809D01*
X100609285Y-103822619D01*
X100609285Y-103915476D01*
X100578333Y-104039285D01*
X100547380Y-104101190D01*
X100485476Y-104163095D01*
X100392619Y-104194047D01*
X100330714Y-104194047D01*
X100237857Y-104163095D01*
X100206904Y-104132142D01*
X100206904Y-103915476D01*
X100330714Y-103915476D01*
X99928333Y-103760714D02*
X99928333Y-104194047D01*
X99928333Y-103822619D02*
X99897380Y-103791666D01*
X99835476Y-103760714D01*
X99742619Y-103760714D01*
X99680714Y-103791666D01*
X99649761Y-103853571D01*
X99649761Y-104194047D01*
X99061666Y-104194047D02*
X99061666Y-103544047D01*
X99061666Y-104163095D02*
X99123571Y-104194047D01*
X99247380Y-104194047D01*
X99309285Y-104163095D01*
X99340238Y-104132142D01*
X99371190Y-104070238D01*
X99371190Y-103884523D01*
X99340238Y-103822619D01*
X99309285Y-103791666D01*
X99247380Y-103760714D01*
X99123571Y-103760714D01*
X99061666Y-103791666D01*
D13*
X105596190Y-102827380D02*
X105596190Y-101827380D01*
X105215238Y-101827380D01*
X105120000Y-101875000D01*
X105072380Y-101922619D01*
X105024761Y-102017857D01*
X105024761Y-102160714D01*
X105072380Y-102255952D01*
X105120000Y-102303571D01*
X105215238Y-102351190D01*
X105596190Y-102351190D01*
X104453333Y-102827380D02*
X104548571Y-102779761D01*
X104596190Y-102732142D01*
X104643809Y-102636904D01*
X104643809Y-102351190D01*
X104596190Y-102255952D01*
X104548571Y-102208333D01*
X104453333Y-102160714D01*
X104310476Y-102160714D01*
X104215238Y-102208333D01*
X104167619Y-102255952D01*
X104120000Y-102351190D01*
X104120000Y-102636904D01*
X104167619Y-102732142D01*
X104215238Y-102779761D01*
X104310476Y-102827380D01*
X104453333Y-102827380D01*
X103786666Y-102160714D02*
X103596190Y-102827380D01*
X103405714Y-102351190D01*
X103215238Y-102827380D01*
X103024761Y-102160714D01*
X102262857Y-102779761D02*
X102358095Y-102827380D01*
X102548571Y-102827380D01*
X102643809Y-102779761D01*
X102691428Y-102684523D01*
X102691428Y-102303571D01*
X102643809Y-102208333D01*
X102548571Y-102160714D01*
X102358095Y-102160714D01*
X102262857Y-102208333D01*
X102215238Y-102303571D01*
X102215238Y-102398809D01*
X102691428Y-102494047D01*
X101786666Y-102827380D02*
X101786666Y-102160714D01*
X101786666Y-102351190D02*
X101739047Y-102255952D01*
X101691428Y-102208333D01*
X101596190Y-102160714D01*
X101500952Y-102160714D01*
D14*
X137508571Y-93564285D02*
X136480000Y-93564285D01*
X136994285Y-95364285D02*
X136994285Y-93564285D01*
X135880000Y-95364285D02*
X135880000Y-93564285D01*
X135108571Y-95364285D02*
X135108571Y-94421428D01*
X135194285Y-94250000D01*
X135365714Y-94164285D01*
X135622857Y-94164285D01*
X135794285Y-94250000D01*
X135880000Y-94335714D01*
X133480000Y-94164285D02*
X133480000Y-95364285D01*
X134251428Y-94164285D02*
X134251428Y-95107142D01*
X134165714Y-95278571D01*
X133994285Y-95364285D01*
X133737142Y-95364285D01*
X133565714Y-95278571D01*
X133480000Y-95192857D01*
X132622857Y-94164285D02*
X132622857Y-95364285D01*
X132622857Y-94335714D02*
X132537142Y-94250000D01*
X132365714Y-94164285D01*
X132108571Y-94164285D01*
X131937142Y-94250000D01*
X131851428Y-94421428D01*
X131851428Y-95364285D01*
X130222857Y-95364285D02*
X130222857Y-93564285D01*
X130222857Y-95278571D02*
X130394285Y-95364285D01*
X130737142Y-95364285D01*
X130908571Y-95278571D01*
X130994285Y-95192857D01*
X131080000Y-95021428D01*
X131080000Y-94507142D01*
X130994285Y-94335714D01*
X130908571Y-94250000D01*
X130737142Y-94164285D01*
X130394285Y-94164285D01*
X130222857Y-94250000D01*
X128680000Y-95278571D02*
X128851428Y-95364285D01*
X129194285Y-95364285D01*
X129365714Y-95278571D01*
X129451428Y-95107142D01*
X129451428Y-94421428D01*
X129365714Y-94250000D01*
X129194285Y-94164285D01*
X128851428Y-94164285D01*
X128680000Y-94250000D01*
X128594285Y-94421428D01*
X128594285Y-94592857D01*
X129451428Y-94764285D01*
X127822857Y-95364285D02*
X127822857Y-94164285D01*
X127822857Y-94507142D02*
X127737142Y-94335714D01*
X127651428Y-94250000D01*
X127480000Y-94164285D01*
X127308571Y-94164285D01*
X126708571Y-95364285D02*
X126708571Y-93564285D01*
X126022857Y-93564285D01*
X125851428Y-93650000D01*
X125765714Y-93735714D01*
X125680000Y-93907142D01*
X125680000Y-94164285D01*
X125765714Y-94335714D01*
X125851428Y-94421428D01*
X126022857Y-94507142D01*
X126708571Y-94507142D01*
X124137142Y-95364285D02*
X124137142Y-94421428D01*
X124222857Y-94250000D01*
X124394285Y-94164285D01*
X124737142Y-94164285D01*
X124908571Y-94250000D01*
X124137142Y-95278571D02*
X124308571Y-95364285D01*
X124737142Y-95364285D01*
X124908571Y-95278571D01*
X124994285Y-95107142D01*
X124994285Y-94935714D01*
X124908571Y-94764285D01*
X124737142Y-94678571D01*
X124308571Y-94678571D01*
X124137142Y-94592857D01*
X122508571Y-95278571D02*
X122680000Y-95364285D01*
X123022857Y-95364285D01*
X123194285Y-95278571D01*
X123280000Y-95192857D01*
X123365714Y-95021428D01*
X123365714Y-94507142D01*
X123280000Y-94335714D01*
X123194285Y-94250000D01*
X123022857Y-94164285D01*
X122680000Y-94164285D01*
X122508571Y-94250000D01*
X121737142Y-95364285D02*
X121737142Y-93564285D01*
X121565714Y-94678571D02*
X121051428Y-95364285D01*
X121051428Y-94164285D02*
X121737142Y-94850000D01*
D13*
X84875000Y-102500000D02*
X84875000Y-98500000D01*
X98875000Y-102500000D02*
X84875000Y-102500000D01*
X98875000Y-101500000D02*
X98875000Y-102500000D01*
X99875000Y-101500000D02*
X98875000Y-101500000D01*
X99875000Y-99600000D02*
X99875000Y-101500000D01*
X98875000Y-99600000D02*
X99875000Y-99600000D01*
X98875000Y-98500000D02*
X98875000Y-99600000D01*
X84875000Y-98500000D02*
X98875000Y-98500000D01*
D12*
X98119047Y-102100000D02*
X98150000Y-102071428D01*
X98211904Y-101985714D01*
X98242857Y-101928571D01*
X98273809Y-101842857D01*
X98304761Y-101700000D01*
X98304761Y-101585714D01*
X98273809Y-101442857D01*
X98242857Y-101357142D01*
X98211904Y-101300000D01*
X98150000Y-101214285D01*
X98119047Y-101185714D01*
X97500000Y-101814285D02*
X97530952Y-101842857D01*
X97623809Y-101871428D01*
X97685714Y-101871428D01*
X97778571Y-101842857D01*
X97840476Y-101785714D01*
X97871428Y-101728571D01*
X97902380Y-101614285D01*
X97902380Y-101528571D01*
X97871428Y-101414285D01*
X97840476Y-101357142D01*
X97778571Y-101300000D01*
X97685714Y-101271428D01*
X97623809Y-101271428D01*
X97530952Y-101300000D01*
X97500000Y-101328571D01*
X96973809Y-101842857D02*
X97035714Y-101871428D01*
X97159523Y-101871428D01*
X97221428Y-101842857D01*
X97252380Y-101785714D01*
X97252380Y-101557142D01*
X97221428Y-101500000D01*
X97159523Y-101471428D01*
X97035714Y-101471428D01*
X96973809Y-101500000D01*
X96942857Y-101557142D01*
X96942857Y-101614285D01*
X97252380Y-101671428D01*
X96571428Y-101871428D02*
X96633333Y-101842857D01*
X96664285Y-101785714D01*
X96664285Y-101271428D01*
X96230952Y-101871428D02*
X96292857Y-101842857D01*
X96323809Y-101785714D01*
X96323809Y-101271428D01*
X95488095Y-101471428D02*
X95488095Y-102071428D01*
X95488095Y-101500000D02*
X95426190Y-101471428D01*
X95302380Y-101471428D01*
X95240476Y-101500000D01*
X95209523Y-101528571D01*
X95178571Y-101585714D01*
X95178571Y-101757142D01*
X95209523Y-101814285D01*
X95240476Y-101842857D01*
X95302380Y-101871428D01*
X95426190Y-101871428D01*
X95488095Y-101842857D01*
X94900000Y-101871428D02*
X94900000Y-101471428D01*
X94900000Y-101585714D02*
X94869047Y-101528571D01*
X94838095Y-101500000D01*
X94776190Y-101471428D01*
X94714285Y-101471428D01*
X94404761Y-101871428D02*
X94466666Y-101842857D01*
X94497619Y-101814285D01*
X94528571Y-101757142D01*
X94528571Y-101585714D01*
X94497619Y-101528571D01*
X94466666Y-101500000D01*
X94404761Y-101471428D01*
X94311904Y-101471428D01*
X94250000Y-101500000D01*
X94219047Y-101528571D01*
X94188095Y-101585714D01*
X94188095Y-101757142D01*
X94219047Y-101814285D01*
X94250000Y-101842857D01*
X94311904Y-101871428D01*
X94404761Y-101871428D01*
X94002380Y-101471428D02*
X93754761Y-101471428D01*
X93909523Y-101271428D02*
X93909523Y-101785714D01*
X93878571Y-101842857D01*
X93816666Y-101871428D01*
X93754761Y-101871428D01*
X93290476Y-101842857D02*
X93352380Y-101871428D01*
X93476190Y-101871428D01*
X93538095Y-101842857D01*
X93569047Y-101785714D01*
X93569047Y-101557142D01*
X93538095Y-101500000D01*
X93476190Y-101471428D01*
X93352380Y-101471428D01*
X93290476Y-101500000D01*
X93259523Y-101557142D01*
X93259523Y-101614285D01*
X93569047Y-101671428D01*
X92702380Y-101842857D02*
X92764285Y-101871428D01*
X92888095Y-101871428D01*
X92950000Y-101842857D01*
X92980952Y-101814285D01*
X93011904Y-101757142D01*
X93011904Y-101585714D01*
X92980952Y-101528571D01*
X92950000Y-101500000D01*
X92888095Y-101471428D01*
X92764285Y-101471428D01*
X92702380Y-101500000D01*
X92516666Y-101471428D02*
X92269047Y-101471428D01*
X92423809Y-101271428D02*
X92423809Y-101785714D01*
X92392857Y-101842857D01*
X92330952Y-101871428D01*
X92269047Y-101871428D01*
X92052380Y-101871428D02*
X92052380Y-101471428D01*
X92052380Y-101271428D02*
X92083333Y-101300000D01*
X92052380Y-101328571D01*
X92021428Y-101300000D01*
X92052380Y-101271428D01*
X92052380Y-101328571D01*
X91650000Y-101871428D02*
X91711904Y-101842857D01*
X91742857Y-101814285D01*
X91773809Y-101757142D01*
X91773809Y-101585714D01*
X91742857Y-101528571D01*
X91711904Y-101500000D01*
X91650000Y-101471428D01*
X91557142Y-101471428D01*
X91495238Y-101500000D01*
X91464285Y-101528571D01*
X91433333Y-101585714D01*
X91433333Y-101757142D01*
X91464285Y-101814285D01*
X91495238Y-101842857D01*
X91557142Y-101871428D01*
X91650000Y-101871428D01*
X91154761Y-101471428D02*
X91154761Y-101871428D01*
X91154761Y-101528571D02*
X91123809Y-101500000D01*
X91061904Y-101471428D01*
X90969047Y-101471428D01*
X90907142Y-101500000D01*
X90876190Y-101557142D01*
X90876190Y-101871428D01*
X90071428Y-101871428D02*
X90071428Y-101471428D01*
X90071428Y-101585714D02*
X90040476Y-101528571D01*
X90009523Y-101500000D01*
X89947619Y-101471428D01*
X89885714Y-101471428D01*
X89421428Y-101842857D02*
X89483333Y-101871428D01*
X89607142Y-101871428D01*
X89669047Y-101842857D01*
X89700000Y-101785714D01*
X89700000Y-101557142D01*
X89669047Y-101500000D01*
X89607142Y-101471428D01*
X89483333Y-101471428D01*
X89421428Y-101500000D01*
X89390476Y-101557142D01*
X89390476Y-101614285D01*
X89700000Y-101671428D01*
X88833333Y-101471428D02*
X88833333Y-102071428D01*
X88833333Y-101842857D02*
X88895238Y-101871428D01*
X89019047Y-101871428D01*
X89080952Y-101842857D01*
X89111904Y-101814285D01*
X89142857Y-101757142D01*
X89142857Y-101585714D01*
X89111904Y-101528571D01*
X89080952Y-101500000D01*
X89019047Y-101471428D01*
X88895238Y-101471428D01*
X88833333Y-101500000D01*
X88245238Y-101471428D02*
X88245238Y-101871428D01*
X88523809Y-101471428D02*
X88523809Y-101785714D01*
X88492857Y-101842857D01*
X88430952Y-101871428D01*
X88338095Y-101871428D01*
X88276190Y-101842857D01*
X88245238Y-101814285D01*
X87935714Y-101871428D02*
X87935714Y-101471428D01*
X87935714Y-101271428D02*
X87966666Y-101300000D01*
X87935714Y-101328571D01*
X87904761Y-101300000D01*
X87935714Y-101271428D01*
X87935714Y-101328571D01*
X87626190Y-101871428D02*
X87626190Y-101471428D01*
X87626190Y-101585714D02*
X87595238Y-101528571D01*
X87564285Y-101500000D01*
X87502380Y-101471428D01*
X87440476Y-101471428D01*
X86976190Y-101842857D02*
X87038095Y-101871428D01*
X87161904Y-101871428D01*
X87223809Y-101842857D01*
X87254761Y-101785714D01*
X87254761Y-101557142D01*
X87223809Y-101500000D01*
X87161904Y-101471428D01*
X87038095Y-101471428D01*
X86976190Y-101500000D01*
X86945238Y-101557142D01*
X86945238Y-101614285D01*
X87254761Y-101671428D01*
X86388095Y-101871428D02*
X86388095Y-101271428D01*
X86388095Y-101842857D02*
X86450000Y-101871428D01*
X86573809Y-101871428D01*
X86635714Y-101842857D01*
X86666666Y-101814285D01*
X86697619Y-101757142D01*
X86697619Y-101585714D01*
X86666666Y-101528571D01*
X86635714Y-101500000D01*
X86573809Y-101471428D01*
X86450000Y-101471428D01*
X86388095Y-101500000D01*
X86078571Y-101814285D02*
X86047619Y-101842857D01*
X86078571Y-101871428D01*
X86109523Y-101842857D01*
X86078571Y-101814285D01*
X86078571Y-101871428D01*
X86078571Y-101642857D02*
X86109523Y-101300000D01*
X86078571Y-101271428D01*
X86047619Y-101300000D01*
X86078571Y-101642857D01*
X86078571Y-101271428D01*
X85830952Y-102100000D02*
X85800000Y-102071428D01*
X85738095Y-101985714D01*
X85707142Y-101928571D01*
X85676190Y-101842857D01*
X85645238Y-101700000D01*
X85645238Y-101585714D01*
X85676190Y-101442857D01*
X85707142Y-101357142D01*
X85738095Y-101300000D01*
X85800000Y-101214285D01*
X85830952Y-101185714D01*
D11*
X93469047Y-100552380D02*
X94040476Y-100552380D01*
X93754761Y-100552380D02*
X93754761Y-99552380D01*
X93850000Y-99695238D01*
X93945238Y-99790476D01*
X94040476Y-99838095D01*
X92611904Y-99885714D02*
X92611904Y-100552380D01*
X92850000Y-99504761D02*
X93088095Y-100219047D01*
X92469047Y-100219047D01*
X91611904Y-99552380D02*
X92088095Y-99552380D01*
X92135714Y-100028571D01*
X92088095Y-99980952D01*
X91992857Y-99933333D01*
X91754761Y-99933333D01*
X91659523Y-99980952D01*
X91611904Y-100028571D01*
X91564285Y-100123809D01*
X91564285Y-100361904D01*
X91611904Y-100457142D01*
X91659523Y-100504761D01*
X91754761Y-100552380D01*
X91992857Y-100552380D01*
X92088095Y-100504761D01*
X92135714Y-100457142D01*
X90945238Y-99552380D02*
X90850000Y-99552380D01*
X90754761Y-99600000D01*
X90707142Y-99647619D01*
X90659523Y-99742857D01*
X90611904Y-99933333D01*
X90611904Y-100171428D01*
X90659523Y-100361904D01*
X90707142Y-100457142D01*
X90754761Y-100504761D01*
X90850000Y-100552380D01*
X90945238Y-100552380D01*
X91040476Y-100504761D01*
X91088095Y-100457142D01*
X91135714Y-100361904D01*
X91183333Y-100171428D01*
X91183333Y-99933333D01*
X91135714Y-99742857D01*
X91088095Y-99647619D01*
X91040476Y-99600000D01*
X90945238Y-99552380D01*
X89992857Y-99552380D02*
X89897619Y-99552380D01*
X89802380Y-99600000D01*
X89754761Y-99647619D01*
X89707142Y-99742857D01*
X89659523Y-99933333D01*
X89659523Y-100171428D01*
X89707142Y-100361904D01*
X89754761Y-100457142D01*
X89802380Y-100504761D01*
X89897619Y-100552380D01*
X89992857Y-100552380D01*
X90088095Y-100504761D01*
X90135714Y-100457142D01*
X90183333Y-100361904D01*
X90230952Y-100171428D01*
X90230952Y-99933333D01*
X90183333Y-99742857D01*
X90135714Y-99647619D01*
X90088095Y-99600000D01*
X89992857Y-99552380D01*
%LPC*%
D15*
G36*
X127244186Y-97193931D02*
G01*
X127160365Y-97638555D01*
X126851080Y-97766053D01*
X126541794Y-97893551D01*
X126170754Y-97641246D01*
X126066843Y-97570996D01*
X125972913Y-97508272D01*
X125893348Y-97455938D01*
X125832530Y-97416857D01*
X125794843Y-97393893D01*
X125784579Y-97388942D01*
X125766090Y-97401676D01*
X125726580Y-97436882D01*
X125670478Y-97490062D01*
X125602213Y-97556718D01*
X125526214Y-97632354D01*
X125446908Y-97712472D01*
X125368725Y-97792574D01*
X125296093Y-97868164D01*
X125233441Y-97934745D01*
X125185197Y-97987818D01*
X125155790Y-98022887D01*
X125148759Y-98034623D01*
X125158877Y-98056260D01*
X125187241Y-98103662D01*
X125230871Y-98172193D01*
X125286782Y-98257215D01*
X125351994Y-98354093D01*
X125389781Y-98409350D01*
X125458657Y-98510248D01*
X125519860Y-98601299D01*
X125570422Y-98677970D01*
X125607372Y-98735728D01*
X125627742Y-98770043D01*
X125630803Y-98777254D01*
X125623864Y-98797748D01*
X125604949Y-98845513D01*
X125576913Y-98913832D01*
X125542609Y-98995989D01*
X125504891Y-99085270D01*
X125466613Y-99174958D01*
X125430630Y-99258338D01*
X125399794Y-99328694D01*
X125376961Y-99379310D01*
X125364983Y-99403471D01*
X125364276Y-99404422D01*
X125345469Y-99409036D01*
X125295382Y-99419328D01*
X125219207Y-99434287D01*
X125122135Y-99452901D01*
X125009357Y-99474159D01*
X124943558Y-99486418D01*
X124823050Y-99509362D01*
X124714203Y-99531195D01*
X124622524Y-99550722D01*
X124553519Y-99566748D01*
X124512696Y-99578079D01*
X124504489Y-99581674D01*
X124496452Y-99606006D01*
X124489967Y-99660959D01*
X124485030Y-99740108D01*
X124481636Y-99837026D01*
X124479782Y-99945287D01*
X124479462Y-100058465D01*
X124480673Y-100170135D01*
X124483410Y-100273868D01*
X124487669Y-100363241D01*
X124493445Y-100431826D01*
X124500733Y-100473197D01*
X124505105Y-100481810D01*
X124531236Y-100492133D01*
X124586607Y-100506892D01*
X124663893Y-100524352D01*
X124755770Y-100542780D01*
X124787842Y-100548741D01*
X124942476Y-100577066D01*
X125064625Y-100599876D01*
X125158327Y-100618080D01*
X125227616Y-100632583D01*
X125276529Y-100644292D01*
X125309103Y-100654115D01*
X125329372Y-100662956D01*
X125341374Y-100671724D01*
X125343053Y-100673457D01*
X125359816Y-100701371D01*
X125385386Y-100755695D01*
X125417212Y-100829777D01*
X125452740Y-100916965D01*
X125489417Y-101010608D01*
X125524689Y-101104052D01*
X125556004Y-101190647D01*
X125580807Y-101263740D01*
X125596546Y-101316678D01*
X125600668Y-101342811D01*
X125600324Y-101343726D01*
X125586359Y-101365086D01*
X125554678Y-101412084D01*
X125508609Y-101479827D01*
X125451482Y-101563423D01*
X125386627Y-101657982D01*
X125368157Y-101684854D01*
X125302301Y-101782275D01*
X125244350Y-101871163D01*
X125197462Y-101946412D01*
X125164793Y-102002920D01*
X125149500Y-102035581D01*
X125148759Y-102039593D01*
X125161608Y-102060684D01*
X125197112Y-102102464D01*
X125250707Y-102160445D01*
X125317829Y-102230135D01*
X125393913Y-102307045D01*
X125474396Y-102386683D01*
X125554713Y-102464561D01*
X125630301Y-102536186D01*
X125696595Y-102597070D01*
X125749031Y-102642721D01*
X125783045Y-102668650D01*
X125792455Y-102672883D01*
X125814357Y-102662912D01*
X125859200Y-102636020D01*
X125919679Y-102596736D01*
X125966211Y-102565117D01*
X126050525Y-102507098D01*
X126150374Y-102438784D01*
X126250527Y-102370579D01*
X126304373Y-102334075D01*
X126486629Y-102210800D01*
X126639619Y-102293520D01*
X126709318Y-102329759D01*
X126768586Y-102357926D01*
X126808689Y-102373991D01*
X126818897Y-102376226D01*
X126831171Y-102359722D01*
X126855387Y-102313082D01*
X126889737Y-102240609D01*
X126932412Y-102146606D01*
X126981606Y-102035374D01*
X127035510Y-101911215D01*
X127092316Y-101778432D01*
X127150218Y-101641327D01*
X127207407Y-101504202D01*
X127262076Y-101371358D01*
X127312416Y-101247098D01*
X127356620Y-101135725D01*
X127392881Y-101041539D01*
X127419391Y-100968844D01*
X127434342Y-100921941D01*
X127436746Y-100905833D01*
X127417689Y-100885286D01*
X127375964Y-100851933D01*
X127320294Y-100812702D01*
X127315622Y-100809599D01*
X127171736Y-100694423D01*
X127055717Y-100560053D01*
X126968570Y-100410784D01*
X126911301Y-100250913D01*
X126884914Y-100084737D01*
X126890415Y-99916552D01*
X126928810Y-99750655D01*
X127001105Y-99591342D01*
X127022374Y-99556487D01*
X127133004Y-99415737D01*
X127263698Y-99302714D01*
X127409936Y-99218003D01*
X127567192Y-99162194D01*
X127730943Y-99135874D01*
X127896667Y-99139630D01*
X128059838Y-99174050D01*
X128215935Y-99239723D01*
X128360433Y-99337235D01*
X128405131Y-99376813D01*
X128518888Y-99500703D01*
X128601782Y-99631124D01*
X128658644Y-99777315D01*
X128690313Y-99922088D01*
X128698131Y-100084860D01*
X128672062Y-100248440D01*
X128614755Y-100407298D01*
X128528856Y-100555906D01*
X128417014Y-100688735D01*
X128281877Y-100800256D01*
X128264117Y-100812011D01*
X128207850Y-100850508D01*
X128165077Y-100883863D01*
X128144628Y-100905160D01*
X128144331Y-100905833D01*
X128148721Y-100928871D01*
X128166124Y-100981157D01*
X128194732Y-101058390D01*
X128232735Y-101156268D01*
X128278326Y-101270491D01*
X128329697Y-101396758D01*
X128385038Y-101530767D01*
X128442542Y-101668218D01*
X128500399Y-101804808D01*
X128556802Y-101936237D01*
X128609942Y-102058205D01*
X128658010Y-102166409D01*
X128699199Y-102256549D01*
X128731699Y-102324323D01*
X128753703Y-102365430D01*
X128762564Y-102376226D01*
X128789640Y-102367819D01*
X128840303Y-102345272D01*
X128905817Y-102312613D01*
X128941841Y-102293520D01*
X129094832Y-102210800D01*
X129277088Y-102334075D01*
X129370125Y-102397228D01*
X129471985Y-102466727D01*
X129567438Y-102532165D01*
X129615250Y-102565117D01*
X129682495Y-102610273D01*
X129739436Y-102646057D01*
X129778646Y-102667938D01*
X129791381Y-102672563D01*
X129809917Y-102660085D01*
X129850941Y-102625252D01*
X129910475Y-102571678D01*
X129984542Y-102502983D01*
X130069165Y-102422781D01*
X130122685Y-102371286D01*
X130216319Y-102279286D01*
X130297241Y-102196999D01*
X130362177Y-102127945D01*
X130407858Y-102075644D01*
X130431011Y-102043616D01*
X130433232Y-102037116D01*
X130422924Y-102012394D01*
X130394439Y-101962405D01*
X130350937Y-101892212D01*
X130295577Y-101806875D01*
X130231520Y-101711456D01*
X130213303Y-101684854D01*
X130146927Y-101588167D01*
X130087378Y-101501117D01*
X130037984Y-101428595D01*
X130002075Y-101375493D01*
X129982981Y-101346703D01*
X129981136Y-101343726D01*
X129983895Y-101320782D01*
X129998538Y-101270336D01*
X130022513Y-101199041D01*
X130053266Y-101113547D01*
X130088244Y-101020507D01*
X130124893Y-100926574D01*
X130160661Y-100838399D01*
X130192994Y-100762634D01*
X130219338Y-100705931D01*
X130237142Y-100674943D01*
X130238407Y-100673457D01*
X130249294Y-100664601D01*
X130267682Y-100655843D01*
X130297606Y-100646277D01*
X130343103Y-100634996D01*
X130408209Y-100621093D01*
X130496961Y-100603663D01*
X130613393Y-100581798D01*
X130761542Y-100554591D01*
X130793618Y-100548741D01*
X130888686Y-100530374D01*
X130971565Y-100512405D01*
X131034930Y-100496569D01*
X131071458Y-100484600D01*
X131076356Y-100481810D01*
X131084427Y-100457072D01*
X131090987Y-100401790D01*
X131096033Y-100322389D01*
X131099559Y-100225296D01*
X131101561Y-100116938D01*
X131102036Y-100003740D01*
X131100977Y-99892128D01*
X131098382Y-99788529D01*
X131094246Y-99699368D01*
X131088563Y-99631072D01*
X131081331Y-99590066D01*
X131076971Y-99581674D01*
X131052698Y-99573208D01*
X130997426Y-99559435D01*
X130916662Y-99541550D01*
X130815912Y-99520748D01*
X130700683Y-99498223D01*
X130637902Y-99486418D01*
X130518787Y-99464151D01*
X130412565Y-99443979D01*
X130324427Y-99426915D01*
X130259566Y-99413969D01*
X130223174Y-99406155D01*
X130217184Y-99404422D01*
X130207061Y-99384890D01*
X130185662Y-99337843D01*
X130155839Y-99270003D01*
X130120445Y-99188091D01*
X130082332Y-99098828D01*
X130044353Y-99008935D01*
X130009360Y-98925135D01*
X129980206Y-98854147D01*
X129959743Y-98802694D01*
X129950823Y-98777497D01*
X129950657Y-98776396D01*
X129960769Y-98756519D01*
X129989117Y-98710777D01*
X130032723Y-98643717D01*
X130088606Y-98559884D01*
X130153787Y-98463826D01*
X130191679Y-98408650D01*
X130260725Y-98307481D01*
X130322050Y-98215630D01*
X130372663Y-98137744D01*
X130409571Y-98078469D01*
X130429782Y-98042451D01*
X130432701Y-98034377D01*
X130420153Y-98015584D01*
X130385463Y-97975457D01*
X130333063Y-97918493D01*
X130267384Y-97849185D01*
X130192856Y-97772031D01*
X130113913Y-97691525D01*
X130034983Y-97612163D01*
X129960500Y-97538440D01*
X129894894Y-97474852D01*
X129842596Y-97425894D01*
X129808039Y-97396061D01*
X129796478Y-97388942D01*
X129777654Y-97398953D01*
X129732631Y-97427078D01*
X129665787Y-97470454D01*
X129581499Y-97526218D01*
X129484144Y-97591506D01*
X129410707Y-97641246D01*
X129039667Y-97893551D01*
X128421095Y-97638555D01*
X128337275Y-97193931D01*
X128253454Y-96749307D01*
X127328006Y-96749307D01*
X127244186Y-97193931D01*
G37*
X127244186Y-97193931D02*
X127160365Y-97638555D01*
X126851080Y-97766053D01*
X126541794Y-97893551D01*
X126170754Y-97641246D01*
X126066843Y-97570996D01*
X125972913Y-97508272D01*
X125893348Y-97455938D01*
X125832530Y-97416857D01*
X125794843Y-97393893D01*
X125784579Y-97388942D01*
X125766090Y-97401676D01*
X125726580Y-97436882D01*
X125670478Y-97490062D01*
X125602213Y-97556718D01*
X125526214Y-97632354D01*
X125446908Y-97712472D01*
X125368725Y-97792574D01*
X125296093Y-97868164D01*
X125233441Y-97934745D01*
X125185197Y-97987818D01*
X125155790Y-98022887D01*
X125148759Y-98034623D01*
X125158877Y-98056260D01*
X125187241Y-98103662D01*
X125230871Y-98172193D01*
X125286782Y-98257215D01*
X125351994Y-98354093D01*
X125389781Y-98409350D01*
X125458657Y-98510248D01*
X125519860Y-98601299D01*
X125570422Y-98677970D01*
X125607372Y-98735728D01*
X125627742Y-98770043D01*
X125630803Y-98777254D01*
X125623864Y-98797748D01*
X125604949Y-98845513D01*
X125576913Y-98913832D01*
X125542609Y-98995989D01*
X125504891Y-99085270D01*
X125466613Y-99174958D01*
X125430630Y-99258338D01*
X125399794Y-99328694D01*
X125376961Y-99379310D01*
X125364983Y-99403471D01*
X125364276Y-99404422D01*
X125345469Y-99409036D01*
X125295382Y-99419328D01*
X125219207Y-99434287D01*
X125122135Y-99452901D01*
X125009357Y-99474159D01*
X124943558Y-99486418D01*
X124823050Y-99509362D01*
X124714203Y-99531195D01*
X124622524Y-99550722D01*
X124553519Y-99566748D01*
X124512696Y-99578079D01*
X124504489Y-99581674D01*
X124496452Y-99606006D01*
X124489967Y-99660959D01*
X124485030Y-99740108D01*
X124481636Y-99837026D01*
X124479782Y-99945287D01*
X124479462Y-100058465D01*
X124480673Y-100170135D01*
X124483410Y-100273868D01*
X124487669Y-100363241D01*
X124493445Y-100431826D01*
X124500733Y-100473197D01*
X124505105Y-100481810D01*
X124531236Y-100492133D01*
X124586607Y-100506892D01*
X124663893Y-100524352D01*
X124755770Y-100542780D01*
X124787842Y-100548741D01*
X124942476Y-100577066D01*
X125064625Y-100599876D01*
X125158327Y-100618080D01*
X125227616Y-100632583D01*
X125276529Y-100644292D01*
X125309103Y-100654115D01*
X125329372Y-100662956D01*
X125341374Y-100671724D01*
X125343053Y-100673457D01*
X125359816Y-100701371D01*
X125385386Y-100755695D01*
X125417212Y-100829777D01*
X125452740Y-100916965D01*
X125489417Y-101010608D01*
X125524689Y-101104052D01*
X125556004Y-101190647D01*
X125580807Y-101263740D01*
X125596546Y-101316678D01*
X125600668Y-101342811D01*
X125600324Y-101343726D01*
X125586359Y-101365086D01*
X125554678Y-101412084D01*
X125508609Y-101479827D01*
X125451482Y-101563423D01*
X125386627Y-101657982D01*
X125368157Y-101684854D01*
X125302301Y-101782275D01*
X125244350Y-101871163D01*
X125197462Y-101946412D01*
X125164793Y-102002920D01*
X125149500Y-102035581D01*
X125148759Y-102039593D01*
X125161608Y-102060684D01*
X125197112Y-102102464D01*
X125250707Y-102160445D01*
X125317829Y-102230135D01*
X125393913Y-102307045D01*
X125474396Y-102386683D01*
X125554713Y-102464561D01*
X125630301Y-102536186D01*
X125696595Y-102597070D01*
X125749031Y-102642721D01*
X125783045Y-102668650D01*
X125792455Y-102672883D01*
X125814357Y-102662912D01*
X125859200Y-102636020D01*
X125919679Y-102596736D01*
X125966211Y-102565117D01*
X126050525Y-102507098D01*
X126150374Y-102438784D01*
X126250527Y-102370579D01*
X126304373Y-102334075D01*
X126486629Y-102210800D01*
X126639619Y-102293520D01*
X126709318Y-102329759D01*
X126768586Y-102357926D01*
X126808689Y-102373991D01*
X126818897Y-102376226D01*
X126831171Y-102359722D01*
X126855387Y-102313082D01*
X126889737Y-102240609D01*
X126932412Y-102146606D01*
X126981606Y-102035374D01*
X127035510Y-101911215D01*
X127092316Y-101778432D01*
X127150218Y-101641327D01*
X127207407Y-101504202D01*
X127262076Y-101371358D01*
X127312416Y-101247098D01*
X127356620Y-101135725D01*
X127392881Y-101041539D01*
X127419391Y-100968844D01*
X127434342Y-100921941D01*
X127436746Y-100905833D01*
X127417689Y-100885286D01*
X127375964Y-100851933D01*
X127320294Y-100812702D01*
X127315622Y-100809599D01*
X127171736Y-100694423D01*
X127055717Y-100560053D01*
X126968570Y-100410784D01*
X126911301Y-100250913D01*
X126884914Y-100084737D01*
X126890415Y-99916552D01*
X126928810Y-99750655D01*
X127001105Y-99591342D01*
X127022374Y-99556487D01*
X127133004Y-99415737D01*
X127263698Y-99302714D01*
X127409936Y-99218003D01*
X127567192Y-99162194D01*
X127730943Y-99135874D01*
X127896667Y-99139630D01*
X128059838Y-99174050D01*
X128215935Y-99239723D01*
X128360433Y-99337235D01*
X128405131Y-99376813D01*
X128518888Y-99500703D01*
X128601782Y-99631124D01*
X128658644Y-99777315D01*
X128690313Y-99922088D01*
X128698131Y-100084860D01*
X128672062Y-100248440D01*
X128614755Y-100407298D01*
X128528856Y-100555906D01*
X128417014Y-100688735D01*
X128281877Y-100800256D01*
X128264117Y-100812011D01*
X128207850Y-100850508D01*
X128165077Y-100883863D01*
X128144628Y-100905160D01*
X128144331Y-100905833D01*
X128148721Y-100928871D01*
X128166124Y-100981157D01*
X128194732Y-101058390D01*
X128232735Y-101156268D01*
X128278326Y-101270491D01*
X128329697Y-101396758D01*
X128385038Y-101530767D01*
X128442542Y-101668218D01*
X128500399Y-101804808D01*
X128556802Y-101936237D01*
X128609942Y-102058205D01*
X128658010Y-102166409D01*
X128699199Y-102256549D01*
X128731699Y-102324323D01*
X128753703Y-102365430D01*
X128762564Y-102376226D01*
X128789640Y-102367819D01*
X128840303Y-102345272D01*
X128905817Y-102312613D01*
X128941841Y-102293520D01*
X129094832Y-102210800D01*
X129277088Y-102334075D01*
X129370125Y-102397228D01*
X129471985Y-102466727D01*
X129567438Y-102532165D01*
X129615250Y-102565117D01*
X129682495Y-102610273D01*
X129739436Y-102646057D01*
X129778646Y-102667938D01*
X129791381Y-102672563D01*
X129809917Y-102660085D01*
X129850941Y-102625252D01*
X129910475Y-102571678D01*
X129984542Y-102502983D01*
X130069165Y-102422781D01*
X130122685Y-102371286D01*
X130216319Y-102279286D01*
X130297241Y-102196999D01*
X130362177Y-102127945D01*
X130407858Y-102075644D01*
X130431011Y-102043616D01*
X130433232Y-102037116D01*
X130422924Y-102012394D01*
X130394439Y-101962405D01*
X130350937Y-101892212D01*
X130295577Y-101806875D01*
X130231520Y-101711456D01*
X130213303Y-101684854D01*
X130146927Y-101588167D01*
X130087378Y-101501117D01*
X130037984Y-101428595D01*
X130002075Y-101375493D01*
X129982981Y-101346703D01*
X129981136Y-101343726D01*
X129983895Y-101320782D01*
X129998538Y-101270336D01*
X130022513Y-101199041D01*
X130053266Y-101113547D01*
X130088244Y-101020507D01*
X130124893Y-100926574D01*
X130160661Y-100838399D01*
X130192994Y-100762634D01*
X130219338Y-100705931D01*
X130237142Y-100674943D01*
X130238407Y-100673457D01*
X130249294Y-100664601D01*
X130267682Y-100655843D01*
X130297606Y-100646277D01*
X130343103Y-100634996D01*
X130408209Y-100621093D01*
X130496961Y-100603663D01*
X130613393Y-100581798D01*
X130761542Y-100554591D01*
X130793618Y-100548741D01*
X130888686Y-100530374D01*
X130971565Y-100512405D01*
X131034930Y-100496569D01*
X131071458Y-100484600D01*
X131076356Y-100481810D01*
X131084427Y-100457072D01*
X131090987Y-100401790D01*
X131096033Y-100322389D01*
X131099559Y-100225296D01*
X131101561Y-100116938D01*
X131102036Y-100003740D01*
X131100977Y-99892128D01*
X131098382Y-99788529D01*
X131094246Y-99699368D01*
X131088563Y-99631072D01*
X131081331Y-99590066D01*
X131076971Y-99581674D01*
X131052698Y-99573208D01*
X130997426Y-99559435D01*
X130916662Y-99541550D01*
X130815912Y-99520748D01*
X130700683Y-99498223D01*
X130637902Y-99486418D01*
X130518787Y-99464151D01*
X130412565Y-99443979D01*
X130324427Y-99426915D01*
X130259566Y-99413969D01*
X130223174Y-99406155D01*
X130217184Y-99404422D01*
X130207061Y-99384890D01*
X130185662Y-99337843D01*
X130155839Y-99270003D01*
X130120445Y-99188091D01*
X130082332Y-99098828D01*
X130044353Y-99008935D01*
X130009360Y-98925135D01*
X129980206Y-98854147D01*
X129959743Y-98802694D01*
X129950823Y-98777497D01*
X129950657Y-98776396D01*
X129960769Y-98756519D01*
X129989117Y-98710777D01*
X130032723Y-98643717D01*
X130088606Y-98559884D01*
X130153787Y-98463826D01*
X130191679Y-98408650D01*
X130260725Y-98307481D01*
X130322050Y-98215630D01*
X130372663Y-98137744D01*
X130409571Y-98078469D01*
X130429782Y-98042451D01*
X130432701Y-98034377D01*
X130420153Y-98015584D01*
X130385463Y-97975457D01*
X130333063Y-97918493D01*
X130267384Y-97849185D01*
X130192856Y-97772031D01*
X130113913Y-97691525D01*
X130034983Y-97612163D01*
X129960500Y-97538440D01*
X129894894Y-97474852D01*
X129842596Y-97425894D01*
X129808039Y-97396061D01*
X129796478Y-97388942D01*
X129777654Y-97398953D01*
X129732631Y-97427078D01*
X129665787Y-97470454D01*
X129581499Y-97526218D01*
X129484144Y-97591506D01*
X129410707Y-97641246D01*
X129039667Y-97893551D01*
X128421095Y-97638555D01*
X128337275Y-97193931D01*
X128253454Y-96749307D01*
X127328006Y-96749307D01*
X127244186Y-97193931D01*
D16*
X73595000Y-100500000D03*
X65975000Y-100500000D03*
X117775000Y-100500000D03*
X110155000Y-100500000D03*
D17*
X94830000Y-105610000D03*
X92290000Y-105610000D03*
X89750000Y-105610000D03*
X87210000Y-105610000D03*
X84670000Y-105610000D03*
X82130000Y-105610000D03*
X79590000Y-105610000D03*
D18*
X77050000Y-105610000D03*
X99900000Y-105610000D03*
D17*
X102440000Y-105610000D03*
X104980000Y-105610000D03*
X107520000Y-105610000D03*
D19*
X59885000Y-102705000D03*
X59885000Y-97245000D03*
D20*
X62885000Y-102395000D03*
X62885000Y-97555000D03*
D21*
X121530000Y-102675000D03*
X121530000Y-97375000D03*
D18*
X104970000Y-95450000D03*
D17*
X102430000Y-95450000D03*
X99890000Y-95450000D03*
X97350000Y-95450000D03*
X94810000Y-95450000D03*
D18*
X77030000Y-95450000D03*
D17*
X79570000Y-95450000D03*
X82110000Y-95450000D03*
X84650000Y-95450000D03*
X87190000Y-95450000D03*
M02*
