G04 #@! TF.GenerationSoftware,KiCad,Pcbnew,(5.1.5-0-10_14)*
G04 #@! TF.CreationDate,2020-01-18T15:39:45-08:00*
G04 #@! TF.ProjectId,14500,31343530-302e-46b6-9963-61645f706362,rev?*
G04 #@! TF.SameCoordinates,Original*
G04 #@! TF.FileFunction,Soldermask,Top*
G04 #@! TF.FilePolarity,Negative*
%FSLAX46Y46*%
G04 Gerber Fmt 4.6, Leading zero omitted, Abs format (unit mm)*
G04 Created by KiCad (PCBNEW (5.1.5-0-10_14)) date 2020-01-18 15:39:45*
%MOMM*%
%LPD*%
G04 APERTURE LIST*
%ADD10C,2.901600*%
%ADD11R,1.190000X0.740000*%
%ADD12C,0.100000*%
%ADD13R,0.801600X0.551600*%
%ADD14O,1.801600X1.801600*%
%ADD15R,1.801600X1.801600*%
%ADD16R,1.001600X0.901600*%
%ADD17R,2.601600X4.501600*%
%ADD18O,1.801600X1.451600*%
%ADD19O,1.601600X1.201600*%
%ADD20R,1.751600X0.501600*%
%ADD21R,1.601600X2.101600*%
%ADD22C,2.501600*%
%ADD23R,1.701600X2.281600*%
%ADD24R,1.101600X1.101600*%
%ADD25R,0.901600X1.001600*%
G04 APERTURE END LIST*
D10*
X73595000Y-100500000D03*
X65975000Y-100500000D03*
X117775000Y-100500000D03*
X110155000Y-100500000D03*
D11*
X111720000Y-94875000D03*
X111720000Y-92975000D03*
X114420000Y-92975000D03*
X114420000Y-93925000D03*
X114420000Y-94875000D03*
D12*
G36*
X86116516Y-102324623D02*
G01*
X86125048Y-102325889D01*
X86133416Y-102327985D01*
X86141538Y-102330891D01*
X86149336Y-102334579D01*
X86156735Y-102339014D01*
X86163663Y-102344152D01*
X86170055Y-102349945D01*
X86175848Y-102356337D01*
X86180986Y-102363265D01*
X86185421Y-102370664D01*
X86189109Y-102378462D01*
X86192015Y-102386584D01*
X86194111Y-102394952D01*
X86195377Y-102403484D01*
X86195800Y-102412100D01*
X86195800Y-103212900D01*
X86195377Y-103221516D01*
X86194111Y-103230048D01*
X86192015Y-103238416D01*
X86189109Y-103246538D01*
X86185421Y-103254336D01*
X86180986Y-103261735D01*
X86175848Y-103268663D01*
X86170055Y-103275055D01*
X86163663Y-103280848D01*
X86156735Y-103285986D01*
X86149336Y-103290421D01*
X86141538Y-103294109D01*
X86133416Y-103297015D01*
X86125048Y-103299111D01*
X86116516Y-103300377D01*
X86107900Y-103300800D01*
X85932100Y-103300800D01*
X85923484Y-103300377D01*
X85914952Y-103299111D01*
X85906584Y-103297015D01*
X85898462Y-103294109D01*
X85890664Y-103290421D01*
X85883265Y-103285986D01*
X85876337Y-103280848D01*
X85869945Y-103275055D01*
X85864152Y-103268663D01*
X85859014Y-103261735D01*
X85854579Y-103254336D01*
X85850891Y-103246538D01*
X85847985Y-103238416D01*
X85845889Y-103230048D01*
X85844623Y-103221516D01*
X85844200Y-103212900D01*
X85844200Y-102412100D01*
X85844623Y-102403484D01*
X85845889Y-102394952D01*
X85847985Y-102386584D01*
X85850891Y-102378462D01*
X85854579Y-102370664D01*
X85859014Y-102363265D01*
X85864152Y-102356337D01*
X85869945Y-102349945D01*
X85876337Y-102344152D01*
X85883265Y-102339014D01*
X85890664Y-102334579D01*
X85898462Y-102330891D01*
X85906584Y-102327985D01*
X85914952Y-102325889D01*
X85923484Y-102324623D01*
X85932100Y-102324200D01*
X86107900Y-102324200D01*
X86116516Y-102324623D01*
G37*
G36*
X85616516Y-102324623D02*
G01*
X85625048Y-102325889D01*
X85633416Y-102327985D01*
X85641538Y-102330891D01*
X85649336Y-102334579D01*
X85656735Y-102339014D01*
X85663663Y-102344152D01*
X85670055Y-102349945D01*
X85675848Y-102356337D01*
X85680986Y-102363265D01*
X85685421Y-102370664D01*
X85689109Y-102378462D01*
X85692015Y-102386584D01*
X85694111Y-102394952D01*
X85695377Y-102403484D01*
X85695800Y-102412100D01*
X85695800Y-103212900D01*
X85695377Y-103221516D01*
X85694111Y-103230048D01*
X85692015Y-103238416D01*
X85689109Y-103246538D01*
X85685421Y-103254336D01*
X85680986Y-103261735D01*
X85675848Y-103268663D01*
X85670055Y-103275055D01*
X85663663Y-103280848D01*
X85656735Y-103285986D01*
X85649336Y-103290421D01*
X85641538Y-103294109D01*
X85633416Y-103297015D01*
X85625048Y-103299111D01*
X85616516Y-103300377D01*
X85607900Y-103300800D01*
X85432100Y-103300800D01*
X85423484Y-103300377D01*
X85414952Y-103299111D01*
X85406584Y-103297015D01*
X85398462Y-103294109D01*
X85390664Y-103290421D01*
X85383265Y-103285986D01*
X85376337Y-103280848D01*
X85369945Y-103275055D01*
X85364152Y-103268663D01*
X85359014Y-103261735D01*
X85354579Y-103254336D01*
X85350891Y-103246538D01*
X85347985Y-103238416D01*
X85345889Y-103230048D01*
X85344623Y-103221516D01*
X85344200Y-103212900D01*
X85344200Y-102412100D01*
X85344623Y-102403484D01*
X85345889Y-102394952D01*
X85347985Y-102386584D01*
X85350891Y-102378462D01*
X85354579Y-102370664D01*
X85359014Y-102363265D01*
X85364152Y-102356337D01*
X85369945Y-102349945D01*
X85376337Y-102344152D01*
X85383265Y-102339014D01*
X85390664Y-102334579D01*
X85398462Y-102330891D01*
X85406584Y-102327985D01*
X85414952Y-102325889D01*
X85423484Y-102324623D01*
X85432100Y-102324200D01*
X85607900Y-102324200D01*
X85616516Y-102324623D01*
G37*
G36*
X85116516Y-102324623D02*
G01*
X85125048Y-102325889D01*
X85133416Y-102327985D01*
X85141538Y-102330891D01*
X85149336Y-102334579D01*
X85156735Y-102339014D01*
X85163663Y-102344152D01*
X85170055Y-102349945D01*
X85175848Y-102356337D01*
X85180986Y-102363265D01*
X85185421Y-102370664D01*
X85189109Y-102378462D01*
X85192015Y-102386584D01*
X85194111Y-102394952D01*
X85195377Y-102403484D01*
X85195800Y-102412100D01*
X85195800Y-103212900D01*
X85195377Y-103221516D01*
X85194111Y-103230048D01*
X85192015Y-103238416D01*
X85189109Y-103246538D01*
X85185421Y-103254336D01*
X85180986Y-103261735D01*
X85175848Y-103268663D01*
X85170055Y-103275055D01*
X85163663Y-103280848D01*
X85156735Y-103285986D01*
X85149336Y-103290421D01*
X85141538Y-103294109D01*
X85133416Y-103297015D01*
X85125048Y-103299111D01*
X85116516Y-103300377D01*
X85107900Y-103300800D01*
X84932100Y-103300800D01*
X84923484Y-103300377D01*
X84914952Y-103299111D01*
X84906584Y-103297015D01*
X84898462Y-103294109D01*
X84890664Y-103290421D01*
X84883265Y-103285986D01*
X84876337Y-103280848D01*
X84869945Y-103275055D01*
X84864152Y-103268663D01*
X84859014Y-103261735D01*
X84854579Y-103254336D01*
X84850891Y-103246538D01*
X84847985Y-103238416D01*
X84845889Y-103230048D01*
X84844623Y-103221516D01*
X84844200Y-103212900D01*
X84844200Y-102412100D01*
X84844623Y-102403484D01*
X84845889Y-102394952D01*
X84847985Y-102386584D01*
X84850891Y-102378462D01*
X84854579Y-102370664D01*
X84859014Y-102363265D01*
X84864152Y-102356337D01*
X84869945Y-102349945D01*
X84876337Y-102344152D01*
X84883265Y-102339014D01*
X84890664Y-102334579D01*
X84898462Y-102330891D01*
X84906584Y-102327985D01*
X84914952Y-102325889D01*
X84923484Y-102324623D01*
X84932100Y-102324200D01*
X85107900Y-102324200D01*
X85116516Y-102324623D01*
G37*
G36*
X84616516Y-102324623D02*
G01*
X84625048Y-102325889D01*
X84633416Y-102327985D01*
X84641538Y-102330891D01*
X84649336Y-102334579D01*
X84656735Y-102339014D01*
X84663663Y-102344152D01*
X84670055Y-102349945D01*
X84675848Y-102356337D01*
X84680986Y-102363265D01*
X84685421Y-102370664D01*
X84689109Y-102378462D01*
X84692015Y-102386584D01*
X84694111Y-102394952D01*
X84695377Y-102403484D01*
X84695800Y-102412100D01*
X84695800Y-103212900D01*
X84695377Y-103221516D01*
X84694111Y-103230048D01*
X84692015Y-103238416D01*
X84689109Y-103246538D01*
X84685421Y-103254336D01*
X84680986Y-103261735D01*
X84675848Y-103268663D01*
X84670055Y-103275055D01*
X84663663Y-103280848D01*
X84656735Y-103285986D01*
X84649336Y-103290421D01*
X84641538Y-103294109D01*
X84633416Y-103297015D01*
X84625048Y-103299111D01*
X84616516Y-103300377D01*
X84607900Y-103300800D01*
X84432100Y-103300800D01*
X84423484Y-103300377D01*
X84414952Y-103299111D01*
X84406584Y-103297015D01*
X84398462Y-103294109D01*
X84390664Y-103290421D01*
X84383265Y-103285986D01*
X84376337Y-103280848D01*
X84369945Y-103275055D01*
X84364152Y-103268663D01*
X84359014Y-103261735D01*
X84354579Y-103254336D01*
X84350891Y-103246538D01*
X84347985Y-103238416D01*
X84345889Y-103230048D01*
X84344623Y-103221516D01*
X84344200Y-103212900D01*
X84344200Y-102412100D01*
X84344623Y-102403484D01*
X84345889Y-102394952D01*
X84347985Y-102386584D01*
X84350891Y-102378462D01*
X84354579Y-102370664D01*
X84359014Y-102363265D01*
X84364152Y-102356337D01*
X84369945Y-102349945D01*
X84376337Y-102344152D01*
X84383265Y-102339014D01*
X84390664Y-102334579D01*
X84398462Y-102330891D01*
X84406584Y-102327985D01*
X84414952Y-102325889D01*
X84423484Y-102324623D01*
X84432100Y-102324200D01*
X84607900Y-102324200D01*
X84616516Y-102324623D01*
G37*
G36*
X84116516Y-102324623D02*
G01*
X84125048Y-102325889D01*
X84133416Y-102327985D01*
X84141538Y-102330891D01*
X84149336Y-102334579D01*
X84156735Y-102339014D01*
X84163663Y-102344152D01*
X84170055Y-102349945D01*
X84175848Y-102356337D01*
X84180986Y-102363265D01*
X84185421Y-102370664D01*
X84189109Y-102378462D01*
X84192015Y-102386584D01*
X84194111Y-102394952D01*
X84195377Y-102403484D01*
X84195800Y-102412100D01*
X84195800Y-103212900D01*
X84195377Y-103221516D01*
X84194111Y-103230048D01*
X84192015Y-103238416D01*
X84189109Y-103246538D01*
X84185421Y-103254336D01*
X84180986Y-103261735D01*
X84175848Y-103268663D01*
X84170055Y-103275055D01*
X84163663Y-103280848D01*
X84156735Y-103285986D01*
X84149336Y-103290421D01*
X84141538Y-103294109D01*
X84133416Y-103297015D01*
X84125048Y-103299111D01*
X84116516Y-103300377D01*
X84107900Y-103300800D01*
X83932100Y-103300800D01*
X83923484Y-103300377D01*
X83914952Y-103299111D01*
X83906584Y-103297015D01*
X83898462Y-103294109D01*
X83890664Y-103290421D01*
X83883265Y-103285986D01*
X83876337Y-103280848D01*
X83869945Y-103275055D01*
X83864152Y-103268663D01*
X83859014Y-103261735D01*
X83854579Y-103254336D01*
X83850891Y-103246538D01*
X83847985Y-103238416D01*
X83845889Y-103230048D01*
X83844623Y-103221516D01*
X83844200Y-103212900D01*
X83844200Y-102412100D01*
X83844623Y-102403484D01*
X83845889Y-102394952D01*
X83847985Y-102386584D01*
X83850891Y-102378462D01*
X83854579Y-102370664D01*
X83859014Y-102363265D01*
X83864152Y-102356337D01*
X83869945Y-102349945D01*
X83876337Y-102344152D01*
X83883265Y-102339014D01*
X83890664Y-102334579D01*
X83898462Y-102330891D01*
X83906584Y-102327985D01*
X83914952Y-102325889D01*
X83923484Y-102324623D01*
X83932100Y-102324200D01*
X84107900Y-102324200D01*
X84116516Y-102324623D01*
G37*
G36*
X83616516Y-102324623D02*
G01*
X83625048Y-102325889D01*
X83633416Y-102327985D01*
X83641538Y-102330891D01*
X83649336Y-102334579D01*
X83656735Y-102339014D01*
X83663663Y-102344152D01*
X83670055Y-102349945D01*
X83675848Y-102356337D01*
X83680986Y-102363265D01*
X83685421Y-102370664D01*
X83689109Y-102378462D01*
X83692015Y-102386584D01*
X83694111Y-102394952D01*
X83695377Y-102403484D01*
X83695800Y-102412100D01*
X83695800Y-103212900D01*
X83695377Y-103221516D01*
X83694111Y-103230048D01*
X83692015Y-103238416D01*
X83689109Y-103246538D01*
X83685421Y-103254336D01*
X83680986Y-103261735D01*
X83675848Y-103268663D01*
X83670055Y-103275055D01*
X83663663Y-103280848D01*
X83656735Y-103285986D01*
X83649336Y-103290421D01*
X83641538Y-103294109D01*
X83633416Y-103297015D01*
X83625048Y-103299111D01*
X83616516Y-103300377D01*
X83607900Y-103300800D01*
X83432100Y-103300800D01*
X83423484Y-103300377D01*
X83414952Y-103299111D01*
X83406584Y-103297015D01*
X83398462Y-103294109D01*
X83390664Y-103290421D01*
X83383265Y-103285986D01*
X83376337Y-103280848D01*
X83369945Y-103275055D01*
X83364152Y-103268663D01*
X83359014Y-103261735D01*
X83354579Y-103254336D01*
X83350891Y-103246538D01*
X83347985Y-103238416D01*
X83345889Y-103230048D01*
X83344623Y-103221516D01*
X83344200Y-103212900D01*
X83344200Y-102412100D01*
X83344623Y-102403484D01*
X83345889Y-102394952D01*
X83347985Y-102386584D01*
X83350891Y-102378462D01*
X83354579Y-102370664D01*
X83359014Y-102363265D01*
X83364152Y-102356337D01*
X83369945Y-102349945D01*
X83376337Y-102344152D01*
X83383265Y-102339014D01*
X83390664Y-102334579D01*
X83398462Y-102330891D01*
X83406584Y-102327985D01*
X83414952Y-102325889D01*
X83423484Y-102324623D01*
X83432100Y-102324200D01*
X83607900Y-102324200D01*
X83616516Y-102324623D01*
G37*
G36*
X83116516Y-102324623D02*
G01*
X83125048Y-102325889D01*
X83133416Y-102327985D01*
X83141538Y-102330891D01*
X83149336Y-102334579D01*
X83156735Y-102339014D01*
X83163663Y-102344152D01*
X83170055Y-102349945D01*
X83175848Y-102356337D01*
X83180986Y-102363265D01*
X83185421Y-102370664D01*
X83189109Y-102378462D01*
X83192015Y-102386584D01*
X83194111Y-102394952D01*
X83195377Y-102403484D01*
X83195800Y-102412100D01*
X83195800Y-103212900D01*
X83195377Y-103221516D01*
X83194111Y-103230048D01*
X83192015Y-103238416D01*
X83189109Y-103246538D01*
X83185421Y-103254336D01*
X83180986Y-103261735D01*
X83175848Y-103268663D01*
X83170055Y-103275055D01*
X83163663Y-103280848D01*
X83156735Y-103285986D01*
X83149336Y-103290421D01*
X83141538Y-103294109D01*
X83133416Y-103297015D01*
X83125048Y-103299111D01*
X83116516Y-103300377D01*
X83107900Y-103300800D01*
X82932100Y-103300800D01*
X82923484Y-103300377D01*
X82914952Y-103299111D01*
X82906584Y-103297015D01*
X82898462Y-103294109D01*
X82890664Y-103290421D01*
X82883265Y-103285986D01*
X82876337Y-103280848D01*
X82869945Y-103275055D01*
X82864152Y-103268663D01*
X82859014Y-103261735D01*
X82854579Y-103254336D01*
X82850891Y-103246538D01*
X82847985Y-103238416D01*
X82845889Y-103230048D01*
X82844623Y-103221516D01*
X82844200Y-103212900D01*
X82844200Y-102412100D01*
X82844623Y-102403484D01*
X82845889Y-102394952D01*
X82847985Y-102386584D01*
X82850891Y-102378462D01*
X82854579Y-102370664D01*
X82859014Y-102363265D01*
X82864152Y-102356337D01*
X82869945Y-102349945D01*
X82876337Y-102344152D01*
X82883265Y-102339014D01*
X82890664Y-102334579D01*
X82898462Y-102330891D01*
X82906584Y-102327985D01*
X82914952Y-102325889D01*
X82923484Y-102324623D01*
X82932100Y-102324200D01*
X83107900Y-102324200D01*
X83116516Y-102324623D01*
G37*
G36*
X82616516Y-102324623D02*
G01*
X82625048Y-102325889D01*
X82633416Y-102327985D01*
X82641538Y-102330891D01*
X82649336Y-102334579D01*
X82656735Y-102339014D01*
X82663663Y-102344152D01*
X82670055Y-102349945D01*
X82675848Y-102356337D01*
X82680986Y-102363265D01*
X82685421Y-102370664D01*
X82689109Y-102378462D01*
X82692015Y-102386584D01*
X82694111Y-102394952D01*
X82695377Y-102403484D01*
X82695800Y-102412100D01*
X82695800Y-103212900D01*
X82695377Y-103221516D01*
X82694111Y-103230048D01*
X82692015Y-103238416D01*
X82689109Y-103246538D01*
X82685421Y-103254336D01*
X82680986Y-103261735D01*
X82675848Y-103268663D01*
X82670055Y-103275055D01*
X82663663Y-103280848D01*
X82656735Y-103285986D01*
X82649336Y-103290421D01*
X82641538Y-103294109D01*
X82633416Y-103297015D01*
X82625048Y-103299111D01*
X82616516Y-103300377D01*
X82607900Y-103300800D01*
X82432100Y-103300800D01*
X82423484Y-103300377D01*
X82414952Y-103299111D01*
X82406584Y-103297015D01*
X82398462Y-103294109D01*
X82390664Y-103290421D01*
X82383265Y-103285986D01*
X82376337Y-103280848D01*
X82369945Y-103275055D01*
X82364152Y-103268663D01*
X82359014Y-103261735D01*
X82354579Y-103254336D01*
X82350891Y-103246538D01*
X82347985Y-103238416D01*
X82345889Y-103230048D01*
X82344623Y-103221516D01*
X82344200Y-103212900D01*
X82344200Y-102412100D01*
X82344623Y-102403484D01*
X82345889Y-102394952D01*
X82347985Y-102386584D01*
X82350891Y-102378462D01*
X82354579Y-102370664D01*
X82359014Y-102363265D01*
X82364152Y-102356337D01*
X82369945Y-102349945D01*
X82376337Y-102344152D01*
X82383265Y-102339014D01*
X82390664Y-102334579D01*
X82398462Y-102330891D01*
X82406584Y-102327985D01*
X82414952Y-102325889D01*
X82423484Y-102324623D01*
X82432100Y-102324200D01*
X82607900Y-102324200D01*
X82616516Y-102324623D01*
G37*
G36*
X82241516Y-101949623D02*
G01*
X82250048Y-101950889D01*
X82258416Y-101952985D01*
X82266538Y-101955891D01*
X82274336Y-101959579D01*
X82281735Y-101964014D01*
X82288663Y-101969152D01*
X82295055Y-101974945D01*
X82300848Y-101981337D01*
X82305986Y-101988265D01*
X82310421Y-101995664D01*
X82314109Y-102003462D01*
X82317015Y-102011584D01*
X82319111Y-102019952D01*
X82320377Y-102028484D01*
X82320800Y-102037100D01*
X82320800Y-102212900D01*
X82320377Y-102221516D01*
X82319111Y-102230048D01*
X82317015Y-102238416D01*
X82314109Y-102246538D01*
X82310421Y-102254336D01*
X82305986Y-102261735D01*
X82300848Y-102268663D01*
X82295055Y-102275055D01*
X82288663Y-102280848D01*
X82281735Y-102285986D01*
X82274336Y-102290421D01*
X82266538Y-102294109D01*
X82258416Y-102297015D01*
X82250048Y-102299111D01*
X82241516Y-102300377D01*
X82232900Y-102300800D01*
X81432100Y-102300800D01*
X81423484Y-102300377D01*
X81414952Y-102299111D01*
X81406584Y-102297015D01*
X81398462Y-102294109D01*
X81390664Y-102290421D01*
X81383265Y-102285986D01*
X81376337Y-102280848D01*
X81369945Y-102275055D01*
X81364152Y-102268663D01*
X81359014Y-102261735D01*
X81354579Y-102254336D01*
X81350891Y-102246538D01*
X81347985Y-102238416D01*
X81345889Y-102230048D01*
X81344623Y-102221516D01*
X81344200Y-102212900D01*
X81344200Y-102037100D01*
X81344623Y-102028484D01*
X81345889Y-102019952D01*
X81347985Y-102011584D01*
X81350891Y-102003462D01*
X81354579Y-101995664D01*
X81359014Y-101988265D01*
X81364152Y-101981337D01*
X81369945Y-101974945D01*
X81376337Y-101969152D01*
X81383265Y-101964014D01*
X81390664Y-101959579D01*
X81398462Y-101955891D01*
X81406584Y-101952985D01*
X81414952Y-101950889D01*
X81423484Y-101949623D01*
X81432100Y-101949200D01*
X82232900Y-101949200D01*
X82241516Y-101949623D01*
G37*
G36*
X82241516Y-101449623D02*
G01*
X82250048Y-101450889D01*
X82258416Y-101452985D01*
X82266538Y-101455891D01*
X82274336Y-101459579D01*
X82281735Y-101464014D01*
X82288663Y-101469152D01*
X82295055Y-101474945D01*
X82300848Y-101481337D01*
X82305986Y-101488265D01*
X82310421Y-101495664D01*
X82314109Y-101503462D01*
X82317015Y-101511584D01*
X82319111Y-101519952D01*
X82320377Y-101528484D01*
X82320800Y-101537100D01*
X82320800Y-101712900D01*
X82320377Y-101721516D01*
X82319111Y-101730048D01*
X82317015Y-101738416D01*
X82314109Y-101746538D01*
X82310421Y-101754336D01*
X82305986Y-101761735D01*
X82300848Y-101768663D01*
X82295055Y-101775055D01*
X82288663Y-101780848D01*
X82281735Y-101785986D01*
X82274336Y-101790421D01*
X82266538Y-101794109D01*
X82258416Y-101797015D01*
X82250048Y-101799111D01*
X82241516Y-101800377D01*
X82232900Y-101800800D01*
X81432100Y-101800800D01*
X81423484Y-101800377D01*
X81414952Y-101799111D01*
X81406584Y-101797015D01*
X81398462Y-101794109D01*
X81390664Y-101790421D01*
X81383265Y-101785986D01*
X81376337Y-101780848D01*
X81369945Y-101775055D01*
X81364152Y-101768663D01*
X81359014Y-101761735D01*
X81354579Y-101754336D01*
X81350891Y-101746538D01*
X81347985Y-101738416D01*
X81345889Y-101730048D01*
X81344623Y-101721516D01*
X81344200Y-101712900D01*
X81344200Y-101537100D01*
X81344623Y-101528484D01*
X81345889Y-101519952D01*
X81347985Y-101511584D01*
X81350891Y-101503462D01*
X81354579Y-101495664D01*
X81359014Y-101488265D01*
X81364152Y-101481337D01*
X81369945Y-101474945D01*
X81376337Y-101469152D01*
X81383265Y-101464014D01*
X81390664Y-101459579D01*
X81398462Y-101455891D01*
X81406584Y-101452985D01*
X81414952Y-101450889D01*
X81423484Y-101449623D01*
X81432100Y-101449200D01*
X82232900Y-101449200D01*
X82241516Y-101449623D01*
G37*
G36*
X82241516Y-100949623D02*
G01*
X82250048Y-100950889D01*
X82258416Y-100952985D01*
X82266538Y-100955891D01*
X82274336Y-100959579D01*
X82281735Y-100964014D01*
X82288663Y-100969152D01*
X82295055Y-100974945D01*
X82300848Y-100981337D01*
X82305986Y-100988265D01*
X82310421Y-100995664D01*
X82314109Y-101003462D01*
X82317015Y-101011584D01*
X82319111Y-101019952D01*
X82320377Y-101028484D01*
X82320800Y-101037100D01*
X82320800Y-101212900D01*
X82320377Y-101221516D01*
X82319111Y-101230048D01*
X82317015Y-101238416D01*
X82314109Y-101246538D01*
X82310421Y-101254336D01*
X82305986Y-101261735D01*
X82300848Y-101268663D01*
X82295055Y-101275055D01*
X82288663Y-101280848D01*
X82281735Y-101285986D01*
X82274336Y-101290421D01*
X82266538Y-101294109D01*
X82258416Y-101297015D01*
X82250048Y-101299111D01*
X82241516Y-101300377D01*
X82232900Y-101300800D01*
X81432100Y-101300800D01*
X81423484Y-101300377D01*
X81414952Y-101299111D01*
X81406584Y-101297015D01*
X81398462Y-101294109D01*
X81390664Y-101290421D01*
X81383265Y-101285986D01*
X81376337Y-101280848D01*
X81369945Y-101275055D01*
X81364152Y-101268663D01*
X81359014Y-101261735D01*
X81354579Y-101254336D01*
X81350891Y-101246538D01*
X81347985Y-101238416D01*
X81345889Y-101230048D01*
X81344623Y-101221516D01*
X81344200Y-101212900D01*
X81344200Y-101037100D01*
X81344623Y-101028484D01*
X81345889Y-101019952D01*
X81347985Y-101011584D01*
X81350891Y-101003462D01*
X81354579Y-100995664D01*
X81359014Y-100988265D01*
X81364152Y-100981337D01*
X81369945Y-100974945D01*
X81376337Y-100969152D01*
X81383265Y-100964014D01*
X81390664Y-100959579D01*
X81398462Y-100955891D01*
X81406584Y-100952985D01*
X81414952Y-100950889D01*
X81423484Y-100949623D01*
X81432100Y-100949200D01*
X82232900Y-100949200D01*
X82241516Y-100949623D01*
G37*
G36*
X82241516Y-100449623D02*
G01*
X82250048Y-100450889D01*
X82258416Y-100452985D01*
X82266538Y-100455891D01*
X82274336Y-100459579D01*
X82281735Y-100464014D01*
X82288663Y-100469152D01*
X82295055Y-100474945D01*
X82300848Y-100481337D01*
X82305986Y-100488265D01*
X82310421Y-100495664D01*
X82314109Y-100503462D01*
X82317015Y-100511584D01*
X82319111Y-100519952D01*
X82320377Y-100528484D01*
X82320800Y-100537100D01*
X82320800Y-100712900D01*
X82320377Y-100721516D01*
X82319111Y-100730048D01*
X82317015Y-100738416D01*
X82314109Y-100746538D01*
X82310421Y-100754336D01*
X82305986Y-100761735D01*
X82300848Y-100768663D01*
X82295055Y-100775055D01*
X82288663Y-100780848D01*
X82281735Y-100785986D01*
X82274336Y-100790421D01*
X82266538Y-100794109D01*
X82258416Y-100797015D01*
X82250048Y-100799111D01*
X82241516Y-100800377D01*
X82232900Y-100800800D01*
X81432100Y-100800800D01*
X81423484Y-100800377D01*
X81414952Y-100799111D01*
X81406584Y-100797015D01*
X81398462Y-100794109D01*
X81390664Y-100790421D01*
X81383265Y-100785986D01*
X81376337Y-100780848D01*
X81369945Y-100775055D01*
X81364152Y-100768663D01*
X81359014Y-100761735D01*
X81354579Y-100754336D01*
X81350891Y-100746538D01*
X81347985Y-100738416D01*
X81345889Y-100730048D01*
X81344623Y-100721516D01*
X81344200Y-100712900D01*
X81344200Y-100537100D01*
X81344623Y-100528484D01*
X81345889Y-100519952D01*
X81347985Y-100511584D01*
X81350891Y-100503462D01*
X81354579Y-100495664D01*
X81359014Y-100488265D01*
X81364152Y-100481337D01*
X81369945Y-100474945D01*
X81376337Y-100469152D01*
X81383265Y-100464014D01*
X81390664Y-100459579D01*
X81398462Y-100455891D01*
X81406584Y-100452985D01*
X81414952Y-100450889D01*
X81423484Y-100449623D01*
X81432100Y-100449200D01*
X82232900Y-100449200D01*
X82241516Y-100449623D01*
G37*
G36*
X82241516Y-99949623D02*
G01*
X82250048Y-99950889D01*
X82258416Y-99952985D01*
X82266538Y-99955891D01*
X82274336Y-99959579D01*
X82281735Y-99964014D01*
X82288663Y-99969152D01*
X82295055Y-99974945D01*
X82300848Y-99981337D01*
X82305986Y-99988265D01*
X82310421Y-99995664D01*
X82314109Y-100003462D01*
X82317015Y-100011584D01*
X82319111Y-100019952D01*
X82320377Y-100028484D01*
X82320800Y-100037100D01*
X82320800Y-100212900D01*
X82320377Y-100221516D01*
X82319111Y-100230048D01*
X82317015Y-100238416D01*
X82314109Y-100246538D01*
X82310421Y-100254336D01*
X82305986Y-100261735D01*
X82300848Y-100268663D01*
X82295055Y-100275055D01*
X82288663Y-100280848D01*
X82281735Y-100285986D01*
X82274336Y-100290421D01*
X82266538Y-100294109D01*
X82258416Y-100297015D01*
X82250048Y-100299111D01*
X82241516Y-100300377D01*
X82232900Y-100300800D01*
X81432100Y-100300800D01*
X81423484Y-100300377D01*
X81414952Y-100299111D01*
X81406584Y-100297015D01*
X81398462Y-100294109D01*
X81390664Y-100290421D01*
X81383265Y-100285986D01*
X81376337Y-100280848D01*
X81369945Y-100275055D01*
X81364152Y-100268663D01*
X81359014Y-100261735D01*
X81354579Y-100254336D01*
X81350891Y-100246538D01*
X81347985Y-100238416D01*
X81345889Y-100230048D01*
X81344623Y-100221516D01*
X81344200Y-100212900D01*
X81344200Y-100037100D01*
X81344623Y-100028484D01*
X81345889Y-100019952D01*
X81347985Y-100011584D01*
X81350891Y-100003462D01*
X81354579Y-99995664D01*
X81359014Y-99988265D01*
X81364152Y-99981337D01*
X81369945Y-99974945D01*
X81376337Y-99969152D01*
X81383265Y-99964014D01*
X81390664Y-99959579D01*
X81398462Y-99955891D01*
X81406584Y-99952985D01*
X81414952Y-99950889D01*
X81423484Y-99949623D01*
X81432100Y-99949200D01*
X82232900Y-99949200D01*
X82241516Y-99949623D01*
G37*
G36*
X82241516Y-99449623D02*
G01*
X82250048Y-99450889D01*
X82258416Y-99452985D01*
X82266538Y-99455891D01*
X82274336Y-99459579D01*
X82281735Y-99464014D01*
X82288663Y-99469152D01*
X82295055Y-99474945D01*
X82300848Y-99481337D01*
X82305986Y-99488265D01*
X82310421Y-99495664D01*
X82314109Y-99503462D01*
X82317015Y-99511584D01*
X82319111Y-99519952D01*
X82320377Y-99528484D01*
X82320800Y-99537100D01*
X82320800Y-99712900D01*
X82320377Y-99721516D01*
X82319111Y-99730048D01*
X82317015Y-99738416D01*
X82314109Y-99746538D01*
X82310421Y-99754336D01*
X82305986Y-99761735D01*
X82300848Y-99768663D01*
X82295055Y-99775055D01*
X82288663Y-99780848D01*
X82281735Y-99785986D01*
X82274336Y-99790421D01*
X82266538Y-99794109D01*
X82258416Y-99797015D01*
X82250048Y-99799111D01*
X82241516Y-99800377D01*
X82232900Y-99800800D01*
X81432100Y-99800800D01*
X81423484Y-99800377D01*
X81414952Y-99799111D01*
X81406584Y-99797015D01*
X81398462Y-99794109D01*
X81390664Y-99790421D01*
X81383265Y-99785986D01*
X81376337Y-99780848D01*
X81369945Y-99775055D01*
X81364152Y-99768663D01*
X81359014Y-99761735D01*
X81354579Y-99754336D01*
X81350891Y-99746538D01*
X81347985Y-99738416D01*
X81345889Y-99730048D01*
X81344623Y-99721516D01*
X81344200Y-99712900D01*
X81344200Y-99537100D01*
X81344623Y-99528484D01*
X81345889Y-99519952D01*
X81347985Y-99511584D01*
X81350891Y-99503462D01*
X81354579Y-99495664D01*
X81359014Y-99488265D01*
X81364152Y-99481337D01*
X81369945Y-99474945D01*
X81376337Y-99469152D01*
X81383265Y-99464014D01*
X81390664Y-99459579D01*
X81398462Y-99455891D01*
X81406584Y-99452985D01*
X81414952Y-99450889D01*
X81423484Y-99449623D01*
X81432100Y-99449200D01*
X82232900Y-99449200D01*
X82241516Y-99449623D01*
G37*
G36*
X82241516Y-98949623D02*
G01*
X82250048Y-98950889D01*
X82258416Y-98952985D01*
X82266538Y-98955891D01*
X82274336Y-98959579D01*
X82281735Y-98964014D01*
X82288663Y-98969152D01*
X82295055Y-98974945D01*
X82300848Y-98981337D01*
X82305986Y-98988265D01*
X82310421Y-98995664D01*
X82314109Y-99003462D01*
X82317015Y-99011584D01*
X82319111Y-99019952D01*
X82320377Y-99028484D01*
X82320800Y-99037100D01*
X82320800Y-99212900D01*
X82320377Y-99221516D01*
X82319111Y-99230048D01*
X82317015Y-99238416D01*
X82314109Y-99246538D01*
X82310421Y-99254336D01*
X82305986Y-99261735D01*
X82300848Y-99268663D01*
X82295055Y-99275055D01*
X82288663Y-99280848D01*
X82281735Y-99285986D01*
X82274336Y-99290421D01*
X82266538Y-99294109D01*
X82258416Y-99297015D01*
X82250048Y-99299111D01*
X82241516Y-99300377D01*
X82232900Y-99300800D01*
X81432100Y-99300800D01*
X81423484Y-99300377D01*
X81414952Y-99299111D01*
X81406584Y-99297015D01*
X81398462Y-99294109D01*
X81390664Y-99290421D01*
X81383265Y-99285986D01*
X81376337Y-99280848D01*
X81369945Y-99275055D01*
X81364152Y-99268663D01*
X81359014Y-99261735D01*
X81354579Y-99254336D01*
X81350891Y-99246538D01*
X81347985Y-99238416D01*
X81345889Y-99230048D01*
X81344623Y-99221516D01*
X81344200Y-99212900D01*
X81344200Y-99037100D01*
X81344623Y-99028484D01*
X81345889Y-99019952D01*
X81347985Y-99011584D01*
X81350891Y-99003462D01*
X81354579Y-98995664D01*
X81359014Y-98988265D01*
X81364152Y-98981337D01*
X81369945Y-98974945D01*
X81376337Y-98969152D01*
X81383265Y-98964014D01*
X81390664Y-98959579D01*
X81398462Y-98955891D01*
X81406584Y-98952985D01*
X81414952Y-98950889D01*
X81423484Y-98949623D01*
X81432100Y-98949200D01*
X82232900Y-98949200D01*
X82241516Y-98949623D01*
G37*
G36*
X82241516Y-98449623D02*
G01*
X82250048Y-98450889D01*
X82258416Y-98452985D01*
X82266538Y-98455891D01*
X82274336Y-98459579D01*
X82281735Y-98464014D01*
X82288663Y-98469152D01*
X82295055Y-98474945D01*
X82300848Y-98481337D01*
X82305986Y-98488265D01*
X82310421Y-98495664D01*
X82314109Y-98503462D01*
X82317015Y-98511584D01*
X82319111Y-98519952D01*
X82320377Y-98528484D01*
X82320800Y-98537100D01*
X82320800Y-98712900D01*
X82320377Y-98721516D01*
X82319111Y-98730048D01*
X82317015Y-98738416D01*
X82314109Y-98746538D01*
X82310421Y-98754336D01*
X82305986Y-98761735D01*
X82300848Y-98768663D01*
X82295055Y-98775055D01*
X82288663Y-98780848D01*
X82281735Y-98785986D01*
X82274336Y-98790421D01*
X82266538Y-98794109D01*
X82258416Y-98797015D01*
X82250048Y-98799111D01*
X82241516Y-98800377D01*
X82232900Y-98800800D01*
X81432100Y-98800800D01*
X81423484Y-98800377D01*
X81414952Y-98799111D01*
X81406584Y-98797015D01*
X81398462Y-98794109D01*
X81390664Y-98790421D01*
X81383265Y-98785986D01*
X81376337Y-98780848D01*
X81369945Y-98775055D01*
X81364152Y-98768663D01*
X81359014Y-98761735D01*
X81354579Y-98754336D01*
X81350891Y-98746538D01*
X81347985Y-98738416D01*
X81345889Y-98730048D01*
X81344623Y-98721516D01*
X81344200Y-98712900D01*
X81344200Y-98537100D01*
X81344623Y-98528484D01*
X81345889Y-98519952D01*
X81347985Y-98511584D01*
X81350891Y-98503462D01*
X81354579Y-98495664D01*
X81359014Y-98488265D01*
X81364152Y-98481337D01*
X81369945Y-98474945D01*
X81376337Y-98469152D01*
X81383265Y-98464014D01*
X81390664Y-98459579D01*
X81398462Y-98455891D01*
X81406584Y-98452985D01*
X81414952Y-98450889D01*
X81423484Y-98449623D01*
X81432100Y-98449200D01*
X82232900Y-98449200D01*
X82241516Y-98449623D01*
G37*
G36*
X82616516Y-97449623D02*
G01*
X82625048Y-97450889D01*
X82633416Y-97452985D01*
X82641538Y-97455891D01*
X82649336Y-97459579D01*
X82656735Y-97464014D01*
X82663663Y-97469152D01*
X82670055Y-97474945D01*
X82675848Y-97481337D01*
X82680986Y-97488265D01*
X82685421Y-97495664D01*
X82689109Y-97503462D01*
X82692015Y-97511584D01*
X82694111Y-97519952D01*
X82695377Y-97528484D01*
X82695800Y-97537100D01*
X82695800Y-98337900D01*
X82695377Y-98346516D01*
X82694111Y-98355048D01*
X82692015Y-98363416D01*
X82689109Y-98371538D01*
X82685421Y-98379336D01*
X82680986Y-98386735D01*
X82675848Y-98393663D01*
X82670055Y-98400055D01*
X82663663Y-98405848D01*
X82656735Y-98410986D01*
X82649336Y-98415421D01*
X82641538Y-98419109D01*
X82633416Y-98422015D01*
X82625048Y-98424111D01*
X82616516Y-98425377D01*
X82607900Y-98425800D01*
X82432100Y-98425800D01*
X82423484Y-98425377D01*
X82414952Y-98424111D01*
X82406584Y-98422015D01*
X82398462Y-98419109D01*
X82390664Y-98415421D01*
X82383265Y-98410986D01*
X82376337Y-98405848D01*
X82369945Y-98400055D01*
X82364152Y-98393663D01*
X82359014Y-98386735D01*
X82354579Y-98379336D01*
X82350891Y-98371538D01*
X82347985Y-98363416D01*
X82345889Y-98355048D01*
X82344623Y-98346516D01*
X82344200Y-98337900D01*
X82344200Y-97537100D01*
X82344623Y-97528484D01*
X82345889Y-97519952D01*
X82347985Y-97511584D01*
X82350891Y-97503462D01*
X82354579Y-97495664D01*
X82359014Y-97488265D01*
X82364152Y-97481337D01*
X82369945Y-97474945D01*
X82376337Y-97469152D01*
X82383265Y-97464014D01*
X82390664Y-97459579D01*
X82398462Y-97455891D01*
X82406584Y-97452985D01*
X82414952Y-97450889D01*
X82423484Y-97449623D01*
X82432100Y-97449200D01*
X82607900Y-97449200D01*
X82616516Y-97449623D01*
G37*
G36*
X83116516Y-97449623D02*
G01*
X83125048Y-97450889D01*
X83133416Y-97452985D01*
X83141538Y-97455891D01*
X83149336Y-97459579D01*
X83156735Y-97464014D01*
X83163663Y-97469152D01*
X83170055Y-97474945D01*
X83175848Y-97481337D01*
X83180986Y-97488265D01*
X83185421Y-97495664D01*
X83189109Y-97503462D01*
X83192015Y-97511584D01*
X83194111Y-97519952D01*
X83195377Y-97528484D01*
X83195800Y-97537100D01*
X83195800Y-98337900D01*
X83195377Y-98346516D01*
X83194111Y-98355048D01*
X83192015Y-98363416D01*
X83189109Y-98371538D01*
X83185421Y-98379336D01*
X83180986Y-98386735D01*
X83175848Y-98393663D01*
X83170055Y-98400055D01*
X83163663Y-98405848D01*
X83156735Y-98410986D01*
X83149336Y-98415421D01*
X83141538Y-98419109D01*
X83133416Y-98422015D01*
X83125048Y-98424111D01*
X83116516Y-98425377D01*
X83107900Y-98425800D01*
X82932100Y-98425800D01*
X82923484Y-98425377D01*
X82914952Y-98424111D01*
X82906584Y-98422015D01*
X82898462Y-98419109D01*
X82890664Y-98415421D01*
X82883265Y-98410986D01*
X82876337Y-98405848D01*
X82869945Y-98400055D01*
X82864152Y-98393663D01*
X82859014Y-98386735D01*
X82854579Y-98379336D01*
X82850891Y-98371538D01*
X82847985Y-98363416D01*
X82845889Y-98355048D01*
X82844623Y-98346516D01*
X82844200Y-98337900D01*
X82844200Y-97537100D01*
X82844623Y-97528484D01*
X82845889Y-97519952D01*
X82847985Y-97511584D01*
X82850891Y-97503462D01*
X82854579Y-97495664D01*
X82859014Y-97488265D01*
X82864152Y-97481337D01*
X82869945Y-97474945D01*
X82876337Y-97469152D01*
X82883265Y-97464014D01*
X82890664Y-97459579D01*
X82898462Y-97455891D01*
X82906584Y-97452985D01*
X82914952Y-97450889D01*
X82923484Y-97449623D01*
X82932100Y-97449200D01*
X83107900Y-97449200D01*
X83116516Y-97449623D01*
G37*
G36*
X83616516Y-97449623D02*
G01*
X83625048Y-97450889D01*
X83633416Y-97452985D01*
X83641538Y-97455891D01*
X83649336Y-97459579D01*
X83656735Y-97464014D01*
X83663663Y-97469152D01*
X83670055Y-97474945D01*
X83675848Y-97481337D01*
X83680986Y-97488265D01*
X83685421Y-97495664D01*
X83689109Y-97503462D01*
X83692015Y-97511584D01*
X83694111Y-97519952D01*
X83695377Y-97528484D01*
X83695800Y-97537100D01*
X83695800Y-98337900D01*
X83695377Y-98346516D01*
X83694111Y-98355048D01*
X83692015Y-98363416D01*
X83689109Y-98371538D01*
X83685421Y-98379336D01*
X83680986Y-98386735D01*
X83675848Y-98393663D01*
X83670055Y-98400055D01*
X83663663Y-98405848D01*
X83656735Y-98410986D01*
X83649336Y-98415421D01*
X83641538Y-98419109D01*
X83633416Y-98422015D01*
X83625048Y-98424111D01*
X83616516Y-98425377D01*
X83607900Y-98425800D01*
X83432100Y-98425800D01*
X83423484Y-98425377D01*
X83414952Y-98424111D01*
X83406584Y-98422015D01*
X83398462Y-98419109D01*
X83390664Y-98415421D01*
X83383265Y-98410986D01*
X83376337Y-98405848D01*
X83369945Y-98400055D01*
X83364152Y-98393663D01*
X83359014Y-98386735D01*
X83354579Y-98379336D01*
X83350891Y-98371538D01*
X83347985Y-98363416D01*
X83345889Y-98355048D01*
X83344623Y-98346516D01*
X83344200Y-98337900D01*
X83344200Y-97537100D01*
X83344623Y-97528484D01*
X83345889Y-97519952D01*
X83347985Y-97511584D01*
X83350891Y-97503462D01*
X83354579Y-97495664D01*
X83359014Y-97488265D01*
X83364152Y-97481337D01*
X83369945Y-97474945D01*
X83376337Y-97469152D01*
X83383265Y-97464014D01*
X83390664Y-97459579D01*
X83398462Y-97455891D01*
X83406584Y-97452985D01*
X83414952Y-97450889D01*
X83423484Y-97449623D01*
X83432100Y-97449200D01*
X83607900Y-97449200D01*
X83616516Y-97449623D01*
G37*
G36*
X84116516Y-97449623D02*
G01*
X84125048Y-97450889D01*
X84133416Y-97452985D01*
X84141538Y-97455891D01*
X84149336Y-97459579D01*
X84156735Y-97464014D01*
X84163663Y-97469152D01*
X84170055Y-97474945D01*
X84175848Y-97481337D01*
X84180986Y-97488265D01*
X84185421Y-97495664D01*
X84189109Y-97503462D01*
X84192015Y-97511584D01*
X84194111Y-97519952D01*
X84195377Y-97528484D01*
X84195800Y-97537100D01*
X84195800Y-98337900D01*
X84195377Y-98346516D01*
X84194111Y-98355048D01*
X84192015Y-98363416D01*
X84189109Y-98371538D01*
X84185421Y-98379336D01*
X84180986Y-98386735D01*
X84175848Y-98393663D01*
X84170055Y-98400055D01*
X84163663Y-98405848D01*
X84156735Y-98410986D01*
X84149336Y-98415421D01*
X84141538Y-98419109D01*
X84133416Y-98422015D01*
X84125048Y-98424111D01*
X84116516Y-98425377D01*
X84107900Y-98425800D01*
X83932100Y-98425800D01*
X83923484Y-98425377D01*
X83914952Y-98424111D01*
X83906584Y-98422015D01*
X83898462Y-98419109D01*
X83890664Y-98415421D01*
X83883265Y-98410986D01*
X83876337Y-98405848D01*
X83869945Y-98400055D01*
X83864152Y-98393663D01*
X83859014Y-98386735D01*
X83854579Y-98379336D01*
X83850891Y-98371538D01*
X83847985Y-98363416D01*
X83845889Y-98355048D01*
X83844623Y-98346516D01*
X83844200Y-98337900D01*
X83844200Y-97537100D01*
X83844623Y-97528484D01*
X83845889Y-97519952D01*
X83847985Y-97511584D01*
X83850891Y-97503462D01*
X83854579Y-97495664D01*
X83859014Y-97488265D01*
X83864152Y-97481337D01*
X83869945Y-97474945D01*
X83876337Y-97469152D01*
X83883265Y-97464014D01*
X83890664Y-97459579D01*
X83898462Y-97455891D01*
X83906584Y-97452985D01*
X83914952Y-97450889D01*
X83923484Y-97449623D01*
X83932100Y-97449200D01*
X84107900Y-97449200D01*
X84116516Y-97449623D01*
G37*
G36*
X84616516Y-97449623D02*
G01*
X84625048Y-97450889D01*
X84633416Y-97452985D01*
X84641538Y-97455891D01*
X84649336Y-97459579D01*
X84656735Y-97464014D01*
X84663663Y-97469152D01*
X84670055Y-97474945D01*
X84675848Y-97481337D01*
X84680986Y-97488265D01*
X84685421Y-97495664D01*
X84689109Y-97503462D01*
X84692015Y-97511584D01*
X84694111Y-97519952D01*
X84695377Y-97528484D01*
X84695800Y-97537100D01*
X84695800Y-98337900D01*
X84695377Y-98346516D01*
X84694111Y-98355048D01*
X84692015Y-98363416D01*
X84689109Y-98371538D01*
X84685421Y-98379336D01*
X84680986Y-98386735D01*
X84675848Y-98393663D01*
X84670055Y-98400055D01*
X84663663Y-98405848D01*
X84656735Y-98410986D01*
X84649336Y-98415421D01*
X84641538Y-98419109D01*
X84633416Y-98422015D01*
X84625048Y-98424111D01*
X84616516Y-98425377D01*
X84607900Y-98425800D01*
X84432100Y-98425800D01*
X84423484Y-98425377D01*
X84414952Y-98424111D01*
X84406584Y-98422015D01*
X84398462Y-98419109D01*
X84390664Y-98415421D01*
X84383265Y-98410986D01*
X84376337Y-98405848D01*
X84369945Y-98400055D01*
X84364152Y-98393663D01*
X84359014Y-98386735D01*
X84354579Y-98379336D01*
X84350891Y-98371538D01*
X84347985Y-98363416D01*
X84345889Y-98355048D01*
X84344623Y-98346516D01*
X84344200Y-98337900D01*
X84344200Y-97537100D01*
X84344623Y-97528484D01*
X84345889Y-97519952D01*
X84347985Y-97511584D01*
X84350891Y-97503462D01*
X84354579Y-97495664D01*
X84359014Y-97488265D01*
X84364152Y-97481337D01*
X84369945Y-97474945D01*
X84376337Y-97469152D01*
X84383265Y-97464014D01*
X84390664Y-97459579D01*
X84398462Y-97455891D01*
X84406584Y-97452985D01*
X84414952Y-97450889D01*
X84423484Y-97449623D01*
X84432100Y-97449200D01*
X84607900Y-97449200D01*
X84616516Y-97449623D01*
G37*
G36*
X85116516Y-97449623D02*
G01*
X85125048Y-97450889D01*
X85133416Y-97452985D01*
X85141538Y-97455891D01*
X85149336Y-97459579D01*
X85156735Y-97464014D01*
X85163663Y-97469152D01*
X85170055Y-97474945D01*
X85175848Y-97481337D01*
X85180986Y-97488265D01*
X85185421Y-97495664D01*
X85189109Y-97503462D01*
X85192015Y-97511584D01*
X85194111Y-97519952D01*
X85195377Y-97528484D01*
X85195800Y-97537100D01*
X85195800Y-98337900D01*
X85195377Y-98346516D01*
X85194111Y-98355048D01*
X85192015Y-98363416D01*
X85189109Y-98371538D01*
X85185421Y-98379336D01*
X85180986Y-98386735D01*
X85175848Y-98393663D01*
X85170055Y-98400055D01*
X85163663Y-98405848D01*
X85156735Y-98410986D01*
X85149336Y-98415421D01*
X85141538Y-98419109D01*
X85133416Y-98422015D01*
X85125048Y-98424111D01*
X85116516Y-98425377D01*
X85107900Y-98425800D01*
X84932100Y-98425800D01*
X84923484Y-98425377D01*
X84914952Y-98424111D01*
X84906584Y-98422015D01*
X84898462Y-98419109D01*
X84890664Y-98415421D01*
X84883265Y-98410986D01*
X84876337Y-98405848D01*
X84869945Y-98400055D01*
X84864152Y-98393663D01*
X84859014Y-98386735D01*
X84854579Y-98379336D01*
X84850891Y-98371538D01*
X84847985Y-98363416D01*
X84845889Y-98355048D01*
X84844623Y-98346516D01*
X84844200Y-98337900D01*
X84844200Y-97537100D01*
X84844623Y-97528484D01*
X84845889Y-97519952D01*
X84847985Y-97511584D01*
X84850891Y-97503462D01*
X84854579Y-97495664D01*
X84859014Y-97488265D01*
X84864152Y-97481337D01*
X84869945Y-97474945D01*
X84876337Y-97469152D01*
X84883265Y-97464014D01*
X84890664Y-97459579D01*
X84898462Y-97455891D01*
X84906584Y-97452985D01*
X84914952Y-97450889D01*
X84923484Y-97449623D01*
X84932100Y-97449200D01*
X85107900Y-97449200D01*
X85116516Y-97449623D01*
G37*
G36*
X85616516Y-97449623D02*
G01*
X85625048Y-97450889D01*
X85633416Y-97452985D01*
X85641538Y-97455891D01*
X85649336Y-97459579D01*
X85656735Y-97464014D01*
X85663663Y-97469152D01*
X85670055Y-97474945D01*
X85675848Y-97481337D01*
X85680986Y-97488265D01*
X85685421Y-97495664D01*
X85689109Y-97503462D01*
X85692015Y-97511584D01*
X85694111Y-97519952D01*
X85695377Y-97528484D01*
X85695800Y-97537100D01*
X85695800Y-98337900D01*
X85695377Y-98346516D01*
X85694111Y-98355048D01*
X85692015Y-98363416D01*
X85689109Y-98371538D01*
X85685421Y-98379336D01*
X85680986Y-98386735D01*
X85675848Y-98393663D01*
X85670055Y-98400055D01*
X85663663Y-98405848D01*
X85656735Y-98410986D01*
X85649336Y-98415421D01*
X85641538Y-98419109D01*
X85633416Y-98422015D01*
X85625048Y-98424111D01*
X85616516Y-98425377D01*
X85607900Y-98425800D01*
X85432100Y-98425800D01*
X85423484Y-98425377D01*
X85414952Y-98424111D01*
X85406584Y-98422015D01*
X85398462Y-98419109D01*
X85390664Y-98415421D01*
X85383265Y-98410986D01*
X85376337Y-98405848D01*
X85369945Y-98400055D01*
X85364152Y-98393663D01*
X85359014Y-98386735D01*
X85354579Y-98379336D01*
X85350891Y-98371538D01*
X85347985Y-98363416D01*
X85345889Y-98355048D01*
X85344623Y-98346516D01*
X85344200Y-98337900D01*
X85344200Y-97537100D01*
X85344623Y-97528484D01*
X85345889Y-97519952D01*
X85347985Y-97511584D01*
X85350891Y-97503462D01*
X85354579Y-97495664D01*
X85359014Y-97488265D01*
X85364152Y-97481337D01*
X85369945Y-97474945D01*
X85376337Y-97469152D01*
X85383265Y-97464014D01*
X85390664Y-97459579D01*
X85398462Y-97455891D01*
X85406584Y-97452985D01*
X85414952Y-97450889D01*
X85423484Y-97449623D01*
X85432100Y-97449200D01*
X85607900Y-97449200D01*
X85616516Y-97449623D01*
G37*
G36*
X86116516Y-97449623D02*
G01*
X86125048Y-97450889D01*
X86133416Y-97452985D01*
X86141538Y-97455891D01*
X86149336Y-97459579D01*
X86156735Y-97464014D01*
X86163663Y-97469152D01*
X86170055Y-97474945D01*
X86175848Y-97481337D01*
X86180986Y-97488265D01*
X86185421Y-97495664D01*
X86189109Y-97503462D01*
X86192015Y-97511584D01*
X86194111Y-97519952D01*
X86195377Y-97528484D01*
X86195800Y-97537100D01*
X86195800Y-98337900D01*
X86195377Y-98346516D01*
X86194111Y-98355048D01*
X86192015Y-98363416D01*
X86189109Y-98371538D01*
X86185421Y-98379336D01*
X86180986Y-98386735D01*
X86175848Y-98393663D01*
X86170055Y-98400055D01*
X86163663Y-98405848D01*
X86156735Y-98410986D01*
X86149336Y-98415421D01*
X86141538Y-98419109D01*
X86133416Y-98422015D01*
X86125048Y-98424111D01*
X86116516Y-98425377D01*
X86107900Y-98425800D01*
X85932100Y-98425800D01*
X85923484Y-98425377D01*
X85914952Y-98424111D01*
X85906584Y-98422015D01*
X85898462Y-98419109D01*
X85890664Y-98415421D01*
X85883265Y-98410986D01*
X85876337Y-98405848D01*
X85869945Y-98400055D01*
X85864152Y-98393663D01*
X85859014Y-98386735D01*
X85854579Y-98379336D01*
X85850891Y-98371538D01*
X85847985Y-98363416D01*
X85845889Y-98355048D01*
X85844623Y-98346516D01*
X85844200Y-98337900D01*
X85844200Y-97537100D01*
X85844623Y-97528484D01*
X85845889Y-97519952D01*
X85847985Y-97511584D01*
X85850891Y-97503462D01*
X85854579Y-97495664D01*
X85859014Y-97488265D01*
X85864152Y-97481337D01*
X85869945Y-97474945D01*
X85876337Y-97469152D01*
X85883265Y-97464014D01*
X85890664Y-97459579D01*
X85898462Y-97455891D01*
X85906584Y-97452985D01*
X85914952Y-97450889D01*
X85923484Y-97449623D01*
X85932100Y-97449200D01*
X86107900Y-97449200D01*
X86116516Y-97449623D01*
G37*
G36*
X87116516Y-98449623D02*
G01*
X87125048Y-98450889D01*
X87133416Y-98452985D01*
X87141538Y-98455891D01*
X87149336Y-98459579D01*
X87156735Y-98464014D01*
X87163663Y-98469152D01*
X87170055Y-98474945D01*
X87175848Y-98481337D01*
X87180986Y-98488265D01*
X87185421Y-98495664D01*
X87189109Y-98503462D01*
X87192015Y-98511584D01*
X87194111Y-98519952D01*
X87195377Y-98528484D01*
X87195800Y-98537100D01*
X87195800Y-98712900D01*
X87195377Y-98721516D01*
X87194111Y-98730048D01*
X87192015Y-98738416D01*
X87189109Y-98746538D01*
X87185421Y-98754336D01*
X87180986Y-98761735D01*
X87175848Y-98768663D01*
X87170055Y-98775055D01*
X87163663Y-98780848D01*
X87156735Y-98785986D01*
X87149336Y-98790421D01*
X87141538Y-98794109D01*
X87133416Y-98797015D01*
X87125048Y-98799111D01*
X87116516Y-98800377D01*
X87107900Y-98800800D01*
X86307100Y-98800800D01*
X86298484Y-98800377D01*
X86289952Y-98799111D01*
X86281584Y-98797015D01*
X86273462Y-98794109D01*
X86265664Y-98790421D01*
X86258265Y-98785986D01*
X86251337Y-98780848D01*
X86244945Y-98775055D01*
X86239152Y-98768663D01*
X86234014Y-98761735D01*
X86229579Y-98754336D01*
X86225891Y-98746538D01*
X86222985Y-98738416D01*
X86220889Y-98730048D01*
X86219623Y-98721516D01*
X86219200Y-98712900D01*
X86219200Y-98537100D01*
X86219623Y-98528484D01*
X86220889Y-98519952D01*
X86222985Y-98511584D01*
X86225891Y-98503462D01*
X86229579Y-98495664D01*
X86234014Y-98488265D01*
X86239152Y-98481337D01*
X86244945Y-98474945D01*
X86251337Y-98469152D01*
X86258265Y-98464014D01*
X86265664Y-98459579D01*
X86273462Y-98455891D01*
X86281584Y-98452985D01*
X86289952Y-98450889D01*
X86298484Y-98449623D01*
X86307100Y-98449200D01*
X87107900Y-98449200D01*
X87116516Y-98449623D01*
G37*
G36*
X87116516Y-98949623D02*
G01*
X87125048Y-98950889D01*
X87133416Y-98952985D01*
X87141538Y-98955891D01*
X87149336Y-98959579D01*
X87156735Y-98964014D01*
X87163663Y-98969152D01*
X87170055Y-98974945D01*
X87175848Y-98981337D01*
X87180986Y-98988265D01*
X87185421Y-98995664D01*
X87189109Y-99003462D01*
X87192015Y-99011584D01*
X87194111Y-99019952D01*
X87195377Y-99028484D01*
X87195800Y-99037100D01*
X87195800Y-99212900D01*
X87195377Y-99221516D01*
X87194111Y-99230048D01*
X87192015Y-99238416D01*
X87189109Y-99246538D01*
X87185421Y-99254336D01*
X87180986Y-99261735D01*
X87175848Y-99268663D01*
X87170055Y-99275055D01*
X87163663Y-99280848D01*
X87156735Y-99285986D01*
X87149336Y-99290421D01*
X87141538Y-99294109D01*
X87133416Y-99297015D01*
X87125048Y-99299111D01*
X87116516Y-99300377D01*
X87107900Y-99300800D01*
X86307100Y-99300800D01*
X86298484Y-99300377D01*
X86289952Y-99299111D01*
X86281584Y-99297015D01*
X86273462Y-99294109D01*
X86265664Y-99290421D01*
X86258265Y-99285986D01*
X86251337Y-99280848D01*
X86244945Y-99275055D01*
X86239152Y-99268663D01*
X86234014Y-99261735D01*
X86229579Y-99254336D01*
X86225891Y-99246538D01*
X86222985Y-99238416D01*
X86220889Y-99230048D01*
X86219623Y-99221516D01*
X86219200Y-99212900D01*
X86219200Y-99037100D01*
X86219623Y-99028484D01*
X86220889Y-99019952D01*
X86222985Y-99011584D01*
X86225891Y-99003462D01*
X86229579Y-98995664D01*
X86234014Y-98988265D01*
X86239152Y-98981337D01*
X86244945Y-98974945D01*
X86251337Y-98969152D01*
X86258265Y-98964014D01*
X86265664Y-98959579D01*
X86273462Y-98955891D01*
X86281584Y-98952985D01*
X86289952Y-98950889D01*
X86298484Y-98949623D01*
X86307100Y-98949200D01*
X87107900Y-98949200D01*
X87116516Y-98949623D01*
G37*
G36*
X87116516Y-99449623D02*
G01*
X87125048Y-99450889D01*
X87133416Y-99452985D01*
X87141538Y-99455891D01*
X87149336Y-99459579D01*
X87156735Y-99464014D01*
X87163663Y-99469152D01*
X87170055Y-99474945D01*
X87175848Y-99481337D01*
X87180986Y-99488265D01*
X87185421Y-99495664D01*
X87189109Y-99503462D01*
X87192015Y-99511584D01*
X87194111Y-99519952D01*
X87195377Y-99528484D01*
X87195800Y-99537100D01*
X87195800Y-99712900D01*
X87195377Y-99721516D01*
X87194111Y-99730048D01*
X87192015Y-99738416D01*
X87189109Y-99746538D01*
X87185421Y-99754336D01*
X87180986Y-99761735D01*
X87175848Y-99768663D01*
X87170055Y-99775055D01*
X87163663Y-99780848D01*
X87156735Y-99785986D01*
X87149336Y-99790421D01*
X87141538Y-99794109D01*
X87133416Y-99797015D01*
X87125048Y-99799111D01*
X87116516Y-99800377D01*
X87107900Y-99800800D01*
X86307100Y-99800800D01*
X86298484Y-99800377D01*
X86289952Y-99799111D01*
X86281584Y-99797015D01*
X86273462Y-99794109D01*
X86265664Y-99790421D01*
X86258265Y-99785986D01*
X86251337Y-99780848D01*
X86244945Y-99775055D01*
X86239152Y-99768663D01*
X86234014Y-99761735D01*
X86229579Y-99754336D01*
X86225891Y-99746538D01*
X86222985Y-99738416D01*
X86220889Y-99730048D01*
X86219623Y-99721516D01*
X86219200Y-99712900D01*
X86219200Y-99537100D01*
X86219623Y-99528484D01*
X86220889Y-99519952D01*
X86222985Y-99511584D01*
X86225891Y-99503462D01*
X86229579Y-99495664D01*
X86234014Y-99488265D01*
X86239152Y-99481337D01*
X86244945Y-99474945D01*
X86251337Y-99469152D01*
X86258265Y-99464014D01*
X86265664Y-99459579D01*
X86273462Y-99455891D01*
X86281584Y-99452985D01*
X86289952Y-99450889D01*
X86298484Y-99449623D01*
X86307100Y-99449200D01*
X87107900Y-99449200D01*
X87116516Y-99449623D01*
G37*
G36*
X87116516Y-99949623D02*
G01*
X87125048Y-99950889D01*
X87133416Y-99952985D01*
X87141538Y-99955891D01*
X87149336Y-99959579D01*
X87156735Y-99964014D01*
X87163663Y-99969152D01*
X87170055Y-99974945D01*
X87175848Y-99981337D01*
X87180986Y-99988265D01*
X87185421Y-99995664D01*
X87189109Y-100003462D01*
X87192015Y-100011584D01*
X87194111Y-100019952D01*
X87195377Y-100028484D01*
X87195800Y-100037100D01*
X87195800Y-100212900D01*
X87195377Y-100221516D01*
X87194111Y-100230048D01*
X87192015Y-100238416D01*
X87189109Y-100246538D01*
X87185421Y-100254336D01*
X87180986Y-100261735D01*
X87175848Y-100268663D01*
X87170055Y-100275055D01*
X87163663Y-100280848D01*
X87156735Y-100285986D01*
X87149336Y-100290421D01*
X87141538Y-100294109D01*
X87133416Y-100297015D01*
X87125048Y-100299111D01*
X87116516Y-100300377D01*
X87107900Y-100300800D01*
X86307100Y-100300800D01*
X86298484Y-100300377D01*
X86289952Y-100299111D01*
X86281584Y-100297015D01*
X86273462Y-100294109D01*
X86265664Y-100290421D01*
X86258265Y-100285986D01*
X86251337Y-100280848D01*
X86244945Y-100275055D01*
X86239152Y-100268663D01*
X86234014Y-100261735D01*
X86229579Y-100254336D01*
X86225891Y-100246538D01*
X86222985Y-100238416D01*
X86220889Y-100230048D01*
X86219623Y-100221516D01*
X86219200Y-100212900D01*
X86219200Y-100037100D01*
X86219623Y-100028484D01*
X86220889Y-100019952D01*
X86222985Y-100011584D01*
X86225891Y-100003462D01*
X86229579Y-99995664D01*
X86234014Y-99988265D01*
X86239152Y-99981337D01*
X86244945Y-99974945D01*
X86251337Y-99969152D01*
X86258265Y-99964014D01*
X86265664Y-99959579D01*
X86273462Y-99955891D01*
X86281584Y-99952985D01*
X86289952Y-99950889D01*
X86298484Y-99949623D01*
X86307100Y-99949200D01*
X87107900Y-99949200D01*
X87116516Y-99949623D01*
G37*
G36*
X87116516Y-100449623D02*
G01*
X87125048Y-100450889D01*
X87133416Y-100452985D01*
X87141538Y-100455891D01*
X87149336Y-100459579D01*
X87156735Y-100464014D01*
X87163663Y-100469152D01*
X87170055Y-100474945D01*
X87175848Y-100481337D01*
X87180986Y-100488265D01*
X87185421Y-100495664D01*
X87189109Y-100503462D01*
X87192015Y-100511584D01*
X87194111Y-100519952D01*
X87195377Y-100528484D01*
X87195800Y-100537100D01*
X87195800Y-100712900D01*
X87195377Y-100721516D01*
X87194111Y-100730048D01*
X87192015Y-100738416D01*
X87189109Y-100746538D01*
X87185421Y-100754336D01*
X87180986Y-100761735D01*
X87175848Y-100768663D01*
X87170055Y-100775055D01*
X87163663Y-100780848D01*
X87156735Y-100785986D01*
X87149336Y-100790421D01*
X87141538Y-100794109D01*
X87133416Y-100797015D01*
X87125048Y-100799111D01*
X87116516Y-100800377D01*
X87107900Y-100800800D01*
X86307100Y-100800800D01*
X86298484Y-100800377D01*
X86289952Y-100799111D01*
X86281584Y-100797015D01*
X86273462Y-100794109D01*
X86265664Y-100790421D01*
X86258265Y-100785986D01*
X86251337Y-100780848D01*
X86244945Y-100775055D01*
X86239152Y-100768663D01*
X86234014Y-100761735D01*
X86229579Y-100754336D01*
X86225891Y-100746538D01*
X86222985Y-100738416D01*
X86220889Y-100730048D01*
X86219623Y-100721516D01*
X86219200Y-100712900D01*
X86219200Y-100537100D01*
X86219623Y-100528484D01*
X86220889Y-100519952D01*
X86222985Y-100511584D01*
X86225891Y-100503462D01*
X86229579Y-100495664D01*
X86234014Y-100488265D01*
X86239152Y-100481337D01*
X86244945Y-100474945D01*
X86251337Y-100469152D01*
X86258265Y-100464014D01*
X86265664Y-100459579D01*
X86273462Y-100455891D01*
X86281584Y-100452985D01*
X86289952Y-100450889D01*
X86298484Y-100449623D01*
X86307100Y-100449200D01*
X87107900Y-100449200D01*
X87116516Y-100449623D01*
G37*
G36*
X87116516Y-100949623D02*
G01*
X87125048Y-100950889D01*
X87133416Y-100952985D01*
X87141538Y-100955891D01*
X87149336Y-100959579D01*
X87156735Y-100964014D01*
X87163663Y-100969152D01*
X87170055Y-100974945D01*
X87175848Y-100981337D01*
X87180986Y-100988265D01*
X87185421Y-100995664D01*
X87189109Y-101003462D01*
X87192015Y-101011584D01*
X87194111Y-101019952D01*
X87195377Y-101028484D01*
X87195800Y-101037100D01*
X87195800Y-101212900D01*
X87195377Y-101221516D01*
X87194111Y-101230048D01*
X87192015Y-101238416D01*
X87189109Y-101246538D01*
X87185421Y-101254336D01*
X87180986Y-101261735D01*
X87175848Y-101268663D01*
X87170055Y-101275055D01*
X87163663Y-101280848D01*
X87156735Y-101285986D01*
X87149336Y-101290421D01*
X87141538Y-101294109D01*
X87133416Y-101297015D01*
X87125048Y-101299111D01*
X87116516Y-101300377D01*
X87107900Y-101300800D01*
X86307100Y-101300800D01*
X86298484Y-101300377D01*
X86289952Y-101299111D01*
X86281584Y-101297015D01*
X86273462Y-101294109D01*
X86265664Y-101290421D01*
X86258265Y-101285986D01*
X86251337Y-101280848D01*
X86244945Y-101275055D01*
X86239152Y-101268663D01*
X86234014Y-101261735D01*
X86229579Y-101254336D01*
X86225891Y-101246538D01*
X86222985Y-101238416D01*
X86220889Y-101230048D01*
X86219623Y-101221516D01*
X86219200Y-101212900D01*
X86219200Y-101037100D01*
X86219623Y-101028484D01*
X86220889Y-101019952D01*
X86222985Y-101011584D01*
X86225891Y-101003462D01*
X86229579Y-100995664D01*
X86234014Y-100988265D01*
X86239152Y-100981337D01*
X86244945Y-100974945D01*
X86251337Y-100969152D01*
X86258265Y-100964014D01*
X86265664Y-100959579D01*
X86273462Y-100955891D01*
X86281584Y-100952985D01*
X86289952Y-100950889D01*
X86298484Y-100949623D01*
X86307100Y-100949200D01*
X87107900Y-100949200D01*
X87116516Y-100949623D01*
G37*
G36*
X87116516Y-101449623D02*
G01*
X87125048Y-101450889D01*
X87133416Y-101452985D01*
X87141538Y-101455891D01*
X87149336Y-101459579D01*
X87156735Y-101464014D01*
X87163663Y-101469152D01*
X87170055Y-101474945D01*
X87175848Y-101481337D01*
X87180986Y-101488265D01*
X87185421Y-101495664D01*
X87189109Y-101503462D01*
X87192015Y-101511584D01*
X87194111Y-101519952D01*
X87195377Y-101528484D01*
X87195800Y-101537100D01*
X87195800Y-101712900D01*
X87195377Y-101721516D01*
X87194111Y-101730048D01*
X87192015Y-101738416D01*
X87189109Y-101746538D01*
X87185421Y-101754336D01*
X87180986Y-101761735D01*
X87175848Y-101768663D01*
X87170055Y-101775055D01*
X87163663Y-101780848D01*
X87156735Y-101785986D01*
X87149336Y-101790421D01*
X87141538Y-101794109D01*
X87133416Y-101797015D01*
X87125048Y-101799111D01*
X87116516Y-101800377D01*
X87107900Y-101800800D01*
X86307100Y-101800800D01*
X86298484Y-101800377D01*
X86289952Y-101799111D01*
X86281584Y-101797015D01*
X86273462Y-101794109D01*
X86265664Y-101790421D01*
X86258265Y-101785986D01*
X86251337Y-101780848D01*
X86244945Y-101775055D01*
X86239152Y-101768663D01*
X86234014Y-101761735D01*
X86229579Y-101754336D01*
X86225891Y-101746538D01*
X86222985Y-101738416D01*
X86220889Y-101730048D01*
X86219623Y-101721516D01*
X86219200Y-101712900D01*
X86219200Y-101537100D01*
X86219623Y-101528484D01*
X86220889Y-101519952D01*
X86222985Y-101511584D01*
X86225891Y-101503462D01*
X86229579Y-101495664D01*
X86234014Y-101488265D01*
X86239152Y-101481337D01*
X86244945Y-101474945D01*
X86251337Y-101469152D01*
X86258265Y-101464014D01*
X86265664Y-101459579D01*
X86273462Y-101455891D01*
X86281584Y-101452985D01*
X86289952Y-101450889D01*
X86298484Y-101449623D01*
X86307100Y-101449200D01*
X87107900Y-101449200D01*
X87116516Y-101449623D01*
G37*
G36*
X87116516Y-101949623D02*
G01*
X87125048Y-101950889D01*
X87133416Y-101952985D01*
X87141538Y-101955891D01*
X87149336Y-101959579D01*
X87156735Y-101964014D01*
X87163663Y-101969152D01*
X87170055Y-101974945D01*
X87175848Y-101981337D01*
X87180986Y-101988265D01*
X87185421Y-101995664D01*
X87189109Y-102003462D01*
X87192015Y-102011584D01*
X87194111Y-102019952D01*
X87195377Y-102028484D01*
X87195800Y-102037100D01*
X87195800Y-102212900D01*
X87195377Y-102221516D01*
X87194111Y-102230048D01*
X87192015Y-102238416D01*
X87189109Y-102246538D01*
X87185421Y-102254336D01*
X87180986Y-102261735D01*
X87175848Y-102268663D01*
X87170055Y-102275055D01*
X87163663Y-102280848D01*
X87156735Y-102285986D01*
X87149336Y-102290421D01*
X87141538Y-102294109D01*
X87133416Y-102297015D01*
X87125048Y-102299111D01*
X87116516Y-102300377D01*
X87107900Y-102300800D01*
X86307100Y-102300800D01*
X86298484Y-102300377D01*
X86289952Y-102299111D01*
X86281584Y-102297015D01*
X86273462Y-102294109D01*
X86265664Y-102290421D01*
X86258265Y-102285986D01*
X86251337Y-102280848D01*
X86244945Y-102275055D01*
X86239152Y-102268663D01*
X86234014Y-102261735D01*
X86229579Y-102254336D01*
X86225891Y-102246538D01*
X86222985Y-102238416D01*
X86220889Y-102230048D01*
X86219623Y-102221516D01*
X86219200Y-102212900D01*
X86219200Y-102037100D01*
X86219623Y-102028484D01*
X86220889Y-102019952D01*
X86222985Y-102011584D01*
X86225891Y-102003462D01*
X86229579Y-101995664D01*
X86234014Y-101988265D01*
X86239152Y-101981337D01*
X86244945Y-101974945D01*
X86251337Y-101969152D01*
X86258265Y-101964014D01*
X86265664Y-101959579D01*
X86273462Y-101955891D01*
X86281584Y-101952985D01*
X86289952Y-101950889D01*
X86298484Y-101949623D01*
X86307100Y-101949200D01*
X87107900Y-101949200D01*
X87116516Y-101949623D01*
G37*
G36*
X85813663Y-98600439D02*
G01*
X85838646Y-98604145D01*
X85863146Y-98610282D01*
X85886926Y-98618791D01*
X85909757Y-98629589D01*
X85931420Y-98642573D01*
X85951706Y-98657619D01*
X85970420Y-98674580D01*
X85987381Y-98693294D01*
X86002427Y-98713580D01*
X86015411Y-98735243D01*
X86026209Y-98758074D01*
X86034718Y-98781854D01*
X86040855Y-98806354D01*
X86044561Y-98831337D01*
X86045800Y-98856563D01*
X86045800Y-101893437D01*
X86044561Y-101918663D01*
X86040855Y-101943646D01*
X86034718Y-101968146D01*
X86026209Y-101991926D01*
X86015411Y-102014757D01*
X86002427Y-102036420D01*
X85987381Y-102056706D01*
X85970420Y-102075420D01*
X85951706Y-102092381D01*
X85931420Y-102107427D01*
X85909757Y-102120411D01*
X85886926Y-102131209D01*
X85863146Y-102139718D01*
X85838646Y-102145855D01*
X85813663Y-102149561D01*
X85788437Y-102150800D01*
X82751563Y-102150800D01*
X82726337Y-102149561D01*
X82701354Y-102145855D01*
X82676854Y-102139718D01*
X82653074Y-102131209D01*
X82630243Y-102120411D01*
X82608580Y-102107427D01*
X82588294Y-102092381D01*
X82569580Y-102075420D01*
X82552619Y-102056706D01*
X82537573Y-102036420D01*
X82524589Y-102014757D01*
X82513791Y-101991926D01*
X82505282Y-101968146D01*
X82499145Y-101943646D01*
X82495439Y-101918663D01*
X82494200Y-101893437D01*
X82494200Y-98856563D01*
X82495439Y-98831337D01*
X82499145Y-98806354D01*
X82505282Y-98781854D01*
X82513791Y-98758074D01*
X82524589Y-98735243D01*
X82537573Y-98713580D01*
X82552619Y-98693294D01*
X82569580Y-98674580D01*
X82588294Y-98657619D01*
X82608580Y-98642573D01*
X82630243Y-98629589D01*
X82653074Y-98618791D01*
X82676854Y-98610282D01*
X82701354Y-98604145D01*
X82726337Y-98600439D01*
X82751563Y-98599200D01*
X85788437Y-98599200D01*
X85813663Y-98600439D01*
G37*
G36*
X108830581Y-94470376D02*
G01*
X108854281Y-94473891D01*
X108877523Y-94479713D01*
X108900082Y-94487785D01*
X108921742Y-94498029D01*
X108942292Y-94510347D01*
X108961537Y-94524619D01*
X108979290Y-94540710D01*
X108995381Y-94558463D01*
X109009653Y-94577708D01*
X109021971Y-94598258D01*
X109032215Y-94619918D01*
X109040287Y-94642477D01*
X109046109Y-94665719D01*
X109049624Y-94689419D01*
X109050800Y-94713350D01*
X109050800Y-95276650D01*
X109049624Y-95300581D01*
X109046109Y-95324281D01*
X109040287Y-95347523D01*
X109032215Y-95370082D01*
X109021971Y-95391742D01*
X109009653Y-95412292D01*
X108995381Y-95431537D01*
X108979290Y-95449290D01*
X108961537Y-95465381D01*
X108942292Y-95479653D01*
X108921742Y-95491971D01*
X108900082Y-95502215D01*
X108877523Y-95510287D01*
X108854281Y-95516109D01*
X108830581Y-95519624D01*
X108806650Y-95520800D01*
X108318350Y-95520800D01*
X108294419Y-95519624D01*
X108270719Y-95516109D01*
X108247477Y-95510287D01*
X108224918Y-95502215D01*
X108203258Y-95491971D01*
X108182708Y-95479653D01*
X108163463Y-95465381D01*
X108145710Y-95449290D01*
X108129619Y-95431537D01*
X108115347Y-95412292D01*
X108103029Y-95391742D01*
X108092785Y-95370082D01*
X108084713Y-95347523D01*
X108078891Y-95324281D01*
X108075376Y-95300581D01*
X108074200Y-95276650D01*
X108074200Y-94713350D01*
X108075376Y-94689419D01*
X108078891Y-94665719D01*
X108084713Y-94642477D01*
X108092785Y-94619918D01*
X108103029Y-94598258D01*
X108115347Y-94577708D01*
X108129619Y-94558463D01*
X108145710Y-94540710D01*
X108163463Y-94524619D01*
X108182708Y-94510347D01*
X108203258Y-94498029D01*
X108224918Y-94487785D01*
X108247477Y-94479713D01*
X108270719Y-94473891D01*
X108294419Y-94470376D01*
X108318350Y-94469200D01*
X108806650Y-94469200D01*
X108830581Y-94470376D01*
G37*
G36*
X110405581Y-94470376D02*
G01*
X110429281Y-94473891D01*
X110452523Y-94479713D01*
X110475082Y-94487785D01*
X110496742Y-94498029D01*
X110517292Y-94510347D01*
X110536537Y-94524619D01*
X110554290Y-94540710D01*
X110570381Y-94558463D01*
X110584653Y-94577708D01*
X110596971Y-94598258D01*
X110607215Y-94619918D01*
X110615287Y-94642477D01*
X110621109Y-94665719D01*
X110624624Y-94689419D01*
X110625800Y-94713350D01*
X110625800Y-95276650D01*
X110624624Y-95300581D01*
X110621109Y-95324281D01*
X110615287Y-95347523D01*
X110607215Y-95370082D01*
X110596971Y-95391742D01*
X110584653Y-95412292D01*
X110570381Y-95431537D01*
X110554290Y-95449290D01*
X110536537Y-95465381D01*
X110517292Y-95479653D01*
X110496742Y-95491971D01*
X110475082Y-95502215D01*
X110452523Y-95510287D01*
X110429281Y-95516109D01*
X110405581Y-95519624D01*
X110381650Y-95520800D01*
X109893350Y-95520800D01*
X109869419Y-95519624D01*
X109845719Y-95516109D01*
X109822477Y-95510287D01*
X109799918Y-95502215D01*
X109778258Y-95491971D01*
X109757708Y-95479653D01*
X109738463Y-95465381D01*
X109720710Y-95449290D01*
X109704619Y-95431537D01*
X109690347Y-95412292D01*
X109678029Y-95391742D01*
X109667785Y-95370082D01*
X109659713Y-95347523D01*
X109653891Y-95324281D01*
X109650376Y-95300581D01*
X109649200Y-95276650D01*
X109649200Y-94713350D01*
X109650376Y-94689419D01*
X109653891Y-94665719D01*
X109659713Y-94642477D01*
X109667785Y-94619918D01*
X109678029Y-94598258D01*
X109690347Y-94577708D01*
X109704619Y-94558463D01*
X109720710Y-94540710D01*
X109738463Y-94524619D01*
X109757708Y-94510347D01*
X109778258Y-94498029D01*
X109799918Y-94487785D01*
X109822477Y-94479713D01*
X109845719Y-94473891D01*
X109869419Y-94470376D01*
X109893350Y-94469200D01*
X110381650Y-94469200D01*
X110405581Y-94470376D01*
G37*
G36*
X63455581Y-94425376D02*
G01*
X63479281Y-94428891D01*
X63502523Y-94434713D01*
X63525082Y-94442785D01*
X63546742Y-94453029D01*
X63567292Y-94465347D01*
X63586537Y-94479619D01*
X63604290Y-94495710D01*
X63620381Y-94513463D01*
X63634653Y-94532708D01*
X63646971Y-94553258D01*
X63657215Y-94574918D01*
X63665287Y-94597477D01*
X63671109Y-94620719D01*
X63674624Y-94644419D01*
X63675800Y-94668350D01*
X63675800Y-95231650D01*
X63674624Y-95255581D01*
X63671109Y-95279281D01*
X63665287Y-95302523D01*
X63657215Y-95325082D01*
X63646971Y-95346742D01*
X63634653Y-95367292D01*
X63620381Y-95386537D01*
X63604290Y-95404290D01*
X63586537Y-95420381D01*
X63567292Y-95434653D01*
X63546742Y-95446971D01*
X63525082Y-95457215D01*
X63502523Y-95465287D01*
X63479281Y-95471109D01*
X63455581Y-95474624D01*
X63431650Y-95475800D01*
X62943350Y-95475800D01*
X62919419Y-95474624D01*
X62895719Y-95471109D01*
X62872477Y-95465287D01*
X62849918Y-95457215D01*
X62828258Y-95446971D01*
X62807708Y-95434653D01*
X62788463Y-95420381D01*
X62770710Y-95404290D01*
X62754619Y-95386537D01*
X62740347Y-95367292D01*
X62728029Y-95346742D01*
X62717785Y-95325082D01*
X62709713Y-95302523D01*
X62703891Y-95279281D01*
X62700376Y-95255581D01*
X62699200Y-95231650D01*
X62699200Y-94668350D01*
X62700376Y-94644419D01*
X62703891Y-94620719D01*
X62709713Y-94597477D01*
X62717785Y-94574918D01*
X62728029Y-94553258D01*
X62740347Y-94532708D01*
X62754619Y-94513463D01*
X62770710Y-94495710D01*
X62788463Y-94479619D01*
X62807708Y-94465347D01*
X62828258Y-94453029D01*
X62849918Y-94442785D01*
X62872477Y-94434713D01*
X62895719Y-94428891D01*
X62919419Y-94425376D01*
X62943350Y-94424200D01*
X63431650Y-94424200D01*
X63455581Y-94425376D01*
G37*
G36*
X61880581Y-94425376D02*
G01*
X61904281Y-94428891D01*
X61927523Y-94434713D01*
X61950082Y-94442785D01*
X61971742Y-94453029D01*
X61992292Y-94465347D01*
X62011537Y-94479619D01*
X62029290Y-94495710D01*
X62045381Y-94513463D01*
X62059653Y-94532708D01*
X62071971Y-94553258D01*
X62082215Y-94574918D01*
X62090287Y-94597477D01*
X62096109Y-94620719D01*
X62099624Y-94644419D01*
X62100800Y-94668350D01*
X62100800Y-95231650D01*
X62099624Y-95255581D01*
X62096109Y-95279281D01*
X62090287Y-95302523D01*
X62082215Y-95325082D01*
X62071971Y-95346742D01*
X62059653Y-95367292D01*
X62045381Y-95386537D01*
X62029290Y-95404290D01*
X62011537Y-95420381D01*
X61992292Y-95434653D01*
X61971742Y-95446971D01*
X61950082Y-95457215D01*
X61927523Y-95465287D01*
X61904281Y-95471109D01*
X61880581Y-95474624D01*
X61856650Y-95475800D01*
X61368350Y-95475800D01*
X61344419Y-95474624D01*
X61320719Y-95471109D01*
X61297477Y-95465287D01*
X61274918Y-95457215D01*
X61253258Y-95446971D01*
X61232708Y-95434653D01*
X61213463Y-95420381D01*
X61195710Y-95404290D01*
X61179619Y-95386537D01*
X61165347Y-95367292D01*
X61153029Y-95346742D01*
X61142785Y-95325082D01*
X61134713Y-95302523D01*
X61128891Y-95279281D01*
X61125376Y-95255581D01*
X61124200Y-95231650D01*
X61124200Y-94668350D01*
X61125376Y-94644419D01*
X61128891Y-94620719D01*
X61134713Y-94597477D01*
X61142785Y-94574918D01*
X61153029Y-94553258D01*
X61165347Y-94532708D01*
X61179619Y-94513463D01*
X61195710Y-94495710D01*
X61213463Y-94479619D01*
X61232708Y-94465347D01*
X61253258Y-94453029D01*
X61274918Y-94442785D01*
X61297477Y-94434713D01*
X61320719Y-94428891D01*
X61344419Y-94425376D01*
X61368350Y-94424200D01*
X61856650Y-94424200D01*
X61880581Y-94425376D01*
G37*
G36*
X63455581Y-92950376D02*
G01*
X63479281Y-92953891D01*
X63502523Y-92959713D01*
X63525082Y-92967785D01*
X63546742Y-92978029D01*
X63567292Y-92990347D01*
X63586537Y-93004619D01*
X63604290Y-93020710D01*
X63620381Y-93038463D01*
X63634653Y-93057708D01*
X63646971Y-93078258D01*
X63657215Y-93099918D01*
X63665287Y-93122477D01*
X63671109Y-93145719D01*
X63674624Y-93169419D01*
X63675800Y-93193350D01*
X63675800Y-93756650D01*
X63674624Y-93780581D01*
X63671109Y-93804281D01*
X63665287Y-93827523D01*
X63657215Y-93850082D01*
X63646971Y-93871742D01*
X63634653Y-93892292D01*
X63620381Y-93911537D01*
X63604290Y-93929290D01*
X63586537Y-93945381D01*
X63567292Y-93959653D01*
X63546742Y-93971971D01*
X63525082Y-93982215D01*
X63502523Y-93990287D01*
X63479281Y-93996109D01*
X63455581Y-93999624D01*
X63431650Y-94000800D01*
X62943350Y-94000800D01*
X62919419Y-93999624D01*
X62895719Y-93996109D01*
X62872477Y-93990287D01*
X62849918Y-93982215D01*
X62828258Y-93971971D01*
X62807708Y-93959653D01*
X62788463Y-93945381D01*
X62770710Y-93929290D01*
X62754619Y-93911537D01*
X62740347Y-93892292D01*
X62728029Y-93871742D01*
X62717785Y-93850082D01*
X62709713Y-93827523D01*
X62703891Y-93804281D01*
X62700376Y-93780581D01*
X62699200Y-93756650D01*
X62699200Y-93193350D01*
X62700376Y-93169419D01*
X62703891Y-93145719D01*
X62709713Y-93122477D01*
X62717785Y-93099918D01*
X62728029Y-93078258D01*
X62740347Y-93057708D01*
X62754619Y-93038463D01*
X62770710Y-93020710D01*
X62788463Y-93004619D01*
X62807708Y-92990347D01*
X62828258Y-92978029D01*
X62849918Y-92967785D01*
X62872477Y-92959713D01*
X62895719Y-92953891D01*
X62919419Y-92950376D01*
X62943350Y-92949200D01*
X63431650Y-92949200D01*
X63455581Y-92950376D01*
G37*
G36*
X61880581Y-92950376D02*
G01*
X61904281Y-92953891D01*
X61927523Y-92959713D01*
X61950082Y-92967785D01*
X61971742Y-92978029D01*
X61992292Y-92990347D01*
X62011537Y-93004619D01*
X62029290Y-93020710D01*
X62045381Y-93038463D01*
X62059653Y-93057708D01*
X62071971Y-93078258D01*
X62082215Y-93099918D01*
X62090287Y-93122477D01*
X62096109Y-93145719D01*
X62099624Y-93169419D01*
X62100800Y-93193350D01*
X62100800Y-93756650D01*
X62099624Y-93780581D01*
X62096109Y-93804281D01*
X62090287Y-93827523D01*
X62082215Y-93850082D01*
X62071971Y-93871742D01*
X62059653Y-93892292D01*
X62045381Y-93911537D01*
X62029290Y-93929290D01*
X62011537Y-93945381D01*
X61992292Y-93959653D01*
X61971742Y-93971971D01*
X61950082Y-93982215D01*
X61927523Y-93990287D01*
X61904281Y-93996109D01*
X61880581Y-93999624D01*
X61856650Y-94000800D01*
X61368350Y-94000800D01*
X61344419Y-93999624D01*
X61320719Y-93996109D01*
X61297477Y-93990287D01*
X61274918Y-93982215D01*
X61253258Y-93971971D01*
X61232708Y-93959653D01*
X61213463Y-93945381D01*
X61195710Y-93929290D01*
X61179619Y-93911537D01*
X61165347Y-93892292D01*
X61153029Y-93871742D01*
X61142785Y-93850082D01*
X61134713Y-93827523D01*
X61128891Y-93804281D01*
X61125376Y-93780581D01*
X61124200Y-93756650D01*
X61124200Y-93193350D01*
X61125376Y-93169419D01*
X61128891Y-93145719D01*
X61134713Y-93122477D01*
X61142785Y-93099918D01*
X61153029Y-93078258D01*
X61165347Y-93057708D01*
X61179619Y-93038463D01*
X61195710Y-93020710D01*
X61213463Y-93004619D01*
X61232708Y-92990347D01*
X61253258Y-92978029D01*
X61274918Y-92967785D01*
X61297477Y-92959713D01*
X61320719Y-92953891D01*
X61344419Y-92950376D01*
X61368350Y-92949200D01*
X61856650Y-92949200D01*
X61880581Y-92950376D01*
G37*
G36*
X116405581Y-92525376D02*
G01*
X116429281Y-92528891D01*
X116452523Y-92534713D01*
X116475082Y-92542785D01*
X116496742Y-92553029D01*
X116517292Y-92565347D01*
X116536537Y-92579619D01*
X116554290Y-92595710D01*
X116570381Y-92613463D01*
X116584653Y-92632708D01*
X116596971Y-92653258D01*
X116607215Y-92674918D01*
X116615287Y-92697477D01*
X116621109Y-92720719D01*
X116624624Y-92744419D01*
X116625800Y-92768350D01*
X116625800Y-93331650D01*
X116624624Y-93355581D01*
X116621109Y-93379281D01*
X116615287Y-93402523D01*
X116607215Y-93425082D01*
X116596971Y-93446742D01*
X116584653Y-93467292D01*
X116570381Y-93486537D01*
X116554290Y-93504290D01*
X116536537Y-93520381D01*
X116517292Y-93534653D01*
X116496742Y-93546971D01*
X116475082Y-93557215D01*
X116452523Y-93565287D01*
X116429281Y-93571109D01*
X116405581Y-93574624D01*
X116381650Y-93575800D01*
X115893350Y-93575800D01*
X115869419Y-93574624D01*
X115845719Y-93571109D01*
X115822477Y-93565287D01*
X115799918Y-93557215D01*
X115778258Y-93546971D01*
X115757708Y-93534653D01*
X115738463Y-93520381D01*
X115720710Y-93504290D01*
X115704619Y-93486537D01*
X115690347Y-93467292D01*
X115678029Y-93446742D01*
X115667785Y-93425082D01*
X115659713Y-93402523D01*
X115653891Y-93379281D01*
X115650376Y-93355581D01*
X115649200Y-93331650D01*
X115649200Y-92768350D01*
X115650376Y-92744419D01*
X115653891Y-92720719D01*
X115659713Y-92697477D01*
X115667785Y-92674918D01*
X115678029Y-92653258D01*
X115690347Y-92632708D01*
X115704619Y-92613463D01*
X115720710Y-92595710D01*
X115738463Y-92579619D01*
X115757708Y-92565347D01*
X115778258Y-92553029D01*
X115799918Y-92542785D01*
X115822477Y-92534713D01*
X115845719Y-92528891D01*
X115869419Y-92525376D01*
X115893350Y-92524200D01*
X116381650Y-92524200D01*
X116405581Y-92525376D01*
G37*
G36*
X117980581Y-92525376D02*
G01*
X118004281Y-92528891D01*
X118027523Y-92534713D01*
X118050082Y-92542785D01*
X118071742Y-92553029D01*
X118092292Y-92565347D01*
X118111537Y-92579619D01*
X118129290Y-92595710D01*
X118145381Y-92613463D01*
X118159653Y-92632708D01*
X118171971Y-92653258D01*
X118182215Y-92674918D01*
X118190287Y-92697477D01*
X118196109Y-92720719D01*
X118199624Y-92744419D01*
X118200800Y-92768350D01*
X118200800Y-93331650D01*
X118199624Y-93355581D01*
X118196109Y-93379281D01*
X118190287Y-93402523D01*
X118182215Y-93425082D01*
X118171971Y-93446742D01*
X118159653Y-93467292D01*
X118145381Y-93486537D01*
X118129290Y-93504290D01*
X118111537Y-93520381D01*
X118092292Y-93534653D01*
X118071742Y-93546971D01*
X118050082Y-93557215D01*
X118027523Y-93565287D01*
X118004281Y-93571109D01*
X117980581Y-93574624D01*
X117956650Y-93575800D01*
X117468350Y-93575800D01*
X117444419Y-93574624D01*
X117420719Y-93571109D01*
X117397477Y-93565287D01*
X117374918Y-93557215D01*
X117353258Y-93546971D01*
X117332708Y-93534653D01*
X117313463Y-93520381D01*
X117295710Y-93504290D01*
X117279619Y-93486537D01*
X117265347Y-93467292D01*
X117253029Y-93446742D01*
X117242785Y-93425082D01*
X117234713Y-93402523D01*
X117228891Y-93379281D01*
X117225376Y-93355581D01*
X117224200Y-93331650D01*
X117224200Y-92768350D01*
X117225376Y-92744419D01*
X117228891Y-92720719D01*
X117234713Y-92697477D01*
X117242785Y-92674918D01*
X117253029Y-92653258D01*
X117265347Y-92632708D01*
X117279619Y-92613463D01*
X117295710Y-92595710D01*
X117313463Y-92579619D01*
X117332708Y-92565347D01*
X117353258Y-92553029D01*
X117374918Y-92542785D01*
X117397477Y-92534713D01*
X117420719Y-92528891D01*
X117444419Y-92525376D01*
X117468350Y-92524200D01*
X117956650Y-92524200D01*
X117980581Y-92525376D01*
G37*
G36*
X110405581Y-92945376D02*
G01*
X110429281Y-92948891D01*
X110452523Y-92954713D01*
X110475082Y-92962785D01*
X110496742Y-92973029D01*
X110517292Y-92985347D01*
X110536537Y-92999619D01*
X110554290Y-93015710D01*
X110570381Y-93033463D01*
X110584653Y-93052708D01*
X110596971Y-93073258D01*
X110607215Y-93094918D01*
X110615287Y-93117477D01*
X110621109Y-93140719D01*
X110624624Y-93164419D01*
X110625800Y-93188350D01*
X110625800Y-93751650D01*
X110624624Y-93775581D01*
X110621109Y-93799281D01*
X110615287Y-93822523D01*
X110607215Y-93845082D01*
X110596971Y-93866742D01*
X110584653Y-93887292D01*
X110570381Y-93906537D01*
X110554290Y-93924290D01*
X110536537Y-93940381D01*
X110517292Y-93954653D01*
X110496742Y-93966971D01*
X110475082Y-93977215D01*
X110452523Y-93985287D01*
X110429281Y-93991109D01*
X110405581Y-93994624D01*
X110381650Y-93995800D01*
X109893350Y-93995800D01*
X109869419Y-93994624D01*
X109845719Y-93991109D01*
X109822477Y-93985287D01*
X109799918Y-93977215D01*
X109778258Y-93966971D01*
X109757708Y-93954653D01*
X109738463Y-93940381D01*
X109720710Y-93924290D01*
X109704619Y-93906537D01*
X109690347Y-93887292D01*
X109678029Y-93866742D01*
X109667785Y-93845082D01*
X109659713Y-93822523D01*
X109653891Y-93799281D01*
X109650376Y-93775581D01*
X109649200Y-93751650D01*
X109649200Y-93188350D01*
X109650376Y-93164419D01*
X109653891Y-93140719D01*
X109659713Y-93117477D01*
X109667785Y-93094918D01*
X109678029Y-93073258D01*
X109690347Y-93052708D01*
X109704619Y-93033463D01*
X109720710Y-93015710D01*
X109738463Y-92999619D01*
X109757708Y-92985347D01*
X109778258Y-92973029D01*
X109799918Y-92962785D01*
X109822477Y-92954713D01*
X109845719Y-92948891D01*
X109869419Y-92945376D01*
X109893350Y-92944200D01*
X110381650Y-92944200D01*
X110405581Y-92945376D01*
G37*
G36*
X108830581Y-92945376D02*
G01*
X108854281Y-92948891D01*
X108877523Y-92954713D01*
X108900082Y-92962785D01*
X108921742Y-92973029D01*
X108942292Y-92985347D01*
X108961537Y-92999619D01*
X108979290Y-93015710D01*
X108995381Y-93033463D01*
X109009653Y-93052708D01*
X109021971Y-93073258D01*
X109032215Y-93094918D01*
X109040287Y-93117477D01*
X109046109Y-93140719D01*
X109049624Y-93164419D01*
X109050800Y-93188350D01*
X109050800Y-93751650D01*
X109049624Y-93775581D01*
X109046109Y-93799281D01*
X109040287Y-93822523D01*
X109032215Y-93845082D01*
X109021971Y-93866742D01*
X109009653Y-93887292D01*
X108995381Y-93906537D01*
X108979290Y-93924290D01*
X108961537Y-93940381D01*
X108942292Y-93954653D01*
X108921742Y-93966971D01*
X108900082Y-93977215D01*
X108877523Y-93985287D01*
X108854281Y-93991109D01*
X108830581Y-93994624D01*
X108806650Y-93995800D01*
X108318350Y-93995800D01*
X108294419Y-93994624D01*
X108270719Y-93991109D01*
X108247477Y-93985287D01*
X108224918Y-93977215D01*
X108203258Y-93966971D01*
X108182708Y-93954653D01*
X108163463Y-93940381D01*
X108145710Y-93924290D01*
X108129619Y-93906537D01*
X108115347Y-93887292D01*
X108103029Y-93866742D01*
X108092785Y-93845082D01*
X108084713Y-93822523D01*
X108078891Y-93799281D01*
X108075376Y-93775581D01*
X108074200Y-93751650D01*
X108074200Y-93188350D01*
X108075376Y-93164419D01*
X108078891Y-93140719D01*
X108084713Y-93117477D01*
X108092785Y-93094918D01*
X108103029Y-93073258D01*
X108115347Y-93052708D01*
X108129619Y-93033463D01*
X108145710Y-93015710D01*
X108163463Y-92999619D01*
X108182708Y-92985347D01*
X108203258Y-92973029D01*
X108224918Y-92962785D01*
X108247477Y-92954713D01*
X108270719Y-92948891D01*
X108294419Y-92945376D01*
X108318350Y-92944200D01*
X108806650Y-92944200D01*
X108830581Y-92945376D01*
G37*
D13*
X77925000Y-101525000D03*
X77925000Y-100225000D03*
X75925000Y-100875000D03*
D12*
G36*
X61805581Y-106275376D02*
G01*
X61829281Y-106278891D01*
X61852523Y-106284713D01*
X61875082Y-106292785D01*
X61896742Y-106303029D01*
X61917292Y-106315347D01*
X61936537Y-106329619D01*
X61954290Y-106345710D01*
X61970381Y-106363463D01*
X61984653Y-106382708D01*
X61996971Y-106403258D01*
X62007215Y-106424918D01*
X62015287Y-106447477D01*
X62021109Y-106470719D01*
X62024624Y-106494419D01*
X62025800Y-106518350D01*
X62025800Y-107081650D01*
X62024624Y-107105581D01*
X62021109Y-107129281D01*
X62015287Y-107152523D01*
X62007215Y-107175082D01*
X61996971Y-107196742D01*
X61984653Y-107217292D01*
X61970381Y-107236537D01*
X61954290Y-107254290D01*
X61936537Y-107270381D01*
X61917292Y-107284653D01*
X61896742Y-107296971D01*
X61875082Y-107307215D01*
X61852523Y-107315287D01*
X61829281Y-107321109D01*
X61805581Y-107324624D01*
X61781650Y-107325800D01*
X61293350Y-107325800D01*
X61269419Y-107324624D01*
X61245719Y-107321109D01*
X61222477Y-107315287D01*
X61199918Y-107307215D01*
X61178258Y-107296971D01*
X61157708Y-107284653D01*
X61138463Y-107270381D01*
X61120710Y-107254290D01*
X61104619Y-107236537D01*
X61090347Y-107217292D01*
X61078029Y-107196742D01*
X61067785Y-107175082D01*
X61059713Y-107152523D01*
X61053891Y-107129281D01*
X61050376Y-107105581D01*
X61049200Y-107081650D01*
X61049200Y-106518350D01*
X61050376Y-106494419D01*
X61053891Y-106470719D01*
X61059713Y-106447477D01*
X61067785Y-106424918D01*
X61078029Y-106403258D01*
X61090347Y-106382708D01*
X61104619Y-106363463D01*
X61120710Y-106345710D01*
X61138463Y-106329619D01*
X61157708Y-106315347D01*
X61178258Y-106303029D01*
X61199918Y-106292785D01*
X61222477Y-106284713D01*
X61245719Y-106278891D01*
X61269419Y-106275376D01*
X61293350Y-106274200D01*
X61781650Y-106274200D01*
X61805581Y-106275376D01*
G37*
G36*
X63380581Y-106275376D02*
G01*
X63404281Y-106278891D01*
X63427523Y-106284713D01*
X63450082Y-106292785D01*
X63471742Y-106303029D01*
X63492292Y-106315347D01*
X63511537Y-106329619D01*
X63529290Y-106345710D01*
X63545381Y-106363463D01*
X63559653Y-106382708D01*
X63571971Y-106403258D01*
X63582215Y-106424918D01*
X63590287Y-106447477D01*
X63596109Y-106470719D01*
X63599624Y-106494419D01*
X63600800Y-106518350D01*
X63600800Y-107081650D01*
X63599624Y-107105581D01*
X63596109Y-107129281D01*
X63590287Y-107152523D01*
X63582215Y-107175082D01*
X63571971Y-107196742D01*
X63559653Y-107217292D01*
X63545381Y-107236537D01*
X63529290Y-107254290D01*
X63511537Y-107270381D01*
X63492292Y-107284653D01*
X63471742Y-107296971D01*
X63450082Y-107307215D01*
X63427523Y-107315287D01*
X63404281Y-107321109D01*
X63380581Y-107324624D01*
X63356650Y-107325800D01*
X62868350Y-107325800D01*
X62844419Y-107324624D01*
X62820719Y-107321109D01*
X62797477Y-107315287D01*
X62774918Y-107307215D01*
X62753258Y-107296971D01*
X62732708Y-107284653D01*
X62713463Y-107270381D01*
X62695710Y-107254290D01*
X62679619Y-107236537D01*
X62665347Y-107217292D01*
X62653029Y-107196742D01*
X62642785Y-107175082D01*
X62634713Y-107152523D01*
X62628891Y-107129281D01*
X62625376Y-107105581D01*
X62624200Y-107081650D01*
X62624200Y-106518350D01*
X62625376Y-106494419D01*
X62628891Y-106470719D01*
X62634713Y-106447477D01*
X62642785Y-106424918D01*
X62653029Y-106403258D01*
X62665347Y-106382708D01*
X62679619Y-106363463D01*
X62695710Y-106345710D01*
X62713463Y-106329619D01*
X62732708Y-106315347D01*
X62753258Y-106303029D01*
X62774918Y-106292785D01*
X62797477Y-106284713D01*
X62820719Y-106278891D01*
X62844419Y-106275376D01*
X62868350Y-106274200D01*
X63356650Y-106274200D01*
X63380581Y-106275376D01*
G37*
G36*
X74630581Y-94025376D02*
G01*
X74654281Y-94028891D01*
X74677523Y-94034713D01*
X74700082Y-94042785D01*
X74721742Y-94053029D01*
X74742292Y-94065347D01*
X74761537Y-94079619D01*
X74779290Y-94095710D01*
X74795381Y-94113463D01*
X74809653Y-94132708D01*
X74821971Y-94153258D01*
X74832215Y-94174918D01*
X74840287Y-94197477D01*
X74846109Y-94220719D01*
X74849624Y-94244419D01*
X74850800Y-94268350D01*
X74850800Y-94756650D01*
X74849624Y-94780581D01*
X74846109Y-94804281D01*
X74840287Y-94827523D01*
X74832215Y-94850082D01*
X74821971Y-94871742D01*
X74809653Y-94892292D01*
X74795381Y-94911537D01*
X74779290Y-94929290D01*
X74761537Y-94945381D01*
X74742292Y-94959653D01*
X74721742Y-94971971D01*
X74700082Y-94982215D01*
X74677523Y-94990287D01*
X74654281Y-94996109D01*
X74630581Y-94999624D01*
X74606650Y-95000800D01*
X74043350Y-95000800D01*
X74019419Y-94999624D01*
X73995719Y-94996109D01*
X73972477Y-94990287D01*
X73949918Y-94982215D01*
X73928258Y-94971971D01*
X73907708Y-94959653D01*
X73888463Y-94945381D01*
X73870710Y-94929290D01*
X73854619Y-94911537D01*
X73840347Y-94892292D01*
X73828029Y-94871742D01*
X73817785Y-94850082D01*
X73809713Y-94827523D01*
X73803891Y-94804281D01*
X73800376Y-94780581D01*
X73799200Y-94756650D01*
X73799200Y-94268350D01*
X73800376Y-94244419D01*
X73803891Y-94220719D01*
X73809713Y-94197477D01*
X73817785Y-94174918D01*
X73828029Y-94153258D01*
X73840347Y-94132708D01*
X73854619Y-94113463D01*
X73870710Y-94095710D01*
X73888463Y-94079619D01*
X73907708Y-94065347D01*
X73928258Y-94053029D01*
X73949918Y-94042785D01*
X73972477Y-94034713D01*
X73995719Y-94028891D01*
X74019419Y-94025376D01*
X74043350Y-94024200D01*
X74606650Y-94024200D01*
X74630581Y-94025376D01*
G37*
G36*
X74630581Y-92450376D02*
G01*
X74654281Y-92453891D01*
X74677523Y-92459713D01*
X74700082Y-92467785D01*
X74721742Y-92478029D01*
X74742292Y-92490347D01*
X74761537Y-92504619D01*
X74779290Y-92520710D01*
X74795381Y-92538463D01*
X74809653Y-92557708D01*
X74821971Y-92578258D01*
X74832215Y-92599918D01*
X74840287Y-92622477D01*
X74846109Y-92645719D01*
X74849624Y-92669419D01*
X74850800Y-92693350D01*
X74850800Y-93181650D01*
X74849624Y-93205581D01*
X74846109Y-93229281D01*
X74840287Y-93252523D01*
X74832215Y-93275082D01*
X74821971Y-93296742D01*
X74809653Y-93317292D01*
X74795381Y-93336537D01*
X74779290Y-93354290D01*
X74761537Y-93370381D01*
X74742292Y-93384653D01*
X74721742Y-93396971D01*
X74700082Y-93407215D01*
X74677523Y-93415287D01*
X74654281Y-93421109D01*
X74630581Y-93424624D01*
X74606650Y-93425800D01*
X74043350Y-93425800D01*
X74019419Y-93424624D01*
X73995719Y-93421109D01*
X73972477Y-93415287D01*
X73949918Y-93407215D01*
X73928258Y-93396971D01*
X73907708Y-93384653D01*
X73888463Y-93370381D01*
X73870710Y-93354290D01*
X73854619Y-93336537D01*
X73840347Y-93317292D01*
X73828029Y-93296742D01*
X73817785Y-93275082D01*
X73809713Y-93252523D01*
X73803891Y-93229281D01*
X73800376Y-93205581D01*
X73799200Y-93181650D01*
X73799200Y-92693350D01*
X73800376Y-92669419D01*
X73803891Y-92645719D01*
X73809713Y-92622477D01*
X73817785Y-92599918D01*
X73828029Y-92578258D01*
X73840347Y-92557708D01*
X73854619Y-92538463D01*
X73870710Y-92520710D01*
X73888463Y-92504619D01*
X73907708Y-92490347D01*
X73928258Y-92478029D01*
X73949918Y-92467785D01*
X73972477Y-92459713D01*
X73995719Y-92453891D01*
X74019419Y-92450376D01*
X74043350Y-92449200D01*
X74606650Y-92449200D01*
X74630581Y-92450376D01*
G37*
G36*
X69630581Y-94025376D02*
G01*
X69654281Y-94028891D01*
X69677523Y-94034713D01*
X69700082Y-94042785D01*
X69721742Y-94053029D01*
X69742292Y-94065347D01*
X69761537Y-94079619D01*
X69779290Y-94095710D01*
X69795381Y-94113463D01*
X69809653Y-94132708D01*
X69821971Y-94153258D01*
X69832215Y-94174918D01*
X69840287Y-94197477D01*
X69846109Y-94220719D01*
X69849624Y-94244419D01*
X69850800Y-94268350D01*
X69850800Y-94756650D01*
X69849624Y-94780581D01*
X69846109Y-94804281D01*
X69840287Y-94827523D01*
X69832215Y-94850082D01*
X69821971Y-94871742D01*
X69809653Y-94892292D01*
X69795381Y-94911537D01*
X69779290Y-94929290D01*
X69761537Y-94945381D01*
X69742292Y-94959653D01*
X69721742Y-94971971D01*
X69700082Y-94982215D01*
X69677523Y-94990287D01*
X69654281Y-94996109D01*
X69630581Y-94999624D01*
X69606650Y-95000800D01*
X69043350Y-95000800D01*
X69019419Y-94999624D01*
X68995719Y-94996109D01*
X68972477Y-94990287D01*
X68949918Y-94982215D01*
X68928258Y-94971971D01*
X68907708Y-94959653D01*
X68888463Y-94945381D01*
X68870710Y-94929290D01*
X68854619Y-94911537D01*
X68840347Y-94892292D01*
X68828029Y-94871742D01*
X68817785Y-94850082D01*
X68809713Y-94827523D01*
X68803891Y-94804281D01*
X68800376Y-94780581D01*
X68799200Y-94756650D01*
X68799200Y-94268350D01*
X68800376Y-94244419D01*
X68803891Y-94220719D01*
X68809713Y-94197477D01*
X68817785Y-94174918D01*
X68828029Y-94153258D01*
X68840347Y-94132708D01*
X68854619Y-94113463D01*
X68870710Y-94095710D01*
X68888463Y-94079619D01*
X68907708Y-94065347D01*
X68928258Y-94053029D01*
X68949918Y-94042785D01*
X68972477Y-94034713D01*
X68995719Y-94028891D01*
X69019419Y-94025376D01*
X69043350Y-94024200D01*
X69606650Y-94024200D01*
X69630581Y-94025376D01*
G37*
G36*
X69630581Y-92450376D02*
G01*
X69654281Y-92453891D01*
X69677523Y-92459713D01*
X69700082Y-92467785D01*
X69721742Y-92478029D01*
X69742292Y-92490347D01*
X69761537Y-92504619D01*
X69779290Y-92520710D01*
X69795381Y-92538463D01*
X69809653Y-92557708D01*
X69821971Y-92578258D01*
X69832215Y-92599918D01*
X69840287Y-92622477D01*
X69846109Y-92645719D01*
X69849624Y-92669419D01*
X69850800Y-92693350D01*
X69850800Y-93181650D01*
X69849624Y-93205581D01*
X69846109Y-93229281D01*
X69840287Y-93252523D01*
X69832215Y-93275082D01*
X69821971Y-93296742D01*
X69809653Y-93317292D01*
X69795381Y-93336537D01*
X69779290Y-93354290D01*
X69761537Y-93370381D01*
X69742292Y-93384653D01*
X69721742Y-93396971D01*
X69700082Y-93407215D01*
X69677523Y-93415287D01*
X69654281Y-93421109D01*
X69630581Y-93424624D01*
X69606650Y-93425800D01*
X69043350Y-93425800D01*
X69019419Y-93424624D01*
X68995719Y-93421109D01*
X68972477Y-93415287D01*
X68949918Y-93407215D01*
X68928258Y-93396971D01*
X68907708Y-93384653D01*
X68888463Y-93370381D01*
X68870710Y-93354290D01*
X68854619Y-93336537D01*
X68840347Y-93317292D01*
X68828029Y-93296742D01*
X68817785Y-93275082D01*
X68809713Y-93252523D01*
X68803891Y-93229281D01*
X68800376Y-93205581D01*
X68799200Y-93181650D01*
X68799200Y-92693350D01*
X68800376Y-92669419D01*
X68803891Y-92645719D01*
X68809713Y-92622477D01*
X68817785Y-92599918D01*
X68828029Y-92578258D01*
X68840347Y-92557708D01*
X68854619Y-92538463D01*
X68870710Y-92520710D01*
X68888463Y-92504619D01*
X68907708Y-92490347D01*
X68928258Y-92478029D01*
X68949918Y-92467785D01*
X68972477Y-92459713D01*
X68995719Y-92453891D01*
X69019419Y-92450376D01*
X69043350Y-92449200D01*
X69606650Y-92449200D01*
X69630581Y-92450376D01*
G37*
D14*
X94830000Y-105610000D03*
X92290000Y-105610000D03*
X89750000Y-105610000D03*
X87210000Y-105610000D03*
X84670000Y-105610000D03*
X82130000Y-105610000D03*
X79590000Y-105610000D03*
D15*
X77050000Y-105610000D03*
X99900000Y-105610000D03*
D14*
X102440000Y-105610000D03*
X104980000Y-105610000D03*
X107520000Y-105610000D03*
D12*
G36*
X80705581Y-97475376D02*
G01*
X80729281Y-97478891D01*
X80752523Y-97484713D01*
X80775082Y-97492785D01*
X80796742Y-97503029D01*
X80817292Y-97515347D01*
X80836537Y-97529619D01*
X80854290Y-97545710D01*
X80870381Y-97563463D01*
X80884653Y-97582708D01*
X80896971Y-97603258D01*
X80907215Y-97624918D01*
X80915287Y-97647477D01*
X80921109Y-97670719D01*
X80924624Y-97694419D01*
X80925800Y-97718350D01*
X80925800Y-98281650D01*
X80924624Y-98305581D01*
X80921109Y-98329281D01*
X80915287Y-98352523D01*
X80907215Y-98375082D01*
X80896971Y-98396742D01*
X80884653Y-98417292D01*
X80870381Y-98436537D01*
X80854290Y-98454290D01*
X80836537Y-98470381D01*
X80817292Y-98484653D01*
X80796742Y-98496971D01*
X80775082Y-98507215D01*
X80752523Y-98515287D01*
X80729281Y-98521109D01*
X80705581Y-98524624D01*
X80681650Y-98525800D01*
X80193350Y-98525800D01*
X80169419Y-98524624D01*
X80145719Y-98521109D01*
X80122477Y-98515287D01*
X80099918Y-98507215D01*
X80078258Y-98496971D01*
X80057708Y-98484653D01*
X80038463Y-98470381D01*
X80020710Y-98454290D01*
X80004619Y-98436537D01*
X79990347Y-98417292D01*
X79978029Y-98396742D01*
X79967785Y-98375082D01*
X79959713Y-98352523D01*
X79953891Y-98329281D01*
X79950376Y-98305581D01*
X79949200Y-98281650D01*
X79949200Y-97718350D01*
X79950376Y-97694419D01*
X79953891Y-97670719D01*
X79959713Y-97647477D01*
X79967785Y-97624918D01*
X79978029Y-97603258D01*
X79990347Y-97582708D01*
X80004619Y-97563463D01*
X80020710Y-97545710D01*
X80038463Y-97529619D01*
X80057708Y-97515347D01*
X80078258Y-97503029D01*
X80099918Y-97492785D01*
X80122477Y-97484713D01*
X80145719Y-97478891D01*
X80169419Y-97475376D01*
X80193350Y-97474200D01*
X80681650Y-97474200D01*
X80705581Y-97475376D01*
G37*
G36*
X79130581Y-97475376D02*
G01*
X79154281Y-97478891D01*
X79177523Y-97484713D01*
X79200082Y-97492785D01*
X79221742Y-97503029D01*
X79242292Y-97515347D01*
X79261537Y-97529619D01*
X79279290Y-97545710D01*
X79295381Y-97563463D01*
X79309653Y-97582708D01*
X79321971Y-97603258D01*
X79332215Y-97624918D01*
X79340287Y-97647477D01*
X79346109Y-97670719D01*
X79349624Y-97694419D01*
X79350800Y-97718350D01*
X79350800Y-98281650D01*
X79349624Y-98305581D01*
X79346109Y-98329281D01*
X79340287Y-98352523D01*
X79332215Y-98375082D01*
X79321971Y-98396742D01*
X79309653Y-98417292D01*
X79295381Y-98436537D01*
X79279290Y-98454290D01*
X79261537Y-98470381D01*
X79242292Y-98484653D01*
X79221742Y-98496971D01*
X79200082Y-98507215D01*
X79177523Y-98515287D01*
X79154281Y-98521109D01*
X79130581Y-98524624D01*
X79106650Y-98525800D01*
X78618350Y-98525800D01*
X78594419Y-98524624D01*
X78570719Y-98521109D01*
X78547477Y-98515287D01*
X78524918Y-98507215D01*
X78503258Y-98496971D01*
X78482708Y-98484653D01*
X78463463Y-98470381D01*
X78445710Y-98454290D01*
X78429619Y-98436537D01*
X78415347Y-98417292D01*
X78403029Y-98396742D01*
X78392785Y-98375082D01*
X78384713Y-98352523D01*
X78378891Y-98329281D01*
X78375376Y-98305581D01*
X78374200Y-98281650D01*
X78374200Y-97718350D01*
X78375376Y-97694419D01*
X78378891Y-97670719D01*
X78384713Y-97647477D01*
X78392785Y-97624918D01*
X78403029Y-97603258D01*
X78415347Y-97582708D01*
X78429619Y-97563463D01*
X78445710Y-97545710D01*
X78463463Y-97529619D01*
X78482708Y-97515347D01*
X78503258Y-97503029D01*
X78524918Y-97492785D01*
X78547477Y-97484713D01*
X78570719Y-97478891D01*
X78594419Y-97475376D01*
X78618350Y-97474200D01*
X79106650Y-97474200D01*
X79130581Y-97475376D01*
G37*
G36*
X79130581Y-102400376D02*
G01*
X79154281Y-102403891D01*
X79177523Y-102409713D01*
X79200082Y-102417785D01*
X79221742Y-102428029D01*
X79242292Y-102440347D01*
X79261537Y-102454619D01*
X79279290Y-102470710D01*
X79295381Y-102488463D01*
X79309653Y-102507708D01*
X79321971Y-102528258D01*
X79332215Y-102549918D01*
X79340287Y-102572477D01*
X79346109Y-102595719D01*
X79349624Y-102619419D01*
X79350800Y-102643350D01*
X79350800Y-103206650D01*
X79349624Y-103230581D01*
X79346109Y-103254281D01*
X79340287Y-103277523D01*
X79332215Y-103300082D01*
X79321971Y-103321742D01*
X79309653Y-103342292D01*
X79295381Y-103361537D01*
X79279290Y-103379290D01*
X79261537Y-103395381D01*
X79242292Y-103409653D01*
X79221742Y-103421971D01*
X79200082Y-103432215D01*
X79177523Y-103440287D01*
X79154281Y-103446109D01*
X79130581Y-103449624D01*
X79106650Y-103450800D01*
X78618350Y-103450800D01*
X78594419Y-103449624D01*
X78570719Y-103446109D01*
X78547477Y-103440287D01*
X78524918Y-103432215D01*
X78503258Y-103421971D01*
X78482708Y-103409653D01*
X78463463Y-103395381D01*
X78445710Y-103379290D01*
X78429619Y-103361537D01*
X78415347Y-103342292D01*
X78403029Y-103321742D01*
X78392785Y-103300082D01*
X78384713Y-103277523D01*
X78378891Y-103254281D01*
X78375376Y-103230581D01*
X78374200Y-103206650D01*
X78374200Y-102643350D01*
X78375376Y-102619419D01*
X78378891Y-102595719D01*
X78384713Y-102572477D01*
X78392785Y-102549918D01*
X78403029Y-102528258D01*
X78415347Y-102507708D01*
X78429619Y-102488463D01*
X78445710Y-102470710D01*
X78463463Y-102454619D01*
X78482708Y-102440347D01*
X78503258Y-102428029D01*
X78524918Y-102417785D01*
X78547477Y-102409713D01*
X78570719Y-102403891D01*
X78594419Y-102400376D01*
X78618350Y-102399200D01*
X79106650Y-102399200D01*
X79130581Y-102400376D01*
G37*
G36*
X80705581Y-102400376D02*
G01*
X80729281Y-102403891D01*
X80752523Y-102409713D01*
X80775082Y-102417785D01*
X80796742Y-102428029D01*
X80817292Y-102440347D01*
X80836537Y-102454619D01*
X80854290Y-102470710D01*
X80870381Y-102488463D01*
X80884653Y-102507708D01*
X80896971Y-102528258D01*
X80907215Y-102549918D01*
X80915287Y-102572477D01*
X80921109Y-102595719D01*
X80924624Y-102619419D01*
X80925800Y-102643350D01*
X80925800Y-103206650D01*
X80924624Y-103230581D01*
X80921109Y-103254281D01*
X80915287Y-103277523D01*
X80907215Y-103300082D01*
X80896971Y-103321742D01*
X80884653Y-103342292D01*
X80870381Y-103361537D01*
X80854290Y-103379290D01*
X80836537Y-103395381D01*
X80817292Y-103409653D01*
X80796742Y-103421971D01*
X80775082Y-103432215D01*
X80752523Y-103440287D01*
X80729281Y-103446109D01*
X80705581Y-103449624D01*
X80681650Y-103450800D01*
X80193350Y-103450800D01*
X80169419Y-103449624D01*
X80145719Y-103446109D01*
X80122477Y-103440287D01*
X80099918Y-103432215D01*
X80078258Y-103421971D01*
X80057708Y-103409653D01*
X80038463Y-103395381D01*
X80020710Y-103379290D01*
X80004619Y-103361537D01*
X79990347Y-103342292D01*
X79978029Y-103321742D01*
X79967785Y-103300082D01*
X79959713Y-103277523D01*
X79953891Y-103254281D01*
X79950376Y-103230581D01*
X79949200Y-103206650D01*
X79949200Y-102643350D01*
X79950376Y-102619419D01*
X79953891Y-102595719D01*
X79959713Y-102572477D01*
X79967785Y-102549918D01*
X79978029Y-102528258D01*
X79990347Y-102507708D01*
X80004619Y-102488463D01*
X80020710Y-102470710D01*
X80038463Y-102454619D01*
X80057708Y-102440347D01*
X80078258Y-102428029D01*
X80099918Y-102417785D01*
X80122477Y-102409713D01*
X80145719Y-102403891D01*
X80169419Y-102400376D01*
X80193350Y-102399200D01*
X80681650Y-102399200D01*
X80705581Y-102400376D01*
G37*
D16*
X72825000Y-94950000D03*
X72825000Y-93050000D03*
X70825000Y-94000000D03*
D17*
X59615000Y-100000000D03*
D18*
X59885000Y-102705000D03*
X59885000Y-97245000D03*
D19*
X62885000Y-102395000D03*
X62885000Y-97555000D03*
D20*
X62765000Y-101275000D03*
X62765000Y-100625000D03*
X62765000Y-99975000D03*
X62765000Y-99325000D03*
X62765000Y-98675000D03*
D21*
X62885000Y-102875000D03*
X62865000Y-97125000D03*
D22*
X121530000Y-102675000D03*
X121530000Y-97375000D03*
D23*
X136530000Y-104590000D03*
X136530000Y-95410000D03*
D24*
X63050000Y-105100000D03*
X60550000Y-105100000D03*
X118700000Y-94775000D03*
X116200000Y-94775000D03*
D12*
G36*
X94585581Y-92390376D02*
G01*
X94609281Y-92393891D01*
X94632523Y-92399713D01*
X94655082Y-92407785D01*
X94676742Y-92418029D01*
X94697292Y-92430347D01*
X94716537Y-92444619D01*
X94734290Y-92460710D01*
X94750381Y-92478463D01*
X94764653Y-92497708D01*
X94776971Y-92518258D01*
X94787215Y-92539918D01*
X94795287Y-92562477D01*
X94801109Y-92585719D01*
X94804624Y-92609419D01*
X94805800Y-92633350D01*
X94805800Y-93196650D01*
X94804624Y-93220581D01*
X94801109Y-93244281D01*
X94795287Y-93267523D01*
X94787215Y-93290082D01*
X94776971Y-93311742D01*
X94764653Y-93332292D01*
X94750381Y-93351537D01*
X94734290Y-93369290D01*
X94716537Y-93385381D01*
X94697292Y-93399653D01*
X94676742Y-93411971D01*
X94655082Y-93422215D01*
X94632523Y-93430287D01*
X94609281Y-93436109D01*
X94585581Y-93439624D01*
X94561650Y-93440800D01*
X94073350Y-93440800D01*
X94049419Y-93439624D01*
X94025719Y-93436109D01*
X94002477Y-93430287D01*
X93979918Y-93422215D01*
X93958258Y-93411971D01*
X93937708Y-93399653D01*
X93918463Y-93385381D01*
X93900710Y-93369290D01*
X93884619Y-93351537D01*
X93870347Y-93332292D01*
X93858029Y-93311742D01*
X93847785Y-93290082D01*
X93839713Y-93267523D01*
X93833891Y-93244281D01*
X93830376Y-93220581D01*
X93829200Y-93196650D01*
X93829200Y-92633350D01*
X93830376Y-92609419D01*
X93833891Y-92585719D01*
X93839713Y-92562477D01*
X93847785Y-92539918D01*
X93858029Y-92518258D01*
X93870347Y-92497708D01*
X93884619Y-92478463D01*
X93900710Y-92460710D01*
X93918463Y-92444619D01*
X93937708Y-92430347D01*
X93958258Y-92418029D01*
X93979918Y-92407785D01*
X94002477Y-92399713D01*
X94025719Y-92393891D01*
X94049419Y-92390376D01*
X94073350Y-92389200D01*
X94561650Y-92389200D01*
X94585581Y-92390376D01*
G37*
G36*
X96160581Y-92390376D02*
G01*
X96184281Y-92393891D01*
X96207523Y-92399713D01*
X96230082Y-92407785D01*
X96251742Y-92418029D01*
X96272292Y-92430347D01*
X96291537Y-92444619D01*
X96309290Y-92460710D01*
X96325381Y-92478463D01*
X96339653Y-92497708D01*
X96351971Y-92518258D01*
X96362215Y-92539918D01*
X96370287Y-92562477D01*
X96376109Y-92585719D01*
X96379624Y-92609419D01*
X96380800Y-92633350D01*
X96380800Y-93196650D01*
X96379624Y-93220581D01*
X96376109Y-93244281D01*
X96370287Y-93267523D01*
X96362215Y-93290082D01*
X96351971Y-93311742D01*
X96339653Y-93332292D01*
X96325381Y-93351537D01*
X96309290Y-93369290D01*
X96291537Y-93385381D01*
X96272292Y-93399653D01*
X96251742Y-93411971D01*
X96230082Y-93422215D01*
X96207523Y-93430287D01*
X96184281Y-93436109D01*
X96160581Y-93439624D01*
X96136650Y-93440800D01*
X95648350Y-93440800D01*
X95624419Y-93439624D01*
X95600719Y-93436109D01*
X95577477Y-93430287D01*
X95554918Y-93422215D01*
X95533258Y-93411971D01*
X95512708Y-93399653D01*
X95493463Y-93385381D01*
X95475710Y-93369290D01*
X95459619Y-93351537D01*
X95445347Y-93332292D01*
X95433029Y-93311742D01*
X95422785Y-93290082D01*
X95414713Y-93267523D01*
X95408891Y-93244281D01*
X95405376Y-93220581D01*
X95404200Y-93196650D01*
X95404200Y-92633350D01*
X95405376Y-92609419D01*
X95408891Y-92585719D01*
X95414713Y-92562477D01*
X95422785Y-92539918D01*
X95433029Y-92518258D01*
X95445347Y-92497708D01*
X95459619Y-92478463D01*
X95475710Y-92460710D01*
X95493463Y-92444619D01*
X95512708Y-92430347D01*
X95533258Y-92418029D01*
X95554918Y-92407785D01*
X95577477Y-92399713D01*
X95600719Y-92393891D01*
X95624419Y-92390376D01*
X95648350Y-92389200D01*
X96136650Y-92389200D01*
X96160581Y-92390376D01*
G37*
G36*
X99560581Y-92390376D02*
G01*
X99584281Y-92393891D01*
X99607523Y-92399713D01*
X99630082Y-92407785D01*
X99651742Y-92418029D01*
X99672292Y-92430347D01*
X99691537Y-92444619D01*
X99709290Y-92460710D01*
X99725381Y-92478463D01*
X99739653Y-92497708D01*
X99751971Y-92518258D01*
X99762215Y-92539918D01*
X99770287Y-92562477D01*
X99776109Y-92585719D01*
X99779624Y-92609419D01*
X99780800Y-92633350D01*
X99780800Y-93196650D01*
X99779624Y-93220581D01*
X99776109Y-93244281D01*
X99770287Y-93267523D01*
X99762215Y-93290082D01*
X99751971Y-93311742D01*
X99739653Y-93332292D01*
X99725381Y-93351537D01*
X99709290Y-93369290D01*
X99691537Y-93385381D01*
X99672292Y-93399653D01*
X99651742Y-93411971D01*
X99630082Y-93422215D01*
X99607523Y-93430287D01*
X99584281Y-93436109D01*
X99560581Y-93439624D01*
X99536650Y-93440800D01*
X99048350Y-93440800D01*
X99024419Y-93439624D01*
X99000719Y-93436109D01*
X98977477Y-93430287D01*
X98954918Y-93422215D01*
X98933258Y-93411971D01*
X98912708Y-93399653D01*
X98893463Y-93385381D01*
X98875710Y-93369290D01*
X98859619Y-93351537D01*
X98845347Y-93332292D01*
X98833029Y-93311742D01*
X98822785Y-93290082D01*
X98814713Y-93267523D01*
X98808891Y-93244281D01*
X98805376Y-93220581D01*
X98804200Y-93196650D01*
X98804200Y-92633350D01*
X98805376Y-92609419D01*
X98808891Y-92585719D01*
X98814713Y-92562477D01*
X98822785Y-92539918D01*
X98833029Y-92518258D01*
X98845347Y-92497708D01*
X98859619Y-92478463D01*
X98875710Y-92460710D01*
X98893463Y-92444619D01*
X98912708Y-92430347D01*
X98933258Y-92418029D01*
X98954918Y-92407785D01*
X98977477Y-92399713D01*
X99000719Y-92393891D01*
X99024419Y-92390376D01*
X99048350Y-92389200D01*
X99536650Y-92389200D01*
X99560581Y-92390376D01*
G37*
G36*
X97985581Y-92390376D02*
G01*
X98009281Y-92393891D01*
X98032523Y-92399713D01*
X98055082Y-92407785D01*
X98076742Y-92418029D01*
X98097292Y-92430347D01*
X98116537Y-92444619D01*
X98134290Y-92460710D01*
X98150381Y-92478463D01*
X98164653Y-92497708D01*
X98176971Y-92518258D01*
X98187215Y-92539918D01*
X98195287Y-92562477D01*
X98201109Y-92585719D01*
X98204624Y-92609419D01*
X98205800Y-92633350D01*
X98205800Y-93196650D01*
X98204624Y-93220581D01*
X98201109Y-93244281D01*
X98195287Y-93267523D01*
X98187215Y-93290082D01*
X98176971Y-93311742D01*
X98164653Y-93332292D01*
X98150381Y-93351537D01*
X98134290Y-93369290D01*
X98116537Y-93385381D01*
X98097292Y-93399653D01*
X98076742Y-93411971D01*
X98055082Y-93422215D01*
X98032523Y-93430287D01*
X98009281Y-93436109D01*
X97985581Y-93439624D01*
X97961650Y-93440800D01*
X97473350Y-93440800D01*
X97449419Y-93439624D01*
X97425719Y-93436109D01*
X97402477Y-93430287D01*
X97379918Y-93422215D01*
X97358258Y-93411971D01*
X97337708Y-93399653D01*
X97318463Y-93385381D01*
X97300710Y-93369290D01*
X97284619Y-93351537D01*
X97270347Y-93332292D01*
X97258029Y-93311742D01*
X97247785Y-93290082D01*
X97239713Y-93267523D01*
X97233891Y-93244281D01*
X97230376Y-93220581D01*
X97229200Y-93196650D01*
X97229200Y-92633350D01*
X97230376Y-92609419D01*
X97233891Y-92585719D01*
X97239713Y-92562477D01*
X97247785Y-92539918D01*
X97258029Y-92518258D01*
X97270347Y-92497708D01*
X97284619Y-92478463D01*
X97300710Y-92460710D01*
X97318463Y-92444619D01*
X97337708Y-92430347D01*
X97358258Y-92418029D01*
X97379918Y-92407785D01*
X97402477Y-92399713D01*
X97425719Y-92393891D01*
X97449419Y-92390376D01*
X97473350Y-92389200D01*
X97961650Y-92389200D01*
X97985581Y-92390376D01*
G37*
G36*
X102960581Y-92390376D02*
G01*
X102984281Y-92393891D01*
X103007523Y-92399713D01*
X103030082Y-92407785D01*
X103051742Y-92418029D01*
X103072292Y-92430347D01*
X103091537Y-92444619D01*
X103109290Y-92460710D01*
X103125381Y-92478463D01*
X103139653Y-92497708D01*
X103151971Y-92518258D01*
X103162215Y-92539918D01*
X103170287Y-92562477D01*
X103176109Y-92585719D01*
X103179624Y-92609419D01*
X103180800Y-92633350D01*
X103180800Y-93196650D01*
X103179624Y-93220581D01*
X103176109Y-93244281D01*
X103170287Y-93267523D01*
X103162215Y-93290082D01*
X103151971Y-93311742D01*
X103139653Y-93332292D01*
X103125381Y-93351537D01*
X103109290Y-93369290D01*
X103091537Y-93385381D01*
X103072292Y-93399653D01*
X103051742Y-93411971D01*
X103030082Y-93422215D01*
X103007523Y-93430287D01*
X102984281Y-93436109D01*
X102960581Y-93439624D01*
X102936650Y-93440800D01*
X102448350Y-93440800D01*
X102424419Y-93439624D01*
X102400719Y-93436109D01*
X102377477Y-93430287D01*
X102354918Y-93422215D01*
X102333258Y-93411971D01*
X102312708Y-93399653D01*
X102293463Y-93385381D01*
X102275710Y-93369290D01*
X102259619Y-93351537D01*
X102245347Y-93332292D01*
X102233029Y-93311742D01*
X102222785Y-93290082D01*
X102214713Y-93267523D01*
X102208891Y-93244281D01*
X102205376Y-93220581D01*
X102204200Y-93196650D01*
X102204200Y-92633350D01*
X102205376Y-92609419D01*
X102208891Y-92585719D01*
X102214713Y-92562477D01*
X102222785Y-92539918D01*
X102233029Y-92518258D01*
X102245347Y-92497708D01*
X102259619Y-92478463D01*
X102275710Y-92460710D01*
X102293463Y-92444619D01*
X102312708Y-92430347D01*
X102333258Y-92418029D01*
X102354918Y-92407785D01*
X102377477Y-92399713D01*
X102400719Y-92393891D01*
X102424419Y-92390376D01*
X102448350Y-92389200D01*
X102936650Y-92389200D01*
X102960581Y-92390376D01*
G37*
G36*
X101385581Y-92390376D02*
G01*
X101409281Y-92393891D01*
X101432523Y-92399713D01*
X101455082Y-92407785D01*
X101476742Y-92418029D01*
X101497292Y-92430347D01*
X101516537Y-92444619D01*
X101534290Y-92460710D01*
X101550381Y-92478463D01*
X101564653Y-92497708D01*
X101576971Y-92518258D01*
X101587215Y-92539918D01*
X101595287Y-92562477D01*
X101601109Y-92585719D01*
X101604624Y-92609419D01*
X101605800Y-92633350D01*
X101605800Y-93196650D01*
X101604624Y-93220581D01*
X101601109Y-93244281D01*
X101595287Y-93267523D01*
X101587215Y-93290082D01*
X101576971Y-93311742D01*
X101564653Y-93332292D01*
X101550381Y-93351537D01*
X101534290Y-93369290D01*
X101516537Y-93385381D01*
X101497292Y-93399653D01*
X101476742Y-93411971D01*
X101455082Y-93422215D01*
X101432523Y-93430287D01*
X101409281Y-93436109D01*
X101385581Y-93439624D01*
X101361650Y-93440800D01*
X100873350Y-93440800D01*
X100849419Y-93439624D01*
X100825719Y-93436109D01*
X100802477Y-93430287D01*
X100779918Y-93422215D01*
X100758258Y-93411971D01*
X100737708Y-93399653D01*
X100718463Y-93385381D01*
X100700710Y-93369290D01*
X100684619Y-93351537D01*
X100670347Y-93332292D01*
X100658029Y-93311742D01*
X100647785Y-93290082D01*
X100639713Y-93267523D01*
X100633891Y-93244281D01*
X100630376Y-93220581D01*
X100629200Y-93196650D01*
X100629200Y-92633350D01*
X100630376Y-92609419D01*
X100633891Y-92585719D01*
X100639713Y-92562477D01*
X100647785Y-92539918D01*
X100658029Y-92518258D01*
X100670347Y-92497708D01*
X100684619Y-92478463D01*
X100700710Y-92460710D01*
X100718463Y-92444619D01*
X100737708Y-92430347D01*
X100758258Y-92418029D01*
X100779918Y-92407785D01*
X100802477Y-92399713D01*
X100825719Y-92393891D01*
X100849419Y-92390376D01*
X100873350Y-92389200D01*
X101361650Y-92389200D01*
X101385581Y-92390376D01*
G37*
G36*
X106400581Y-92390376D02*
G01*
X106424281Y-92393891D01*
X106447523Y-92399713D01*
X106470082Y-92407785D01*
X106491742Y-92418029D01*
X106512292Y-92430347D01*
X106531537Y-92444619D01*
X106549290Y-92460710D01*
X106565381Y-92478463D01*
X106579653Y-92497708D01*
X106591971Y-92518258D01*
X106602215Y-92539918D01*
X106610287Y-92562477D01*
X106616109Y-92585719D01*
X106619624Y-92609419D01*
X106620800Y-92633350D01*
X106620800Y-93196650D01*
X106619624Y-93220581D01*
X106616109Y-93244281D01*
X106610287Y-93267523D01*
X106602215Y-93290082D01*
X106591971Y-93311742D01*
X106579653Y-93332292D01*
X106565381Y-93351537D01*
X106549290Y-93369290D01*
X106531537Y-93385381D01*
X106512292Y-93399653D01*
X106491742Y-93411971D01*
X106470082Y-93422215D01*
X106447523Y-93430287D01*
X106424281Y-93436109D01*
X106400581Y-93439624D01*
X106376650Y-93440800D01*
X105888350Y-93440800D01*
X105864419Y-93439624D01*
X105840719Y-93436109D01*
X105817477Y-93430287D01*
X105794918Y-93422215D01*
X105773258Y-93411971D01*
X105752708Y-93399653D01*
X105733463Y-93385381D01*
X105715710Y-93369290D01*
X105699619Y-93351537D01*
X105685347Y-93332292D01*
X105673029Y-93311742D01*
X105662785Y-93290082D01*
X105654713Y-93267523D01*
X105648891Y-93244281D01*
X105645376Y-93220581D01*
X105644200Y-93196650D01*
X105644200Y-92633350D01*
X105645376Y-92609419D01*
X105648891Y-92585719D01*
X105654713Y-92562477D01*
X105662785Y-92539918D01*
X105673029Y-92518258D01*
X105685347Y-92497708D01*
X105699619Y-92478463D01*
X105715710Y-92460710D01*
X105733463Y-92444619D01*
X105752708Y-92430347D01*
X105773258Y-92418029D01*
X105794918Y-92407785D01*
X105817477Y-92399713D01*
X105840719Y-92393891D01*
X105864419Y-92390376D01*
X105888350Y-92389200D01*
X106376650Y-92389200D01*
X106400581Y-92390376D01*
G37*
G36*
X104825581Y-92390376D02*
G01*
X104849281Y-92393891D01*
X104872523Y-92399713D01*
X104895082Y-92407785D01*
X104916742Y-92418029D01*
X104937292Y-92430347D01*
X104956537Y-92444619D01*
X104974290Y-92460710D01*
X104990381Y-92478463D01*
X105004653Y-92497708D01*
X105016971Y-92518258D01*
X105027215Y-92539918D01*
X105035287Y-92562477D01*
X105041109Y-92585719D01*
X105044624Y-92609419D01*
X105045800Y-92633350D01*
X105045800Y-93196650D01*
X105044624Y-93220581D01*
X105041109Y-93244281D01*
X105035287Y-93267523D01*
X105027215Y-93290082D01*
X105016971Y-93311742D01*
X105004653Y-93332292D01*
X104990381Y-93351537D01*
X104974290Y-93369290D01*
X104956537Y-93385381D01*
X104937292Y-93399653D01*
X104916742Y-93411971D01*
X104895082Y-93422215D01*
X104872523Y-93430287D01*
X104849281Y-93436109D01*
X104825581Y-93439624D01*
X104801650Y-93440800D01*
X104313350Y-93440800D01*
X104289419Y-93439624D01*
X104265719Y-93436109D01*
X104242477Y-93430287D01*
X104219918Y-93422215D01*
X104198258Y-93411971D01*
X104177708Y-93399653D01*
X104158463Y-93385381D01*
X104140710Y-93369290D01*
X104124619Y-93351537D01*
X104110347Y-93332292D01*
X104098029Y-93311742D01*
X104087785Y-93290082D01*
X104079713Y-93267523D01*
X104073891Y-93244281D01*
X104070376Y-93220581D01*
X104069200Y-93196650D01*
X104069200Y-92633350D01*
X104070376Y-92609419D01*
X104073891Y-92585719D01*
X104079713Y-92562477D01*
X104087785Y-92539918D01*
X104098029Y-92518258D01*
X104110347Y-92497708D01*
X104124619Y-92478463D01*
X104140710Y-92460710D01*
X104158463Y-92444619D01*
X104177708Y-92430347D01*
X104198258Y-92418029D01*
X104219918Y-92407785D01*
X104242477Y-92399713D01*
X104265719Y-92393891D01*
X104289419Y-92390376D01*
X104313350Y-92389200D01*
X104801650Y-92389200D01*
X104825581Y-92390376D01*
G37*
G36*
X90905581Y-100780376D02*
G01*
X90929281Y-100783891D01*
X90952523Y-100789713D01*
X90975082Y-100797785D01*
X90996742Y-100808029D01*
X91017292Y-100820347D01*
X91036537Y-100834619D01*
X91054290Y-100850710D01*
X91070381Y-100868463D01*
X91084653Y-100887708D01*
X91096971Y-100908258D01*
X91107215Y-100929918D01*
X91115287Y-100952477D01*
X91121109Y-100975719D01*
X91124624Y-100999419D01*
X91125800Y-101023350D01*
X91125800Y-101586650D01*
X91124624Y-101610581D01*
X91121109Y-101634281D01*
X91115287Y-101657523D01*
X91107215Y-101680082D01*
X91096971Y-101701742D01*
X91084653Y-101722292D01*
X91070381Y-101741537D01*
X91054290Y-101759290D01*
X91036537Y-101775381D01*
X91017292Y-101789653D01*
X90996742Y-101801971D01*
X90975082Y-101812215D01*
X90952523Y-101820287D01*
X90929281Y-101826109D01*
X90905581Y-101829624D01*
X90881650Y-101830800D01*
X90393350Y-101830800D01*
X90369419Y-101829624D01*
X90345719Y-101826109D01*
X90322477Y-101820287D01*
X90299918Y-101812215D01*
X90278258Y-101801971D01*
X90257708Y-101789653D01*
X90238463Y-101775381D01*
X90220710Y-101759290D01*
X90204619Y-101741537D01*
X90190347Y-101722292D01*
X90178029Y-101701742D01*
X90167785Y-101680082D01*
X90159713Y-101657523D01*
X90153891Y-101634281D01*
X90150376Y-101610581D01*
X90149200Y-101586650D01*
X90149200Y-101023350D01*
X90150376Y-100999419D01*
X90153891Y-100975719D01*
X90159713Y-100952477D01*
X90167785Y-100929918D01*
X90178029Y-100908258D01*
X90190347Y-100887708D01*
X90204619Y-100868463D01*
X90220710Y-100850710D01*
X90238463Y-100834619D01*
X90257708Y-100820347D01*
X90278258Y-100808029D01*
X90299918Y-100797785D01*
X90322477Y-100789713D01*
X90345719Y-100783891D01*
X90369419Y-100780376D01*
X90393350Y-100779200D01*
X90881650Y-100779200D01*
X90905581Y-100780376D01*
G37*
G36*
X89330581Y-100780376D02*
G01*
X89354281Y-100783891D01*
X89377523Y-100789713D01*
X89400082Y-100797785D01*
X89421742Y-100808029D01*
X89442292Y-100820347D01*
X89461537Y-100834619D01*
X89479290Y-100850710D01*
X89495381Y-100868463D01*
X89509653Y-100887708D01*
X89521971Y-100908258D01*
X89532215Y-100929918D01*
X89540287Y-100952477D01*
X89546109Y-100975719D01*
X89549624Y-100999419D01*
X89550800Y-101023350D01*
X89550800Y-101586650D01*
X89549624Y-101610581D01*
X89546109Y-101634281D01*
X89540287Y-101657523D01*
X89532215Y-101680082D01*
X89521971Y-101701742D01*
X89509653Y-101722292D01*
X89495381Y-101741537D01*
X89479290Y-101759290D01*
X89461537Y-101775381D01*
X89442292Y-101789653D01*
X89421742Y-101801971D01*
X89400082Y-101812215D01*
X89377523Y-101820287D01*
X89354281Y-101826109D01*
X89330581Y-101829624D01*
X89306650Y-101830800D01*
X88818350Y-101830800D01*
X88794419Y-101829624D01*
X88770719Y-101826109D01*
X88747477Y-101820287D01*
X88724918Y-101812215D01*
X88703258Y-101801971D01*
X88682708Y-101789653D01*
X88663463Y-101775381D01*
X88645710Y-101759290D01*
X88629619Y-101741537D01*
X88615347Y-101722292D01*
X88603029Y-101701742D01*
X88592785Y-101680082D01*
X88584713Y-101657523D01*
X88578891Y-101634281D01*
X88575376Y-101610581D01*
X88574200Y-101586650D01*
X88574200Y-101023350D01*
X88575376Y-100999419D01*
X88578891Y-100975719D01*
X88584713Y-100952477D01*
X88592785Y-100929918D01*
X88603029Y-100908258D01*
X88615347Y-100887708D01*
X88629619Y-100868463D01*
X88645710Y-100850710D01*
X88663463Y-100834619D01*
X88682708Y-100820347D01*
X88703258Y-100808029D01*
X88724918Y-100797785D01*
X88747477Y-100789713D01*
X88770719Y-100783891D01*
X88794419Y-100780376D01*
X88818350Y-100779200D01*
X89306650Y-100779200D01*
X89330581Y-100780376D01*
G37*
G36*
X124430581Y-92500376D02*
G01*
X124454281Y-92503891D01*
X124477523Y-92509713D01*
X124500082Y-92517785D01*
X124521742Y-92528029D01*
X124542292Y-92540347D01*
X124561537Y-92554619D01*
X124579290Y-92570710D01*
X124595381Y-92588463D01*
X124609653Y-92607708D01*
X124621971Y-92628258D01*
X124632215Y-92649918D01*
X124640287Y-92672477D01*
X124646109Y-92695719D01*
X124649624Y-92719419D01*
X124650800Y-92743350D01*
X124650800Y-93306650D01*
X124649624Y-93330581D01*
X124646109Y-93354281D01*
X124640287Y-93377523D01*
X124632215Y-93400082D01*
X124621971Y-93421742D01*
X124609653Y-93442292D01*
X124595381Y-93461537D01*
X124579290Y-93479290D01*
X124561537Y-93495381D01*
X124542292Y-93509653D01*
X124521742Y-93521971D01*
X124500082Y-93532215D01*
X124477523Y-93540287D01*
X124454281Y-93546109D01*
X124430581Y-93549624D01*
X124406650Y-93550800D01*
X123918350Y-93550800D01*
X123894419Y-93549624D01*
X123870719Y-93546109D01*
X123847477Y-93540287D01*
X123824918Y-93532215D01*
X123803258Y-93521971D01*
X123782708Y-93509653D01*
X123763463Y-93495381D01*
X123745710Y-93479290D01*
X123729619Y-93461537D01*
X123715347Y-93442292D01*
X123703029Y-93421742D01*
X123692785Y-93400082D01*
X123684713Y-93377523D01*
X123678891Y-93354281D01*
X123675376Y-93330581D01*
X123674200Y-93306650D01*
X123674200Y-92743350D01*
X123675376Y-92719419D01*
X123678891Y-92695719D01*
X123684713Y-92672477D01*
X123692785Y-92649918D01*
X123703029Y-92628258D01*
X123715347Y-92607708D01*
X123729619Y-92588463D01*
X123745710Y-92570710D01*
X123763463Y-92554619D01*
X123782708Y-92540347D01*
X123803258Y-92528029D01*
X123824918Y-92517785D01*
X123847477Y-92509713D01*
X123870719Y-92503891D01*
X123894419Y-92500376D01*
X123918350Y-92499200D01*
X124406650Y-92499200D01*
X124430581Y-92500376D01*
G37*
G36*
X126005581Y-92500376D02*
G01*
X126029281Y-92503891D01*
X126052523Y-92509713D01*
X126075082Y-92517785D01*
X126096742Y-92528029D01*
X126117292Y-92540347D01*
X126136537Y-92554619D01*
X126154290Y-92570710D01*
X126170381Y-92588463D01*
X126184653Y-92607708D01*
X126196971Y-92628258D01*
X126207215Y-92649918D01*
X126215287Y-92672477D01*
X126221109Y-92695719D01*
X126224624Y-92719419D01*
X126225800Y-92743350D01*
X126225800Y-93306650D01*
X126224624Y-93330581D01*
X126221109Y-93354281D01*
X126215287Y-93377523D01*
X126207215Y-93400082D01*
X126196971Y-93421742D01*
X126184653Y-93442292D01*
X126170381Y-93461537D01*
X126154290Y-93479290D01*
X126136537Y-93495381D01*
X126117292Y-93509653D01*
X126096742Y-93521971D01*
X126075082Y-93532215D01*
X126052523Y-93540287D01*
X126029281Y-93546109D01*
X126005581Y-93549624D01*
X125981650Y-93550800D01*
X125493350Y-93550800D01*
X125469419Y-93549624D01*
X125445719Y-93546109D01*
X125422477Y-93540287D01*
X125399918Y-93532215D01*
X125378258Y-93521971D01*
X125357708Y-93509653D01*
X125338463Y-93495381D01*
X125320710Y-93479290D01*
X125304619Y-93461537D01*
X125290347Y-93442292D01*
X125278029Y-93421742D01*
X125267785Y-93400082D01*
X125259713Y-93377523D01*
X125253891Y-93354281D01*
X125250376Y-93330581D01*
X125249200Y-93306650D01*
X125249200Y-92743350D01*
X125250376Y-92719419D01*
X125253891Y-92695719D01*
X125259713Y-92672477D01*
X125267785Y-92649918D01*
X125278029Y-92628258D01*
X125290347Y-92607708D01*
X125304619Y-92588463D01*
X125320710Y-92570710D01*
X125338463Y-92554619D01*
X125357708Y-92540347D01*
X125378258Y-92528029D01*
X125399918Y-92517785D01*
X125422477Y-92509713D01*
X125445719Y-92503891D01*
X125469419Y-92500376D01*
X125493350Y-92499200D01*
X125981650Y-92499200D01*
X126005581Y-92500376D01*
G37*
G36*
X117175581Y-105600376D02*
G01*
X117199281Y-105603891D01*
X117222523Y-105609713D01*
X117245082Y-105617785D01*
X117266742Y-105628029D01*
X117287292Y-105640347D01*
X117306537Y-105654619D01*
X117324290Y-105670710D01*
X117340381Y-105688463D01*
X117354653Y-105707708D01*
X117366971Y-105728258D01*
X117377215Y-105749918D01*
X117385287Y-105772477D01*
X117391109Y-105795719D01*
X117394624Y-105819419D01*
X117395800Y-105843350D01*
X117395800Y-106406650D01*
X117394624Y-106430581D01*
X117391109Y-106454281D01*
X117385287Y-106477523D01*
X117377215Y-106500082D01*
X117366971Y-106521742D01*
X117354653Y-106542292D01*
X117340381Y-106561537D01*
X117324290Y-106579290D01*
X117306537Y-106595381D01*
X117287292Y-106609653D01*
X117266742Y-106621971D01*
X117245082Y-106632215D01*
X117222523Y-106640287D01*
X117199281Y-106646109D01*
X117175581Y-106649624D01*
X117151650Y-106650800D01*
X116663350Y-106650800D01*
X116639419Y-106649624D01*
X116615719Y-106646109D01*
X116592477Y-106640287D01*
X116569918Y-106632215D01*
X116548258Y-106621971D01*
X116527708Y-106609653D01*
X116508463Y-106595381D01*
X116490710Y-106579290D01*
X116474619Y-106561537D01*
X116460347Y-106542292D01*
X116448029Y-106521742D01*
X116437785Y-106500082D01*
X116429713Y-106477523D01*
X116423891Y-106454281D01*
X116420376Y-106430581D01*
X116419200Y-106406650D01*
X116419200Y-105843350D01*
X116420376Y-105819419D01*
X116423891Y-105795719D01*
X116429713Y-105772477D01*
X116437785Y-105749918D01*
X116448029Y-105728258D01*
X116460347Y-105707708D01*
X116474619Y-105688463D01*
X116490710Y-105670710D01*
X116508463Y-105654619D01*
X116527708Y-105640347D01*
X116548258Y-105628029D01*
X116569918Y-105617785D01*
X116592477Y-105609713D01*
X116615719Y-105603891D01*
X116639419Y-105600376D01*
X116663350Y-105599200D01*
X117151650Y-105599200D01*
X117175581Y-105600376D01*
G37*
G36*
X118750581Y-105600376D02*
G01*
X118774281Y-105603891D01*
X118797523Y-105609713D01*
X118820082Y-105617785D01*
X118841742Y-105628029D01*
X118862292Y-105640347D01*
X118881537Y-105654619D01*
X118899290Y-105670710D01*
X118915381Y-105688463D01*
X118929653Y-105707708D01*
X118941971Y-105728258D01*
X118952215Y-105749918D01*
X118960287Y-105772477D01*
X118966109Y-105795719D01*
X118969624Y-105819419D01*
X118970800Y-105843350D01*
X118970800Y-106406650D01*
X118969624Y-106430581D01*
X118966109Y-106454281D01*
X118960287Y-106477523D01*
X118952215Y-106500082D01*
X118941971Y-106521742D01*
X118929653Y-106542292D01*
X118915381Y-106561537D01*
X118899290Y-106579290D01*
X118881537Y-106595381D01*
X118862292Y-106609653D01*
X118841742Y-106621971D01*
X118820082Y-106632215D01*
X118797523Y-106640287D01*
X118774281Y-106646109D01*
X118750581Y-106649624D01*
X118726650Y-106650800D01*
X118238350Y-106650800D01*
X118214419Y-106649624D01*
X118190719Y-106646109D01*
X118167477Y-106640287D01*
X118144918Y-106632215D01*
X118123258Y-106621971D01*
X118102708Y-106609653D01*
X118083463Y-106595381D01*
X118065710Y-106579290D01*
X118049619Y-106561537D01*
X118035347Y-106542292D01*
X118023029Y-106521742D01*
X118012785Y-106500082D01*
X118004713Y-106477523D01*
X117998891Y-106454281D01*
X117995376Y-106430581D01*
X117994200Y-106406650D01*
X117994200Y-105843350D01*
X117995376Y-105819419D01*
X117998891Y-105795719D01*
X118004713Y-105772477D01*
X118012785Y-105749918D01*
X118023029Y-105728258D01*
X118035347Y-105707708D01*
X118049619Y-105688463D01*
X118065710Y-105670710D01*
X118083463Y-105654619D01*
X118102708Y-105640347D01*
X118123258Y-105628029D01*
X118144918Y-105617785D01*
X118167477Y-105609713D01*
X118190719Y-105603891D01*
X118214419Y-105600376D01*
X118238350Y-105599200D01*
X118726650Y-105599200D01*
X118750581Y-105600376D01*
G37*
G36*
X114125581Y-105600376D02*
G01*
X114149281Y-105603891D01*
X114172523Y-105609713D01*
X114195082Y-105617785D01*
X114216742Y-105628029D01*
X114237292Y-105640347D01*
X114256537Y-105654619D01*
X114274290Y-105670710D01*
X114290381Y-105688463D01*
X114304653Y-105707708D01*
X114316971Y-105728258D01*
X114327215Y-105749918D01*
X114335287Y-105772477D01*
X114341109Y-105795719D01*
X114344624Y-105819419D01*
X114345800Y-105843350D01*
X114345800Y-106406650D01*
X114344624Y-106430581D01*
X114341109Y-106454281D01*
X114335287Y-106477523D01*
X114327215Y-106500082D01*
X114316971Y-106521742D01*
X114304653Y-106542292D01*
X114290381Y-106561537D01*
X114274290Y-106579290D01*
X114256537Y-106595381D01*
X114237292Y-106609653D01*
X114216742Y-106621971D01*
X114195082Y-106632215D01*
X114172523Y-106640287D01*
X114149281Y-106646109D01*
X114125581Y-106649624D01*
X114101650Y-106650800D01*
X113613350Y-106650800D01*
X113589419Y-106649624D01*
X113565719Y-106646109D01*
X113542477Y-106640287D01*
X113519918Y-106632215D01*
X113498258Y-106621971D01*
X113477708Y-106609653D01*
X113458463Y-106595381D01*
X113440710Y-106579290D01*
X113424619Y-106561537D01*
X113410347Y-106542292D01*
X113398029Y-106521742D01*
X113387785Y-106500082D01*
X113379713Y-106477523D01*
X113373891Y-106454281D01*
X113370376Y-106430581D01*
X113369200Y-106406650D01*
X113369200Y-105843350D01*
X113370376Y-105819419D01*
X113373891Y-105795719D01*
X113379713Y-105772477D01*
X113387785Y-105749918D01*
X113398029Y-105728258D01*
X113410347Y-105707708D01*
X113424619Y-105688463D01*
X113440710Y-105670710D01*
X113458463Y-105654619D01*
X113477708Y-105640347D01*
X113498258Y-105628029D01*
X113519918Y-105617785D01*
X113542477Y-105609713D01*
X113565719Y-105603891D01*
X113589419Y-105600376D01*
X113613350Y-105599200D01*
X114101650Y-105599200D01*
X114125581Y-105600376D01*
G37*
G36*
X115700581Y-105600376D02*
G01*
X115724281Y-105603891D01*
X115747523Y-105609713D01*
X115770082Y-105617785D01*
X115791742Y-105628029D01*
X115812292Y-105640347D01*
X115831537Y-105654619D01*
X115849290Y-105670710D01*
X115865381Y-105688463D01*
X115879653Y-105707708D01*
X115891971Y-105728258D01*
X115902215Y-105749918D01*
X115910287Y-105772477D01*
X115916109Y-105795719D01*
X115919624Y-105819419D01*
X115920800Y-105843350D01*
X115920800Y-106406650D01*
X115919624Y-106430581D01*
X115916109Y-106454281D01*
X115910287Y-106477523D01*
X115902215Y-106500082D01*
X115891971Y-106521742D01*
X115879653Y-106542292D01*
X115865381Y-106561537D01*
X115849290Y-106579290D01*
X115831537Y-106595381D01*
X115812292Y-106609653D01*
X115791742Y-106621971D01*
X115770082Y-106632215D01*
X115747523Y-106640287D01*
X115724281Y-106646109D01*
X115700581Y-106649624D01*
X115676650Y-106650800D01*
X115188350Y-106650800D01*
X115164419Y-106649624D01*
X115140719Y-106646109D01*
X115117477Y-106640287D01*
X115094918Y-106632215D01*
X115073258Y-106621971D01*
X115052708Y-106609653D01*
X115033463Y-106595381D01*
X115015710Y-106579290D01*
X114999619Y-106561537D01*
X114985347Y-106542292D01*
X114973029Y-106521742D01*
X114962785Y-106500082D01*
X114954713Y-106477523D01*
X114948891Y-106454281D01*
X114945376Y-106430581D01*
X114944200Y-106406650D01*
X114944200Y-105843350D01*
X114945376Y-105819419D01*
X114948891Y-105795719D01*
X114954713Y-105772477D01*
X114962785Y-105749918D01*
X114973029Y-105728258D01*
X114985347Y-105707708D01*
X114999619Y-105688463D01*
X115015710Y-105670710D01*
X115033463Y-105654619D01*
X115052708Y-105640347D01*
X115073258Y-105628029D01*
X115094918Y-105617785D01*
X115117477Y-105609713D01*
X115140719Y-105603891D01*
X115164419Y-105600376D01*
X115188350Y-105599200D01*
X115676650Y-105599200D01*
X115700581Y-105600376D01*
G37*
G36*
X107875581Y-102425376D02*
G01*
X107899281Y-102428891D01*
X107922523Y-102434713D01*
X107945082Y-102442785D01*
X107966742Y-102453029D01*
X107987292Y-102465347D01*
X108006537Y-102479619D01*
X108024290Y-102495710D01*
X108040381Y-102513463D01*
X108054653Y-102532708D01*
X108066971Y-102553258D01*
X108077215Y-102574918D01*
X108085287Y-102597477D01*
X108091109Y-102620719D01*
X108094624Y-102644419D01*
X108095800Y-102668350D01*
X108095800Y-103231650D01*
X108094624Y-103255581D01*
X108091109Y-103279281D01*
X108085287Y-103302523D01*
X108077215Y-103325082D01*
X108066971Y-103346742D01*
X108054653Y-103367292D01*
X108040381Y-103386537D01*
X108024290Y-103404290D01*
X108006537Y-103420381D01*
X107987292Y-103434653D01*
X107966742Y-103446971D01*
X107945082Y-103457215D01*
X107922523Y-103465287D01*
X107899281Y-103471109D01*
X107875581Y-103474624D01*
X107851650Y-103475800D01*
X107363350Y-103475800D01*
X107339419Y-103474624D01*
X107315719Y-103471109D01*
X107292477Y-103465287D01*
X107269918Y-103457215D01*
X107248258Y-103446971D01*
X107227708Y-103434653D01*
X107208463Y-103420381D01*
X107190710Y-103404290D01*
X107174619Y-103386537D01*
X107160347Y-103367292D01*
X107148029Y-103346742D01*
X107137785Y-103325082D01*
X107129713Y-103302523D01*
X107123891Y-103279281D01*
X107120376Y-103255581D01*
X107119200Y-103231650D01*
X107119200Y-102668350D01*
X107120376Y-102644419D01*
X107123891Y-102620719D01*
X107129713Y-102597477D01*
X107137785Y-102574918D01*
X107148029Y-102553258D01*
X107160347Y-102532708D01*
X107174619Y-102513463D01*
X107190710Y-102495710D01*
X107208463Y-102479619D01*
X107227708Y-102465347D01*
X107248258Y-102453029D01*
X107269918Y-102442785D01*
X107292477Y-102434713D01*
X107315719Y-102428891D01*
X107339419Y-102425376D01*
X107363350Y-102424200D01*
X107851650Y-102424200D01*
X107875581Y-102425376D01*
G37*
G36*
X106300581Y-102425376D02*
G01*
X106324281Y-102428891D01*
X106347523Y-102434713D01*
X106370082Y-102442785D01*
X106391742Y-102453029D01*
X106412292Y-102465347D01*
X106431537Y-102479619D01*
X106449290Y-102495710D01*
X106465381Y-102513463D01*
X106479653Y-102532708D01*
X106491971Y-102553258D01*
X106502215Y-102574918D01*
X106510287Y-102597477D01*
X106516109Y-102620719D01*
X106519624Y-102644419D01*
X106520800Y-102668350D01*
X106520800Y-103231650D01*
X106519624Y-103255581D01*
X106516109Y-103279281D01*
X106510287Y-103302523D01*
X106502215Y-103325082D01*
X106491971Y-103346742D01*
X106479653Y-103367292D01*
X106465381Y-103386537D01*
X106449290Y-103404290D01*
X106431537Y-103420381D01*
X106412292Y-103434653D01*
X106391742Y-103446971D01*
X106370082Y-103457215D01*
X106347523Y-103465287D01*
X106324281Y-103471109D01*
X106300581Y-103474624D01*
X106276650Y-103475800D01*
X105788350Y-103475800D01*
X105764419Y-103474624D01*
X105740719Y-103471109D01*
X105717477Y-103465287D01*
X105694918Y-103457215D01*
X105673258Y-103446971D01*
X105652708Y-103434653D01*
X105633463Y-103420381D01*
X105615710Y-103404290D01*
X105599619Y-103386537D01*
X105585347Y-103367292D01*
X105573029Y-103346742D01*
X105562785Y-103325082D01*
X105554713Y-103302523D01*
X105548891Y-103279281D01*
X105545376Y-103255581D01*
X105544200Y-103231650D01*
X105544200Y-102668350D01*
X105545376Y-102644419D01*
X105548891Y-102620719D01*
X105554713Y-102597477D01*
X105562785Y-102574918D01*
X105573029Y-102553258D01*
X105585347Y-102532708D01*
X105599619Y-102513463D01*
X105615710Y-102495710D01*
X105633463Y-102479619D01*
X105652708Y-102465347D01*
X105673258Y-102453029D01*
X105694918Y-102442785D01*
X105717477Y-102434713D01*
X105740719Y-102428891D01*
X105764419Y-102425376D01*
X105788350Y-102424200D01*
X106276650Y-102424200D01*
X106300581Y-102425376D01*
G37*
G36*
X104350581Y-102425376D02*
G01*
X104374281Y-102428891D01*
X104397523Y-102434713D01*
X104420082Y-102442785D01*
X104441742Y-102453029D01*
X104462292Y-102465347D01*
X104481537Y-102479619D01*
X104499290Y-102495710D01*
X104515381Y-102513463D01*
X104529653Y-102532708D01*
X104541971Y-102553258D01*
X104552215Y-102574918D01*
X104560287Y-102597477D01*
X104566109Y-102620719D01*
X104569624Y-102644419D01*
X104570800Y-102668350D01*
X104570800Y-103231650D01*
X104569624Y-103255581D01*
X104566109Y-103279281D01*
X104560287Y-103302523D01*
X104552215Y-103325082D01*
X104541971Y-103346742D01*
X104529653Y-103367292D01*
X104515381Y-103386537D01*
X104499290Y-103404290D01*
X104481537Y-103420381D01*
X104462292Y-103434653D01*
X104441742Y-103446971D01*
X104420082Y-103457215D01*
X104397523Y-103465287D01*
X104374281Y-103471109D01*
X104350581Y-103474624D01*
X104326650Y-103475800D01*
X103838350Y-103475800D01*
X103814419Y-103474624D01*
X103790719Y-103471109D01*
X103767477Y-103465287D01*
X103744918Y-103457215D01*
X103723258Y-103446971D01*
X103702708Y-103434653D01*
X103683463Y-103420381D01*
X103665710Y-103404290D01*
X103649619Y-103386537D01*
X103635347Y-103367292D01*
X103623029Y-103346742D01*
X103612785Y-103325082D01*
X103604713Y-103302523D01*
X103598891Y-103279281D01*
X103595376Y-103255581D01*
X103594200Y-103231650D01*
X103594200Y-102668350D01*
X103595376Y-102644419D01*
X103598891Y-102620719D01*
X103604713Y-102597477D01*
X103612785Y-102574918D01*
X103623029Y-102553258D01*
X103635347Y-102532708D01*
X103649619Y-102513463D01*
X103665710Y-102495710D01*
X103683463Y-102479619D01*
X103702708Y-102465347D01*
X103723258Y-102453029D01*
X103744918Y-102442785D01*
X103767477Y-102434713D01*
X103790719Y-102428891D01*
X103814419Y-102425376D01*
X103838350Y-102424200D01*
X104326650Y-102424200D01*
X104350581Y-102425376D01*
G37*
G36*
X102775581Y-102425376D02*
G01*
X102799281Y-102428891D01*
X102822523Y-102434713D01*
X102845082Y-102442785D01*
X102866742Y-102453029D01*
X102887292Y-102465347D01*
X102906537Y-102479619D01*
X102924290Y-102495710D01*
X102940381Y-102513463D01*
X102954653Y-102532708D01*
X102966971Y-102553258D01*
X102977215Y-102574918D01*
X102985287Y-102597477D01*
X102991109Y-102620719D01*
X102994624Y-102644419D01*
X102995800Y-102668350D01*
X102995800Y-103231650D01*
X102994624Y-103255581D01*
X102991109Y-103279281D01*
X102985287Y-103302523D01*
X102977215Y-103325082D01*
X102966971Y-103346742D01*
X102954653Y-103367292D01*
X102940381Y-103386537D01*
X102924290Y-103404290D01*
X102906537Y-103420381D01*
X102887292Y-103434653D01*
X102866742Y-103446971D01*
X102845082Y-103457215D01*
X102822523Y-103465287D01*
X102799281Y-103471109D01*
X102775581Y-103474624D01*
X102751650Y-103475800D01*
X102263350Y-103475800D01*
X102239419Y-103474624D01*
X102215719Y-103471109D01*
X102192477Y-103465287D01*
X102169918Y-103457215D01*
X102148258Y-103446971D01*
X102127708Y-103434653D01*
X102108463Y-103420381D01*
X102090710Y-103404290D01*
X102074619Y-103386537D01*
X102060347Y-103367292D01*
X102048029Y-103346742D01*
X102037785Y-103325082D01*
X102029713Y-103302523D01*
X102023891Y-103279281D01*
X102020376Y-103255581D01*
X102019200Y-103231650D01*
X102019200Y-102668350D01*
X102020376Y-102644419D01*
X102023891Y-102620719D01*
X102029713Y-102597477D01*
X102037785Y-102574918D01*
X102048029Y-102553258D01*
X102060347Y-102532708D01*
X102074619Y-102513463D01*
X102090710Y-102495710D01*
X102108463Y-102479619D01*
X102127708Y-102465347D01*
X102148258Y-102453029D01*
X102169918Y-102442785D01*
X102192477Y-102434713D01*
X102215719Y-102428891D01*
X102239419Y-102425376D01*
X102263350Y-102424200D01*
X102751650Y-102424200D01*
X102775581Y-102425376D01*
G37*
G36*
X106150581Y-97475376D02*
G01*
X106174281Y-97478891D01*
X106197523Y-97484713D01*
X106220082Y-97492785D01*
X106241742Y-97503029D01*
X106262292Y-97515347D01*
X106281537Y-97529619D01*
X106299290Y-97545710D01*
X106315381Y-97563463D01*
X106329653Y-97582708D01*
X106341971Y-97603258D01*
X106352215Y-97624918D01*
X106360287Y-97647477D01*
X106366109Y-97670719D01*
X106369624Y-97694419D01*
X106370800Y-97718350D01*
X106370800Y-98281650D01*
X106369624Y-98305581D01*
X106366109Y-98329281D01*
X106360287Y-98352523D01*
X106352215Y-98375082D01*
X106341971Y-98396742D01*
X106329653Y-98417292D01*
X106315381Y-98436537D01*
X106299290Y-98454290D01*
X106281537Y-98470381D01*
X106262292Y-98484653D01*
X106241742Y-98496971D01*
X106220082Y-98507215D01*
X106197523Y-98515287D01*
X106174281Y-98521109D01*
X106150581Y-98524624D01*
X106126650Y-98525800D01*
X105638350Y-98525800D01*
X105614419Y-98524624D01*
X105590719Y-98521109D01*
X105567477Y-98515287D01*
X105544918Y-98507215D01*
X105523258Y-98496971D01*
X105502708Y-98484653D01*
X105483463Y-98470381D01*
X105465710Y-98454290D01*
X105449619Y-98436537D01*
X105435347Y-98417292D01*
X105423029Y-98396742D01*
X105412785Y-98375082D01*
X105404713Y-98352523D01*
X105398891Y-98329281D01*
X105395376Y-98305581D01*
X105394200Y-98281650D01*
X105394200Y-97718350D01*
X105395376Y-97694419D01*
X105398891Y-97670719D01*
X105404713Y-97647477D01*
X105412785Y-97624918D01*
X105423029Y-97603258D01*
X105435347Y-97582708D01*
X105449619Y-97563463D01*
X105465710Y-97545710D01*
X105483463Y-97529619D01*
X105502708Y-97515347D01*
X105523258Y-97503029D01*
X105544918Y-97492785D01*
X105567477Y-97484713D01*
X105590719Y-97478891D01*
X105614419Y-97475376D01*
X105638350Y-97474200D01*
X106126650Y-97474200D01*
X106150581Y-97475376D01*
G37*
G36*
X107725581Y-97475376D02*
G01*
X107749281Y-97478891D01*
X107772523Y-97484713D01*
X107795082Y-97492785D01*
X107816742Y-97503029D01*
X107837292Y-97515347D01*
X107856537Y-97529619D01*
X107874290Y-97545710D01*
X107890381Y-97563463D01*
X107904653Y-97582708D01*
X107916971Y-97603258D01*
X107927215Y-97624918D01*
X107935287Y-97647477D01*
X107941109Y-97670719D01*
X107944624Y-97694419D01*
X107945800Y-97718350D01*
X107945800Y-98281650D01*
X107944624Y-98305581D01*
X107941109Y-98329281D01*
X107935287Y-98352523D01*
X107927215Y-98375082D01*
X107916971Y-98396742D01*
X107904653Y-98417292D01*
X107890381Y-98436537D01*
X107874290Y-98454290D01*
X107856537Y-98470381D01*
X107837292Y-98484653D01*
X107816742Y-98496971D01*
X107795082Y-98507215D01*
X107772523Y-98515287D01*
X107749281Y-98521109D01*
X107725581Y-98524624D01*
X107701650Y-98525800D01*
X107213350Y-98525800D01*
X107189419Y-98524624D01*
X107165719Y-98521109D01*
X107142477Y-98515287D01*
X107119918Y-98507215D01*
X107098258Y-98496971D01*
X107077708Y-98484653D01*
X107058463Y-98470381D01*
X107040710Y-98454290D01*
X107024619Y-98436537D01*
X107010347Y-98417292D01*
X106998029Y-98396742D01*
X106987785Y-98375082D01*
X106979713Y-98352523D01*
X106973891Y-98329281D01*
X106970376Y-98305581D01*
X106969200Y-98281650D01*
X106969200Y-97718350D01*
X106970376Y-97694419D01*
X106973891Y-97670719D01*
X106979713Y-97647477D01*
X106987785Y-97624918D01*
X106998029Y-97603258D01*
X107010347Y-97582708D01*
X107024619Y-97563463D01*
X107040710Y-97545710D01*
X107058463Y-97529619D01*
X107077708Y-97515347D01*
X107098258Y-97503029D01*
X107119918Y-97492785D01*
X107142477Y-97484713D01*
X107165719Y-97478891D01*
X107189419Y-97475376D01*
X107213350Y-97474200D01*
X107701650Y-97474200D01*
X107725581Y-97475376D01*
G37*
G36*
X102550581Y-97475376D02*
G01*
X102574281Y-97478891D01*
X102597523Y-97484713D01*
X102620082Y-97492785D01*
X102641742Y-97503029D01*
X102662292Y-97515347D01*
X102681537Y-97529619D01*
X102699290Y-97545710D01*
X102715381Y-97563463D01*
X102729653Y-97582708D01*
X102741971Y-97603258D01*
X102752215Y-97624918D01*
X102760287Y-97647477D01*
X102766109Y-97670719D01*
X102769624Y-97694419D01*
X102770800Y-97718350D01*
X102770800Y-98281650D01*
X102769624Y-98305581D01*
X102766109Y-98329281D01*
X102760287Y-98352523D01*
X102752215Y-98375082D01*
X102741971Y-98396742D01*
X102729653Y-98417292D01*
X102715381Y-98436537D01*
X102699290Y-98454290D01*
X102681537Y-98470381D01*
X102662292Y-98484653D01*
X102641742Y-98496971D01*
X102620082Y-98507215D01*
X102597523Y-98515287D01*
X102574281Y-98521109D01*
X102550581Y-98524624D01*
X102526650Y-98525800D01*
X102038350Y-98525800D01*
X102014419Y-98524624D01*
X101990719Y-98521109D01*
X101967477Y-98515287D01*
X101944918Y-98507215D01*
X101923258Y-98496971D01*
X101902708Y-98484653D01*
X101883463Y-98470381D01*
X101865710Y-98454290D01*
X101849619Y-98436537D01*
X101835347Y-98417292D01*
X101823029Y-98396742D01*
X101812785Y-98375082D01*
X101804713Y-98352523D01*
X101798891Y-98329281D01*
X101795376Y-98305581D01*
X101794200Y-98281650D01*
X101794200Y-97718350D01*
X101795376Y-97694419D01*
X101798891Y-97670719D01*
X101804713Y-97647477D01*
X101812785Y-97624918D01*
X101823029Y-97603258D01*
X101835347Y-97582708D01*
X101849619Y-97563463D01*
X101865710Y-97545710D01*
X101883463Y-97529619D01*
X101902708Y-97515347D01*
X101923258Y-97503029D01*
X101944918Y-97492785D01*
X101967477Y-97484713D01*
X101990719Y-97478891D01*
X102014419Y-97475376D01*
X102038350Y-97474200D01*
X102526650Y-97474200D01*
X102550581Y-97475376D01*
G37*
G36*
X104125581Y-97475376D02*
G01*
X104149281Y-97478891D01*
X104172523Y-97484713D01*
X104195082Y-97492785D01*
X104216742Y-97503029D01*
X104237292Y-97515347D01*
X104256537Y-97529619D01*
X104274290Y-97545710D01*
X104290381Y-97563463D01*
X104304653Y-97582708D01*
X104316971Y-97603258D01*
X104327215Y-97624918D01*
X104335287Y-97647477D01*
X104341109Y-97670719D01*
X104344624Y-97694419D01*
X104345800Y-97718350D01*
X104345800Y-98281650D01*
X104344624Y-98305581D01*
X104341109Y-98329281D01*
X104335287Y-98352523D01*
X104327215Y-98375082D01*
X104316971Y-98396742D01*
X104304653Y-98417292D01*
X104290381Y-98436537D01*
X104274290Y-98454290D01*
X104256537Y-98470381D01*
X104237292Y-98484653D01*
X104216742Y-98496971D01*
X104195082Y-98507215D01*
X104172523Y-98515287D01*
X104149281Y-98521109D01*
X104125581Y-98524624D01*
X104101650Y-98525800D01*
X103613350Y-98525800D01*
X103589419Y-98524624D01*
X103565719Y-98521109D01*
X103542477Y-98515287D01*
X103519918Y-98507215D01*
X103498258Y-98496971D01*
X103477708Y-98484653D01*
X103458463Y-98470381D01*
X103440710Y-98454290D01*
X103424619Y-98436537D01*
X103410347Y-98417292D01*
X103398029Y-98396742D01*
X103387785Y-98375082D01*
X103379713Y-98352523D01*
X103373891Y-98329281D01*
X103370376Y-98305581D01*
X103369200Y-98281650D01*
X103369200Y-97718350D01*
X103370376Y-97694419D01*
X103373891Y-97670719D01*
X103379713Y-97647477D01*
X103387785Y-97624918D01*
X103398029Y-97603258D01*
X103410347Y-97582708D01*
X103424619Y-97563463D01*
X103440710Y-97545710D01*
X103458463Y-97529619D01*
X103477708Y-97515347D01*
X103498258Y-97503029D01*
X103519918Y-97492785D01*
X103542477Y-97484713D01*
X103565719Y-97478891D01*
X103589419Y-97475376D01*
X103613350Y-97474200D01*
X104101650Y-97474200D01*
X104125581Y-97475376D01*
G37*
G36*
X100700581Y-102425376D02*
G01*
X100724281Y-102428891D01*
X100747523Y-102434713D01*
X100770082Y-102442785D01*
X100791742Y-102453029D01*
X100812292Y-102465347D01*
X100831537Y-102479619D01*
X100849290Y-102495710D01*
X100865381Y-102513463D01*
X100879653Y-102532708D01*
X100891971Y-102553258D01*
X100902215Y-102574918D01*
X100910287Y-102597477D01*
X100916109Y-102620719D01*
X100919624Y-102644419D01*
X100920800Y-102668350D01*
X100920800Y-103231650D01*
X100919624Y-103255581D01*
X100916109Y-103279281D01*
X100910287Y-103302523D01*
X100902215Y-103325082D01*
X100891971Y-103346742D01*
X100879653Y-103367292D01*
X100865381Y-103386537D01*
X100849290Y-103404290D01*
X100831537Y-103420381D01*
X100812292Y-103434653D01*
X100791742Y-103446971D01*
X100770082Y-103457215D01*
X100747523Y-103465287D01*
X100724281Y-103471109D01*
X100700581Y-103474624D01*
X100676650Y-103475800D01*
X100188350Y-103475800D01*
X100164419Y-103474624D01*
X100140719Y-103471109D01*
X100117477Y-103465287D01*
X100094918Y-103457215D01*
X100073258Y-103446971D01*
X100052708Y-103434653D01*
X100033463Y-103420381D01*
X100015710Y-103404290D01*
X99999619Y-103386537D01*
X99985347Y-103367292D01*
X99973029Y-103346742D01*
X99962785Y-103325082D01*
X99954713Y-103302523D01*
X99948891Y-103279281D01*
X99945376Y-103255581D01*
X99944200Y-103231650D01*
X99944200Y-102668350D01*
X99945376Y-102644419D01*
X99948891Y-102620719D01*
X99954713Y-102597477D01*
X99962785Y-102574918D01*
X99973029Y-102553258D01*
X99985347Y-102532708D01*
X99999619Y-102513463D01*
X100015710Y-102495710D01*
X100033463Y-102479619D01*
X100052708Y-102465347D01*
X100073258Y-102453029D01*
X100094918Y-102442785D01*
X100117477Y-102434713D01*
X100140719Y-102428891D01*
X100164419Y-102425376D01*
X100188350Y-102424200D01*
X100676650Y-102424200D01*
X100700581Y-102425376D01*
G37*
G36*
X99125581Y-102425376D02*
G01*
X99149281Y-102428891D01*
X99172523Y-102434713D01*
X99195082Y-102442785D01*
X99216742Y-102453029D01*
X99237292Y-102465347D01*
X99256537Y-102479619D01*
X99274290Y-102495710D01*
X99290381Y-102513463D01*
X99304653Y-102532708D01*
X99316971Y-102553258D01*
X99327215Y-102574918D01*
X99335287Y-102597477D01*
X99341109Y-102620719D01*
X99344624Y-102644419D01*
X99345800Y-102668350D01*
X99345800Y-103231650D01*
X99344624Y-103255581D01*
X99341109Y-103279281D01*
X99335287Y-103302523D01*
X99327215Y-103325082D01*
X99316971Y-103346742D01*
X99304653Y-103367292D01*
X99290381Y-103386537D01*
X99274290Y-103404290D01*
X99256537Y-103420381D01*
X99237292Y-103434653D01*
X99216742Y-103446971D01*
X99195082Y-103457215D01*
X99172523Y-103465287D01*
X99149281Y-103471109D01*
X99125581Y-103474624D01*
X99101650Y-103475800D01*
X98613350Y-103475800D01*
X98589419Y-103474624D01*
X98565719Y-103471109D01*
X98542477Y-103465287D01*
X98519918Y-103457215D01*
X98498258Y-103446971D01*
X98477708Y-103434653D01*
X98458463Y-103420381D01*
X98440710Y-103404290D01*
X98424619Y-103386537D01*
X98410347Y-103367292D01*
X98398029Y-103346742D01*
X98387785Y-103325082D01*
X98379713Y-103302523D01*
X98373891Y-103279281D01*
X98370376Y-103255581D01*
X98369200Y-103231650D01*
X98369200Y-102668350D01*
X98370376Y-102644419D01*
X98373891Y-102620719D01*
X98379713Y-102597477D01*
X98387785Y-102574918D01*
X98398029Y-102553258D01*
X98410347Y-102532708D01*
X98424619Y-102513463D01*
X98440710Y-102495710D01*
X98458463Y-102479619D01*
X98477708Y-102465347D01*
X98498258Y-102453029D01*
X98519918Y-102442785D01*
X98542477Y-102434713D01*
X98565719Y-102428891D01*
X98589419Y-102425376D01*
X98613350Y-102424200D01*
X99101650Y-102424200D01*
X99125581Y-102425376D01*
G37*
G36*
X100525581Y-97475376D02*
G01*
X100549281Y-97478891D01*
X100572523Y-97484713D01*
X100595082Y-97492785D01*
X100616742Y-97503029D01*
X100637292Y-97515347D01*
X100656537Y-97529619D01*
X100674290Y-97545710D01*
X100690381Y-97563463D01*
X100704653Y-97582708D01*
X100716971Y-97603258D01*
X100727215Y-97624918D01*
X100735287Y-97647477D01*
X100741109Y-97670719D01*
X100744624Y-97694419D01*
X100745800Y-97718350D01*
X100745800Y-98281650D01*
X100744624Y-98305581D01*
X100741109Y-98329281D01*
X100735287Y-98352523D01*
X100727215Y-98375082D01*
X100716971Y-98396742D01*
X100704653Y-98417292D01*
X100690381Y-98436537D01*
X100674290Y-98454290D01*
X100656537Y-98470381D01*
X100637292Y-98484653D01*
X100616742Y-98496971D01*
X100595082Y-98507215D01*
X100572523Y-98515287D01*
X100549281Y-98521109D01*
X100525581Y-98524624D01*
X100501650Y-98525800D01*
X100013350Y-98525800D01*
X99989419Y-98524624D01*
X99965719Y-98521109D01*
X99942477Y-98515287D01*
X99919918Y-98507215D01*
X99898258Y-98496971D01*
X99877708Y-98484653D01*
X99858463Y-98470381D01*
X99840710Y-98454290D01*
X99824619Y-98436537D01*
X99810347Y-98417292D01*
X99798029Y-98396742D01*
X99787785Y-98375082D01*
X99779713Y-98352523D01*
X99773891Y-98329281D01*
X99770376Y-98305581D01*
X99769200Y-98281650D01*
X99769200Y-97718350D01*
X99770376Y-97694419D01*
X99773891Y-97670719D01*
X99779713Y-97647477D01*
X99787785Y-97624918D01*
X99798029Y-97603258D01*
X99810347Y-97582708D01*
X99824619Y-97563463D01*
X99840710Y-97545710D01*
X99858463Y-97529619D01*
X99877708Y-97515347D01*
X99898258Y-97503029D01*
X99919918Y-97492785D01*
X99942477Y-97484713D01*
X99965719Y-97478891D01*
X99989419Y-97475376D01*
X100013350Y-97474200D01*
X100501650Y-97474200D01*
X100525581Y-97475376D01*
G37*
G36*
X98950581Y-97475376D02*
G01*
X98974281Y-97478891D01*
X98997523Y-97484713D01*
X99020082Y-97492785D01*
X99041742Y-97503029D01*
X99062292Y-97515347D01*
X99081537Y-97529619D01*
X99099290Y-97545710D01*
X99115381Y-97563463D01*
X99129653Y-97582708D01*
X99141971Y-97603258D01*
X99152215Y-97624918D01*
X99160287Y-97647477D01*
X99166109Y-97670719D01*
X99169624Y-97694419D01*
X99170800Y-97718350D01*
X99170800Y-98281650D01*
X99169624Y-98305581D01*
X99166109Y-98329281D01*
X99160287Y-98352523D01*
X99152215Y-98375082D01*
X99141971Y-98396742D01*
X99129653Y-98417292D01*
X99115381Y-98436537D01*
X99099290Y-98454290D01*
X99081537Y-98470381D01*
X99062292Y-98484653D01*
X99041742Y-98496971D01*
X99020082Y-98507215D01*
X98997523Y-98515287D01*
X98974281Y-98521109D01*
X98950581Y-98524624D01*
X98926650Y-98525800D01*
X98438350Y-98525800D01*
X98414419Y-98524624D01*
X98390719Y-98521109D01*
X98367477Y-98515287D01*
X98344918Y-98507215D01*
X98323258Y-98496971D01*
X98302708Y-98484653D01*
X98283463Y-98470381D01*
X98265710Y-98454290D01*
X98249619Y-98436537D01*
X98235347Y-98417292D01*
X98223029Y-98396742D01*
X98212785Y-98375082D01*
X98204713Y-98352523D01*
X98198891Y-98329281D01*
X98195376Y-98305581D01*
X98194200Y-98281650D01*
X98194200Y-97718350D01*
X98195376Y-97694419D01*
X98198891Y-97670719D01*
X98204713Y-97647477D01*
X98212785Y-97624918D01*
X98223029Y-97603258D01*
X98235347Y-97582708D01*
X98249619Y-97563463D01*
X98265710Y-97545710D01*
X98283463Y-97529619D01*
X98302708Y-97515347D01*
X98323258Y-97503029D01*
X98344918Y-97492785D01*
X98367477Y-97484713D01*
X98390719Y-97478891D01*
X98414419Y-97475376D01*
X98438350Y-97474200D01*
X98926650Y-97474200D01*
X98950581Y-97475376D01*
G37*
G36*
X97050581Y-97475376D02*
G01*
X97074281Y-97478891D01*
X97097523Y-97484713D01*
X97120082Y-97492785D01*
X97141742Y-97503029D01*
X97162292Y-97515347D01*
X97181537Y-97529619D01*
X97199290Y-97545710D01*
X97215381Y-97563463D01*
X97229653Y-97582708D01*
X97241971Y-97603258D01*
X97252215Y-97624918D01*
X97260287Y-97647477D01*
X97266109Y-97670719D01*
X97269624Y-97694419D01*
X97270800Y-97718350D01*
X97270800Y-98281650D01*
X97269624Y-98305581D01*
X97266109Y-98329281D01*
X97260287Y-98352523D01*
X97252215Y-98375082D01*
X97241971Y-98396742D01*
X97229653Y-98417292D01*
X97215381Y-98436537D01*
X97199290Y-98454290D01*
X97181537Y-98470381D01*
X97162292Y-98484653D01*
X97141742Y-98496971D01*
X97120082Y-98507215D01*
X97097523Y-98515287D01*
X97074281Y-98521109D01*
X97050581Y-98524624D01*
X97026650Y-98525800D01*
X96538350Y-98525800D01*
X96514419Y-98524624D01*
X96490719Y-98521109D01*
X96467477Y-98515287D01*
X96444918Y-98507215D01*
X96423258Y-98496971D01*
X96402708Y-98484653D01*
X96383463Y-98470381D01*
X96365710Y-98454290D01*
X96349619Y-98436537D01*
X96335347Y-98417292D01*
X96323029Y-98396742D01*
X96312785Y-98375082D01*
X96304713Y-98352523D01*
X96298891Y-98329281D01*
X96295376Y-98305581D01*
X96294200Y-98281650D01*
X96294200Y-97718350D01*
X96295376Y-97694419D01*
X96298891Y-97670719D01*
X96304713Y-97647477D01*
X96312785Y-97624918D01*
X96323029Y-97603258D01*
X96335347Y-97582708D01*
X96349619Y-97563463D01*
X96365710Y-97545710D01*
X96383463Y-97529619D01*
X96402708Y-97515347D01*
X96423258Y-97503029D01*
X96444918Y-97492785D01*
X96467477Y-97484713D01*
X96490719Y-97478891D01*
X96514419Y-97475376D01*
X96538350Y-97474200D01*
X97026650Y-97474200D01*
X97050581Y-97475376D01*
G37*
G36*
X95475581Y-97475376D02*
G01*
X95499281Y-97478891D01*
X95522523Y-97484713D01*
X95545082Y-97492785D01*
X95566742Y-97503029D01*
X95587292Y-97515347D01*
X95606537Y-97529619D01*
X95624290Y-97545710D01*
X95640381Y-97563463D01*
X95654653Y-97582708D01*
X95666971Y-97603258D01*
X95677215Y-97624918D01*
X95685287Y-97647477D01*
X95691109Y-97670719D01*
X95694624Y-97694419D01*
X95695800Y-97718350D01*
X95695800Y-98281650D01*
X95694624Y-98305581D01*
X95691109Y-98329281D01*
X95685287Y-98352523D01*
X95677215Y-98375082D01*
X95666971Y-98396742D01*
X95654653Y-98417292D01*
X95640381Y-98436537D01*
X95624290Y-98454290D01*
X95606537Y-98470381D01*
X95587292Y-98484653D01*
X95566742Y-98496971D01*
X95545082Y-98507215D01*
X95522523Y-98515287D01*
X95499281Y-98521109D01*
X95475581Y-98524624D01*
X95451650Y-98525800D01*
X94963350Y-98525800D01*
X94939419Y-98524624D01*
X94915719Y-98521109D01*
X94892477Y-98515287D01*
X94869918Y-98507215D01*
X94848258Y-98496971D01*
X94827708Y-98484653D01*
X94808463Y-98470381D01*
X94790710Y-98454290D01*
X94774619Y-98436537D01*
X94760347Y-98417292D01*
X94748029Y-98396742D01*
X94737785Y-98375082D01*
X94729713Y-98352523D01*
X94723891Y-98329281D01*
X94720376Y-98305581D01*
X94719200Y-98281650D01*
X94719200Y-97718350D01*
X94720376Y-97694419D01*
X94723891Y-97670719D01*
X94729713Y-97647477D01*
X94737785Y-97624918D01*
X94748029Y-97603258D01*
X94760347Y-97582708D01*
X94774619Y-97563463D01*
X94790710Y-97545710D01*
X94808463Y-97529619D01*
X94827708Y-97515347D01*
X94848258Y-97503029D01*
X94869918Y-97492785D01*
X94892477Y-97484713D01*
X94915719Y-97478891D01*
X94939419Y-97475376D01*
X94963350Y-97474200D01*
X95451650Y-97474200D01*
X95475581Y-97475376D01*
G37*
G36*
X97150581Y-102425376D02*
G01*
X97174281Y-102428891D01*
X97197523Y-102434713D01*
X97220082Y-102442785D01*
X97241742Y-102453029D01*
X97262292Y-102465347D01*
X97281537Y-102479619D01*
X97299290Y-102495710D01*
X97315381Y-102513463D01*
X97329653Y-102532708D01*
X97341971Y-102553258D01*
X97352215Y-102574918D01*
X97360287Y-102597477D01*
X97366109Y-102620719D01*
X97369624Y-102644419D01*
X97370800Y-102668350D01*
X97370800Y-103231650D01*
X97369624Y-103255581D01*
X97366109Y-103279281D01*
X97360287Y-103302523D01*
X97352215Y-103325082D01*
X97341971Y-103346742D01*
X97329653Y-103367292D01*
X97315381Y-103386537D01*
X97299290Y-103404290D01*
X97281537Y-103420381D01*
X97262292Y-103434653D01*
X97241742Y-103446971D01*
X97220082Y-103457215D01*
X97197523Y-103465287D01*
X97174281Y-103471109D01*
X97150581Y-103474624D01*
X97126650Y-103475800D01*
X96638350Y-103475800D01*
X96614419Y-103474624D01*
X96590719Y-103471109D01*
X96567477Y-103465287D01*
X96544918Y-103457215D01*
X96523258Y-103446971D01*
X96502708Y-103434653D01*
X96483463Y-103420381D01*
X96465710Y-103404290D01*
X96449619Y-103386537D01*
X96435347Y-103367292D01*
X96423029Y-103346742D01*
X96412785Y-103325082D01*
X96404713Y-103302523D01*
X96398891Y-103279281D01*
X96395376Y-103255581D01*
X96394200Y-103231650D01*
X96394200Y-102668350D01*
X96395376Y-102644419D01*
X96398891Y-102620719D01*
X96404713Y-102597477D01*
X96412785Y-102574918D01*
X96423029Y-102553258D01*
X96435347Y-102532708D01*
X96449619Y-102513463D01*
X96465710Y-102495710D01*
X96483463Y-102479619D01*
X96502708Y-102465347D01*
X96523258Y-102453029D01*
X96544918Y-102442785D01*
X96567477Y-102434713D01*
X96590719Y-102428891D01*
X96614419Y-102425376D01*
X96638350Y-102424200D01*
X97126650Y-102424200D01*
X97150581Y-102425376D01*
G37*
G36*
X95575581Y-102425376D02*
G01*
X95599281Y-102428891D01*
X95622523Y-102434713D01*
X95645082Y-102442785D01*
X95666742Y-102453029D01*
X95687292Y-102465347D01*
X95706537Y-102479619D01*
X95724290Y-102495710D01*
X95740381Y-102513463D01*
X95754653Y-102532708D01*
X95766971Y-102553258D01*
X95777215Y-102574918D01*
X95785287Y-102597477D01*
X95791109Y-102620719D01*
X95794624Y-102644419D01*
X95795800Y-102668350D01*
X95795800Y-103231650D01*
X95794624Y-103255581D01*
X95791109Y-103279281D01*
X95785287Y-103302523D01*
X95777215Y-103325082D01*
X95766971Y-103346742D01*
X95754653Y-103367292D01*
X95740381Y-103386537D01*
X95724290Y-103404290D01*
X95706537Y-103420381D01*
X95687292Y-103434653D01*
X95666742Y-103446971D01*
X95645082Y-103457215D01*
X95622523Y-103465287D01*
X95599281Y-103471109D01*
X95575581Y-103474624D01*
X95551650Y-103475800D01*
X95063350Y-103475800D01*
X95039419Y-103474624D01*
X95015719Y-103471109D01*
X94992477Y-103465287D01*
X94969918Y-103457215D01*
X94948258Y-103446971D01*
X94927708Y-103434653D01*
X94908463Y-103420381D01*
X94890710Y-103404290D01*
X94874619Y-103386537D01*
X94860347Y-103367292D01*
X94848029Y-103346742D01*
X94837785Y-103325082D01*
X94829713Y-103302523D01*
X94823891Y-103279281D01*
X94820376Y-103255581D01*
X94819200Y-103231650D01*
X94819200Y-102668350D01*
X94820376Y-102644419D01*
X94823891Y-102620719D01*
X94829713Y-102597477D01*
X94837785Y-102574918D01*
X94848029Y-102553258D01*
X94860347Y-102532708D01*
X94874619Y-102513463D01*
X94890710Y-102495710D01*
X94908463Y-102479619D01*
X94927708Y-102465347D01*
X94948258Y-102453029D01*
X94969918Y-102442785D01*
X94992477Y-102434713D01*
X95015719Y-102428891D01*
X95039419Y-102425376D01*
X95063350Y-102424200D01*
X95551650Y-102424200D01*
X95575581Y-102425376D01*
G37*
G36*
X112650581Y-105600376D02*
G01*
X112674281Y-105603891D01*
X112697523Y-105609713D01*
X112720082Y-105617785D01*
X112741742Y-105628029D01*
X112762292Y-105640347D01*
X112781537Y-105654619D01*
X112799290Y-105670710D01*
X112815381Y-105688463D01*
X112829653Y-105707708D01*
X112841971Y-105728258D01*
X112852215Y-105749918D01*
X112860287Y-105772477D01*
X112866109Y-105795719D01*
X112869624Y-105819419D01*
X112870800Y-105843350D01*
X112870800Y-106406650D01*
X112869624Y-106430581D01*
X112866109Y-106454281D01*
X112860287Y-106477523D01*
X112852215Y-106500082D01*
X112841971Y-106521742D01*
X112829653Y-106542292D01*
X112815381Y-106561537D01*
X112799290Y-106579290D01*
X112781537Y-106595381D01*
X112762292Y-106609653D01*
X112741742Y-106621971D01*
X112720082Y-106632215D01*
X112697523Y-106640287D01*
X112674281Y-106646109D01*
X112650581Y-106649624D01*
X112626650Y-106650800D01*
X112138350Y-106650800D01*
X112114419Y-106649624D01*
X112090719Y-106646109D01*
X112067477Y-106640287D01*
X112044918Y-106632215D01*
X112023258Y-106621971D01*
X112002708Y-106609653D01*
X111983463Y-106595381D01*
X111965710Y-106579290D01*
X111949619Y-106561537D01*
X111935347Y-106542292D01*
X111923029Y-106521742D01*
X111912785Y-106500082D01*
X111904713Y-106477523D01*
X111898891Y-106454281D01*
X111895376Y-106430581D01*
X111894200Y-106406650D01*
X111894200Y-105843350D01*
X111895376Y-105819419D01*
X111898891Y-105795719D01*
X111904713Y-105772477D01*
X111912785Y-105749918D01*
X111923029Y-105728258D01*
X111935347Y-105707708D01*
X111949619Y-105688463D01*
X111965710Y-105670710D01*
X111983463Y-105654619D01*
X112002708Y-105640347D01*
X112023258Y-105628029D01*
X112044918Y-105617785D01*
X112067477Y-105609713D01*
X112090719Y-105603891D01*
X112114419Y-105600376D01*
X112138350Y-105599200D01*
X112626650Y-105599200D01*
X112650581Y-105600376D01*
G37*
G36*
X111075581Y-105600376D02*
G01*
X111099281Y-105603891D01*
X111122523Y-105609713D01*
X111145082Y-105617785D01*
X111166742Y-105628029D01*
X111187292Y-105640347D01*
X111206537Y-105654619D01*
X111224290Y-105670710D01*
X111240381Y-105688463D01*
X111254653Y-105707708D01*
X111266971Y-105728258D01*
X111277215Y-105749918D01*
X111285287Y-105772477D01*
X111291109Y-105795719D01*
X111294624Y-105819419D01*
X111295800Y-105843350D01*
X111295800Y-106406650D01*
X111294624Y-106430581D01*
X111291109Y-106454281D01*
X111285287Y-106477523D01*
X111277215Y-106500082D01*
X111266971Y-106521742D01*
X111254653Y-106542292D01*
X111240381Y-106561537D01*
X111224290Y-106579290D01*
X111206537Y-106595381D01*
X111187292Y-106609653D01*
X111166742Y-106621971D01*
X111145082Y-106632215D01*
X111122523Y-106640287D01*
X111099281Y-106646109D01*
X111075581Y-106649624D01*
X111051650Y-106650800D01*
X110563350Y-106650800D01*
X110539419Y-106649624D01*
X110515719Y-106646109D01*
X110492477Y-106640287D01*
X110469918Y-106632215D01*
X110448258Y-106621971D01*
X110427708Y-106609653D01*
X110408463Y-106595381D01*
X110390710Y-106579290D01*
X110374619Y-106561537D01*
X110360347Y-106542292D01*
X110348029Y-106521742D01*
X110337785Y-106500082D01*
X110329713Y-106477523D01*
X110323891Y-106454281D01*
X110320376Y-106430581D01*
X110319200Y-106406650D01*
X110319200Y-105843350D01*
X110320376Y-105819419D01*
X110323891Y-105795719D01*
X110329713Y-105772477D01*
X110337785Y-105749918D01*
X110348029Y-105728258D01*
X110360347Y-105707708D01*
X110374619Y-105688463D01*
X110390710Y-105670710D01*
X110408463Y-105654619D01*
X110427708Y-105640347D01*
X110448258Y-105628029D01*
X110469918Y-105617785D01*
X110492477Y-105609713D01*
X110515719Y-105603891D01*
X110539419Y-105600376D01*
X110563350Y-105599200D01*
X111051650Y-105599200D01*
X111075581Y-105600376D01*
G37*
G36*
X90905581Y-99230376D02*
G01*
X90929281Y-99233891D01*
X90952523Y-99239713D01*
X90975082Y-99247785D01*
X90996742Y-99258029D01*
X91017292Y-99270347D01*
X91036537Y-99284619D01*
X91054290Y-99300710D01*
X91070381Y-99318463D01*
X91084653Y-99337708D01*
X91096971Y-99358258D01*
X91107215Y-99379918D01*
X91115287Y-99402477D01*
X91121109Y-99425719D01*
X91124624Y-99449419D01*
X91125800Y-99473350D01*
X91125800Y-100036650D01*
X91124624Y-100060581D01*
X91121109Y-100084281D01*
X91115287Y-100107523D01*
X91107215Y-100130082D01*
X91096971Y-100151742D01*
X91084653Y-100172292D01*
X91070381Y-100191537D01*
X91054290Y-100209290D01*
X91036537Y-100225381D01*
X91017292Y-100239653D01*
X90996742Y-100251971D01*
X90975082Y-100262215D01*
X90952523Y-100270287D01*
X90929281Y-100276109D01*
X90905581Y-100279624D01*
X90881650Y-100280800D01*
X90393350Y-100280800D01*
X90369419Y-100279624D01*
X90345719Y-100276109D01*
X90322477Y-100270287D01*
X90299918Y-100262215D01*
X90278258Y-100251971D01*
X90257708Y-100239653D01*
X90238463Y-100225381D01*
X90220710Y-100209290D01*
X90204619Y-100191537D01*
X90190347Y-100172292D01*
X90178029Y-100151742D01*
X90167785Y-100130082D01*
X90159713Y-100107523D01*
X90153891Y-100084281D01*
X90150376Y-100060581D01*
X90149200Y-100036650D01*
X90149200Y-99473350D01*
X90150376Y-99449419D01*
X90153891Y-99425719D01*
X90159713Y-99402477D01*
X90167785Y-99379918D01*
X90178029Y-99358258D01*
X90190347Y-99337708D01*
X90204619Y-99318463D01*
X90220710Y-99300710D01*
X90238463Y-99284619D01*
X90257708Y-99270347D01*
X90278258Y-99258029D01*
X90299918Y-99247785D01*
X90322477Y-99239713D01*
X90345719Y-99233891D01*
X90369419Y-99230376D01*
X90393350Y-99229200D01*
X90881650Y-99229200D01*
X90905581Y-99230376D01*
G37*
G36*
X89330581Y-99230376D02*
G01*
X89354281Y-99233891D01*
X89377523Y-99239713D01*
X89400082Y-99247785D01*
X89421742Y-99258029D01*
X89442292Y-99270347D01*
X89461537Y-99284619D01*
X89479290Y-99300710D01*
X89495381Y-99318463D01*
X89509653Y-99337708D01*
X89521971Y-99358258D01*
X89532215Y-99379918D01*
X89540287Y-99402477D01*
X89546109Y-99425719D01*
X89549624Y-99449419D01*
X89550800Y-99473350D01*
X89550800Y-100036650D01*
X89549624Y-100060581D01*
X89546109Y-100084281D01*
X89540287Y-100107523D01*
X89532215Y-100130082D01*
X89521971Y-100151742D01*
X89509653Y-100172292D01*
X89495381Y-100191537D01*
X89479290Y-100209290D01*
X89461537Y-100225381D01*
X89442292Y-100239653D01*
X89421742Y-100251971D01*
X89400082Y-100262215D01*
X89377523Y-100270287D01*
X89354281Y-100276109D01*
X89330581Y-100279624D01*
X89306650Y-100280800D01*
X88818350Y-100280800D01*
X88794419Y-100279624D01*
X88770719Y-100276109D01*
X88747477Y-100270287D01*
X88724918Y-100262215D01*
X88703258Y-100251971D01*
X88682708Y-100239653D01*
X88663463Y-100225381D01*
X88645710Y-100209290D01*
X88629619Y-100191537D01*
X88615347Y-100172292D01*
X88603029Y-100151742D01*
X88592785Y-100130082D01*
X88584713Y-100107523D01*
X88578891Y-100084281D01*
X88575376Y-100060581D01*
X88574200Y-100036650D01*
X88574200Y-99473350D01*
X88575376Y-99449419D01*
X88578891Y-99425719D01*
X88584713Y-99402477D01*
X88592785Y-99379918D01*
X88603029Y-99358258D01*
X88615347Y-99337708D01*
X88629619Y-99318463D01*
X88645710Y-99300710D01*
X88663463Y-99284619D01*
X88682708Y-99270347D01*
X88703258Y-99258029D01*
X88724918Y-99247785D01*
X88747477Y-99239713D01*
X88770719Y-99233891D01*
X88794419Y-99230376D01*
X88818350Y-99229200D01*
X89306650Y-99229200D01*
X89330581Y-99230376D01*
G37*
G36*
X90905581Y-97675376D02*
G01*
X90929281Y-97678891D01*
X90952523Y-97684713D01*
X90975082Y-97692785D01*
X90996742Y-97703029D01*
X91017292Y-97715347D01*
X91036537Y-97729619D01*
X91054290Y-97745710D01*
X91070381Y-97763463D01*
X91084653Y-97782708D01*
X91096971Y-97803258D01*
X91107215Y-97824918D01*
X91115287Y-97847477D01*
X91121109Y-97870719D01*
X91124624Y-97894419D01*
X91125800Y-97918350D01*
X91125800Y-98481650D01*
X91124624Y-98505581D01*
X91121109Y-98529281D01*
X91115287Y-98552523D01*
X91107215Y-98575082D01*
X91096971Y-98596742D01*
X91084653Y-98617292D01*
X91070381Y-98636537D01*
X91054290Y-98654290D01*
X91036537Y-98670381D01*
X91017292Y-98684653D01*
X90996742Y-98696971D01*
X90975082Y-98707215D01*
X90952523Y-98715287D01*
X90929281Y-98721109D01*
X90905581Y-98724624D01*
X90881650Y-98725800D01*
X90393350Y-98725800D01*
X90369419Y-98724624D01*
X90345719Y-98721109D01*
X90322477Y-98715287D01*
X90299918Y-98707215D01*
X90278258Y-98696971D01*
X90257708Y-98684653D01*
X90238463Y-98670381D01*
X90220710Y-98654290D01*
X90204619Y-98636537D01*
X90190347Y-98617292D01*
X90178029Y-98596742D01*
X90167785Y-98575082D01*
X90159713Y-98552523D01*
X90153891Y-98529281D01*
X90150376Y-98505581D01*
X90149200Y-98481650D01*
X90149200Y-97918350D01*
X90150376Y-97894419D01*
X90153891Y-97870719D01*
X90159713Y-97847477D01*
X90167785Y-97824918D01*
X90178029Y-97803258D01*
X90190347Y-97782708D01*
X90204619Y-97763463D01*
X90220710Y-97745710D01*
X90238463Y-97729619D01*
X90257708Y-97715347D01*
X90278258Y-97703029D01*
X90299918Y-97692785D01*
X90322477Y-97684713D01*
X90345719Y-97678891D01*
X90369419Y-97675376D01*
X90393350Y-97674200D01*
X90881650Y-97674200D01*
X90905581Y-97675376D01*
G37*
G36*
X89330581Y-97675376D02*
G01*
X89354281Y-97678891D01*
X89377523Y-97684713D01*
X89400082Y-97692785D01*
X89421742Y-97703029D01*
X89442292Y-97715347D01*
X89461537Y-97729619D01*
X89479290Y-97745710D01*
X89495381Y-97763463D01*
X89509653Y-97782708D01*
X89521971Y-97803258D01*
X89532215Y-97824918D01*
X89540287Y-97847477D01*
X89546109Y-97870719D01*
X89549624Y-97894419D01*
X89550800Y-97918350D01*
X89550800Y-98481650D01*
X89549624Y-98505581D01*
X89546109Y-98529281D01*
X89540287Y-98552523D01*
X89532215Y-98575082D01*
X89521971Y-98596742D01*
X89509653Y-98617292D01*
X89495381Y-98636537D01*
X89479290Y-98654290D01*
X89461537Y-98670381D01*
X89442292Y-98684653D01*
X89421742Y-98696971D01*
X89400082Y-98707215D01*
X89377523Y-98715287D01*
X89354281Y-98721109D01*
X89330581Y-98724624D01*
X89306650Y-98725800D01*
X88818350Y-98725800D01*
X88794419Y-98724624D01*
X88770719Y-98721109D01*
X88747477Y-98715287D01*
X88724918Y-98707215D01*
X88703258Y-98696971D01*
X88682708Y-98684653D01*
X88663463Y-98670381D01*
X88645710Y-98654290D01*
X88629619Y-98636537D01*
X88615347Y-98617292D01*
X88603029Y-98596742D01*
X88592785Y-98575082D01*
X88584713Y-98552523D01*
X88578891Y-98529281D01*
X88575376Y-98505581D01*
X88574200Y-98481650D01*
X88574200Y-97918350D01*
X88575376Y-97894419D01*
X88578891Y-97870719D01*
X88584713Y-97847477D01*
X88592785Y-97824918D01*
X88603029Y-97803258D01*
X88615347Y-97782708D01*
X88629619Y-97763463D01*
X88645710Y-97745710D01*
X88663463Y-97729619D01*
X88682708Y-97715347D01*
X88703258Y-97703029D01*
X88724918Y-97692785D01*
X88747477Y-97684713D01*
X88770719Y-97678891D01*
X88794419Y-97675376D01*
X88818350Y-97674200D01*
X89306650Y-97674200D01*
X89330581Y-97675376D01*
G37*
G36*
X89330581Y-102355376D02*
G01*
X89354281Y-102358891D01*
X89377523Y-102364713D01*
X89400082Y-102372785D01*
X89421742Y-102383029D01*
X89442292Y-102395347D01*
X89461537Y-102409619D01*
X89479290Y-102425710D01*
X89495381Y-102443463D01*
X89509653Y-102462708D01*
X89521971Y-102483258D01*
X89532215Y-102504918D01*
X89540287Y-102527477D01*
X89546109Y-102550719D01*
X89549624Y-102574419D01*
X89550800Y-102598350D01*
X89550800Y-103161650D01*
X89549624Y-103185581D01*
X89546109Y-103209281D01*
X89540287Y-103232523D01*
X89532215Y-103255082D01*
X89521971Y-103276742D01*
X89509653Y-103297292D01*
X89495381Y-103316537D01*
X89479290Y-103334290D01*
X89461537Y-103350381D01*
X89442292Y-103364653D01*
X89421742Y-103376971D01*
X89400082Y-103387215D01*
X89377523Y-103395287D01*
X89354281Y-103401109D01*
X89330581Y-103404624D01*
X89306650Y-103405800D01*
X88818350Y-103405800D01*
X88794419Y-103404624D01*
X88770719Y-103401109D01*
X88747477Y-103395287D01*
X88724918Y-103387215D01*
X88703258Y-103376971D01*
X88682708Y-103364653D01*
X88663463Y-103350381D01*
X88645710Y-103334290D01*
X88629619Y-103316537D01*
X88615347Y-103297292D01*
X88603029Y-103276742D01*
X88592785Y-103255082D01*
X88584713Y-103232523D01*
X88578891Y-103209281D01*
X88575376Y-103185581D01*
X88574200Y-103161650D01*
X88574200Y-102598350D01*
X88575376Y-102574419D01*
X88578891Y-102550719D01*
X88584713Y-102527477D01*
X88592785Y-102504918D01*
X88603029Y-102483258D01*
X88615347Y-102462708D01*
X88629619Y-102443463D01*
X88645710Y-102425710D01*
X88663463Y-102409619D01*
X88682708Y-102395347D01*
X88703258Y-102383029D01*
X88724918Y-102372785D01*
X88747477Y-102364713D01*
X88770719Y-102358891D01*
X88794419Y-102355376D01*
X88818350Y-102354200D01*
X89306650Y-102354200D01*
X89330581Y-102355376D01*
G37*
G36*
X90905581Y-102355376D02*
G01*
X90929281Y-102358891D01*
X90952523Y-102364713D01*
X90975082Y-102372785D01*
X90996742Y-102383029D01*
X91017292Y-102395347D01*
X91036537Y-102409619D01*
X91054290Y-102425710D01*
X91070381Y-102443463D01*
X91084653Y-102462708D01*
X91096971Y-102483258D01*
X91107215Y-102504918D01*
X91115287Y-102527477D01*
X91121109Y-102550719D01*
X91124624Y-102574419D01*
X91125800Y-102598350D01*
X91125800Y-103161650D01*
X91124624Y-103185581D01*
X91121109Y-103209281D01*
X91115287Y-103232523D01*
X91107215Y-103255082D01*
X91096971Y-103276742D01*
X91084653Y-103297292D01*
X91070381Y-103316537D01*
X91054290Y-103334290D01*
X91036537Y-103350381D01*
X91017292Y-103364653D01*
X90996742Y-103376971D01*
X90975082Y-103387215D01*
X90952523Y-103395287D01*
X90929281Y-103401109D01*
X90905581Y-103404624D01*
X90881650Y-103405800D01*
X90393350Y-103405800D01*
X90369419Y-103404624D01*
X90345719Y-103401109D01*
X90322477Y-103395287D01*
X90299918Y-103387215D01*
X90278258Y-103376971D01*
X90257708Y-103364653D01*
X90238463Y-103350381D01*
X90220710Y-103334290D01*
X90204619Y-103316537D01*
X90190347Y-103297292D01*
X90178029Y-103276742D01*
X90167785Y-103255082D01*
X90159713Y-103232523D01*
X90153891Y-103209281D01*
X90150376Y-103185581D01*
X90149200Y-103161650D01*
X90149200Y-102598350D01*
X90150376Y-102574419D01*
X90153891Y-102550719D01*
X90159713Y-102527477D01*
X90167785Y-102504918D01*
X90178029Y-102483258D01*
X90190347Y-102462708D01*
X90204619Y-102443463D01*
X90220710Y-102425710D01*
X90238463Y-102409619D01*
X90257708Y-102395347D01*
X90278258Y-102383029D01*
X90299918Y-102372785D01*
X90322477Y-102364713D01*
X90345719Y-102358891D01*
X90369419Y-102355376D01*
X90393350Y-102354200D01*
X90881650Y-102354200D01*
X90905581Y-102355376D01*
G37*
D25*
X106845000Y-99470000D03*
X107795000Y-101470000D03*
X105895000Y-101470000D03*
X99745000Y-99475000D03*
X100695000Y-101475000D03*
X98795000Y-101475000D03*
X96220000Y-99475000D03*
X97170000Y-101475000D03*
X95270000Y-101475000D03*
D12*
G36*
X127936218Y-92525346D02*
G01*
X127959312Y-92528771D01*
X127981959Y-92534444D01*
X128003940Y-92542309D01*
X128025045Y-92552291D01*
X128045070Y-92564293D01*
X128063822Y-92578201D01*
X128081121Y-92593879D01*
X128096799Y-92611178D01*
X128110707Y-92629930D01*
X128122709Y-92649955D01*
X128132691Y-92671060D01*
X128140556Y-92693041D01*
X128146229Y-92715688D01*
X128149654Y-92738782D01*
X128150800Y-92762100D01*
X128150800Y-93237900D01*
X128149654Y-93261218D01*
X128146229Y-93284312D01*
X128140556Y-93306959D01*
X128132691Y-93328940D01*
X128122709Y-93350045D01*
X128110707Y-93370070D01*
X128096799Y-93388822D01*
X128081121Y-93406121D01*
X128063822Y-93421799D01*
X128045070Y-93435707D01*
X128025045Y-93447709D01*
X128003940Y-93457691D01*
X127981959Y-93465556D01*
X127959312Y-93471229D01*
X127936218Y-93474654D01*
X127912900Y-93475800D01*
X127062100Y-93475800D01*
X127038782Y-93474654D01*
X127015688Y-93471229D01*
X126993041Y-93465556D01*
X126971060Y-93457691D01*
X126949955Y-93447709D01*
X126929930Y-93435707D01*
X126911178Y-93421799D01*
X126893879Y-93406121D01*
X126878201Y-93388822D01*
X126864293Y-93370070D01*
X126852291Y-93350045D01*
X126842309Y-93328940D01*
X126834444Y-93306959D01*
X126828771Y-93284312D01*
X126825346Y-93261218D01*
X126824200Y-93237900D01*
X126824200Y-92762100D01*
X126825346Y-92738782D01*
X126828771Y-92715688D01*
X126834444Y-92693041D01*
X126842309Y-92671060D01*
X126852291Y-92649955D01*
X126864293Y-92629930D01*
X126878201Y-92611178D01*
X126893879Y-92593879D01*
X126911178Y-92578201D01*
X126929930Y-92564293D01*
X126949955Y-92552291D01*
X126971060Y-92542309D01*
X126993041Y-92534444D01*
X127015688Y-92528771D01*
X127038782Y-92525346D01*
X127062100Y-92524200D01*
X127912900Y-92524200D01*
X127936218Y-92525346D01*
G37*
G36*
X129561218Y-92525346D02*
G01*
X129584312Y-92528771D01*
X129606959Y-92534444D01*
X129628940Y-92542309D01*
X129650045Y-92552291D01*
X129670070Y-92564293D01*
X129688822Y-92578201D01*
X129706121Y-92593879D01*
X129721799Y-92611178D01*
X129735707Y-92629930D01*
X129747709Y-92649955D01*
X129757691Y-92671060D01*
X129765556Y-92693041D01*
X129771229Y-92715688D01*
X129774654Y-92738782D01*
X129775800Y-92762100D01*
X129775800Y-93237900D01*
X129774654Y-93261218D01*
X129771229Y-93284312D01*
X129765556Y-93306959D01*
X129757691Y-93328940D01*
X129747709Y-93350045D01*
X129735707Y-93370070D01*
X129721799Y-93388822D01*
X129706121Y-93406121D01*
X129688822Y-93421799D01*
X129670070Y-93435707D01*
X129650045Y-93447709D01*
X129628940Y-93457691D01*
X129606959Y-93465556D01*
X129584312Y-93471229D01*
X129561218Y-93474654D01*
X129537900Y-93475800D01*
X128687100Y-93475800D01*
X128663782Y-93474654D01*
X128640688Y-93471229D01*
X128618041Y-93465556D01*
X128596060Y-93457691D01*
X128574955Y-93447709D01*
X128554930Y-93435707D01*
X128536178Y-93421799D01*
X128518879Y-93406121D01*
X128503201Y-93388822D01*
X128489293Y-93370070D01*
X128477291Y-93350045D01*
X128467309Y-93328940D01*
X128459444Y-93306959D01*
X128453771Y-93284312D01*
X128450346Y-93261218D01*
X128449200Y-93237900D01*
X128449200Y-92762100D01*
X128450346Y-92738782D01*
X128453771Y-92715688D01*
X128459444Y-92693041D01*
X128467309Y-92671060D01*
X128477291Y-92649955D01*
X128489293Y-92629930D01*
X128503201Y-92611178D01*
X128518879Y-92593879D01*
X128536178Y-92578201D01*
X128554930Y-92564293D01*
X128574955Y-92552291D01*
X128596060Y-92542309D01*
X128618041Y-92534444D01*
X128640688Y-92528771D01*
X128663782Y-92525346D01*
X128687100Y-92524200D01*
X129537900Y-92524200D01*
X129561218Y-92525346D01*
G37*
D25*
X102345000Y-101475000D03*
X104245000Y-101475000D03*
X103295000Y-99475000D03*
D15*
X104970000Y-95450000D03*
D14*
X102430000Y-95450000D03*
X99890000Y-95450000D03*
X97350000Y-95450000D03*
X94810000Y-95450000D03*
D15*
X77030000Y-95450000D03*
D14*
X79570000Y-95450000D03*
X82110000Y-95450000D03*
X84650000Y-95450000D03*
X87190000Y-95450000D03*
M02*
