G04 #@! TF.GenerationSoftware,KiCad,Pcbnew,(5.1.5-0-10_14)*
G04 #@! TF.CreationDate,2020-02-01T15:50:42-08:00*
G04 #@! TF.ProjectId,14500,31343530-302e-46b6-9963-61645f706362,rev?*
G04 #@! TF.SameCoordinates,Original*
G04 #@! TF.FileFunction,Legend,Bot*
G04 #@! TF.FilePolarity,Positive*
%FSLAX46Y46*%
G04 Gerber Fmt 4.6, Leading zero omitted, Abs format (unit mm)*
G04 Created by KiCad (PCBNEW (5.1.5-0-10_14)) date 2020-02-01 15:50:42*
%MOMM*%
%LPD*%
G04 APERTURE LIST*
%ADD10C,0.250000*%
%ADD11C,0.150000*%
%ADD12C,0.100000*%
%ADD13C,0.200000*%
%ADD14C,0.300000*%
%ADD15R,1.801600X1.801600*%
%ADD16O,1.801600X1.801600*%
%ADD17C,2.901600*%
%ADD18O,1.801600X1.451600*%
%ADD19O,1.601600X1.201600*%
%ADD20C,2.501600*%
G04 APERTURE END LIST*
D10*
X115242857Y-99964285D02*
X112957142Y-99964285D01*
X114100000Y-101107142D02*
X114100000Y-98821428D01*
X70917857Y-100189285D02*
X68632142Y-100189285D01*
D11*
X120134642Y-95378571D02*
X119877500Y-95464285D01*
X119448928Y-95464285D01*
X119277500Y-95378571D01*
X119191785Y-95292857D01*
X119106071Y-95121428D01*
X119106071Y-94950000D01*
X119191785Y-94778571D01*
X119277500Y-94692857D01*
X119448928Y-94607142D01*
X119791785Y-94521428D01*
X119963214Y-94435714D01*
X120048928Y-94350000D01*
X120134642Y-94178571D01*
X120134642Y-94007142D01*
X120048928Y-93835714D01*
X119963214Y-93750000D01*
X119791785Y-93664285D01*
X119363214Y-93664285D01*
X119106071Y-93750000D01*
X118334642Y-95464285D02*
X118334642Y-94264285D01*
X118334642Y-94435714D02*
X118248928Y-94350000D01*
X118077500Y-94264285D01*
X117820357Y-94264285D01*
X117648928Y-94350000D01*
X117563214Y-94521428D01*
X117563214Y-95464285D01*
X117563214Y-94521428D02*
X117477500Y-94350000D01*
X117306071Y-94264285D01*
X117048928Y-94264285D01*
X116877500Y-94350000D01*
X116791785Y-94521428D01*
X116791785Y-95464285D01*
X115163214Y-95464285D02*
X115163214Y-94521428D01*
X115248928Y-94350000D01*
X115420357Y-94264285D01*
X115763214Y-94264285D01*
X115934642Y-94350000D01*
X115163214Y-95378571D02*
X115334642Y-95464285D01*
X115763214Y-95464285D01*
X115934642Y-95378571D01*
X116020357Y-95207142D01*
X116020357Y-95035714D01*
X115934642Y-94864285D01*
X115763214Y-94778571D01*
X115334642Y-94778571D01*
X115163214Y-94692857D01*
X114048928Y-95464285D02*
X114220357Y-95378571D01*
X114306071Y-95207142D01*
X114306071Y-93664285D01*
X113106071Y-95464285D02*
X113277500Y-95378571D01*
X113363214Y-95207142D01*
X113363214Y-93664285D01*
D12*
X85077142Y-104089285D02*
X85105714Y-104117857D01*
X85191428Y-104146428D01*
X85248571Y-104146428D01*
X85334285Y-104117857D01*
X85391428Y-104060714D01*
X85420000Y-104003571D01*
X85448571Y-103889285D01*
X85448571Y-103803571D01*
X85420000Y-103689285D01*
X85391428Y-103632142D01*
X85334285Y-103575000D01*
X85248571Y-103546428D01*
X85191428Y-103546428D01*
X85105714Y-103575000D01*
X85077142Y-103603571D01*
X84534285Y-104146428D02*
X84820000Y-104146428D01*
X84820000Y-103546428D01*
X84334285Y-104146428D02*
X84334285Y-103546428D01*
X83991428Y-104146428D02*
X84248571Y-103803571D01*
X83991428Y-103546428D02*
X84334285Y-103889285D01*
X82634285Y-104146428D02*
X82634285Y-103546428D01*
X82491428Y-103546428D01*
X82405714Y-103575000D01*
X82348571Y-103632142D01*
X82320000Y-103689285D01*
X82291428Y-103803571D01*
X82291428Y-103889285D01*
X82320000Y-104003571D01*
X82348571Y-104060714D01*
X82405714Y-104117857D01*
X82491428Y-104146428D01*
X82634285Y-104146428D01*
X82034285Y-104146428D02*
X82034285Y-103546428D01*
X81634285Y-103546428D02*
X81520000Y-103546428D01*
X81462857Y-103575000D01*
X81405714Y-103632142D01*
X81377142Y-103746428D01*
X81377142Y-103946428D01*
X81405714Y-104060714D01*
X81462857Y-104117857D01*
X81520000Y-104146428D01*
X81634285Y-104146428D01*
X81691428Y-104117857D01*
X81748571Y-104060714D01*
X81777142Y-103946428D01*
X81777142Y-103746428D01*
X81748571Y-103632142D01*
X81691428Y-103575000D01*
X81634285Y-103546428D01*
X77868809Y-104163095D02*
X77775952Y-104194047D01*
X77621190Y-104194047D01*
X77559285Y-104163095D01*
X77528333Y-104132142D01*
X77497380Y-104070238D01*
X77497380Y-104008333D01*
X77528333Y-103946428D01*
X77559285Y-103915476D01*
X77621190Y-103884523D01*
X77745000Y-103853571D01*
X77806904Y-103822619D01*
X77837857Y-103791666D01*
X77868809Y-103729761D01*
X77868809Y-103667857D01*
X77837857Y-103605952D01*
X77806904Y-103575000D01*
X77745000Y-103544047D01*
X77590238Y-103544047D01*
X77497380Y-103575000D01*
X76847380Y-104132142D02*
X76878333Y-104163095D01*
X76971190Y-104194047D01*
X77033095Y-104194047D01*
X77125952Y-104163095D01*
X77187857Y-104101190D01*
X77218809Y-104039285D01*
X77249761Y-103915476D01*
X77249761Y-103822619D01*
X77218809Y-103698809D01*
X77187857Y-103636904D01*
X77125952Y-103575000D01*
X77033095Y-103544047D01*
X76971190Y-103544047D01*
X76878333Y-103575000D01*
X76847380Y-103605952D01*
X76259285Y-104194047D02*
X76568809Y-104194047D01*
X76568809Y-103544047D01*
X80348571Y-104138095D02*
X80262857Y-104169047D01*
X80120000Y-104169047D01*
X80062857Y-104138095D01*
X80034285Y-104107142D01*
X80005714Y-104045238D01*
X80005714Y-103983333D01*
X80034285Y-103921428D01*
X80062857Y-103890476D01*
X80120000Y-103859523D01*
X80234285Y-103828571D01*
X80291428Y-103797619D01*
X80320000Y-103766666D01*
X80348571Y-103704761D01*
X80348571Y-103642857D01*
X80320000Y-103580952D01*
X80291428Y-103550000D01*
X80234285Y-103519047D01*
X80091428Y-103519047D01*
X80005714Y-103550000D01*
X79748571Y-104169047D02*
X79748571Y-103519047D01*
X79605714Y-103519047D01*
X79520000Y-103550000D01*
X79462857Y-103611904D01*
X79434285Y-103673809D01*
X79405714Y-103797619D01*
X79405714Y-103890476D01*
X79434285Y-104014285D01*
X79462857Y-104076190D01*
X79520000Y-104138095D01*
X79605714Y-104169047D01*
X79748571Y-104169047D01*
X79177142Y-103983333D02*
X78891428Y-103983333D01*
X79234285Y-104169047D02*
X79034285Y-103519047D01*
X78834285Y-104169047D01*
X80517857Y-96394047D02*
X80517857Y-95744047D01*
X80317857Y-96208333D01*
X80117857Y-95744047D01*
X80117857Y-96394047D01*
X79717857Y-95744047D02*
X79603571Y-95744047D01*
X79546428Y-95775000D01*
X79489285Y-95836904D01*
X79460714Y-95960714D01*
X79460714Y-96177380D01*
X79489285Y-96301190D01*
X79546428Y-96363095D01*
X79603571Y-96394047D01*
X79717857Y-96394047D01*
X79775000Y-96363095D01*
X79832142Y-96301190D01*
X79860714Y-96177380D01*
X79860714Y-95960714D01*
X79832142Y-95836904D01*
X79775000Y-95775000D01*
X79717857Y-95744047D01*
X79232142Y-96363095D02*
X79146428Y-96394047D01*
X79003571Y-96394047D01*
X78946428Y-96363095D01*
X78917857Y-96332142D01*
X78889285Y-96270238D01*
X78889285Y-96208333D01*
X78917857Y-96146428D01*
X78946428Y-96115476D01*
X79003571Y-96084523D01*
X79117857Y-96053571D01*
X79175000Y-96022619D01*
X79203571Y-95991666D01*
X79232142Y-95929761D01*
X79232142Y-95867857D01*
X79203571Y-95805952D01*
X79175000Y-95775000D01*
X79117857Y-95744047D01*
X78975000Y-95744047D01*
X78889285Y-95775000D01*
X78632142Y-96394047D02*
X78632142Y-95744047D01*
X83112857Y-96394047D02*
X83112857Y-95744047D01*
X82912857Y-96208333D01*
X82712857Y-95744047D01*
X82712857Y-96394047D01*
X82427142Y-96394047D02*
X82427142Y-95744047D01*
X82170000Y-96363095D02*
X82084285Y-96394047D01*
X81941428Y-96394047D01*
X81884285Y-96363095D01*
X81855714Y-96332142D01*
X81827142Y-96270238D01*
X81827142Y-96208333D01*
X81855714Y-96146428D01*
X81884285Y-96115476D01*
X81941428Y-96084523D01*
X82055714Y-96053571D01*
X82112857Y-96022619D01*
X82141428Y-95991666D01*
X82170000Y-95929761D01*
X82170000Y-95867857D01*
X82141428Y-95805952D01*
X82112857Y-95775000D01*
X82055714Y-95744047D01*
X81912857Y-95744047D01*
X81827142Y-95775000D01*
X81455714Y-95744047D02*
X81341428Y-95744047D01*
X81284285Y-95775000D01*
X81227142Y-95836904D01*
X81198571Y-95960714D01*
X81198571Y-96177380D01*
X81227142Y-96301190D01*
X81284285Y-96363095D01*
X81341428Y-96394047D01*
X81455714Y-96394047D01*
X81512857Y-96363095D01*
X81570000Y-96301190D01*
X81598571Y-96177380D01*
X81598571Y-95960714D01*
X81570000Y-95836904D01*
X81512857Y-95775000D01*
X81455714Y-95744047D01*
X85516428Y-96363095D02*
X85430714Y-96394047D01*
X85287857Y-96394047D01*
X85230714Y-96363095D01*
X85202142Y-96332142D01*
X85173571Y-96270238D01*
X85173571Y-96208333D01*
X85202142Y-96146428D01*
X85230714Y-96115476D01*
X85287857Y-96084523D01*
X85402142Y-96053571D01*
X85459285Y-96022619D01*
X85487857Y-95991666D01*
X85516428Y-95929761D01*
X85516428Y-95867857D01*
X85487857Y-95805952D01*
X85459285Y-95775000D01*
X85402142Y-95744047D01*
X85259285Y-95744047D01*
X85173571Y-95775000D01*
X84573571Y-96332142D02*
X84602142Y-96363095D01*
X84687857Y-96394047D01*
X84745000Y-96394047D01*
X84830714Y-96363095D01*
X84887857Y-96301190D01*
X84916428Y-96239285D01*
X84945000Y-96115476D01*
X84945000Y-96022619D01*
X84916428Y-95898809D01*
X84887857Y-95836904D01*
X84830714Y-95775000D01*
X84745000Y-95744047D01*
X84687857Y-95744047D01*
X84602142Y-95775000D01*
X84573571Y-95805952D01*
X84316428Y-96394047D02*
X84316428Y-95744047D01*
X83973571Y-96394047D02*
X84230714Y-96022619D01*
X83973571Y-95744047D02*
X84316428Y-96115476D01*
X90265238Y-103519047D02*
X89893809Y-103519047D01*
X90079523Y-104169047D02*
X90079523Y-103519047D01*
X89739047Y-103519047D02*
X89305714Y-104169047D01*
X89305714Y-103519047D02*
X89739047Y-104169047D01*
X92428333Y-104169047D02*
X92645000Y-103859523D01*
X92799761Y-104169047D02*
X92799761Y-103519047D01*
X92552142Y-103519047D01*
X92490238Y-103550000D01*
X92459285Y-103580952D01*
X92428333Y-103642857D01*
X92428333Y-103735714D01*
X92459285Y-103797619D01*
X92490238Y-103828571D01*
X92552142Y-103859523D01*
X92799761Y-103859523D01*
X92211666Y-103519047D02*
X91778333Y-104169047D01*
X91778333Y-103519047D02*
X92211666Y-104169047D01*
X93070000Y-93942857D02*
X93103333Y-93978571D01*
X93203333Y-94014285D01*
X93270000Y-94014285D01*
X93370000Y-93978571D01*
X93436666Y-93907142D01*
X93470000Y-93835714D01*
X93503333Y-93692857D01*
X93503333Y-93585714D01*
X93470000Y-93442857D01*
X93436666Y-93371428D01*
X93370000Y-93300000D01*
X93270000Y-93264285D01*
X93203333Y-93264285D01*
X93103333Y-93300000D01*
X93070000Y-93335714D01*
X92470000Y-94014285D02*
X92470000Y-93621428D01*
X92503333Y-93550000D01*
X92570000Y-93514285D01*
X92703333Y-93514285D01*
X92770000Y-93550000D01*
X92470000Y-93978571D02*
X92536666Y-94014285D01*
X92703333Y-94014285D01*
X92770000Y-93978571D01*
X92803333Y-93907142D01*
X92803333Y-93835714D01*
X92770000Y-93764285D01*
X92703333Y-93728571D01*
X92536666Y-93728571D01*
X92470000Y-93692857D01*
X92236666Y-93514285D02*
X91970000Y-93514285D01*
X92136666Y-93264285D02*
X92136666Y-93907142D01*
X92103333Y-93978571D01*
X92036666Y-94014285D01*
X91970000Y-94014285D01*
X91736666Y-94014285D02*
X91736666Y-93264285D01*
X91436666Y-94014285D02*
X91436666Y-93621428D01*
X91470000Y-93550000D01*
X91536666Y-93514285D01*
X91636666Y-93514285D01*
X91703333Y-93550000D01*
X91736666Y-93585714D01*
X91003333Y-94014285D02*
X91070000Y-93978571D01*
X91103333Y-93942857D01*
X91136666Y-93871428D01*
X91136666Y-93657142D01*
X91103333Y-93585714D01*
X91070000Y-93550000D01*
X91003333Y-93514285D01*
X90903333Y-93514285D01*
X90836666Y-93550000D01*
X90803333Y-93585714D01*
X90770000Y-93657142D01*
X90770000Y-93871428D01*
X90803333Y-93942857D01*
X90836666Y-93978571D01*
X90903333Y-94014285D01*
X91003333Y-94014285D01*
X90170000Y-94014285D02*
X90170000Y-93264285D01*
X90170000Y-93978571D02*
X90236666Y-94014285D01*
X90370000Y-94014285D01*
X90436666Y-93978571D01*
X90470000Y-93942857D01*
X90503333Y-93871428D01*
X90503333Y-93657142D01*
X90470000Y-93585714D01*
X90436666Y-93550000D01*
X90370000Y-93514285D01*
X90236666Y-93514285D01*
X90170000Y-93550000D01*
X89570000Y-93978571D02*
X89636666Y-94014285D01*
X89770000Y-94014285D01*
X89836666Y-93978571D01*
X89870000Y-93907142D01*
X89870000Y-93621428D01*
X89836666Y-93550000D01*
X89770000Y-93514285D01*
X89636666Y-93514285D01*
X89570000Y-93550000D01*
X89536666Y-93621428D01*
X89536666Y-93692857D01*
X89870000Y-93764285D01*
X89170000Y-92475000D02*
X103570000Y-92475000D01*
X89170000Y-94825000D02*
X89170000Y-92475000D01*
X103570000Y-94825000D02*
X89170000Y-94825000D01*
X103570000Y-92475000D02*
X103570000Y-94825000D01*
X95175952Y-105094047D02*
X95392619Y-104784523D01*
X95547380Y-105094047D02*
X95547380Y-104444047D01*
X95299761Y-104444047D01*
X95237857Y-104475000D01*
X95206904Y-104505952D01*
X95175952Y-104567857D01*
X95175952Y-104660714D01*
X95206904Y-104722619D01*
X95237857Y-104753571D01*
X95299761Y-104784523D01*
X95547380Y-104784523D01*
X94928333Y-105063095D02*
X94835476Y-105094047D01*
X94680714Y-105094047D01*
X94618809Y-105063095D01*
X94587857Y-105032142D01*
X94556904Y-104970238D01*
X94556904Y-104908333D01*
X94587857Y-104846428D01*
X94618809Y-104815476D01*
X94680714Y-104784523D01*
X94804523Y-104753571D01*
X94866428Y-104722619D01*
X94897380Y-104691666D01*
X94928333Y-104629761D01*
X94928333Y-104567857D01*
X94897380Y-104505952D01*
X94866428Y-104475000D01*
X94804523Y-104444047D01*
X94649761Y-104444047D01*
X94556904Y-104475000D01*
X94371190Y-104444047D02*
X93999761Y-104444047D01*
X94185476Y-105094047D02*
X94185476Y-104444047D01*
X93124761Y-105094047D02*
X93124761Y-104444047D01*
X92877142Y-104444047D01*
X92815238Y-104475000D01*
X92784285Y-104505952D01*
X92753333Y-104567857D01*
X92753333Y-104660714D01*
X92784285Y-104722619D01*
X92815238Y-104753571D01*
X92877142Y-104784523D01*
X93124761Y-104784523D01*
X92258095Y-104753571D02*
X92165238Y-104784523D01*
X92134285Y-104815476D01*
X92103333Y-104877380D01*
X92103333Y-104970238D01*
X92134285Y-105032142D01*
X92165238Y-105063095D01*
X92227142Y-105094047D01*
X92474761Y-105094047D01*
X92474761Y-104444047D01*
X92258095Y-104444047D01*
X92196190Y-104475000D01*
X92165238Y-104505952D01*
X92134285Y-104567857D01*
X92134285Y-104629761D01*
X92165238Y-104691666D01*
X92196190Y-104722619D01*
X92258095Y-104753571D01*
X92474761Y-104753571D01*
X91886666Y-104444047D02*
X91453333Y-104444047D01*
X91731904Y-105094047D01*
X90574761Y-105094047D02*
X90574761Y-104444047D01*
X90327142Y-104444047D01*
X90265238Y-104475000D01*
X90234285Y-104505952D01*
X90203333Y-104567857D01*
X90203333Y-104660714D01*
X90234285Y-104722619D01*
X90265238Y-104753571D01*
X90327142Y-104784523D01*
X90574761Y-104784523D01*
X89708095Y-104753571D02*
X89615238Y-104784523D01*
X89584285Y-104815476D01*
X89553333Y-104877380D01*
X89553333Y-104970238D01*
X89584285Y-105032142D01*
X89615238Y-105063095D01*
X89677142Y-105094047D01*
X89924761Y-105094047D01*
X89924761Y-104444047D01*
X89708095Y-104444047D01*
X89646190Y-104475000D01*
X89615238Y-104505952D01*
X89584285Y-104567857D01*
X89584285Y-104629761D01*
X89615238Y-104691666D01*
X89646190Y-104722619D01*
X89708095Y-104753571D01*
X89924761Y-104753571D01*
X88996190Y-104444047D02*
X89120000Y-104444047D01*
X89181904Y-104475000D01*
X89212857Y-104505952D01*
X89274761Y-104598809D01*
X89305714Y-104722619D01*
X89305714Y-104970238D01*
X89274761Y-105032142D01*
X89243809Y-105063095D01*
X89181904Y-105094047D01*
X89058095Y-105094047D01*
X88996190Y-105063095D01*
X88965238Y-105032142D01*
X88934285Y-104970238D01*
X88934285Y-104815476D01*
X88965238Y-104753571D01*
X88996190Y-104722619D01*
X89058095Y-104691666D01*
X89181904Y-104691666D01*
X89243809Y-104722619D01*
X89274761Y-104753571D01*
X89305714Y-104815476D01*
X137044523Y-96861904D02*
X137044523Y-96328571D01*
X137044523Y-96480952D02*
X137006428Y-96404761D01*
X136968333Y-96366666D01*
X136892142Y-96328571D01*
X136815952Y-96328571D01*
X136244523Y-96823809D02*
X136320714Y-96861904D01*
X136473095Y-96861904D01*
X136549285Y-96823809D01*
X136587380Y-96747619D01*
X136587380Y-96442857D01*
X136549285Y-96366666D01*
X136473095Y-96328571D01*
X136320714Y-96328571D01*
X136244523Y-96366666D01*
X136206428Y-96442857D01*
X136206428Y-96519047D01*
X136587380Y-96595238D01*
X135939761Y-96328571D02*
X135749285Y-96861904D01*
X135558809Y-96328571D01*
X134225476Y-96861904D02*
X134682619Y-96861904D01*
X134454047Y-96861904D02*
X134454047Y-96061904D01*
X134530238Y-96176190D01*
X134606428Y-96252380D01*
X134682619Y-96290476D01*
X133539761Y-96861904D02*
X133539761Y-96442857D01*
X133577857Y-96366666D01*
X133654047Y-96328571D01*
X133806428Y-96328571D01*
X133882619Y-96366666D01*
X133539761Y-96823809D02*
X133615952Y-96861904D01*
X133806428Y-96861904D01*
X133882619Y-96823809D01*
X133920714Y-96747619D01*
X133920714Y-96671428D01*
X133882619Y-96595238D01*
X133806428Y-96557142D01*
X133615952Y-96557142D01*
X133539761Y-96519047D01*
X133196904Y-96138095D02*
X133158809Y-96100000D01*
X133082619Y-96061904D01*
X132892142Y-96061904D01*
X132815952Y-96100000D01*
X132777857Y-96138095D01*
X132739761Y-96214285D01*
X132739761Y-96290476D01*
X132777857Y-96404761D01*
X133235000Y-96861904D01*
X132739761Y-96861904D01*
X137087380Y-104910714D02*
X137125476Y-104948809D01*
X137239761Y-104986904D01*
X137315952Y-104986904D01*
X137430238Y-104948809D01*
X137506428Y-104872619D01*
X137544523Y-104796428D01*
X137582619Y-104644047D01*
X137582619Y-104529761D01*
X137544523Y-104377380D01*
X137506428Y-104301190D01*
X137430238Y-104225000D01*
X137315952Y-104186904D01*
X137239761Y-104186904D01*
X137125476Y-104225000D01*
X137087380Y-104263095D01*
X136744523Y-104986904D02*
X136744523Y-104453571D01*
X136744523Y-104605952D02*
X136706428Y-104529761D01*
X136668333Y-104491666D01*
X136592142Y-104453571D01*
X136515952Y-104453571D01*
X135944523Y-104948809D02*
X136020714Y-104986904D01*
X136173095Y-104986904D01*
X136249285Y-104948809D01*
X136287380Y-104872619D01*
X136287380Y-104567857D01*
X136249285Y-104491666D01*
X136173095Y-104453571D01*
X136020714Y-104453571D01*
X135944523Y-104491666D01*
X135906428Y-104567857D01*
X135906428Y-104644047D01*
X136287380Y-104720238D01*
X135220714Y-104986904D02*
X135220714Y-104567857D01*
X135258809Y-104491666D01*
X135335000Y-104453571D01*
X135487380Y-104453571D01*
X135563571Y-104491666D01*
X135220714Y-104948809D02*
X135296904Y-104986904D01*
X135487380Y-104986904D01*
X135563571Y-104948809D01*
X135601666Y-104872619D01*
X135601666Y-104796428D01*
X135563571Y-104720238D01*
X135487380Y-104682142D01*
X135296904Y-104682142D01*
X135220714Y-104644047D01*
X134954047Y-104453571D02*
X134649285Y-104453571D01*
X134839761Y-104186904D02*
X134839761Y-104872619D01*
X134801666Y-104948809D01*
X134725476Y-104986904D01*
X134649285Y-104986904D01*
X134077857Y-104948809D02*
X134154047Y-104986904D01*
X134306428Y-104986904D01*
X134382619Y-104948809D01*
X134420714Y-104872619D01*
X134420714Y-104567857D01*
X134382619Y-104491666D01*
X134306428Y-104453571D01*
X134154047Y-104453571D01*
X134077857Y-104491666D01*
X134039761Y-104567857D01*
X134039761Y-104644047D01*
X134420714Y-104720238D01*
X133354047Y-104986904D02*
X133354047Y-104186904D01*
X133354047Y-104948809D02*
X133430238Y-104986904D01*
X133582619Y-104986904D01*
X133658809Y-104948809D01*
X133696904Y-104910714D01*
X133735000Y-104834523D01*
X133735000Y-104605952D01*
X133696904Y-104529761D01*
X133658809Y-104491666D01*
X133582619Y-104453571D01*
X133430238Y-104453571D01*
X133354047Y-104491666D01*
X132363571Y-104986904D02*
X132363571Y-104186904D01*
X132363571Y-104491666D02*
X132287380Y-104453571D01*
X132135000Y-104453571D01*
X132058809Y-104491666D01*
X132020714Y-104529761D01*
X131982619Y-104605952D01*
X131982619Y-104834523D01*
X132020714Y-104910714D01*
X132058809Y-104948809D01*
X132135000Y-104986904D01*
X132287380Y-104986904D01*
X132363571Y-104948809D01*
X131715952Y-104453571D02*
X131525476Y-104986904D01*
X131335000Y-104453571D02*
X131525476Y-104986904D01*
X131601666Y-105177380D01*
X131639761Y-105215476D01*
X131715952Y-105253571D01*
X130192142Y-104186904D02*
X130192142Y-104758333D01*
X130230238Y-104872619D01*
X130306428Y-104948809D01*
X130420714Y-104986904D01*
X130496904Y-104986904D01*
X129506428Y-104948809D02*
X129582619Y-104986904D01*
X129735000Y-104986904D01*
X129811190Y-104948809D01*
X129849285Y-104872619D01*
X129849285Y-104567857D01*
X129811190Y-104491666D01*
X129735000Y-104453571D01*
X129582619Y-104453571D01*
X129506428Y-104491666D01*
X129468333Y-104567857D01*
X129468333Y-104644047D01*
X129849285Y-104720238D01*
X129125476Y-104986904D02*
X129125476Y-104453571D01*
X129125476Y-104605952D02*
X129087380Y-104529761D01*
X129049285Y-104491666D01*
X128973095Y-104453571D01*
X128896904Y-104453571D01*
X128325476Y-104948809D02*
X128401666Y-104986904D01*
X128554047Y-104986904D01*
X128630238Y-104948809D01*
X128668333Y-104872619D01*
X128668333Y-104567857D01*
X128630238Y-104491666D01*
X128554047Y-104453571D01*
X128401666Y-104453571D01*
X128325476Y-104491666D01*
X128287380Y-104567857D01*
X128287380Y-104644047D01*
X128668333Y-104720238D01*
X127944523Y-104986904D02*
X127944523Y-104453571D01*
X127944523Y-104529761D02*
X127906428Y-104491666D01*
X127830238Y-104453571D01*
X127715952Y-104453571D01*
X127639761Y-104491666D01*
X127601666Y-104567857D01*
X127601666Y-104986904D01*
X127601666Y-104567857D02*
X127563571Y-104491666D01*
X127487380Y-104453571D01*
X127373095Y-104453571D01*
X127296904Y-104491666D01*
X127258809Y-104567857D01*
X127258809Y-104986904D01*
X126954047Y-104453571D02*
X126763571Y-104986904D01*
X126573095Y-104453571D02*
X126763571Y-104986904D01*
X126839761Y-105177380D01*
X126877857Y-105215476D01*
X126954047Y-105253571D01*
X125239761Y-104225000D02*
X125315952Y-104186904D01*
X125430238Y-104186904D01*
X125544523Y-104225000D01*
X125620714Y-104301190D01*
X125658809Y-104377380D01*
X125696904Y-104529761D01*
X125696904Y-104644047D01*
X125658809Y-104796428D01*
X125620714Y-104872619D01*
X125544523Y-104948809D01*
X125430238Y-104986904D01*
X125354047Y-104986904D01*
X125239761Y-104948809D01*
X125201666Y-104910714D01*
X125201666Y-104644047D01*
X125354047Y-104644047D01*
X124858809Y-104986904D02*
X124858809Y-104453571D01*
X124858809Y-104186904D02*
X124896904Y-104225000D01*
X124858809Y-104263095D01*
X124820714Y-104225000D01*
X124858809Y-104186904D01*
X124858809Y-104263095D01*
X124363571Y-104986904D02*
X124439761Y-104948809D01*
X124477857Y-104872619D01*
X124477857Y-104186904D01*
X123944523Y-104986904D02*
X124020714Y-104948809D01*
X124058809Y-104872619D01*
X124058809Y-104186904D01*
X123639761Y-104986904D02*
X123639761Y-104453571D01*
X123639761Y-104186904D02*
X123677857Y-104225000D01*
X123639761Y-104263095D01*
X123601666Y-104225000D01*
X123639761Y-104186904D01*
X123639761Y-104263095D01*
X122915952Y-104948809D02*
X122992142Y-104986904D01*
X123144523Y-104986904D01*
X123220714Y-104948809D01*
X123258809Y-104910714D01*
X123296904Y-104834523D01*
X123296904Y-104605952D01*
X123258809Y-104529761D01*
X123220714Y-104491666D01*
X123144523Y-104453571D01*
X122992142Y-104453571D01*
X122915952Y-104491666D01*
X122573095Y-104986904D02*
X122573095Y-104186904D01*
X122496904Y-104682142D02*
X122268333Y-104986904D01*
X122268333Y-104453571D02*
X122573095Y-104758333D01*
X137544523Y-106286904D02*
X137544523Y-105486904D01*
X137201666Y-106286904D02*
X137201666Y-105867857D01*
X137239761Y-105791666D01*
X137315952Y-105753571D01*
X137430238Y-105753571D01*
X137506428Y-105791666D01*
X137544523Y-105829761D01*
X136935000Y-105753571D02*
X136630238Y-105753571D01*
X136820714Y-105486904D02*
X136820714Y-106172619D01*
X136782619Y-106248809D01*
X136706428Y-106286904D01*
X136630238Y-106286904D01*
X136477857Y-105753571D02*
X136173095Y-105753571D01*
X136363571Y-105486904D02*
X136363571Y-106172619D01*
X136325476Y-106248809D01*
X136249285Y-106286904D01*
X136173095Y-106286904D01*
X135906428Y-105753571D02*
X135906428Y-106553571D01*
X135906428Y-105791666D02*
X135830238Y-105753571D01*
X135677857Y-105753571D01*
X135601666Y-105791666D01*
X135563571Y-105829761D01*
X135525476Y-105905952D01*
X135525476Y-106134523D01*
X135563571Y-106210714D01*
X135601666Y-106248809D01*
X135677857Y-106286904D01*
X135830238Y-106286904D01*
X135906428Y-106248809D01*
X135220714Y-106248809D02*
X135144523Y-106286904D01*
X134992142Y-106286904D01*
X134915952Y-106248809D01*
X134877857Y-106172619D01*
X134877857Y-106134523D01*
X134915952Y-106058333D01*
X134992142Y-106020238D01*
X135106428Y-106020238D01*
X135182619Y-105982142D01*
X135220714Y-105905952D01*
X135220714Y-105867857D01*
X135182619Y-105791666D01*
X135106428Y-105753571D01*
X134992142Y-105753571D01*
X134915952Y-105791666D01*
X134535000Y-106210714D02*
X134496904Y-106248809D01*
X134535000Y-106286904D01*
X134573095Y-106248809D01*
X134535000Y-106210714D01*
X134535000Y-106286904D01*
X134535000Y-105791666D02*
X134496904Y-105829761D01*
X134535000Y-105867857D01*
X134573095Y-105829761D01*
X134535000Y-105791666D01*
X134535000Y-105867857D01*
X133582619Y-105448809D02*
X134268333Y-106477380D01*
X132744523Y-105448809D02*
X133430238Y-106477380D01*
X132135000Y-105753571D02*
X132135000Y-106401190D01*
X132173095Y-106477380D01*
X132211190Y-106515476D01*
X132287380Y-106553571D01*
X132401666Y-106553571D01*
X132477857Y-106515476D01*
X132135000Y-106248809D02*
X132211190Y-106286904D01*
X132363571Y-106286904D01*
X132439761Y-106248809D01*
X132477857Y-106210714D01*
X132515952Y-106134523D01*
X132515952Y-105905952D01*
X132477857Y-105829761D01*
X132439761Y-105791666D01*
X132363571Y-105753571D01*
X132211190Y-105753571D01*
X132135000Y-105791666D01*
X131754047Y-106286904D02*
X131754047Y-105753571D01*
X131754047Y-105486904D02*
X131792142Y-105525000D01*
X131754047Y-105563095D01*
X131715952Y-105525000D01*
X131754047Y-105486904D01*
X131754047Y-105563095D01*
X131487380Y-105753571D02*
X131182619Y-105753571D01*
X131373095Y-105486904D02*
X131373095Y-106172619D01*
X131335000Y-106248809D01*
X131258809Y-106286904D01*
X131182619Y-106286904D01*
X130915952Y-106286904D02*
X130915952Y-105486904D01*
X130573095Y-106286904D02*
X130573095Y-105867857D01*
X130611190Y-105791666D01*
X130687380Y-105753571D01*
X130801666Y-105753571D01*
X130877857Y-105791666D01*
X130915952Y-105829761D01*
X129849285Y-105753571D02*
X129849285Y-106286904D01*
X130192142Y-105753571D02*
X130192142Y-106172619D01*
X130154047Y-106248809D01*
X130077857Y-106286904D01*
X129963571Y-106286904D01*
X129887380Y-106248809D01*
X129849285Y-106210714D01*
X129468333Y-106286904D02*
X129468333Y-105486904D01*
X129468333Y-105791666D02*
X129392142Y-105753571D01*
X129239761Y-105753571D01*
X129163571Y-105791666D01*
X129125476Y-105829761D01*
X129087380Y-105905952D01*
X129087380Y-106134523D01*
X129125476Y-106210714D01*
X129163571Y-106248809D01*
X129239761Y-106286904D01*
X129392142Y-106286904D01*
X129468333Y-106248809D01*
X128744523Y-106210714D02*
X128706428Y-106248809D01*
X128744523Y-106286904D01*
X128782619Y-106248809D01*
X128744523Y-106210714D01*
X128744523Y-106286904D01*
X128020714Y-106248809D02*
X128096904Y-106286904D01*
X128249285Y-106286904D01*
X128325476Y-106248809D01*
X128363571Y-106210714D01*
X128401666Y-106134523D01*
X128401666Y-105905952D01*
X128363571Y-105829761D01*
X128325476Y-105791666D01*
X128249285Y-105753571D01*
X128096904Y-105753571D01*
X128020714Y-105791666D01*
X127563571Y-106286904D02*
X127639761Y-106248809D01*
X127677857Y-106210714D01*
X127715952Y-106134523D01*
X127715952Y-105905952D01*
X127677857Y-105829761D01*
X127639761Y-105791666D01*
X127563571Y-105753571D01*
X127449285Y-105753571D01*
X127373095Y-105791666D01*
X127335000Y-105829761D01*
X127296904Y-105905952D01*
X127296904Y-106134523D01*
X127335000Y-106210714D01*
X127373095Y-106248809D01*
X127449285Y-106286904D01*
X127563571Y-106286904D01*
X126954047Y-106286904D02*
X126954047Y-105753571D01*
X126954047Y-105829761D02*
X126915952Y-105791666D01*
X126839761Y-105753571D01*
X126725476Y-105753571D01*
X126649285Y-105791666D01*
X126611190Y-105867857D01*
X126611190Y-106286904D01*
X126611190Y-105867857D02*
X126573095Y-105791666D01*
X126496904Y-105753571D01*
X126382619Y-105753571D01*
X126306428Y-105791666D01*
X126268333Y-105867857D01*
X126268333Y-106286904D01*
X125315952Y-105448809D02*
X126001666Y-106477380D01*
X125049285Y-105753571D02*
X125049285Y-106439285D01*
X125087380Y-106515476D01*
X125163571Y-106553571D01*
X125201666Y-106553571D01*
X125049285Y-105486904D02*
X125087380Y-105525000D01*
X125049285Y-105563095D01*
X125011190Y-105525000D01*
X125049285Y-105486904D01*
X125049285Y-105563095D01*
X124325476Y-105753571D02*
X124325476Y-106401190D01*
X124363571Y-106477380D01*
X124401666Y-106515476D01*
X124477857Y-106553571D01*
X124592142Y-106553571D01*
X124668333Y-106515476D01*
X124325476Y-106248809D02*
X124401666Y-106286904D01*
X124554047Y-106286904D01*
X124630238Y-106248809D01*
X124668333Y-106210714D01*
X124706428Y-106134523D01*
X124706428Y-105905952D01*
X124668333Y-105829761D01*
X124630238Y-105791666D01*
X124554047Y-105753571D01*
X124401666Y-105753571D01*
X124325476Y-105791666D01*
X123944523Y-106286904D02*
X123944523Y-105753571D01*
X123944523Y-105486904D02*
X123982619Y-105525000D01*
X123944523Y-105563095D01*
X123906428Y-105525000D01*
X123944523Y-105486904D01*
X123944523Y-105563095D01*
X123449285Y-106286904D02*
X123525476Y-106248809D01*
X123563571Y-106172619D01*
X123563571Y-105486904D01*
X123030238Y-106286904D02*
X123106428Y-106248809D01*
X123144523Y-106172619D01*
X123144523Y-105486904D01*
X122725476Y-106286904D02*
X122725476Y-105753571D01*
X122725476Y-105486904D02*
X122763571Y-105525000D01*
X122725476Y-105563095D01*
X122687380Y-105525000D01*
X122725476Y-105486904D01*
X122725476Y-105563095D01*
X122001666Y-106248809D02*
X122077857Y-106286904D01*
X122230238Y-106286904D01*
X122306428Y-106248809D01*
X122344523Y-106210714D01*
X122382619Y-106134523D01*
X122382619Y-105905952D01*
X122344523Y-105829761D01*
X122306428Y-105791666D01*
X122230238Y-105753571D01*
X122077857Y-105753571D01*
X122001666Y-105791666D01*
X121658809Y-106286904D02*
X121658809Y-105486904D01*
X121582619Y-105982142D02*
X121354047Y-106286904D01*
X121354047Y-105753571D02*
X121658809Y-106058333D01*
X120439761Y-105448809D02*
X121125476Y-106477380D01*
X120287380Y-105486904D02*
X119830238Y-105486904D01*
X120058809Y-106286904D02*
X120058809Y-105486904D01*
X119563571Y-106286904D02*
X119563571Y-105486904D01*
X119220714Y-106286904D02*
X119220714Y-105867857D01*
X119258809Y-105791666D01*
X119335000Y-105753571D01*
X119449285Y-105753571D01*
X119525476Y-105791666D01*
X119563571Y-105829761D01*
X118496904Y-105753571D02*
X118496904Y-106286904D01*
X118839761Y-105753571D02*
X118839761Y-106172619D01*
X118801666Y-106248809D01*
X118725476Y-106286904D01*
X118611190Y-106286904D01*
X118535000Y-106248809D01*
X118496904Y-106210714D01*
X118115952Y-105753571D02*
X118115952Y-106286904D01*
X118115952Y-105829761D02*
X118077857Y-105791666D01*
X118001666Y-105753571D01*
X117887380Y-105753571D01*
X117811190Y-105791666D01*
X117773095Y-105867857D01*
X117773095Y-106286904D01*
X117049285Y-106286904D02*
X117049285Y-105486904D01*
X117049285Y-106248809D02*
X117125476Y-106286904D01*
X117277857Y-106286904D01*
X117354047Y-106248809D01*
X117392142Y-106210714D01*
X117430238Y-106134523D01*
X117430238Y-105905952D01*
X117392142Y-105829761D01*
X117354047Y-105791666D01*
X117277857Y-105753571D01*
X117125476Y-105753571D01*
X117049285Y-105791666D01*
X116363571Y-106248809D02*
X116439761Y-106286904D01*
X116592142Y-106286904D01*
X116668333Y-106248809D01*
X116706428Y-106172619D01*
X116706428Y-105867857D01*
X116668333Y-105791666D01*
X116592142Y-105753571D01*
X116439761Y-105753571D01*
X116363571Y-105791666D01*
X116325476Y-105867857D01*
X116325476Y-105944047D01*
X116706428Y-106020238D01*
X115982619Y-106286904D02*
X115982619Y-105753571D01*
X115982619Y-105905952D02*
X115944523Y-105829761D01*
X115906428Y-105791666D01*
X115830238Y-105753571D01*
X115754047Y-105753571D01*
X115487380Y-106286904D02*
X115487380Y-105486904D01*
X115182619Y-105486904D01*
X115106428Y-105525000D01*
X115068333Y-105563095D01*
X115030238Y-105639285D01*
X115030238Y-105753571D01*
X115068333Y-105829761D01*
X115106428Y-105867857D01*
X115182619Y-105905952D01*
X115487380Y-105905952D01*
X114344523Y-106286904D02*
X114344523Y-105867857D01*
X114382619Y-105791666D01*
X114458809Y-105753571D01*
X114611190Y-105753571D01*
X114687380Y-105791666D01*
X114344523Y-106248809D02*
X114420714Y-106286904D01*
X114611190Y-106286904D01*
X114687380Y-106248809D01*
X114725476Y-106172619D01*
X114725476Y-106096428D01*
X114687380Y-106020238D01*
X114611190Y-105982142D01*
X114420714Y-105982142D01*
X114344523Y-105944047D01*
X113620714Y-106248809D02*
X113696904Y-106286904D01*
X113849285Y-106286904D01*
X113925476Y-106248809D01*
X113963571Y-106210714D01*
X114001666Y-106134523D01*
X114001666Y-105905952D01*
X113963571Y-105829761D01*
X113925476Y-105791666D01*
X113849285Y-105753571D01*
X113696904Y-105753571D01*
X113620714Y-105791666D01*
X113277857Y-106286904D02*
X113277857Y-105486904D01*
X113201666Y-105982142D02*
X112973095Y-106286904D01*
X112973095Y-105753571D02*
X113277857Y-106058333D01*
X99103571Y-97383333D02*
X99139285Y-97350000D01*
X99210714Y-97250000D01*
X99246428Y-97183333D01*
X99282142Y-97083333D01*
X99317857Y-96916666D01*
X99317857Y-96783333D01*
X99282142Y-96616666D01*
X99246428Y-96516666D01*
X99210714Y-96450000D01*
X99139285Y-96350000D01*
X99103571Y-96316666D01*
X98817857Y-97116666D02*
X98817857Y-96650000D01*
X98817857Y-96716666D02*
X98782142Y-96683333D01*
X98710714Y-96650000D01*
X98603571Y-96650000D01*
X98532142Y-96683333D01*
X98496428Y-96750000D01*
X98496428Y-97116666D01*
X98496428Y-96750000D02*
X98460714Y-96683333D01*
X98389285Y-96650000D01*
X98282142Y-96650000D01*
X98210714Y-96683333D01*
X98175000Y-96750000D01*
X98175000Y-97116666D01*
X97496428Y-97116666D02*
X97496428Y-96750000D01*
X97532142Y-96683333D01*
X97603571Y-96650000D01*
X97746428Y-96650000D01*
X97817857Y-96683333D01*
X97496428Y-97083333D02*
X97567857Y-97116666D01*
X97746428Y-97116666D01*
X97817857Y-97083333D01*
X97853571Y-97016666D01*
X97853571Y-96950000D01*
X97817857Y-96883333D01*
X97746428Y-96850000D01*
X97567857Y-96850000D01*
X97496428Y-96816666D01*
X97210714Y-97116666D02*
X96817857Y-96650000D01*
X97210714Y-96650000D02*
X96817857Y-97116666D01*
X95996428Y-96483333D02*
X95960714Y-96450000D01*
X95889285Y-96416666D01*
X95710714Y-96416666D01*
X95639285Y-96450000D01*
X95603571Y-96483333D01*
X95567857Y-96550000D01*
X95567857Y-96616666D01*
X95603571Y-96716666D01*
X96032142Y-97116666D01*
X95567857Y-97116666D01*
X95246428Y-97050000D02*
X95210714Y-97083333D01*
X95246428Y-97116666D01*
X95282142Y-97083333D01*
X95246428Y-97050000D01*
X95246428Y-97116666D01*
X94960714Y-96416666D02*
X94496428Y-96416666D01*
X94746428Y-96683333D01*
X94639285Y-96683333D01*
X94567857Y-96716666D01*
X94532142Y-96750000D01*
X94496428Y-96816666D01*
X94496428Y-96983333D01*
X94532142Y-97050000D01*
X94567857Y-97083333D01*
X94639285Y-97116666D01*
X94853571Y-97116666D01*
X94925000Y-97083333D01*
X94960714Y-97050000D01*
X94210714Y-96916666D02*
X93853571Y-96916666D01*
X94282142Y-97116666D02*
X94032142Y-96416666D01*
X93782142Y-97116666D01*
X92960714Y-96650000D02*
X92960714Y-97350000D01*
X92960714Y-96683333D02*
X92889285Y-96650000D01*
X92746428Y-96650000D01*
X92675000Y-96683333D01*
X92639285Y-96716666D01*
X92603571Y-96783333D01*
X92603571Y-96983333D01*
X92639285Y-97050000D01*
X92675000Y-97083333D01*
X92746428Y-97116666D01*
X92889285Y-97116666D01*
X92960714Y-97083333D01*
X91996428Y-97083333D02*
X92067857Y-97116666D01*
X92210714Y-97116666D01*
X92282142Y-97083333D01*
X92317857Y-97016666D01*
X92317857Y-96750000D01*
X92282142Y-96683333D01*
X92210714Y-96650000D01*
X92067857Y-96650000D01*
X91996428Y-96683333D01*
X91960714Y-96750000D01*
X91960714Y-96816666D01*
X92317857Y-96883333D01*
X91639285Y-97116666D02*
X91639285Y-96650000D01*
X91639285Y-96783333D02*
X91603571Y-96716666D01*
X91567857Y-96683333D01*
X91496428Y-96650000D01*
X91425000Y-96650000D01*
X91246428Y-97383333D02*
X91210714Y-97350000D01*
X91139285Y-97250000D01*
X91103571Y-97183333D01*
X91067857Y-97083333D01*
X91032142Y-96916666D01*
X91032142Y-96783333D01*
X91067857Y-96616666D01*
X91103571Y-96516666D01*
X91139285Y-96450000D01*
X91210714Y-96350000D01*
X91246428Y-96316666D01*
X87978333Y-95419047D02*
X87978333Y-94769047D01*
X87730714Y-94769047D01*
X87668809Y-94800000D01*
X87637857Y-94830952D01*
X87606904Y-94892857D01*
X87606904Y-94985714D01*
X87637857Y-95047619D01*
X87668809Y-95078571D01*
X87730714Y-95109523D01*
X87978333Y-95109523D01*
X87359285Y-95233333D02*
X87049761Y-95233333D01*
X87421190Y-95419047D02*
X87204523Y-94769047D01*
X86987857Y-95419047D01*
X86492619Y-94985714D02*
X86492619Y-95419047D01*
X86647380Y-94738095D02*
X86802142Y-95202380D01*
X86399761Y-95202380D01*
X85503333Y-95419047D02*
X85503333Y-94769047D01*
X85255714Y-94769047D01*
X85193809Y-94800000D01*
X85162857Y-94830952D01*
X85131904Y-94892857D01*
X85131904Y-94985714D01*
X85162857Y-95047619D01*
X85193809Y-95078571D01*
X85255714Y-95109523D01*
X85503333Y-95109523D01*
X84884285Y-95233333D02*
X84574761Y-95233333D01*
X84946190Y-95419047D02*
X84729523Y-94769047D01*
X84512857Y-95419047D01*
X83986666Y-94769047D02*
X84296190Y-94769047D01*
X84327142Y-95078571D01*
X84296190Y-95047619D01*
X84234285Y-95016666D01*
X84079523Y-95016666D01*
X84017619Y-95047619D01*
X83986666Y-95078571D01*
X83955714Y-95140476D01*
X83955714Y-95295238D01*
X83986666Y-95357142D01*
X84017619Y-95388095D01*
X84079523Y-95419047D01*
X84234285Y-95419047D01*
X84296190Y-95388095D01*
X84327142Y-95357142D01*
X82928333Y-95419047D02*
X82928333Y-94769047D01*
X82680714Y-94769047D01*
X82618809Y-94800000D01*
X82587857Y-94830952D01*
X82556904Y-94892857D01*
X82556904Y-94985714D01*
X82587857Y-95047619D01*
X82618809Y-95078571D01*
X82680714Y-95109523D01*
X82928333Y-95109523D01*
X82309285Y-95233333D02*
X81999761Y-95233333D01*
X82371190Y-95419047D02*
X82154523Y-94769047D01*
X81937857Y-95419047D01*
X81442619Y-94769047D02*
X81566428Y-94769047D01*
X81628333Y-94800000D01*
X81659285Y-94830952D01*
X81721190Y-94923809D01*
X81752142Y-95047619D01*
X81752142Y-95295238D01*
X81721190Y-95357142D01*
X81690238Y-95388095D01*
X81628333Y-95419047D01*
X81504523Y-95419047D01*
X81442619Y-95388095D01*
X81411666Y-95357142D01*
X81380714Y-95295238D01*
X81380714Y-95140476D01*
X81411666Y-95078571D01*
X81442619Y-95047619D01*
X81504523Y-95016666D01*
X81628333Y-95016666D01*
X81690238Y-95047619D01*
X81721190Y-95078571D01*
X81752142Y-95140476D01*
X80328333Y-95419047D02*
X80328333Y-94769047D01*
X80080714Y-94769047D01*
X80018809Y-94800000D01*
X79987857Y-94830952D01*
X79956904Y-94892857D01*
X79956904Y-94985714D01*
X79987857Y-95047619D01*
X80018809Y-95078571D01*
X80080714Y-95109523D01*
X80328333Y-95109523D01*
X79709285Y-95233333D02*
X79399761Y-95233333D01*
X79771190Y-95419047D02*
X79554523Y-94769047D01*
X79337857Y-95419047D01*
X79183095Y-94769047D02*
X78749761Y-94769047D01*
X79028333Y-95419047D01*
X77778333Y-95419047D02*
X77778333Y-94769047D01*
X77530714Y-94769047D01*
X77468809Y-94800000D01*
X77437857Y-94830952D01*
X77406904Y-94892857D01*
X77406904Y-94985714D01*
X77437857Y-95047619D01*
X77468809Y-95078571D01*
X77530714Y-95109523D01*
X77778333Y-95109523D01*
X77159285Y-95233333D02*
X76849761Y-95233333D01*
X77221190Y-95419047D02*
X77004523Y-94769047D01*
X76787857Y-95419047D01*
X76478333Y-95047619D02*
X76540238Y-95016666D01*
X76571190Y-94985714D01*
X76602142Y-94923809D01*
X76602142Y-94892857D01*
X76571190Y-94830952D01*
X76540238Y-94800000D01*
X76478333Y-94769047D01*
X76354523Y-94769047D01*
X76292619Y-94800000D01*
X76261666Y-94830952D01*
X76230714Y-94892857D01*
X76230714Y-94923809D01*
X76261666Y-94985714D01*
X76292619Y-95016666D01*
X76354523Y-95047619D01*
X76478333Y-95047619D01*
X76540238Y-95078571D01*
X76571190Y-95109523D01*
X76602142Y-95171428D01*
X76602142Y-95295238D01*
X76571190Y-95357142D01*
X76540238Y-95388095D01*
X76478333Y-95419047D01*
X76354523Y-95419047D01*
X76292619Y-95388095D01*
X76261666Y-95357142D01*
X76230714Y-95295238D01*
X76230714Y-95171428D01*
X76261666Y-95109523D01*
X76292619Y-95078571D01*
X76354523Y-95047619D01*
X88024761Y-105119047D02*
X88024761Y-104469047D01*
X87777142Y-104469047D01*
X87715238Y-104500000D01*
X87684285Y-104530952D01*
X87653333Y-104592857D01*
X87653333Y-104685714D01*
X87684285Y-104747619D01*
X87715238Y-104778571D01*
X87777142Y-104809523D01*
X88024761Y-104809523D01*
X87158095Y-104778571D02*
X87065238Y-104809523D01*
X87034285Y-104840476D01*
X87003333Y-104902380D01*
X87003333Y-104995238D01*
X87034285Y-105057142D01*
X87065238Y-105088095D01*
X87127142Y-105119047D01*
X87374761Y-105119047D01*
X87374761Y-104469047D01*
X87158095Y-104469047D01*
X87096190Y-104500000D01*
X87065238Y-104530952D01*
X87034285Y-104592857D01*
X87034285Y-104654761D01*
X87065238Y-104716666D01*
X87096190Y-104747619D01*
X87158095Y-104778571D01*
X87374761Y-104778571D01*
X86415238Y-104469047D02*
X86724761Y-104469047D01*
X86755714Y-104778571D01*
X86724761Y-104747619D01*
X86662857Y-104716666D01*
X86508095Y-104716666D01*
X86446190Y-104747619D01*
X86415238Y-104778571D01*
X86384285Y-104840476D01*
X86384285Y-104995238D01*
X86415238Y-105057142D01*
X86446190Y-105088095D01*
X86508095Y-105119047D01*
X86662857Y-105119047D01*
X86724761Y-105088095D01*
X86755714Y-105057142D01*
X85680714Y-105119047D02*
X85680714Y-104469047D01*
X85452142Y-104469047D01*
X85395000Y-104500000D01*
X85366428Y-104530952D01*
X85337857Y-104592857D01*
X85337857Y-104685714D01*
X85366428Y-104747619D01*
X85395000Y-104778571D01*
X85452142Y-104809523D01*
X85680714Y-104809523D01*
X85109285Y-104933333D02*
X84823571Y-104933333D01*
X85166428Y-105119047D02*
X84966428Y-104469047D01*
X84766428Y-105119047D01*
X84252142Y-105119047D02*
X84595000Y-105119047D01*
X84423571Y-105119047D02*
X84423571Y-104469047D01*
X84480714Y-104561904D01*
X84537857Y-104623809D01*
X84595000Y-104654761D01*
X83737857Y-104685714D02*
X83737857Y-105119047D01*
X83880714Y-104438095D02*
X84023571Y-104902380D01*
X83652142Y-104902380D01*
X83105714Y-105119047D02*
X83105714Y-104469047D01*
X82877142Y-104469047D01*
X82820000Y-104500000D01*
X82791428Y-104530952D01*
X82762857Y-104592857D01*
X82762857Y-104685714D01*
X82791428Y-104747619D01*
X82820000Y-104778571D01*
X82877142Y-104809523D01*
X83105714Y-104809523D01*
X82534285Y-104933333D02*
X82248571Y-104933333D01*
X82591428Y-105119047D02*
X82391428Y-104469047D01*
X82191428Y-105119047D01*
X81677142Y-105119047D02*
X82020000Y-105119047D01*
X81848571Y-105119047D02*
X81848571Y-104469047D01*
X81905714Y-104561904D01*
X81962857Y-104623809D01*
X82020000Y-104654761D01*
X81477142Y-104469047D02*
X81105714Y-104469047D01*
X81305714Y-104716666D01*
X81220000Y-104716666D01*
X81162857Y-104747619D01*
X81134285Y-104778571D01*
X81105714Y-104840476D01*
X81105714Y-104995238D01*
X81134285Y-105057142D01*
X81162857Y-105088095D01*
X81220000Y-105119047D01*
X81391428Y-105119047D01*
X81448571Y-105088095D01*
X81477142Y-105057142D01*
X80605714Y-105094047D02*
X80605714Y-104444047D01*
X80377142Y-104444047D01*
X80320000Y-104475000D01*
X80291428Y-104505952D01*
X80262857Y-104567857D01*
X80262857Y-104660714D01*
X80291428Y-104722619D01*
X80320000Y-104753571D01*
X80377142Y-104784523D01*
X80605714Y-104784523D01*
X80034285Y-104908333D02*
X79748571Y-104908333D01*
X80091428Y-105094047D02*
X79891428Y-104444047D01*
X79691428Y-105094047D01*
X79177142Y-105094047D02*
X79520000Y-105094047D01*
X79348571Y-105094047D02*
X79348571Y-104444047D01*
X79405714Y-104536904D01*
X79462857Y-104598809D01*
X79520000Y-104629761D01*
X78805714Y-104444047D02*
X78748571Y-104444047D01*
X78691428Y-104475000D01*
X78662857Y-104505952D01*
X78634285Y-104567857D01*
X78605714Y-104691666D01*
X78605714Y-104846428D01*
X78634285Y-104970238D01*
X78662857Y-105032142D01*
X78691428Y-105063095D01*
X78748571Y-105094047D01*
X78805714Y-105094047D01*
X78862857Y-105063095D01*
X78891428Y-105032142D01*
X78920000Y-104970238D01*
X78948571Y-104846428D01*
X78948571Y-104691666D01*
X78920000Y-104567857D01*
X78891428Y-104505952D01*
X78862857Y-104475000D01*
X78805714Y-104444047D01*
X77853333Y-105119047D02*
X77853333Y-104469047D01*
X77605714Y-104469047D01*
X77543809Y-104500000D01*
X77512857Y-104530952D01*
X77481904Y-104592857D01*
X77481904Y-104685714D01*
X77512857Y-104747619D01*
X77543809Y-104778571D01*
X77605714Y-104809523D01*
X77853333Y-104809523D01*
X77234285Y-104933333D02*
X76924761Y-104933333D01*
X77296190Y-105119047D02*
X77079523Y-104469047D01*
X76862857Y-105119047D01*
X76615238Y-105119047D02*
X76491428Y-105119047D01*
X76429523Y-105088095D01*
X76398571Y-105057142D01*
X76336666Y-104964285D01*
X76305714Y-104840476D01*
X76305714Y-104592857D01*
X76336666Y-104530952D01*
X76367619Y-104500000D01*
X76429523Y-104469047D01*
X76553333Y-104469047D01*
X76615238Y-104500000D01*
X76646190Y-104530952D01*
X76677142Y-104592857D01*
X76677142Y-104747619D01*
X76646190Y-104809523D01*
X76615238Y-104840476D01*
X76553333Y-104871428D01*
X76429523Y-104871428D01*
X76367619Y-104840476D01*
X76336666Y-104809523D01*
X76305714Y-104747619D01*
X95478333Y-95744047D02*
X95478333Y-95094047D01*
X95230714Y-95094047D01*
X95168809Y-95125000D01*
X95137857Y-95155952D01*
X95106904Y-95217857D01*
X95106904Y-95310714D01*
X95137857Y-95372619D01*
X95168809Y-95403571D01*
X95230714Y-95434523D01*
X95478333Y-95434523D01*
X94859285Y-95558333D02*
X94549761Y-95558333D01*
X94921190Y-95744047D02*
X94704523Y-95094047D01*
X94487857Y-95744047D01*
X94333095Y-95094047D02*
X93930714Y-95094047D01*
X94147380Y-95341666D01*
X94054523Y-95341666D01*
X93992619Y-95372619D01*
X93961666Y-95403571D01*
X93930714Y-95465476D01*
X93930714Y-95620238D01*
X93961666Y-95682142D01*
X93992619Y-95713095D01*
X94054523Y-95744047D01*
X94240238Y-95744047D01*
X94302142Y-95713095D01*
X94333095Y-95682142D01*
X98028333Y-95744047D02*
X98028333Y-95094047D01*
X97780714Y-95094047D01*
X97718809Y-95125000D01*
X97687857Y-95155952D01*
X97656904Y-95217857D01*
X97656904Y-95310714D01*
X97687857Y-95372619D01*
X97718809Y-95403571D01*
X97780714Y-95434523D01*
X98028333Y-95434523D01*
X97409285Y-95558333D02*
X97099761Y-95558333D01*
X97471190Y-95744047D02*
X97254523Y-95094047D01*
X97037857Y-95744047D01*
X96852142Y-95155952D02*
X96821190Y-95125000D01*
X96759285Y-95094047D01*
X96604523Y-95094047D01*
X96542619Y-95125000D01*
X96511666Y-95155952D01*
X96480714Y-95217857D01*
X96480714Y-95279761D01*
X96511666Y-95372619D01*
X96883095Y-95744047D01*
X96480714Y-95744047D01*
X100578333Y-95744047D02*
X100578333Y-95094047D01*
X100330714Y-95094047D01*
X100268809Y-95125000D01*
X100237857Y-95155952D01*
X100206904Y-95217857D01*
X100206904Y-95310714D01*
X100237857Y-95372619D01*
X100268809Y-95403571D01*
X100330714Y-95434523D01*
X100578333Y-95434523D01*
X99959285Y-95558333D02*
X99649761Y-95558333D01*
X100021190Y-95744047D02*
X99804523Y-95094047D01*
X99587857Y-95744047D01*
X99030714Y-95744047D02*
X99402142Y-95744047D01*
X99216428Y-95744047D02*
X99216428Y-95094047D01*
X99278333Y-95186904D01*
X99340238Y-95248809D01*
X99402142Y-95279761D01*
X103128333Y-95769047D02*
X103128333Y-95119047D01*
X102880714Y-95119047D01*
X102818809Y-95150000D01*
X102787857Y-95180952D01*
X102756904Y-95242857D01*
X102756904Y-95335714D01*
X102787857Y-95397619D01*
X102818809Y-95428571D01*
X102880714Y-95459523D01*
X103128333Y-95459523D01*
X102509285Y-95583333D02*
X102199761Y-95583333D01*
X102571190Y-95769047D02*
X102354523Y-95119047D01*
X102137857Y-95769047D01*
X101797380Y-95119047D02*
X101735476Y-95119047D01*
X101673571Y-95150000D01*
X101642619Y-95180952D01*
X101611666Y-95242857D01*
X101580714Y-95366666D01*
X101580714Y-95521428D01*
X101611666Y-95645238D01*
X101642619Y-95707142D01*
X101673571Y-95738095D01*
X101735476Y-95769047D01*
X101797380Y-95769047D01*
X101859285Y-95738095D01*
X101890238Y-95707142D01*
X101921190Y-95645238D01*
X101952142Y-95521428D01*
X101952142Y-95366666D01*
X101921190Y-95242857D01*
X101890238Y-95180952D01*
X101859285Y-95150000D01*
X101797380Y-95119047D01*
X106141428Y-95353571D02*
X106048571Y-95384523D01*
X106017619Y-95415476D01*
X105986666Y-95477380D01*
X105986666Y-95570238D01*
X106017619Y-95632142D01*
X106048571Y-95663095D01*
X106110476Y-95694047D01*
X106358095Y-95694047D01*
X106358095Y-95044047D01*
X106141428Y-95044047D01*
X106079523Y-95075000D01*
X106048571Y-95105952D01*
X106017619Y-95167857D01*
X106017619Y-95229761D01*
X106048571Y-95291666D01*
X106079523Y-95322619D01*
X106141428Y-95353571D01*
X106358095Y-95353571D01*
X105429523Y-95694047D02*
X105429523Y-95353571D01*
X105460476Y-95291666D01*
X105522380Y-95260714D01*
X105646190Y-95260714D01*
X105708095Y-95291666D01*
X105429523Y-95663095D02*
X105491428Y-95694047D01*
X105646190Y-95694047D01*
X105708095Y-95663095D01*
X105739047Y-95601190D01*
X105739047Y-95539285D01*
X105708095Y-95477380D01*
X105646190Y-95446428D01*
X105491428Y-95446428D01*
X105429523Y-95415476D01*
X105212857Y-95260714D02*
X104965238Y-95260714D01*
X105120000Y-95044047D02*
X105120000Y-95601190D01*
X105089047Y-95663095D01*
X105027142Y-95694047D01*
X104965238Y-95694047D01*
X104841428Y-95260714D02*
X104593809Y-95260714D01*
X104748571Y-95044047D02*
X104748571Y-95601190D01*
X104717619Y-95663095D01*
X104655714Y-95694047D01*
X104593809Y-95694047D01*
X104377142Y-95446428D02*
X103881904Y-95446428D01*
X104129523Y-95694047D02*
X104129523Y-95198809D01*
D13*
X102592619Y-97227380D02*
X103068809Y-97227380D01*
X103068809Y-96227380D01*
X102259285Y-96703571D02*
X101925952Y-96703571D01*
X101783095Y-97227380D02*
X102259285Y-97227380D01*
X102259285Y-96227380D01*
X101783095Y-96227380D01*
X101354523Y-97227380D02*
X101354523Y-96227380D01*
X101116428Y-96227380D01*
X100973571Y-96275000D01*
X100878333Y-96370238D01*
X100830714Y-96465476D01*
X100783095Y-96655952D01*
X100783095Y-96798809D01*
X100830714Y-96989285D01*
X100878333Y-97084523D01*
X100973571Y-97179761D01*
X101116428Y-97227380D01*
X101354523Y-97227380D01*
X100402142Y-97179761D02*
X100306904Y-97227380D01*
X100116428Y-97227380D01*
X100021190Y-97179761D01*
X99973571Y-97084523D01*
X99973571Y-97036904D01*
X100021190Y-96941666D01*
X100116428Y-96894047D01*
X100259285Y-96894047D01*
X100354523Y-96846428D01*
X100402142Y-96751190D01*
X100402142Y-96703571D01*
X100354523Y-96608333D01*
X100259285Y-96560714D01*
X100116428Y-96560714D01*
X100021190Y-96608333D01*
D12*
X108185476Y-104269047D02*
X107968809Y-104919047D01*
X107752142Y-104269047D01*
X107535476Y-104919047D02*
X107535476Y-104485714D01*
X107535476Y-104269047D02*
X107566428Y-104300000D01*
X107535476Y-104330952D01*
X107504523Y-104300000D01*
X107535476Y-104269047D01*
X107535476Y-104330952D01*
X107225952Y-104485714D02*
X107225952Y-104919047D01*
X107225952Y-104547619D02*
X107195000Y-104516666D01*
X107133095Y-104485714D01*
X107040238Y-104485714D01*
X106978333Y-104516666D01*
X106947380Y-104578571D01*
X106947380Y-104919047D01*
X105873571Y-104294047D02*
X105471190Y-104294047D01*
X105687857Y-104541666D01*
X105595000Y-104541666D01*
X105533095Y-104572619D01*
X105502142Y-104603571D01*
X105471190Y-104665476D01*
X105471190Y-104820238D01*
X105502142Y-104882142D01*
X105533095Y-104913095D01*
X105595000Y-104944047D01*
X105780714Y-104944047D01*
X105842619Y-104913095D01*
X105873571Y-104882142D01*
X105192619Y-104882142D02*
X105161666Y-104913095D01*
X105192619Y-104944047D01*
X105223571Y-104913095D01*
X105192619Y-104882142D01*
X105192619Y-104944047D01*
X104945000Y-104294047D02*
X104542619Y-104294047D01*
X104759285Y-104541666D01*
X104666428Y-104541666D01*
X104604523Y-104572619D01*
X104573571Y-104603571D01*
X104542619Y-104665476D01*
X104542619Y-104820238D01*
X104573571Y-104882142D01*
X104604523Y-104913095D01*
X104666428Y-104944047D01*
X104852142Y-104944047D01*
X104914047Y-104913095D01*
X104945000Y-104882142D01*
X104325952Y-104510714D02*
X104171190Y-104944047D01*
X104016428Y-104510714D01*
X103442619Y-104294047D02*
X103442619Y-104820238D01*
X103411666Y-104882142D01*
X103380714Y-104913095D01*
X103318809Y-104944047D01*
X103195000Y-104944047D01*
X103133095Y-104913095D01*
X103102142Y-104882142D01*
X103071190Y-104820238D01*
X103071190Y-104294047D01*
X102792619Y-104913095D02*
X102699761Y-104944047D01*
X102545000Y-104944047D01*
X102483095Y-104913095D01*
X102452142Y-104882142D01*
X102421190Y-104820238D01*
X102421190Y-104758333D01*
X102452142Y-104696428D01*
X102483095Y-104665476D01*
X102545000Y-104634523D01*
X102668809Y-104603571D01*
X102730714Y-104572619D01*
X102761666Y-104541666D01*
X102792619Y-104479761D01*
X102792619Y-104417857D01*
X102761666Y-104355952D01*
X102730714Y-104325000D01*
X102668809Y-104294047D01*
X102514047Y-104294047D01*
X102421190Y-104325000D01*
X101925952Y-104603571D02*
X101833095Y-104634523D01*
X101802142Y-104665476D01*
X101771190Y-104727380D01*
X101771190Y-104820238D01*
X101802142Y-104882142D01*
X101833095Y-104913095D01*
X101895000Y-104944047D01*
X102142619Y-104944047D01*
X102142619Y-104294047D01*
X101925952Y-104294047D01*
X101864047Y-104325000D01*
X101833095Y-104355952D01*
X101802142Y-104417857D01*
X101802142Y-104479761D01*
X101833095Y-104541666D01*
X101864047Y-104572619D01*
X101925952Y-104603571D01*
X102142619Y-104603571D01*
X101492619Y-104696428D02*
X100997380Y-104696428D01*
X101245000Y-104944047D02*
X101245000Y-104448809D01*
X100287857Y-104325000D02*
X100349761Y-104294047D01*
X100442619Y-104294047D01*
X100535476Y-104325000D01*
X100597380Y-104386904D01*
X100628333Y-104448809D01*
X100659285Y-104572619D01*
X100659285Y-104665476D01*
X100628333Y-104789285D01*
X100597380Y-104851190D01*
X100535476Y-104913095D01*
X100442619Y-104944047D01*
X100380714Y-104944047D01*
X100287857Y-104913095D01*
X100256904Y-104882142D01*
X100256904Y-104665476D01*
X100380714Y-104665476D01*
X99978333Y-104510714D02*
X99978333Y-104944047D01*
X99978333Y-104572619D02*
X99947380Y-104541666D01*
X99885476Y-104510714D01*
X99792619Y-104510714D01*
X99730714Y-104541666D01*
X99699761Y-104603571D01*
X99699761Y-104944047D01*
X99111666Y-104944047D02*
X99111666Y-104294047D01*
X99111666Y-104913095D02*
X99173571Y-104944047D01*
X99297380Y-104944047D01*
X99359285Y-104913095D01*
X99390238Y-104882142D01*
X99421190Y-104820238D01*
X99421190Y-104634523D01*
X99390238Y-104572619D01*
X99359285Y-104541666D01*
X99297380Y-104510714D01*
X99173571Y-104510714D01*
X99111666Y-104541666D01*
D13*
X105601190Y-103827380D02*
X105601190Y-102827380D01*
X105220238Y-102827380D01*
X105125000Y-102875000D01*
X105077380Y-102922619D01*
X105029761Y-103017857D01*
X105029761Y-103160714D01*
X105077380Y-103255952D01*
X105125000Y-103303571D01*
X105220238Y-103351190D01*
X105601190Y-103351190D01*
X104458333Y-103827380D02*
X104553571Y-103779761D01*
X104601190Y-103732142D01*
X104648809Y-103636904D01*
X104648809Y-103351190D01*
X104601190Y-103255952D01*
X104553571Y-103208333D01*
X104458333Y-103160714D01*
X104315476Y-103160714D01*
X104220238Y-103208333D01*
X104172619Y-103255952D01*
X104125000Y-103351190D01*
X104125000Y-103636904D01*
X104172619Y-103732142D01*
X104220238Y-103779761D01*
X104315476Y-103827380D01*
X104458333Y-103827380D01*
X103791666Y-103160714D02*
X103601190Y-103827380D01*
X103410714Y-103351190D01*
X103220238Y-103827380D01*
X103029761Y-103160714D01*
X102267857Y-103779761D02*
X102363095Y-103827380D01*
X102553571Y-103827380D01*
X102648809Y-103779761D01*
X102696428Y-103684523D01*
X102696428Y-103303571D01*
X102648809Y-103208333D01*
X102553571Y-103160714D01*
X102363095Y-103160714D01*
X102267857Y-103208333D01*
X102220238Y-103303571D01*
X102220238Y-103398809D01*
X102696428Y-103494047D01*
X101791666Y-103827380D02*
X101791666Y-103160714D01*
X101791666Y-103351190D02*
X101744047Y-103255952D01*
X101696428Y-103208333D01*
X101601190Y-103160714D01*
X101505952Y-103160714D01*
D14*
X137508571Y-93564285D02*
X136480000Y-93564285D01*
X136994285Y-95364285D02*
X136994285Y-93564285D01*
X135880000Y-95364285D02*
X135880000Y-93564285D01*
X135108571Y-95364285D02*
X135108571Y-94421428D01*
X135194285Y-94250000D01*
X135365714Y-94164285D01*
X135622857Y-94164285D01*
X135794285Y-94250000D01*
X135880000Y-94335714D01*
X133480000Y-94164285D02*
X133480000Y-95364285D01*
X134251428Y-94164285D02*
X134251428Y-95107142D01*
X134165714Y-95278571D01*
X133994285Y-95364285D01*
X133737142Y-95364285D01*
X133565714Y-95278571D01*
X133480000Y-95192857D01*
X132622857Y-94164285D02*
X132622857Y-95364285D01*
X132622857Y-94335714D02*
X132537142Y-94250000D01*
X132365714Y-94164285D01*
X132108571Y-94164285D01*
X131937142Y-94250000D01*
X131851428Y-94421428D01*
X131851428Y-95364285D01*
X130222857Y-95364285D02*
X130222857Y-93564285D01*
X130222857Y-95278571D02*
X130394285Y-95364285D01*
X130737142Y-95364285D01*
X130908571Y-95278571D01*
X130994285Y-95192857D01*
X131080000Y-95021428D01*
X131080000Y-94507142D01*
X130994285Y-94335714D01*
X130908571Y-94250000D01*
X130737142Y-94164285D01*
X130394285Y-94164285D01*
X130222857Y-94250000D01*
X128680000Y-95278571D02*
X128851428Y-95364285D01*
X129194285Y-95364285D01*
X129365714Y-95278571D01*
X129451428Y-95107142D01*
X129451428Y-94421428D01*
X129365714Y-94250000D01*
X129194285Y-94164285D01*
X128851428Y-94164285D01*
X128680000Y-94250000D01*
X128594285Y-94421428D01*
X128594285Y-94592857D01*
X129451428Y-94764285D01*
X127822857Y-95364285D02*
X127822857Y-94164285D01*
X127822857Y-94507142D02*
X127737142Y-94335714D01*
X127651428Y-94250000D01*
X127480000Y-94164285D01*
X127308571Y-94164285D01*
X126708571Y-95364285D02*
X126708571Y-93564285D01*
X126022857Y-93564285D01*
X125851428Y-93650000D01*
X125765714Y-93735714D01*
X125680000Y-93907142D01*
X125680000Y-94164285D01*
X125765714Y-94335714D01*
X125851428Y-94421428D01*
X126022857Y-94507142D01*
X126708571Y-94507142D01*
X124137142Y-95364285D02*
X124137142Y-94421428D01*
X124222857Y-94250000D01*
X124394285Y-94164285D01*
X124737142Y-94164285D01*
X124908571Y-94250000D01*
X124137142Y-95278571D02*
X124308571Y-95364285D01*
X124737142Y-95364285D01*
X124908571Y-95278571D01*
X124994285Y-95107142D01*
X124994285Y-94935714D01*
X124908571Y-94764285D01*
X124737142Y-94678571D01*
X124308571Y-94678571D01*
X124137142Y-94592857D01*
X122508571Y-95278571D02*
X122680000Y-95364285D01*
X123022857Y-95364285D01*
X123194285Y-95278571D01*
X123280000Y-95192857D01*
X123365714Y-95021428D01*
X123365714Y-94507142D01*
X123280000Y-94335714D01*
X123194285Y-94250000D01*
X123022857Y-94164285D01*
X122680000Y-94164285D01*
X122508571Y-94250000D01*
X121737142Y-95364285D02*
X121737142Y-93564285D01*
X121565714Y-94678571D02*
X121051428Y-95364285D01*
X121051428Y-94164285D02*
X121737142Y-94850000D01*
D13*
X84875000Y-102500000D02*
X84875000Y-98500000D01*
X98875000Y-102500000D02*
X84875000Y-102500000D01*
X98875000Y-101500000D02*
X98875000Y-102500000D01*
X99875000Y-101500000D02*
X98875000Y-101500000D01*
X99875000Y-99600000D02*
X99875000Y-101500000D01*
X98875000Y-99600000D02*
X99875000Y-99600000D01*
X98875000Y-98500000D02*
X98875000Y-99600000D01*
X84875000Y-98500000D02*
X98875000Y-98500000D01*
D12*
X98119047Y-102100000D02*
X98150000Y-102071428D01*
X98211904Y-101985714D01*
X98242857Y-101928571D01*
X98273809Y-101842857D01*
X98304761Y-101700000D01*
X98304761Y-101585714D01*
X98273809Y-101442857D01*
X98242857Y-101357142D01*
X98211904Y-101300000D01*
X98150000Y-101214285D01*
X98119047Y-101185714D01*
X97500000Y-101814285D02*
X97530952Y-101842857D01*
X97623809Y-101871428D01*
X97685714Y-101871428D01*
X97778571Y-101842857D01*
X97840476Y-101785714D01*
X97871428Y-101728571D01*
X97902380Y-101614285D01*
X97902380Y-101528571D01*
X97871428Y-101414285D01*
X97840476Y-101357142D01*
X97778571Y-101300000D01*
X97685714Y-101271428D01*
X97623809Y-101271428D01*
X97530952Y-101300000D01*
X97500000Y-101328571D01*
X96973809Y-101842857D02*
X97035714Y-101871428D01*
X97159523Y-101871428D01*
X97221428Y-101842857D01*
X97252380Y-101785714D01*
X97252380Y-101557142D01*
X97221428Y-101500000D01*
X97159523Y-101471428D01*
X97035714Y-101471428D01*
X96973809Y-101500000D01*
X96942857Y-101557142D01*
X96942857Y-101614285D01*
X97252380Y-101671428D01*
X96571428Y-101871428D02*
X96633333Y-101842857D01*
X96664285Y-101785714D01*
X96664285Y-101271428D01*
X96230952Y-101871428D02*
X96292857Y-101842857D01*
X96323809Y-101785714D01*
X96323809Y-101271428D01*
X95488095Y-101471428D02*
X95488095Y-102071428D01*
X95488095Y-101500000D02*
X95426190Y-101471428D01*
X95302380Y-101471428D01*
X95240476Y-101500000D01*
X95209523Y-101528571D01*
X95178571Y-101585714D01*
X95178571Y-101757142D01*
X95209523Y-101814285D01*
X95240476Y-101842857D01*
X95302380Y-101871428D01*
X95426190Y-101871428D01*
X95488095Y-101842857D01*
X94900000Y-101871428D02*
X94900000Y-101471428D01*
X94900000Y-101585714D02*
X94869047Y-101528571D01*
X94838095Y-101500000D01*
X94776190Y-101471428D01*
X94714285Y-101471428D01*
X94404761Y-101871428D02*
X94466666Y-101842857D01*
X94497619Y-101814285D01*
X94528571Y-101757142D01*
X94528571Y-101585714D01*
X94497619Y-101528571D01*
X94466666Y-101500000D01*
X94404761Y-101471428D01*
X94311904Y-101471428D01*
X94250000Y-101500000D01*
X94219047Y-101528571D01*
X94188095Y-101585714D01*
X94188095Y-101757142D01*
X94219047Y-101814285D01*
X94250000Y-101842857D01*
X94311904Y-101871428D01*
X94404761Y-101871428D01*
X94002380Y-101471428D02*
X93754761Y-101471428D01*
X93909523Y-101271428D02*
X93909523Y-101785714D01*
X93878571Y-101842857D01*
X93816666Y-101871428D01*
X93754761Y-101871428D01*
X93290476Y-101842857D02*
X93352380Y-101871428D01*
X93476190Y-101871428D01*
X93538095Y-101842857D01*
X93569047Y-101785714D01*
X93569047Y-101557142D01*
X93538095Y-101500000D01*
X93476190Y-101471428D01*
X93352380Y-101471428D01*
X93290476Y-101500000D01*
X93259523Y-101557142D01*
X93259523Y-101614285D01*
X93569047Y-101671428D01*
X92702380Y-101842857D02*
X92764285Y-101871428D01*
X92888095Y-101871428D01*
X92950000Y-101842857D01*
X92980952Y-101814285D01*
X93011904Y-101757142D01*
X93011904Y-101585714D01*
X92980952Y-101528571D01*
X92950000Y-101500000D01*
X92888095Y-101471428D01*
X92764285Y-101471428D01*
X92702380Y-101500000D01*
X92516666Y-101471428D02*
X92269047Y-101471428D01*
X92423809Y-101271428D02*
X92423809Y-101785714D01*
X92392857Y-101842857D01*
X92330952Y-101871428D01*
X92269047Y-101871428D01*
X92052380Y-101871428D02*
X92052380Y-101471428D01*
X92052380Y-101271428D02*
X92083333Y-101300000D01*
X92052380Y-101328571D01*
X92021428Y-101300000D01*
X92052380Y-101271428D01*
X92052380Y-101328571D01*
X91650000Y-101871428D02*
X91711904Y-101842857D01*
X91742857Y-101814285D01*
X91773809Y-101757142D01*
X91773809Y-101585714D01*
X91742857Y-101528571D01*
X91711904Y-101500000D01*
X91650000Y-101471428D01*
X91557142Y-101471428D01*
X91495238Y-101500000D01*
X91464285Y-101528571D01*
X91433333Y-101585714D01*
X91433333Y-101757142D01*
X91464285Y-101814285D01*
X91495238Y-101842857D01*
X91557142Y-101871428D01*
X91650000Y-101871428D01*
X91154761Y-101471428D02*
X91154761Y-101871428D01*
X91154761Y-101528571D02*
X91123809Y-101500000D01*
X91061904Y-101471428D01*
X90969047Y-101471428D01*
X90907142Y-101500000D01*
X90876190Y-101557142D01*
X90876190Y-101871428D01*
X90071428Y-101871428D02*
X90071428Y-101471428D01*
X90071428Y-101585714D02*
X90040476Y-101528571D01*
X90009523Y-101500000D01*
X89947619Y-101471428D01*
X89885714Y-101471428D01*
X89421428Y-101842857D02*
X89483333Y-101871428D01*
X89607142Y-101871428D01*
X89669047Y-101842857D01*
X89700000Y-101785714D01*
X89700000Y-101557142D01*
X89669047Y-101500000D01*
X89607142Y-101471428D01*
X89483333Y-101471428D01*
X89421428Y-101500000D01*
X89390476Y-101557142D01*
X89390476Y-101614285D01*
X89700000Y-101671428D01*
X88833333Y-101471428D02*
X88833333Y-102071428D01*
X88833333Y-101842857D02*
X88895238Y-101871428D01*
X89019047Y-101871428D01*
X89080952Y-101842857D01*
X89111904Y-101814285D01*
X89142857Y-101757142D01*
X89142857Y-101585714D01*
X89111904Y-101528571D01*
X89080952Y-101500000D01*
X89019047Y-101471428D01*
X88895238Y-101471428D01*
X88833333Y-101500000D01*
X88245238Y-101471428D02*
X88245238Y-101871428D01*
X88523809Y-101471428D02*
X88523809Y-101785714D01*
X88492857Y-101842857D01*
X88430952Y-101871428D01*
X88338095Y-101871428D01*
X88276190Y-101842857D01*
X88245238Y-101814285D01*
X87935714Y-101871428D02*
X87935714Y-101471428D01*
X87935714Y-101271428D02*
X87966666Y-101300000D01*
X87935714Y-101328571D01*
X87904761Y-101300000D01*
X87935714Y-101271428D01*
X87935714Y-101328571D01*
X87626190Y-101871428D02*
X87626190Y-101471428D01*
X87626190Y-101585714D02*
X87595238Y-101528571D01*
X87564285Y-101500000D01*
X87502380Y-101471428D01*
X87440476Y-101471428D01*
X86976190Y-101842857D02*
X87038095Y-101871428D01*
X87161904Y-101871428D01*
X87223809Y-101842857D01*
X87254761Y-101785714D01*
X87254761Y-101557142D01*
X87223809Y-101500000D01*
X87161904Y-101471428D01*
X87038095Y-101471428D01*
X86976190Y-101500000D01*
X86945238Y-101557142D01*
X86945238Y-101614285D01*
X87254761Y-101671428D01*
X86388095Y-101871428D02*
X86388095Y-101271428D01*
X86388095Y-101842857D02*
X86450000Y-101871428D01*
X86573809Y-101871428D01*
X86635714Y-101842857D01*
X86666666Y-101814285D01*
X86697619Y-101757142D01*
X86697619Y-101585714D01*
X86666666Y-101528571D01*
X86635714Y-101500000D01*
X86573809Y-101471428D01*
X86450000Y-101471428D01*
X86388095Y-101500000D01*
X86078571Y-101814285D02*
X86047619Y-101842857D01*
X86078571Y-101871428D01*
X86109523Y-101842857D01*
X86078571Y-101814285D01*
X86078571Y-101871428D01*
X86078571Y-101642857D02*
X86109523Y-101300000D01*
X86078571Y-101271428D01*
X86047619Y-101300000D01*
X86078571Y-101642857D01*
X86078571Y-101271428D01*
X85830952Y-102100000D02*
X85800000Y-102071428D01*
X85738095Y-101985714D01*
X85707142Y-101928571D01*
X85676190Y-101842857D01*
X85645238Y-101700000D01*
X85645238Y-101585714D01*
X85676190Y-101442857D01*
X85707142Y-101357142D01*
X85738095Y-101300000D01*
X85800000Y-101214285D01*
X85830952Y-101185714D01*
D11*
X93469047Y-100552380D02*
X94040476Y-100552380D01*
X93754761Y-100552380D02*
X93754761Y-99552380D01*
X93850000Y-99695238D01*
X93945238Y-99790476D01*
X94040476Y-99838095D01*
X92611904Y-99885714D02*
X92611904Y-100552380D01*
X92850000Y-99504761D02*
X93088095Y-100219047D01*
X92469047Y-100219047D01*
X91611904Y-99552380D02*
X92088095Y-99552380D01*
X92135714Y-100028571D01*
X92088095Y-99980952D01*
X91992857Y-99933333D01*
X91754761Y-99933333D01*
X91659523Y-99980952D01*
X91611904Y-100028571D01*
X91564285Y-100123809D01*
X91564285Y-100361904D01*
X91611904Y-100457142D01*
X91659523Y-100504761D01*
X91754761Y-100552380D01*
X91992857Y-100552380D01*
X92088095Y-100504761D01*
X92135714Y-100457142D01*
X90945238Y-99552380D02*
X90850000Y-99552380D01*
X90754761Y-99600000D01*
X90707142Y-99647619D01*
X90659523Y-99742857D01*
X90611904Y-99933333D01*
X90611904Y-100171428D01*
X90659523Y-100361904D01*
X90707142Y-100457142D01*
X90754761Y-100504761D01*
X90850000Y-100552380D01*
X90945238Y-100552380D01*
X91040476Y-100504761D01*
X91088095Y-100457142D01*
X91135714Y-100361904D01*
X91183333Y-100171428D01*
X91183333Y-99933333D01*
X91135714Y-99742857D01*
X91088095Y-99647619D01*
X91040476Y-99600000D01*
X90945238Y-99552380D01*
X89992857Y-99552380D02*
X89897619Y-99552380D01*
X89802380Y-99600000D01*
X89754761Y-99647619D01*
X89707142Y-99742857D01*
X89659523Y-99933333D01*
X89659523Y-100171428D01*
X89707142Y-100361904D01*
X89754761Y-100457142D01*
X89802380Y-100504761D01*
X89897619Y-100552380D01*
X89992857Y-100552380D01*
X90088095Y-100504761D01*
X90135714Y-100457142D01*
X90183333Y-100361904D01*
X90230952Y-100171428D01*
X90230952Y-99933333D01*
X90183333Y-99742857D01*
X90135714Y-99647619D01*
X90088095Y-99600000D01*
X89992857Y-99552380D01*
%LPC*%
D15*
X99900000Y-106345000D03*
D16*
X102440000Y-106345000D03*
X104980000Y-106345000D03*
X107520000Y-106345000D03*
D15*
X104970000Y-93645000D03*
D16*
X102430000Y-93645000D03*
X99890000Y-93645000D03*
X97350000Y-93645000D03*
X94810000Y-93645000D03*
X94820000Y-106345000D03*
X92280000Y-106345000D03*
X89740000Y-106345000D03*
X87200000Y-106345000D03*
X84660000Y-106345000D03*
X82120000Y-106345000D03*
X79580000Y-106345000D03*
D15*
X77040000Y-106345000D03*
X87200000Y-93625000D03*
D16*
X84660000Y-93625000D03*
X82120000Y-93625000D03*
X79580000Y-93625000D03*
X77040000Y-93625000D03*
D17*
X73595000Y-100500000D03*
X65975000Y-100500000D03*
X117775000Y-100500000D03*
X110155000Y-100500000D03*
D18*
X59885000Y-102705000D03*
X59885000Y-97245000D03*
D19*
X62885000Y-102395000D03*
X62885000Y-97555000D03*
D20*
X121530000Y-102675000D03*
X121530000Y-97375000D03*
M02*
