G04 #@! TF.GenerationSoftware,KiCad,Pcbnew,(5.1.5-0-10_14)*
G04 #@! TF.CreationDate,2020-01-18T15:41:33-08:00*
G04 #@! TF.ProjectId,14500,31343530-302e-46b6-9963-61645f706362,rev?*
G04 #@! TF.SameCoordinates,Original*
G04 #@! TF.FileFunction,Soldermask,Bot*
G04 #@! TF.FilePolarity,Negative*
%FSLAX46Y46*%
G04 Gerber Fmt 4.6, Leading zero omitted, Abs format (unit mm)*
G04 Created by KiCad (PCBNEW (5.1.5-0-10_14)) date 2020-01-18 15:41:33*
%MOMM*%
%LPD*%
G04 APERTURE LIST*
%ADD10C,0.010000*%
%ADD11C,2.901600*%
%ADD12O,1.801600X1.801600*%
%ADD13R,1.801600X1.801600*%
%ADD14O,1.801600X1.451600*%
%ADD15O,1.601600X1.201600*%
%ADD16C,2.501600*%
G04 APERTURE END LIST*
D10*
G36*
X127244186Y-97193931D02*
G01*
X127160365Y-97638555D01*
X126851080Y-97766053D01*
X126541794Y-97893551D01*
X126170754Y-97641246D01*
X126066843Y-97570996D01*
X125972913Y-97508272D01*
X125893348Y-97455938D01*
X125832530Y-97416857D01*
X125794843Y-97393893D01*
X125784579Y-97388942D01*
X125766090Y-97401676D01*
X125726580Y-97436882D01*
X125670478Y-97490062D01*
X125602213Y-97556718D01*
X125526214Y-97632354D01*
X125446908Y-97712472D01*
X125368725Y-97792574D01*
X125296093Y-97868164D01*
X125233441Y-97934745D01*
X125185197Y-97987818D01*
X125155790Y-98022887D01*
X125148759Y-98034623D01*
X125158877Y-98056260D01*
X125187241Y-98103662D01*
X125230871Y-98172193D01*
X125286782Y-98257215D01*
X125351994Y-98354093D01*
X125389781Y-98409350D01*
X125458657Y-98510248D01*
X125519860Y-98601299D01*
X125570422Y-98677970D01*
X125607372Y-98735728D01*
X125627742Y-98770043D01*
X125630803Y-98777254D01*
X125623864Y-98797748D01*
X125604949Y-98845513D01*
X125576913Y-98913832D01*
X125542609Y-98995989D01*
X125504891Y-99085270D01*
X125466613Y-99174958D01*
X125430630Y-99258338D01*
X125399794Y-99328694D01*
X125376961Y-99379310D01*
X125364983Y-99403471D01*
X125364276Y-99404422D01*
X125345469Y-99409036D01*
X125295382Y-99419328D01*
X125219207Y-99434287D01*
X125122135Y-99452901D01*
X125009357Y-99474159D01*
X124943558Y-99486418D01*
X124823050Y-99509362D01*
X124714203Y-99531195D01*
X124622524Y-99550722D01*
X124553519Y-99566748D01*
X124512696Y-99578079D01*
X124504489Y-99581674D01*
X124496452Y-99606006D01*
X124489967Y-99660959D01*
X124485030Y-99740108D01*
X124481636Y-99837026D01*
X124479782Y-99945287D01*
X124479462Y-100058465D01*
X124480673Y-100170135D01*
X124483410Y-100273868D01*
X124487669Y-100363241D01*
X124493445Y-100431826D01*
X124500733Y-100473197D01*
X124505105Y-100481810D01*
X124531236Y-100492133D01*
X124586607Y-100506892D01*
X124663893Y-100524352D01*
X124755770Y-100542780D01*
X124787842Y-100548741D01*
X124942476Y-100577066D01*
X125064625Y-100599876D01*
X125158327Y-100618080D01*
X125227616Y-100632583D01*
X125276529Y-100644292D01*
X125309103Y-100654115D01*
X125329372Y-100662956D01*
X125341374Y-100671724D01*
X125343053Y-100673457D01*
X125359816Y-100701371D01*
X125385386Y-100755695D01*
X125417212Y-100829777D01*
X125452740Y-100916965D01*
X125489417Y-101010608D01*
X125524689Y-101104052D01*
X125556004Y-101190647D01*
X125580807Y-101263740D01*
X125596546Y-101316678D01*
X125600668Y-101342811D01*
X125600324Y-101343726D01*
X125586359Y-101365086D01*
X125554678Y-101412084D01*
X125508609Y-101479827D01*
X125451482Y-101563423D01*
X125386627Y-101657982D01*
X125368157Y-101684854D01*
X125302301Y-101782275D01*
X125244350Y-101871163D01*
X125197462Y-101946412D01*
X125164793Y-102002920D01*
X125149500Y-102035581D01*
X125148759Y-102039593D01*
X125161608Y-102060684D01*
X125197112Y-102102464D01*
X125250707Y-102160445D01*
X125317829Y-102230135D01*
X125393913Y-102307045D01*
X125474396Y-102386683D01*
X125554713Y-102464561D01*
X125630301Y-102536186D01*
X125696595Y-102597070D01*
X125749031Y-102642721D01*
X125783045Y-102668650D01*
X125792455Y-102672883D01*
X125814357Y-102662912D01*
X125859200Y-102636020D01*
X125919679Y-102596736D01*
X125966211Y-102565117D01*
X126050525Y-102507098D01*
X126150374Y-102438784D01*
X126250527Y-102370579D01*
X126304373Y-102334075D01*
X126486629Y-102210800D01*
X126639619Y-102293520D01*
X126709318Y-102329759D01*
X126768586Y-102357926D01*
X126808689Y-102373991D01*
X126818897Y-102376226D01*
X126831171Y-102359722D01*
X126855387Y-102313082D01*
X126889737Y-102240609D01*
X126932412Y-102146606D01*
X126981606Y-102035374D01*
X127035510Y-101911215D01*
X127092316Y-101778432D01*
X127150218Y-101641327D01*
X127207407Y-101504202D01*
X127262076Y-101371358D01*
X127312416Y-101247098D01*
X127356620Y-101135725D01*
X127392881Y-101041539D01*
X127419391Y-100968844D01*
X127434342Y-100921941D01*
X127436746Y-100905833D01*
X127417689Y-100885286D01*
X127375964Y-100851933D01*
X127320294Y-100812702D01*
X127315622Y-100809599D01*
X127171736Y-100694423D01*
X127055717Y-100560053D01*
X126968570Y-100410784D01*
X126911301Y-100250913D01*
X126884914Y-100084737D01*
X126890415Y-99916552D01*
X126928810Y-99750655D01*
X127001105Y-99591342D01*
X127022374Y-99556487D01*
X127133004Y-99415737D01*
X127263698Y-99302714D01*
X127409936Y-99218003D01*
X127567192Y-99162194D01*
X127730943Y-99135874D01*
X127896667Y-99139630D01*
X128059838Y-99174050D01*
X128215935Y-99239723D01*
X128360433Y-99337235D01*
X128405131Y-99376813D01*
X128518888Y-99500703D01*
X128601782Y-99631124D01*
X128658644Y-99777315D01*
X128690313Y-99922088D01*
X128698131Y-100084860D01*
X128672062Y-100248440D01*
X128614755Y-100407298D01*
X128528856Y-100555906D01*
X128417014Y-100688735D01*
X128281877Y-100800256D01*
X128264117Y-100812011D01*
X128207850Y-100850508D01*
X128165077Y-100883863D01*
X128144628Y-100905160D01*
X128144331Y-100905833D01*
X128148721Y-100928871D01*
X128166124Y-100981157D01*
X128194732Y-101058390D01*
X128232735Y-101156268D01*
X128278326Y-101270491D01*
X128329697Y-101396758D01*
X128385038Y-101530767D01*
X128442542Y-101668218D01*
X128500399Y-101804808D01*
X128556802Y-101936237D01*
X128609942Y-102058205D01*
X128658010Y-102166409D01*
X128699199Y-102256549D01*
X128731699Y-102324323D01*
X128753703Y-102365430D01*
X128762564Y-102376226D01*
X128789640Y-102367819D01*
X128840303Y-102345272D01*
X128905817Y-102312613D01*
X128941841Y-102293520D01*
X129094832Y-102210800D01*
X129277088Y-102334075D01*
X129370125Y-102397228D01*
X129471985Y-102466727D01*
X129567438Y-102532165D01*
X129615250Y-102565117D01*
X129682495Y-102610273D01*
X129739436Y-102646057D01*
X129778646Y-102667938D01*
X129791381Y-102672563D01*
X129809917Y-102660085D01*
X129850941Y-102625252D01*
X129910475Y-102571678D01*
X129984542Y-102502983D01*
X130069165Y-102422781D01*
X130122685Y-102371286D01*
X130216319Y-102279286D01*
X130297241Y-102196999D01*
X130362177Y-102127945D01*
X130407858Y-102075644D01*
X130431011Y-102043616D01*
X130433232Y-102037116D01*
X130422924Y-102012394D01*
X130394439Y-101962405D01*
X130350937Y-101892212D01*
X130295577Y-101806875D01*
X130231520Y-101711456D01*
X130213303Y-101684854D01*
X130146927Y-101588167D01*
X130087378Y-101501117D01*
X130037984Y-101428595D01*
X130002075Y-101375493D01*
X129982981Y-101346703D01*
X129981136Y-101343726D01*
X129983895Y-101320782D01*
X129998538Y-101270336D01*
X130022513Y-101199041D01*
X130053266Y-101113547D01*
X130088244Y-101020507D01*
X130124893Y-100926574D01*
X130160661Y-100838399D01*
X130192994Y-100762634D01*
X130219338Y-100705931D01*
X130237142Y-100674943D01*
X130238407Y-100673457D01*
X130249294Y-100664601D01*
X130267682Y-100655843D01*
X130297606Y-100646277D01*
X130343103Y-100634996D01*
X130408209Y-100621093D01*
X130496961Y-100603663D01*
X130613393Y-100581798D01*
X130761542Y-100554591D01*
X130793618Y-100548741D01*
X130888686Y-100530374D01*
X130971565Y-100512405D01*
X131034930Y-100496569D01*
X131071458Y-100484600D01*
X131076356Y-100481810D01*
X131084427Y-100457072D01*
X131090987Y-100401790D01*
X131096033Y-100322389D01*
X131099559Y-100225296D01*
X131101561Y-100116938D01*
X131102036Y-100003740D01*
X131100977Y-99892128D01*
X131098382Y-99788529D01*
X131094246Y-99699368D01*
X131088563Y-99631072D01*
X131081331Y-99590066D01*
X131076971Y-99581674D01*
X131052698Y-99573208D01*
X130997426Y-99559435D01*
X130916662Y-99541550D01*
X130815912Y-99520748D01*
X130700683Y-99498223D01*
X130637902Y-99486418D01*
X130518787Y-99464151D01*
X130412565Y-99443979D01*
X130324427Y-99426915D01*
X130259566Y-99413969D01*
X130223174Y-99406155D01*
X130217184Y-99404422D01*
X130207061Y-99384890D01*
X130185662Y-99337843D01*
X130155839Y-99270003D01*
X130120445Y-99188091D01*
X130082332Y-99098828D01*
X130044353Y-99008935D01*
X130009360Y-98925135D01*
X129980206Y-98854147D01*
X129959743Y-98802694D01*
X129950823Y-98777497D01*
X129950657Y-98776396D01*
X129960769Y-98756519D01*
X129989117Y-98710777D01*
X130032723Y-98643717D01*
X130088606Y-98559884D01*
X130153787Y-98463826D01*
X130191679Y-98408650D01*
X130260725Y-98307481D01*
X130322050Y-98215630D01*
X130372663Y-98137744D01*
X130409571Y-98078469D01*
X130429782Y-98042451D01*
X130432701Y-98034377D01*
X130420153Y-98015584D01*
X130385463Y-97975457D01*
X130333063Y-97918493D01*
X130267384Y-97849185D01*
X130192856Y-97772031D01*
X130113913Y-97691525D01*
X130034983Y-97612163D01*
X129960500Y-97538440D01*
X129894894Y-97474852D01*
X129842596Y-97425894D01*
X129808039Y-97396061D01*
X129796478Y-97388942D01*
X129777654Y-97398953D01*
X129732631Y-97427078D01*
X129665787Y-97470454D01*
X129581499Y-97526218D01*
X129484144Y-97591506D01*
X129410707Y-97641246D01*
X129039667Y-97893551D01*
X128421095Y-97638555D01*
X128337275Y-97193931D01*
X128253454Y-96749307D01*
X127328006Y-96749307D01*
X127244186Y-97193931D01*
G37*
X127244186Y-97193931D02*
X127160365Y-97638555D01*
X126851080Y-97766053D01*
X126541794Y-97893551D01*
X126170754Y-97641246D01*
X126066843Y-97570996D01*
X125972913Y-97508272D01*
X125893348Y-97455938D01*
X125832530Y-97416857D01*
X125794843Y-97393893D01*
X125784579Y-97388942D01*
X125766090Y-97401676D01*
X125726580Y-97436882D01*
X125670478Y-97490062D01*
X125602213Y-97556718D01*
X125526214Y-97632354D01*
X125446908Y-97712472D01*
X125368725Y-97792574D01*
X125296093Y-97868164D01*
X125233441Y-97934745D01*
X125185197Y-97987818D01*
X125155790Y-98022887D01*
X125148759Y-98034623D01*
X125158877Y-98056260D01*
X125187241Y-98103662D01*
X125230871Y-98172193D01*
X125286782Y-98257215D01*
X125351994Y-98354093D01*
X125389781Y-98409350D01*
X125458657Y-98510248D01*
X125519860Y-98601299D01*
X125570422Y-98677970D01*
X125607372Y-98735728D01*
X125627742Y-98770043D01*
X125630803Y-98777254D01*
X125623864Y-98797748D01*
X125604949Y-98845513D01*
X125576913Y-98913832D01*
X125542609Y-98995989D01*
X125504891Y-99085270D01*
X125466613Y-99174958D01*
X125430630Y-99258338D01*
X125399794Y-99328694D01*
X125376961Y-99379310D01*
X125364983Y-99403471D01*
X125364276Y-99404422D01*
X125345469Y-99409036D01*
X125295382Y-99419328D01*
X125219207Y-99434287D01*
X125122135Y-99452901D01*
X125009357Y-99474159D01*
X124943558Y-99486418D01*
X124823050Y-99509362D01*
X124714203Y-99531195D01*
X124622524Y-99550722D01*
X124553519Y-99566748D01*
X124512696Y-99578079D01*
X124504489Y-99581674D01*
X124496452Y-99606006D01*
X124489967Y-99660959D01*
X124485030Y-99740108D01*
X124481636Y-99837026D01*
X124479782Y-99945287D01*
X124479462Y-100058465D01*
X124480673Y-100170135D01*
X124483410Y-100273868D01*
X124487669Y-100363241D01*
X124493445Y-100431826D01*
X124500733Y-100473197D01*
X124505105Y-100481810D01*
X124531236Y-100492133D01*
X124586607Y-100506892D01*
X124663893Y-100524352D01*
X124755770Y-100542780D01*
X124787842Y-100548741D01*
X124942476Y-100577066D01*
X125064625Y-100599876D01*
X125158327Y-100618080D01*
X125227616Y-100632583D01*
X125276529Y-100644292D01*
X125309103Y-100654115D01*
X125329372Y-100662956D01*
X125341374Y-100671724D01*
X125343053Y-100673457D01*
X125359816Y-100701371D01*
X125385386Y-100755695D01*
X125417212Y-100829777D01*
X125452740Y-100916965D01*
X125489417Y-101010608D01*
X125524689Y-101104052D01*
X125556004Y-101190647D01*
X125580807Y-101263740D01*
X125596546Y-101316678D01*
X125600668Y-101342811D01*
X125600324Y-101343726D01*
X125586359Y-101365086D01*
X125554678Y-101412084D01*
X125508609Y-101479827D01*
X125451482Y-101563423D01*
X125386627Y-101657982D01*
X125368157Y-101684854D01*
X125302301Y-101782275D01*
X125244350Y-101871163D01*
X125197462Y-101946412D01*
X125164793Y-102002920D01*
X125149500Y-102035581D01*
X125148759Y-102039593D01*
X125161608Y-102060684D01*
X125197112Y-102102464D01*
X125250707Y-102160445D01*
X125317829Y-102230135D01*
X125393913Y-102307045D01*
X125474396Y-102386683D01*
X125554713Y-102464561D01*
X125630301Y-102536186D01*
X125696595Y-102597070D01*
X125749031Y-102642721D01*
X125783045Y-102668650D01*
X125792455Y-102672883D01*
X125814357Y-102662912D01*
X125859200Y-102636020D01*
X125919679Y-102596736D01*
X125966211Y-102565117D01*
X126050525Y-102507098D01*
X126150374Y-102438784D01*
X126250527Y-102370579D01*
X126304373Y-102334075D01*
X126486629Y-102210800D01*
X126639619Y-102293520D01*
X126709318Y-102329759D01*
X126768586Y-102357926D01*
X126808689Y-102373991D01*
X126818897Y-102376226D01*
X126831171Y-102359722D01*
X126855387Y-102313082D01*
X126889737Y-102240609D01*
X126932412Y-102146606D01*
X126981606Y-102035374D01*
X127035510Y-101911215D01*
X127092316Y-101778432D01*
X127150218Y-101641327D01*
X127207407Y-101504202D01*
X127262076Y-101371358D01*
X127312416Y-101247098D01*
X127356620Y-101135725D01*
X127392881Y-101041539D01*
X127419391Y-100968844D01*
X127434342Y-100921941D01*
X127436746Y-100905833D01*
X127417689Y-100885286D01*
X127375964Y-100851933D01*
X127320294Y-100812702D01*
X127315622Y-100809599D01*
X127171736Y-100694423D01*
X127055717Y-100560053D01*
X126968570Y-100410784D01*
X126911301Y-100250913D01*
X126884914Y-100084737D01*
X126890415Y-99916552D01*
X126928810Y-99750655D01*
X127001105Y-99591342D01*
X127022374Y-99556487D01*
X127133004Y-99415737D01*
X127263698Y-99302714D01*
X127409936Y-99218003D01*
X127567192Y-99162194D01*
X127730943Y-99135874D01*
X127896667Y-99139630D01*
X128059838Y-99174050D01*
X128215935Y-99239723D01*
X128360433Y-99337235D01*
X128405131Y-99376813D01*
X128518888Y-99500703D01*
X128601782Y-99631124D01*
X128658644Y-99777315D01*
X128690313Y-99922088D01*
X128698131Y-100084860D01*
X128672062Y-100248440D01*
X128614755Y-100407298D01*
X128528856Y-100555906D01*
X128417014Y-100688735D01*
X128281877Y-100800256D01*
X128264117Y-100812011D01*
X128207850Y-100850508D01*
X128165077Y-100883863D01*
X128144628Y-100905160D01*
X128144331Y-100905833D01*
X128148721Y-100928871D01*
X128166124Y-100981157D01*
X128194732Y-101058390D01*
X128232735Y-101156268D01*
X128278326Y-101270491D01*
X128329697Y-101396758D01*
X128385038Y-101530767D01*
X128442542Y-101668218D01*
X128500399Y-101804808D01*
X128556802Y-101936237D01*
X128609942Y-102058205D01*
X128658010Y-102166409D01*
X128699199Y-102256549D01*
X128731699Y-102324323D01*
X128753703Y-102365430D01*
X128762564Y-102376226D01*
X128789640Y-102367819D01*
X128840303Y-102345272D01*
X128905817Y-102312613D01*
X128941841Y-102293520D01*
X129094832Y-102210800D01*
X129277088Y-102334075D01*
X129370125Y-102397228D01*
X129471985Y-102466727D01*
X129567438Y-102532165D01*
X129615250Y-102565117D01*
X129682495Y-102610273D01*
X129739436Y-102646057D01*
X129778646Y-102667938D01*
X129791381Y-102672563D01*
X129809917Y-102660085D01*
X129850941Y-102625252D01*
X129910475Y-102571678D01*
X129984542Y-102502983D01*
X130069165Y-102422781D01*
X130122685Y-102371286D01*
X130216319Y-102279286D01*
X130297241Y-102196999D01*
X130362177Y-102127945D01*
X130407858Y-102075644D01*
X130431011Y-102043616D01*
X130433232Y-102037116D01*
X130422924Y-102012394D01*
X130394439Y-101962405D01*
X130350937Y-101892212D01*
X130295577Y-101806875D01*
X130231520Y-101711456D01*
X130213303Y-101684854D01*
X130146927Y-101588167D01*
X130087378Y-101501117D01*
X130037984Y-101428595D01*
X130002075Y-101375493D01*
X129982981Y-101346703D01*
X129981136Y-101343726D01*
X129983895Y-101320782D01*
X129998538Y-101270336D01*
X130022513Y-101199041D01*
X130053266Y-101113547D01*
X130088244Y-101020507D01*
X130124893Y-100926574D01*
X130160661Y-100838399D01*
X130192994Y-100762634D01*
X130219338Y-100705931D01*
X130237142Y-100674943D01*
X130238407Y-100673457D01*
X130249294Y-100664601D01*
X130267682Y-100655843D01*
X130297606Y-100646277D01*
X130343103Y-100634996D01*
X130408209Y-100621093D01*
X130496961Y-100603663D01*
X130613393Y-100581798D01*
X130761542Y-100554591D01*
X130793618Y-100548741D01*
X130888686Y-100530374D01*
X130971565Y-100512405D01*
X131034930Y-100496569D01*
X131071458Y-100484600D01*
X131076356Y-100481810D01*
X131084427Y-100457072D01*
X131090987Y-100401790D01*
X131096033Y-100322389D01*
X131099559Y-100225296D01*
X131101561Y-100116938D01*
X131102036Y-100003740D01*
X131100977Y-99892128D01*
X131098382Y-99788529D01*
X131094246Y-99699368D01*
X131088563Y-99631072D01*
X131081331Y-99590066D01*
X131076971Y-99581674D01*
X131052698Y-99573208D01*
X130997426Y-99559435D01*
X130916662Y-99541550D01*
X130815912Y-99520748D01*
X130700683Y-99498223D01*
X130637902Y-99486418D01*
X130518787Y-99464151D01*
X130412565Y-99443979D01*
X130324427Y-99426915D01*
X130259566Y-99413969D01*
X130223174Y-99406155D01*
X130217184Y-99404422D01*
X130207061Y-99384890D01*
X130185662Y-99337843D01*
X130155839Y-99270003D01*
X130120445Y-99188091D01*
X130082332Y-99098828D01*
X130044353Y-99008935D01*
X130009360Y-98925135D01*
X129980206Y-98854147D01*
X129959743Y-98802694D01*
X129950823Y-98777497D01*
X129950657Y-98776396D01*
X129960769Y-98756519D01*
X129989117Y-98710777D01*
X130032723Y-98643717D01*
X130088606Y-98559884D01*
X130153787Y-98463826D01*
X130191679Y-98408650D01*
X130260725Y-98307481D01*
X130322050Y-98215630D01*
X130372663Y-98137744D01*
X130409571Y-98078469D01*
X130429782Y-98042451D01*
X130432701Y-98034377D01*
X130420153Y-98015584D01*
X130385463Y-97975457D01*
X130333063Y-97918493D01*
X130267384Y-97849185D01*
X130192856Y-97772031D01*
X130113913Y-97691525D01*
X130034983Y-97612163D01*
X129960500Y-97538440D01*
X129894894Y-97474852D01*
X129842596Y-97425894D01*
X129808039Y-97396061D01*
X129796478Y-97388942D01*
X129777654Y-97398953D01*
X129732631Y-97427078D01*
X129665787Y-97470454D01*
X129581499Y-97526218D01*
X129484144Y-97591506D01*
X129410707Y-97641246D01*
X129039667Y-97893551D01*
X128421095Y-97638555D01*
X128337275Y-97193931D01*
X128253454Y-96749307D01*
X127328006Y-96749307D01*
X127244186Y-97193931D01*
D11*
X73595000Y-100500000D03*
X65975000Y-100500000D03*
X117775000Y-100500000D03*
X110155000Y-100500000D03*
D12*
X94830000Y-105610000D03*
X92290000Y-105610000D03*
X89750000Y-105610000D03*
X87210000Y-105610000D03*
X84670000Y-105610000D03*
X82130000Y-105610000D03*
X79590000Y-105610000D03*
D13*
X77050000Y-105610000D03*
X99900000Y-105610000D03*
D12*
X102440000Y-105610000D03*
X104980000Y-105610000D03*
X107520000Y-105610000D03*
D14*
X59885000Y-102705000D03*
X59885000Y-97245000D03*
D15*
X62885000Y-102395000D03*
X62885000Y-97555000D03*
D16*
X121530000Y-102675000D03*
X121530000Y-97375000D03*
D13*
X104970000Y-95450000D03*
D12*
X102430000Y-95450000D03*
X99890000Y-95450000D03*
X97350000Y-95450000D03*
X94810000Y-95450000D03*
D13*
X77030000Y-95450000D03*
D12*
X79570000Y-95450000D03*
X82110000Y-95450000D03*
X84650000Y-95450000D03*
X87190000Y-95450000D03*
M02*
