M48
METRIC,TZ
T1C0.254
T2C0.650
T3C0.700
T4C1.000
T5C1.200
T6C1.780
%
G90
G05
T1
X70450Y-92900
X73550Y-93750
X76175Y-96925
X77530Y-104205
X80000Y-100045
X80670Y-100095
X80830Y-98575
X80900Y-101805
X83991Y-104214
X85940Y-104065
X89100Y-96650
X89443Y-98412
X89475Y-97250
X89796Y-97854
X89799Y-99908
X93150Y-95325
X93190Y-104185
X95910Y-94625
X96025Y-101825
X99660Y-102425
X100480Y-94665
X101600Y-102925
X103430Y-94685
X105125Y-103425
X111625Y-106800
X112580Y-93615
X117650Y-106950
X119100Y-103750
X120150Y-104850
X123575Y-94200
X124200Y-100025
X136525Y-97175
X136550Y-103050
T4
X79220Y-106265
X81760Y-106265
X84300Y-106265
X86840Y-106265
X89380Y-106265
X91920Y-106265
X94460Y-106265
X97000Y-106265
X99540Y-106265
X102080Y-106265
X104620Y-106265
X107160Y-106265
X79210Y-93565
X81750Y-93565
X84290Y-93565
X86830Y-93565
X89370Y-93565
X96590Y-96125
X99130Y-96125
X101670Y-96125
X104210Y-96125
X106750Y-96125
T5
X121530Y-97375
X121530Y-102675
T6
X65975Y-100500
X73595Y-100500
X110155Y-100500
X117775Y-100500
T2
G00X62685Y-97555
M15
G01X63085Y-97555
M16
G05
G00X62685Y-102395
M15
G01X63085Y-102395
M16
G05
T3
G00X59635Y-97245
M15
G01X60135Y-97245
M16
G05
G00X59635Y-102705
M15
G01X60135Y-102705
M16
G05
T0
M30
