M48
; DRILL file {KiCad (5.1.5-0-10_14)} date Saturday, February 01, 2020 at 03:48:53 PM
; FORMAT={-:-/ absolute / metric / decimal}
; #@! TF.CreationDate,2020-02-01T15:48:53-08:00
; #@! TF.GenerationSoftware,Kicad,Pcbnew,(5.1.5-0-10_14)
FMAT,2
METRIC
T1C0.254
T2C0.650
T3C0.700
T4C1.000
T5C1.200
T6C1.830
%
G90
G05
T1
X64.0Y-106.075
X64.275Y-94.25
X64.617Y-99.342
X65.083Y-99.808
X77.86Y-103.335
X82.75Y-97.675
X89.13Y-99.585
X89.15Y-100.265
X90.82Y-102.125
X91.003Y-98.61
X91.19Y-100.735
X91.42Y-94.105
X91.5Y-99.045
X93.72Y-103.305
X96.303Y-94.688
X96.36Y-103.215
X96.96Y-94.627
X97.639Y-94.644
X98.36Y-94.605
X99.16Y-102.385
X100.0Y-95.425
X100.005Y-96.096
X100.108Y-96.882
X100.19Y-94.605
X100.22Y-99.455
X100.23Y-106.695
X100.377Y-97.575
X100.85Y-99.035
X101.18Y-104.245
X102.65Y-94.365
X107.81Y-96.215
X108.01Y-103.015
X109.8Y-93.825
X111.55Y-103.235
X113.85Y-93.85
X115.35Y-103.235
X117.425Y-93.875
X119.2Y-103.855
X134.35Y-97.125
X136.3Y-106.0
X153.5Y-102.65
T4
X112.69Y-105.61
X115.23Y-105.61
X117.77Y-105.61
X120.31Y-105.61
X79.68Y-105.61
X82.22Y-105.61
X84.76Y-105.61
X87.3Y-105.61
X89.84Y-105.61
X92.38Y-105.61
X94.92Y-105.61
X97.46Y-105.61
X110.14Y-95.45
X112.68Y-95.45
X115.22Y-95.45
X117.76Y-95.45
X120.3Y-95.45
X79.66Y-95.44
X82.2Y-95.44
X84.74Y-95.44
X87.28Y-95.44
X89.82Y-95.44
T5
X139.15Y-97.375
X139.15Y-102.675
T6
X67.58Y-100.0
X75.2Y-97.46
X75.2Y-102.54
X126.4Y-97.46
X126.4Y-102.54
X134.02Y-100.0
T2
G00X62.685Y-97.555
M15
G01X63.085Y-97.555
M16
G05
G00X62.685Y-102.395
M15
G01X63.085Y-102.395
M16
G05
T3
G00X59.635Y-97.245
M15
G01X60.135Y-97.245
M16
G05
G00X59.635Y-102.705
M15
G01X60.135Y-102.705
M16
G05
T0
M30
