G04 #@! TF.GenerationSoftware,KiCad,Pcbnew,(5.1.5-0-10_14)*
G04 #@! TF.CreationDate,2020-04-11T10:48:02-07:00*
G04 #@! TF.ProjectId,18650,31383635-302e-46b6-9963-61645f706362,rev?*
G04 #@! TF.SameCoordinates,Original*
G04 #@! TF.FileFunction,Copper,L2,Bot*
G04 #@! TF.FilePolarity,Positive*
%FSLAX46Y46*%
G04 Gerber Fmt 4.6, Leading zero omitted, Abs format (unit mm)*
G04 Created by KiCad (PCBNEW (5.1.5-0-10_14)) date 2020-04-11 10:48:02*
%MOMM*%
%LPD*%
G04 APERTURE LIST*
%ADD10C,0.010000*%
%ADD11O,1.700000X1.700000*%
%ADD12R,1.700000X1.700000*%
%ADD13C,2.800000*%
%ADD14O,1.700000X1.350000*%
%ADD15O,1.500000X1.100000*%
%ADD16C,2.400000*%
%ADD17C,0.508000*%
%ADD18C,0.152400*%
%ADD19C,0.310000*%
%ADD20C,0.254000*%
%ADD21C,0.762000*%
%ADD22C,0.309880*%
G04 APERTURE END LIST*
D10*
G36*
X145994186Y-97443931D02*
G01*
X145910365Y-97888555D01*
X145601080Y-98016053D01*
X145291794Y-98143551D01*
X144920754Y-97891246D01*
X144816843Y-97820996D01*
X144722913Y-97758272D01*
X144643348Y-97705938D01*
X144582530Y-97666857D01*
X144544843Y-97643893D01*
X144534579Y-97638942D01*
X144516090Y-97651676D01*
X144476580Y-97686882D01*
X144420478Y-97740062D01*
X144352213Y-97806718D01*
X144276214Y-97882354D01*
X144196908Y-97962472D01*
X144118725Y-98042574D01*
X144046093Y-98118164D01*
X143983441Y-98184745D01*
X143935197Y-98237818D01*
X143905790Y-98272887D01*
X143898759Y-98284623D01*
X143908877Y-98306260D01*
X143937241Y-98353662D01*
X143980871Y-98422193D01*
X144036782Y-98507215D01*
X144101994Y-98604093D01*
X144139781Y-98659350D01*
X144208657Y-98760248D01*
X144269860Y-98851299D01*
X144320422Y-98927970D01*
X144357372Y-98985728D01*
X144377742Y-99020043D01*
X144380803Y-99027254D01*
X144373864Y-99047748D01*
X144354949Y-99095513D01*
X144326913Y-99163832D01*
X144292609Y-99245989D01*
X144254891Y-99335270D01*
X144216613Y-99424958D01*
X144180630Y-99508338D01*
X144149794Y-99578694D01*
X144126961Y-99629310D01*
X144114983Y-99653471D01*
X144114276Y-99654422D01*
X144095469Y-99659036D01*
X144045382Y-99669328D01*
X143969207Y-99684287D01*
X143872135Y-99702901D01*
X143759357Y-99724159D01*
X143693558Y-99736418D01*
X143573050Y-99759362D01*
X143464203Y-99781195D01*
X143372524Y-99800722D01*
X143303519Y-99816748D01*
X143262696Y-99828079D01*
X143254489Y-99831674D01*
X143246452Y-99856006D01*
X143239967Y-99910959D01*
X143235030Y-99990108D01*
X143231636Y-100087026D01*
X143229782Y-100195287D01*
X143229462Y-100308465D01*
X143230673Y-100420135D01*
X143233410Y-100523868D01*
X143237669Y-100613241D01*
X143243445Y-100681826D01*
X143250733Y-100723197D01*
X143255105Y-100731810D01*
X143281236Y-100742133D01*
X143336607Y-100756892D01*
X143413893Y-100774352D01*
X143505770Y-100792780D01*
X143537842Y-100798741D01*
X143692476Y-100827066D01*
X143814625Y-100849876D01*
X143908327Y-100868080D01*
X143977616Y-100882583D01*
X144026529Y-100894292D01*
X144059103Y-100904115D01*
X144079372Y-100912956D01*
X144091374Y-100921724D01*
X144093053Y-100923457D01*
X144109816Y-100951371D01*
X144135386Y-101005695D01*
X144167212Y-101079777D01*
X144202740Y-101166965D01*
X144239417Y-101260608D01*
X144274689Y-101354052D01*
X144306004Y-101440647D01*
X144330807Y-101513740D01*
X144346546Y-101566678D01*
X144350668Y-101592811D01*
X144350324Y-101593726D01*
X144336359Y-101615086D01*
X144304678Y-101662084D01*
X144258609Y-101729827D01*
X144201482Y-101813423D01*
X144136627Y-101907982D01*
X144118157Y-101934854D01*
X144052301Y-102032275D01*
X143994350Y-102121163D01*
X143947462Y-102196412D01*
X143914793Y-102252920D01*
X143899500Y-102285581D01*
X143898759Y-102289593D01*
X143911608Y-102310684D01*
X143947112Y-102352464D01*
X144000707Y-102410445D01*
X144067829Y-102480135D01*
X144143913Y-102557045D01*
X144224396Y-102636683D01*
X144304713Y-102714561D01*
X144380301Y-102786186D01*
X144446595Y-102847070D01*
X144499031Y-102892721D01*
X144533045Y-102918650D01*
X144542455Y-102922883D01*
X144564357Y-102912912D01*
X144609200Y-102886020D01*
X144669679Y-102846736D01*
X144716211Y-102815117D01*
X144800525Y-102757098D01*
X144900374Y-102688784D01*
X145000527Y-102620579D01*
X145054373Y-102584075D01*
X145236629Y-102460800D01*
X145389619Y-102543520D01*
X145459318Y-102579759D01*
X145518586Y-102607926D01*
X145558689Y-102623991D01*
X145568897Y-102626226D01*
X145581171Y-102609722D01*
X145605387Y-102563082D01*
X145639737Y-102490609D01*
X145682412Y-102396606D01*
X145731606Y-102285374D01*
X145785510Y-102161215D01*
X145842316Y-102028432D01*
X145900218Y-101891327D01*
X145957407Y-101754202D01*
X146012076Y-101621358D01*
X146062416Y-101497098D01*
X146106620Y-101385725D01*
X146142881Y-101291539D01*
X146169391Y-101218844D01*
X146184342Y-101171941D01*
X146186746Y-101155833D01*
X146167689Y-101135286D01*
X146125964Y-101101933D01*
X146070294Y-101062702D01*
X146065622Y-101059599D01*
X145921736Y-100944423D01*
X145805717Y-100810053D01*
X145718570Y-100660784D01*
X145661301Y-100500913D01*
X145634914Y-100334737D01*
X145640415Y-100166552D01*
X145678810Y-100000655D01*
X145751105Y-99841342D01*
X145772374Y-99806487D01*
X145883004Y-99665737D01*
X146013698Y-99552714D01*
X146159936Y-99468003D01*
X146317192Y-99412194D01*
X146480943Y-99385874D01*
X146646667Y-99389630D01*
X146809838Y-99424050D01*
X146965935Y-99489723D01*
X147110433Y-99587235D01*
X147155131Y-99626813D01*
X147268888Y-99750703D01*
X147351782Y-99881124D01*
X147408644Y-100027315D01*
X147440313Y-100172088D01*
X147448131Y-100334860D01*
X147422062Y-100498440D01*
X147364755Y-100657298D01*
X147278856Y-100805906D01*
X147167014Y-100938735D01*
X147031877Y-101050256D01*
X147014117Y-101062011D01*
X146957850Y-101100508D01*
X146915077Y-101133863D01*
X146894628Y-101155160D01*
X146894331Y-101155833D01*
X146898721Y-101178871D01*
X146916124Y-101231157D01*
X146944732Y-101308390D01*
X146982735Y-101406268D01*
X147028326Y-101520491D01*
X147079697Y-101646758D01*
X147135038Y-101780767D01*
X147192542Y-101918218D01*
X147250399Y-102054808D01*
X147306802Y-102186237D01*
X147359942Y-102308205D01*
X147408010Y-102416409D01*
X147449199Y-102506549D01*
X147481699Y-102574323D01*
X147503703Y-102615430D01*
X147512564Y-102626226D01*
X147539640Y-102617819D01*
X147590303Y-102595272D01*
X147655817Y-102562613D01*
X147691841Y-102543520D01*
X147844832Y-102460800D01*
X148027088Y-102584075D01*
X148120125Y-102647228D01*
X148221985Y-102716727D01*
X148317438Y-102782165D01*
X148365250Y-102815117D01*
X148432495Y-102860273D01*
X148489436Y-102896057D01*
X148528646Y-102917938D01*
X148541381Y-102922563D01*
X148559917Y-102910085D01*
X148600941Y-102875252D01*
X148660475Y-102821678D01*
X148734542Y-102752983D01*
X148819165Y-102672781D01*
X148872685Y-102621286D01*
X148966319Y-102529286D01*
X149047241Y-102446999D01*
X149112177Y-102377945D01*
X149157858Y-102325644D01*
X149181011Y-102293616D01*
X149183232Y-102287116D01*
X149172924Y-102262394D01*
X149144439Y-102212405D01*
X149100937Y-102142212D01*
X149045577Y-102056875D01*
X148981520Y-101961456D01*
X148963303Y-101934854D01*
X148896927Y-101838167D01*
X148837378Y-101751117D01*
X148787984Y-101678595D01*
X148752075Y-101625493D01*
X148732981Y-101596703D01*
X148731136Y-101593726D01*
X148733895Y-101570782D01*
X148748538Y-101520336D01*
X148772513Y-101449041D01*
X148803266Y-101363547D01*
X148838244Y-101270507D01*
X148874893Y-101176574D01*
X148910661Y-101088399D01*
X148942994Y-101012634D01*
X148969338Y-100955931D01*
X148987142Y-100924943D01*
X148988407Y-100923457D01*
X148999294Y-100914601D01*
X149017682Y-100905843D01*
X149047606Y-100896277D01*
X149093103Y-100884996D01*
X149158209Y-100871093D01*
X149246961Y-100853663D01*
X149363393Y-100831798D01*
X149511542Y-100804591D01*
X149543618Y-100798741D01*
X149638686Y-100780374D01*
X149721565Y-100762405D01*
X149784930Y-100746569D01*
X149821458Y-100734600D01*
X149826356Y-100731810D01*
X149834427Y-100707072D01*
X149840987Y-100651790D01*
X149846033Y-100572389D01*
X149849559Y-100475296D01*
X149851561Y-100366938D01*
X149852036Y-100253740D01*
X149850977Y-100142128D01*
X149848382Y-100038529D01*
X149844246Y-99949368D01*
X149838563Y-99881072D01*
X149831331Y-99840066D01*
X149826971Y-99831674D01*
X149802698Y-99823208D01*
X149747426Y-99809435D01*
X149666662Y-99791550D01*
X149565912Y-99770748D01*
X149450683Y-99748223D01*
X149387902Y-99736418D01*
X149268787Y-99714151D01*
X149162565Y-99693979D01*
X149074427Y-99676915D01*
X149009566Y-99663969D01*
X148973174Y-99656155D01*
X148967184Y-99654422D01*
X148957061Y-99634890D01*
X148935662Y-99587843D01*
X148905839Y-99520003D01*
X148870445Y-99438091D01*
X148832332Y-99348828D01*
X148794353Y-99258935D01*
X148759360Y-99175135D01*
X148730206Y-99104147D01*
X148709743Y-99052694D01*
X148700823Y-99027497D01*
X148700657Y-99026396D01*
X148710769Y-99006519D01*
X148739117Y-98960777D01*
X148782723Y-98893717D01*
X148838606Y-98809884D01*
X148903787Y-98713826D01*
X148941679Y-98658650D01*
X149010725Y-98557481D01*
X149072050Y-98465630D01*
X149122663Y-98387744D01*
X149159571Y-98328469D01*
X149179782Y-98292451D01*
X149182701Y-98284377D01*
X149170153Y-98265584D01*
X149135463Y-98225457D01*
X149083063Y-98168493D01*
X149017384Y-98099185D01*
X148942856Y-98022031D01*
X148863913Y-97941525D01*
X148784983Y-97862163D01*
X148710500Y-97788440D01*
X148644894Y-97724852D01*
X148592596Y-97675894D01*
X148558039Y-97646061D01*
X148546478Y-97638942D01*
X148527654Y-97648953D01*
X148482631Y-97677078D01*
X148415787Y-97720454D01*
X148331499Y-97776218D01*
X148234144Y-97841506D01*
X148160707Y-97891246D01*
X147789667Y-98143551D01*
X147171095Y-97888555D01*
X147087275Y-97443931D01*
X147003454Y-96999307D01*
X146078006Y-96999307D01*
X145994186Y-97443931D01*
G37*
X145994186Y-97443931D02*
X145910365Y-97888555D01*
X145601080Y-98016053D01*
X145291794Y-98143551D01*
X144920754Y-97891246D01*
X144816843Y-97820996D01*
X144722913Y-97758272D01*
X144643348Y-97705938D01*
X144582530Y-97666857D01*
X144544843Y-97643893D01*
X144534579Y-97638942D01*
X144516090Y-97651676D01*
X144476580Y-97686882D01*
X144420478Y-97740062D01*
X144352213Y-97806718D01*
X144276214Y-97882354D01*
X144196908Y-97962472D01*
X144118725Y-98042574D01*
X144046093Y-98118164D01*
X143983441Y-98184745D01*
X143935197Y-98237818D01*
X143905790Y-98272887D01*
X143898759Y-98284623D01*
X143908877Y-98306260D01*
X143937241Y-98353662D01*
X143980871Y-98422193D01*
X144036782Y-98507215D01*
X144101994Y-98604093D01*
X144139781Y-98659350D01*
X144208657Y-98760248D01*
X144269860Y-98851299D01*
X144320422Y-98927970D01*
X144357372Y-98985728D01*
X144377742Y-99020043D01*
X144380803Y-99027254D01*
X144373864Y-99047748D01*
X144354949Y-99095513D01*
X144326913Y-99163832D01*
X144292609Y-99245989D01*
X144254891Y-99335270D01*
X144216613Y-99424958D01*
X144180630Y-99508338D01*
X144149794Y-99578694D01*
X144126961Y-99629310D01*
X144114983Y-99653471D01*
X144114276Y-99654422D01*
X144095469Y-99659036D01*
X144045382Y-99669328D01*
X143969207Y-99684287D01*
X143872135Y-99702901D01*
X143759357Y-99724159D01*
X143693558Y-99736418D01*
X143573050Y-99759362D01*
X143464203Y-99781195D01*
X143372524Y-99800722D01*
X143303519Y-99816748D01*
X143262696Y-99828079D01*
X143254489Y-99831674D01*
X143246452Y-99856006D01*
X143239967Y-99910959D01*
X143235030Y-99990108D01*
X143231636Y-100087026D01*
X143229782Y-100195287D01*
X143229462Y-100308465D01*
X143230673Y-100420135D01*
X143233410Y-100523868D01*
X143237669Y-100613241D01*
X143243445Y-100681826D01*
X143250733Y-100723197D01*
X143255105Y-100731810D01*
X143281236Y-100742133D01*
X143336607Y-100756892D01*
X143413893Y-100774352D01*
X143505770Y-100792780D01*
X143537842Y-100798741D01*
X143692476Y-100827066D01*
X143814625Y-100849876D01*
X143908327Y-100868080D01*
X143977616Y-100882583D01*
X144026529Y-100894292D01*
X144059103Y-100904115D01*
X144079372Y-100912956D01*
X144091374Y-100921724D01*
X144093053Y-100923457D01*
X144109816Y-100951371D01*
X144135386Y-101005695D01*
X144167212Y-101079777D01*
X144202740Y-101166965D01*
X144239417Y-101260608D01*
X144274689Y-101354052D01*
X144306004Y-101440647D01*
X144330807Y-101513740D01*
X144346546Y-101566678D01*
X144350668Y-101592811D01*
X144350324Y-101593726D01*
X144336359Y-101615086D01*
X144304678Y-101662084D01*
X144258609Y-101729827D01*
X144201482Y-101813423D01*
X144136627Y-101907982D01*
X144118157Y-101934854D01*
X144052301Y-102032275D01*
X143994350Y-102121163D01*
X143947462Y-102196412D01*
X143914793Y-102252920D01*
X143899500Y-102285581D01*
X143898759Y-102289593D01*
X143911608Y-102310684D01*
X143947112Y-102352464D01*
X144000707Y-102410445D01*
X144067829Y-102480135D01*
X144143913Y-102557045D01*
X144224396Y-102636683D01*
X144304713Y-102714561D01*
X144380301Y-102786186D01*
X144446595Y-102847070D01*
X144499031Y-102892721D01*
X144533045Y-102918650D01*
X144542455Y-102922883D01*
X144564357Y-102912912D01*
X144609200Y-102886020D01*
X144669679Y-102846736D01*
X144716211Y-102815117D01*
X144800525Y-102757098D01*
X144900374Y-102688784D01*
X145000527Y-102620579D01*
X145054373Y-102584075D01*
X145236629Y-102460800D01*
X145389619Y-102543520D01*
X145459318Y-102579759D01*
X145518586Y-102607926D01*
X145558689Y-102623991D01*
X145568897Y-102626226D01*
X145581171Y-102609722D01*
X145605387Y-102563082D01*
X145639737Y-102490609D01*
X145682412Y-102396606D01*
X145731606Y-102285374D01*
X145785510Y-102161215D01*
X145842316Y-102028432D01*
X145900218Y-101891327D01*
X145957407Y-101754202D01*
X146012076Y-101621358D01*
X146062416Y-101497098D01*
X146106620Y-101385725D01*
X146142881Y-101291539D01*
X146169391Y-101218844D01*
X146184342Y-101171941D01*
X146186746Y-101155833D01*
X146167689Y-101135286D01*
X146125964Y-101101933D01*
X146070294Y-101062702D01*
X146065622Y-101059599D01*
X145921736Y-100944423D01*
X145805717Y-100810053D01*
X145718570Y-100660784D01*
X145661301Y-100500913D01*
X145634914Y-100334737D01*
X145640415Y-100166552D01*
X145678810Y-100000655D01*
X145751105Y-99841342D01*
X145772374Y-99806487D01*
X145883004Y-99665737D01*
X146013698Y-99552714D01*
X146159936Y-99468003D01*
X146317192Y-99412194D01*
X146480943Y-99385874D01*
X146646667Y-99389630D01*
X146809838Y-99424050D01*
X146965935Y-99489723D01*
X147110433Y-99587235D01*
X147155131Y-99626813D01*
X147268888Y-99750703D01*
X147351782Y-99881124D01*
X147408644Y-100027315D01*
X147440313Y-100172088D01*
X147448131Y-100334860D01*
X147422062Y-100498440D01*
X147364755Y-100657298D01*
X147278856Y-100805906D01*
X147167014Y-100938735D01*
X147031877Y-101050256D01*
X147014117Y-101062011D01*
X146957850Y-101100508D01*
X146915077Y-101133863D01*
X146894628Y-101155160D01*
X146894331Y-101155833D01*
X146898721Y-101178871D01*
X146916124Y-101231157D01*
X146944732Y-101308390D01*
X146982735Y-101406268D01*
X147028326Y-101520491D01*
X147079697Y-101646758D01*
X147135038Y-101780767D01*
X147192542Y-101918218D01*
X147250399Y-102054808D01*
X147306802Y-102186237D01*
X147359942Y-102308205D01*
X147408010Y-102416409D01*
X147449199Y-102506549D01*
X147481699Y-102574323D01*
X147503703Y-102615430D01*
X147512564Y-102626226D01*
X147539640Y-102617819D01*
X147590303Y-102595272D01*
X147655817Y-102562613D01*
X147691841Y-102543520D01*
X147844832Y-102460800D01*
X148027088Y-102584075D01*
X148120125Y-102647228D01*
X148221985Y-102716727D01*
X148317438Y-102782165D01*
X148365250Y-102815117D01*
X148432495Y-102860273D01*
X148489436Y-102896057D01*
X148528646Y-102917938D01*
X148541381Y-102922563D01*
X148559917Y-102910085D01*
X148600941Y-102875252D01*
X148660475Y-102821678D01*
X148734542Y-102752983D01*
X148819165Y-102672781D01*
X148872685Y-102621286D01*
X148966319Y-102529286D01*
X149047241Y-102446999D01*
X149112177Y-102377945D01*
X149157858Y-102325644D01*
X149181011Y-102293616D01*
X149183232Y-102287116D01*
X149172924Y-102262394D01*
X149144439Y-102212405D01*
X149100937Y-102142212D01*
X149045577Y-102056875D01*
X148981520Y-101961456D01*
X148963303Y-101934854D01*
X148896927Y-101838167D01*
X148837378Y-101751117D01*
X148787984Y-101678595D01*
X148752075Y-101625493D01*
X148732981Y-101596703D01*
X148731136Y-101593726D01*
X148733895Y-101570782D01*
X148748538Y-101520336D01*
X148772513Y-101449041D01*
X148803266Y-101363547D01*
X148838244Y-101270507D01*
X148874893Y-101176574D01*
X148910661Y-101088399D01*
X148942994Y-101012634D01*
X148969338Y-100955931D01*
X148987142Y-100924943D01*
X148988407Y-100923457D01*
X148999294Y-100914601D01*
X149017682Y-100905843D01*
X149047606Y-100896277D01*
X149093103Y-100884996D01*
X149158209Y-100871093D01*
X149246961Y-100853663D01*
X149363393Y-100831798D01*
X149511542Y-100804591D01*
X149543618Y-100798741D01*
X149638686Y-100780374D01*
X149721565Y-100762405D01*
X149784930Y-100746569D01*
X149821458Y-100734600D01*
X149826356Y-100731810D01*
X149834427Y-100707072D01*
X149840987Y-100651790D01*
X149846033Y-100572389D01*
X149849559Y-100475296D01*
X149851561Y-100366938D01*
X149852036Y-100253740D01*
X149850977Y-100142128D01*
X149848382Y-100038529D01*
X149844246Y-99949368D01*
X149838563Y-99881072D01*
X149831331Y-99840066D01*
X149826971Y-99831674D01*
X149802698Y-99823208D01*
X149747426Y-99809435D01*
X149666662Y-99791550D01*
X149565912Y-99770748D01*
X149450683Y-99748223D01*
X149387902Y-99736418D01*
X149268787Y-99714151D01*
X149162565Y-99693979D01*
X149074427Y-99676915D01*
X149009566Y-99663969D01*
X148973174Y-99656155D01*
X148967184Y-99654422D01*
X148957061Y-99634890D01*
X148935662Y-99587843D01*
X148905839Y-99520003D01*
X148870445Y-99438091D01*
X148832332Y-99348828D01*
X148794353Y-99258935D01*
X148759360Y-99175135D01*
X148730206Y-99104147D01*
X148709743Y-99052694D01*
X148700823Y-99027497D01*
X148700657Y-99026396D01*
X148710769Y-99006519D01*
X148739117Y-98960777D01*
X148782723Y-98893717D01*
X148838606Y-98809884D01*
X148903787Y-98713826D01*
X148941679Y-98658650D01*
X149010725Y-98557481D01*
X149072050Y-98465630D01*
X149122663Y-98387744D01*
X149159571Y-98328469D01*
X149179782Y-98292451D01*
X149182701Y-98284377D01*
X149170153Y-98265584D01*
X149135463Y-98225457D01*
X149083063Y-98168493D01*
X149017384Y-98099185D01*
X148942856Y-98022031D01*
X148863913Y-97941525D01*
X148784983Y-97862163D01*
X148710500Y-97788440D01*
X148644894Y-97724852D01*
X148592596Y-97675894D01*
X148558039Y-97646061D01*
X148546478Y-97638942D01*
X148527654Y-97648953D01*
X148482631Y-97677078D01*
X148415787Y-97720454D01*
X148331499Y-97776218D01*
X148234144Y-97841506D01*
X148160707Y-97891246D01*
X147789667Y-98143551D01*
X147171095Y-97888555D01*
X147087275Y-97443931D01*
X147003454Y-96999307D01*
X146078006Y-96999307D01*
X145994186Y-97443931D01*
D11*
X120300000Y-105610000D03*
X117760000Y-105610000D03*
X115220000Y-105610000D03*
X112680000Y-105610000D03*
D12*
X110140000Y-105610000D03*
D13*
X75200000Y-97460000D03*
X75200000Y-102540000D03*
X126400000Y-97460000D03*
X126400000Y-102540000D03*
X134020000Y-100000000D03*
X67580000Y-100000000D03*
D11*
X97460000Y-105610000D03*
X94920000Y-105610000D03*
X92380000Y-105610000D03*
X89840000Y-105610000D03*
X87300000Y-105610000D03*
X84760000Y-105610000D03*
X82220000Y-105610000D03*
D12*
X79680000Y-105610000D03*
D14*
X59885000Y-102705000D03*
X59885000Y-97245000D03*
D15*
X62885000Y-102395000D03*
X62885000Y-97555000D03*
D16*
X139150000Y-102675000D03*
X139150000Y-97375000D03*
D11*
X110140000Y-95450000D03*
X112680000Y-95450000D03*
X115220000Y-95450000D03*
X117760000Y-95450000D03*
D12*
X120300000Y-95450000D03*
X79660000Y-95440000D03*
D11*
X82200000Y-95440000D03*
X84740000Y-95440000D03*
X87280000Y-95440000D03*
X89820000Y-95440000D03*
D17*
X96360000Y-103215000D03*
X93720000Y-103305000D03*
X100230000Y-106695000D03*
X113850000Y-93850000D03*
X117425000Y-93875000D03*
X153500000Y-102650000D03*
X109800000Y-93825000D03*
X101180000Y-104245000D03*
X102650000Y-94365000D03*
X91420000Y-94105000D03*
X90820000Y-102125000D03*
X99160000Y-102385000D03*
X100190000Y-94605000D03*
X105850000Y-98145000D03*
X82750000Y-97675000D03*
X64275000Y-94250000D03*
X107810000Y-96215000D03*
X137000000Y-95800000D03*
X136300000Y-106000000D03*
X64000000Y-106075000D03*
X77860000Y-103335000D03*
X100000000Y-98855000D03*
X91500000Y-99045000D03*
X91002751Y-98610388D03*
X96302797Y-94688426D03*
X96960384Y-94627410D03*
X97638743Y-94643743D03*
X98360000Y-94605000D03*
X64616513Y-99341513D03*
X89130000Y-99585000D03*
X65083487Y-99808487D03*
X89150000Y-100265000D03*
X119200000Y-103855000D03*
X100376835Y-97575417D03*
X115350000Y-103235000D03*
X100113023Y-96875508D03*
X111550000Y-103235000D03*
X100006070Y-96085444D03*
X100000000Y-95425000D03*
X108010000Y-103015000D03*
X91190000Y-100735000D03*
D18*
X96270000Y-103305000D02*
X96360000Y-103215000D01*
X100230000Y-106695000D02*
X96930000Y-106695000D01*
X94408670Y-106695000D02*
X96930000Y-106695000D01*
X93720000Y-106006330D02*
X94408670Y-106695000D01*
X93720000Y-103305000D02*
X93720000Y-106006330D01*
X96360000Y-106125000D02*
X96930000Y-106695000D01*
X96360000Y-103215000D02*
X96360000Y-106125000D01*
D19*
X62575000Y-102705000D02*
X62885000Y-102395000D01*
X59885000Y-102705000D02*
X62575000Y-102705000D01*
X62575000Y-97245000D02*
X62885000Y-97555000D01*
X59885000Y-97245000D02*
X62575000Y-97245000D01*
X120300000Y-95450000D02*
X120300000Y-94290000D01*
X120300000Y-94290000D02*
X118410000Y-92400000D01*
X118410000Y-92400000D02*
X81875000Y-92400000D01*
X81042599Y-95951449D02*
X81042599Y-93232401D01*
X82750000Y-97675000D02*
X81042599Y-95951449D01*
X81042599Y-93232401D02*
X81875000Y-92400000D01*
D20*
X128940000Y-100000000D02*
X126400000Y-97460000D01*
X134020000Y-100000000D02*
X128940000Y-100000000D01*
D18*
X64275000Y-94250000D02*
X65875000Y-94250000D01*
X65875000Y-94250000D02*
X67725000Y-92400000D01*
X67725000Y-92400000D02*
X81875000Y-92400000D01*
D21*
X121512081Y-105610000D02*
X120310000Y-105610000D01*
X125935000Y-105610000D02*
X121512081Y-105610000D01*
X139150000Y-102675000D02*
X134400000Y-102675000D01*
X131465000Y-105610000D02*
X125935000Y-105610000D01*
X134400000Y-102675000D02*
X131465000Y-105610000D01*
D19*
X119625000Y-99300000D02*
X125935000Y-105610000D01*
X110140790Y-99300000D02*
X119625000Y-99300000D01*
X107810000Y-96215000D02*
X110140790Y-99300000D01*
D18*
X137000000Y-100525000D02*
X137000000Y-95800000D01*
X139150000Y-102675000D02*
X137000000Y-100525000D01*
D19*
X113230000Y-107610000D02*
X115230000Y-105610000D01*
X77365000Y-107610000D02*
X113230000Y-107610000D01*
X75135000Y-107610000D02*
X77365000Y-107610000D01*
X74565000Y-107610000D02*
X75135000Y-107610000D01*
X67785000Y-107610000D02*
X73410000Y-107610000D01*
X64440000Y-106330000D02*
X66505000Y-106330000D01*
X66505000Y-106330000D02*
X67785000Y-107610000D01*
X73410000Y-107610000D02*
X74565000Y-107610000D01*
X134690000Y-107610000D02*
X113230000Y-107610000D01*
X136300000Y-106000000D02*
X134690000Y-107610000D01*
X64438999Y-106328999D02*
X64440000Y-106330000D01*
X64253999Y-106328999D02*
X64438999Y-106328999D01*
X64000000Y-106075000D02*
X64253999Y-106328999D01*
X74708604Y-107610000D02*
X74565000Y-107610000D01*
D20*
X77860000Y-104315000D02*
X74565000Y-107610000D01*
X77860000Y-103335000D02*
X77860000Y-104315000D01*
D18*
X100000000Y-98855000D02*
X100000000Y-103070000D01*
X100000000Y-103070000D02*
X97460000Y-105610000D01*
X83485000Y-104345000D02*
X82220000Y-105610000D01*
X86540000Y-104345000D02*
X83485000Y-104345000D01*
X90610000Y-100275000D02*
X86540000Y-104345000D01*
X90629210Y-100275000D02*
X90610000Y-100275000D01*
X91500000Y-99404210D02*
X90629210Y-100275000D01*
X91500000Y-99045000D02*
X91500000Y-99404210D01*
X91002751Y-99442249D02*
X91002751Y-98610388D01*
X79680000Y-104607600D02*
X80262600Y-104025000D01*
X86420000Y-104025000D02*
X91002751Y-99442249D01*
X80262600Y-104025000D02*
X86420000Y-104025000D01*
X79680000Y-105610000D02*
X79680000Y-104607600D01*
X96048798Y-94942425D02*
X96302797Y-94688426D01*
X82200000Y-95440000D02*
X83888223Y-97128223D01*
X93863000Y-97128223D02*
X96048798Y-94942425D01*
X83888223Y-97128223D02*
X93863000Y-97128223D01*
X84740000Y-95440000D02*
X86123412Y-96823412D01*
X86123412Y-96823412D02*
X93430522Y-96823412D01*
X93430522Y-96823412D02*
X93430522Y-96814478D01*
X96706385Y-94373411D02*
X96960384Y-94627410D01*
X96048934Y-94205000D02*
X96537974Y-94205000D01*
X96537974Y-94205000D02*
X96706385Y-94373411D01*
X93430522Y-96823412D02*
X96048934Y-94205000D01*
X95913744Y-93900189D02*
X97254399Y-93900189D01*
X87280000Y-95440000D02*
X88358601Y-96518601D01*
X97638743Y-94284533D02*
X97638743Y-94643743D01*
X88358601Y-96518601D02*
X93295332Y-96518601D01*
X93295332Y-96518601D02*
X95913744Y-93900189D01*
X97254399Y-93900189D02*
X97638743Y-94284533D01*
X93895000Y-95440000D02*
X89820000Y-95440000D01*
X95860000Y-93475000D02*
X93895000Y-95440000D01*
X97589210Y-93475000D02*
X95860000Y-93475000D01*
X98360000Y-94245790D02*
X97589210Y-93475000D01*
X98360000Y-94605000D02*
X98360000Y-94245790D01*
D22*
X70320742Y-99168860D02*
X68895742Y-97743860D01*
X64756605Y-99341513D02*
X64616513Y-99341513D01*
X66354258Y-97743860D02*
X64756605Y-99341513D01*
X68895742Y-97743860D02*
X66354258Y-97743860D01*
D19*
X70740000Y-99585000D02*
X70650000Y-99495000D01*
X89130000Y-99585000D02*
X70740000Y-99585000D01*
X70320790Y-99168812D02*
X70650000Y-99495000D01*
D22*
X70129258Y-99631140D02*
X68704258Y-98206140D01*
X65083487Y-99668395D02*
X65083487Y-99808487D01*
X66545742Y-98206140D02*
X65083487Y-99668395D01*
X68704258Y-98206140D02*
X66545742Y-98206140D01*
D19*
X89150000Y-100265000D02*
X89160000Y-100265000D01*
X70763118Y-100265000D02*
X70129258Y-99631140D01*
X89150000Y-100265000D02*
X70763118Y-100265000D01*
D18*
X118946001Y-104108999D02*
X106910417Y-104108999D01*
X106910417Y-104108999D02*
X100630834Y-97829416D01*
X100630834Y-97829416D02*
X100376835Y-97575417D01*
X119200000Y-103855000D02*
X118946001Y-104108999D01*
X100472233Y-96875508D02*
X100113023Y-96875508D01*
X107399138Y-103802413D02*
X100472233Y-96875508D01*
X115350000Y-103235000D02*
X114782587Y-103802413D01*
X114782587Y-103802413D02*
X107399138Y-103802413D01*
X100365280Y-96085444D02*
X100006070Y-96085444D01*
X111287398Y-103497602D02*
X107777438Y-103497602D01*
X107777438Y-103497602D02*
X100365280Y-96085444D01*
X111550000Y-103235000D02*
X111287398Y-103497602D01*
X107756001Y-102761001D02*
X108010000Y-103015000D01*
X100000000Y-95425000D02*
X100420000Y-95425000D01*
X100420000Y-95425000D02*
X107756001Y-102761001D01*
X85609999Y-104760001D02*
X84760000Y-105610000D01*
X91190000Y-100735000D02*
X90581066Y-100735000D01*
X90581066Y-100735000D02*
X86556065Y-104760001D01*
X86556065Y-104760001D02*
X85609999Y-104760001D01*
G36*
X64239807Y-92575812D02*
G01*
X64256634Y-92615071D01*
X64272906Y-92654551D01*
X64276035Y-92660338D01*
X64379459Y-92848466D01*
X64403579Y-92883692D01*
X64427221Y-92919276D01*
X64431415Y-92924346D01*
X64569410Y-93088801D01*
X64599915Y-93118674D01*
X64630015Y-93148985D01*
X64635114Y-93153144D01*
X64802424Y-93287664D01*
X64838121Y-93311024D01*
X64873567Y-93334932D01*
X64879376Y-93338021D01*
X65069630Y-93437482D01*
X65109232Y-93453482D01*
X65148595Y-93470029D01*
X65154893Y-93471931D01*
X65360842Y-93532545D01*
X65402805Y-93540550D01*
X65444627Y-93549135D01*
X65451175Y-93549777D01*
X65664974Y-93569234D01*
X65707712Y-93568936D01*
X65750384Y-93569234D01*
X65756932Y-93568592D01*
X65756934Y-93568592D01*
X65903766Y-93553159D01*
X65679326Y-93777600D01*
X64722121Y-93777600D01*
X64689478Y-93744957D01*
X64582985Y-93673800D01*
X64464656Y-93624787D01*
X64339039Y-93599800D01*
X64210961Y-93599800D01*
X64085344Y-93624787D01*
X63967015Y-93673800D01*
X63860522Y-93744957D01*
X63769957Y-93835522D01*
X63698800Y-93942015D01*
X63649787Y-94060344D01*
X63624800Y-94185961D01*
X63624800Y-94314039D01*
X63649787Y-94439656D01*
X63698800Y-94557985D01*
X63769957Y-94664478D01*
X63860522Y-94755043D01*
X63967015Y-94826200D01*
X64085344Y-94875213D01*
X64210961Y-94900200D01*
X64339039Y-94900200D01*
X64464656Y-94875213D01*
X64582985Y-94826200D01*
X64689478Y-94755043D01*
X64722121Y-94722400D01*
X65851800Y-94722400D01*
X65875000Y-94724685D01*
X65917745Y-94720475D01*
X65967606Y-94715564D01*
X66056654Y-94688552D01*
X66138721Y-94644686D01*
X66210653Y-94585653D01*
X66225444Y-94567630D01*
X67920675Y-92872400D01*
X80624988Y-92872400D01*
X80582076Y-92924689D01*
X80530893Y-93020446D01*
X80499375Y-93124347D01*
X80488733Y-93232401D01*
X80491400Y-93259480D01*
X80491400Y-94191883D01*
X78810000Y-94191883D01*
X78732331Y-94199533D01*
X78657647Y-94222188D01*
X78588818Y-94258978D01*
X78528489Y-94308489D01*
X78478978Y-94368818D01*
X78442188Y-94437647D01*
X78419533Y-94512331D01*
X78411883Y-94590000D01*
X78411883Y-96290000D01*
X78419533Y-96367669D01*
X78442188Y-96442353D01*
X78478978Y-96511182D01*
X78528489Y-96571511D01*
X78588818Y-96621022D01*
X78657647Y-96657812D01*
X78732331Y-96680467D01*
X78810000Y-96688117D01*
X80510000Y-96688117D01*
X80587669Y-96680467D01*
X80662353Y-96657812D01*
X80731182Y-96621022D01*
X80791511Y-96571511D01*
X80832049Y-96522116D01*
X82115435Y-97817643D01*
X82124787Y-97864656D01*
X82173800Y-97982985D01*
X82244957Y-98089478D01*
X82335522Y-98180043D01*
X82442015Y-98251200D01*
X82560344Y-98300213D01*
X82685961Y-98325200D01*
X82814039Y-98325200D01*
X82939656Y-98300213D01*
X83057985Y-98251200D01*
X83164478Y-98180043D01*
X83255043Y-98089478D01*
X83326200Y-97982985D01*
X83375213Y-97864656D01*
X83400200Y-97739039D01*
X83400200Y-97610961D01*
X83375213Y-97485344D01*
X83326200Y-97367015D01*
X83255043Y-97260522D01*
X83164478Y-97169957D01*
X83057985Y-97098800D01*
X82939656Y-97049787D01*
X82898383Y-97041577D01*
X82509529Y-96649045D01*
X82563503Y-96638309D01*
X82681400Y-96589475D01*
X83537783Y-97445858D01*
X83552570Y-97463876D01*
X83570588Y-97478663D01*
X83570590Y-97478665D01*
X83599513Y-97502401D01*
X83624502Y-97522909D01*
X83706569Y-97566775D01*
X83766195Y-97584862D01*
X83795616Y-97593787D01*
X83888223Y-97602908D01*
X83911423Y-97600623D01*
X93839800Y-97600623D01*
X93863000Y-97602908D01*
X93955606Y-97593787D01*
X93963831Y-97591292D01*
X94044654Y-97566775D01*
X94126721Y-97522909D01*
X94198653Y-97463876D01*
X94213444Y-97445853D01*
X96320671Y-95338626D01*
X96366836Y-95338626D01*
X96492453Y-95313639D01*
X96610782Y-95264626D01*
X96683079Y-95216318D01*
X96770728Y-95252623D01*
X96896345Y-95277610D01*
X97024423Y-95277610D01*
X97150040Y-95252623D01*
X97268369Y-95203610D01*
X97287342Y-95190933D01*
X97330758Y-95219943D01*
X97449087Y-95268956D01*
X97574704Y-95293943D01*
X97702782Y-95293943D01*
X97828399Y-95268956D01*
X97946728Y-95219943D01*
X98028363Y-95165396D01*
X98052015Y-95181200D01*
X98170344Y-95230213D01*
X98295961Y-95255200D01*
X98424039Y-95255200D01*
X98549656Y-95230213D01*
X98667985Y-95181200D01*
X98774478Y-95110043D01*
X98865043Y-95019478D01*
X98936200Y-94912985D01*
X98985213Y-94794656D01*
X99010200Y-94669039D01*
X99010200Y-94540961D01*
X98985213Y-94415344D01*
X98936200Y-94297015D01*
X98865043Y-94190522D01*
X98824632Y-94150111D01*
X98798552Y-94064135D01*
X98754686Y-93982069D01*
X98710442Y-93928157D01*
X98710440Y-93928155D01*
X98695653Y-93910137D01*
X98677635Y-93895350D01*
X97939654Y-93157370D01*
X97924863Y-93139347D01*
X97852931Y-93080314D01*
X97770864Y-93036448D01*
X97681816Y-93009436D01*
X97612410Y-93002600D01*
X97589210Y-93000315D01*
X97566010Y-93002600D01*
X95883200Y-93002600D01*
X95860000Y-93000315D01*
X95767394Y-93009436D01*
X95678345Y-93036448D01*
X95596279Y-93080314D01*
X95542625Y-93124347D01*
X95524347Y-93139347D01*
X95509560Y-93157365D01*
X93699326Y-94967600D01*
X90973202Y-94967600D01*
X90924368Y-94849703D01*
X90787987Y-94645594D01*
X90614406Y-94472013D01*
X90410297Y-94335632D01*
X90183503Y-94241691D01*
X89942740Y-94193800D01*
X89697260Y-94193800D01*
X89456497Y-94241691D01*
X89229703Y-94335632D01*
X89025594Y-94472013D01*
X88852013Y-94645594D01*
X88715632Y-94849703D01*
X88621691Y-95076497D01*
X88573800Y-95317260D01*
X88573800Y-95562740D01*
X88621691Y-95803503D01*
X88715632Y-96030297D01*
X88726259Y-96046201D01*
X88554276Y-96046201D01*
X88429475Y-95921400D01*
X88478309Y-95803503D01*
X88526200Y-95562740D01*
X88526200Y-95317260D01*
X88478309Y-95076497D01*
X88384368Y-94849703D01*
X88247987Y-94645594D01*
X88074406Y-94472013D01*
X87870297Y-94335632D01*
X87643503Y-94241691D01*
X87402740Y-94193800D01*
X87157260Y-94193800D01*
X86916497Y-94241691D01*
X86689703Y-94335632D01*
X86485594Y-94472013D01*
X86312013Y-94645594D01*
X86175632Y-94849703D01*
X86081691Y-95076497D01*
X86033800Y-95317260D01*
X86033800Y-95562740D01*
X86081691Y-95803503D01*
X86175632Y-96030297D01*
X86312013Y-96234406D01*
X86428619Y-96351012D01*
X86319087Y-96351012D01*
X85889475Y-95921400D01*
X85938309Y-95803503D01*
X85986200Y-95562740D01*
X85986200Y-95317260D01*
X85938309Y-95076497D01*
X85844368Y-94849703D01*
X85707987Y-94645594D01*
X85534406Y-94472013D01*
X85330297Y-94335632D01*
X85103503Y-94241691D01*
X84862740Y-94193800D01*
X84617260Y-94193800D01*
X84376497Y-94241691D01*
X84149703Y-94335632D01*
X83945594Y-94472013D01*
X83772013Y-94645594D01*
X83635632Y-94849703D01*
X83541691Y-95076497D01*
X83493800Y-95317260D01*
X83493800Y-95562740D01*
X83541691Y-95803503D01*
X83635632Y-96030297D01*
X83772013Y-96234406D01*
X83945594Y-96407987D01*
X84149703Y-96544368D01*
X84376497Y-96638309D01*
X84464545Y-96655823D01*
X84083898Y-96655823D01*
X83349475Y-95921400D01*
X83398309Y-95803503D01*
X83446200Y-95562740D01*
X83446200Y-95317260D01*
X83398309Y-95076497D01*
X83304368Y-94849703D01*
X83167987Y-94645594D01*
X82994406Y-94472013D01*
X82790297Y-94335632D01*
X82563503Y-94241691D01*
X82322740Y-94193800D01*
X82077260Y-94193800D01*
X81836497Y-94241691D01*
X81609703Y-94335632D01*
X81593799Y-94346259D01*
X81593799Y-93460715D01*
X82103315Y-92951200D01*
X118181686Y-92951200D01*
X119433949Y-94203464D01*
X119372331Y-94209533D01*
X119297647Y-94232188D01*
X119228818Y-94268978D01*
X119168489Y-94318489D01*
X119118978Y-94378818D01*
X119082188Y-94447647D01*
X119059533Y-94522331D01*
X119051883Y-94600000D01*
X119051883Y-96300000D01*
X119059533Y-96377669D01*
X119082188Y-96452353D01*
X119118978Y-96521182D01*
X119168489Y-96581511D01*
X119228818Y-96631022D01*
X119297647Y-96667812D01*
X119372331Y-96690467D01*
X119450000Y-96698117D01*
X121150000Y-96698117D01*
X121227669Y-96690467D01*
X121302353Y-96667812D01*
X121371182Y-96631022D01*
X121431511Y-96581511D01*
X121481022Y-96521182D01*
X121517812Y-96452353D01*
X121540467Y-96377669D01*
X121548117Y-96300000D01*
X121548117Y-94600000D01*
X121540467Y-94522331D01*
X121517812Y-94447647D01*
X121481022Y-94378818D01*
X121431511Y-94318489D01*
X121371182Y-94268978D01*
X121302353Y-94232188D01*
X121227669Y-94209533D01*
X121150000Y-94201883D01*
X120845189Y-94201883D01*
X120843225Y-94181945D01*
X120827465Y-94129995D01*
X120811706Y-94078044D01*
X120779896Y-94018530D01*
X120760524Y-93982287D01*
X120708905Y-93919390D01*
X120708902Y-93919387D01*
X120691643Y-93898357D01*
X120670613Y-93881098D01*
X119260714Y-92471200D01*
X137506622Y-92471200D01*
X137539807Y-92575812D01*
X137556634Y-92615071D01*
X137572906Y-92654551D01*
X137576035Y-92660338D01*
X137679459Y-92848466D01*
X137703579Y-92883692D01*
X137727221Y-92919276D01*
X137731415Y-92924346D01*
X137869410Y-93088801D01*
X137899915Y-93118674D01*
X137930015Y-93148985D01*
X137935114Y-93153144D01*
X138102424Y-93287664D01*
X138138121Y-93311024D01*
X138173567Y-93334932D01*
X138179376Y-93338021D01*
X138369630Y-93437482D01*
X138409232Y-93453482D01*
X138448595Y-93470029D01*
X138454893Y-93471931D01*
X138660842Y-93532545D01*
X138702805Y-93540550D01*
X138744627Y-93549135D01*
X138751175Y-93549777D01*
X138964974Y-93569234D01*
X139007712Y-93568936D01*
X139050384Y-93569234D01*
X139056932Y-93568592D01*
X139056934Y-93568592D01*
X139270439Y-93546152D01*
X139312290Y-93537561D01*
X139354227Y-93529561D01*
X139360525Y-93527660D01*
X139565606Y-93464176D01*
X139604989Y-93447621D01*
X139644572Y-93431628D01*
X139650381Y-93428540D01*
X139839226Y-93326432D01*
X139874662Y-93302530D01*
X139910366Y-93279166D01*
X139915465Y-93275008D01*
X140080881Y-93138165D01*
X140110980Y-93107855D01*
X140141489Y-93077979D01*
X140145683Y-93072909D01*
X140281367Y-92906542D01*
X140304982Y-92870999D01*
X140329128Y-92835734D01*
X140332258Y-92829947D01*
X140433045Y-92640393D01*
X140449317Y-92600914D01*
X140466144Y-92561654D01*
X140468090Y-92555369D01*
X140493502Y-92471200D01*
X155256622Y-92471200D01*
X155289807Y-92575812D01*
X155306634Y-92615071D01*
X155322906Y-92654551D01*
X155326035Y-92660338D01*
X155429459Y-92848466D01*
X155453579Y-92883692D01*
X155477221Y-92919276D01*
X155481415Y-92924346D01*
X155619410Y-93088801D01*
X155649915Y-93118674D01*
X155680015Y-93148985D01*
X155685114Y-93153144D01*
X155852424Y-93287664D01*
X155888121Y-93311024D01*
X155923567Y-93334932D01*
X155929376Y-93338021D01*
X155973800Y-93361245D01*
X155973800Y-95386143D01*
X155875840Y-95532752D01*
X155801481Y-95712270D01*
X155763573Y-95902845D01*
X155763573Y-96097155D01*
X155801481Y-96287730D01*
X155875840Y-96467248D01*
X155973800Y-96613857D01*
X155973800Y-103386143D01*
X155875840Y-103532752D01*
X155801481Y-103712270D01*
X155763573Y-103902845D01*
X155763573Y-104097155D01*
X155801481Y-104287730D01*
X155875840Y-104467248D01*
X155973800Y-104613857D01*
X155973800Y-106639490D01*
X155910774Y-106673568D01*
X155875353Y-106697460D01*
X155839634Y-106720834D01*
X155834535Y-106724992D01*
X155669119Y-106861835D01*
X155639003Y-106892162D01*
X155608511Y-106922021D01*
X155604322Y-106927085D01*
X155604319Y-106927088D01*
X155604317Y-106927091D01*
X155468632Y-107093458D01*
X155445000Y-107129027D01*
X155420872Y-107164266D01*
X155417742Y-107170054D01*
X155316954Y-107359607D01*
X155300657Y-107399147D01*
X155283856Y-107438346D01*
X155281910Y-107444631D01*
X155256498Y-107528800D01*
X140388967Y-107528800D01*
X140368278Y-107463580D01*
X140351456Y-107424331D01*
X140335180Y-107384843D01*
X140332051Y-107379055D01*
X140238028Y-107208030D01*
X140213882Y-107172765D01*
X140190267Y-107137222D01*
X140186074Y-107132152D01*
X140060624Y-106982646D01*
X140030115Y-106952770D01*
X140000016Y-106922460D01*
X139994918Y-106918302D01*
X139842818Y-106796011D01*
X139807088Y-106772630D01*
X139771678Y-106748746D01*
X139765869Y-106745657D01*
X139592914Y-106655238D01*
X139553324Y-106639243D01*
X139513943Y-106622688D01*
X139507645Y-106620787D01*
X139320419Y-106565684D01*
X139278490Y-106557686D01*
X139236636Y-106549094D01*
X139230088Y-106548452D01*
X139035727Y-106530763D01*
X138993019Y-106531061D01*
X138950311Y-106530763D01*
X138943764Y-106531405D01*
X138749667Y-106551806D01*
X138707826Y-106560395D01*
X138665883Y-106568396D01*
X138659589Y-106570297D01*
X138659583Y-106570298D01*
X138659577Y-106570300D01*
X138473147Y-106628010D01*
X138433772Y-106644561D01*
X138394180Y-106660558D01*
X138388370Y-106663646D01*
X138216694Y-106756471D01*
X138181288Y-106780353D01*
X138145550Y-106803739D01*
X138140452Y-106807897D01*
X137990074Y-106932301D01*
X137959993Y-106962592D01*
X137929469Y-106992484D01*
X137925275Y-106997554D01*
X137801925Y-107148796D01*
X137778283Y-107184380D01*
X137754163Y-107219606D01*
X137751034Y-107225393D01*
X137659409Y-107397715D01*
X137643134Y-107437201D01*
X137626311Y-107476453D01*
X137624365Y-107482738D01*
X137610458Y-107528800D01*
X135550714Y-107528800D01*
X136445523Y-106633992D01*
X136489656Y-106625213D01*
X136607985Y-106576200D01*
X136714478Y-106505043D01*
X136805043Y-106414478D01*
X136876200Y-106307985D01*
X136925213Y-106189656D01*
X136950200Y-106064039D01*
X136950200Y-105935961D01*
X136925213Y-105810344D01*
X136876200Y-105692015D01*
X136805043Y-105585522D01*
X136714478Y-105494957D01*
X136607985Y-105423800D01*
X136489656Y-105374787D01*
X136364039Y-105349800D01*
X136235961Y-105349800D01*
X136110344Y-105374787D01*
X135992015Y-105423800D01*
X135885522Y-105494957D01*
X135794957Y-105585522D01*
X135723800Y-105692015D01*
X135674787Y-105810344D01*
X135666008Y-105854477D01*
X134461686Y-107058800D01*
X114560714Y-107058800D01*
X114824471Y-106795043D01*
X114856497Y-106808309D01*
X115097260Y-106856200D01*
X115342740Y-106856200D01*
X115583503Y-106808309D01*
X115810297Y-106714368D01*
X116014406Y-106577987D01*
X116187987Y-106404406D01*
X116324368Y-106200297D01*
X116418309Y-105973503D01*
X116466200Y-105732740D01*
X116466200Y-105487260D01*
X116418309Y-105246497D01*
X116324368Y-105019703D01*
X116187987Y-104815594D01*
X116014406Y-104642013D01*
X115923691Y-104581399D01*
X118922801Y-104581399D01*
X118946001Y-104583684D01*
X119038607Y-104574563D01*
X119038610Y-104574562D01*
X119127655Y-104547551D01*
X119206888Y-104505200D01*
X119264039Y-104505200D01*
X119389656Y-104480213D01*
X119507985Y-104431200D01*
X119614478Y-104360043D01*
X119705043Y-104269478D01*
X119776200Y-104162985D01*
X119825213Y-104044656D01*
X119850200Y-103919039D01*
X119850200Y-103790961D01*
X119825213Y-103665344D01*
X119776200Y-103547015D01*
X119705043Y-103440522D01*
X119614478Y-103349957D01*
X119507985Y-103278800D01*
X119389656Y-103229787D01*
X119264039Y-103204800D01*
X119135961Y-103204800D01*
X119010344Y-103229787D01*
X118892015Y-103278800D01*
X118785522Y-103349957D01*
X118694957Y-103440522D01*
X118623800Y-103547015D01*
X118586693Y-103636599D01*
X115863649Y-103636599D01*
X115926200Y-103542985D01*
X115975213Y-103424656D01*
X116000200Y-103299039D01*
X116000200Y-103170961D01*
X115975213Y-103045344D01*
X115926200Y-102927015D01*
X115855043Y-102820522D01*
X115764478Y-102729957D01*
X115657985Y-102658800D01*
X115539656Y-102609787D01*
X115414039Y-102584800D01*
X115285961Y-102584800D01*
X115160344Y-102609787D01*
X115042015Y-102658800D01*
X114935522Y-102729957D01*
X114844957Y-102820522D01*
X114773800Y-102927015D01*
X114724787Y-103045344D01*
X114699800Y-103170961D01*
X114699800Y-103217126D01*
X114586913Y-103330013D01*
X112194039Y-103330013D01*
X112200200Y-103299039D01*
X112200200Y-103170961D01*
X112175213Y-103045344D01*
X112126200Y-102927015D01*
X112055043Y-102820522D01*
X111964478Y-102729957D01*
X111857985Y-102658800D01*
X111739656Y-102609787D01*
X111614039Y-102584800D01*
X111485961Y-102584800D01*
X111360344Y-102609787D01*
X111242015Y-102658800D01*
X111135522Y-102729957D01*
X111044957Y-102820522D01*
X110973800Y-102927015D01*
X110933130Y-103025202D01*
X108660200Y-103025202D01*
X108660200Y-102950961D01*
X108635213Y-102825344D01*
X108586200Y-102707015D01*
X108515043Y-102600522D01*
X108424478Y-102509957D01*
X108317985Y-102438800D01*
X108199656Y-102389787D01*
X108074039Y-102364800D01*
X108027875Y-102364800D01*
X101814036Y-96150961D01*
X107159800Y-96150961D01*
X107159800Y-96279039D01*
X107184787Y-96404656D01*
X107233800Y-96522985D01*
X107304957Y-96629478D01*
X107395522Y-96720043D01*
X107502015Y-96791200D01*
X107578411Y-96822844D01*
X109675002Y-99597864D01*
X109680266Y-99607712D01*
X109707678Y-99641113D01*
X109717322Y-99653878D01*
X109724848Y-99662035D01*
X109749147Y-99691643D01*
X109761583Y-99701849D01*
X109772498Y-99713679D01*
X109803470Y-99736225D01*
X109833078Y-99760524D01*
X109847272Y-99768111D01*
X109860280Y-99777580D01*
X109895049Y-99793648D01*
X109928834Y-99811706D01*
X109944234Y-99816378D01*
X109958841Y-99823128D01*
X109996069Y-99832102D01*
X110032736Y-99843225D01*
X110048759Y-99844803D01*
X110064394Y-99848572D01*
X110102654Y-99850111D01*
X110113711Y-99851200D01*
X110129727Y-99851200D01*
X110172884Y-99852936D01*
X110183911Y-99851200D01*
X119396686Y-99851200D01*
X124378285Y-104832800D01*
X121279484Y-104832800D01*
X121267987Y-104815594D01*
X121094406Y-104642013D01*
X120890297Y-104505632D01*
X120663503Y-104411691D01*
X120422740Y-104363800D01*
X120177260Y-104363800D01*
X119936497Y-104411691D01*
X119709703Y-104505632D01*
X119505594Y-104642013D01*
X119332013Y-104815594D01*
X119195632Y-105019703D01*
X119101691Y-105246497D01*
X119053800Y-105487260D01*
X119053800Y-105732740D01*
X119101691Y-105973503D01*
X119195632Y-106200297D01*
X119332013Y-106404406D01*
X119505594Y-106577987D01*
X119709703Y-106714368D01*
X119936497Y-106808309D01*
X120177260Y-106856200D01*
X120422740Y-106856200D01*
X120663503Y-106808309D01*
X120890297Y-106714368D01*
X121094406Y-106577987D01*
X121267987Y-106404406D01*
X121279484Y-106387200D01*
X131426832Y-106387200D01*
X131465000Y-106390959D01*
X131503168Y-106387200D01*
X131503176Y-106387200D01*
X131617358Y-106375954D01*
X131763860Y-106331513D01*
X131898878Y-106259345D01*
X132017222Y-106162222D01*
X132041566Y-106132560D01*
X134721927Y-103452200D01*
X137749575Y-103452200D01*
X137910151Y-103692518D01*
X138132482Y-103914849D01*
X138393916Y-104089534D01*
X138684406Y-104209859D01*
X138992788Y-104271200D01*
X139307212Y-104271200D01*
X139615594Y-104209859D01*
X139906084Y-104089534D01*
X140167518Y-103914849D01*
X140389849Y-103692518D01*
X140564534Y-103431084D01*
X140684859Y-103140594D01*
X140746200Y-102832212D01*
X140746200Y-102517788D01*
X140684859Y-102209406D01*
X140564534Y-101918916D01*
X140389849Y-101657482D01*
X140167518Y-101435151D01*
X139906084Y-101260466D01*
X139615594Y-101140141D01*
X139307212Y-101078800D01*
X138992788Y-101078800D01*
X138684406Y-101140141D01*
X138400722Y-101257647D01*
X137472400Y-100329326D01*
X137472400Y-100307210D01*
X142828264Y-100307210D01*
X142828264Y-100307213D01*
X142828286Y-100312816D01*
X142829497Y-100424486D01*
X142829531Y-100424799D01*
X142829504Y-100425116D01*
X142829613Y-100430717D01*
X142832350Y-100534450D01*
X142832531Y-100535902D01*
X142832437Y-100537368D01*
X142832665Y-100542965D01*
X142836924Y-100632338D01*
X142837578Y-100636806D01*
X142837453Y-100641324D01*
X142837884Y-100646910D01*
X142843660Y-100715495D01*
X142846435Y-100730592D01*
X142847396Y-100745907D01*
X142848329Y-100751430D01*
X142855617Y-100792801D01*
X142860252Y-100809413D01*
X142863045Y-100826444D01*
X142870754Y-100847048D01*
X142876662Y-100868221D01*
X142883687Y-100882133D01*
X142885372Y-100887563D01*
X142887119Y-100890789D01*
X142890483Y-100899779D01*
X142892984Y-100904792D01*
X142897356Y-100913405D01*
X142907562Y-100929417D01*
X142911954Y-100938116D01*
X142914569Y-100941465D01*
X142922666Y-100956412D01*
X142931773Y-100967403D01*
X142939441Y-100979434D01*
X142956694Y-100997480D01*
X142972623Y-101016705D01*
X142983687Y-101025715D01*
X142993549Y-101036030D01*
X143013979Y-101050382D01*
X143033339Y-101066147D01*
X143045944Y-101072837D01*
X143057621Y-101081040D01*
X143080448Y-101091150D01*
X143102501Y-101102854D01*
X143107697Y-101104949D01*
X143133828Y-101115272D01*
X143153477Y-101120890D01*
X143172502Y-101128317D01*
X143177905Y-101129798D01*
X143233276Y-101144557D01*
X143238114Y-101145351D01*
X143242743Y-101146957D01*
X143248198Y-101148230D01*
X143325485Y-101165690D01*
X143327537Y-101165947D01*
X143329510Y-101166578D01*
X143334995Y-101167718D01*
X143426872Y-101186146D01*
X143426916Y-101186150D01*
X143426957Y-101186163D01*
X143432457Y-101187225D01*
X143464529Y-101193186D01*
X143464590Y-101193191D01*
X143465555Y-101193375D01*
X143619357Y-101221548D01*
X143739521Y-101243987D01*
X143806171Y-101256935D01*
X143830183Y-101315861D01*
X143864959Y-101404654D01*
X143898356Y-101493129D01*
X143910839Y-101527650D01*
X143870278Y-101587003D01*
X143805995Y-101680729D01*
X143787526Y-101707600D01*
X143787479Y-101707685D01*
X143785776Y-101710167D01*
X143719920Y-101807588D01*
X143719659Y-101808070D01*
X143719310Y-101808493D01*
X143716218Y-101813164D01*
X143658267Y-101902052D01*
X143657658Y-101903222D01*
X143656839Y-101904258D01*
X143653843Y-101908991D01*
X143606955Y-101984241D01*
X143605250Y-101987686D01*
X143602968Y-101990778D01*
X143600130Y-101995609D01*
X143567461Y-102052117D01*
X143561451Y-102065345D01*
X143553862Y-102077734D01*
X143551451Y-102082791D01*
X143536158Y-102115452D01*
X143533082Y-102124142D01*
X143528744Y-102132279D01*
X143520040Y-102160992D01*
X143510033Y-102189266D01*
X143508704Y-102198389D01*
X143506029Y-102207212D01*
X143504973Y-102212713D01*
X143504232Y-102216725D01*
X143502031Y-102242588D01*
X143498127Y-102268250D01*
X143498718Y-102281514D01*
X143497592Y-102294744D01*
X143500457Y-102320545D01*
X143501612Y-102346473D01*
X143504768Y-102359369D01*
X143506233Y-102372566D01*
X143514052Y-102397312D01*
X143520223Y-102422529D01*
X143525826Y-102434571D01*
X143529825Y-102447228D01*
X143542301Y-102469982D01*
X143553253Y-102493522D01*
X143556134Y-102498326D01*
X143568983Y-102519417D01*
X143586246Y-102542367D01*
X143602288Y-102566188D01*
X143605885Y-102570482D01*
X143641389Y-102612262D01*
X143645409Y-102616150D01*
X143648723Y-102620653D01*
X143652497Y-102624793D01*
X143706091Y-102682774D01*
X143707081Y-102683655D01*
X143707884Y-102684700D01*
X143711742Y-102688762D01*
X143778692Y-102758274D01*
X143778698Y-102758281D01*
X143778800Y-102758386D01*
X143778864Y-102758452D01*
X143778869Y-102758456D01*
X143782610Y-102762291D01*
X143858695Y-102839201D01*
X143858753Y-102839249D01*
X143861723Y-102842229D01*
X143942206Y-102921867D01*
X143942266Y-102921916D01*
X143945112Y-102924714D01*
X144025429Y-103002592D01*
X144025476Y-103002629D01*
X144028759Y-103005784D01*
X144104347Y-103077409D01*
X144104605Y-103077610D01*
X144104823Y-103077860D01*
X144108923Y-103081678D01*
X144175217Y-103142562D01*
X144177245Y-103144088D01*
X144178958Y-103145954D01*
X144183157Y-103149662D01*
X144235593Y-103195313D01*
X144243952Y-103201263D01*
X144251374Y-103208360D01*
X144255806Y-103211787D01*
X144289820Y-103237716D01*
X144293104Y-103239746D01*
X144295980Y-103242319D01*
X144324295Y-103259078D01*
X144327940Y-103261918D01*
X144333539Y-103264737D01*
X144356426Y-103278882D01*
X144360039Y-103280234D01*
X144363362Y-103282201D01*
X144368455Y-103284535D01*
X144377865Y-103288768D01*
X144388174Y-103292241D01*
X144397879Y-103297127D01*
X144425192Y-103304713D01*
X144427741Y-103305572D01*
X144429758Y-103306327D01*
X144430194Y-103306399D01*
X144452067Y-103313768D01*
X144462845Y-103315172D01*
X144473323Y-103318082D01*
X144501603Y-103320219D01*
X144529711Y-103323880D01*
X144540558Y-103323163D01*
X144551401Y-103323983D01*
X144579551Y-103320588D01*
X144607842Y-103318719D01*
X144618344Y-103315909D01*
X144629138Y-103314607D01*
X144656094Y-103305808D01*
X144683481Y-103298480D01*
X144693236Y-103293684D01*
X144703573Y-103290310D01*
X144708688Y-103288024D01*
X144730590Y-103278053D01*
X144747788Y-103268093D01*
X144765870Y-103259833D01*
X144770695Y-103256985D01*
X144815538Y-103230093D01*
X144819081Y-103227467D01*
X144823023Y-103225492D01*
X144827742Y-103222473D01*
X144888222Y-103183189D01*
X144889296Y-103182332D01*
X144890511Y-103181691D01*
X144895167Y-103178574D01*
X144941699Y-103146955D01*
X144941772Y-103146895D01*
X144943644Y-103145625D01*
X145027431Y-103087969D01*
X145126790Y-103019990D01*
X145225988Y-102952436D01*
X145260887Y-102928777D01*
X145274241Y-102935720D01*
X145278327Y-102937360D01*
X145282064Y-102939679D01*
X145287107Y-102942119D01*
X145346375Y-102970286D01*
X145355584Y-102973605D01*
X145364208Y-102978235D01*
X145369394Y-102980355D01*
X145409496Y-102996420D01*
X145438661Y-103004910D01*
X145467417Y-103014671D01*
X145472881Y-103015907D01*
X145483089Y-103018142D01*
X145514042Y-103021805D01*
X145544836Y-103026704D01*
X145552869Y-103026401D01*
X145560847Y-103027345D01*
X145591931Y-103024926D01*
X145623082Y-103023750D01*
X145630897Y-103021894D01*
X145638911Y-103021270D01*
X145668934Y-103012859D01*
X145699263Y-103005655D01*
X145706572Y-103002315D01*
X145714309Y-103000147D01*
X145742125Y-102986066D01*
X145770478Y-102973107D01*
X145776998Y-102968411D01*
X145784167Y-102964782D01*
X145808716Y-102945567D01*
X145834015Y-102927347D01*
X145839500Y-102921473D01*
X145845827Y-102916521D01*
X145866170Y-102892912D01*
X145887454Y-102870118D01*
X145890828Y-102865646D01*
X145903102Y-102849142D01*
X145918258Y-102823957D01*
X145934621Y-102799549D01*
X145937237Y-102794596D01*
X145961453Y-102747955D01*
X145963124Y-102743785D01*
X145965492Y-102739960D01*
X145967927Y-102734915D01*
X146002276Y-102662442D01*
X146002445Y-102661971D01*
X146002703Y-102661539D01*
X146005055Y-102656454D01*
X146047729Y-102562451D01*
X146047755Y-102562374D01*
X146049329Y-102558881D01*
X146098523Y-102447649D01*
X146098554Y-102447554D01*
X146099619Y-102445148D01*
X146153523Y-102320989D01*
X146153553Y-102320897D01*
X146154372Y-102319018D01*
X146211179Y-102186235D01*
X146211205Y-102186152D01*
X146211909Y-102184518D01*
X146269810Y-102047413D01*
X146269834Y-102047336D01*
X146270505Y-102045758D01*
X146327694Y-101908633D01*
X146327719Y-101908552D01*
X146328419Y-101906884D01*
X146383088Y-101774040D01*
X146383116Y-101773946D01*
X146383921Y-101771999D01*
X146434261Y-101647739D01*
X146434289Y-101647643D01*
X146435318Y-101645103D01*
X146479522Y-101533730D01*
X146479543Y-101533659D01*
X146481031Y-101529871D01*
X146517292Y-101435685D01*
X146517500Y-101434933D01*
X146517844Y-101434241D01*
X146519800Y-101428992D01*
X146540520Y-101372175D01*
X146568512Y-101447746D01*
X146568657Y-101448044D01*
X146568742Y-101448366D01*
X146570733Y-101453602D01*
X146608737Y-101551480D01*
X146608775Y-101551554D01*
X146610120Y-101554994D01*
X146655711Y-101669216D01*
X146655756Y-101669303D01*
X146656705Y-101671683D01*
X146708076Y-101797950D01*
X146708118Y-101798029D01*
X146708873Y-101799895D01*
X146764214Y-101933904D01*
X146764252Y-101933975D01*
X146764922Y-101935609D01*
X146822426Y-102073060D01*
X146822469Y-102073140D01*
X146823117Y-102074700D01*
X146880974Y-102211289D01*
X146881015Y-102211365D01*
X146881716Y-102213029D01*
X146938119Y-102344459D01*
X146938163Y-102344539D01*
X146938995Y-102346486D01*
X146992136Y-102468454D01*
X146992182Y-102468536D01*
X146993292Y-102471084D01*
X147041360Y-102579287D01*
X147041398Y-102579355D01*
X147043102Y-102583152D01*
X147084291Y-102673292D01*
X147084751Y-102674083D01*
X147085055Y-102674956D01*
X147087442Y-102680024D01*
X147119943Y-102747798D01*
X147123110Y-102753023D01*
X147125377Y-102758703D01*
X147127986Y-102763661D01*
X147149990Y-102804768D01*
X147170239Y-102835061D01*
X147190061Y-102865610D01*
X147193498Y-102869857D01*
X147193503Y-102869865D01*
X147193509Y-102869871D01*
X147193585Y-102869965D01*
X147202446Y-102880761D01*
X147229711Y-102908047D01*
X147257096Y-102935576D01*
X147257473Y-102935830D01*
X147257792Y-102936149D01*
X147289936Y-102957686D01*
X147322048Y-102979305D01*
X147322464Y-102979480D01*
X147322841Y-102979732D01*
X147358594Y-102994631D01*
X147394256Y-103009586D01*
X147394700Y-103009677D01*
X147395118Y-103009851D01*
X147433263Y-103017558D01*
X147470972Y-103025264D01*
X147471420Y-103025267D01*
X147471867Y-103025357D01*
X147510803Y-103025508D01*
X147549270Y-103025743D01*
X147549712Y-103025658D01*
X147550167Y-103025660D01*
X147588278Y-103018267D01*
X147626171Y-103011005D01*
X147626982Y-103010759D01*
X147627035Y-103010749D01*
X147627090Y-103010727D01*
X147631532Y-103009381D01*
X147658608Y-103000974D01*
X147677786Y-102992893D01*
X147697631Y-102986601D01*
X147702765Y-102984359D01*
X147753428Y-102961812D01*
X147758638Y-102958854D01*
X147764264Y-102956795D01*
X147769295Y-102954331D01*
X147820553Y-102928779D01*
X147894393Y-102978901D01*
X147995499Y-103047885D01*
X148090185Y-103112797D01*
X148137577Y-103145460D01*
X148137622Y-103145485D01*
X148141588Y-103148188D01*
X148208833Y-103193345D01*
X148211726Y-103194902D01*
X148214297Y-103196950D01*
X148219020Y-103199964D01*
X148275961Y-103235748D01*
X148282820Y-103239175D01*
X148289057Y-103243634D01*
X148293930Y-103246398D01*
X148333139Y-103268279D01*
X148360099Y-103280037D01*
X148386441Y-103293090D01*
X148391693Y-103295039D01*
X148404428Y-103299664D01*
X148432589Y-103306873D01*
X148460349Y-103315494D01*
X148470446Y-103316565D01*
X148480283Y-103319083D01*
X148509299Y-103320685D01*
X148538213Y-103323751D01*
X148548330Y-103322840D01*
X148558464Y-103323399D01*
X148587243Y-103319334D01*
X148616198Y-103316725D01*
X148625941Y-103313867D01*
X148635995Y-103312447D01*
X148663436Y-103302869D01*
X148691333Y-103294687D01*
X148700336Y-103289991D01*
X148709922Y-103286645D01*
X148734985Y-103271917D01*
X148760755Y-103258474D01*
X148765424Y-103255378D01*
X148783961Y-103242900D01*
X148799053Y-103230438D01*
X148815296Y-103219509D01*
X148819592Y-103215913D01*
X148860615Y-103181080D01*
X148862693Y-103178934D01*
X148865121Y-103177196D01*
X148869311Y-103173478D01*
X148928845Y-103119904D01*
X148928989Y-103119746D01*
X148929164Y-103119617D01*
X148933298Y-103115836D01*
X149007365Y-103047141D01*
X149007411Y-103047089D01*
X149010525Y-103044179D01*
X149095148Y-102963977D01*
X149095216Y-102963899D01*
X149097334Y-102961889D01*
X149150854Y-102910394D01*
X149150903Y-102910336D01*
X149153868Y-102907463D01*
X149247502Y-102815463D01*
X149247914Y-102814971D01*
X149248417Y-102814562D01*
X149252373Y-102810595D01*
X149333295Y-102728308D01*
X149334358Y-102726991D01*
X149335647Y-102725896D01*
X149339513Y-102721842D01*
X149404449Y-102652788D01*
X149407251Y-102649155D01*
X149410632Y-102646061D01*
X149414347Y-102641867D01*
X149460028Y-102589566D01*
X149469140Y-102576807D01*
X149479685Y-102565204D01*
X149482998Y-102560687D01*
X149506151Y-102528660D01*
X149514981Y-102513526D01*
X149525393Y-102499438D01*
X149534666Y-102479789D01*
X149545612Y-102461030D01*
X149549850Y-102448766D01*
X149552631Y-102443658D01*
X149554423Y-102437927D01*
X149558812Y-102428628D01*
X149560660Y-102423339D01*
X149562881Y-102416839D01*
X149567170Y-102398647D01*
X149571186Y-102387024D01*
X149571852Y-102382198D01*
X149576003Y-102368927D01*
X149577548Y-102354619D01*
X149580847Y-102340627D01*
X149581743Y-102315790D01*
X149584412Y-102291079D01*
X149583150Y-102276756D01*
X149583669Y-102262378D01*
X149579723Y-102237837D01*
X149577542Y-102213080D01*
X149573520Y-102199267D01*
X149571237Y-102185070D01*
X149562602Y-102161769D01*
X149555652Y-102137902D01*
X149553532Y-102132717D01*
X149543224Y-102107995D01*
X149532884Y-102088739D01*
X149524243Y-102068651D01*
X149521504Y-102063764D01*
X149493019Y-102013775D01*
X149490353Y-102010006D01*
X149488376Y-102005841D01*
X149485458Y-102001059D01*
X149441956Y-101930866D01*
X149441138Y-101929796D01*
X149440533Y-101928586D01*
X149437517Y-101923865D01*
X149382157Y-101838528D01*
X149381934Y-101838249D01*
X149381768Y-101837929D01*
X149378678Y-101833256D01*
X149314621Y-101737838D01*
X149314564Y-101737769D01*
X149312543Y-101734773D01*
X149294326Y-101708170D01*
X149294304Y-101708144D01*
X149294062Y-101707786D01*
X149228061Y-101611645D01*
X149170602Y-101527652D01*
X149179822Y-101502021D01*
X149212911Y-101414005D01*
X149247685Y-101324878D01*
X149275231Y-101256975D01*
X149322685Y-101247655D01*
X149436559Y-101226271D01*
X149583512Y-101199283D01*
X149583525Y-101199281D01*
X149615601Y-101193431D01*
X149615680Y-101193408D01*
X149619722Y-101192657D01*
X149714790Y-101174290D01*
X149716471Y-101173791D01*
X149718212Y-101173613D01*
X149723695Y-101172464D01*
X149806575Y-101154495D01*
X149809915Y-101153420D01*
X149813396Y-101152954D01*
X149818840Y-101151634D01*
X149882205Y-101135798D01*
X149893148Y-101131895D01*
X149904519Y-101129531D01*
X149909854Y-101127824D01*
X149946383Y-101115855D01*
X149980672Y-101100773D01*
X149989250Y-101097084D01*
X150004308Y-101091385D01*
X150008322Y-101088884D01*
X150015147Y-101085949D01*
X150017970Y-101084367D01*
X150018056Y-101084329D01*
X150018131Y-101084276D01*
X150020034Y-101083210D01*
X150024932Y-101080420D01*
X150047405Y-101064528D01*
X150070761Y-101049973D01*
X150079304Y-101041970D01*
X150088862Y-101035211D01*
X150107820Y-101015257D01*
X150127905Y-100996441D01*
X150134731Y-100986930D01*
X150142793Y-100978445D01*
X150157512Y-100955192D01*
X150173562Y-100932831D01*
X150178411Y-100922177D01*
X150184672Y-100912285D01*
X150194595Y-100886614D01*
X150205995Y-100861563D01*
X150207769Y-100856250D01*
X150215840Y-100831512D01*
X150223759Y-100795704D01*
X150232133Y-100759907D01*
X150232737Y-100755103D01*
X150232747Y-100755058D01*
X150232748Y-100755017D01*
X150232832Y-100754348D01*
X150239392Y-100699066D01*
X150239559Y-100690883D01*
X150240985Y-100682824D01*
X150241379Y-100677235D01*
X150246425Y-100597834D01*
X150246334Y-100595176D01*
X150246726Y-100592546D01*
X150246969Y-100586949D01*
X150250495Y-100489856D01*
X150250447Y-100489078D01*
X150250548Y-100488308D01*
X150250691Y-100482707D01*
X150252693Y-100374350D01*
X150252688Y-100374285D01*
X150252695Y-100374223D01*
X150252757Y-100368621D01*
X150253232Y-100255423D01*
X150253232Y-100255420D01*
X150253218Y-100249933D01*
X150252159Y-100138321D01*
X150252124Y-100138000D01*
X150252152Y-100137682D01*
X150252051Y-100132081D01*
X150249456Y-100028483D01*
X150249275Y-100027017D01*
X150249372Y-100025536D01*
X150249151Y-100019938D01*
X150245015Y-99930777D01*
X150244359Y-99926255D01*
X150244490Y-99921685D01*
X150244064Y-99916099D01*
X150238381Y-99847803D01*
X150235579Y-99832474D01*
X150234600Y-99816914D01*
X150233665Y-99811390D01*
X150226433Y-99770384D01*
X150221295Y-99751985D01*
X150218026Y-99733162D01*
X150210791Y-99714367D01*
X150205374Y-99694968D01*
X150196758Y-99677914D01*
X150189897Y-99660089D01*
X150187349Y-99655100D01*
X150182989Y-99646708D01*
X150174070Y-99633002D01*
X150170068Y-99625080D01*
X150164173Y-99617535D01*
X150150011Y-99593751D01*
X150144650Y-99587791D01*
X150140282Y-99581079D01*
X150118514Y-99558736D01*
X150097645Y-99535537D01*
X150091232Y-99530735D01*
X150085641Y-99524996D01*
X150059940Y-99507302D01*
X150034970Y-99488603D01*
X150027747Y-99485138D01*
X150021147Y-99480594D01*
X149992502Y-99468230D01*
X149964373Y-99454736D01*
X149959097Y-99452854D01*
X149934824Y-99444388D01*
X149919705Y-99440723D01*
X149905131Y-99435305D01*
X149899705Y-99433912D01*
X149844433Y-99420139D01*
X149841978Y-99419777D01*
X149839631Y-99418974D01*
X149834170Y-99417725D01*
X149753405Y-99399840D01*
X149753334Y-99399831D01*
X149753265Y-99399809D01*
X149747787Y-99398638D01*
X149647037Y-99377836D01*
X149646961Y-99377828D01*
X149642882Y-99377001D01*
X149527653Y-99354476D01*
X149527560Y-99354467D01*
X149524823Y-99353933D01*
X149462042Y-99342128D01*
X149462021Y-99342126D01*
X149461624Y-99342049D01*
X149343316Y-99319934D01*
X149248675Y-99301961D01*
X149239105Y-99279813D01*
X149201655Y-99192103D01*
X149164253Y-99103577D01*
X149149134Y-99067369D01*
X149171547Y-99033746D01*
X149235094Y-98940096D01*
X149272401Y-98885773D01*
X149272434Y-98885713D01*
X149273059Y-98884811D01*
X149342105Y-98783642D01*
X149342143Y-98783572D01*
X149344391Y-98780256D01*
X149405716Y-98688404D01*
X149405734Y-98688370D01*
X149408459Y-98684240D01*
X149459072Y-98606354D01*
X149459571Y-98605392D01*
X149460244Y-98604540D01*
X149463238Y-98599805D01*
X149500146Y-98540531D01*
X149502965Y-98534829D01*
X149506675Y-98529666D01*
X149509451Y-98524799D01*
X149529662Y-98488781D01*
X149541783Y-98461165D01*
X149548033Y-98448506D01*
X149551818Y-98441584D01*
X149552464Y-98439531D01*
X149555140Y-98434111D01*
X149557082Y-98428856D01*
X149560000Y-98420783D01*
X149560679Y-98418116D01*
X149561132Y-98417083D01*
X149562420Y-98411273D01*
X149566910Y-98393628D01*
X149575323Y-98366894D01*
X149576547Y-98355756D01*
X149579309Y-98344900D01*
X149580813Y-98316925D01*
X149583874Y-98289062D01*
X149582911Y-98277898D01*
X149583512Y-98266713D01*
X149579552Y-98238973D01*
X149577143Y-98211051D01*
X149574030Y-98200287D01*
X149572447Y-98189198D01*
X149563176Y-98162758D01*
X149555389Y-98135834D01*
X149550244Y-98125878D01*
X149546538Y-98115309D01*
X149532308Y-98091174D01*
X149519439Y-98066274D01*
X149516361Y-98061594D01*
X149503813Y-98042801D01*
X149489801Y-98025701D01*
X149477294Y-98007464D01*
X149473660Y-98003201D01*
X149438970Y-97963074D01*
X149436509Y-97960734D01*
X149434500Y-97957990D01*
X149430736Y-97953841D01*
X149378336Y-97896877D01*
X149378205Y-97896760D01*
X149378101Y-97896622D01*
X149374276Y-97892528D01*
X149308597Y-97823220D01*
X149308526Y-97823159D01*
X149305943Y-97820447D01*
X149231415Y-97743293D01*
X149231343Y-97743232D01*
X149229314Y-97741134D01*
X149150371Y-97660628D01*
X149150296Y-97660565D01*
X149148378Y-97658609D01*
X149069447Y-97579247D01*
X149069374Y-97579187D01*
X149067216Y-97577021D01*
X148992733Y-97503298D01*
X148992674Y-97503250D01*
X148989726Y-97500353D01*
X148924120Y-97436765D01*
X148923589Y-97436342D01*
X148923142Y-97435819D01*
X148919079Y-97431962D01*
X148866780Y-97383004D01*
X148862580Y-97379780D01*
X148858984Y-97375896D01*
X148854770Y-97372206D01*
X148820212Y-97342373D01*
X148796262Y-97325475D01*
X148773154Y-97307406D01*
X148768404Y-97304436D01*
X148756843Y-97297317D01*
X148747922Y-97292961D01*
X148739727Y-97287351D01*
X148712800Y-97275813D01*
X148686481Y-97262963D01*
X148676881Y-97260422D01*
X148667755Y-97256512D01*
X148639103Y-97250424D01*
X148610787Y-97242930D01*
X148600880Y-97242302D01*
X148591164Y-97240238D01*
X148561883Y-97239832D01*
X148532643Y-97237980D01*
X148522791Y-97239290D01*
X148512871Y-97239153D01*
X148484082Y-97244439D01*
X148455026Y-97248304D01*
X148445621Y-97251501D01*
X148435858Y-97253294D01*
X148408627Y-97264078D01*
X148380892Y-97273507D01*
X148372292Y-97278468D01*
X148363059Y-97282124D01*
X148358095Y-97284720D01*
X148339271Y-97294731D01*
X148329958Y-97300920D01*
X148319869Y-97305752D01*
X148315097Y-97308687D01*
X148270074Y-97336812D01*
X148269550Y-97337215D01*
X148268959Y-97337511D01*
X148264238Y-97340528D01*
X148197395Y-97383903D01*
X148197318Y-97383964D01*
X148194419Y-97385853D01*
X148110131Y-97441617D01*
X148110052Y-97441681D01*
X148108043Y-97443008D01*
X148010688Y-97508296D01*
X148010622Y-97508350D01*
X148009155Y-97509329D01*
X147935718Y-97559069D01*
X147935686Y-97559096D01*
X147935109Y-97559482D01*
X147742776Y-97690268D01*
X147525061Y-97600519D01*
X147481530Y-97369606D01*
X147397709Y-96924982D01*
X147397588Y-96924567D01*
X147397548Y-96924130D01*
X147386588Y-96886892D01*
X147375764Y-96849819D01*
X147375563Y-96849432D01*
X147375440Y-96849015D01*
X147357525Y-96814746D01*
X147339638Y-96780351D01*
X147339366Y-96780011D01*
X147339164Y-96779625D01*
X147314922Y-96749475D01*
X147290706Y-96719222D01*
X147290373Y-96718941D01*
X147290100Y-96718602D01*
X147260427Y-96693703D01*
X147230834Y-96668762D01*
X147230454Y-96668552D01*
X147230119Y-96668271D01*
X147196251Y-96649652D01*
X147162300Y-96630892D01*
X147161882Y-96630758D01*
X147161503Y-96630550D01*
X147124549Y-96618827D01*
X147087716Y-96607056D01*
X147087287Y-96607007D01*
X147086868Y-96606874D01*
X147048195Y-96602536D01*
X147009922Y-96598159D01*
X147009488Y-96598194D01*
X147009056Y-96598146D01*
X147003454Y-96598107D01*
X146078006Y-96598107D01*
X146077572Y-96598150D01*
X146077138Y-96598108D01*
X146038515Y-96601979D01*
X146000079Y-96605748D01*
X145999664Y-96605873D01*
X145999228Y-96605917D01*
X145962181Y-96617190D01*
X145925121Y-96628379D01*
X145924734Y-96628585D01*
X145924319Y-96628711D01*
X145890274Y-96646907D01*
X145855985Y-96665139D01*
X145855647Y-96665415D01*
X145855263Y-96665620D01*
X145825221Y-96690230D01*
X145795307Y-96714627D01*
X145795031Y-96714960D01*
X145794691Y-96715239D01*
X145770018Y-96745196D01*
X145745396Y-96774959D01*
X145745188Y-96775344D01*
X145744912Y-96775679D01*
X145726545Y-96809825D01*
X145708155Y-96843836D01*
X145708027Y-96844249D01*
X145707819Y-96844636D01*
X145696418Y-96881751D01*
X145685000Y-96918635D01*
X145684954Y-96919069D01*
X145684827Y-96919484D01*
X145683751Y-96924982D01*
X145599949Y-97369512D01*
X145599931Y-97369606D01*
X145556399Y-97600520D01*
X145448247Y-97645104D01*
X145448175Y-97645133D01*
X145338685Y-97690268D01*
X145146351Y-97559482D01*
X145146300Y-97559454D01*
X145145456Y-97558875D01*
X145041545Y-97488625D01*
X145041462Y-97488580D01*
X145039645Y-97487348D01*
X144945714Y-97424624D01*
X144945628Y-97424578D01*
X144943386Y-97423081D01*
X144863821Y-97370747D01*
X144863759Y-97370715D01*
X144860236Y-97368416D01*
X144799418Y-97329335D01*
X144797638Y-97328423D01*
X144796056Y-97327198D01*
X144791292Y-97324250D01*
X144753605Y-97301286D01*
X144738442Y-97293970D01*
X144724178Y-97285005D01*
X144719149Y-97282536D01*
X144708885Y-97277585D01*
X144697332Y-97273346D01*
X144686451Y-97267598D01*
X144660655Y-97259887D01*
X144635377Y-97250611D01*
X144623218Y-97248696D01*
X144611430Y-97245172D01*
X144584631Y-97242618D01*
X144558031Y-97238428D01*
X144545735Y-97238911D01*
X144533483Y-97237743D01*
X144506695Y-97240444D01*
X144479790Y-97241500D01*
X144467819Y-97244363D01*
X144455577Y-97245597D01*
X144429821Y-97253450D01*
X144403637Y-97259712D01*
X144392455Y-97264843D01*
X144380681Y-97268433D01*
X144356935Y-97281142D01*
X144332471Y-97292368D01*
X144322500Y-97299572D01*
X144311647Y-97305381D01*
X144307011Y-97308527D01*
X144288522Y-97321261D01*
X144271537Y-97335593D01*
X144253392Y-97348441D01*
X144249183Y-97352139D01*
X144209673Y-97387345D01*
X144207369Y-97389842D01*
X144204666Y-97391884D01*
X144200573Y-97395709D01*
X144144471Y-97448889D01*
X144144360Y-97449017D01*
X144144225Y-97449122D01*
X144140190Y-97453008D01*
X144071925Y-97519664D01*
X144071867Y-97519733D01*
X144069201Y-97522349D01*
X143993203Y-97597984D01*
X143993138Y-97598063D01*
X143991081Y-97600112D01*
X143911776Y-97680229D01*
X143911713Y-97680307D01*
X143909799Y-97682240D01*
X143831615Y-97762343D01*
X143831552Y-97762422D01*
X143829430Y-97764599D01*
X143756798Y-97840190D01*
X143756755Y-97840244D01*
X143753912Y-97843225D01*
X143691260Y-97909806D01*
X143690858Y-97910327D01*
X143690362Y-97910763D01*
X143686565Y-97914882D01*
X143638321Y-97967954D01*
X143635192Y-97972156D01*
X143631406Y-97975764D01*
X143627776Y-97980031D01*
X143598369Y-98015100D01*
X143582058Y-98038938D01*
X143564539Y-98061914D01*
X143561627Y-98066700D01*
X143554596Y-98078436D01*
X143539052Y-98111282D01*
X143523060Y-98143871D01*
X143522324Y-98146628D01*
X143521102Y-98149211D01*
X143512245Y-98184407D01*
X143502875Y-98219525D01*
X143502688Y-98222380D01*
X143501993Y-98225144D01*
X143500141Y-98261381D01*
X143497771Y-98297659D01*
X143498142Y-98300490D01*
X143497996Y-98303343D01*
X143503222Y-98339281D01*
X143507939Y-98375296D01*
X143508853Y-98378003D01*
X143509264Y-98380828D01*
X143521365Y-98415048D01*
X143532994Y-98449479D01*
X143535332Y-98454571D01*
X143545450Y-98476208D01*
X143554447Y-98491384D01*
X143561761Y-98507436D01*
X143564604Y-98512263D01*
X143592968Y-98559665D01*
X143594614Y-98561890D01*
X143595832Y-98564378D01*
X143598807Y-98569125D01*
X143642437Y-98637656D01*
X143642539Y-98637786D01*
X143642612Y-98637930D01*
X143645657Y-98642632D01*
X143701568Y-98727653D01*
X143701614Y-98727710D01*
X143703960Y-98731249D01*
X143769173Y-98828127D01*
X143769234Y-98828201D01*
X143770824Y-98830561D01*
X143808424Y-98885544D01*
X143876480Y-98985241D01*
X143932140Y-99068045D01*
X143922687Y-99090683D01*
X143885607Y-99178454D01*
X143847973Y-99266634D01*
X143832733Y-99301947D01*
X143797275Y-99308747D01*
X143685495Y-99329817D01*
X143620075Y-99342005D01*
X143620000Y-99342027D01*
X143618520Y-99342298D01*
X143498012Y-99365242D01*
X143497933Y-99365265D01*
X143494147Y-99365997D01*
X143385300Y-99387830D01*
X143385249Y-99387846D01*
X143380624Y-99388797D01*
X143288946Y-99408324D01*
X143288108Y-99408590D01*
X143287229Y-99408693D01*
X143281764Y-99409923D01*
X143212758Y-99425949D01*
X143207306Y-99427792D01*
X143201625Y-99428703D01*
X143196217Y-99430163D01*
X143155394Y-99441494D01*
X143131413Y-99450754D01*
X143106868Y-99458378D01*
X143101721Y-99460590D01*
X143093514Y-99464185D01*
X143086602Y-99468057D01*
X143082349Y-99469699D01*
X143082084Y-99469866D01*
X143077851Y-99471451D01*
X143051843Y-99487527D01*
X143025200Y-99502451D01*
X143018617Y-99508064D01*
X143011247Y-99512620D01*
X142988861Y-99533439D01*
X142965621Y-99553256D01*
X142960250Y-99560046D01*
X142953909Y-99565943D01*
X142935995Y-99590709D01*
X142917044Y-99614667D01*
X142913096Y-99622367D01*
X142908019Y-99629386D01*
X142895258Y-99657159D01*
X142881320Y-99684343D01*
X142878941Y-99692669D01*
X142875327Y-99700535D01*
X142873533Y-99705842D01*
X142865496Y-99730174D01*
X142857260Y-99766783D01*
X142848712Y-99803428D01*
X142848332Y-99806467D01*
X142848310Y-99806565D01*
X142848307Y-99806664D01*
X142848017Y-99808987D01*
X142841532Y-99863940D01*
X142841368Y-99872226D01*
X142839933Y-99880393D01*
X142839545Y-99885982D01*
X142834608Y-99965131D01*
X142834703Y-99967816D01*
X142834311Y-99970470D01*
X142834076Y-99976067D01*
X142830682Y-100072985D01*
X142830731Y-100073773D01*
X142830630Y-100074556D01*
X142830495Y-100080156D01*
X142828641Y-100188417D01*
X142828646Y-100188480D01*
X142828638Y-100188551D01*
X142828584Y-100194153D01*
X142828264Y-100307210D01*
X137472400Y-100307210D01*
X137472400Y-97217788D01*
X137553800Y-97217788D01*
X137553800Y-97532212D01*
X137615141Y-97840594D01*
X137735466Y-98131084D01*
X137910151Y-98392518D01*
X138132482Y-98614849D01*
X138393916Y-98789534D01*
X138684406Y-98909859D01*
X138992788Y-98971200D01*
X139307212Y-98971200D01*
X139615594Y-98909859D01*
X139906084Y-98789534D01*
X140167518Y-98614849D01*
X140389849Y-98392518D01*
X140564534Y-98131084D01*
X140684859Y-97840594D01*
X140746200Y-97532212D01*
X140746200Y-97217788D01*
X140684859Y-96909406D01*
X140564534Y-96618916D01*
X140389849Y-96357482D01*
X140167518Y-96135151D01*
X139906084Y-95960466D01*
X139615594Y-95840141D01*
X139307212Y-95778800D01*
X138992788Y-95778800D01*
X138684406Y-95840141D01*
X138393916Y-95960466D01*
X138132482Y-96135151D01*
X137910151Y-96357482D01*
X137735466Y-96618916D01*
X137615141Y-96909406D01*
X137553800Y-97217788D01*
X137472400Y-97217788D01*
X137472400Y-96247121D01*
X137505043Y-96214478D01*
X137576200Y-96107985D01*
X137625213Y-95989656D01*
X137650200Y-95864039D01*
X137650200Y-95735961D01*
X137625213Y-95610344D01*
X137576200Y-95492015D01*
X137505043Y-95385522D01*
X137414478Y-95294957D01*
X137307985Y-95223800D01*
X137189656Y-95174787D01*
X137064039Y-95149800D01*
X136935961Y-95149800D01*
X136810344Y-95174787D01*
X136692015Y-95223800D01*
X136585522Y-95294957D01*
X136494957Y-95385522D01*
X136423800Y-95492015D01*
X136374787Y-95610344D01*
X136349800Y-95735961D01*
X136349800Y-95864039D01*
X136374787Y-95989656D01*
X136423800Y-96107985D01*
X136494957Y-96214478D01*
X136527601Y-96247122D01*
X136527600Y-100501800D01*
X136525315Y-100525000D01*
X136534436Y-100617606D01*
X136541631Y-100641324D01*
X136561448Y-100706653D01*
X136605314Y-100788721D01*
X136664347Y-100860653D01*
X136682370Y-100875444D01*
X137704726Y-101897800D01*
X134438168Y-101897800D01*
X134400000Y-101894041D01*
X134361832Y-101897800D01*
X134361824Y-101897800D01*
X134260985Y-101907732D01*
X134247641Y-101909046D01*
X134208815Y-101920824D01*
X134101140Y-101953487D01*
X133966122Y-102025655D01*
X133902664Y-102077734D01*
X133886986Y-102090601D01*
X133847778Y-102122778D01*
X133823443Y-102152430D01*
X131143075Y-104832800D01*
X125937315Y-104832800D01*
X123467605Y-102363090D01*
X124603800Y-102363090D01*
X124603800Y-102716910D01*
X124672827Y-103063932D01*
X124808228Y-103390820D01*
X125004800Y-103685011D01*
X125254989Y-103935200D01*
X125549180Y-104131772D01*
X125876068Y-104267173D01*
X126223090Y-104336200D01*
X126576910Y-104336200D01*
X126923932Y-104267173D01*
X127250820Y-104131772D01*
X127545011Y-103935200D01*
X127795200Y-103685011D01*
X127991772Y-103390820D01*
X128127173Y-103063932D01*
X128196200Y-102716910D01*
X128196200Y-102363090D01*
X128127173Y-102016068D01*
X127991772Y-101689180D01*
X127795200Y-101394989D01*
X127545011Y-101144800D01*
X127250820Y-100948228D01*
X126923932Y-100812827D01*
X126576910Y-100743800D01*
X126223090Y-100743800D01*
X125876068Y-100812827D01*
X125549180Y-100948228D01*
X125254989Y-101144800D01*
X125004800Y-101394989D01*
X124808228Y-101689180D01*
X124672827Y-102016068D01*
X124603800Y-102363090D01*
X123467605Y-102363090D01*
X120033907Y-98929393D01*
X120016643Y-98908357D01*
X119932712Y-98839476D01*
X119836956Y-98788294D01*
X119733054Y-98756775D01*
X119652079Y-98748800D01*
X119652069Y-98748800D01*
X119625000Y-98746134D01*
X119597931Y-98748800D01*
X110415176Y-98748800D01*
X109307798Y-97283090D01*
X124603800Y-97283090D01*
X124603800Y-97636910D01*
X124672827Y-97983932D01*
X124808228Y-98310820D01*
X125004800Y-98605011D01*
X125254989Y-98855200D01*
X125549180Y-99051772D01*
X125876068Y-99187173D01*
X126223090Y-99256200D01*
X126576910Y-99256200D01*
X126923932Y-99187173D01*
X127250820Y-99051772D01*
X127251441Y-99051357D01*
X128551873Y-100351790D01*
X128568252Y-100371748D01*
X128588209Y-100388126D01*
X128588211Y-100388128D01*
X128615030Y-100410137D01*
X128647920Y-100437129D01*
X128738811Y-100485712D01*
X128837435Y-100515629D01*
X128914303Y-100523200D01*
X128914312Y-100523200D01*
X128939999Y-100525730D01*
X128965686Y-100523200D01*
X132292681Y-100523200D01*
X132292827Y-100523932D01*
X132428228Y-100850820D01*
X132624800Y-101145011D01*
X132874989Y-101395200D01*
X133169180Y-101591772D01*
X133496068Y-101727173D01*
X133843090Y-101796200D01*
X134196910Y-101796200D01*
X134543932Y-101727173D01*
X134870820Y-101591772D01*
X135165011Y-101395200D01*
X135415200Y-101145011D01*
X135611772Y-100850820D01*
X135747173Y-100523932D01*
X135816200Y-100176910D01*
X135816200Y-99823090D01*
X135747173Y-99476068D01*
X135611772Y-99149180D01*
X135415200Y-98854989D01*
X135165011Y-98604800D01*
X134870820Y-98408228D01*
X134543932Y-98272827D01*
X134196910Y-98203800D01*
X133843090Y-98203800D01*
X133496068Y-98272827D01*
X133169180Y-98408228D01*
X132874989Y-98604800D01*
X132624800Y-98854989D01*
X132428228Y-99149180D01*
X132292827Y-99476068D01*
X132292681Y-99476800D01*
X129156717Y-99476800D01*
X127991357Y-98311441D01*
X127991772Y-98310820D01*
X128127173Y-97983932D01*
X128196200Y-97636910D01*
X128196200Y-97283090D01*
X128127173Y-96936068D01*
X127991772Y-96609180D01*
X127795200Y-96314989D01*
X127545011Y-96064800D01*
X127250820Y-95868228D01*
X126923932Y-95732827D01*
X126576910Y-95663800D01*
X126223090Y-95663800D01*
X125876068Y-95732827D01*
X125549180Y-95868228D01*
X125254989Y-96064800D01*
X125004800Y-96314989D01*
X124808228Y-96609180D01*
X124672827Y-96936068D01*
X124603800Y-97283090D01*
X109307798Y-97283090D01*
X108460200Y-96161223D01*
X108460200Y-96150961D01*
X108435213Y-96025344D01*
X108386200Y-95907015D01*
X108315043Y-95800522D01*
X108224478Y-95709957D01*
X108117985Y-95638800D01*
X107999656Y-95589787D01*
X107874039Y-95564800D01*
X107745961Y-95564800D01*
X107620344Y-95589787D01*
X107502015Y-95638800D01*
X107395522Y-95709957D01*
X107304957Y-95800522D01*
X107233800Y-95907015D01*
X107184787Y-96025344D01*
X107159800Y-96150961D01*
X101814036Y-96150961D01*
X100990335Y-95327260D01*
X108893800Y-95327260D01*
X108893800Y-95572740D01*
X108941691Y-95813503D01*
X109035632Y-96040297D01*
X109172013Y-96244406D01*
X109345594Y-96417987D01*
X109549703Y-96554368D01*
X109776497Y-96648309D01*
X110017260Y-96696200D01*
X110262740Y-96696200D01*
X110503503Y-96648309D01*
X110730297Y-96554368D01*
X110934406Y-96417987D01*
X111107987Y-96244406D01*
X111244368Y-96040297D01*
X111338309Y-95813503D01*
X111386200Y-95572740D01*
X111386200Y-95327260D01*
X111433800Y-95327260D01*
X111433800Y-95572740D01*
X111481691Y-95813503D01*
X111575632Y-96040297D01*
X111712013Y-96244406D01*
X111885594Y-96417987D01*
X112089703Y-96554368D01*
X112316497Y-96648309D01*
X112557260Y-96696200D01*
X112802740Y-96696200D01*
X113043503Y-96648309D01*
X113270297Y-96554368D01*
X113474406Y-96417987D01*
X113647987Y-96244406D01*
X113784368Y-96040297D01*
X113878309Y-95813503D01*
X113926200Y-95572740D01*
X113926200Y-95327260D01*
X113973800Y-95327260D01*
X113973800Y-95572740D01*
X114021691Y-95813503D01*
X114115632Y-96040297D01*
X114252013Y-96244406D01*
X114425594Y-96417987D01*
X114629703Y-96554368D01*
X114856497Y-96648309D01*
X115097260Y-96696200D01*
X115342740Y-96696200D01*
X115583503Y-96648309D01*
X115810297Y-96554368D01*
X116014406Y-96417987D01*
X116187987Y-96244406D01*
X116324368Y-96040297D01*
X116418309Y-95813503D01*
X116466200Y-95572740D01*
X116466200Y-95327260D01*
X116513800Y-95327260D01*
X116513800Y-95572740D01*
X116561691Y-95813503D01*
X116655632Y-96040297D01*
X116792013Y-96244406D01*
X116965594Y-96417987D01*
X117169703Y-96554368D01*
X117396497Y-96648309D01*
X117637260Y-96696200D01*
X117882740Y-96696200D01*
X118123503Y-96648309D01*
X118350297Y-96554368D01*
X118554406Y-96417987D01*
X118727987Y-96244406D01*
X118864368Y-96040297D01*
X118958309Y-95813503D01*
X119006200Y-95572740D01*
X119006200Y-95327260D01*
X118958309Y-95086497D01*
X118864368Y-94859703D01*
X118727987Y-94655594D01*
X118554406Y-94482013D01*
X118350297Y-94345632D01*
X118123503Y-94251691D01*
X117882740Y-94203800D01*
X117637260Y-94203800D01*
X117396497Y-94251691D01*
X117169703Y-94345632D01*
X116965594Y-94482013D01*
X116792013Y-94655594D01*
X116655632Y-94859703D01*
X116561691Y-95086497D01*
X116513800Y-95327260D01*
X116466200Y-95327260D01*
X116418309Y-95086497D01*
X116324368Y-94859703D01*
X116187987Y-94655594D01*
X116014406Y-94482013D01*
X115810297Y-94345632D01*
X115583503Y-94251691D01*
X115342740Y-94203800D01*
X115097260Y-94203800D01*
X114856497Y-94251691D01*
X114629703Y-94345632D01*
X114425594Y-94482013D01*
X114252013Y-94655594D01*
X114115632Y-94859703D01*
X114021691Y-95086497D01*
X113973800Y-95327260D01*
X113926200Y-95327260D01*
X113878309Y-95086497D01*
X113784368Y-94859703D01*
X113647987Y-94655594D01*
X113474406Y-94482013D01*
X113270297Y-94345632D01*
X113043503Y-94251691D01*
X112802740Y-94203800D01*
X112557260Y-94203800D01*
X112316497Y-94251691D01*
X112089703Y-94345632D01*
X111885594Y-94482013D01*
X111712013Y-94655594D01*
X111575632Y-94859703D01*
X111481691Y-95086497D01*
X111433800Y-95327260D01*
X111386200Y-95327260D01*
X111338309Y-95086497D01*
X111244368Y-94859703D01*
X111107987Y-94655594D01*
X110934406Y-94482013D01*
X110730297Y-94345632D01*
X110503503Y-94251691D01*
X110262740Y-94203800D01*
X110017260Y-94203800D01*
X109776497Y-94251691D01*
X109549703Y-94345632D01*
X109345594Y-94482013D01*
X109172013Y-94655594D01*
X109035632Y-94859703D01*
X108941691Y-95086497D01*
X108893800Y-95327260D01*
X100990335Y-95327260D01*
X100770444Y-95107370D01*
X100755653Y-95089347D01*
X100683721Y-95030314D01*
X100601654Y-94986448D01*
X100512606Y-94959436D01*
X100447549Y-94953028D01*
X100414478Y-94919957D01*
X100307985Y-94848800D01*
X100189656Y-94799787D01*
X100064039Y-94774800D01*
X99935961Y-94774800D01*
X99810344Y-94799787D01*
X99692015Y-94848800D01*
X99585522Y-94919957D01*
X99494957Y-95010522D01*
X99423800Y-95117015D01*
X99374787Y-95235344D01*
X99349800Y-95360961D01*
X99349800Y-95489039D01*
X99374787Y-95614656D01*
X99423800Y-95732985D01*
X99441693Y-95759764D01*
X99429870Y-95777459D01*
X99380857Y-95895788D01*
X99355870Y-96021405D01*
X99355870Y-96149483D01*
X99380857Y-96275100D01*
X99429870Y-96393429D01*
X99501027Y-96499922D01*
X99549562Y-96548457D01*
X99536823Y-96567523D01*
X99487810Y-96685852D01*
X99462823Y-96811469D01*
X99462823Y-96939547D01*
X99487810Y-97065164D01*
X99536823Y-97183493D01*
X99607980Y-97289986D01*
X99698545Y-97380551D01*
X99746310Y-97412467D01*
X99726635Y-97511378D01*
X99726635Y-97639456D01*
X99751622Y-97765073D01*
X99800635Y-97883402D01*
X99871792Y-97989895D01*
X99962357Y-98080460D01*
X100068850Y-98151617D01*
X100187179Y-98200630D01*
X100312796Y-98225617D01*
X100358961Y-98225617D01*
X106559973Y-104426629D01*
X106574764Y-104444652D01*
X106646696Y-104503685D01*
X106728763Y-104547551D01*
X106817811Y-104574563D01*
X106887217Y-104581399D01*
X106887226Y-104581399D01*
X106910416Y-104583683D01*
X106933606Y-104581399D01*
X108936218Y-104581399D01*
X108922188Y-104607647D01*
X108899533Y-104682331D01*
X108891883Y-104760000D01*
X108891883Y-106460000D01*
X108899533Y-106537669D01*
X108922188Y-106612353D01*
X108958978Y-106681182D01*
X109008489Y-106741511D01*
X109068818Y-106791022D01*
X109137647Y-106827812D01*
X109212331Y-106850467D01*
X109290000Y-106858117D01*
X110990000Y-106858117D01*
X111067669Y-106850467D01*
X111142353Y-106827812D01*
X111211182Y-106791022D01*
X111271511Y-106741511D01*
X111321022Y-106681182D01*
X111357812Y-106612353D01*
X111380467Y-106537669D01*
X111388117Y-106460000D01*
X111388117Y-104760000D01*
X111380467Y-104682331D01*
X111357812Y-104607647D01*
X111343782Y-104581399D01*
X111976309Y-104581399D01*
X111885594Y-104642013D01*
X111712013Y-104815594D01*
X111575632Y-105019703D01*
X111481691Y-105246497D01*
X111433800Y-105487260D01*
X111433800Y-105732740D01*
X111481691Y-105973503D01*
X111575632Y-106200297D01*
X111712013Y-106404406D01*
X111885594Y-106577987D01*
X112089703Y-106714368D01*
X112316497Y-106808309D01*
X112557260Y-106856200D01*
X112802740Y-106856200D01*
X113043503Y-106808309D01*
X113270297Y-106714368D01*
X113474406Y-106577987D01*
X113647987Y-106404406D01*
X113784368Y-106200297D01*
X113878309Y-105973503D01*
X113926200Y-105732740D01*
X113926200Y-105487260D01*
X113878309Y-105246497D01*
X113784368Y-105019703D01*
X113647987Y-104815594D01*
X113474406Y-104642013D01*
X113383691Y-104581399D01*
X114516309Y-104581399D01*
X114425594Y-104642013D01*
X114252013Y-104815594D01*
X114115632Y-105019703D01*
X114021691Y-105246497D01*
X113973800Y-105487260D01*
X113973800Y-105732740D01*
X114021691Y-105973503D01*
X114040815Y-106019671D01*
X113001686Y-107058800D01*
X100768905Y-107058800D01*
X100806200Y-107002985D01*
X100855213Y-106884656D01*
X100880200Y-106759039D01*
X100880200Y-106630961D01*
X100855213Y-106505344D01*
X100806200Y-106387015D01*
X100735043Y-106280522D01*
X100644478Y-106189957D01*
X100537985Y-106118800D01*
X100419656Y-106069787D01*
X100294039Y-106044800D01*
X100165961Y-106044800D01*
X100040344Y-106069787D01*
X99922015Y-106118800D01*
X99815522Y-106189957D01*
X99782879Y-106222600D01*
X98549466Y-106222600D01*
X98564368Y-106200297D01*
X98658309Y-105973503D01*
X98706200Y-105732740D01*
X98706200Y-105487260D01*
X98658309Y-105246497D01*
X98609474Y-105128600D01*
X100317630Y-103420444D01*
X100335653Y-103405653D01*
X100394686Y-103333721D01*
X100438552Y-103251654D01*
X100465564Y-103162606D01*
X100472400Y-103093200D01*
X100472400Y-103093191D01*
X100474684Y-103070001D01*
X100472400Y-103046811D01*
X100472400Y-99302121D01*
X100505043Y-99269478D01*
X100576200Y-99162985D01*
X100625213Y-99044656D01*
X100650200Y-98919039D01*
X100650200Y-98790961D01*
X100625213Y-98665344D01*
X100576200Y-98547015D01*
X100505043Y-98440522D01*
X100414478Y-98349957D01*
X100307985Y-98278800D01*
X100189656Y-98229787D01*
X100064039Y-98204800D01*
X99935961Y-98204800D01*
X99810344Y-98229787D01*
X99692015Y-98278800D01*
X99585522Y-98349957D01*
X99494957Y-98440522D01*
X99423800Y-98547015D01*
X99374787Y-98665344D01*
X99349800Y-98790961D01*
X99349800Y-98919039D01*
X99374787Y-99044656D01*
X99423800Y-99162985D01*
X99494957Y-99269478D01*
X99527600Y-99302121D01*
X99527601Y-102874325D01*
X97941400Y-104460526D01*
X97823503Y-104411691D01*
X97582740Y-104363800D01*
X97337260Y-104363800D01*
X97096497Y-104411691D01*
X96869703Y-104505632D01*
X96832400Y-104530557D01*
X96832400Y-103662121D01*
X96865043Y-103629478D01*
X96936200Y-103522985D01*
X96985213Y-103404656D01*
X97010200Y-103279039D01*
X97010200Y-103150961D01*
X96985213Y-103025344D01*
X96936200Y-102907015D01*
X96865043Y-102800522D01*
X96774478Y-102709957D01*
X96667985Y-102638800D01*
X96549656Y-102589787D01*
X96424039Y-102564800D01*
X96295961Y-102564800D01*
X96170344Y-102589787D01*
X96052015Y-102638800D01*
X95945522Y-102709957D01*
X95854957Y-102800522D01*
X95783800Y-102907015D01*
X95734787Y-103025344D01*
X95709800Y-103150961D01*
X95709800Y-103279039D01*
X95734787Y-103404656D01*
X95783800Y-103522985D01*
X95854957Y-103629478D01*
X95887600Y-103662121D01*
X95887601Y-104815208D01*
X95714406Y-104642013D01*
X95510297Y-104505632D01*
X95283503Y-104411691D01*
X95042740Y-104363800D01*
X94797260Y-104363800D01*
X94556497Y-104411691D01*
X94329703Y-104505632D01*
X94192400Y-104597375D01*
X94192400Y-103752121D01*
X94225043Y-103719478D01*
X94296200Y-103612985D01*
X94345213Y-103494656D01*
X94370200Y-103369039D01*
X94370200Y-103240961D01*
X94345213Y-103115344D01*
X94296200Y-102997015D01*
X94225043Y-102890522D01*
X94134478Y-102799957D01*
X94027985Y-102728800D01*
X93909656Y-102679787D01*
X93784039Y-102654800D01*
X93655961Y-102654800D01*
X93530344Y-102679787D01*
X93412015Y-102728800D01*
X93305522Y-102799957D01*
X93214957Y-102890522D01*
X93143800Y-102997015D01*
X93094787Y-103115344D01*
X93069800Y-103240961D01*
X93069800Y-103369039D01*
X93094787Y-103494656D01*
X93143800Y-103612985D01*
X93214957Y-103719478D01*
X93247600Y-103752121D01*
X93247601Y-104715208D01*
X93174406Y-104642013D01*
X92970297Y-104505632D01*
X92743503Y-104411691D01*
X92502740Y-104363800D01*
X92257260Y-104363800D01*
X92016497Y-104411691D01*
X91789703Y-104505632D01*
X91585594Y-104642013D01*
X91412013Y-104815594D01*
X91275632Y-105019703D01*
X91181691Y-105246497D01*
X91133800Y-105487260D01*
X91133800Y-105732740D01*
X91181691Y-105973503D01*
X91275632Y-106200297D01*
X91412013Y-106404406D01*
X91585594Y-106577987D01*
X91789703Y-106714368D01*
X92016497Y-106808309D01*
X92257260Y-106856200D01*
X92502740Y-106856200D01*
X92743503Y-106808309D01*
X92970297Y-106714368D01*
X93174406Y-106577987D01*
X93347987Y-106404406D01*
X93387802Y-106344818D01*
X93402366Y-106356770D01*
X94058226Y-107012630D01*
X94073017Y-107030653D01*
X94107314Y-107058800D01*
X75856116Y-107058800D01*
X78211790Y-104703127D01*
X78231748Y-104686748D01*
X78248129Y-104666788D01*
X78297129Y-104607081D01*
X78333616Y-104538818D01*
X78345712Y-104516189D01*
X78375629Y-104417565D01*
X78383200Y-104340697D01*
X78383200Y-104340695D01*
X78385731Y-104315000D01*
X78383200Y-104289305D01*
X78383200Y-103722304D01*
X78436200Y-103642985D01*
X78485213Y-103524656D01*
X78510200Y-103399039D01*
X78510200Y-103270961D01*
X78485213Y-103145344D01*
X78436200Y-103027015D01*
X78365043Y-102920522D01*
X78274478Y-102829957D01*
X78167985Y-102758800D01*
X78049656Y-102709787D01*
X77924039Y-102684800D01*
X77795961Y-102684800D01*
X77670344Y-102709787D01*
X77552015Y-102758800D01*
X77445522Y-102829957D01*
X77354957Y-102920522D01*
X77283800Y-103027015D01*
X77234787Y-103145344D01*
X77209800Y-103270961D01*
X77209800Y-103399039D01*
X77234787Y-103524656D01*
X77283800Y-103642985D01*
X77336800Y-103722305D01*
X77336801Y-104098282D01*
X74376285Y-107058800D01*
X68013314Y-107058800D01*
X66913905Y-105959391D01*
X66896643Y-105938357D01*
X66812712Y-105869476D01*
X66716956Y-105818294D01*
X66613054Y-105786775D01*
X66532079Y-105778800D01*
X66532069Y-105778800D01*
X66505000Y-105776134D01*
X66477931Y-105778800D01*
X64581081Y-105778800D01*
X64576200Y-105767015D01*
X64505043Y-105660522D01*
X64414478Y-105569957D01*
X64307985Y-105498800D01*
X64189656Y-105449787D01*
X64064039Y-105424800D01*
X63935961Y-105424800D01*
X63810344Y-105449787D01*
X63692015Y-105498800D01*
X63585522Y-105569957D01*
X63494957Y-105660522D01*
X63423800Y-105767015D01*
X63374787Y-105885344D01*
X63349800Y-106010961D01*
X63349800Y-106139039D01*
X63374787Y-106264656D01*
X63423800Y-106382985D01*
X63494957Y-106489478D01*
X63585522Y-106580043D01*
X63692015Y-106651200D01*
X63810344Y-106700213D01*
X63852467Y-106708592D01*
X63862356Y-106720642D01*
X63946287Y-106789523D01*
X64032118Y-106835400D01*
X64042043Y-106840705D01*
X64145944Y-106872224D01*
X64155337Y-106873149D01*
X64226920Y-106880199D01*
X64226927Y-106880199D01*
X64253999Y-106882865D01*
X64281071Y-106880199D01*
X64402757Y-106880199D01*
X64440000Y-106883867D01*
X64467079Y-106881200D01*
X64599888Y-106881200D01*
X64589003Y-106892162D01*
X64558511Y-106922021D01*
X64554322Y-106927085D01*
X64554319Y-106927088D01*
X64554317Y-106927091D01*
X64418632Y-107093458D01*
X64395000Y-107129027D01*
X64370872Y-107164266D01*
X64367742Y-107170054D01*
X64266954Y-107359607D01*
X64250657Y-107399147D01*
X64233856Y-107438346D01*
X64231910Y-107444631D01*
X64206498Y-107528800D01*
X60123044Y-107528800D01*
X59803493Y-107497468D01*
X59518281Y-107411357D01*
X59255224Y-107271486D01*
X59024347Y-107083187D01*
X58834443Y-106853633D01*
X58692738Y-106591556D01*
X58604640Y-106306955D01*
X58571200Y-105988799D01*
X58571200Y-102705000D01*
X58633617Y-102705000D01*
X58654299Y-102914992D01*
X58715552Y-103116914D01*
X58815020Y-103303006D01*
X58948882Y-103466118D01*
X59111994Y-103599980D01*
X59298086Y-103699448D01*
X59500008Y-103760701D01*
X59657375Y-103776200D01*
X60112625Y-103776200D01*
X60269992Y-103760701D01*
X60471914Y-103699448D01*
X60658006Y-103599980D01*
X60821118Y-103466118D01*
X60954980Y-103303006D01*
X60979998Y-103256200D01*
X62288966Y-103256200D01*
X62321153Y-103273404D01*
X62499512Y-103327509D01*
X62638519Y-103341200D01*
X63131481Y-103341200D01*
X63270488Y-103327509D01*
X63448847Y-103273404D01*
X63613224Y-103185543D01*
X63757302Y-103067302D01*
X63875543Y-102923224D01*
X63963404Y-102758847D01*
X64017509Y-102580488D01*
X64035778Y-102395000D01*
X64017509Y-102209512D01*
X63963404Y-102031153D01*
X63875543Y-101866776D01*
X63757302Y-101722698D01*
X63613224Y-101604457D01*
X63448847Y-101516596D01*
X63270488Y-101462491D01*
X63131481Y-101448800D01*
X62638519Y-101448800D01*
X62499512Y-101462491D01*
X62321153Y-101516596D01*
X62156776Y-101604457D01*
X62012698Y-101722698D01*
X61894457Y-101866776D01*
X61806596Y-102031153D01*
X61769391Y-102153800D01*
X60979998Y-102153800D01*
X60954980Y-102106994D01*
X60821118Y-101943882D01*
X60658006Y-101810020D01*
X60471914Y-101710552D01*
X60269992Y-101649299D01*
X60112625Y-101633800D01*
X59657375Y-101633800D01*
X59500008Y-101649299D01*
X59298086Y-101710552D01*
X59111994Y-101810020D01*
X58948882Y-101943882D01*
X58815020Y-102106994D01*
X58715552Y-102293086D01*
X58654299Y-102495008D01*
X58633617Y-102705000D01*
X58571200Y-102705000D01*
X58571200Y-99277474D01*
X63966313Y-99277474D01*
X63966313Y-99405552D01*
X63991300Y-99531169D01*
X64040313Y-99649498D01*
X64111470Y-99755991D01*
X64202035Y-99846556D01*
X64308528Y-99917713D01*
X64426857Y-99966726D01*
X64453062Y-99971938D01*
X64458274Y-99998143D01*
X64507287Y-100116472D01*
X64578444Y-100222965D01*
X64669009Y-100313530D01*
X64775502Y-100384687D01*
X64893831Y-100433700D01*
X65019448Y-100458687D01*
X65147526Y-100458687D01*
X65273143Y-100433700D01*
X65391472Y-100384687D01*
X65497965Y-100313530D01*
X65588530Y-100222965D01*
X65659687Y-100116472D01*
X65708700Y-99998143D01*
X65733687Y-99872526D01*
X65733687Y-99797624D01*
X65802566Y-99728745D01*
X65783800Y-99823090D01*
X65783800Y-100176910D01*
X65852827Y-100523932D01*
X65988228Y-100850820D01*
X66184800Y-101145011D01*
X66434989Y-101395200D01*
X66729180Y-101591772D01*
X67056068Y-101727173D01*
X67403090Y-101796200D01*
X67756910Y-101796200D01*
X68103932Y-101727173D01*
X68430820Y-101591772D01*
X68725011Y-101395200D01*
X68975200Y-101145011D01*
X69171772Y-100850820D01*
X69307173Y-100523932D01*
X69376200Y-100176910D01*
X69376200Y-99823090D01*
X69335086Y-99616398D01*
X69719968Y-100001280D01*
X69720353Y-100001749D01*
X70354211Y-100635607D01*
X70371475Y-100656643D01*
X70455406Y-100725524D01*
X70551162Y-100776706D01*
X70655064Y-100808225D01*
X70736039Y-100816200D01*
X70736048Y-100816200D01*
X70763117Y-100818866D01*
X70790187Y-100816200D01*
X74667925Y-100816200D01*
X74349180Y-100948228D01*
X74054989Y-101144800D01*
X73804800Y-101394989D01*
X73608228Y-101689180D01*
X73472827Y-102016068D01*
X73403800Y-102363090D01*
X73403800Y-102716910D01*
X73472827Y-103063932D01*
X73608228Y-103390820D01*
X73804800Y-103685011D01*
X74054989Y-103935200D01*
X74349180Y-104131772D01*
X74676068Y-104267173D01*
X75023090Y-104336200D01*
X75376910Y-104336200D01*
X75723932Y-104267173D01*
X76050820Y-104131772D01*
X76345011Y-103935200D01*
X76595200Y-103685011D01*
X76791772Y-103390820D01*
X76927173Y-103063932D01*
X76996200Y-102716910D01*
X76996200Y-102363090D01*
X76927173Y-102016068D01*
X76791772Y-101689180D01*
X76595200Y-101394989D01*
X76345011Y-101144800D01*
X76050820Y-100948228D01*
X75732075Y-100816200D01*
X88804600Y-100816200D01*
X88842015Y-100841200D01*
X88908278Y-100868647D01*
X86224326Y-103552600D01*
X80285800Y-103552600D01*
X80262600Y-103550315D01*
X80169993Y-103559436D01*
X80142981Y-103567630D01*
X80080946Y-103586448D01*
X79998879Y-103630314D01*
X79998877Y-103630315D01*
X79998878Y-103630315D01*
X79949977Y-103670447D01*
X79926947Y-103689347D01*
X79912160Y-103707365D01*
X79362366Y-104257160D01*
X79344348Y-104271947D01*
X79329561Y-104289965D01*
X79329558Y-104289968D01*
X79285315Y-104343879D01*
X79275692Y-104361883D01*
X78830000Y-104361883D01*
X78752331Y-104369533D01*
X78677647Y-104392188D01*
X78608818Y-104428978D01*
X78548489Y-104478489D01*
X78498978Y-104538818D01*
X78462188Y-104607647D01*
X78439533Y-104682331D01*
X78431883Y-104760000D01*
X78431883Y-106460000D01*
X78439533Y-106537669D01*
X78462188Y-106612353D01*
X78498978Y-106681182D01*
X78548489Y-106741511D01*
X78608818Y-106791022D01*
X78677647Y-106827812D01*
X78752331Y-106850467D01*
X78830000Y-106858117D01*
X80530000Y-106858117D01*
X80607669Y-106850467D01*
X80682353Y-106827812D01*
X80751182Y-106791022D01*
X80811511Y-106741511D01*
X80861022Y-106681182D01*
X80897812Y-106612353D01*
X80920467Y-106537669D01*
X80928117Y-106460000D01*
X80928117Y-104760000D01*
X80920467Y-104682331D01*
X80897812Y-104607647D01*
X80861022Y-104538818D01*
X80827031Y-104497400D01*
X81649577Y-104497400D01*
X81629703Y-104505632D01*
X81425594Y-104642013D01*
X81252013Y-104815594D01*
X81115632Y-105019703D01*
X81021691Y-105246497D01*
X80973800Y-105487260D01*
X80973800Y-105732740D01*
X81021691Y-105973503D01*
X81115632Y-106200297D01*
X81252013Y-106404406D01*
X81425594Y-106577987D01*
X81629703Y-106714368D01*
X81856497Y-106808309D01*
X82097260Y-106856200D01*
X82342740Y-106856200D01*
X82583503Y-106808309D01*
X82810297Y-106714368D01*
X83014406Y-106577987D01*
X83187987Y-106404406D01*
X83324368Y-106200297D01*
X83418309Y-105973503D01*
X83466200Y-105732740D01*
X83466200Y-105487260D01*
X83418309Y-105246497D01*
X83369475Y-105128600D01*
X83680675Y-104817400D01*
X83790806Y-104817400D01*
X83655632Y-105019703D01*
X83561691Y-105246497D01*
X83513800Y-105487260D01*
X83513800Y-105732740D01*
X83561691Y-105973503D01*
X83655632Y-106200297D01*
X83792013Y-106404406D01*
X83965594Y-106577987D01*
X84169703Y-106714368D01*
X84396497Y-106808309D01*
X84637260Y-106856200D01*
X84882740Y-106856200D01*
X85123503Y-106808309D01*
X85350297Y-106714368D01*
X85554406Y-106577987D01*
X85727987Y-106404406D01*
X85864368Y-106200297D01*
X85958309Y-105973503D01*
X86006200Y-105732740D01*
X86006200Y-105487260D01*
X85958309Y-105246497D01*
X85952470Y-105232401D01*
X86107530Y-105232401D01*
X86101691Y-105246497D01*
X86053800Y-105487260D01*
X86053800Y-105732740D01*
X86101691Y-105973503D01*
X86195632Y-106200297D01*
X86332013Y-106404406D01*
X86505594Y-106577987D01*
X86709703Y-106714368D01*
X86936497Y-106808309D01*
X87177260Y-106856200D01*
X87422740Y-106856200D01*
X87663503Y-106808309D01*
X87890297Y-106714368D01*
X88094406Y-106577987D01*
X88267987Y-106404406D01*
X88404368Y-106200297D01*
X88498309Y-105973503D01*
X88546200Y-105732740D01*
X88546200Y-105487260D01*
X88593800Y-105487260D01*
X88593800Y-105732740D01*
X88641691Y-105973503D01*
X88735632Y-106200297D01*
X88872013Y-106404406D01*
X89045594Y-106577987D01*
X89249703Y-106714368D01*
X89476497Y-106808309D01*
X89717260Y-106856200D01*
X89962740Y-106856200D01*
X90203503Y-106808309D01*
X90430297Y-106714368D01*
X90634406Y-106577987D01*
X90807987Y-106404406D01*
X90944368Y-106200297D01*
X91038309Y-105973503D01*
X91086200Y-105732740D01*
X91086200Y-105487260D01*
X91038309Y-105246497D01*
X90944368Y-105019703D01*
X90807987Y-104815594D01*
X90634406Y-104642013D01*
X90430297Y-104505632D01*
X90203503Y-104411691D01*
X89962740Y-104363800D01*
X89717260Y-104363800D01*
X89476497Y-104411691D01*
X89249703Y-104505632D01*
X89045594Y-104642013D01*
X88872013Y-104815594D01*
X88735632Y-105019703D01*
X88641691Y-105246497D01*
X88593800Y-105487260D01*
X88546200Y-105487260D01*
X88498309Y-105246497D01*
X88404368Y-105019703D01*
X88267987Y-104815594D01*
X88094406Y-104642013D01*
X87890297Y-104505632D01*
X87663503Y-104411691D01*
X87587556Y-104396584D01*
X90759810Y-101224331D01*
X90775522Y-101240043D01*
X90882015Y-101311200D01*
X91000344Y-101360213D01*
X91125961Y-101385200D01*
X91254039Y-101385200D01*
X91379656Y-101360213D01*
X91497985Y-101311200D01*
X91604478Y-101240043D01*
X91695043Y-101149478D01*
X91766200Y-101042985D01*
X91815213Y-100924656D01*
X91840200Y-100799039D01*
X91840200Y-100670961D01*
X91815213Y-100545344D01*
X91766200Y-100427015D01*
X91695043Y-100320522D01*
X91604478Y-100229957D01*
X91497985Y-100158800D01*
X91438234Y-100134051D01*
X91817635Y-99754650D01*
X91835653Y-99739863D01*
X91850498Y-99721775D01*
X91884310Y-99680574D01*
X91894686Y-99667931D01*
X91938552Y-99585864D01*
X91959588Y-99516518D01*
X91964632Y-99499889D01*
X92005043Y-99459478D01*
X92076200Y-99352985D01*
X92125213Y-99234656D01*
X92150200Y-99109039D01*
X92150200Y-98980961D01*
X92125213Y-98855344D01*
X92076200Y-98737015D01*
X92005043Y-98630522D01*
X91914478Y-98539957D01*
X91807985Y-98468800D01*
X91689656Y-98419787D01*
X91621998Y-98406329D01*
X91578951Y-98302403D01*
X91507794Y-98195910D01*
X91417229Y-98105345D01*
X91310736Y-98034188D01*
X91192407Y-97985175D01*
X91066790Y-97960188D01*
X90938712Y-97960188D01*
X90813095Y-97985175D01*
X90694766Y-98034188D01*
X90588273Y-98105345D01*
X90497708Y-98195910D01*
X90426551Y-98302403D01*
X90377538Y-98420732D01*
X90352551Y-98546349D01*
X90352551Y-98674427D01*
X90377538Y-98800044D01*
X90426551Y-98918373D01*
X90497708Y-99024866D01*
X90530351Y-99057509D01*
X90530351Y-99246574D01*
X89753647Y-100023278D01*
X89726200Y-99957015D01*
X89694808Y-99910034D01*
X89706200Y-99892985D01*
X89755213Y-99774656D01*
X89780200Y-99649039D01*
X89780200Y-99520961D01*
X89755213Y-99395344D01*
X89706200Y-99277015D01*
X89635043Y-99170522D01*
X89544478Y-99079957D01*
X89437985Y-99008800D01*
X89319656Y-98959787D01*
X89194039Y-98934800D01*
X89065961Y-98934800D01*
X88940344Y-98959787D01*
X88822015Y-99008800D01*
X88784600Y-99033800D01*
X76077717Y-99033800D01*
X76345011Y-98855200D01*
X76595200Y-98605011D01*
X76791772Y-98310820D01*
X76927173Y-97983932D01*
X76996200Y-97636910D01*
X76996200Y-97283090D01*
X76927173Y-96936068D01*
X76791772Y-96609180D01*
X76595200Y-96314989D01*
X76345011Y-96064800D01*
X76050820Y-95868228D01*
X75723932Y-95732827D01*
X75376910Y-95663800D01*
X75023090Y-95663800D01*
X74676068Y-95732827D01*
X74349180Y-95868228D01*
X74054989Y-96064800D01*
X73804800Y-96314989D01*
X73608228Y-96609180D01*
X73472827Y-96936068D01*
X73403800Y-97283090D01*
X73403800Y-97636910D01*
X73472827Y-97983932D01*
X73608228Y-98310820D01*
X73804800Y-98605011D01*
X74054989Y-98855200D01*
X74322283Y-99033800D01*
X70967660Y-99033800D01*
X70690052Y-98758740D01*
X69304600Y-97373289D01*
X69287342Y-97352260D01*
X69203420Y-97283387D01*
X69107674Y-97232210D01*
X69003784Y-97200695D01*
X68922811Y-97192720D01*
X68922808Y-97192720D01*
X68895742Y-97190054D01*
X68868676Y-97192720D01*
X66381327Y-97192720D01*
X66354258Y-97190054D01*
X66246215Y-97200695D01*
X66142325Y-97232210D01*
X66046579Y-97283387D01*
X66010810Y-97312743D01*
X65962658Y-97352260D01*
X65945400Y-97373289D01*
X64627376Y-98691313D01*
X64552474Y-98691313D01*
X64426857Y-98716300D01*
X64308528Y-98765313D01*
X64202035Y-98836470D01*
X64111470Y-98927035D01*
X64040313Y-99033528D01*
X63991300Y-99151857D01*
X63966313Y-99277474D01*
X58571200Y-99277474D01*
X58571200Y-97245000D01*
X58633617Y-97245000D01*
X58654299Y-97454992D01*
X58715552Y-97656914D01*
X58815020Y-97843006D01*
X58948882Y-98006118D01*
X59111994Y-98139980D01*
X59298086Y-98239448D01*
X59500008Y-98300701D01*
X59657375Y-98316200D01*
X60112625Y-98316200D01*
X60269992Y-98300701D01*
X60471914Y-98239448D01*
X60658006Y-98139980D01*
X60821118Y-98006118D01*
X60954980Y-97843006D01*
X60979998Y-97796200D01*
X61769391Y-97796200D01*
X61806596Y-97918847D01*
X61894457Y-98083224D01*
X62012698Y-98227302D01*
X62156776Y-98345543D01*
X62321153Y-98433404D01*
X62499512Y-98487509D01*
X62638519Y-98501200D01*
X63131481Y-98501200D01*
X63270488Y-98487509D01*
X63448847Y-98433404D01*
X63613224Y-98345543D01*
X63757302Y-98227302D01*
X63875543Y-98083224D01*
X63963404Y-97918847D01*
X64017509Y-97740488D01*
X64035778Y-97555000D01*
X64017509Y-97369512D01*
X63963404Y-97191153D01*
X63875543Y-97026776D01*
X63757302Y-96882698D01*
X63613224Y-96764457D01*
X63448847Y-96676596D01*
X63270488Y-96622491D01*
X63131481Y-96608800D01*
X62638519Y-96608800D01*
X62499512Y-96622491D01*
X62321153Y-96676596D01*
X62288966Y-96693800D01*
X60979998Y-96693800D01*
X60954980Y-96646994D01*
X60821118Y-96483882D01*
X60658006Y-96350020D01*
X60471914Y-96250552D01*
X60269992Y-96189299D01*
X60112625Y-96173800D01*
X59657375Y-96173800D01*
X59500008Y-96189299D01*
X59298086Y-96250552D01*
X59111994Y-96350020D01*
X58948882Y-96483882D01*
X58815020Y-96646994D01*
X58715552Y-96833086D01*
X58654299Y-97035008D01*
X58633617Y-97245000D01*
X58571200Y-97245000D01*
X58571200Y-94023044D01*
X58602532Y-93703495D01*
X58688643Y-93418282D01*
X58828512Y-93155227D01*
X59016812Y-92924348D01*
X59246370Y-92734441D01*
X59508444Y-92592738D01*
X59793043Y-92504640D01*
X60111201Y-92471200D01*
X64206622Y-92471200D01*
X64239807Y-92575812D01*
G37*
X64239807Y-92575812D02*
X64256634Y-92615071D01*
X64272906Y-92654551D01*
X64276035Y-92660338D01*
X64379459Y-92848466D01*
X64403579Y-92883692D01*
X64427221Y-92919276D01*
X64431415Y-92924346D01*
X64569410Y-93088801D01*
X64599915Y-93118674D01*
X64630015Y-93148985D01*
X64635114Y-93153144D01*
X64802424Y-93287664D01*
X64838121Y-93311024D01*
X64873567Y-93334932D01*
X64879376Y-93338021D01*
X65069630Y-93437482D01*
X65109232Y-93453482D01*
X65148595Y-93470029D01*
X65154893Y-93471931D01*
X65360842Y-93532545D01*
X65402805Y-93540550D01*
X65444627Y-93549135D01*
X65451175Y-93549777D01*
X65664974Y-93569234D01*
X65707712Y-93568936D01*
X65750384Y-93569234D01*
X65756932Y-93568592D01*
X65756934Y-93568592D01*
X65903766Y-93553159D01*
X65679326Y-93777600D01*
X64722121Y-93777600D01*
X64689478Y-93744957D01*
X64582985Y-93673800D01*
X64464656Y-93624787D01*
X64339039Y-93599800D01*
X64210961Y-93599800D01*
X64085344Y-93624787D01*
X63967015Y-93673800D01*
X63860522Y-93744957D01*
X63769957Y-93835522D01*
X63698800Y-93942015D01*
X63649787Y-94060344D01*
X63624800Y-94185961D01*
X63624800Y-94314039D01*
X63649787Y-94439656D01*
X63698800Y-94557985D01*
X63769957Y-94664478D01*
X63860522Y-94755043D01*
X63967015Y-94826200D01*
X64085344Y-94875213D01*
X64210961Y-94900200D01*
X64339039Y-94900200D01*
X64464656Y-94875213D01*
X64582985Y-94826200D01*
X64689478Y-94755043D01*
X64722121Y-94722400D01*
X65851800Y-94722400D01*
X65875000Y-94724685D01*
X65917745Y-94720475D01*
X65967606Y-94715564D01*
X66056654Y-94688552D01*
X66138721Y-94644686D01*
X66210653Y-94585653D01*
X66225444Y-94567630D01*
X67920675Y-92872400D01*
X80624988Y-92872400D01*
X80582076Y-92924689D01*
X80530893Y-93020446D01*
X80499375Y-93124347D01*
X80488733Y-93232401D01*
X80491400Y-93259480D01*
X80491400Y-94191883D01*
X78810000Y-94191883D01*
X78732331Y-94199533D01*
X78657647Y-94222188D01*
X78588818Y-94258978D01*
X78528489Y-94308489D01*
X78478978Y-94368818D01*
X78442188Y-94437647D01*
X78419533Y-94512331D01*
X78411883Y-94590000D01*
X78411883Y-96290000D01*
X78419533Y-96367669D01*
X78442188Y-96442353D01*
X78478978Y-96511182D01*
X78528489Y-96571511D01*
X78588818Y-96621022D01*
X78657647Y-96657812D01*
X78732331Y-96680467D01*
X78810000Y-96688117D01*
X80510000Y-96688117D01*
X80587669Y-96680467D01*
X80662353Y-96657812D01*
X80731182Y-96621022D01*
X80791511Y-96571511D01*
X80832049Y-96522116D01*
X82115435Y-97817643D01*
X82124787Y-97864656D01*
X82173800Y-97982985D01*
X82244957Y-98089478D01*
X82335522Y-98180043D01*
X82442015Y-98251200D01*
X82560344Y-98300213D01*
X82685961Y-98325200D01*
X82814039Y-98325200D01*
X82939656Y-98300213D01*
X83057985Y-98251200D01*
X83164478Y-98180043D01*
X83255043Y-98089478D01*
X83326200Y-97982985D01*
X83375213Y-97864656D01*
X83400200Y-97739039D01*
X83400200Y-97610961D01*
X83375213Y-97485344D01*
X83326200Y-97367015D01*
X83255043Y-97260522D01*
X83164478Y-97169957D01*
X83057985Y-97098800D01*
X82939656Y-97049787D01*
X82898383Y-97041577D01*
X82509529Y-96649045D01*
X82563503Y-96638309D01*
X82681400Y-96589475D01*
X83537783Y-97445858D01*
X83552570Y-97463876D01*
X83570588Y-97478663D01*
X83570590Y-97478665D01*
X83599513Y-97502401D01*
X83624502Y-97522909D01*
X83706569Y-97566775D01*
X83766195Y-97584862D01*
X83795616Y-97593787D01*
X83888223Y-97602908D01*
X83911423Y-97600623D01*
X93839800Y-97600623D01*
X93863000Y-97602908D01*
X93955606Y-97593787D01*
X93963831Y-97591292D01*
X94044654Y-97566775D01*
X94126721Y-97522909D01*
X94198653Y-97463876D01*
X94213444Y-97445853D01*
X96320671Y-95338626D01*
X96366836Y-95338626D01*
X96492453Y-95313639D01*
X96610782Y-95264626D01*
X96683079Y-95216318D01*
X96770728Y-95252623D01*
X96896345Y-95277610D01*
X97024423Y-95277610D01*
X97150040Y-95252623D01*
X97268369Y-95203610D01*
X97287342Y-95190933D01*
X97330758Y-95219943D01*
X97449087Y-95268956D01*
X97574704Y-95293943D01*
X97702782Y-95293943D01*
X97828399Y-95268956D01*
X97946728Y-95219943D01*
X98028363Y-95165396D01*
X98052015Y-95181200D01*
X98170344Y-95230213D01*
X98295961Y-95255200D01*
X98424039Y-95255200D01*
X98549656Y-95230213D01*
X98667985Y-95181200D01*
X98774478Y-95110043D01*
X98865043Y-95019478D01*
X98936200Y-94912985D01*
X98985213Y-94794656D01*
X99010200Y-94669039D01*
X99010200Y-94540961D01*
X98985213Y-94415344D01*
X98936200Y-94297015D01*
X98865043Y-94190522D01*
X98824632Y-94150111D01*
X98798552Y-94064135D01*
X98754686Y-93982069D01*
X98710442Y-93928157D01*
X98710440Y-93928155D01*
X98695653Y-93910137D01*
X98677635Y-93895350D01*
X97939654Y-93157370D01*
X97924863Y-93139347D01*
X97852931Y-93080314D01*
X97770864Y-93036448D01*
X97681816Y-93009436D01*
X97612410Y-93002600D01*
X97589210Y-93000315D01*
X97566010Y-93002600D01*
X95883200Y-93002600D01*
X95860000Y-93000315D01*
X95767394Y-93009436D01*
X95678345Y-93036448D01*
X95596279Y-93080314D01*
X95542625Y-93124347D01*
X95524347Y-93139347D01*
X95509560Y-93157365D01*
X93699326Y-94967600D01*
X90973202Y-94967600D01*
X90924368Y-94849703D01*
X90787987Y-94645594D01*
X90614406Y-94472013D01*
X90410297Y-94335632D01*
X90183503Y-94241691D01*
X89942740Y-94193800D01*
X89697260Y-94193800D01*
X89456497Y-94241691D01*
X89229703Y-94335632D01*
X89025594Y-94472013D01*
X88852013Y-94645594D01*
X88715632Y-94849703D01*
X88621691Y-95076497D01*
X88573800Y-95317260D01*
X88573800Y-95562740D01*
X88621691Y-95803503D01*
X88715632Y-96030297D01*
X88726259Y-96046201D01*
X88554276Y-96046201D01*
X88429475Y-95921400D01*
X88478309Y-95803503D01*
X88526200Y-95562740D01*
X88526200Y-95317260D01*
X88478309Y-95076497D01*
X88384368Y-94849703D01*
X88247987Y-94645594D01*
X88074406Y-94472013D01*
X87870297Y-94335632D01*
X87643503Y-94241691D01*
X87402740Y-94193800D01*
X87157260Y-94193800D01*
X86916497Y-94241691D01*
X86689703Y-94335632D01*
X86485594Y-94472013D01*
X86312013Y-94645594D01*
X86175632Y-94849703D01*
X86081691Y-95076497D01*
X86033800Y-95317260D01*
X86033800Y-95562740D01*
X86081691Y-95803503D01*
X86175632Y-96030297D01*
X86312013Y-96234406D01*
X86428619Y-96351012D01*
X86319087Y-96351012D01*
X85889475Y-95921400D01*
X85938309Y-95803503D01*
X85986200Y-95562740D01*
X85986200Y-95317260D01*
X85938309Y-95076497D01*
X85844368Y-94849703D01*
X85707987Y-94645594D01*
X85534406Y-94472013D01*
X85330297Y-94335632D01*
X85103503Y-94241691D01*
X84862740Y-94193800D01*
X84617260Y-94193800D01*
X84376497Y-94241691D01*
X84149703Y-94335632D01*
X83945594Y-94472013D01*
X83772013Y-94645594D01*
X83635632Y-94849703D01*
X83541691Y-95076497D01*
X83493800Y-95317260D01*
X83493800Y-95562740D01*
X83541691Y-95803503D01*
X83635632Y-96030297D01*
X83772013Y-96234406D01*
X83945594Y-96407987D01*
X84149703Y-96544368D01*
X84376497Y-96638309D01*
X84464545Y-96655823D01*
X84083898Y-96655823D01*
X83349475Y-95921400D01*
X83398309Y-95803503D01*
X83446200Y-95562740D01*
X83446200Y-95317260D01*
X83398309Y-95076497D01*
X83304368Y-94849703D01*
X83167987Y-94645594D01*
X82994406Y-94472013D01*
X82790297Y-94335632D01*
X82563503Y-94241691D01*
X82322740Y-94193800D01*
X82077260Y-94193800D01*
X81836497Y-94241691D01*
X81609703Y-94335632D01*
X81593799Y-94346259D01*
X81593799Y-93460715D01*
X82103315Y-92951200D01*
X118181686Y-92951200D01*
X119433949Y-94203464D01*
X119372331Y-94209533D01*
X119297647Y-94232188D01*
X119228818Y-94268978D01*
X119168489Y-94318489D01*
X119118978Y-94378818D01*
X119082188Y-94447647D01*
X119059533Y-94522331D01*
X119051883Y-94600000D01*
X119051883Y-96300000D01*
X119059533Y-96377669D01*
X119082188Y-96452353D01*
X119118978Y-96521182D01*
X119168489Y-96581511D01*
X119228818Y-96631022D01*
X119297647Y-96667812D01*
X119372331Y-96690467D01*
X119450000Y-96698117D01*
X121150000Y-96698117D01*
X121227669Y-96690467D01*
X121302353Y-96667812D01*
X121371182Y-96631022D01*
X121431511Y-96581511D01*
X121481022Y-96521182D01*
X121517812Y-96452353D01*
X121540467Y-96377669D01*
X121548117Y-96300000D01*
X121548117Y-94600000D01*
X121540467Y-94522331D01*
X121517812Y-94447647D01*
X121481022Y-94378818D01*
X121431511Y-94318489D01*
X121371182Y-94268978D01*
X121302353Y-94232188D01*
X121227669Y-94209533D01*
X121150000Y-94201883D01*
X120845189Y-94201883D01*
X120843225Y-94181945D01*
X120827465Y-94129995D01*
X120811706Y-94078044D01*
X120779896Y-94018530D01*
X120760524Y-93982287D01*
X120708905Y-93919390D01*
X120708902Y-93919387D01*
X120691643Y-93898357D01*
X120670613Y-93881098D01*
X119260714Y-92471200D01*
X137506622Y-92471200D01*
X137539807Y-92575812D01*
X137556634Y-92615071D01*
X137572906Y-92654551D01*
X137576035Y-92660338D01*
X137679459Y-92848466D01*
X137703579Y-92883692D01*
X137727221Y-92919276D01*
X137731415Y-92924346D01*
X137869410Y-93088801D01*
X137899915Y-93118674D01*
X137930015Y-93148985D01*
X137935114Y-93153144D01*
X138102424Y-93287664D01*
X138138121Y-93311024D01*
X138173567Y-93334932D01*
X138179376Y-93338021D01*
X138369630Y-93437482D01*
X138409232Y-93453482D01*
X138448595Y-93470029D01*
X138454893Y-93471931D01*
X138660842Y-93532545D01*
X138702805Y-93540550D01*
X138744627Y-93549135D01*
X138751175Y-93549777D01*
X138964974Y-93569234D01*
X139007712Y-93568936D01*
X139050384Y-93569234D01*
X139056932Y-93568592D01*
X139056934Y-93568592D01*
X139270439Y-93546152D01*
X139312290Y-93537561D01*
X139354227Y-93529561D01*
X139360525Y-93527660D01*
X139565606Y-93464176D01*
X139604989Y-93447621D01*
X139644572Y-93431628D01*
X139650381Y-93428540D01*
X139839226Y-93326432D01*
X139874662Y-93302530D01*
X139910366Y-93279166D01*
X139915465Y-93275008D01*
X140080881Y-93138165D01*
X140110980Y-93107855D01*
X140141489Y-93077979D01*
X140145683Y-93072909D01*
X140281367Y-92906542D01*
X140304982Y-92870999D01*
X140329128Y-92835734D01*
X140332258Y-92829947D01*
X140433045Y-92640393D01*
X140449317Y-92600914D01*
X140466144Y-92561654D01*
X140468090Y-92555369D01*
X140493502Y-92471200D01*
X155256622Y-92471200D01*
X155289807Y-92575812D01*
X155306634Y-92615071D01*
X155322906Y-92654551D01*
X155326035Y-92660338D01*
X155429459Y-92848466D01*
X155453579Y-92883692D01*
X155477221Y-92919276D01*
X155481415Y-92924346D01*
X155619410Y-93088801D01*
X155649915Y-93118674D01*
X155680015Y-93148985D01*
X155685114Y-93153144D01*
X155852424Y-93287664D01*
X155888121Y-93311024D01*
X155923567Y-93334932D01*
X155929376Y-93338021D01*
X155973800Y-93361245D01*
X155973800Y-95386143D01*
X155875840Y-95532752D01*
X155801481Y-95712270D01*
X155763573Y-95902845D01*
X155763573Y-96097155D01*
X155801481Y-96287730D01*
X155875840Y-96467248D01*
X155973800Y-96613857D01*
X155973800Y-103386143D01*
X155875840Y-103532752D01*
X155801481Y-103712270D01*
X155763573Y-103902845D01*
X155763573Y-104097155D01*
X155801481Y-104287730D01*
X155875840Y-104467248D01*
X155973800Y-104613857D01*
X155973800Y-106639490D01*
X155910774Y-106673568D01*
X155875353Y-106697460D01*
X155839634Y-106720834D01*
X155834535Y-106724992D01*
X155669119Y-106861835D01*
X155639003Y-106892162D01*
X155608511Y-106922021D01*
X155604322Y-106927085D01*
X155604319Y-106927088D01*
X155604317Y-106927091D01*
X155468632Y-107093458D01*
X155445000Y-107129027D01*
X155420872Y-107164266D01*
X155417742Y-107170054D01*
X155316954Y-107359607D01*
X155300657Y-107399147D01*
X155283856Y-107438346D01*
X155281910Y-107444631D01*
X155256498Y-107528800D01*
X140388967Y-107528800D01*
X140368278Y-107463580D01*
X140351456Y-107424331D01*
X140335180Y-107384843D01*
X140332051Y-107379055D01*
X140238028Y-107208030D01*
X140213882Y-107172765D01*
X140190267Y-107137222D01*
X140186074Y-107132152D01*
X140060624Y-106982646D01*
X140030115Y-106952770D01*
X140000016Y-106922460D01*
X139994918Y-106918302D01*
X139842818Y-106796011D01*
X139807088Y-106772630D01*
X139771678Y-106748746D01*
X139765869Y-106745657D01*
X139592914Y-106655238D01*
X139553324Y-106639243D01*
X139513943Y-106622688D01*
X139507645Y-106620787D01*
X139320419Y-106565684D01*
X139278490Y-106557686D01*
X139236636Y-106549094D01*
X139230088Y-106548452D01*
X139035727Y-106530763D01*
X138993019Y-106531061D01*
X138950311Y-106530763D01*
X138943764Y-106531405D01*
X138749667Y-106551806D01*
X138707826Y-106560395D01*
X138665883Y-106568396D01*
X138659589Y-106570297D01*
X138659583Y-106570298D01*
X138659577Y-106570300D01*
X138473147Y-106628010D01*
X138433772Y-106644561D01*
X138394180Y-106660558D01*
X138388370Y-106663646D01*
X138216694Y-106756471D01*
X138181288Y-106780353D01*
X138145550Y-106803739D01*
X138140452Y-106807897D01*
X137990074Y-106932301D01*
X137959993Y-106962592D01*
X137929469Y-106992484D01*
X137925275Y-106997554D01*
X137801925Y-107148796D01*
X137778283Y-107184380D01*
X137754163Y-107219606D01*
X137751034Y-107225393D01*
X137659409Y-107397715D01*
X137643134Y-107437201D01*
X137626311Y-107476453D01*
X137624365Y-107482738D01*
X137610458Y-107528800D01*
X135550714Y-107528800D01*
X136445523Y-106633992D01*
X136489656Y-106625213D01*
X136607985Y-106576200D01*
X136714478Y-106505043D01*
X136805043Y-106414478D01*
X136876200Y-106307985D01*
X136925213Y-106189656D01*
X136950200Y-106064039D01*
X136950200Y-105935961D01*
X136925213Y-105810344D01*
X136876200Y-105692015D01*
X136805043Y-105585522D01*
X136714478Y-105494957D01*
X136607985Y-105423800D01*
X136489656Y-105374787D01*
X136364039Y-105349800D01*
X136235961Y-105349800D01*
X136110344Y-105374787D01*
X135992015Y-105423800D01*
X135885522Y-105494957D01*
X135794957Y-105585522D01*
X135723800Y-105692015D01*
X135674787Y-105810344D01*
X135666008Y-105854477D01*
X134461686Y-107058800D01*
X114560714Y-107058800D01*
X114824471Y-106795043D01*
X114856497Y-106808309D01*
X115097260Y-106856200D01*
X115342740Y-106856200D01*
X115583503Y-106808309D01*
X115810297Y-106714368D01*
X116014406Y-106577987D01*
X116187987Y-106404406D01*
X116324368Y-106200297D01*
X116418309Y-105973503D01*
X116466200Y-105732740D01*
X116466200Y-105487260D01*
X116418309Y-105246497D01*
X116324368Y-105019703D01*
X116187987Y-104815594D01*
X116014406Y-104642013D01*
X115923691Y-104581399D01*
X118922801Y-104581399D01*
X118946001Y-104583684D01*
X119038607Y-104574563D01*
X119038610Y-104574562D01*
X119127655Y-104547551D01*
X119206888Y-104505200D01*
X119264039Y-104505200D01*
X119389656Y-104480213D01*
X119507985Y-104431200D01*
X119614478Y-104360043D01*
X119705043Y-104269478D01*
X119776200Y-104162985D01*
X119825213Y-104044656D01*
X119850200Y-103919039D01*
X119850200Y-103790961D01*
X119825213Y-103665344D01*
X119776200Y-103547015D01*
X119705043Y-103440522D01*
X119614478Y-103349957D01*
X119507985Y-103278800D01*
X119389656Y-103229787D01*
X119264039Y-103204800D01*
X119135961Y-103204800D01*
X119010344Y-103229787D01*
X118892015Y-103278800D01*
X118785522Y-103349957D01*
X118694957Y-103440522D01*
X118623800Y-103547015D01*
X118586693Y-103636599D01*
X115863649Y-103636599D01*
X115926200Y-103542985D01*
X115975213Y-103424656D01*
X116000200Y-103299039D01*
X116000200Y-103170961D01*
X115975213Y-103045344D01*
X115926200Y-102927015D01*
X115855043Y-102820522D01*
X115764478Y-102729957D01*
X115657985Y-102658800D01*
X115539656Y-102609787D01*
X115414039Y-102584800D01*
X115285961Y-102584800D01*
X115160344Y-102609787D01*
X115042015Y-102658800D01*
X114935522Y-102729957D01*
X114844957Y-102820522D01*
X114773800Y-102927015D01*
X114724787Y-103045344D01*
X114699800Y-103170961D01*
X114699800Y-103217126D01*
X114586913Y-103330013D01*
X112194039Y-103330013D01*
X112200200Y-103299039D01*
X112200200Y-103170961D01*
X112175213Y-103045344D01*
X112126200Y-102927015D01*
X112055043Y-102820522D01*
X111964478Y-102729957D01*
X111857985Y-102658800D01*
X111739656Y-102609787D01*
X111614039Y-102584800D01*
X111485961Y-102584800D01*
X111360344Y-102609787D01*
X111242015Y-102658800D01*
X111135522Y-102729957D01*
X111044957Y-102820522D01*
X110973800Y-102927015D01*
X110933130Y-103025202D01*
X108660200Y-103025202D01*
X108660200Y-102950961D01*
X108635213Y-102825344D01*
X108586200Y-102707015D01*
X108515043Y-102600522D01*
X108424478Y-102509957D01*
X108317985Y-102438800D01*
X108199656Y-102389787D01*
X108074039Y-102364800D01*
X108027875Y-102364800D01*
X101814036Y-96150961D01*
X107159800Y-96150961D01*
X107159800Y-96279039D01*
X107184787Y-96404656D01*
X107233800Y-96522985D01*
X107304957Y-96629478D01*
X107395522Y-96720043D01*
X107502015Y-96791200D01*
X107578411Y-96822844D01*
X109675002Y-99597864D01*
X109680266Y-99607712D01*
X109707678Y-99641113D01*
X109717322Y-99653878D01*
X109724848Y-99662035D01*
X109749147Y-99691643D01*
X109761583Y-99701849D01*
X109772498Y-99713679D01*
X109803470Y-99736225D01*
X109833078Y-99760524D01*
X109847272Y-99768111D01*
X109860280Y-99777580D01*
X109895049Y-99793648D01*
X109928834Y-99811706D01*
X109944234Y-99816378D01*
X109958841Y-99823128D01*
X109996069Y-99832102D01*
X110032736Y-99843225D01*
X110048759Y-99844803D01*
X110064394Y-99848572D01*
X110102654Y-99850111D01*
X110113711Y-99851200D01*
X110129727Y-99851200D01*
X110172884Y-99852936D01*
X110183911Y-99851200D01*
X119396686Y-99851200D01*
X124378285Y-104832800D01*
X121279484Y-104832800D01*
X121267987Y-104815594D01*
X121094406Y-104642013D01*
X120890297Y-104505632D01*
X120663503Y-104411691D01*
X120422740Y-104363800D01*
X120177260Y-104363800D01*
X119936497Y-104411691D01*
X119709703Y-104505632D01*
X119505594Y-104642013D01*
X119332013Y-104815594D01*
X119195632Y-105019703D01*
X119101691Y-105246497D01*
X119053800Y-105487260D01*
X119053800Y-105732740D01*
X119101691Y-105973503D01*
X119195632Y-106200297D01*
X119332013Y-106404406D01*
X119505594Y-106577987D01*
X119709703Y-106714368D01*
X119936497Y-106808309D01*
X120177260Y-106856200D01*
X120422740Y-106856200D01*
X120663503Y-106808309D01*
X120890297Y-106714368D01*
X121094406Y-106577987D01*
X121267987Y-106404406D01*
X121279484Y-106387200D01*
X131426832Y-106387200D01*
X131465000Y-106390959D01*
X131503168Y-106387200D01*
X131503176Y-106387200D01*
X131617358Y-106375954D01*
X131763860Y-106331513D01*
X131898878Y-106259345D01*
X132017222Y-106162222D01*
X132041566Y-106132560D01*
X134721927Y-103452200D01*
X137749575Y-103452200D01*
X137910151Y-103692518D01*
X138132482Y-103914849D01*
X138393916Y-104089534D01*
X138684406Y-104209859D01*
X138992788Y-104271200D01*
X139307212Y-104271200D01*
X139615594Y-104209859D01*
X139906084Y-104089534D01*
X140167518Y-103914849D01*
X140389849Y-103692518D01*
X140564534Y-103431084D01*
X140684859Y-103140594D01*
X140746200Y-102832212D01*
X140746200Y-102517788D01*
X140684859Y-102209406D01*
X140564534Y-101918916D01*
X140389849Y-101657482D01*
X140167518Y-101435151D01*
X139906084Y-101260466D01*
X139615594Y-101140141D01*
X139307212Y-101078800D01*
X138992788Y-101078800D01*
X138684406Y-101140141D01*
X138400722Y-101257647D01*
X137472400Y-100329326D01*
X137472400Y-100307210D01*
X142828264Y-100307210D01*
X142828264Y-100307213D01*
X142828286Y-100312816D01*
X142829497Y-100424486D01*
X142829531Y-100424799D01*
X142829504Y-100425116D01*
X142829613Y-100430717D01*
X142832350Y-100534450D01*
X142832531Y-100535902D01*
X142832437Y-100537368D01*
X142832665Y-100542965D01*
X142836924Y-100632338D01*
X142837578Y-100636806D01*
X142837453Y-100641324D01*
X142837884Y-100646910D01*
X142843660Y-100715495D01*
X142846435Y-100730592D01*
X142847396Y-100745907D01*
X142848329Y-100751430D01*
X142855617Y-100792801D01*
X142860252Y-100809413D01*
X142863045Y-100826444D01*
X142870754Y-100847048D01*
X142876662Y-100868221D01*
X142883687Y-100882133D01*
X142885372Y-100887563D01*
X142887119Y-100890789D01*
X142890483Y-100899779D01*
X142892984Y-100904792D01*
X142897356Y-100913405D01*
X142907562Y-100929417D01*
X142911954Y-100938116D01*
X142914569Y-100941465D01*
X142922666Y-100956412D01*
X142931773Y-100967403D01*
X142939441Y-100979434D01*
X142956694Y-100997480D01*
X142972623Y-101016705D01*
X142983687Y-101025715D01*
X142993549Y-101036030D01*
X143013979Y-101050382D01*
X143033339Y-101066147D01*
X143045944Y-101072837D01*
X143057621Y-101081040D01*
X143080448Y-101091150D01*
X143102501Y-101102854D01*
X143107697Y-101104949D01*
X143133828Y-101115272D01*
X143153477Y-101120890D01*
X143172502Y-101128317D01*
X143177905Y-101129798D01*
X143233276Y-101144557D01*
X143238114Y-101145351D01*
X143242743Y-101146957D01*
X143248198Y-101148230D01*
X143325485Y-101165690D01*
X143327537Y-101165947D01*
X143329510Y-101166578D01*
X143334995Y-101167718D01*
X143426872Y-101186146D01*
X143426916Y-101186150D01*
X143426957Y-101186163D01*
X143432457Y-101187225D01*
X143464529Y-101193186D01*
X143464590Y-101193191D01*
X143465555Y-101193375D01*
X143619357Y-101221548D01*
X143739521Y-101243987D01*
X143806171Y-101256935D01*
X143830183Y-101315861D01*
X143864959Y-101404654D01*
X143898356Y-101493129D01*
X143910839Y-101527650D01*
X143870278Y-101587003D01*
X143805995Y-101680729D01*
X143787526Y-101707600D01*
X143787479Y-101707685D01*
X143785776Y-101710167D01*
X143719920Y-101807588D01*
X143719659Y-101808070D01*
X143719310Y-101808493D01*
X143716218Y-101813164D01*
X143658267Y-101902052D01*
X143657658Y-101903222D01*
X143656839Y-101904258D01*
X143653843Y-101908991D01*
X143606955Y-101984241D01*
X143605250Y-101987686D01*
X143602968Y-101990778D01*
X143600130Y-101995609D01*
X143567461Y-102052117D01*
X143561451Y-102065345D01*
X143553862Y-102077734D01*
X143551451Y-102082791D01*
X143536158Y-102115452D01*
X143533082Y-102124142D01*
X143528744Y-102132279D01*
X143520040Y-102160992D01*
X143510033Y-102189266D01*
X143508704Y-102198389D01*
X143506029Y-102207212D01*
X143504973Y-102212713D01*
X143504232Y-102216725D01*
X143502031Y-102242588D01*
X143498127Y-102268250D01*
X143498718Y-102281514D01*
X143497592Y-102294744D01*
X143500457Y-102320545D01*
X143501612Y-102346473D01*
X143504768Y-102359369D01*
X143506233Y-102372566D01*
X143514052Y-102397312D01*
X143520223Y-102422529D01*
X143525826Y-102434571D01*
X143529825Y-102447228D01*
X143542301Y-102469982D01*
X143553253Y-102493522D01*
X143556134Y-102498326D01*
X143568983Y-102519417D01*
X143586246Y-102542367D01*
X143602288Y-102566188D01*
X143605885Y-102570482D01*
X143641389Y-102612262D01*
X143645409Y-102616150D01*
X143648723Y-102620653D01*
X143652497Y-102624793D01*
X143706091Y-102682774D01*
X143707081Y-102683655D01*
X143707884Y-102684700D01*
X143711742Y-102688762D01*
X143778692Y-102758274D01*
X143778698Y-102758281D01*
X143778800Y-102758386D01*
X143778864Y-102758452D01*
X143778869Y-102758456D01*
X143782610Y-102762291D01*
X143858695Y-102839201D01*
X143858753Y-102839249D01*
X143861723Y-102842229D01*
X143942206Y-102921867D01*
X143942266Y-102921916D01*
X143945112Y-102924714D01*
X144025429Y-103002592D01*
X144025476Y-103002629D01*
X144028759Y-103005784D01*
X144104347Y-103077409D01*
X144104605Y-103077610D01*
X144104823Y-103077860D01*
X144108923Y-103081678D01*
X144175217Y-103142562D01*
X144177245Y-103144088D01*
X144178958Y-103145954D01*
X144183157Y-103149662D01*
X144235593Y-103195313D01*
X144243952Y-103201263D01*
X144251374Y-103208360D01*
X144255806Y-103211787D01*
X144289820Y-103237716D01*
X144293104Y-103239746D01*
X144295980Y-103242319D01*
X144324295Y-103259078D01*
X144327940Y-103261918D01*
X144333539Y-103264737D01*
X144356426Y-103278882D01*
X144360039Y-103280234D01*
X144363362Y-103282201D01*
X144368455Y-103284535D01*
X144377865Y-103288768D01*
X144388174Y-103292241D01*
X144397879Y-103297127D01*
X144425192Y-103304713D01*
X144427741Y-103305572D01*
X144429758Y-103306327D01*
X144430194Y-103306399D01*
X144452067Y-103313768D01*
X144462845Y-103315172D01*
X144473323Y-103318082D01*
X144501603Y-103320219D01*
X144529711Y-103323880D01*
X144540558Y-103323163D01*
X144551401Y-103323983D01*
X144579551Y-103320588D01*
X144607842Y-103318719D01*
X144618344Y-103315909D01*
X144629138Y-103314607D01*
X144656094Y-103305808D01*
X144683481Y-103298480D01*
X144693236Y-103293684D01*
X144703573Y-103290310D01*
X144708688Y-103288024D01*
X144730590Y-103278053D01*
X144747788Y-103268093D01*
X144765870Y-103259833D01*
X144770695Y-103256985D01*
X144815538Y-103230093D01*
X144819081Y-103227467D01*
X144823023Y-103225492D01*
X144827742Y-103222473D01*
X144888222Y-103183189D01*
X144889296Y-103182332D01*
X144890511Y-103181691D01*
X144895167Y-103178574D01*
X144941699Y-103146955D01*
X144941772Y-103146895D01*
X144943644Y-103145625D01*
X145027431Y-103087969D01*
X145126790Y-103019990D01*
X145225988Y-102952436D01*
X145260887Y-102928777D01*
X145274241Y-102935720D01*
X145278327Y-102937360D01*
X145282064Y-102939679D01*
X145287107Y-102942119D01*
X145346375Y-102970286D01*
X145355584Y-102973605D01*
X145364208Y-102978235D01*
X145369394Y-102980355D01*
X145409496Y-102996420D01*
X145438661Y-103004910D01*
X145467417Y-103014671D01*
X145472881Y-103015907D01*
X145483089Y-103018142D01*
X145514042Y-103021805D01*
X145544836Y-103026704D01*
X145552869Y-103026401D01*
X145560847Y-103027345D01*
X145591931Y-103024926D01*
X145623082Y-103023750D01*
X145630897Y-103021894D01*
X145638911Y-103021270D01*
X145668934Y-103012859D01*
X145699263Y-103005655D01*
X145706572Y-103002315D01*
X145714309Y-103000147D01*
X145742125Y-102986066D01*
X145770478Y-102973107D01*
X145776998Y-102968411D01*
X145784167Y-102964782D01*
X145808716Y-102945567D01*
X145834015Y-102927347D01*
X145839500Y-102921473D01*
X145845827Y-102916521D01*
X145866170Y-102892912D01*
X145887454Y-102870118D01*
X145890828Y-102865646D01*
X145903102Y-102849142D01*
X145918258Y-102823957D01*
X145934621Y-102799549D01*
X145937237Y-102794596D01*
X145961453Y-102747955D01*
X145963124Y-102743785D01*
X145965492Y-102739960D01*
X145967927Y-102734915D01*
X146002276Y-102662442D01*
X146002445Y-102661971D01*
X146002703Y-102661539D01*
X146005055Y-102656454D01*
X146047729Y-102562451D01*
X146047755Y-102562374D01*
X146049329Y-102558881D01*
X146098523Y-102447649D01*
X146098554Y-102447554D01*
X146099619Y-102445148D01*
X146153523Y-102320989D01*
X146153553Y-102320897D01*
X146154372Y-102319018D01*
X146211179Y-102186235D01*
X146211205Y-102186152D01*
X146211909Y-102184518D01*
X146269810Y-102047413D01*
X146269834Y-102047336D01*
X146270505Y-102045758D01*
X146327694Y-101908633D01*
X146327719Y-101908552D01*
X146328419Y-101906884D01*
X146383088Y-101774040D01*
X146383116Y-101773946D01*
X146383921Y-101771999D01*
X146434261Y-101647739D01*
X146434289Y-101647643D01*
X146435318Y-101645103D01*
X146479522Y-101533730D01*
X146479543Y-101533659D01*
X146481031Y-101529871D01*
X146517292Y-101435685D01*
X146517500Y-101434933D01*
X146517844Y-101434241D01*
X146519800Y-101428992D01*
X146540520Y-101372175D01*
X146568512Y-101447746D01*
X146568657Y-101448044D01*
X146568742Y-101448366D01*
X146570733Y-101453602D01*
X146608737Y-101551480D01*
X146608775Y-101551554D01*
X146610120Y-101554994D01*
X146655711Y-101669216D01*
X146655756Y-101669303D01*
X146656705Y-101671683D01*
X146708076Y-101797950D01*
X146708118Y-101798029D01*
X146708873Y-101799895D01*
X146764214Y-101933904D01*
X146764252Y-101933975D01*
X146764922Y-101935609D01*
X146822426Y-102073060D01*
X146822469Y-102073140D01*
X146823117Y-102074700D01*
X146880974Y-102211289D01*
X146881015Y-102211365D01*
X146881716Y-102213029D01*
X146938119Y-102344459D01*
X146938163Y-102344539D01*
X146938995Y-102346486D01*
X146992136Y-102468454D01*
X146992182Y-102468536D01*
X146993292Y-102471084D01*
X147041360Y-102579287D01*
X147041398Y-102579355D01*
X147043102Y-102583152D01*
X147084291Y-102673292D01*
X147084751Y-102674083D01*
X147085055Y-102674956D01*
X147087442Y-102680024D01*
X147119943Y-102747798D01*
X147123110Y-102753023D01*
X147125377Y-102758703D01*
X147127986Y-102763661D01*
X147149990Y-102804768D01*
X147170239Y-102835061D01*
X147190061Y-102865610D01*
X147193498Y-102869857D01*
X147193503Y-102869865D01*
X147193509Y-102869871D01*
X147193585Y-102869965D01*
X147202446Y-102880761D01*
X147229711Y-102908047D01*
X147257096Y-102935576D01*
X147257473Y-102935830D01*
X147257792Y-102936149D01*
X147289936Y-102957686D01*
X147322048Y-102979305D01*
X147322464Y-102979480D01*
X147322841Y-102979732D01*
X147358594Y-102994631D01*
X147394256Y-103009586D01*
X147394700Y-103009677D01*
X147395118Y-103009851D01*
X147433263Y-103017558D01*
X147470972Y-103025264D01*
X147471420Y-103025267D01*
X147471867Y-103025357D01*
X147510803Y-103025508D01*
X147549270Y-103025743D01*
X147549712Y-103025658D01*
X147550167Y-103025660D01*
X147588278Y-103018267D01*
X147626171Y-103011005D01*
X147626982Y-103010759D01*
X147627035Y-103010749D01*
X147627090Y-103010727D01*
X147631532Y-103009381D01*
X147658608Y-103000974D01*
X147677786Y-102992893D01*
X147697631Y-102986601D01*
X147702765Y-102984359D01*
X147753428Y-102961812D01*
X147758638Y-102958854D01*
X147764264Y-102956795D01*
X147769295Y-102954331D01*
X147820553Y-102928779D01*
X147894393Y-102978901D01*
X147995499Y-103047885D01*
X148090185Y-103112797D01*
X148137577Y-103145460D01*
X148137622Y-103145485D01*
X148141588Y-103148188D01*
X148208833Y-103193345D01*
X148211726Y-103194902D01*
X148214297Y-103196950D01*
X148219020Y-103199964D01*
X148275961Y-103235748D01*
X148282820Y-103239175D01*
X148289057Y-103243634D01*
X148293930Y-103246398D01*
X148333139Y-103268279D01*
X148360099Y-103280037D01*
X148386441Y-103293090D01*
X148391693Y-103295039D01*
X148404428Y-103299664D01*
X148432589Y-103306873D01*
X148460349Y-103315494D01*
X148470446Y-103316565D01*
X148480283Y-103319083D01*
X148509299Y-103320685D01*
X148538213Y-103323751D01*
X148548330Y-103322840D01*
X148558464Y-103323399D01*
X148587243Y-103319334D01*
X148616198Y-103316725D01*
X148625941Y-103313867D01*
X148635995Y-103312447D01*
X148663436Y-103302869D01*
X148691333Y-103294687D01*
X148700336Y-103289991D01*
X148709922Y-103286645D01*
X148734985Y-103271917D01*
X148760755Y-103258474D01*
X148765424Y-103255378D01*
X148783961Y-103242900D01*
X148799053Y-103230438D01*
X148815296Y-103219509D01*
X148819592Y-103215913D01*
X148860615Y-103181080D01*
X148862693Y-103178934D01*
X148865121Y-103177196D01*
X148869311Y-103173478D01*
X148928845Y-103119904D01*
X148928989Y-103119746D01*
X148929164Y-103119617D01*
X148933298Y-103115836D01*
X149007365Y-103047141D01*
X149007411Y-103047089D01*
X149010525Y-103044179D01*
X149095148Y-102963977D01*
X149095216Y-102963899D01*
X149097334Y-102961889D01*
X149150854Y-102910394D01*
X149150903Y-102910336D01*
X149153868Y-102907463D01*
X149247502Y-102815463D01*
X149247914Y-102814971D01*
X149248417Y-102814562D01*
X149252373Y-102810595D01*
X149333295Y-102728308D01*
X149334358Y-102726991D01*
X149335647Y-102725896D01*
X149339513Y-102721842D01*
X149404449Y-102652788D01*
X149407251Y-102649155D01*
X149410632Y-102646061D01*
X149414347Y-102641867D01*
X149460028Y-102589566D01*
X149469140Y-102576807D01*
X149479685Y-102565204D01*
X149482998Y-102560687D01*
X149506151Y-102528660D01*
X149514981Y-102513526D01*
X149525393Y-102499438D01*
X149534666Y-102479789D01*
X149545612Y-102461030D01*
X149549850Y-102448766D01*
X149552631Y-102443658D01*
X149554423Y-102437927D01*
X149558812Y-102428628D01*
X149560660Y-102423339D01*
X149562881Y-102416839D01*
X149567170Y-102398647D01*
X149571186Y-102387024D01*
X149571852Y-102382198D01*
X149576003Y-102368927D01*
X149577548Y-102354619D01*
X149580847Y-102340627D01*
X149581743Y-102315790D01*
X149584412Y-102291079D01*
X149583150Y-102276756D01*
X149583669Y-102262378D01*
X149579723Y-102237837D01*
X149577542Y-102213080D01*
X149573520Y-102199267D01*
X149571237Y-102185070D01*
X149562602Y-102161769D01*
X149555652Y-102137902D01*
X149553532Y-102132717D01*
X149543224Y-102107995D01*
X149532884Y-102088739D01*
X149524243Y-102068651D01*
X149521504Y-102063764D01*
X149493019Y-102013775D01*
X149490353Y-102010006D01*
X149488376Y-102005841D01*
X149485458Y-102001059D01*
X149441956Y-101930866D01*
X149441138Y-101929796D01*
X149440533Y-101928586D01*
X149437517Y-101923865D01*
X149382157Y-101838528D01*
X149381934Y-101838249D01*
X149381768Y-101837929D01*
X149378678Y-101833256D01*
X149314621Y-101737838D01*
X149314564Y-101737769D01*
X149312543Y-101734773D01*
X149294326Y-101708170D01*
X149294304Y-101708144D01*
X149294062Y-101707786D01*
X149228061Y-101611645D01*
X149170602Y-101527652D01*
X149179822Y-101502021D01*
X149212911Y-101414005D01*
X149247685Y-101324878D01*
X149275231Y-101256975D01*
X149322685Y-101247655D01*
X149436559Y-101226271D01*
X149583512Y-101199283D01*
X149583525Y-101199281D01*
X149615601Y-101193431D01*
X149615680Y-101193408D01*
X149619722Y-101192657D01*
X149714790Y-101174290D01*
X149716471Y-101173791D01*
X149718212Y-101173613D01*
X149723695Y-101172464D01*
X149806575Y-101154495D01*
X149809915Y-101153420D01*
X149813396Y-101152954D01*
X149818840Y-101151634D01*
X149882205Y-101135798D01*
X149893148Y-101131895D01*
X149904519Y-101129531D01*
X149909854Y-101127824D01*
X149946383Y-101115855D01*
X149980672Y-101100773D01*
X149989250Y-101097084D01*
X150004308Y-101091385D01*
X150008322Y-101088884D01*
X150015147Y-101085949D01*
X150017970Y-101084367D01*
X150018056Y-101084329D01*
X150018131Y-101084276D01*
X150020034Y-101083210D01*
X150024932Y-101080420D01*
X150047405Y-101064528D01*
X150070761Y-101049973D01*
X150079304Y-101041970D01*
X150088862Y-101035211D01*
X150107820Y-101015257D01*
X150127905Y-100996441D01*
X150134731Y-100986930D01*
X150142793Y-100978445D01*
X150157512Y-100955192D01*
X150173562Y-100932831D01*
X150178411Y-100922177D01*
X150184672Y-100912285D01*
X150194595Y-100886614D01*
X150205995Y-100861563D01*
X150207769Y-100856250D01*
X150215840Y-100831512D01*
X150223759Y-100795704D01*
X150232133Y-100759907D01*
X150232737Y-100755103D01*
X150232747Y-100755058D01*
X150232748Y-100755017D01*
X150232832Y-100754348D01*
X150239392Y-100699066D01*
X150239559Y-100690883D01*
X150240985Y-100682824D01*
X150241379Y-100677235D01*
X150246425Y-100597834D01*
X150246334Y-100595176D01*
X150246726Y-100592546D01*
X150246969Y-100586949D01*
X150250495Y-100489856D01*
X150250447Y-100489078D01*
X150250548Y-100488308D01*
X150250691Y-100482707D01*
X150252693Y-100374350D01*
X150252688Y-100374285D01*
X150252695Y-100374223D01*
X150252757Y-100368621D01*
X150253232Y-100255423D01*
X150253232Y-100255420D01*
X150253218Y-100249933D01*
X150252159Y-100138321D01*
X150252124Y-100138000D01*
X150252152Y-100137682D01*
X150252051Y-100132081D01*
X150249456Y-100028483D01*
X150249275Y-100027017D01*
X150249372Y-100025536D01*
X150249151Y-100019938D01*
X150245015Y-99930777D01*
X150244359Y-99926255D01*
X150244490Y-99921685D01*
X150244064Y-99916099D01*
X150238381Y-99847803D01*
X150235579Y-99832474D01*
X150234600Y-99816914D01*
X150233665Y-99811390D01*
X150226433Y-99770384D01*
X150221295Y-99751985D01*
X150218026Y-99733162D01*
X150210791Y-99714367D01*
X150205374Y-99694968D01*
X150196758Y-99677914D01*
X150189897Y-99660089D01*
X150187349Y-99655100D01*
X150182989Y-99646708D01*
X150174070Y-99633002D01*
X150170068Y-99625080D01*
X150164173Y-99617535D01*
X150150011Y-99593751D01*
X150144650Y-99587791D01*
X150140282Y-99581079D01*
X150118514Y-99558736D01*
X150097645Y-99535537D01*
X150091232Y-99530735D01*
X150085641Y-99524996D01*
X150059940Y-99507302D01*
X150034970Y-99488603D01*
X150027747Y-99485138D01*
X150021147Y-99480594D01*
X149992502Y-99468230D01*
X149964373Y-99454736D01*
X149959097Y-99452854D01*
X149934824Y-99444388D01*
X149919705Y-99440723D01*
X149905131Y-99435305D01*
X149899705Y-99433912D01*
X149844433Y-99420139D01*
X149841978Y-99419777D01*
X149839631Y-99418974D01*
X149834170Y-99417725D01*
X149753405Y-99399840D01*
X149753334Y-99399831D01*
X149753265Y-99399809D01*
X149747787Y-99398638D01*
X149647037Y-99377836D01*
X149646961Y-99377828D01*
X149642882Y-99377001D01*
X149527653Y-99354476D01*
X149527560Y-99354467D01*
X149524823Y-99353933D01*
X149462042Y-99342128D01*
X149462021Y-99342126D01*
X149461624Y-99342049D01*
X149343316Y-99319934D01*
X149248675Y-99301961D01*
X149239105Y-99279813D01*
X149201655Y-99192103D01*
X149164253Y-99103577D01*
X149149134Y-99067369D01*
X149171547Y-99033746D01*
X149235094Y-98940096D01*
X149272401Y-98885773D01*
X149272434Y-98885713D01*
X149273059Y-98884811D01*
X149342105Y-98783642D01*
X149342143Y-98783572D01*
X149344391Y-98780256D01*
X149405716Y-98688404D01*
X149405734Y-98688370D01*
X149408459Y-98684240D01*
X149459072Y-98606354D01*
X149459571Y-98605392D01*
X149460244Y-98604540D01*
X149463238Y-98599805D01*
X149500146Y-98540531D01*
X149502965Y-98534829D01*
X149506675Y-98529666D01*
X149509451Y-98524799D01*
X149529662Y-98488781D01*
X149541783Y-98461165D01*
X149548033Y-98448506D01*
X149551818Y-98441584D01*
X149552464Y-98439531D01*
X149555140Y-98434111D01*
X149557082Y-98428856D01*
X149560000Y-98420783D01*
X149560679Y-98418116D01*
X149561132Y-98417083D01*
X149562420Y-98411273D01*
X149566910Y-98393628D01*
X149575323Y-98366894D01*
X149576547Y-98355756D01*
X149579309Y-98344900D01*
X149580813Y-98316925D01*
X149583874Y-98289062D01*
X149582911Y-98277898D01*
X149583512Y-98266713D01*
X149579552Y-98238973D01*
X149577143Y-98211051D01*
X149574030Y-98200287D01*
X149572447Y-98189198D01*
X149563176Y-98162758D01*
X149555389Y-98135834D01*
X149550244Y-98125878D01*
X149546538Y-98115309D01*
X149532308Y-98091174D01*
X149519439Y-98066274D01*
X149516361Y-98061594D01*
X149503813Y-98042801D01*
X149489801Y-98025701D01*
X149477294Y-98007464D01*
X149473660Y-98003201D01*
X149438970Y-97963074D01*
X149436509Y-97960734D01*
X149434500Y-97957990D01*
X149430736Y-97953841D01*
X149378336Y-97896877D01*
X149378205Y-97896760D01*
X149378101Y-97896622D01*
X149374276Y-97892528D01*
X149308597Y-97823220D01*
X149308526Y-97823159D01*
X149305943Y-97820447D01*
X149231415Y-97743293D01*
X149231343Y-97743232D01*
X149229314Y-97741134D01*
X149150371Y-97660628D01*
X149150296Y-97660565D01*
X149148378Y-97658609D01*
X149069447Y-97579247D01*
X149069374Y-97579187D01*
X149067216Y-97577021D01*
X148992733Y-97503298D01*
X148992674Y-97503250D01*
X148989726Y-97500353D01*
X148924120Y-97436765D01*
X148923589Y-97436342D01*
X148923142Y-97435819D01*
X148919079Y-97431962D01*
X148866780Y-97383004D01*
X148862580Y-97379780D01*
X148858984Y-97375896D01*
X148854770Y-97372206D01*
X148820212Y-97342373D01*
X148796262Y-97325475D01*
X148773154Y-97307406D01*
X148768404Y-97304436D01*
X148756843Y-97297317D01*
X148747922Y-97292961D01*
X148739727Y-97287351D01*
X148712800Y-97275813D01*
X148686481Y-97262963D01*
X148676881Y-97260422D01*
X148667755Y-97256512D01*
X148639103Y-97250424D01*
X148610787Y-97242930D01*
X148600880Y-97242302D01*
X148591164Y-97240238D01*
X148561883Y-97239832D01*
X148532643Y-97237980D01*
X148522791Y-97239290D01*
X148512871Y-97239153D01*
X148484082Y-97244439D01*
X148455026Y-97248304D01*
X148445621Y-97251501D01*
X148435858Y-97253294D01*
X148408627Y-97264078D01*
X148380892Y-97273507D01*
X148372292Y-97278468D01*
X148363059Y-97282124D01*
X148358095Y-97284720D01*
X148339271Y-97294731D01*
X148329958Y-97300920D01*
X148319869Y-97305752D01*
X148315097Y-97308687D01*
X148270074Y-97336812D01*
X148269550Y-97337215D01*
X148268959Y-97337511D01*
X148264238Y-97340528D01*
X148197395Y-97383903D01*
X148197318Y-97383964D01*
X148194419Y-97385853D01*
X148110131Y-97441617D01*
X148110052Y-97441681D01*
X148108043Y-97443008D01*
X148010688Y-97508296D01*
X148010622Y-97508350D01*
X148009155Y-97509329D01*
X147935718Y-97559069D01*
X147935686Y-97559096D01*
X147935109Y-97559482D01*
X147742776Y-97690268D01*
X147525061Y-97600519D01*
X147481530Y-97369606D01*
X147397709Y-96924982D01*
X147397588Y-96924567D01*
X147397548Y-96924130D01*
X147386588Y-96886892D01*
X147375764Y-96849819D01*
X147375563Y-96849432D01*
X147375440Y-96849015D01*
X147357525Y-96814746D01*
X147339638Y-96780351D01*
X147339366Y-96780011D01*
X147339164Y-96779625D01*
X147314922Y-96749475D01*
X147290706Y-96719222D01*
X147290373Y-96718941D01*
X147290100Y-96718602D01*
X147260427Y-96693703D01*
X147230834Y-96668762D01*
X147230454Y-96668552D01*
X147230119Y-96668271D01*
X147196251Y-96649652D01*
X147162300Y-96630892D01*
X147161882Y-96630758D01*
X147161503Y-96630550D01*
X147124549Y-96618827D01*
X147087716Y-96607056D01*
X147087287Y-96607007D01*
X147086868Y-96606874D01*
X147048195Y-96602536D01*
X147009922Y-96598159D01*
X147009488Y-96598194D01*
X147009056Y-96598146D01*
X147003454Y-96598107D01*
X146078006Y-96598107D01*
X146077572Y-96598150D01*
X146077138Y-96598108D01*
X146038515Y-96601979D01*
X146000079Y-96605748D01*
X145999664Y-96605873D01*
X145999228Y-96605917D01*
X145962181Y-96617190D01*
X145925121Y-96628379D01*
X145924734Y-96628585D01*
X145924319Y-96628711D01*
X145890274Y-96646907D01*
X145855985Y-96665139D01*
X145855647Y-96665415D01*
X145855263Y-96665620D01*
X145825221Y-96690230D01*
X145795307Y-96714627D01*
X145795031Y-96714960D01*
X145794691Y-96715239D01*
X145770018Y-96745196D01*
X145745396Y-96774959D01*
X145745188Y-96775344D01*
X145744912Y-96775679D01*
X145726545Y-96809825D01*
X145708155Y-96843836D01*
X145708027Y-96844249D01*
X145707819Y-96844636D01*
X145696418Y-96881751D01*
X145685000Y-96918635D01*
X145684954Y-96919069D01*
X145684827Y-96919484D01*
X145683751Y-96924982D01*
X145599949Y-97369512D01*
X145599931Y-97369606D01*
X145556399Y-97600520D01*
X145448247Y-97645104D01*
X145448175Y-97645133D01*
X145338685Y-97690268D01*
X145146351Y-97559482D01*
X145146300Y-97559454D01*
X145145456Y-97558875D01*
X145041545Y-97488625D01*
X145041462Y-97488580D01*
X145039645Y-97487348D01*
X144945714Y-97424624D01*
X144945628Y-97424578D01*
X144943386Y-97423081D01*
X144863821Y-97370747D01*
X144863759Y-97370715D01*
X144860236Y-97368416D01*
X144799418Y-97329335D01*
X144797638Y-97328423D01*
X144796056Y-97327198D01*
X144791292Y-97324250D01*
X144753605Y-97301286D01*
X144738442Y-97293970D01*
X144724178Y-97285005D01*
X144719149Y-97282536D01*
X144708885Y-97277585D01*
X144697332Y-97273346D01*
X144686451Y-97267598D01*
X144660655Y-97259887D01*
X144635377Y-97250611D01*
X144623218Y-97248696D01*
X144611430Y-97245172D01*
X144584631Y-97242618D01*
X144558031Y-97238428D01*
X144545735Y-97238911D01*
X144533483Y-97237743D01*
X144506695Y-97240444D01*
X144479790Y-97241500D01*
X144467819Y-97244363D01*
X144455577Y-97245597D01*
X144429821Y-97253450D01*
X144403637Y-97259712D01*
X144392455Y-97264843D01*
X144380681Y-97268433D01*
X144356935Y-97281142D01*
X144332471Y-97292368D01*
X144322500Y-97299572D01*
X144311647Y-97305381D01*
X144307011Y-97308527D01*
X144288522Y-97321261D01*
X144271537Y-97335593D01*
X144253392Y-97348441D01*
X144249183Y-97352139D01*
X144209673Y-97387345D01*
X144207369Y-97389842D01*
X144204666Y-97391884D01*
X144200573Y-97395709D01*
X144144471Y-97448889D01*
X144144360Y-97449017D01*
X144144225Y-97449122D01*
X144140190Y-97453008D01*
X144071925Y-97519664D01*
X144071867Y-97519733D01*
X144069201Y-97522349D01*
X143993203Y-97597984D01*
X143993138Y-97598063D01*
X143991081Y-97600112D01*
X143911776Y-97680229D01*
X143911713Y-97680307D01*
X143909799Y-97682240D01*
X143831615Y-97762343D01*
X143831552Y-97762422D01*
X143829430Y-97764599D01*
X143756798Y-97840190D01*
X143756755Y-97840244D01*
X143753912Y-97843225D01*
X143691260Y-97909806D01*
X143690858Y-97910327D01*
X143690362Y-97910763D01*
X143686565Y-97914882D01*
X143638321Y-97967954D01*
X143635192Y-97972156D01*
X143631406Y-97975764D01*
X143627776Y-97980031D01*
X143598369Y-98015100D01*
X143582058Y-98038938D01*
X143564539Y-98061914D01*
X143561627Y-98066700D01*
X143554596Y-98078436D01*
X143539052Y-98111282D01*
X143523060Y-98143871D01*
X143522324Y-98146628D01*
X143521102Y-98149211D01*
X143512245Y-98184407D01*
X143502875Y-98219525D01*
X143502688Y-98222380D01*
X143501993Y-98225144D01*
X143500141Y-98261381D01*
X143497771Y-98297659D01*
X143498142Y-98300490D01*
X143497996Y-98303343D01*
X143503222Y-98339281D01*
X143507939Y-98375296D01*
X143508853Y-98378003D01*
X143509264Y-98380828D01*
X143521365Y-98415048D01*
X143532994Y-98449479D01*
X143535332Y-98454571D01*
X143545450Y-98476208D01*
X143554447Y-98491384D01*
X143561761Y-98507436D01*
X143564604Y-98512263D01*
X143592968Y-98559665D01*
X143594614Y-98561890D01*
X143595832Y-98564378D01*
X143598807Y-98569125D01*
X143642437Y-98637656D01*
X143642539Y-98637786D01*
X143642612Y-98637930D01*
X143645657Y-98642632D01*
X143701568Y-98727653D01*
X143701614Y-98727710D01*
X143703960Y-98731249D01*
X143769173Y-98828127D01*
X143769234Y-98828201D01*
X143770824Y-98830561D01*
X143808424Y-98885544D01*
X143876480Y-98985241D01*
X143932140Y-99068045D01*
X143922687Y-99090683D01*
X143885607Y-99178454D01*
X143847973Y-99266634D01*
X143832733Y-99301947D01*
X143797275Y-99308747D01*
X143685495Y-99329817D01*
X143620075Y-99342005D01*
X143620000Y-99342027D01*
X143618520Y-99342298D01*
X143498012Y-99365242D01*
X143497933Y-99365265D01*
X143494147Y-99365997D01*
X143385300Y-99387830D01*
X143385249Y-99387846D01*
X143380624Y-99388797D01*
X143288946Y-99408324D01*
X143288108Y-99408590D01*
X143287229Y-99408693D01*
X143281764Y-99409923D01*
X143212758Y-99425949D01*
X143207306Y-99427792D01*
X143201625Y-99428703D01*
X143196217Y-99430163D01*
X143155394Y-99441494D01*
X143131413Y-99450754D01*
X143106868Y-99458378D01*
X143101721Y-99460590D01*
X143093514Y-99464185D01*
X143086602Y-99468057D01*
X143082349Y-99469699D01*
X143082084Y-99469866D01*
X143077851Y-99471451D01*
X143051843Y-99487527D01*
X143025200Y-99502451D01*
X143018617Y-99508064D01*
X143011247Y-99512620D01*
X142988861Y-99533439D01*
X142965621Y-99553256D01*
X142960250Y-99560046D01*
X142953909Y-99565943D01*
X142935995Y-99590709D01*
X142917044Y-99614667D01*
X142913096Y-99622367D01*
X142908019Y-99629386D01*
X142895258Y-99657159D01*
X142881320Y-99684343D01*
X142878941Y-99692669D01*
X142875327Y-99700535D01*
X142873533Y-99705842D01*
X142865496Y-99730174D01*
X142857260Y-99766783D01*
X142848712Y-99803428D01*
X142848332Y-99806467D01*
X142848310Y-99806565D01*
X142848307Y-99806664D01*
X142848017Y-99808987D01*
X142841532Y-99863940D01*
X142841368Y-99872226D01*
X142839933Y-99880393D01*
X142839545Y-99885982D01*
X142834608Y-99965131D01*
X142834703Y-99967816D01*
X142834311Y-99970470D01*
X142834076Y-99976067D01*
X142830682Y-100072985D01*
X142830731Y-100073773D01*
X142830630Y-100074556D01*
X142830495Y-100080156D01*
X142828641Y-100188417D01*
X142828646Y-100188480D01*
X142828638Y-100188551D01*
X142828584Y-100194153D01*
X142828264Y-100307210D01*
X137472400Y-100307210D01*
X137472400Y-97217788D01*
X137553800Y-97217788D01*
X137553800Y-97532212D01*
X137615141Y-97840594D01*
X137735466Y-98131084D01*
X137910151Y-98392518D01*
X138132482Y-98614849D01*
X138393916Y-98789534D01*
X138684406Y-98909859D01*
X138992788Y-98971200D01*
X139307212Y-98971200D01*
X139615594Y-98909859D01*
X139906084Y-98789534D01*
X140167518Y-98614849D01*
X140389849Y-98392518D01*
X140564534Y-98131084D01*
X140684859Y-97840594D01*
X140746200Y-97532212D01*
X140746200Y-97217788D01*
X140684859Y-96909406D01*
X140564534Y-96618916D01*
X140389849Y-96357482D01*
X140167518Y-96135151D01*
X139906084Y-95960466D01*
X139615594Y-95840141D01*
X139307212Y-95778800D01*
X138992788Y-95778800D01*
X138684406Y-95840141D01*
X138393916Y-95960466D01*
X138132482Y-96135151D01*
X137910151Y-96357482D01*
X137735466Y-96618916D01*
X137615141Y-96909406D01*
X137553800Y-97217788D01*
X137472400Y-97217788D01*
X137472400Y-96247121D01*
X137505043Y-96214478D01*
X137576200Y-96107985D01*
X137625213Y-95989656D01*
X137650200Y-95864039D01*
X137650200Y-95735961D01*
X137625213Y-95610344D01*
X137576200Y-95492015D01*
X137505043Y-95385522D01*
X137414478Y-95294957D01*
X137307985Y-95223800D01*
X137189656Y-95174787D01*
X137064039Y-95149800D01*
X136935961Y-95149800D01*
X136810344Y-95174787D01*
X136692015Y-95223800D01*
X136585522Y-95294957D01*
X136494957Y-95385522D01*
X136423800Y-95492015D01*
X136374787Y-95610344D01*
X136349800Y-95735961D01*
X136349800Y-95864039D01*
X136374787Y-95989656D01*
X136423800Y-96107985D01*
X136494957Y-96214478D01*
X136527601Y-96247122D01*
X136527600Y-100501800D01*
X136525315Y-100525000D01*
X136534436Y-100617606D01*
X136541631Y-100641324D01*
X136561448Y-100706653D01*
X136605314Y-100788721D01*
X136664347Y-100860653D01*
X136682370Y-100875444D01*
X137704726Y-101897800D01*
X134438168Y-101897800D01*
X134400000Y-101894041D01*
X134361832Y-101897800D01*
X134361824Y-101897800D01*
X134260985Y-101907732D01*
X134247641Y-101909046D01*
X134208815Y-101920824D01*
X134101140Y-101953487D01*
X133966122Y-102025655D01*
X133902664Y-102077734D01*
X133886986Y-102090601D01*
X133847778Y-102122778D01*
X133823443Y-102152430D01*
X131143075Y-104832800D01*
X125937315Y-104832800D01*
X123467605Y-102363090D01*
X124603800Y-102363090D01*
X124603800Y-102716910D01*
X124672827Y-103063932D01*
X124808228Y-103390820D01*
X125004800Y-103685011D01*
X125254989Y-103935200D01*
X125549180Y-104131772D01*
X125876068Y-104267173D01*
X126223090Y-104336200D01*
X126576910Y-104336200D01*
X126923932Y-104267173D01*
X127250820Y-104131772D01*
X127545011Y-103935200D01*
X127795200Y-103685011D01*
X127991772Y-103390820D01*
X128127173Y-103063932D01*
X128196200Y-102716910D01*
X128196200Y-102363090D01*
X128127173Y-102016068D01*
X127991772Y-101689180D01*
X127795200Y-101394989D01*
X127545011Y-101144800D01*
X127250820Y-100948228D01*
X126923932Y-100812827D01*
X126576910Y-100743800D01*
X126223090Y-100743800D01*
X125876068Y-100812827D01*
X125549180Y-100948228D01*
X125254989Y-101144800D01*
X125004800Y-101394989D01*
X124808228Y-101689180D01*
X124672827Y-102016068D01*
X124603800Y-102363090D01*
X123467605Y-102363090D01*
X120033907Y-98929393D01*
X120016643Y-98908357D01*
X119932712Y-98839476D01*
X119836956Y-98788294D01*
X119733054Y-98756775D01*
X119652079Y-98748800D01*
X119652069Y-98748800D01*
X119625000Y-98746134D01*
X119597931Y-98748800D01*
X110415176Y-98748800D01*
X109307798Y-97283090D01*
X124603800Y-97283090D01*
X124603800Y-97636910D01*
X124672827Y-97983932D01*
X124808228Y-98310820D01*
X125004800Y-98605011D01*
X125254989Y-98855200D01*
X125549180Y-99051772D01*
X125876068Y-99187173D01*
X126223090Y-99256200D01*
X126576910Y-99256200D01*
X126923932Y-99187173D01*
X127250820Y-99051772D01*
X127251441Y-99051357D01*
X128551873Y-100351790D01*
X128568252Y-100371748D01*
X128588209Y-100388126D01*
X128588211Y-100388128D01*
X128615030Y-100410137D01*
X128647920Y-100437129D01*
X128738811Y-100485712D01*
X128837435Y-100515629D01*
X128914303Y-100523200D01*
X128914312Y-100523200D01*
X128939999Y-100525730D01*
X128965686Y-100523200D01*
X132292681Y-100523200D01*
X132292827Y-100523932D01*
X132428228Y-100850820D01*
X132624800Y-101145011D01*
X132874989Y-101395200D01*
X133169180Y-101591772D01*
X133496068Y-101727173D01*
X133843090Y-101796200D01*
X134196910Y-101796200D01*
X134543932Y-101727173D01*
X134870820Y-101591772D01*
X135165011Y-101395200D01*
X135415200Y-101145011D01*
X135611772Y-100850820D01*
X135747173Y-100523932D01*
X135816200Y-100176910D01*
X135816200Y-99823090D01*
X135747173Y-99476068D01*
X135611772Y-99149180D01*
X135415200Y-98854989D01*
X135165011Y-98604800D01*
X134870820Y-98408228D01*
X134543932Y-98272827D01*
X134196910Y-98203800D01*
X133843090Y-98203800D01*
X133496068Y-98272827D01*
X133169180Y-98408228D01*
X132874989Y-98604800D01*
X132624800Y-98854989D01*
X132428228Y-99149180D01*
X132292827Y-99476068D01*
X132292681Y-99476800D01*
X129156717Y-99476800D01*
X127991357Y-98311441D01*
X127991772Y-98310820D01*
X128127173Y-97983932D01*
X128196200Y-97636910D01*
X128196200Y-97283090D01*
X128127173Y-96936068D01*
X127991772Y-96609180D01*
X127795200Y-96314989D01*
X127545011Y-96064800D01*
X127250820Y-95868228D01*
X126923932Y-95732827D01*
X126576910Y-95663800D01*
X126223090Y-95663800D01*
X125876068Y-95732827D01*
X125549180Y-95868228D01*
X125254989Y-96064800D01*
X125004800Y-96314989D01*
X124808228Y-96609180D01*
X124672827Y-96936068D01*
X124603800Y-97283090D01*
X109307798Y-97283090D01*
X108460200Y-96161223D01*
X108460200Y-96150961D01*
X108435213Y-96025344D01*
X108386200Y-95907015D01*
X108315043Y-95800522D01*
X108224478Y-95709957D01*
X108117985Y-95638800D01*
X107999656Y-95589787D01*
X107874039Y-95564800D01*
X107745961Y-95564800D01*
X107620344Y-95589787D01*
X107502015Y-95638800D01*
X107395522Y-95709957D01*
X107304957Y-95800522D01*
X107233800Y-95907015D01*
X107184787Y-96025344D01*
X107159800Y-96150961D01*
X101814036Y-96150961D01*
X100990335Y-95327260D01*
X108893800Y-95327260D01*
X108893800Y-95572740D01*
X108941691Y-95813503D01*
X109035632Y-96040297D01*
X109172013Y-96244406D01*
X109345594Y-96417987D01*
X109549703Y-96554368D01*
X109776497Y-96648309D01*
X110017260Y-96696200D01*
X110262740Y-96696200D01*
X110503503Y-96648309D01*
X110730297Y-96554368D01*
X110934406Y-96417987D01*
X111107987Y-96244406D01*
X111244368Y-96040297D01*
X111338309Y-95813503D01*
X111386200Y-95572740D01*
X111386200Y-95327260D01*
X111433800Y-95327260D01*
X111433800Y-95572740D01*
X111481691Y-95813503D01*
X111575632Y-96040297D01*
X111712013Y-96244406D01*
X111885594Y-96417987D01*
X112089703Y-96554368D01*
X112316497Y-96648309D01*
X112557260Y-96696200D01*
X112802740Y-96696200D01*
X113043503Y-96648309D01*
X113270297Y-96554368D01*
X113474406Y-96417987D01*
X113647987Y-96244406D01*
X113784368Y-96040297D01*
X113878309Y-95813503D01*
X113926200Y-95572740D01*
X113926200Y-95327260D01*
X113973800Y-95327260D01*
X113973800Y-95572740D01*
X114021691Y-95813503D01*
X114115632Y-96040297D01*
X114252013Y-96244406D01*
X114425594Y-96417987D01*
X114629703Y-96554368D01*
X114856497Y-96648309D01*
X115097260Y-96696200D01*
X115342740Y-96696200D01*
X115583503Y-96648309D01*
X115810297Y-96554368D01*
X116014406Y-96417987D01*
X116187987Y-96244406D01*
X116324368Y-96040297D01*
X116418309Y-95813503D01*
X116466200Y-95572740D01*
X116466200Y-95327260D01*
X116513800Y-95327260D01*
X116513800Y-95572740D01*
X116561691Y-95813503D01*
X116655632Y-96040297D01*
X116792013Y-96244406D01*
X116965594Y-96417987D01*
X117169703Y-96554368D01*
X117396497Y-96648309D01*
X117637260Y-96696200D01*
X117882740Y-96696200D01*
X118123503Y-96648309D01*
X118350297Y-96554368D01*
X118554406Y-96417987D01*
X118727987Y-96244406D01*
X118864368Y-96040297D01*
X118958309Y-95813503D01*
X119006200Y-95572740D01*
X119006200Y-95327260D01*
X118958309Y-95086497D01*
X118864368Y-94859703D01*
X118727987Y-94655594D01*
X118554406Y-94482013D01*
X118350297Y-94345632D01*
X118123503Y-94251691D01*
X117882740Y-94203800D01*
X117637260Y-94203800D01*
X117396497Y-94251691D01*
X117169703Y-94345632D01*
X116965594Y-94482013D01*
X116792013Y-94655594D01*
X116655632Y-94859703D01*
X116561691Y-95086497D01*
X116513800Y-95327260D01*
X116466200Y-95327260D01*
X116418309Y-95086497D01*
X116324368Y-94859703D01*
X116187987Y-94655594D01*
X116014406Y-94482013D01*
X115810297Y-94345632D01*
X115583503Y-94251691D01*
X115342740Y-94203800D01*
X115097260Y-94203800D01*
X114856497Y-94251691D01*
X114629703Y-94345632D01*
X114425594Y-94482013D01*
X114252013Y-94655594D01*
X114115632Y-94859703D01*
X114021691Y-95086497D01*
X113973800Y-95327260D01*
X113926200Y-95327260D01*
X113878309Y-95086497D01*
X113784368Y-94859703D01*
X113647987Y-94655594D01*
X113474406Y-94482013D01*
X113270297Y-94345632D01*
X113043503Y-94251691D01*
X112802740Y-94203800D01*
X112557260Y-94203800D01*
X112316497Y-94251691D01*
X112089703Y-94345632D01*
X111885594Y-94482013D01*
X111712013Y-94655594D01*
X111575632Y-94859703D01*
X111481691Y-95086497D01*
X111433800Y-95327260D01*
X111386200Y-95327260D01*
X111338309Y-95086497D01*
X111244368Y-94859703D01*
X111107987Y-94655594D01*
X110934406Y-94482013D01*
X110730297Y-94345632D01*
X110503503Y-94251691D01*
X110262740Y-94203800D01*
X110017260Y-94203800D01*
X109776497Y-94251691D01*
X109549703Y-94345632D01*
X109345594Y-94482013D01*
X109172013Y-94655594D01*
X109035632Y-94859703D01*
X108941691Y-95086497D01*
X108893800Y-95327260D01*
X100990335Y-95327260D01*
X100770444Y-95107370D01*
X100755653Y-95089347D01*
X100683721Y-95030314D01*
X100601654Y-94986448D01*
X100512606Y-94959436D01*
X100447549Y-94953028D01*
X100414478Y-94919957D01*
X100307985Y-94848800D01*
X100189656Y-94799787D01*
X100064039Y-94774800D01*
X99935961Y-94774800D01*
X99810344Y-94799787D01*
X99692015Y-94848800D01*
X99585522Y-94919957D01*
X99494957Y-95010522D01*
X99423800Y-95117015D01*
X99374787Y-95235344D01*
X99349800Y-95360961D01*
X99349800Y-95489039D01*
X99374787Y-95614656D01*
X99423800Y-95732985D01*
X99441693Y-95759764D01*
X99429870Y-95777459D01*
X99380857Y-95895788D01*
X99355870Y-96021405D01*
X99355870Y-96149483D01*
X99380857Y-96275100D01*
X99429870Y-96393429D01*
X99501027Y-96499922D01*
X99549562Y-96548457D01*
X99536823Y-96567523D01*
X99487810Y-96685852D01*
X99462823Y-96811469D01*
X99462823Y-96939547D01*
X99487810Y-97065164D01*
X99536823Y-97183493D01*
X99607980Y-97289986D01*
X99698545Y-97380551D01*
X99746310Y-97412467D01*
X99726635Y-97511378D01*
X99726635Y-97639456D01*
X99751622Y-97765073D01*
X99800635Y-97883402D01*
X99871792Y-97989895D01*
X99962357Y-98080460D01*
X100068850Y-98151617D01*
X100187179Y-98200630D01*
X100312796Y-98225617D01*
X100358961Y-98225617D01*
X106559973Y-104426629D01*
X106574764Y-104444652D01*
X106646696Y-104503685D01*
X106728763Y-104547551D01*
X106817811Y-104574563D01*
X106887217Y-104581399D01*
X106887226Y-104581399D01*
X106910416Y-104583683D01*
X106933606Y-104581399D01*
X108936218Y-104581399D01*
X108922188Y-104607647D01*
X108899533Y-104682331D01*
X108891883Y-104760000D01*
X108891883Y-106460000D01*
X108899533Y-106537669D01*
X108922188Y-106612353D01*
X108958978Y-106681182D01*
X109008489Y-106741511D01*
X109068818Y-106791022D01*
X109137647Y-106827812D01*
X109212331Y-106850467D01*
X109290000Y-106858117D01*
X110990000Y-106858117D01*
X111067669Y-106850467D01*
X111142353Y-106827812D01*
X111211182Y-106791022D01*
X111271511Y-106741511D01*
X111321022Y-106681182D01*
X111357812Y-106612353D01*
X111380467Y-106537669D01*
X111388117Y-106460000D01*
X111388117Y-104760000D01*
X111380467Y-104682331D01*
X111357812Y-104607647D01*
X111343782Y-104581399D01*
X111976309Y-104581399D01*
X111885594Y-104642013D01*
X111712013Y-104815594D01*
X111575632Y-105019703D01*
X111481691Y-105246497D01*
X111433800Y-105487260D01*
X111433800Y-105732740D01*
X111481691Y-105973503D01*
X111575632Y-106200297D01*
X111712013Y-106404406D01*
X111885594Y-106577987D01*
X112089703Y-106714368D01*
X112316497Y-106808309D01*
X112557260Y-106856200D01*
X112802740Y-106856200D01*
X113043503Y-106808309D01*
X113270297Y-106714368D01*
X113474406Y-106577987D01*
X113647987Y-106404406D01*
X113784368Y-106200297D01*
X113878309Y-105973503D01*
X113926200Y-105732740D01*
X113926200Y-105487260D01*
X113878309Y-105246497D01*
X113784368Y-105019703D01*
X113647987Y-104815594D01*
X113474406Y-104642013D01*
X113383691Y-104581399D01*
X114516309Y-104581399D01*
X114425594Y-104642013D01*
X114252013Y-104815594D01*
X114115632Y-105019703D01*
X114021691Y-105246497D01*
X113973800Y-105487260D01*
X113973800Y-105732740D01*
X114021691Y-105973503D01*
X114040815Y-106019671D01*
X113001686Y-107058800D01*
X100768905Y-107058800D01*
X100806200Y-107002985D01*
X100855213Y-106884656D01*
X100880200Y-106759039D01*
X100880200Y-106630961D01*
X100855213Y-106505344D01*
X100806200Y-106387015D01*
X100735043Y-106280522D01*
X100644478Y-106189957D01*
X100537985Y-106118800D01*
X100419656Y-106069787D01*
X100294039Y-106044800D01*
X100165961Y-106044800D01*
X100040344Y-106069787D01*
X99922015Y-106118800D01*
X99815522Y-106189957D01*
X99782879Y-106222600D01*
X98549466Y-106222600D01*
X98564368Y-106200297D01*
X98658309Y-105973503D01*
X98706200Y-105732740D01*
X98706200Y-105487260D01*
X98658309Y-105246497D01*
X98609474Y-105128600D01*
X100317630Y-103420444D01*
X100335653Y-103405653D01*
X100394686Y-103333721D01*
X100438552Y-103251654D01*
X100465564Y-103162606D01*
X100472400Y-103093200D01*
X100472400Y-103093191D01*
X100474684Y-103070001D01*
X100472400Y-103046811D01*
X100472400Y-99302121D01*
X100505043Y-99269478D01*
X100576200Y-99162985D01*
X100625213Y-99044656D01*
X100650200Y-98919039D01*
X100650200Y-98790961D01*
X100625213Y-98665344D01*
X100576200Y-98547015D01*
X100505043Y-98440522D01*
X100414478Y-98349957D01*
X100307985Y-98278800D01*
X100189656Y-98229787D01*
X100064039Y-98204800D01*
X99935961Y-98204800D01*
X99810344Y-98229787D01*
X99692015Y-98278800D01*
X99585522Y-98349957D01*
X99494957Y-98440522D01*
X99423800Y-98547015D01*
X99374787Y-98665344D01*
X99349800Y-98790961D01*
X99349800Y-98919039D01*
X99374787Y-99044656D01*
X99423800Y-99162985D01*
X99494957Y-99269478D01*
X99527600Y-99302121D01*
X99527601Y-102874325D01*
X97941400Y-104460526D01*
X97823503Y-104411691D01*
X97582740Y-104363800D01*
X97337260Y-104363800D01*
X97096497Y-104411691D01*
X96869703Y-104505632D01*
X96832400Y-104530557D01*
X96832400Y-103662121D01*
X96865043Y-103629478D01*
X96936200Y-103522985D01*
X96985213Y-103404656D01*
X97010200Y-103279039D01*
X97010200Y-103150961D01*
X96985213Y-103025344D01*
X96936200Y-102907015D01*
X96865043Y-102800522D01*
X96774478Y-102709957D01*
X96667985Y-102638800D01*
X96549656Y-102589787D01*
X96424039Y-102564800D01*
X96295961Y-102564800D01*
X96170344Y-102589787D01*
X96052015Y-102638800D01*
X95945522Y-102709957D01*
X95854957Y-102800522D01*
X95783800Y-102907015D01*
X95734787Y-103025344D01*
X95709800Y-103150961D01*
X95709800Y-103279039D01*
X95734787Y-103404656D01*
X95783800Y-103522985D01*
X95854957Y-103629478D01*
X95887600Y-103662121D01*
X95887601Y-104815208D01*
X95714406Y-104642013D01*
X95510297Y-104505632D01*
X95283503Y-104411691D01*
X95042740Y-104363800D01*
X94797260Y-104363800D01*
X94556497Y-104411691D01*
X94329703Y-104505632D01*
X94192400Y-104597375D01*
X94192400Y-103752121D01*
X94225043Y-103719478D01*
X94296200Y-103612985D01*
X94345213Y-103494656D01*
X94370200Y-103369039D01*
X94370200Y-103240961D01*
X94345213Y-103115344D01*
X94296200Y-102997015D01*
X94225043Y-102890522D01*
X94134478Y-102799957D01*
X94027985Y-102728800D01*
X93909656Y-102679787D01*
X93784039Y-102654800D01*
X93655961Y-102654800D01*
X93530344Y-102679787D01*
X93412015Y-102728800D01*
X93305522Y-102799957D01*
X93214957Y-102890522D01*
X93143800Y-102997015D01*
X93094787Y-103115344D01*
X93069800Y-103240961D01*
X93069800Y-103369039D01*
X93094787Y-103494656D01*
X93143800Y-103612985D01*
X93214957Y-103719478D01*
X93247600Y-103752121D01*
X93247601Y-104715208D01*
X93174406Y-104642013D01*
X92970297Y-104505632D01*
X92743503Y-104411691D01*
X92502740Y-104363800D01*
X92257260Y-104363800D01*
X92016497Y-104411691D01*
X91789703Y-104505632D01*
X91585594Y-104642013D01*
X91412013Y-104815594D01*
X91275632Y-105019703D01*
X91181691Y-105246497D01*
X91133800Y-105487260D01*
X91133800Y-105732740D01*
X91181691Y-105973503D01*
X91275632Y-106200297D01*
X91412013Y-106404406D01*
X91585594Y-106577987D01*
X91789703Y-106714368D01*
X92016497Y-106808309D01*
X92257260Y-106856200D01*
X92502740Y-106856200D01*
X92743503Y-106808309D01*
X92970297Y-106714368D01*
X93174406Y-106577987D01*
X93347987Y-106404406D01*
X93387802Y-106344818D01*
X93402366Y-106356770D01*
X94058226Y-107012630D01*
X94073017Y-107030653D01*
X94107314Y-107058800D01*
X75856116Y-107058800D01*
X78211790Y-104703127D01*
X78231748Y-104686748D01*
X78248129Y-104666788D01*
X78297129Y-104607081D01*
X78333616Y-104538818D01*
X78345712Y-104516189D01*
X78375629Y-104417565D01*
X78383200Y-104340697D01*
X78383200Y-104340695D01*
X78385731Y-104315000D01*
X78383200Y-104289305D01*
X78383200Y-103722304D01*
X78436200Y-103642985D01*
X78485213Y-103524656D01*
X78510200Y-103399039D01*
X78510200Y-103270961D01*
X78485213Y-103145344D01*
X78436200Y-103027015D01*
X78365043Y-102920522D01*
X78274478Y-102829957D01*
X78167985Y-102758800D01*
X78049656Y-102709787D01*
X77924039Y-102684800D01*
X77795961Y-102684800D01*
X77670344Y-102709787D01*
X77552015Y-102758800D01*
X77445522Y-102829957D01*
X77354957Y-102920522D01*
X77283800Y-103027015D01*
X77234787Y-103145344D01*
X77209800Y-103270961D01*
X77209800Y-103399039D01*
X77234787Y-103524656D01*
X77283800Y-103642985D01*
X77336800Y-103722305D01*
X77336801Y-104098282D01*
X74376285Y-107058800D01*
X68013314Y-107058800D01*
X66913905Y-105959391D01*
X66896643Y-105938357D01*
X66812712Y-105869476D01*
X66716956Y-105818294D01*
X66613054Y-105786775D01*
X66532079Y-105778800D01*
X66532069Y-105778800D01*
X66505000Y-105776134D01*
X66477931Y-105778800D01*
X64581081Y-105778800D01*
X64576200Y-105767015D01*
X64505043Y-105660522D01*
X64414478Y-105569957D01*
X64307985Y-105498800D01*
X64189656Y-105449787D01*
X64064039Y-105424800D01*
X63935961Y-105424800D01*
X63810344Y-105449787D01*
X63692015Y-105498800D01*
X63585522Y-105569957D01*
X63494957Y-105660522D01*
X63423800Y-105767015D01*
X63374787Y-105885344D01*
X63349800Y-106010961D01*
X63349800Y-106139039D01*
X63374787Y-106264656D01*
X63423800Y-106382985D01*
X63494957Y-106489478D01*
X63585522Y-106580043D01*
X63692015Y-106651200D01*
X63810344Y-106700213D01*
X63852467Y-106708592D01*
X63862356Y-106720642D01*
X63946287Y-106789523D01*
X64032118Y-106835400D01*
X64042043Y-106840705D01*
X64145944Y-106872224D01*
X64155337Y-106873149D01*
X64226920Y-106880199D01*
X64226927Y-106880199D01*
X64253999Y-106882865D01*
X64281071Y-106880199D01*
X64402757Y-106880199D01*
X64440000Y-106883867D01*
X64467079Y-106881200D01*
X64599888Y-106881200D01*
X64589003Y-106892162D01*
X64558511Y-106922021D01*
X64554322Y-106927085D01*
X64554319Y-106927088D01*
X64554317Y-106927091D01*
X64418632Y-107093458D01*
X64395000Y-107129027D01*
X64370872Y-107164266D01*
X64367742Y-107170054D01*
X64266954Y-107359607D01*
X64250657Y-107399147D01*
X64233856Y-107438346D01*
X64231910Y-107444631D01*
X64206498Y-107528800D01*
X60123044Y-107528800D01*
X59803493Y-107497468D01*
X59518281Y-107411357D01*
X59255224Y-107271486D01*
X59024347Y-107083187D01*
X58834443Y-106853633D01*
X58692738Y-106591556D01*
X58604640Y-106306955D01*
X58571200Y-105988799D01*
X58571200Y-102705000D01*
X58633617Y-102705000D01*
X58654299Y-102914992D01*
X58715552Y-103116914D01*
X58815020Y-103303006D01*
X58948882Y-103466118D01*
X59111994Y-103599980D01*
X59298086Y-103699448D01*
X59500008Y-103760701D01*
X59657375Y-103776200D01*
X60112625Y-103776200D01*
X60269992Y-103760701D01*
X60471914Y-103699448D01*
X60658006Y-103599980D01*
X60821118Y-103466118D01*
X60954980Y-103303006D01*
X60979998Y-103256200D01*
X62288966Y-103256200D01*
X62321153Y-103273404D01*
X62499512Y-103327509D01*
X62638519Y-103341200D01*
X63131481Y-103341200D01*
X63270488Y-103327509D01*
X63448847Y-103273404D01*
X63613224Y-103185543D01*
X63757302Y-103067302D01*
X63875543Y-102923224D01*
X63963404Y-102758847D01*
X64017509Y-102580488D01*
X64035778Y-102395000D01*
X64017509Y-102209512D01*
X63963404Y-102031153D01*
X63875543Y-101866776D01*
X63757302Y-101722698D01*
X63613224Y-101604457D01*
X63448847Y-101516596D01*
X63270488Y-101462491D01*
X63131481Y-101448800D01*
X62638519Y-101448800D01*
X62499512Y-101462491D01*
X62321153Y-101516596D01*
X62156776Y-101604457D01*
X62012698Y-101722698D01*
X61894457Y-101866776D01*
X61806596Y-102031153D01*
X61769391Y-102153800D01*
X60979998Y-102153800D01*
X60954980Y-102106994D01*
X60821118Y-101943882D01*
X60658006Y-101810020D01*
X60471914Y-101710552D01*
X60269992Y-101649299D01*
X60112625Y-101633800D01*
X59657375Y-101633800D01*
X59500008Y-101649299D01*
X59298086Y-101710552D01*
X59111994Y-101810020D01*
X58948882Y-101943882D01*
X58815020Y-102106994D01*
X58715552Y-102293086D01*
X58654299Y-102495008D01*
X58633617Y-102705000D01*
X58571200Y-102705000D01*
X58571200Y-99277474D01*
X63966313Y-99277474D01*
X63966313Y-99405552D01*
X63991300Y-99531169D01*
X64040313Y-99649498D01*
X64111470Y-99755991D01*
X64202035Y-99846556D01*
X64308528Y-99917713D01*
X64426857Y-99966726D01*
X64453062Y-99971938D01*
X64458274Y-99998143D01*
X64507287Y-100116472D01*
X64578444Y-100222965D01*
X64669009Y-100313530D01*
X64775502Y-100384687D01*
X64893831Y-100433700D01*
X65019448Y-100458687D01*
X65147526Y-100458687D01*
X65273143Y-100433700D01*
X65391472Y-100384687D01*
X65497965Y-100313530D01*
X65588530Y-100222965D01*
X65659687Y-100116472D01*
X65708700Y-99998143D01*
X65733687Y-99872526D01*
X65733687Y-99797624D01*
X65802566Y-99728745D01*
X65783800Y-99823090D01*
X65783800Y-100176910D01*
X65852827Y-100523932D01*
X65988228Y-100850820D01*
X66184800Y-101145011D01*
X66434989Y-101395200D01*
X66729180Y-101591772D01*
X67056068Y-101727173D01*
X67403090Y-101796200D01*
X67756910Y-101796200D01*
X68103932Y-101727173D01*
X68430820Y-101591772D01*
X68725011Y-101395200D01*
X68975200Y-101145011D01*
X69171772Y-100850820D01*
X69307173Y-100523932D01*
X69376200Y-100176910D01*
X69376200Y-99823090D01*
X69335086Y-99616398D01*
X69719968Y-100001280D01*
X69720353Y-100001749D01*
X70354211Y-100635607D01*
X70371475Y-100656643D01*
X70455406Y-100725524D01*
X70551162Y-100776706D01*
X70655064Y-100808225D01*
X70736039Y-100816200D01*
X70736048Y-100816200D01*
X70763117Y-100818866D01*
X70790187Y-100816200D01*
X74667925Y-100816200D01*
X74349180Y-100948228D01*
X74054989Y-101144800D01*
X73804800Y-101394989D01*
X73608228Y-101689180D01*
X73472827Y-102016068D01*
X73403800Y-102363090D01*
X73403800Y-102716910D01*
X73472827Y-103063932D01*
X73608228Y-103390820D01*
X73804800Y-103685011D01*
X74054989Y-103935200D01*
X74349180Y-104131772D01*
X74676068Y-104267173D01*
X75023090Y-104336200D01*
X75376910Y-104336200D01*
X75723932Y-104267173D01*
X76050820Y-104131772D01*
X76345011Y-103935200D01*
X76595200Y-103685011D01*
X76791772Y-103390820D01*
X76927173Y-103063932D01*
X76996200Y-102716910D01*
X76996200Y-102363090D01*
X76927173Y-102016068D01*
X76791772Y-101689180D01*
X76595200Y-101394989D01*
X76345011Y-101144800D01*
X76050820Y-100948228D01*
X75732075Y-100816200D01*
X88804600Y-100816200D01*
X88842015Y-100841200D01*
X88908278Y-100868647D01*
X86224326Y-103552600D01*
X80285800Y-103552600D01*
X80262600Y-103550315D01*
X80169993Y-103559436D01*
X80142981Y-103567630D01*
X80080946Y-103586448D01*
X79998879Y-103630314D01*
X79998877Y-103630315D01*
X79998878Y-103630315D01*
X79949977Y-103670447D01*
X79926947Y-103689347D01*
X79912160Y-103707365D01*
X79362366Y-104257160D01*
X79344348Y-104271947D01*
X79329561Y-104289965D01*
X79329558Y-104289968D01*
X79285315Y-104343879D01*
X79275692Y-104361883D01*
X78830000Y-104361883D01*
X78752331Y-104369533D01*
X78677647Y-104392188D01*
X78608818Y-104428978D01*
X78548489Y-104478489D01*
X78498978Y-104538818D01*
X78462188Y-104607647D01*
X78439533Y-104682331D01*
X78431883Y-104760000D01*
X78431883Y-106460000D01*
X78439533Y-106537669D01*
X78462188Y-106612353D01*
X78498978Y-106681182D01*
X78548489Y-106741511D01*
X78608818Y-106791022D01*
X78677647Y-106827812D01*
X78752331Y-106850467D01*
X78830000Y-106858117D01*
X80530000Y-106858117D01*
X80607669Y-106850467D01*
X80682353Y-106827812D01*
X80751182Y-106791022D01*
X80811511Y-106741511D01*
X80861022Y-106681182D01*
X80897812Y-106612353D01*
X80920467Y-106537669D01*
X80928117Y-106460000D01*
X80928117Y-104760000D01*
X80920467Y-104682331D01*
X80897812Y-104607647D01*
X80861022Y-104538818D01*
X80827031Y-104497400D01*
X81649577Y-104497400D01*
X81629703Y-104505632D01*
X81425594Y-104642013D01*
X81252013Y-104815594D01*
X81115632Y-105019703D01*
X81021691Y-105246497D01*
X80973800Y-105487260D01*
X80973800Y-105732740D01*
X81021691Y-105973503D01*
X81115632Y-106200297D01*
X81252013Y-106404406D01*
X81425594Y-106577987D01*
X81629703Y-106714368D01*
X81856497Y-106808309D01*
X82097260Y-106856200D01*
X82342740Y-106856200D01*
X82583503Y-106808309D01*
X82810297Y-106714368D01*
X83014406Y-106577987D01*
X83187987Y-106404406D01*
X83324368Y-106200297D01*
X83418309Y-105973503D01*
X83466200Y-105732740D01*
X83466200Y-105487260D01*
X83418309Y-105246497D01*
X83369475Y-105128600D01*
X83680675Y-104817400D01*
X83790806Y-104817400D01*
X83655632Y-105019703D01*
X83561691Y-105246497D01*
X83513800Y-105487260D01*
X83513800Y-105732740D01*
X83561691Y-105973503D01*
X83655632Y-106200297D01*
X83792013Y-106404406D01*
X83965594Y-106577987D01*
X84169703Y-106714368D01*
X84396497Y-106808309D01*
X84637260Y-106856200D01*
X84882740Y-106856200D01*
X85123503Y-106808309D01*
X85350297Y-106714368D01*
X85554406Y-106577987D01*
X85727987Y-106404406D01*
X85864368Y-106200297D01*
X85958309Y-105973503D01*
X86006200Y-105732740D01*
X86006200Y-105487260D01*
X85958309Y-105246497D01*
X85952470Y-105232401D01*
X86107530Y-105232401D01*
X86101691Y-105246497D01*
X86053800Y-105487260D01*
X86053800Y-105732740D01*
X86101691Y-105973503D01*
X86195632Y-106200297D01*
X86332013Y-106404406D01*
X86505594Y-106577987D01*
X86709703Y-106714368D01*
X86936497Y-106808309D01*
X87177260Y-106856200D01*
X87422740Y-106856200D01*
X87663503Y-106808309D01*
X87890297Y-106714368D01*
X88094406Y-106577987D01*
X88267987Y-106404406D01*
X88404368Y-106200297D01*
X88498309Y-105973503D01*
X88546200Y-105732740D01*
X88546200Y-105487260D01*
X88593800Y-105487260D01*
X88593800Y-105732740D01*
X88641691Y-105973503D01*
X88735632Y-106200297D01*
X88872013Y-106404406D01*
X89045594Y-106577987D01*
X89249703Y-106714368D01*
X89476497Y-106808309D01*
X89717260Y-106856200D01*
X89962740Y-106856200D01*
X90203503Y-106808309D01*
X90430297Y-106714368D01*
X90634406Y-106577987D01*
X90807987Y-106404406D01*
X90944368Y-106200297D01*
X91038309Y-105973503D01*
X91086200Y-105732740D01*
X91086200Y-105487260D01*
X91038309Y-105246497D01*
X90944368Y-105019703D01*
X90807987Y-104815594D01*
X90634406Y-104642013D01*
X90430297Y-104505632D01*
X90203503Y-104411691D01*
X89962740Y-104363800D01*
X89717260Y-104363800D01*
X89476497Y-104411691D01*
X89249703Y-104505632D01*
X89045594Y-104642013D01*
X88872013Y-104815594D01*
X88735632Y-105019703D01*
X88641691Y-105246497D01*
X88593800Y-105487260D01*
X88546200Y-105487260D01*
X88498309Y-105246497D01*
X88404368Y-105019703D01*
X88267987Y-104815594D01*
X88094406Y-104642013D01*
X87890297Y-104505632D01*
X87663503Y-104411691D01*
X87587556Y-104396584D01*
X90759810Y-101224331D01*
X90775522Y-101240043D01*
X90882015Y-101311200D01*
X91000344Y-101360213D01*
X91125961Y-101385200D01*
X91254039Y-101385200D01*
X91379656Y-101360213D01*
X91497985Y-101311200D01*
X91604478Y-101240043D01*
X91695043Y-101149478D01*
X91766200Y-101042985D01*
X91815213Y-100924656D01*
X91840200Y-100799039D01*
X91840200Y-100670961D01*
X91815213Y-100545344D01*
X91766200Y-100427015D01*
X91695043Y-100320522D01*
X91604478Y-100229957D01*
X91497985Y-100158800D01*
X91438234Y-100134051D01*
X91817635Y-99754650D01*
X91835653Y-99739863D01*
X91850498Y-99721775D01*
X91884310Y-99680574D01*
X91894686Y-99667931D01*
X91938552Y-99585864D01*
X91959588Y-99516518D01*
X91964632Y-99499889D01*
X92005043Y-99459478D01*
X92076200Y-99352985D01*
X92125213Y-99234656D01*
X92150200Y-99109039D01*
X92150200Y-98980961D01*
X92125213Y-98855344D01*
X92076200Y-98737015D01*
X92005043Y-98630522D01*
X91914478Y-98539957D01*
X91807985Y-98468800D01*
X91689656Y-98419787D01*
X91621998Y-98406329D01*
X91578951Y-98302403D01*
X91507794Y-98195910D01*
X91417229Y-98105345D01*
X91310736Y-98034188D01*
X91192407Y-97985175D01*
X91066790Y-97960188D01*
X90938712Y-97960188D01*
X90813095Y-97985175D01*
X90694766Y-98034188D01*
X90588273Y-98105345D01*
X90497708Y-98195910D01*
X90426551Y-98302403D01*
X90377538Y-98420732D01*
X90352551Y-98546349D01*
X90352551Y-98674427D01*
X90377538Y-98800044D01*
X90426551Y-98918373D01*
X90497708Y-99024866D01*
X90530351Y-99057509D01*
X90530351Y-99246574D01*
X89753647Y-100023278D01*
X89726200Y-99957015D01*
X89694808Y-99910034D01*
X89706200Y-99892985D01*
X89755213Y-99774656D01*
X89780200Y-99649039D01*
X89780200Y-99520961D01*
X89755213Y-99395344D01*
X89706200Y-99277015D01*
X89635043Y-99170522D01*
X89544478Y-99079957D01*
X89437985Y-99008800D01*
X89319656Y-98959787D01*
X89194039Y-98934800D01*
X89065961Y-98934800D01*
X88940344Y-98959787D01*
X88822015Y-99008800D01*
X88784600Y-99033800D01*
X76077717Y-99033800D01*
X76345011Y-98855200D01*
X76595200Y-98605011D01*
X76791772Y-98310820D01*
X76927173Y-97983932D01*
X76996200Y-97636910D01*
X76996200Y-97283090D01*
X76927173Y-96936068D01*
X76791772Y-96609180D01*
X76595200Y-96314989D01*
X76345011Y-96064800D01*
X76050820Y-95868228D01*
X75723932Y-95732827D01*
X75376910Y-95663800D01*
X75023090Y-95663800D01*
X74676068Y-95732827D01*
X74349180Y-95868228D01*
X74054989Y-96064800D01*
X73804800Y-96314989D01*
X73608228Y-96609180D01*
X73472827Y-96936068D01*
X73403800Y-97283090D01*
X73403800Y-97636910D01*
X73472827Y-97983932D01*
X73608228Y-98310820D01*
X73804800Y-98605011D01*
X74054989Y-98855200D01*
X74322283Y-99033800D01*
X70967660Y-99033800D01*
X70690052Y-98758740D01*
X69304600Y-97373289D01*
X69287342Y-97352260D01*
X69203420Y-97283387D01*
X69107674Y-97232210D01*
X69003784Y-97200695D01*
X68922811Y-97192720D01*
X68922808Y-97192720D01*
X68895742Y-97190054D01*
X68868676Y-97192720D01*
X66381327Y-97192720D01*
X66354258Y-97190054D01*
X66246215Y-97200695D01*
X66142325Y-97232210D01*
X66046579Y-97283387D01*
X66010810Y-97312743D01*
X65962658Y-97352260D01*
X65945400Y-97373289D01*
X64627376Y-98691313D01*
X64552474Y-98691313D01*
X64426857Y-98716300D01*
X64308528Y-98765313D01*
X64202035Y-98836470D01*
X64111470Y-98927035D01*
X64040313Y-99033528D01*
X63991300Y-99151857D01*
X63966313Y-99277474D01*
X58571200Y-99277474D01*
X58571200Y-97245000D01*
X58633617Y-97245000D01*
X58654299Y-97454992D01*
X58715552Y-97656914D01*
X58815020Y-97843006D01*
X58948882Y-98006118D01*
X59111994Y-98139980D01*
X59298086Y-98239448D01*
X59500008Y-98300701D01*
X59657375Y-98316200D01*
X60112625Y-98316200D01*
X60269992Y-98300701D01*
X60471914Y-98239448D01*
X60658006Y-98139980D01*
X60821118Y-98006118D01*
X60954980Y-97843006D01*
X60979998Y-97796200D01*
X61769391Y-97796200D01*
X61806596Y-97918847D01*
X61894457Y-98083224D01*
X62012698Y-98227302D01*
X62156776Y-98345543D01*
X62321153Y-98433404D01*
X62499512Y-98487509D01*
X62638519Y-98501200D01*
X63131481Y-98501200D01*
X63270488Y-98487509D01*
X63448847Y-98433404D01*
X63613224Y-98345543D01*
X63757302Y-98227302D01*
X63875543Y-98083224D01*
X63963404Y-97918847D01*
X64017509Y-97740488D01*
X64035778Y-97555000D01*
X64017509Y-97369512D01*
X63963404Y-97191153D01*
X63875543Y-97026776D01*
X63757302Y-96882698D01*
X63613224Y-96764457D01*
X63448847Y-96676596D01*
X63270488Y-96622491D01*
X63131481Y-96608800D01*
X62638519Y-96608800D01*
X62499512Y-96622491D01*
X62321153Y-96676596D01*
X62288966Y-96693800D01*
X60979998Y-96693800D01*
X60954980Y-96646994D01*
X60821118Y-96483882D01*
X60658006Y-96350020D01*
X60471914Y-96250552D01*
X60269992Y-96189299D01*
X60112625Y-96173800D01*
X59657375Y-96173800D01*
X59500008Y-96189299D01*
X59298086Y-96250552D01*
X59111994Y-96350020D01*
X58948882Y-96483882D01*
X58815020Y-96646994D01*
X58715552Y-96833086D01*
X58654299Y-97035008D01*
X58633617Y-97245000D01*
X58571200Y-97245000D01*
X58571200Y-94023044D01*
X58602532Y-93703495D01*
X58688643Y-93418282D01*
X58828512Y-93155227D01*
X59016812Y-92924348D01*
X59246370Y-92734441D01*
X59508444Y-92592738D01*
X59793043Y-92504640D01*
X60111201Y-92471200D01*
X64206622Y-92471200D01*
X64239807Y-92575812D01*
M02*
