G04 #@! TF.GenerationSoftware,KiCad,Pcbnew,(5.1.6-0-10_14)*
G04 #@! TF.CreationDate,2020-07-04T12:52:55-07:00*
G04 #@! TF.ProjectId,18650,31383635-302e-46b6-9963-61645f706362,rev?*
G04 #@! TF.SameCoordinates,Original*
G04 #@! TF.FileFunction,Profile,NP*
%FSLAX46Y46*%
G04 Gerber Fmt 4.6, Leading zero omitted, Abs format (unit mm)*
G04 Created by KiCad (PCBNEW (5.1.6-0-10_14)) date 2020-07-04 12:52:55*
%MOMM*%
%LPD*%
G01*
G04 APERTURE LIST*
G04 #@! TA.AperFunction,Profile*
%ADD10C,0.150000*%
G04 #@! TD*
G04 APERTURE END LIST*
D10*
X140000000Y-108000000D02*
X151140000Y-108000000D01*
X140100000Y-92000000D02*
X151140000Y-92000000D01*
X140100000Y-92000000D02*
G75*
G02*
X137900000Y-92000000I-1100000J0D01*
G01*
X138000000Y-108000000D02*
G75*
G02*
X140000000Y-108000000I1000000J0D01*
G01*
X152740000Y-104000000D02*
G75*
G03*
X152740000Y-104000000I-500000J0D01*
G01*
X152740000Y-96000000D02*
G75*
G03*
X152740000Y-96000000I-500000J0D01*
G01*
X64600000Y-108000000D02*
X60100000Y-108000000D01*
X64600000Y-108000000D02*
G75*
G02*
X66800000Y-108000000I1100000J0D01*
G01*
X64600000Y-92000000D02*
X60100000Y-92000000D01*
X66800000Y-92000000D02*
G75*
G02*
X64600000Y-92000000I-1100000J0D01*
G01*
X153340000Y-92000000D02*
X155239999Y-91999845D01*
X153340000Y-108000000D02*
X155190001Y-107999999D01*
X155239999Y-91999845D02*
G75*
G02*
X155190001Y-107999999I1J-8000155D01*
G01*
X159240000Y-100000000D02*
G75*
G03*
X159240000Y-100000000I-3000000J0D01*
G01*
X151140000Y-108000000D02*
G75*
G02*
X153340000Y-108000000I1100000J0D01*
G01*
X153340000Y-92000000D02*
G75*
G02*
X151140000Y-92000000I-1100000J0D01*
G01*
X60100000Y-108000000D02*
G75*
G02*
X58100000Y-106000000I0J2000000D01*
G01*
X58100000Y-94000000D02*
G75*
G02*
X60100000Y-92000000I2000000J0D01*
G01*
X58100000Y-94000000D02*
X58100000Y-106000000D01*
X66800000Y-108000000D02*
X138000000Y-108000000D01*
X66800000Y-92000000D02*
X137900000Y-92000000D01*
M02*
