G04 #@! TF.GenerationSoftware,KiCad,Pcbnew,(5.1.5-0-10_14)*
G04 #@! TF.CreationDate,2020-02-07T06:46:06-08:00*
G04 #@! TF.ProjectId,18650,31383635-302e-46b6-9963-61645f706362,rev?*
G04 #@! TF.SameCoordinates,Original*
G04 #@! TF.FileFunction,Legend,Bot*
G04 #@! TF.FilePolarity,Positive*
%FSLAX46Y46*%
G04 Gerber Fmt 4.6, Leading zero omitted, Abs format (unit mm)*
G04 Created by KiCad (PCBNEW (5.1.5-0-10_14)) date 2020-02-07 06:46:06*
%MOMM*%
%LPD*%
G04 APERTURE LIST*
%ADD10C,0.100000*%
%ADD11C,0.150000*%
%ADD12C,0.200000*%
%ADD13C,0.300000*%
%ADD14C,0.080000*%
%ADD15C,0.010000*%
%ADD16C,2.901600*%
%ADD17O,1.801600X1.801600*%
%ADD18R,1.801600X1.801600*%
%ADD19O,1.801600X1.451600*%
%ADD20O,1.601600X1.201600*%
%ADD21C,2.501600*%
G04 APERTURE END LIST*
D10*
X87707142Y-107639285D02*
X87735714Y-107667857D01*
X87821428Y-107696428D01*
X87878571Y-107696428D01*
X87964285Y-107667857D01*
X88021428Y-107610714D01*
X88050000Y-107553571D01*
X88078571Y-107439285D01*
X88078571Y-107353571D01*
X88050000Y-107239285D01*
X88021428Y-107182142D01*
X87964285Y-107125000D01*
X87878571Y-107096428D01*
X87821428Y-107096428D01*
X87735714Y-107125000D01*
X87707142Y-107153571D01*
X87164285Y-107696428D02*
X87450000Y-107696428D01*
X87450000Y-107096428D01*
X86964285Y-107696428D02*
X86964285Y-107096428D01*
X86621428Y-107696428D02*
X86878571Y-107353571D01*
X86621428Y-107096428D02*
X86964285Y-107439285D01*
X85264285Y-107696428D02*
X85264285Y-107096428D01*
X85121428Y-107096428D01*
X85035714Y-107125000D01*
X84978571Y-107182142D01*
X84950000Y-107239285D01*
X84921428Y-107353571D01*
X84921428Y-107439285D01*
X84950000Y-107553571D01*
X84978571Y-107610714D01*
X85035714Y-107667857D01*
X85121428Y-107696428D01*
X85264285Y-107696428D01*
X84664285Y-107696428D02*
X84664285Y-107096428D01*
X84264285Y-107096428D02*
X84150000Y-107096428D01*
X84092857Y-107125000D01*
X84035714Y-107182142D01*
X84007142Y-107296428D01*
X84007142Y-107496428D01*
X84035714Y-107610714D01*
X84092857Y-107667857D01*
X84150000Y-107696428D01*
X84264285Y-107696428D01*
X84321428Y-107667857D01*
X84378571Y-107610714D01*
X84407142Y-107496428D01*
X84407142Y-107296428D01*
X84378571Y-107182142D01*
X84321428Y-107125000D01*
X84264285Y-107096428D01*
X80498809Y-107713095D02*
X80405952Y-107744047D01*
X80251190Y-107744047D01*
X80189285Y-107713095D01*
X80158333Y-107682142D01*
X80127380Y-107620238D01*
X80127380Y-107558333D01*
X80158333Y-107496428D01*
X80189285Y-107465476D01*
X80251190Y-107434523D01*
X80375000Y-107403571D01*
X80436904Y-107372619D01*
X80467857Y-107341666D01*
X80498809Y-107279761D01*
X80498809Y-107217857D01*
X80467857Y-107155952D01*
X80436904Y-107125000D01*
X80375000Y-107094047D01*
X80220238Y-107094047D01*
X80127380Y-107125000D01*
X79477380Y-107682142D02*
X79508333Y-107713095D01*
X79601190Y-107744047D01*
X79663095Y-107744047D01*
X79755952Y-107713095D01*
X79817857Y-107651190D01*
X79848809Y-107589285D01*
X79879761Y-107465476D01*
X79879761Y-107372619D01*
X79848809Y-107248809D01*
X79817857Y-107186904D01*
X79755952Y-107125000D01*
X79663095Y-107094047D01*
X79601190Y-107094047D01*
X79508333Y-107125000D01*
X79477380Y-107155952D01*
X78889285Y-107744047D02*
X79198809Y-107744047D01*
X79198809Y-107094047D01*
X82978571Y-107688095D02*
X82892857Y-107719047D01*
X82750000Y-107719047D01*
X82692857Y-107688095D01*
X82664285Y-107657142D01*
X82635714Y-107595238D01*
X82635714Y-107533333D01*
X82664285Y-107471428D01*
X82692857Y-107440476D01*
X82750000Y-107409523D01*
X82864285Y-107378571D01*
X82921428Y-107347619D01*
X82950000Y-107316666D01*
X82978571Y-107254761D01*
X82978571Y-107192857D01*
X82950000Y-107130952D01*
X82921428Y-107100000D01*
X82864285Y-107069047D01*
X82721428Y-107069047D01*
X82635714Y-107100000D01*
X82378571Y-107719047D02*
X82378571Y-107069047D01*
X82235714Y-107069047D01*
X82150000Y-107100000D01*
X82092857Y-107161904D01*
X82064285Y-107223809D01*
X82035714Y-107347619D01*
X82035714Y-107440476D01*
X82064285Y-107564285D01*
X82092857Y-107626190D01*
X82150000Y-107688095D01*
X82235714Y-107719047D01*
X82378571Y-107719047D01*
X81807142Y-107533333D02*
X81521428Y-107533333D01*
X81864285Y-107719047D02*
X81664285Y-107069047D01*
X81464285Y-107719047D01*
X83142857Y-93894047D02*
X83142857Y-93244047D01*
X82942857Y-93708333D01*
X82742857Y-93244047D01*
X82742857Y-93894047D01*
X82342857Y-93244047D02*
X82228571Y-93244047D01*
X82171428Y-93275000D01*
X82114285Y-93336904D01*
X82085714Y-93460714D01*
X82085714Y-93677380D01*
X82114285Y-93801190D01*
X82171428Y-93863095D01*
X82228571Y-93894047D01*
X82342857Y-93894047D01*
X82400000Y-93863095D01*
X82457142Y-93801190D01*
X82485714Y-93677380D01*
X82485714Y-93460714D01*
X82457142Y-93336904D01*
X82400000Y-93275000D01*
X82342857Y-93244047D01*
X81857142Y-93863095D02*
X81771428Y-93894047D01*
X81628571Y-93894047D01*
X81571428Y-93863095D01*
X81542857Y-93832142D01*
X81514285Y-93770238D01*
X81514285Y-93708333D01*
X81542857Y-93646428D01*
X81571428Y-93615476D01*
X81628571Y-93584523D01*
X81742857Y-93553571D01*
X81800000Y-93522619D01*
X81828571Y-93491666D01*
X81857142Y-93429761D01*
X81857142Y-93367857D01*
X81828571Y-93305952D01*
X81800000Y-93275000D01*
X81742857Y-93244047D01*
X81600000Y-93244047D01*
X81514285Y-93275000D01*
X81257142Y-93894047D02*
X81257142Y-93244047D01*
X85742857Y-93894047D02*
X85742857Y-93244047D01*
X85542857Y-93708333D01*
X85342857Y-93244047D01*
X85342857Y-93894047D01*
X85057142Y-93894047D02*
X85057142Y-93244047D01*
X84800000Y-93863095D02*
X84714285Y-93894047D01*
X84571428Y-93894047D01*
X84514285Y-93863095D01*
X84485714Y-93832142D01*
X84457142Y-93770238D01*
X84457142Y-93708333D01*
X84485714Y-93646428D01*
X84514285Y-93615476D01*
X84571428Y-93584523D01*
X84685714Y-93553571D01*
X84742857Y-93522619D01*
X84771428Y-93491666D01*
X84800000Y-93429761D01*
X84800000Y-93367857D01*
X84771428Y-93305952D01*
X84742857Y-93275000D01*
X84685714Y-93244047D01*
X84542857Y-93244047D01*
X84457142Y-93275000D01*
X84085714Y-93244047D02*
X83971428Y-93244047D01*
X83914285Y-93275000D01*
X83857142Y-93336904D01*
X83828571Y-93460714D01*
X83828571Y-93677380D01*
X83857142Y-93801190D01*
X83914285Y-93863095D01*
X83971428Y-93894047D01*
X84085714Y-93894047D01*
X84142857Y-93863095D01*
X84200000Y-93801190D01*
X84228571Y-93677380D01*
X84228571Y-93460714D01*
X84200000Y-93336904D01*
X84142857Y-93275000D01*
X84085714Y-93244047D01*
X88146428Y-93863095D02*
X88060714Y-93894047D01*
X87917857Y-93894047D01*
X87860714Y-93863095D01*
X87832142Y-93832142D01*
X87803571Y-93770238D01*
X87803571Y-93708333D01*
X87832142Y-93646428D01*
X87860714Y-93615476D01*
X87917857Y-93584523D01*
X88032142Y-93553571D01*
X88089285Y-93522619D01*
X88117857Y-93491666D01*
X88146428Y-93429761D01*
X88146428Y-93367857D01*
X88117857Y-93305952D01*
X88089285Y-93275000D01*
X88032142Y-93244047D01*
X87889285Y-93244047D01*
X87803571Y-93275000D01*
X87203571Y-93832142D02*
X87232142Y-93863095D01*
X87317857Y-93894047D01*
X87375000Y-93894047D01*
X87460714Y-93863095D01*
X87517857Y-93801190D01*
X87546428Y-93739285D01*
X87575000Y-93615476D01*
X87575000Y-93522619D01*
X87546428Y-93398809D01*
X87517857Y-93336904D01*
X87460714Y-93275000D01*
X87375000Y-93244047D01*
X87317857Y-93244047D01*
X87232142Y-93275000D01*
X87203571Y-93305952D01*
X86946428Y-93894047D02*
X86946428Y-93244047D01*
X86603571Y-93894047D02*
X86860714Y-93522619D01*
X86603571Y-93244047D02*
X86946428Y-93615476D01*
X92895238Y-107069047D02*
X92523809Y-107069047D01*
X92709523Y-107719047D02*
X92709523Y-107069047D01*
X92369047Y-107069047D02*
X91935714Y-107719047D01*
X91935714Y-107069047D02*
X92369047Y-107719047D01*
X95058333Y-107719047D02*
X95275000Y-107409523D01*
X95429761Y-107719047D02*
X95429761Y-107069047D01*
X95182142Y-107069047D01*
X95120238Y-107100000D01*
X95089285Y-107130952D01*
X95058333Y-107192857D01*
X95058333Y-107285714D01*
X95089285Y-107347619D01*
X95120238Y-107378571D01*
X95182142Y-107409523D01*
X95429761Y-107409523D01*
X94841666Y-107069047D02*
X94408333Y-107719047D01*
X94408333Y-107069047D02*
X94841666Y-107719047D01*
D11*
X108450000Y-95742857D02*
X108483333Y-95778571D01*
X108583333Y-95814285D01*
X108650000Y-95814285D01*
X108750000Y-95778571D01*
X108816666Y-95707142D01*
X108850000Y-95635714D01*
X108883333Y-95492857D01*
X108883333Y-95385714D01*
X108850000Y-95242857D01*
X108816666Y-95171428D01*
X108750000Y-95100000D01*
X108650000Y-95064285D01*
X108583333Y-95064285D01*
X108483333Y-95100000D01*
X108450000Y-95135714D01*
X107850000Y-95814285D02*
X107850000Y-95421428D01*
X107883333Y-95350000D01*
X107950000Y-95314285D01*
X108083333Y-95314285D01*
X108150000Y-95350000D01*
X107850000Y-95778571D02*
X107916666Y-95814285D01*
X108083333Y-95814285D01*
X108150000Y-95778571D01*
X108183333Y-95707142D01*
X108183333Y-95635714D01*
X108150000Y-95564285D01*
X108083333Y-95528571D01*
X107916666Y-95528571D01*
X107850000Y-95492857D01*
X107616666Y-95314285D02*
X107350000Y-95314285D01*
X107516666Y-95064285D02*
X107516666Y-95707142D01*
X107483333Y-95778571D01*
X107416666Y-95814285D01*
X107350000Y-95814285D01*
X107116666Y-95814285D02*
X107116666Y-95064285D01*
X106816666Y-95814285D02*
X106816666Y-95421428D01*
X106850000Y-95350000D01*
X106916666Y-95314285D01*
X107016666Y-95314285D01*
X107083333Y-95350000D01*
X107116666Y-95385714D01*
X106383333Y-95814285D02*
X106450000Y-95778571D01*
X106483333Y-95742857D01*
X106516666Y-95671428D01*
X106516666Y-95457142D01*
X106483333Y-95385714D01*
X106450000Y-95350000D01*
X106383333Y-95314285D01*
X106283333Y-95314285D01*
X106216666Y-95350000D01*
X106183333Y-95385714D01*
X106150000Y-95457142D01*
X106150000Y-95671428D01*
X106183333Y-95742857D01*
X106216666Y-95778571D01*
X106283333Y-95814285D01*
X106383333Y-95814285D01*
X105550000Y-95814285D02*
X105550000Y-95064285D01*
X105550000Y-95778571D02*
X105616666Y-95814285D01*
X105750000Y-95814285D01*
X105816666Y-95778571D01*
X105850000Y-95742857D01*
X105883333Y-95671428D01*
X105883333Y-95457142D01*
X105850000Y-95385714D01*
X105816666Y-95350000D01*
X105750000Y-95314285D01*
X105616666Y-95314285D01*
X105550000Y-95350000D01*
X104950000Y-95778571D02*
X105016666Y-95814285D01*
X105150000Y-95814285D01*
X105216666Y-95778571D01*
X105250000Y-95707142D01*
X105250000Y-95421428D01*
X105216666Y-95350000D01*
X105150000Y-95314285D01*
X105016666Y-95314285D01*
X104950000Y-95350000D01*
X104916666Y-95421428D01*
X104916666Y-95492857D01*
X105250000Y-95564285D01*
D10*
X104550000Y-94275000D02*
X118950000Y-94275000D01*
X104550000Y-96625000D02*
X104550000Y-94275000D01*
X118950000Y-96625000D02*
X104550000Y-96625000D01*
X118950000Y-94275000D02*
X118950000Y-96625000D01*
X97805952Y-104119047D02*
X98022619Y-103809523D01*
X98177380Y-104119047D02*
X98177380Y-103469047D01*
X97929761Y-103469047D01*
X97867857Y-103500000D01*
X97836904Y-103530952D01*
X97805952Y-103592857D01*
X97805952Y-103685714D01*
X97836904Y-103747619D01*
X97867857Y-103778571D01*
X97929761Y-103809523D01*
X98177380Y-103809523D01*
X97558333Y-104088095D02*
X97465476Y-104119047D01*
X97310714Y-104119047D01*
X97248809Y-104088095D01*
X97217857Y-104057142D01*
X97186904Y-103995238D01*
X97186904Y-103933333D01*
X97217857Y-103871428D01*
X97248809Y-103840476D01*
X97310714Y-103809523D01*
X97434523Y-103778571D01*
X97496428Y-103747619D01*
X97527380Y-103716666D01*
X97558333Y-103654761D01*
X97558333Y-103592857D01*
X97527380Y-103530952D01*
X97496428Y-103500000D01*
X97434523Y-103469047D01*
X97279761Y-103469047D01*
X97186904Y-103500000D01*
X97001190Y-103469047D02*
X96629761Y-103469047D01*
X96815476Y-104119047D02*
X96815476Y-103469047D01*
X95754761Y-104119047D02*
X95754761Y-103469047D01*
X95507142Y-103469047D01*
X95445238Y-103500000D01*
X95414285Y-103530952D01*
X95383333Y-103592857D01*
X95383333Y-103685714D01*
X95414285Y-103747619D01*
X95445238Y-103778571D01*
X95507142Y-103809523D01*
X95754761Y-103809523D01*
X94888095Y-103778571D02*
X94795238Y-103809523D01*
X94764285Y-103840476D01*
X94733333Y-103902380D01*
X94733333Y-103995238D01*
X94764285Y-104057142D01*
X94795238Y-104088095D01*
X94857142Y-104119047D01*
X95104761Y-104119047D01*
X95104761Y-103469047D01*
X94888095Y-103469047D01*
X94826190Y-103500000D01*
X94795238Y-103530952D01*
X94764285Y-103592857D01*
X94764285Y-103654761D01*
X94795238Y-103716666D01*
X94826190Y-103747619D01*
X94888095Y-103778571D01*
X95104761Y-103778571D01*
X94516666Y-103469047D02*
X94083333Y-103469047D01*
X94361904Y-104119047D01*
X93204761Y-104119047D02*
X93204761Y-103469047D01*
X92957142Y-103469047D01*
X92895238Y-103500000D01*
X92864285Y-103530952D01*
X92833333Y-103592857D01*
X92833333Y-103685714D01*
X92864285Y-103747619D01*
X92895238Y-103778571D01*
X92957142Y-103809523D01*
X93204761Y-103809523D01*
X92338095Y-103778571D02*
X92245238Y-103809523D01*
X92214285Y-103840476D01*
X92183333Y-103902380D01*
X92183333Y-103995238D01*
X92214285Y-104057142D01*
X92245238Y-104088095D01*
X92307142Y-104119047D01*
X92554761Y-104119047D01*
X92554761Y-103469047D01*
X92338095Y-103469047D01*
X92276190Y-103500000D01*
X92245238Y-103530952D01*
X92214285Y-103592857D01*
X92214285Y-103654761D01*
X92245238Y-103716666D01*
X92276190Y-103747619D01*
X92338095Y-103778571D01*
X92554761Y-103778571D01*
X91626190Y-103469047D02*
X91750000Y-103469047D01*
X91811904Y-103500000D01*
X91842857Y-103530952D01*
X91904761Y-103623809D01*
X91935714Y-103747619D01*
X91935714Y-103995238D01*
X91904761Y-104057142D01*
X91873809Y-104088095D01*
X91811904Y-104119047D01*
X91688095Y-104119047D01*
X91626190Y-104088095D01*
X91595238Y-104057142D01*
X91564285Y-103995238D01*
X91564285Y-103840476D01*
X91595238Y-103778571D01*
X91626190Y-103747619D01*
X91688095Y-103716666D01*
X91811904Y-103716666D01*
X91873809Y-103747619D01*
X91904761Y-103778571D01*
X91935714Y-103840476D01*
X153244523Y-96886904D02*
X153244523Y-96353571D01*
X153244523Y-96505952D02*
X153206428Y-96429761D01*
X153168333Y-96391666D01*
X153092142Y-96353571D01*
X153015952Y-96353571D01*
X152444523Y-96848809D02*
X152520714Y-96886904D01*
X152673095Y-96886904D01*
X152749285Y-96848809D01*
X152787380Y-96772619D01*
X152787380Y-96467857D01*
X152749285Y-96391666D01*
X152673095Y-96353571D01*
X152520714Y-96353571D01*
X152444523Y-96391666D01*
X152406428Y-96467857D01*
X152406428Y-96544047D01*
X152787380Y-96620238D01*
X152139761Y-96353571D02*
X151949285Y-96886904D01*
X151758809Y-96353571D01*
X150425476Y-96886904D02*
X150882619Y-96886904D01*
X150654047Y-96886904D02*
X150654047Y-96086904D01*
X150730238Y-96201190D01*
X150806428Y-96277380D01*
X150882619Y-96315476D01*
X150082619Y-96810714D02*
X150044523Y-96848809D01*
X150082619Y-96886904D01*
X150120714Y-96848809D01*
X150082619Y-96810714D01*
X150082619Y-96886904D01*
X149282619Y-96886904D02*
X149739761Y-96886904D01*
X149511190Y-96886904D02*
X149511190Y-96086904D01*
X149587380Y-96201190D01*
X149663571Y-96277380D01*
X149739761Y-96315476D01*
X148596904Y-96886904D02*
X148596904Y-96467857D01*
X148635000Y-96391666D01*
X148711190Y-96353571D01*
X148863571Y-96353571D01*
X148939761Y-96391666D01*
X148596904Y-96848809D02*
X148673095Y-96886904D01*
X148863571Y-96886904D01*
X148939761Y-96848809D01*
X148977857Y-96772619D01*
X148977857Y-96696428D01*
X148939761Y-96620238D01*
X148863571Y-96582142D01*
X148673095Y-96582142D01*
X148596904Y-96544047D01*
X152987380Y-104985714D02*
X153025476Y-105023809D01*
X153139761Y-105061904D01*
X153215952Y-105061904D01*
X153330238Y-105023809D01*
X153406428Y-104947619D01*
X153444523Y-104871428D01*
X153482619Y-104719047D01*
X153482619Y-104604761D01*
X153444523Y-104452380D01*
X153406428Y-104376190D01*
X153330238Y-104300000D01*
X153215952Y-104261904D01*
X153139761Y-104261904D01*
X153025476Y-104300000D01*
X152987380Y-104338095D01*
X152644523Y-105061904D02*
X152644523Y-104528571D01*
X152644523Y-104680952D02*
X152606428Y-104604761D01*
X152568333Y-104566666D01*
X152492142Y-104528571D01*
X152415952Y-104528571D01*
X151844523Y-105023809D02*
X151920714Y-105061904D01*
X152073095Y-105061904D01*
X152149285Y-105023809D01*
X152187380Y-104947619D01*
X152187380Y-104642857D01*
X152149285Y-104566666D01*
X152073095Y-104528571D01*
X151920714Y-104528571D01*
X151844523Y-104566666D01*
X151806428Y-104642857D01*
X151806428Y-104719047D01*
X152187380Y-104795238D01*
X151120714Y-105061904D02*
X151120714Y-104642857D01*
X151158809Y-104566666D01*
X151235000Y-104528571D01*
X151387380Y-104528571D01*
X151463571Y-104566666D01*
X151120714Y-105023809D02*
X151196904Y-105061904D01*
X151387380Y-105061904D01*
X151463571Y-105023809D01*
X151501666Y-104947619D01*
X151501666Y-104871428D01*
X151463571Y-104795238D01*
X151387380Y-104757142D01*
X151196904Y-104757142D01*
X151120714Y-104719047D01*
X150854047Y-104528571D02*
X150549285Y-104528571D01*
X150739761Y-104261904D02*
X150739761Y-104947619D01*
X150701666Y-105023809D01*
X150625476Y-105061904D01*
X150549285Y-105061904D01*
X149977857Y-105023809D02*
X150054047Y-105061904D01*
X150206428Y-105061904D01*
X150282619Y-105023809D01*
X150320714Y-104947619D01*
X150320714Y-104642857D01*
X150282619Y-104566666D01*
X150206428Y-104528571D01*
X150054047Y-104528571D01*
X149977857Y-104566666D01*
X149939761Y-104642857D01*
X149939761Y-104719047D01*
X150320714Y-104795238D01*
X149254047Y-105061904D02*
X149254047Y-104261904D01*
X149254047Y-105023809D02*
X149330238Y-105061904D01*
X149482619Y-105061904D01*
X149558809Y-105023809D01*
X149596904Y-104985714D01*
X149635000Y-104909523D01*
X149635000Y-104680952D01*
X149596904Y-104604761D01*
X149558809Y-104566666D01*
X149482619Y-104528571D01*
X149330238Y-104528571D01*
X149254047Y-104566666D01*
X148263571Y-105061904D02*
X148263571Y-104261904D01*
X148263571Y-104566666D02*
X148187380Y-104528571D01*
X148035000Y-104528571D01*
X147958809Y-104566666D01*
X147920714Y-104604761D01*
X147882619Y-104680952D01*
X147882619Y-104909523D01*
X147920714Y-104985714D01*
X147958809Y-105023809D01*
X148035000Y-105061904D01*
X148187380Y-105061904D01*
X148263571Y-105023809D01*
X147615952Y-104528571D02*
X147425476Y-105061904D01*
X147235000Y-104528571D02*
X147425476Y-105061904D01*
X147501666Y-105252380D01*
X147539761Y-105290476D01*
X147615952Y-105328571D01*
X146092142Y-104261904D02*
X146092142Y-104833333D01*
X146130238Y-104947619D01*
X146206428Y-105023809D01*
X146320714Y-105061904D01*
X146396904Y-105061904D01*
X145406428Y-105023809D02*
X145482619Y-105061904D01*
X145635000Y-105061904D01*
X145711190Y-105023809D01*
X145749285Y-104947619D01*
X145749285Y-104642857D01*
X145711190Y-104566666D01*
X145635000Y-104528571D01*
X145482619Y-104528571D01*
X145406428Y-104566666D01*
X145368333Y-104642857D01*
X145368333Y-104719047D01*
X145749285Y-104795238D01*
X145025476Y-105061904D02*
X145025476Y-104528571D01*
X145025476Y-104680952D02*
X144987380Y-104604761D01*
X144949285Y-104566666D01*
X144873095Y-104528571D01*
X144796904Y-104528571D01*
X144225476Y-105023809D02*
X144301666Y-105061904D01*
X144454047Y-105061904D01*
X144530238Y-105023809D01*
X144568333Y-104947619D01*
X144568333Y-104642857D01*
X144530238Y-104566666D01*
X144454047Y-104528571D01*
X144301666Y-104528571D01*
X144225476Y-104566666D01*
X144187380Y-104642857D01*
X144187380Y-104719047D01*
X144568333Y-104795238D01*
X143844523Y-105061904D02*
X143844523Y-104528571D01*
X143844523Y-104604761D02*
X143806428Y-104566666D01*
X143730238Y-104528571D01*
X143615952Y-104528571D01*
X143539761Y-104566666D01*
X143501666Y-104642857D01*
X143501666Y-105061904D01*
X143501666Y-104642857D02*
X143463571Y-104566666D01*
X143387380Y-104528571D01*
X143273095Y-104528571D01*
X143196904Y-104566666D01*
X143158809Y-104642857D01*
X143158809Y-105061904D01*
X142854047Y-104528571D02*
X142663571Y-105061904D01*
X142473095Y-104528571D02*
X142663571Y-105061904D01*
X142739761Y-105252380D01*
X142777857Y-105290476D01*
X142854047Y-105328571D01*
X141139761Y-104300000D02*
X141215952Y-104261904D01*
X141330238Y-104261904D01*
X141444523Y-104300000D01*
X141520714Y-104376190D01*
X141558809Y-104452380D01*
X141596904Y-104604761D01*
X141596904Y-104719047D01*
X141558809Y-104871428D01*
X141520714Y-104947619D01*
X141444523Y-105023809D01*
X141330238Y-105061904D01*
X141254047Y-105061904D01*
X141139761Y-105023809D01*
X141101666Y-104985714D01*
X141101666Y-104719047D01*
X141254047Y-104719047D01*
X140758809Y-105061904D02*
X140758809Y-104528571D01*
X140758809Y-104261904D02*
X140796904Y-104300000D01*
X140758809Y-104338095D01*
X140720714Y-104300000D01*
X140758809Y-104261904D01*
X140758809Y-104338095D01*
X140263571Y-105061904D02*
X140339761Y-105023809D01*
X140377857Y-104947619D01*
X140377857Y-104261904D01*
X139844523Y-105061904D02*
X139920714Y-105023809D01*
X139958809Y-104947619D01*
X139958809Y-104261904D01*
X139539761Y-105061904D02*
X139539761Y-104528571D01*
X139539761Y-104261904D02*
X139577857Y-104300000D01*
X139539761Y-104338095D01*
X139501666Y-104300000D01*
X139539761Y-104261904D01*
X139539761Y-104338095D01*
X138815952Y-105023809D02*
X138892142Y-105061904D01*
X139044523Y-105061904D01*
X139120714Y-105023809D01*
X139158809Y-104985714D01*
X139196904Y-104909523D01*
X139196904Y-104680952D01*
X139158809Y-104604761D01*
X139120714Y-104566666D01*
X139044523Y-104528571D01*
X138892142Y-104528571D01*
X138815952Y-104566666D01*
X138473095Y-105061904D02*
X138473095Y-104261904D01*
X138396904Y-104757142D02*
X138168333Y-105061904D01*
X138168333Y-104528571D02*
X138473095Y-104833333D01*
X153444523Y-106361904D02*
X153444523Y-105561904D01*
X153101666Y-106361904D02*
X153101666Y-105942857D01*
X153139761Y-105866666D01*
X153215952Y-105828571D01*
X153330238Y-105828571D01*
X153406428Y-105866666D01*
X153444523Y-105904761D01*
X152835000Y-105828571D02*
X152530238Y-105828571D01*
X152720714Y-105561904D02*
X152720714Y-106247619D01*
X152682619Y-106323809D01*
X152606428Y-106361904D01*
X152530238Y-106361904D01*
X152377857Y-105828571D02*
X152073095Y-105828571D01*
X152263571Y-105561904D02*
X152263571Y-106247619D01*
X152225476Y-106323809D01*
X152149285Y-106361904D01*
X152073095Y-106361904D01*
X151806428Y-105828571D02*
X151806428Y-106628571D01*
X151806428Y-105866666D02*
X151730238Y-105828571D01*
X151577857Y-105828571D01*
X151501666Y-105866666D01*
X151463571Y-105904761D01*
X151425476Y-105980952D01*
X151425476Y-106209523D01*
X151463571Y-106285714D01*
X151501666Y-106323809D01*
X151577857Y-106361904D01*
X151730238Y-106361904D01*
X151806428Y-106323809D01*
X151120714Y-106323809D02*
X151044523Y-106361904D01*
X150892142Y-106361904D01*
X150815952Y-106323809D01*
X150777857Y-106247619D01*
X150777857Y-106209523D01*
X150815952Y-106133333D01*
X150892142Y-106095238D01*
X151006428Y-106095238D01*
X151082619Y-106057142D01*
X151120714Y-105980952D01*
X151120714Y-105942857D01*
X151082619Y-105866666D01*
X151006428Y-105828571D01*
X150892142Y-105828571D01*
X150815952Y-105866666D01*
X150435000Y-106285714D02*
X150396904Y-106323809D01*
X150435000Y-106361904D01*
X150473095Y-106323809D01*
X150435000Y-106285714D01*
X150435000Y-106361904D01*
X150435000Y-105866666D02*
X150396904Y-105904761D01*
X150435000Y-105942857D01*
X150473095Y-105904761D01*
X150435000Y-105866666D01*
X150435000Y-105942857D01*
X149482619Y-105523809D02*
X150168333Y-106552380D01*
X148644523Y-105523809D02*
X149330238Y-106552380D01*
X148035000Y-105828571D02*
X148035000Y-106476190D01*
X148073095Y-106552380D01*
X148111190Y-106590476D01*
X148187380Y-106628571D01*
X148301666Y-106628571D01*
X148377857Y-106590476D01*
X148035000Y-106323809D02*
X148111190Y-106361904D01*
X148263571Y-106361904D01*
X148339761Y-106323809D01*
X148377857Y-106285714D01*
X148415952Y-106209523D01*
X148415952Y-105980952D01*
X148377857Y-105904761D01*
X148339761Y-105866666D01*
X148263571Y-105828571D01*
X148111190Y-105828571D01*
X148035000Y-105866666D01*
X147654047Y-106361904D02*
X147654047Y-105828571D01*
X147654047Y-105561904D02*
X147692142Y-105600000D01*
X147654047Y-105638095D01*
X147615952Y-105600000D01*
X147654047Y-105561904D01*
X147654047Y-105638095D01*
X147387380Y-105828571D02*
X147082619Y-105828571D01*
X147273095Y-105561904D02*
X147273095Y-106247619D01*
X147235000Y-106323809D01*
X147158809Y-106361904D01*
X147082619Y-106361904D01*
X146815952Y-106361904D02*
X146815952Y-105561904D01*
X146473095Y-106361904D02*
X146473095Y-105942857D01*
X146511190Y-105866666D01*
X146587380Y-105828571D01*
X146701666Y-105828571D01*
X146777857Y-105866666D01*
X146815952Y-105904761D01*
X145749285Y-105828571D02*
X145749285Y-106361904D01*
X146092142Y-105828571D02*
X146092142Y-106247619D01*
X146054047Y-106323809D01*
X145977857Y-106361904D01*
X145863571Y-106361904D01*
X145787380Y-106323809D01*
X145749285Y-106285714D01*
X145368333Y-106361904D02*
X145368333Y-105561904D01*
X145368333Y-105866666D02*
X145292142Y-105828571D01*
X145139761Y-105828571D01*
X145063571Y-105866666D01*
X145025476Y-105904761D01*
X144987380Y-105980952D01*
X144987380Y-106209523D01*
X145025476Y-106285714D01*
X145063571Y-106323809D01*
X145139761Y-106361904D01*
X145292142Y-106361904D01*
X145368333Y-106323809D01*
X144644523Y-106285714D02*
X144606428Y-106323809D01*
X144644523Y-106361904D01*
X144682619Y-106323809D01*
X144644523Y-106285714D01*
X144644523Y-106361904D01*
X143920714Y-106323809D02*
X143996904Y-106361904D01*
X144149285Y-106361904D01*
X144225476Y-106323809D01*
X144263571Y-106285714D01*
X144301666Y-106209523D01*
X144301666Y-105980952D01*
X144263571Y-105904761D01*
X144225476Y-105866666D01*
X144149285Y-105828571D01*
X143996904Y-105828571D01*
X143920714Y-105866666D01*
X143463571Y-106361904D02*
X143539761Y-106323809D01*
X143577857Y-106285714D01*
X143615952Y-106209523D01*
X143615952Y-105980952D01*
X143577857Y-105904761D01*
X143539761Y-105866666D01*
X143463571Y-105828571D01*
X143349285Y-105828571D01*
X143273095Y-105866666D01*
X143235000Y-105904761D01*
X143196904Y-105980952D01*
X143196904Y-106209523D01*
X143235000Y-106285714D01*
X143273095Y-106323809D01*
X143349285Y-106361904D01*
X143463571Y-106361904D01*
X142854047Y-106361904D02*
X142854047Y-105828571D01*
X142854047Y-105904761D02*
X142815952Y-105866666D01*
X142739761Y-105828571D01*
X142625476Y-105828571D01*
X142549285Y-105866666D01*
X142511190Y-105942857D01*
X142511190Y-106361904D01*
X142511190Y-105942857D02*
X142473095Y-105866666D01*
X142396904Y-105828571D01*
X142282619Y-105828571D01*
X142206428Y-105866666D01*
X142168333Y-105942857D01*
X142168333Y-106361904D01*
X141215952Y-105523809D02*
X141901666Y-106552380D01*
X140949285Y-105828571D02*
X140949285Y-106514285D01*
X140987380Y-106590476D01*
X141063571Y-106628571D01*
X141101666Y-106628571D01*
X140949285Y-105561904D02*
X140987380Y-105600000D01*
X140949285Y-105638095D01*
X140911190Y-105600000D01*
X140949285Y-105561904D01*
X140949285Y-105638095D01*
X140225476Y-105828571D02*
X140225476Y-106476190D01*
X140263571Y-106552380D01*
X140301666Y-106590476D01*
X140377857Y-106628571D01*
X140492142Y-106628571D01*
X140568333Y-106590476D01*
X140225476Y-106323809D02*
X140301666Y-106361904D01*
X140454047Y-106361904D01*
X140530238Y-106323809D01*
X140568333Y-106285714D01*
X140606428Y-106209523D01*
X140606428Y-105980952D01*
X140568333Y-105904761D01*
X140530238Y-105866666D01*
X140454047Y-105828571D01*
X140301666Y-105828571D01*
X140225476Y-105866666D01*
X139844523Y-106361904D02*
X139844523Y-105828571D01*
X139844523Y-105561904D02*
X139882619Y-105600000D01*
X139844523Y-105638095D01*
X139806428Y-105600000D01*
X139844523Y-105561904D01*
X139844523Y-105638095D01*
X139349285Y-106361904D02*
X139425476Y-106323809D01*
X139463571Y-106247619D01*
X139463571Y-105561904D01*
X138930238Y-106361904D02*
X139006428Y-106323809D01*
X139044523Y-106247619D01*
X139044523Y-105561904D01*
X138625476Y-106361904D02*
X138625476Y-105828571D01*
X138625476Y-105561904D02*
X138663571Y-105600000D01*
X138625476Y-105638095D01*
X138587380Y-105600000D01*
X138625476Y-105561904D01*
X138625476Y-105638095D01*
X137901666Y-106323809D02*
X137977857Y-106361904D01*
X138130238Y-106361904D01*
X138206428Y-106323809D01*
X138244523Y-106285714D01*
X138282619Y-106209523D01*
X138282619Y-105980952D01*
X138244523Y-105904761D01*
X138206428Y-105866666D01*
X138130238Y-105828571D01*
X137977857Y-105828571D01*
X137901666Y-105866666D01*
X137558809Y-106361904D02*
X137558809Y-105561904D01*
X137482619Y-106057142D02*
X137254047Y-106361904D01*
X137254047Y-105828571D02*
X137558809Y-106133333D01*
X136339761Y-105523809D02*
X137025476Y-106552380D01*
X136187380Y-105561904D02*
X135730238Y-105561904D01*
X135958809Y-106361904D02*
X135958809Y-105561904D01*
X135463571Y-106361904D02*
X135463571Y-105561904D01*
X135120714Y-106361904D02*
X135120714Y-105942857D01*
X135158809Y-105866666D01*
X135235000Y-105828571D01*
X135349285Y-105828571D01*
X135425476Y-105866666D01*
X135463571Y-105904761D01*
X134396904Y-105828571D02*
X134396904Y-106361904D01*
X134739761Y-105828571D02*
X134739761Y-106247619D01*
X134701666Y-106323809D01*
X134625476Y-106361904D01*
X134511190Y-106361904D01*
X134435000Y-106323809D01*
X134396904Y-106285714D01*
X134015952Y-105828571D02*
X134015952Y-106361904D01*
X134015952Y-105904761D02*
X133977857Y-105866666D01*
X133901666Y-105828571D01*
X133787380Y-105828571D01*
X133711190Y-105866666D01*
X133673095Y-105942857D01*
X133673095Y-106361904D01*
X132949285Y-106361904D02*
X132949285Y-105561904D01*
X132949285Y-106323809D02*
X133025476Y-106361904D01*
X133177857Y-106361904D01*
X133254047Y-106323809D01*
X133292142Y-106285714D01*
X133330238Y-106209523D01*
X133330238Y-105980952D01*
X133292142Y-105904761D01*
X133254047Y-105866666D01*
X133177857Y-105828571D01*
X133025476Y-105828571D01*
X132949285Y-105866666D01*
X132263571Y-106323809D02*
X132339761Y-106361904D01*
X132492142Y-106361904D01*
X132568333Y-106323809D01*
X132606428Y-106247619D01*
X132606428Y-105942857D01*
X132568333Y-105866666D01*
X132492142Y-105828571D01*
X132339761Y-105828571D01*
X132263571Y-105866666D01*
X132225476Y-105942857D01*
X132225476Y-106019047D01*
X132606428Y-106095238D01*
X131882619Y-106361904D02*
X131882619Y-105828571D01*
X131882619Y-105980952D02*
X131844523Y-105904761D01*
X131806428Y-105866666D01*
X131730238Y-105828571D01*
X131654047Y-105828571D01*
X131387380Y-106361904D02*
X131387380Y-105561904D01*
X131082619Y-105561904D01*
X131006428Y-105600000D01*
X130968333Y-105638095D01*
X130930238Y-105714285D01*
X130930238Y-105828571D01*
X130968333Y-105904761D01*
X131006428Y-105942857D01*
X131082619Y-105980952D01*
X131387380Y-105980952D01*
X130244523Y-106361904D02*
X130244523Y-105942857D01*
X130282619Y-105866666D01*
X130358809Y-105828571D01*
X130511190Y-105828571D01*
X130587380Y-105866666D01*
X130244523Y-106323809D02*
X130320714Y-106361904D01*
X130511190Y-106361904D01*
X130587380Y-106323809D01*
X130625476Y-106247619D01*
X130625476Y-106171428D01*
X130587380Y-106095238D01*
X130511190Y-106057142D01*
X130320714Y-106057142D01*
X130244523Y-106019047D01*
X129520714Y-106323809D02*
X129596904Y-106361904D01*
X129749285Y-106361904D01*
X129825476Y-106323809D01*
X129863571Y-106285714D01*
X129901666Y-106209523D01*
X129901666Y-105980952D01*
X129863571Y-105904761D01*
X129825476Y-105866666D01*
X129749285Y-105828571D01*
X129596904Y-105828571D01*
X129520714Y-105866666D01*
X129177857Y-106361904D02*
X129177857Y-105561904D01*
X129101666Y-106057142D02*
X128873095Y-106361904D01*
X128873095Y-105828571D02*
X129177857Y-106133333D01*
X113216666Y-94058333D02*
X113250000Y-94025000D01*
X113316666Y-93925000D01*
X113350000Y-93858333D01*
X113383333Y-93758333D01*
X113416666Y-93591666D01*
X113416666Y-93458333D01*
X113383333Y-93291666D01*
X113350000Y-93191666D01*
X113316666Y-93125000D01*
X113250000Y-93025000D01*
X113216666Y-92991666D01*
X112950000Y-93791666D02*
X112950000Y-93325000D01*
X112950000Y-93391666D02*
X112916666Y-93358333D01*
X112850000Y-93325000D01*
X112750000Y-93325000D01*
X112683333Y-93358333D01*
X112650000Y-93425000D01*
X112650000Y-93791666D01*
X112650000Y-93425000D02*
X112616666Y-93358333D01*
X112550000Y-93325000D01*
X112450000Y-93325000D01*
X112383333Y-93358333D01*
X112350000Y-93425000D01*
X112350000Y-93791666D01*
X111716666Y-93791666D02*
X111716666Y-93425000D01*
X111750000Y-93358333D01*
X111816666Y-93325000D01*
X111950000Y-93325000D01*
X112016666Y-93358333D01*
X111716666Y-93758333D02*
X111783333Y-93791666D01*
X111950000Y-93791666D01*
X112016666Y-93758333D01*
X112050000Y-93691666D01*
X112050000Y-93625000D01*
X112016666Y-93558333D01*
X111950000Y-93525000D01*
X111783333Y-93525000D01*
X111716666Y-93491666D01*
X111450000Y-93791666D02*
X111083333Y-93325000D01*
X111450000Y-93325000D02*
X111083333Y-93791666D01*
X110316666Y-93158333D02*
X110283333Y-93125000D01*
X110216666Y-93091666D01*
X110050000Y-93091666D01*
X109983333Y-93125000D01*
X109950000Y-93158333D01*
X109916666Y-93225000D01*
X109916666Y-93291666D01*
X109950000Y-93391666D01*
X110350000Y-93791666D01*
X109916666Y-93791666D01*
X109616666Y-93725000D02*
X109583333Y-93758333D01*
X109616666Y-93791666D01*
X109650000Y-93758333D01*
X109616666Y-93725000D01*
X109616666Y-93791666D01*
X109350000Y-93091666D02*
X108916666Y-93091666D01*
X109150000Y-93358333D01*
X109050000Y-93358333D01*
X108983333Y-93391666D01*
X108950000Y-93425000D01*
X108916666Y-93491666D01*
X108916666Y-93658333D01*
X108950000Y-93725000D01*
X108983333Y-93758333D01*
X109050000Y-93791666D01*
X109250000Y-93791666D01*
X109316666Y-93758333D01*
X109350000Y-93725000D01*
X108650000Y-93591666D02*
X108316666Y-93591666D01*
X108716666Y-93791666D02*
X108483333Y-93091666D01*
X108250000Y-93791666D01*
X107483333Y-93325000D02*
X107483333Y-94025000D01*
X107483333Y-93358333D02*
X107416666Y-93325000D01*
X107283333Y-93325000D01*
X107216666Y-93358333D01*
X107183333Y-93391666D01*
X107150000Y-93458333D01*
X107150000Y-93658333D01*
X107183333Y-93725000D01*
X107216666Y-93758333D01*
X107283333Y-93791666D01*
X107416666Y-93791666D01*
X107483333Y-93758333D01*
X106583333Y-93758333D02*
X106650000Y-93791666D01*
X106783333Y-93791666D01*
X106850000Y-93758333D01*
X106883333Y-93691666D01*
X106883333Y-93425000D01*
X106850000Y-93358333D01*
X106783333Y-93325000D01*
X106650000Y-93325000D01*
X106583333Y-93358333D01*
X106550000Y-93425000D01*
X106550000Y-93491666D01*
X106883333Y-93558333D01*
X106250000Y-93791666D02*
X106250000Y-93325000D01*
X106250000Y-93458333D02*
X106216666Y-93391666D01*
X106183333Y-93358333D01*
X106116666Y-93325000D01*
X106050000Y-93325000D01*
X105883333Y-94058333D02*
X105850000Y-94025000D01*
X105783333Y-93925000D01*
X105750000Y-93858333D01*
X105716666Y-93758333D01*
X105683333Y-93591666D01*
X105683333Y-93458333D01*
X105716666Y-93291666D01*
X105750000Y-93191666D01*
X105783333Y-93125000D01*
X105850000Y-93025000D01*
X105883333Y-92991666D01*
X90608333Y-97594047D02*
X90608333Y-96944047D01*
X90360714Y-96944047D01*
X90298809Y-96975000D01*
X90267857Y-97005952D01*
X90236904Y-97067857D01*
X90236904Y-97160714D01*
X90267857Y-97222619D01*
X90298809Y-97253571D01*
X90360714Y-97284523D01*
X90608333Y-97284523D01*
X89989285Y-97408333D02*
X89679761Y-97408333D01*
X90051190Y-97594047D02*
X89834523Y-96944047D01*
X89617857Y-97594047D01*
X89122619Y-97160714D02*
X89122619Y-97594047D01*
X89277380Y-96913095D02*
X89432142Y-97377380D01*
X89029761Y-97377380D01*
X88133333Y-97594047D02*
X88133333Y-96944047D01*
X87885714Y-96944047D01*
X87823809Y-96975000D01*
X87792857Y-97005952D01*
X87761904Y-97067857D01*
X87761904Y-97160714D01*
X87792857Y-97222619D01*
X87823809Y-97253571D01*
X87885714Y-97284523D01*
X88133333Y-97284523D01*
X87514285Y-97408333D02*
X87204761Y-97408333D01*
X87576190Y-97594047D02*
X87359523Y-96944047D01*
X87142857Y-97594047D01*
X86616666Y-96944047D02*
X86926190Y-96944047D01*
X86957142Y-97253571D01*
X86926190Y-97222619D01*
X86864285Y-97191666D01*
X86709523Y-97191666D01*
X86647619Y-97222619D01*
X86616666Y-97253571D01*
X86585714Y-97315476D01*
X86585714Y-97470238D01*
X86616666Y-97532142D01*
X86647619Y-97563095D01*
X86709523Y-97594047D01*
X86864285Y-97594047D01*
X86926190Y-97563095D01*
X86957142Y-97532142D01*
X85558333Y-97594047D02*
X85558333Y-96944047D01*
X85310714Y-96944047D01*
X85248809Y-96975000D01*
X85217857Y-97005952D01*
X85186904Y-97067857D01*
X85186904Y-97160714D01*
X85217857Y-97222619D01*
X85248809Y-97253571D01*
X85310714Y-97284523D01*
X85558333Y-97284523D01*
X84939285Y-97408333D02*
X84629761Y-97408333D01*
X85001190Y-97594047D02*
X84784523Y-96944047D01*
X84567857Y-97594047D01*
X84072619Y-96944047D02*
X84196428Y-96944047D01*
X84258333Y-96975000D01*
X84289285Y-97005952D01*
X84351190Y-97098809D01*
X84382142Y-97222619D01*
X84382142Y-97470238D01*
X84351190Y-97532142D01*
X84320238Y-97563095D01*
X84258333Y-97594047D01*
X84134523Y-97594047D01*
X84072619Y-97563095D01*
X84041666Y-97532142D01*
X84010714Y-97470238D01*
X84010714Y-97315476D01*
X84041666Y-97253571D01*
X84072619Y-97222619D01*
X84134523Y-97191666D01*
X84258333Y-97191666D01*
X84320238Y-97222619D01*
X84351190Y-97253571D01*
X84382142Y-97315476D01*
X82958333Y-97594047D02*
X82958333Y-96944047D01*
X82710714Y-96944047D01*
X82648809Y-96975000D01*
X82617857Y-97005952D01*
X82586904Y-97067857D01*
X82586904Y-97160714D01*
X82617857Y-97222619D01*
X82648809Y-97253571D01*
X82710714Y-97284523D01*
X82958333Y-97284523D01*
X82339285Y-97408333D02*
X82029761Y-97408333D01*
X82401190Y-97594047D02*
X82184523Y-96944047D01*
X81967857Y-97594047D01*
X81813095Y-96944047D02*
X81379761Y-96944047D01*
X81658333Y-97594047D01*
X80408333Y-97594047D02*
X80408333Y-96944047D01*
X80160714Y-96944047D01*
X80098809Y-96975000D01*
X80067857Y-97005952D01*
X80036904Y-97067857D01*
X80036904Y-97160714D01*
X80067857Y-97222619D01*
X80098809Y-97253571D01*
X80160714Y-97284523D01*
X80408333Y-97284523D01*
X79789285Y-97408333D02*
X79479761Y-97408333D01*
X79851190Y-97594047D02*
X79634523Y-96944047D01*
X79417857Y-97594047D01*
X79108333Y-97222619D02*
X79170238Y-97191666D01*
X79201190Y-97160714D01*
X79232142Y-97098809D01*
X79232142Y-97067857D01*
X79201190Y-97005952D01*
X79170238Y-96975000D01*
X79108333Y-96944047D01*
X78984523Y-96944047D01*
X78922619Y-96975000D01*
X78891666Y-97005952D01*
X78860714Y-97067857D01*
X78860714Y-97098809D01*
X78891666Y-97160714D01*
X78922619Y-97191666D01*
X78984523Y-97222619D01*
X79108333Y-97222619D01*
X79170238Y-97253571D01*
X79201190Y-97284523D01*
X79232142Y-97346428D01*
X79232142Y-97470238D01*
X79201190Y-97532142D01*
X79170238Y-97563095D01*
X79108333Y-97594047D01*
X78984523Y-97594047D01*
X78922619Y-97563095D01*
X78891666Y-97532142D01*
X78860714Y-97470238D01*
X78860714Y-97346428D01*
X78891666Y-97284523D01*
X78922619Y-97253571D01*
X78984523Y-97222619D01*
X90654761Y-104144047D02*
X90654761Y-103494047D01*
X90407142Y-103494047D01*
X90345238Y-103525000D01*
X90314285Y-103555952D01*
X90283333Y-103617857D01*
X90283333Y-103710714D01*
X90314285Y-103772619D01*
X90345238Y-103803571D01*
X90407142Y-103834523D01*
X90654761Y-103834523D01*
X89788095Y-103803571D02*
X89695238Y-103834523D01*
X89664285Y-103865476D01*
X89633333Y-103927380D01*
X89633333Y-104020238D01*
X89664285Y-104082142D01*
X89695238Y-104113095D01*
X89757142Y-104144047D01*
X90004761Y-104144047D01*
X90004761Y-103494047D01*
X89788095Y-103494047D01*
X89726190Y-103525000D01*
X89695238Y-103555952D01*
X89664285Y-103617857D01*
X89664285Y-103679761D01*
X89695238Y-103741666D01*
X89726190Y-103772619D01*
X89788095Y-103803571D01*
X90004761Y-103803571D01*
X89045238Y-103494047D02*
X89354761Y-103494047D01*
X89385714Y-103803571D01*
X89354761Y-103772619D01*
X89292857Y-103741666D01*
X89138095Y-103741666D01*
X89076190Y-103772619D01*
X89045238Y-103803571D01*
X89014285Y-103865476D01*
X89014285Y-104020238D01*
X89045238Y-104082142D01*
X89076190Y-104113095D01*
X89138095Y-104144047D01*
X89292857Y-104144047D01*
X89354761Y-104113095D01*
X89385714Y-104082142D01*
X88310714Y-104144047D02*
X88310714Y-103494047D01*
X88082142Y-103494047D01*
X88025000Y-103525000D01*
X87996428Y-103555952D01*
X87967857Y-103617857D01*
X87967857Y-103710714D01*
X87996428Y-103772619D01*
X88025000Y-103803571D01*
X88082142Y-103834523D01*
X88310714Y-103834523D01*
X87739285Y-103958333D02*
X87453571Y-103958333D01*
X87796428Y-104144047D02*
X87596428Y-103494047D01*
X87396428Y-104144047D01*
X86882142Y-104144047D02*
X87225000Y-104144047D01*
X87053571Y-104144047D02*
X87053571Y-103494047D01*
X87110714Y-103586904D01*
X87167857Y-103648809D01*
X87225000Y-103679761D01*
X86367857Y-103710714D02*
X86367857Y-104144047D01*
X86510714Y-103463095D02*
X86653571Y-103927380D01*
X86282142Y-103927380D01*
X85735714Y-104144047D02*
X85735714Y-103494047D01*
X85507142Y-103494047D01*
X85450000Y-103525000D01*
X85421428Y-103555952D01*
X85392857Y-103617857D01*
X85392857Y-103710714D01*
X85421428Y-103772619D01*
X85450000Y-103803571D01*
X85507142Y-103834523D01*
X85735714Y-103834523D01*
X85164285Y-103958333D02*
X84878571Y-103958333D01*
X85221428Y-104144047D02*
X85021428Y-103494047D01*
X84821428Y-104144047D01*
X84307142Y-104144047D02*
X84650000Y-104144047D01*
X84478571Y-104144047D02*
X84478571Y-103494047D01*
X84535714Y-103586904D01*
X84592857Y-103648809D01*
X84650000Y-103679761D01*
X84107142Y-103494047D02*
X83735714Y-103494047D01*
X83935714Y-103741666D01*
X83850000Y-103741666D01*
X83792857Y-103772619D01*
X83764285Y-103803571D01*
X83735714Y-103865476D01*
X83735714Y-104020238D01*
X83764285Y-104082142D01*
X83792857Y-104113095D01*
X83850000Y-104144047D01*
X84021428Y-104144047D01*
X84078571Y-104113095D01*
X84107142Y-104082142D01*
X83235714Y-104119047D02*
X83235714Y-103469047D01*
X83007142Y-103469047D01*
X82950000Y-103500000D01*
X82921428Y-103530952D01*
X82892857Y-103592857D01*
X82892857Y-103685714D01*
X82921428Y-103747619D01*
X82950000Y-103778571D01*
X83007142Y-103809523D01*
X83235714Y-103809523D01*
X82664285Y-103933333D02*
X82378571Y-103933333D01*
X82721428Y-104119047D02*
X82521428Y-103469047D01*
X82321428Y-104119047D01*
X81807142Y-104119047D02*
X82150000Y-104119047D01*
X81978571Y-104119047D02*
X81978571Y-103469047D01*
X82035714Y-103561904D01*
X82092857Y-103623809D01*
X82150000Y-103654761D01*
X81435714Y-103469047D02*
X81378571Y-103469047D01*
X81321428Y-103500000D01*
X81292857Y-103530952D01*
X81264285Y-103592857D01*
X81235714Y-103716666D01*
X81235714Y-103871428D01*
X81264285Y-103995238D01*
X81292857Y-104057142D01*
X81321428Y-104088095D01*
X81378571Y-104119047D01*
X81435714Y-104119047D01*
X81492857Y-104088095D01*
X81521428Y-104057142D01*
X81550000Y-103995238D01*
X81578571Y-103871428D01*
X81578571Y-103716666D01*
X81550000Y-103592857D01*
X81521428Y-103530952D01*
X81492857Y-103500000D01*
X81435714Y-103469047D01*
X80483333Y-104144047D02*
X80483333Y-103494047D01*
X80235714Y-103494047D01*
X80173809Y-103525000D01*
X80142857Y-103555952D01*
X80111904Y-103617857D01*
X80111904Y-103710714D01*
X80142857Y-103772619D01*
X80173809Y-103803571D01*
X80235714Y-103834523D01*
X80483333Y-103834523D01*
X79864285Y-103958333D02*
X79554761Y-103958333D01*
X79926190Y-104144047D02*
X79709523Y-103494047D01*
X79492857Y-104144047D01*
X79245238Y-104144047D02*
X79121428Y-104144047D01*
X79059523Y-104113095D01*
X79028571Y-104082142D01*
X78966666Y-103989285D01*
X78935714Y-103865476D01*
X78935714Y-103617857D01*
X78966666Y-103555952D01*
X78997619Y-103525000D01*
X79059523Y-103494047D01*
X79183333Y-103494047D01*
X79245238Y-103525000D01*
X79276190Y-103555952D01*
X79307142Y-103617857D01*
X79307142Y-103772619D01*
X79276190Y-103834523D01*
X79245238Y-103865476D01*
X79183333Y-103896428D01*
X79059523Y-103896428D01*
X78997619Y-103865476D01*
X78966666Y-103834523D01*
X78935714Y-103772619D01*
X110858333Y-97619047D02*
X110858333Y-96969047D01*
X110610714Y-96969047D01*
X110548809Y-97000000D01*
X110517857Y-97030952D01*
X110486904Y-97092857D01*
X110486904Y-97185714D01*
X110517857Y-97247619D01*
X110548809Y-97278571D01*
X110610714Y-97309523D01*
X110858333Y-97309523D01*
X110239285Y-97433333D02*
X109929761Y-97433333D01*
X110301190Y-97619047D02*
X110084523Y-96969047D01*
X109867857Y-97619047D01*
X109713095Y-96969047D02*
X109310714Y-96969047D01*
X109527380Y-97216666D01*
X109434523Y-97216666D01*
X109372619Y-97247619D01*
X109341666Y-97278571D01*
X109310714Y-97340476D01*
X109310714Y-97495238D01*
X109341666Y-97557142D01*
X109372619Y-97588095D01*
X109434523Y-97619047D01*
X109620238Y-97619047D01*
X109682142Y-97588095D01*
X109713095Y-97557142D01*
X113408333Y-97619047D02*
X113408333Y-96969047D01*
X113160714Y-96969047D01*
X113098809Y-97000000D01*
X113067857Y-97030952D01*
X113036904Y-97092857D01*
X113036904Y-97185714D01*
X113067857Y-97247619D01*
X113098809Y-97278571D01*
X113160714Y-97309523D01*
X113408333Y-97309523D01*
X112789285Y-97433333D02*
X112479761Y-97433333D01*
X112851190Y-97619047D02*
X112634523Y-96969047D01*
X112417857Y-97619047D01*
X112232142Y-97030952D02*
X112201190Y-97000000D01*
X112139285Y-96969047D01*
X111984523Y-96969047D01*
X111922619Y-97000000D01*
X111891666Y-97030952D01*
X111860714Y-97092857D01*
X111860714Y-97154761D01*
X111891666Y-97247619D01*
X112263095Y-97619047D01*
X111860714Y-97619047D01*
X115958333Y-97619047D02*
X115958333Y-96969047D01*
X115710714Y-96969047D01*
X115648809Y-97000000D01*
X115617857Y-97030952D01*
X115586904Y-97092857D01*
X115586904Y-97185714D01*
X115617857Y-97247619D01*
X115648809Y-97278571D01*
X115710714Y-97309523D01*
X115958333Y-97309523D01*
X115339285Y-97433333D02*
X115029761Y-97433333D01*
X115401190Y-97619047D02*
X115184523Y-96969047D01*
X114967857Y-97619047D01*
X114410714Y-97619047D02*
X114782142Y-97619047D01*
X114596428Y-97619047D02*
X114596428Y-96969047D01*
X114658333Y-97061904D01*
X114720238Y-97123809D01*
X114782142Y-97154761D01*
X118508333Y-97644047D02*
X118508333Y-96994047D01*
X118260714Y-96994047D01*
X118198809Y-97025000D01*
X118167857Y-97055952D01*
X118136904Y-97117857D01*
X118136904Y-97210714D01*
X118167857Y-97272619D01*
X118198809Y-97303571D01*
X118260714Y-97334523D01*
X118508333Y-97334523D01*
X117889285Y-97458333D02*
X117579761Y-97458333D01*
X117951190Y-97644047D02*
X117734523Y-96994047D01*
X117517857Y-97644047D01*
X117177380Y-96994047D02*
X117115476Y-96994047D01*
X117053571Y-97025000D01*
X117022619Y-97055952D01*
X116991666Y-97117857D01*
X116960714Y-97241666D01*
X116960714Y-97396428D01*
X116991666Y-97520238D01*
X117022619Y-97582142D01*
X117053571Y-97613095D01*
X117115476Y-97644047D01*
X117177380Y-97644047D01*
X117239285Y-97613095D01*
X117270238Y-97582142D01*
X117301190Y-97520238D01*
X117332142Y-97396428D01*
X117332142Y-97241666D01*
X117301190Y-97117857D01*
X117270238Y-97055952D01*
X117239285Y-97025000D01*
X117177380Y-96994047D01*
X121521428Y-97228571D02*
X121428571Y-97259523D01*
X121397619Y-97290476D01*
X121366666Y-97352380D01*
X121366666Y-97445238D01*
X121397619Y-97507142D01*
X121428571Y-97538095D01*
X121490476Y-97569047D01*
X121738095Y-97569047D01*
X121738095Y-96919047D01*
X121521428Y-96919047D01*
X121459523Y-96950000D01*
X121428571Y-96980952D01*
X121397619Y-97042857D01*
X121397619Y-97104761D01*
X121428571Y-97166666D01*
X121459523Y-97197619D01*
X121521428Y-97228571D01*
X121738095Y-97228571D01*
X120809523Y-97569047D02*
X120809523Y-97228571D01*
X120840476Y-97166666D01*
X120902380Y-97135714D01*
X121026190Y-97135714D01*
X121088095Y-97166666D01*
X120809523Y-97538095D02*
X120871428Y-97569047D01*
X121026190Y-97569047D01*
X121088095Y-97538095D01*
X121119047Y-97476190D01*
X121119047Y-97414285D01*
X121088095Y-97352380D01*
X121026190Y-97321428D01*
X120871428Y-97321428D01*
X120809523Y-97290476D01*
X120592857Y-97135714D02*
X120345238Y-97135714D01*
X120500000Y-96919047D02*
X120500000Y-97476190D01*
X120469047Y-97538095D01*
X120407142Y-97569047D01*
X120345238Y-97569047D01*
X120221428Y-97135714D02*
X119973809Y-97135714D01*
X120128571Y-96919047D02*
X120128571Y-97476190D01*
X120097619Y-97538095D01*
X120035714Y-97569047D01*
X119973809Y-97569047D01*
X119757142Y-97321428D02*
X119261904Y-97321428D01*
X119509523Y-97569047D02*
X119509523Y-97073809D01*
D12*
X116697619Y-93977380D02*
X117173809Y-93977380D01*
X117173809Y-92977380D01*
X116364285Y-93453571D02*
X116030952Y-93453571D01*
X115888095Y-93977380D02*
X116364285Y-93977380D01*
X116364285Y-92977380D01*
X115888095Y-92977380D01*
X115459523Y-93977380D02*
X115459523Y-92977380D01*
X115221428Y-92977380D01*
X115078571Y-93025000D01*
X114983333Y-93120238D01*
X114935714Y-93215476D01*
X114888095Y-93405952D01*
X114888095Y-93548809D01*
X114935714Y-93739285D01*
X114983333Y-93834523D01*
X115078571Y-93929761D01*
X115221428Y-93977380D01*
X115459523Y-93977380D01*
X114507142Y-93929761D02*
X114411904Y-93977380D01*
X114221428Y-93977380D01*
X114126190Y-93929761D01*
X114078571Y-93834523D01*
X114078571Y-93786904D01*
X114126190Y-93691666D01*
X114221428Y-93644047D01*
X114364285Y-93644047D01*
X114459523Y-93596428D01*
X114507142Y-93501190D01*
X114507142Y-93453571D01*
X114459523Y-93358333D01*
X114364285Y-93310714D01*
X114221428Y-93310714D01*
X114126190Y-93358333D01*
D10*
X121015476Y-103544047D02*
X120798809Y-104194047D01*
X120582142Y-103544047D01*
X120365476Y-104194047D02*
X120365476Y-103760714D01*
X120365476Y-103544047D02*
X120396428Y-103575000D01*
X120365476Y-103605952D01*
X120334523Y-103575000D01*
X120365476Y-103544047D01*
X120365476Y-103605952D01*
X120055952Y-103760714D02*
X120055952Y-104194047D01*
X120055952Y-103822619D02*
X120025000Y-103791666D01*
X119963095Y-103760714D01*
X119870238Y-103760714D01*
X119808333Y-103791666D01*
X119777380Y-103853571D01*
X119777380Y-104194047D01*
X118703571Y-103569047D02*
X118301190Y-103569047D01*
X118517857Y-103816666D01*
X118425000Y-103816666D01*
X118363095Y-103847619D01*
X118332142Y-103878571D01*
X118301190Y-103940476D01*
X118301190Y-104095238D01*
X118332142Y-104157142D01*
X118363095Y-104188095D01*
X118425000Y-104219047D01*
X118610714Y-104219047D01*
X118672619Y-104188095D01*
X118703571Y-104157142D01*
X118022619Y-104157142D02*
X117991666Y-104188095D01*
X118022619Y-104219047D01*
X118053571Y-104188095D01*
X118022619Y-104157142D01*
X118022619Y-104219047D01*
X117775000Y-103569047D02*
X117372619Y-103569047D01*
X117589285Y-103816666D01*
X117496428Y-103816666D01*
X117434523Y-103847619D01*
X117403571Y-103878571D01*
X117372619Y-103940476D01*
X117372619Y-104095238D01*
X117403571Y-104157142D01*
X117434523Y-104188095D01*
X117496428Y-104219047D01*
X117682142Y-104219047D01*
X117744047Y-104188095D01*
X117775000Y-104157142D01*
X117155952Y-103785714D02*
X117001190Y-104219047D01*
X116846428Y-103785714D01*
X116272619Y-103569047D02*
X116272619Y-104095238D01*
X116241666Y-104157142D01*
X116210714Y-104188095D01*
X116148809Y-104219047D01*
X116025000Y-104219047D01*
X115963095Y-104188095D01*
X115932142Y-104157142D01*
X115901190Y-104095238D01*
X115901190Y-103569047D01*
X115622619Y-104188095D02*
X115529761Y-104219047D01*
X115375000Y-104219047D01*
X115313095Y-104188095D01*
X115282142Y-104157142D01*
X115251190Y-104095238D01*
X115251190Y-104033333D01*
X115282142Y-103971428D01*
X115313095Y-103940476D01*
X115375000Y-103909523D01*
X115498809Y-103878571D01*
X115560714Y-103847619D01*
X115591666Y-103816666D01*
X115622619Y-103754761D01*
X115622619Y-103692857D01*
X115591666Y-103630952D01*
X115560714Y-103600000D01*
X115498809Y-103569047D01*
X115344047Y-103569047D01*
X115251190Y-103600000D01*
X114755952Y-103878571D02*
X114663095Y-103909523D01*
X114632142Y-103940476D01*
X114601190Y-104002380D01*
X114601190Y-104095238D01*
X114632142Y-104157142D01*
X114663095Y-104188095D01*
X114725000Y-104219047D01*
X114972619Y-104219047D01*
X114972619Y-103569047D01*
X114755952Y-103569047D01*
X114694047Y-103600000D01*
X114663095Y-103630952D01*
X114632142Y-103692857D01*
X114632142Y-103754761D01*
X114663095Y-103816666D01*
X114694047Y-103847619D01*
X114755952Y-103878571D01*
X114972619Y-103878571D01*
X114322619Y-103971428D02*
X113827380Y-103971428D01*
X114075000Y-104219047D02*
X114075000Y-103723809D01*
X113117857Y-103600000D02*
X113179761Y-103569047D01*
X113272619Y-103569047D01*
X113365476Y-103600000D01*
X113427380Y-103661904D01*
X113458333Y-103723809D01*
X113489285Y-103847619D01*
X113489285Y-103940476D01*
X113458333Y-104064285D01*
X113427380Y-104126190D01*
X113365476Y-104188095D01*
X113272619Y-104219047D01*
X113210714Y-104219047D01*
X113117857Y-104188095D01*
X113086904Y-104157142D01*
X113086904Y-103940476D01*
X113210714Y-103940476D01*
X112808333Y-103785714D02*
X112808333Y-104219047D01*
X112808333Y-103847619D02*
X112777380Y-103816666D01*
X112715476Y-103785714D01*
X112622619Y-103785714D01*
X112560714Y-103816666D01*
X112529761Y-103878571D01*
X112529761Y-104219047D01*
X111941666Y-104219047D02*
X111941666Y-103569047D01*
X111941666Y-104188095D02*
X112003571Y-104219047D01*
X112127380Y-104219047D01*
X112189285Y-104188095D01*
X112220238Y-104157142D01*
X112251190Y-104095238D01*
X112251190Y-103909523D01*
X112220238Y-103847619D01*
X112189285Y-103816666D01*
X112127380Y-103785714D01*
X112003571Y-103785714D01*
X111941666Y-103816666D01*
D12*
X118476190Y-102852380D02*
X118476190Y-101852380D01*
X118095238Y-101852380D01*
X118000000Y-101900000D01*
X117952380Y-101947619D01*
X117904761Y-102042857D01*
X117904761Y-102185714D01*
X117952380Y-102280952D01*
X118000000Y-102328571D01*
X118095238Y-102376190D01*
X118476190Y-102376190D01*
X117333333Y-102852380D02*
X117428571Y-102804761D01*
X117476190Y-102757142D01*
X117523809Y-102661904D01*
X117523809Y-102376190D01*
X117476190Y-102280952D01*
X117428571Y-102233333D01*
X117333333Y-102185714D01*
X117190476Y-102185714D01*
X117095238Y-102233333D01*
X117047619Y-102280952D01*
X117000000Y-102376190D01*
X117000000Y-102661904D01*
X117047619Y-102757142D01*
X117095238Y-102804761D01*
X117190476Y-102852380D01*
X117333333Y-102852380D01*
X116666666Y-102185714D02*
X116476190Y-102852380D01*
X116285714Y-102376190D01*
X116095238Y-102852380D01*
X115904761Y-102185714D01*
X115142857Y-102804761D02*
X115238095Y-102852380D01*
X115428571Y-102852380D01*
X115523809Y-102804761D01*
X115571428Y-102709523D01*
X115571428Y-102328571D01*
X115523809Y-102233333D01*
X115428571Y-102185714D01*
X115238095Y-102185714D01*
X115142857Y-102233333D01*
X115095238Y-102328571D01*
X115095238Y-102423809D01*
X115571428Y-102519047D01*
X114666666Y-102852380D02*
X114666666Y-102185714D01*
X114666666Y-102376190D02*
X114619047Y-102280952D01*
X114571428Y-102233333D01*
X114476190Y-102185714D01*
X114380952Y-102185714D01*
D13*
X153708571Y-93339285D02*
X152680000Y-93339285D01*
X153194285Y-95139285D02*
X153194285Y-93339285D01*
X152080000Y-95139285D02*
X152080000Y-93339285D01*
X151308571Y-95139285D02*
X151308571Y-94196428D01*
X151394285Y-94025000D01*
X151565714Y-93939285D01*
X151822857Y-93939285D01*
X151994285Y-94025000D01*
X152080000Y-94110714D01*
X149680000Y-93939285D02*
X149680000Y-95139285D01*
X150451428Y-93939285D02*
X150451428Y-94882142D01*
X150365714Y-95053571D01*
X150194285Y-95139285D01*
X149937142Y-95139285D01*
X149765714Y-95053571D01*
X149680000Y-94967857D01*
X148822857Y-93939285D02*
X148822857Y-95139285D01*
X148822857Y-94110714D02*
X148737142Y-94025000D01*
X148565714Y-93939285D01*
X148308571Y-93939285D01*
X148137142Y-94025000D01*
X148051428Y-94196428D01*
X148051428Y-95139285D01*
X146422857Y-95139285D02*
X146422857Y-93339285D01*
X146422857Y-95053571D02*
X146594285Y-95139285D01*
X146937142Y-95139285D01*
X147108571Y-95053571D01*
X147194285Y-94967857D01*
X147280000Y-94796428D01*
X147280000Y-94282142D01*
X147194285Y-94110714D01*
X147108571Y-94025000D01*
X146937142Y-93939285D01*
X146594285Y-93939285D01*
X146422857Y-94025000D01*
X144880000Y-95053571D02*
X145051428Y-95139285D01*
X145394285Y-95139285D01*
X145565714Y-95053571D01*
X145651428Y-94882142D01*
X145651428Y-94196428D01*
X145565714Y-94025000D01*
X145394285Y-93939285D01*
X145051428Y-93939285D01*
X144880000Y-94025000D01*
X144794285Y-94196428D01*
X144794285Y-94367857D01*
X145651428Y-94539285D01*
X144022857Y-95139285D02*
X144022857Y-93939285D01*
X144022857Y-94282142D02*
X143937142Y-94110714D01*
X143851428Y-94025000D01*
X143680000Y-93939285D01*
X143508571Y-93939285D01*
X141537142Y-95139285D02*
X141537142Y-93339285D01*
X140851428Y-93339285D01*
X140680000Y-93425000D01*
X140594285Y-93510714D01*
X140508571Y-93682142D01*
X140508571Y-93939285D01*
X140594285Y-94110714D01*
X140680000Y-94196428D01*
X140851428Y-94282142D01*
X141537142Y-94282142D01*
X138965714Y-95139285D02*
X138965714Y-94196428D01*
X139051428Y-94025000D01*
X139222857Y-93939285D01*
X139565714Y-93939285D01*
X139737142Y-94025000D01*
X138965714Y-95053571D02*
X139137142Y-95139285D01*
X139565714Y-95139285D01*
X139737142Y-95053571D01*
X139822857Y-94882142D01*
X139822857Y-94710714D01*
X139737142Y-94539285D01*
X139565714Y-94453571D01*
X139137142Y-94453571D01*
X138965714Y-94367857D01*
X137337142Y-95053571D02*
X137508571Y-95139285D01*
X137851428Y-95139285D01*
X138022857Y-95053571D01*
X138108571Y-94967857D01*
X138194285Y-94796428D01*
X138194285Y-94282142D01*
X138108571Y-94110714D01*
X138022857Y-94025000D01*
X137851428Y-93939285D01*
X137508571Y-93939285D01*
X137337142Y-94025000D01*
X136565714Y-95139285D02*
X136565714Y-93339285D01*
X136394285Y-94453571D02*
X135880000Y-95139285D01*
X135880000Y-93939285D02*
X136565714Y-94625000D01*
D12*
X92800000Y-98050800D02*
X92800000Y-102050800D01*
X108800000Y-98050800D02*
X92800000Y-98050800D01*
X108800000Y-99050800D02*
X108800000Y-98050800D01*
X109800000Y-99050800D02*
X108800000Y-99050800D01*
X109800000Y-100950800D02*
X109800000Y-99050800D01*
X108900000Y-100950800D02*
X109800000Y-100950800D01*
X108900000Y-102050800D02*
X108900000Y-100950800D01*
X92800000Y-102050800D02*
X108900000Y-102050800D01*
D14*
X106220238Y-101475000D02*
X106251190Y-101508333D01*
X106344047Y-101541666D01*
X106405952Y-101541666D01*
X106498809Y-101508333D01*
X106560714Y-101441666D01*
X106591666Y-101375000D01*
X106622619Y-101241666D01*
X106622619Y-101141666D01*
X106591666Y-101008333D01*
X106560714Y-100941666D01*
X106498809Y-100875000D01*
X106405952Y-100841666D01*
X106344047Y-100841666D01*
X106251190Y-100875000D01*
X106220238Y-100908333D01*
X105694047Y-101508333D02*
X105755952Y-101541666D01*
X105879761Y-101541666D01*
X105941666Y-101508333D01*
X105972619Y-101441666D01*
X105972619Y-101175000D01*
X105941666Y-101108333D01*
X105879761Y-101075000D01*
X105755952Y-101075000D01*
X105694047Y-101108333D01*
X105663095Y-101175000D01*
X105663095Y-101241666D01*
X105972619Y-101308333D01*
X105291666Y-101541666D02*
X105353571Y-101508333D01*
X105384523Y-101441666D01*
X105384523Y-100841666D01*
X104951190Y-101541666D02*
X105013095Y-101508333D01*
X105044047Y-101441666D01*
X105044047Y-100841666D01*
X104208333Y-101075000D02*
X104208333Y-101775000D01*
X104208333Y-101108333D02*
X104146428Y-101075000D01*
X104022619Y-101075000D01*
X103960714Y-101108333D01*
X103929761Y-101141666D01*
X103898809Y-101208333D01*
X103898809Y-101408333D01*
X103929761Y-101475000D01*
X103960714Y-101508333D01*
X104022619Y-101541666D01*
X104146428Y-101541666D01*
X104208333Y-101508333D01*
X103620238Y-101541666D02*
X103620238Y-101075000D01*
X103620238Y-101208333D02*
X103589285Y-101141666D01*
X103558333Y-101108333D01*
X103496428Y-101075000D01*
X103434523Y-101075000D01*
X103125000Y-101541666D02*
X103186904Y-101508333D01*
X103217857Y-101475000D01*
X103248809Y-101408333D01*
X103248809Y-101208333D01*
X103217857Y-101141666D01*
X103186904Y-101108333D01*
X103125000Y-101075000D01*
X103032142Y-101075000D01*
X102970238Y-101108333D01*
X102939285Y-101141666D01*
X102908333Y-101208333D01*
X102908333Y-101408333D01*
X102939285Y-101475000D01*
X102970238Y-101508333D01*
X103032142Y-101541666D01*
X103125000Y-101541666D01*
X102722619Y-101075000D02*
X102475000Y-101075000D01*
X102629761Y-100841666D02*
X102629761Y-101441666D01*
X102598809Y-101508333D01*
X102536904Y-101541666D01*
X102475000Y-101541666D01*
X102010714Y-101508333D02*
X102072619Y-101541666D01*
X102196428Y-101541666D01*
X102258333Y-101508333D01*
X102289285Y-101441666D01*
X102289285Y-101175000D01*
X102258333Y-101108333D01*
X102196428Y-101075000D01*
X102072619Y-101075000D01*
X102010714Y-101108333D01*
X101979761Y-101175000D01*
X101979761Y-101241666D01*
X102289285Y-101308333D01*
X101422619Y-101508333D02*
X101484523Y-101541666D01*
X101608333Y-101541666D01*
X101670238Y-101508333D01*
X101701190Y-101475000D01*
X101732142Y-101408333D01*
X101732142Y-101208333D01*
X101701190Y-101141666D01*
X101670238Y-101108333D01*
X101608333Y-101075000D01*
X101484523Y-101075000D01*
X101422619Y-101108333D01*
X101236904Y-101075000D02*
X100989285Y-101075000D01*
X101144047Y-100841666D02*
X101144047Y-101441666D01*
X101113095Y-101508333D01*
X101051190Y-101541666D01*
X100989285Y-101541666D01*
X100772619Y-101541666D02*
X100772619Y-101075000D01*
X100772619Y-100841666D02*
X100803571Y-100875000D01*
X100772619Y-100908333D01*
X100741666Y-100875000D01*
X100772619Y-100841666D01*
X100772619Y-100908333D01*
X100370238Y-101541666D02*
X100432142Y-101508333D01*
X100463095Y-101475000D01*
X100494047Y-101408333D01*
X100494047Y-101208333D01*
X100463095Y-101141666D01*
X100432142Y-101108333D01*
X100370238Y-101075000D01*
X100277380Y-101075000D01*
X100215476Y-101108333D01*
X100184523Y-101141666D01*
X100153571Y-101208333D01*
X100153571Y-101408333D01*
X100184523Y-101475000D01*
X100215476Y-101508333D01*
X100277380Y-101541666D01*
X100370238Y-101541666D01*
X99875000Y-101075000D02*
X99875000Y-101541666D01*
X99875000Y-101141666D02*
X99844047Y-101108333D01*
X99782142Y-101075000D01*
X99689285Y-101075000D01*
X99627380Y-101108333D01*
X99596428Y-101175000D01*
X99596428Y-101541666D01*
X98791666Y-101541666D02*
X98791666Y-101075000D01*
X98791666Y-101208333D02*
X98760714Y-101141666D01*
X98729761Y-101108333D01*
X98667857Y-101075000D01*
X98605952Y-101075000D01*
X98141666Y-101508333D02*
X98203571Y-101541666D01*
X98327380Y-101541666D01*
X98389285Y-101508333D01*
X98420238Y-101441666D01*
X98420238Y-101175000D01*
X98389285Y-101108333D01*
X98327380Y-101075000D01*
X98203571Y-101075000D01*
X98141666Y-101108333D01*
X98110714Y-101175000D01*
X98110714Y-101241666D01*
X98420238Y-101308333D01*
X97553571Y-101075000D02*
X97553571Y-101775000D01*
X97553571Y-101508333D02*
X97615476Y-101541666D01*
X97739285Y-101541666D01*
X97801190Y-101508333D01*
X97832142Y-101475000D01*
X97863095Y-101408333D01*
X97863095Y-101208333D01*
X97832142Y-101141666D01*
X97801190Y-101108333D01*
X97739285Y-101075000D01*
X97615476Y-101075000D01*
X97553571Y-101108333D01*
X96965476Y-101075000D02*
X96965476Y-101541666D01*
X97244047Y-101075000D02*
X97244047Y-101441666D01*
X97213095Y-101508333D01*
X97151190Y-101541666D01*
X97058333Y-101541666D01*
X96996428Y-101508333D01*
X96965476Y-101475000D01*
X96655952Y-101541666D02*
X96655952Y-101075000D01*
X96655952Y-100841666D02*
X96686904Y-100875000D01*
X96655952Y-100908333D01*
X96625000Y-100875000D01*
X96655952Y-100841666D01*
X96655952Y-100908333D01*
X96346428Y-101541666D02*
X96346428Y-101075000D01*
X96346428Y-101208333D02*
X96315476Y-101141666D01*
X96284523Y-101108333D01*
X96222619Y-101075000D01*
X96160714Y-101075000D01*
X95696428Y-101508333D02*
X95758333Y-101541666D01*
X95882142Y-101541666D01*
X95944047Y-101508333D01*
X95975000Y-101441666D01*
X95975000Y-101175000D01*
X95944047Y-101108333D01*
X95882142Y-101075000D01*
X95758333Y-101075000D01*
X95696428Y-101108333D01*
X95665476Y-101175000D01*
X95665476Y-101241666D01*
X95975000Y-101308333D01*
X95108333Y-101541666D02*
X95108333Y-100841666D01*
X95108333Y-101508333D02*
X95170238Y-101541666D01*
X95294047Y-101541666D01*
X95355952Y-101508333D01*
X95386904Y-101475000D01*
X95417857Y-101408333D01*
X95417857Y-101208333D01*
X95386904Y-101141666D01*
X95355952Y-101108333D01*
X95294047Y-101075000D01*
X95170238Y-101075000D01*
X95108333Y-101108333D01*
D10*
X91066666Y-99948400D02*
X90533333Y-99948400D01*
X112066666Y-99948400D02*
X111533333Y-99948400D01*
X111800000Y-100215066D02*
X111800000Y-99681733D01*
X104978571Y-100207142D02*
X105492857Y-100207142D01*
X105235714Y-100207142D02*
X105235714Y-99307142D01*
X105321428Y-99435714D01*
X105407142Y-99521428D01*
X105492857Y-99564285D01*
X104464285Y-99692857D02*
X104550000Y-99650000D01*
X104592857Y-99607142D01*
X104635714Y-99521428D01*
X104635714Y-99478571D01*
X104592857Y-99392857D01*
X104550000Y-99350000D01*
X104464285Y-99307142D01*
X104292857Y-99307142D01*
X104207142Y-99350000D01*
X104164285Y-99392857D01*
X104121428Y-99478571D01*
X104121428Y-99521428D01*
X104164285Y-99607142D01*
X104207142Y-99650000D01*
X104292857Y-99692857D01*
X104464285Y-99692857D01*
X104550000Y-99735714D01*
X104592857Y-99778571D01*
X104635714Y-99864285D01*
X104635714Y-100035714D01*
X104592857Y-100121428D01*
X104550000Y-100164285D01*
X104464285Y-100207142D01*
X104292857Y-100207142D01*
X104207142Y-100164285D01*
X104164285Y-100121428D01*
X104121428Y-100035714D01*
X104121428Y-99864285D01*
X104164285Y-99778571D01*
X104207142Y-99735714D01*
X104292857Y-99692857D01*
X103350000Y-99307142D02*
X103521428Y-99307142D01*
X103607142Y-99350000D01*
X103650000Y-99392857D01*
X103735714Y-99521428D01*
X103778571Y-99692857D01*
X103778571Y-100035714D01*
X103735714Y-100121428D01*
X103692857Y-100164285D01*
X103607142Y-100207142D01*
X103435714Y-100207142D01*
X103350000Y-100164285D01*
X103307142Y-100121428D01*
X103264285Y-100035714D01*
X103264285Y-99821428D01*
X103307142Y-99735714D01*
X103350000Y-99692857D01*
X103435714Y-99650000D01*
X103607142Y-99650000D01*
X103692857Y-99692857D01*
X103735714Y-99735714D01*
X103778571Y-99821428D01*
X102450000Y-99307142D02*
X102878571Y-99307142D01*
X102921428Y-99735714D01*
X102878571Y-99692857D01*
X102792857Y-99650000D01*
X102578571Y-99650000D01*
X102492857Y-99692857D01*
X102450000Y-99735714D01*
X102407142Y-99821428D01*
X102407142Y-100035714D01*
X102450000Y-100121428D01*
X102492857Y-100164285D01*
X102578571Y-100207142D01*
X102792857Y-100207142D01*
X102878571Y-100164285D01*
X102921428Y-100121428D01*
X101850000Y-99307142D02*
X101764285Y-99307142D01*
X101678571Y-99350000D01*
X101635714Y-99392857D01*
X101592857Y-99478571D01*
X101550000Y-99650000D01*
X101550000Y-99864285D01*
X101592857Y-100035714D01*
X101635714Y-100121428D01*
X101678571Y-100164285D01*
X101764285Y-100207142D01*
X101850000Y-100207142D01*
X101935714Y-100164285D01*
X101978571Y-100121428D01*
X102021428Y-100035714D01*
X102064285Y-99864285D01*
X102064285Y-99650000D01*
X102021428Y-99478571D01*
X101978571Y-99392857D01*
X101935714Y-99350000D01*
X101850000Y-99307142D01*
X100178571Y-99735714D02*
X100050000Y-99778571D01*
X100007142Y-99821428D01*
X99964285Y-99907142D01*
X99964285Y-100035714D01*
X100007142Y-100121428D01*
X100050000Y-100164285D01*
X100135714Y-100207142D01*
X100478571Y-100207142D01*
X100478571Y-99307142D01*
X100178571Y-99307142D01*
X100092857Y-99350000D01*
X100050000Y-99392857D01*
X100007142Y-99478571D01*
X100007142Y-99564285D01*
X100050000Y-99650000D01*
X100092857Y-99692857D01*
X100178571Y-99735714D01*
X100478571Y-99735714D01*
X99192857Y-100207142D02*
X99192857Y-99735714D01*
X99235714Y-99650000D01*
X99321428Y-99607142D01*
X99492857Y-99607142D01*
X99578571Y-99650000D01*
X99192857Y-100164285D02*
X99278571Y-100207142D01*
X99492857Y-100207142D01*
X99578571Y-100164285D01*
X99621428Y-100078571D01*
X99621428Y-99992857D01*
X99578571Y-99907142D01*
X99492857Y-99864285D01*
X99278571Y-99864285D01*
X99192857Y-99821428D01*
X98892857Y-99607142D02*
X98550000Y-99607142D01*
X98764285Y-99307142D02*
X98764285Y-100078571D01*
X98721428Y-100164285D01*
X98635714Y-100207142D01*
X98550000Y-100207142D01*
X98378571Y-99607142D02*
X98035714Y-99607142D01*
X98250000Y-99307142D02*
X98250000Y-100078571D01*
X98207142Y-100164285D01*
X98121428Y-100207142D01*
X98035714Y-100207142D01*
X97392857Y-100164285D02*
X97478571Y-100207142D01*
X97650000Y-100207142D01*
X97735714Y-100164285D01*
X97778571Y-100078571D01*
X97778571Y-99735714D01*
X97735714Y-99650000D01*
X97650000Y-99607142D01*
X97478571Y-99607142D01*
X97392857Y-99650000D01*
X97350000Y-99735714D01*
X97350000Y-99821428D01*
X97778571Y-99907142D01*
X96964285Y-100207142D02*
X96964285Y-99607142D01*
X96964285Y-99778571D02*
X96921428Y-99692857D01*
X96878571Y-99650000D01*
X96792857Y-99607142D01*
X96707142Y-99607142D01*
X96492857Y-99607142D02*
X96278571Y-100207142D01*
X96064285Y-99607142D02*
X96278571Y-100207142D01*
X96364285Y-100421428D01*
X96407142Y-100464285D01*
X96492857Y-100507142D01*
%LPC*%
D15*
G36*
X145994186Y-97443931D02*
G01*
X145910365Y-97888555D01*
X145601080Y-98016053D01*
X145291794Y-98143551D01*
X144920754Y-97891246D01*
X144816843Y-97820996D01*
X144722913Y-97758272D01*
X144643348Y-97705938D01*
X144582530Y-97666857D01*
X144544843Y-97643893D01*
X144534579Y-97638942D01*
X144516090Y-97651676D01*
X144476580Y-97686882D01*
X144420478Y-97740062D01*
X144352213Y-97806718D01*
X144276214Y-97882354D01*
X144196908Y-97962472D01*
X144118725Y-98042574D01*
X144046093Y-98118164D01*
X143983441Y-98184745D01*
X143935197Y-98237818D01*
X143905790Y-98272887D01*
X143898759Y-98284623D01*
X143908877Y-98306260D01*
X143937241Y-98353662D01*
X143980871Y-98422193D01*
X144036782Y-98507215D01*
X144101994Y-98604093D01*
X144139781Y-98659350D01*
X144208657Y-98760248D01*
X144269860Y-98851299D01*
X144320422Y-98927970D01*
X144357372Y-98985728D01*
X144377742Y-99020043D01*
X144380803Y-99027254D01*
X144373864Y-99047748D01*
X144354949Y-99095513D01*
X144326913Y-99163832D01*
X144292609Y-99245989D01*
X144254891Y-99335270D01*
X144216613Y-99424958D01*
X144180630Y-99508338D01*
X144149794Y-99578694D01*
X144126961Y-99629310D01*
X144114983Y-99653471D01*
X144114276Y-99654422D01*
X144095469Y-99659036D01*
X144045382Y-99669328D01*
X143969207Y-99684287D01*
X143872135Y-99702901D01*
X143759357Y-99724159D01*
X143693558Y-99736418D01*
X143573050Y-99759362D01*
X143464203Y-99781195D01*
X143372524Y-99800722D01*
X143303519Y-99816748D01*
X143262696Y-99828079D01*
X143254489Y-99831674D01*
X143246452Y-99856006D01*
X143239967Y-99910959D01*
X143235030Y-99990108D01*
X143231636Y-100087026D01*
X143229782Y-100195287D01*
X143229462Y-100308465D01*
X143230673Y-100420135D01*
X143233410Y-100523868D01*
X143237669Y-100613241D01*
X143243445Y-100681826D01*
X143250733Y-100723197D01*
X143255105Y-100731810D01*
X143281236Y-100742133D01*
X143336607Y-100756892D01*
X143413893Y-100774352D01*
X143505770Y-100792780D01*
X143537842Y-100798741D01*
X143692476Y-100827066D01*
X143814625Y-100849876D01*
X143908327Y-100868080D01*
X143977616Y-100882583D01*
X144026529Y-100894292D01*
X144059103Y-100904115D01*
X144079372Y-100912956D01*
X144091374Y-100921724D01*
X144093053Y-100923457D01*
X144109816Y-100951371D01*
X144135386Y-101005695D01*
X144167212Y-101079777D01*
X144202740Y-101166965D01*
X144239417Y-101260608D01*
X144274689Y-101354052D01*
X144306004Y-101440647D01*
X144330807Y-101513740D01*
X144346546Y-101566678D01*
X144350668Y-101592811D01*
X144350324Y-101593726D01*
X144336359Y-101615086D01*
X144304678Y-101662084D01*
X144258609Y-101729827D01*
X144201482Y-101813423D01*
X144136627Y-101907982D01*
X144118157Y-101934854D01*
X144052301Y-102032275D01*
X143994350Y-102121163D01*
X143947462Y-102196412D01*
X143914793Y-102252920D01*
X143899500Y-102285581D01*
X143898759Y-102289593D01*
X143911608Y-102310684D01*
X143947112Y-102352464D01*
X144000707Y-102410445D01*
X144067829Y-102480135D01*
X144143913Y-102557045D01*
X144224396Y-102636683D01*
X144304713Y-102714561D01*
X144380301Y-102786186D01*
X144446595Y-102847070D01*
X144499031Y-102892721D01*
X144533045Y-102918650D01*
X144542455Y-102922883D01*
X144564357Y-102912912D01*
X144609200Y-102886020D01*
X144669679Y-102846736D01*
X144716211Y-102815117D01*
X144800525Y-102757098D01*
X144900374Y-102688784D01*
X145000527Y-102620579D01*
X145054373Y-102584075D01*
X145236629Y-102460800D01*
X145389619Y-102543520D01*
X145459318Y-102579759D01*
X145518586Y-102607926D01*
X145558689Y-102623991D01*
X145568897Y-102626226D01*
X145581171Y-102609722D01*
X145605387Y-102563082D01*
X145639737Y-102490609D01*
X145682412Y-102396606D01*
X145731606Y-102285374D01*
X145785510Y-102161215D01*
X145842316Y-102028432D01*
X145900218Y-101891327D01*
X145957407Y-101754202D01*
X146012076Y-101621358D01*
X146062416Y-101497098D01*
X146106620Y-101385725D01*
X146142881Y-101291539D01*
X146169391Y-101218844D01*
X146184342Y-101171941D01*
X146186746Y-101155833D01*
X146167689Y-101135286D01*
X146125964Y-101101933D01*
X146070294Y-101062702D01*
X146065622Y-101059599D01*
X145921736Y-100944423D01*
X145805717Y-100810053D01*
X145718570Y-100660784D01*
X145661301Y-100500913D01*
X145634914Y-100334737D01*
X145640415Y-100166552D01*
X145678810Y-100000655D01*
X145751105Y-99841342D01*
X145772374Y-99806487D01*
X145883004Y-99665737D01*
X146013698Y-99552714D01*
X146159936Y-99468003D01*
X146317192Y-99412194D01*
X146480943Y-99385874D01*
X146646667Y-99389630D01*
X146809838Y-99424050D01*
X146965935Y-99489723D01*
X147110433Y-99587235D01*
X147155131Y-99626813D01*
X147268888Y-99750703D01*
X147351782Y-99881124D01*
X147408644Y-100027315D01*
X147440313Y-100172088D01*
X147448131Y-100334860D01*
X147422062Y-100498440D01*
X147364755Y-100657298D01*
X147278856Y-100805906D01*
X147167014Y-100938735D01*
X147031877Y-101050256D01*
X147014117Y-101062011D01*
X146957850Y-101100508D01*
X146915077Y-101133863D01*
X146894628Y-101155160D01*
X146894331Y-101155833D01*
X146898721Y-101178871D01*
X146916124Y-101231157D01*
X146944732Y-101308390D01*
X146982735Y-101406268D01*
X147028326Y-101520491D01*
X147079697Y-101646758D01*
X147135038Y-101780767D01*
X147192542Y-101918218D01*
X147250399Y-102054808D01*
X147306802Y-102186237D01*
X147359942Y-102308205D01*
X147408010Y-102416409D01*
X147449199Y-102506549D01*
X147481699Y-102574323D01*
X147503703Y-102615430D01*
X147512564Y-102626226D01*
X147539640Y-102617819D01*
X147590303Y-102595272D01*
X147655817Y-102562613D01*
X147691841Y-102543520D01*
X147844832Y-102460800D01*
X148027088Y-102584075D01*
X148120125Y-102647228D01*
X148221985Y-102716727D01*
X148317438Y-102782165D01*
X148365250Y-102815117D01*
X148432495Y-102860273D01*
X148489436Y-102896057D01*
X148528646Y-102917938D01*
X148541381Y-102922563D01*
X148559917Y-102910085D01*
X148600941Y-102875252D01*
X148660475Y-102821678D01*
X148734542Y-102752983D01*
X148819165Y-102672781D01*
X148872685Y-102621286D01*
X148966319Y-102529286D01*
X149047241Y-102446999D01*
X149112177Y-102377945D01*
X149157858Y-102325644D01*
X149181011Y-102293616D01*
X149183232Y-102287116D01*
X149172924Y-102262394D01*
X149144439Y-102212405D01*
X149100937Y-102142212D01*
X149045577Y-102056875D01*
X148981520Y-101961456D01*
X148963303Y-101934854D01*
X148896927Y-101838167D01*
X148837378Y-101751117D01*
X148787984Y-101678595D01*
X148752075Y-101625493D01*
X148732981Y-101596703D01*
X148731136Y-101593726D01*
X148733895Y-101570782D01*
X148748538Y-101520336D01*
X148772513Y-101449041D01*
X148803266Y-101363547D01*
X148838244Y-101270507D01*
X148874893Y-101176574D01*
X148910661Y-101088399D01*
X148942994Y-101012634D01*
X148969338Y-100955931D01*
X148987142Y-100924943D01*
X148988407Y-100923457D01*
X148999294Y-100914601D01*
X149017682Y-100905843D01*
X149047606Y-100896277D01*
X149093103Y-100884996D01*
X149158209Y-100871093D01*
X149246961Y-100853663D01*
X149363393Y-100831798D01*
X149511542Y-100804591D01*
X149543618Y-100798741D01*
X149638686Y-100780374D01*
X149721565Y-100762405D01*
X149784930Y-100746569D01*
X149821458Y-100734600D01*
X149826356Y-100731810D01*
X149834427Y-100707072D01*
X149840987Y-100651790D01*
X149846033Y-100572389D01*
X149849559Y-100475296D01*
X149851561Y-100366938D01*
X149852036Y-100253740D01*
X149850977Y-100142128D01*
X149848382Y-100038529D01*
X149844246Y-99949368D01*
X149838563Y-99881072D01*
X149831331Y-99840066D01*
X149826971Y-99831674D01*
X149802698Y-99823208D01*
X149747426Y-99809435D01*
X149666662Y-99791550D01*
X149565912Y-99770748D01*
X149450683Y-99748223D01*
X149387902Y-99736418D01*
X149268787Y-99714151D01*
X149162565Y-99693979D01*
X149074427Y-99676915D01*
X149009566Y-99663969D01*
X148973174Y-99656155D01*
X148967184Y-99654422D01*
X148957061Y-99634890D01*
X148935662Y-99587843D01*
X148905839Y-99520003D01*
X148870445Y-99438091D01*
X148832332Y-99348828D01*
X148794353Y-99258935D01*
X148759360Y-99175135D01*
X148730206Y-99104147D01*
X148709743Y-99052694D01*
X148700823Y-99027497D01*
X148700657Y-99026396D01*
X148710769Y-99006519D01*
X148739117Y-98960777D01*
X148782723Y-98893717D01*
X148838606Y-98809884D01*
X148903787Y-98713826D01*
X148941679Y-98658650D01*
X149010725Y-98557481D01*
X149072050Y-98465630D01*
X149122663Y-98387744D01*
X149159571Y-98328469D01*
X149179782Y-98292451D01*
X149182701Y-98284377D01*
X149170153Y-98265584D01*
X149135463Y-98225457D01*
X149083063Y-98168493D01*
X149017384Y-98099185D01*
X148942856Y-98022031D01*
X148863913Y-97941525D01*
X148784983Y-97862163D01*
X148710500Y-97788440D01*
X148644894Y-97724852D01*
X148592596Y-97675894D01*
X148558039Y-97646061D01*
X148546478Y-97638942D01*
X148527654Y-97648953D01*
X148482631Y-97677078D01*
X148415787Y-97720454D01*
X148331499Y-97776218D01*
X148234144Y-97841506D01*
X148160707Y-97891246D01*
X147789667Y-98143551D01*
X147171095Y-97888555D01*
X147087275Y-97443931D01*
X147003454Y-96999307D01*
X146078006Y-96999307D01*
X145994186Y-97443931D01*
G37*
X145994186Y-97443931D02*
X145910365Y-97888555D01*
X145601080Y-98016053D01*
X145291794Y-98143551D01*
X144920754Y-97891246D01*
X144816843Y-97820996D01*
X144722913Y-97758272D01*
X144643348Y-97705938D01*
X144582530Y-97666857D01*
X144544843Y-97643893D01*
X144534579Y-97638942D01*
X144516090Y-97651676D01*
X144476580Y-97686882D01*
X144420478Y-97740062D01*
X144352213Y-97806718D01*
X144276214Y-97882354D01*
X144196908Y-97962472D01*
X144118725Y-98042574D01*
X144046093Y-98118164D01*
X143983441Y-98184745D01*
X143935197Y-98237818D01*
X143905790Y-98272887D01*
X143898759Y-98284623D01*
X143908877Y-98306260D01*
X143937241Y-98353662D01*
X143980871Y-98422193D01*
X144036782Y-98507215D01*
X144101994Y-98604093D01*
X144139781Y-98659350D01*
X144208657Y-98760248D01*
X144269860Y-98851299D01*
X144320422Y-98927970D01*
X144357372Y-98985728D01*
X144377742Y-99020043D01*
X144380803Y-99027254D01*
X144373864Y-99047748D01*
X144354949Y-99095513D01*
X144326913Y-99163832D01*
X144292609Y-99245989D01*
X144254891Y-99335270D01*
X144216613Y-99424958D01*
X144180630Y-99508338D01*
X144149794Y-99578694D01*
X144126961Y-99629310D01*
X144114983Y-99653471D01*
X144114276Y-99654422D01*
X144095469Y-99659036D01*
X144045382Y-99669328D01*
X143969207Y-99684287D01*
X143872135Y-99702901D01*
X143759357Y-99724159D01*
X143693558Y-99736418D01*
X143573050Y-99759362D01*
X143464203Y-99781195D01*
X143372524Y-99800722D01*
X143303519Y-99816748D01*
X143262696Y-99828079D01*
X143254489Y-99831674D01*
X143246452Y-99856006D01*
X143239967Y-99910959D01*
X143235030Y-99990108D01*
X143231636Y-100087026D01*
X143229782Y-100195287D01*
X143229462Y-100308465D01*
X143230673Y-100420135D01*
X143233410Y-100523868D01*
X143237669Y-100613241D01*
X143243445Y-100681826D01*
X143250733Y-100723197D01*
X143255105Y-100731810D01*
X143281236Y-100742133D01*
X143336607Y-100756892D01*
X143413893Y-100774352D01*
X143505770Y-100792780D01*
X143537842Y-100798741D01*
X143692476Y-100827066D01*
X143814625Y-100849876D01*
X143908327Y-100868080D01*
X143977616Y-100882583D01*
X144026529Y-100894292D01*
X144059103Y-100904115D01*
X144079372Y-100912956D01*
X144091374Y-100921724D01*
X144093053Y-100923457D01*
X144109816Y-100951371D01*
X144135386Y-101005695D01*
X144167212Y-101079777D01*
X144202740Y-101166965D01*
X144239417Y-101260608D01*
X144274689Y-101354052D01*
X144306004Y-101440647D01*
X144330807Y-101513740D01*
X144346546Y-101566678D01*
X144350668Y-101592811D01*
X144350324Y-101593726D01*
X144336359Y-101615086D01*
X144304678Y-101662084D01*
X144258609Y-101729827D01*
X144201482Y-101813423D01*
X144136627Y-101907982D01*
X144118157Y-101934854D01*
X144052301Y-102032275D01*
X143994350Y-102121163D01*
X143947462Y-102196412D01*
X143914793Y-102252920D01*
X143899500Y-102285581D01*
X143898759Y-102289593D01*
X143911608Y-102310684D01*
X143947112Y-102352464D01*
X144000707Y-102410445D01*
X144067829Y-102480135D01*
X144143913Y-102557045D01*
X144224396Y-102636683D01*
X144304713Y-102714561D01*
X144380301Y-102786186D01*
X144446595Y-102847070D01*
X144499031Y-102892721D01*
X144533045Y-102918650D01*
X144542455Y-102922883D01*
X144564357Y-102912912D01*
X144609200Y-102886020D01*
X144669679Y-102846736D01*
X144716211Y-102815117D01*
X144800525Y-102757098D01*
X144900374Y-102688784D01*
X145000527Y-102620579D01*
X145054373Y-102584075D01*
X145236629Y-102460800D01*
X145389619Y-102543520D01*
X145459318Y-102579759D01*
X145518586Y-102607926D01*
X145558689Y-102623991D01*
X145568897Y-102626226D01*
X145581171Y-102609722D01*
X145605387Y-102563082D01*
X145639737Y-102490609D01*
X145682412Y-102396606D01*
X145731606Y-102285374D01*
X145785510Y-102161215D01*
X145842316Y-102028432D01*
X145900218Y-101891327D01*
X145957407Y-101754202D01*
X146012076Y-101621358D01*
X146062416Y-101497098D01*
X146106620Y-101385725D01*
X146142881Y-101291539D01*
X146169391Y-101218844D01*
X146184342Y-101171941D01*
X146186746Y-101155833D01*
X146167689Y-101135286D01*
X146125964Y-101101933D01*
X146070294Y-101062702D01*
X146065622Y-101059599D01*
X145921736Y-100944423D01*
X145805717Y-100810053D01*
X145718570Y-100660784D01*
X145661301Y-100500913D01*
X145634914Y-100334737D01*
X145640415Y-100166552D01*
X145678810Y-100000655D01*
X145751105Y-99841342D01*
X145772374Y-99806487D01*
X145883004Y-99665737D01*
X146013698Y-99552714D01*
X146159936Y-99468003D01*
X146317192Y-99412194D01*
X146480943Y-99385874D01*
X146646667Y-99389630D01*
X146809838Y-99424050D01*
X146965935Y-99489723D01*
X147110433Y-99587235D01*
X147155131Y-99626813D01*
X147268888Y-99750703D01*
X147351782Y-99881124D01*
X147408644Y-100027315D01*
X147440313Y-100172088D01*
X147448131Y-100334860D01*
X147422062Y-100498440D01*
X147364755Y-100657298D01*
X147278856Y-100805906D01*
X147167014Y-100938735D01*
X147031877Y-101050256D01*
X147014117Y-101062011D01*
X146957850Y-101100508D01*
X146915077Y-101133863D01*
X146894628Y-101155160D01*
X146894331Y-101155833D01*
X146898721Y-101178871D01*
X146916124Y-101231157D01*
X146944732Y-101308390D01*
X146982735Y-101406268D01*
X147028326Y-101520491D01*
X147079697Y-101646758D01*
X147135038Y-101780767D01*
X147192542Y-101918218D01*
X147250399Y-102054808D01*
X147306802Y-102186237D01*
X147359942Y-102308205D01*
X147408010Y-102416409D01*
X147449199Y-102506549D01*
X147481699Y-102574323D01*
X147503703Y-102615430D01*
X147512564Y-102626226D01*
X147539640Y-102617819D01*
X147590303Y-102595272D01*
X147655817Y-102562613D01*
X147691841Y-102543520D01*
X147844832Y-102460800D01*
X148027088Y-102584075D01*
X148120125Y-102647228D01*
X148221985Y-102716727D01*
X148317438Y-102782165D01*
X148365250Y-102815117D01*
X148432495Y-102860273D01*
X148489436Y-102896057D01*
X148528646Y-102917938D01*
X148541381Y-102922563D01*
X148559917Y-102910085D01*
X148600941Y-102875252D01*
X148660475Y-102821678D01*
X148734542Y-102752983D01*
X148819165Y-102672781D01*
X148872685Y-102621286D01*
X148966319Y-102529286D01*
X149047241Y-102446999D01*
X149112177Y-102377945D01*
X149157858Y-102325644D01*
X149181011Y-102293616D01*
X149183232Y-102287116D01*
X149172924Y-102262394D01*
X149144439Y-102212405D01*
X149100937Y-102142212D01*
X149045577Y-102056875D01*
X148981520Y-101961456D01*
X148963303Y-101934854D01*
X148896927Y-101838167D01*
X148837378Y-101751117D01*
X148787984Y-101678595D01*
X148752075Y-101625493D01*
X148732981Y-101596703D01*
X148731136Y-101593726D01*
X148733895Y-101570782D01*
X148748538Y-101520336D01*
X148772513Y-101449041D01*
X148803266Y-101363547D01*
X148838244Y-101270507D01*
X148874893Y-101176574D01*
X148910661Y-101088399D01*
X148942994Y-101012634D01*
X148969338Y-100955931D01*
X148987142Y-100924943D01*
X148988407Y-100923457D01*
X148999294Y-100914601D01*
X149017682Y-100905843D01*
X149047606Y-100896277D01*
X149093103Y-100884996D01*
X149158209Y-100871093D01*
X149246961Y-100853663D01*
X149363393Y-100831798D01*
X149511542Y-100804591D01*
X149543618Y-100798741D01*
X149638686Y-100780374D01*
X149721565Y-100762405D01*
X149784930Y-100746569D01*
X149821458Y-100734600D01*
X149826356Y-100731810D01*
X149834427Y-100707072D01*
X149840987Y-100651790D01*
X149846033Y-100572389D01*
X149849559Y-100475296D01*
X149851561Y-100366938D01*
X149852036Y-100253740D01*
X149850977Y-100142128D01*
X149848382Y-100038529D01*
X149844246Y-99949368D01*
X149838563Y-99881072D01*
X149831331Y-99840066D01*
X149826971Y-99831674D01*
X149802698Y-99823208D01*
X149747426Y-99809435D01*
X149666662Y-99791550D01*
X149565912Y-99770748D01*
X149450683Y-99748223D01*
X149387902Y-99736418D01*
X149268787Y-99714151D01*
X149162565Y-99693979D01*
X149074427Y-99676915D01*
X149009566Y-99663969D01*
X148973174Y-99656155D01*
X148967184Y-99654422D01*
X148957061Y-99634890D01*
X148935662Y-99587843D01*
X148905839Y-99520003D01*
X148870445Y-99438091D01*
X148832332Y-99348828D01*
X148794353Y-99258935D01*
X148759360Y-99175135D01*
X148730206Y-99104147D01*
X148709743Y-99052694D01*
X148700823Y-99027497D01*
X148700657Y-99026396D01*
X148710769Y-99006519D01*
X148739117Y-98960777D01*
X148782723Y-98893717D01*
X148838606Y-98809884D01*
X148903787Y-98713826D01*
X148941679Y-98658650D01*
X149010725Y-98557481D01*
X149072050Y-98465630D01*
X149122663Y-98387744D01*
X149159571Y-98328469D01*
X149179782Y-98292451D01*
X149182701Y-98284377D01*
X149170153Y-98265584D01*
X149135463Y-98225457D01*
X149083063Y-98168493D01*
X149017384Y-98099185D01*
X148942856Y-98022031D01*
X148863913Y-97941525D01*
X148784983Y-97862163D01*
X148710500Y-97788440D01*
X148644894Y-97724852D01*
X148592596Y-97675894D01*
X148558039Y-97646061D01*
X148546478Y-97638942D01*
X148527654Y-97648953D01*
X148482631Y-97677078D01*
X148415787Y-97720454D01*
X148331499Y-97776218D01*
X148234144Y-97841506D01*
X148160707Y-97891246D01*
X147789667Y-98143551D01*
X147171095Y-97888555D01*
X147087275Y-97443931D01*
X147003454Y-96999307D01*
X146078006Y-96999307D01*
X145994186Y-97443931D01*
D16*
X75200000Y-97460000D03*
X75200000Y-102540000D03*
X126400000Y-97460000D03*
X126400000Y-102540000D03*
X134020000Y-100000000D03*
X67580000Y-100000000D03*
D17*
X97460000Y-105610000D03*
X94920000Y-105610000D03*
X92380000Y-105610000D03*
X89840000Y-105610000D03*
X87300000Y-105610000D03*
X84760000Y-105610000D03*
X82220000Y-105610000D03*
D18*
X79680000Y-105610000D03*
X112690000Y-105610000D03*
D17*
X115230000Y-105610000D03*
X117770000Y-105610000D03*
X120310000Y-105610000D03*
D19*
X59885000Y-102705000D03*
X59885000Y-97245000D03*
D20*
X62885000Y-102395000D03*
X62885000Y-97555000D03*
D21*
X139150000Y-102675000D03*
X139150000Y-97375000D03*
D17*
X110140000Y-95450000D03*
X112680000Y-95450000D03*
X115220000Y-95450000D03*
X117760000Y-95450000D03*
D18*
X120300000Y-95450000D03*
X79660000Y-95440000D03*
D17*
X82200000Y-95440000D03*
X84740000Y-95440000D03*
X87280000Y-95440000D03*
X89820000Y-95440000D03*
M02*
