G04 #@! TF.GenerationSoftware,KiCad,Pcbnew,(5.1.5-0-10_14)*
G04 #@! TF.CreationDate,2020-01-18T17:07:03-08:00*
G04 #@! TF.ProjectId,STM32L0xx_18650,53544d33-324c-4307-9878-5f3138363530,rev?*
G04 #@! TF.SameCoordinates,Original*
G04 #@! TF.FileFunction,Profile,NP*
%FSLAX46Y46*%
G04 Gerber Fmt 4.6, Leading zero omitted, Abs format (unit mm)*
G04 Created by KiCad (PCBNEW (5.1.5-0-10_14)) date 2020-01-18 17:07:03*
%MOMM*%
%LPD*%
G04 APERTURE LIST*
%ADD10C,0.150000*%
G04 APERTURE END LIST*
D10*
X140000000Y-108000000D02*
X155650000Y-108000000D01*
X140100000Y-92000000D02*
X155650000Y-92000000D01*
X140100000Y-92000000D02*
G75*
G02X137900000Y-92000000I-1100000J0D01*
G01*
X138000000Y-108000000D02*
G75*
G02X140000000Y-108000000I1000000J0D01*
G01*
X157250000Y-104000000D02*
G75*
G03X157250000Y-104000000I-500000J0D01*
G01*
X157250000Y-96000000D02*
G75*
G03X157250000Y-96000000I-500000J0D01*
G01*
X64600000Y-108000000D02*
X60100000Y-108000000D01*
X64600000Y-108000000D02*
G75*
G02X66800000Y-108000000I1100000J0D01*
G01*
X64600000Y-92000000D02*
X60100000Y-92000000D01*
X66800000Y-92000000D02*
G75*
G02X64600000Y-92000000I-1100000J0D01*
G01*
X157850000Y-92000000D02*
X159749999Y-91999845D01*
X157850000Y-108000000D02*
X159700001Y-107999999D01*
X159749999Y-91999845D02*
G75*
G02X159700001Y-107999999I1J-8000155D01*
G01*
X163750000Y-100000000D02*
G75*
G03X163750000Y-100000000I-3000000J0D01*
G01*
X155650000Y-108000000D02*
G75*
G02X157850000Y-108000000I1100000J0D01*
G01*
X157850000Y-92000000D02*
G75*
G02X155650000Y-92000000I-1100000J0D01*
G01*
X60100000Y-108000000D02*
G75*
G02X58100000Y-106000000I0J2000000D01*
G01*
X58100000Y-94000000D02*
G75*
G02X60100000Y-92000000I2000000J0D01*
G01*
X58100000Y-94000000D02*
X58100000Y-106000000D01*
X66800000Y-108000000D02*
X138000000Y-108000000D01*
X66800000Y-92000000D02*
X137900000Y-92000000D01*
M02*
