M48
; DRILL file {KiCad (5.1.5-0-10_14)} date Saturday, January 18, 2020 at 05:03:50 PM
; FORMAT={-:-/ absolute / metric / decimal}
; #@! TF.CreationDate,2020-01-18T17:03:50-08:00
; #@! TF.GenerationSoftware,Kicad,Pcbnew,(5.1.5-0-10_14)
FMAT,2
METRIC
T1C0.254
T2C0.650
T3C0.700
T4C1.000
T5C1.200
T6C1.780
%
G90
G05
T1
X60.65Y-107.475
X64.125Y-93.475
X64.15Y-94.525
X69.325Y-96.5
X74.125Y-93.375
X78.01Y-98.755
X78.675Y-99.525
X79.158Y-100.108
X79.2Y-99.1
X79.225Y-101.775
X79.63Y-102.655
X81.35Y-103.75
X82.698Y-103.685
X83.375Y-103.744
X84.95Y-102.85
X85.965Y-99.044
X86.046Y-97.732
X86.068Y-98.392
X86.205Y-99.66
X87.906Y-102.094
X91.281Y-93.783
X91.325Y-102.025
X94.225Y-102.025
X94.834Y-93.783
X97.225Y-102.125
X99.0Y-93.783
X100.275Y-102.15
X105.05Y-93.025
X107.4Y-106.725
X108.8Y-94.175
X119.375Y-99.375
X119.4Y-94.125
X131.725Y-97.3
T4
X75.59Y-95.445
X78.13Y-95.445
X80.67Y-95.445
X83.21Y-95.445
X85.75Y-95.445
X75.62Y-105.61
X78.16Y-105.61
X80.7Y-105.61
X83.24Y-105.61
X85.78Y-105.61
X88.32Y-105.61
X90.86Y-105.61
X93.4Y-105.61
X95.94Y-105.61
X98.48Y-105.61
X101.02Y-105.61
X103.56Y-105.61
X90.85Y-95.435
X93.39Y-95.435
X95.93Y-95.435
X98.47Y-95.435
X101.01Y-95.435
T5
X116.275Y-97.35
X116.275Y-102.65
T6
X66.145Y-99.975
X73.545Y-99.975
X104.745Y-99.975
X112.145Y-99.975
T2
G00X62.685Y-97.555
M15
G01X63.085Y-97.555
M16
G05
G00X62.685Y-102.395
M15
G01X63.085Y-102.395
M16
G05
T3
G00X59.635Y-97.245
M15
G01X60.135Y-97.245
M16
G05
G00X59.635Y-102.705
M15
G01X60.135Y-102.705
M16
G05
T0
M30
