G04 #@! TF.GenerationSoftware,KiCad,Pcbnew,(5.1.5-0-10_14)*
G04 #@! TF.CreationDate,2020-02-03T09:02:30-08:00*
G04 #@! TF.ProjectId,10440,31303434-302e-46b6-9963-61645f706362,rev?*
G04 #@! TF.SameCoordinates,Original*
G04 #@! TF.FileFunction,Soldermask,Top*
G04 #@! TF.FilePolarity,Negative*
%FSLAX46Y46*%
G04 Gerber Fmt 4.6, Leading zero omitted, Abs format (unit mm)*
G04 Created by KiCad (PCBNEW (5.1.5-0-10_14)) date 2020-02-03 09:02:30*
%MOMM*%
%LPD*%
G04 APERTURE LIST*
%ADD10O,1.801600X1.801600*%
%ADD11R,1.801600X1.801600*%
%ADD12R,0.801600X0.551600*%
%ADD13C,2.901600*%
%ADD14C,0.100000*%
%ADD15C,2.501600*%
%ADD16R,0.551600X0.801600*%
%ADD17R,1.190000X0.740000*%
%ADD18R,1.001600X0.901600*%
%ADD19R,1.601600X2.101600*%
%ADD20R,1.751600X0.501600*%
%ADD21O,1.601600X1.201600*%
%ADD22O,1.801600X1.451600*%
%ADD23R,2.601600X4.501600*%
%ADD24R,1.701600X2.281600*%
%ADD25R,1.101600X1.101600*%
G04 APERTURE END LIST*
D10*
X90830000Y-93645000D03*
X93370000Y-93645000D03*
X95910000Y-93645000D03*
X98450000Y-93645000D03*
D11*
X100990000Y-93645000D03*
D10*
X73460000Y-93645000D03*
X76000000Y-93645000D03*
X78540000Y-93645000D03*
X81080000Y-93645000D03*
D11*
X83620000Y-93645000D03*
D10*
X101410000Y-106345000D03*
X98870000Y-106345000D03*
X96330000Y-106345000D03*
X93790000Y-106345000D03*
X91250000Y-106345000D03*
X88710000Y-106345000D03*
X86170000Y-106345000D03*
X83630000Y-106345000D03*
X81090000Y-106345000D03*
X78550000Y-106345000D03*
X76010000Y-106345000D03*
D11*
X73470000Y-106345000D03*
D12*
X77980000Y-100185000D03*
X75980000Y-100835000D03*
X75980000Y-99535000D03*
D13*
X104745000Y-99975000D03*
X112145000Y-99975000D03*
X66145000Y-99975000D03*
X73545000Y-99975000D03*
D14*
G36*
X86346516Y-102954623D02*
G01*
X86355048Y-102955889D01*
X86363416Y-102957985D01*
X86371538Y-102960891D01*
X86379336Y-102964579D01*
X86386735Y-102969014D01*
X86393663Y-102974152D01*
X86400055Y-102979945D01*
X86405848Y-102986337D01*
X86410986Y-102993265D01*
X86415421Y-103000664D01*
X86419109Y-103008462D01*
X86422015Y-103016584D01*
X86424111Y-103024952D01*
X86425377Y-103033484D01*
X86425800Y-103042100D01*
X86425800Y-103842900D01*
X86425377Y-103851516D01*
X86424111Y-103860048D01*
X86422015Y-103868416D01*
X86419109Y-103876538D01*
X86415421Y-103884336D01*
X86410986Y-103891735D01*
X86405848Y-103898663D01*
X86400055Y-103905055D01*
X86393663Y-103910848D01*
X86386735Y-103915986D01*
X86379336Y-103920421D01*
X86371538Y-103924109D01*
X86363416Y-103927015D01*
X86355048Y-103929111D01*
X86346516Y-103930377D01*
X86337900Y-103930800D01*
X86162100Y-103930800D01*
X86153484Y-103930377D01*
X86144952Y-103929111D01*
X86136584Y-103927015D01*
X86128462Y-103924109D01*
X86120664Y-103920421D01*
X86113265Y-103915986D01*
X86106337Y-103910848D01*
X86099945Y-103905055D01*
X86094152Y-103898663D01*
X86089014Y-103891735D01*
X86084579Y-103884336D01*
X86080891Y-103876538D01*
X86077985Y-103868416D01*
X86075889Y-103860048D01*
X86074623Y-103851516D01*
X86074200Y-103842900D01*
X86074200Y-103042100D01*
X86074623Y-103033484D01*
X86075889Y-103024952D01*
X86077985Y-103016584D01*
X86080891Y-103008462D01*
X86084579Y-103000664D01*
X86089014Y-102993265D01*
X86094152Y-102986337D01*
X86099945Y-102979945D01*
X86106337Y-102974152D01*
X86113265Y-102969014D01*
X86120664Y-102964579D01*
X86128462Y-102960891D01*
X86136584Y-102957985D01*
X86144952Y-102955889D01*
X86153484Y-102954623D01*
X86162100Y-102954200D01*
X86337900Y-102954200D01*
X86346516Y-102954623D01*
G37*
G36*
X85846516Y-102954623D02*
G01*
X85855048Y-102955889D01*
X85863416Y-102957985D01*
X85871538Y-102960891D01*
X85879336Y-102964579D01*
X85886735Y-102969014D01*
X85893663Y-102974152D01*
X85900055Y-102979945D01*
X85905848Y-102986337D01*
X85910986Y-102993265D01*
X85915421Y-103000664D01*
X85919109Y-103008462D01*
X85922015Y-103016584D01*
X85924111Y-103024952D01*
X85925377Y-103033484D01*
X85925800Y-103042100D01*
X85925800Y-103842900D01*
X85925377Y-103851516D01*
X85924111Y-103860048D01*
X85922015Y-103868416D01*
X85919109Y-103876538D01*
X85915421Y-103884336D01*
X85910986Y-103891735D01*
X85905848Y-103898663D01*
X85900055Y-103905055D01*
X85893663Y-103910848D01*
X85886735Y-103915986D01*
X85879336Y-103920421D01*
X85871538Y-103924109D01*
X85863416Y-103927015D01*
X85855048Y-103929111D01*
X85846516Y-103930377D01*
X85837900Y-103930800D01*
X85662100Y-103930800D01*
X85653484Y-103930377D01*
X85644952Y-103929111D01*
X85636584Y-103927015D01*
X85628462Y-103924109D01*
X85620664Y-103920421D01*
X85613265Y-103915986D01*
X85606337Y-103910848D01*
X85599945Y-103905055D01*
X85594152Y-103898663D01*
X85589014Y-103891735D01*
X85584579Y-103884336D01*
X85580891Y-103876538D01*
X85577985Y-103868416D01*
X85575889Y-103860048D01*
X85574623Y-103851516D01*
X85574200Y-103842900D01*
X85574200Y-103042100D01*
X85574623Y-103033484D01*
X85575889Y-103024952D01*
X85577985Y-103016584D01*
X85580891Y-103008462D01*
X85584579Y-103000664D01*
X85589014Y-102993265D01*
X85594152Y-102986337D01*
X85599945Y-102979945D01*
X85606337Y-102974152D01*
X85613265Y-102969014D01*
X85620664Y-102964579D01*
X85628462Y-102960891D01*
X85636584Y-102957985D01*
X85644952Y-102955889D01*
X85653484Y-102954623D01*
X85662100Y-102954200D01*
X85837900Y-102954200D01*
X85846516Y-102954623D01*
G37*
G36*
X85346516Y-102954623D02*
G01*
X85355048Y-102955889D01*
X85363416Y-102957985D01*
X85371538Y-102960891D01*
X85379336Y-102964579D01*
X85386735Y-102969014D01*
X85393663Y-102974152D01*
X85400055Y-102979945D01*
X85405848Y-102986337D01*
X85410986Y-102993265D01*
X85415421Y-103000664D01*
X85419109Y-103008462D01*
X85422015Y-103016584D01*
X85424111Y-103024952D01*
X85425377Y-103033484D01*
X85425800Y-103042100D01*
X85425800Y-103842900D01*
X85425377Y-103851516D01*
X85424111Y-103860048D01*
X85422015Y-103868416D01*
X85419109Y-103876538D01*
X85415421Y-103884336D01*
X85410986Y-103891735D01*
X85405848Y-103898663D01*
X85400055Y-103905055D01*
X85393663Y-103910848D01*
X85386735Y-103915986D01*
X85379336Y-103920421D01*
X85371538Y-103924109D01*
X85363416Y-103927015D01*
X85355048Y-103929111D01*
X85346516Y-103930377D01*
X85337900Y-103930800D01*
X85162100Y-103930800D01*
X85153484Y-103930377D01*
X85144952Y-103929111D01*
X85136584Y-103927015D01*
X85128462Y-103924109D01*
X85120664Y-103920421D01*
X85113265Y-103915986D01*
X85106337Y-103910848D01*
X85099945Y-103905055D01*
X85094152Y-103898663D01*
X85089014Y-103891735D01*
X85084579Y-103884336D01*
X85080891Y-103876538D01*
X85077985Y-103868416D01*
X85075889Y-103860048D01*
X85074623Y-103851516D01*
X85074200Y-103842900D01*
X85074200Y-103042100D01*
X85074623Y-103033484D01*
X85075889Y-103024952D01*
X85077985Y-103016584D01*
X85080891Y-103008462D01*
X85084579Y-103000664D01*
X85089014Y-102993265D01*
X85094152Y-102986337D01*
X85099945Y-102979945D01*
X85106337Y-102974152D01*
X85113265Y-102969014D01*
X85120664Y-102964579D01*
X85128462Y-102960891D01*
X85136584Y-102957985D01*
X85144952Y-102955889D01*
X85153484Y-102954623D01*
X85162100Y-102954200D01*
X85337900Y-102954200D01*
X85346516Y-102954623D01*
G37*
G36*
X84846516Y-102954623D02*
G01*
X84855048Y-102955889D01*
X84863416Y-102957985D01*
X84871538Y-102960891D01*
X84879336Y-102964579D01*
X84886735Y-102969014D01*
X84893663Y-102974152D01*
X84900055Y-102979945D01*
X84905848Y-102986337D01*
X84910986Y-102993265D01*
X84915421Y-103000664D01*
X84919109Y-103008462D01*
X84922015Y-103016584D01*
X84924111Y-103024952D01*
X84925377Y-103033484D01*
X84925800Y-103042100D01*
X84925800Y-103842900D01*
X84925377Y-103851516D01*
X84924111Y-103860048D01*
X84922015Y-103868416D01*
X84919109Y-103876538D01*
X84915421Y-103884336D01*
X84910986Y-103891735D01*
X84905848Y-103898663D01*
X84900055Y-103905055D01*
X84893663Y-103910848D01*
X84886735Y-103915986D01*
X84879336Y-103920421D01*
X84871538Y-103924109D01*
X84863416Y-103927015D01*
X84855048Y-103929111D01*
X84846516Y-103930377D01*
X84837900Y-103930800D01*
X84662100Y-103930800D01*
X84653484Y-103930377D01*
X84644952Y-103929111D01*
X84636584Y-103927015D01*
X84628462Y-103924109D01*
X84620664Y-103920421D01*
X84613265Y-103915986D01*
X84606337Y-103910848D01*
X84599945Y-103905055D01*
X84594152Y-103898663D01*
X84589014Y-103891735D01*
X84584579Y-103884336D01*
X84580891Y-103876538D01*
X84577985Y-103868416D01*
X84575889Y-103860048D01*
X84574623Y-103851516D01*
X84574200Y-103842900D01*
X84574200Y-103042100D01*
X84574623Y-103033484D01*
X84575889Y-103024952D01*
X84577985Y-103016584D01*
X84580891Y-103008462D01*
X84584579Y-103000664D01*
X84589014Y-102993265D01*
X84594152Y-102986337D01*
X84599945Y-102979945D01*
X84606337Y-102974152D01*
X84613265Y-102969014D01*
X84620664Y-102964579D01*
X84628462Y-102960891D01*
X84636584Y-102957985D01*
X84644952Y-102955889D01*
X84653484Y-102954623D01*
X84662100Y-102954200D01*
X84837900Y-102954200D01*
X84846516Y-102954623D01*
G37*
G36*
X84346516Y-102954623D02*
G01*
X84355048Y-102955889D01*
X84363416Y-102957985D01*
X84371538Y-102960891D01*
X84379336Y-102964579D01*
X84386735Y-102969014D01*
X84393663Y-102974152D01*
X84400055Y-102979945D01*
X84405848Y-102986337D01*
X84410986Y-102993265D01*
X84415421Y-103000664D01*
X84419109Y-103008462D01*
X84422015Y-103016584D01*
X84424111Y-103024952D01*
X84425377Y-103033484D01*
X84425800Y-103042100D01*
X84425800Y-103842900D01*
X84425377Y-103851516D01*
X84424111Y-103860048D01*
X84422015Y-103868416D01*
X84419109Y-103876538D01*
X84415421Y-103884336D01*
X84410986Y-103891735D01*
X84405848Y-103898663D01*
X84400055Y-103905055D01*
X84393663Y-103910848D01*
X84386735Y-103915986D01*
X84379336Y-103920421D01*
X84371538Y-103924109D01*
X84363416Y-103927015D01*
X84355048Y-103929111D01*
X84346516Y-103930377D01*
X84337900Y-103930800D01*
X84162100Y-103930800D01*
X84153484Y-103930377D01*
X84144952Y-103929111D01*
X84136584Y-103927015D01*
X84128462Y-103924109D01*
X84120664Y-103920421D01*
X84113265Y-103915986D01*
X84106337Y-103910848D01*
X84099945Y-103905055D01*
X84094152Y-103898663D01*
X84089014Y-103891735D01*
X84084579Y-103884336D01*
X84080891Y-103876538D01*
X84077985Y-103868416D01*
X84075889Y-103860048D01*
X84074623Y-103851516D01*
X84074200Y-103842900D01*
X84074200Y-103042100D01*
X84074623Y-103033484D01*
X84075889Y-103024952D01*
X84077985Y-103016584D01*
X84080891Y-103008462D01*
X84084579Y-103000664D01*
X84089014Y-102993265D01*
X84094152Y-102986337D01*
X84099945Y-102979945D01*
X84106337Y-102974152D01*
X84113265Y-102969014D01*
X84120664Y-102964579D01*
X84128462Y-102960891D01*
X84136584Y-102957985D01*
X84144952Y-102955889D01*
X84153484Y-102954623D01*
X84162100Y-102954200D01*
X84337900Y-102954200D01*
X84346516Y-102954623D01*
G37*
G36*
X83846516Y-102954623D02*
G01*
X83855048Y-102955889D01*
X83863416Y-102957985D01*
X83871538Y-102960891D01*
X83879336Y-102964579D01*
X83886735Y-102969014D01*
X83893663Y-102974152D01*
X83900055Y-102979945D01*
X83905848Y-102986337D01*
X83910986Y-102993265D01*
X83915421Y-103000664D01*
X83919109Y-103008462D01*
X83922015Y-103016584D01*
X83924111Y-103024952D01*
X83925377Y-103033484D01*
X83925800Y-103042100D01*
X83925800Y-103842900D01*
X83925377Y-103851516D01*
X83924111Y-103860048D01*
X83922015Y-103868416D01*
X83919109Y-103876538D01*
X83915421Y-103884336D01*
X83910986Y-103891735D01*
X83905848Y-103898663D01*
X83900055Y-103905055D01*
X83893663Y-103910848D01*
X83886735Y-103915986D01*
X83879336Y-103920421D01*
X83871538Y-103924109D01*
X83863416Y-103927015D01*
X83855048Y-103929111D01*
X83846516Y-103930377D01*
X83837900Y-103930800D01*
X83662100Y-103930800D01*
X83653484Y-103930377D01*
X83644952Y-103929111D01*
X83636584Y-103927015D01*
X83628462Y-103924109D01*
X83620664Y-103920421D01*
X83613265Y-103915986D01*
X83606337Y-103910848D01*
X83599945Y-103905055D01*
X83594152Y-103898663D01*
X83589014Y-103891735D01*
X83584579Y-103884336D01*
X83580891Y-103876538D01*
X83577985Y-103868416D01*
X83575889Y-103860048D01*
X83574623Y-103851516D01*
X83574200Y-103842900D01*
X83574200Y-103042100D01*
X83574623Y-103033484D01*
X83575889Y-103024952D01*
X83577985Y-103016584D01*
X83580891Y-103008462D01*
X83584579Y-103000664D01*
X83589014Y-102993265D01*
X83594152Y-102986337D01*
X83599945Y-102979945D01*
X83606337Y-102974152D01*
X83613265Y-102969014D01*
X83620664Y-102964579D01*
X83628462Y-102960891D01*
X83636584Y-102957985D01*
X83644952Y-102955889D01*
X83653484Y-102954623D01*
X83662100Y-102954200D01*
X83837900Y-102954200D01*
X83846516Y-102954623D01*
G37*
G36*
X83346516Y-102954623D02*
G01*
X83355048Y-102955889D01*
X83363416Y-102957985D01*
X83371538Y-102960891D01*
X83379336Y-102964579D01*
X83386735Y-102969014D01*
X83393663Y-102974152D01*
X83400055Y-102979945D01*
X83405848Y-102986337D01*
X83410986Y-102993265D01*
X83415421Y-103000664D01*
X83419109Y-103008462D01*
X83422015Y-103016584D01*
X83424111Y-103024952D01*
X83425377Y-103033484D01*
X83425800Y-103042100D01*
X83425800Y-103842900D01*
X83425377Y-103851516D01*
X83424111Y-103860048D01*
X83422015Y-103868416D01*
X83419109Y-103876538D01*
X83415421Y-103884336D01*
X83410986Y-103891735D01*
X83405848Y-103898663D01*
X83400055Y-103905055D01*
X83393663Y-103910848D01*
X83386735Y-103915986D01*
X83379336Y-103920421D01*
X83371538Y-103924109D01*
X83363416Y-103927015D01*
X83355048Y-103929111D01*
X83346516Y-103930377D01*
X83337900Y-103930800D01*
X83162100Y-103930800D01*
X83153484Y-103930377D01*
X83144952Y-103929111D01*
X83136584Y-103927015D01*
X83128462Y-103924109D01*
X83120664Y-103920421D01*
X83113265Y-103915986D01*
X83106337Y-103910848D01*
X83099945Y-103905055D01*
X83094152Y-103898663D01*
X83089014Y-103891735D01*
X83084579Y-103884336D01*
X83080891Y-103876538D01*
X83077985Y-103868416D01*
X83075889Y-103860048D01*
X83074623Y-103851516D01*
X83074200Y-103842900D01*
X83074200Y-103042100D01*
X83074623Y-103033484D01*
X83075889Y-103024952D01*
X83077985Y-103016584D01*
X83080891Y-103008462D01*
X83084579Y-103000664D01*
X83089014Y-102993265D01*
X83094152Y-102986337D01*
X83099945Y-102979945D01*
X83106337Y-102974152D01*
X83113265Y-102969014D01*
X83120664Y-102964579D01*
X83128462Y-102960891D01*
X83136584Y-102957985D01*
X83144952Y-102955889D01*
X83153484Y-102954623D01*
X83162100Y-102954200D01*
X83337900Y-102954200D01*
X83346516Y-102954623D01*
G37*
G36*
X82846516Y-102954623D02*
G01*
X82855048Y-102955889D01*
X82863416Y-102957985D01*
X82871538Y-102960891D01*
X82879336Y-102964579D01*
X82886735Y-102969014D01*
X82893663Y-102974152D01*
X82900055Y-102979945D01*
X82905848Y-102986337D01*
X82910986Y-102993265D01*
X82915421Y-103000664D01*
X82919109Y-103008462D01*
X82922015Y-103016584D01*
X82924111Y-103024952D01*
X82925377Y-103033484D01*
X82925800Y-103042100D01*
X82925800Y-103842900D01*
X82925377Y-103851516D01*
X82924111Y-103860048D01*
X82922015Y-103868416D01*
X82919109Y-103876538D01*
X82915421Y-103884336D01*
X82910986Y-103891735D01*
X82905848Y-103898663D01*
X82900055Y-103905055D01*
X82893663Y-103910848D01*
X82886735Y-103915986D01*
X82879336Y-103920421D01*
X82871538Y-103924109D01*
X82863416Y-103927015D01*
X82855048Y-103929111D01*
X82846516Y-103930377D01*
X82837900Y-103930800D01*
X82662100Y-103930800D01*
X82653484Y-103930377D01*
X82644952Y-103929111D01*
X82636584Y-103927015D01*
X82628462Y-103924109D01*
X82620664Y-103920421D01*
X82613265Y-103915986D01*
X82606337Y-103910848D01*
X82599945Y-103905055D01*
X82594152Y-103898663D01*
X82589014Y-103891735D01*
X82584579Y-103884336D01*
X82580891Y-103876538D01*
X82577985Y-103868416D01*
X82575889Y-103860048D01*
X82574623Y-103851516D01*
X82574200Y-103842900D01*
X82574200Y-103042100D01*
X82574623Y-103033484D01*
X82575889Y-103024952D01*
X82577985Y-103016584D01*
X82580891Y-103008462D01*
X82584579Y-103000664D01*
X82589014Y-102993265D01*
X82594152Y-102986337D01*
X82599945Y-102979945D01*
X82606337Y-102974152D01*
X82613265Y-102969014D01*
X82620664Y-102964579D01*
X82628462Y-102960891D01*
X82636584Y-102957985D01*
X82644952Y-102955889D01*
X82653484Y-102954623D01*
X82662100Y-102954200D01*
X82837900Y-102954200D01*
X82846516Y-102954623D01*
G37*
G36*
X82346516Y-102954623D02*
G01*
X82355048Y-102955889D01*
X82363416Y-102957985D01*
X82371538Y-102960891D01*
X82379336Y-102964579D01*
X82386735Y-102969014D01*
X82393663Y-102974152D01*
X82400055Y-102979945D01*
X82405848Y-102986337D01*
X82410986Y-102993265D01*
X82415421Y-103000664D01*
X82419109Y-103008462D01*
X82422015Y-103016584D01*
X82424111Y-103024952D01*
X82425377Y-103033484D01*
X82425800Y-103042100D01*
X82425800Y-103842900D01*
X82425377Y-103851516D01*
X82424111Y-103860048D01*
X82422015Y-103868416D01*
X82419109Y-103876538D01*
X82415421Y-103884336D01*
X82410986Y-103891735D01*
X82405848Y-103898663D01*
X82400055Y-103905055D01*
X82393663Y-103910848D01*
X82386735Y-103915986D01*
X82379336Y-103920421D01*
X82371538Y-103924109D01*
X82363416Y-103927015D01*
X82355048Y-103929111D01*
X82346516Y-103930377D01*
X82337900Y-103930800D01*
X82162100Y-103930800D01*
X82153484Y-103930377D01*
X82144952Y-103929111D01*
X82136584Y-103927015D01*
X82128462Y-103924109D01*
X82120664Y-103920421D01*
X82113265Y-103915986D01*
X82106337Y-103910848D01*
X82099945Y-103905055D01*
X82094152Y-103898663D01*
X82089014Y-103891735D01*
X82084579Y-103884336D01*
X82080891Y-103876538D01*
X82077985Y-103868416D01*
X82075889Y-103860048D01*
X82074623Y-103851516D01*
X82074200Y-103842900D01*
X82074200Y-103042100D01*
X82074623Y-103033484D01*
X82075889Y-103024952D01*
X82077985Y-103016584D01*
X82080891Y-103008462D01*
X82084579Y-103000664D01*
X82089014Y-102993265D01*
X82094152Y-102986337D01*
X82099945Y-102979945D01*
X82106337Y-102974152D01*
X82113265Y-102969014D01*
X82120664Y-102964579D01*
X82128462Y-102960891D01*
X82136584Y-102957985D01*
X82144952Y-102955889D01*
X82153484Y-102954623D01*
X82162100Y-102954200D01*
X82337900Y-102954200D01*
X82346516Y-102954623D01*
G37*
G36*
X81846516Y-102954623D02*
G01*
X81855048Y-102955889D01*
X81863416Y-102957985D01*
X81871538Y-102960891D01*
X81879336Y-102964579D01*
X81886735Y-102969014D01*
X81893663Y-102974152D01*
X81900055Y-102979945D01*
X81905848Y-102986337D01*
X81910986Y-102993265D01*
X81915421Y-103000664D01*
X81919109Y-103008462D01*
X81922015Y-103016584D01*
X81924111Y-103024952D01*
X81925377Y-103033484D01*
X81925800Y-103042100D01*
X81925800Y-103842900D01*
X81925377Y-103851516D01*
X81924111Y-103860048D01*
X81922015Y-103868416D01*
X81919109Y-103876538D01*
X81915421Y-103884336D01*
X81910986Y-103891735D01*
X81905848Y-103898663D01*
X81900055Y-103905055D01*
X81893663Y-103910848D01*
X81886735Y-103915986D01*
X81879336Y-103920421D01*
X81871538Y-103924109D01*
X81863416Y-103927015D01*
X81855048Y-103929111D01*
X81846516Y-103930377D01*
X81837900Y-103930800D01*
X81662100Y-103930800D01*
X81653484Y-103930377D01*
X81644952Y-103929111D01*
X81636584Y-103927015D01*
X81628462Y-103924109D01*
X81620664Y-103920421D01*
X81613265Y-103915986D01*
X81606337Y-103910848D01*
X81599945Y-103905055D01*
X81594152Y-103898663D01*
X81589014Y-103891735D01*
X81584579Y-103884336D01*
X81580891Y-103876538D01*
X81577985Y-103868416D01*
X81575889Y-103860048D01*
X81574623Y-103851516D01*
X81574200Y-103842900D01*
X81574200Y-103042100D01*
X81574623Y-103033484D01*
X81575889Y-103024952D01*
X81577985Y-103016584D01*
X81580891Y-103008462D01*
X81584579Y-103000664D01*
X81589014Y-102993265D01*
X81594152Y-102986337D01*
X81599945Y-102979945D01*
X81606337Y-102974152D01*
X81613265Y-102969014D01*
X81620664Y-102964579D01*
X81628462Y-102960891D01*
X81636584Y-102957985D01*
X81644952Y-102955889D01*
X81653484Y-102954623D01*
X81662100Y-102954200D01*
X81837900Y-102954200D01*
X81846516Y-102954623D01*
G37*
G36*
X81346516Y-102954623D02*
G01*
X81355048Y-102955889D01*
X81363416Y-102957985D01*
X81371538Y-102960891D01*
X81379336Y-102964579D01*
X81386735Y-102969014D01*
X81393663Y-102974152D01*
X81400055Y-102979945D01*
X81405848Y-102986337D01*
X81410986Y-102993265D01*
X81415421Y-103000664D01*
X81419109Y-103008462D01*
X81422015Y-103016584D01*
X81424111Y-103024952D01*
X81425377Y-103033484D01*
X81425800Y-103042100D01*
X81425800Y-103842900D01*
X81425377Y-103851516D01*
X81424111Y-103860048D01*
X81422015Y-103868416D01*
X81419109Y-103876538D01*
X81415421Y-103884336D01*
X81410986Y-103891735D01*
X81405848Y-103898663D01*
X81400055Y-103905055D01*
X81393663Y-103910848D01*
X81386735Y-103915986D01*
X81379336Y-103920421D01*
X81371538Y-103924109D01*
X81363416Y-103927015D01*
X81355048Y-103929111D01*
X81346516Y-103930377D01*
X81337900Y-103930800D01*
X81162100Y-103930800D01*
X81153484Y-103930377D01*
X81144952Y-103929111D01*
X81136584Y-103927015D01*
X81128462Y-103924109D01*
X81120664Y-103920421D01*
X81113265Y-103915986D01*
X81106337Y-103910848D01*
X81099945Y-103905055D01*
X81094152Y-103898663D01*
X81089014Y-103891735D01*
X81084579Y-103884336D01*
X81080891Y-103876538D01*
X81077985Y-103868416D01*
X81075889Y-103860048D01*
X81074623Y-103851516D01*
X81074200Y-103842900D01*
X81074200Y-103042100D01*
X81074623Y-103033484D01*
X81075889Y-103024952D01*
X81077985Y-103016584D01*
X81080891Y-103008462D01*
X81084579Y-103000664D01*
X81089014Y-102993265D01*
X81094152Y-102986337D01*
X81099945Y-102979945D01*
X81106337Y-102974152D01*
X81113265Y-102969014D01*
X81120664Y-102964579D01*
X81128462Y-102960891D01*
X81136584Y-102957985D01*
X81144952Y-102955889D01*
X81153484Y-102954623D01*
X81162100Y-102954200D01*
X81337900Y-102954200D01*
X81346516Y-102954623D01*
G37*
G36*
X80846516Y-102954623D02*
G01*
X80855048Y-102955889D01*
X80863416Y-102957985D01*
X80871538Y-102960891D01*
X80879336Y-102964579D01*
X80886735Y-102969014D01*
X80893663Y-102974152D01*
X80900055Y-102979945D01*
X80905848Y-102986337D01*
X80910986Y-102993265D01*
X80915421Y-103000664D01*
X80919109Y-103008462D01*
X80922015Y-103016584D01*
X80924111Y-103024952D01*
X80925377Y-103033484D01*
X80925800Y-103042100D01*
X80925800Y-103842900D01*
X80925377Y-103851516D01*
X80924111Y-103860048D01*
X80922015Y-103868416D01*
X80919109Y-103876538D01*
X80915421Y-103884336D01*
X80910986Y-103891735D01*
X80905848Y-103898663D01*
X80900055Y-103905055D01*
X80893663Y-103910848D01*
X80886735Y-103915986D01*
X80879336Y-103920421D01*
X80871538Y-103924109D01*
X80863416Y-103927015D01*
X80855048Y-103929111D01*
X80846516Y-103930377D01*
X80837900Y-103930800D01*
X80662100Y-103930800D01*
X80653484Y-103930377D01*
X80644952Y-103929111D01*
X80636584Y-103927015D01*
X80628462Y-103924109D01*
X80620664Y-103920421D01*
X80613265Y-103915986D01*
X80606337Y-103910848D01*
X80599945Y-103905055D01*
X80594152Y-103898663D01*
X80589014Y-103891735D01*
X80584579Y-103884336D01*
X80580891Y-103876538D01*
X80577985Y-103868416D01*
X80575889Y-103860048D01*
X80574623Y-103851516D01*
X80574200Y-103842900D01*
X80574200Y-103042100D01*
X80574623Y-103033484D01*
X80575889Y-103024952D01*
X80577985Y-103016584D01*
X80580891Y-103008462D01*
X80584579Y-103000664D01*
X80589014Y-102993265D01*
X80594152Y-102986337D01*
X80599945Y-102979945D01*
X80606337Y-102974152D01*
X80613265Y-102969014D01*
X80620664Y-102964579D01*
X80628462Y-102960891D01*
X80636584Y-102957985D01*
X80644952Y-102955889D01*
X80653484Y-102954623D01*
X80662100Y-102954200D01*
X80837900Y-102954200D01*
X80846516Y-102954623D01*
G37*
G36*
X80471516Y-102579623D02*
G01*
X80480048Y-102580889D01*
X80488416Y-102582985D01*
X80496538Y-102585891D01*
X80504336Y-102589579D01*
X80511735Y-102594014D01*
X80518663Y-102599152D01*
X80525055Y-102604945D01*
X80530848Y-102611337D01*
X80535986Y-102618265D01*
X80540421Y-102625664D01*
X80544109Y-102633462D01*
X80547015Y-102641584D01*
X80549111Y-102649952D01*
X80550377Y-102658484D01*
X80550800Y-102667100D01*
X80550800Y-102842900D01*
X80550377Y-102851516D01*
X80549111Y-102860048D01*
X80547015Y-102868416D01*
X80544109Y-102876538D01*
X80540421Y-102884336D01*
X80535986Y-102891735D01*
X80530848Y-102898663D01*
X80525055Y-102905055D01*
X80518663Y-102910848D01*
X80511735Y-102915986D01*
X80504336Y-102920421D01*
X80496538Y-102924109D01*
X80488416Y-102927015D01*
X80480048Y-102929111D01*
X80471516Y-102930377D01*
X80462900Y-102930800D01*
X79662100Y-102930800D01*
X79653484Y-102930377D01*
X79644952Y-102929111D01*
X79636584Y-102927015D01*
X79628462Y-102924109D01*
X79620664Y-102920421D01*
X79613265Y-102915986D01*
X79606337Y-102910848D01*
X79599945Y-102905055D01*
X79594152Y-102898663D01*
X79589014Y-102891735D01*
X79584579Y-102884336D01*
X79580891Y-102876538D01*
X79577985Y-102868416D01*
X79575889Y-102860048D01*
X79574623Y-102851516D01*
X79574200Y-102842900D01*
X79574200Y-102667100D01*
X79574623Y-102658484D01*
X79575889Y-102649952D01*
X79577985Y-102641584D01*
X79580891Y-102633462D01*
X79584579Y-102625664D01*
X79589014Y-102618265D01*
X79594152Y-102611337D01*
X79599945Y-102604945D01*
X79606337Y-102599152D01*
X79613265Y-102594014D01*
X79620664Y-102589579D01*
X79628462Y-102585891D01*
X79636584Y-102582985D01*
X79644952Y-102580889D01*
X79653484Y-102579623D01*
X79662100Y-102579200D01*
X80462900Y-102579200D01*
X80471516Y-102579623D01*
G37*
G36*
X80471516Y-102079623D02*
G01*
X80480048Y-102080889D01*
X80488416Y-102082985D01*
X80496538Y-102085891D01*
X80504336Y-102089579D01*
X80511735Y-102094014D01*
X80518663Y-102099152D01*
X80525055Y-102104945D01*
X80530848Y-102111337D01*
X80535986Y-102118265D01*
X80540421Y-102125664D01*
X80544109Y-102133462D01*
X80547015Y-102141584D01*
X80549111Y-102149952D01*
X80550377Y-102158484D01*
X80550800Y-102167100D01*
X80550800Y-102342900D01*
X80550377Y-102351516D01*
X80549111Y-102360048D01*
X80547015Y-102368416D01*
X80544109Y-102376538D01*
X80540421Y-102384336D01*
X80535986Y-102391735D01*
X80530848Y-102398663D01*
X80525055Y-102405055D01*
X80518663Y-102410848D01*
X80511735Y-102415986D01*
X80504336Y-102420421D01*
X80496538Y-102424109D01*
X80488416Y-102427015D01*
X80480048Y-102429111D01*
X80471516Y-102430377D01*
X80462900Y-102430800D01*
X79662100Y-102430800D01*
X79653484Y-102430377D01*
X79644952Y-102429111D01*
X79636584Y-102427015D01*
X79628462Y-102424109D01*
X79620664Y-102420421D01*
X79613265Y-102415986D01*
X79606337Y-102410848D01*
X79599945Y-102405055D01*
X79594152Y-102398663D01*
X79589014Y-102391735D01*
X79584579Y-102384336D01*
X79580891Y-102376538D01*
X79577985Y-102368416D01*
X79575889Y-102360048D01*
X79574623Y-102351516D01*
X79574200Y-102342900D01*
X79574200Y-102167100D01*
X79574623Y-102158484D01*
X79575889Y-102149952D01*
X79577985Y-102141584D01*
X79580891Y-102133462D01*
X79584579Y-102125664D01*
X79589014Y-102118265D01*
X79594152Y-102111337D01*
X79599945Y-102104945D01*
X79606337Y-102099152D01*
X79613265Y-102094014D01*
X79620664Y-102089579D01*
X79628462Y-102085891D01*
X79636584Y-102082985D01*
X79644952Y-102080889D01*
X79653484Y-102079623D01*
X79662100Y-102079200D01*
X80462900Y-102079200D01*
X80471516Y-102079623D01*
G37*
G36*
X80471516Y-101579623D02*
G01*
X80480048Y-101580889D01*
X80488416Y-101582985D01*
X80496538Y-101585891D01*
X80504336Y-101589579D01*
X80511735Y-101594014D01*
X80518663Y-101599152D01*
X80525055Y-101604945D01*
X80530848Y-101611337D01*
X80535986Y-101618265D01*
X80540421Y-101625664D01*
X80544109Y-101633462D01*
X80547015Y-101641584D01*
X80549111Y-101649952D01*
X80550377Y-101658484D01*
X80550800Y-101667100D01*
X80550800Y-101842900D01*
X80550377Y-101851516D01*
X80549111Y-101860048D01*
X80547015Y-101868416D01*
X80544109Y-101876538D01*
X80540421Y-101884336D01*
X80535986Y-101891735D01*
X80530848Y-101898663D01*
X80525055Y-101905055D01*
X80518663Y-101910848D01*
X80511735Y-101915986D01*
X80504336Y-101920421D01*
X80496538Y-101924109D01*
X80488416Y-101927015D01*
X80480048Y-101929111D01*
X80471516Y-101930377D01*
X80462900Y-101930800D01*
X79662100Y-101930800D01*
X79653484Y-101930377D01*
X79644952Y-101929111D01*
X79636584Y-101927015D01*
X79628462Y-101924109D01*
X79620664Y-101920421D01*
X79613265Y-101915986D01*
X79606337Y-101910848D01*
X79599945Y-101905055D01*
X79594152Y-101898663D01*
X79589014Y-101891735D01*
X79584579Y-101884336D01*
X79580891Y-101876538D01*
X79577985Y-101868416D01*
X79575889Y-101860048D01*
X79574623Y-101851516D01*
X79574200Y-101842900D01*
X79574200Y-101667100D01*
X79574623Y-101658484D01*
X79575889Y-101649952D01*
X79577985Y-101641584D01*
X79580891Y-101633462D01*
X79584579Y-101625664D01*
X79589014Y-101618265D01*
X79594152Y-101611337D01*
X79599945Y-101604945D01*
X79606337Y-101599152D01*
X79613265Y-101594014D01*
X79620664Y-101589579D01*
X79628462Y-101585891D01*
X79636584Y-101582985D01*
X79644952Y-101580889D01*
X79653484Y-101579623D01*
X79662100Y-101579200D01*
X80462900Y-101579200D01*
X80471516Y-101579623D01*
G37*
G36*
X80471516Y-101079623D02*
G01*
X80480048Y-101080889D01*
X80488416Y-101082985D01*
X80496538Y-101085891D01*
X80504336Y-101089579D01*
X80511735Y-101094014D01*
X80518663Y-101099152D01*
X80525055Y-101104945D01*
X80530848Y-101111337D01*
X80535986Y-101118265D01*
X80540421Y-101125664D01*
X80544109Y-101133462D01*
X80547015Y-101141584D01*
X80549111Y-101149952D01*
X80550377Y-101158484D01*
X80550800Y-101167100D01*
X80550800Y-101342900D01*
X80550377Y-101351516D01*
X80549111Y-101360048D01*
X80547015Y-101368416D01*
X80544109Y-101376538D01*
X80540421Y-101384336D01*
X80535986Y-101391735D01*
X80530848Y-101398663D01*
X80525055Y-101405055D01*
X80518663Y-101410848D01*
X80511735Y-101415986D01*
X80504336Y-101420421D01*
X80496538Y-101424109D01*
X80488416Y-101427015D01*
X80480048Y-101429111D01*
X80471516Y-101430377D01*
X80462900Y-101430800D01*
X79662100Y-101430800D01*
X79653484Y-101430377D01*
X79644952Y-101429111D01*
X79636584Y-101427015D01*
X79628462Y-101424109D01*
X79620664Y-101420421D01*
X79613265Y-101415986D01*
X79606337Y-101410848D01*
X79599945Y-101405055D01*
X79594152Y-101398663D01*
X79589014Y-101391735D01*
X79584579Y-101384336D01*
X79580891Y-101376538D01*
X79577985Y-101368416D01*
X79575889Y-101360048D01*
X79574623Y-101351516D01*
X79574200Y-101342900D01*
X79574200Y-101167100D01*
X79574623Y-101158484D01*
X79575889Y-101149952D01*
X79577985Y-101141584D01*
X79580891Y-101133462D01*
X79584579Y-101125664D01*
X79589014Y-101118265D01*
X79594152Y-101111337D01*
X79599945Y-101104945D01*
X79606337Y-101099152D01*
X79613265Y-101094014D01*
X79620664Y-101089579D01*
X79628462Y-101085891D01*
X79636584Y-101082985D01*
X79644952Y-101080889D01*
X79653484Y-101079623D01*
X79662100Y-101079200D01*
X80462900Y-101079200D01*
X80471516Y-101079623D01*
G37*
G36*
X80471516Y-100579623D02*
G01*
X80480048Y-100580889D01*
X80488416Y-100582985D01*
X80496538Y-100585891D01*
X80504336Y-100589579D01*
X80511735Y-100594014D01*
X80518663Y-100599152D01*
X80525055Y-100604945D01*
X80530848Y-100611337D01*
X80535986Y-100618265D01*
X80540421Y-100625664D01*
X80544109Y-100633462D01*
X80547015Y-100641584D01*
X80549111Y-100649952D01*
X80550377Y-100658484D01*
X80550800Y-100667100D01*
X80550800Y-100842900D01*
X80550377Y-100851516D01*
X80549111Y-100860048D01*
X80547015Y-100868416D01*
X80544109Y-100876538D01*
X80540421Y-100884336D01*
X80535986Y-100891735D01*
X80530848Y-100898663D01*
X80525055Y-100905055D01*
X80518663Y-100910848D01*
X80511735Y-100915986D01*
X80504336Y-100920421D01*
X80496538Y-100924109D01*
X80488416Y-100927015D01*
X80480048Y-100929111D01*
X80471516Y-100930377D01*
X80462900Y-100930800D01*
X79662100Y-100930800D01*
X79653484Y-100930377D01*
X79644952Y-100929111D01*
X79636584Y-100927015D01*
X79628462Y-100924109D01*
X79620664Y-100920421D01*
X79613265Y-100915986D01*
X79606337Y-100910848D01*
X79599945Y-100905055D01*
X79594152Y-100898663D01*
X79589014Y-100891735D01*
X79584579Y-100884336D01*
X79580891Y-100876538D01*
X79577985Y-100868416D01*
X79575889Y-100860048D01*
X79574623Y-100851516D01*
X79574200Y-100842900D01*
X79574200Y-100667100D01*
X79574623Y-100658484D01*
X79575889Y-100649952D01*
X79577985Y-100641584D01*
X79580891Y-100633462D01*
X79584579Y-100625664D01*
X79589014Y-100618265D01*
X79594152Y-100611337D01*
X79599945Y-100604945D01*
X79606337Y-100599152D01*
X79613265Y-100594014D01*
X79620664Y-100589579D01*
X79628462Y-100585891D01*
X79636584Y-100582985D01*
X79644952Y-100580889D01*
X79653484Y-100579623D01*
X79662100Y-100579200D01*
X80462900Y-100579200D01*
X80471516Y-100579623D01*
G37*
G36*
X80471516Y-100079623D02*
G01*
X80480048Y-100080889D01*
X80488416Y-100082985D01*
X80496538Y-100085891D01*
X80504336Y-100089579D01*
X80511735Y-100094014D01*
X80518663Y-100099152D01*
X80525055Y-100104945D01*
X80530848Y-100111337D01*
X80535986Y-100118265D01*
X80540421Y-100125664D01*
X80544109Y-100133462D01*
X80547015Y-100141584D01*
X80549111Y-100149952D01*
X80550377Y-100158484D01*
X80550800Y-100167100D01*
X80550800Y-100342900D01*
X80550377Y-100351516D01*
X80549111Y-100360048D01*
X80547015Y-100368416D01*
X80544109Y-100376538D01*
X80540421Y-100384336D01*
X80535986Y-100391735D01*
X80530848Y-100398663D01*
X80525055Y-100405055D01*
X80518663Y-100410848D01*
X80511735Y-100415986D01*
X80504336Y-100420421D01*
X80496538Y-100424109D01*
X80488416Y-100427015D01*
X80480048Y-100429111D01*
X80471516Y-100430377D01*
X80462900Y-100430800D01*
X79662100Y-100430800D01*
X79653484Y-100430377D01*
X79644952Y-100429111D01*
X79636584Y-100427015D01*
X79628462Y-100424109D01*
X79620664Y-100420421D01*
X79613265Y-100415986D01*
X79606337Y-100410848D01*
X79599945Y-100405055D01*
X79594152Y-100398663D01*
X79589014Y-100391735D01*
X79584579Y-100384336D01*
X79580891Y-100376538D01*
X79577985Y-100368416D01*
X79575889Y-100360048D01*
X79574623Y-100351516D01*
X79574200Y-100342900D01*
X79574200Y-100167100D01*
X79574623Y-100158484D01*
X79575889Y-100149952D01*
X79577985Y-100141584D01*
X79580891Y-100133462D01*
X79584579Y-100125664D01*
X79589014Y-100118265D01*
X79594152Y-100111337D01*
X79599945Y-100104945D01*
X79606337Y-100099152D01*
X79613265Y-100094014D01*
X79620664Y-100089579D01*
X79628462Y-100085891D01*
X79636584Y-100082985D01*
X79644952Y-100080889D01*
X79653484Y-100079623D01*
X79662100Y-100079200D01*
X80462900Y-100079200D01*
X80471516Y-100079623D01*
G37*
G36*
X80471516Y-99579623D02*
G01*
X80480048Y-99580889D01*
X80488416Y-99582985D01*
X80496538Y-99585891D01*
X80504336Y-99589579D01*
X80511735Y-99594014D01*
X80518663Y-99599152D01*
X80525055Y-99604945D01*
X80530848Y-99611337D01*
X80535986Y-99618265D01*
X80540421Y-99625664D01*
X80544109Y-99633462D01*
X80547015Y-99641584D01*
X80549111Y-99649952D01*
X80550377Y-99658484D01*
X80550800Y-99667100D01*
X80550800Y-99842900D01*
X80550377Y-99851516D01*
X80549111Y-99860048D01*
X80547015Y-99868416D01*
X80544109Y-99876538D01*
X80540421Y-99884336D01*
X80535986Y-99891735D01*
X80530848Y-99898663D01*
X80525055Y-99905055D01*
X80518663Y-99910848D01*
X80511735Y-99915986D01*
X80504336Y-99920421D01*
X80496538Y-99924109D01*
X80488416Y-99927015D01*
X80480048Y-99929111D01*
X80471516Y-99930377D01*
X80462900Y-99930800D01*
X79662100Y-99930800D01*
X79653484Y-99930377D01*
X79644952Y-99929111D01*
X79636584Y-99927015D01*
X79628462Y-99924109D01*
X79620664Y-99920421D01*
X79613265Y-99915986D01*
X79606337Y-99910848D01*
X79599945Y-99905055D01*
X79594152Y-99898663D01*
X79589014Y-99891735D01*
X79584579Y-99884336D01*
X79580891Y-99876538D01*
X79577985Y-99868416D01*
X79575889Y-99860048D01*
X79574623Y-99851516D01*
X79574200Y-99842900D01*
X79574200Y-99667100D01*
X79574623Y-99658484D01*
X79575889Y-99649952D01*
X79577985Y-99641584D01*
X79580891Y-99633462D01*
X79584579Y-99625664D01*
X79589014Y-99618265D01*
X79594152Y-99611337D01*
X79599945Y-99604945D01*
X79606337Y-99599152D01*
X79613265Y-99594014D01*
X79620664Y-99589579D01*
X79628462Y-99585891D01*
X79636584Y-99582985D01*
X79644952Y-99580889D01*
X79653484Y-99579623D01*
X79662100Y-99579200D01*
X80462900Y-99579200D01*
X80471516Y-99579623D01*
G37*
G36*
X80471516Y-99079623D02*
G01*
X80480048Y-99080889D01*
X80488416Y-99082985D01*
X80496538Y-99085891D01*
X80504336Y-99089579D01*
X80511735Y-99094014D01*
X80518663Y-99099152D01*
X80525055Y-99104945D01*
X80530848Y-99111337D01*
X80535986Y-99118265D01*
X80540421Y-99125664D01*
X80544109Y-99133462D01*
X80547015Y-99141584D01*
X80549111Y-99149952D01*
X80550377Y-99158484D01*
X80550800Y-99167100D01*
X80550800Y-99342900D01*
X80550377Y-99351516D01*
X80549111Y-99360048D01*
X80547015Y-99368416D01*
X80544109Y-99376538D01*
X80540421Y-99384336D01*
X80535986Y-99391735D01*
X80530848Y-99398663D01*
X80525055Y-99405055D01*
X80518663Y-99410848D01*
X80511735Y-99415986D01*
X80504336Y-99420421D01*
X80496538Y-99424109D01*
X80488416Y-99427015D01*
X80480048Y-99429111D01*
X80471516Y-99430377D01*
X80462900Y-99430800D01*
X79662100Y-99430800D01*
X79653484Y-99430377D01*
X79644952Y-99429111D01*
X79636584Y-99427015D01*
X79628462Y-99424109D01*
X79620664Y-99420421D01*
X79613265Y-99415986D01*
X79606337Y-99410848D01*
X79599945Y-99405055D01*
X79594152Y-99398663D01*
X79589014Y-99391735D01*
X79584579Y-99384336D01*
X79580891Y-99376538D01*
X79577985Y-99368416D01*
X79575889Y-99360048D01*
X79574623Y-99351516D01*
X79574200Y-99342900D01*
X79574200Y-99167100D01*
X79574623Y-99158484D01*
X79575889Y-99149952D01*
X79577985Y-99141584D01*
X79580891Y-99133462D01*
X79584579Y-99125664D01*
X79589014Y-99118265D01*
X79594152Y-99111337D01*
X79599945Y-99104945D01*
X79606337Y-99099152D01*
X79613265Y-99094014D01*
X79620664Y-99089579D01*
X79628462Y-99085891D01*
X79636584Y-99082985D01*
X79644952Y-99080889D01*
X79653484Y-99079623D01*
X79662100Y-99079200D01*
X80462900Y-99079200D01*
X80471516Y-99079623D01*
G37*
G36*
X80471516Y-98579623D02*
G01*
X80480048Y-98580889D01*
X80488416Y-98582985D01*
X80496538Y-98585891D01*
X80504336Y-98589579D01*
X80511735Y-98594014D01*
X80518663Y-98599152D01*
X80525055Y-98604945D01*
X80530848Y-98611337D01*
X80535986Y-98618265D01*
X80540421Y-98625664D01*
X80544109Y-98633462D01*
X80547015Y-98641584D01*
X80549111Y-98649952D01*
X80550377Y-98658484D01*
X80550800Y-98667100D01*
X80550800Y-98842900D01*
X80550377Y-98851516D01*
X80549111Y-98860048D01*
X80547015Y-98868416D01*
X80544109Y-98876538D01*
X80540421Y-98884336D01*
X80535986Y-98891735D01*
X80530848Y-98898663D01*
X80525055Y-98905055D01*
X80518663Y-98910848D01*
X80511735Y-98915986D01*
X80504336Y-98920421D01*
X80496538Y-98924109D01*
X80488416Y-98927015D01*
X80480048Y-98929111D01*
X80471516Y-98930377D01*
X80462900Y-98930800D01*
X79662100Y-98930800D01*
X79653484Y-98930377D01*
X79644952Y-98929111D01*
X79636584Y-98927015D01*
X79628462Y-98924109D01*
X79620664Y-98920421D01*
X79613265Y-98915986D01*
X79606337Y-98910848D01*
X79599945Y-98905055D01*
X79594152Y-98898663D01*
X79589014Y-98891735D01*
X79584579Y-98884336D01*
X79580891Y-98876538D01*
X79577985Y-98868416D01*
X79575889Y-98860048D01*
X79574623Y-98851516D01*
X79574200Y-98842900D01*
X79574200Y-98667100D01*
X79574623Y-98658484D01*
X79575889Y-98649952D01*
X79577985Y-98641584D01*
X79580891Y-98633462D01*
X79584579Y-98625664D01*
X79589014Y-98618265D01*
X79594152Y-98611337D01*
X79599945Y-98604945D01*
X79606337Y-98599152D01*
X79613265Y-98594014D01*
X79620664Y-98589579D01*
X79628462Y-98585891D01*
X79636584Y-98582985D01*
X79644952Y-98580889D01*
X79653484Y-98579623D01*
X79662100Y-98579200D01*
X80462900Y-98579200D01*
X80471516Y-98579623D01*
G37*
G36*
X80471516Y-98079623D02*
G01*
X80480048Y-98080889D01*
X80488416Y-98082985D01*
X80496538Y-98085891D01*
X80504336Y-98089579D01*
X80511735Y-98094014D01*
X80518663Y-98099152D01*
X80525055Y-98104945D01*
X80530848Y-98111337D01*
X80535986Y-98118265D01*
X80540421Y-98125664D01*
X80544109Y-98133462D01*
X80547015Y-98141584D01*
X80549111Y-98149952D01*
X80550377Y-98158484D01*
X80550800Y-98167100D01*
X80550800Y-98342900D01*
X80550377Y-98351516D01*
X80549111Y-98360048D01*
X80547015Y-98368416D01*
X80544109Y-98376538D01*
X80540421Y-98384336D01*
X80535986Y-98391735D01*
X80530848Y-98398663D01*
X80525055Y-98405055D01*
X80518663Y-98410848D01*
X80511735Y-98415986D01*
X80504336Y-98420421D01*
X80496538Y-98424109D01*
X80488416Y-98427015D01*
X80480048Y-98429111D01*
X80471516Y-98430377D01*
X80462900Y-98430800D01*
X79662100Y-98430800D01*
X79653484Y-98430377D01*
X79644952Y-98429111D01*
X79636584Y-98427015D01*
X79628462Y-98424109D01*
X79620664Y-98420421D01*
X79613265Y-98415986D01*
X79606337Y-98410848D01*
X79599945Y-98405055D01*
X79594152Y-98398663D01*
X79589014Y-98391735D01*
X79584579Y-98384336D01*
X79580891Y-98376538D01*
X79577985Y-98368416D01*
X79575889Y-98360048D01*
X79574623Y-98351516D01*
X79574200Y-98342900D01*
X79574200Y-98167100D01*
X79574623Y-98158484D01*
X79575889Y-98149952D01*
X79577985Y-98141584D01*
X79580891Y-98133462D01*
X79584579Y-98125664D01*
X79589014Y-98118265D01*
X79594152Y-98111337D01*
X79599945Y-98104945D01*
X79606337Y-98099152D01*
X79613265Y-98094014D01*
X79620664Y-98089579D01*
X79628462Y-98085891D01*
X79636584Y-98082985D01*
X79644952Y-98080889D01*
X79653484Y-98079623D01*
X79662100Y-98079200D01*
X80462900Y-98079200D01*
X80471516Y-98079623D01*
G37*
G36*
X80471516Y-97579623D02*
G01*
X80480048Y-97580889D01*
X80488416Y-97582985D01*
X80496538Y-97585891D01*
X80504336Y-97589579D01*
X80511735Y-97594014D01*
X80518663Y-97599152D01*
X80525055Y-97604945D01*
X80530848Y-97611337D01*
X80535986Y-97618265D01*
X80540421Y-97625664D01*
X80544109Y-97633462D01*
X80547015Y-97641584D01*
X80549111Y-97649952D01*
X80550377Y-97658484D01*
X80550800Y-97667100D01*
X80550800Y-97842900D01*
X80550377Y-97851516D01*
X80549111Y-97860048D01*
X80547015Y-97868416D01*
X80544109Y-97876538D01*
X80540421Y-97884336D01*
X80535986Y-97891735D01*
X80530848Y-97898663D01*
X80525055Y-97905055D01*
X80518663Y-97910848D01*
X80511735Y-97915986D01*
X80504336Y-97920421D01*
X80496538Y-97924109D01*
X80488416Y-97927015D01*
X80480048Y-97929111D01*
X80471516Y-97930377D01*
X80462900Y-97930800D01*
X79662100Y-97930800D01*
X79653484Y-97930377D01*
X79644952Y-97929111D01*
X79636584Y-97927015D01*
X79628462Y-97924109D01*
X79620664Y-97920421D01*
X79613265Y-97915986D01*
X79606337Y-97910848D01*
X79599945Y-97905055D01*
X79594152Y-97898663D01*
X79589014Y-97891735D01*
X79584579Y-97884336D01*
X79580891Y-97876538D01*
X79577985Y-97868416D01*
X79575889Y-97860048D01*
X79574623Y-97851516D01*
X79574200Y-97842900D01*
X79574200Y-97667100D01*
X79574623Y-97658484D01*
X79575889Y-97649952D01*
X79577985Y-97641584D01*
X79580891Y-97633462D01*
X79584579Y-97625664D01*
X79589014Y-97618265D01*
X79594152Y-97611337D01*
X79599945Y-97604945D01*
X79606337Y-97599152D01*
X79613265Y-97594014D01*
X79620664Y-97589579D01*
X79628462Y-97585891D01*
X79636584Y-97582985D01*
X79644952Y-97580889D01*
X79653484Y-97579623D01*
X79662100Y-97579200D01*
X80462900Y-97579200D01*
X80471516Y-97579623D01*
G37*
G36*
X80471516Y-97079623D02*
G01*
X80480048Y-97080889D01*
X80488416Y-97082985D01*
X80496538Y-97085891D01*
X80504336Y-97089579D01*
X80511735Y-97094014D01*
X80518663Y-97099152D01*
X80525055Y-97104945D01*
X80530848Y-97111337D01*
X80535986Y-97118265D01*
X80540421Y-97125664D01*
X80544109Y-97133462D01*
X80547015Y-97141584D01*
X80549111Y-97149952D01*
X80550377Y-97158484D01*
X80550800Y-97167100D01*
X80550800Y-97342900D01*
X80550377Y-97351516D01*
X80549111Y-97360048D01*
X80547015Y-97368416D01*
X80544109Y-97376538D01*
X80540421Y-97384336D01*
X80535986Y-97391735D01*
X80530848Y-97398663D01*
X80525055Y-97405055D01*
X80518663Y-97410848D01*
X80511735Y-97415986D01*
X80504336Y-97420421D01*
X80496538Y-97424109D01*
X80488416Y-97427015D01*
X80480048Y-97429111D01*
X80471516Y-97430377D01*
X80462900Y-97430800D01*
X79662100Y-97430800D01*
X79653484Y-97430377D01*
X79644952Y-97429111D01*
X79636584Y-97427015D01*
X79628462Y-97424109D01*
X79620664Y-97420421D01*
X79613265Y-97415986D01*
X79606337Y-97410848D01*
X79599945Y-97405055D01*
X79594152Y-97398663D01*
X79589014Y-97391735D01*
X79584579Y-97384336D01*
X79580891Y-97376538D01*
X79577985Y-97368416D01*
X79575889Y-97360048D01*
X79574623Y-97351516D01*
X79574200Y-97342900D01*
X79574200Y-97167100D01*
X79574623Y-97158484D01*
X79575889Y-97149952D01*
X79577985Y-97141584D01*
X79580891Y-97133462D01*
X79584579Y-97125664D01*
X79589014Y-97118265D01*
X79594152Y-97111337D01*
X79599945Y-97104945D01*
X79606337Y-97099152D01*
X79613265Y-97094014D01*
X79620664Y-97089579D01*
X79628462Y-97085891D01*
X79636584Y-97082985D01*
X79644952Y-97080889D01*
X79653484Y-97079623D01*
X79662100Y-97079200D01*
X80462900Y-97079200D01*
X80471516Y-97079623D01*
G37*
G36*
X80846516Y-96079623D02*
G01*
X80855048Y-96080889D01*
X80863416Y-96082985D01*
X80871538Y-96085891D01*
X80879336Y-96089579D01*
X80886735Y-96094014D01*
X80893663Y-96099152D01*
X80900055Y-96104945D01*
X80905848Y-96111337D01*
X80910986Y-96118265D01*
X80915421Y-96125664D01*
X80919109Y-96133462D01*
X80922015Y-96141584D01*
X80924111Y-96149952D01*
X80925377Y-96158484D01*
X80925800Y-96167100D01*
X80925800Y-96967900D01*
X80925377Y-96976516D01*
X80924111Y-96985048D01*
X80922015Y-96993416D01*
X80919109Y-97001538D01*
X80915421Y-97009336D01*
X80910986Y-97016735D01*
X80905848Y-97023663D01*
X80900055Y-97030055D01*
X80893663Y-97035848D01*
X80886735Y-97040986D01*
X80879336Y-97045421D01*
X80871538Y-97049109D01*
X80863416Y-97052015D01*
X80855048Y-97054111D01*
X80846516Y-97055377D01*
X80837900Y-97055800D01*
X80662100Y-97055800D01*
X80653484Y-97055377D01*
X80644952Y-97054111D01*
X80636584Y-97052015D01*
X80628462Y-97049109D01*
X80620664Y-97045421D01*
X80613265Y-97040986D01*
X80606337Y-97035848D01*
X80599945Y-97030055D01*
X80594152Y-97023663D01*
X80589014Y-97016735D01*
X80584579Y-97009336D01*
X80580891Y-97001538D01*
X80577985Y-96993416D01*
X80575889Y-96985048D01*
X80574623Y-96976516D01*
X80574200Y-96967900D01*
X80574200Y-96167100D01*
X80574623Y-96158484D01*
X80575889Y-96149952D01*
X80577985Y-96141584D01*
X80580891Y-96133462D01*
X80584579Y-96125664D01*
X80589014Y-96118265D01*
X80594152Y-96111337D01*
X80599945Y-96104945D01*
X80606337Y-96099152D01*
X80613265Y-96094014D01*
X80620664Y-96089579D01*
X80628462Y-96085891D01*
X80636584Y-96082985D01*
X80644952Y-96080889D01*
X80653484Y-96079623D01*
X80662100Y-96079200D01*
X80837900Y-96079200D01*
X80846516Y-96079623D01*
G37*
G36*
X81346516Y-96079623D02*
G01*
X81355048Y-96080889D01*
X81363416Y-96082985D01*
X81371538Y-96085891D01*
X81379336Y-96089579D01*
X81386735Y-96094014D01*
X81393663Y-96099152D01*
X81400055Y-96104945D01*
X81405848Y-96111337D01*
X81410986Y-96118265D01*
X81415421Y-96125664D01*
X81419109Y-96133462D01*
X81422015Y-96141584D01*
X81424111Y-96149952D01*
X81425377Y-96158484D01*
X81425800Y-96167100D01*
X81425800Y-96967900D01*
X81425377Y-96976516D01*
X81424111Y-96985048D01*
X81422015Y-96993416D01*
X81419109Y-97001538D01*
X81415421Y-97009336D01*
X81410986Y-97016735D01*
X81405848Y-97023663D01*
X81400055Y-97030055D01*
X81393663Y-97035848D01*
X81386735Y-97040986D01*
X81379336Y-97045421D01*
X81371538Y-97049109D01*
X81363416Y-97052015D01*
X81355048Y-97054111D01*
X81346516Y-97055377D01*
X81337900Y-97055800D01*
X81162100Y-97055800D01*
X81153484Y-97055377D01*
X81144952Y-97054111D01*
X81136584Y-97052015D01*
X81128462Y-97049109D01*
X81120664Y-97045421D01*
X81113265Y-97040986D01*
X81106337Y-97035848D01*
X81099945Y-97030055D01*
X81094152Y-97023663D01*
X81089014Y-97016735D01*
X81084579Y-97009336D01*
X81080891Y-97001538D01*
X81077985Y-96993416D01*
X81075889Y-96985048D01*
X81074623Y-96976516D01*
X81074200Y-96967900D01*
X81074200Y-96167100D01*
X81074623Y-96158484D01*
X81075889Y-96149952D01*
X81077985Y-96141584D01*
X81080891Y-96133462D01*
X81084579Y-96125664D01*
X81089014Y-96118265D01*
X81094152Y-96111337D01*
X81099945Y-96104945D01*
X81106337Y-96099152D01*
X81113265Y-96094014D01*
X81120664Y-96089579D01*
X81128462Y-96085891D01*
X81136584Y-96082985D01*
X81144952Y-96080889D01*
X81153484Y-96079623D01*
X81162100Y-96079200D01*
X81337900Y-96079200D01*
X81346516Y-96079623D01*
G37*
G36*
X81846516Y-96079623D02*
G01*
X81855048Y-96080889D01*
X81863416Y-96082985D01*
X81871538Y-96085891D01*
X81879336Y-96089579D01*
X81886735Y-96094014D01*
X81893663Y-96099152D01*
X81900055Y-96104945D01*
X81905848Y-96111337D01*
X81910986Y-96118265D01*
X81915421Y-96125664D01*
X81919109Y-96133462D01*
X81922015Y-96141584D01*
X81924111Y-96149952D01*
X81925377Y-96158484D01*
X81925800Y-96167100D01*
X81925800Y-96967900D01*
X81925377Y-96976516D01*
X81924111Y-96985048D01*
X81922015Y-96993416D01*
X81919109Y-97001538D01*
X81915421Y-97009336D01*
X81910986Y-97016735D01*
X81905848Y-97023663D01*
X81900055Y-97030055D01*
X81893663Y-97035848D01*
X81886735Y-97040986D01*
X81879336Y-97045421D01*
X81871538Y-97049109D01*
X81863416Y-97052015D01*
X81855048Y-97054111D01*
X81846516Y-97055377D01*
X81837900Y-97055800D01*
X81662100Y-97055800D01*
X81653484Y-97055377D01*
X81644952Y-97054111D01*
X81636584Y-97052015D01*
X81628462Y-97049109D01*
X81620664Y-97045421D01*
X81613265Y-97040986D01*
X81606337Y-97035848D01*
X81599945Y-97030055D01*
X81594152Y-97023663D01*
X81589014Y-97016735D01*
X81584579Y-97009336D01*
X81580891Y-97001538D01*
X81577985Y-96993416D01*
X81575889Y-96985048D01*
X81574623Y-96976516D01*
X81574200Y-96967900D01*
X81574200Y-96167100D01*
X81574623Y-96158484D01*
X81575889Y-96149952D01*
X81577985Y-96141584D01*
X81580891Y-96133462D01*
X81584579Y-96125664D01*
X81589014Y-96118265D01*
X81594152Y-96111337D01*
X81599945Y-96104945D01*
X81606337Y-96099152D01*
X81613265Y-96094014D01*
X81620664Y-96089579D01*
X81628462Y-96085891D01*
X81636584Y-96082985D01*
X81644952Y-96080889D01*
X81653484Y-96079623D01*
X81662100Y-96079200D01*
X81837900Y-96079200D01*
X81846516Y-96079623D01*
G37*
G36*
X82346516Y-96079623D02*
G01*
X82355048Y-96080889D01*
X82363416Y-96082985D01*
X82371538Y-96085891D01*
X82379336Y-96089579D01*
X82386735Y-96094014D01*
X82393663Y-96099152D01*
X82400055Y-96104945D01*
X82405848Y-96111337D01*
X82410986Y-96118265D01*
X82415421Y-96125664D01*
X82419109Y-96133462D01*
X82422015Y-96141584D01*
X82424111Y-96149952D01*
X82425377Y-96158484D01*
X82425800Y-96167100D01*
X82425800Y-96967900D01*
X82425377Y-96976516D01*
X82424111Y-96985048D01*
X82422015Y-96993416D01*
X82419109Y-97001538D01*
X82415421Y-97009336D01*
X82410986Y-97016735D01*
X82405848Y-97023663D01*
X82400055Y-97030055D01*
X82393663Y-97035848D01*
X82386735Y-97040986D01*
X82379336Y-97045421D01*
X82371538Y-97049109D01*
X82363416Y-97052015D01*
X82355048Y-97054111D01*
X82346516Y-97055377D01*
X82337900Y-97055800D01*
X82162100Y-97055800D01*
X82153484Y-97055377D01*
X82144952Y-97054111D01*
X82136584Y-97052015D01*
X82128462Y-97049109D01*
X82120664Y-97045421D01*
X82113265Y-97040986D01*
X82106337Y-97035848D01*
X82099945Y-97030055D01*
X82094152Y-97023663D01*
X82089014Y-97016735D01*
X82084579Y-97009336D01*
X82080891Y-97001538D01*
X82077985Y-96993416D01*
X82075889Y-96985048D01*
X82074623Y-96976516D01*
X82074200Y-96967900D01*
X82074200Y-96167100D01*
X82074623Y-96158484D01*
X82075889Y-96149952D01*
X82077985Y-96141584D01*
X82080891Y-96133462D01*
X82084579Y-96125664D01*
X82089014Y-96118265D01*
X82094152Y-96111337D01*
X82099945Y-96104945D01*
X82106337Y-96099152D01*
X82113265Y-96094014D01*
X82120664Y-96089579D01*
X82128462Y-96085891D01*
X82136584Y-96082985D01*
X82144952Y-96080889D01*
X82153484Y-96079623D01*
X82162100Y-96079200D01*
X82337900Y-96079200D01*
X82346516Y-96079623D01*
G37*
G36*
X82846516Y-96079623D02*
G01*
X82855048Y-96080889D01*
X82863416Y-96082985D01*
X82871538Y-96085891D01*
X82879336Y-96089579D01*
X82886735Y-96094014D01*
X82893663Y-96099152D01*
X82900055Y-96104945D01*
X82905848Y-96111337D01*
X82910986Y-96118265D01*
X82915421Y-96125664D01*
X82919109Y-96133462D01*
X82922015Y-96141584D01*
X82924111Y-96149952D01*
X82925377Y-96158484D01*
X82925800Y-96167100D01*
X82925800Y-96967900D01*
X82925377Y-96976516D01*
X82924111Y-96985048D01*
X82922015Y-96993416D01*
X82919109Y-97001538D01*
X82915421Y-97009336D01*
X82910986Y-97016735D01*
X82905848Y-97023663D01*
X82900055Y-97030055D01*
X82893663Y-97035848D01*
X82886735Y-97040986D01*
X82879336Y-97045421D01*
X82871538Y-97049109D01*
X82863416Y-97052015D01*
X82855048Y-97054111D01*
X82846516Y-97055377D01*
X82837900Y-97055800D01*
X82662100Y-97055800D01*
X82653484Y-97055377D01*
X82644952Y-97054111D01*
X82636584Y-97052015D01*
X82628462Y-97049109D01*
X82620664Y-97045421D01*
X82613265Y-97040986D01*
X82606337Y-97035848D01*
X82599945Y-97030055D01*
X82594152Y-97023663D01*
X82589014Y-97016735D01*
X82584579Y-97009336D01*
X82580891Y-97001538D01*
X82577985Y-96993416D01*
X82575889Y-96985048D01*
X82574623Y-96976516D01*
X82574200Y-96967900D01*
X82574200Y-96167100D01*
X82574623Y-96158484D01*
X82575889Y-96149952D01*
X82577985Y-96141584D01*
X82580891Y-96133462D01*
X82584579Y-96125664D01*
X82589014Y-96118265D01*
X82594152Y-96111337D01*
X82599945Y-96104945D01*
X82606337Y-96099152D01*
X82613265Y-96094014D01*
X82620664Y-96089579D01*
X82628462Y-96085891D01*
X82636584Y-96082985D01*
X82644952Y-96080889D01*
X82653484Y-96079623D01*
X82662100Y-96079200D01*
X82837900Y-96079200D01*
X82846516Y-96079623D01*
G37*
G36*
X83346516Y-96079623D02*
G01*
X83355048Y-96080889D01*
X83363416Y-96082985D01*
X83371538Y-96085891D01*
X83379336Y-96089579D01*
X83386735Y-96094014D01*
X83393663Y-96099152D01*
X83400055Y-96104945D01*
X83405848Y-96111337D01*
X83410986Y-96118265D01*
X83415421Y-96125664D01*
X83419109Y-96133462D01*
X83422015Y-96141584D01*
X83424111Y-96149952D01*
X83425377Y-96158484D01*
X83425800Y-96167100D01*
X83425800Y-96967900D01*
X83425377Y-96976516D01*
X83424111Y-96985048D01*
X83422015Y-96993416D01*
X83419109Y-97001538D01*
X83415421Y-97009336D01*
X83410986Y-97016735D01*
X83405848Y-97023663D01*
X83400055Y-97030055D01*
X83393663Y-97035848D01*
X83386735Y-97040986D01*
X83379336Y-97045421D01*
X83371538Y-97049109D01*
X83363416Y-97052015D01*
X83355048Y-97054111D01*
X83346516Y-97055377D01*
X83337900Y-97055800D01*
X83162100Y-97055800D01*
X83153484Y-97055377D01*
X83144952Y-97054111D01*
X83136584Y-97052015D01*
X83128462Y-97049109D01*
X83120664Y-97045421D01*
X83113265Y-97040986D01*
X83106337Y-97035848D01*
X83099945Y-97030055D01*
X83094152Y-97023663D01*
X83089014Y-97016735D01*
X83084579Y-97009336D01*
X83080891Y-97001538D01*
X83077985Y-96993416D01*
X83075889Y-96985048D01*
X83074623Y-96976516D01*
X83074200Y-96967900D01*
X83074200Y-96167100D01*
X83074623Y-96158484D01*
X83075889Y-96149952D01*
X83077985Y-96141584D01*
X83080891Y-96133462D01*
X83084579Y-96125664D01*
X83089014Y-96118265D01*
X83094152Y-96111337D01*
X83099945Y-96104945D01*
X83106337Y-96099152D01*
X83113265Y-96094014D01*
X83120664Y-96089579D01*
X83128462Y-96085891D01*
X83136584Y-96082985D01*
X83144952Y-96080889D01*
X83153484Y-96079623D01*
X83162100Y-96079200D01*
X83337900Y-96079200D01*
X83346516Y-96079623D01*
G37*
G36*
X83846516Y-96079623D02*
G01*
X83855048Y-96080889D01*
X83863416Y-96082985D01*
X83871538Y-96085891D01*
X83879336Y-96089579D01*
X83886735Y-96094014D01*
X83893663Y-96099152D01*
X83900055Y-96104945D01*
X83905848Y-96111337D01*
X83910986Y-96118265D01*
X83915421Y-96125664D01*
X83919109Y-96133462D01*
X83922015Y-96141584D01*
X83924111Y-96149952D01*
X83925377Y-96158484D01*
X83925800Y-96167100D01*
X83925800Y-96967900D01*
X83925377Y-96976516D01*
X83924111Y-96985048D01*
X83922015Y-96993416D01*
X83919109Y-97001538D01*
X83915421Y-97009336D01*
X83910986Y-97016735D01*
X83905848Y-97023663D01*
X83900055Y-97030055D01*
X83893663Y-97035848D01*
X83886735Y-97040986D01*
X83879336Y-97045421D01*
X83871538Y-97049109D01*
X83863416Y-97052015D01*
X83855048Y-97054111D01*
X83846516Y-97055377D01*
X83837900Y-97055800D01*
X83662100Y-97055800D01*
X83653484Y-97055377D01*
X83644952Y-97054111D01*
X83636584Y-97052015D01*
X83628462Y-97049109D01*
X83620664Y-97045421D01*
X83613265Y-97040986D01*
X83606337Y-97035848D01*
X83599945Y-97030055D01*
X83594152Y-97023663D01*
X83589014Y-97016735D01*
X83584579Y-97009336D01*
X83580891Y-97001538D01*
X83577985Y-96993416D01*
X83575889Y-96985048D01*
X83574623Y-96976516D01*
X83574200Y-96967900D01*
X83574200Y-96167100D01*
X83574623Y-96158484D01*
X83575889Y-96149952D01*
X83577985Y-96141584D01*
X83580891Y-96133462D01*
X83584579Y-96125664D01*
X83589014Y-96118265D01*
X83594152Y-96111337D01*
X83599945Y-96104945D01*
X83606337Y-96099152D01*
X83613265Y-96094014D01*
X83620664Y-96089579D01*
X83628462Y-96085891D01*
X83636584Y-96082985D01*
X83644952Y-96080889D01*
X83653484Y-96079623D01*
X83662100Y-96079200D01*
X83837900Y-96079200D01*
X83846516Y-96079623D01*
G37*
G36*
X84346516Y-96079623D02*
G01*
X84355048Y-96080889D01*
X84363416Y-96082985D01*
X84371538Y-96085891D01*
X84379336Y-96089579D01*
X84386735Y-96094014D01*
X84393663Y-96099152D01*
X84400055Y-96104945D01*
X84405848Y-96111337D01*
X84410986Y-96118265D01*
X84415421Y-96125664D01*
X84419109Y-96133462D01*
X84422015Y-96141584D01*
X84424111Y-96149952D01*
X84425377Y-96158484D01*
X84425800Y-96167100D01*
X84425800Y-96967900D01*
X84425377Y-96976516D01*
X84424111Y-96985048D01*
X84422015Y-96993416D01*
X84419109Y-97001538D01*
X84415421Y-97009336D01*
X84410986Y-97016735D01*
X84405848Y-97023663D01*
X84400055Y-97030055D01*
X84393663Y-97035848D01*
X84386735Y-97040986D01*
X84379336Y-97045421D01*
X84371538Y-97049109D01*
X84363416Y-97052015D01*
X84355048Y-97054111D01*
X84346516Y-97055377D01*
X84337900Y-97055800D01*
X84162100Y-97055800D01*
X84153484Y-97055377D01*
X84144952Y-97054111D01*
X84136584Y-97052015D01*
X84128462Y-97049109D01*
X84120664Y-97045421D01*
X84113265Y-97040986D01*
X84106337Y-97035848D01*
X84099945Y-97030055D01*
X84094152Y-97023663D01*
X84089014Y-97016735D01*
X84084579Y-97009336D01*
X84080891Y-97001538D01*
X84077985Y-96993416D01*
X84075889Y-96985048D01*
X84074623Y-96976516D01*
X84074200Y-96967900D01*
X84074200Y-96167100D01*
X84074623Y-96158484D01*
X84075889Y-96149952D01*
X84077985Y-96141584D01*
X84080891Y-96133462D01*
X84084579Y-96125664D01*
X84089014Y-96118265D01*
X84094152Y-96111337D01*
X84099945Y-96104945D01*
X84106337Y-96099152D01*
X84113265Y-96094014D01*
X84120664Y-96089579D01*
X84128462Y-96085891D01*
X84136584Y-96082985D01*
X84144952Y-96080889D01*
X84153484Y-96079623D01*
X84162100Y-96079200D01*
X84337900Y-96079200D01*
X84346516Y-96079623D01*
G37*
G36*
X84846516Y-96079623D02*
G01*
X84855048Y-96080889D01*
X84863416Y-96082985D01*
X84871538Y-96085891D01*
X84879336Y-96089579D01*
X84886735Y-96094014D01*
X84893663Y-96099152D01*
X84900055Y-96104945D01*
X84905848Y-96111337D01*
X84910986Y-96118265D01*
X84915421Y-96125664D01*
X84919109Y-96133462D01*
X84922015Y-96141584D01*
X84924111Y-96149952D01*
X84925377Y-96158484D01*
X84925800Y-96167100D01*
X84925800Y-96967900D01*
X84925377Y-96976516D01*
X84924111Y-96985048D01*
X84922015Y-96993416D01*
X84919109Y-97001538D01*
X84915421Y-97009336D01*
X84910986Y-97016735D01*
X84905848Y-97023663D01*
X84900055Y-97030055D01*
X84893663Y-97035848D01*
X84886735Y-97040986D01*
X84879336Y-97045421D01*
X84871538Y-97049109D01*
X84863416Y-97052015D01*
X84855048Y-97054111D01*
X84846516Y-97055377D01*
X84837900Y-97055800D01*
X84662100Y-97055800D01*
X84653484Y-97055377D01*
X84644952Y-97054111D01*
X84636584Y-97052015D01*
X84628462Y-97049109D01*
X84620664Y-97045421D01*
X84613265Y-97040986D01*
X84606337Y-97035848D01*
X84599945Y-97030055D01*
X84594152Y-97023663D01*
X84589014Y-97016735D01*
X84584579Y-97009336D01*
X84580891Y-97001538D01*
X84577985Y-96993416D01*
X84575889Y-96985048D01*
X84574623Y-96976516D01*
X84574200Y-96967900D01*
X84574200Y-96167100D01*
X84574623Y-96158484D01*
X84575889Y-96149952D01*
X84577985Y-96141584D01*
X84580891Y-96133462D01*
X84584579Y-96125664D01*
X84589014Y-96118265D01*
X84594152Y-96111337D01*
X84599945Y-96104945D01*
X84606337Y-96099152D01*
X84613265Y-96094014D01*
X84620664Y-96089579D01*
X84628462Y-96085891D01*
X84636584Y-96082985D01*
X84644952Y-96080889D01*
X84653484Y-96079623D01*
X84662100Y-96079200D01*
X84837900Y-96079200D01*
X84846516Y-96079623D01*
G37*
G36*
X85346516Y-96079623D02*
G01*
X85355048Y-96080889D01*
X85363416Y-96082985D01*
X85371538Y-96085891D01*
X85379336Y-96089579D01*
X85386735Y-96094014D01*
X85393663Y-96099152D01*
X85400055Y-96104945D01*
X85405848Y-96111337D01*
X85410986Y-96118265D01*
X85415421Y-96125664D01*
X85419109Y-96133462D01*
X85422015Y-96141584D01*
X85424111Y-96149952D01*
X85425377Y-96158484D01*
X85425800Y-96167100D01*
X85425800Y-96967900D01*
X85425377Y-96976516D01*
X85424111Y-96985048D01*
X85422015Y-96993416D01*
X85419109Y-97001538D01*
X85415421Y-97009336D01*
X85410986Y-97016735D01*
X85405848Y-97023663D01*
X85400055Y-97030055D01*
X85393663Y-97035848D01*
X85386735Y-97040986D01*
X85379336Y-97045421D01*
X85371538Y-97049109D01*
X85363416Y-97052015D01*
X85355048Y-97054111D01*
X85346516Y-97055377D01*
X85337900Y-97055800D01*
X85162100Y-97055800D01*
X85153484Y-97055377D01*
X85144952Y-97054111D01*
X85136584Y-97052015D01*
X85128462Y-97049109D01*
X85120664Y-97045421D01*
X85113265Y-97040986D01*
X85106337Y-97035848D01*
X85099945Y-97030055D01*
X85094152Y-97023663D01*
X85089014Y-97016735D01*
X85084579Y-97009336D01*
X85080891Y-97001538D01*
X85077985Y-96993416D01*
X85075889Y-96985048D01*
X85074623Y-96976516D01*
X85074200Y-96967900D01*
X85074200Y-96167100D01*
X85074623Y-96158484D01*
X85075889Y-96149952D01*
X85077985Y-96141584D01*
X85080891Y-96133462D01*
X85084579Y-96125664D01*
X85089014Y-96118265D01*
X85094152Y-96111337D01*
X85099945Y-96104945D01*
X85106337Y-96099152D01*
X85113265Y-96094014D01*
X85120664Y-96089579D01*
X85128462Y-96085891D01*
X85136584Y-96082985D01*
X85144952Y-96080889D01*
X85153484Y-96079623D01*
X85162100Y-96079200D01*
X85337900Y-96079200D01*
X85346516Y-96079623D01*
G37*
G36*
X85846516Y-96079623D02*
G01*
X85855048Y-96080889D01*
X85863416Y-96082985D01*
X85871538Y-96085891D01*
X85879336Y-96089579D01*
X85886735Y-96094014D01*
X85893663Y-96099152D01*
X85900055Y-96104945D01*
X85905848Y-96111337D01*
X85910986Y-96118265D01*
X85915421Y-96125664D01*
X85919109Y-96133462D01*
X85922015Y-96141584D01*
X85924111Y-96149952D01*
X85925377Y-96158484D01*
X85925800Y-96167100D01*
X85925800Y-96967900D01*
X85925377Y-96976516D01*
X85924111Y-96985048D01*
X85922015Y-96993416D01*
X85919109Y-97001538D01*
X85915421Y-97009336D01*
X85910986Y-97016735D01*
X85905848Y-97023663D01*
X85900055Y-97030055D01*
X85893663Y-97035848D01*
X85886735Y-97040986D01*
X85879336Y-97045421D01*
X85871538Y-97049109D01*
X85863416Y-97052015D01*
X85855048Y-97054111D01*
X85846516Y-97055377D01*
X85837900Y-97055800D01*
X85662100Y-97055800D01*
X85653484Y-97055377D01*
X85644952Y-97054111D01*
X85636584Y-97052015D01*
X85628462Y-97049109D01*
X85620664Y-97045421D01*
X85613265Y-97040986D01*
X85606337Y-97035848D01*
X85599945Y-97030055D01*
X85594152Y-97023663D01*
X85589014Y-97016735D01*
X85584579Y-97009336D01*
X85580891Y-97001538D01*
X85577985Y-96993416D01*
X85575889Y-96985048D01*
X85574623Y-96976516D01*
X85574200Y-96967900D01*
X85574200Y-96167100D01*
X85574623Y-96158484D01*
X85575889Y-96149952D01*
X85577985Y-96141584D01*
X85580891Y-96133462D01*
X85584579Y-96125664D01*
X85589014Y-96118265D01*
X85594152Y-96111337D01*
X85599945Y-96104945D01*
X85606337Y-96099152D01*
X85613265Y-96094014D01*
X85620664Y-96089579D01*
X85628462Y-96085891D01*
X85636584Y-96082985D01*
X85644952Y-96080889D01*
X85653484Y-96079623D01*
X85662100Y-96079200D01*
X85837900Y-96079200D01*
X85846516Y-96079623D01*
G37*
G36*
X86346516Y-96079623D02*
G01*
X86355048Y-96080889D01*
X86363416Y-96082985D01*
X86371538Y-96085891D01*
X86379336Y-96089579D01*
X86386735Y-96094014D01*
X86393663Y-96099152D01*
X86400055Y-96104945D01*
X86405848Y-96111337D01*
X86410986Y-96118265D01*
X86415421Y-96125664D01*
X86419109Y-96133462D01*
X86422015Y-96141584D01*
X86424111Y-96149952D01*
X86425377Y-96158484D01*
X86425800Y-96167100D01*
X86425800Y-96967900D01*
X86425377Y-96976516D01*
X86424111Y-96985048D01*
X86422015Y-96993416D01*
X86419109Y-97001538D01*
X86415421Y-97009336D01*
X86410986Y-97016735D01*
X86405848Y-97023663D01*
X86400055Y-97030055D01*
X86393663Y-97035848D01*
X86386735Y-97040986D01*
X86379336Y-97045421D01*
X86371538Y-97049109D01*
X86363416Y-97052015D01*
X86355048Y-97054111D01*
X86346516Y-97055377D01*
X86337900Y-97055800D01*
X86162100Y-97055800D01*
X86153484Y-97055377D01*
X86144952Y-97054111D01*
X86136584Y-97052015D01*
X86128462Y-97049109D01*
X86120664Y-97045421D01*
X86113265Y-97040986D01*
X86106337Y-97035848D01*
X86099945Y-97030055D01*
X86094152Y-97023663D01*
X86089014Y-97016735D01*
X86084579Y-97009336D01*
X86080891Y-97001538D01*
X86077985Y-96993416D01*
X86075889Y-96985048D01*
X86074623Y-96976516D01*
X86074200Y-96967900D01*
X86074200Y-96167100D01*
X86074623Y-96158484D01*
X86075889Y-96149952D01*
X86077985Y-96141584D01*
X86080891Y-96133462D01*
X86084579Y-96125664D01*
X86089014Y-96118265D01*
X86094152Y-96111337D01*
X86099945Y-96104945D01*
X86106337Y-96099152D01*
X86113265Y-96094014D01*
X86120664Y-96089579D01*
X86128462Y-96085891D01*
X86136584Y-96082985D01*
X86144952Y-96080889D01*
X86153484Y-96079623D01*
X86162100Y-96079200D01*
X86337900Y-96079200D01*
X86346516Y-96079623D01*
G37*
G36*
X87346516Y-97079623D02*
G01*
X87355048Y-97080889D01*
X87363416Y-97082985D01*
X87371538Y-97085891D01*
X87379336Y-97089579D01*
X87386735Y-97094014D01*
X87393663Y-97099152D01*
X87400055Y-97104945D01*
X87405848Y-97111337D01*
X87410986Y-97118265D01*
X87415421Y-97125664D01*
X87419109Y-97133462D01*
X87422015Y-97141584D01*
X87424111Y-97149952D01*
X87425377Y-97158484D01*
X87425800Y-97167100D01*
X87425800Y-97342900D01*
X87425377Y-97351516D01*
X87424111Y-97360048D01*
X87422015Y-97368416D01*
X87419109Y-97376538D01*
X87415421Y-97384336D01*
X87410986Y-97391735D01*
X87405848Y-97398663D01*
X87400055Y-97405055D01*
X87393663Y-97410848D01*
X87386735Y-97415986D01*
X87379336Y-97420421D01*
X87371538Y-97424109D01*
X87363416Y-97427015D01*
X87355048Y-97429111D01*
X87346516Y-97430377D01*
X87337900Y-97430800D01*
X86537100Y-97430800D01*
X86528484Y-97430377D01*
X86519952Y-97429111D01*
X86511584Y-97427015D01*
X86503462Y-97424109D01*
X86495664Y-97420421D01*
X86488265Y-97415986D01*
X86481337Y-97410848D01*
X86474945Y-97405055D01*
X86469152Y-97398663D01*
X86464014Y-97391735D01*
X86459579Y-97384336D01*
X86455891Y-97376538D01*
X86452985Y-97368416D01*
X86450889Y-97360048D01*
X86449623Y-97351516D01*
X86449200Y-97342900D01*
X86449200Y-97167100D01*
X86449623Y-97158484D01*
X86450889Y-97149952D01*
X86452985Y-97141584D01*
X86455891Y-97133462D01*
X86459579Y-97125664D01*
X86464014Y-97118265D01*
X86469152Y-97111337D01*
X86474945Y-97104945D01*
X86481337Y-97099152D01*
X86488265Y-97094014D01*
X86495664Y-97089579D01*
X86503462Y-97085891D01*
X86511584Y-97082985D01*
X86519952Y-97080889D01*
X86528484Y-97079623D01*
X86537100Y-97079200D01*
X87337900Y-97079200D01*
X87346516Y-97079623D01*
G37*
G36*
X87346516Y-97579623D02*
G01*
X87355048Y-97580889D01*
X87363416Y-97582985D01*
X87371538Y-97585891D01*
X87379336Y-97589579D01*
X87386735Y-97594014D01*
X87393663Y-97599152D01*
X87400055Y-97604945D01*
X87405848Y-97611337D01*
X87410986Y-97618265D01*
X87415421Y-97625664D01*
X87419109Y-97633462D01*
X87422015Y-97641584D01*
X87424111Y-97649952D01*
X87425377Y-97658484D01*
X87425800Y-97667100D01*
X87425800Y-97842900D01*
X87425377Y-97851516D01*
X87424111Y-97860048D01*
X87422015Y-97868416D01*
X87419109Y-97876538D01*
X87415421Y-97884336D01*
X87410986Y-97891735D01*
X87405848Y-97898663D01*
X87400055Y-97905055D01*
X87393663Y-97910848D01*
X87386735Y-97915986D01*
X87379336Y-97920421D01*
X87371538Y-97924109D01*
X87363416Y-97927015D01*
X87355048Y-97929111D01*
X87346516Y-97930377D01*
X87337900Y-97930800D01*
X86537100Y-97930800D01*
X86528484Y-97930377D01*
X86519952Y-97929111D01*
X86511584Y-97927015D01*
X86503462Y-97924109D01*
X86495664Y-97920421D01*
X86488265Y-97915986D01*
X86481337Y-97910848D01*
X86474945Y-97905055D01*
X86469152Y-97898663D01*
X86464014Y-97891735D01*
X86459579Y-97884336D01*
X86455891Y-97876538D01*
X86452985Y-97868416D01*
X86450889Y-97860048D01*
X86449623Y-97851516D01*
X86449200Y-97842900D01*
X86449200Y-97667100D01*
X86449623Y-97658484D01*
X86450889Y-97649952D01*
X86452985Y-97641584D01*
X86455891Y-97633462D01*
X86459579Y-97625664D01*
X86464014Y-97618265D01*
X86469152Y-97611337D01*
X86474945Y-97604945D01*
X86481337Y-97599152D01*
X86488265Y-97594014D01*
X86495664Y-97589579D01*
X86503462Y-97585891D01*
X86511584Y-97582985D01*
X86519952Y-97580889D01*
X86528484Y-97579623D01*
X86537100Y-97579200D01*
X87337900Y-97579200D01*
X87346516Y-97579623D01*
G37*
G36*
X87346516Y-98079623D02*
G01*
X87355048Y-98080889D01*
X87363416Y-98082985D01*
X87371538Y-98085891D01*
X87379336Y-98089579D01*
X87386735Y-98094014D01*
X87393663Y-98099152D01*
X87400055Y-98104945D01*
X87405848Y-98111337D01*
X87410986Y-98118265D01*
X87415421Y-98125664D01*
X87419109Y-98133462D01*
X87422015Y-98141584D01*
X87424111Y-98149952D01*
X87425377Y-98158484D01*
X87425800Y-98167100D01*
X87425800Y-98342900D01*
X87425377Y-98351516D01*
X87424111Y-98360048D01*
X87422015Y-98368416D01*
X87419109Y-98376538D01*
X87415421Y-98384336D01*
X87410986Y-98391735D01*
X87405848Y-98398663D01*
X87400055Y-98405055D01*
X87393663Y-98410848D01*
X87386735Y-98415986D01*
X87379336Y-98420421D01*
X87371538Y-98424109D01*
X87363416Y-98427015D01*
X87355048Y-98429111D01*
X87346516Y-98430377D01*
X87337900Y-98430800D01*
X86537100Y-98430800D01*
X86528484Y-98430377D01*
X86519952Y-98429111D01*
X86511584Y-98427015D01*
X86503462Y-98424109D01*
X86495664Y-98420421D01*
X86488265Y-98415986D01*
X86481337Y-98410848D01*
X86474945Y-98405055D01*
X86469152Y-98398663D01*
X86464014Y-98391735D01*
X86459579Y-98384336D01*
X86455891Y-98376538D01*
X86452985Y-98368416D01*
X86450889Y-98360048D01*
X86449623Y-98351516D01*
X86449200Y-98342900D01*
X86449200Y-98167100D01*
X86449623Y-98158484D01*
X86450889Y-98149952D01*
X86452985Y-98141584D01*
X86455891Y-98133462D01*
X86459579Y-98125664D01*
X86464014Y-98118265D01*
X86469152Y-98111337D01*
X86474945Y-98104945D01*
X86481337Y-98099152D01*
X86488265Y-98094014D01*
X86495664Y-98089579D01*
X86503462Y-98085891D01*
X86511584Y-98082985D01*
X86519952Y-98080889D01*
X86528484Y-98079623D01*
X86537100Y-98079200D01*
X87337900Y-98079200D01*
X87346516Y-98079623D01*
G37*
G36*
X87346516Y-98579623D02*
G01*
X87355048Y-98580889D01*
X87363416Y-98582985D01*
X87371538Y-98585891D01*
X87379336Y-98589579D01*
X87386735Y-98594014D01*
X87393663Y-98599152D01*
X87400055Y-98604945D01*
X87405848Y-98611337D01*
X87410986Y-98618265D01*
X87415421Y-98625664D01*
X87419109Y-98633462D01*
X87422015Y-98641584D01*
X87424111Y-98649952D01*
X87425377Y-98658484D01*
X87425800Y-98667100D01*
X87425800Y-98842900D01*
X87425377Y-98851516D01*
X87424111Y-98860048D01*
X87422015Y-98868416D01*
X87419109Y-98876538D01*
X87415421Y-98884336D01*
X87410986Y-98891735D01*
X87405848Y-98898663D01*
X87400055Y-98905055D01*
X87393663Y-98910848D01*
X87386735Y-98915986D01*
X87379336Y-98920421D01*
X87371538Y-98924109D01*
X87363416Y-98927015D01*
X87355048Y-98929111D01*
X87346516Y-98930377D01*
X87337900Y-98930800D01*
X86537100Y-98930800D01*
X86528484Y-98930377D01*
X86519952Y-98929111D01*
X86511584Y-98927015D01*
X86503462Y-98924109D01*
X86495664Y-98920421D01*
X86488265Y-98915986D01*
X86481337Y-98910848D01*
X86474945Y-98905055D01*
X86469152Y-98898663D01*
X86464014Y-98891735D01*
X86459579Y-98884336D01*
X86455891Y-98876538D01*
X86452985Y-98868416D01*
X86450889Y-98860048D01*
X86449623Y-98851516D01*
X86449200Y-98842900D01*
X86449200Y-98667100D01*
X86449623Y-98658484D01*
X86450889Y-98649952D01*
X86452985Y-98641584D01*
X86455891Y-98633462D01*
X86459579Y-98625664D01*
X86464014Y-98618265D01*
X86469152Y-98611337D01*
X86474945Y-98604945D01*
X86481337Y-98599152D01*
X86488265Y-98594014D01*
X86495664Y-98589579D01*
X86503462Y-98585891D01*
X86511584Y-98582985D01*
X86519952Y-98580889D01*
X86528484Y-98579623D01*
X86537100Y-98579200D01*
X87337900Y-98579200D01*
X87346516Y-98579623D01*
G37*
G36*
X87346516Y-99079623D02*
G01*
X87355048Y-99080889D01*
X87363416Y-99082985D01*
X87371538Y-99085891D01*
X87379336Y-99089579D01*
X87386735Y-99094014D01*
X87393663Y-99099152D01*
X87400055Y-99104945D01*
X87405848Y-99111337D01*
X87410986Y-99118265D01*
X87415421Y-99125664D01*
X87419109Y-99133462D01*
X87422015Y-99141584D01*
X87424111Y-99149952D01*
X87425377Y-99158484D01*
X87425800Y-99167100D01*
X87425800Y-99342900D01*
X87425377Y-99351516D01*
X87424111Y-99360048D01*
X87422015Y-99368416D01*
X87419109Y-99376538D01*
X87415421Y-99384336D01*
X87410986Y-99391735D01*
X87405848Y-99398663D01*
X87400055Y-99405055D01*
X87393663Y-99410848D01*
X87386735Y-99415986D01*
X87379336Y-99420421D01*
X87371538Y-99424109D01*
X87363416Y-99427015D01*
X87355048Y-99429111D01*
X87346516Y-99430377D01*
X87337900Y-99430800D01*
X86537100Y-99430800D01*
X86528484Y-99430377D01*
X86519952Y-99429111D01*
X86511584Y-99427015D01*
X86503462Y-99424109D01*
X86495664Y-99420421D01*
X86488265Y-99415986D01*
X86481337Y-99410848D01*
X86474945Y-99405055D01*
X86469152Y-99398663D01*
X86464014Y-99391735D01*
X86459579Y-99384336D01*
X86455891Y-99376538D01*
X86452985Y-99368416D01*
X86450889Y-99360048D01*
X86449623Y-99351516D01*
X86449200Y-99342900D01*
X86449200Y-99167100D01*
X86449623Y-99158484D01*
X86450889Y-99149952D01*
X86452985Y-99141584D01*
X86455891Y-99133462D01*
X86459579Y-99125664D01*
X86464014Y-99118265D01*
X86469152Y-99111337D01*
X86474945Y-99104945D01*
X86481337Y-99099152D01*
X86488265Y-99094014D01*
X86495664Y-99089579D01*
X86503462Y-99085891D01*
X86511584Y-99082985D01*
X86519952Y-99080889D01*
X86528484Y-99079623D01*
X86537100Y-99079200D01*
X87337900Y-99079200D01*
X87346516Y-99079623D01*
G37*
G36*
X87346516Y-99579623D02*
G01*
X87355048Y-99580889D01*
X87363416Y-99582985D01*
X87371538Y-99585891D01*
X87379336Y-99589579D01*
X87386735Y-99594014D01*
X87393663Y-99599152D01*
X87400055Y-99604945D01*
X87405848Y-99611337D01*
X87410986Y-99618265D01*
X87415421Y-99625664D01*
X87419109Y-99633462D01*
X87422015Y-99641584D01*
X87424111Y-99649952D01*
X87425377Y-99658484D01*
X87425800Y-99667100D01*
X87425800Y-99842900D01*
X87425377Y-99851516D01*
X87424111Y-99860048D01*
X87422015Y-99868416D01*
X87419109Y-99876538D01*
X87415421Y-99884336D01*
X87410986Y-99891735D01*
X87405848Y-99898663D01*
X87400055Y-99905055D01*
X87393663Y-99910848D01*
X87386735Y-99915986D01*
X87379336Y-99920421D01*
X87371538Y-99924109D01*
X87363416Y-99927015D01*
X87355048Y-99929111D01*
X87346516Y-99930377D01*
X87337900Y-99930800D01*
X86537100Y-99930800D01*
X86528484Y-99930377D01*
X86519952Y-99929111D01*
X86511584Y-99927015D01*
X86503462Y-99924109D01*
X86495664Y-99920421D01*
X86488265Y-99915986D01*
X86481337Y-99910848D01*
X86474945Y-99905055D01*
X86469152Y-99898663D01*
X86464014Y-99891735D01*
X86459579Y-99884336D01*
X86455891Y-99876538D01*
X86452985Y-99868416D01*
X86450889Y-99860048D01*
X86449623Y-99851516D01*
X86449200Y-99842900D01*
X86449200Y-99667100D01*
X86449623Y-99658484D01*
X86450889Y-99649952D01*
X86452985Y-99641584D01*
X86455891Y-99633462D01*
X86459579Y-99625664D01*
X86464014Y-99618265D01*
X86469152Y-99611337D01*
X86474945Y-99604945D01*
X86481337Y-99599152D01*
X86488265Y-99594014D01*
X86495664Y-99589579D01*
X86503462Y-99585891D01*
X86511584Y-99582985D01*
X86519952Y-99580889D01*
X86528484Y-99579623D01*
X86537100Y-99579200D01*
X87337900Y-99579200D01*
X87346516Y-99579623D01*
G37*
G36*
X87346516Y-100079623D02*
G01*
X87355048Y-100080889D01*
X87363416Y-100082985D01*
X87371538Y-100085891D01*
X87379336Y-100089579D01*
X87386735Y-100094014D01*
X87393663Y-100099152D01*
X87400055Y-100104945D01*
X87405848Y-100111337D01*
X87410986Y-100118265D01*
X87415421Y-100125664D01*
X87419109Y-100133462D01*
X87422015Y-100141584D01*
X87424111Y-100149952D01*
X87425377Y-100158484D01*
X87425800Y-100167100D01*
X87425800Y-100342900D01*
X87425377Y-100351516D01*
X87424111Y-100360048D01*
X87422015Y-100368416D01*
X87419109Y-100376538D01*
X87415421Y-100384336D01*
X87410986Y-100391735D01*
X87405848Y-100398663D01*
X87400055Y-100405055D01*
X87393663Y-100410848D01*
X87386735Y-100415986D01*
X87379336Y-100420421D01*
X87371538Y-100424109D01*
X87363416Y-100427015D01*
X87355048Y-100429111D01*
X87346516Y-100430377D01*
X87337900Y-100430800D01*
X86537100Y-100430800D01*
X86528484Y-100430377D01*
X86519952Y-100429111D01*
X86511584Y-100427015D01*
X86503462Y-100424109D01*
X86495664Y-100420421D01*
X86488265Y-100415986D01*
X86481337Y-100410848D01*
X86474945Y-100405055D01*
X86469152Y-100398663D01*
X86464014Y-100391735D01*
X86459579Y-100384336D01*
X86455891Y-100376538D01*
X86452985Y-100368416D01*
X86450889Y-100360048D01*
X86449623Y-100351516D01*
X86449200Y-100342900D01*
X86449200Y-100167100D01*
X86449623Y-100158484D01*
X86450889Y-100149952D01*
X86452985Y-100141584D01*
X86455891Y-100133462D01*
X86459579Y-100125664D01*
X86464014Y-100118265D01*
X86469152Y-100111337D01*
X86474945Y-100104945D01*
X86481337Y-100099152D01*
X86488265Y-100094014D01*
X86495664Y-100089579D01*
X86503462Y-100085891D01*
X86511584Y-100082985D01*
X86519952Y-100080889D01*
X86528484Y-100079623D01*
X86537100Y-100079200D01*
X87337900Y-100079200D01*
X87346516Y-100079623D01*
G37*
G36*
X87346516Y-100579623D02*
G01*
X87355048Y-100580889D01*
X87363416Y-100582985D01*
X87371538Y-100585891D01*
X87379336Y-100589579D01*
X87386735Y-100594014D01*
X87393663Y-100599152D01*
X87400055Y-100604945D01*
X87405848Y-100611337D01*
X87410986Y-100618265D01*
X87415421Y-100625664D01*
X87419109Y-100633462D01*
X87422015Y-100641584D01*
X87424111Y-100649952D01*
X87425377Y-100658484D01*
X87425800Y-100667100D01*
X87425800Y-100842900D01*
X87425377Y-100851516D01*
X87424111Y-100860048D01*
X87422015Y-100868416D01*
X87419109Y-100876538D01*
X87415421Y-100884336D01*
X87410986Y-100891735D01*
X87405848Y-100898663D01*
X87400055Y-100905055D01*
X87393663Y-100910848D01*
X87386735Y-100915986D01*
X87379336Y-100920421D01*
X87371538Y-100924109D01*
X87363416Y-100927015D01*
X87355048Y-100929111D01*
X87346516Y-100930377D01*
X87337900Y-100930800D01*
X86537100Y-100930800D01*
X86528484Y-100930377D01*
X86519952Y-100929111D01*
X86511584Y-100927015D01*
X86503462Y-100924109D01*
X86495664Y-100920421D01*
X86488265Y-100915986D01*
X86481337Y-100910848D01*
X86474945Y-100905055D01*
X86469152Y-100898663D01*
X86464014Y-100891735D01*
X86459579Y-100884336D01*
X86455891Y-100876538D01*
X86452985Y-100868416D01*
X86450889Y-100860048D01*
X86449623Y-100851516D01*
X86449200Y-100842900D01*
X86449200Y-100667100D01*
X86449623Y-100658484D01*
X86450889Y-100649952D01*
X86452985Y-100641584D01*
X86455891Y-100633462D01*
X86459579Y-100625664D01*
X86464014Y-100618265D01*
X86469152Y-100611337D01*
X86474945Y-100604945D01*
X86481337Y-100599152D01*
X86488265Y-100594014D01*
X86495664Y-100589579D01*
X86503462Y-100585891D01*
X86511584Y-100582985D01*
X86519952Y-100580889D01*
X86528484Y-100579623D01*
X86537100Y-100579200D01*
X87337900Y-100579200D01*
X87346516Y-100579623D01*
G37*
G36*
X87346516Y-101079623D02*
G01*
X87355048Y-101080889D01*
X87363416Y-101082985D01*
X87371538Y-101085891D01*
X87379336Y-101089579D01*
X87386735Y-101094014D01*
X87393663Y-101099152D01*
X87400055Y-101104945D01*
X87405848Y-101111337D01*
X87410986Y-101118265D01*
X87415421Y-101125664D01*
X87419109Y-101133462D01*
X87422015Y-101141584D01*
X87424111Y-101149952D01*
X87425377Y-101158484D01*
X87425800Y-101167100D01*
X87425800Y-101342900D01*
X87425377Y-101351516D01*
X87424111Y-101360048D01*
X87422015Y-101368416D01*
X87419109Y-101376538D01*
X87415421Y-101384336D01*
X87410986Y-101391735D01*
X87405848Y-101398663D01*
X87400055Y-101405055D01*
X87393663Y-101410848D01*
X87386735Y-101415986D01*
X87379336Y-101420421D01*
X87371538Y-101424109D01*
X87363416Y-101427015D01*
X87355048Y-101429111D01*
X87346516Y-101430377D01*
X87337900Y-101430800D01*
X86537100Y-101430800D01*
X86528484Y-101430377D01*
X86519952Y-101429111D01*
X86511584Y-101427015D01*
X86503462Y-101424109D01*
X86495664Y-101420421D01*
X86488265Y-101415986D01*
X86481337Y-101410848D01*
X86474945Y-101405055D01*
X86469152Y-101398663D01*
X86464014Y-101391735D01*
X86459579Y-101384336D01*
X86455891Y-101376538D01*
X86452985Y-101368416D01*
X86450889Y-101360048D01*
X86449623Y-101351516D01*
X86449200Y-101342900D01*
X86449200Y-101167100D01*
X86449623Y-101158484D01*
X86450889Y-101149952D01*
X86452985Y-101141584D01*
X86455891Y-101133462D01*
X86459579Y-101125664D01*
X86464014Y-101118265D01*
X86469152Y-101111337D01*
X86474945Y-101104945D01*
X86481337Y-101099152D01*
X86488265Y-101094014D01*
X86495664Y-101089579D01*
X86503462Y-101085891D01*
X86511584Y-101082985D01*
X86519952Y-101080889D01*
X86528484Y-101079623D01*
X86537100Y-101079200D01*
X87337900Y-101079200D01*
X87346516Y-101079623D01*
G37*
G36*
X87346516Y-101579623D02*
G01*
X87355048Y-101580889D01*
X87363416Y-101582985D01*
X87371538Y-101585891D01*
X87379336Y-101589579D01*
X87386735Y-101594014D01*
X87393663Y-101599152D01*
X87400055Y-101604945D01*
X87405848Y-101611337D01*
X87410986Y-101618265D01*
X87415421Y-101625664D01*
X87419109Y-101633462D01*
X87422015Y-101641584D01*
X87424111Y-101649952D01*
X87425377Y-101658484D01*
X87425800Y-101667100D01*
X87425800Y-101842900D01*
X87425377Y-101851516D01*
X87424111Y-101860048D01*
X87422015Y-101868416D01*
X87419109Y-101876538D01*
X87415421Y-101884336D01*
X87410986Y-101891735D01*
X87405848Y-101898663D01*
X87400055Y-101905055D01*
X87393663Y-101910848D01*
X87386735Y-101915986D01*
X87379336Y-101920421D01*
X87371538Y-101924109D01*
X87363416Y-101927015D01*
X87355048Y-101929111D01*
X87346516Y-101930377D01*
X87337900Y-101930800D01*
X86537100Y-101930800D01*
X86528484Y-101930377D01*
X86519952Y-101929111D01*
X86511584Y-101927015D01*
X86503462Y-101924109D01*
X86495664Y-101920421D01*
X86488265Y-101915986D01*
X86481337Y-101910848D01*
X86474945Y-101905055D01*
X86469152Y-101898663D01*
X86464014Y-101891735D01*
X86459579Y-101884336D01*
X86455891Y-101876538D01*
X86452985Y-101868416D01*
X86450889Y-101860048D01*
X86449623Y-101851516D01*
X86449200Y-101842900D01*
X86449200Y-101667100D01*
X86449623Y-101658484D01*
X86450889Y-101649952D01*
X86452985Y-101641584D01*
X86455891Y-101633462D01*
X86459579Y-101625664D01*
X86464014Y-101618265D01*
X86469152Y-101611337D01*
X86474945Y-101604945D01*
X86481337Y-101599152D01*
X86488265Y-101594014D01*
X86495664Y-101589579D01*
X86503462Y-101585891D01*
X86511584Y-101582985D01*
X86519952Y-101580889D01*
X86528484Y-101579623D01*
X86537100Y-101579200D01*
X87337900Y-101579200D01*
X87346516Y-101579623D01*
G37*
G36*
X87346516Y-102079623D02*
G01*
X87355048Y-102080889D01*
X87363416Y-102082985D01*
X87371538Y-102085891D01*
X87379336Y-102089579D01*
X87386735Y-102094014D01*
X87393663Y-102099152D01*
X87400055Y-102104945D01*
X87405848Y-102111337D01*
X87410986Y-102118265D01*
X87415421Y-102125664D01*
X87419109Y-102133462D01*
X87422015Y-102141584D01*
X87424111Y-102149952D01*
X87425377Y-102158484D01*
X87425800Y-102167100D01*
X87425800Y-102342900D01*
X87425377Y-102351516D01*
X87424111Y-102360048D01*
X87422015Y-102368416D01*
X87419109Y-102376538D01*
X87415421Y-102384336D01*
X87410986Y-102391735D01*
X87405848Y-102398663D01*
X87400055Y-102405055D01*
X87393663Y-102410848D01*
X87386735Y-102415986D01*
X87379336Y-102420421D01*
X87371538Y-102424109D01*
X87363416Y-102427015D01*
X87355048Y-102429111D01*
X87346516Y-102430377D01*
X87337900Y-102430800D01*
X86537100Y-102430800D01*
X86528484Y-102430377D01*
X86519952Y-102429111D01*
X86511584Y-102427015D01*
X86503462Y-102424109D01*
X86495664Y-102420421D01*
X86488265Y-102415986D01*
X86481337Y-102410848D01*
X86474945Y-102405055D01*
X86469152Y-102398663D01*
X86464014Y-102391735D01*
X86459579Y-102384336D01*
X86455891Y-102376538D01*
X86452985Y-102368416D01*
X86450889Y-102360048D01*
X86449623Y-102351516D01*
X86449200Y-102342900D01*
X86449200Y-102167100D01*
X86449623Y-102158484D01*
X86450889Y-102149952D01*
X86452985Y-102141584D01*
X86455891Y-102133462D01*
X86459579Y-102125664D01*
X86464014Y-102118265D01*
X86469152Y-102111337D01*
X86474945Y-102104945D01*
X86481337Y-102099152D01*
X86488265Y-102094014D01*
X86495664Y-102089579D01*
X86503462Y-102085891D01*
X86511584Y-102082985D01*
X86519952Y-102080889D01*
X86528484Y-102079623D01*
X86537100Y-102079200D01*
X87337900Y-102079200D01*
X87346516Y-102079623D01*
G37*
G36*
X87346516Y-102579623D02*
G01*
X87355048Y-102580889D01*
X87363416Y-102582985D01*
X87371538Y-102585891D01*
X87379336Y-102589579D01*
X87386735Y-102594014D01*
X87393663Y-102599152D01*
X87400055Y-102604945D01*
X87405848Y-102611337D01*
X87410986Y-102618265D01*
X87415421Y-102625664D01*
X87419109Y-102633462D01*
X87422015Y-102641584D01*
X87424111Y-102649952D01*
X87425377Y-102658484D01*
X87425800Y-102667100D01*
X87425800Y-102842900D01*
X87425377Y-102851516D01*
X87424111Y-102860048D01*
X87422015Y-102868416D01*
X87419109Y-102876538D01*
X87415421Y-102884336D01*
X87410986Y-102891735D01*
X87405848Y-102898663D01*
X87400055Y-102905055D01*
X87393663Y-102910848D01*
X87386735Y-102915986D01*
X87379336Y-102920421D01*
X87371538Y-102924109D01*
X87363416Y-102927015D01*
X87355048Y-102929111D01*
X87346516Y-102930377D01*
X87337900Y-102930800D01*
X86537100Y-102930800D01*
X86528484Y-102930377D01*
X86519952Y-102929111D01*
X86511584Y-102927015D01*
X86503462Y-102924109D01*
X86495664Y-102920421D01*
X86488265Y-102915986D01*
X86481337Y-102910848D01*
X86474945Y-102905055D01*
X86469152Y-102898663D01*
X86464014Y-102891735D01*
X86459579Y-102884336D01*
X86455891Y-102876538D01*
X86452985Y-102868416D01*
X86450889Y-102860048D01*
X86449623Y-102851516D01*
X86449200Y-102842900D01*
X86449200Y-102667100D01*
X86449623Y-102658484D01*
X86450889Y-102649952D01*
X86452985Y-102641584D01*
X86455891Y-102633462D01*
X86459579Y-102625664D01*
X86464014Y-102618265D01*
X86469152Y-102611337D01*
X86474945Y-102604945D01*
X86481337Y-102599152D01*
X86488265Y-102594014D01*
X86495664Y-102589579D01*
X86503462Y-102585891D01*
X86511584Y-102582985D01*
X86519952Y-102580889D01*
X86528484Y-102579623D01*
X86537100Y-102579200D01*
X87337900Y-102579200D01*
X87346516Y-102579623D01*
G37*
G36*
X86121213Y-97155426D02*
G01*
X86145922Y-97159091D01*
X86170152Y-97165160D01*
X86193671Y-97173575D01*
X86216251Y-97184255D01*
X86237677Y-97197097D01*
X86257740Y-97211977D01*
X86276248Y-97228752D01*
X86293023Y-97247260D01*
X86307903Y-97267323D01*
X86320745Y-97288749D01*
X86331425Y-97311329D01*
X86339840Y-97334848D01*
X86345909Y-97359078D01*
X86349574Y-97383787D01*
X86350800Y-97408736D01*
X86350800Y-102601264D01*
X86349574Y-102626213D01*
X86345909Y-102650922D01*
X86339840Y-102675152D01*
X86331425Y-102698671D01*
X86320745Y-102721251D01*
X86307903Y-102742677D01*
X86293023Y-102762740D01*
X86276248Y-102781248D01*
X86257740Y-102798023D01*
X86237677Y-102812903D01*
X86216251Y-102825745D01*
X86193671Y-102836425D01*
X86170152Y-102844840D01*
X86145922Y-102850909D01*
X86121213Y-102854574D01*
X86096264Y-102855800D01*
X80903736Y-102855800D01*
X80878787Y-102854574D01*
X80854078Y-102850909D01*
X80829848Y-102844840D01*
X80806329Y-102836425D01*
X80783749Y-102825745D01*
X80762323Y-102812903D01*
X80742260Y-102798023D01*
X80723752Y-102781248D01*
X80706977Y-102762740D01*
X80692097Y-102742677D01*
X80679255Y-102721251D01*
X80668575Y-102698671D01*
X80660160Y-102675152D01*
X80654091Y-102650922D01*
X80650426Y-102626213D01*
X80649200Y-102601264D01*
X80649200Y-97408736D01*
X80650426Y-97383787D01*
X80654091Y-97359078D01*
X80660160Y-97334848D01*
X80668575Y-97311329D01*
X80679255Y-97288749D01*
X80692097Y-97267323D01*
X80706977Y-97247260D01*
X80723752Y-97228752D01*
X80742260Y-97211977D01*
X80762323Y-97197097D01*
X80783749Y-97184255D01*
X80806329Y-97173575D01*
X80829848Y-97165160D01*
X80854078Y-97159091D01*
X80878787Y-97155426D01*
X80903736Y-97154200D01*
X86096264Y-97154200D01*
X86121213Y-97155426D01*
G37*
G36*
X76040581Y-101690376D02*
G01*
X76064281Y-101693891D01*
X76087523Y-101699713D01*
X76110082Y-101707785D01*
X76131742Y-101718029D01*
X76152292Y-101730347D01*
X76171537Y-101744619D01*
X76189290Y-101760710D01*
X76205381Y-101778463D01*
X76219653Y-101797708D01*
X76231971Y-101818258D01*
X76242215Y-101839918D01*
X76250287Y-101862477D01*
X76256109Y-101885719D01*
X76259624Y-101909419D01*
X76260800Y-101933350D01*
X76260800Y-102496650D01*
X76259624Y-102520581D01*
X76256109Y-102544281D01*
X76250287Y-102567523D01*
X76242215Y-102590082D01*
X76231971Y-102611742D01*
X76219653Y-102632292D01*
X76205381Y-102651537D01*
X76189290Y-102669290D01*
X76171537Y-102685381D01*
X76152292Y-102699653D01*
X76131742Y-102711971D01*
X76110082Y-102722215D01*
X76087523Y-102730287D01*
X76064281Y-102736109D01*
X76040581Y-102739624D01*
X76016650Y-102740800D01*
X75528350Y-102740800D01*
X75504419Y-102739624D01*
X75480719Y-102736109D01*
X75457477Y-102730287D01*
X75434918Y-102722215D01*
X75413258Y-102711971D01*
X75392708Y-102699653D01*
X75373463Y-102685381D01*
X75355710Y-102669290D01*
X75339619Y-102651537D01*
X75325347Y-102632292D01*
X75313029Y-102611742D01*
X75302785Y-102590082D01*
X75294713Y-102567523D01*
X75288891Y-102544281D01*
X75285376Y-102520581D01*
X75284200Y-102496650D01*
X75284200Y-101933350D01*
X75285376Y-101909419D01*
X75288891Y-101885719D01*
X75294713Y-101862477D01*
X75302785Y-101839918D01*
X75313029Y-101818258D01*
X75325347Y-101797708D01*
X75339619Y-101778463D01*
X75355710Y-101760710D01*
X75373463Y-101744619D01*
X75392708Y-101730347D01*
X75413258Y-101718029D01*
X75434918Y-101707785D01*
X75457477Y-101699713D01*
X75480719Y-101693891D01*
X75504419Y-101690376D01*
X75528350Y-101689200D01*
X76016650Y-101689200D01*
X76040581Y-101690376D01*
G37*
G36*
X77615581Y-101690376D02*
G01*
X77639281Y-101693891D01*
X77662523Y-101699713D01*
X77685082Y-101707785D01*
X77706742Y-101718029D01*
X77727292Y-101730347D01*
X77746537Y-101744619D01*
X77764290Y-101760710D01*
X77780381Y-101778463D01*
X77794653Y-101797708D01*
X77806971Y-101818258D01*
X77817215Y-101839918D01*
X77825287Y-101862477D01*
X77831109Y-101885719D01*
X77834624Y-101909419D01*
X77835800Y-101933350D01*
X77835800Y-102496650D01*
X77834624Y-102520581D01*
X77831109Y-102544281D01*
X77825287Y-102567523D01*
X77817215Y-102590082D01*
X77806971Y-102611742D01*
X77794653Y-102632292D01*
X77780381Y-102651537D01*
X77764290Y-102669290D01*
X77746537Y-102685381D01*
X77727292Y-102699653D01*
X77706742Y-102711971D01*
X77685082Y-102722215D01*
X77662523Y-102730287D01*
X77639281Y-102736109D01*
X77615581Y-102739624D01*
X77591650Y-102740800D01*
X77103350Y-102740800D01*
X77079419Y-102739624D01*
X77055719Y-102736109D01*
X77032477Y-102730287D01*
X77009918Y-102722215D01*
X76988258Y-102711971D01*
X76967708Y-102699653D01*
X76948463Y-102685381D01*
X76930710Y-102669290D01*
X76914619Y-102651537D01*
X76900347Y-102632292D01*
X76888029Y-102611742D01*
X76877785Y-102590082D01*
X76869713Y-102567523D01*
X76863891Y-102544281D01*
X76860376Y-102520581D01*
X76859200Y-102496650D01*
X76859200Y-101933350D01*
X76860376Y-101909419D01*
X76863891Y-101885719D01*
X76869713Y-101862477D01*
X76877785Y-101839918D01*
X76888029Y-101818258D01*
X76900347Y-101797708D01*
X76914619Y-101778463D01*
X76930710Y-101760710D01*
X76948463Y-101744619D01*
X76967708Y-101730347D01*
X76988258Y-101718029D01*
X77009918Y-101707785D01*
X77032477Y-101699713D01*
X77055719Y-101693891D01*
X77079419Y-101690376D01*
X77103350Y-101689200D01*
X77591650Y-101689200D01*
X77615581Y-101690376D01*
G37*
G36*
X78625581Y-95740376D02*
G01*
X78649281Y-95743891D01*
X78672523Y-95749713D01*
X78695082Y-95757785D01*
X78716742Y-95768029D01*
X78737292Y-95780347D01*
X78756537Y-95794619D01*
X78774290Y-95810710D01*
X78790381Y-95828463D01*
X78804653Y-95847708D01*
X78816971Y-95868258D01*
X78827215Y-95889918D01*
X78835287Y-95912477D01*
X78841109Y-95935719D01*
X78844624Y-95959419D01*
X78845800Y-95983350D01*
X78845800Y-96471650D01*
X78844624Y-96495581D01*
X78841109Y-96519281D01*
X78835287Y-96542523D01*
X78827215Y-96565082D01*
X78816971Y-96586742D01*
X78804653Y-96607292D01*
X78790381Y-96626537D01*
X78774290Y-96644290D01*
X78756537Y-96660381D01*
X78737292Y-96674653D01*
X78716742Y-96686971D01*
X78695082Y-96697215D01*
X78672523Y-96705287D01*
X78649281Y-96711109D01*
X78625581Y-96714624D01*
X78601650Y-96715800D01*
X78038350Y-96715800D01*
X78014419Y-96714624D01*
X77990719Y-96711109D01*
X77967477Y-96705287D01*
X77944918Y-96697215D01*
X77923258Y-96686971D01*
X77902708Y-96674653D01*
X77883463Y-96660381D01*
X77865710Y-96644290D01*
X77849619Y-96626537D01*
X77835347Y-96607292D01*
X77823029Y-96586742D01*
X77812785Y-96565082D01*
X77804713Y-96542523D01*
X77798891Y-96519281D01*
X77795376Y-96495581D01*
X77794200Y-96471650D01*
X77794200Y-95983350D01*
X77795376Y-95959419D01*
X77798891Y-95935719D01*
X77804713Y-95912477D01*
X77812785Y-95889918D01*
X77823029Y-95868258D01*
X77835347Y-95847708D01*
X77849619Y-95828463D01*
X77865710Y-95810710D01*
X77883463Y-95794619D01*
X77902708Y-95780347D01*
X77923258Y-95768029D01*
X77944918Y-95757785D01*
X77967477Y-95749713D01*
X77990719Y-95743891D01*
X78014419Y-95740376D01*
X78038350Y-95739200D01*
X78601650Y-95739200D01*
X78625581Y-95740376D01*
G37*
G36*
X78625581Y-97315376D02*
G01*
X78649281Y-97318891D01*
X78672523Y-97324713D01*
X78695082Y-97332785D01*
X78716742Y-97343029D01*
X78737292Y-97355347D01*
X78756537Y-97369619D01*
X78774290Y-97385710D01*
X78790381Y-97403463D01*
X78804653Y-97422708D01*
X78816971Y-97443258D01*
X78827215Y-97464918D01*
X78835287Y-97487477D01*
X78841109Y-97510719D01*
X78844624Y-97534419D01*
X78845800Y-97558350D01*
X78845800Y-98046650D01*
X78844624Y-98070581D01*
X78841109Y-98094281D01*
X78835287Y-98117523D01*
X78827215Y-98140082D01*
X78816971Y-98161742D01*
X78804653Y-98182292D01*
X78790381Y-98201537D01*
X78774290Y-98219290D01*
X78756537Y-98235381D01*
X78737292Y-98249653D01*
X78716742Y-98261971D01*
X78695082Y-98272215D01*
X78672523Y-98280287D01*
X78649281Y-98286109D01*
X78625581Y-98289624D01*
X78601650Y-98290800D01*
X78038350Y-98290800D01*
X78014419Y-98289624D01*
X77990719Y-98286109D01*
X77967477Y-98280287D01*
X77944918Y-98272215D01*
X77923258Y-98261971D01*
X77902708Y-98249653D01*
X77883463Y-98235381D01*
X77865710Y-98219290D01*
X77849619Y-98201537D01*
X77835347Y-98182292D01*
X77823029Y-98161742D01*
X77812785Y-98140082D01*
X77804713Y-98117523D01*
X77798891Y-98094281D01*
X77795376Y-98070581D01*
X77794200Y-98046650D01*
X77794200Y-97558350D01*
X77795376Y-97534419D01*
X77798891Y-97510719D01*
X77804713Y-97487477D01*
X77812785Y-97464918D01*
X77823029Y-97443258D01*
X77835347Y-97422708D01*
X77849619Y-97403463D01*
X77865710Y-97385710D01*
X77883463Y-97369619D01*
X77902708Y-97355347D01*
X77923258Y-97343029D01*
X77944918Y-97332785D01*
X77967477Y-97324713D01*
X77990719Y-97318891D01*
X78014419Y-97315376D01*
X78038350Y-97314200D01*
X78601650Y-97314200D01*
X78625581Y-97315376D01*
G37*
G36*
X77155581Y-97325376D02*
G01*
X77179281Y-97328891D01*
X77202523Y-97334713D01*
X77225082Y-97342785D01*
X77246742Y-97353029D01*
X77267292Y-97365347D01*
X77286537Y-97379619D01*
X77304290Y-97395710D01*
X77320381Y-97413463D01*
X77334653Y-97432708D01*
X77346971Y-97453258D01*
X77357215Y-97474918D01*
X77365287Y-97497477D01*
X77371109Y-97520719D01*
X77374624Y-97544419D01*
X77375800Y-97568350D01*
X77375800Y-98056650D01*
X77374624Y-98080581D01*
X77371109Y-98104281D01*
X77365287Y-98127523D01*
X77357215Y-98150082D01*
X77346971Y-98171742D01*
X77334653Y-98192292D01*
X77320381Y-98211537D01*
X77304290Y-98229290D01*
X77286537Y-98245381D01*
X77267292Y-98259653D01*
X77246742Y-98271971D01*
X77225082Y-98282215D01*
X77202523Y-98290287D01*
X77179281Y-98296109D01*
X77155581Y-98299624D01*
X77131650Y-98300800D01*
X76568350Y-98300800D01*
X76544419Y-98299624D01*
X76520719Y-98296109D01*
X76497477Y-98290287D01*
X76474918Y-98282215D01*
X76453258Y-98271971D01*
X76432708Y-98259653D01*
X76413463Y-98245381D01*
X76395710Y-98229290D01*
X76379619Y-98211537D01*
X76365347Y-98192292D01*
X76353029Y-98171742D01*
X76342785Y-98150082D01*
X76334713Y-98127523D01*
X76328891Y-98104281D01*
X76325376Y-98080581D01*
X76324200Y-98056650D01*
X76324200Y-97568350D01*
X76325376Y-97544419D01*
X76328891Y-97520719D01*
X76334713Y-97497477D01*
X76342785Y-97474918D01*
X76353029Y-97453258D01*
X76365347Y-97432708D01*
X76379619Y-97413463D01*
X76395710Y-97395710D01*
X76413463Y-97379619D01*
X76432708Y-97365347D01*
X76453258Y-97353029D01*
X76474918Y-97342785D01*
X76497477Y-97334713D01*
X76520719Y-97328891D01*
X76544419Y-97325376D01*
X76568350Y-97324200D01*
X77131650Y-97324200D01*
X77155581Y-97325376D01*
G37*
G36*
X77155581Y-95750376D02*
G01*
X77179281Y-95753891D01*
X77202523Y-95759713D01*
X77225082Y-95767785D01*
X77246742Y-95778029D01*
X77267292Y-95790347D01*
X77286537Y-95804619D01*
X77304290Y-95820710D01*
X77320381Y-95838463D01*
X77334653Y-95857708D01*
X77346971Y-95878258D01*
X77357215Y-95899918D01*
X77365287Y-95922477D01*
X77371109Y-95945719D01*
X77374624Y-95969419D01*
X77375800Y-95993350D01*
X77375800Y-96481650D01*
X77374624Y-96505581D01*
X77371109Y-96529281D01*
X77365287Y-96552523D01*
X77357215Y-96575082D01*
X77346971Y-96596742D01*
X77334653Y-96617292D01*
X77320381Y-96636537D01*
X77304290Y-96654290D01*
X77286537Y-96670381D01*
X77267292Y-96684653D01*
X77246742Y-96696971D01*
X77225082Y-96707215D01*
X77202523Y-96715287D01*
X77179281Y-96721109D01*
X77155581Y-96724624D01*
X77131650Y-96725800D01*
X76568350Y-96725800D01*
X76544419Y-96724624D01*
X76520719Y-96721109D01*
X76497477Y-96715287D01*
X76474918Y-96707215D01*
X76453258Y-96696971D01*
X76432708Y-96684653D01*
X76413463Y-96670381D01*
X76395710Y-96654290D01*
X76379619Y-96636537D01*
X76365347Y-96617292D01*
X76353029Y-96596742D01*
X76342785Y-96575082D01*
X76334713Y-96552523D01*
X76328891Y-96529281D01*
X76325376Y-96505581D01*
X76324200Y-96481650D01*
X76324200Y-95993350D01*
X76325376Y-95969419D01*
X76328891Y-95945719D01*
X76334713Y-95922477D01*
X76342785Y-95899918D01*
X76353029Y-95878258D01*
X76365347Y-95857708D01*
X76379619Y-95838463D01*
X76395710Y-95820710D01*
X76413463Y-95804619D01*
X76432708Y-95790347D01*
X76453258Y-95778029D01*
X76474918Y-95767785D01*
X76497477Y-95759713D01*
X76520719Y-95753891D01*
X76544419Y-95750376D01*
X76568350Y-95749200D01*
X77131650Y-95749200D01*
X77155581Y-95750376D01*
G37*
D15*
X116275000Y-102650000D03*
X116275000Y-97350000D03*
D16*
X92700000Y-99425000D03*
X93350000Y-101425000D03*
X92050000Y-101425000D03*
X95650000Y-99425000D03*
X96300000Y-101425000D03*
X95000000Y-101425000D03*
X98675000Y-99425000D03*
X99325000Y-101425000D03*
X98025000Y-101425000D03*
X101675000Y-99450000D03*
X102325000Y-101450000D03*
X101025000Y-101450000D03*
D17*
X107345000Y-95175000D03*
X107345000Y-93275000D03*
X110045000Y-93275000D03*
X110045000Y-94225000D03*
X110045000Y-95175000D03*
D14*
G36*
X104455581Y-94770376D02*
G01*
X104479281Y-94773891D01*
X104502523Y-94779713D01*
X104525082Y-94787785D01*
X104546742Y-94798029D01*
X104567292Y-94810347D01*
X104586537Y-94824619D01*
X104604290Y-94840710D01*
X104620381Y-94858463D01*
X104634653Y-94877708D01*
X104646971Y-94898258D01*
X104657215Y-94919918D01*
X104665287Y-94942477D01*
X104671109Y-94965719D01*
X104674624Y-94989419D01*
X104675800Y-95013350D01*
X104675800Y-95576650D01*
X104674624Y-95600581D01*
X104671109Y-95624281D01*
X104665287Y-95647523D01*
X104657215Y-95670082D01*
X104646971Y-95691742D01*
X104634653Y-95712292D01*
X104620381Y-95731537D01*
X104604290Y-95749290D01*
X104586537Y-95765381D01*
X104567292Y-95779653D01*
X104546742Y-95791971D01*
X104525082Y-95802215D01*
X104502523Y-95810287D01*
X104479281Y-95816109D01*
X104455581Y-95819624D01*
X104431650Y-95820800D01*
X103943350Y-95820800D01*
X103919419Y-95819624D01*
X103895719Y-95816109D01*
X103872477Y-95810287D01*
X103849918Y-95802215D01*
X103828258Y-95791971D01*
X103807708Y-95779653D01*
X103788463Y-95765381D01*
X103770710Y-95749290D01*
X103754619Y-95731537D01*
X103740347Y-95712292D01*
X103728029Y-95691742D01*
X103717785Y-95670082D01*
X103709713Y-95647523D01*
X103703891Y-95624281D01*
X103700376Y-95600581D01*
X103699200Y-95576650D01*
X103699200Y-95013350D01*
X103700376Y-94989419D01*
X103703891Y-94965719D01*
X103709713Y-94942477D01*
X103717785Y-94919918D01*
X103728029Y-94898258D01*
X103740347Y-94877708D01*
X103754619Y-94858463D01*
X103770710Y-94840710D01*
X103788463Y-94824619D01*
X103807708Y-94810347D01*
X103828258Y-94798029D01*
X103849918Y-94787785D01*
X103872477Y-94779713D01*
X103895719Y-94773891D01*
X103919419Y-94770376D01*
X103943350Y-94769200D01*
X104431650Y-94769200D01*
X104455581Y-94770376D01*
G37*
G36*
X106030581Y-94770376D02*
G01*
X106054281Y-94773891D01*
X106077523Y-94779713D01*
X106100082Y-94787785D01*
X106121742Y-94798029D01*
X106142292Y-94810347D01*
X106161537Y-94824619D01*
X106179290Y-94840710D01*
X106195381Y-94858463D01*
X106209653Y-94877708D01*
X106221971Y-94898258D01*
X106232215Y-94919918D01*
X106240287Y-94942477D01*
X106246109Y-94965719D01*
X106249624Y-94989419D01*
X106250800Y-95013350D01*
X106250800Y-95576650D01*
X106249624Y-95600581D01*
X106246109Y-95624281D01*
X106240287Y-95647523D01*
X106232215Y-95670082D01*
X106221971Y-95691742D01*
X106209653Y-95712292D01*
X106195381Y-95731537D01*
X106179290Y-95749290D01*
X106161537Y-95765381D01*
X106142292Y-95779653D01*
X106121742Y-95791971D01*
X106100082Y-95802215D01*
X106077523Y-95810287D01*
X106054281Y-95816109D01*
X106030581Y-95819624D01*
X106006650Y-95820800D01*
X105518350Y-95820800D01*
X105494419Y-95819624D01*
X105470719Y-95816109D01*
X105447477Y-95810287D01*
X105424918Y-95802215D01*
X105403258Y-95791971D01*
X105382708Y-95779653D01*
X105363463Y-95765381D01*
X105345710Y-95749290D01*
X105329619Y-95731537D01*
X105315347Y-95712292D01*
X105303029Y-95691742D01*
X105292785Y-95670082D01*
X105284713Y-95647523D01*
X105278891Y-95624281D01*
X105275376Y-95600581D01*
X105274200Y-95576650D01*
X105274200Y-95013350D01*
X105275376Y-94989419D01*
X105278891Y-94965719D01*
X105284713Y-94942477D01*
X105292785Y-94919918D01*
X105303029Y-94898258D01*
X105315347Y-94877708D01*
X105329619Y-94858463D01*
X105345710Y-94840710D01*
X105363463Y-94824619D01*
X105382708Y-94810347D01*
X105403258Y-94798029D01*
X105424918Y-94787785D01*
X105447477Y-94779713D01*
X105470719Y-94773891D01*
X105494419Y-94770376D01*
X105518350Y-94769200D01*
X106006650Y-94769200D01*
X106030581Y-94770376D01*
G37*
G36*
X63455581Y-94425376D02*
G01*
X63479281Y-94428891D01*
X63502523Y-94434713D01*
X63525082Y-94442785D01*
X63546742Y-94453029D01*
X63567292Y-94465347D01*
X63586537Y-94479619D01*
X63604290Y-94495710D01*
X63620381Y-94513463D01*
X63634653Y-94532708D01*
X63646971Y-94553258D01*
X63657215Y-94574918D01*
X63665287Y-94597477D01*
X63671109Y-94620719D01*
X63674624Y-94644419D01*
X63675800Y-94668350D01*
X63675800Y-95231650D01*
X63674624Y-95255581D01*
X63671109Y-95279281D01*
X63665287Y-95302523D01*
X63657215Y-95325082D01*
X63646971Y-95346742D01*
X63634653Y-95367292D01*
X63620381Y-95386537D01*
X63604290Y-95404290D01*
X63586537Y-95420381D01*
X63567292Y-95434653D01*
X63546742Y-95446971D01*
X63525082Y-95457215D01*
X63502523Y-95465287D01*
X63479281Y-95471109D01*
X63455581Y-95474624D01*
X63431650Y-95475800D01*
X62943350Y-95475800D01*
X62919419Y-95474624D01*
X62895719Y-95471109D01*
X62872477Y-95465287D01*
X62849918Y-95457215D01*
X62828258Y-95446971D01*
X62807708Y-95434653D01*
X62788463Y-95420381D01*
X62770710Y-95404290D01*
X62754619Y-95386537D01*
X62740347Y-95367292D01*
X62728029Y-95346742D01*
X62717785Y-95325082D01*
X62709713Y-95302523D01*
X62703891Y-95279281D01*
X62700376Y-95255581D01*
X62699200Y-95231650D01*
X62699200Y-94668350D01*
X62700376Y-94644419D01*
X62703891Y-94620719D01*
X62709713Y-94597477D01*
X62717785Y-94574918D01*
X62728029Y-94553258D01*
X62740347Y-94532708D01*
X62754619Y-94513463D01*
X62770710Y-94495710D01*
X62788463Y-94479619D01*
X62807708Y-94465347D01*
X62828258Y-94453029D01*
X62849918Y-94442785D01*
X62872477Y-94434713D01*
X62895719Y-94428891D01*
X62919419Y-94425376D01*
X62943350Y-94424200D01*
X63431650Y-94424200D01*
X63455581Y-94425376D01*
G37*
G36*
X61880581Y-94425376D02*
G01*
X61904281Y-94428891D01*
X61927523Y-94434713D01*
X61950082Y-94442785D01*
X61971742Y-94453029D01*
X61992292Y-94465347D01*
X62011537Y-94479619D01*
X62029290Y-94495710D01*
X62045381Y-94513463D01*
X62059653Y-94532708D01*
X62071971Y-94553258D01*
X62082215Y-94574918D01*
X62090287Y-94597477D01*
X62096109Y-94620719D01*
X62099624Y-94644419D01*
X62100800Y-94668350D01*
X62100800Y-95231650D01*
X62099624Y-95255581D01*
X62096109Y-95279281D01*
X62090287Y-95302523D01*
X62082215Y-95325082D01*
X62071971Y-95346742D01*
X62059653Y-95367292D01*
X62045381Y-95386537D01*
X62029290Y-95404290D01*
X62011537Y-95420381D01*
X61992292Y-95434653D01*
X61971742Y-95446971D01*
X61950082Y-95457215D01*
X61927523Y-95465287D01*
X61904281Y-95471109D01*
X61880581Y-95474624D01*
X61856650Y-95475800D01*
X61368350Y-95475800D01*
X61344419Y-95474624D01*
X61320719Y-95471109D01*
X61297477Y-95465287D01*
X61274918Y-95457215D01*
X61253258Y-95446971D01*
X61232708Y-95434653D01*
X61213463Y-95420381D01*
X61195710Y-95404290D01*
X61179619Y-95386537D01*
X61165347Y-95367292D01*
X61153029Y-95346742D01*
X61142785Y-95325082D01*
X61134713Y-95302523D01*
X61128891Y-95279281D01*
X61125376Y-95255581D01*
X61124200Y-95231650D01*
X61124200Y-94668350D01*
X61125376Y-94644419D01*
X61128891Y-94620719D01*
X61134713Y-94597477D01*
X61142785Y-94574918D01*
X61153029Y-94553258D01*
X61165347Y-94532708D01*
X61179619Y-94513463D01*
X61195710Y-94495710D01*
X61213463Y-94479619D01*
X61232708Y-94465347D01*
X61253258Y-94453029D01*
X61274918Y-94442785D01*
X61297477Y-94434713D01*
X61320719Y-94428891D01*
X61344419Y-94425376D01*
X61368350Y-94424200D01*
X61856650Y-94424200D01*
X61880581Y-94425376D01*
G37*
G36*
X63455581Y-92950376D02*
G01*
X63479281Y-92953891D01*
X63502523Y-92959713D01*
X63525082Y-92967785D01*
X63546742Y-92978029D01*
X63567292Y-92990347D01*
X63586537Y-93004619D01*
X63604290Y-93020710D01*
X63620381Y-93038463D01*
X63634653Y-93057708D01*
X63646971Y-93078258D01*
X63657215Y-93099918D01*
X63665287Y-93122477D01*
X63671109Y-93145719D01*
X63674624Y-93169419D01*
X63675800Y-93193350D01*
X63675800Y-93756650D01*
X63674624Y-93780581D01*
X63671109Y-93804281D01*
X63665287Y-93827523D01*
X63657215Y-93850082D01*
X63646971Y-93871742D01*
X63634653Y-93892292D01*
X63620381Y-93911537D01*
X63604290Y-93929290D01*
X63586537Y-93945381D01*
X63567292Y-93959653D01*
X63546742Y-93971971D01*
X63525082Y-93982215D01*
X63502523Y-93990287D01*
X63479281Y-93996109D01*
X63455581Y-93999624D01*
X63431650Y-94000800D01*
X62943350Y-94000800D01*
X62919419Y-93999624D01*
X62895719Y-93996109D01*
X62872477Y-93990287D01*
X62849918Y-93982215D01*
X62828258Y-93971971D01*
X62807708Y-93959653D01*
X62788463Y-93945381D01*
X62770710Y-93929290D01*
X62754619Y-93911537D01*
X62740347Y-93892292D01*
X62728029Y-93871742D01*
X62717785Y-93850082D01*
X62709713Y-93827523D01*
X62703891Y-93804281D01*
X62700376Y-93780581D01*
X62699200Y-93756650D01*
X62699200Y-93193350D01*
X62700376Y-93169419D01*
X62703891Y-93145719D01*
X62709713Y-93122477D01*
X62717785Y-93099918D01*
X62728029Y-93078258D01*
X62740347Y-93057708D01*
X62754619Y-93038463D01*
X62770710Y-93020710D01*
X62788463Y-93004619D01*
X62807708Y-92990347D01*
X62828258Y-92978029D01*
X62849918Y-92967785D01*
X62872477Y-92959713D01*
X62895719Y-92953891D01*
X62919419Y-92950376D01*
X62943350Y-92949200D01*
X63431650Y-92949200D01*
X63455581Y-92950376D01*
G37*
G36*
X61880581Y-92950376D02*
G01*
X61904281Y-92953891D01*
X61927523Y-92959713D01*
X61950082Y-92967785D01*
X61971742Y-92978029D01*
X61992292Y-92990347D01*
X62011537Y-93004619D01*
X62029290Y-93020710D01*
X62045381Y-93038463D01*
X62059653Y-93057708D01*
X62071971Y-93078258D01*
X62082215Y-93099918D01*
X62090287Y-93122477D01*
X62096109Y-93145719D01*
X62099624Y-93169419D01*
X62100800Y-93193350D01*
X62100800Y-93756650D01*
X62099624Y-93780581D01*
X62096109Y-93804281D01*
X62090287Y-93827523D01*
X62082215Y-93850082D01*
X62071971Y-93871742D01*
X62059653Y-93892292D01*
X62045381Y-93911537D01*
X62029290Y-93929290D01*
X62011537Y-93945381D01*
X61992292Y-93959653D01*
X61971742Y-93971971D01*
X61950082Y-93982215D01*
X61927523Y-93990287D01*
X61904281Y-93996109D01*
X61880581Y-93999624D01*
X61856650Y-94000800D01*
X61368350Y-94000800D01*
X61344419Y-93999624D01*
X61320719Y-93996109D01*
X61297477Y-93990287D01*
X61274918Y-93982215D01*
X61253258Y-93971971D01*
X61232708Y-93959653D01*
X61213463Y-93945381D01*
X61195710Y-93929290D01*
X61179619Y-93911537D01*
X61165347Y-93892292D01*
X61153029Y-93871742D01*
X61142785Y-93850082D01*
X61134713Y-93827523D01*
X61128891Y-93804281D01*
X61125376Y-93780581D01*
X61124200Y-93756650D01*
X61124200Y-93193350D01*
X61125376Y-93169419D01*
X61128891Y-93145719D01*
X61134713Y-93122477D01*
X61142785Y-93099918D01*
X61153029Y-93078258D01*
X61165347Y-93057708D01*
X61179619Y-93038463D01*
X61195710Y-93020710D01*
X61213463Y-93004619D01*
X61232708Y-92990347D01*
X61253258Y-92978029D01*
X61274918Y-92967785D01*
X61297477Y-92959713D01*
X61320719Y-92953891D01*
X61344419Y-92950376D01*
X61368350Y-92949200D01*
X61856650Y-92949200D01*
X61880581Y-92950376D01*
G37*
G36*
X111780581Y-92825376D02*
G01*
X111804281Y-92828891D01*
X111827523Y-92834713D01*
X111850082Y-92842785D01*
X111871742Y-92853029D01*
X111892292Y-92865347D01*
X111911537Y-92879619D01*
X111929290Y-92895710D01*
X111945381Y-92913463D01*
X111959653Y-92932708D01*
X111971971Y-92953258D01*
X111982215Y-92974918D01*
X111990287Y-92997477D01*
X111996109Y-93020719D01*
X111999624Y-93044419D01*
X112000800Y-93068350D01*
X112000800Y-93631650D01*
X111999624Y-93655581D01*
X111996109Y-93679281D01*
X111990287Y-93702523D01*
X111982215Y-93725082D01*
X111971971Y-93746742D01*
X111959653Y-93767292D01*
X111945381Y-93786537D01*
X111929290Y-93804290D01*
X111911537Y-93820381D01*
X111892292Y-93834653D01*
X111871742Y-93846971D01*
X111850082Y-93857215D01*
X111827523Y-93865287D01*
X111804281Y-93871109D01*
X111780581Y-93874624D01*
X111756650Y-93875800D01*
X111268350Y-93875800D01*
X111244419Y-93874624D01*
X111220719Y-93871109D01*
X111197477Y-93865287D01*
X111174918Y-93857215D01*
X111153258Y-93846971D01*
X111132708Y-93834653D01*
X111113463Y-93820381D01*
X111095710Y-93804290D01*
X111079619Y-93786537D01*
X111065347Y-93767292D01*
X111053029Y-93746742D01*
X111042785Y-93725082D01*
X111034713Y-93702523D01*
X111028891Y-93679281D01*
X111025376Y-93655581D01*
X111024200Y-93631650D01*
X111024200Y-93068350D01*
X111025376Y-93044419D01*
X111028891Y-93020719D01*
X111034713Y-92997477D01*
X111042785Y-92974918D01*
X111053029Y-92953258D01*
X111065347Y-92932708D01*
X111079619Y-92913463D01*
X111095710Y-92895710D01*
X111113463Y-92879619D01*
X111132708Y-92865347D01*
X111153258Y-92853029D01*
X111174918Y-92842785D01*
X111197477Y-92834713D01*
X111220719Y-92828891D01*
X111244419Y-92825376D01*
X111268350Y-92824200D01*
X111756650Y-92824200D01*
X111780581Y-92825376D01*
G37*
G36*
X113355581Y-92825376D02*
G01*
X113379281Y-92828891D01*
X113402523Y-92834713D01*
X113425082Y-92842785D01*
X113446742Y-92853029D01*
X113467292Y-92865347D01*
X113486537Y-92879619D01*
X113504290Y-92895710D01*
X113520381Y-92913463D01*
X113534653Y-92932708D01*
X113546971Y-92953258D01*
X113557215Y-92974918D01*
X113565287Y-92997477D01*
X113571109Y-93020719D01*
X113574624Y-93044419D01*
X113575800Y-93068350D01*
X113575800Y-93631650D01*
X113574624Y-93655581D01*
X113571109Y-93679281D01*
X113565287Y-93702523D01*
X113557215Y-93725082D01*
X113546971Y-93746742D01*
X113534653Y-93767292D01*
X113520381Y-93786537D01*
X113504290Y-93804290D01*
X113486537Y-93820381D01*
X113467292Y-93834653D01*
X113446742Y-93846971D01*
X113425082Y-93857215D01*
X113402523Y-93865287D01*
X113379281Y-93871109D01*
X113355581Y-93874624D01*
X113331650Y-93875800D01*
X112843350Y-93875800D01*
X112819419Y-93874624D01*
X112795719Y-93871109D01*
X112772477Y-93865287D01*
X112749918Y-93857215D01*
X112728258Y-93846971D01*
X112707708Y-93834653D01*
X112688463Y-93820381D01*
X112670710Y-93804290D01*
X112654619Y-93786537D01*
X112640347Y-93767292D01*
X112628029Y-93746742D01*
X112617785Y-93725082D01*
X112609713Y-93702523D01*
X112603891Y-93679281D01*
X112600376Y-93655581D01*
X112599200Y-93631650D01*
X112599200Y-93068350D01*
X112600376Y-93044419D01*
X112603891Y-93020719D01*
X112609713Y-92997477D01*
X112617785Y-92974918D01*
X112628029Y-92953258D01*
X112640347Y-92932708D01*
X112654619Y-92913463D01*
X112670710Y-92895710D01*
X112688463Y-92879619D01*
X112707708Y-92865347D01*
X112728258Y-92853029D01*
X112749918Y-92842785D01*
X112772477Y-92834713D01*
X112795719Y-92828891D01*
X112819419Y-92825376D01*
X112843350Y-92824200D01*
X113331650Y-92824200D01*
X113355581Y-92825376D01*
G37*
G36*
X106030581Y-93245376D02*
G01*
X106054281Y-93248891D01*
X106077523Y-93254713D01*
X106100082Y-93262785D01*
X106121742Y-93273029D01*
X106142292Y-93285347D01*
X106161537Y-93299619D01*
X106179290Y-93315710D01*
X106195381Y-93333463D01*
X106209653Y-93352708D01*
X106221971Y-93373258D01*
X106232215Y-93394918D01*
X106240287Y-93417477D01*
X106246109Y-93440719D01*
X106249624Y-93464419D01*
X106250800Y-93488350D01*
X106250800Y-94051650D01*
X106249624Y-94075581D01*
X106246109Y-94099281D01*
X106240287Y-94122523D01*
X106232215Y-94145082D01*
X106221971Y-94166742D01*
X106209653Y-94187292D01*
X106195381Y-94206537D01*
X106179290Y-94224290D01*
X106161537Y-94240381D01*
X106142292Y-94254653D01*
X106121742Y-94266971D01*
X106100082Y-94277215D01*
X106077523Y-94285287D01*
X106054281Y-94291109D01*
X106030581Y-94294624D01*
X106006650Y-94295800D01*
X105518350Y-94295800D01*
X105494419Y-94294624D01*
X105470719Y-94291109D01*
X105447477Y-94285287D01*
X105424918Y-94277215D01*
X105403258Y-94266971D01*
X105382708Y-94254653D01*
X105363463Y-94240381D01*
X105345710Y-94224290D01*
X105329619Y-94206537D01*
X105315347Y-94187292D01*
X105303029Y-94166742D01*
X105292785Y-94145082D01*
X105284713Y-94122523D01*
X105278891Y-94099281D01*
X105275376Y-94075581D01*
X105274200Y-94051650D01*
X105274200Y-93488350D01*
X105275376Y-93464419D01*
X105278891Y-93440719D01*
X105284713Y-93417477D01*
X105292785Y-93394918D01*
X105303029Y-93373258D01*
X105315347Y-93352708D01*
X105329619Y-93333463D01*
X105345710Y-93315710D01*
X105363463Y-93299619D01*
X105382708Y-93285347D01*
X105403258Y-93273029D01*
X105424918Y-93262785D01*
X105447477Y-93254713D01*
X105470719Y-93248891D01*
X105494419Y-93245376D01*
X105518350Y-93244200D01*
X106006650Y-93244200D01*
X106030581Y-93245376D01*
G37*
G36*
X104455581Y-93245376D02*
G01*
X104479281Y-93248891D01*
X104502523Y-93254713D01*
X104525082Y-93262785D01*
X104546742Y-93273029D01*
X104567292Y-93285347D01*
X104586537Y-93299619D01*
X104604290Y-93315710D01*
X104620381Y-93333463D01*
X104634653Y-93352708D01*
X104646971Y-93373258D01*
X104657215Y-93394918D01*
X104665287Y-93417477D01*
X104671109Y-93440719D01*
X104674624Y-93464419D01*
X104675800Y-93488350D01*
X104675800Y-94051650D01*
X104674624Y-94075581D01*
X104671109Y-94099281D01*
X104665287Y-94122523D01*
X104657215Y-94145082D01*
X104646971Y-94166742D01*
X104634653Y-94187292D01*
X104620381Y-94206537D01*
X104604290Y-94224290D01*
X104586537Y-94240381D01*
X104567292Y-94254653D01*
X104546742Y-94266971D01*
X104525082Y-94277215D01*
X104502523Y-94285287D01*
X104479281Y-94291109D01*
X104455581Y-94294624D01*
X104431650Y-94295800D01*
X103943350Y-94295800D01*
X103919419Y-94294624D01*
X103895719Y-94291109D01*
X103872477Y-94285287D01*
X103849918Y-94277215D01*
X103828258Y-94266971D01*
X103807708Y-94254653D01*
X103788463Y-94240381D01*
X103770710Y-94224290D01*
X103754619Y-94206537D01*
X103740347Y-94187292D01*
X103728029Y-94166742D01*
X103717785Y-94145082D01*
X103709713Y-94122523D01*
X103703891Y-94099281D01*
X103700376Y-94075581D01*
X103699200Y-94051650D01*
X103699200Y-93488350D01*
X103700376Y-93464419D01*
X103703891Y-93440719D01*
X103709713Y-93417477D01*
X103717785Y-93394918D01*
X103728029Y-93373258D01*
X103740347Y-93352708D01*
X103754619Y-93333463D01*
X103770710Y-93315710D01*
X103788463Y-93299619D01*
X103807708Y-93285347D01*
X103828258Y-93273029D01*
X103849918Y-93262785D01*
X103872477Y-93254713D01*
X103895719Y-93248891D01*
X103919419Y-93245376D01*
X103943350Y-93244200D01*
X104431650Y-93244200D01*
X104455581Y-93245376D01*
G37*
G36*
X61805581Y-106275376D02*
G01*
X61829281Y-106278891D01*
X61852523Y-106284713D01*
X61875082Y-106292785D01*
X61896742Y-106303029D01*
X61917292Y-106315347D01*
X61936537Y-106329619D01*
X61954290Y-106345710D01*
X61970381Y-106363463D01*
X61984653Y-106382708D01*
X61996971Y-106403258D01*
X62007215Y-106424918D01*
X62015287Y-106447477D01*
X62021109Y-106470719D01*
X62024624Y-106494419D01*
X62025800Y-106518350D01*
X62025800Y-107081650D01*
X62024624Y-107105581D01*
X62021109Y-107129281D01*
X62015287Y-107152523D01*
X62007215Y-107175082D01*
X61996971Y-107196742D01*
X61984653Y-107217292D01*
X61970381Y-107236537D01*
X61954290Y-107254290D01*
X61936537Y-107270381D01*
X61917292Y-107284653D01*
X61896742Y-107296971D01*
X61875082Y-107307215D01*
X61852523Y-107315287D01*
X61829281Y-107321109D01*
X61805581Y-107324624D01*
X61781650Y-107325800D01*
X61293350Y-107325800D01*
X61269419Y-107324624D01*
X61245719Y-107321109D01*
X61222477Y-107315287D01*
X61199918Y-107307215D01*
X61178258Y-107296971D01*
X61157708Y-107284653D01*
X61138463Y-107270381D01*
X61120710Y-107254290D01*
X61104619Y-107236537D01*
X61090347Y-107217292D01*
X61078029Y-107196742D01*
X61067785Y-107175082D01*
X61059713Y-107152523D01*
X61053891Y-107129281D01*
X61050376Y-107105581D01*
X61049200Y-107081650D01*
X61049200Y-106518350D01*
X61050376Y-106494419D01*
X61053891Y-106470719D01*
X61059713Y-106447477D01*
X61067785Y-106424918D01*
X61078029Y-106403258D01*
X61090347Y-106382708D01*
X61104619Y-106363463D01*
X61120710Y-106345710D01*
X61138463Y-106329619D01*
X61157708Y-106315347D01*
X61178258Y-106303029D01*
X61199918Y-106292785D01*
X61222477Y-106284713D01*
X61245719Y-106278891D01*
X61269419Y-106275376D01*
X61293350Y-106274200D01*
X61781650Y-106274200D01*
X61805581Y-106275376D01*
G37*
G36*
X63380581Y-106275376D02*
G01*
X63404281Y-106278891D01*
X63427523Y-106284713D01*
X63450082Y-106292785D01*
X63471742Y-106303029D01*
X63492292Y-106315347D01*
X63511537Y-106329619D01*
X63529290Y-106345710D01*
X63545381Y-106363463D01*
X63559653Y-106382708D01*
X63571971Y-106403258D01*
X63582215Y-106424918D01*
X63590287Y-106447477D01*
X63596109Y-106470719D01*
X63599624Y-106494419D01*
X63600800Y-106518350D01*
X63600800Y-107081650D01*
X63599624Y-107105581D01*
X63596109Y-107129281D01*
X63590287Y-107152523D01*
X63582215Y-107175082D01*
X63571971Y-107196742D01*
X63559653Y-107217292D01*
X63545381Y-107236537D01*
X63529290Y-107254290D01*
X63511537Y-107270381D01*
X63492292Y-107284653D01*
X63471742Y-107296971D01*
X63450082Y-107307215D01*
X63427523Y-107315287D01*
X63404281Y-107321109D01*
X63380581Y-107324624D01*
X63356650Y-107325800D01*
X62868350Y-107325800D01*
X62844419Y-107324624D01*
X62820719Y-107321109D01*
X62797477Y-107315287D01*
X62774918Y-107307215D01*
X62753258Y-107296971D01*
X62732708Y-107284653D01*
X62713463Y-107270381D01*
X62695710Y-107254290D01*
X62679619Y-107236537D01*
X62665347Y-107217292D01*
X62653029Y-107196742D01*
X62642785Y-107175082D01*
X62634713Y-107152523D01*
X62628891Y-107129281D01*
X62625376Y-107105581D01*
X62624200Y-107081650D01*
X62624200Y-106518350D01*
X62625376Y-106494419D01*
X62628891Y-106470719D01*
X62634713Y-106447477D01*
X62642785Y-106424918D01*
X62653029Y-106403258D01*
X62665347Y-106382708D01*
X62679619Y-106363463D01*
X62695710Y-106345710D01*
X62713463Y-106329619D01*
X62732708Y-106315347D01*
X62753258Y-106303029D01*
X62774918Y-106292785D01*
X62797477Y-106284713D01*
X62820719Y-106278891D01*
X62844419Y-106275376D01*
X62868350Y-106274200D01*
X63356650Y-106274200D01*
X63380581Y-106275376D01*
G37*
G36*
X71245581Y-94975376D02*
G01*
X71269281Y-94978891D01*
X71292523Y-94984713D01*
X71315082Y-94992785D01*
X71336742Y-95003029D01*
X71357292Y-95015347D01*
X71376537Y-95029619D01*
X71394290Y-95045710D01*
X71410381Y-95063463D01*
X71424653Y-95082708D01*
X71436971Y-95103258D01*
X71447215Y-95124918D01*
X71455287Y-95147477D01*
X71461109Y-95170719D01*
X71464624Y-95194419D01*
X71465800Y-95218350D01*
X71465800Y-95706650D01*
X71464624Y-95730581D01*
X71461109Y-95754281D01*
X71455287Y-95777523D01*
X71447215Y-95800082D01*
X71436971Y-95821742D01*
X71424653Y-95842292D01*
X71410381Y-95861537D01*
X71394290Y-95879290D01*
X71376537Y-95895381D01*
X71357292Y-95909653D01*
X71336742Y-95921971D01*
X71315082Y-95932215D01*
X71292523Y-95940287D01*
X71269281Y-95946109D01*
X71245581Y-95949624D01*
X71221650Y-95950800D01*
X70658350Y-95950800D01*
X70634419Y-95949624D01*
X70610719Y-95946109D01*
X70587477Y-95940287D01*
X70564918Y-95932215D01*
X70543258Y-95921971D01*
X70522708Y-95909653D01*
X70503463Y-95895381D01*
X70485710Y-95879290D01*
X70469619Y-95861537D01*
X70455347Y-95842292D01*
X70443029Y-95821742D01*
X70432785Y-95800082D01*
X70424713Y-95777523D01*
X70418891Y-95754281D01*
X70415376Y-95730581D01*
X70414200Y-95706650D01*
X70414200Y-95218350D01*
X70415376Y-95194419D01*
X70418891Y-95170719D01*
X70424713Y-95147477D01*
X70432785Y-95124918D01*
X70443029Y-95103258D01*
X70455347Y-95082708D01*
X70469619Y-95063463D01*
X70485710Y-95045710D01*
X70503463Y-95029619D01*
X70522708Y-95015347D01*
X70543258Y-95003029D01*
X70564918Y-94992785D01*
X70587477Y-94984713D01*
X70610719Y-94978891D01*
X70634419Y-94975376D01*
X70658350Y-94974200D01*
X71221650Y-94974200D01*
X71245581Y-94975376D01*
G37*
G36*
X71245581Y-93400376D02*
G01*
X71269281Y-93403891D01*
X71292523Y-93409713D01*
X71315082Y-93417785D01*
X71336742Y-93428029D01*
X71357292Y-93440347D01*
X71376537Y-93454619D01*
X71394290Y-93470710D01*
X71410381Y-93488463D01*
X71424653Y-93507708D01*
X71436971Y-93528258D01*
X71447215Y-93549918D01*
X71455287Y-93572477D01*
X71461109Y-93595719D01*
X71464624Y-93619419D01*
X71465800Y-93643350D01*
X71465800Y-94131650D01*
X71464624Y-94155581D01*
X71461109Y-94179281D01*
X71455287Y-94202523D01*
X71447215Y-94225082D01*
X71436971Y-94246742D01*
X71424653Y-94267292D01*
X71410381Y-94286537D01*
X71394290Y-94304290D01*
X71376537Y-94320381D01*
X71357292Y-94334653D01*
X71336742Y-94346971D01*
X71315082Y-94357215D01*
X71292523Y-94365287D01*
X71269281Y-94371109D01*
X71245581Y-94374624D01*
X71221650Y-94375800D01*
X70658350Y-94375800D01*
X70634419Y-94374624D01*
X70610719Y-94371109D01*
X70587477Y-94365287D01*
X70564918Y-94357215D01*
X70543258Y-94346971D01*
X70522708Y-94334653D01*
X70503463Y-94320381D01*
X70485710Y-94304290D01*
X70469619Y-94286537D01*
X70455347Y-94267292D01*
X70443029Y-94246742D01*
X70432785Y-94225082D01*
X70424713Y-94202523D01*
X70418891Y-94179281D01*
X70415376Y-94155581D01*
X70414200Y-94131650D01*
X70414200Y-93643350D01*
X70415376Y-93619419D01*
X70418891Y-93595719D01*
X70424713Y-93572477D01*
X70432785Y-93549918D01*
X70443029Y-93528258D01*
X70455347Y-93507708D01*
X70469619Y-93488463D01*
X70485710Y-93470710D01*
X70503463Y-93454619D01*
X70522708Y-93440347D01*
X70543258Y-93428029D01*
X70564918Y-93417785D01*
X70587477Y-93409713D01*
X70610719Y-93403891D01*
X70634419Y-93400376D01*
X70658350Y-93399200D01*
X71221650Y-93399200D01*
X71245581Y-93400376D01*
G37*
G36*
X66375581Y-94955376D02*
G01*
X66399281Y-94958891D01*
X66422523Y-94964713D01*
X66445082Y-94972785D01*
X66466742Y-94983029D01*
X66487292Y-94995347D01*
X66506537Y-95009619D01*
X66524290Y-95025710D01*
X66540381Y-95043463D01*
X66554653Y-95062708D01*
X66566971Y-95083258D01*
X66577215Y-95104918D01*
X66585287Y-95127477D01*
X66591109Y-95150719D01*
X66594624Y-95174419D01*
X66595800Y-95198350D01*
X66595800Y-95686650D01*
X66594624Y-95710581D01*
X66591109Y-95734281D01*
X66585287Y-95757523D01*
X66577215Y-95780082D01*
X66566971Y-95801742D01*
X66554653Y-95822292D01*
X66540381Y-95841537D01*
X66524290Y-95859290D01*
X66506537Y-95875381D01*
X66487292Y-95889653D01*
X66466742Y-95901971D01*
X66445082Y-95912215D01*
X66422523Y-95920287D01*
X66399281Y-95926109D01*
X66375581Y-95929624D01*
X66351650Y-95930800D01*
X65788350Y-95930800D01*
X65764419Y-95929624D01*
X65740719Y-95926109D01*
X65717477Y-95920287D01*
X65694918Y-95912215D01*
X65673258Y-95901971D01*
X65652708Y-95889653D01*
X65633463Y-95875381D01*
X65615710Y-95859290D01*
X65599619Y-95841537D01*
X65585347Y-95822292D01*
X65573029Y-95801742D01*
X65562785Y-95780082D01*
X65554713Y-95757523D01*
X65548891Y-95734281D01*
X65545376Y-95710581D01*
X65544200Y-95686650D01*
X65544200Y-95198350D01*
X65545376Y-95174419D01*
X65548891Y-95150719D01*
X65554713Y-95127477D01*
X65562785Y-95104918D01*
X65573029Y-95083258D01*
X65585347Y-95062708D01*
X65599619Y-95043463D01*
X65615710Y-95025710D01*
X65633463Y-95009619D01*
X65652708Y-94995347D01*
X65673258Y-94983029D01*
X65694918Y-94972785D01*
X65717477Y-94964713D01*
X65740719Y-94958891D01*
X65764419Y-94955376D01*
X65788350Y-94954200D01*
X66351650Y-94954200D01*
X66375581Y-94955376D01*
G37*
G36*
X66375581Y-93380376D02*
G01*
X66399281Y-93383891D01*
X66422523Y-93389713D01*
X66445082Y-93397785D01*
X66466742Y-93408029D01*
X66487292Y-93420347D01*
X66506537Y-93434619D01*
X66524290Y-93450710D01*
X66540381Y-93468463D01*
X66554653Y-93487708D01*
X66566971Y-93508258D01*
X66577215Y-93529918D01*
X66585287Y-93552477D01*
X66591109Y-93575719D01*
X66594624Y-93599419D01*
X66595800Y-93623350D01*
X66595800Y-94111650D01*
X66594624Y-94135581D01*
X66591109Y-94159281D01*
X66585287Y-94182523D01*
X66577215Y-94205082D01*
X66566971Y-94226742D01*
X66554653Y-94247292D01*
X66540381Y-94266537D01*
X66524290Y-94284290D01*
X66506537Y-94300381D01*
X66487292Y-94314653D01*
X66466742Y-94326971D01*
X66445082Y-94337215D01*
X66422523Y-94345287D01*
X66399281Y-94351109D01*
X66375581Y-94354624D01*
X66351650Y-94355800D01*
X65788350Y-94355800D01*
X65764419Y-94354624D01*
X65740719Y-94351109D01*
X65717477Y-94345287D01*
X65694918Y-94337215D01*
X65673258Y-94326971D01*
X65652708Y-94314653D01*
X65633463Y-94300381D01*
X65615710Y-94284290D01*
X65599619Y-94266537D01*
X65585347Y-94247292D01*
X65573029Y-94226742D01*
X65562785Y-94205082D01*
X65554713Y-94182523D01*
X65548891Y-94159281D01*
X65545376Y-94135581D01*
X65544200Y-94111650D01*
X65544200Y-93623350D01*
X65545376Y-93599419D01*
X65548891Y-93575719D01*
X65554713Y-93552477D01*
X65562785Y-93529918D01*
X65573029Y-93508258D01*
X65585347Y-93487708D01*
X65599619Y-93468463D01*
X65615710Y-93450710D01*
X65633463Y-93434619D01*
X65652708Y-93420347D01*
X65673258Y-93408029D01*
X65694918Y-93397785D01*
X65717477Y-93389713D01*
X65740719Y-93383891D01*
X65764419Y-93380376D01*
X65788350Y-93379200D01*
X66351650Y-93379200D01*
X66375581Y-93380376D01*
G37*
G36*
X75685581Y-95750376D02*
G01*
X75709281Y-95753891D01*
X75732523Y-95759713D01*
X75755082Y-95767785D01*
X75776742Y-95778029D01*
X75797292Y-95790347D01*
X75816537Y-95804619D01*
X75834290Y-95820710D01*
X75850381Y-95838463D01*
X75864653Y-95857708D01*
X75876971Y-95878258D01*
X75887215Y-95899918D01*
X75895287Y-95922477D01*
X75901109Y-95945719D01*
X75904624Y-95969419D01*
X75905800Y-95993350D01*
X75905800Y-96481650D01*
X75904624Y-96505581D01*
X75901109Y-96529281D01*
X75895287Y-96552523D01*
X75887215Y-96575082D01*
X75876971Y-96596742D01*
X75864653Y-96617292D01*
X75850381Y-96636537D01*
X75834290Y-96654290D01*
X75816537Y-96670381D01*
X75797292Y-96684653D01*
X75776742Y-96696971D01*
X75755082Y-96707215D01*
X75732523Y-96715287D01*
X75709281Y-96721109D01*
X75685581Y-96724624D01*
X75661650Y-96725800D01*
X75098350Y-96725800D01*
X75074419Y-96724624D01*
X75050719Y-96721109D01*
X75027477Y-96715287D01*
X75004918Y-96707215D01*
X74983258Y-96696971D01*
X74962708Y-96684653D01*
X74943463Y-96670381D01*
X74925710Y-96654290D01*
X74909619Y-96636537D01*
X74895347Y-96617292D01*
X74883029Y-96596742D01*
X74872785Y-96575082D01*
X74864713Y-96552523D01*
X74858891Y-96529281D01*
X74855376Y-96505581D01*
X74854200Y-96481650D01*
X74854200Y-95993350D01*
X74855376Y-95969419D01*
X74858891Y-95945719D01*
X74864713Y-95922477D01*
X74872785Y-95899918D01*
X74883029Y-95878258D01*
X74895347Y-95857708D01*
X74909619Y-95838463D01*
X74925710Y-95820710D01*
X74943463Y-95804619D01*
X74962708Y-95790347D01*
X74983258Y-95778029D01*
X75004918Y-95767785D01*
X75027477Y-95759713D01*
X75050719Y-95753891D01*
X75074419Y-95750376D01*
X75098350Y-95749200D01*
X75661650Y-95749200D01*
X75685581Y-95750376D01*
G37*
G36*
X75685581Y-97325376D02*
G01*
X75709281Y-97328891D01*
X75732523Y-97334713D01*
X75755082Y-97342785D01*
X75776742Y-97353029D01*
X75797292Y-97365347D01*
X75816537Y-97379619D01*
X75834290Y-97395710D01*
X75850381Y-97413463D01*
X75864653Y-97432708D01*
X75876971Y-97453258D01*
X75887215Y-97474918D01*
X75895287Y-97497477D01*
X75901109Y-97520719D01*
X75904624Y-97544419D01*
X75905800Y-97568350D01*
X75905800Y-98056650D01*
X75904624Y-98080581D01*
X75901109Y-98104281D01*
X75895287Y-98127523D01*
X75887215Y-98150082D01*
X75876971Y-98171742D01*
X75864653Y-98192292D01*
X75850381Y-98211537D01*
X75834290Y-98229290D01*
X75816537Y-98245381D01*
X75797292Y-98259653D01*
X75776742Y-98271971D01*
X75755082Y-98282215D01*
X75732523Y-98290287D01*
X75709281Y-98296109D01*
X75685581Y-98299624D01*
X75661650Y-98300800D01*
X75098350Y-98300800D01*
X75074419Y-98299624D01*
X75050719Y-98296109D01*
X75027477Y-98290287D01*
X75004918Y-98282215D01*
X74983258Y-98271971D01*
X74962708Y-98259653D01*
X74943463Y-98245381D01*
X74925710Y-98229290D01*
X74909619Y-98211537D01*
X74895347Y-98192292D01*
X74883029Y-98171742D01*
X74872785Y-98150082D01*
X74864713Y-98127523D01*
X74858891Y-98104281D01*
X74855376Y-98080581D01*
X74854200Y-98056650D01*
X74854200Y-97568350D01*
X74855376Y-97544419D01*
X74858891Y-97520719D01*
X74864713Y-97497477D01*
X74872785Y-97474918D01*
X74883029Y-97453258D01*
X74895347Y-97432708D01*
X74909619Y-97413463D01*
X74925710Y-97395710D01*
X74943463Y-97379619D01*
X74962708Y-97365347D01*
X74983258Y-97353029D01*
X75004918Y-97342785D01*
X75027477Y-97334713D01*
X75050719Y-97328891D01*
X75074419Y-97325376D01*
X75098350Y-97324200D01*
X75661650Y-97324200D01*
X75685581Y-97325376D01*
G37*
G36*
X76040581Y-103160376D02*
G01*
X76064281Y-103163891D01*
X76087523Y-103169713D01*
X76110082Y-103177785D01*
X76131742Y-103188029D01*
X76152292Y-103200347D01*
X76171537Y-103214619D01*
X76189290Y-103230710D01*
X76205381Y-103248463D01*
X76219653Y-103267708D01*
X76231971Y-103288258D01*
X76242215Y-103309918D01*
X76250287Y-103332477D01*
X76256109Y-103355719D01*
X76259624Y-103379419D01*
X76260800Y-103403350D01*
X76260800Y-103966650D01*
X76259624Y-103990581D01*
X76256109Y-104014281D01*
X76250287Y-104037523D01*
X76242215Y-104060082D01*
X76231971Y-104081742D01*
X76219653Y-104102292D01*
X76205381Y-104121537D01*
X76189290Y-104139290D01*
X76171537Y-104155381D01*
X76152292Y-104169653D01*
X76131742Y-104181971D01*
X76110082Y-104192215D01*
X76087523Y-104200287D01*
X76064281Y-104206109D01*
X76040581Y-104209624D01*
X76016650Y-104210800D01*
X75528350Y-104210800D01*
X75504419Y-104209624D01*
X75480719Y-104206109D01*
X75457477Y-104200287D01*
X75434918Y-104192215D01*
X75413258Y-104181971D01*
X75392708Y-104169653D01*
X75373463Y-104155381D01*
X75355710Y-104139290D01*
X75339619Y-104121537D01*
X75325347Y-104102292D01*
X75313029Y-104081742D01*
X75302785Y-104060082D01*
X75294713Y-104037523D01*
X75288891Y-104014281D01*
X75285376Y-103990581D01*
X75284200Y-103966650D01*
X75284200Y-103403350D01*
X75285376Y-103379419D01*
X75288891Y-103355719D01*
X75294713Y-103332477D01*
X75302785Y-103309918D01*
X75313029Y-103288258D01*
X75325347Y-103267708D01*
X75339619Y-103248463D01*
X75355710Y-103230710D01*
X75373463Y-103214619D01*
X75392708Y-103200347D01*
X75413258Y-103188029D01*
X75434918Y-103177785D01*
X75457477Y-103169713D01*
X75480719Y-103163891D01*
X75504419Y-103160376D01*
X75528350Y-103159200D01*
X76016650Y-103159200D01*
X76040581Y-103160376D01*
G37*
G36*
X77615581Y-103160376D02*
G01*
X77639281Y-103163891D01*
X77662523Y-103169713D01*
X77685082Y-103177785D01*
X77706742Y-103188029D01*
X77727292Y-103200347D01*
X77746537Y-103214619D01*
X77764290Y-103230710D01*
X77780381Y-103248463D01*
X77794653Y-103267708D01*
X77806971Y-103288258D01*
X77817215Y-103309918D01*
X77825287Y-103332477D01*
X77831109Y-103355719D01*
X77834624Y-103379419D01*
X77835800Y-103403350D01*
X77835800Y-103966650D01*
X77834624Y-103990581D01*
X77831109Y-104014281D01*
X77825287Y-104037523D01*
X77817215Y-104060082D01*
X77806971Y-104081742D01*
X77794653Y-104102292D01*
X77780381Y-104121537D01*
X77764290Y-104139290D01*
X77746537Y-104155381D01*
X77727292Y-104169653D01*
X77706742Y-104181971D01*
X77685082Y-104192215D01*
X77662523Y-104200287D01*
X77639281Y-104206109D01*
X77615581Y-104209624D01*
X77591650Y-104210800D01*
X77103350Y-104210800D01*
X77079419Y-104209624D01*
X77055719Y-104206109D01*
X77032477Y-104200287D01*
X77009918Y-104192215D01*
X76988258Y-104181971D01*
X76967708Y-104169653D01*
X76948463Y-104155381D01*
X76930710Y-104139290D01*
X76914619Y-104121537D01*
X76900347Y-104102292D01*
X76888029Y-104081742D01*
X76877785Y-104060082D01*
X76869713Y-104037523D01*
X76863891Y-104014281D01*
X76860376Y-103990581D01*
X76859200Y-103966650D01*
X76859200Y-103403350D01*
X76860376Y-103379419D01*
X76863891Y-103355719D01*
X76869713Y-103332477D01*
X76877785Y-103309918D01*
X76888029Y-103288258D01*
X76900347Y-103267708D01*
X76914619Y-103248463D01*
X76930710Y-103230710D01*
X76948463Y-103214619D01*
X76967708Y-103200347D01*
X76988258Y-103188029D01*
X77009918Y-103177785D01*
X77032477Y-103169713D01*
X77055719Y-103163891D01*
X77079419Y-103160376D01*
X77103350Y-103159200D01*
X77591650Y-103159200D01*
X77615581Y-103160376D01*
G37*
D18*
X69500000Y-95355000D03*
X69500000Y-93455000D03*
X67500000Y-94405000D03*
D19*
X62865000Y-97125000D03*
X62885000Y-102875000D03*
D20*
X62765000Y-98675000D03*
X62765000Y-99325000D03*
X62765000Y-99975000D03*
X62765000Y-100625000D03*
X62765000Y-101275000D03*
D21*
X62885000Y-97555000D03*
X62885000Y-102395000D03*
D22*
X59885000Y-97245000D03*
X59885000Y-102705000D03*
D23*
X59615000Y-100000000D03*
D24*
X131725000Y-104540000D03*
X131725000Y-95360000D03*
D25*
X63050000Y-105100000D03*
X60550000Y-105100000D03*
X114075000Y-95075000D03*
X111575000Y-95075000D03*
D14*
G36*
X89665581Y-95655376D02*
G01*
X89689281Y-95658891D01*
X89712523Y-95664713D01*
X89735082Y-95672785D01*
X89756742Y-95683029D01*
X89777292Y-95695347D01*
X89796537Y-95709619D01*
X89814290Y-95725710D01*
X89830381Y-95743463D01*
X89844653Y-95762708D01*
X89856971Y-95783258D01*
X89867215Y-95804918D01*
X89875287Y-95827477D01*
X89881109Y-95850719D01*
X89884624Y-95874419D01*
X89885800Y-95898350D01*
X89885800Y-96461650D01*
X89884624Y-96485581D01*
X89881109Y-96509281D01*
X89875287Y-96532523D01*
X89867215Y-96555082D01*
X89856971Y-96576742D01*
X89844653Y-96597292D01*
X89830381Y-96616537D01*
X89814290Y-96634290D01*
X89796537Y-96650381D01*
X89777292Y-96664653D01*
X89756742Y-96676971D01*
X89735082Y-96687215D01*
X89712523Y-96695287D01*
X89689281Y-96701109D01*
X89665581Y-96704624D01*
X89641650Y-96705800D01*
X89153350Y-96705800D01*
X89129419Y-96704624D01*
X89105719Y-96701109D01*
X89082477Y-96695287D01*
X89059918Y-96687215D01*
X89038258Y-96676971D01*
X89017708Y-96664653D01*
X88998463Y-96650381D01*
X88980710Y-96634290D01*
X88964619Y-96616537D01*
X88950347Y-96597292D01*
X88938029Y-96576742D01*
X88927785Y-96555082D01*
X88919713Y-96532523D01*
X88913891Y-96509281D01*
X88910376Y-96485581D01*
X88909200Y-96461650D01*
X88909200Y-95898350D01*
X88910376Y-95874419D01*
X88913891Y-95850719D01*
X88919713Y-95827477D01*
X88927785Y-95804918D01*
X88938029Y-95783258D01*
X88950347Y-95762708D01*
X88964619Y-95743463D01*
X88980710Y-95725710D01*
X88998463Y-95709619D01*
X89017708Y-95695347D01*
X89038258Y-95683029D01*
X89059918Y-95672785D01*
X89082477Y-95664713D01*
X89105719Y-95658891D01*
X89129419Y-95655376D01*
X89153350Y-95654200D01*
X89641650Y-95654200D01*
X89665581Y-95655376D01*
G37*
G36*
X91240581Y-95655376D02*
G01*
X91264281Y-95658891D01*
X91287523Y-95664713D01*
X91310082Y-95672785D01*
X91331742Y-95683029D01*
X91352292Y-95695347D01*
X91371537Y-95709619D01*
X91389290Y-95725710D01*
X91405381Y-95743463D01*
X91419653Y-95762708D01*
X91431971Y-95783258D01*
X91442215Y-95804918D01*
X91450287Y-95827477D01*
X91456109Y-95850719D01*
X91459624Y-95874419D01*
X91460800Y-95898350D01*
X91460800Y-96461650D01*
X91459624Y-96485581D01*
X91456109Y-96509281D01*
X91450287Y-96532523D01*
X91442215Y-96555082D01*
X91431971Y-96576742D01*
X91419653Y-96597292D01*
X91405381Y-96616537D01*
X91389290Y-96634290D01*
X91371537Y-96650381D01*
X91352292Y-96664653D01*
X91331742Y-96676971D01*
X91310082Y-96687215D01*
X91287523Y-96695287D01*
X91264281Y-96701109D01*
X91240581Y-96704624D01*
X91216650Y-96705800D01*
X90728350Y-96705800D01*
X90704419Y-96704624D01*
X90680719Y-96701109D01*
X90657477Y-96695287D01*
X90634918Y-96687215D01*
X90613258Y-96676971D01*
X90592708Y-96664653D01*
X90573463Y-96650381D01*
X90555710Y-96634290D01*
X90539619Y-96616537D01*
X90525347Y-96597292D01*
X90513029Y-96576742D01*
X90502785Y-96555082D01*
X90494713Y-96532523D01*
X90488891Y-96509281D01*
X90485376Y-96485581D01*
X90484200Y-96461650D01*
X90484200Y-95898350D01*
X90485376Y-95874419D01*
X90488891Y-95850719D01*
X90494713Y-95827477D01*
X90502785Y-95804918D01*
X90513029Y-95783258D01*
X90525347Y-95762708D01*
X90539619Y-95743463D01*
X90555710Y-95725710D01*
X90573463Y-95709619D01*
X90592708Y-95695347D01*
X90613258Y-95683029D01*
X90634918Y-95672785D01*
X90657477Y-95664713D01*
X90680719Y-95658891D01*
X90704419Y-95655376D01*
X90728350Y-95654200D01*
X91216650Y-95654200D01*
X91240581Y-95655376D01*
G37*
G36*
X94640581Y-95655376D02*
G01*
X94664281Y-95658891D01*
X94687523Y-95664713D01*
X94710082Y-95672785D01*
X94731742Y-95683029D01*
X94752292Y-95695347D01*
X94771537Y-95709619D01*
X94789290Y-95725710D01*
X94805381Y-95743463D01*
X94819653Y-95762708D01*
X94831971Y-95783258D01*
X94842215Y-95804918D01*
X94850287Y-95827477D01*
X94856109Y-95850719D01*
X94859624Y-95874419D01*
X94860800Y-95898350D01*
X94860800Y-96461650D01*
X94859624Y-96485581D01*
X94856109Y-96509281D01*
X94850287Y-96532523D01*
X94842215Y-96555082D01*
X94831971Y-96576742D01*
X94819653Y-96597292D01*
X94805381Y-96616537D01*
X94789290Y-96634290D01*
X94771537Y-96650381D01*
X94752292Y-96664653D01*
X94731742Y-96676971D01*
X94710082Y-96687215D01*
X94687523Y-96695287D01*
X94664281Y-96701109D01*
X94640581Y-96704624D01*
X94616650Y-96705800D01*
X94128350Y-96705800D01*
X94104419Y-96704624D01*
X94080719Y-96701109D01*
X94057477Y-96695287D01*
X94034918Y-96687215D01*
X94013258Y-96676971D01*
X93992708Y-96664653D01*
X93973463Y-96650381D01*
X93955710Y-96634290D01*
X93939619Y-96616537D01*
X93925347Y-96597292D01*
X93913029Y-96576742D01*
X93902785Y-96555082D01*
X93894713Y-96532523D01*
X93888891Y-96509281D01*
X93885376Y-96485581D01*
X93884200Y-96461650D01*
X93884200Y-95898350D01*
X93885376Y-95874419D01*
X93888891Y-95850719D01*
X93894713Y-95827477D01*
X93902785Y-95804918D01*
X93913029Y-95783258D01*
X93925347Y-95762708D01*
X93939619Y-95743463D01*
X93955710Y-95725710D01*
X93973463Y-95709619D01*
X93992708Y-95695347D01*
X94013258Y-95683029D01*
X94034918Y-95672785D01*
X94057477Y-95664713D01*
X94080719Y-95658891D01*
X94104419Y-95655376D01*
X94128350Y-95654200D01*
X94616650Y-95654200D01*
X94640581Y-95655376D01*
G37*
G36*
X93065581Y-95655376D02*
G01*
X93089281Y-95658891D01*
X93112523Y-95664713D01*
X93135082Y-95672785D01*
X93156742Y-95683029D01*
X93177292Y-95695347D01*
X93196537Y-95709619D01*
X93214290Y-95725710D01*
X93230381Y-95743463D01*
X93244653Y-95762708D01*
X93256971Y-95783258D01*
X93267215Y-95804918D01*
X93275287Y-95827477D01*
X93281109Y-95850719D01*
X93284624Y-95874419D01*
X93285800Y-95898350D01*
X93285800Y-96461650D01*
X93284624Y-96485581D01*
X93281109Y-96509281D01*
X93275287Y-96532523D01*
X93267215Y-96555082D01*
X93256971Y-96576742D01*
X93244653Y-96597292D01*
X93230381Y-96616537D01*
X93214290Y-96634290D01*
X93196537Y-96650381D01*
X93177292Y-96664653D01*
X93156742Y-96676971D01*
X93135082Y-96687215D01*
X93112523Y-96695287D01*
X93089281Y-96701109D01*
X93065581Y-96704624D01*
X93041650Y-96705800D01*
X92553350Y-96705800D01*
X92529419Y-96704624D01*
X92505719Y-96701109D01*
X92482477Y-96695287D01*
X92459918Y-96687215D01*
X92438258Y-96676971D01*
X92417708Y-96664653D01*
X92398463Y-96650381D01*
X92380710Y-96634290D01*
X92364619Y-96616537D01*
X92350347Y-96597292D01*
X92338029Y-96576742D01*
X92327785Y-96555082D01*
X92319713Y-96532523D01*
X92313891Y-96509281D01*
X92310376Y-96485581D01*
X92309200Y-96461650D01*
X92309200Y-95898350D01*
X92310376Y-95874419D01*
X92313891Y-95850719D01*
X92319713Y-95827477D01*
X92327785Y-95804918D01*
X92338029Y-95783258D01*
X92350347Y-95762708D01*
X92364619Y-95743463D01*
X92380710Y-95725710D01*
X92398463Y-95709619D01*
X92417708Y-95695347D01*
X92438258Y-95683029D01*
X92459918Y-95672785D01*
X92482477Y-95664713D01*
X92505719Y-95658891D01*
X92529419Y-95655376D01*
X92553350Y-95654200D01*
X93041650Y-95654200D01*
X93065581Y-95655376D01*
G37*
G36*
X98040581Y-95655376D02*
G01*
X98064281Y-95658891D01*
X98087523Y-95664713D01*
X98110082Y-95672785D01*
X98131742Y-95683029D01*
X98152292Y-95695347D01*
X98171537Y-95709619D01*
X98189290Y-95725710D01*
X98205381Y-95743463D01*
X98219653Y-95762708D01*
X98231971Y-95783258D01*
X98242215Y-95804918D01*
X98250287Y-95827477D01*
X98256109Y-95850719D01*
X98259624Y-95874419D01*
X98260800Y-95898350D01*
X98260800Y-96461650D01*
X98259624Y-96485581D01*
X98256109Y-96509281D01*
X98250287Y-96532523D01*
X98242215Y-96555082D01*
X98231971Y-96576742D01*
X98219653Y-96597292D01*
X98205381Y-96616537D01*
X98189290Y-96634290D01*
X98171537Y-96650381D01*
X98152292Y-96664653D01*
X98131742Y-96676971D01*
X98110082Y-96687215D01*
X98087523Y-96695287D01*
X98064281Y-96701109D01*
X98040581Y-96704624D01*
X98016650Y-96705800D01*
X97528350Y-96705800D01*
X97504419Y-96704624D01*
X97480719Y-96701109D01*
X97457477Y-96695287D01*
X97434918Y-96687215D01*
X97413258Y-96676971D01*
X97392708Y-96664653D01*
X97373463Y-96650381D01*
X97355710Y-96634290D01*
X97339619Y-96616537D01*
X97325347Y-96597292D01*
X97313029Y-96576742D01*
X97302785Y-96555082D01*
X97294713Y-96532523D01*
X97288891Y-96509281D01*
X97285376Y-96485581D01*
X97284200Y-96461650D01*
X97284200Y-95898350D01*
X97285376Y-95874419D01*
X97288891Y-95850719D01*
X97294713Y-95827477D01*
X97302785Y-95804918D01*
X97313029Y-95783258D01*
X97325347Y-95762708D01*
X97339619Y-95743463D01*
X97355710Y-95725710D01*
X97373463Y-95709619D01*
X97392708Y-95695347D01*
X97413258Y-95683029D01*
X97434918Y-95672785D01*
X97457477Y-95664713D01*
X97480719Y-95658891D01*
X97504419Y-95655376D01*
X97528350Y-95654200D01*
X98016650Y-95654200D01*
X98040581Y-95655376D01*
G37*
G36*
X96465581Y-95655376D02*
G01*
X96489281Y-95658891D01*
X96512523Y-95664713D01*
X96535082Y-95672785D01*
X96556742Y-95683029D01*
X96577292Y-95695347D01*
X96596537Y-95709619D01*
X96614290Y-95725710D01*
X96630381Y-95743463D01*
X96644653Y-95762708D01*
X96656971Y-95783258D01*
X96667215Y-95804918D01*
X96675287Y-95827477D01*
X96681109Y-95850719D01*
X96684624Y-95874419D01*
X96685800Y-95898350D01*
X96685800Y-96461650D01*
X96684624Y-96485581D01*
X96681109Y-96509281D01*
X96675287Y-96532523D01*
X96667215Y-96555082D01*
X96656971Y-96576742D01*
X96644653Y-96597292D01*
X96630381Y-96616537D01*
X96614290Y-96634290D01*
X96596537Y-96650381D01*
X96577292Y-96664653D01*
X96556742Y-96676971D01*
X96535082Y-96687215D01*
X96512523Y-96695287D01*
X96489281Y-96701109D01*
X96465581Y-96704624D01*
X96441650Y-96705800D01*
X95953350Y-96705800D01*
X95929419Y-96704624D01*
X95905719Y-96701109D01*
X95882477Y-96695287D01*
X95859918Y-96687215D01*
X95838258Y-96676971D01*
X95817708Y-96664653D01*
X95798463Y-96650381D01*
X95780710Y-96634290D01*
X95764619Y-96616537D01*
X95750347Y-96597292D01*
X95738029Y-96576742D01*
X95727785Y-96555082D01*
X95719713Y-96532523D01*
X95713891Y-96509281D01*
X95710376Y-96485581D01*
X95709200Y-96461650D01*
X95709200Y-95898350D01*
X95710376Y-95874419D01*
X95713891Y-95850719D01*
X95719713Y-95827477D01*
X95727785Y-95804918D01*
X95738029Y-95783258D01*
X95750347Y-95762708D01*
X95764619Y-95743463D01*
X95780710Y-95725710D01*
X95798463Y-95709619D01*
X95817708Y-95695347D01*
X95838258Y-95683029D01*
X95859918Y-95672785D01*
X95882477Y-95664713D01*
X95905719Y-95658891D01*
X95929419Y-95655376D01*
X95953350Y-95654200D01*
X96441650Y-95654200D01*
X96465581Y-95655376D01*
G37*
G36*
X101480581Y-95655376D02*
G01*
X101504281Y-95658891D01*
X101527523Y-95664713D01*
X101550082Y-95672785D01*
X101571742Y-95683029D01*
X101592292Y-95695347D01*
X101611537Y-95709619D01*
X101629290Y-95725710D01*
X101645381Y-95743463D01*
X101659653Y-95762708D01*
X101671971Y-95783258D01*
X101682215Y-95804918D01*
X101690287Y-95827477D01*
X101696109Y-95850719D01*
X101699624Y-95874419D01*
X101700800Y-95898350D01*
X101700800Y-96461650D01*
X101699624Y-96485581D01*
X101696109Y-96509281D01*
X101690287Y-96532523D01*
X101682215Y-96555082D01*
X101671971Y-96576742D01*
X101659653Y-96597292D01*
X101645381Y-96616537D01*
X101629290Y-96634290D01*
X101611537Y-96650381D01*
X101592292Y-96664653D01*
X101571742Y-96676971D01*
X101550082Y-96687215D01*
X101527523Y-96695287D01*
X101504281Y-96701109D01*
X101480581Y-96704624D01*
X101456650Y-96705800D01*
X100968350Y-96705800D01*
X100944419Y-96704624D01*
X100920719Y-96701109D01*
X100897477Y-96695287D01*
X100874918Y-96687215D01*
X100853258Y-96676971D01*
X100832708Y-96664653D01*
X100813463Y-96650381D01*
X100795710Y-96634290D01*
X100779619Y-96616537D01*
X100765347Y-96597292D01*
X100753029Y-96576742D01*
X100742785Y-96555082D01*
X100734713Y-96532523D01*
X100728891Y-96509281D01*
X100725376Y-96485581D01*
X100724200Y-96461650D01*
X100724200Y-95898350D01*
X100725376Y-95874419D01*
X100728891Y-95850719D01*
X100734713Y-95827477D01*
X100742785Y-95804918D01*
X100753029Y-95783258D01*
X100765347Y-95762708D01*
X100779619Y-95743463D01*
X100795710Y-95725710D01*
X100813463Y-95709619D01*
X100832708Y-95695347D01*
X100853258Y-95683029D01*
X100874918Y-95672785D01*
X100897477Y-95664713D01*
X100920719Y-95658891D01*
X100944419Y-95655376D01*
X100968350Y-95654200D01*
X101456650Y-95654200D01*
X101480581Y-95655376D01*
G37*
G36*
X99905581Y-95655376D02*
G01*
X99929281Y-95658891D01*
X99952523Y-95664713D01*
X99975082Y-95672785D01*
X99996742Y-95683029D01*
X100017292Y-95695347D01*
X100036537Y-95709619D01*
X100054290Y-95725710D01*
X100070381Y-95743463D01*
X100084653Y-95762708D01*
X100096971Y-95783258D01*
X100107215Y-95804918D01*
X100115287Y-95827477D01*
X100121109Y-95850719D01*
X100124624Y-95874419D01*
X100125800Y-95898350D01*
X100125800Y-96461650D01*
X100124624Y-96485581D01*
X100121109Y-96509281D01*
X100115287Y-96532523D01*
X100107215Y-96555082D01*
X100096971Y-96576742D01*
X100084653Y-96597292D01*
X100070381Y-96616537D01*
X100054290Y-96634290D01*
X100036537Y-96650381D01*
X100017292Y-96664653D01*
X99996742Y-96676971D01*
X99975082Y-96687215D01*
X99952523Y-96695287D01*
X99929281Y-96701109D01*
X99905581Y-96704624D01*
X99881650Y-96705800D01*
X99393350Y-96705800D01*
X99369419Y-96704624D01*
X99345719Y-96701109D01*
X99322477Y-96695287D01*
X99299918Y-96687215D01*
X99278258Y-96676971D01*
X99257708Y-96664653D01*
X99238463Y-96650381D01*
X99220710Y-96634290D01*
X99204619Y-96616537D01*
X99190347Y-96597292D01*
X99178029Y-96576742D01*
X99167785Y-96555082D01*
X99159713Y-96532523D01*
X99153891Y-96509281D01*
X99150376Y-96485581D01*
X99149200Y-96461650D01*
X99149200Y-95898350D01*
X99150376Y-95874419D01*
X99153891Y-95850719D01*
X99159713Y-95827477D01*
X99167785Y-95804918D01*
X99178029Y-95783258D01*
X99190347Y-95762708D01*
X99204619Y-95743463D01*
X99220710Y-95725710D01*
X99238463Y-95709619D01*
X99257708Y-95695347D01*
X99278258Y-95683029D01*
X99299918Y-95672785D01*
X99322477Y-95664713D01*
X99345719Y-95658891D01*
X99369419Y-95655376D01*
X99393350Y-95654200D01*
X99881650Y-95654200D01*
X99905581Y-95655376D01*
G37*
G36*
X119655581Y-92475376D02*
G01*
X119679281Y-92478891D01*
X119702523Y-92484713D01*
X119725082Y-92492785D01*
X119746742Y-92503029D01*
X119767292Y-92515347D01*
X119786537Y-92529619D01*
X119804290Y-92545710D01*
X119820381Y-92563463D01*
X119834653Y-92582708D01*
X119846971Y-92603258D01*
X119857215Y-92624918D01*
X119865287Y-92647477D01*
X119871109Y-92670719D01*
X119874624Y-92694419D01*
X119875800Y-92718350D01*
X119875800Y-93281650D01*
X119874624Y-93305581D01*
X119871109Y-93329281D01*
X119865287Y-93352523D01*
X119857215Y-93375082D01*
X119846971Y-93396742D01*
X119834653Y-93417292D01*
X119820381Y-93436537D01*
X119804290Y-93454290D01*
X119786537Y-93470381D01*
X119767292Y-93484653D01*
X119746742Y-93496971D01*
X119725082Y-93507215D01*
X119702523Y-93515287D01*
X119679281Y-93521109D01*
X119655581Y-93524624D01*
X119631650Y-93525800D01*
X119143350Y-93525800D01*
X119119419Y-93524624D01*
X119095719Y-93521109D01*
X119072477Y-93515287D01*
X119049918Y-93507215D01*
X119028258Y-93496971D01*
X119007708Y-93484653D01*
X118988463Y-93470381D01*
X118970710Y-93454290D01*
X118954619Y-93436537D01*
X118940347Y-93417292D01*
X118928029Y-93396742D01*
X118917785Y-93375082D01*
X118909713Y-93352523D01*
X118903891Y-93329281D01*
X118900376Y-93305581D01*
X118899200Y-93281650D01*
X118899200Y-92718350D01*
X118900376Y-92694419D01*
X118903891Y-92670719D01*
X118909713Y-92647477D01*
X118917785Y-92624918D01*
X118928029Y-92603258D01*
X118940347Y-92582708D01*
X118954619Y-92563463D01*
X118970710Y-92545710D01*
X118988463Y-92529619D01*
X119007708Y-92515347D01*
X119028258Y-92503029D01*
X119049918Y-92492785D01*
X119072477Y-92484713D01*
X119095719Y-92478891D01*
X119119419Y-92475376D01*
X119143350Y-92474200D01*
X119631650Y-92474200D01*
X119655581Y-92475376D01*
G37*
G36*
X121230581Y-92475376D02*
G01*
X121254281Y-92478891D01*
X121277523Y-92484713D01*
X121300082Y-92492785D01*
X121321742Y-92503029D01*
X121342292Y-92515347D01*
X121361537Y-92529619D01*
X121379290Y-92545710D01*
X121395381Y-92563463D01*
X121409653Y-92582708D01*
X121421971Y-92603258D01*
X121432215Y-92624918D01*
X121440287Y-92647477D01*
X121446109Y-92670719D01*
X121449624Y-92694419D01*
X121450800Y-92718350D01*
X121450800Y-93281650D01*
X121449624Y-93305581D01*
X121446109Y-93329281D01*
X121440287Y-93352523D01*
X121432215Y-93375082D01*
X121421971Y-93396742D01*
X121409653Y-93417292D01*
X121395381Y-93436537D01*
X121379290Y-93454290D01*
X121361537Y-93470381D01*
X121342292Y-93484653D01*
X121321742Y-93496971D01*
X121300082Y-93507215D01*
X121277523Y-93515287D01*
X121254281Y-93521109D01*
X121230581Y-93524624D01*
X121206650Y-93525800D01*
X120718350Y-93525800D01*
X120694419Y-93524624D01*
X120670719Y-93521109D01*
X120647477Y-93515287D01*
X120624918Y-93507215D01*
X120603258Y-93496971D01*
X120582708Y-93484653D01*
X120563463Y-93470381D01*
X120545710Y-93454290D01*
X120529619Y-93436537D01*
X120515347Y-93417292D01*
X120503029Y-93396742D01*
X120492785Y-93375082D01*
X120484713Y-93352523D01*
X120478891Y-93329281D01*
X120475376Y-93305581D01*
X120474200Y-93281650D01*
X120474200Y-92718350D01*
X120475376Y-92694419D01*
X120478891Y-92670719D01*
X120484713Y-92647477D01*
X120492785Y-92624918D01*
X120503029Y-92603258D01*
X120515347Y-92582708D01*
X120529619Y-92563463D01*
X120545710Y-92545710D01*
X120563463Y-92529619D01*
X120582708Y-92515347D01*
X120603258Y-92503029D01*
X120624918Y-92492785D01*
X120647477Y-92484713D01*
X120670719Y-92478891D01*
X120694419Y-92475376D01*
X120718350Y-92474200D01*
X121206650Y-92474200D01*
X121230581Y-92475376D01*
G37*
G36*
X112425581Y-105075376D02*
G01*
X112449281Y-105078891D01*
X112472523Y-105084713D01*
X112495082Y-105092785D01*
X112516742Y-105103029D01*
X112537292Y-105115347D01*
X112556537Y-105129619D01*
X112574290Y-105145710D01*
X112590381Y-105163463D01*
X112604653Y-105182708D01*
X112616971Y-105203258D01*
X112627215Y-105224918D01*
X112635287Y-105247477D01*
X112641109Y-105270719D01*
X112644624Y-105294419D01*
X112645800Y-105318350D01*
X112645800Y-105881650D01*
X112644624Y-105905581D01*
X112641109Y-105929281D01*
X112635287Y-105952523D01*
X112627215Y-105975082D01*
X112616971Y-105996742D01*
X112604653Y-106017292D01*
X112590381Y-106036537D01*
X112574290Y-106054290D01*
X112556537Y-106070381D01*
X112537292Y-106084653D01*
X112516742Y-106096971D01*
X112495082Y-106107215D01*
X112472523Y-106115287D01*
X112449281Y-106121109D01*
X112425581Y-106124624D01*
X112401650Y-106125800D01*
X111913350Y-106125800D01*
X111889419Y-106124624D01*
X111865719Y-106121109D01*
X111842477Y-106115287D01*
X111819918Y-106107215D01*
X111798258Y-106096971D01*
X111777708Y-106084653D01*
X111758463Y-106070381D01*
X111740710Y-106054290D01*
X111724619Y-106036537D01*
X111710347Y-106017292D01*
X111698029Y-105996742D01*
X111687785Y-105975082D01*
X111679713Y-105952523D01*
X111673891Y-105929281D01*
X111670376Y-105905581D01*
X111669200Y-105881650D01*
X111669200Y-105318350D01*
X111670376Y-105294419D01*
X111673891Y-105270719D01*
X111679713Y-105247477D01*
X111687785Y-105224918D01*
X111698029Y-105203258D01*
X111710347Y-105182708D01*
X111724619Y-105163463D01*
X111740710Y-105145710D01*
X111758463Y-105129619D01*
X111777708Y-105115347D01*
X111798258Y-105103029D01*
X111819918Y-105092785D01*
X111842477Y-105084713D01*
X111865719Y-105078891D01*
X111889419Y-105075376D01*
X111913350Y-105074200D01*
X112401650Y-105074200D01*
X112425581Y-105075376D01*
G37*
G36*
X114000581Y-105075376D02*
G01*
X114024281Y-105078891D01*
X114047523Y-105084713D01*
X114070082Y-105092785D01*
X114091742Y-105103029D01*
X114112292Y-105115347D01*
X114131537Y-105129619D01*
X114149290Y-105145710D01*
X114165381Y-105163463D01*
X114179653Y-105182708D01*
X114191971Y-105203258D01*
X114202215Y-105224918D01*
X114210287Y-105247477D01*
X114216109Y-105270719D01*
X114219624Y-105294419D01*
X114220800Y-105318350D01*
X114220800Y-105881650D01*
X114219624Y-105905581D01*
X114216109Y-105929281D01*
X114210287Y-105952523D01*
X114202215Y-105975082D01*
X114191971Y-105996742D01*
X114179653Y-106017292D01*
X114165381Y-106036537D01*
X114149290Y-106054290D01*
X114131537Y-106070381D01*
X114112292Y-106084653D01*
X114091742Y-106096971D01*
X114070082Y-106107215D01*
X114047523Y-106115287D01*
X114024281Y-106121109D01*
X114000581Y-106124624D01*
X113976650Y-106125800D01*
X113488350Y-106125800D01*
X113464419Y-106124624D01*
X113440719Y-106121109D01*
X113417477Y-106115287D01*
X113394918Y-106107215D01*
X113373258Y-106096971D01*
X113352708Y-106084653D01*
X113333463Y-106070381D01*
X113315710Y-106054290D01*
X113299619Y-106036537D01*
X113285347Y-106017292D01*
X113273029Y-105996742D01*
X113262785Y-105975082D01*
X113254713Y-105952523D01*
X113248891Y-105929281D01*
X113245376Y-105905581D01*
X113244200Y-105881650D01*
X113244200Y-105318350D01*
X113245376Y-105294419D01*
X113248891Y-105270719D01*
X113254713Y-105247477D01*
X113262785Y-105224918D01*
X113273029Y-105203258D01*
X113285347Y-105182708D01*
X113299619Y-105163463D01*
X113315710Y-105145710D01*
X113333463Y-105129619D01*
X113352708Y-105115347D01*
X113373258Y-105103029D01*
X113394918Y-105092785D01*
X113417477Y-105084713D01*
X113440719Y-105078891D01*
X113464419Y-105075376D01*
X113488350Y-105074200D01*
X113976650Y-105074200D01*
X114000581Y-105075376D01*
G37*
G36*
X109375581Y-105075376D02*
G01*
X109399281Y-105078891D01*
X109422523Y-105084713D01*
X109445082Y-105092785D01*
X109466742Y-105103029D01*
X109487292Y-105115347D01*
X109506537Y-105129619D01*
X109524290Y-105145710D01*
X109540381Y-105163463D01*
X109554653Y-105182708D01*
X109566971Y-105203258D01*
X109577215Y-105224918D01*
X109585287Y-105247477D01*
X109591109Y-105270719D01*
X109594624Y-105294419D01*
X109595800Y-105318350D01*
X109595800Y-105881650D01*
X109594624Y-105905581D01*
X109591109Y-105929281D01*
X109585287Y-105952523D01*
X109577215Y-105975082D01*
X109566971Y-105996742D01*
X109554653Y-106017292D01*
X109540381Y-106036537D01*
X109524290Y-106054290D01*
X109506537Y-106070381D01*
X109487292Y-106084653D01*
X109466742Y-106096971D01*
X109445082Y-106107215D01*
X109422523Y-106115287D01*
X109399281Y-106121109D01*
X109375581Y-106124624D01*
X109351650Y-106125800D01*
X108863350Y-106125800D01*
X108839419Y-106124624D01*
X108815719Y-106121109D01*
X108792477Y-106115287D01*
X108769918Y-106107215D01*
X108748258Y-106096971D01*
X108727708Y-106084653D01*
X108708463Y-106070381D01*
X108690710Y-106054290D01*
X108674619Y-106036537D01*
X108660347Y-106017292D01*
X108648029Y-105996742D01*
X108637785Y-105975082D01*
X108629713Y-105952523D01*
X108623891Y-105929281D01*
X108620376Y-105905581D01*
X108619200Y-105881650D01*
X108619200Y-105318350D01*
X108620376Y-105294419D01*
X108623891Y-105270719D01*
X108629713Y-105247477D01*
X108637785Y-105224918D01*
X108648029Y-105203258D01*
X108660347Y-105182708D01*
X108674619Y-105163463D01*
X108690710Y-105145710D01*
X108708463Y-105129619D01*
X108727708Y-105115347D01*
X108748258Y-105103029D01*
X108769918Y-105092785D01*
X108792477Y-105084713D01*
X108815719Y-105078891D01*
X108839419Y-105075376D01*
X108863350Y-105074200D01*
X109351650Y-105074200D01*
X109375581Y-105075376D01*
G37*
G36*
X110950581Y-105075376D02*
G01*
X110974281Y-105078891D01*
X110997523Y-105084713D01*
X111020082Y-105092785D01*
X111041742Y-105103029D01*
X111062292Y-105115347D01*
X111081537Y-105129619D01*
X111099290Y-105145710D01*
X111115381Y-105163463D01*
X111129653Y-105182708D01*
X111141971Y-105203258D01*
X111152215Y-105224918D01*
X111160287Y-105247477D01*
X111166109Y-105270719D01*
X111169624Y-105294419D01*
X111170800Y-105318350D01*
X111170800Y-105881650D01*
X111169624Y-105905581D01*
X111166109Y-105929281D01*
X111160287Y-105952523D01*
X111152215Y-105975082D01*
X111141971Y-105996742D01*
X111129653Y-106017292D01*
X111115381Y-106036537D01*
X111099290Y-106054290D01*
X111081537Y-106070381D01*
X111062292Y-106084653D01*
X111041742Y-106096971D01*
X111020082Y-106107215D01*
X110997523Y-106115287D01*
X110974281Y-106121109D01*
X110950581Y-106124624D01*
X110926650Y-106125800D01*
X110438350Y-106125800D01*
X110414419Y-106124624D01*
X110390719Y-106121109D01*
X110367477Y-106115287D01*
X110344918Y-106107215D01*
X110323258Y-106096971D01*
X110302708Y-106084653D01*
X110283463Y-106070381D01*
X110265710Y-106054290D01*
X110249619Y-106036537D01*
X110235347Y-106017292D01*
X110223029Y-105996742D01*
X110212785Y-105975082D01*
X110204713Y-105952523D01*
X110198891Y-105929281D01*
X110195376Y-105905581D01*
X110194200Y-105881650D01*
X110194200Y-105318350D01*
X110195376Y-105294419D01*
X110198891Y-105270719D01*
X110204713Y-105247477D01*
X110212785Y-105224918D01*
X110223029Y-105203258D01*
X110235347Y-105182708D01*
X110249619Y-105163463D01*
X110265710Y-105145710D01*
X110283463Y-105129619D01*
X110302708Y-105115347D01*
X110323258Y-105103029D01*
X110344918Y-105092785D01*
X110367477Y-105084713D01*
X110390719Y-105078891D01*
X110414419Y-105075376D01*
X110438350Y-105074200D01*
X110926650Y-105074200D01*
X110950581Y-105075376D01*
G37*
G36*
X102705581Y-102400376D02*
G01*
X102729281Y-102403891D01*
X102752523Y-102409713D01*
X102775082Y-102417785D01*
X102796742Y-102428029D01*
X102817292Y-102440347D01*
X102836537Y-102454619D01*
X102854290Y-102470710D01*
X102870381Y-102488463D01*
X102884653Y-102507708D01*
X102896971Y-102528258D01*
X102907215Y-102549918D01*
X102915287Y-102572477D01*
X102921109Y-102595719D01*
X102924624Y-102619419D01*
X102925800Y-102643350D01*
X102925800Y-103206650D01*
X102924624Y-103230581D01*
X102921109Y-103254281D01*
X102915287Y-103277523D01*
X102907215Y-103300082D01*
X102896971Y-103321742D01*
X102884653Y-103342292D01*
X102870381Y-103361537D01*
X102854290Y-103379290D01*
X102836537Y-103395381D01*
X102817292Y-103409653D01*
X102796742Y-103421971D01*
X102775082Y-103432215D01*
X102752523Y-103440287D01*
X102729281Y-103446109D01*
X102705581Y-103449624D01*
X102681650Y-103450800D01*
X102193350Y-103450800D01*
X102169419Y-103449624D01*
X102145719Y-103446109D01*
X102122477Y-103440287D01*
X102099918Y-103432215D01*
X102078258Y-103421971D01*
X102057708Y-103409653D01*
X102038463Y-103395381D01*
X102020710Y-103379290D01*
X102004619Y-103361537D01*
X101990347Y-103342292D01*
X101978029Y-103321742D01*
X101967785Y-103300082D01*
X101959713Y-103277523D01*
X101953891Y-103254281D01*
X101950376Y-103230581D01*
X101949200Y-103206650D01*
X101949200Y-102643350D01*
X101950376Y-102619419D01*
X101953891Y-102595719D01*
X101959713Y-102572477D01*
X101967785Y-102549918D01*
X101978029Y-102528258D01*
X101990347Y-102507708D01*
X102004619Y-102488463D01*
X102020710Y-102470710D01*
X102038463Y-102454619D01*
X102057708Y-102440347D01*
X102078258Y-102428029D01*
X102099918Y-102417785D01*
X102122477Y-102409713D01*
X102145719Y-102403891D01*
X102169419Y-102400376D01*
X102193350Y-102399200D01*
X102681650Y-102399200D01*
X102705581Y-102400376D01*
G37*
G36*
X101130581Y-102400376D02*
G01*
X101154281Y-102403891D01*
X101177523Y-102409713D01*
X101200082Y-102417785D01*
X101221742Y-102428029D01*
X101242292Y-102440347D01*
X101261537Y-102454619D01*
X101279290Y-102470710D01*
X101295381Y-102488463D01*
X101309653Y-102507708D01*
X101321971Y-102528258D01*
X101332215Y-102549918D01*
X101340287Y-102572477D01*
X101346109Y-102595719D01*
X101349624Y-102619419D01*
X101350800Y-102643350D01*
X101350800Y-103206650D01*
X101349624Y-103230581D01*
X101346109Y-103254281D01*
X101340287Y-103277523D01*
X101332215Y-103300082D01*
X101321971Y-103321742D01*
X101309653Y-103342292D01*
X101295381Y-103361537D01*
X101279290Y-103379290D01*
X101261537Y-103395381D01*
X101242292Y-103409653D01*
X101221742Y-103421971D01*
X101200082Y-103432215D01*
X101177523Y-103440287D01*
X101154281Y-103446109D01*
X101130581Y-103449624D01*
X101106650Y-103450800D01*
X100618350Y-103450800D01*
X100594419Y-103449624D01*
X100570719Y-103446109D01*
X100547477Y-103440287D01*
X100524918Y-103432215D01*
X100503258Y-103421971D01*
X100482708Y-103409653D01*
X100463463Y-103395381D01*
X100445710Y-103379290D01*
X100429619Y-103361537D01*
X100415347Y-103342292D01*
X100403029Y-103321742D01*
X100392785Y-103300082D01*
X100384713Y-103277523D01*
X100378891Y-103254281D01*
X100375376Y-103230581D01*
X100374200Y-103206650D01*
X100374200Y-102643350D01*
X100375376Y-102619419D01*
X100378891Y-102595719D01*
X100384713Y-102572477D01*
X100392785Y-102549918D01*
X100403029Y-102528258D01*
X100415347Y-102507708D01*
X100429619Y-102488463D01*
X100445710Y-102470710D01*
X100463463Y-102454619D01*
X100482708Y-102440347D01*
X100503258Y-102428029D01*
X100524918Y-102417785D01*
X100547477Y-102409713D01*
X100570719Y-102403891D01*
X100594419Y-102400376D01*
X100618350Y-102399200D01*
X101106650Y-102399200D01*
X101130581Y-102400376D01*
G37*
G36*
X99730581Y-102400376D02*
G01*
X99754281Y-102403891D01*
X99777523Y-102409713D01*
X99800082Y-102417785D01*
X99821742Y-102428029D01*
X99842292Y-102440347D01*
X99861537Y-102454619D01*
X99879290Y-102470710D01*
X99895381Y-102488463D01*
X99909653Y-102507708D01*
X99921971Y-102528258D01*
X99932215Y-102549918D01*
X99940287Y-102572477D01*
X99946109Y-102595719D01*
X99949624Y-102619419D01*
X99950800Y-102643350D01*
X99950800Y-103206650D01*
X99949624Y-103230581D01*
X99946109Y-103254281D01*
X99940287Y-103277523D01*
X99932215Y-103300082D01*
X99921971Y-103321742D01*
X99909653Y-103342292D01*
X99895381Y-103361537D01*
X99879290Y-103379290D01*
X99861537Y-103395381D01*
X99842292Y-103409653D01*
X99821742Y-103421971D01*
X99800082Y-103432215D01*
X99777523Y-103440287D01*
X99754281Y-103446109D01*
X99730581Y-103449624D01*
X99706650Y-103450800D01*
X99218350Y-103450800D01*
X99194419Y-103449624D01*
X99170719Y-103446109D01*
X99147477Y-103440287D01*
X99124918Y-103432215D01*
X99103258Y-103421971D01*
X99082708Y-103409653D01*
X99063463Y-103395381D01*
X99045710Y-103379290D01*
X99029619Y-103361537D01*
X99015347Y-103342292D01*
X99003029Y-103321742D01*
X98992785Y-103300082D01*
X98984713Y-103277523D01*
X98978891Y-103254281D01*
X98975376Y-103230581D01*
X98974200Y-103206650D01*
X98974200Y-102643350D01*
X98975376Y-102619419D01*
X98978891Y-102595719D01*
X98984713Y-102572477D01*
X98992785Y-102549918D01*
X99003029Y-102528258D01*
X99015347Y-102507708D01*
X99029619Y-102488463D01*
X99045710Y-102470710D01*
X99063463Y-102454619D01*
X99082708Y-102440347D01*
X99103258Y-102428029D01*
X99124918Y-102417785D01*
X99147477Y-102409713D01*
X99170719Y-102403891D01*
X99194419Y-102400376D01*
X99218350Y-102399200D01*
X99706650Y-102399200D01*
X99730581Y-102400376D01*
G37*
G36*
X98155581Y-102400376D02*
G01*
X98179281Y-102403891D01*
X98202523Y-102409713D01*
X98225082Y-102417785D01*
X98246742Y-102428029D01*
X98267292Y-102440347D01*
X98286537Y-102454619D01*
X98304290Y-102470710D01*
X98320381Y-102488463D01*
X98334653Y-102507708D01*
X98346971Y-102528258D01*
X98357215Y-102549918D01*
X98365287Y-102572477D01*
X98371109Y-102595719D01*
X98374624Y-102619419D01*
X98375800Y-102643350D01*
X98375800Y-103206650D01*
X98374624Y-103230581D01*
X98371109Y-103254281D01*
X98365287Y-103277523D01*
X98357215Y-103300082D01*
X98346971Y-103321742D01*
X98334653Y-103342292D01*
X98320381Y-103361537D01*
X98304290Y-103379290D01*
X98286537Y-103395381D01*
X98267292Y-103409653D01*
X98246742Y-103421971D01*
X98225082Y-103432215D01*
X98202523Y-103440287D01*
X98179281Y-103446109D01*
X98155581Y-103449624D01*
X98131650Y-103450800D01*
X97643350Y-103450800D01*
X97619419Y-103449624D01*
X97595719Y-103446109D01*
X97572477Y-103440287D01*
X97549918Y-103432215D01*
X97528258Y-103421971D01*
X97507708Y-103409653D01*
X97488463Y-103395381D01*
X97470710Y-103379290D01*
X97454619Y-103361537D01*
X97440347Y-103342292D01*
X97428029Y-103321742D01*
X97417785Y-103300082D01*
X97409713Y-103277523D01*
X97403891Y-103254281D01*
X97400376Y-103230581D01*
X97399200Y-103206650D01*
X97399200Y-102643350D01*
X97400376Y-102619419D01*
X97403891Y-102595719D01*
X97409713Y-102572477D01*
X97417785Y-102549918D01*
X97428029Y-102528258D01*
X97440347Y-102507708D01*
X97454619Y-102488463D01*
X97470710Y-102470710D01*
X97488463Y-102454619D01*
X97507708Y-102440347D01*
X97528258Y-102428029D01*
X97549918Y-102417785D01*
X97572477Y-102409713D01*
X97595719Y-102403891D01*
X97619419Y-102400376D01*
X97643350Y-102399200D01*
X98131650Y-102399200D01*
X98155581Y-102400376D01*
G37*
G36*
X100955581Y-97465376D02*
G01*
X100979281Y-97468891D01*
X101002523Y-97474713D01*
X101025082Y-97482785D01*
X101046742Y-97493029D01*
X101067292Y-97505347D01*
X101086537Y-97519619D01*
X101104290Y-97535710D01*
X101120381Y-97553463D01*
X101134653Y-97572708D01*
X101146971Y-97593258D01*
X101157215Y-97614918D01*
X101165287Y-97637477D01*
X101171109Y-97660719D01*
X101174624Y-97684419D01*
X101175800Y-97708350D01*
X101175800Y-98271650D01*
X101174624Y-98295581D01*
X101171109Y-98319281D01*
X101165287Y-98342523D01*
X101157215Y-98365082D01*
X101146971Y-98386742D01*
X101134653Y-98407292D01*
X101120381Y-98426537D01*
X101104290Y-98444290D01*
X101086537Y-98460381D01*
X101067292Y-98474653D01*
X101046742Y-98486971D01*
X101025082Y-98497215D01*
X101002523Y-98505287D01*
X100979281Y-98511109D01*
X100955581Y-98514624D01*
X100931650Y-98515800D01*
X100443350Y-98515800D01*
X100419419Y-98514624D01*
X100395719Y-98511109D01*
X100372477Y-98505287D01*
X100349918Y-98497215D01*
X100328258Y-98486971D01*
X100307708Y-98474653D01*
X100288463Y-98460381D01*
X100270710Y-98444290D01*
X100254619Y-98426537D01*
X100240347Y-98407292D01*
X100228029Y-98386742D01*
X100217785Y-98365082D01*
X100209713Y-98342523D01*
X100203891Y-98319281D01*
X100200376Y-98295581D01*
X100199200Y-98271650D01*
X100199200Y-97708350D01*
X100200376Y-97684419D01*
X100203891Y-97660719D01*
X100209713Y-97637477D01*
X100217785Y-97614918D01*
X100228029Y-97593258D01*
X100240347Y-97572708D01*
X100254619Y-97553463D01*
X100270710Y-97535710D01*
X100288463Y-97519619D01*
X100307708Y-97505347D01*
X100328258Y-97493029D01*
X100349918Y-97482785D01*
X100372477Y-97474713D01*
X100395719Y-97468891D01*
X100419419Y-97465376D01*
X100443350Y-97464200D01*
X100931650Y-97464200D01*
X100955581Y-97465376D01*
G37*
G36*
X102530581Y-97465376D02*
G01*
X102554281Y-97468891D01*
X102577523Y-97474713D01*
X102600082Y-97482785D01*
X102621742Y-97493029D01*
X102642292Y-97505347D01*
X102661537Y-97519619D01*
X102679290Y-97535710D01*
X102695381Y-97553463D01*
X102709653Y-97572708D01*
X102721971Y-97593258D01*
X102732215Y-97614918D01*
X102740287Y-97637477D01*
X102746109Y-97660719D01*
X102749624Y-97684419D01*
X102750800Y-97708350D01*
X102750800Y-98271650D01*
X102749624Y-98295581D01*
X102746109Y-98319281D01*
X102740287Y-98342523D01*
X102732215Y-98365082D01*
X102721971Y-98386742D01*
X102709653Y-98407292D01*
X102695381Y-98426537D01*
X102679290Y-98444290D01*
X102661537Y-98460381D01*
X102642292Y-98474653D01*
X102621742Y-98486971D01*
X102600082Y-98497215D01*
X102577523Y-98505287D01*
X102554281Y-98511109D01*
X102530581Y-98514624D01*
X102506650Y-98515800D01*
X102018350Y-98515800D01*
X101994419Y-98514624D01*
X101970719Y-98511109D01*
X101947477Y-98505287D01*
X101924918Y-98497215D01*
X101903258Y-98486971D01*
X101882708Y-98474653D01*
X101863463Y-98460381D01*
X101845710Y-98444290D01*
X101829619Y-98426537D01*
X101815347Y-98407292D01*
X101803029Y-98386742D01*
X101792785Y-98365082D01*
X101784713Y-98342523D01*
X101778891Y-98319281D01*
X101775376Y-98295581D01*
X101774200Y-98271650D01*
X101774200Y-97708350D01*
X101775376Y-97684419D01*
X101778891Y-97660719D01*
X101784713Y-97637477D01*
X101792785Y-97614918D01*
X101803029Y-97593258D01*
X101815347Y-97572708D01*
X101829619Y-97553463D01*
X101845710Y-97535710D01*
X101863463Y-97519619D01*
X101882708Y-97505347D01*
X101903258Y-97493029D01*
X101924918Y-97482785D01*
X101947477Y-97474713D01*
X101970719Y-97468891D01*
X101994419Y-97465376D01*
X102018350Y-97464200D01*
X102506650Y-97464200D01*
X102530581Y-97465376D01*
G37*
G36*
X97785581Y-97465376D02*
G01*
X97809281Y-97468891D01*
X97832523Y-97474713D01*
X97855082Y-97482785D01*
X97876742Y-97493029D01*
X97897292Y-97505347D01*
X97916537Y-97519619D01*
X97934290Y-97535710D01*
X97950381Y-97553463D01*
X97964653Y-97572708D01*
X97976971Y-97593258D01*
X97987215Y-97614918D01*
X97995287Y-97637477D01*
X98001109Y-97660719D01*
X98004624Y-97684419D01*
X98005800Y-97708350D01*
X98005800Y-98271650D01*
X98004624Y-98295581D01*
X98001109Y-98319281D01*
X97995287Y-98342523D01*
X97987215Y-98365082D01*
X97976971Y-98386742D01*
X97964653Y-98407292D01*
X97950381Y-98426537D01*
X97934290Y-98444290D01*
X97916537Y-98460381D01*
X97897292Y-98474653D01*
X97876742Y-98486971D01*
X97855082Y-98497215D01*
X97832523Y-98505287D01*
X97809281Y-98511109D01*
X97785581Y-98514624D01*
X97761650Y-98515800D01*
X97273350Y-98515800D01*
X97249419Y-98514624D01*
X97225719Y-98511109D01*
X97202477Y-98505287D01*
X97179918Y-98497215D01*
X97158258Y-98486971D01*
X97137708Y-98474653D01*
X97118463Y-98460381D01*
X97100710Y-98444290D01*
X97084619Y-98426537D01*
X97070347Y-98407292D01*
X97058029Y-98386742D01*
X97047785Y-98365082D01*
X97039713Y-98342523D01*
X97033891Y-98319281D01*
X97030376Y-98295581D01*
X97029200Y-98271650D01*
X97029200Y-97708350D01*
X97030376Y-97684419D01*
X97033891Y-97660719D01*
X97039713Y-97637477D01*
X97047785Y-97614918D01*
X97058029Y-97593258D01*
X97070347Y-97572708D01*
X97084619Y-97553463D01*
X97100710Y-97535710D01*
X97118463Y-97519619D01*
X97137708Y-97505347D01*
X97158258Y-97493029D01*
X97179918Y-97482785D01*
X97202477Y-97474713D01*
X97225719Y-97468891D01*
X97249419Y-97465376D01*
X97273350Y-97464200D01*
X97761650Y-97464200D01*
X97785581Y-97465376D01*
G37*
G36*
X99360581Y-97465376D02*
G01*
X99384281Y-97468891D01*
X99407523Y-97474713D01*
X99430082Y-97482785D01*
X99451742Y-97493029D01*
X99472292Y-97505347D01*
X99491537Y-97519619D01*
X99509290Y-97535710D01*
X99525381Y-97553463D01*
X99539653Y-97572708D01*
X99551971Y-97593258D01*
X99562215Y-97614918D01*
X99570287Y-97637477D01*
X99576109Y-97660719D01*
X99579624Y-97684419D01*
X99580800Y-97708350D01*
X99580800Y-98271650D01*
X99579624Y-98295581D01*
X99576109Y-98319281D01*
X99570287Y-98342523D01*
X99562215Y-98365082D01*
X99551971Y-98386742D01*
X99539653Y-98407292D01*
X99525381Y-98426537D01*
X99509290Y-98444290D01*
X99491537Y-98460381D01*
X99472292Y-98474653D01*
X99451742Y-98486971D01*
X99430082Y-98497215D01*
X99407523Y-98505287D01*
X99384281Y-98511109D01*
X99360581Y-98514624D01*
X99336650Y-98515800D01*
X98848350Y-98515800D01*
X98824419Y-98514624D01*
X98800719Y-98511109D01*
X98777477Y-98505287D01*
X98754918Y-98497215D01*
X98733258Y-98486971D01*
X98712708Y-98474653D01*
X98693463Y-98460381D01*
X98675710Y-98444290D01*
X98659619Y-98426537D01*
X98645347Y-98407292D01*
X98633029Y-98386742D01*
X98622785Y-98365082D01*
X98614713Y-98342523D01*
X98608891Y-98319281D01*
X98605376Y-98295581D01*
X98604200Y-98271650D01*
X98604200Y-97708350D01*
X98605376Y-97684419D01*
X98608891Y-97660719D01*
X98614713Y-97637477D01*
X98622785Y-97614918D01*
X98633029Y-97593258D01*
X98645347Y-97572708D01*
X98659619Y-97553463D01*
X98675710Y-97535710D01*
X98693463Y-97519619D01*
X98712708Y-97505347D01*
X98733258Y-97493029D01*
X98754918Y-97482785D01*
X98777477Y-97474713D01*
X98800719Y-97468891D01*
X98824419Y-97465376D01*
X98848350Y-97464200D01*
X99336650Y-97464200D01*
X99360581Y-97465376D01*
G37*
G36*
X96730581Y-102400376D02*
G01*
X96754281Y-102403891D01*
X96777523Y-102409713D01*
X96800082Y-102417785D01*
X96821742Y-102428029D01*
X96842292Y-102440347D01*
X96861537Y-102454619D01*
X96879290Y-102470710D01*
X96895381Y-102488463D01*
X96909653Y-102507708D01*
X96921971Y-102528258D01*
X96932215Y-102549918D01*
X96940287Y-102572477D01*
X96946109Y-102595719D01*
X96949624Y-102619419D01*
X96950800Y-102643350D01*
X96950800Y-103206650D01*
X96949624Y-103230581D01*
X96946109Y-103254281D01*
X96940287Y-103277523D01*
X96932215Y-103300082D01*
X96921971Y-103321742D01*
X96909653Y-103342292D01*
X96895381Y-103361537D01*
X96879290Y-103379290D01*
X96861537Y-103395381D01*
X96842292Y-103409653D01*
X96821742Y-103421971D01*
X96800082Y-103432215D01*
X96777523Y-103440287D01*
X96754281Y-103446109D01*
X96730581Y-103449624D01*
X96706650Y-103450800D01*
X96218350Y-103450800D01*
X96194419Y-103449624D01*
X96170719Y-103446109D01*
X96147477Y-103440287D01*
X96124918Y-103432215D01*
X96103258Y-103421971D01*
X96082708Y-103409653D01*
X96063463Y-103395381D01*
X96045710Y-103379290D01*
X96029619Y-103361537D01*
X96015347Y-103342292D01*
X96003029Y-103321742D01*
X95992785Y-103300082D01*
X95984713Y-103277523D01*
X95978891Y-103254281D01*
X95975376Y-103230581D01*
X95974200Y-103206650D01*
X95974200Y-102643350D01*
X95975376Y-102619419D01*
X95978891Y-102595719D01*
X95984713Y-102572477D01*
X95992785Y-102549918D01*
X96003029Y-102528258D01*
X96015347Y-102507708D01*
X96029619Y-102488463D01*
X96045710Y-102470710D01*
X96063463Y-102454619D01*
X96082708Y-102440347D01*
X96103258Y-102428029D01*
X96124918Y-102417785D01*
X96147477Y-102409713D01*
X96170719Y-102403891D01*
X96194419Y-102400376D01*
X96218350Y-102399200D01*
X96706650Y-102399200D01*
X96730581Y-102400376D01*
G37*
G36*
X95155581Y-102400376D02*
G01*
X95179281Y-102403891D01*
X95202523Y-102409713D01*
X95225082Y-102417785D01*
X95246742Y-102428029D01*
X95267292Y-102440347D01*
X95286537Y-102454619D01*
X95304290Y-102470710D01*
X95320381Y-102488463D01*
X95334653Y-102507708D01*
X95346971Y-102528258D01*
X95357215Y-102549918D01*
X95365287Y-102572477D01*
X95371109Y-102595719D01*
X95374624Y-102619419D01*
X95375800Y-102643350D01*
X95375800Y-103206650D01*
X95374624Y-103230581D01*
X95371109Y-103254281D01*
X95365287Y-103277523D01*
X95357215Y-103300082D01*
X95346971Y-103321742D01*
X95334653Y-103342292D01*
X95320381Y-103361537D01*
X95304290Y-103379290D01*
X95286537Y-103395381D01*
X95267292Y-103409653D01*
X95246742Y-103421971D01*
X95225082Y-103432215D01*
X95202523Y-103440287D01*
X95179281Y-103446109D01*
X95155581Y-103449624D01*
X95131650Y-103450800D01*
X94643350Y-103450800D01*
X94619419Y-103449624D01*
X94595719Y-103446109D01*
X94572477Y-103440287D01*
X94549918Y-103432215D01*
X94528258Y-103421971D01*
X94507708Y-103409653D01*
X94488463Y-103395381D01*
X94470710Y-103379290D01*
X94454619Y-103361537D01*
X94440347Y-103342292D01*
X94428029Y-103321742D01*
X94417785Y-103300082D01*
X94409713Y-103277523D01*
X94403891Y-103254281D01*
X94400376Y-103230581D01*
X94399200Y-103206650D01*
X94399200Y-102643350D01*
X94400376Y-102619419D01*
X94403891Y-102595719D01*
X94409713Y-102572477D01*
X94417785Y-102549918D01*
X94428029Y-102528258D01*
X94440347Y-102507708D01*
X94454619Y-102488463D01*
X94470710Y-102470710D01*
X94488463Y-102454619D01*
X94507708Y-102440347D01*
X94528258Y-102428029D01*
X94549918Y-102417785D01*
X94572477Y-102409713D01*
X94595719Y-102403891D01*
X94619419Y-102400376D01*
X94643350Y-102399200D01*
X95131650Y-102399200D01*
X95155581Y-102400376D01*
G37*
G36*
X96180581Y-97470376D02*
G01*
X96204281Y-97473891D01*
X96227523Y-97479713D01*
X96250082Y-97487785D01*
X96271742Y-97498029D01*
X96292292Y-97510347D01*
X96311537Y-97524619D01*
X96329290Y-97540710D01*
X96345381Y-97558463D01*
X96359653Y-97577708D01*
X96371971Y-97598258D01*
X96382215Y-97619918D01*
X96390287Y-97642477D01*
X96396109Y-97665719D01*
X96399624Y-97689419D01*
X96400800Y-97713350D01*
X96400800Y-98276650D01*
X96399624Y-98300581D01*
X96396109Y-98324281D01*
X96390287Y-98347523D01*
X96382215Y-98370082D01*
X96371971Y-98391742D01*
X96359653Y-98412292D01*
X96345381Y-98431537D01*
X96329290Y-98449290D01*
X96311537Y-98465381D01*
X96292292Y-98479653D01*
X96271742Y-98491971D01*
X96250082Y-98502215D01*
X96227523Y-98510287D01*
X96204281Y-98516109D01*
X96180581Y-98519624D01*
X96156650Y-98520800D01*
X95668350Y-98520800D01*
X95644419Y-98519624D01*
X95620719Y-98516109D01*
X95597477Y-98510287D01*
X95574918Y-98502215D01*
X95553258Y-98491971D01*
X95532708Y-98479653D01*
X95513463Y-98465381D01*
X95495710Y-98449290D01*
X95479619Y-98431537D01*
X95465347Y-98412292D01*
X95453029Y-98391742D01*
X95442785Y-98370082D01*
X95434713Y-98347523D01*
X95428891Y-98324281D01*
X95425376Y-98300581D01*
X95424200Y-98276650D01*
X95424200Y-97713350D01*
X95425376Y-97689419D01*
X95428891Y-97665719D01*
X95434713Y-97642477D01*
X95442785Y-97619918D01*
X95453029Y-97598258D01*
X95465347Y-97577708D01*
X95479619Y-97558463D01*
X95495710Y-97540710D01*
X95513463Y-97524619D01*
X95532708Y-97510347D01*
X95553258Y-97498029D01*
X95574918Y-97487785D01*
X95597477Y-97479713D01*
X95620719Y-97473891D01*
X95644419Y-97470376D01*
X95668350Y-97469200D01*
X96156650Y-97469200D01*
X96180581Y-97470376D01*
G37*
G36*
X94605581Y-97470376D02*
G01*
X94629281Y-97473891D01*
X94652523Y-97479713D01*
X94675082Y-97487785D01*
X94696742Y-97498029D01*
X94717292Y-97510347D01*
X94736537Y-97524619D01*
X94754290Y-97540710D01*
X94770381Y-97558463D01*
X94784653Y-97577708D01*
X94796971Y-97598258D01*
X94807215Y-97619918D01*
X94815287Y-97642477D01*
X94821109Y-97665719D01*
X94824624Y-97689419D01*
X94825800Y-97713350D01*
X94825800Y-98276650D01*
X94824624Y-98300581D01*
X94821109Y-98324281D01*
X94815287Y-98347523D01*
X94807215Y-98370082D01*
X94796971Y-98391742D01*
X94784653Y-98412292D01*
X94770381Y-98431537D01*
X94754290Y-98449290D01*
X94736537Y-98465381D01*
X94717292Y-98479653D01*
X94696742Y-98491971D01*
X94675082Y-98502215D01*
X94652523Y-98510287D01*
X94629281Y-98516109D01*
X94605581Y-98519624D01*
X94581650Y-98520800D01*
X94093350Y-98520800D01*
X94069419Y-98519624D01*
X94045719Y-98516109D01*
X94022477Y-98510287D01*
X93999918Y-98502215D01*
X93978258Y-98491971D01*
X93957708Y-98479653D01*
X93938463Y-98465381D01*
X93920710Y-98449290D01*
X93904619Y-98431537D01*
X93890347Y-98412292D01*
X93878029Y-98391742D01*
X93867785Y-98370082D01*
X93859713Y-98347523D01*
X93853891Y-98324281D01*
X93850376Y-98300581D01*
X93849200Y-98276650D01*
X93849200Y-97713350D01*
X93850376Y-97689419D01*
X93853891Y-97665719D01*
X93859713Y-97642477D01*
X93867785Y-97619918D01*
X93878029Y-97598258D01*
X93890347Y-97577708D01*
X93904619Y-97558463D01*
X93920710Y-97540710D01*
X93938463Y-97524619D01*
X93957708Y-97510347D01*
X93978258Y-97498029D01*
X93999918Y-97487785D01*
X94022477Y-97479713D01*
X94045719Y-97473891D01*
X94069419Y-97470376D01*
X94093350Y-97469200D01*
X94581650Y-97469200D01*
X94605581Y-97470376D01*
G37*
G36*
X92930581Y-97470376D02*
G01*
X92954281Y-97473891D01*
X92977523Y-97479713D01*
X93000082Y-97487785D01*
X93021742Y-97498029D01*
X93042292Y-97510347D01*
X93061537Y-97524619D01*
X93079290Y-97540710D01*
X93095381Y-97558463D01*
X93109653Y-97577708D01*
X93121971Y-97598258D01*
X93132215Y-97619918D01*
X93140287Y-97642477D01*
X93146109Y-97665719D01*
X93149624Y-97689419D01*
X93150800Y-97713350D01*
X93150800Y-98276650D01*
X93149624Y-98300581D01*
X93146109Y-98324281D01*
X93140287Y-98347523D01*
X93132215Y-98370082D01*
X93121971Y-98391742D01*
X93109653Y-98412292D01*
X93095381Y-98431537D01*
X93079290Y-98449290D01*
X93061537Y-98465381D01*
X93042292Y-98479653D01*
X93021742Y-98491971D01*
X93000082Y-98502215D01*
X92977523Y-98510287D01*
X92954281Y-98516109D01*
X92930581Y-98519624D01*
X92906650Y-98520800D01*
X92418350Y-98520800D01*
X92394419Y-98519624D01*
X92370719Y-98516109D01*
X92347477Y-98510287D01*
X92324918Y-98502215D01*
X92303258Y-98491971D01*
X92282708Y-98479653D01*
X92263463Y-98465381D01*
X92245710Y-98449290D01*
X92229619Y-98431537D01*
X92215347Y-98412292D01*
X92203029Y-98391742D01*
X92192785Y-98370082D01*
X92184713Y-98347523D01*
X92178891Y-98324281D01*
X92175376Y-98300581D01*
X92174200Y-98276650D01*
X92174200Y-97713350D01*
X92175376Y-97689419D01*
X92178891Y-97665719D01*
X92184713Y-97642477D01*
X92192785Y-97619918D01*
X92203029Y-97598258D01*
X92215347Y-97577708D01*
X92229619Y-97558463D01*
X92245710Y-97540710D01*
X92263463Y-97524619D01*
X92282708Y-97510347D01*
X92303258Y-97498029D01*
X92324918Y-97487785D01*
X92347477Y-97479713D01*
X92370719Y-97473891D01*
X92394419Y-97470376D01*
X92418350Y-97469200D01*
X92906650Y-97469200D01*
X92930581Y-97470376D01*
G37*
G36*
X91355581Y-97470376D02*
G01*
X91379281Y-97473891D01*
X91402523Y-97479713D01*
X91425082Y-97487785D01*
X91446742Y-97498029D01*
X91467292Y-97510347D01*
X91486537Y-97524619D01*
X91504290Y-97540710D01*
X91520381Y-97558463D01*
X91534653Y-97577708D01*
X91546971Y-97598258D01*
X91557215Y-97619918D01*
X91565287Y-97642477D01*
X91571109Y-97665719D01*
X91574624Y-97689419D01*
X91575800Y-97713350D01*
X91575800Y-98276650D01*
X91574624Y-98300581D01*
X91571109Y-98324281D01*
X91565287Y-98347523D01*
X91557215Y-98370082D01*
X91546971Y-98391742D01*
X91534653Y-98412292D01*
X91520381Y-98431537D01*
X91504290Y-98449290D01*
X91486537Y-98465381D01*
X91467292Y-98479653D01*
X91446742Y-98491971D01*
X91425082Y-98502215D01*
X91402523Y-98510287D01*
X91379281Y-98516109D01*
X91355581Y-98519624D01*
X91331650Y-98520800D01*
X90843350Y-98520800D01*
X90819419Y-98519624D01*
X90795719Y-98516109D01*
X90772477Y-98510287D01*
X90749918Y-98502215D01*
X90728258Y-98491971D01*
X90707708Y-98479653D01*
X90688463Y-98465381D01*
X90670710Y-98449290D01*
X90654619Y-98431537D01*
X90640347Y-98412292D01*
X90628029Y-98391742D01*
X90617785Y-98370082D01*
X90609713Y-98347523D01*
X90603891Y-98324281D01*
X90600376Y-98300581D01*
X90599200Y-98276650D01*
X90599200Y-97713350D01*
X90600376Y-97689419D01*
X90603891Y-97665719D01*
X90609713Y-97642477D01*
X90617785Y-97619918D01*
X90628029Y-97598258D01*
X90640347Y-97577708D01*
X90654619Y-97558463D01*
X90670710Y-97540710D01*
X90688463Y-97524619D01*
X90707708Y-97510347D01*
X90728258Y-97498029D01*
X90749918Y-97487785D01*
X90772477Y-97479713D01*
X90795719Y-97473891D01*
X90819419Y-97470376D01*
X90843350Y-97469200D01*
X91331650Y-97469200D01*
X91355581Y-97470376D01*
G37*
G36*
X93765581Y-102400376D02*
G01*
X93789281Y-102403891D01*
X93812523Y-102409713D01*
X93835082Y-102417785D01*
X93856742Y-102428029D01*
X93877292Y-102440347D01*
X93896537Y-102454619D01*
X93914290Y-102470710D01*
X93930381Y-102488463D01*
X93944653Y-102507708D01*
X93956971Y-102528258D01*
X93967215Y-102549918D01*
X93975287Y-102572477D01*
X93981109Y-102595719D01*
X93984624Y-102619419D01*
X93985800Y-102643350D01*
X93985800Y-103206650D01*
X93984624Y-103230581D01*
X93981109Y-103254281D01*
X93975287Y-103277523D01*
X93967215Y-103300082D01*
X93956971Y-103321742D01*
X93944653Y-103342292D01*
X93930381Y-103361537D01*
X93914290Y-103379290D01*
X93896537Y-103395381D01*
X93877292Y-103409653D01*
X93856742Y-103421971D01*
X93835082Y-103432215D01*
X93812523Y-103440287D01*
X93789281Y-103446109D01*
X93765581Y-103449624D01*
X93741650Y-103450800D01*
X93253350Y-103450800D01*
X93229419Y-103449624D01*
X93205719Y-103446109D01*
X93182477Y-103440287D01*
X93159918Y-103432215D01*
X93138258Y-103421971D01*
X93117708Y-103409653D01*
X93098463Y-103395381D01*
X93080710Y-103379290D01*
X93064619Y-103361537D01*
X93050347Y-103342292D01*
X93038029Y-103321742D01*
X93027785Y-103300082D01*
X93019713Y-103277523D01*
X93013891Y-103254281D01*
X93010376Y-103230581D01*
X93009200Y-103206650D01*
X93009200Y-102643350D01*
X93010376Y-102619419D01*
X93013891Y-102595719D01*
X93019713Y-102572477D01*
X93027785Y-102549918D01*
X93038029Y-102528258D01*
X93050347Y-102507708D01*
X93064619Y-102488463D01*
X93080710Y-102470710D01*
X93098463Y-102454619D01*
X93117708Y-102440347D01*
X93138258Y-102428029D01*
X93159918Y-102417785D01*
X93182477Y-102409713D01*
X93205719Y-102403891D01*
X93229419Y-102400376D01*
X93253350Y-102399200D01*
X93741650Y-102399200D01*
X93765581Y-102400376D01*
G37*
G36*
X92190581Y-102400376D02*
G01*
X92214281Y-102403891D01*
X92237523Y-102409713D01*
X92260082Y-102417785D01*
X92281742Y-102428029D01*
X92302292Y-102440347D01*
X92321537Y-102454619D01*
X92339290Y-102470710D01*
X92355381Y-102488463D01*
X92369653Y-102507708D01*
X92381971Y-102528258D01*
X92392215Y-102549918D01*
X92400287Y-102572477D01*
X92406109Y-102595719D01*
X92409624Y-102619419D01*
X92410800Y-102643350D01*
X92410800Y-103206650D01*
X92409624Y-103230581D01*
X92406109Y-103254281D01*
X92400287Y-103277523D01*
X92392215Y-103300082D01*
X92381971Y-103321742D01*
X92369653Y-103342292D01*
X92355381Y-103361537D01*
X92339290Y-103379290D01*
X92321537Y-103395381D01*
X92302292Y-103409653D01*
X92281742Y-103421971D01*
X92260082Y-103432215D01*
X92237523Y-103440287D01*
X92214281Y-103446109D01*
X92190581Y-103449624D01*
X92166650Y-103450800D01*
X91678350Y-103450800D01*
X91654419Y-103449624D01*
X91630719Y-103446109D01*
X91607477Y-103440287D01*
X91584918Y-103432215D01*
X91563258Y-103421971D01*
X91542708Y-103409653D01*
X91523463Y-103395381D01*
X91505710Y-103379290D01*
X91489619Y-103361537D01*
X91475347Y-103342292D01*
X91463029Y-103321742D01*
X91452785Y-103300082D01*
X91444713Y-103277523D01*
X91438891Y-103254281D01*
X91435376Y-103230581D01*
X91434200Y-103206650D01*
X91434200Y-102643350D01*
X91435376Y-102619419D01*
X91438891Y-102595719D01*
X91444713Y-102572477D01*
X91452785Y-102549918D01*
X91463029Y-102528258D01*
X91475347Y-102507708D01*
X91489619Y-102488463D01*
X91505710Y-102470710D01*
X91523463Y-102454619D01*
X91542708Y-102440347D01*
X91563258Y-102428029D01*
X91584918Y-102417785D01*
X91607477Y-102409713D01*
X91630719Y-102403891D01*
X91654419Y-102400376D01*
X91678350Y-102399200D01*
X92166650Y-102399200D01*
X92190581Y-102400376D01*
G37*
G36*
X107955581Y-105075376D02*
G01*
X107979281Y-105078891D01*
X108002523Y-105084713D01*
X108025082Y-105092785D01*
X108046742Y-105103029D01*
X108067292Y-105115347D01*
X108086537Y-105129619D01*
X108104290Y-105145710D01*
X108120381Y-105163463D01*
X108134653Y-105182708D01*
X108146971Y-105203258D01*
X108157215Y-105224918D01*
X108165287Y-105247477D01*
X108171109Y-105270719D01*
X108174624Y-105294419D01*
X108175800Y-105318350D01*
X108175800Y-105881650D01*
X108174624Y-105905581D01*
X108171109Y-105929281D01*
X108165287Y-105952523D01*
X108157215Y-105975082D01*
X108146971Y-105996742D01*
X108134653Y-106017292D01*
X108120381Y-106036537D01*
X108104290Y-106054290D01*
X108086537Y-106070381D01*
X108067292Y-106084653D01*
X108046742Y-106096971D01*
X108025082Y-106107215D01*
X108002523Y-106115287D01*
X107979281Y-106121109D01*
X107955581Y-106124624D01*
X107931650Y-106125800D01*
X107443350Y-106125800D01*
X107419419Y-106124624D01*
X107395719Y-106121109D01*
X107372477Y-106115287D01*
X107349918Y-106107215D01*
X107328258Y-106096971D01*
X107307708Y-106084653D01*
X107288463Y-106070381D01*
X107270710Y-106054290D01*
X107254619Y-106036537D01*
X107240347Y-106017292D01*
X107228029Y-105996742D01*
X107217785Y-105975082D01*
X107209713Y-105952523D01*
X107203891Y-105929281D01*
X107200376Y-105905581D01*
X107199200Y-105881650D01*
X107199200Y-105318350D01*
X107200376Y-105294419D01*
X107203891Y-105270719D01*
X107209713Y-105247477D01*
X107217785Y-105224918D01*
X107228029Y-105203258D01*
X107240347Y-105182708D01*
X107254619Y-105163463D01*
X107270710Y-105145710D01*
X107288463Y-105129619D01*
X107307708Y-105115347D01*
X107328258Y-105103029D01*
X107349918Y-105092785D01*
X107372477Y-105084713D01*
X107395719Y-105078891D01*
X107419419Y-105075376D01*
X107443350Y-105074200D01*
X107931650Y-105074200D01*
X107955581Y-105075376D01*
G37*
G36*
X106380581Y-105075376D02*
G01*
X106404281Y-105078891D01*
X106427523Y-105084713D01*
X106450082Y-105092785D01*
X106471742Y-105103029D01*
X106492292Y-105115347D01*
X106511537Y-105129619D01*
X106529290Y-105145710D01*
X106545381Y-105163463D01*
X106559653Y-105182708D01*
X106571971Y-105203258D01*
X106582215Y-105224918D01*
X106590287Y-105247477D01*
X106596109Y-105270719D01*
X106599624Y-105294419D01*
X106600800Y-105318350D01*
X106600800Y-105881650D01*
X106599624Y-105905581D01*
X106596109Y-105929281D01*
X106590287Y-105952523D01*
X106582215Y-105975082D01*
X106571971Y-105996742D01*
X106559653Y-106017292D01*
X106545381Y-106036537D01*
X106529290Y-106054290D01*
X106511537Y-106070381D01*
X106492292Y-106084653D01*
X106471742Y-106096971D01*
X106450082Y-106107215D01*
X106427523Y-106115287D01*
X106404281Y-106121109D01*
X106380581Y-106124624D01*
X106356650Y-106125800D01*
X105868350Y-106125800D01*
X105844419Y-106124624D01*
X105820719Y-106121109D01*
X105797477Y-106115287D01*
X105774918Y-106107215D01*
X105753258Y-106096971D01*
X105732708Y-106084653D01*
X105713463Y-106070381D01*
X105695710Y-106054290D01*
X105679619Y-106036537D01*
X105665347Y-106017292D01*
X105653029Y-105996742D01*
X105642785Y-105975082D01*
X105634713Y-105952523D01*
X105628891Y-105929281D01*
X105625376Y-105905581D01*
X105624200Y-105881650D01*
X105624200Y-105318350D01*
X105625376Y-105294419D01*
X105628891Y-105270719D01*
X105634713Y-105247477D01*
X105642785Y-105224918D01*
X105653029Y-105203258D01*
X105665347Y-105182708D01*
X105679619Y-105163463D01*
X105695710Y-105145710D01*
X105713463Y-105129619D01*
X105732708Y-105115347D01*
X105753258Y-105103029D01*
X105774918Y-105092785D01*
X105797477Y-105084713D01*
X105820719Y-105078891D01*
X105844419Y-105075376D01*
X105868350Y-105074200D01*
X106356650Y-105074200D01*
X106380581Y-105075376D01*
G37*
G36*
X89200581Y-100950376D02*
G01*
X89224281Y-100953891D01*
X89247523Y-100959713D01*
X89270082Y-100967785D01*
X89291742Y-100978029D01*
X89312292Y-100990347D01*
X89331537Y-101004619D01*
X89349290Y-101020710D01*
X89365381Y-101038463D01*
X89379653Y-101057708D01*
X89391971Y-101078258D01*
X89402215Y-101099918D01*
X89410287Y-101122477D01*
X89416109Y-101145719D01*
X89419624Y-101169419D01*
X89420800Y-101193350D01*
X89420800Y-101756650D01*
X89419624Y-101780581D01*
X89416109Y-101804281D01*
X89410287Y-101827523D01*
X89402215Y-101850082D01*
X89391971Y-101871742D01*
X89379653Y-101892292D01*
X89365381Y-101911537D01*
X89349290Y-101929290D01*
X89331537Y-101945381D01*
X89312292Y-101959653D01*
X89291742Y-101971971D01*
X89270082Y-101982215D01*
X89247523Y-101990287D01*
X89224281Y-101996109D01*
X89200581Y-101999624D01*
X89176650Y-102000800D01*
X88688350Y-102000800D01*
X88664419Y-101999624D01*
X88640719Y-101996109D01*
X88617477Y-101990287D01*
X88594918Y-101982215D01*
X88573258Y-101971971D01*
X88552708Y-101959653D01*
X88533463Y-101945381D01*
X88515710Y-101929290D01*
X88499619Y-101911537D01*
X88485347Y-101892292D01*
X88473029Y-101871742D01*
X88462785Y-101850082D01*
X88454713Y-101827523D01*
X88448891Y-101804281D01*
X88445376Y-101780581D01*
X88444200Y-101756650D01*
X88444200Y-101193350D01*
X88445376Y-101169419D01*
X88448891Y-101145719D01*
X88454713Y-101122477D01*
X88462785Y-101099918D01*
X88473029Y-101078258D01*
X88485347Y-101057708D01*
X88499619Y-101038463D01*
X88515710Y-101020710D01*
X88533463Y-101004619D01*
X88552708Y-100990347D01*
X88573258Y-100978029D01*
X88594918Y-100967785D01*
X88617477Y-100959713D01*
X88640719Y-100953891D01*
X88664419Y-100950376D01*
X88688350Y-100949200D01*
X89176650Y-100949200D01*
X89200581Y-100950376D01*
G37*
G36*
X90775581Y-100950376D02*
G01*
X90799281Y-100953891D01*
X90822523Y-100959713D01*
X90845082Y-100967785D01*
X90866742Y-100978029D01*
X90887292Y-100990347D01*
X90906537Y-101004619D01*
X90924290Y-101020710D01*
X90940381Y-101038463D01*
X90954653Y-101057708D01*
X90966971Y-101078258D01*
X90977215Y-101099918D01*
X90985287Y-101122477D01*
X90991109Y-101145719D01*
X90994624Y-101169419D01*
X90995800Y-101193350D01*
X90995800Y-101756650D01*
X90994624Y-101780581D01*
X90991109Y-101804281D01*
X90985287Y-101827523D01*
X90977215Y-101850082D01*
X90966971Y-101871742D01*
X90954653Y-101892292D01*
X90940381Y-101911537D01*
X90924290Y-101929290D01*
X90906537Y-101945381D01*
X90887292Y-101959653D01*
X90866742Y-101971971D01*
X90845082Y-101982215D01*
X90822523Y-101990287D01*
X90799281Y-101996109D01*
X90775581Y-101999624D01*
X90751650Y-102000800D01*
X90263350Y-102000800D01*
X90239419Y-101999624D01*
X90215719Y-101996109D01*
X90192477Y-101990287D01*
X90169918Y-101982215D01*
X90148258Y-101971971D01*
X90127708Y-101959653D01*
X90108463Y-101945381D01*
X90090710Y-101929290D01*
X90074619Y-101911537D01*
X90060347Y-101892292D01*
X90048029Y-101871742D01*
X90037785Y-101850082D01*
X90029713Y-101827523D01*
X90023891Y-101804281D01*
X90020376Y-101780581D01*
X90019200Y-101756650D01*
X90019200Y-101193350D01*
X90020376Y-101169419D01*
X90023891Y-101145719D01*
X90029713Y-101122477D01*
X90037785Y-101099918D01*
X90048029Y-101078258D01*
X90060347Y-101057708D01*
X90074619Y-101038463D01*
X90090710Y-101020710D01*
X90108463Y-101004619D01*
X90127708Y-100990347D01*
X90148258Y-100978029D01*
X90169918Y-100967785D01*
X90192477Y-100959713D01*
X90215719Y-100953891D01*
X90239419Y-100950376D01*
X90263350Y-100949200D01*
X90751650Y-100949200D01*
X90775581Y-100950376D01*
G37*
G36*
X89205581Y-99415376D02*
G01*
X89229281Y-99418891D01*
X89252523Y-99424713D01*
X89275082Y-99432785D01*
X89296742Y-99443029D01*
X89317292Y-99455347D01*
X89336537Y-99469619D01*
X89354290Y-99485710D01*
X89370381Y-99503463D01*
X89384653Y-99522708D01*
X89396971Y-99543258D01*
X89407215Y-99564918D01*
X89415287Y-99587477D01*
X89421109Y-99610719D01*
X89424624Y-99634419D01*
X89425800Y-99658350D01*
X89425800Y-100221650D01*
X89424624Y-100245581D01*
X89421109Y-100269281D01*
X89415287Y-100292523D01*
X89407215Y-100315082D01*
X89396971Y-100336742D01*
X89384653Y-100357292D01*
X89370381Y-100376537D01*
X89354290Y-100394290D01*
X89336537Y-100410381D01*
X89317292Y-100424653D01*
X89296742Y-100436971D01*
X89275082Y-100447215D01*
X89252523Y-100455287D01*
X89229281Y-100461109D01*
X89205581Y-100464624D01*
X89181650Y-100465800D01*
X88693350Y-100465800D01*
X88669419Y-100464624D01*
X88645719Y-100461109D01*
X88622477Y-100455287D01*
X88599918Y-100447215D01*
X88578258Y-100436971D01*
X88557708Y-100424653D01*
X88538463Y-100410381D01*
X88520710Y-100394290D01*
X88504619Y-100376537D01*
X88490347Y-100357292D01*
X88478029Y-100336742D01*
X88467785Y-100315082D01*
X88459713Y-100292523D01*
X88453891Y-100269281D01*
X88450376Y-100245581D01*
X88449200Y-100221650D01*
X88449200Y-99658350D01*
X88450376Y-99634419D01*
X88453891Y-99610719D01*
X88459713Y-99587477D01*
X88467785Y-99564918D01*
X88478029Y-99543258D01*
X88490347Y-99522708D01*
X88504619Y-99503463D01*
X88520710Y-99485710D01*
X88538463Y-99469619D01*
X88557708Y-99455347D01*
X88578258Y-99443029D01*
X88599918Y-99432785D01*
X88622477Y-99424713D01*
X88645719Y-99418891D01*
X88669419Y-99415376D01*
X88693350Y-99414200D01*
X89181650Y-99414200D01*
X89205581Y-99415376D01*
G37*
G36*
X90780581Y-99415376D02*
G01*
X90804281Y-99418891D01*
X90827523Y-99424713D01*
X90850082Y-99432785D01*
X90871742Y-99443029D01*
X90892292Y-99455347D01*
X90911537Y-99469619D01*
X90929290Y-99485710D01*
X90945381Y-99503463D01*
X90959653Y-99522708D01*
X90971971Y-99543258D01*
X90982215Y-99564918D01*
X90990287Y-99587477D01*
X90996109Y-99610719D01*
X90999624Y-99634419D01*
X91000800Y-99658350D01*
X91000800Y-100221650D01*
X90999624Y-100245581D01*
X90996109Y-100269281D01*
X90990287Y-100292523D01*
X90982215Y-100315082D01*
X90971971Y-100336742D01*
X90959653Y-100357292D01*
X90945381Y-100376537D01*
X90929290Y-100394290D01*
X90911537Y-100410381D01*
X90892292Y-100424653D01*
X90871742Y-100436971D01*
X90850082Y-100447215D01*
X90827523Y-100455287D01*
X90804281Y-100461109D01*
X90780581Y-100464624D01*
X90756650Y-100465800D01*
X90268350Y-100465800D01*
X90244419Y-100464624D01*
X90220719Y-100461109D01*
X90197477Y-100455287D01*
X90174918Y-100447215D01*
X90153258Y-100436971D01*
X90132708Y-100424653D01*
X90113463Y-100410381D01*
X90095710Y-100394290D01*
X90079619Y-100376537D01*
X90065347Y-100357292D01*
X90053029Y-100336742D01*
X90042785Y-100315082D01*
X90034713Y-100292523D01*
X90028891Y-100269281D01*
X90025376Y-100245581D01*
X90024200Y-100221650D01*
X90024200Y-99658350D01*
X90025376Y-99634419D01*
X90028891Y-99610719D01*
X90034713Y-99587477D01*
X90042785Y-99564918D01*
X90053029Y-99543258D01*
X90065347Y-99522708D01*
X90079619Y-99503463D01*
X90095710Y-99485710D01*
X90113463Y-99469619D01*
X90132708Y-99455347D01*
X90153258Y-99443029D01*
X90174918Y-99432785D01*
X90197477Y-99424713D01*
X90220719Y-99418891D01*
X90244419Y-99415376D01*
X90268350Y-99414200D01*
X90756650Y-99414200D01*
X90780581Y-99415376D01*
G37*
G36*
X90775581Y-102420376D02*
G01*
X90799281Y-102423891D01*
X90822523Y-102429713D01*
X90845082Y-102437785D01*
X90866742Y-102448029D01*
X90887292Y-102460347D01*
X90906537Y-102474619D01*
X90924290Y-102490710D01*
X90940381Y-102508463D01*
X90954653Y-102527708D01*
X90966971Y-102548258D01*
X90977215Y-102569918D01*
X90985287Y-102592477D01*
X90991109Y-102615719D01*
X90994624Y-102639419D01*
X90995800Y-102663350D01*
X90995800Y-103226650D01*
X90994624Y-103250581D01*
X90991109Y-103274281D01*
X90985287Y-103297523D01*
X90977215Y-103320082D01*
X90966971Y-103341742D01*
X90954653Y-103362292D01*
X90940381Y-103381537D01*
X90924290Y-103399290D01*
X90906537Y-103415381D01*
X90887292Y-103429653D01*
X90866742Y-103441971D01*
X90845082Y-103452215D01*
X90822523Y-103460287D01*
X90799281Y-103466109D01*
X90775581Y-103469624D01*
X90751650Y-103470800D01*
X90263350Y-103470800D01*
X90239419Y-103469624D01*
X90215719Y-103466109D01*
X90192477Y-103460287D01*
X90169918Y-103452215D01*
X90148258Y-103441971D01*
X90127708Y-103429653D01*
X90108463Y-103415381D01*
X90090710Y-103399290D01*
X90074619Y-103381537D01*
X90060347Y-103362292D01*
X90048029Y-103341742D01*
X90037785Y-103320082D01*
X90029713Y-103297523D01*
X90023891Y-103274281D01*
X90020376Y-103250581D01*
X90019200Y-103226650D01*
X90019200Y-102663350D01*
X90020376Y-102639419D01*
X90023891Y-102615719D01*
X90029713Y-102592477D01*
X90037785Y-102569918D01*
X90048029Y-102548258D01*
X90060347Y-102527708D01*
X90074619Y-102508463D01*
X90090710Y-102490710D01*
X90108463Y-102474619D01*
X90127708Y-102460347D01*
X90148258Y-102448029D01*
X90169918Y-102437785D01*
X90192477Y-102429713D01*
X90215719Y-102423891D01*
X90239419Y-102420376D01*
X90263350Y-102419200D01*
X90751650Y-102419200D01*
X90775581Y-102420376D01*
G37*
G36*
X89200581Y-102420376D02*
G01*
X89224281Y-102423891D01*
X89247523Y-102429713D01*
X89270082Y-102437785D01*
X89291742Y-102448029D01*
X89312292Y-102460347D01*
X89331537Y-102474619D01*
X89349290Y-102490710D01*
X89365381Y-102508463D01*
X89379653Y-102527708D01*
X89391971Y-102548258D01*
X89402215Y-102569918D01*
X89410287Y-102592477D01*
X89416109Y-102615719D01*
X89419624Y-102639419D01*
X89420800Y-102663350D01*
X89420800Y-103226650D01*
X89419624Y-103250581D01*
X89416109Y-103274281D01*
X89410287Y-103297523D01*
X89402215Y-103320082D01*
X89391971Y-103341742D01*
X89379653Y-103362292D01*
X89365381Y-103381537D01*
X89349290Y-103399290D01*
X89331537Y-103415381D01*
X89312292Y-103429653D01*
X89291742Y-103441971D01*
X89270082Y-103452215D01*
X89247523Y-103460287D01*
X89224281Y-103466109D01*
X89200581Y-103469624D01*
X89176650Y-103470800D01*
X88688350Y-103470800D01*
X88664419Y-103469624D01*
X88640719Y-103466109D01*
X88617477Y-103460287D01*
X88594918Y-103452215D01*
X88573258Y-103441971D01*
X88552708Y-103429653D01*
X88533463Y-103415381D01*
X88515710Y-103399290D01*
X88499619Y-103381537D01*
X88485347Y-103362292D01*
X88473029Y-103341742D01*
X88462785Y-103320082D01*
X88454713Y-103297523D01*
X88448891Y-103274281D01*
X88445376Y-103250581D01*
X88444200Y-103226650D01*
X88444200Y-102663350D01*
X88445376Y-102639419D01*
X88448891Y-102615719D01*
X88454713Y-102592477D01*
X88462785Y-102569918D01*
X88473029Y-102548258D01*
X88485347Y-102527708D01*
X88499619Y-102508463D01*
X88515710Y-102490710D01*
X88533463Y-102474619D01*
X88552708Y-102460347D01*
X88573258Y-102448029D01*
X88594918Y-102437785D01*
X88617477Y-102429713D01*
X88640719Y-102423891D01*
X88664419Y-102420376D01*
X88688350Y-102419200D01*
X89176650Y-102419200D01*
X89200581Y-102420376D01*
G37*
G36*
X123161218Y-92500346D02*
G01*
X123184312Y-92503771D01*
X123206959Y-92509444D01*
X123228940Y-92517309D01*
X123250045Y-92527291D01*
X123270070Y-92539293D01*
X123288822Y-92553201D01*
X123306121Y-92568879D01*
X123321799Y-92586178D01*
X123335707Y-92604930D01*
X123347709Y-92624955D01*
X123357691Y-92646060D01*
X123365556Y-92668041D01*
X123371229Y-92690688D01*
X123374654Y-92713782D01*
X123375800Y-92737100D01*
X123375800Y-93212900D01*
X123374654Y-93236218D01*
X123371229Y-93259312D01*
X123365556Y-93281959D01*
X123357691Y-93303940D01*
X123347709Y-93325045D01*
X123335707Y-93345070D01*
X123321799Y-93363822D01*
X123306121Y-93381121D01*
X123288822Y-93396799D01*
X123270070Y-93410707D01*
X123250045Y-93422709D01*
X123228940Y-93432691D01*
X123206959Y-93440556D01*
X123184312Y-93446229D01*
X123161218Y-93449654D01*
X123137900Y-93450800D01*
X122287100Y-93450800D01*
X122263782Y-93449654D01*
X122240688Y-93446229D01*
X122218041Y-93440556D01*
X122196060Y-93432691D01*
X122174955Y-93422709D01*
X122154930Y-93410707D01*
X122136178Y-93396799D01*
X122118879Y-93381121D01*
X122103201Y-93363822D01*
X122089293Y-93345070D01*
X122077291Y-93325045D01*
X122067309Y-93303940D01*
X122059444Y-93281959D01*
X122053771Y-93259312D01*
X122050346Y-93236218D01*
X122049200Y-93212900D01*
X122049200Y-92737100D01*
X122050346Y-92713782D01*
X122053771Y-92690688D01*
X122059444Y-92668041D01*
X122067309Y-92646060D01*
X122077291Y-92624955D01*
X122089293Y-92604930D01*
X122103201Y-92586178D01*
X122118879Y-92568879D01*
X122136178Y-92553201D01*
X122154930Y-92539293D01*
X122174955Y-92527291D01*
X122196060Y-92517309D01*
X122218041Y-92509444D01*
X122240688Y-92503771D01*
X122263782Y-92500346D01*
X122287100Y-92499200D01*
X123137900Y-92499200D01*
X123161218Y-92500346D01*
G37*
G36*
X124786218Y-92500346D02*
G01*
X124809312Y-92503771D01*
X124831959Y-92509444D01*
X124853940Y-92517309D01*
X124875045Y-92527291D01*
X124895070Y-92539293D01*
X124913822Y-92553201D01*
X124931121Y-92568879D01*
X124946799Y-92586178D01*
X124960707Y-92604930D01*
X124972709Y-92624955D01*
X124982691Y-92646060D01*
X124990556Y-92668041D01*
X124996229Y-92690688D01*
X124999654Y-92713782D01*
X125000800Y-92737100D01*
X125000800Y-93212900D01*
X124999654Y-93236218D01*
X124996229Y-93259312D01*
X124990556Y-93281959D01*
X124982691Y-93303940D01*
X124972709Y-93325045D01*
X124960707Y-93345070D01*
X124946799Y-93363822D01*
X124931121Y-93381121D01*
X124913822Y-93396799D01*
X124895070Y-93410707D01*
X124875045Y-93422709D01*
X124853940Y-93432691D01*
X124831959Y-93440556D01*
X124809312Y-93446229D01*
X124786218Y-93449654D01*
X124762900Y-93450800D01*
X123912100Y-93450800D01*
X123888782Y-93449654D01*
X123865688Y-93446229D01*
X123843041Y-93440556D01*
X123821060Y-93432691D01*
X123799955Y-93422709D01*
X123779930Y-93410707D01*
X123761178Y-93396799D01*
X123743879Y-93381121D01*
X123728201Y-93363822D01*
X123714293Y-93345070D01*
X123702291Y-93325045D01*
X123692309Y-93303940D01*
X123684444Y-93281959D01*
X123678771Y-93259312D01*
X123675346Y-93236218D01*
X123674200Y-93212900D01*
X123674200Y-92737100D01*
X123675346Y-92713782D01*
X123678771Y-92690688D01*
X123684444Y-92668041D01*
X123692309Y-92646060D01*
X123702291Y-92624955D01*
X123714293Y-92604930D01*
X123728201Y-92586178D01*
X123743879Y-92568879D01*
X123761178Y-92553201D01*
X123779930Y-92539293D01*
X123799955Y-92527291D01*
X123821060Y-92517309D01*
X123843041Y-92509444D01*
X123865688Y-92503771D01*
X123888782Y-92500346D01*
X123912100Y-92499200D01*
X124762900Y-92499200D01*
X124786218Y-92500346D01*
G37*
M02*
