M48
METRIC,TZ
T1C0.254
T2C0.650
T3C0.700
T4C1.000
T5C1.200
T6C1.780
%
G90
G05
T1
X64290Y-93495
X71620Y-94575
X72060Y-94995
X74760Y-97075
X74850Y-103105
X76460Y-105145
X78720Y-99755
X78950Y-102005
X79240Y-99235
X79259Y-100222
X82130Y-104368
X84240Y-95785
X85400Y-104785
X87798Y-100069
X87810Y-96745
X87840Y-98755
X87959Y-97766
X88010Y-99435
X88360Y-98295
X88400Y-97275
X89740Y-100715
X90240Y-95725
X92830Y-100635
X93650Y-95635
X94200Y-101545
X96210Y-96995
X97310Y-102035
X100290Y-102095
X100390Y-95625
X103050Y-101915
X105310Y-96455
X107100Y-106575
X108920Y-95185
X119375Y-99375
X119400Y-94125
X131725Y-97300
T4
X76000Y-93645
X78540Y-93645
X81080Y-93645
X83620Y-93645
X90830Y-93645
X93370Y-93645
X95910Y-93645
X98450Y-93645
X100990Y-93645
X73470Y-106345
X76010Y-106345
X78550Y-106345
X81090Y-106345
X83630Y-106345
X86170Y-106345
X88710Y-106345
X91250Y-106345
X93790Y-106345
X96330Y-106345
X98870Y-106345
X101410Y-106345
X73460Y-93645
T5
X116275Y-97350
X116275Y-102650
T6
X66145Y-99975
X73545Y-99975
X104745Y-99975
X112145Y-99975
T2
G00X62685Y-97555
M15
G01X63085Y-97555
M16
G05
G00X62685Y-102395
M15
G01X63085Y-102395
M16
G05
T3
G00X59635Y-97245
M15
G01X60135Y-97245
M16
G05
G00X59635Y-102705
M15
G01X60135Y-102705
M16
G05
T0
M30
