M48
; DRILL file {KiCad (5.1.5-0-10_14)} date Saturday, February 01, 2020 at 03:51:52 PM
; FORMAT={-:-/ absolute / metric / decimal}
; #@! TF.CreationDate,2020-02-01T15:51:52-08:00
; #@! TF.GenerationSoftware,Kicad,Pcbnew,(5.1.5-0-10_14)
FMAT,2
METRIC
T1C0.254
T2C0.650
T3C0.700
T4C1.000
T5C1.200
T6C1.780
%
G90
G05
T1
X64.29Y-93.495
X71.62Y-94.575
X72.06Y-94.995
X74.76Y-97.075
X74.85Y-103.105
X76.46Y-105.145
X78.72Y-99.755
X78.95Y-102.005
X79.24Y-99.235
X79.259Y-100.222
X82.13Y-104.368
X84.24Y-95.785
X85.4Y-104.785
X87.798Y-100.069
X87.81Y-96.745
X87.84Y-98.755
X87.959Y-97.766
X88.01Y-99.435
X88.36Y-98.295
X88.4Y-97.275
X89.74Y-100.715
X90.24Y-95.725
X92.83Y-100.635
X93.65Y-95.635
X94.2Y-101.545
X96.21Y-96.995
X97.31Y-102.035
X100.29Y-102.095
X100.39Y-95.625
X103.05Y-101.915
X105.31Y-96.455
X107.1Y-106.575
X108.92Y-95.185
X119.375Y-99.375
X119.4Y-94.125
X131.725Y-97.3
T4
X90.83Y-93.645
X93.37Y-93.645
X95.91Y-93.645
X98.45Y-93.645
X100.99Y-93.645
X73.46Y-93.645
X76.0Y-93.645
X78.54Y-93.645
X81.08Y-93.645
X83.62Y-93.645
X73.47Y-106.345
X76.01Y-106.345
X78.55Y-106.345
X81.09Y-106.345
X83.63Y-106.345
X86.17Y-106.345
X88.71Y-106.345
X91.25Y-106.345
X93.79Y-106.345
X96.33Y-106.345
X98.87Y-106.345
X101.41Y-106.345
T5
X116.275Y-97.35
X116.275Y-102.65
T6
X66.145Y-99.975
X73.545Y-99.975
X104.745Y-99.975
X112.145Y-99.975
T2
G00X62.685Y-97.555
M15
G01X63.085Y-97.555
M16
G05
G00X62.685Y-102.395
M15
G01X63.085Y-102.395
M16
G05
T3
G00X59.635Y-97.245
M15
G01X60.135Y-97.245
M16
G05
G00X59.635Y-102.705
M15
G01X60.135Y-102.705
M16
G05
T0
M30
