G04 #@! TF.GenerationSoftware,KiCad,Pcbnew,(5.1.5-0-10_14)*
G04 #@! TF.CreationDate,2020-02-03T09:02:30-08:00*
G04 #@! TF.ProjectId,10440,31303434-302e-46b6-9963-61645f706362,rev?*
G04 #@! TF.SameCoordinates,Original*
G04 #@! TF.FileFunction,Copper,L2,Bot*
G04 #@! TF.FilePolarity,Positive*
%FSLAX46Y46*%
G04 Gerber Fmt 4.6, Leading zero omitted, Abs format (unit mm)*
G04 Created by KiCad (PCBNEW (5.1.5-0-10_14)) date 2020-02-03 09:02:30*
%MOMM*%
%LPD*%
G04 APERTURE LIST*
%ADD10O,1.700000X1.700000*%
%ADD11R,1.700000X1.700000*%
%ADD12C,2.800000*%
%ADD13C,2.400000*%
%ADD14O,1.500000X1.100000*%
%ADD15O,1.700000X1.350000*%
%ADD16C,0.508000*%
%ADD17C,0.152400*%
%ADD18C,0.310000*%
%ADD19C,0.254000*%
G04 APERTURE END LIST*
D10*
X90830000Y-93645000D03*
X93370000Y-93645000D03*
X95910000Y-93645000D03*
X98450000Y-93645000D03*
D11*
X100990000Y-93645000D03*
D10*
X73460000Y-93645000D03*
X76000000Y-93645000D03*
X78540000Y-93645000D03*
X81080000Y-93645000D03*
D11*
X83620000Y-93645000D03*
D10*
X101410000Y-106345000D03*
X98870000Y-106345000D03*
X96330000Y-106345000D03*
X93790000Y-106345000D03*
X91250000Y-106345000D03*
X88710000Y-106345000D03*
X86170000Y-106345000D03*
X83630000Y-106345000D03*
X81090000Y-106345000D03*
X78550000Y-106345000D03*
X76010000Y-106345000D03*
D11*
X73470000Y-106345000D03*
D12*
X104745000Y-99975000D03*
X112145000Y-99975000D03*
X66145000Y-99975000D03*
X73545000Y-99975000D03*
D13*
X116275000Y-102650000D03*
X116275000Y-97350000D03*
D14*
X62885000Y-97555000D03*
X62885000Y-102395000D03*
D15*
X59885000Y-97245000D03*
X59885000Y-102705000D03*
D16*
X82130087Y-104367761D03*
X85400000Y-104785000D03*
X107100000Y-106575000D03*
X88010000Y-99435000D03*
X89740000Y-100715000D03*
X131725000Y-97300000D03*
X72060000Y-94995000D03*
X71620000Y-94575000D03*
X87840000Y-98755000D03*
X90240000Y-95725000D03*
X93650000Y-95635000D03*
X100390000Y-95625000D03*
X96210000Y-96995000D03*
X74850000Y-103105000D03*
X74760000Y-97075000D03*
X119375000Y-99375000D03*
X119400000Y-94125000D03*
X105310000Y-96455000D03*
X103050000Y-101915000D03*
X87798203Y-100069421D03*
X79259484Y-100221590D03*
X78720000Y-99755000D03*
X79240000Y-99235000D03*
X84240000Y-95785000D03*
X76460000Y-105145000D03*
X78950000Y-102005000D03*
X108920000Y-95185000D03*
X64290000Y-93495000D03*
X88360000Y-98295000D03*
X100290000Y-102095000D03*
X97310000Y-102035000D03*
X87958762Y-97766378D03*
X88400000Y-97275000D03*
X94200000Y-101545000D03*
X87810000Y-96745000D03*
X92830000Y-100635000D03*
D17*
X84982761Y-104367761D02*
X85400000Y-104785000D01*
X82130087Y-104367761D02*
X84982761Y-104367761D01*
X90732271Y-107423601D02*
X106251399Y-107423601D01*
X106251399Y-107423601D02*
X107100000Y-106575000D01*
X90171399Y-106862729D02*
X90732271Y-107423601D01*
X90171399Y-106210069D02*
X90171399Y-106862729D01*
X88746330Y-104785000D02*
X90171399Y-106210069D01*
X85400000Y-104785000D02*
X88746330Y-104785000D01*
D18*
X60195000Y-97555000D02*
X59885000Y-97245000D01*
X62885000Y-97555000D02*
X60195000Y-97555000D01*
X62575000Y-102705000D02*
X62885000Y-102395000D01*
X59885000Y-102705000D02*
X62575000Y-102705000D01*
D17*
X89290000Y-100715000D02*
X89740000Y-100715000D01*
X88010000Y-99435000D02*
X89290000Y-100715000D01*
D18*
X104745000Y-99975000D02*
X112145000Y-99975000D01*
X100990000Y-94805000D02*
X100990000Y-93645000D01*
X100990000Y-98199898D02*
X100990000Y-94805000D01*
X102765102Y-99975000D02*
X100990000Y-98199898D01*
X104745000Y-99975000D02*
X102765102Y-99975000D01*
X119375000Y-94150000D02*
X119400000Y-94125000D01*
X119375000Y-99375000D02*
X119375000Y-94150000D01*
X101410000Y-106345000D02*
X103580000Y-104175000D01*
X105105000Y-102650000D02*
X101410000Y-106345000D01*
X116275000Y-102650000D02*
X105105000Y-102650000D01*
D19*
X106205000Y-97350000D02*
X116275000Y-97350000D01*
X105310000Y-96455000D02*
X106205000Y-97350000D01*
X103050000Y-101915000D02*
X103050000Y-102915000D01*
X103050000Y-102915000D02*
X101350000Y-104615000D01*
X98060000Y-104615000D02*
X96330000Y-106345000D01*
X101350000Y-104615000D02*
X98060000Y-104615000D01*
D17*
X87798203Y-102893203D02*
X87798203Y-100428631D01*
X91250000Y-106345000D02*
X87798203Y-102893203D01*
X87798203Y-100428631D02*
X87798203Y-100069421D01*
X76010000Y-106345000D02*
X79513483Y-102841517D01*
X79513483Y-102841517D02*
X79513483Y-100475589D01*
X79513483Y-100475589D02*
X79259484Y-100221590D01*
X78210000Y-102444210D02*
X78210000Y-102085000D01*
X78210000Y-102607400D02*
X78210000Y-102444210D01*
X74472400Y-106345000D02*
X78210000Y-102607400D01*
X73470000Y-106345000D02*
X74472400Y-106345000D01*
X78210000Y-100624210D02*
X78210000Y-102444210D01*
X78720000Y-100114210D02*
X78210000Y-100624210D01*
X78720000Y-99755000D02*
X78720000Y-100114210D01*
X73460000Y-94847081D02*
X73460000Y-93645000D01*
X77063920Y-98451001D02*
X73460000Y-94847081D01*
X77130000Y-98515000D02*
X77063920Y-98451001D01*
X79240000Y-99235000D02*
X77850000Y-99235000D01*
X77850000Y-99235000D02*
X77130000Y-98515000D01*
X83648518Y-95785000D02*
X82648518Y-94785000D01*
X84240000Y-95785000D02*
X83648518Y-95785000D01*
X77140000Y-94785000D02*
X76000000Y-93645000D01*
X82648518Y-94785000D02*
X77140000Y-94785000D01*
X78950000Y-102005000D02*
X78950000Y-102665000D01*
X78940000Y-102665000D02*
X76460000Y-105145000D01*
X78950000Y-102665000D02*
X78940000Y-102665000D01*
X72013670Y-93495000D02*
X64290000Y-93495000D01*
X72942271Y-92566399D02*
X72013670Y-93495000D01*
X106301399Y-92566399D02*
X72942271Y-92566399D01*
X108920000Y-95185000D02*
X106301399Y-92566399D01*
X99867398Y-102517602D02*
X100036001Y-102348999D01*
X88360000Y-98295000D02*
X92582602Y-102517602D01*
X92582602Y-102517602D02*
X99867398Y-102517602D01*
X100036001Y-102348999D02*
X100290000Y-102095000D01*
X97310000Y-102035000D02*
X93068933Y-102035000D01*
X93068933Y-102035000D02*
X88800311Y-97766378D01*
X88800311Y-97766378D02*
X88317972Y-97766378D01*
X88317972Y-97766378D02*
X87958762Y-97766378D01*
X88400000Y-97275000D02*
X88759210Y-97275000D01*
X88759210Y-97275000D02*
X90339210Y-98855000D01*
X90339210Y-98855000D02*
X90339210Y-98874210D01*
X93010000Y-101545000D02*
X94200000Y-101545000D01*
X90339210Y-98874210D02*
X93010000Y-101545000D01*
X87810000Y-96745000D02*
X88820000Y-96745000D01*
X88940000Y-96745000D02*
X92830000Y-100635000D01*
X88820000Y-96745000D02*
X88940000Y-96745000D01*
G36*
X64302718Y-92555856D02*
G01*
X64317181Y-92589602D01*
X64331180Y-92623566D01*
X64333871Y-92628542D01*
X64437295Y-92816670D01*
X64458035Y-92846960D01*
X64478367Y-92877563D01*
X64481974Y-92881922D01*
X64559477Y-92974287D01*
X64460405Y-92933250D01*
X64347539Y-92910800D01*
X64232461Y-92910800D01*
X64119595Y-92933250D01*
X64013277Y-92977288D01*
X63917594Y-93041222D01*
X63836222Y-93122594D01*
X63772288Y-93218277D01*
X63728250Y-93324595D01*
X63705800Y-93437461D01*
X63705800Y-93552539D01*
X63728250Y-93665405D01*
X63772288Y-93771723D01*
X63836222Y-93867406D01*
X63917594Y-93948778D01*
X64013277Y-94012712D01*
X64119595Y-94056750D01*
X64232461Y-94079200D01*
X64347539Y-94079200D01*
X64460405Y-94056750D01*
X64566723Y-94012712D01*
X64662406Y-93948778D01*
X64709784Y-93901400D01*
X71993717Y-93901400D01*
X72013670Y-93903365D01*
X72033623Y-93901400D01*
X72033630Y-93901400D01*
X72093338Y-93895519D01*
X72169945Y-93872281D01*
X72240546Y-93834544D01*
X72286826Y-93796562D01*
X72325155Y-93989252D01*
X72414121Y-94204034D01*
X72543279Y-94397333D01*
X72707667Y-94561721D01*
X72900966Y-94690879D01*
X73053600Y-94754102D01*
X73053600Y-94827128D01*
X73051635Y-94847081D01*
X73053600Y-94867034D01*
X73053600Y-94867040D01*
X73056858Y-94900115D01*
X73059481Y-94926749D01*
X73079146Y-94991575D01*
X73082719Y-95003355D01*
X73120456Y-95073956D01*
X73171242Y-95135839D01*
X73186746Y-95148563D01*
X76764753Y-98726571D01*
X76766848Y-98729042D01*
X76778788Y-98740606D01*
X76790665Y-98752483D01*
X76793195Y-98754559D01*
X76844900Y-98804636D01*
X77548522Y-99508259D01*
X77561242Y-99523758D01*
X77576740Y-99536477D01*
X77576745Y-99536482D01*
X77595300Y-99551709D01*
X77623124Y-99574544D01*
X77680861Y-99605405D01*
X77693725Y-99612281D01*
X77770331Y-99635519D01*
X77777604Y-99636235D01*
X77830040Y-99641400D01*
X77830047Y-99641400D01*
X77850000Y-99643365D01*
X77869953Y-99641400D01*
X78146951Y-99641400D01*
X78135800Y-99697461D01*
X78135800Y-99812539D01*
X78158250Y-99925405D01*
X78202288Y-100031723D01*
X78212487Y-100046987D01*
X77936746Y-100322728D01*
X77921242Y-100335452D01*
X77870456Y-100397335D01*
X77834505Y-100464595D01*
X77832719Y-100467936D01*
X77820476Y-100508298D01*
X77809481Y-100544543D01*
X77803600Y-100604251D01*
X77803600Y-100604257D01*
X77801635Y-100624210D01*
X77803600Y-100644163D01*
X77803601Y-102065032D01*
X77803600Y-102065040D01*
X77803600Y-102439063D01*
X74651797Y-105590867D01*
X74651797Y-105495000D01*
X74645422Y-105430270D01*
X74626540Y-105368027D01*
X74595879Y-105310663D01*
X74554616Y-105260384D01*
X74504337Y-105219121D01*
X74446973Y-105188460D01*
X74384730Y-105169578D01*
X74320000Y-105163203D01*
X72620000Y-105163203D01*
X72555270Y-105169578D01*
X72493027Y-105188460D01*
X72435663Y-105219121D01*
X72385384Y-105260384D01*
X72344121Y-105310663D01*
X72313460Y-105368027D01*
X72294578Y-105430270D01*
X72288203Y-105495000D01*
X72288203Y-107195000D01*
X72294578Y-107259730D01*
X72313460Y-107321973D01*
X72344121Y-107379337D01*
X72385384Y-107429616D01*
X72435663Y-107470879D01*
X72493027Y-107501540D01*
X72555270Y-107520422D01*
X72620000Y-107526797D01*
X74320000Y-107526797D01*
X74384730Y-107520422D01*
X74446973Y-107501540D01*
X74504337Y-107470879D01*
X74554616Y-107429616D01*
X74595879Y-107379337D01*
X74626540Y-107321973D01*
X74645422Y-107259730D01*
X74651797Y-107195000D01*
X74651797Y-106709922D01*
X74699276Y-106684544D01*
X74761158Y-106633758D01*
X74773882Y-106618254D01*
X74846573Y-106545563D01*
X74875155Y-106689252D01*
X74964121Y-106904034D01*
X75093279Y-107097333D01*
X75257667Y-107261721D01*
X75450966Y-107390879D01*
X75665748Y-107479845D01*
X75893760Y-107525200D01*
X76126240Y-107525200D01*
X76354252Y-107479845D01*
X76569034Y-107390879D01*
X76762333Y-107261721D01*
X76926721Y-107097333D01*
X77055879Y-106904034D01*
X77144845Y-106689252D01*
X77190200Y-106461240D01*
X77190200Y-106228760D01*
X77369800Y-106228760D01*
X77369800Y-106461240D01*
X77415155Y-106689252D01*
X77504121Y-106904034D01*
X77633279Y-107097333D01*
X77797667Y-107261721D01*
X77990966Y-107390879D01*
X78205748Y-107479845D01*
X78433760Y-107525200D01*
X78666240Y-107525200D01*
X78894252Y-107479845D01*
X79109034Y-107390879D01*
X79302333Y-107261721D01*
X79466721Y-107097333D01*
X79595879Y-106904034D01*
X79684845Y-106689252D01*
X79730200Y-106461240D01*
X79730200Y-106228760D01*
X79909800Y-106228760D01*
X79909800Y-106461240D01*
X79955155Y-106689252D01*
X80044121Y-106904034D01*
X80173279Y-107097333D01*
X80337667Y-107261721D01*
X80530966Y-107390879D01*
X80745748Y-107479845D01*
X80973760Y-107525200D01*
X81206240Y-107525200D01*
X81434252Y-107479845D01*
X81649034Y-107390879D01*
X81842333Y-107261721D01*
X82006721Y-107097333D01*
X82135879Y-106904034D01*
X82224845Y-106689252D01*
X82270200Y-106461240D01*
X82270200Y-106228760D01*
X82449800Y-106228760D01*
X82449800Y-106461240D01*
X82495155Y-106689252D01*
X82584121Y-106904034D01*
X82713279Y-107097333D01*
X82877667Y-107261721D01*
X83070966Y-107390879D01*
X83285748Y-107479845D01*
X83513760Y-107525200D01*
X83746240Y-107525200D01*
X83974252Y-107479845D01*
X84189034Y-107390879D01*
X84382333Y-107261721D01*
X84546721Y-107097333D01*
X84675879Y-106904034D01*
X84764845Y-106689252D01*
X84810200Y-106461240D01*
X84810200Y-106228760D01*
X84764845Y-106000748D01*
X84675879Y-105785966D01*
X84546721Y-105592667D01*
X84382333Y-105428279D01*
X84189034Y-105299121D01*
X83974252Y-105210155D01*
X83746240Y-105164800D01*
X83513760Y-105164800D01*
X83285748Y-105210155D01*
X83070966Y-105299121D01*
X82877667Y-105428279D01*
X82713279Y-105592667D01*
X82584121Y-105785966D01*
X82495155Y-106000748D01*
X82449800Y-106228760D01*
X82270200Y-106228760D01*
X82224845Y-106000748D01*
X82135879Y-105785966D01*
X82006721Y-105592667D01*
X81842333Y-105428279D01*
X81649034Y-105299121D01*
X81434252Y-105210155D01*
X81206240Y-105164800D01*
X80973760Y-105164800D01*
X80745748Y-105210155D01*
X80530966Y-105299121D01*
X80337667Y-105428279D01*
X80173279Y-105592667D01*
X80044121Y-105785966D01*
X79955155Y-106000748D01*
X79909800Y-106228760D01*
X79730200Y-106228760D01*
X79684845Y-106000748D01*
X79595879Y-105785966D01*
X79466721Y-105592667D01*
X79302333Y-105428279D01*
X79109034Y-105299121D01*
X78894252Y-105210155D01*
X78666240Y-105164800D01*
X78433760Y-105164800D01*
X78205748Y-105210155D01*
X77990966Y-105299121D01*
X77797667Y-105428279D01*
X77633279Y-105592667D01*
X77504121Y-105785966D01*
X77415155Y-106000748D01*
X77369800Y-106228760D01*
X77190200Y-106228760D01*
X77144845Y-106000748D01*
X77081622Y-105848114D01*
X79786738Y-103142998D01*
X79802241Y-103130275D01*
X79853027Y-103068393D01*
X79890764Y-102997792D01*
X79909065Y-102937460D01*
X79914002Y-102921186D01*
X79916467Y-102896158D01*
X79919883Y-102861477D01*
X79919883Y-102861471D01*
X79921848Y-102841518D01*
X79919883Y-102821565D01*
X79919883Y-100495542D01*
X79921848Y-100475589D01*
X79919883Y-100455636D01*
X79919883Y-100455629D01*
X79914002Y-100395921D01*
X79890764Y-100319314D01*
X79853027Y-100248713D01*
X79843684Y-100237329D01*
X79843684Y-100164051D01*
X79821234Y-100051185D01*
X79777196Y-99944867D01*
X79713262Y-99849184D01*
X79631890Y-99767812D01*
X79563007Y-99721786D01*
X79612406Y-99688778D01*
X79693778Y-99607406D01*
X79757712Y-99511723D01*
X79801750Y-99405405D01*
X79824200Y-99292539D01*
X79824200Y-99177461D01*
X79801750Y-99064595D01*
X79757712Y-98958277D01*
X79693778Y-98862594D01*
X79612406Y-98781222D01*
X79516723Y-98717288D01*
X79410405Y-98673250D01*
X79297539Y-98650800D01*
X79182461Y-98650800D01*
X79069595Y-98673250D01*
X78963277Y-98717288D01*
X78867594Y-98781222D01*
X78820216Y-98828600D01*
X78018337Y-98828600D01*
X77429172Y-98239436D01*
X77427072Y-98236959D01*
X77415101Y-98225365D01*
X77403254Y-98213518D01*
X77400731Y-98211447D01*
X77349051Y-98161395D01*
X73919686Y-94732031D01*
X74019034Y-94690879D01*
X74212333Y-94561721D01*
X74376721Y-94397333D01*
X74505879Y-94204034D01*
X74594845Y-93989252D01*
X74640200Y-93761240D01*
X74640200Y-93528760D01*
X74594845Y-93300748D01*
X74505879Y-93085966D01*
X74430263Y-92972799D01*
X75029737Y-92972799D01*
X74954121Y-93085966D01*
X74865155Y-93300748D01*
X74819800Y-93528760D01*
X74819800Y-93761240D01*
X74865155Y-93989252D01*
X74954121Y-94204034D01*
X75083279Y-94397333D01*
X75247667Y-94561721D01*
X75440966Y-94690879D01*
X75655748Y-94779845D01*
X75883760Y-94825200D01*
X76116240Y-94825200D01*
X76344252Y-94779845D01*
X76496886Y-94716622D01*
X76838518Y-95058254D01*
X76851242Y-95073758D01*
X76913124Y-95124544D01*
X76983725Y-95162281D01*
X77037093Y-95178470D01*
X77060331Y-95185519D01*
X77068335Y-95186307D01*
X77120040Y-95191400D01*
X77120046Y-95191400D01*
X77139999Y-95193365D01*
X77159952Y-95191400D01*
X82480182Y-95191400D01*
X83347040Y-96058259D01*
X83359760Y-96073758D01*
X83375258Y-96086477D01*
X83375263Y-96086482D01*
X83396264Y-96103717D01*
X83421642Y-96124544D01*
X83492243Y-96162281D01*
X83568850Y-96185519D01*
X83628558Y-96191400D01*
X83628565Y-96191400D01*
X83648518Y-96193365D01*
X83668471Y-96191400D01*
X83820216Y-96191400D01*
X83867594Y-96238778D01*
X83963277Y-96302712D01*
X84069595Y-96346750D01*
X84182461Y-96369200D01*
X84297539Y-96369200D01*
X84410405Y-96346750D01*
X84516723Y-96302712D01*
X84612406Y-96238778D01*
X84693778Y-96157406D01*
X84757712Y-96061723D01*
X84801750Y-95955405D01*
X84824200Y-95842539D01*
X84824200Y-95727461D01*
X84801750Y-95614595D01*
X84757712Y-95508277D01*
X84693778Y-95412594D01*
X84612406Y-95331222D01*
X84516723Y-95267288D01*
X84410405Y-95223250D01*
X84297539Y-95200800D01*
X84182461Y-95200800D01*
X84069595Y-95223250D01*
X83963277Y-95267288D01*
X83867594Y-95331222D01*
X83820216Y-95378600D01*
X83816855Y-95378600D01*
X83265051Y-94826797D01*
X84470000Y-94826797D01*
X84534730Y-94820422D01*
X84596973Y-94801540D01*
X84654337Y-94770879D01*
X84704616Y-94729616D01*
X84745879Y-94679337D01*
X84776540Y-94621973D01*
X84795422Y-94559730D01*
X84801797Y-94495000D01*
X84801797Y-92972799D01*
X89859737Y-92972799D01*
X89784121Y-93085966D01*
X89695155Y-93300748D01*
X89649800Y-93528760D01*
X89649800Y-93761240D01*
X89695155Y-93989252D01*
X89784121Y-94204034D01*
X89913279Y-94397333D01*
X90077667Y-94561721D01*
X90270966Y-94690879D01*
X90485748Y-94779845D01*
X90713760Y-94825200D01*
X90946240Y-94825200D01*
X91174252Y-94779845D01*
X91389034Y-94690879D01*
X91582333Y-94561721D01*
X91746721Y-94397333D01*
X91875879Y-94204034D01*
X91964845Y-93989252D01*
X92010200Y-93761240D01*
X92010200Y-93528760D01*
X91964845Y-93300748D01*
X91875879Y-93085966D01*
X91800263Y-92972799D01*
X92399737Y-92972799D01*
X92324121Y-93085966D01*
X92235155Y-93300748D01*
X92189800Y-93528760D01*
X92189800Y-93761240D01*
X92235155Y-93989252D01*
X92324121Y-94204034D01*
X92453279Y-94397333D01*
X92617667Y-94561721D01*
X92810966Y-94690879D01*
X93025748Y-94779845D01*
X93253760Y-94825200D01*
X93486240Y-94825200D01*
X93714252Y-94779845D01*
X93929034Y-94690879D01*
X94122333Y-94561721D01*
X94286721Y-94397333D01*
X94415879Y-94204034D01*
X94504845Y-93989252D01*
X94550200Y-93761240D01*
X94550200Y-93528760D01*
X94504845Y-93300748D01*
X94415879Y-93085966D01*
X94340263Y-92972799D01*
X94939737Y-92972799D01*
X94864121Y-93085966D01*
X94775155Y-93300748D01*
X94729800Y-93528760D01*
X94729800Y-93761240D01*
X94775155Y-93989252D01*
X94864121Y-94204034D01*
X94993279Y-94397333D01*
X95157667Y-94561721D01*
X95350966Y-94690879D01*
X95565748Y-94779845D01*
X95793760Y-94825200D01*
X96026240Y-94825200D01*
X96254252Y-94779845D01*
X96469034Y-94690879D01*
X96662333Y-94561721D01*
X96826721Y-94397333D01*
X96955879Y-94204034D01*
X97044845Y-93989252D01*
X97090200Y-93761240D01*
X97090200Y-93528760D01*
X97044845Y-93300748D01*
X96955879Y-93085966D01*
X96880263Y-92972799D01*
X97479737Y-92972799D01*
X97404121Y-93085966D01*
X97315155Y-93300748D01*
X97269800Y-93528760D01*
X97269800Y-93761240D01*
X97315155Y-93989252D01*
X97404121Y-94204034D01*
X97533279Y-94397333D01*
X97697667Y-94561721D01*
X97890966Y-94690879D01*
X98105748Y-94779845D01*
X98333760Y-94825200D01*
X98566240Y-94825200D01*
X98794252Y-94779845D01*
X99009034Y-94690879D01*
X99202333Y-94561721D01*
X99366721Y-94397333D01*
X99495879Y-94204034D01*
X99584845Y-93989252D01*
X99630200Y-93761240D01*
X99630200Y-93528760D01*
X99584845Y-93300748D01*
X99495879Y-93085966D01*
X99420263Y-92972799D01*
X99808203Y-92972799D01*
X99808203Y-94495000D01*
X99814578Y-94559730D01*
X99833460Y-94621973D01*
X99864121Y-94679337D01*
X99905384Y-94729616D01*
X99955663Y-94770879D01*
X100013027Y-94801540D01*
X100075270Y-94820422D01*
X100140000Y-94826797D01*
X100504800Y-94826797D01*
X100504800Y-94828829D01*
X100504801Y-94828839D01*
X100504800Y-98176068D01*
X100502453Y-98199898D01*
X100504800Y-98223727D01*
X100511821Y-98295013D01*
X100539565Y-98386473D01*
X100584619Y-98470765D01*
X100645252Y-98544646D01*
X100663772Y-98559845D01*
X102405164Y-100301239D01*
X102420354Y-100319748D01*
X102494235Y-100380381D01*
X102578526Y-100425435D01*
X102669986Y-100453179D01*
X102765101Y-100462547D01*
X102788931Y-100460200D01*
X103077415Y-100460200D01*
X103081290Y-100479681D01*
X103211716Y-100794557D01*
X103401066Y-101077938D01*
X103642062Y-101318934D01*
X103925443Y-101508284D01*
X104240319Y-101638710D01*
X104574590Y-101705200D01*
X104915410Y-101705200D01*
X105249681Y-101638710D01*
X105564557Y-101508284D01*
X105847938Y-101318934D01*
X106088934Y-101077938D01*
X106278284Y-100794557D01*
X106408710Y-100479681D01*
X106412585Y-100460200D01*
X110477415Y-100460200D01*
X110481290Y-100479681D01*
X110611716Y-100794557D01*
X110801066Y-101077938D01*
X111042062Y-101318934D01*
X111325443Y-101508284D01*
X111640319Y-101638710D01*
X111974590Y-101705200D01*
X112315410Y-101705200D01*
X112649681Y-101638710D01*
X112964557Y-101508284D01*
X113247938Y-101318934D01*
X113488934Y-101077938D01*
X113678284Y-100794557D01*
X113808710Y-100479681D01*
X113875200Y-100145410D01*
X113875200Y-99804590D01*
X113808710Y-99470319D01*
X113745395Y-99317461D01*
X118790800Y-99317461D01*
X118790800Y-99432539D01*
X118813250Y-99545405D01*
X118857288Y-99651723D01*
X118921222Y-99747406D01*
X119002594Y-99828778D01*
X119098277Y-99892712D01*
X119204595Y-99936750D01*
X119317461Y-99959200D01*
X119432539Y-99959200D01*
X119545405Y-99936750D01*
X119651723Y-99892712D01*
X119747406Y-99828778D01*
X119828778Y-99747406D01*
X119892712Y-99651723D01*
X119936750Y-99545405D01*
X119959200Y-99432539D01*
X119959200Y-99317461D01*
X119936750Y-99204595D01*
X119892712Y-99098277D01*
X119860200Y-99049620D01*
X119860200Y-94487795D01*
X119917712Y-94401723D01*
X119961750Y-94295405D01*
X119984200Y-94182539D01*
X119984200Y-94067461D01*
X119961750Y-93954595D01*
X119917712Y-93848277D01*
X119853778Y-93752594D01*
X119772406Y-93671222D01*
X119676723Y-93607288D01*
X119570405Y-93563250D01*
X119457539Y-93540800D01*
X119342461Y-93540800D01*
X119229595Y-93563250D01*
X119123277Y-93607288D01*
X119027594Y-93671222D01*
X118946222Y-93752594D01*
X118882288Y-93848277D01*
X118838250Y-93954595D01*
X118815800Y-94067461D01*
X118815800Y-94182539D01*
X118838250Y-94295405D01*
X118882288Y-94401723D01*
X118889801Y-94412967D01*
X118889800Y-99049620D01*
X118857288Y-99098277D01*
X118813250Y-99204595D01*
X118790800Y-99317461D01*
X113745395Y-99317461D01*
X113678284Y-99155443D01*
X113488934Y-98872062D01*
X113247938Y-98631066D01*
X112964557Y-98441716D01*
X112649681Y-98311290D01*
X112315410Y-98244800D01*
X111974590Y-98244800D01*
X111640319Y-98311290D01*
X111325443Y-98441716D01*
X111042062Y-98631066D01*
X110801066Y-98872062D01*
X110611716Y-99155443D01*
X110481290Y-99470319D01*
X110477415Y-99489800D01*
X106412585Y-99489800D01*
X106408710Y-99470319D01*
X106278284Y-99155443D01*
X106088934Y-98872062D01*
X105847938Y-98631066D01*
X105564557Y-98441716D01*
X105249681Y-98311290D01*
X104915410Y-98244800D01*
X104574590Y-98244800D01*
X104240319Y-98311290D01*
X103925443Y-98441716D01*
X103642062Y-98631066D01*
X103401066Y-98872062D01*
X103211716Y-99155443D01*
X103081290Y-99470319D01*
X103077415Y-99489800D01*
X102966079Y-99489800D01*
X101475200Y-97998923D01*
X101475200Y-96397461D01*
X104725800Y-96397461D01*
X104725800Y-96512539D01*
X104748250Y-96625405D01*
X104792288Y-96731723D01*
X104856222Y-96827406D01*
X104937594Y-96908778D01*
X105033277Y-96972712D01*
X105139595Y-97016750D01*
X105246421Y-97037999D01*
X105865830Y-97657408D01*
X105880147Y-97674853D01*
X105949764Y-97731987D01*
X106029191Y-97774441D01*
X106115373Y-97800585D01*
X106182540Y-97807200D01*
X106182549Y-97807200D01*
X106204999Y-97809411D01*
X106227449Y-97807200D01*
X114808102Y-97807200D01*
X114918954Y-98074822D01*
X115086416Y-98325446D01*
X115299554Y-98538584D01*
X115550178Y-98706046D01*
X115828657Y-98821395D01*
X116124288Y-98880200D01*
X116425712Y-98880200D01*
X116721343Y-98821395D01*
X116999822Y-98706046D01*
X117250446Y-98538584D01*
X117463584Y-98325446D01*
X117631046Y-98074822D01*
X117746395Y-97796343D01*
X117805200Y-97500712D01*
X117805200Y-97199288D01*
X117746395Y-96903657D01*
X117631046Y-96625178D01*
X117463584Y-96374554D01*
X117250446Y-96161416D01*
X116999822Y-95993954D01*
X116721343Y-95878605D01*
X116425712Y-95819800D01*
X116124288Y-95819800D01*
X115828657Y-95878605D01*
X115550178Y-95993954D01*
X115299554Y-96161416D01*
X115086416Y-96374554D01*
X114918954Y-96625178D01*
X114808102Y-96892800D01*
X106394378Y-96892800D01*
X105892999Y-96391421D01*
X105871750Y-96284595D01*
X105827712Y-96178277D01*
X105763778Y-96082594D01*
X105682406Y-96001222D01*
X105586723Y-95937288D01*
X105480405Y-95893250D01*
X105367539Y-95870800D01*
X105252461Y-95870800D01*
X105139595Y-95893250D01*
X105033277Y-95937288D01*
X104937594Y-96001222D01*
X104856222Y-96082594D01*
X104792288Y-96178277D01*
X104748250Y-96284595D01*
X104725800Y-96397461D01*
X101475200Y-96397461D01*
X101475200Y-94826797D01*
X101840000Y-94826797D01*
X101904730Y-94820422D01*
X101966973Y-94801540D01*
X102024337Y-94770879D01*
X102074616Y-94729616D01*
X102115879Y-94679337D01*
X102146540Y-94621973D01*
X102165422Y-94559730D01*
X102171797Y-94495000D01*
X102171797Y-92972799D01*
X106133063Y-92972799D01*
X108335800Y-95175537D01*
X108335800Y-95242539D01*
X108358250Y-95355405D01*
X108402288Y-95461723D01*
X108466222Y-95557406D01*
X108547594Y-95638778D01*
X108643277Y-95702712D01*
X108749595Y-95746750D01*
X108862461Y-95769200D01*
X108977539Y-95769200D01*
X109090405Y-95746750D01*
X109196723Y-95702712D01*
X109292406Y-95638778D01*
X109373778Y-95557406D01*
X109437712Y-95461723D01*
X109481750Y-95355405D01*
X109504200Y-95242539D01*
X109504200Y-95127461D01*
X109481750Y-95014595D01*
X109437712Y-94908277D01*
X109373778Y-94812594D01*
X109292406Y-94731222D01*
X109196723Y-94667288D01*
X109090405Y-94623250D01*
X108977539Y-94600800D01*
X108910537Y-94600800D01*
X106714936Y-92405200D01*
X133279927Y-92405200D01*
X133327718Y-92555856D01*
X133342181Y-92589602D01*
X133356180Y-92623566D01*
X133358871Y-92628542D01*
X133462295Y-92816670D01*
X133483035Y-92846960D01*
X133503367Y-92877563D01*
X133506974Y-92881922D01*
X133644969Y-93046378D01*
X133671236Y-93072100D01*
X133697086Y-93098132D01*
X133701464Y-93101702D01*
X133701470Y-93101708D01*
X133701477Y-93101712D01*
X133868779Y-93236228D01*
X133899517Y-93256342D01*
X133929959Y-93276876D01*
X133934954Y-93279531D01*
X133948800Y-93286769D01*
X133948800Y-95374070D01*
X133909811Y-95413059D01*
X133809046Y-95563864D01*
X133739639Y-95731429D01*
X133704255Y-95909315D01*
X133704255Y-96090685D01*
X133739639Y-96268571D01*
X133809046Y-96436136D01*
X133909811Y-96586941D01*
X133948800Y-96625930D01*
X133948800Y-103374070D01*
X133909811Y-103413059D01*
X133809046Y-103563864D01*
X133739639Y-103731429D01*
X133704255Y-103909315D01*
X133704255Y-104090685D01*
X133739639Y-104268571D01*
X133809046Y-104436136D01*
X133909811Y-104586941D01*
X133948800Y-104625930D01*
X133948800Y-106830909D01*
X133942637Y-106835066D01*
X133911906Y-106855175D01*
X133907522Y-106858751D01*
X133757144Y-106983155D01*
X133731297Y-107009183D01*
X133705027Y-107034908D01*
X133701422Y-107039268D01*
X133578072Y-107190510D01*
X133557769Y-107221068D01*
X133536999Y-107251402D01*
X133534309Y-107256378D01*
X133442683Y-107428700D01*
X133428678Y-107462680D01*
X133414221Y-107496410D01*
X133412548Y-107501814D01*
X133384474Y-107594800D01*
X106654936Y-107594800D01*
X107090537Y-107159200D01*
X107157539Y-107159200D01*
X107270405Y-107136750D01*
X107376723Y-107092712D01*
X107472406Y-107028778D01*
X107553778Y-106947406D01*
X107617712Y-106851723D01*
X107661750Y-106745405D01*
X107684200Y-106632539D01*
X107684200Y-106517461D01*
X107661750Y-106404595D01*
X107617712Y-106298277D01*
X107553778Y-106202594D01*
X107472406Y-106121222D01*
X107376723Y-106057288D01*
X107270405Y-106013250D01*
X107157539Y-105990800D01*
X107042461Y-105990800D01*
X106929595Y-106013250D01*
X106823277Y-106057288D01*
X106727594Y-106121222D01*
X106646222Y-106202594D01*
X106582288Y-106298277D01*
X106538250Y-106404595D01*
X106515800Y-106517461D01*
X106515800Y-106584463D01*
X106083063Y-107017201D01*
X102380263Y-107017201D01*
X102455879Y-106904034D01*
X102544845Y-106689252D01*
X102590200Y-106461240D01*
X102590200Y-106228760D01*
X102544845Y-106000748D01*
X102514262Y-105926914D01*
X103939938Y-104501239D01*
X103939944Y-104501231D01*
X105305976Y-103135200D01*
X114819700Y-103135200D01*
X114918954Y-103374822D01*
X115086416Y-103625446D01*
X115299554Y-103838584D01*
X115550178Y-104006046D01*
X115828657Y-104121395D01*
X116124288Y-104180200D01*
X116425712Y-104180200D01*
X116721343Y-104121395D01*
X116999822Y-104006046D01*
X117250446Y-103838584D01*
X117463584Y-103625446D01*
X117631046Y-103374822D01*
X117746395Y-103096343D01*
X117805200Y-102800712D01*
X117805200Y-102499288D01*
X117746395Y-102203657D01*
X117631046Y-101925178D01*
X117463584Y-101674554D01*
X117250446Y-101461416D01*
X116999822Y-101293954D01*
X116721343Y-101178605D01*
X116425712Y-101119800D01*
X116124288Y-101119800D01*
X115828657Y-101178605D01*
X115550178Y-101293954D01*
X115299554Y-101461416D01*
X115086416Y-101674554D01*
X114918954Y-101925178D01*
X114819700Y-102164800D01*
X105128829Y-102164800D01*
X105104999Y-102162453D01*
X105009884Y-102171821D01*
X104918424Y-102199565D01*
X104834133Y-102244619D01*
X104760252Y-102305252D01*
X104745057Y-102323767D01*
X103253769Y-103815056D01*
X103253761Y-103815062D01*
X101828086Y-105240738D01*
X101754252Y-105210155D01*
X101526240Y-105164800D01*
X101293760Y-105164800D01*
X101065748Y-105210155D01*
X100850966Y-105299121D01*
X100657667Y-105428279D01*
X100493279Y-105592667D01*
X100364121Y-105785966D01*
X100275155Y-106000748D01*
X100229800Y-106228760D01*
X100229800Y-106461240D01*
X100275155Y-106689252D01*
X100364121Y-106904034D01*
X100439737Y-107017201D01*
X97300263Y-107017201D01*
X97375879Y-106904034D01*
X97464845Y-106689252D01*
X97510200Y-106461240D01*
X97510200Y-106228760D01*
X97464845Y-106000748D01*
X97422664Y-105898914D01*
X98249378Y-105072200D01*
X101327550Y-105072200D01*
X101350000Y-105074411D01*
X101372450Y-105072200D01*
X101372460Y-105072200D01*
X101439627Y-105065585D01*
X101525809Y-105039441D01*
X101605236Y-104996987D01*
X101674853Y-104939853D01*
X101689174Y-104922403D01*
X103357408Y-103254170D01*
X103374853Y-103239853D01*
X103431987Y-103170236D01*
X103474441Y-103090809D01*
X103500585Y-103004627D01*
X103507200Y-102937460D01*
X103507200Y-102937451D01*
X103509411Y-102915001D01*
X103507200Y-102892551D01*
X103507200Y-102282285D01*
X103567712Y-102191723D01*
X103611750Y-102085405D01*
X103634200Y-101972539D01*
X103634200Y-101857461D01*
X103611750Y-101744595D01*
X103567712Y-101638277D01*
X103503778Y-101542594D01*
X103422406Y-101461222D01*
X103326723Y-101397288D01*
X103220405Y-101353250D01*
X103107539Y-101330800D01*
X102992461Y-101330800D01*
X102879595Y-101353250D01*
X102773277Y-101397288D01*
X102677594Y-101461222D01*
X102596222Y-101542594D01*
X102532288Y-101638277D01*
X102488250Y-101744595D01*
X102465800Y-101857461D01*
X102465800Y-101972539D01*
X102488250Y-102085405D01*
X102532288Y-102191723D01*
X102592800Y-102282285D01*
X102592801Y-102725621D01*
X101160623Y-104157800D01*
X98082449Y-104157800D01*
X98059999Y-104155589D01*
X98037549Y-104157800D01*
X98037540Y-104157800D01*
X97970373Y-104164415D01*
X97884191Y-104190559D01*
X97847217Y-104210322D01*
X97804763Y-104233013D01*
X97763000Y-104267288D01*
X97735147Y-104290147D01*
X97720830Y-104307592D01*
X96776086Y-105252336D01*
X96674252Y-105210155D01*
X96446240Y-105164800D01*
X96213760Y-105164800D01*
X95985748Y-105210155D01*
X95770966Y-105299121D01*
X95577667Y-105428279D01*
X95413279Y-105592667D01*
X95284121Y-105785966D01*
X95195155Y-106000748D01*
X95149800Y-106228760D01*
X95149800Y-106461240D01*
X95195155Y-106689252D01*
X95284121Y-106904034D01*
X95359737Y-107017201D01*
X94760263Y-107017201D01*
X94835879Y-106904034D01*
X94924845Y-106689252D01*
X94970200Y-106461240D01*
X94970200Y-106228760D01*
X94924845Y-106000748D01*
X94835879Y-105785966D01*
X94706721Y-105592667D01*
X94542333Y-105428279D01*
X94349034Y-105299121D01*
X94134252Y-105210155D01*
X93906240Y-105164800D01*
X93673760Y-105164800D01*
X93445748Y-105210155D01*
X93230966Y-105299121D01*
X93037667Y-105428279D01*
X92873279Y-105592667D01*
X92744121Y-105785966D01*
X92655155Y-106000748D01*
X92609800Y-106228760D01*
X92609800Y-106461240D01*
X92655155Y-106689252D01*
X92744121Y-106904034D01*
X92819737Y-107017201D01*
X92220263Y-107017201D01*
X92295879Y-106904034D01*
X92384845Y-106689252D01*
X92430200Y-106461240D01*
X92430200Y-106228760D01*
X92384845Y-106000748D01*
X92295879Y-105785966D01*
X92166721Y-105592667D01*
X92002333Y-105428279D01*
X91809034Y-105299121D01*
X91594252Y-105210155D01*
X91366240Y-105164800D01*
X91133760Y-105164800D01*
X90905748Y-105210155D01*
X90753114Y-105273378D01*
X88204603Y-102724867D01*
X88204603Y-100489205D01*
X88251981Y-100441827D01*
X88315915Y-100346144D01*
X88324846Y-100324582D01*
X88988518Y-100988254D01*
X89001242Y-101003758D01*
X89063124Y-101054544D01*
X89133725Y-101092281D01*
X89187093Y-101108470D01*
X89210331Y-101115519D01*
X89218335Y-101116307D01*
X89270040Y-101121400D01*
X89270046Y-101121400D01*
X89289999Y-101123365D01*
X89309952Y-101121400D01*
X89320216Y-101121400D01*
X89367594Y-101168778D01*
X89463277Y-101232712D01*
X89569595Y-101276750D01*
X89682461Y-101299200D01*
X89797539Y-101299200D01*
X89910405Y-101276750D01*
X90016723Y-101232712D01*
X90112406Y-101168778D01*
X90193778Y-101087406D01*
X90257712Y-100991723D01*
X90301750Y-100885405D01*
X90314014Y-100823750D01*
X92281125Y-102790862D01*
X92293844Y-102806360D01*
X92309342Y-102819079D01*
X92309347Y-102819084D01*
X92317012Y-102825374D01*
X92355726Y-102857146D01*
X92420140Y-102891576D01*
X92426327Y-102894883D01*
X92502933Y-102918121D01*
X92510937Y-102918909D01*
X92562642Y-102924002D01*
X92562648Y-102924002D01*
X92582601Y-102925967D01*
X92602554Y-102924002D01*
X99847445Y-102924002D01*
X99867398Y-102925967D01*
X99887351Y-102924002D01*
X99887358Y-102924002D01*
X99947066Y-102918121D01*
X100023673Y-102894883D01*
X100094274Y-102857146D01*
X100156156Y-102806360D01*
X100168880Y-102790856D01*
X100280536Y-102679200D01*
X100347539Y-102679200D01*
X100460405Y-102656750D01*
X100566723Y-102612712D01*
X100662406Y-102548778D01*
X100743778Y-102467406D01*
X100807712Y-102371723D01*
X100851750Y-102265405D01*
X100874200Y-102152539D01*
X100874200Y-102037461D01*
X100851750Y-101924595D01*
X100807712Y-101818277D01*
X100743778Y-101722594D01*
X100662406Y-101641222D01*
X100566723Y-101577288D01*
X100460405Y-101533250D01*
X100347539Y-101510800D01*
X100232461Y-101510800D01*
X100119595Y-101533250D01*
X100013277Y-101577288D01*
X99917594Y-101641222D01*
X99836222Y-101722594D01*
X99772288Y-101818277D01*
X99728250Y-101924595D01*
X99705800Y-102037461D01*
X99705800Y-102104464D01*
X99699062Y-102111202D01*
X97890488Y-102111202D01*
X97894200Y-102092539D01*
X97894200Y-101977461D01*
X97871750Y-101864595D01*
X97827712Y-101758277D01*
X97763778Y-101662594D01*
X97682406Y-101581222D01*
X97586723Y-101517288D01*
X97480405Y-101473250D01*
X97367539Y-101450800D01*
X97252461Y-101450800D01*
X97139595Y-101473250D01*
X97033277Y-101517288D01*
X96937594Y-101581222D01*
X96890216Y-101628600D01*
X94779016Y-101628600D01*
X94784200Y-101602539D01*
X94784200Y-101487461D01*
X94761750Y-101374595D01*
X94717712Y-101268277D01*
X94653778Y-101172594D01*
X94572406Y-101091222D01*
X94476723Y-101027288D01*
X94370405Y-100983250D01*
X94257539Y-100960800D01*
X94142461Y-100960800D01*
X94029595Y-100983250D01*
X93923277Y-101027288D01*
X93827594Y-101091222D01*
X93780216Y-101138600D01*
X93178336Y-101138600D01*
X93158111Y-101118375D01*
X93202406Y-101088778D01*
X93283778Y-101007406D01*
X93347712Y-100911723D01*
X93391750Y-100805405D01*
X93414200Y-100692539D01*
X93414200Y-100577461D01*
X93391750Y-100464595D01*
X93347712Y-100358277D01*
X93283778Y-100262594D01*
X93202406Y-100181222D01*
X93106723Y-100117288D01*
X93000405Y-100073250D01*
X92887539Y-100050800D01*
X92820537Y-100050800D01*
X89241482Y-96471746D01*
X89228758Y-96456242D01*
X89166876Y-96405456D01*
X89096275Y-96367719D01*
X89019668Y-96344481D01*
X88959960Y-96338600D01*
X88959953Y-96338600D01*
X88940000Y-96336635D01*
X88920047Y-96338600D01*
X88229784Y-96338600D01*
X88182406Y-96291222D01*
X88086723Y-96227288D01*
X87980405Y-96183250D01*
X87867539Y-96160800D01*
X87752461Y-96160800D01*
X87639595Y-96183250D01*
X87533277Y-96227288D01*
X87437594Y-96291222D01*
X87356222Y-96372594D01*
X87292288Y-96468277D01*
X87248250Y-96574595D01*
X87225800Y-96687461D01*
X87225800Y-96802539D01*
X87248250Y-96915405D01*
X87292288Y-97021723D01*
X87356222Y-97117406D01*
X87437594Y-97198778D01*
X87533277Y-97262712D01*
X87612134Y-97295375D01*
X87586356Y-97312600D01*
X87504984Y-97393972D01*
X87441050Y-97489655D01*
X87397012Y-97595973D01*
X87374562Y-97708839D01*
X87374562Y-97823917D01*
X87397012Y-97936783D01*
X87441050Y-98043101D01*
X87504984Y-98138784D01*
X87586356Y-98220156D01*
X87682039Y-98284090D01*
X87775800Y-98322927D01*
X87775800Y-98352539D01*
X87798250Y-98465405D01*
X87842288Y-98571723D01*
X87906222Y-98667406D01*
X87987594Y-98748778D01*
X88083277Y-98812712D01*
X88189595Y-98856750D01*
X88302461Y-98879200D01*
X88369464Y-98879200D01*
X89631250Y-100140986D01*
X89569595Y-100153250D01*
X89463277Y-100197288D01*
X89393589Y-100243853D01*
X88594200Y-99444464D01*
X88594200Y-99377461D01*
X88571750Y-99264595D01*
X88527712Y-99158277D01*
X88463778Y-99062594D01*
X88382406Y-98981222D01*
X88286723Y-98917288D01*
X88180405Y-98873250D01*
X88067539Y-98850800D01*
X87952461Y-98850800D01*
X87839595Y-98873250D01*
X87733277Y-98917288D01*
X87637594Y-98981222D01*
X87556222Y-99062594D01*
X87492288Y-99158277D01*
X87448250Y-99264595D01*
X87425800Y-99377461D01*
X87425800Y-99492539D01*
X87447413Y-99601199D01*
X87425797Y-99615643D01*
X87344425Y-99697015D01*
X87280491Y-99792698D01*
X87236453Y-99899016D01*
X87214003Y-100011882D01*
X87214003Y-100126960D01*
X87236453Y-100239826D01*
X87280491Y-100346144D01*
X87344425Y-100441827D01*
X87391804Y-100489206D01*
X87391803Y-102873250D01*
X87389838Y-102893203D01*
X87391803Y-102913156D01*
X87391803Y-102913162D01*
X87395802Y-102953758D01*
X87397684Y-102972871D01*
X87418739Y-103042281D01*
X87420922Y-103049477D01*
X87458659Y-103120078D01*
X87509445Y-103181961D01*
X87524949Y-103194685D01*
X88708864Y-104378600D01*
X85819784Y-104378600D01*
X85772406Y-104331222D01*
X85676723Y-104267288D01*
X85570405Y-104223250D01*
X85457539Y-104200800D01*
X85390536Y-104200800D01*
X85284243Y-104094507D01*
X85271519Y-104079003D01*
X85209637Y-104028217D01*
X85139036Y-103990480D01*
X85062429Y-103967242D01*
X85002721Y-103961361D01*
X85002714Y-103961361D01*
X84982761Y-103959396D01*
X84962808Y-103961361D01*
X82549871Y-103961361D01*
X82502493Y-103913983D01*
X82406810Y-103850049D01*
X82300492Y-103806011D01*
X82187626Y-103783561D01*
X82072548Y-103783561D01*
X81959682Y-103806011D01*
X81853364Y-103850049D01*
X81757681Y-103913983D01*
X81676309Y-103995355D01*
X81612375Y-104091038D01*
X81568337Y-104197356D01*
X81545887Y-104310222D01*
X81545887Y-104425300D01*
X81568337Y-104538166D01*
X81612375Y-104644484D01*
X81676309Y-104740167D01*
X81757681Y-104821539D01*
X81853364Y-104885473D01*
X81959682Y-104929511D01*
X82072548Y-104951961D01*
X82187626Y-104951961D01*
X82300492Y-104929511D01*
X82406810Y-104885473D01*
X82502493Y-104821539D01*
X82549871Y-104774161D01*
X84814425Y-104774161D01*
X84815800Y-104775536D01*
X84815800Y-104842539D01*
X84838250Y-104955405D01*
X84882288Y-105061723D01*
X84946222Y-105157406D01*
X85027594Y-105238778D01*
X85123277Y-105302712D01*
X85229595Y-105346750D01*
X85342461Y-105369200D01*
X85457539Y-105369200D01*
X85526662Y-105355451D01*
X85417667Y-105428279D01*
X85253279Y-105592667D01*
X85124121Y-105785966D01*
X85035155Y-106000748D01*
X84989800Y-106228760D01*
X84989800Y-106461240D01*
X85035155Y-106689252D01*
X85124121Y-106904034D01*
X85253279Y-107097333D01*
X85417667Y-107261721D01*
X85610966Y-107390879D01*
X85825748Y-107479845D01*
X86053760Y-107525200D01*
X86286240Y-107525200D01*
X86514252Y-107479845D01*
X86729034Y-107390879D01*
X86922333Y-107261721D01*
X87086721Y-107097333D01*
X87215879Y-106904034D01*
X87304845Y-106689252D01*
X87350200Y-106461240D01*
X87350200Y-106228760D01*
X87304845Y-106000748D01*
X87215879Y-105785966D01*
X87086721Y-105592667D01*
X86922333Y-105428279D01*
X86729034Y-105299121D01*
X86514252Y-105210155D01*
X86419965Y-105191400D01*
X88460035Y-105191400D01*
X88365748Y-105210155D01*
X88150966Y-105299121D01*
X87957667Y-105428279D01*
X87793279Y-105592667D01*
X87664121Y-105785966D01*
X87575155Y-106000748D01*
X87529800Y-106228760D01*
X87529800Y-106461240D01*
X87575155Y-106689252D01*
X87664121Y-106904034D01*
X87793279Y-107097333D01*
X87957667Y-107261721D01*
X88150966Y-107390879D01*
X88365748Y-107479845D01*
X88593760Y-107525200D01*
X88826240Y-107525200D01*
X89054252Y-107479845D01*
X89269034Y-107390879D01*
X89462333Y-107261721D01*
X89626721Y-107097333D01*
X89755879Y-106904034D01*
X89764946Y-106882144D01*
X89770880Y-106942397D01*
X89794118Y-107019003D01*
X89805118Y-107039582D01*
X89831856Y-107089605D01*
X89842904Y-107103067D01*
X89869917Y-107135983D01*
X89869923Y-107135989D01*
X89882642Y-107151487D01*
X89898140Y-107164206D01*
X90328733Y-107594800D01*
X67145073Y-107594800D01*
X67097282Y-107444144D01*
X67082819Y-107410398D01*
X67068820Y-107376434D01*
X67066129Y-107371458D01*
X66962705Y-107183330D01*
X66941976Y-107153056D01*
X66921633Y-107122437D01*
X66918026Y-107118078D01*
X66780031Y-106953622D01*
X66753784Y-106927919D01*
X66727914Y-106901867D01*
X66723530Y-106898292D01*
X66556220Y-106763772D01*
X66525496Y-106743666D01*
X66495042Y-106723124D01*
X66490057Y-106720475D01*
X66490048Y-106720469D01*
X66490039Y-106720465D01*
X66299793Y-106621008D01*
X66265750Y-106607254D01*
X66231888Y-106593019D01*
X66226472Y-106591384D01*
X66226470Y-106591383D01*
X66226466Y-106591382D01*
X66020524Y-106530770D01*
X65984464Y-106523891D01*
X65948474Y-106516503D01*
X65942844Y-106515952D01*
X65729045Y-106496495D01*
X65692360Y-106496751D01*
X65655597Y-106496494D01*
X65649967Y-106497047D01*
X65649965Y-106497047D01*
X65436460Y-106519487D01*
X65400514Y-106526865D01*
X65364407Y-106533753D01*
X65358998Y-106535387D01*
X65358994Y-106535388D01*
X65358991Y-106535389D01*
X65358992Y-106535389D01*
X65153911Y-106598873D01*
X65120078Y-106613095D01*
X65086005Y-106626861D01*
X65081010Y-106629517D01*
X64892165Y-106731625D01*
X64861728Y-106752155D01*
X64830988Y-106772270D01*
X64826605Y-106775846D01*
X64661189Y-106912689D01*
X64635323Y-106938736D01*
X64609069Y-106964445D01*
X64605464Y-106968804D01*
X64469779Y-107135171D01*
X64449466Y-107165745D01*
X64428707Y-107196062D01*
X64426017Y-107201039D01*
X64325229Y-107390593D01*
X64311232Y-107424552D01*
X64296766Y-107458303D01*
X64295093Y-107463707D01*
X64255514Y-107594800D01*
X60119817Y-107594800D01*
X59790612Y-107562521D01*
X59493008Y-107472669D01*
X59218529Y-107326725D01*
X58977620Y-107130245D01*
X58779462Y-106890714D01*
X58631604Y-106617256D01*
X58539677Y-106320286D01*
X58505200Y-105992263D01*
X58505200Y-102705000D01*
X58699937Y-102705000D01*
X58719345Y-102902054D01*
X58776823Y-103091534D01*
X58870163Y-103266161D01*
X58995778Y-103419222D01*
X59148839Y-103544837D01*
X59323466Y-103638177D01*
X59512946Y-103695655D01*
X59660625Y-103710200D01*
X60109375Y-103710200D01*
X60257054Y-103695655D01*
X60446534Y-103638177D01*
X60621161Y-103544837D01*
X60774222Y-103419222D01*
X60899837Y-103266161D01*
X60940439Y-103190200D01*
X62305499Y-103190200D01*
X62346533Y-103212133D01*
X62512451Y-103262463D01*
X62641769Y-103275200D01*
X63128231Y-103275200D01*
X63257549Y-103262463D01*
X63423467Y-103212133D01*
X63576379Y-103130400D01*
X63710406Y-103020406D01*
X63820400Y-102886379D01*
X63902133Y-102733467D01*
X63952463Y-102567549D01*
X63969458Y-102395000D01*
X63952463Y-102222451D01*
X63902133Y-102056533D01*
X63820400Y-101903621D01*
X63710406Y-101769594D01*
X63576379Y-101659600D01*
X63423467Y-101577867D01*
X63257549Y-101527537D01*
X63128231Y-101514800D01*
X62641769Y-101514800D01*
X62512451Y-101527537D01*
X62346533Y-101577867D01*
X62193621Y-101659600D01*
X62059594Y-101769594D01*
X61949600Y-101903621D01*
X61867867Y-102056533D01*
X61818341Y-102219800D01*
X60940439Y-102219800D01*
X60899837Y-102143839D01*
X60774222Y-101990778D01*
X60621161Y-101865163D01*
X60446534Y-101771823D01*
X60257054Y-101714345D01*
X60109375Y-101699800D01*
X59660625Y-101699800D01*
X59512946Y-101714345D01*
X59323466Y-101771823D01*
X59148839Y-101865163D01*
X58995778Y-101990778D01*
X58870163Y-102143839D01*
X58776823Y-102318466D01*
X58719345Y-102507946D01*
X58699937Y-102705000D01*
X58505200Y-102705000D01*
X58505200Y-99804590D01*
X64414800Y-99804590D01*
X64414800Y-100145410D01*
X64481290Y-100479681D01*
X64611716Y-100794557D01*
X64801066Y-101077938D01*
X65042062Y-101318934D01*
X65325443Y-101508284D01*
X65640319Y-101638710D01*
X65974590Y-101705200D01*
X66315410Y-101705200D01*
X66649681Y-101638710D01*
X66964557Y-101508284D01*
X67247938Y-101318934D01*
X67488934Y-101077938D01*
X67678284Y-100794557D01*
X67808710Y-100479681D01*
X67875200Y-100145410D01*
X67875200Y-99804590D01*
X71814800Y-99804590D01*
X71814800Y-100145410D01*
X71881290Y-100479681D01*
X72011716Y-100794557D01*
X72201066Y-101077938D01*
X72442062Y-101318934D01*
X72725443Y-101508284D01*
X73040319Y-101638710D01*
X73374590Y-101705200D01*
X73715410Y-101705200D01*
X74049681Y-101638710D01*
X74364557Y-101508284D01*
X74647938Y-101318934D01*
X74888934Y-101077938D01*
X75078284Y-100794557D01*
X75208710Y-100479681D01*
X75275200Y-100145410D01*
X75275200Y-99804590D01*
X75208710Y-99470319D01*
X75078284Y-99155443D01*
X74888934Y-98872062D01*
X74647938Y-98631066D01*
X74364557Y-98441716D01*
X74049681Y-98311290D01*
X73715410Y-98244800D01*
X73374590Y-98244800D01*
X73040319Y-98311290D01*
X72725443Y-98441716D01*
X72442062Y-98631066D01*
X72201066Y-98872062D01*
X72011716Y-99155443D01*
X71881290Y-99470319D01*
X71814800Y-99804590D01*
X67875200Y-99804590D01*
X67808710Y-99470319D01*
X67678284Y-99155443D01*
X67488934Y-98872062D01*
X67247938Y-98631066D01*
X66964557Y-98441716D01*
X66649681Y-98311290D01*
X66315410Y-98244800D01*
X65974590Y-98244800D01*
X65640319Y-98311290D01*
X65325443Y-98441716D01*
X65042062Y-98631066D01*
X64801066Y-98872062D01*
X64611716Y-99155443D01*
X64481290Y-99470319D01*
X64414800Y-99804590D01*
X58505200Y-99804590D01*
X58505200Y-97245000D01*
X58699937Y-97245000D01*
X58719345Y-97442054D01*
X58776823Y-97631534D01*
X58870163Y-97806161D01*
X58995778Y-97959222D01*
X59148839Y-98084837D01*
X59323466Y-98178177D01*
X59512946Y-98235655D01*
X59660625Y-98250200D01*
X60109375Y-98250200D01*
X60257054Y-98235655D01*
X60446534Y-98178177D01*
X60621161Y-98084837D01*
X60675551Y-98040200D01*
X61946297Y-98040200D01*
X61949600Y-98046379D01*
X62059594Y-98180406D01*
X62193621Y-98290400D01*
X62346533Y-98372133D01*
X62512451Y-98422463D01*
X62641769Y-98435200D01*
X63128231Y-98435200D01*
X63257549Y-98422463D01*
X63423467Y-98372133D01*
X63576379Y-98290400D01*
X63710406Y-98180406D01*
X63820400Y-98046379D01*
X63902133Y-97893467D01*
X63952463Y-97727549D01*
X63969458Y-97555000D01*
X63952463Y-97382451D01*
X63902133Y-97216533D01*
X63820400Y-97063621D01*
X63710406Y-96929594D01*
X63576379Y-96819600D01*
X63423467Y-96737867D01*
X63257549Y-96687537D01*
X63128231Y-96674800D01*
X62641769Y-96674800D01*
X62512451Y-96687537D01*
X62346533Y-96737867D01*
X62193621Y-96819600D01*
X62059594Y-96929594D01*
X61949600Y-97063621D01*
X61946297Y-97069800D01*
X61052807Y-97069800D01*
X61050655Y-97047946D01*
X60993177Y-96858466D01*
X60899837Y-96683839D01*
X60774222Y-96530778D01*
X60621161Y-96405163D01*
X60446534Y-96311823D01*
X60257054Y-96254345D01*
X60109375Y-96239800D01*
X59660625Y-96239800D01*
X59512946Y-96254345D01*
X59323466Y-96311823D01*
X59148839Y-96405163D01*
X58995778Y-96530778D01*
X58870163Y-96683839D01*
X58776823Y-96858466D01*
X58719345Y-97047946D01*
X58699937Y-97245000D01*
X58505200Y-97245000D01*
X58505200Y-94019817D01*
X58537479Y-93690613D01*
X58627331Y-93393007D01*
X58773278Y-93118524D01*
X58969754Y-92877621D01*
X59209287Y-92679462D01*
X59482744Y-92531604D01*
X59779714Y-92439677D01*
X60107736Y-92405200D01*
X64254927Y-92405200D01*
X64302718Y-92555856D01*
G37*
X64302718Y-92555856D02*
X64317181Y-92589602D01*
X64331180Y-92623566D01*
X64333871Y-92628542D01*
X64437295Y-92816670D01*
X64458035Y-92846960D01*
X64478367Y-92877563D01*
X64481974Y-92881922D01*
X64559477Y-92974287D01*
X64460405Y-92933250D01*
X64347539Y-92910800D01*
X64232461Y-92910800D01*
X64119595Y-92933250D01*
X64013277Y-92977288D01*
X63917594Y-93041222D01*
X63836222Y-93122594D01*
X63772288Y-93218277D01*
X63728250Y-93324595D01*
X63705800Y-93437461D01*
X63705800Y-93552539D01*
X63728250Y-93665405D01*
X63772288Y-93771723D01*
X63836222Y-93867406D01*
X63917594Y-93948778D01*
X64013277Y-94012712D01*
X64119595Y-94056750D01*
X64232461Y-94079200D01*
X64347539Y-94079200D01*
X64460405Y-94056750D01*
X64566723Y-94012712D01*
X64662406Y-93948778D01*
X64709784Y-93901400D01*
X71993717Y-93901400D01*
X72013670Y-93903365D01*
X72033623Y-93901400D01*
X72033630Y-93901400D01*
X72093338Y-93895519D01*
X72169945Y-93872281D01*
X72240546Y-93834544D01*
X72286826Y-93796562D01*
X72325155Y-93989252D01*
X72414121Y-94204034D01*
X72543279Y-94397333D01*
X72707667Y-94561721D01*
X72900966Y-94690879D01*
X73053600Y-94754102D01*
X73053600Y-94827128D01*
X73051635Y-94847081D01*
X73053600Y-94867034D01*
X73053600Y-94867040D01*
X73056858Y-94900115D01*
X73059481Y-94926749D01*
X73079146Y-94991575D01*
X73082719Y-95003355D01*
X73120456Y-95073956D01*
X73171242Y-95135839D01*
X73186746Y-95148563D01*
X76764753Y-98726571D01*
X76766848Y-98729042D01*
X76778788Y-98740606D01*
X76790665Y-98752483D01*
X76793195Y-98754559D01*
X76844900Y-98804636D01*
X77548522Y-99508259D01*
X77561242Y-99523758D01*
X77576740Y-99536477D01*
X77576745Y-99536482D01*
X77595300Y-99551709D01*
X77623124Y-99574544D01*
X77680861Y-99605405D01*
X77693725Y-99612281D01*
X77770331Y-99635519D01*
X77777604Y-99636235D01*
X77830040Y-99641400D01*
X77830047Y-99641400D01*
X77850000Y-99643365D01*
X77869953Y-99641400D01*
X78146951Y-99641400D01*
X78135800Y-99697461D01*
X78135800Y-99812539D01*
X78158250Y-99925405D01*
X78202288Y-100031723D01*
X78212487Y-100046987D01*
X77936746Y-100322728D01*
X77921242Y-100335452D01*
X77870456Y-100397335D01*
X77834505Y-100464595D01*
X77832719Y-100467936D01*
X77820476Y-100508298D01*
X77809481Y-100544543D01*
X77803600Y-100604251D01*
X77803600Y-100604257D01*
X77801635Y-100624210D01*
X77803600Y-100644163D01*
X77803601Y-102065032D01*
X77803600Y-102065040D01*
X77803600Y-102439063D01*
X74651797Y-105590867D01*
X74651797Y-105495000D01*
X74645422Y-105430270D01*
X74626540Y-105368027D01*
X74595879Y-105310663D01*
X74554616Y-105260384D01*
X74504337Y-105219121D01*
X74446973Y-105188460D01*
X74384730Y-105169578D01*
X74320000Y-105163203D01*
X72620000Y-105163203D01*
X72555270Y-105169578D01*
X72493027Y-105188460D01*
X72435663Y-105219121D01*
X72385384Y-105260384D01*
X72344121Y-105310663D01*
X72313460Y-105368027D01*
X72294578Y-105430270D01*
X72288203Y-105495000D01*
X72288203Y-107195000D01*
X72294578Y-107259730D01*
X72313460Y-107321973D01*
X72344121Y-107379337D01*
X72385384Y-107429616D01*
X72435663Y-107470879D01*
X72493027Y-107501540D01*
X72555270Y-107520422D01*
X72620000Y-107526797D01*
X74320000Y-107526797D01*
X74384730Y-107520422D01*
X74446973Y-107501540D01*
X74504337Y-107470879D01*
X74554616Y-107429616D01*
X74595879Y-107379337D01*
X74626540Y-107321973D01*
X74645422Y-107259730D01*
X74651797Y-107195000D01*
X74651797Y-106709922D01*
X74699276Y-106684544D01*
X74761158Y-106633758D01*
X74773882Y-106618254D01*
X74846573Y-106545563D01*
X74875155Y-106689252D01*
X74964121Y-106904034D01*
X75093279Y-107097333D01*
X75257667Y-107261721D01*
X75450966Y-107390879D01*
X75665748Y-107479845D01*
X75893760Y-107525200D01*
X76126240Y-107525200D01*
X76354252Y-107479845D01*
X76569034Y-107390879D01*
X76762333Y-107261721D01*
X76926721Y-107097333D01*
X77055879Y-106904034D01*
X77144845Y-106689252D01*
X77190200Y-106461240D01*
X77190200Y-106228760D01*
X77369800Y-106228760D01*
X77369800Y-106461240D01*
X77415155Y-106689252D01*
X77504121Y-106904034D01*
X77633279Y-107097333D01*
X77797667Y-107261721D01*
X77990966Y-107390879D01*
X78205748Y-107479845D01*
X78433760Y-107525200D01*
X78666240Y-107525200D01*
X78894252Y-107479845D01*
X79109034Y-107390879D01*
X79302333Y-107261721D01*
X79466721Y-107097333D01*
X79595879Y-106904034D01*
X79684845Y-106689252D01*
X79730200Y-106461240D01*
X79730200Y-106228760D01*
X79909800Y-106228760D01*
X79909800Y-106461240D01*
X79955155Y-106689252D01*
X80044121Y-106904034D01*
X80173279Y-107097333D01*
X80337667Y-107261721D01*
X80530966Y-107390879D01*
X80745748Y-107479845D01*
X80973760Y-107525200D01*
X81206240Y-107525200D01*
X81434252Y-107479845D01*
X81649034Y-107390879D01*
X81842333Y-107261721D01*
X82006721Y-107097333D01*
X82135879Y-106904034D01*
X82224845Y-106689252D01*
X82270200Y-106461240D01*
X82270200Y-106228760D01*
X82449800Y-106228760D01*
X82449800Y-106461240D01*
X82495155Y-106689252D01*
X82584121Y-106904034D01*
X82713279Y-107097333D01*
X82877667Y-107261721D01*
X83070966Y-107390879D01*
X83285748Y-107479845D01*
X83513760Y-107525200D01*
X83746240Y-107525200D01*
X83974252Y-107479845D01*
X84189034Y-107390879D01*
X84382333Y-107261721D01*
X84546721Y-107097333D01*
X84675879Y-106904034D01*
X84764845Y-106689252D01*
X84810200Y-106461240D01*
X84810200Y-106228760D01*
X84764845Y-106000748D01*
X84675879Y-105785966D01*
X84546721Y-105592667D01*
X84382333Y-105428279D01*
X84189034Y-105299121D01*
X83974252Y-105210155D01*
X83746240Y-105164800D01*
X83513760Y-105164800D01*
X83285748Y-105210155D01*
X83070966Y-105299121D01*
X82877667Y-105428279D01*
X82713279Y-105592667D01*
X82584121Y-105785966D01*
X82495155Y-106000748D01*
X82449800Y-106228760D01*
X82270200Y-106228760D01*
X82224845Y-106000748D01*
X82135879Y-105785966D01*
X82006721Y-105592667D01*
X81842333Y-105428279D01*
X81649034Y-105299121D01*
X81434252Y-105210155D01*
X81206240Y-105164800D01*
X80973760Y-105164800D01*
X80745748Y-105210155D01*
X80530966Y-105299121D01*
X80337667Y-105428279D01*
X80173279Y-105592667D01*
X80044121Y-105785966D01*
X79955155Y-106000748D01*
X79909800Y-106228760D01*
X79730200Y-106228760D01*
X79684845Y-106000748D01*
X79595879Y-105785966D01*
X79466721Y-105592667D01*
X79302333Y-105428279D01*
X79109034Y-105299121D01*
X78894252Y-105210155D01*
X78666240Y-105164800D01*
X78433760Y-105164800D01*
X78205748Y-105210155D01*
X77990966Y-105299121D01*
X77797667Y-105428279D01*
X77633279Y-105592667D01*
X77504121Y-105785966D01*
X77415155Y-106000748D01*
X77369800Y-106228760D01*
X77190200Y-106228760D01*
X77144845Y-106000748D01*
X77081622Y-105848114D01*
X79786738Y-103142998D01*
X79802241Y-103130275D01*
X79853027Y-103068393D01*
X79890764Y-102997792D01*
X79909065Y-102937460D01*
X79914002Y-102921186D01*
X79916467Y-102896158D01*
X79919883Y-102861477D01*
X79919883Y-102861471D01*
X79921848Y-102841518D01*
X79919883Y-102821565D01*
X79919883Y-100495542D01*
X79921848Y-100475589D01*
X79919883Y-100455636D01*
X79919883Y-100455629D01*
X79914002Y-100395921D01*
X79890764Y-100319314D01*
X79853027Y-100248713D01*
X79843684Y-100237329D01*
X79843684Y-100164051D01*
X79821234Y-100051185D01*
X79777196Y-99944867D01*
X79713262Y-99849184D01*
X79631890Y-99767812D01*
X79563007Y-99721786D01*
X79612406Y-99688778D01*
X79693778Y-99607406D01*
X79757712Y-99511723D01*
X79801750Y-99405405D01*
X79824200Y-99292539D01*
X79824200Y-99177461D01*
X79801750Y-99064595D01*
X79757712Y-98958277D01*
X79693778Y-98862594D01*
X79612406Y-98781222D01*
X79516723Y-98717288D01*
X79410405Y-98673250D01*
X79297539Y-98650800D01*
X79182461Y-98650800D01*
X79069595Y-98673250D01*
X78963277Y-98717288D01*
X78867594Y-98781222D01*
X78820216Y-98828600D01*
X78018337Y-98828600D01*
X77429172Y-98239436D01*
X77427072Y-98236959D01*
X77415101Y-98225365D01*
X77403254Y-98213518D01*
X77400731Y-98211447D01*
X77349051Y-98161395D01*
X73919686Y-94732031D01*
X74019034Y-94690879D01*
X74212333Y-94561721D01*
X74376721Y-94397333D01*
X74505879Y-94204034D01*
X74594845Y-93989252D01*
X74640200Y-93761240D01*
X74640200Y-93528760D01*
X74594845Y-93300748D01*
X74505879Y-93085966D01*
X74430263Y-92972799D01*
X75029737Y-92972799D01*
X74954121Y-93085966D01*
X74865155Y-93300748D01*
X74819800Y-93528760D01*
X74819800Y-93761240D01*
X74865155Y-93989252D01*
X74954121Y-94204034D01*
X75083279Y-94397333D01*
X75247667Y-94561721D01*
X75440966Y-94690879D01*
X75655748Y-94779845D01*
X75883760Y-94825200D01*
X76116240Y-94825200D01*
X76344252Y-94779845D01*
X76496886Y-94716622D01*
X76838518Y-95058254D01*
X76851242Y-95073758D01*
X76913124Y-95124544D01*
X76983725Y-95162281D01*
X77037093Y-95178470D01*
X77060331Y-95185519D01*
X77068335Y-95186307D01*
X77120040Y-95191400D01*
X77120046Y-95191400D01*
X77139999Y-95193365D01*
X77159952Y-95191400D01*
X82480182Y-95191400D01*
X83347040Y-96058259D01*
X83359760Y-96073758D01*
X83375258Y-96086477D01*
X83375263Y-96086482D01*
X83396264Y-96103717D01*
X83421642Y-96124544D01*
X83492243Y-96162281D01*
X83568850Y-96185519D01*
X83628558Y-96191400D01*
X83628565Y-96191400D01*
X83648518Y-96193365D01*
X83668471Y-96191400D01*
X83820216Y-96191400D01*
X83867594Y-96238778D01*
X83963277Y-96302712D01*
X84069595Y-96346750D01*
X84182461Y-96369200D01*
X84297539Y-96369200D01*
X84410405Y-96346750D01*
X84516723Y-96302712D01*
X84612406Y-96238778D01*
X84693778Y-96157406D01*
X84757712Y-96061723D01*
X84801750Y-95955405D01*
X84824200Y-95842539D01*
X84824200Y-95727461D01*
X84801750Y-95614595D01*
X84757712Y-95508277D01*
X84693778Y-95412594D01*
X84612406Y-95331222D01*
X84516723Y-95267288D01*
X84410405Y-95223250D01*
X84297539Y-95200800D01*
X84182461Y-95200800D01*
X84069595Y-95223250D01*
X83963277Y-95267288D01*
X83867594Y-95331222D01*
X83820216Y-95378600D01*
X83816855Y-95378600D01*
X83265051Y-94826797D01*
X84470000Y-94826797D01*
X84534730Y-94820422D01*
X84596973Y-94801540D01*
X84654337Y-94770879D01*
X84704616Y-94729616D01*
X84745879Y-94679337D01*
X84776540Y-94621973D01*
X84795422Y-94559730D01*
X84801797Y-94495000D01*
X84801797Y-92972799D01*
X89859737Y-92972799D01*
X89784121Y-93085966D01*
X89695155Y-93300748D01*
X89649800Y-93528760D01*
X89649800Y-93761240D01*
X89695155Y-93989252D01*
X89784121Y-94204034D01*
X89913279Y-94397333D01*
X90077667Y-94561721D01*
X90270966Y-94690879D01*
X90485748Y-94779845D01*
X90713760Y-94825200D01*
X90946240Y-94825200D01*
X91174252Y-94779845D01*
X91389034Y-94690879D01*
X91582333Y-94561721D01*
X91746721Y-94397333D01*
X91875879Y-94204034D01*
X91964845Y-93989252D01*
X92010200Y-93761240D01*
X92010200Y-93528760D01*
X91964845Y-93300748D01*
X91875879Y-93085966D01*
X91800263Y-92972799D01*
X92399737Y-92972799D01*
X92324121Y-93085966D01*
X92235155Y-93300748D01*
X92189800Y-93528760D01*
X92189800Y-93761240D01*
X92235155Y-93989252D01*
X92324121Y-94204034D01*
X92453279Y-94397333D01*
X92617667Y-94561721D01*
X92810966Y-94690879D01*
X93025748Y-94779845D01*
X93253760Y-94825200D01*
X93486240Y-94825200D01*
X93714252Y-94779845D01*
X93929034Y-94690879D01*
X94122333Y-94561721D01*
X94286721Y-94397333D01*
X94415879Y-94204034D01*
X94504845Y-93989252D01*
X94550200Y-93761240D01*
X94550200Y-93528760D01*
X94504845Y-93300748D01*
X94415879Y-93085966D01*
X94340263Y-92972799D01*
X94939737Y-92972799D01*
X94864121Y-93085966D01*
X94775155Y-93300748D01*
X94729800Y-93528760D01*
X94729800Y-93761240D01*
X94775155Y-93989252D01*
X94864121Y-94204034D01*
X94993279Y-94397333D01*
X95157667Y-94561721D01*
X95350966Y-94690879D01*
X95565748Y-94779845D01*
X95793760Y-94825200D01*
X96026240Y-94825200D01*
X96254252Y-94779845D01*
X96469034Y-94690879D01*
X96662333Y-94561721D01*
X96826721Y-94397333D01*
X96955879Y-94204034D01*
X97044845Y-93989252D01*
X97090200Y-93761240D01*
X97090200Y-93528760D01*
X97044845Y-93300748D01*
X96955879Y-93085966D01*
X96880263Y-92972799D01*
X97479737Y-92972799D01*
X97404121Y-93085966D01*
X97315155Y-93300748D01*
X97269800Y-93528760D01*
X97269800Y-93761240D01*
X97315155Y-93989252D01*
X97404121Y-94204034D01*
X97533279Y-94397333D01*
X97697667Y-94561721D01*
X97890966Y-94690879D01*
X98105748Y-94779845D01*
X98333760Y-94825200D01*
X98566240Y-94825200D01*
X98794252Y-94779845D01*
X99009034Y-94690879D01*
X99202333Y-94561721D01*
X99366721Y-94397333D01*
X99495879Y-94204034D01*
X99584845Y-93989252D01*
X99630200Y-93761240D01*
X99630200Y-93528760D01*
X99584845Y-93300748D01*
X99495879Y-93085966D01*
X99420263Y-92972799D01*
X99808203Y-92972799D01*
X99808203Y-94495000D01*
X99814578Y-94559730D01*
X99833460Y-94621973D01*
X99864121Y-94679337D01*
X99905384Y-94729616D01*
X99955663Y-94770879D01*
X100013027Y-94801540D01*
X100075270Y-94820422D01*
X100140000Y-94826797D01*
X100504800Y-94826797D01*
X100504800Y-94828829D01*
X100504801Y-94828839D01*
X100504800Y-98176068D01*
X100502453Y-98199898D01*
X100504800Y-98223727D01*
X100511821Y-98295013D01*
X100539565Y-98386473D01*
X100584619Y-98470765D01*
X100645252Y-98544646D01*
X100663772Y-98559845D01*
X102405164Y-100301239D01*
X102420354Y-100319748D01*
X102494235Y-100380381D01*
X102578526Y-100425435D01*
X102669986Y-100453179D01*
X102765101Y-100462547D01*
X102788931Y-100460200D01*
X103077415Y-100460200D01*
X103081290Y-100479681D01*
X103211716Y-100794557D01*
X103401066Y-101077938D01*
X103642062Y-101318934D01*
X103925443Y-101508284D01*
X104240319Y-101638710D01*
X104574590Y-101705200D01*
X104915410Y-101705200D01*
X105249681Y-101638710D01*
X105564557Y-101508284D01*
X105847938Y-101318934D01*
X106088934Y-101077938D01*
X106278284Y-100794557D01*
X106408710Y-100479681D01*
X106412585Y-100460200D01*
X110477415Y-100460200D01*
X110481290Y-100479681D01*
X110611716Y-100794557D01*
X110801066Y-101077938D01*
X111042062Y-101318934D01*
X111325443Y-101508284D01*
X111640319Y-101638710D01*
X111974590Y-101705200D01*
X112315410Y-101705200D01*
X112649681Y-101638710D01*
X112964557Y-101508284D01*
X113247938Y-101318934D01*
X113488934Y-101077938D01*
X113678284Y-100794557D01*
X113808710Y-100479681D01*
X113875200Y-100145410D01*
X113875200Y-99804590D01*
X113808710Y-99470319D01*
X113745395Y-99317461D01*
X118790800Y-99317461D01*
X118790800Y-99432539D01*
X118813250Y-99545405D01*
X118857288Y-99651723D01*
X118921222Y-99747406D01*
X119002594Y-99828778D01*
X119098277Y-99892712D01*
X119204595Y-99936750D01*
X119317461Y-99959200D01*
X119432539Y-99959200D01*
X119545405Y-99936750D01*
X119651723Y-99892712D01*
X119747406Y-99828778D01*
X119828778Y-99747406D01*
X119892712Y-99651723D01*
X119936750Y-99545405D01*
X119959200Y-99432539D01*
X119959200Y-99317461D01*
X119936750Y-99204595D01*
X119892712Y-99098277D01*
X119860200Y-99049620D01*
X119860200Y-94487795D01*
X119917712Y-94401723D01*
X119961750Y-94295405D01*
X119984200Y-94182539D01*
X119984200Y-94067461D01*
X119961750Y-93954595D01*
X119917712Y-93848277D01*
X119853778Y-93752594D01*
X119772406Y-93671222D01*
X119676723Y-93607288D01*
X119570405Y-93563250D01*
X119457539Y-93540800D01*
X119342461Y-93540800D01*
X119229595Y-93563250D01*
X119123277Y-93607288D01*
X119027594Y-93671222D01*
X118946222Y-93752594D01*
X118882288Y-93848277D01*
X118838250Y-93954595D01*
X118815800Y-94067461D01*
X118815800Y-94182539D01*
X118838250Y-94295405D01*
X118882288Y-94401723D01*
X118889801Y-94412967D01*
X118889800Y-99049620D01*
X118857288Y-99098277D01*
X118813250Y-99204595D01*
X118790800Y-99317461D01*
X113745395Y-99317461D01*
X113678284Y-99155443D01*
X113488934Y-98872062D01*
X113247938Y-98631066D01*
X112964557Y-98441716D01*
X112649681Y-98311290D01*
X112315410Y-98244800D01*
X111974590Y-98244800D01*
X111640319Y-98311290D01*
X111325443Y-98441716D01*
X111042062Y-98631066D01*
X110801066Y-98872062D01*
X110611716Y-99155443D01*
X110481290Y-99470319D01*
X110477415Y-99489800D01*
X106412585Y-99489800D01*
X106408710Y-99470319D01*
X106278284Y-99155443D01*
X106088934Y-98872062D01*
X105847938Y-98631066D01*
X105564557Y-98441716D01*
X105249681Y-98311290D01*
X104915410Y-98244800D01*
X104574590Y-98244800D01*
X104240319Y-98311290D01*
X103925443Y-98441716D01*
X103642062Y-98631066D01*
X103401066Y-98872062D01*
X103211716Y-99155443D01*
X103081290Y-99470319D01*
X103077415Y-99489800D01*
X102966079Y-99489800D01*
X101475200Y-97998923D01*
X101475200Y-96397461D01*
X104725800Y-96397461D01*
X104725800Y-96512539D01*
X104748250Y-96625405D01*
X104792288Y-96731723D01*
X104856222Y-96827406D01*
X104937594Y-96908778D01*
X105033277Y-96972712D01*
X105139595Y-97016750D01*
X105246421Y-97037999D01*
X105865830Y-97657408D01*
X105880147Y-97674853D01*
X105949764Y-97731987D01*
X106029191Y-97774441D01*
X106115373Y-97800585D01*
X106182540Y-97807200D01*
X106182549Y-97807200D01*
X106204999Y-97809411D01*
X106227449Y-97807200D01*
X114808102Y-97807200D01*
X114918954Y-98074822D01*
X115086416Y-98325446D01*
X115299554Y-98538584D01*
X115550178Y-98706046D01*
X115828657Y-98821395D01*
X116124288Y-98880200D01*
X116425712Y-98880200D01*
X116721343Y-98821395D01*
X116999822Y-98706046D01*
X117250446Y-98538584D01*
X117463584Y-98325446D01*
X117631046Y-98074822D01*
X117746395Y-97796343D01*
X117805200Y-97500712D01*
X117805200Y-97199288D01*
X117746395Y-96903657D01*
X117631046Y-96625178D01*
X117463584Y-96374554D01*
X117250446Y-96161416D01*
X116999822Y-95993954D01*
X116721343Y-95878605D01*
X116425712Y-95819800D01*
X116124288Y-95819800D01*
X115828657Y-95878605D01*
X115550178Y-95993954D01*
X115299554Y-96161416D01*
X115086416Y-96374554D01*
X114918954Y-96625178D01*
X114808102Y-96892800D01*
X106394378Y-96892800D01*
X105892999Y-96391421D01*
X105871750Y-96284595D01*
X105827712Y-96178277D01*
X105763778Y-96082594D01*
X105682406Y-96001222D01*
X105586723Y-95937288D01*
X105480405Y-95893250D01*
X105367539Y-95870800D01*
X105252461Y-95870800D01*
X105139595Y-95893250D01*
X105033277Y-95937288D01*
X104937594Y-96001222D01*
X104856222Y-96082594D01*
X104792288Y-96178277D01*
X104748250Y-96284595D01*
X104725800Y-96397461D01*
X101475200Y-96397461D01*
X101475200Y-94826797D01*
X101840000Y-94826797D01*
X101904730Y-94820422D01*
X101966973Y-94801540D01*
X102024337Y-94770879D01*
X102074616Y-94729616D01*
X102115879Y-94679337D01*
X102146540Y-94621973D01*
X102165422Y-94559730D01*
X102171797Y-94495000D01*
X102171797Y-92972799D01*
X106133063Y-92972799D01*
X108335800Y-95175537D01*
X108335800Y-95242539D01*
X108358250Y-95355405D01*
X108402288Y-95461723D01*
X108466222Y-95557406D01*
X108547594Y-95638778D01*
X108643277Y-95702712D01*
X108749595Y-95746750D01*
X108862461Y-95769200D01*
X108977539Y-95769200D01*
X109090405Y-95746750D01*
X109196723Y-95702712D01*
X109292406Y-95638778D01*
X109373778Y-95557406D01*
X109437712Y-95461723D01*
X109481750Y-95355405D01*
X109504200Y-95242539D01*
X109504200Y-95127461D01*
X109481750Y-95014595D01*
X109437712Y-94908277D01*
X109373778Y-94812594D01*
X109292406Y-94731222D01*
X109196723Y-94667288D01*
X109090405Y-94623250D01*
X108977539Y-94600800D01*
X108910537Y-94600800D01*
X106714936Y-92405200D01*
X133279927Y-92405200D01*
X133327718Y-92555856D01*
X133342181Y-92589602D01*
X133356180Y-92623566D01*
X133358871Y-92628542D01*
X133462295Y-92816670D01*
X133483035Y-92846960D01*
X133503367Y-92877563D01*
X133506974Y-92881922D01*
X133644969Y-93046378D01*
X133671236Y-93072100D01*
X133697086Y-93098132D01*
X133701464Y-93101702D01*
X133701470Y-93101708D01*
X133701477Y-93101712D01*
X133868779Y-93236228D01*
X133899517Y-93256342D01*
X133929959Y-93276876D01*
X133934954Y-93279531D01*
X133948800Y-93286769D01*
X133948800Y-95374070D01*
X133909811Y-95413059D01*
X133809046Y-95563864D01*
X133739639Y-95731429D01*
X133704255Y-95909315D01*
X133704255Y-96090685D01*
X133739639Y-96268571D01*
X133809046Y-96436136D01*
X133909811Y-96586941D01*
X133948800Y-96625930D01*
X133948800Y-103374070D01*
X133909811Y-103413059D01*
X133809046Y-103563864D01*
X133739639Y-103731429D01*
X133704255Y-103909315D01*
X133704255Y-104090685D01*
X133739639Y-104268571D01*
X133809046Y-104436136D01*
X133909811Y-104586941D01*
X133948800Y-104625930D01*
X133948800Y-106830909D01*
X133942637Y-106835066D01*
X133911906Y-106855175D01*
X133907522Y-106858751D01*
X133757144Y-106983155D01*
X133731297Y-107009183D01*
X133705027Y-107034908D01*
X133701422Y-107039268D01*
X133578072Y-107190510D01*
X133557769Y-107221068D01*
X133536999Y-107251402D01*
X133534309Y-107256378D01*
X133442683Y-107428700D01*
X133428678Y-107462680D01*
X133414221Y-107496410D01*
X133412548Y-107501814D01*
X133384474Y-107594800D01*
X106654936Y-107594800D01*
X107090537Y-107159200D01*
X107157539Y-107159200D01*
X107270405Y-107136750D01*
X107376723Y-107092712D01*
X107472406Y-107028778D01*
X107553778Y-106947406D01*
X107617712Y-106851723D01*
X107661750Y-106745405D01*
X107684200Y-106632539D01*
X107684200Y-106517461D01*
X107661750Y-106404595D01*
X107617712Y-106298277D01*
X107553778Y-106202594D01*
X107472406Y-106121222D01*
X107376723Y-106057288D01*
X107270405Y-106013250D01*
X107157539Y-105990800D01*
X107042461Y-105990800D01*
X106929595Y-106013250D01*
X106823277Y-106057288D01*
X106727594Y-106121222D01*
X106646222Y-106202594D01*
X106582288Y-106298277D01*
X106538250Y-106404595D01*
X106515800Y-106517461D01*
X106515800Y-106584463D01*
X106083063Y-107017201D01*
X102380263Y-107017201D01*
X102455879Y-106904034D01*
X102544845Y-106689252D01*
X102590200Y-106461240D01*
X102590200Y-106228760D01*
X102544845Y-106000748D01*
X102514262Y-105926914D01*
X103939938Y-104501239D01*
X103939944Y-104501231D01*
X105305976Y-103135200D01*
X114819700Y-103135200D01*
X114918954Y-103374822D01*
X115086416Y-103625446D01*
X115299554Y-103838584D01*
X115550178Y-104006046D01*
X115828657Y-104121395D01*
X116124288Y-104180200D01*
X116425712Y-104180200D01*
X116721343Y-104121395D01*
X116999822Y-104006046D01*
X117250446Y-103838584D01*
X117463584Y-103625446D01*
X117631046Y-103374822D01*
X117746395Y-103096343D01*
X117805200Y-102800712D01*
X117805200Y-102499288D01*
X117746395Y-102203657D01*
X117631046Y-101925178D01*
X117463584Y-101674554D01*
X117250446Y-101461416D01*
X116999822Y-101293954D01*
X116721343Y-101178605D01*
X116425712Y-101119800D01*
X116124288Y-101119800D01*
X115828657Y-101178605D01*
X115550178Y-101293954D01*
X115299554Y-101461416D01*
X115086416Y-101674554D01*
X114918954Y-101925178D01*
X114819700Y-102164800D01*
X105128829Y-102164800D01*
X105104999Y-102162453D01*
X105009884Y-102171821D01*
X104918424Y-102199565D01*
X104834133Y-102244619D01*
X104760252Y-102305252D01*
X104745057Y-102323767D01*
X103253769Y-103815056D01*
X103253761Y-103815062D01*
X101828086Y-105240738D01*
X101754252Y-105210155D01*
X101526240Y-105164800D01*
X101293760Y-105164800D01*
X101065748Y-105210155D01*
X100850966Y-105299121D01*
X100657667Y-105428279D01*
X100493279Y-105592667D01*
X100364121Y-105785966D01*
X100275155Y-106000748D01*
X100229800Y-106228760D01*
X100229800Y-106461240D01*
X100275155Y-106689252D01*
X100364121Y-106904034D01*
X100439737Y-107017201D01*
X97300263Y-107017201D01*
X97375879Y-106904034D01*
X97464845Y-106689252D01*
X97510200Y-106461240D01*
X97510200Y-106228760D01*
X97464845Y-106000748D01*
X97422664Y-105898914D01*
X98249378Y-105072200D01*
X101327550Y-105072200D01*
X101350000Y-105074411D01*
X101372450Y-105072200D01*
X101372460Y-105072200D01*
X101439627Y-105065585D01*
X101525809Y-105039441D01*
X101605236Y-104996987D01*
X101674853Y-104939853D01*
X101689174Y-104922403D01*
X103357408Y-103254170D01*
X103374853Y-103239853D01*
X103431987Y-103170236D01*
X103474441Y-103090809D01*
X103500585Y-103004627D01*
X103507200Y-102937460D01*
X103507200Y-102937451D01*
X103509411Y-102915001D01*
X103507200Y-102892551D01*
X103507200Y-102282285D01*
X103567712Y-102191723D01*
X103611750Y-102085405D01*
X103634200Y-101972539D01*
X103634200Y-101857461D01*
X103611750Y-101744595D01*
X103567712Y-101638277D01*
X103503778Y-101542594D01*
X103422406Y-101461222D01*
X103326723Y-101397288D01*
X103220405Y-101353250D01*
X103107539Y-101330800D01*
X102992461Y-101330800D01*
X102879595Y-101353250D01*
X102773277Y-101397288D01*
X102677594Y-101461222D01*
X102596222Y-101542594D01*
X102532288Y-101638277D01*
X102488250Y-101744595D01*
X102465800Y-101857461D01*
X102465800Y-101972539D01*
X102488250Y-102085405D01*
X102532288Y-102191723D01*
X102592800Y-102282285D01*
X102592801Y-102725621D01*
X101160623Y-104157800D01*
X98082449Y-104157800D01*
X98059999Y-104155589D01*
X98037549Y-104157800D01*
X98037540Y-104157800D01*
X97970373Y-104164415D01*
X97884191Y-104190559D01*
X97847217Y-104210322D01*
X97804763Y-104233013D01*
X97763000Y-104267288D01*
X97735147Y-104290147D01*
X97720830Y-104307592D01*
X96776086Y-105252336D01*
X96674252Y-105210155D01*
X96446240Y-105164800D01*
X96213760Y-105164800D01*
X95985748Y-105210155D01*
X95770966Y-105299121D01*
X95577667Y-105428279D01*
X95413279Y-105592667D01*
X95284121Y-105785966D01*
X95195155Y-106000748D01*
X95149800Y-106228760D01*
X95149800Y-106461240D01*
X95195155Y-106689252D01*
X95284121Y-106904034D01*
X95359737Y-107017201D01*
X94760263Y-107017201D01*
X94835879Y-106904034D01*
X94924845Y-106689252D01*
X94970200Y-106461240D01*
X94970200Y-106228760D01*
X94924845Y-106000748D01*
X94835879Y-105785966D01*
X94706721Y-105592667D01*
X94542333Y-105428279D01*
X94349034Y-105299121D01*
X94134252Y-105210155D01*
X93906240Y-105164800D01*
X93673760Y-105164800D01*
X93445748Y-105210155D01*
X93230966Y-105299121D01*
X93037667Y-105428279D01*
X92873279Y-105592667D01*
X92744121Y-105785966D01*
X92655155Y-106000748D01*
X92609800Y-106228760D01*
X92609800Y-106461240D01*
X92655155Y-106689252D01*
X92744121Y-106904034D01*
X92819737Y-107017201D01*
X92220263Y-107017201D01*
X92295879Y-106904034D01*
X92384845Y-106689252D01*
X92430200Y-106461240D01*
X92430200Y-106228760D01*
X92384845Y-106000748D01*
X92295879Y-105785966D01*
X92166721Y-105592667D01*
X92002333Y-105428279D01*
X91809034Y-105299121D01*
X91594252Y-105210155D01*
X91366240Y-105164800D01*
X91133760Y-105164800D01*
X90905748Y-105210155D01*
X90753114Y-105273378D01*
X88204603Y-102724867D01*
X88204603Y-100489205D01*
X88251981Y-100441827D01*
X88315915Y-100346144D01*
X88324846Y-100324582D01*
X88988518Y-100988254D01*
X89001242Y-101003758D01*
X89063124Y-101054544D01*
X89133725Y-101092281D01*
X89187093Y-101108470D01*
X89210331Y-101115519D01*
X89218335Y-101116307D01*
X89270040Y-101121400D01*
X89270046Y-101121400D01*
X89289999Y-101123365D01*
X89309952Y-101121400D01*
X89320216Y-101121400D01*
X89367594Y-101168778D01*
X89463277Y-101232712D01*
X89569595Y-101276750D01*
X89682461Y-101299200D01*
X89797539Y-101299200D01*
X89910405Y-101276750D01*
X90016723Y-101232712D01*
X90112406Y-101168778D01*
X90193778Y-101087406D01*
X90257712Y-100991723D01*
X90301750Y-100885405D01*
X90314014Y-100823750D01*
X92281125Y-102790862D01*
X92293844Y-102806360D01*
X92309342Y-102819079D01*
X92309347Y-102819084D01*
X92317012Y-102825374D01*
X92355726Y-102857146D01*
X92420140Y-102891576D01*
X92426327Y-102894883D01*
X92502933Y-102918121D01*
X92510937Y-102918909D01*
X92562642Y-102924002D01*
X92562648Y-102924002D01*
X92582601Y-102925967D01*
X92602554Y-102924002D01*
X99847445Y-102924002D01*
X99867398Y-102925967D01*
X99887351Y-102924002D01*
X99887358Y-102924002D01*
X99947066Y-102918121D01*
X100023673Y-102894883D01*
X100094274Y-102857146D01*
X100156156Y-102806360D01*
X100168880Y-102790856D01*
X100280536Y-102679200D01*
X100347539Y-102679200D01*
X100460405Y-102656750D01*
X100566723Y-102612712D01*
X100662406Y-102548778D01*
X100743778Y-102467406D01*
X100807712Y-102371723D01*
X100851750Y-102265405D01*
X100874200Y-102152539D01*
X100874200Y-102037461D01*
X100851750Y-101924595D01*
X100807712Y-101818277D01*
X100743778Y-101722594D01*
X100662406Y-101641222D01*
X100566723Y-101577288D01*
X100460405Y-101533250D01*
X100347539Y-101510800D01*
X100232461Y-101510800D01*
X100119595Y-101533250D01*
X100013277Y-101577288D01*
X99917594Y-101641222D01*
X99836222Y-101722594D01*
X99772288Y-101818277D01*
X99728250Y-101924595D01*
X99705800Y-102037461D01*
X99705800Y-102104464D01*
X99699062Y-102111202D01*
X97890488Y-102111202D01*
X97894200Y-102092539D01*
X97894200Y-101977461D01*
X97871750Y-101864595D01*
X97827712Y-101758277D01*
X97763778Y-101662594D01*
X97682406Y-101581222D01*
X97586723Y-101517288D01*
X97480405Y-101473250D01*
X97367539Y-101450800D01*
X97252461Y-101450800D01*
X97139595Y-101473250D01*
X97033277Y-101517288D01*
X96937594Y-101581222D01*
X96890216Y-101628600D01*
X94779016Y-101628600D01*
X94784200Y-101602539D01*
X94784200Y-101487461D01*
X94761750Y-101374595D01*
X94717712Y-101268277D01*
X94653778Y-101172594D01*
X94572406Y-101091222D01*
X94476723Y-101027288D01*
X94370405Y-100983250D01*
X94257539Y-100960800D01*
X94142461Y-100960800D01*
X94029595Y-100983250D01*
X93923277Y-101027288D01*
X93827594Y-101091222D01*
X93780216Y-101138600D01*
X93178336Y-101138600D01*
X93158111Y-101118375D01*
X93202406Y-101088778D01*
X93283778Y-101007406D01*
X93347712Y-100911723D01*
X93391750Y-100805405D01*
X93414200Y-100692539D01*
X93414200Y-100577461D01*
X93391750Y-100464595D01*
X93347712Y-100358277D01*
X93283778Y-100262594D01*
X93202406Y-100181222D01*
X93106723Y-100117288D01*
X93000405Y-100073250D01*
X92887539Y-100050800D01*
X92820537Y-100050800D01*
X89241482Y-96471746D01*
X89228758Y-96456242D01*
X89166876Y-96405456D01*
X89096275Y-96367719D01*
X89019668Y-96344481D01*
X88959960Y-96338600D01*
X88959953Y-96338600D01*
X88940000Y-96336635D01*
X88920047Y-96338600D01*
X88229784Y-96338600D01*
X88182406Y-96291222D01*
X88086723Y-96227288D01*
X87980405Y-96183250D01*
X87867539Y-96160800D01*
X87752461Y-96160800D01*
X87639595Y-96183250D01*
X87533277Y-96227288D01*
X87437594Y-96291222D01*
X87356222Y-96372594D01*
X87292288Y-96468277D01*
X87248250Y-96574595D01*
X87225800Y-96687461D01*
X87225800Y-96802539D01*
X87248250Y-96915405D01*
X87292288Y-97021723D01*
X87356222Y-97117406D01*
X87437594Y-97198778D01*
X87533277Y-97262712D01*
X87612134Y-97295375D01*
X87586356Y-97312600D01*
X87504984Y-97393972D01*
X87441050Y-97489655D01*
X87397012Y-97595973D01*
X87374562Y-97708839D01*
X87374562Y-97823917D01*
X87397012Y-97936783D01*
X87441050Y-98043101D01*
X87504984Y-98138784D01*
X87586356Y-98220156D01*
X87682039Y-98284090D01*
X87775800Y-98322927D01*
X87775800Y-98352539D01*
X87798250Y-98465405D01*
X87842288Y-98571723D01*
X87906222Y-98667406D01*
X87987594Y-98748778D01*
X88083277Y-98812712D01*
X88189595Y-98856750D01*
X88302461Y-98879200D01*
X88369464Y-98879200D01*
X89631250Y-100140986D01*
X89569595Y-100153250D01*
X89463277Y-100197288D01*
X89393589Y-100243853D01*
X88594200Y-99444464D01*
X88594200Y-99377461D01*
X88571750Y-99264595D01*
X88527712Y-99158277D01*
X88463778Y-99062594D01*
X88382406Y-98981222D01*
X88286723Y-98917288D01*
X88180405Y-98873250D01*
X88067539Y-98850800D01*
X87952461Y-98850800D01*
X87839595Y-98873250D01*
X87733277Y-98917288D01*
X87637594Y-98981222D01*
X87556222Y-99062594D01*
X87492288Y-99158277D01*
X87448250Y-99264595D01*
X87425800Y-99377461D01*
X87425800Y-99492539D01*
X87447413Y-99601199D01*
X87425797Y-99615643D01*
X87344425Y-99697015D01*
X87280491Y-99792698D01*
X87236453Y-99899016D01*
X87214003Y-100011882D01*
X87214003Y-100126960D01*
X87236453Y-100239826D01*
X87280491Y-100346144D01*
X87344425Y-100441827D01*
X87391804Y-100489206D01*
X87391803Y-102873250D01*
X87389838Y-102893203D01*
X87391803Y-102913156D01*
X87391803Y-102913162D01*
X87395802Y-102953758D01*
X87397684Y-102972871D01*
X87418739Y-103042281D01*
X87420922Y-103049477D01*
X87458659Y-103120078D01*
X87509445Y-103181961D01*
X87524949Y-103194685D01*
X88708864Y-104378600D01*
X85819784Y-104378600D01*
X85772406Y-104331222D01*
X85676723Y-104267288D01*
X85570405Y-104223250D01*
X85457539Y-104200800D01*
X85390536Y-104200800D01*
X85284243Y-104094507D01*
X85271519Y-104079003D01*
X85209637Y-104028217D01*
X85139036Y-103990480D01*
X85062429Y-103967242D01*
X85002721Y-103961361D01*
X85002714Y-103961361D01*
X84982761Y-103959396D01*
X84962808Y-103961361D01*
X82549871Y-103961361D01*
X82502493Y-103913983D01*
X82406810Y-103850049D01*
X82300492Y-103806011D01*
X82187626Y-103783561D01*
X82072548Y-103783561D01*
X81959682Y-103806011D01*
X81853364Y-103850049D01*
X81757681Y-103913983D01*
X81676309Y-103995355D01*
X81612375Y-104091038D01*
X81568337Y-104197356D01*
X81545887Y-104310222D01*
X81545887Y-104425300D01*
X81568337Y-104538166D01*
X81612375Y-104644484D01*
X81676309Y-104740167D01*
X81757681Y-104821539D01*
X81853364Y-104885473D01*
X81959682Y-104929511D01*
X82072548Y-104951961D01*
X82187626Y-104951961D01*
X82300492Y-104929511D01*
X82406810Y-104885473D01*
X82502493Y-104821539D01*
X82549871Y-104774161D01*
X84814425Y-104774161D01*
X84815800Y-104775536D01*
X84815800Y-104842539D01*
X84838250Y-104955405D01*
X84882288Y-105061723D01*
X84946222Y-105157406D01*
X85027594Y-105238778D01*
X85123277Y-105302712D01*
X85229595Y-105346750D01*
X85342461Y-105369200D01*
X85457539Y-105369200D01*
X85526662Y-105355451D01*
X85417667Y-105428279D01*
X85253279Y-105592667D01*
X85124121Y-105785966D01*
X85035155Y-106000748D01*
X84989800Y-106228760D01*
X84989800Y-106461240D01*
X85035155Y-106689252D01*
X85124121Y-106904034D01*
X85253279Y-107097333D01*
X85417667Y-107261721D01*
X85610966Y-107390879D01*
X85825748Y-107479845D01*
X86053760Y-107525200D01*
X86286240Y-107525200D01*
X86514252Y-107479845D01*
X86729034Y-107390879D01*
X86922333Y-107261721D01*
X87086721Y-107097333D01*
X87215879Y-106904034D01*
X87304845Y-106689252D01*
X87350200Y-106461240D01*
X87350200Y-106228760D01*
X87304845Y-106000748D01*
X87215879Y-105785966D01*
X87086721Y-105592667D01*
X86922333Y-105428279D01*
X86729034Y-105299121D01*
X86514252Y-105210155D01*
X86419965Y-105191400D01*
X88460035Y-105191400D01*
X88365748Y-105210155D01*
X88150966Y-105299121D01*
X87957667Y-105428279D01*
X87793279Y-105592667D01*
X87664121Y-105785966D01*
X87575155Y-106000748D01*
X87529800Y-106228760D01*
X87529800Y-106461240D01*
X87575155Y-106689252D01*
X87664121Y-106904034D01*
X87793279Y-107097333D01*
X87957667Y-107261721D01*
X88150966Y-107390879D01*
X88365748Y-107479845D01*
X88593760Y-107525200D01*
X88826240Y-107525200D01*
X89054252Y-107479845D01*
X89269034Y-107390879D01*
X89462333Y-107261721D01*
X89626721Y-107097333D01*
X89755879Y-106904034D01*
X89764946Y-106882144D01*
X89770880Y-106942397D01*
X89794118Y-107019003D01*
X89805118Y-107039582D01*
X89831856Y-107089605D01*
X89842904Y-107103067D01*
X89869917Y-107135983D01*
X89869923Y-107135989D01*
X89882642Y-107151487D01*
X89898140Y-107164206D01*
X90328733Y-107594800D01*
X67145073Y-107594800D01*
X67097282Y-107444144D01*
X67082819Y-107410398D01*
X67068820Y-107376434D01*
X67066129Y-107371458D01*
X66962705Y-107183330D01*
X66941976Y-107153056D01*
X66921633Y-107122437D01*
X66918026Y-107118078D01*
X66780031Y-106953622D01*
X66753784Y-106927919D01*
X66727914Y-106901867D01*
X66723530Y-106898292D01*
X66556220Y-106763772D01*
X66525496Y-106743666D01*
X66495042Y-106723124D01*
X66490057Y-106720475D01*
X66490048Y-106720469D01*
X66490039Y-106720465D01*
X66299793Y-106621008D01*
X66265750Y-106607254D01*
X66231888Y-106593019D01*
X66226472Y-106591384D01*
X66226470Y-106591383D01*
X66226466Y-106591382D01*
X66020524Y-106530770D01*
X65984464Y-106523891D01*
X65948474Y-106516503D01*
X65942844Y-106515952D01*
X65729045Y-106496495D01*
X65692360Y-106496751D01*
X65655597Y-106496494D01*
X65649967Y-106497047D01*
X65649965Y-106497047D01*
X65436460Y-106519487D01*
X65400514Y-106526865D01*
X65364407Y-106533753D01*
X65358998Y-106535387D01*
X65358994Y-106535388D01*
X65358991Y-106535389D01*
X65358992Y-106535389D01*
X65153911Y-106598873D01*
X65120078Y-106613095D01*
X65086005Y-106626861D01*
X65081010Y-106629517D01*
X64892165Y-106731625D01*
X64861728Y-106752155D01*
X64830988Y-106772270D01*
X64826605Y-106775846D01*
X64661189Y-106912689D01*
X64635323Y-106938736D01*
X64609069Y-106964445D01*
X64605464Y-106968804D01*
X64469779Y-107135171D01*
X64449466Y-107165745D01*
X64428707Y-107196062D01*
X64426017Y-107201039D01*
X64325229Y-107390593D01*
X64311232Y-107424552D01*
X64296766Y-107458303D01*
X64295093Y-107463707D01*
X64255514Y-107594800D01*
X60119817Y-107594800D01*
X59790612Y-107562521D01*
X59493008Y-107472669D01*
X59218529Y-107326725D01*
X58977620Y-107130245D01*
X58779462Y-106890714D01*
X58631604Y-106617256D01*
X58539677Y-106320286D01*
X58505200Y-105992263D01*
X58505200Y-102705000D01*
X58699937Y-102705000D01*
X58719345Y-102902054D01*
X58776823Y-103091534D01*
X58870163Y-103266161D01*
X58995778Y-103419222D01*
X59148839Y-103544837D01*
X59323466Y-103638177D01*
X59512946Y-103695655D01*
X59660625Y-103710200D01*
X60109375Y-103710200D01*
X60257054Y-103695655D01*
X60446534Y-103638177D01*
X60621161Y-103544837D01*
X60774222Y-103419222D01*
X60899837Y-103266161D01*
X60940439Y-103190200D01*
X62305499Y-103190200D01*
X62346533Y-103212133D01*
X62512451Y-103262463D01*
X62641769Y-103275200D01*
X63128231Y-103275200D01*
X63257549Y-103262463D01*
X63423467Y-103212133D01*
X63576379Y-103130400D01*
X63710406Y-103020406D01*
X63820400Y-102886379D01*
X63902133Y-102733467D01*
X63952463Y-102567549D01*
X63969458Y-102395000D01*
X63952463Y-102222451D01*
X63902133Y-102056533D01*
X63820400Y-101903621D01*
X63710406Y-101769594D01*
X63576379Y-101659600D01*
X63423467Y-101577867D01*
X63257549Y-101527537D01*
X63128231Y-101514800D01*
X62641769Y-101514800D01*
X62512451Y-101527537D01*
X62346533Y-101577867D01*
X62193621Y-101659600D01*
X62059594Y-101769594D01*
X61949600Y-101903621D01*
X61867867Y-102056533D01*
X61818341Y-102219800D01*
X60940439Y-102219800D01*
X60899837Y-102143839D01*
X60774222Y-101990778D01*
X60621161Y-101865163D01*
X60446534Y-101771823D01*
X60257054Y-101714345D01*
X60109375Y-101699800D01*
X59660625Y-101699800D01*
X59512946Y-101714345D01*
X59323466Y-101771823D01*
X59148839Y-101865163D01*
X58995778Y-101990778D01*
X58870163Y-102143839D01*
X58776823Y-102318466D01*
X58719345Y-102507946D01*
X58699937Y-102705000D01*
X58505200Y-102705000D01*
X58505200Y-99804590D01*
X64414800Y-99804590D01*
X64414800Y-100145410D01*
X64481290Y-100479681D01*
X64611716Y-100794557D01*
X64801066Y-101077938D01*
X65042062Y-101318934D01*
X65325443Y-101508284D01*
X65640319Y-101638710D01*
X65974590Y-101705200D01*
X66315410Y-101705200D01*
X66649681Y-101638710D01*
X66964557Y-101508284D01*
X67247938Y-101318934D01*
X67488934Y-101077938D01*
X67678284Y-100794557D01*
X67808710Y-100479681D01*
X67875200Y-100145410D01*
X67875200Y-99804590D01*
X71814800Y-99804590D01*
X71814800Y-100145410D01*
X71881290Y-100479681D01*
X72011716Y-100794557D01*
X72201066Y-101077938D01*
X72442062Y-101318934D01*
X72725443Y-101508284D01*
X73040319Y-101638710D01*
X73374590Y-101705200D01*
X73715410Y-101705200D01*
X74049681Y-101638710D01*
X74364557Y-101508284D01*
X74647938Y-101318934D01*
X74888934Y-101077938D01*
X75078284Y-100794557D01*
X75208710Y-100479681D01*
X75275200Y-100145410D01*
X75275200Y-99804590D01*
X75208710Y-99470319D01*
X75078284Y-99155443D01*
X74888934Y-98872062D01*
X74647938Y-98631066D01*
X74364557Y-98441716D01*
X74049681Y-98311290D01*
X73715410Y-98244800D01*
X73374590Y-98244800D01*
X73040319Y-98311290D01*
X72725443Y-98441716D01*
X72442062Y-98631066D01*
X72201066Y-98872062D01*
X72011716Y-99155443D01*
X71881290Y-99470319D01*
X71814800Y-99804590D01*
X67875200Y-99804590D01*
X67808710Y-99470319D01*
X67678284Y-99155443D01*
X67488934Y-98872062D01*
X67247938Y-98631066D01*
X66964557Y-98441716D01*
X66649681Y-98311290D01*
X66315410Y-98244800D01*
X65974590Y-98244800D01*
X65640319Y-98311290D01*
X65325443Y-98441716D01*
X65042062Y-98631066D01*
X64801066Y-98872062D01*
X64611716Y-99155443D01*
X64481290Y-99470319D01*
X64414800Y-99804590D01*
X58505200Y-99804590D01*
X58505200Y-97245000D01*
X58699937Y-97245000D01*
X58719345Y-97442054D01*
X58776823Y-97631534D01*
X58870163Y-97806161D01*
X58995778Y-97959222D01*
X59148839Y-98084837D01*
X59323466Y-98178177D01*
X59512946Y-98235655D01*
X59660625Y-98250200D01*
X60109375Y-98250200D01*
X60257054Y-98235655D01*
X60446534Y-98178177D01*
X60621161Y-98084837D01*
X60675551Y-98040200D01*
X61946297Y-98040200D01*
X61949600Y-98046379D01*
X62059594Y-98180406D01*
X62193621Y-98290400D01*
X62346533Y-98372133D01*
X62512451Y-98422463D01*
X62641769Y-98435200D01*
X63128231Y-98435200D01*
X63257549Y-98422463D01*
X63423467Y-98372133D01*
X63576379Y-98290400D01*
X63710406Y-98180406D01*
X63820400Y-98046379D01*
X63902133Y-97893467D01*
X63952463Y-97727549D01*
X63969458Y-97555000D01*
X63952463Y-97382451D01*
X63902133Y-97216533D01*
X63820400Y-97063621D01*
X63710406Y-96929594D01*
X63576379Y-96819600D01*
X63423467Y-96737867D01*
X63257549Y-96687537D01*
X63128231Y-96674800D01*
X62641769Y-96674800D01*
X62512451Y-96687537D01*
X62346533Y-96737867D01*
X62193621Y-96819600D01*
X62059594Y-96929594D01*
X61949600Y-97063621D01*
X61946297Y-97069800D01*
X61052807Y-97069800D01*
X61050655Y-97047946D01*
X60993177Y-96858466D01*
X60899837Y-96683839D01*
X60774222Y-96530778D01*
X60621161Y-96405163D01*
X60446534Y-96311823D01*
X60257054Y-96254345D01*
X60109375Y-96239800D01*
X59660625Y-96239800D01*
X59512946Y-96254345D01*
X59323466Y-96311823D01*
X59148839Y-96405163D01*
X58995778Y-96530778D01*
X58870163Y-96683839D01*
X58776823Y-96858466D01*
X58719345Y-97047946D01*
X58699937Y-97245000D01*
X58505200Y-97245000D01*
X58505200Y-94019817D01*
X58537479Y-93690613D01*
X58627331Y-93393007D01*
X58773278Y-93118524D01*
X58969754Y-92877621D01*
X59209287Y-92679462D01*
X59482744Y-92531604D01*
X59779714Y-92439677D01*
X60107736Y-92405200D01*
X64254927Y-92405200D01*
X64302718Y-92555856D01*
M02*
